<?xml version="1.0" encoding="UTF-8" standalone="no"?>
<!DOCTYPE svg PUBLIC "-//W3C//DTD SVG 1.1//EN"
 "http://www.w3.org/Graphics/SVG/1.1/DTD/svg11.dtd">
<!-- Generated by graphviz version 9.0.0 (20230911.1827)
 -->
<!-- Title: engine::direct3d::DefaultBuffer&lt; T &gt; Pages: 1 -->
<svg width="127pt" height="238pt"
 viewBox="0.00 0.00 126.75 238.00" xmlns="http://www.w3.org/2000/svg" xmlns:xlink="http://www.w3.org/1999/xlink">
<g id="graph0" class="graph" transform="scale(1 1) rotate(0) translate(4 234)">
<title>engine::direct3d::DefaultBuffer&lt; T &gt;</title>
<!-- Node1 -->
<g id="Node000001" class="node">
<title>Node1</title>
<g id="a_Node000001"><a xlink:title="The default buffer class.">
<polygon fill="#999999" stroke="#666666" points="118.75,-97 0,-97 0,-66.5 118.75,-66.5 118.75,-97"/>
<text text-anchor="start" x="8" y="-83.5" font-family="Helvetica,sans-Serif" font-size="10.00">engine::direct3d::Default</text>
<text text-anchor="middle" x="59.38" y="-72.25" font-family="Helvetica,sans-Serif" font-size="10.00">Buffer&lt; T &gt;</text>
</a>
</g>
</g>
<!-- Node4 -->
<g id="Node000004" class="node">
<title>Node4</title>
<g id="a_Node000004"><a xlink:href="../../d6/d4c/classengine_1_1direct3d_1_1_default_uniform_buffer.html" target="_top" xlink:title="Default uniform buffer class.">
<polygon fill="white" stroke="#666666" points="118.75,-30.5 0,-30.5 0,0 118.75,0 118.75,-30.5"/>
<text text-anchor="start" x="8" y="-17" font-family="Helvetica,sans-Serif" font-size="10.00">engine::direct3d::Default</text>
<text text-anchor="middle" x="59.38" y="-5.75" font-family="Helvetica,sans-Serif" font-size="10.00">UniformBuffer&lt; T &gt;</text>
</a>
</g>
</g>
<!-- Node1&#45;&gt;Node4 -->
<g id="edge3_Node000001_Node000004" class="edge">
<title>Node1&#45;&gt;Node4</title>
<g id="a_edge3_Node000001_Node000004"><a xlink:title=" ">
<path fill="none" stroke="#8b1a1a" d="M59.38,-54.81C59.38,-46.64 59.38,-37.91 59.38,-30.83"/>
<polygon fill="#8b1a1a" stroke="#8b1a1a" points="55.88,-54.6 59.38,-64.6 62.88,-54.6 55.88,-54.6"/>
</a>
</g>
</g>
<!-- Node2 -->
<g id="Node000002" class="node">
<title>Node2</title>
<g id="a_Node000002"><a xlink:href="../../d9/db4/classengine_1_1direct3d_1_1_buffer_base.html" target="_top" xlink:title="Buffer Base class that contains the common functions for all the buffers.">
<polygon fill="white" stroke="#666666" points="116.12,-163.5 2.62,-163.5 2.62,-133 116.12,-133 116.12,-163.5"/>
<text text-anchor="start" x="10.62" y="-150" font-family="Helvetica,sans-Serif" font-size="10.00">engine::direct3d::Buffer</text>
<text text-anchor="middle" x="59.38" y="-138.75" font-family="Helvetica,sans-Serif" font-size="10.00">Base&lt; T &gt;</text>
</a>
</g>
</g>
<!-- Node2&#45;&gt;Node1 -->
<g id="edge1_Node000001_Node000002" class="edge">
<title>Node2&#45;&gt;Node1</title>
<g id="a_edge1_Node000001_Node000002"><a xlink:title=" ">
<path fill="none" stroke="#63b8ff" d="M59.38,-121.31C59.38,-113.14 59.38,-104.41 59.38,-97.33"/>
<polygon fill="#63b8ff" stroke="#63b8ff" points="55.88,-121.1 59.38,-131.1 62.88,-121.1 55.88,-121.1"/>
</a>
</g>
</g>
<!-- Node3 -->
<g id="Node000003" class="node">
<title>Node3</title>
<g id="a_Node000003"><a xlink:href="../../d6/de4/classengine_1_1direct3d_1_1_buffer_wrapper.html" target="_top" xlink:title="A wrapper for a D3D11 buffer.">
<polygon fill="white" stroke="#666666" points="116.12,-230 2.62,-230 2.62,-199.5 116.12,-199.5 116.12,-230"/>
<text text-anchor="start" x="10.62" y="-216.5" font-family="Helvetica,sans-Serif" font-size="10.00">engine::direct3d::Buffer</text>
<text text-anchor="middle" x="59.38" y="-205.25" font-family="Helvetica,sans-Serif" font-size="10.00">Wrapper</text>
</a>
</g>
</g>
<!-- Node3&#45;&gt;Node2 -->
<g id="edge2_Node000002_Node000003" class="edge">
<title>Node3&#45;&gt;Node2</title>
<g id="a_edge2_Node000002_Node000003"><a xlink:title=" ">
<path fill="none" stroke="#8b1a1a" d="M59.38,-187.81C59.38,-179.64 59.38,-170.91 59.38,-163.83"/>
<polygon fill="#8b1a1a" stroke="#8b1a1a" points="55.88,-187.6 59.38,-197.6 62.88,-187.6 55.88,-187.6"/>
</a>
</g>
</g>
</g>
</svg>
