<?xml version="1.0" encoding="UTF-8" standalone="no"?>
<!DOCTYPE svg PUBLIC "-//W3C//DTD SVG 1.1//EN"
 "http://www.w3.org/Graphics/SVG/1.1/DTD/svg11.dtd">
<!-- Generated by graphviz version 9.0.0 (20230911.1827)
 -->
<!-- Title: engine::render::PostProcessingLayer Pages: 1 -->
<svg width="158pt" height="229pt"
 viewBox="0.00 0.00 157.50 228.75" xmlns="http://www.w3.org/2000/svg" xmlns:xlink="http://www.w3.org/1999/xlink">
<g id="graph0" class="graph" transform="scale(1 1) rotate(0) translate(4 224.75)">
<title>engine::render::PostProcessingLayer</title>
<!-- Node1 -->
<g id="Node000001" class="node">
<title>Node1</title>
<g id="a_Node000001"><a xlink:title=" ">
<polygon fill="#999999" stroke="#666666" points="149.5,-30.5 0,-30.5 0,0 149.5,0 149.5,-30.5"/>
<text text-anchor="start" x="8" y="-17" font-family="Helvetica,sans-Serif" font-size="10.00">engine::render::PostProcessing</text>
<text text-anchor="middle" x="74.75" y="-5.75" font-family="Helvetica,sans-Serif" font-size="10.00">Layer</text>
</a>
</g>
</g>
<!-- Node2 -->
<g id="Node000002" class="node">
<title>Node2</title>
<g id="a_Node000002"><a xlink:href="../../d0/d04/classengine_1_1core_1_1_layer.html" target="_top" xlink:title=" ">
<polygon fill="white" stroke="#666666" points="122.88,-86.75 26.62,-86.75 26.62,-67.5 122.88,-67.5 122.88,-86.75"/>
<text text-anchor="middle" x="74.75" y="-73.25" font-family="Helvetica,sans-Serif" font-size="10.00">engine::core::Layer</text>
</a>
</g>
</g>
<!-- Node2&#45;&gt;Node1 -->
<g id="edge1_Node000001_Node000002" class="edge">
<title>Node2&#45;&gt;Node1</title>
<g id="a_edge1_Node000001_Node000002"><a xlink:title=" ">
<path fill="none" stroke="#63b8ff" d="M74.75,-55.69C74.75,-47.43 74.75,-38.09 74.75,-30.57"/>
<polygon fill="#63b8ff" stroke="#63b8ff" points="71.25,-55.52 74.75,-65.52 78.25,-55.52 71.25,-55.52"/>
</a>
</g>
</g>
<!-- Node3 -->
<g id="Node000003" class="node">
<title>Node3</title>
<g id="a_Node000003"><a xlink:title=" ">
<polygon fill="white" stroke="#666666" points="103.75,-153.25 45.75,-153.25 45.75,-134 103.75,-134 103.75,-153.25"/>
<text text-anchor="middle" x="74.75" y="-139.75" font-family="Helvetica,sans-Serif" font-size="10.00">std::string</text>
</a>
</g>
</g>
<!-- Node3&#45;&gt;Node2 -->
<g id="edge2_Node000002_Node000003" class="edge">
<title>Node3&#45;&gt;Node2</title>
<g id="a_edge2_Node000002_Node000003"><a xlink:title=" ">
<path fill="none" stroke="#9a32cd" stroke-dasharray="5,2" d="M74.75,-122.15C74.75,-110.32 74.75,-96.04 74.75,-87.02"/>
<polygon fill="#9a32cd" stroke="#9a32cd" points="71.25,-122.14 74.75,-132.14 78.25,-122.14 71.25,-122.14"/>
</a>
</g>
<text text-anchor="middle" x="106.25" y="-106.5" font-family="Helvetica,sans-Serif" font-size="10.00" fill="grey"> debug_name_</text>
</g>
<!-- Node4 -->
<g id="Node000004" class="node">
<title>Node4</title>
<g id="a_Node000004"><a xlink:title=" ">
<polygon fill="white" stroke="#666666" points="121,-220.75 28.5,-220.75 28.5,-190.25 121,-190.25 121,-220.75"/>
<text text-anchor="start" x="36.5" y="-207.25" font-family="Helvetica,sans-Serif" font-size="10.00">std::basic_string&lt;</text>
<text text-anchor="middle" x="74.75" y="-196" font-family="Helvetica,sans-Serif" font-size="10.00"> Char &gt;</text>
</a>
</g>
</g>
<!-- Node4&#45;&gt;Node3 -->
<g id="edge3_Node000003_Node000004" class="edge">
<title>Node4&#45;&gt;Node3</title>
<g id="a_edge3_Node000003_Node000004"><a xlink:title=" ">
<path fill="none" stroke="#63b8ff" d="M74.75,-178.77C74.75,-169.79 74.75,-160.29 74.75,-153.6"/>
<polygon fill="#63b8ff" stroke="#63b8ff" points="71.25,-178.49 74.75,-188.49 78.25,-178.49 71.25,-178.49"/>
</a>
</g>
</g>
</g>
</svg>
