<?xml version="1.0" encoding="UTF-8" standalone="no"?>
<!DOCTYPE svg PUBLIC "-//W3C//DTD SVG 1.1//EN"
 "http://www.w3.org/Graphics/SVG/1.1/DTD/svg11.dtd">
<!-- Generated by graphviz version 8.1.0 (20230707.0739)
 -->
<!-- Title: engine::direct3d::ImmutableBuffer&lt; T &gt; Pages: 1 -->
<svg width="614pt" height="196pt"
 viewBox="0.00 0.00 614.25 195.50" xmlns="http://www.w3.org/2000/svg" xmlns:xlink="http://www.w3.org/1999/xlink">
<g id="graph0" class="graph" transform="scale(1 1) rotate(0) translate(4 191.5)">
<title>engine::direct3d::ImmutableBuffer&lt; T &gt;</title>
<!-- Node1 -->
<g id="Node000001" class="node">
<title>Node1</title>
<g id="a_Node000001"><a xlink:title="The immutable buffer class.">
<polygon fill="#999999" stroke="#666666" points="432.75,-106.5 299,-106.5 299,-76 432.75,-76 432.75,-106.5"/>
<text text-anchor="start" x="307" y="-93" font-family="Helvetica,sans-Serif" font-size="10.00">engine::direct3d::Immutable</text>
<text text-anchor="middle" x="365.88" y="-81.75" font-family="Helvetica,sans-Serif" font-size="10.00">Buffer&lt; T &gt;</text>
</a>
</g>
</g>
<!-- Node4 -->
<g id="Node000004" class="node">
<title>Node4</title>
<g id="a_Node000004"><a xlink:href="../../db/dc4/classengine_1_1direct3d_1_1_immutable_index_buffer.html" target="_top" xlink:title=" ">
<polygon fill="white" stroke="#666666" points="604.38,-187.5 470.62,-187.5 470.62,-157 604.38,-157 604.38,-187.5"/>
<text text-anchor="start" x="478.62" y="-174" font-family="Helvetica,sans-Serif" font-size="10.00">engine::direct3d::Immutable</text>
<text text-anchor="middle" x="537.5" y="-162.75" font-family="Helvetica,sans-Serif" font-size="10.00">IndexBuffer&lt; uint32_t &gt;</text>
</a>
</g>
</g>
<!-- Node1&#45;&gt;Node4 -->
<g id="edge3_Node000001_Node000004" class="edge">
<title>Node1&#45;&gt;Node4</title>
<g id="a_edge3_Node000001_Node000004"><a xlink:title=" ">
<path fill="none" stroke="#63b8ff" d="M401.12,-112.33C420.54,-123.8 445.53,-137.73 468.75,-148.25 475.23,-151.18 482.18,-154 489.08,-156.61"/>
<polygon fill="#63b8ff" stroke="#63b8ff" points="403.18,-108.89 392.79,-106.77 399.59,-114.9 403.18,-108.89"/>
</a>
</g>
</g>
<!-- Node5 -->
<g id="Node000005" class="node">
<title>Node5</title>
<g id="a_Node000005"><a xlink:href="../../d0/dc3/classengine_1_1direct3d_1_1_immutable_vertex_buffer.html" target="_top" xlink:title=" ">
<polygon fill="white" stroke="#666666" points="606.25,-139.12 468.75,-139.12 468.75,-97.38 606.25,-97.38 606.25,-139.12"/>
<text text-anchor="start" x="476.75" y="-125.62" font-family="Helvetica,sans-Serif" font-size="10.00">engine::direct3d::Immutable</text>
<text text-anchor="start" x="476.75" y="-114.38" font-family="Helvetica,sans-Serif" font-size="10.00">VertexBuffer&lt; engine::render</text>
<text text-anchor="middle" x="537.5" y="-103.12" font-family="Helvetica,sans-Serif" font-size="10.00">::Vertex &gt;</text>
</a>
</g>
</g>
<!-- Node1&#45;&gt;Node5 -->
<g id="edge4_Node000001_Node000005" class="edge">
<title>Node1&#45;&gt;Node5</title>
<g id="a_edge4_Node000001_Node000005"><a xlink:title=" ">
<path fill="none" stroke="#63b8ff" d="M443.68,-103.48C451.92,-104.79 460.25,-106.11 468.38,-107.41"/>
<polygon fill="#63b8ff" stroke="#63b8ff" points="444.37,-99.88 433.94,-101.77 443.27,-106.79 444.37,-99.88"/>
</a>
</g>
</g>
<!-- Node6 -->
<g id="Node000006" class="node">
<title>Node6</title>
<g id="a_Node000006"><a xlink:href="../../db/dc4/classengine_1_1direct3d_1_1_immutable_index_buffer.html" target="_top" xlink:title="The immutable index buffer class.">
<polygon fill="white" stroke="#666666" points="604.38,-79.5 470.62,-79.5 470.62,-49 604.38,-49 604.38,-79.5"/>
<text text-anchor="start" x="478.62" y="-66" font-family="Helvetica,sans-Serif" font-size="10.00">engine::direct3d::Immutable</text>
<text text-anchor="middle" x="537.5" y="-54.75" font-family="Helvetica,sans-Serif" font-size="10.00">IndexBuffer&lt; T &gt;</text>
</a>
</g>
</g>
<!-- Node1&#45;&gt;Node6 -->
<g id="edge5_Node000001_Node000006" class="edge">
<title>Node1&#45;&gt;Node6</title>
<g id="a_edge5_Node000001_Node000006"><a xlink:title=" ">
<path fill="none" stroke="#63b8ff" d="M443.7,-79.02C452.59,-77.61 461.6,-76.17 470.33,-74.78"/>
<polygon fill="#63b8ff" stroke="#63b8ff" points="443.27,-75.71 433.94,-80.73 444.37,-82.62 443.27,-75.71"/>
</a>
</g>
</g>
<!-- Node7 -->
<g id="Node000007" class="node">
<title>Node7</title>
<g id="a_Node000007"><a xlink:href="../../d0/dc3/classengine_1_1direct3d_1_1_immutable_vertex_buffer.html" target="_top" xlink:title="The immutable vertex buffer class.">
<polygon fill="white" stroke="#666666" points="604.38,-30.5 470.62,-30.5 470.62,0 604.38,0 604.38,-30.5"/>
<text text-anchor="start" x="478.62" y="-17" font-family="Helvetica,sans-Serif" font-size="10.00">engine::direct3d::Immutable</text>
<text text-anchor="middle" x="537.5" y="-5.75" font-family="Helvetica,sans-Serif" font-size="10.00">VertexBuffer&lt; T &gt;</text>
</a>
</g>
</g>
<!-- Node1&#45;&gt;Node7 -->
<g id="edge6_Node000001_Node000007" class="edge">
<title>Node1&#45;&gt;Node7</title>
<g id="a_edge6_Node000001_Node000007"><a xlink:title=" ">
<path fill="none" stroke="#63b8ff" d="M405.59,-70.6C424.42,-60.89 447.52,-49.45 468.75,-40.25 476.11,-37.06 484.03,-33.9 491.76,-30.96"/>
<polygon fill="#63b8ff" stroke="#63b8ff" points="404.15,-67.93 396.89,-75.65 407.38,-74.14 404.15,-67.93"/>
</a>
</g>
</g>
<!-- Node2 -->
<g id="Node000002" class="node">
<title>Node2</title>
<g id="a_Node000002"><a xlink:href="../../d9/db4/classengine_1_1direct3d_1_1_buffer_base.html" target="_top" xlink:title="Buffer Base class that contains the common functions for all the buffers.">
<polygon fill="white" stroke="#666666" points="263,-106.5 149.5,-106.5 149.5,-76 263,-76 263,-106.5"/>
<text text-anchor="start" x="157.5" y="-93" font-family="Helvetica,sans-Serif" font-size="10.00">engine::direct3d::Buffer</text>
<text text-anchor="middle" x="206.25" y="-81.75" font-family="Helvetica,sans-Serif" font-size="10.00">Base&lt; T &gt;</text>
</a>
</g>
</g>
<!-- Node2&#45;&gt;Node1 -->
<g id="edge1_Node000001_Node000002" class="edge">
<title>Node2&#45;&gt;Node1</title>
<g id="a_edge1_Node000001_Node000002"><a xlink:title=" ">
<path fill="none" stroke="#8b1a1a" d="M274.14,-91.25C282.22,-91.25 290.46,-91.25 298.53,-91.25"/>
<polygon fill="#8b1a1a" stroke="#8b1a1a" points="274.27,-87.75 264.27,-91.25 274.27,-94.75 274.27,-87.75"/>
</a>
</g>
</g>
<!-- Node3 -->
<g id="Node000003" class="node">
<title>Node3</title>
<g id="a_Node000003"><a xlink:href="../../d6/de4/classengine_1_1direct3d_1_1_buffer_wrapper.html" target="_top" xlink:title="A wrapper for a D3D11 buffer.">
<polygon fill="white" stroke="#666666" points="113.5,-106.5 0,-106.5 0,-76 113.5,-76 113.5,-106.5"/>
<text text-anchor="start" x="8" y="-93" font-family="Helvetica,sans-Serif" font-size="10.00">engine::direct3d::Buffer</text>
<text text-anchor="middle" x="56.75" y="-81.75" font-family="Helvetica,sans-Serif" font-size="10.00">Wrapper</text>
</a>
</g>
</g>
<!-- Node3&#45;&gt;Node2 -->
<g id="edge2_Node000002_Node000003" class="edge">
<title>Node3&#45;&gt;Node2</title>
<g id="a_edge2_Node000002_Node000003"><a xlink:title=" ">
<path fill="none" stroke="#8b1a1a" d="M124.91,-91.25C133.04,-91.25 141.28,-91.25 149.22,-91.25"/>
<polygon fill="#8b1a1a" stroke="#8b1a1a" points="124.93,-87.75 114.93,-91.25 124.93,-94.75 124.93,-87.75"/>
</a>
</g>
</g>
</g>
</svg>
