<?xml version="1.0" encoding="UTF-8" standalone="no"?>
<!DOCTYPE svg PUBLIC "-//W3C//DTD SVG 1.1//EN"
 "http://www.w3.org/Graphics/SVG/1.1/DTD/svg11.dtd">
<!-- Generated by graphviz version 8.1.0 (20230707.0739)
 -->
<!-- Title: engine::render::_dissolution_detail::ModelInstance Pages: 1 -->
<svg width="1773pt" height="550pt"
 viewBox="0.00 0.00 1773.25 550.00" xmlns="http://www.w3.org/2000/svg" xmlns:xlink="http://www.w3.org/1999/xlink">
<g id="graph0" class="graph" transform="scale(1 1) rotate(0) translate(4 546)">
<title>engine::render::_dissolution_detail::ModelInstance</title>
<!-- Node1 -->
<g id="Node000001" class="node">
<title>Node1</title>
<g id="a_Node000001"><a xlink:title=" ">
<polygon fill="#999999" stroke="#666666" points="1765.25,-261.5 1633,-261.5 1633,-231 1765.25,-231 1765.25,-261.5"/>
<text text-anchor="start" x="1641" y="-248" font-family="Helvetica,sans-Serif" font-size="10.00">engine::render::_dissolution</text>
<text text-anchor="middle" x="1699.12" y="-236.75" font-family="Helvetica,sans-Serif" font-size="10.00">_detail::ModelInstance</text>
</a>
</g>
</g>
<!-- Node2 -->
<g id="Node000002" class="node">
<title>Node2</title>
<g id="a_Node000002"><a xlink:href="../../dd/db5/structengine_1_1render_1_1_model.html" target="_top" xlink:title=" ">
<polygon fill="white" stroke="#666666" points="1517.5,-289.88 1410.75,-289.88 1410.75,-270.62 1517.5,-270.62 1517.5,-289.88"/>
<text text-anchor="middle" x="1464.12" y="-276.38" font-family="Helvetica,sans-Serif" font-size="10.00">engine::render::Model</text>
</a>
</g>
</g>
<!-- Node2&#45;&gt;Node1 -->
<g id="edge1_Node000001_Node000002" class="edge">
<title>Node2&#45;&gt;Node1</title>
<g id="a_edge1_Node000001_Node000002"><a xlink:title=" ">
<path fill="none" stroke="#9a32cd" stroke-dasharray="5,2" d="M1528.65,-270.98C1560.9,-266.27 1600.02,-260.57 1632.56,-255.82"/>
<polygon fill="#9a32cd" stroke="#9a32cd" points="1528.39,-267.63 1519,-272.53 1529.4,-274.55 1528.39,-267.63"/>
</a>
</g>
<text text-anchor="middle" x="1578.25" y="-270" font-family="Helvetica,sans-Serif" font-size="10.00" fill="grey"> model</text>
</g>
<!-- Node3 -->
<g id="Node000003" class="node">
<title>Node3</title>
<g id="a_Node000003"><a xlink:title=" ">
<polygon fill="white" stroke="#666666" points="737.5,-380.88 679.5,-380.88 679.5,-361.62 737.5,-361.62 737.5,-380.88"/>
<text text-anchor="middle" x="708.5" y="-367.38" font-family="Helvetica,sans-Serif" font-size="10.00">std::string</text>
</a>
</g>
</g>
<!-- Node3&#45;&gt;Node2 -->
<g id="edge2_Node000002_Node000003" class="edge">
<title>Node3&#45;&gt;Node2</title>
<g id="a_edge2_Node000002_Node000003"><a xlink:title=" ">
<path fill="none" stroke="#9a32cd" stroke-dasharray="5,2" d="M748.62,-371.14C866.39,-370.5 1216.23,-366.4 1326.75,-340.25 1372.06,-329.53 1421.07,-304.22 1446.18,-290.14"/>
<polygon fill="#9a32cd" stroke="#9a32cd" points="748.63,-367.64 738.65,-371.19 748.67,-374.64 748.63,-367.64"/>
</a>
</g>
<text text-anchor="middle" x="1129.25" y="-364" font-family="Helvetica,sans-Serif" font-size="10.00" fill="grey"> name</text>
</g>
<!-- Node16 -->
<g id="Node000016" class="node">
<title>Node16</title>
<g id="a_Node000016"><a xlink:href="../../d0/d01/structengine_1_1render_1_1_material.html" target="_top" xlink:title=" ">
<polygon fill="white" stroke="#666666" points="1059.88,-411.88 944.88,-411.88 944.88,-392.62 1059.88,-392.62 1059.88,-411.88"/>
<text text-anchor="middle" x="1002.38" y="-398.38" font-family="Helvetica,sans-Serif" font-size="10.00">engine::render::Material</text>
</a>
</g>
</g>
<!-- Node3&#45;&gt;Node16 -->
<g id="edge19_Node000016_Node000003" class="edge">
<title>Node3&#45;&gt;Node16</title>
<g id="a_edge19_Node000016_Node000003"><a xlink:title=" ">
<path fill="none" stroke="#9a32cd" stroke-dasharray="5,2" d="M748.49,-375.39C798.78,-380.73 886.66,-390.07 944.43,-396.2"/>
<polygon fill="#9a32cd" stroke="#9a32cd" points="749.07,-371.83 738.75,-374.25 748.33,-378.79 749.07,-371.83"/>
</a>
</g>
<text text-anchor="middle" x="856" y="-394" font-family="Helvetica,sans-Serif" font-size="10.00" fill="grey"> name</text>
</g>
<!-- Node4 -->
<g id="Node000004" class="node">
<title>Node4</title>
<g id="a_Node000004"><a xlink:title=" ">
<polygon fill="white" stroke="#666666" points="542.25,-386.5 449.75,-386.5 449.75,-356 542.25,-356 542.25,-386.5"/>
<text text-anchor="start" x="457.75" y="-373" font-family="Helvetica,sans-Serif" font-size="10.00">std::basic_string&lt;</text>
<text text-anchor="middle" x="496" y="-361.75" font-family="Helvetica,sans-Serif" font-size="10.00"> Char &gt;</text>
</a>
</g>
</g>
<!-- Node4&#45;&gt;Node3 -->
<g id="edge3_Node000003_Node000004" class="edge">
<title>Node4&#45;&gt;Node3</title>
<g id="a_edge3_Node000003_Node000004"><a xlink:title=" ">
<path fill="none" stroke="#63b8ff" d="M553.49,-371.25C594.03,-371.25 646.97,-371.25 679.04,-371.25"/>
<polygon fill="#63b8ff" stroke="#63b8ff" points="553.68,-367.75 543.68,-371.25 553.68,-374.75 553.68,-367.75"/>
</a>
</g>
</g>
<!-- Node5 -->
<g id="Node000005" class="node">
<title>Node5</title>
<g id="a_Node000005"><a xlink:title=" ">
<polygon fill="white" stroke="#666666" points="1313.25,-149.5 1202.75,-149.5 1202.75,-119 1313.25,-119 1313.25,-149.5"/>
<text text-anchor="start" x="1210.75" y="-136" font-family="Helvetica,sans-Serif" font-size="10.00">std::vector&lt; engine</text>
<text text-anchor="middle" x="1258" y="-124.75" font-family="Helvetica,sans-Serif" font-size="10.00">::render::ModelMesh &gt;</text>
</a>
</g>
</g>
<!-- Node5&#45;&gt;Node2 -->
<g id="edge4_Node000002_Node000005" class="edge">
<title>Node5&#45;&gt;Node2</title>
<g id="a_edge4_Node000002_Node000005"><a xlink:title=" ">
<path fill="none" stroke="#9a32cd" stroke-dasharray="5,2" d="M1314.52,-154.62C1318.8,-156.96 1322.93,-159.5 1326.75,-162.25 1369.7,-193.19 1362.68,-220.13 1404.75,-252.25 1414.31,-259.55 1426.08,-265.64 1436.53,-270.25"/>
<polygon fill="#9a32cd" stroke="#9a32cd" points="1316.52,-151.2 1306.01,-149.84 1313.38,-157.46 1316.52,-151.2"/>
</a>
</g>
<text text-anchor="middle" x="1365.75" y="-237" font-family="Helvetica,sans-Serif" font-size="10.00" fill="grey"> meshes</text>
</g>
<!-- Node6 -->
<g id="Node000006" class="node">
<title>Node6</title>
<g id="a_Node000006"><a xlink:href="../../df/d91/structengine_1_1render_1_1_model_mesh.html" target="_top" xlink:title=" ">
<polygon fill="white" stroke="#666666" points="1067.75,-136.88 937,-136.88 937,-117.62 1067.75,-117.62 1067.75,-136.88"/>
<text text-anchor="middle" x="1002.38" y="-123.38" font-family="Helvetica,sans-Serif" font-size="10.00">engine::render::ModelMesh</text>
</a>
</g>
</g>
<!-- Node6&#45;&gt;Node5 -->
<g id="edge5_Node000005_Node000006" class="edge">
<title>Node6&#45;&gt;Node5</title>
<g id="a_edge5_Node000005_Node000006"><a xlink:title=" ">
<path fill="none" stroke="#9a32cd" stroke-dasharray="5,2" d="M1078.99,-129.34C1118.63,-130.43 1166.31,-131.75 1202.33,-132.74"/>
<polygon fill="#9a32cd" stroke="#9a32cd" points="1079.12,-125.81 1069.03,-129.03 1078.93,-132.81 1079.12,-125.81"/>
</a>
</g>
<text text-anchor="middle" x="1129.25" y="-133" font-family="Helvetica,sans-Serif" font-size="10.00" fill="grey"> elements</text>
</g>
<!-- Node7 -->
<g id="Node000007" class="node">
<title>Node7</title>
<g id="a_Node000007"><a xlink:href="../../d1/d87/structengine_1_1render_1_1_mesh_range.html" target="_top" xlink:title=" ">
<polygon fill="white" stroke="#666666" points="774.62,-91.88 642.38,-91.88 642.38,-72.62 774.62,-72.62 774.62,-91.88"/>
<text text-anchor="middle" x="708.5" y="-78.38" font-family="Helvetica,sans-Serif" font-size="10.00">engine::render::MeshRange</text>
</a>
</g>
</g>
<!-- Node7&#45;&gt;Node6 -->
<g id="edge6_Node000006_Node000007" class="edge">
<title>Node7&#45;&gt;Node6</title>
<g id="a_edge6_Node000006_Node000007"><a xlink:title=" ">
<path fill="none" stroke="#9a32cd" stroke-dasharray="5,2" d="M785.94,-86.53C825.47,-89.59 874.34,-94.68 917.5,-103 935.66,-106.5 955.56,-112.17 971.42,-117.15"/>
<polygon fill="#9a32cd" stroke="#9a32cd" points="786.28,-82.97 776.05,-85.72 785.77,-89.95 786.28,-82.97"/>
</a>
</g>
<text text-anchor="middle" x="856" y="-104" font-family="Helvetica,sans-Serif" font-size="10.00" fill="grey"> mesh_range</text>
</g>
<!-- Node8 -->
<g id="Node000008" class="node">
<title>Node8</title>
<g id="a_Node000008"><a xlink:href="../../d7/d90/structengine_1_1render_1_1_mesh.html" target="_top" xlink:title=" ">
<polygon fill="white" stroke="#666666" points="548.25,-149.88 443.75,-149.88 443.75,-130.62 548.25,-130.62 548.25,-149.88"/>
<text text-anchor="middle" x="496" y="-136.38" font-family="Helvetica,sans-Serif" font-size="10.00">engine::render::Mesh</text>
</a>
</g>
</g>
<!-- Node8&#45;&gt;Node6 -->
<g id="edge7_Node000006_Node000008" class="edge">
<title>Node8&#45;&gt;Node6</title>
<g id="a_edge7_Node000006_Node000008"><a xlink:title=" ">
<path fill="none" stroke="#9a32cd" stroke-dasharray="5,2" d="M559.33,-138.64C655.54,-136.16 839.29,-131.43 936.83,-128.91"/>
<polygon fill="#9a32cd" stroke="#9a32cd" points="559.51,-135.16 549.61,-138.92 559.69,-142.16 559.51,-135.16"/>
</a>
</g>
<text text-anchor="middle" x="708.5" y="-138" font-family="Helvetica,sans-Serif" font-size="10.00" fill="grey"> mesh</text>
</g>
<!-- Node12 -->
<g id="Node000012" class="node">
<title>Node12</title>
<g id="a_Node000012"><a xlink:href="../../db/df4/classengine_1_1core_1_1_triangle_octree.html" target="_top" xlink:title=" ">
<polygon fill="white" stroke="#666666" points="776.5,-202.88 640.5,-202.88 640.5,-183.62 776.5,-183.62 776.5,-202.88"/>
<text text-anchor="middle" x="708.5" y="-189.38" font-family="Helvetica,sans-Serif" font-size="10.00">engine::core::TriangleOctree</text>
</a>
</g>
</g>
<!-- Node8&#45;&gt;Node12 -->
<g id="edge12_Node000012_Node000008" class="edge">
<title>Node8&#45;&gt;Node12</title>
<g id="a_edge12_Node000012_Node000008"><a xlink:title=" ">
<path fill="none" stroke="#9a32cd" stroke-dasharray="5,2" d="M556.99,-152.6C577.81,-157.13 601.25,-162.5 622.5,-168 640.24,-172.59 659.85,-178.37 675.76,-183.24"/>
<polygon fill="#9a32cd" stroke="#9a32cd" points="557.88,-149 547.37,-150.32 556.4,-155.84 557.88,-149"/>
</a>
</g>
<text text-anchor="middle" x="600.38" y="-169" font-family="Helvetica,sans-Serif" font-size="10.00" fill="grey"> m_mesh</text>
</g>
<!-- Node9 -->
<g id="Node000009" class="node">
<title>Node9</title>
<g id="a_Node000009"><a xlink:title=" ">
<polygon fill="white" stroke="#666666" points="321.5,-148.5 223.75,-148.5 223.75,-118 321.5,-118 321.5,-148.5"/>
<text text-anchor="start" x="231.75" y="-135" font-family="Helvetica,sans-Serif" font-size="10.00">std::vector&lt; engine</text>
<text text-anchor="middle" x="272.62" y="-123.75" font-family="Helvetica,sans-Serif" font-size="10.00">::render::Vertex &gt;</text>
</a>
</g>
</g>
<!-- Node9&#45;&gt;Node8 -->
<g id="edge8_Node000008_Node000009" class="edge">
<title>Node9&#45;&gt;Node8</title>
<g id="a_edge8_Node000008_Node000009"><a xlink:title=" ">
<path fill="none" stroke="#9a32cd" stroke-dasharray="5,2" d="M332.74,-132.63C357.75,-132.61 387.18,-132.91 413.75,-134 423.36,-134.39 433.6,-135.02 443.45,-135.73"/>
<polygon fill="#9a32cd" stroke="#9a32cd" points="332.95,-129.13 322.96,-132.66 332.97,-136.13 332.95,-129.13"/>
</a>
</g>
<text text-anchor="middle" x="395.38" y="-135" font-family="Helvetica,sans-Serif" font-size="10.00" fill="grey"> vertices</text>
</g>
<!-- Node10 -->
<g id="Node000010" class="node">
<title>Node10</title>
<g id="a_Node000010"><a xlink:href="../../d0/dc6/structengine_1_1render_1_1_vertex.html" target="_top" xlink:title=" ">
<polygon fill="white" stroke="#666666" points="108.25,-142.88 0,-142.88 0,-123.62 108.25,-123.62 108.25,-142.88"/>
<text text-anchor="middle" x="54.12" y="-129.38" font-family="Helvetica,sans-Serif" font-size="10.00">engine::render::Vertex</text>
</a>
</g>
</g>
<!-- Node10&#45;&gt;Node9 -->
<g id="edge9_Node000009_Node000010" class="edge">
<title>Node10&#45;&gt;Node9</title>
<g id="a_edge9_Node000009_Node000010"><a xlink:title=" ">
<path fill="none" stroke="#9a32cd" stroke-dasharray="5,2" d="M119.23,-133.25C152.63,-133.25 192.81,-133.25 223.52,-133.25"/>
<polygon fill="#9a32cd" stroke="#9a32cd" points="119.64,-129.75 109.64,-133.25 119.64,-136.75 119.64,-129.75"/>
</a>
</g>
<text text-anchor="middle" x="147.25" y="-135" font-family="Helvetica,sans-Serif" font-size="10.00" fill="grey"> elements</text>
</g>
<!-- Node11 -->
<g id="Node000011" class="node">
<title>Node11</title>
<g id="a_Node000011"><a xlink:title=" ">
<polygon fill="white" stroke="#666666" points="328.62,-194.88 216.62,-194.88 216.62,-175.62 328.62,-175.62 328.62,-194.88"/>
<text text-anchor="middle" x="272.62" y="-181.38" font-family="Helvetica,sans-Serif" font-size="10.00">std::vector&lt; uint32_t &gt;</text>
</a>
</g>
</g>
<!-- Node11&#45;&gt;Node8 -->
<g id="edge10_Node000008_Node000011" class="edge">
<title>Node11&#45;&gt;Node8</title>
<g id="a_edge10_Node000008_Node000011"><a xlink:title=" ">
<path fill="none" stroke="#9a32cd" stroke-dasharray="5,2" d="M333.88,-173C368.9,-165.88 412.48,-157.02 445.48,-150.32"/>
<polygon fill="#9a32cd" stroke="#9a32cd" points="333.41,-169.73 324.31,-175.15 334.8,-176.59 333.41,-169.73"/>
</a>
</g>
<text text-anchor="middle" x="395.38" y="-165" font-family="Helvetica,sans-Serif" font-size="10.00" fill="grey"> indices</text>
</g>
<!-- Node11&#45;&gt;Node12 -->
<g id="edge13_Node000012_Node000011" class="edge">
<title>Node11&#45;&gt;Node12</title>
<g id="a_edge13_Node000012_Node000011"><a xlink:title=" ">
<path fill="none" stroke="#9a32cd" stroke-dasharray="5,2" d="M339.62,-186.47C420.98,-187.97 558.47,-190.5 640.35,-192.01"/>
<polygon fill="#9a32cd" stroke="#9a32cd" points="340.08,-182.96 330.02,-186.27 339.95,-189.96 340.08,-182.96"/>
</a>
</g>
<text text-anchor="middle" x="496" y="-192" font-family="Helvetica,sans-Serif" font-size="10.00" fill="grey"> m_triangles</text>
</g>
<!-- Node12&#45;&gt;Node6 -->
<g id="edge11_Node000006_Node000012" class="edge">
<title>Node12&#45;&gt;Node6</title>
<g id="a_edge11_Node000006_Node000012"><a xlink:title=" ">
<path fill="none" stroke="#9a32cd" stroke-dasharray="5,2" d="M741.9,-179.2C757.55,-172.87 776.74,-165.77 794.5,-161 808.12,-157.35 881.09,-145.74 936.54,-137.16"/>
<polygon fill="#9a32cd" stroke="#9a32cd" points="741.08,-176.16 733.18,-183.22 743.76,-182.63 741.08,-176.16"/>
</a>
</g>
<text text-anchor="middle" x="856" y="-162" font-family="Helvetica,sans-Serif" font-size="10.00" fill="grey"> triangle_octree</text>
</g>
<!-- Node14 -->
<g id="Node000014" class="node">
<title>Node14</title>
<g id="a_Node000014"><a xlink:title=" ">
<polygon fill="white" stroke="#666666" points="1065.5,-185.5 939.25,-185.5 939.25,-155 1065.5,-155 1065.5,-185.5"/>
<text text-anchor="start" x="947.25" y="-172" font-family="Helvetica,sans-Serif" font-size="10.00">std::array&lt; engine</text>
<text text-anchor="middle" x="1002.38" y="-160.75" font-family="Helvetica,sans-Serif" font-size="10.00">::core::TriangleOctree, 8 &gt;</text>
</a>
</g>
</g>
<!-- Node12&#45;&gt;Node14 -->
<g id="edge16_Node000014_Node000012" class="edge">
<title>Node12&#45;&gt;Node14</title>
<g id="a_edge16_Node000014_Node000012"><a xlink:title=" ">
<path fill="none" stroke="#9a32cd" stroke-dasharray="5,2" d="M787.66,-187.09C835.03,-183.36 894.65,-178.66 938.87,-175.18"/>
<polygon fill="#9a32cd" stroke="#9a32cd" points="787.52,-183.67 777.83,-187.94 788.07,-190.65 787.52,-183.67"/>
</a>
</g>
<text text-anchor="middle" x="856" y="-188" font-family="Helvetica,sans-Serif" font-size="10.00" fill="grey"> elements</text>
</g>
<!-- Node13 -->
<g id="Node000013" class="node">
<title>Node13</title>
<g id="a_Node000013"><a xlink:title=" ">
<polygon fill="white" stroke="#666666" points="1313.62,-213.12 1202.38,-213.12 1202.38,-171.38 1313.62,-171.38 1313.62,-213.12"/>
<text text-anchor="start" x="1210.38" y="-199.62" font-family="Helvetica,sans-Serif" font-size="10.00">std::unique_ptr&lt; std</text>
<text text-anchor="start" x="1210.38" y="-188.38" font-family="Helvetica,sans-Serif" font-size="10.00">::array&lt; engine::core</text>
<text text-anchor="middle" x="1258" y="-177.12" font-family="Helvetica,sans-Serif" font-size="10.00">::TriangleOctree, 8 &gt; &gt;</text>
</a>
</g>
</g>
<!-- Node13&#45;&gt;Node12 -->
<g id="edge14_Node000012_Node000013" class="edge">
<title>Node13&#45;&gt;Node12</title>
<g id="a_edge14_Node000012_Node000013"><a xlink:title=" ">
<path fill="none" stroke="#9a32cd" stroke-dasharray="5,2" d="M1191.47,-198.1C1184.65,-198.56 1177.81,-198.96 1171.25,-199.25 1113.84,-201.82 852.96,-204 794.5,-201.25 788.73,-200.98 782.74,-200.6 776.74,-200.17"/>
<polygon fill="#9a32cd" stroke="#9a32cd" points="1191.42,-201.54 1201.14,-197.33 1190.92,-194.56 1191.42,-201.54"/>
</a>
</g>
<text text-anchor="middle" x="1002.38" y="-204" font-family="Helvetica,sans-Serif" font-size="10.00" fill="grey"> m_children</text>
</g>
<!-- Node14&#45;&gt;Node13 -->
<g id="edge15_Node000013_Node000014" class="edge">
<title>Node14&#45;&gt;Node13</title>
<g id="a_edge15_Node000013_Node000014"><a xlink:title=" ">
<path fill="none" stroke="#9a32cd" stroke-dasharray="5,2" d="M1076.53,-176.6C1116.6,-180.07 1165.44,-184.31 1202.2,-187.5"/>
<polygon fill="#9a32cd" stroke="#9a32cd" points="1077.01,-173.04 1066.74,-175.66 1076.4,-180.01 1077.01,-173.04"/>
</a>
</g>
<text text-anchor="middle" x="1129.25" y="-186" font-family="Helvetica,sans-Serif" font-size="10.00" fill="grey"> ptr</text>
</g>
<!-- Node15 -->
<g id="Node000015" class="node">
<title>Node15</title>
<g id="a_Node000015"><a xlink:title=" ">
<polygon fill="white" stroke="#666666" points="1306.88,-417.5 1209.12,-417.5 1209.12,-387 1306.88,-387 1306.88,-417.5"/>
<text text-anchor="start" x="1217.12" y="-404" font-family="Helvetica,sans-Serif" font-size="10.00">std::vector&lt; engine</text>
<text text-anchor="middle" x="1258" y="-392.75" font-family="Helvetica,sans-Serif" font-size="10.00">::render::Material &gt;</text>
</a>
</g>
</g>
<!-- Node15&#45;&gt;Node2 -->
<g id="edge17_Node000002_Node000015" class="edge">
<title>Node15&#45;&gt;Node2</title>
<g id="a_edge17_Node000002_Node000015"><a xlink:title=" ">
<path fill="none" stroke="#9a32cd" stroke-dasharray="5,2" d="M1317.94,-397.12C1340.72,-393.09 1366.2,-385.94 1386.75,-373.25 1421.24,-351.95 1447.31,-309.53 1457.92,-290.22"/>
<polygon fill="#9a32cd" stroke="#9a32cd" points="1317.67,-393.77 1308.34,-398.8 1318.77,-400.69 1317.67,-393.77"/>
</a>
</g>
<text text-anchor="middle" x="1365.75" y="-391" font-family="Helvetica,sans-Serif" font-size="10.00" fill="grey"> materials</text>
</g>
<!-- Node16&#45;&gt;Node15 -->
<g id="edge18_Node000015_Node000016" class="edge">
<title>Node16&#45;&gt;Node15</title>
<g id="a_edge18_Node000015_Node000016"><a xlink:title=" ">
<path fill="none" stroke="#9a32cd" stroke-dasharray="5,2" d="M1071.06,-402.25C1114.48,-402.25 1169.82,-402.25 1208.8,-402.25"/>
<polygon fill="#9a32cd" stroke="#9a32cd" points="1071.29,-398.75 1061.29,-402.25 1071.29,-405.75 1071.29,-398.75"/>
</a>
</g>
<text text-anchor="middle" x="1129.25" y="-404" font-family="Helvetica,sans-Serif" font-size="10.00" fill="grey"> elements</text>
</g>
<!-- Node17 -->
<g id="Node000017" class="node">
<title>Node17</title>
<g id="a_Node000017"><a xlink:title=" ">
<polygon fill="white" stroke="#666666" points="774.62,-441.5 642.38,-441.5 642.38,-411 774.62,-411 774.62,-441.5"/>
<text text-anchor="start" x="650.38" y="-428" font-family="Helvetica,sans-Serif" font-size="10.00">std::vector&lt; ID3D11Shader</text>
<text text-anchor="middle" x="708.5" y="-416.75" font-family="Helvetica,sans-Serif" font-size="10.00">ResourceView * &gt;</text>
</a>
</g>
</g>
<!-- Node17&#45;&gt;Node16 -->
<g id="edge20_Node000016_Node000017" class="edge">
<title>Node17&#45;&gt;Node16</title>
<g id="a_edge20_Node000016_Node000017"><a xlink:title=" ">
<path fill="none" stroke="#9a32cd" stroke-dasharray="5,2" d="M785.7,-419.98C835.39,-415.9 899.18,-410.65 944.47,-406.93"/>
<polygon fill="#9a32cd" stroke="#9a32cd" points="785.68,-416.56 776,-420.86 786.26,-423.53 785.68,-416.56"/>
</a>
</g>
<text text-anchor="middle" x="856" y="-532.5" font-family="Helvetica,sans-Serif" font-size="10.00" fill="grey"> ambient_occlusion_textures</text>
<text text-anchor="middle" x="856" y="-521.25" font-family="Helvetica,sans-Serif" font-size="10.00" fill="grey">ambient_textures</text>
<text text-anchor="middle" x="856" y="-510" font-family="Helvetica,sans-Serif" font-size="10.00" fill="grey">base_color_textures</text>
<text text-anchor="middle" x="856" y="-498.75" font-family="Helvetica,sans-Serif" font-size="10.00" fill="grey">clearcoat_textures</text>
<text text-anchor="middle" x="856" y="-487.5" font-family="Helvetica,sans-Serif" font-size="10.00" fill="grey">diffuse_roughness_textures</text>
<text text-anchor="middle" x="856" y="-476.25" font-family="Helvetica,sans-Serif" font-size="10.00" fill="grey">diffuse_textures</text>
<text text-anchor="middle" x="856" y="-465" font-family="Helvetica,sans-Serif" font-size="10.00" fill="grey">displacement_textures</text>
<text text-anchor="middle" x="856" y="-453.75" font-family="Helvetica,sans-Serif" font-size="10.00" fill="grey">emission_color_textures</text>
<text text-anchor="middle" x="856" y="-442.5" font-family="Helvetica,sans-Serif" font-size="10.00" fill="grey">emissive_textures</text>
<text text-anchor="middle" x="856" y="-431.25" font-family="Helvetica,sans-Serif" font-size="10.00" fill="grey">height_textures</text>
<text text-anchor="middle" x="856" y="-420" font-family="Helvetica,sans-Serif" font-size="10.00" fill="grey">...</text>
</g>
<!-- Node18 -->
<g id="Node000018" class="node">
<title>Node18</title>
<g id="a_Node000018"><a xlink:href="../../d0/dc3/classengine_1_1direct3d_1_1_immutable_vertex_buffer.html" target="_top" xlink:title=" ">
<polygon fill="white" stroke="#666666" points="1326.75,-331.12 1189.25,-331.12 1189.25,-289.38 1326.75,-289.38 1326.75,-331.12"/>
<text text-anchor="start" x="1197.25" y="-317.62" font-family="Helvetica,sans-Serif" font-size="10.00">engine::direct3d::Immutable</text>
<text text-anchor="start" x="1197.25" y="-306.38" font-family="Helvetica,sans-Serif" font-size="10.00">VertexBuffer&lt; engine::render</text>
<text text-anchor="middle" x="1258" y="-295.12" font-family="Helvetica,sans-Serif" font-size="10.00">::Vertex &gt;</text>
</a>
</g>
</g>
<!-- Node18&#45;&gt;Node2 -->
<g id="edge21_Node000002_Node000018" class="edge">
<title>Node18&#45;&gt;Node2</title>
<g id="a_edge21_Node000002_Node000018"><a xlink:title=" ">
<path fill="none" stroke="#9a32cd" stroke-dasharray="5,2" d="M1337.63,-298.69C1361.95,-295.12 1388.16,-291.27 1410.3,-288.01"/>
<polygon fill="#9a32cd" stroke="#9a32cd" points="1337.36,-295.34 1327.97,-300.26 1338.37,-302.27 1337.36,-295.34"/>
</a>
</g>
<text text-anchor="middle" x="1365.75" y="-298" font-family="Helvetica,sans-Serif" font-size="10.00" fill="grey"> vertices</text>
</g>
<!-- Node19 -->
<g id="Node000019" class="node">
<title>Node19</title>
<g id="a_Node000019"><a xlink:href="../../d3/d29/classengine_1_1direct3d_1_1_immutable_buffer.html" target="_top" xlink:title="The immutable buffer class.">
<polygon fill="white" stroke="#666666" points="1069.25,-330.5 935.5,-330.5 935.5,-300 1069.25,-300 1069.25,-330.5"/>
<text text-anchor="start" x="943.5" y="-317" font-family="Helvetica,sans-Serif" font-size="10.00">engine::direct3d::Immutable</text>
<text text-anchor="middle" x="1002.38" y="-305.75" font-family="Helvetica,sans-Serif" font-size="10.00">Buffer&lt; T &gt;</text>
</a>
</g>
</g>
<!-- Node19&#45;&gt;Node18 -->
<g id="edge22_Node000018_Node000019" class="edge">
<title>Node19&#45;&gt;Node18</title>
<g id="a_edge22_Node000018_Node000019"><a xlink:title=" ">
<path fill="none" stroke="#63b8ff" d="M1080.67,-313.73C1115.18,-313.05 1155.51,-312.25 1188.87,-311.59"/>
<polygon fill="#63b8ff" stroke="#63b8ff" points="1080.61,-310.25 1070.68,-313.94 1080.75,-317.24 1080.61,-310.25"/>
</a>
</g>
</g>
<!-- Node20 -->
<g id="Node000020" class="node">
<title>Node20</title>
<g id="a_Node000020"><a xlink:href="../../d9/db4/classengine_1_1direct3d_1_1_buffer_base.html" target="_top" xlink:title="Buffer Base class that contains the common functions for all the buffers.">
<polygon fill="white" stroke="#666666" points="765.25,-308.5 651.75,-308.5 651.75,-278 765.25,-278 765.25,-308.5"/>
<text text-anchor="start" x="659.75" y="-295" font-family="Helvetica,sans-Serif" font-size="10.00">engine::direct3d::Buffer</text>
<text text-anchor="middle" x="708.5" y="-283.75" font-family="Helvetica,sans-Serif" font-size="10.00">Base&lt; T &gt;</text>
</a>
</g>
</g>
<!-- Node20&#45;&gt;Node19 -->
<g id="edge23_Node000019_Node000020" class="edge">
<title>Node20&#45;&gt;Node19</title>
<g id="a_edge23_Node000019_Node000020"><a xlink:title=" ">
<path fill="none" stroke="#8b1a1a" d="M776.25,-298.28C823.88,-301.87 887.65,-306.68 935.16,-310.26"/>
<polygon fill="#8b1a1a" stroke="#8b1a1a" points="776.67,-294.73 766.43,-297.47 776.14,-301.71 776.67,-294.73"/>
</a>
</g>
</g>
<!-- Node24 -->
<g id="Node000024" class="node">
<title>Node24</title>
<g id="a_Node000024"><a xlink:href="../../d3/d29/classengine_1_1direct3d_1_1_immutable_buffer.html" target="_top" xlink:title="The immutable buffer class.">
<polygon fill="white" stroke="#666666" points="1069.25,-281.5 935.5,-281.5 935.5,-251 1069.25,-251 1069.25,-281.5"/>
<text text-anchor="start" x="943.5" y="-268" font-family="Helvetica,sans-Serif" font-size="10.00">engine::direct3d::Immutable</text>
<text text-anchor="middle" x="1002.38" y="-256.75" font-family="Helvetica,sans-Serif" font-size="10.00">Buffer&lt; T &gt;</text>
</a>
</g>
</g>
<!-- Node20&#45;&gt;Node24 -->
<g id="edge28_Node000024_Node000020" class="edge">
<title>Node20&#45;&gt;Node24</title>
<g id="a_edge28_Node000024_Node000020"><a xlink:title=" ">
<path fill="none" stroke="#8b1a1a" d="M776.25,-287.08C823.88,-282.67 887.65,-276.77 935.16,-272.38"/>
<polygon fill="#8b1a1a" stroke="#8b1a1a" points="776.07,-283.67 766.43,-288.08 776.71,-290.64 776.07,-283.67"/>
</a>
</g>
</g>
<!-- Node21 -->
<g id="Node000021" class="node">
<title>Node21</title>
<g id="a_Node000021"><a xlink:href="../../d6/de4/classengine_1_1direct3d_1_1_buffer_wrapper.html" target="_top" xlink:title="A wrapper for a D3D11 buffer.">
<polygon fill="white" stroke="#666666" points="552.75,-308.5 439.25,-308.5 439.25,-278 552.75,-278 552.75,-308.5"/>
<text text-anchor="start" x="447.25" y="-295" font-family="Helvetica,sans-Serif" font-size="10.00">engine::direct3d::Buffer</text>
<text text-anchor="middle" x="496" y="-283.75" font-family="Helvetica,sans-Serif" font-size="10.00">Wrapper</text>
</a>
</g>
</g>
<!-- Node21&#45;&gt;Node20 -->
<g id="edge24_Node000020_Node000021" class="edge">
<title>Node21&#45;&gt;Node20</title>
<g id="a_edge24_Node000020_Node000021"><a xlink:title=" ">
<path fill="none" stroke="#8b1a1a" d="M564.11,-293.25C592.28,-293.25 624.66,-293.25 651.52,-293.25"/>
<polygon fill="#8b1a1a" stroke="#8b1a1a" points="564.13,-289.75 554.13,-293.25 564.13,-296.75 564.13,-289.75"/>
</a>
</g>
</g>
<!-- Node22 -->
<g id="Node000022" class="node">
<title>Node22</title>
<g id="a_Node000022"><a xlink:href="../../df/d47/classengine_1_1direct3d_1_1d3d__resource__wrapper.html" target="_top" xlink:title=" ">
<polygon fill="white" stroke="#666666" points="359,-308.5 186.25,-308.5 186.25,-278 359,-278 359,-308.5"/>
<text text-anchor="start" x="194.25" y="-295" font-family="Helvetica,sans-Serif" font-size="10.00">engine::direct3d::d3d</text>
<text text-anchor="middle" x="272.62" y="-283.75" font-family="Helvetica,sans-Serif" font-size="10.00">_resource_wrapper&lt; ID3D11Buffer &gt;</text>
</a>
</g>
</g>
<!-- Node22&#45;&gt;Node21 -->
<g id="edge25_Node000021_Node000022" class="edge">
<title>Node22&#45;&gt;Node21</title>
<g id="a_edge25_Node000021_Node000022"><a xlink:title=" ">
<path fill="none" stroke="#9a32cd" stroke-dasharray="5,2" d="M369.97,-293.25C393.56,-293.25 418.03,-293.25 439,-293.25"/>
<polygon fill="#9a32cd" stroke="#9a32cd" points="370.21,-289.75 360.21,-293.25 370.21,-296.75 370.21,-289.75"/>
</a>
</g>
<text text-anchor="middle" x="395.38" y="-295" font-family="Helvetica,sans-Serif" font-size="10.00" fill="grey"> buffer_</text>
</g>
<!-- Node23 -->
<g id="Node000023" class="node">
<title>Node23</title>
<g id="a_Node000023"><a xlink:href="../../db/dc4/classengine_1_1direct3d_1_1_immutable_index_buffer.html" target="_top" xlink:title=" ">
<polygon fill="white" stroke="#666666" points="1324.88,-271.5 1191.12,-271.5 1191.12,-241 1324.88,-241 1324.88,-271.5"/>
<text text-anchor="start" x="1199.12" y="-258" font-family="Helvetica,sans-Serif" font-size="10.00">engine::direct3d::Immutable</text>
<text text-anchor="middle" x="1258" y="-246.75" font-family="Helvetica,sans-Serif" font-size="10.00">IndexBuffer&lt; uint32_t &gt;</text>
</a>
</g>
</g>
<!-- Node23&#45;&gt;Node2 -->
<g id="edge26_Node000002_Node000023" class="edge">
<title>Node23&#45;&gt;Node2</title>
<g id="a_edge26_Node000002_Node000023"><a xlink:title=" ">
<path fill="none" stroke="#9a32cd" stroke-dasharray="5,2" d="M1335.97,-261.63C1352.73,-263.1 1370.36,-264.89 1386.75,-267 1394.49,-268 1402.65,-269.22 1410.63,-270.52"/>
<polygon fill="#9a32cd" stroke="#9a32cd" points="1336.35,-258.06 1326.09,-260.7 1335.76,-265.04 1336.35,-258.06"/>
</a>
</g>
<text text-anchor="middle" x="1365.75" y="-268" font-family="Helvetica,sans-Serif" font-size="10.00" fill="grey"> indices</text>
</g>
<!-- Node24&#45;&gt;Node23 -->
<g id="edge27_Node000023_Node000024" class="edge">
<title>Node24&#45;&gt;Node23</title>
<g id="a_edge27_Node000023_Node000024"><a xlink:title=" ">
<path fill="none" stroke="#63b8ff" d="M1080.39,-263.21C1115.58,-261.83 1156.85,-260.2 1190.64,-258.87"/>
<polygon fill="#63b8ff" stroke="#63b8ff" points="1080.54,-259.74 1070.68,-263.64 1080.81,-266.74 1080.54,-259.74"/>
</a>
</g>
</g>
<!-- Node25 -->
<g id="Node000025" class="node">
<title>Node25</title>
<g id="a_Node000025"><a xlink:title=" ">
<polygon fill="white" stroke="#666666" points="1523.5,-243.12 1404.75,-243.12 1404.75,-201.38 1523.5,-201.38 1523.5,-243.12"/>
<text text-anchor="start" x="1412.75" y="-229.62" font-family="Helvetica,sans-Serif" font-size="10.00">std::vector&lt; engine</text>
<text text-anchor="start" x="1412.75" y="-218.38" font-family="Helvetica,sans-Serif" font-size="10.00">::render::_dissolution</text>
<text text-anchor="middle" x="1464.12" y="-207.12" font-family="Helvetica,sans-Serif" font-size="10.00">_detail::MeshInstance &gt;</text>
</a>
</g>
</g>
<!-- Node25&#45;&gt;Node1 -->
<g id="edge29_Node000001_Node000025" class="edge">
<title>Node25&#45;&gt;Node1</title>
<g id="a_edge29_Node000001_Node000025"><a xlink:title=" ">
<path fill="none" stroke="#9a32cd" stroke-dasharray="5,2" d="M1534.91,-226.73C1560.17,-228.61 1588.91,-231.06 1615,-234 1620.8,-234.65 1626.81,-235.4 1632.84,-236.2"/>
<polygon fill="#9a32cd" stroke="#9a32cd" points="1535.16,-223.17 1524.94,-225.93 1534.66,-230.15 1535.16,-223.17"/>
</a>
</g>
<text text-anchor="middle" x="1578.25" y="-235" font-family="Helvetica,sans-Serif" font-size="10.00" fill="grey"> mesh_instances</text>
</g>
<!-- Node26 -->
<g id="Node000026" class="node">
<title>Node26</title>
<g id="a_Node000026"><a xlink:href="../../dc/d5c/structengine_1_1render_1_1__dissolution__detail_1_1_mesh_instance.html" target="_top" xlink:title=" ">
<polygon fill="white" stroke="#666666" points="1324.12,-88.5 1191.88,-88.5 1191.88,-58 1324.12,-58 1324.12,-88.5"/>
<text text-anchor="start" x="1199.88" y="-75" font-family="Helvetica,sans-Serif" font-size="10.00">engine::render::_dissolution</text>
<text text-anchor="middle" x="1258" y="-63.75" font-family="Helvetica,sans-Serif" font-size="10.00">_detail::MeshInstance</text>
</a>
</g>
</g>
<!-- Node26&#45;&gt;Node25 -->
<g id="edge30_Node000025_Node000026" class="edge">
<title>Node26&#45;&gt;Node25</title>
<g id="a_edge30_Node000025_Node000026"><a xlink:title=" ">
<path fill="none" stroke="#9a32cd" stroke-dasharray="5,2" d="M1299.99,-94.02C1309,-99.03 1318.35,-104.58 1326.75,-110.25 1368.9,-138.7 1413.73,-177.35 1440.04,-201"/>
<polygon fill="#9a32cd" stroke="#9a32cd" points="1301.87,-90.52 1291.41,-88.83 1298.53,-96.67 1301.87,-90.52"/>
</a>
</g>
<text text-anchor="middle" x="1365.75" y="-155" font-family="Helvetica,sans-Serif" font-size="10.00" fill="grey"> elements</text>
</g>
<!-- Node27 -->
<g id="Node000027" class="node">
<title>Node27</title>
<g id="a_Node000027"><a xlink:title=" ">
<polygon fill="white" stroke="#666666" points="1067,-81.12 937.75,-81.12 937.75,-39.38 1067,-39.38 1067,-81.12"/>
<text text-anchor="start" x="945.75" y="-67.62" font-family="Helvetica,sans-Serif" font-size="10.00">std::vector&lt; engine</text>
<text text-anchor="start" x="945.75" y="-56.38" font-family="Helvetica,sans-Serif" font-size="10.00">::render::_dissolution</text>
<text text-anchor="middle" x="1002.38" y="-45.12" font-family="Helvetica,sans-Serif" font-size="10.00">_detail::MaterialInstance &gt;</text>
</a>
</g>
</g>
<!-- Node27&#45;&gt;Node26 -->
<g id="edge31_Node000026_Node000027" class="edge">
<title>Node27&#45;&gt;Node26</title>
<g id="a_edge31_Node000026_Node000027"><a xlink:title=" ">
<path fill="none" stroke="#9a32cd" stroke-dasharray="5,2" d="M1078.31,-64.09C1114.31,-65.94 1157.05,-68.13 1191.7,-69.9"/>
<polygon fill="#9a32cd" stroke="#9a32cd" points="1078.54,-60.55 1068.38,-63.53 1078.18,-67.54 1078.54,-60.55"/>
</a>
</g>
<text text-anchor="middle" x="1129.25" y="-70" font-family="Helvetica,sans-Serif" font-size="10.00" fill="grey"> material_instances</text>
</g>
<!-- Node28 -->
<g id="Node000028" class="node">
<title>Node28</title>
<g id="a_Node000028"><a xlink:href="../../d3/dec/structengine_1_1render_1_1__dissolution__detail_1_1_material_instance.html" target="_top" xlink:title=" ">
<polygon fill="white" stroke="#666666" points="774.62,-54.5 642.38,-54.5 642.38,-24 774.62,-24 774.62,-54.5"/>
<text text-anchor="start" x="650.38" y="-41" font-family="Helvetica,sans-Serif" font-size="10.00">engine::render::_dissolution</text>
<text text-anchor="middle" x="708.5" y="-29.75" font-family="Helvetica,sans-Serif" font-size="10.00">_detail::MaterialInstance</text>
</a>
</g>
</g>
<!-- Node28&#45;&gt;Node27 -->
<g id="edge32_Node000027_Node000028" class="edge">
<title>Node28&#45;&gt;Node27</title>
<g id="a_edge32_Node000027_Node000028"><a xlink:title=" ">
<path fill="none" stroke="#9a32cd" stroke-dasharray="5,2" d="M785.57,-41.24C824.99,-42.67 873.89,-45.06 917.5,-49 923.94,-49.58 930.64,-50.3 937.33,-51.08"/>
<polygon fill="#9a32cd" stroke="#9a32cd" points="785.83,-37.71 775.71,-40.86 785.58,-44.71 785.83,-37.71"/>
</a>
</g>
<text text-anchor="middle" x="856" y="-50" font-family="Helvetica,sans-Serif" font-size="10.00" fill="grey"> elements</text>
</g>
<!-- Node29 -->
<g id="Node000029" class="node">
<title>Node29</title>
<g id="a_Node000029"><a xlink:href="../../d6/df2/structengine_1_1render_1_1_dissolution_material.html" target="_top" xlink:title=" ">
<polygon fill="white" stroke="#666666" points="560.25,-30.5 431.75,-30.5 431.75,0 560.25,0 560.25,-30.5"/>
<text text-anchor="start" x="439.75" y="-17" font-family="Helvetica,sans-Serif" font-size="10.00">engine::render::Dissolution</text>
<text text-anchor="middle" x="496" y="-5.75" font-family="Helvetica,sans-Serif" font-size="10.00">Material</text>
</a>
</g>
</g>
<!-- Node29&#45;&gt;Node28 -->
<g id="edge33_Node000028_Node000029" class="edge">
<title>Node29&#45;&gt;Node28</title>
<g id="a_edge33_Node000028_Node000029"><a xlink:title=" ">
<path fill="none" stroke="#9a32cd" stroke-dasharray="5,2" d="M571.5,-23.74C594.56,-26.37 619.78,-29.25 642.17,-31.8"/>
<polygon fill="#9a32cd" stroke="#9a32cd" points="572.06,-20.17 561.73,-22.52 571.27,-27.13 572.06,-20.17"/>
</a>
</g>
<text text-anchor="middle" x="600.38" y="-31" font-family="Helvetica,sans-Serif" font-size="10.00" fill="grey"> material</text>
</g>
<!-- Node30 -->
<g id="Node000030" class="node">
<title>Node30</title>
<g id="a_Node000030"><a xlink:title=" ">
<polygon fill="white" stroke="#666666" points="541.12,-79.5 450.88,-79.5 450.88,-49 541.12,-49 541.12,-79.5"/>
<text text-anchor="start" x="458.88" y="-66" font-family="Helvetica,sans-Serif" font-size="10.00">std::vector&lt; entt::</text>
<text text-anchor="middle" x="496" y="-54.75" font-family="Helvetica,sans-Serif" font-size="10.00">entity &gt;</text>
</a>
</g>
</g>
<!-- Node30&#45;&gt;Node28 -->
<g id="edge34_Node000028_Node000030" class="edge">
<title>Node30&#45;&gt;Node28</title>
<g id="a_edge34_Node000028_Node000030"><a xlink:title=" ">
<path fill="none" stroke="#9a32cd" stroke-dasharray="5,2" d="M552.01,-57.72C579.56,-54.44 613.11,-50.46 641.99,-47.03"/>
<polygon fill="#9a32cd" stroke="#9a32cd" points="551.9,-54.32 542.38,-58.98 552.73,-61.27 551.9,-54.32"/>
</a>
</g>
<text text-anchor="middle" x="600.38" y="-55" font-family="Helvetica,sans-Serif" font-size="10.00" fill="grey"> instances</text>
</g>
</g>
</svg>
