<?xml version="1.0" encoding="UTF-8" standalone="no"?>
<!DOCTYPE svg PUBLIC "-//W3C//DTD SVG 1.1//EN"
 "http://www.w3.org/Graphics/SVG/1.1/DTD/svg11.dtd">
<!-- Generated by graphviz version 9.0.0 (20230911.1827)
 -->
<!-- Title: engine::render::_dissolution_detail::ModelInstance Pages: 1 -->
<svg width="1773pt" height="550pt"
 viewBox="0.00 0.00 1773.25 550.00" xmlns="http://www.w3.org/2000/svg" xmlns:xlink="http://www.w3.org/1999/xlink">
<g id="graph0" class="graph" transform="scale(1 1) rotate(0) translate(4 546)">
<title>engine::render::_dissolution_detail::ModelInstance</title>
<!-- Node1 -->
<g id="Node000001" class="node">
<title>Node1</title>
<g id="a_Node000001"><a xlink:title=" ">
<polygon fill="#999999" stroke="#666666" points="1765.25,-261.5 1633,-261.5 1633,-231 1765.25,-231 1765.25,-261.5"/>
<text text-anchor="start" x="1641" y="-248" font-family="Helvetica,sans-Serif" font-size="10.00">engine::render::_dissolution</text>
<text text-anchor="middle" x="1699.12" y="-236.75" font-family="Helvetica,sans-Serif" font-size="10.00">_detail::ModelInstance</text>
</a>
</g>
</g>
<!-- Node2 -->
<g id="Node000002" class="node">
<title>Node2</title>
<g id="a_Node000002"><a xlink:href="../../dd/db5/structengine_1_1render_1_1_model.html" target="_top" xlink:title=" ">
<polygon fill="white" stroke="#666666" points="1517.5,-289.88 1410.75,-289.88 1410.75,-270.62 1517.5,-270.62 1517.5,-289.88"/>
<text text-anchor="middle" x="1464.12" y="-276.38" font-family="Helvetica,sans-Serif" font-size="10.00">engine::render::Model</text>
</a>
</g>
</g>
<!-- Node2&#45;&gt;Node1 -->
<g id="edge1_Node000001_Node000002" class="edge">
<title>Node2&#45;&gt;Node1</title>
<g id="a_edge1_Node000001_Node000002"><a xlink:title=" ">
<path fill="none" stroke="#9a32cd" stroke-dasharray="5,2" d="M1529.07,-270.92C1561.24,-266.23 1600.17,-260.54 1632.56,-255.82"/>
<polygon fill="#9a32cd" stroke="#9a32cd" points="1528.88,-267.41 1519.49,-272.32 1529.89,-274.34 1528.88,-267.41"/>
</a>
</g>
<text text-anchor="middle" x="1578.25" y="-270" font-family="Helvetica,sans-Serif" font-size="10.00" fill="grey"> model</text>
</g>
<!-- Node3 -->
<g id="Node000003" class="node">
<title>Node3</title>
<g id="a_Node000003"><a xlink:title=" ">
<polygon fill="white" stroke="#666666" points="737.5,-380.88 679.5,-380.88 679.5,-361.62 737.5,-361.62 737.5,-380.88"/>
<text text-anchor="middle" x="708.5" y="-367.38" font-family="Helvetica,sans-Serif" font-size="10.00">std::string</text>
</a>
</g>
</g>
<!-- Node3&#45;&gt;Node2 -->
<g id="edge2_Node000002_Node000003" class="edge">
<title>Node3&#45;&gt;Node2</title>
<g id="a_edge2_Node000002_Node000003"><a xlink:title=" ">
<path fill="none" stroke="#9a32cd" stroke-dasharray="5,2" d="M748.98,-371.13C867.1,-370.49 1216.34,-366.37 1326.75,-340.25 1372.06,-329.53 1421.07,-304.22 1446.18,-290.14"/>
<polygon fill="#9a32cd" stroke="#9a32cd" points="749.15,-367.63 739.16,-371.18 749.18,-374.63 749.15,-367.63"/>
</a>
</g>
<text text-anchor="middle" x="1129.25" y="-364" font-family="Helvetica,sans-Serif" font-size="10.00" fill="grey"> name</text>
</g>
<!-- Node16 -->
<g id="Node000016" class="node">
<title>Node16</title>
<g id="a_Node000016"><a xlink:href="../../d0/d01/structengine_1_1render_1_1_material.html" target="_top" xlink:title=" ">
<polygon fill="white" stroke="#666666" points="1059.88,-411.88 944.88,-411.88 944.88,-392.62 1059.88,-392.62 1059.88,-411.88"/>
<text text-anchor="middle" x="1002.38" y="-398.38" font-family="Helvetica,sans-Serif" font-size="10.00">engine::render::Material</text>
</a>
</g>
</g>
<!-- Node3&#45;&gt;Node16 -->
<g id="edge19_Node000016_Node000003" class="edge">
<title>Node3&#45;&gt;Node16</title>
<g id="a_edge19_Node000016_Node000003"><a xlink:title=" ">
<path fill="none" stroke="#9a32cd" stroke-dasharray="5,2" d="M749.12,-375.46C799.52,-380.81 886.9,-390.09 944.43,-396.2"/>
<polygon fill="#9a32cd" stroke="#9a32cd" points="749.57,-371.99 739.26,-374.41 748.83,-378.95 749.57,-371.99"/>
</a>
</g>
<text text-anchor="middle" x="856" y="-394" font-family="Helvetica,sans-Serif" font-size="10.00" fill="grey"> name</text>
</g>
<!-- Node4 -->
<g id="Node000004" class="node">
<title>Node4</title>
<g id="a_Node000004"><a xlink:title=" ">
<polygon fill="white" stroke="#666666" points="542.25,-386.5 449.75,-386.5 449.75,-356 542.25,-356 542.25,-386.5"/>
<text text-anchor="start" x="457.75" y="-373" font-family="Helvetica,sans-Serif" font-size="10.00">std::basic_string&lt;</text>
<text text-anchor="middle" x="496" y="-361.75" font-family="Helvetica,sans-Serif" font-size="10.00"> Char &gt;</text>
</a>
</g>
</g>
<!-- Node4&#45;&gt;Node3 -->
<g id="edge3_Node000003_Node000004" class="edge">
<title>Node4&#45;&gt;Node3</title>
<g id="a_edge3_Node000003_Node000004"><a xlink:title=" ">
<path fill="none" stroke="#63b8ff" d="M554.01,-371.25C594.48,-371.25 647.1,-371.25 679.04,-371.25"/>
<polygon fill="#63b8ff" stroke="#63b8ff" points="554.19,-367.75 544.19,-371.25 554.19,-374.75 554.19,-367.75"/>
</a>
</g>
</g>
<!-- Node5 -->
<g id="Node000005" class="node">
<title>Node5</title>
<g id="a_Node000005"><a xlink:title=" ">
<polygon fill="white" stroke="#666666" points="1313.25,-149.5 1202.75,-149.5 1202.75,-119 1313.25,-119 1313.25,-149.5"/>
<text text-anchor="start" x="1210.75" y="-136" font-family="Helvetica,sans-Serif" font-size="10.00">std::vector&lt; engine</text>
<text text-anchor="middle" x="1258" y="-124.75" font-family="Helvetica,sans-Serif" font-size="10.00">::render::ModelMesh &gt;</text>
</a>
</g>
</g>
<!-- Node5&#45;&gt;Node2 -->
<g id="edge4_Node000002_Node000005" class="edge">
<title>Node5&#45;&gt;Node2</title>
<g id="a_edge4_Node000002_Node000005"><a xlink:title=" ">
<path fill="none" stroke="#9a32cd" stroke-dasharray="5,2" d="M1315.22,-155C1319.24,-157.23 1323.14,-159.65 1326.75,-162.25 1369.7,-193.19 1362.68,-220.13 1404.75,-252.25 1414.31,-259.55 1426.08,-265.64 1436.53,-270.25"/>
<polygon fill="#9a32cd" stroke="#9a32cd" points="1316.87,-151.91 1306.36,-150.52 1313.71,-158.16 1316.87,-151.91"/>
</a>
</g>
<text text-anchor="middle" x="1365.75" y="-237" font-family="Helvetica,sans-Serif" font-size="10.00" fill="grey"> meshes</text>
</g>
<!-- Node6 -->
<g id="Node000006" class="node">
<title>Node6</title>
<g id="a_Node000006"><a xlink:href="../../df/d91/structengine_1_1render_1_1_model_mesh.html" target="_top" xlink:title=" ">
<polygon fill="white" stroke="#666666" points="1067.75,-136.88 937,-136.88 937,-117.62 1067.75,-117.62 1067.75,-136.88"/>
<text text-anchor="middle" x="1002.38" y="-123.38" font-family="Helvetica,sans-Serif" font-size="10.00">engine::render::ModelMesh</text>
</a>
</g>
</g>
<!-- Node6&#45;&gt;Node5 -->
<g id="edge5_Node000005_Node000006" class="edge">
<title>Node6&#45;&gt;Node5</title>
<g id="a_edge5_Node000005_Node000006"><a xlink:title=" ">
<path fill="none" stroke="#9a32cd" stroke-dasharray="5,2" d="M1079.49,-129.35C1119.04,-130.44 1166.46,-131.75 1202.33,-132.74"/>
<polygon fill="#9a32cd" stroke="#9a32cd" points="1079.64,-125.85 1069.54,-129.08 1079.44,-132.85 1079.64,-125.85"/>
</a>
</g>
<text text-anchor="middle" x="1129.25" y="-133" font-family="Helvetica,sans-Serif" font-size="10.00" fill="grey"> elements</text>
</g>
<!-- Node7 -->
<g id="Node000007" class="node">
<title>Node7</title>
<g id="a_Node000007"><a xlink:href="../../d1/d87/structengine_1_1render_1_1_mesh_range.html" target="_top" xlink:title=" ">
<polygon fill="white" stroke="#666666" points="774.62,-91.88 642.38,-91.88 642.38,-72.62 774.62,-72.62 774.62,-91.88"/>
<text text-anchor="middle" x="708.5" y="-78.38" font-family="Helvetica,sans-Serif" font-size="10.00">engine::render::MeshRange</text>
</a>
</g>
</g>
<!-- Node7&#45;&gt;Node6 -->
<g id="edge6_Node000006_Node000007" class="edge">
<title>Node7&#45;&gt;Node6</title>
<g id="a_edge6_Node000006_Node000007"><a xlink:title=" ">
<path fill="none" stroke="#9a32cd" stroke-dasharray="5,2" d="M786.45,-86.57C825.88,-89.63 874.53,-94.72 917.5,-103 935.66,-106.5 955.56,-112.17 971.42,-117.15"/>
<polygon fill="#9a32cd" stroke="#9a32cd" points="786.79,-83.09 776.56,-85.84 786.27,-90.07 786.79,-83.09"/>
</a>
</g>
<text text-anchor="middle" x="856" y="-104" font-family="Helvetica,sans-Serif" font-size="10.00" fill="grey"> mesh_range</text>
</g>
<!-- Node8 -->
<g id="Node000008" class="node">
<title>Node8</title>
<g id="a_Node000008"><a xlink:href="../../d7/d90/structengine_1_1render_1_1_mesh.html" target="_top" xlink:title=" ">
<polygon fill="white" stroke="#666666" points="548.25,-149.88 443.75,-149.88 443.75,-130.62 548.25,-130.62 548.25,-149.88"/>
<text text-anchor="middle" x="496" y="-136.38" font-family="Helvetica,sans-Serif" font-size="10.00">engine::render::Mesh</text>
</a>
</g>
</g>
<!-- Node8&#45;&gt;Node6 -->
<g id="edge7_Node000006_Node000008" class="edge">
<title>Node8&#45;&gt;Node6</title>
<g id="a_edge7_Node000006_Node000008"><a xlink:title=" ">
<path fill="none" stroke="#9a32cd" stroke-dasharray="5,2" d="M559.92,-138.63C656.29,-136.14 839.49,-131.42 936.83,-128.91"/>
<polygon fill="#9a32cd" stroke="#9a32cd" points="560.03,-135.12 550.12,-138.88 560.21,-142.12 560.03,-135.12"/>
</a>
</g>
<text text-anchor="middle" x="708.5" y="-138" font-family="Helvetica,sans-Serif" font-size="10.00" fill="grey"> mesh</text>
</g>
<!-- Node12 -->
<g id="Node000012" class="node">
<title>Node12</title>
<g id="a_Node000012"><a xlink:href="../../db/df4/classengine_1_1core_1_1_triangle_octree.html" target="_top" xlink:title=" ">
<polygon fill="white" stroke="#666666" points="776.5,-202.88 640.5,-202.88 640.5,-183.62 776.5,-183.62 776.5,-202.88"/>
<text text-anchor="middle" x="708.5" y="-189.38" font-family="Helvetica,sans-Serif" font-size="10.00">engine::core::TriangleOctree</text>
</a>
</g>
</g>
<!-- Node8&#45;&gt;Node12 -->
<g id="edge12_Node000012_Node000008" class="edge">
<title>Node8&#45;&gt;Node12</title>
<g id="a_edge12_Node000012_Node000008"><a xlink:title=" ">
<path fill="none" stroke="#9a32cd" stroke-dasharray="5,2" d="M557.56,-152.73C578.24,-157.23 601.45,-162.55 622.5,-168 640.24,-172.59 659.85,-178.37 675.76,-183.24"/>
<polygon fill="#9a32cd" stroke="#9a32cd" points="558.36,-149.32 547.85,-150.64 556.88,-156.16 558.36,-149.32"/>
</a>
</g>
<text text-anchor="middle" x="600.38" y="-169" font-family="Helvetica,sans-Serif" font-size="10.00" fill="grey"> m_mesh</text>
</g>
<!-- Node9 -->
<g id="Node000009" class="node">
<title>Node9</title>
<g id="a_Node000009"><a xlink:title=" ">
<polygon fill="white" stroke="#666666" points="321.5,-148.5 223.75,-148.5 223.75,-118 321.5,-118 321.5,-148.5"/>
<text text-anchor="start" x="231.75" y="-135" font-family="Helvetica,sans-Serif" font-size="10.00">std::vector&lt; engine</text>
<text text-anchor="middle" x="272.62" y="-123.75" font-family="Helvetica,sans-Serif" font-size="10.00">::render::Vertex &gt;</text>
</a>
</g>
</g>
<!-- Node9&#45;&gt;Node8 -->
<g id="edge8_Node000008_Node000009" class="edge">
<title>Node9&#45;&gt;Node8</title>
<g id="a_edge8_Node000008_Node000009"><a xlink:title=" ">
<path fill="none" stroke="#9a32cd" stroke-dasharray="5,2" d="M333.42,-132.63C358.27,-132.62 387.42,-132.92 413.75,-134 423.36,-134.39 433.6,-135.02 443.45,-135.73"/>
<polygon fill="#9a32cd" stroke="#9a32cd" points="333.46,-129.13 323.47,-132.66 333.48,-136.13 333.46,-129.13"/>
</a>
</g>
<text text-anchor="middle" x="395.38" y="-135" font-family="Helvetica,sans-Serif" font-size="10.00" fill="grey"> vertices</text>
</g>
<!-- Node10 -->
<g id="Node000010" class="node">
<title>Node10</title>
<g id="a_Node000010"><a xlink:href="../../d0/dc6/structengine_1_1render_1_1_vertex.html" target="_top" xlink:title=" ">
<polygon fill="white" stroke="#666666" points="108.25,-142.88 0,-142.88 0,-123.62 108.25,-123.62 108.25,-142.88"/>
<text text-anchor="middle" x="54.12" y="-129.38" font-family="Helvetica,sans-Serif" font-size="10.00">engine::render::Vertex</text>
</a>
</g>
</g>
<!-- Node10&#45;&gt;Node9 -->
<g id="edge9_Node000009_Node000010" class="edge">
<title>Node10&#45;&gt;Node9</title>
<g id="a_edge9_Node000009_Node000010"><a xlink:title=" ">
<path fill="none" stroke="#9a32cd" stroke-dasharray="5,2" d="M120.1,-133.25C153.33,-133.25 193.07,-133.25 223.52,-133.25"/>
<polygon fill="#9a32cd" stroke="#9a32cd" points="120.16,-129.75 110.16,-133.25 120.16,-136.75 120.16,-129.75"/>
</a>
</g>
<text text-anchor="middle" x="147.25" y="-135" font-family="Helvetica,sans-Serif" font-size="10.00" fill="grey"> elements</text>
</g>
<!-- Node11 -->
<g id="Node000011" class="node">
<title>Node11</title>
<g id="a_Node000011"><a xlink:title=" ">
<polygon fill="white" stroke="#666666" points="328.62,-194.88 216.62,-194.88 216.62,-175.62 328.62,-175.62 328.62,-194.88"/>
<text text-anchor="middle" x="272.62" y="-181.38" font-family="Helvetica,sans-Serif" font-size="10.00">std::vector&lt; uint32_t &gt;</text>
</a>
</g>
</g>
<!-- Node11&#45;&gt;Node8 -->
<g id="edge10_Node000008_Node000011" class="edge">
<title>Node11&#45;&gt;Node8</title>
<g id="a_edge10_Node000008_Node000011"><a xlink:title=" ">
<path fill="none" stroke="#9a32cd" stroke-dasharray="5,2" d="M334.33,-172.91C369.27,-165.81 412.62,-157 445.48,-150.32"/>
<polygon fill="#9a32cd" stroke="#9a32cd" points="333.89,-169.43 324.79,-174.85 335.29,-176.29 333.89,-169.43"/>
</a>
</g>
<text text-anchor="middle" x="395.38" y="-165" font-family="Helvetica,sans-Serif" font-size="10.00" fill="grey"> indices</text>
</g>
<!-- Node11&#45;&gt;Node12 -->
<g id="edge13_Node000012_Node000011" class="edge">
<title>Node11&#45;&gt;Node12</title>
<g id="a_edge13_Node000012_Node000011"><a xlink:title=" ">
<path fill="none" stroke="#9a32cd" stroke-dasharray="5,2" d="M340.12,-186.48C421.54,-187.98 558.64,-190.51 640.35,-192.01"/>
<polygon fill="#9a32cd" stroke="#9a32cd" points="340.59,-182.98 330.53,-186.3 340.46,-189.98 340.59,-182.98"/>
</a>
</g>
<text text-anchor="middle" x="496" y="-192" font-family="Helvetica,sans-Serif" font-size="10.00" fill="grey"> m_triangles</text>
</g>
<!-- Node12&#45;&gt;Node6 -->
<g id="edge11_Node000006_Node000012" class="edge">
<title>Node12&#45;&gt;Node6</title>
<g id="a_edge11_Node000006_Node000012"><a xlink:title=" ">
<path fill="none" stroke="#9a32cd" stroke-dasharray="5,2" d="M742.8,-178.84C758.28,-172.6 777.08,-165.67 794.5,-161 808.12,-157.35 881.09,-145.74 936.54,-137.16"/>
<polygon fill="#9a32cd" stroke="#9a32cd" points="741.49,-175.59 733.58,-182.64 744.16,-182.06 741.49,-175.59"/>
</a>
</g>
<text text-anchor="middle" x="856" y="-162" font-family="Helvetica,sans-Serif" font-size="10.00" fill="grey"> triangle_octree</text>
</g>
<!-- Node14 -->
<g id="Node000014" class="node">
<title>Node14</title>
<g id="a_Node000014"><a xlink:title=" ">
<polygon fill="white" stroke="#666666" points="1065.5,-185.5 939.25,-185.5 939.25,-155 1065.5,-155 1065.5,-185.5"/>
<text text-anchor="start" x="947.25" y="-172" font-family="Helvetica,sans-Serif" font-size="10.00">std::array&lt; engine</text>
<text text-anchor="middle" x="1002.38" y="-160.75" font-family="Helvetica,sans-Serif" font-size="10.00">::core::TriangleOctree, 8 &gt;</text>
</a>
</g>
</g>
<!-- Node12&#45;&gt;Node14 -->
<g id="edge16_Node000014_Node000012" class="edge">
<title>Node12&#45;&gt;Node14</title>
<g id="a_edge16_Node000014_Node000012"><a xlink:title=" ">
<path fill="none" stroke="#9a32cd" stroke-dasharray="5,2" d="M788.26,-187.04C835.53,-183.32 894.84,-178.65 938.87,-175.18"/>
<polygon fill="#9a32cd" stroke="#9a32cd" points="788.03,-183.55 778.34,-187.83 788.58,-190.53 788.03,-183.55"/>
</a>
</g>
<text text-anchor="middle" x="856" y="-188" font-family="Helvetica,sans-Serif" font-size="10.00" fill="grey"> elements</text>
</g>
<!-- Node13 -->
<g id="Node000013" class="node">
<title>Node13</title>
<g id="a_Node000013"><a xlink:title=" ">
<polygon fill="white" stroke="#666666" points="1313.62,-213.12 1202.38,-213.12 1202.38,-171.38 1313.62,-171.38 1313.62,-213.12"/>
<text text-anchor="start" x="1210.38" y="-199.62" font-family="Helvetica,sans-Serif" font-size="10.00">std::unique_ptr&lt; std</text>
<text text-anchor="start" x="1210.38" y="-188.38" font-family="Helvetica,sans-Serif" font-size="10.00">::array&lt; engine::core</text>
<text text-anchor="middle" x="1258" y="-177.12" font-family="Helvetica,sans-Serif" font-size="10.00">::TriangleOctree, 8 &gt; &gt;</text>
</a>
</g>
</g>
<!-- Node13&#45;&gt;Node12 -->
<g id="edge14_Node000012_Node000013" class="edge">
<title>Node13&#45;&gt;Node12</title>
<g id="a_edge14_Node000012_Node000013"><a xlink:title=" ">
<path fill="none" stroke="#9a32cd" stroke-dasharray="5,2" d="M1190.98,-198.13C1184.32,-198.58 1177.65,-198.96 1171.25,-199.25 1113.84,-201.82 852.96,-204 794.5,-201.25 788.73,-200.98 782.74,-200.6 776.74,-200.17"/>
<polygon fill="#9a32cd" stroke="#9a32cd" points="1190.91,-201.65 1200.63,-197.44 1190.41,-194.66 1190.91,-201.65"/>
</a>
</g>
<text text-anchor="middle" x="1002.38" y="-204" font-family="Helvetica,sans-Serif" font-size="10.00" fill="grey"> m_children</text>
</g>
<!-- Node14&#45;&gt;Node13 -->
<g id="edge15_Node000013_Node000014" class="edge">
<title>Node14&#45;&gt;Node13</title>
<g id="a_edge15_Node000013_Node000014"><a xlink:title=" ">
<path fill="none" stroke="#9a32cd" stroke-dasharray="5,2" d="M1077.04,-176.64C1117.02,-180.11 1165.6,-184.32 1202.2,-187.5"/>
<polygon fill="#9a32cd" stroke="#9a32cd" points="1077.52,-173.17 1067.25,-175.79 1076.91,-180.14 1077.52,-173.17"/>
</a>
</g>
<text text-anchor="middle" x="1129.25" y="-186" font-family="Helvetica,sans-Serif" font-size="10.00" fill="grey"> ptr</text>
</g>
<!-- Node15 -->
<g id="Node000015" class="node">
<title>Node15</title>
<g id="a_Node000015"><a xlink:title=" ">
<polygon fill="white" stroke="#666666" points="1306.88,-417.5 1209.12,-417.5 1209.12,-387 1306.88,-387 1306.88,-417.5"/>
<text text-anchor="start" x="1217.12" y="-404" font-family="Helvetica,sans-Serif" font-size="10.00">std::vector&lt; engine</text>
<text text-anchor="middle" x="1258" y="-392.75" font-family="Helvetica,sans-Serif" font-size="10.00">::render::Material &gt;</text>
</a>
</g>
</g>
<!-- Node15&#45;&gt;Node2 -->
<g id="edge17_Node000002_Node000015" class="edge">
<title>Node15&#45;&gt;Node2</title>
<g id="a_edge17_Node000002_Node000015"><a xlink:title=" ">
<path fill="none" stroke="#9a32cd" stroke-dasharray="5,2" d="M1318.56,-397.01C1341.18,-392.96 1366.39,-385.82 1386.75,-373.25 1421.24,-351.95 1447.31,-309.53 1457.92,-290.22"/>
<polygon fill="#9a32cd" stroke="#9a32cd" points="1318.16,-393.53 1308.84,-398.56 1319.27,-400.44 1318.16,-393.53"/>
</a>
</g>
<text text-anchor="middle" x="1365.75" y="-391" font-family="Helvetica,sans-Serif" font-size="10.00" fill="grey"> materials</text>
</g>
<!-- Node16&#45;&gt;Node15 -->
<g id="edge18_Node000015_Node000016" class="edge">
<title>Node16&#45;&gt;Node15</title>
<g id="a_edge18_Node000015_Node000016"><a xlink:title=" ">
<path fill="none" stroke="#9a32cd" stroke-dasharray="5,2" d="M1071.61,-402.25C1114.95,-402.25 1169.99,-402.25 1208.8,-402.25"/>
<polygon fill="#9a32cd" stroke="#9a32cd" points="1071.81,-398.75 1061.81,-402.25 1071.81,-405.75 1071.81,-398.75"/>
</a>
</g>
<text text-anchor="middle" x="1129.25" y="-404" font-family="Helvetica,sans-Serif" font-size="10.00" fill="grey"> elements</text>
</g>
<!-- Node17 -->
<g id="Node000017" class="node">
<title>Node17</title>
<g id="a_Node000017"><a xlink:title=" ">
<polygon fill="white" stroke="#666666" points="774.62,-441.5 642.38,-441.5 642.38,-411 774.62,-411 774.62,-441.5"/>
<text text-anchor="start" x="650.38" y="-428" font-family="Helvetica,sans-Serif" font-size="10.00">std::vector&lt; ID3D11Shader</text>
<text text-anchor="middle" x="708.5" y="-416.75" font-family="Helvetica,sans-Serif" font-size="10.00">ResourceView * &gt;</text>
</a>
</g>
</g>
<!-- Node17&#45;&gt;Node16 -->
<g id="edge20_Node000016_Node000017" class="edge">
<title>Node17&#45;&gt;Node16</title>
<g id="a_edge20_Node000016_Node000017"><a xlink:title=" ">
<path fill="none" stroke="#9a32cd" stroke-dasharray="5,2" d="M786.33,-419.93C835.93,-415.85 899.37,-410.64 944.47,-406.93"/>
<polygon fill="#9a32cd" stroke="#9a32cd" points="786.19,-416.43 776.51,-420.74 786.76,-423.41 786.19,-416.43"/>
</a>
</g>
<text text-anchor="middle" x="856" y="-532.5" font-family="Helvetica,sans-Serif" font-size="10.00" fill="grey"> ambient_occlusion_textures</text>
<text text-anchor="middle" x="856" y="-521.25" font-family="Helvetica,sans-Serif" font-size="10.00" fill="grey">ambient_textures</text>
<text text-anchor="middle" x="856" y="-510" font-family="Helvetica,sans-Serif" font-size="10.00" fill="grey">base_color_textures</text>
<text text-anchor="middle" x="856" y="-498.75" font-family="Helvetica,sans-Serif" font-size="10.00" fill="grey">clearcoat_textures</text>
<text text-anchor="middle" x="856" y="-487.5" font-family="Helvetica,sans-Serif" font-size="10.00" fill="grey">diffuse_roughness_textures</text>
<text text-anchor="middle" x="856" y="-476.25" font-family="Helvetica,sans-Serif" font-size="10.00" fill="grey">diffuse_textures</text>
<text text-anchor="middle" x="856" y="-465" font-family="Helvetica,sans-Serif" font-size="10.00" fill="grey">displacement_textures</text>
<text text-anchor="middle" x="856" y="-453.75" font-family="Helvetica,sans-Serif" font-size="10.00" fill="grey">emission_color_textures</text>
<text text-anchor="middle" x="856" y="-442.5" font-family="Helvetica,sans-Serif" font-size="10.00" fill="grey">emissive_textures</text>
<text text-anchor="middle" x="856" y="-431.25" font-family="Helvetica,sans-Serif" font-size="10.00" fill="grey">height_textures</text>
<text text-anchor="middle" x="856" y="-420" font-family="Helvetica,sans-Serif" font-size="10.00" fill="grey">...</text>
</g>
<!-- Node18 -->
<g id="Node000018" class="node">
<title>Node18</title>
<g id="a_Node000018"><a xlink:href="../../d0/dc3/classengine_1_1direct3d_1_1_immutable_vertex_buffer.html" target="_top" xlink:title=" ">
<polygon fill="white" stroke="#666666" points="1326.75,-331.12 1189.25,-331.12 1189.25,-289.38 1326.75,-289.38 1326.75,-331.12"/>
<text text-anchor="start" x="1197.25" y="-317.62" font-family="Helvetica,sans-Serif" font-size="10.00">engine::direct3d::Immutable</text>
<text text-anchor="start" x="1197.25" y="-306.38" font-family="Helvetica,sans-Serif" font-size="10.00">VertexBuffer&lt; engine::render</text>
<text text-anchor="middle" x="1258" y="-295.12" font-family="Helvetica,sans-Serif" font-size="10.00">::Vertex &gt;</text>
</a>
</g>
</g>
<!-- Node18&#45;&gt;Node2 -->
<g id="edge21_Node000002_Node000018" class="edge">
<title>Node18&#45;&gt;Node2</title>
<g id="a_edge21_Node000002_Node000018"><a xlink:title=" ">
<path fill="none" stroke="#9a32cd" stroke-dasharray="5,2" d="M1338.28,-298.6C1362.42,-295.05 1388.36,-291.24 1410.3,-288.01"/>
<polygon fill="#9a32cd" stroke="#9a32cd" points="1337.85,-295.12 1328.47,-300.04 1338.87,-302.05 1337.85,-295.12"/>
</a>
</g>
<text text-anchor="middle" x="1365.75" y="-298" font-family="Helvetica,sans-Serif" font-size="10.00" fill="grey"> vertices</text>
</g>
<!-- Node19 -->
<g id="Node000019" class="node">
<title>Node19</title>
<g id="a_Node000019"><a xlink:href="../../d3/d29/classengine_1_1direct3d_1_1_immutable_buffer.html" target="_top" xlink:title="The immutable buffer class.">
<polygon fill="white" stroke="#666666" points="1069.25,-330.5 935.5,-330.5 935.5,-300 1069.25,-300 1069.25,-330.5"/>
<text text-anchor="start" x="943.5" y="-317" font-family="Helvetica,sans-Serif" font-size="10.00">engine::direct3d::Immutable</text>
<text text-anchor="middle" x="1002.38" y="-305.75" font-family="Helvetica,sans-Serif" font-size="10.00">Buffer&lt; T &gt;</text>
</a>
</g>
</g>
<!-- Node19&#45;&gt;Node18 -->
<g id="edge22_Node000018_Node000019" class="edge">
<title>Node19&#45;&gt;Node18</title>
<g id="a_edge22_Node000018_Node000019"><a xlink:title=" ">
<path fill="none" stroke="#63b8ff" d="M1081.12,-313.72C1115.53,-313.04 1155.65,-312.25 1188.87,-311.59"/>
<polygon fill="#63b8ff" stroke="#63b8ff" points="1081.12,-310.22 1071.19,-313.91 1081.26,-317.22 1081.12,-310.22"/>
</a>
</g>
</g>
<!-- Node20 -->
<g id="Node000020" class="node">
<title>Node20</title>
<g id="a_Node000020"><a xlink:href="../../d9/db4/classengine_1_1direct3d_1_1_buffer_base.html" target="_top" xlink:title="Buffer Base class that contains the common functions for all the buffers.">
<polygon fill="white" stroke="#666666" points="765.25,-308.5 651.75,-308.5 651.75,-278 765.25,-278 765.25,-308.5"/>
<text text-anchor="start" x="659.75" y="-295" font-family="Helvetica,sans-Serif" font-size="10.00">engine::direct3d::Buffer</text>
<text text-anchor="middle" x="708.5" y="-283.75" font-family="Helvetica,sans-Serif" font-size="10.00">Base&lt; T &gt;</text>
</a>
</g>
</g>
<!-- Node20&#45;&gt;Node19 -->
<g id="edge23_Node000019_Node000020" class="edge">
<title>Node20&#45;&gt;Node19</title>
<g id="a_edge23_Node000019_Node000020"><a xlink:title=" ">
<path fill="none" stroke="#8b1a1a" d="M776.85,-298.33C824.42,-301.91 887.85,-306.69 935.16,-310.26"/>
<polygon fill="#8b1a1a" stroke="#8b1a1a" points="777.18,-294.84 766.94,-297.58 776.65,-301.82 777.18,-294.84"/>
</a>
</g>
</g>
<!-- Node24 -->
<g id="Node000024" class="node">
<title>Node24</title>
<g id="a_Node000024"><a xlink:href="../../d3/d29/classengine_1_1direct3d_1_1_immutable_buffer.html" target="_top" xlink:title="The immutable buffer class.">
<polygon fill="white" stroke="#666666" points="1069.25,-281.5 935.5,-281.5 935.5,-251 1069.25,-251 1069.25,-281.5"/>
<text text-anchor="start" x="943.5" y="-268" font-family="Helvetica,sans-Serif" font-size="10.00">engine::direct3d::Immutable</text>
<text text-anchor="middle" x="1002.38" y="-256.75" font-family="Helvetica,sans-Serif" font-size="10.00">Buffer&lt; T &gt;</text>
</a>
</g>
</g>
<!-- Node20&#45;&gt;Node24 -->
<g id="edge28_Node000024_Node000020" class="edge">
<title>Node20&#45;&gt;Node24</title>
<g id="a_edge28_Node000024_Node000020"><a xlink:title=" ">
<path fill="none" stroke="#8b1a1a" d="M776.85,-287.02C824.42,-282.62 887.85,-276.75 935.16,-272.38"/>
<polygon fill="#8b1a1a" stroke="#8b1a1a" points="776.57,-283.53 766.94,-287.94 777.22,-290.5 776.57,-283.53"/>
</a>
</g>
</g>
<!-- Node21 -->
<g id="Node000021" class="node">
<title>Node21</title>
<g id="a_Node000021"><a xlink:href="../../d6/de4/classengine_1_1direct3d_1_1_buffer_wrapper.html" target="_top" xlink:title="A wrapper for a D3D11 buffer.">
<polygon fill="white" stroke="#666666" points="552.75,-308.5 439.25,-308.5 439.25,-278 552.75,-278 552.75,-308.5"/>
<text text-anchor="start" x="447.25" y="-295" font-family="Helvetica,sans-Serif" font-size="10.00">engine::direct3d::Buffer</text>
<text text-anchor="middle" x="496" y="-283.75" font-family="Helvetica,sans-Serif" font-size="10.00">Wrapper</text>
</a>
</g>
</g>
<!-- Node21&#45;&gt;Node20 -->
<g id="edge24_Node000020_Node000021" class="edge">
<title>Node21&#45;&gt;Node20</title>
<g id="a_edge24_Node000020_Node000021"><a xlink:title=" ">
<path fill="none" stroke="#8b1a1a" d="M564.48,-293.25C592.56,-293.25 624.78,-293.25 651.52,-293.25"/>
<polygon fill="#8b1a1a" stroke="#8b1a1a" points="564.65,-289.75 554.65,-293.25 564.65,-296.75 564.65,-289.75"/>
</a>
</g>
</g>
<!-- Node22 -->
<g id="Node000022" class="node">
<title>Node22</title>
<g id="a_Node000022"><a xlink:href="../../df/d47/classengine_1_1direct3d_1_1d3d__resource__wrapper.html" target="_top" xlink:title=" ">
<polygon fill="white" stroke="#666666" points="359,-308.5 186.25,-308.5 186.25,-278 359,-278 359,-308.5"/>
<text text-anchor="start" x="194.25" y="-295" font-family="Helvetica,sans-Serif" font-size="10.00">engine::direct3d::d3d</text>
<text text-anchor="middle" x="272.62" y="-283.75" font-family="Helvetica,sans-Serif" font-size="10.00">_resource_wrapper&lt; ID3D11Buffer &gt;</text>
</a>
</g>
</g>
<!-- Node22&#45;&gt;Node21 -->
<g id="edge25_Node000021_Node000022" class="edge">
<title>Node22&#45;&gt;Node21</title>
<g id="a_edge25_Node000021_Node000022"><a xlink:title=" ">
<path fill="none" stroke="#9a32cd" stroke-dasharray="5,2" d="M370.61,-293.25C394,-293.25 418.22,-293.25 439,-293.25"/>
<polygon fill="#9a32cd" stroke="#9a32cd" points="370.73,-289.75 360.73,-293.25 370.73,-296.75 370.73,-289.75"/>
</a>
</g>
<text text-anchor="middle" x="395.38" y="-295" font-family="Helvetica,sans-Serif" font-size="10.00" fill="grey"> buffer_</text>
</g>
<!-- Node23 -->
<g id="Node000023" class="node">
<title>Node23</title>
<g id="a_Node000023"><a xlink:href="../../db/dc4/classengine_1_1direct3d_1_1_immutable_index_buffer.html" target="_top" xlink:title=" ">
<polygon fill="white" stroke="#666666" points="1324.88,-271.5 1191.12,-271.5 1191.12,-241 1324.88,-241 1324.88,-271.5"/>
<text text-anchor="start" x="1199.12" y="-258" font-family="Helvetica,sans-Serif" font-size="10.00">engine::direct3d::Immutable</text>
<text text-anchor="middle" x="1258" y="-246.75" font-family="Helvetica,sans-Serif" font-size="10.00">IndexBuffer&lt; uint32_t &gt;</text>
</a>
</g>
</g>
<!-- Node23&#45;&gt;Node2 -->
<g id="edge26_Node000002_Node000023" class="edge">
<title>Node23&#45;&gt;Node2</title>
<g id="a_edge26_Node000002_Node000023"><a xlink:title=" ">
<path fill="none" stroke="#9a32cd" stroke-dasharray="5,2" d="M1336.45,-261.67C1353.07,-263.14 1370.52,-264.91 1386.75,-267 1394.49,-268 1402.65,-269.22 1410.63,-270.52"/>
<polygon fill="#9a32cd" stroke="#9a32cd" points="1336.86,-258.19 1326.6,-260.83 1336.27,-265.17 1336.86,-258.19"/>
</a>
</g>
<text text-anchor="middle" x="1365.75" y="-268" font-family="Helvetica,sans-Serif" font-size="10.00" fill="grey"> indices</text>
</g>
<!-- Node24&#45;&gt;Node23 -->
<g id="edge27_Node000023_Node000024" class="edge">
<title>Node24&#45;&gt;Node23</title>
<g id="a_edge27_Node000023_Node000024"><a xlink:title=" ">
<path fill="none" stroke="#63b8ff" d="M1080.85,-263.2C1115.93,-261.81 1156.99,-260.19 1190.64,-258.87"/>
<polygon fill="#63b8ff" stroke="#63b8ff" points="1081.05,-259.68 1071.19,-263.58 1081.32,-266.68 1081.05,-259.68"/>
</a>
</g>
</g>
<!-- Node25 -->
<g id="Node000025" class="node">
<title>Node25</title>
<g id="a_Node000025"><a xlink:title=" ">
<polygon fill="white" stroke="#666666" points="1523.5,-243.12 1404.75,-243.12 1404.75,-201.38 1523.5,-201.38 1523.5,-243.12"/>
<text text-anchor="start" x="1412.75" y="-229.62" font-family="Helvetica,sans-Serif" font-size="10.00">std::vector&lt; engine</text>
<text text-anchor="start" x="1412.75" y="-218.38" font-family="Helvetica,sans-Serif" font-size="10.00">::render::_dissolution</text>
<text text-anchor="middle" x="1464.12" y="-207.12" font-family="Helvetica,sans-Serif" font-size="10.00">_detail::MeshInstance &gt;</text>
</a>
</g>
</g>
<!-- Node25&#45;&gt;Node1 -->
<g id="edge29_Node000001_Node000025" class="edge">
<title>Node25&#45;&gt;Node1</title>
<g id="a_edge29_Node000001_Node000025"><a xlink:title=" ">
<path fill="none" stroke="#9a32cd" stroke-dasharray="5,2" d="M1535.25,-226.76C1560.43,-228.64 1589.02,-231.07 1615,-234 1620.8,-234.65 1626.81,-235.4 1632.84,-236.2"/>
<polygon fill="#9a32cd" stroke="#9a32cd" points="1535.67,-223.28 1525.45,-226.04 1535.16,-230.26 1535.67,-223.28"/>
</a>
</g>
<text text-anchor="middle" x="1578.25" y="-235" font-family="Helvetica,sans-Serif" font-size="10.00" fill="grey"> mesh_instances</text>
</g>
<!-- Node26 -->
<g id="Node000026" class="node">
<title>Node26</title>
<g id="a_Node000026"><a xlink:href="../../dc/d5c/structengine_1_1render_1_1__dissolution__detail_1_1_mesh_instance.html" target="_top" xlink:title=" ">
<polygon fill="white" stroke="#666666" points="1324.12,-88.5 1191.88,-88.5 1191.88,-58 1324.12,-58 1324.12,-88.5"/>
<text text-anchor="start" x="1199.88" y="-75" font-family="Helvetica,sans-Serif" font-size="10.00">engine::render::_dissolution</text>
<text text-anchor="middle" x="1258" y="-63.75" font-family="Helvetica,sans-Serif" font-size="10.00">_detail::MeshInstance</text>
</a>
</g>
</g>
<!-- Node26&#45;&gt;Node25 -->
<g id="edge30_Node000025_Node000026" class="edge">
<title>Node26&#45;&gt;Node25</title>
<g id="a_edge30_Node000025_Node000026"><a xlink:title=" ">
<path fill="none" stroke="#9a32cd" stroke-dasharray="5,2" d="M1300.28,-94.18C1309.19,-99.15 1318.44,-104.64 1326.75,-110.25 1368.9,-138.7 1413.73,-177.35 1440.04,-201"/>
<polygon fill="#9a32cd" stroke="#9a32cd" points="1302.2,-91.25 1291.74,-89.55 1298.86,-97.4 1302.2,-91.25"/>
</a>
</g>
<text text-anchor="middle" x="1365.75" y="-155" font-family="Helvetica,sans-Serif" font-size="10.00" fill="grey"> elements</text>
</g>
<!-- Node27 -->
<g id="Node000027" class="node">
<title>Node27</title>
<g id="a_Node000027"><a xlink:title=" ">
<polygon fill="white" stroke="#666666" points="1067,-81.12 937.75,-81.12 937.75,-39.38 1067,-39.38 1067,-81.12"/>
<text text-anchor="start" x="945.75" y="-67.62" font-family="Helvetica,sans-Serif" font-size="10.00">std::vector&lt; engine</text>
<text text-anchor="start" x="945.75" y="-56.38" font-family="Helvetica,sans-Serif" font-size="10.00">::render::_dissolution</text>
<text text-anchor="middle" x="1002.38" y="-45.12" font-family="Helvetica,sans-Serif" font-size="10.00">_detail::MaterialInstance &gt;</text>
</a>
</g>
</g>
<!-- Node27&#45;&gt;Node26 -->
<g id="edge31_Node000026_Node000027" class="edge">
<title>Node27&#45;&gt;Node26</title>
<g id="a_edge31_Node000026_Node000027"><a xlink:title=" ">
<path fill="none" stroke="#9a32cd" stroke-dasharray="5,2" d="M1078.78,-64.12C1114.68,-65.96 1157.19,-68.13 1191.7,-69.9"/>
<polygon fill="#9a32cd" stroke="#9a32cd" points="1079.05,-60.62 1068.89,-63.61 1078.69,-67.62 1079.05,-60.62"/>
</a>
</g>
<text text-anchor="middle" x="1129.25" y="-70" font-family="Helvetica,sans-Serif" font-size="10.00" fill="grey"> material_instances</text>
</g>
<!-- Node28 -->
<g id="Node000028" class="node">
<title>Node28</title>
<g id="a_Node000028"><a xlink:href="../../d3/dec/structengine_1_1render_1_1__dissolution__detail_1_1_material_instance.html" target="_top" xlink:title=" ">
<polygon fill="white" stroke="#666666" points="774.62,-54.5 642.38,-54.5 642.38,-24 774.62,-24 774.62,-54.5"/>
<text text-anchor="start" x="650.38" y="-41" font-family="Helvetica,sans-Serif" font-size="10.00">engine::render::_dissolution</text>
<text text-anchor="middle" x="708.5" y="-29.75" font-family="Helvetica,sans-Serif" font-size="10.00">_detail::MaterialInstance</text>
</a>
</g>
</g>
<!-- Node28&#45;&gt;Node27 -->
<g id="edge32_Node000027_Node000028" class="edge">
<title>Node28&#45;&gt;Node27</title>
<g id="a_edge32_Node000027_Node000028"><a xlink:title=" ">
<path fill="none" stroke="#9a32cd" stroke-dasharray="5,2" d="M786.07,-41.26C825.41,-42.69 874.08,-45.08 917.5,-49 923.94,-49.58 930.64,-50.3 937.33,-51.08"/>
<polygon fill="#9a32cd" stroke="#9a32cd" points="786.34,-37.76 776.22,-40.91 786.09,-44.76 786.34,-37.76"/>
</a>
</g>
<text text-anchor="middle" x="856" y="-50" font-family="Helvetica,sans-Serif" font-size="10.00" fill="grey"> elements</text>
</g>
<!-- Node29 -->
<g id="Node000029" class="node">
<title>Node29</title>
<g id="a_Node000029"><a xlink:href="../../d6/df2/structengine_1_1render_1_1_dissolution_material.html" target="_top" xlink:title=" ">
<polygon fill="white" stroke="#666666" points="560.25,-30.5 431.75,-30.5 431.75,0 560.25,0 560.25,-30.5"/>
<text text-anchor="start" x="439.75" y="-17" font-family="Helvetica,sans-Serif" font-size="10.00">engine::render::Dissolution</text>
<text text-anchor="middle" x="496" y="-5.75" font-family="Helvetica,sans-Serif" font-size="10.00">Material</text>
</a>
</g>
</g>
<!-- Node29&#45;&gt;Node28 -->
<g id="edge33_Node000028_Node000029" class="edge">
<title>Node29&#45;&gt;Node28</title>
<g id="a_edge33_Node000028_Node000029"><a xlink:title=" ">
<path fill="none" stroke="#9a32cd" stroke-dasharray="5,2" d="M572.13,-23.82C595.02,-26.43 619.98,-29.27 642.17,-31.8"/>
<polygon fill="#9a32cd" stroke="#9a32cd" points="572.56,-20.34 562.23,-22.69 571.77,-27.3 572.56,-20.34"/>
</a>
</g>
<text text-anchor="middle" x="600.38" y="-31" font-family="Helvetica,sans-Serif" font-size="10.00" fill="grey"> material</text>
</g>
<!-- Node30 -->
<g id="Node000030" class="node">
<title>Node30</title>
<g id="a_Node000030"><a xlink:title=" ">
<polygon fill="white" stroke="#666666" points="541.12,-79.5 450.88,-79.5 450.88,-49 541.12,-49 541.12,-79.5"/>
<text text-anchor="start" x="458.88" y="-66" font-family="Helvetica,sans-Serif" font-size="10.00">std::vector&lt; entt::</text>
<text text-anchor="middle" x="496" y="-54.75" font-family="Helvetica,sans-Serif" font-size="10.00">entity &gt;</text>
</a>
</g>
</g>
<!-- Node30&#45;&gt;Node28 -->
<g id="edge34_Node000028_Node000030" class="edge">
<title>Node30&#45;&gt;Node28</title>
<g id="a_edge34_Node000028_Node000030"><a xlink:title=" ">
<path fill="none" stroke="#9a32cd" stroke-dasharray="5,2" d="M552.75,-57.63C580.16,-54.37 613.37,-50.43 641.99,-47.03"/>
<polygon fill="#9a32cd" stroke="#9a32cd" points="552.4,-54.15 542.89,-58.8 553.23,-61.1 552.4,-54.15"/>
</a>
</g>
<text text-anchor="middle" x="600.38" y="-55" font-family="Helvetica,sans-Serif" font-size="10.00" fill="grey"> instances</text>
</g>
</g>
</svg>
