<?xml version="1.0" encoding="UTF-8" standalone="no"?>
<!DOCTYPE svg PUBLIC "-//W3C//DTD SVG 1.1//EN"
 "http://www.w3.org/Graphics/SVG/1.1/DTD/svg11.dtd">
<!-- Generated by graphviz version 9.0.0 (20230911.1827)
 -->
<!-- Title: engine/core/events.hpp Pages: 1 -->
<svg width="2698pt" height="193pt"
 viewBox="0.00 0.00 2698.25 193.44" xmlns="http://www.w3.org/2000/svg" xmlns:xlink="http://www.w3.org/1999/xlink">
<g id="graph0" class="graph" transform="scale(1 1) rotate(0) translate(4 189.44)">
<title>engine/core/events.hpp</title>
<!-- Node1 -->
<g id="Node000001" class="node">
<title>Node1</title>
<g id="a_Node000001"><a xlink:title=" ">
<polygon fill="#999999" stroke="#666666" points="411,-185.44 294.5,-185.44 294.5,-166.19 411,-166.19 411,-185.44"/>
<text text-anchor="middle" x="352.75" y="-171.94" font-family="Helvetica,sans-Serif" font-size="10.00">engine/core/events.hpp</text>
</a>
</g>
</g>
<!-- Node2 -->
<g id="Node000002" class="node">
<title>Node2</title>
<g id="a_Node000002"><a xlink:href="../../d9/dc3/key-events_8hpp.html" target="_top" xlink:title=" ">
<polygon fill="white" stroke="#666666" points="409.5,-130.19 296,-130.19 296,-110.94 409.5,-110.94 409.5,-130.19"/>
<text text-anchor="middle" x="352.75" y="-116.69" font-family="Helvetica,sans-Serif" font-size="10.00">events/key&#45;events.hpp</text>
</a>
</g>
</g>
<!-- Node1&#45;&gt;Node2 -->
<g id="edge1_Node000001_Node000002" class="edge">
<title>Node1&#45;&gt;Node2</title>
<g id="a_edge1_Node000001_Node000002"><a xlink:title=" ">
<path fill="none" stroke="#63b8ff" d="M352.75,-166.02C352.75,-159.51 352.75,-150.36 352.75,-142.06"/>
<polygon fill="#63b8ff" stroke="#63b8ff" points="356.25,-142.06 352.75,-132.06 349.25,-142.06 356.25,-142.06"/>
</a>
</g>
</g>
<!-- Node5 -->
<g id="Node000005" class="node">
<title>Node5</title>
<g id="a_Node000005"><a xlink:href="../../dc/d71/mouse-events_8hpp.html" target="_top" xlink:title=" ">
<polygon fill="white" stroke="#666666" points="277.62,-130.19 149.88,-130.19 149.88,-110.94 277.62,-110.94 277.62,-130.19"/>
<text text-anchor="middle" x="213.75" y="-116.69" font-family="Helvetica,sans-Serif" font-size="10.00">events/mouse&#45;events.hpp</text>
</a>
</g>
</g>
<!-- Node1&#45;&gt;Node5 -->
<g id="edge4_Node000001_Node000005" class="edge">
<title>Node1&#45;&gt;Node5</title>
<g id="a_edge4_Node000001_Node000005"><a xlink:title=" ">
<path fill="none" stroke="#63b8ff" d="M329.17,-165.78C306.91,-157.25 273.26,-144.36 248.03,-134.7"/>
<polygon fill="#63b8ff" stroke="#63b8ff" points="249.45,-131.49 238.86,-131.18 246.94,-138.03 249.45,-131.49"/>
</a>
</g>
</g>
<!-- Node7 -->
<g id="Node000007" class="node">
<title>Node7</title>
<g id="a_Node000007"><a xlink:href="../../db/d99/util-events_8hpp.html" target="_top" xlink:title=" ">
<polygon fill="white" stroke="#666666" points="538.38,-130.19 427.12,-130.19 427.12,-110.94 538.38,-110.94 538.38,-130.19"/>
<text text-anchor="middle" x="482.75" y="-116.69" font-family="Helvetica,sans-Serif" font-size="10.00">events/util&#45;events.hpp</text>
</a>
</g>
</g>
<!-- Node1&#45;&gt;Node7 -->
<g id="edge8_Node000001_Node000007" class="edge">
<title>Node1&#45;&gt;Node7</title>
<g id="a_edge8_Node000001_Node000007"><a xlink:title=" ">
<path fill="none" stroke="#63b8ff" d="M374.8,-165.78C395.44,-157.33 426.53,-144.59 450.05,-134.96"/>
<polygon fill="#63b8ff" stroke="#63b8ff" points="451.26,-138.24 459.19,-131.21 448.61,-131.77 451.26,-138.24"/>
</a>
</g>
</g>
<!-- Node8 -->
<g id="Node000008" class="node">
<title>Node8</title>
<g id="a_Node000008"><a xlink:href="../../db/d6e/library-pch_8hpp.html" target="_top" xlink:title=" ">
<polygon fill="white" stroke="#666666" points="1325.75,-74.94 1213.75,-74.94 1213.75,-55.69 1325.75,-55.69 1325.75,-74.94"/>
<text text-anchor="middle" x="1269.75" y="-61.44" font-family="Helvetica,sans-Serif" font-size="10.00">include/library&#45;pch.hpp</text>
</a>
</g>
</g>
<!-- Node1&#45;&gt;Node8 -->
<g id="edge51_Node000001_Node000008" class="edge">
<title>Node1&#45;&gt;Node8</title>
<g id="a_edge51_Node000001_Node000008"><a xlink:title=" ">
<path fill="none" stroke="#63b8ff" d="M411.16,-167.9C573.5,-148.69 1029.51,-94.74 1202.26,-74.3"/>
<polygon fill="#63b8ff" stroke="#63b8ff" points="1202.45,-77.8 1211.97,-73.15 1201.63,-70.85 1202.45,-77.8"/>
</a>
</g>
</g>
<!-- Node44 -->
<g id="Node000044" class="node">
<title>Node44</title>
<g id="a_Node000044"><a xlink:href="../../d5/d7d/window-events_8hpp.html" target="_top" xlink:title=" ">
<polygon fill="white" stroke="#666666" points="131.5,-130.19 0,-130.19 0,-110.94 131.5,-110.94 131.5,-130.19"/>
<text text-anchor="middle" x="65.75" y="-116.69" font-family="Helvetica,sans-Serif" font-size="10.00">events/window&#45;events.hpp</text>
</a>
</g>
</g>
<!-- Node1&#45;&gt;Node44 -->
<g id="edge48_Node000001_Node000044" class="edge">
<title>Node1&#45;&gt;Node44</title>
<g id="a_edge48_Node000001_Node000044"><a xlink:title=" ">
<path fill="none" stroke="#63b8ff" d="M303.74,-165.72C254.52,-156.59 178.6,-142.5 125.79,-132.7"/>
<polygon fill="#63b8ff" stroke="#63b8ff" points="126.52,-129.28 116.05,-130.9 125.24,-136.16 126.52,-129.28"/>
</a>
</g>
</g>
<!-- Node3 -->
<g id="Node000003" class="node">
<title>Node3</title>
<g id="a_Node000003"><a xlink:href="../../dc/d94/event_8hpp.html" target="_top" xlink:title=" ">
<polygon fill="white" stroke="#666666" points="242.75,-74.94 184.75,-74.94 184.75,-55.69 242.75,-55.69 242.75,-74.94"/>
<text text-anchor="middle" x="213.75" y="-61.44" font-family="Helvetica,sans-Serif" font-size="10.00">event.hpp</text>
</a>
</g>
</g>
<!-- Node2&#45;&gt;Node3 -->
<g id="edge2_Node000002_Node000003" class="edge">
<title>Node2&#45;&gt;Node3</title>
<g id="a_edge2_Node000002_Node000003"><a xlink:title=" ">
<path fill="none" stroke="#63b8ff" d="M329.17,-110.53C306.91,-102 273.26,-89.11 248.03,-79.45"/>
<polygon fill="#63b8ff" stroke="#63b8ff" points="249.45,-76.24 238.86,-75.93 246.94,-82.78 249.45,-76.24"/>
</a>
</g>
</g>
<!-- Node4 -->
<g id="Node000004" class="node">
<title>Node4</title>
<g id="a_Node000004"><a xlink:title=" ">
<polygon fill="#e0e0e0" stroke="#999999" points="180.75,-19.69 140.75,-19.69 140.75,-0.44 180.75,-0.44 180.75,-19.69"/>
<text text-anchor="middle" x="160.75" y="-6.19" font-family="Helvetica,sans-Serif" font-size="10.00">string</text>
</a>
</g>
</g>
<!-- Node3&#45;&gt;Node4 -->
<g id="edge3_Node000003_Node000004" class="edge">
<title>Node3&#45;&gt;Node4</title>
<g id="a_edge3_Node000003_Node000004"><a xlink:title=" ">
<path fill="none" stroke="#63b8ff" d="M205,-55.52C197.6,-48.09 186.79,-37.23 177.7,-28.1"/>
<polygon fill="#63b8ff" stroke="#63b8ff" points="180.29,-25.74 170.76,-21.12 175.33,-30.68 180.29,-25.74"/>
</a>
</g>
</g>
<!-- Node5&#45;&gt;Node3 -->
<g id="edge7_Node000005_Node000003" class="edge">
<title>Node5&#45;&gt;Node3</title>
<g id="a_edge7_Node000005_Node000003"><a xlink:title=" ">
<path fill="none" stroke="#63b8ff" d="M213.75,-110.77C213.75,-104.26 213.75,-95.11 213.75,-86.81"/>
<polygon fill="#63b8ff" stroke="#63b8ff" points="217.25,-86.81 213.75,-76.81 210.25,-86.81 217.25,-86.81"/>
</a>
</g>
</g>
<!-- Node6 -->
<g id="Node000006" class="node">
<title>Node6</title>
<g id="a_Node000006"><a xlink:href="../../d4/d78/math_8hpp.html" target="_top" xlink:title=" ">
<polygon fill="white" stroke="#666666" points="104.5,-19.69 27,-19.69 27,-0.44 104.5,-0.44 104.5,-19.69"/>
<text text-anchor="middle" x="65.75" y="-6.19" font-family="Helvetica,sans-Serif" font-size="10.00">core/math.hpp</text>
</a>
</g>
</g>
<!-- Node5&#45;&gt;Node6 -->
<g id="edge5_Node000005_Node000006" class="edge">
<title>Node5&#45;&gt;Node6</title>
<g id="a_edge5_Node000005_Node000006"><a xlink:title=" ">
<path fill="none" stroke="#63b8ff" d="M201.39,-110.5C176.19,-92.02 118.61,-49.82 87.18,-26.78"/>
<polygon fill="#63b8ff" stroke="#63b8ff" points="89.33,-24.01 79.2,-20.92 85.19,-29.66 89.33,-24.01"/>
</a>
</g>
</g>
<!-- Node6&#45;&gt;Node6 -->
<g id="edge6_Node000006_Node000006" class="edge">
<title>Node6&#45;&gt;Node6</title>
<g id="a_edge6_Node000006_Node000006"><a xlink:title=" ">
<path fill="none" stroke="#63b8ff" d="M95.53,-20.17C109.86,-21.42 122.5,-18.05 122.5,-10.06 122.5,-4.32 115.97,-0.97 106.97,0"/>
<polygon fill="#63b8ff" stroke="#63b8ff" points="107.06,3.5 97.04,0.04 107.03,-3.5 107.06,3.5"/>
</a>
</g>
</g>
<!-- Node7&#45;&gt;Node3 -->
<g id="edge47_Node000007_Node000003" class="edge">
<title>Node7&#45;&gt;Node3</title>
<g id="a_edge47_Node000007_Node000003"><a xlink:title=" ">
<path fill="none" stroke="#63b8ff" d="M436.81,-110.47C385.41,-100.3 302.95,-83.97 253.99,-74.28"/>
<polygon fill="#63b8ff" stroke="#63b8ff" points="254.87,-70.89 244.38,-72.38 253.51,-77.75 254.87,-70.89"/>
</a>
</g>
</g>
<!-- Node7&#45;&gt;Node8 -->
<g id="edge9_Node000007_Node000008" class="edge">
<title>Node7&#45;&gt;Node8</title>
<g id="a_edge9_Node000007_Node000008"><a xlink:title=" ">
<path fill="none" stroke="#63b8ff" d="M538.72,-115.78C679.78,-106.23 1049.48,-81.22 1202.22,-70.88"/>
<polygon fill="#63b8ff" stroke="#63b8ff" points="1202.03,-74.4 1211.77,-70.24 1201.55,-67.42 1202.03,-74.4"/>
</a>
</g>
</g>
<!-- Node8&#45;&gt;Node4 -->
<g id="edge38_Node000008_Node000004" class="edge">
<title>Node8&#45;&gt;Node4</title>
<g id="a_edge38_Node000008_Node000004"><a xlink:title=" ">
<path fill="none" stroke="#63b8ff" d="M1213.53,-63.83C1024.38,-61.91 411.12,-53.32 192.25,-19.61"/>
<polygon fill="#63b8ff" stroke="#63b8ff" points="193.12,-16.2 182.69,-18.07 192.01,-23.12 193.12,-16.2"/>
</a>
</g>
</g>
<!-- Node8&#45;&gt;Node6 -->
<g id="edge46_Node000008_Node000006" class="edge">
<title>Node8&#45;&gt;Node6</title>
<g id="a_edge46_Node000008_Node000006"><a xlink:title=" ">
<path fill="none" stroke="#63b8ff" d="M1213.39,-63.91C1047.4,-62.34 545.97,-54.8 131.75,-19.69 126.69,-19.26 121.42,-18.72 116.17,-18.13"/>
<polygon fill="#63b8ff" stroke="#63b8ff" points="116.62,-14.66 106.28,-16.94 115.79,-21.61 116.62,-14.66"/>
</a>
</g>
</g>
<!-- Node9 -->
<g id="Node000009" class="node">
<title>Node9</title>
<g id="a_Node000009"><a xlink:title=" ">
<polygon fill="#e0e0e0" stroke="#999999" points="2368.75,-19.69 2298.75,-19.69 2298.75,-0.44 2368.75,-0.44 2368.75,-19.69"/>
<text text-anchor="middle" x="2333.75" y="-6.19" font-family="Helvetica,sans-Serif" font-size="10.00">entt/entt.hpp</text>
</a>
</g>
</g>
<!-- Node8&#45;&gt;Node9 -->
<g id="edge10_Node000008_Node000009" class="edge">
<title>Node8&#45;&gt;Node9</title>
<g id="a_edge10_Node000008_Node000009"><a xlink:title=" ">
<path fill="none" stroke="#63b8ff" d="M1326.1,-64.8C1479.16,-65.5 1915.46,-63.3 2287.03,-19.82"/>
<polygon fill="#63b8ff" stroke="#63b8ff" points="2287.26,-23.32 2296.78,-18.67 2286.44,-16.37 2287.26,-23.32"/>
</a>
</g>
</g>
<!-- Node10 -->
<g id="Node000010" class="node">
<title>Node10</title>
<g id="a_Node000010"><a xlink:title=" ">
<polygon fill="#e0e0e0" stroke="#999999" points="2442.62,-19.69 2386.88,-19.69 2386.88,-0.44 2442.62,-0.44 2442.62,-19.69"/>
<text text-anchor="middle" x="2414.75" y="-6.19" font-family="Helvetica,sans-Serif" font-size="10.00">algorithm</text>
</a>
</g>
</g>
<!-- Node8&#45;&gt;Node10 -->
<g id="edge11_Node000008_Node000010" class="edge">
<title>Node8&#45;&gt;Node10</title>
<g id="a_edge11_Node000008_Node000010"><a xlink:title=" ">
<path fill="none" stroke="#63b8ff" d="M1326,-63.45C1518.32,-60.29 2149.79,-48.08 2375.49,-19.66"/>
<polygon fill="#63b8ff" stroke="#63b8ff" points="2375.61,-23.18 2385.07,-18.41 2374.7,-16.24 2375.61,-23.18"/>
</a>
</g>
</g>
<!-- Node11 -->
<g id="Node000011" class="node">
<title>Node11</title>
<g id="a_Node000011"><a xlink:title=" ">
<polygon fill="#e0e0e0" stroke="#999999" points="2497.25,-19.69 2460.25,-19.69 2460.25,-0.44 2497.25,-0.44 2497.25,-19.69"/>
<text text-anchor="middle" x="2478.75" y="-6.19" font-family="Helvetica,sans-Serif" font-size="10.00">array</text>
</a>
</g>
</g>
<!-- Node8&#45;&gt;Node11 -->
<g id="edge12_Node000008_Node000011" class="edge">
<title>Node8&#45;&gt;Node11</title>
<g id="a_edge12_Node000008_Node000011"><a xlink:title=" ">
<path fill="none" stroke="#63b8ff" d="M1325.93,-64.21C1526.78,-63.52 2209.6,-58.46 2448.97,-19.63"/>
<polygon fill="#63b8ff" stroke="#63b8ff" points="2449.26,-23.14 2458.54,-18.01 2448.09,-16.23 2449.26,-23.14"/>
</a>
</g>
</g>
<!-- Node12 -->
<g id="Node000012" class="node">
<title>Node12</title>
<g id="a_Node000012"><a xlink:title=" ">
<polygon fill="#e0e0e0" stroke="#999999" points="2566,-19.69 2515.5,-19.69 2515.5,-0.44 2566,-0.44 2566,-19.69"/>
<text text-anchor="middle" x="2540.75" y="-6.19" font-family="Helvetica,sans-Serif" font-size="10.00">assert.h</text>
</a>
</g>
</g>
<!-- Node8&#45;&gt;Node12 -->
<g id="edge13_Node000008_Node000012" class="edge">
<title>Node8&#45;&gt;Node12</title>
<g id="a_edge13_Node000008_Node000012"><a xlink:title=" ">
<path fill="none" stroke="#63b8ff" d="M1325.92,-63.87C1532.66,-62 2251.85,-53.28 2503.96,-19.72"/>
<polygon fill="#63b8ff" stroke="#63b8ff" points="2504.32,-23.2 2513.75,-18.36 2503.36,-16.27 2504.32,-23.2"/>
</a>
</g>
</g>
<!-- Node13 -->
<g id="Node000013" class="node">
<title>Node13</title>
<g id="a_Node000013"><a xlink:title=" ">
<polygon fill="#e0e0e0" stroke="#999999" points="2629.38,-19.69 2584.12,-19.69 2584.12,-0.44 2629.38,-0.44 2629.38,-19.69"/>
<text text-anchor="middle" x="2606.75" y="-6.19" font-family="Helvetica,sans-Serif" font-size="10.00">chrono</text>
</a>
</g>
</g>
<!-- Node8&#45;&gt;Node13 -->
<g id="edge14_Node000008_Node000013" class="edge">
<title>Node8&#45;&gt;Node13</title>
<g id="a_edge14_Node000008_Node000013"><a xlink:title=" ">
<path fill="none" stroke="#63b8ff" d="M1326.02,-64.1C1540.32,-63.04 2306.3,-56.78 2572.65,-19.54"/>
<polygon fill="#63b8ff" stroke="#63b8ff" points="2572.92,-23.04 2582.31,-18.14 2571.91,-16.11 2572.92,-23.04"/>
</a>
</g>
</g>
<!-- Node14 -->
<g id="Node000014" class="node">
<title>Node14</title>
<g id="a_Node000014"><a xlink:title=" ">
<polygon fill="#e0e0e0" stroke="#999999" points="2690.25,-19.69 2647.25,-19.69 2647.25,-0.44 2690.25,-0.44 2690.25,-19.69"/>
<text text-anchor="middle" x="2668.75" y="-6.19" font-family="Helvetica,sans-Serif" font-size="10.00">cmath</text>
</a>
</g>
</g>
<!-- Node8&#45;&gt;Node14 -->
<g id="edge15_Node000008_Node000014" class="edge">
<title>Node8&#45;&gt;Node14</title>
<g id="a_edge15_Node000008_Node000014"><a xlink:title=" ">
<path fill="none" stroke="#63b8ff" d="M1326.1,-64.33C1547.28,-64.12 2357.06,-60.61 2635.66,-19.73"/>
<polygon fill="#63b8ff" stroke="#63b8ff" points="2636.08,-23.21 2645.44,-18.24 2635.03,-16.29 2636.08,-23.21"/>
</a>
</g>
</g>
<!-- Node15 -->
<g id="Node000015" class="node">
<title>Node15</title>
<g id="a_Node000015"><a xlink:title=" ">
<polygon fill="#e0e0e0" stroke="#999999" points="254.62,-19.69 198.88,-19.69 198.88,-0.44 254.62,-0.44 254.62,-19.69"/>
<text text-anchor="middle" x="226.75" y="-6.19" font-family="Helvetica,sans-Serif" font-size="10.00">concepts</text>
</a>
</g>
</g>
<!-- Node8&#45;&gt;Node15 -->
<g id="edge16_Node000008_Node000015" class="edge">
<title>Node8&#45;&gt;Node15</title>
<g id="a_edge16_Node000008_Node000015"><a xlink:title=" ">
<path fill="none" stroke="#63b8ff" d="M1213.33,-63.18C1032.98,-59.36 470.79,-45.74 266.15,-19.69"/>
<polygon fill="#63b8ff" stroke="#63b8ff" points="266.81,-16.25 256.43,-18.4 265.88,-23.18 266.81,-16.25"/>
</a>
</g>
</g>
<!-- Node16 -->
<g id="Node000016" class="node">
<title>Node16</title>
<g id="a_Node000016"><a xlink:title=" ">
<polygon fill="#e0e0e0" stroke="#999999" points="366.75,-19.69 272.75,-19.69 272.75,-0.44 366.75,-0.44 366.75,-19.69"/>
<text text-anchor="middle" x="319.75" y="-6.19" font-family="Helvetica,sans-Serif" font-size="10.00">condition_variable</text>
</a>
</g>
</g>
<!-- Node8&#45;&gt;Node16 -->
<g id="edge17_Node000008_Node000016" class="edge">
<title>Node8&#45;&gt;Node16</title>
<g id="a_edge17_Node000008_Node000016"><a xlink:title=" ">
<path fill="none" stroke="#63b8ff" d="M1213.38,-63.51C1073.7,-61.1 700.23,-52 378.49,-19.85"/>
<polygon fill="#63b8ff" stroke="#63b8ff" points="378.87,-16.38 368.57,-18.85 378.17,-23.34 378.87,-16.38"/>
</a>
</g>
</g>
<!-- Node17 -->
<g id="Node000017" class="node">
<title>Node17</title>
<g id="a_Node000017"><a xlink:title=" ">
<polygon fill="#e0e0e0" stroke="#999999" points="430.38,-19.69 385.12,-19.69 385.12,-0.44 430.38,-0.44 430.38,-19.69"/>
<text text-anchor="middle" x="407.75" y="-6.19" font-family="Helvetica,sans-Serif" font-size="10.00">cstdint</text>
</a>
</g>
</g>
<!-- Node8&#45;&gt;Node17 -->
<g id="edge18_Node000008_Node000017" class="edge">
<title>Node8&#45;&gt;Node17</title>
<g id="a_edge18_Node000008_Node000017"><a xlink:title=" ">
<path fill="none" stroke="#63b8ff" d="M1213.48,-62.83C1055.66,-58.41 610,-44.26 441.84,-19.58"/>
<polygon fill="#63b8ff" stroke="#63b8ff" points="442.61,-16.16 432.19,-18.1 441.54,-23.08 442.61,-16.16"/>
</a>
</g>
</g>
<!-- Node18 -->
<g id="Node000018" class="node">
<title>Node18</title>
<g id="a_Node000018"><a xlink:title=" ">
<polygon fill="#e0e0e0" stroke="#999999" points="493,-19.69 448.5,-19.69 448.5,-0.44 493,-0.44 493,-19.69"/>
<text text-anchor="middle" x="470.75" y="-6.19" font-family="Helvetica,sans-Serif" font-size="10.00">cstdlib</text>
</a>
</g>
</g>
<!-- Node8&#45;&gt;Node18 -->
<g id="edge19_Node000008_Node000018" class="edge">
<title>Node8&#45;&gt;Node18</title>
<g id="a_edge19_Node000008_Node000018"><a xlink:title=" ">
<path fill="none" stroke="#63b8ff" d="M1213.41,-65.13C1087.53,-66.07 773.98,-63.56 504.49,-19.78"/>
<polygon fill="#63b8ff" stroke="#63b8ff" points="505.24,-16.36 494.81,-18.19 504.1,-23.27 505.24,-16.36"/>
</a>
</g>
</g>
<!-- Node19 -->
<g id="Node000019" class="node">
<title>Node19</title>
<g id="a_Node000019"><a xlink:title=" ">
<polygon fill="#e0e0e0" stroke="#999999" points="570.5,-19.69 511,-19.69 511,-0.44 570.5,-0.44 570.5,-19.69"/>
<text text-anchor="middle" x="540.75" y="-6.19" font-family="Helvetica,sans-Serif" font-size="10.00">filesystem</text>
</a>
</g>
</g>
<!-- Node8&#45;&gt;Node19 -->
<g id="edge20_Node000008_Node000019" class="edge">
<title>Node8&#45;&gt;Node19</title>
<g id="a_edge20_Node000008_Node000019"><a xlink:title=" ">
<path fill="none" stroke="#63b8ff" d="M1213.55,-63.59C1097.34,-61.46 822.08,-53.16 581.95,-19.77"/>
<polygon fill="#63b8ff" stroke="#63b8ff" points="582.79,-16.35 572.4,-18.42 581.81,-23.28 582.79,-16.35"/>
</a>
</g>
</g>
<!-- Node20 -->
<g id="Node000020" class="node">
<title>Node20</title>
<g id="a_Node000020"><a xlink:title=" ">
<polygon fill="#e0e0e0" stroke="#999999" points="637.25,-19.69 588.25,-19.69 588.25,-0.44 637.25,-0.44 637.25,-19.69"/>
<text text-anchor="middle" x="612.75" y="-6.19" font-family="Helvetica,sans-Serif" font-size="10.00">fstream</text>
</a>
</g>
</g>
<!-- Node8&#45;&gt;Node20 -->
<g id="edge21_Node000008_Node000020" class="edge">
<title>Node8&#45;&gt;Node20</title>
<g id="a_edge21_Node000008_Node000020"><a xlink:title=" ">
<path fill="none" stroke="#63b8ff" d="M1213.52,-63.61C1105.7,-61.54 862.4,-53.4 648.65,-19.67"/>
<polygon fill="#63b8ff" stroke="#63b8ff" points="649.45,-16.25 639.02,-18.13 648.34,-23.17 649.45,-16.25"/>
</a>
</g>
</g>
<!-- Node21 -->
<g id="Node000021" class="node">
<title>Node21</title>
<g id="a_Node000021"><a xlink:title=" ">
<polygon fill="#e0e0e0" stroke="#999999" points="713.75,-19.69 655.75,-19.69 655.75,-0.44 713.75,-0.44 713.75,-19.69"/>
<text text-anchor="middle" x="684.75" y="-6.19" font-family="Helvetica,sans-Serif" font-size="10.00">functional</text>
</a>
</g>
</g>
<!-- Node8&#45;&gt;Node21 -->
<g id="edge22_Node000008_Node000021" class="edge">
<title>Node8&#45;&gt;Node21</title>
<g id="a_edge22_Node000008_Node000021"><a xlink:title=" ">
<path fill="none" stroke="#63b8ff" d="M1213.54,-62.36C1116.06,-58.39 909.24,-47.46 725.37,-19.88"/>
<polygon fill="#63b8ff" stroke="#63b8ff" points="726.04,-16.44 715.63,-18.39 724.99,-23.36 726.04,-16.44"/>
</a>
</g>
</g>
<!-- Node22 -->
<g id="Node000022" class="node">
<title>Node22</title>
<g id="a_Node000022"><a xlink:title=" ">
<polygon fill="#e0e0e0" stroke="#999999" points="781.62,-19.69 731.88,-19.69 731.88,-0.44 781.62,-0.44 781.62,-19.69"/>
<text text-anchor="middle" x="756.75" y="-6.19" font-family="Helvetica,sans-Serif" font-size="10.00">iomanip</text>
</a>
</g>
</g>
<!-- Node8&#45;&gt;Node22 -->
<g id="edge23_Node000008_Node000022" class="edge">
<title>Node8&#45;&gt;Node22</title>
<g id="a_edge23_Node000008_Node000022"><a xlink:title=" ">
<path fill="none" stroke="#63b8ff" d="M1213.33,-61.9C1125.5,-57.53 950.64,-46.33 793.21,-19.84"/>
<polygon fill="#63b8ff" stroke="#63b8ff" points="793.85,-16.4 783.4,-18.16 792.67,-23.3 793.85,-16.4"/>
</a>
</g>
</g>
<!-- Node23 -->
<g id="Node000023" class="node">
<title>Node23</title>
<g id="a_Node000023"><a xlink:title=" ">
<polygon fill="#e0e0e0" stroke="#999999" points="847.88,-19.69 799.62,-19.69 799.62,-0.44 847.88,-0.44 847.88,-19.69"/>
<text text-anchor="middle" x="823.75" y="-6.19" font-family="Helvetica,sans-Serif" font-size="10.00">istream</text>
</a>
</g>
</g>
<!-- Node8&#45;&gt;Node23 -->
<g id="edge24_Node000008_Node000023" class="edge">
<title>Node8&#45;&gt;Node23</title>
<g id="a_edge24_Node000008_Node000023"><a xlink:title=" ">
<path fill="none" stroke="#63b8ff" d="M1213.26,-60.87C1135.54,-55.54 991.18,-43.56 859.26,-19.9"/>
<polygon fill="#63b8ff" stroke="#63b8ff" points="860.12,-16.5 849.66,-18.15 858.87,-23.38 860.12,-16.5"/>
</a>
</g>
</g>
<!-- Node24 -->
<g id="Node000024" class="node">
<title>Node24</title>
<g id="a_Node000024"><a xlink:title=" ">
<polygon fill="#e0e0e0" stroke="#999999" points="905.38,-19.69 866.12,-19.69 866.12,-0.44 905.38,-0.44 905.38,-19.69"/>
<text text-anchor="middle" x="885.75" y="-6.19" font-family="Helvetica,sans-Serif" font-size="10.00">limits</text>
</a>
</g>
</g>
<!-- Node8&#45;&gt;Node24 -->
<g id="edge25_Node000008_Node000024" class="edge">
<title>Node8&#45;&gt;Node24</title>
<g id="a_edge25_Node000008_Node000024"><a xlink:title=" ">
<path fill="none" stroke="#63b8ff" d="M1213.33,-60.1C1145.17,-54.37 1026.93,-42.39 916.6,-19.74"/>
<polygon fill="#63b8ff" stroke="#63b8ff" points="917.59,-16.37 907.09,-17.75 916.16,-23.22 917.59,-16.37"/>
</a>
</g>
</g>
<!-- Node25 -->
<g id="Node000025" class="node">
<title>Node25</title>
<g id="a_Node000025"><a xlink:title=" ">
<polygon fill="#e0e0e0" stroke="#999999" points="958.12,-19.69 923.38,-19.69 923.38,-0.44 958.12,-0.44 958.12,-19.69"/>
<text text-anchor="middle" x="940.75" y="-6.19" font-family="Helvetica,sans-Serif" font-size="10.00">map</text>
</a>
</g>
</g>
<!-- Node8&#45;&gt;Node25 -->
<g id="edge26_Node000008_Node000025" class="edge">
<title>Node8&#45;&gt;Node25</title>
<g id="a_edge26_Node000008_Node000025"><a xlink:title=" ">
<path fill="none" stroke="#63b8ff" d="M1213.3,-58.75C1154.63,-52.34 1060.04,-40.29 969.39,-19.69"/>
<polygon fill="#63b8ff" stroke="#63b8ff" points="970.36,-16.33 959.83,-17.48 968.78,-23.15 970.36,-16.33"/>
</a>
</g>
</g>
<!-- Node26 -->
<g id="Node000026" class="node">
<title>Node26</title>
<g id="a_Node000026"><a xlink:title=" ">
<polygon fill="#e0e0e0" stroke="#999999" points="1027,-19.69 976.5,-19.69 976.5,-0.44 1027,-0.44 1027,-19.69"/>
<text text-anchor="middle" x="1001.75" y="-6.19" font-family="Helvetica,sans-Serif" font-size="10.00">memory</text>
</a>
</g>
</g>
<!-- Node8&#45;&gt;Node26 -->
<g id="edge27_Node000008_Node000026" class="edge">
<title>Node8&#45;&gt;Node26</title>
<g id="a_edge27_Node000008_Node000026"><a xlink:title=" ">
<path fill="none" stroke="#63b8ff" d="M1217.06,-55.2C1172.02,-47.19 1105.23,-34.84 1038.47,-20.19"/>
<polygon fill="#63b8ff" stroke="#63b8ff" points="1039.33,-16.8 1028.81,-18.05 1037.82,-23.63 1039.33,-16.8"/>
</a>
</g>
</g>
<!-- Node27 -->
<g id="Node000027" class="node">
<title>Node27</title>
<g id="a_Node000027"><a xlink:title=" ">
<polygon fill="#e0e0e0" stroke="#999999" points="1086.88,-19.69 1044.62,-19.69 1044.62,-0.44 1086.88,-0.44 1086.88,-19.69"/>
<text text-anchor="middle" x="1065.75" y="-6.19" font-family="Helvetica,sans-Serif" font-size="10.00">mutex</text>
</a>
</g>
</g>
<!-- Node8&#45;&gt;Node27 -->
<g id="edge28_Node000008_Node000027" class="edge">
<title>Node8&#45;&gt;Node27</title>
<g id="a_edge28_Node000008_Node000027"><a xlink:title=" ">
<path fill="none" stroke="#63b8ff" d="M1233.01,-55.22C1200.08,-46.99 1150.18,-34.36 1098.43,-20.36"/>
<polygon fill="#63b8ff" stroke="#63b8ff" points="1099.39,-17 1088.82,-17.75 1097.55,-23.75 1099.39,-17"/>
</a>
</g>
</g>
<!-- Node28 -->
<g id="Node000028" class="node">
<title>Node28</title>
<g id="a_Node000028"><a xlink:title=" ">
<polygon fill="#e0e0e0" stroke="#999999" points="1158.5,-19.69 1105,-19.69 1105,-0.44 1158.5,-0.44 1158.5,-19.69"/>
<text text-anchor="middle" x="1131.75" y="-6.19" font-family="Helvetica,sans-Serif" font-size="10.00">numbers</text>
</a>
</g>
</g>
<!-- Node8&#45;&gt;Node28 -->
<g id="edge29_Node000008_Node000028" class="edge">
<title>Node8&#45;&gt;Node28</title>
<g id="a_edge29_Node000008_Node000028"><a xlink:title=" ">
<path fill="none" stroke="#63b8ff" d="M1246.34,-55.28C1224.23,-46.75 1190.83,-33.86 1165.78,-24.2"/>
<polygon fill="#63b8ff" stroke="#63b8ff" points="1167.28,-21.02 1156.69,-20.69 1164.76,-27.55 1167.28,-21.02"/>
</a>
</g>
</g>
<!-- Node29 -->
<g id="Node000029" class="node">
<title>Node29</title>
<g id="a_Node000029"><a xlink:title=" ">
<polygon fill="#e0e0e0" stroke="#999999" points="1227,-19.69 1176.5,-19.69 1176.5,-0.44 1227,-0.44 1227,-19.69"/>
<text text-anchor="middle" x="1201.75" y="-6.19" font-family="Helvetica,sans-Serif" font-size="10.00">numeric</text>
</a>
</g>
</g>
<!-- Node8&#45;&gt;Node29 -->
<g id="edge30_Node000008_Node000029" class="edge">
<title>Node8&#45;&gt;Node29</title>
<g id="a_edge30_Node000008_Node000029"><a xlink:title=" ">
<path fill="none" stroke="#63b8ff" d="M1258.21,-55.28C1248.29,-47.51 1233.74,-36.11 1221.89,-26.84"/>
<polygon fill="#63b8ff" stroke="#63b8ff" points="1224.34,-24.31 1214.31,-20.9 1220.02,-29.82 1224.34,-24.31"/>
</a>
</g>
</g>
<!-- Node30 -->
<g id="Node000030" class="node">
<title>Node30</title>
<g id="a_Node000030"><a xlink:title=" ">
<polygon fill="#e0e0e0" stroke="#999999" points="1294.62,-19.69 1244.88,-19.69 1244.88,-0.44 1294.62,-0.44 1294.62,-19.69"/>
<text text-anchor="middle" x="1269.75" y="-6.19" font-family="Helvetica,sans-Serif" font-size="10.00">optional</text>
</a>
</g>
</g>
<!-- Node8&#45;&gt;Node30 -->
<g id="edge31_Node000008_Node000030" class="edge">
<title>Node8&#45;&gt;Node30</title>
<g id="a_edge31_Node000008_Node000030"><a xlink:title=" ">
<path fill="none" stroke="#63b8ff" d="M1269.75,-55.52C1269.75,-49.01 1269.75,-39.86 1269.75,-31.56"/>
<polygon fill="#63b8ff" stroke="#63b8ff" points="1273.25,-31.56 1269.75,-21.56 1266.25,-31.56 1273.25,-31.56"/>
</a>
</g>
</g>
<!-- Node31 -->
<g id="Node000031" class="node">
<title>Node31</title>
<g id="a_Node000031"><a xlink:title=" ">
<polygon fill="#e0e0e0" stroke="#999999" points="1364.38,-19.69 1313.12,-19.69 1313.12,-0.44 1364.38,-0.44 1364.38,-19.69"/>
<text text-anchor="middle" x="1338.75" y="-6.19" font-family="Helvetica,sans-Serif" font-size="10.00">ostream</text>
</a>
</g>
</g>
<!-- Node8&#45;&gt;Node31 -->
<g id="edge32_Node000008_Node000031" class="edge">
<title>Node8&#45;&gt;Node31</title>
<g id="a_edge32_Node000008_Node000031"><a xlink:title=" ">
<path fill="none" stroke="#63b8ff" d="M1281.45,-55.28C1291.53,-47.51 1306.29,-36.11 1318.31,-26.84"/>
<polygon fill="#63b8ff" stroke="#63b8ff" points="1320.24,-29.77 1326.02,-20.89 1315.96,-24.23 1320.24,-29.77"/>
</a>
</g>
</g>
<!-- Node32 -->
<g id="Node000032" class="node">
<title>Node32</title>
<g id="a_Node000032"><a xlink:title=" ">
<polygon fill="#e0e0e0" stroke="#999999" points="1459.12,-19.69 1382.38,-19.69 1382.38,-0.44 1459.12,-0.44 1459.12,-19.69"/>
<text text-anchor="middle" x="1420.75" y="-6.19" font-family="Helvetica,sans-Serif" font-size="10.00">shared_mutex</text>
</a>
</g>
</g>
<!-- Node8&#45;&gt;Node32 -->
<g id="edge33_Node000008_Node000032" class="edge">
<title>Node8&#45;&gt;Node32</title>
<g id="a_edge33_Node000008_Node000032"><a xlink:title=" ">
<path fill="none" stroke="#63b8ff" d="M1295.37,-55.28C1319.77,-46.67 1356.76,-33.63 1384.25,-23.94"/>
<polygon fill="#63b8ff" stroke="#63b8ff" points="1385.32,-27.27 1393.58,-20.64 1382.99,-20.67 1385.32,-27.27"/>
</a>
</g>
</g>
<!-- Node33 -->
<g id="Node000033" class="node">
<title>Node33</title>
<g id="a_Node000033"><a xlink:title=" ">
<polygon fill="#e0e0e0" stroke="#999999" points="1514.25,-19.69 1477.25,-19.69 1477.25,-0.44 1514.25,-0.44 1514.25,-19.69"/>
<text text-anchor="middle" x="1495.75" y="-6.19" font-family="Helvetica,sans-Serif" font-size="10.00">span</text>
</a>
</g>
</g>
<!-- Node8&#45;&gt;Node33 -->
<g id="edge34_Node000008_Node000033" class="edge">
<title>Node8&#45;&gt;Node33</title>
<g id="a_edge34_Node000008_Node000033"><a xlink:title=" ">
<path fill="none" stroke="#63b8ff" d="M1314.81,-55.19C1352.66,-47.3 1408.39,-35.15 1465.73,-20.06"/>
<polygon fill="#63b8ff" stroke="#63b8ff" points="1466.6,-23.45 1475.37,-17.5 1464.8,-16.69 1466.6,-23.45"/>
</a>
</g>
</g>
<!-- Node34 -->
<g id="Node000034" class="node">
<title>Node34</title>
<g id="a_Node000034"><a xlink:title=" ">
<polygon fill="#e0e0e0" stroke="#999999" points="1583.38,-19.69 1532.12,-19.69 1532.12,-0.44 1583.38,-0.44 1583.38,-19.69"/>
<text text-anchor="middle" x="1557.75" y="-6.19" font-family="Helvetica,sans-Serif" font-size="10.00">sstream</text>
</a>
</g>
</g>
<!-- Node8&#45;&gt;Node34 -->
<g id="edge35_Node000008_Node000034" class="edge">
<title>Node8&#45;&gt;Node34</title>
<g id="a_edge35_Node000008_Node000034"><a xlink:title=" ">
<path fill="none" stroke="#63b8ff" d="M1326.23,-55.63C1375.33,-47.8 1448.63,-35.44 1520.72,-20.22"/>
<polygon fill="#63b8ff" stroke="#63b8ff" points="1521.28,-23.68 1530.33,-18.17 1519.82,-16.84 1521.28,-23.68"/>
</a>
</g>
</g>
<!-- Node35 -->
<g id="Node000035" class="node">
<title>Node35</title>
<g id="a_Node000035"><a xlink:title=" ">
<polygon fill="#e0e0e0" stroke="#999999" points="1659.75,-19.69 1601.75,-19.69 1601.75,-0.44 1659.75,-0.44 1659.75,-19.69"/>
<text text-anchor="middle" x="1630.75" y="-6.19" font-family="Helvetica,sans-Serif" font-size="10.00">stdexcept</text>
</a>
</g>
</g>
<!-- Node8&#45;&gt;Node35 -->
<g id="edge36_Node000008_Node000035" class="edge">
<title>Node8&#45;&gt;Node35</title>
<g id="a_edge36_Node000008_Node000035"><a xlink:title=" ">
<path fill="none" stroke="#63b8ff" d="M1326,-58.03C1388.29,-50.74 1491.92,-37.63 1590.3,-20"/>
<polygon fill="#63b8ff" stroke="#63b8ff" points="1590.64,-23.5 1599.85,-18.27 1589.39,-16.61 1590.64,-23.5"/>
</a>
</g>
</g>
<!-- Node36 -->
<g id="Node000036" class="node">
<title>Node36</title>
<g id="a_Node000036"><a xlink:title=" ">
<polygon fill="#e0e0e0" stroke="#999999" points="1725.5,-19.69 1678,-19.69 1678,-0.44 1725.5,-0.44 1725.5,-19.69"/>
<text text-anchor="middle" x="1701.75" y="-6.19" font-family="Helvetica,sans-Serif" font-size="10.00">stdint.h</text>
</a>
</g>
</g>
<!-- Node8&#45;&gt;Node36 -->
<g id="edge37_Node000008_Node000036" class="edge">
<title>Node8&#45;&gt;Node36</title>
<g id="a_edge37_Node000008_Node000036"><a xlink:title=" ">
<path fill="none" stroke="#63b8ff" d="M1325.96,-60.6C1401.36,-55.04 1539.51,-42.88 1666.61,-19.82"/>
<polygon fill="#63b8ff" stroke="#63b8ff" points="1667,-23.31 1676.2,-18.06 1665.73,-16.43 1667,-23.31"/>
</a>
</g>
</g>
<!-- Node37 -->
<g id="Node000037" class="node">
<title>Node37</title>
<g id="a_Node000037"><a xlink:title=" ">
<polygon fill="#e0e0e0" stroke="#999999" points="1786.25,-19.69 1743.25,-19.69 1743.25,-0.44 1786.25,-0.44 1786.25,-19.69"/>
<text text-anchor="middle" x="1764.75" y="-6.19" font-family="Helvetica,sans-Serif" font-size="10.00">thread</text>
</a>
</g>
</g>
<!-- Node8&#45;&gt;Node37 -->
<g id="edge39_Node000008_Node000037" class="edge">
<title>Node8&#45;&gt;Node37</title>
<g id="a_edge39_Node000008_Node000037"><a xlink:title=" ">
<path fill="none" stroke="#63b8ff" d="M1326.05,-62.26C1411.83,-58.39 1580.46,-47.93 1731.59,-19.98"/>
<polygon fill="#63b8ff" stroke="#63b8ff" points="1732.24,-23.42 1741.42,-18.13 1730.94,-16.54 1732.24,-23.42"/>
</a>
</g>
</g>
<!-- Node38 -->
<g id="Node000038" class="node">
<title>Node38</title>
<g id="a_Node000038"><a xlink:title=" ">
<polygon fill="#e0e0e0" stroke="#999999" points="1865.25,-19.69 1804.25,-19.69 1804.25,-0.44 1865.25,-0.44 1865.25,-19.69"/>
<text text-anchor="middle" x="1834.75" y="-6.19" font-family="Helvetica,sans-Serif" font-size="10.00">type_traits</text>
</a>
</g>
</g>
<!-- Node8&#45;&gt;Node38 -->
<g id="edge40_Node000008_Node000038" class="edge">
<title>Node8&#45;&gt;Node38</title>
<g id="a_edge40_Node000008_Node000038"><a xlink:title=" ">
<path fill="none" stroke="#63b8ff" d="M1326.09,-62C1420.64,-57.57 1617.38,-46.06 1792.9,-19.93"/>
<polygon fill="#63b8ff" stroke="#63b8ff" points="1793.3,-23.41 1802.67,-18.46 1792.26,-16.49 1793.3,-23.41"/>
</a>
</g>
</g>
<!-- Node39 -->
<g id="Node000039" class="node">
<title>Node39</title>
<g id="a_Node000039"><a xlink:title=" ">
<polygon fill="#e0e0e0" stroke="#999999" points="1960.5,-19.69 1883,-19.69 1883,-0.44 1960.5,-0.44 1960.5,-19.69"/>
<text text-anchor="middle" x="1921.75" y="-6.19" font-family="Helvetica,sans-Serif" font-size="10.00">unordered_set</text>
</a>
</g>
</g>
<!-- Node8&#45;&gt;Node39 -->
<g id="edge41_Node000008_Node000039" class="edge">
<title>Node8&#45;&gt;Node39</title>
<g id="a_edge41_Node000008_Node000039"><a xlink:title=" ">
<path fill="none" stroke="#63b8ff" d="M1325.84,-62.2C1430.97,-57.8 1665,-45.92 1871.21,-20.03"/>
<polygon fill="#63b8ff" stroke="#63b8ff" points="1871.58,-23.51 1881.06,-18.77 1870.7,-16.56 1871.58,-23.51"/>
</a>
</g>
</g>
<!-- Node40 -->
<g id="Node000040" class="node">
<title>Node40</title>
<g id="a_Node000040"><a xlink:title=" ">
<polygon fill="#e0e0e0" stroke="#999999" points="2023.38,-19.69 1978.12,-19.69 1978.12,-0.44 2023.38,-0.44 2023.38,-19.69"/>
<text text-anchor="middle" x="2000.75" y="-6.19" font-family="Helvetica,sans-Serif" font-size="10.00">variant</text>
</a>
</g>
</g>
<!-- Node8&#45;&gt;Node40 -->
<g id="edge42_Node000008_Node000040" class="edge">
<title>Node8&#45;&gt;Node40</title>
<g id="a_edge42_Node000008_Node000040"><a xlink:title=" ">
<path fill="none" stroke="#63b8ff" d="M1326.01,-64.67C1443.66,-64.57 1724.25,-59.88 1966.7,-19.88"/>
<polygon fill="#63b8ff" stroke="#63b8ff" points="1967.07,-23.36 1976.35,-18.26 1965.91,-16.46 1967.07,-23.36"/>
</a>
</g>
</g>
<!-- Node41 -->
<g id="Node000041" class="node">
<title>Node41</title>
<g id="a_Node000041"><a xlink:title=" ">
<polygon fill="#e0e0e0" stroke="#999999" points="2084.25,-19.69 2041.25,-19.69 2041.25,-0.44 2084.25,-0.44 2084.25,-19.69"/>
<text text-anchor="middle" x="2062.75" y="-6.19" font-family="Helvetica,sans-Serif" font-size="10.00">vector</text>
</a>
</g>
</g>
<!-- Node8&#45;&gt;Node41 -->
<g id="edge43_Node000008_Node000041" class="edge">
<title>Node8&#45;&gt;Node41</title>
<g id="a_edge43_Node000008_Node000041"><a xlink:title=" ">
<path fill="none" stroke="#63b8ff" d="M1326.09,-62.64C1474.82,-57.96 1876.54,-43.63 2029.89,-19.75"/>
<polygon fill="#63b8ff" stroke="#63b8ff" points="2030.13,-23.26 2039.43,-18.19 2029,-16.35 2030.13,-23.26"/>
</a>
</g>
</g>
<!-- Node42 -->
<g id="Node000042" class="node">
<title>Node42</title>
<g id="a_Node000042"><a xlink:title=" ">
<polygon fill="#e0e0e0" stroke="#999999" points="2150.88,-19.69 2102.62,-19.69 2102.62,-0.44 2150.88,-0.44 2150.88,-19.69"/>
<text text-anchor="middle" x="2126.75" y="-6.19" font-family="Helvetica,sans-Serif" font-size="10.00">random</text>
</a>
</g>
</g>
<!-- Node8&#45;&gt;Node42 -->
<g id="edge44_Node000008_Node000042" class="edge">
<title>Node8&#45;&gt;Node42</title>
<g id="a_edge44_Node000008_Node000042"><a xlink:title=" ">
<path fill="none" stroke="#63b8ff" d="M1326.18,-62.74C1483.34,-58.13 1924.86,-43.54 2091.33,-19.68"/>
<polygon fill="#63b8ff" stroke="#63b8ff" points="2091.49,-23.2 2100.86,-18.25 2090.45,-16.28 2091.49,-23.2"/>
</a>
</g>
</g>
<!-- Node43 -->
<g id="Node000043" class="node">
<title>Node43</title>
<g id="a_Node000043"><a xlink:href="../../de/d43/common-typedefs_8hpp.html" target="_top" xlink:title=" ">
<polygon fill="white" stroke="#666666" points="2280.38,-19.69 2169.12,-19.69 2169.12,-0.44 2280.38,-0.44 2280.38,-19.69"/>
<text text-anchor="middle" x="2224.75" y="-6.19" font-family="Helvetica,sans-Serif" font-size="10.00">common&#45;typedefs.hpp</text>
</a>
</g>
</g>
<!-- Node8&#45;&gt;Node43 -->
<g id="edge45_Node000008_Node000043" class="edge">
<title>Node8&#45;&gt;Node43</title>
<g id="a_edge45_Node000008_Node000043"><a xlink:title=" ">
<path fill="none" stroke="#63b8ff" d="M1326.09,-63.09C1465.26,-59.72 1836.61,-48.64 2157.37,-19.82"/>
<polygon fill="#63b8ff" stroke="#63b8ff" points="2157.61,-23.31 2167.26,-18.93 2156.98,-16.34 2157.61,-23.31"/>
</a>
</g>
</g>
<!-- Node44&#45;&gt;Node3 -->
<g id="edge50_Node000044_Node000003" class="edge">
<title>Node44&#45;&gt;Node3</title>
<g id="a_edge50_Node000044_Node000003"><a xlink:title=" ">
<path fill="none" stroke="#63b8ff" d="M90.86,-110.53C114.78,-101.92 151.03,-88.88 177.97,-79.19"/>
<polygon fill="#63b8ff" stroke="#63b8ff" points="178.87,-82.58 187.1,-75.9 176.5,-76 178.87,-82.58"/>
</a>
</g>
</g>
<!-- Node44&#45;&gt;Node6 -->
<g id="edge49_Node000044_Node000006" class="edge">
<title>Node44&#45;&gt;Node6</title>
<g id="a_edge49_Node000044_Node000006"><a xlink:title=" ">
<path fill="none" stroke="#63b8ff" d="M65.75,-110.68C65.75,-93.44 65.75,-55.02 65.75,-31.25"/>
<polygon fill="#63b8ff" stroke="#63b8ff" points="69.25,-31.58 65.75,-21.58 62.25,-31.58 69.25,-31.58"/>
</a>
</g>
</g>
</g>
</svg>
