<?xml version="1.0" encoding="UTF-8" standalone="no"?>
<!DOCTYPE svg PUBLIC "-//W3C//DTD SVG 1.1//EN"
 "http://www.w3.org/Graphics/SVG/1.1/DTD/svg11.dtd">
<!-- Generated by graphviz version 8.1.0 (20230707.0739)
 -->
<!-- Title: engine/include/imgui.hpp Pages: 1 -->
<svg width="1950pt" height="415pt"
 viewBox="0.00 0.00 1950.24 415.00" xmlns="http://www.w3.org/2000/svg" xmlns:xlink="http://www.w3.org/1999/xlink">
<g id="graph0" class="graph" transform="scale(1 1) rotate(0) translate(4 411)">
<title>engine/include/imgui.hpp</title>
<!-- Node1 -->
<g id="Node000001" class="node">
<title>Node1</title>
<g id="a_Node000001"><a xlink:title=" ">
<polygon fill="#999999" stroke="#666666" points="1444.12,-407 1321.62,-407 1321.62,-387.75 1444.12,-387.75 1444.12,-407"/>
<text text-anchor="middle" x="1382.88" y="-393.5" font-family="Helvetica,sans-Serif" font-size="10.00">engine/include/imgui.hpp</text>
</a>
</g>
</g>
<!-- Node2 -->
<g id="Node000002" class="node">
<title>Node2</title>
<g id="a_Node000002"><a xlink:href="../../d7/dfb/imgui-layer_8hpp.html" target="_top" xlink:title=" ">
<polygon fill="white" stroke="#666666" points="1367.25,-351.75 1272.5,-351.75 1272.5,-321.25 1367.25,-321.25 1367.25,-351.75"/>
<text text-anchor="start" x="1280.5" y="-338.25" font-family="Helvetica,sans-Serif" font-size="10.00">engine/core/layers</text>
<text text-anchor="middle" x="1319.88" y="-327" font-family="Helvetica,sans-Serif" font-size="10.00">/imgui&#45;layer.hpp</text>
</a>
</g>
</g>
<!-- Node1&#45;&gt;Node2 -->
<g id="edge1_Node000001_Node000002" class="edge">
<title>Node1&#45;&gt;Node2</title>
<g id="a_edge1_Node000001_Node000002"><a xlink:title=" ">
<path fill="none" stroke="#63b8ff" d="M1365.39,-380.04C1356,-371.26 1344.51,-360.52 1335.43,-352.03"/>
<polygon fill="#63b8ff" stroke="#63b8ff" points="1362.61,-382.16 1372.31,-386.43 1367.39,-377.05 1362.61,-382.16"/>
</a>
</g>
</g>
<!-- Node25 -->
<g id="Node000025" class="node">
<title>Node25</title>
<g id="a_Node000025"><a xlink:href="../../d7/dc7/windows-window_8cpp.html" target="_top" xlink:title=" ">
<polygon fill="white" stroke="#666666" points="1508.88,-351.75 1384.88,-351.75 1384.88,-321.25 1508.88,-321.25 1508.88,-351.75"/>
<text text-anchor="start" x="1392.88" y="-338.25" font-family="Helvetica,sans-Serif" font-size="10.00">engine/platform/windows</text>
<text text-anchor="middle" x="1446.88" y="-327" font-family="Helvetica,sans-Serif" font-size="10.00">/windows&#45;window.cpp</text>
</a>
</g>
</g>
<!-- Node1&#45;&gt;Node25 -->
<g id="edge32_Node000001_Node000025" class="edge">
<title>Node1&#45;&gt;Node25</title>
<g id="a_edge32_Node000001_Node000025"><a xlink:title=" ">
<path fill="none" stroke="#63b8ff" d="M1400.63,-380.04C1410.18,-371.26 1421.85,-360.52 1431.08,-352.03"/>
<polygon fill="#63b8ff" stroke="#63b8ff" points="1398.59,-377.09 1393.6,-386.43 1403.32,-382.24 1398.59,-377.09"/>
</a>
</g>
</g>
<!-- Node3 -->
<g id="Node000003" class="node">
<title>Node3</title>
<g id="a_Node000003"><a xlink:href="../../d4/d87/layers_8hpp.html" target="_top" xlink:title=" ">
<polygon fill="white" stroke="#666666" points="1301.25,-218.75 1188.5,-218.75 1188.5,-199.5 1301.25,-199.5 1301.25,-218.75"/>
<text text-anchor="middle" x="1244.88" y="-205.25" font-family="Helvetica,sans-Serif" font-size="10.00">engine/core/layers.hpp</text>
</a>
</g>
</g>
<!-- Node2&#45;&gt;Node3 -->
<g id="edge2_Node000002_Node000003" class="edge">
<title>Node2&#45;&gt;Node3</title>
<g id="a_edge2_Node000002_Node000003"><a xlink:title=" ">
<path fill="none" stroke="#63b8ff" d="M1289.55,-314.03C1280.1,-305.98 1270.44,-296.12 1263.88,-285.25 1250.93,-263.83 1246.77,-233.88 1245.46,-219.1"/>
<polygon fill="#63b8ff" stroke="#63b8ff" points="1287.1,-317.35 1297.08,-320.9 1291.49,-311.9 1287.1,-317.35"/>
</a>
</g>
</g>
<!-- Node22 -->
<g id="Node000022" class="node">
<title>Node22</title>
<g id="a_Node000022"><a xlink:href="../../db/ded/imgui-layer_8cpp.html" target="_top" xlink:title=" ">
<polygon fill="white" stroke="#666666" points="1367.25,-285.25 1272.5,-285.25 1272.5,-254.75 1367.25,-254.75 1367.25,-285.25"/>
<text text-anchor="start" x="1280.5" y="-271.75" font-family="Helvetica,sans-Serif" font-size="10.00">engine/core/layers</text>
<text text-anchor="middle" x="1319.88" y="-260.5" font-family="Helvetica,sans-Serif" font-size="10.00">/imgui&#45;layer.cpp</text>
</a>
</g>
</g>
<!-- Node2&#45;&gt;Node22 -->
<g id="edge25_Node000002_Node000022" class="edge">
<title>Node2&#45;&gt;Node22</title>
<g id="a_edge25_Node000002_Node000022"><a xlink:title=" ">
<path fill="none" stroke="#63b8ff" d="M1319.88,-310.13C1319.88,-301.8 1319.88,-292.83 1319.88,-285.58"/>
<polygon fill="#63b8ff" stroke="#63b8ff" points="1316.38,-309.86 1319.88,-319.86 1323.38,-309.86 1316.38,-309.86"/>
</a>
</g>
</g>
<!-- Node23 -->
<g id="Node000023" class="node">
<title>Node23</title>
<g id="a_Node000023"><a xlink:href="../../d9/d06/render-pipeline_8hpp.html" target="_top" xlink:title=" ">
<polygon fill="white" stroke="#666666" points="1484.88,-285.25 1384.88,-285.25 1384.88,-254.75 1484.88,-254.75 1484.88,-285.25"/>
<text text-anchor="start" x="1392.88" y="-271.75" font-family="Helvetica,sans-Serif" font-size="10.00">engine/core/layers</text>
<text text-anchor="middle" x="1434.88" y="-260.5" font-family="Helvetica,sans-Serif" font-size="10.00">/render&#45;pipeline.hpp</text>
</a>
</g>
</g>
<!-- Node2&#45;&gt;Node23 -->
<g id="edge26_Node000002_Node000023" class="edge">
<title>Node2&#45;&gt;Node23</title>
<g id="a_edge26_Node000002_Node000023"><a xlink:title=" ">
<path fill="none" stroke="#63b8ff" d="M1355.22,-315.68C1372.54,-305.96 1393.02,-294.47 1408.88,-285.58"/>
<polygon fill="#63b8ff" stroke="#63b8ff" points="1353.98,-312.92 1346.97,-320.86 1357.4,-319.02 1353.98,-312.92"/>
</a>
</g>
</g>
<!-- Node4 -->
<g id="Node000004" class="node">
<title>Node4</title>
<g id="a_Node000004"><a xlink:href="../../de/d46/engine_8hpp.html" target="_top" xlink:title=" ">
<polygon fill="white" stroke="#666666" points="1185.75,-157.88 1070,-157.88 1070,-138.62 1185.75,-138.62 1185.75,-157.88"/>
<text text-anchor="middle" x="1127.88" y="-144.38" font-family="Helvetica,sans-Serif" font-size="10.00">engine/core/engine.hpp</text>
</a>
</g>
</g>
<!-- Node3&#45;&gt;Node4 -->
<g id="edge3_Node000003_Node000004" class="edge">
<title>Node3&#45;&gt;Node4</title>
<g id="a_edge3_Node000003_Node000004"><a xlink:title=" ">
<path fill="none" stroke="#63b8ff" d="M1217.04,-194.12C1194.94,-183 1164.7,-167.78 1145.73,-158.23"/>
<polygon fill="#63b8ff" stroke="#63b8ff" points="1215.34,-197.69 1225.85,-199.05 1218.49,-191.43 1215.34,-197.69"/>
</a>
</g>
</g>
<!-- Node5 -->
<g id="Node000005" class="node">
<title>Node5</title>
<g id="a_Node000005"><a xlink:href="../../d0/d86/camera-movement_8hpp.html" target="_top" xlink:title=" ">
<polygon fill="white" stroke="#666666" points="1606.62,-85.75 1451.12,-85.75 1451.12,-66.5 1606.62,-66.5 1606.62,-85.75"/>
<text text-anchor="middle" x="1528.88" y="-72.25" font-family="Helvetica,sans-Serif" font-size="10.00">d3d_test/camera&#45;movement.hpp</text>
</a>
</g>
</g>
<!-- Node4&#45;&gt;Node5 -->
<g id="edge4_Node000004_Node000005" class="edge">
<title>Node4&#45;&gt;Node5</title>
<g id="a_edge4_Node000004_Node000005"><a xlink:title=" ">
<path fill="none" stroke="#63b8ff" d="M1196.96,-137.53C1260.74,-128.24 1357.98,-113.28 1441.88,-97 1458.3,-93.81 1476.35,-89.78 1491.73,-86.18"/>
<polygon fill="#63b8ff" stroke="#63b8ff" points="1196.63,-134.19 1187.24,-139.09 1197.64,-141.11 1196.63,-134.19"/>
</a>
</g>
</g>
<!-- Node8 -->
<g id="Node000008" class="node">
<title>Node8</title>
<g id="a_Node000008"><a xlink:href="../../dc/dfb/controller_8hpp.html" target="_top" xlink:title=" ">
<polygon fill="white" stroke="#666666" points="1926,-85.75 1811.75,-85.75 1811.75,-66.5 1926,-66.5 1926,-85.75"/>
<text text-anchor="middle" x="1868.88" y="-72.25" font-family="Helvetica,sans-Serif" font-size="10.00">d3d_test/controller.hpp</text>
</a>
</g>
</g>
<!-- Node4&#45;&gt;Node8 -->
<g id="edge7_Node000004_Node000008" class="edge">
<title>Node4&#45;&gt;Node8</title>
<g id="a_edge7_Node000004_Node000008"><a xlink:title=" ">
<path fill="none" stroke="#63b8ff" d="M1196.83,-146.95C1319.53,-145.36 1583.41,-137.07 1801.88,-97 1815.72,-94.46 1830.77,-90.14 1843.1,-86.18"/>
<polygon fill="#63b8ff" stroke="#63b8ff" points="1197.07,-143.46 1187.11,-147.08 1197.15,-150.46 1197.07,-143.46"/>
</a>
</g>
</g>
<!-- Node9 -->
<g id="Node000009" class="node">
<title>Node9</title>
<g id="a_Node000009"><a xlink:href="../../d9/d0f/main_8cc.html" target="_top" xlink:title=" ">
<polygon fill="white" stroke="#666666" points="1914,-19.25 1823.75,-19.25 1823.75,0 1914,0 1914,-19.25"/>
<text text-anchor="middle" x="1868.88" y="-5.75" font-family="Helvetica,sans-Serif" font-size="10.00">d3d_test/main.cc</text>
</a>
</g>
</g>
<!-- Node4&#45;&gt;Node9 -->
<g id="edge10_Node000004_Node000009" class="edge">
<title>Node4&#45;&gt;Node9</title>
<g id="a_edge10_Node000004_Node000009"><a xlink:title=" ">
<path fill="none" stroke="#63b8ff" d="M1196.96,-146.15C1313.69,-143.31 1544.25,-133.16 1615.88,-97 1638.27,-85.69 1632.08,-67.68 1653.88,-55.25 1707.02,-24.93 1778.03,-15.09 1823.62,-11.96"/>
<polygon fill="#63b8ff" stroke="#63b8ff" points="1196.95,-142.68 1187.03,-146.41 1197.11,-149.67 1196.95,-142.68"/>
</a>
</g>
</g>
<!-- Node10 -->
<g id="Node000010" class="node">
<title>Node10</title>
<g id="a_Node000010"><a xlink:href="../../da/df5/object-editor_8hpp.html" target="_top" xlink:title=" ">
<polygon fill="white" stroke="#666666" points="201.75,-85.75 74,-85.75 74,-66.5 201.75,-66.5 201.75,-85.75"/>
<text text-anchor="middle" x="137.88" y="-72.25" font-family="Helvetica,sans-Serif" font-size="10.00">d3d_test/object&#45;editor.hpp</text>
</a>
</g>
</g>
<!-- Node4&#45;&gt;Node10 -->
<g id="edge11_Node000004_Node000010" class="edge">
<title>Node4&#45;&gt;Node10</title>
<g id="a_edge11_Node000004_Node000010"><a xlink:title=" ">
<path fill="none" stroke="#63b8ff" d="M1058.89,-145.36C874.67,-140 374.09,-123.39 210.88,-97 195.7,-94.55 179.15,-90.19 165.65,-86.17"/>
<polygon fill="#63b8ff" stroke="#63b8ff" points="1058.68,-148.88 1068.78,-145.67 1058.89,-141.88 1058.68,-148.88"/>
</a>
</g>
</g>
<!-- Node13 -->
<g id="Node000013" class="node">
<title>Node13</title>
<g id="a_Node000013"><a xlink:href="../../d9/d55/scene-viewer_8hpp.html" target="_top" xlink:title=" ">
<polygon fill="white" stroke="#666666" points="352,-85.75 219.75,-85.75 219.75,-66.5 352,-66.5 352,-85.75"/>
<text text-anchor="middle" x="285.88" y="-72.25" font-family="Helvetica,sans-Serif" font-size="10.00">d3d_test/scene&#45;viewer.hpp</text>
</a>
</g>
</g>
<!-- Node4&#45;&gt;Node13 -->
<g id="edge15_Node000004_Node000013" class="edge">
<title>Node4&#45;&gt;Node13</title>
<g id="a_edge15_Node000004_Node000013"><a xlink:title=" ">
<path fill="none" stroke="#63b8ff" d="M1058.74,-147.19C923.69,-146.08 615.78,-138.72 360.88,-97 345.45,-94.48 328.61,-90.16 314.8,-86.19"/>
<polygon fill="#63b8ff" stroke="#63b8ff" points="1058.69,-150.69 1068.71,-147.27 1058.74,-143.69 1058.69,-150.69"/>
</a>
</g>
</g>
<!-- Node14 -->
<g id="Node000014" class="node">
<title>Node14</title>
<g id="a_Node000014"><a xlink:href="../../da/d5c/engine_8cpp.html" target="_top" xlink:title=" ">
<polygon fill="white" stroke="#666666" points="485.75,-85.75 370,-85.75 370,-66.5 485.75,-66.5 485.75,-85.75"/>
<text text-anchor="middle" x="427.88" y="-72.25" font-family="Helvetica,sans-Serif" font-size="10.00">engine/core/engine.cpp</text>
</a>
</g>
</g>
<!-- Node4&#45;&gt;Node14 -->
<g id="edge17_Node000004_Node000014" class="edge">
<title>Node4&#45;&gt;Node14</title>
<g id="a_edge17_Node000004_Node000014"><a xlink:title=" ">
<path fill="none" stroke="#63b8ff" d="M1058.82,-146.48C941.81,-144.12 697.52,-134.67 494.88,-97 481.04,-94.43 465.98,-90.11 453.66,-86.15"/>
<polygon fill="#63b8ff" stroke="#63b8ff" points="1058.68,-149.99 1068.74,-146.68 1058.81,-142.99 1058.68,-149.99"/>
</a>
</g>
</g>
<!-- Node15 -->
<g id="Node000015" class="node">
<title>Node15</title>
<g id="a_Node000015"><a xlink:href="../../d1/da2/deferred-hdr-render-pipeline_8cpp.html" target="_top" xlink:title=" ">
<polygon fill="white" stroke="#666666" points="1793.25,-91.38 1662.5,-91.38 1662.5,-60.88 1793.25,-60.88 1793.25,-91.38"/>
<text text-anchor="start" x="1670.5" y="-77.88" font-family="Helvetica,sans-Serif" font-size="10.00">engine/direct3d11/deferred</text>
<text text-anchor="middle" x="1727.88" y="-66.62" font-family="Helvetica,sans-Serif" font-size="10.00">&#45;hdr&#45;render&#45;pipeline.cpp</text>
</a>
</g>
</g>
<!-- Node4&#45;&gt;Node15 -->
<g id="edge18_Node000004_Node000015" class="edge">
<title>Node4&#45;&gt;Node15</title>
<g id="a_edge18_Node000004_Node000015"><a xlink:title=" ">
<path fill="none" stroke="#63b8ff" d="M1196.95,-143.9C1297.14,-138.29 1488.35,-124.77 1648.88,-97 1657.1,-95.58 1665.73,-93.76 1674.14,-91.79"/>
<polygon fill="#63b8ff" stroke="#63b8ff" points="1196.87,-140.45 1187.08,-144.5 1197.25,-147.44 1196.87,-140.45"/>
</a>
</g>
</g>
<!-- Node16 -->
<g id="Node000016" class="node">
<title>Node16</title>
<g id="a_Node000016"><a xlink:href="../../d8/d30/decal-render-system_8cpp.html" target="_top" xlink:title=" ">
<polygon fill="white" stroke="#666666" points="654.38,-91.38 503.38,-91.38 503.38,-60.88 654.38,-60.88 654.38,-91.38"/>
<text text-anchor="start" x="511.38" y="-77.88" font-family="Helvetica,sans-Serif" font-size="10.00">engine/subsystems/render</text>
<text text-anchor="middle" x="578.88" y="-66.62" font-family="Helvetica,sans-Serif" font-size="10.00">/detail/decal&#45;render&#45;system.cpp</text>
</a>
</g>
</g>
<!-- Node4&#45;&gt;Node16 -->
<g id="edge19_Node000004_Node000016" class="edge">
<title>Node4&#45;&gt;Node16</title>
<g id="a_edge19_Node000004_Node000016"><a xlink:title=" ">
<path fill="none" stroke="#63b8ff" d="M1058.98,-142.43C968.04,-135.46 803.19,-120.74 663.88,-97 655.36,-95.55 646.42,-93.76 637.67,-91.85"/>
<polygon fill="#63b8ff" stroke="#63b8ff" points="1058.46,-145.97 1068.69,-143.24 1058.98,-138.99 1058.46,-145.97"/>
</a>
</g>
</g>
<!-- Node17 -->
<g id="Node000017" class="node">
<title>Node17</title>
<g id="a_Node000017"><a xlink:href="../../d1/d58/dissolution-render-system_8cpp.html" target="_top" xlink:title=" ">
<polygon fill="white" stroke="#666666" points="802.88,-97 672.88,-97 672.88,-55.25 802.88,-55.25 802.88,-97"/>
<text text-anchor="start" x="680.88" y="-83.5" font-family="Helvetica,sans-Serif" font-size="10.00">engine/subsystems/render</text>
<text text-anchor="start" x="680.88" y="-72.25" font-family="Helvetica,sans-Serif" font-size="10.00">/detail/dissolution&#45;render</text>
<text text-anchor="middle" x="737.88" y="-61" font-family="Helvetica,sans-Serif" font-size="10.00">&#45;system.cpp</text>
</a>
</g>
</g>
<!-- Node4&#45;&gt;Node17 -->
<g id="edge20_Node000004_Node000017" class="edge">
<title>Node4&#45;&gt;Node17</title>
<g id="a_edge20_Node000004_Node000017"><a xlink:title=" ">
<path fill="none" stroke="#63b8ff" d="M1058.78,-138.39C994.5,-129.64 896.23,-114.98 811.88,-97 809.01,-96.39 806.1,-95.74 803.16,-95.06"/>
<polygon fill="#63b8ff" stroke="#63b8ff" points="1058.21,-141.97 1068.59,-139.84 1059.14,-135.04 1058.21,-141.97"/>
</a>
</g>
</g>
<!-- Node18 -->
<g id="Node000018" class="node">
<title>Node18</title>
<g id="a_Node000018"><a xlink:href="../../d2/d11/emissive-particle-render-system_8cpp.html" target="_top" xlink:title=" ">
<polygon fill="white" stroke="#666666" points="950.88,-97 820.88,-97 820.88,-55.25 950.88,-55.25 950.88,-97"/>
<text text-anchor="start" x="828.88" y="-83.5" font-family="Helvetica,sans-Serif" font-size="10.00">engine/subsystems/render</text>
<text text-anchor="start" x="828.88" y="-72.25" font-family="Helvetica,sans-Serif" font-size="10.00">/detail/emissive&#45;particle</text>
<text text-anchor="middle" x="885.88" y="-61" font-family="Helvetica,sans-Serif" font-size="10.00">&#45;render&#45;system.cpp</text>
</a>
</g>
</g>
<!-- Node4&#45;&gt;Node18 -->
<g id="edge21_Node000004_Node000018" class="edge">
<title>Node4&#45;&gt;Node18</title>
<g id="a_edge21_Node000004_Node000018"><a xlink:title=" ">
<path fill="none" stroke="#63b8ff" d="M1086.28,-135.2C1049.11,-124.42 994.03,-108.47 951.02,-96"/>
<polygon fill="#63b8ff" stroke="#63b8ff" points="1085.15,-138.8 1095.73,-138.23 1087.1,-132.08 1085.15,-138.8"/>
</a>
</g>
</g>
<!-- Node19 -->
<g id="Node000019" class="node">
<title>Node19</title>
<g id="a_Node000019"><a xlink:href="../../df/d58/grass-render-system_8cpp.html" target="_top" xlink:title=" ">
<polygon fill="white" stroke="#666666" points="1120.75,-91.38 969,-91.38 969,-60.88 1120.75,-60.88 1120.75,-91.38"/>
<text text-anchor="start" x="977" y="-77.88" font-family="Helvetica,sans-Serif" font-size="10.00">engine/subsystems/render</text>
<text text-anchor="middle" x="1044.88" y="-66.62" font-family="Helvetica,sans-Serif" font-size="10.00">/detail/grass&#45;render&#45;system.cpp</text>
</a>
</g>
</g>
<!-- Node4&#45;&gt;Node19 -->
<g id="edge22_Node000004_Node000019" class="edge">
<title>Node4&#45;&gt;Node19</title>
<g id="a_edge22_Node000004_Node000019"><a xlink:title=" ">
<path fill="none" stroke="#63b8ff" d="M1109.35,-131.6C1095.27,-119.7 1076.03,-103.44 1062.24,-91.79"/>
<polygon fill="#63b8ff" stroke="#63b8ff" points="1106.47,-134.59 1116.36,-138.37 1110.98,-129.24 1106.47,-134.59"/>
</a>
</g>
</g>
<!-- Node20 -->
<g id="Node000020" class="node">
<title>Node20</title>
<g id="a_Node000020"><a xlink:href="../../d8/d9c/light-render-system_8cpp.html" target="_top" xlink:title=" ">
<polygon fill="white" stroke="#666666" points="1284.75,-91.38 1139,-91.38 1139,-60.88 1284.75,-60.88 1284.75,-91.38"/>
<text text-anchor="start" x="1147" y="-77.88" font-family="Helvetica,sans-Serif" font-size="10.00">engine/subsystems/render</text>
<text text-anchor="middle" x="1211.88" y="-66.62" font-family="Helvetica,sans-Serif" font-size="10.00">/detail/light&#45;render&#45;system.cpp</text>
</a>
</g>
</g>
<!-- Node4&#45;&gt;Node20 -->
<g id="edge23_Node000004_Node000020" class="edge">
<title>Node4&#45;&gt;Node20</title>
<g id="a_edge23_Node000004_Node000020"><a xlink:title=" ">
<path fill="none" stroke="#63b8ff" d="M1146.62,-131.6C1160.87,-119.7 1180.35,-103.44 1194.31,-91.79"/>
<polygon fill="#63b8ff" stroke="#63b8ff" points="1144.95,-129.27 1139.51,-138.37 1149.43,-134.65 1144.95,-129.27"/>
</a>
</g>
</g>
<!-- Node21 -->
<g id="Node000021" class="node">
<title>Node21</title>
<g id="a_Node000021"><a xlink:href="../../d3/dfe/particle-render-system_8cpp.html" target="_top" xlink:title=" ">
<polygon fill="white" stroke="#666666" points="1432.88,-97 1302.88,-97 1302.88,-55.25 1432.88,-55.25 1432.88,-97"/>
<text text-anchor="start" x="1310.88" y="-83.5" font-family="Helvetica,sans-Serif" font-size="10.00">engine/subsystems/render</text>
<text text-anchor="start" x="1310.88" y="-72.25" font-family="Helvetica,sans-Serif" font-size="10.00">/detail/particle&#45;render</text>
<text text-anchor="middle" x="1367.88" y="-61" font-family="Helvetica,sans-Serif" font-size="10.00">&#45;system.cpp</text>
</a>
</g>
</g>
<!-- Node4&#45;&gt;Node21 -->
<g id="edge24_Node000004_Node000021" class="edge">
<title>Node4&#45;&gt;Node21</title>
<g id="a_edge24_Node000004_Node000021"><a xlink:title=" ">
<path fill="none" stroke="#63b8ff" d="M1169.09,-135.21C1205.82,-124.48 1260.18,-108.59 1302.78,-96.15"/>
<polygon fill="#63b8ff" stroke="#63b8ff" points="1168.38,-132.06 1159.76,-138.23 1170.34,-138.78 1168.38,-132.06"/>
</a>
</g>
</g>
<!-- Node6 -->
<g id="Node000006" class="node">
<title>Node6</title>
<g id="a_Node000006"><a xlink:href="../../d5/dbb/camera-movement_8cpp.html" target="_top" xlink:title=" ">
<polygon fill="white" stroke="#666666" points="1606.62,-19.25 1451.12,-19.25 1451.12,0 1606.62,0 1606.62,-19.25"/>
<text text-anchor="middle" x="1528.88" y="-5.75" font-family="Helvetica,sans-Serif" font-size="10.00">d3d_test/camera&#45;movement.cpp</text>
</a>
</g>
</g>
<!-- Node5&#45;&gt;Node6 -->
<g id="edge5_Node000005_Node000006" class="edge">
<title>Node5&#45;&gt;Node6</title>
<g id="a_edge5_Node000005_Node000006"><a xlink:title=" ">
<path fill="none" stroke="#63b8ff" d="M1528.88,-55.4C1528.88,-43.43 1528.88,-28.73 1528.88,-19.52"/>
<polygon fill="#63b8ff" stroke="#63b8ff" points="1525.38,-55.16 1528.88,-65.16 1532.38,-55.16 1525.38,-55.16"/>
</a>
</g>
</g>
<!-- Node7 -->
<g id="Node000007" class="node">
<title>Node7</title>
<g id="a_Node000007"><a xlink:href="../../d1/d47/controller_8cpp.html" target="_top" xlink:title=" ">
<polygon fill="white" stroke="#666666" points="922,-19.25 807.75,-19.25 807.75,0 922,0 922,-19.25"/>
<text text-anchor="middle" x="864.88" y="-5.75" font-family="Helvetica,sans-Serif" font-size="10.00">d3d_test/controller.cpp</text>
</a>
</g>
</g>
<!-- Node5&#45;&gt;Node7 -->
<g id="edge6_Node000005_Node000007" class="edge">
<title>Node5&#45;&gt;Node7</title>
<g id="a_edge6_Node000005_Node000007"><a xlink:title=" ">
<path fill="none" stroke="#63b8ff" d="M1483.94,-63.53C1470.49,-60.42 1455.65,-57.34 1441.88,-55.25 1252.9,-26.52 1026.13,-15.84 922.11,-12.26"/>
<polygon fill="#63b8ff" stroke="#63b8ff" points="1482.85,-67.11 1493.38,-66.01 1484.47,-60.3 1482.85,-67.11"/>
</a>
</g>
</g>
<!-- Node8&#45;&gt;Node7 -->
<g id="edge8_Node000008_Node000007" class="edge">
<title>Node8&#45;&gt;Node7</title>
<g id="a_edge8_Node000008_Node000007"><a xlink:title=" ">
<path fill="none" stroke="#63b8ff" d="M1833.06,-62.77C1823.08,-59.8 1812.15,-56.99 1801.88,-55.25 1631.37,-26.34 1098.9,-14.68 922.38,-11.55"/>
<polygon fill="#63b8ff" stroke="#63b8ff" points="1831.86,-66.37 1842.45,-66.01 1833.94,-59.69 1831.86,-66.37"/>
</a>
</g>
</g>
<!-- Node8&#45;&gt;Node9 -->
<g id="edge9_Node000008_Node000009" class="edge">
<title>Node8&#45;&gt;Node9</title>
<g id="a_edge9_Node000008_Node000009"><a xlink:title=" ">
<path fill="none" stroke="#63b8ff" d="M1868.88,-55.4C1868.88,-43.43 1868.88,-28.73 1868.88,-19.52"/>
<polygon fill="#63b8ff" stroke="#63b8ff" points="1865.38,-55.16 1868.88,-65.16 1872.38,-55.16 1865.38,-55.16"/>
</a>
</g>
</g>
<!-- Node10&#45;&gt;Node7 -->
<g id="edge12_Node000010_Node000007" class="edge">
<title>Node10&#45;&gt;Node7</title>
<g id="a_edge12_Node000010_Node000007"><a xlink:title=" ">
<path fill="none" stroke="#63b8ff" d="M176.58,-63.06C187.57,-60.05 199.61,-57.15 210.88,-55.25 429.15,-18.46 693.27,-11.81 807.57,-10.74"/>
<polygon fill="#63b8ff" stroke="#63b8ff" points="175.67,-59.96 167.01,-66.07 177.59,-66.7 175.67,-59.96"/>
</a>
</g>
</g>
<!-- Node11 -->
<g id="Node000011" class="node">
<title>Node11</title>
<g id="a_Node000011"><a xlink:href="../../d4/d94/object-editor_8cpp.html" target="_top" xlink:title=" ">
<polygon fill="white" stroke="#666666" points="127.75,-19.25 0,-19.25 0,0 127.75,0 127.75,-19.25"/>
<text text-anchor="middle" x="63.88" y="-5.75" font-family="Helvetica,sans-Serif" font-size="10.00">d3d_test/object&#45;editor.cpp</text>
</a>
</g>
</g>
<!-- Node10&#45;&gt;Node11 -->
<g id="edge13_Node000010_Node000011" class="edge">
<title>Node10&#45;&gt;Node11</title>
<g id="a_edge13_Node000010_Node000011"><a xlink:title=" ">
<path fill="none" stroke="#63b8ff" d="M119.42,-59.04C105.09,-46.55 85.75,-29.69 74.08,-19.52"/>
<polygon fill="#63b8ff" stroke="#63b8ff" points="116.75,-62.22 126.59,-66.16 121.35,-56.95 116.75,-62.22"/>
</a>
</g>
</g>
<!-- Node12 -->
<g id="Node000012" class="node">
<title>Node12</title>
<g id="a_Node000012"><a xlink:href="../../d0/d38/scene-viewer_8cpp.html" target="_top" xlink:title=" ">
<polygon fill="white" stroke="#666666" points="278,-19.25 145.75,-19.25 145.75,0 278,0 278,-19.25"/>
<text text-anchor="middle" x="211.88" y="-5.75" font-family="Helvetica,sans-Serif" font-size="10.00">d3d_test/scene&#45;viewer.cpp</text>
</a>
</g>
</g>
<!-- Node10&#45;&gt;Node12 -->
<g id="edge14_Node000010_Node000012" class="edge">
<title>Node10&#45;&gt;Node12</title>
<g id="a_edge14_Node000010_Node000012"><a xlink:title=" ">
<path fill="none" stroke="#63b8ff" d="M156.33,-59.04C170.66,-46.55 190,-29.69 201.67,-19.52"/>
<polygon fill="#63b8ff" stroke="#63b8ff" points="154.4,-56.95 149.16,-66.16 159,-62.22 154.4,-56.95"/>
</a>
</g>
</g>
<!-- Node13&#45;&gt;Node7 -->
<g id="edge16_Node000013_Node000007" class="edge">
<title>Node13&#45;&gt;Node7</title>
<g id="a_edge16_Node000013_Node000007"><a xlink:title=" ">
<path fill="none" stroke="#63b8ff" d="M325.92,-63.16C337.15,-60.18 349.41,-57.26 360.88,-55.25 521.15,-27.13 713.38,-16.34 807.39,-12.52"/>
<polygon fill="#63b8ff" stroke="#63b8ff" points="325.26,-59.99 316.54,-66.01 327.11,-66.74 325.26,-59.99"/>
</a>
</g>
</g>
<!-- Node23&#45;&gt;Node3 -->
<g id="edge27_Node000023_Node000003" class="edge">
<title>Node23&#45;&gt;Node3</title>
<g id="a_edge27_Node000023_Node000003"><a xlink:title=" ">
<path fill="none" stroke="#63b8ff" d="M1377.14,-251.11C1343.17,-240.58 1301.65,-227.72 1274.29,-219.24"/>
<polygon fill="#63b8ff" stroke="#63b8ff" points="1375.83,-254.68 1386.42,-254.3 1377.9,-247.99 1375.83,-254.68"/>
</a>
</g>
</g>
<!-- Node24 -->
<g id="Node000024" class="node">
<title>Node24</title>
<g id="a_Node000024"><a xlink:href="../../db/df9/deferred-hdr-render-pipeline_8hpp.html" target="_top" xlink:title=" ">
<polygon fill="white" stroke="#666666" points="1863.25,-163.5 1732.5,-163.5 1732.5,-133 1863.25,-133 1863.25,-163.5"/>
<text text-anchor="start" x="1740.5" y="-150" font-family="Helvetica,sans-Serif" font-size="10.00">engine/direct3d11/deferred</text>
<text text-anchor="middle" x="1797.88" y="-138.75" font-family="Helvetica,sans-Serif" font-size="10.00">&#45;hdr&#45;render&#45;pipeline.hpp</text>
</a>
</g>
</g>
<!-- Node23&#45;&gt;Node24 -->
<g id="edge28_Node000023_Node000024" class="edge">
<title>Node23&#45;&gt;Node24</title>
<g id="a_edge28_Node000023_Node000024"><a xlink:title=" ">
<path fill="none" stroke="#63b8ff" d="M1489.61,-250.94C1561.6,-227.19 1686.74,-185.91 1753.28,-163.96"/>
<polygon fill="#63b8ff" stroke="#63b8ff" points="1488.79,-247.86 1480.39,-254.32 1490.98,-254.51 1488.79,-247.86"/>
</a>
</g>
</g>
<!-- Node24&#45;&gt;Node8 -->
<g id="edge29_Node000024_Node000008" class="edge">
<title>Node24&#45;&gt;Node8</title>
<g id="a_edge29_Node000024_Node000008"><a xlink:title=" ">
<path fill="none" stroke="#63b8ff" d="M1820.11,-125.29C1833.6,-111.96 1850.08,-95.69 1860.01,-85.88"/>
<polygon fill="#63b8ff" stroke="#63b8ff" points="1818.24,-122.2 1813.59,-131.72 1823.16,-127.18 1818.24,-122.2"/>
</a>
</g>
</g>
<!-- Node24&#45;&gt;Node9 -->
<g id="edge30_Node000024_Node000009" class="edge">
<title>Node24&#45;&gt;Node9</title>
<g id="a_edge30_Node000024_Node000009"><a xlink:title=" ">
<path fill="none" stroke="#63b8ff" d="M1874.09,-136.62C1897.46,-129.38 1920.72,-117.26 1934.88,-97 1945.5,-81.79 1943.58,-71.64 1934.88,-55.25 1925.99,-38.51 1907.71,-26.91 1892.64,-19.74"/>
<polygon fill="#63b8ff" stroke="#63b8ff" points="1873.42,-133.45 1864.73,-139.52 1875.3,-140.19 1873.42,-133.45"/>
</a>
</g>
</g>
<!-- Node24&#45;&gt;Node15 -->
<g id="edge31_Node000024_Node000015" class="edge">
<title>Node24&#45;&gt;Node15</title>
<g id="a_edge31_Node000024_Node000015"><a xlink:title=" ">
<path fill="none" stroke="#63b8ff" d="M1775.84,-125.17C1764.91,-114.23 1752.02,-101.32 1742.36,-91.64"/>
<polygon fill="#63b8ff" stroke="#63b8ff" points="1772.83,-127.12 1782.37,-131.72 1777.78,-122.17 1772.83,-127.12"/>
</a>
</g>
</g>
</g>
</svg>
