<?xml version="1.0" encoding="UTF-8" standalone="no"?>
<!DOCTYPE svg PUBLIC "-//W3C//DTD SVG 1.1//EN"
 "http://www.w3.org/Graphics/SVG/1.1/DTD/svg11.dtd">
<!-- Generated by graphviz version 8.1.0 (20230707.0739)
 -->
<!-- Title: engine/subsystems/render/detail/opaque&#45;render&#45;system.hpp Pages: 1 -->
<svg width="1936pt" height="660pt"
 viewBox="0.00 0.00 1935.88 659.50" xmlns="http://www.w3.org/2000/svg" xmlns:xlink="http://www.w3.org/1999/xlink">
<g id="graph0" class="graph" transform="scale(1 1) rotate(0) translate(4 655.5)">
<title>engine/subsystems/render/detail/opaque&#45;render&#45;system.hpp</title>
<!-- Node1 -->
<g id="Node000001" class="node">
<title>Node1</title>
<g id="a_Node000001"><a xlink:title=" ">
<polygon fill="#999999" stroke="#666666" points="1363.62,-651.5 1204.38,-651.5 1204.38,-621 1363.62,-621 1363.62,-651.5"/>
<text text-anchor="start" x="1212.38" y="-638" font-family="Helvetica,sans-Serif" font-size="10.00">engine/subsystems/render</text>
<text text-anchor="middle" x="1284" y="-626.75" font-family="Helvetica,sans-Serif" font-size="10.00">/detail/opaque&#45;render&#45;system.hpp</text>
</a>
</g>
</g>
<!-- Node2 -->
<g id="Node000002" class="node">
<title>Node2</title>
<g id="a_Node000002"><a xlink:href="../../d1/dae/renderer_8hpp.html" target="_top" xlink:title=" ">
<polygon fill="white" stroke="#666666" points="1108.38,-423.88 977.62,-423.88 977.62,-404.62 1108.38,-404.62 1108.38,-423.88"/>
<text text-anchor="middle" x="1043" y="-410.38" font-family="Helvetica,sans-Serif" font-size="10.00">engine/render/renderer.hpp</text>
</a>
</g>
</g>
<!-- Node1&#45;&gt;Node2 -->
<g id="edge1_Node000001_Node000002" class="edge">
<title>Node1&#45;&gt;Node2</title>
<g id="a_edge1_Node000001_Node000002"><a xlink:title=" ">
<path fill="none" stroke="#63b8ff" d="M1193.13,-624.45C1140.42,-616.37 1080.82,-603.5 1062,-585 1016.96,-540.72 1033.71,-452.61 1040.62,-424.26"/>
<polygon fill="#63b8ff" stroke="#63b8ff" points="1192.5,-628.05 1202.91,-626.06 1193.53,-621.13 1192.5,-628.05"/>
</a>
</g>
</g>
<!-- Node20 -->
<g id="Node000020" class="node">
<title>Node20</title>
<g id="a_Node000020"><a xlink:href="../../d8/d9c/light-render-system_8cpp.html" target="_top" xlink:title=" ">
<polygon fill="white" stroke="#666666" points="1927.88,-91.38 1782.12,-91.38 1782.12,-60.88 1927.88,-60.88 1927.88,-91.38"/>
<text text-anchor="start" x="1790.12" y="-77.88" font-family="Helvetica,sans-Serif" font-size="10.00">engine/subsystems/render</text>
<text text-anchor="middle" x="1855" y="-66.62" font-family="Helvetica,sans-Serif" font-size="10.00">/detail/light&#45;render&#45;system.cpp</text>
</a>
</g>
</g>
<!-- Node1&#45;&gt;Node20 -->
<g id="edge66_Node000001_Node000020" class="edge">
<title>Node1&#45;&gt;Node20</title>
<g id="a_edge66_Node000001_Node000020"><a xlink:title=" ">
<path fill="none" stroke="#63b8ff" d="M1374.66,-630.27C1534.57,-618.98 1850,-584.42 1850,-487.38 1850,-487.38 1850,-487.38 1850,-208.12 1850,-165.79 1852.64,-115.82 1854.08,-91.66"/>
<polygon fill="#63b8ff" stroke="#63b8ff" points="1374.63,-626.83 1364.89,-631.01 1375.11,-633.82 1374.63,-626.83"/>
</a>
</g>
</g>
<!-- Node28 -->
<g id="Node000028" class="node">
<title>Node28</title>
<g id="a_Node000028"><a xlink:href="../../d1/d62/opaque-render-system_8cpp.html" target="_top" xlink:title=" ">
<polygon fill="white" stroke="#666666" points="300.62,-290.88 141.38,-290.88 141.38,-260.38 300.62,-260.38 300.62,-290.88"/>
<text text-anchor="start" x="149.38" y="-277.38" font-family="Helvetica,sans-Serif" font-size="10.00">engine/subsystems/render</text>
<text text-anchor="middle" x="221" y="-266.12" font-family="Helvetica,sans-Serif" font-size="10.00">/detail/opaque&#45;render&#45;system.cpp</text>
</a>
</g>
</g>
<!-- Node1&#45;&gt;Node28 -->
<g id="edge67_Node000001_Node000028" class="edge">
<title>Node1&#45;&gt;Node28</title>
<g id="a_edge67_Node000001_Node000028"><a xlink:title=" ">
<path fill="none" stroke="#63b8ff" d="M1193.54,-632.03C937.98,-621.73 229,-584.41 229,-487.38 229,-487.38 229,-487.38 229,-413.25 229,-368.82 224.73,-316.4 222.43,-291.37"/>
<polygon fill="#63b8ff" stroke="#63b8ff" points="1193.14,-635.55 1203.27,-632.45 1193.42,-628.56 1193.14,-635.55"/>
</a>
</g>
</g>
<!-- Node29 -->
<g id="Node000029" class="node">
<title>Node29</title>
<g id="a_Node000029"><a xlink:href="../../dc/d9f/decal-render-system_8hpp.html" target="_top" xlink:title=" ">
<polygon fill="white" stroke="#666666" points="1518.5,-501.62 1367.5,-501.62 1367.5,-471.12 1518.5,-471.12 1518.5,-501.62"/>
<text text-anchor="start" x="1375.5" y="-488.12" font-family="Helvetica,sans-Serif" font-size="10.00">engine/subsystems/render</text>
<text text-anchor="middle" x="1443" y="-476.88" font-family="Helvetica,sans-Serif" font-size="10.00">/detail/decal&#45;render&#45;system.hpp</text>
</a>
</g>
</g>
<!-- Node1&#45;&gt;Node29 -->
<g id="edge42_Node000001_Node000029" class="edge">
<title>Node1&#45;&gt;Node29</title>
<g id="a_edge42_Node000001_Node000029"><a xlink:title=" ">
<path fill="none" stroke="#63b8ff" d="M1307.6,-613.31C1340.48,-582.73 1399.19,-528.12 1427.24,-502.03"/>
<polygon fill="#63b8ff" stroke="#63b8ff" points="1305.77,-610.16 1300.83,-619.53 1310.53,-615.28 1305.77,-610.16"/>
</a>
</g>
</g>
<!-- Node30 -->
<g id="Node000030" class="node">
<title>Node30</title>
<g id="a_Node000030"><a xlink:href="../../d9/d58/dissolution-render-system_8hpp.html" target="_top" xlink:title=" ">
<polygon fill="white" stroke="#666666" points="1201,-585 1071,-585 1071,-543.25 1201,-543.25 1201,-585"/>
<text text-anchor="start" x="1079" y="-571.5" font-family="Helvetica,sans-Serif" font-size="10.00">engine/subsystems/render</text>
<text text-anchor="start" x="1079" y="-560.25" font-family="Helvetica,sans-Serif" font-size="10.00">/detail/dissolution&#45;render</text>
<text text-anchor="middle" x="1136" y="-549" font-family="Helvetica,sans-Serif" font-size="10.00">&#45;system.hpp</text>
</a>
</g>
</g>
<!-- Node1&#45;&gt;Node30 -->
<g id="edge45_Node000001_Node000030" class="edge">
<title>Node1&#45;&gt;Node30</title>
<g id="a_edge45_Node000001_Node000030"><a xlink:title=" ">
<path fill="none" stroke="#63b8ff" d="M1243.21,-615.92C1223.18,-606.43 1199.06,-595 1178.77,-585.39"/>
<polygon fill="#63b8ff" stroke="#63b8ff" points="1241.44,-619.43 1251.97,-620.55 1244.44,-613.1 1241.44,-619.43"/>
</a>
</g>
</g>
<!-- Node32 -->
<g id="Node000032" class="node">
<title>Node32</title>
<g id="a_Node000032"><a xlink:href="../../db/d67/model-system_8hpp.html" target="_top" xlink:title=" ">
<polygon fill="white" stroke="#666666" points="1349,-501.62 1219,-501.62 1219,-471.12 1349,-471.12 1349,-501.62"/>
<text text-anchor="start" x="1227" y="-488.12" font-family="Helvetica,sans-Serif" font-size="10.00">engine/subsystems/render</text>
<text text-anchor="middle" x="1284" y="-476.88" font-family="Helvetica,sans-Serif" font-size="10.00">/model&#45;system.hpp</text>
</a>
</g>
</g>
<!-- Node1&#45;&gt;Node32 -->
<g id="edge68_Node000001_Node000032" class="edge">
<title>Node1&#45;&gt;Node32</title>
<g id="a_edge68_Node000001_Node000032"><a xlink:title=" ">
<path fill="none" stroke="#63b8ff" d="M1284,-609.71C1284,-578.6 1284,-527.13 1284,-502.03"/>
<polygon fill="#63b8ff" stroke="#63b8ff" points="1280.5,-609.53 1284,-619.53 1287.5,-609.53 1280.5,-609.53"/>
</a>
</g>
</g>
<!-- Node36 -->
<g id="Node000036" class="node">
<title>Node36</title>
<g id="a_Node000036"><a xlink:href="../../d9/d29/grass-render-system_8hpp.html" target="_top" xlink:title=" ">
<polygon fill="white" stroke="#666666" points="1687.88,-501.62 1536.12,-501.62 1536.12,-471.12 1687.88,-471.12 1687.88,-501.62"/>
<text text-anchor="start" x="1544.12" y="-488.12" font-family="Helvetica,sans-Serif" font-size="10.00">engine/subsystems/render</text>
<text text-anchor="middle" x="1612" y="-476.88" font-family="Helvetica,sans-Serif" font-size="10.00">/detail/grass&#45;render&#45;system.hpp</text>
</a>
</g>
</g>
<!-- Node1&#45;&gt;Node36 -->
<g id="edge63_Node000001_Node000036" class="edge">
<title>Node1&#45;&gt;Node36</title>
<g id="a_edge63_Node000001_Node000036"><a xlink:title=" ">
<path fill="none" stroke="#63b8ff" d="M1326.37,-616.15C1392.74,-586.23 1519.78,-528.95 1579.48,-502.03"/>
<polygon fill="#63b8ff" stroke="#63b8ff" points="1325.33,-613.23 1317.65,-620.53 1328.2,-619.61 1325.33,-613.23"/>
</a>
</g>
</g>
<!-- Node3 -->
<g id="Node000003" class="node">
<title>Node3</title>
<g id="a_Node000003"><a xlink:href="../../d1/d47/controller_8cpp.html" target="_top" xlink:title=" ">
<polygon fill="white" stroke="#666666" points="950.12,-19.25 835.88,-19.25 835.88,0 950.12,0 950.12,-19.25"/>
<text text-anchor="middle" x="893" y="-5.75" font-family="Helvetica,sans-Serif" font-size="10.00">d3d_test/controller.cpp</text>
</a>
</g>
</g>
<!-- Node2&#45;&gt;Node3 -->
<g id="edge2_Node000002_Node000003" class="edge">
<title>Node2&#45;&gt;Node3</title>
<g id="a_edge2_Node000002_Node000003"><a xlink:title=" ">
<path fill="none" stroke="#63b8ff" d="M1054.7,-394.98C1089.73,-337.72 1186.29,-159.44 1102,-55.25 1083.24,-32.07 1005.63,-20.4 950.48,-14.93"/>
<polygon fill="#63b8ff" stroke="#63b8ff" points="1051.26,-392.88 1048.93,-403.21 1057.19,-396.58 1051.26,-392.88"/>
</a>
</g>
</g>
<!-- Node4 -->
<g id="Node000004" class="node">
<title>Node4</title>
<g id="a_Node000004"><a xlink:href="../../d5/d9b/scene_8hpp.html" target="_top" xlink:title=" ">
<polygon fill="white" stroke="#666666" points="803.75,-357.38 690.25,-357.38 690.25,-338.12 803.75,-338.12 803.75,-357.38"/>
<text text-anchor="middle" x="747" y="-343.88" font-family="Helvetica,sans-Serif" font-size="10.00">engine/core/scene.hpp</text>
</a>
</g>
</g>
<!-- Node2&#45;&gt;Node4 -->
<g id="edge3_Node000002_Node000004" class="edge">
<title>Node2&#45;&gt;Node4</title>
<g id="a_edge3_Node000002_Node000004"><a xlink:title=" ">
<path fill="none" stroke="#63b8ff" d="M990.51,-401.81C932.86,-389.25 841.46,-369.33 788.57,-357.81"/>
<polygon fill="#63b8ff" stroke="#63b8ff" points="989.7,-405.44 1000.22,-404.15 991.19,-398.6 989.7,-405.44"/>
</a>
</g>
</g>
<!-- Node24 -->
<g id="Node000024" class="node">
<title>Node24</title>
<g id="a_Node000024"><a xlink:href="../../db/df9/deferred-hdr-render-pipeline_8hpp.html" target="_top" xlink:title=" ">
<polygon fill="white" stroke="#666666" points="514.38,-163.5 383.62,-163.5 383.62,-133 514.38,-133 514.38,-163.5"/>
<text text-anchor="start" x="391.62" y="-150" font-family="Helvetica,sans-Serif" font-size="10.00">engine/direct3d11/deferred</text>
<text text-anchor="middle" x="449" y="-138.75" font-family="Helvetica,sans-Serif" font-size="10.00">&#45;hdr&#45;render&#45;pipeline.hpp</text>
</a>
</g>
</g>
<!-- Node2&#45;&gt;Node24 -->
<g id="edge40_Node000002_Node000024" class="edge">
<title>Node2&#45;&gt;Node24</title>
<g id="a_edge40_Node000002_Node000024"><a xlink:title=" ">
<path fill="none" stroke="#63b8ff" d="M966.29,-411.98C810.49,-407.5 466.32,-387.32 402,-296.5 372.07,-254.24 413.98,-192 436.42,-163.94"/>
<polygon fill="#63b8ff" stroke="#63b8ff" points="966.08,-415.5 976.17,-412.27 966.27,-408.5 966.08,-415.5"/>
</a>
</g>
</g>
<!-- Node26 -->
<g id="Node000026" class="node">
<title>Node26</title>
<g id="a_Node000026"><a xlink:href="../../d6/d54/renderer_8cpp.html" target="_top" xlink:title=" ">
<polygon fill="white" stroke="#666666" points="541.38,-285.25 410.62,-285.25 410.62,-266 541.38,-266 541.38,-285.25"/>
<text text-anchor="middle" x="476" y="-271.75" font-family="Helvetica,sans-Serif" font-size="10.00">engine/render/renderer.cpp</text>
</a>
</g>
</g>
<!-- Node2&#45;&gt;Node26 -->
<g id="edge41_Node000002_Node000026" class="edge">
<title>Node2&#45;&gt;Node26</title>
<g id="a_edge41_Node000002_Node000026"><a xlink:title=" ">
<path fill="none" stroke="#63b8ff" d="M966.6,-408.45C892.52,-402.45 777.51,-389.54 681,-363 608.57,-343.08 527.87,-303.57 493.27,-285.74"/>
<polygon fill="#63b8ff" stroke="#63b8ff" points="965.98,-411.99 976.23,-409.29 966.53,-405.01 965.98,-411.99"/>
</a>
</g>
</g>
<!-- Node5 -->
<g id="Node000005" class="node">
<title>Node5</title>
<g id="a_Node000005"><a xlink:href="../../de/d46/engine_8hpp.html" target="_top" xlink:title=" ">
<polygon fill="white" stroke="#666666" points="950.88,-157.88 835.12,-157.88 835.12,-138.62 950.88,-138.62 950.88,-157.88"/>
<text text-anchor="middle" x="893" y="-144.38" font-family="Helvetica,sans-Serif" font-size="10.00">engine/core/engine.hpp</text>
</a>
</g>
</g>
<!-- Node4&#45;&gt;Node5 -->
<g id="edge4_Node000004_Node000005" class="edge">
<title>Node4&#45;&gt;Node5</title>
<g id="a_edge4_Node000004_Node000005"><a xlink:title=" ">
<path fill="none" stroke="#63b8ff" d="M814.4,-334.49C836.62,-327.11 859.36,-315.32 874,-296.5 907.08,-253.98 898.81,-182.74 894.66,-158.02"/>
<polygon fill="#63b8ff" stroke="#63b8ff" points="813.48,-331.42 804.92,-337.67 815.51,-338.11 813.48,-331.42"/>
</a>
</g>
</g>
<!-- Node16 -->
<g id="Node000016" class="node">
<title>Node16</title>
<g id="a_Node000016"><a xlink:href="../../d8/d30/decal-render-system_8cpp.html" target="_top" xlink:title=" ">
<polygon fill="white" stroke="#666666" points="1594.5,-91.38 1443.5,-91.38 1443.5,-60.88 1594.5,-60.88 1594.5,-91.38"/>
<text text-anchor="start" x="1451.5" y="-77.88" font-family="Helvetica,sans-Serif" font-size="10.00">engine/subsystems/render</text>
<text text-anchor="middle" x="1519" y="-66.62" font-family="Helvetica,sans-Serif" font-size="10.00">/detail/decal&#45;render&#45;system.cpp</text>
</a>
</g>
</g>
<!-- Node4&#45;&gt;Node16 -->
<g id="edge35_Node000004_Node000016" class="edge">
<title>Node4&#45;&gt;Node16</title>
<g id="a_edge35_Node000004_Node000016"><a xlink:title=" ">
<path fill="none" stroke="#63b8ff" d="M797.08,-334.9C827.39,-326.58 866.21,-313.82 898,-296.5 924.03,-282.32 923.84,-268.69 950,-254.75 1041.45,-206.03 1337.99,-124.84 1462.81,-91.8"/>
<polygon fill="#63b8ff" stroke="#63b8ff" points="796.5,-331.7 787.74,-337.66 798.3,-338.47 796.5,-331.7"/>
</a>
</g>
</g>
<!-- Node17 -->
<g id="Node000017" class="node">
<title>Node17</title>
<g id="a_Node000017"><a xlink:href="../../d1/d58/dissolution-render-system_8cpp.html" target="_top" xlink:title=" ">
<polygon fill="white" stroke="#666666" points="130,-97 0,-97 0,-55.25 130,-55.25 130,-97"/>
<text text-anchor="start" x="8" y="-83.5" font-family="Helvetica,sans-Serif" font-size="10.00">engine/subsystems/render</text>
<text text-anchor="start" x="8" y="-72.25" font-family="Helvetica,sans-Serif" font-size="10.00">/detail/dissolution&#45;render</text>
<text text-anchor="middle" x="65" y="-61" font-family="Helvetica,sans-Serif" font-size="10.00">&#45;system.cpp</text>
</a>
</g>
</g>
<!-- Node4&#45;&gt;Node17 -->
<g id="edge36_Node000004_Node000017" class="edge">
<title>Node4&#45;&gt;Node17</title>
<g id="a_edge36_Node000004_Node000017"><a xlink:title=" ">
<path fill="none" stroke="#63b8ff" d="M688.55,-335.04C657.96,-327.2 620.78,-314.88 591,-296.5 568.87,-282.84 570.9,-270.23 550,-254.75 479.52,-202.54 449.84,-209.26 375,-163.5 355.01,-151.28 353.47,-142.37 332,-133 327.32,-130.96 207.72,-106.3 130.19,-90.43"/>
<polygon fill="#63b8ff" stroke="#63b8ff" points="687.52,-338.64 698.07,-337.63 689.19,-331.84 687.52,-338.64"/>
</a>
</g>
</g>
<!-- Node21 -->
<g id="Node000021" class="node">
<title>Node21</title>
<g id="a_Node000021"><a xlink:href="../../d3/dfe/particle-render-system_8cpp.html" target="_top" xlink:title=" ">
<polygon fill="white" stroke="#666666" points="597,-97 467,-97 467,-55.25 597,-55.25 597,-97"/>
<text text-anchor="start" x="475" y="-83.5" font-family="Helvetica,sans-Serif" font-size="10.00">engine/subsystems/render</text>
<text text-anchor="start" x="475" y="-72.25" font-family="Helvetica,sans-Serif" font-size="10.00">/detail/particle&#45;render</text>
<text text-anchor="middle" x="532" y="-61" font-family="Helvetica,sans-Serif" font-size="10.00">&#45;system.cpp</text>
</a>
</g>
</g>
<!-- Node4&#45;&gt;Node21 -->
<g id="edge39_Node000004_Node000021" class="edge">
<title>Node4&#45;&gt;Node21</title>
<g id="a_edge39_Node000004_Node000021"><a xlink:title=" ">
<path fill="none" stroke="#63b8ff" d="M693.92,-334.44C670.66,-326.79 644.51,-314.81 626,-296.5 567.81,-238.96 543.46,-139.63 535.37,-97.24"/>
<polygon fill="#63b8ff" stroke="#63b8ff" points="692.77,-338.06 703.36,-337.66 694.84,-331.37 692.77,-338.06"/>
</a>
</g>
</g>
<!-- Node22 -->
<g id="Node000022" class="node">
<title>Node22</title>
<g id="a_Node000022"><a xlink:href="../../d9/d06/render-pipeline_8hpp.html" target="_top" xlink:title=" ">
<polygon fill="white" stroke="#666666" points="735,-290.88 635,-290.88 635,-260.38 735,-260.38 735,-290.88"/>
<text text-anchor="start" x="643" y="-277.38" font-family="Helvetica,sans-Serif" font-size="10.00">engine/core/layers</text>
<text text-anchor="middle" x="685" y="-266.12" font-family="Helvetica,sans-Serif" font-size="10.00">/render&#45;pipeline.hpp</text>
</a>
</g>
</g>
<!-- Node4&#45;&gt;Node22 -->
<g id="edge26_Node000004_Node000022" class="edge">
<title>Node4&#45;&gt;Node22</title>
<g id="a_edge26_Node000004_Node000022"><a xlink:title=" ">
<path fill="none" stroke="#63b8ff" d="M731.96,-329.74C721.56,-317.98 707.88,-302.5 697.97,-291.29"/>
<polygon fill="#63b8ff" stroke="#63b8ff" points="728.9,-331.7 738.15,-336.87 734.15,-327.06 728.9,-331.7"/>
</a>
</g>
</g>
<!-- Node25 -->
<g id="Node000025" class="node">
<title>Node25</title>
<g id="a_Node000025"><a xlink:href="../../d4/d7c/deferred-resolve_8cpp.html" target="_top" xlink:title=" ">
<polygon fill="white" stroke="#666666" points="865.38,-290.88 752.62,-290.88 752.62,-260.38 865.38,-260.38 865.38,-290.88"/>
<text text-anchor="start" x="760.62" y="-277.38" font-family="Helvetica,sans-Serif" font-size="10.00">engine/render/deferred</text>
<text text-anchor="middle" x="809" y="-266.12" font-family="Helvetica,sans-Serif" font-size="10.00">&#45;resolve.cpp</text>
</a>
</g>
</g>
<!-- Node4&#45;&gt;Node25 -->
<g id="edge33_Node000004_Node000025" class="edge">
<title>Node4&#45;&gt;Node25</title>
<g id="a_edge33_Node000004_Node000025"><a xlink:title=" ">
<path fill="none" stroke="#63b8ff" d="M762.04,-329.74C772.44,-317.98 786.12,-302.5 796.03,-291.29"/>
<polygon fill="#63b8ff" stroke="#63b8ff" points="759.85,-327.06 755.85,-336.87 765.1,-331.7 759.85,-327.06"/>
</a>
</g>
</g>
<!-- Node4&#45;&gt;Node26 -->
<g id="edge34_Node000004_Node000026" class="edge">
<title>Node4&#45;&gt;Node26</title>
<g id="a_edge34_Node000004_Node000026"><a xlink:title=" ">
<path fill="none" stroke="#63b8ff" d="M701.26,-334.91C647.57,-321.02 559.69,-298.28 511.09,-285.7"/>
<polygon fill="#63b8ff" stroke="#63b8ff" points="700.29,-338.54 710.85,-337.65 702.04,-331.76 700.29,-338.54"/>
</a>
</g>
</g>
<!-- Node27 -->
<g id="Node000027" class="node">
<title>Node27</title>
<g id="a_Node000027"><a xlink:href="../../d8/dcb/emissive-render-system_8cpp.html" target="_top" xlink:title=" ">
<polygon fill="white" stroke="#666666" points="1089,-296.5 959,-296.5 959,-254.75 1089,-254.75 1089,-296.5"/>
<text text-anchor="start" x="967" y="-283" font-family="Helvetica,sans-Serif" font-size="10.00">engine/subsystems/render</text>
<text text-anchor="start" x="967" y="-271.75" font-family="Helvetica,sans-Serif" font-size="10.00">/detail/emissive&#45;render</text>
<text text-anchor="middle" x="1024" y="-260.5" font-family="Helvetica,sans-Serif" font-size="10.00">&#45;system.cpp</text>
</a>
</g>
</g>
<!-- Node4&#45;&gt;Node27 -->
<g id="edge37_Node000004_Node000027" class="edge">
<title>Node4&#45;&gt;Node27</title>
<g id="a_edge37_Node000004_Node000027"><a xlink:title=" ">
<path fill="none" stroke="#63b8ff" d="M793.33,-335.02C838.59,-323.56 907.9,-306.02 958.73,-293.15"/>
<polygon fill="#63b8ff" stroke="#63b8ff" points="792.76,-331.81 783.93,-337.65 794.48,-338.59 792.76,-331.81"/>
</a>
</g>
</g>
<!-- Node4&#45;&gt;Node28 -->
<g id="edge38_Node000004_Node000028" class="edge">
<title>Node4&#45;&gt;Node28</title>
<g id="a_edge38_Node000004_Node000028"><a xlink:title=" ">
<path fill="none" stroke="#63b8ff" d="M679.11,-337.7C582.12,-324.77 404.22,-301.05 300.97,-287.29"/>
<polygon fill="#63b8ff" stroke="#63b8ff" points="678.58,-341.29 688.96,-339.15 679.51,-334.35 678.58,-341.29"/>
</a>
</g>
</g>
<!-- Node6 -->
<g id="Node000006" class="node">
<title>Node6</title>
<g id="a_Node000006"><a xlink:href="../../d0/d86/camera-movement_8hpp.html" target="_top" xlink:title=" ">
<polygon fill="white" stroke="#666666" points="808.75,-85.75 653.25,-85.75 653.25,-66.5 808.75,-66.5 808.75,-85.75"/>
<text text-anchor="middle" x="731" y="-72.25" font-family="Helvetica,sans-Serif" font-size="10.00">d3d_test/camera&#45;movement.hpp</text>
</a>
</g>
</g>
<!-- Node5&#45;&gt;Node6 -->
<g id="edge5_Node000005_Node000006" class="edge">
<title>Node5&#45;&gt;Node6</title>
<g id="a_edge5_Node000005_Node000006"><a xlink:title=" ">
<path fill="none" stroke="#63b8ff" d="M862.34,-133.98C830.06,-120.01 780.11,-98.38 752.02,-86.23"/>
<polygon fill="#63b8ff" stroke="#63b8ff" points="860.59,-137.47 871.15,-138.23 863.37,-131.04 860.59,-137.47"/>
</a>
</g>
</g>
<!-- Node8 -->
<g id="Node000008" class="node">
<title>Node8</title>
<g id="a_Node000008"><a xlink:href="../../dc/dfb/controller_8hpp.html" target="_top" xlink:title=" ">
<polygon fill="white" stroke="#666666" points="449.12,-85.75 334.88,-85.75 334.88,-66.5 449.12,-66.5 449.12,-85.75"/>
<text text-anchor="middle" x="392" y="-72.25" font-family="Helvetica,sans-Serif" font-size="10.00">d3d_test/controller.hpp</text>
</a>
</g>
</g>
<!-- Node5&#45;&gt;Node8 -->
<g id="edge8_Node000005_Node000008" class="edge">
<title>Node5&#45;&gt;Node8</title>
<g id="a_edge8_Node000005_Node000008"><a xlink:title=" ">
<path fill="none" stroke="#63b8ff" d="M823.81,-143.06C737.49,-136.97 585.67,-123.38 458,-97 444.76,-94.26 430.35,-90.07 418.38,-86.24"/>
<polygon fill="#63b8ff" stroke="#63b8ff" points="823.56,-146.62 833.78,-143.82 824.05,-139.64 823.56,-146.62"/>
</a>
</g>
</g>
<!-- Node9 -->
<g id="Node000009" class="node">
<title>Node9</title>
<g id="a_Node000009"><a xlink:href="../../d9/d0f/main_8cc.html" target="_top" xlink:title=" ">
<polygon fill="white" stroke="#666666" points="437.12,-19.25 346.88,-19.25 346.88,0 437.12,0 437.12,-19.25"/>
<text text-anchor="middle" x="392" y="-5.75" font-family="Helvetica,sans-Serif" font-size="10.00">d3d_test/main.cc</text>
</a>
</g>
</g>
<!-- Node5&#45;&gt;Node9 -->
<g id="edge11_Node000005_Node000009" class="edge">
<title>Node5&#45;&gt;Node9</title>
<g id="a_edge11_Node000005_Node000009"><a xlink:title=" ">
<path fill="none" stroke="#63b8ff" d="M823.96,-144.84C771.6,-140.38 699.43,-128.42 644,-97 622.17,-84.63 627.79,-67.69 606,-55.25 553.27,-25.13 482.86,-15.23 437.47,-12.04"/>
<polygon fill="#63b8ff" stroke="#63b8ff" points="823.58,-148.4 833.82,-145.68 824.12,-141.42 823.58,-148.4"/>
</a>
</g>
</g>
<!-- Node10 -->
<g id="Node000010" class="node">
<title>Node10</title>
<g id="a_Node000010"><a xlink:href="../../da/df5/object-editor_8hpp.html" target="_top" xlink:title=" ">
<polygon fill="white" stroke="#666666" points="1276.88,-85.75 1149.12,-85.75 1149.12,-66.5 1276.88,-66.5 1276.88,-85.75"/>
<text text-anchor="middle" x="1213" y="-72.25" font-family="Helvetica,sans-Serif" font-size="10.00">d3d_test/object&#45;editor.hpp</text>
</a>
</g>
</g>
<!-- Node5&#45;&gt;Node10 -->
<g id="edge12_Node000005_Node000010" class="edge">
<title>Node5&#45;&gt;Node10</title>
<g id="a_edge12_Node000005_Node000010"><a xlink:title=" ">
<path fill="none" stroke="#63b8ff" d="M945.04,-135.85C1008.24,-122 1113.58,-98.91 1171.57,-86.2"/>
<polygon fill="#63b8ff" stroke="#63b8ff" points="944.53,-132.59 935.51,-138.15 946.02,-139.43 944.53,-132.59"/>
</a>
</g>
</g>
<!-- Node13 -->
<g id="Node000013" class="node">
<title>Node13</title>
<g id="a_Node000013"><a xlink:href="../../d9/d55/scene-viewer_8hpp.html" target="_top" xlink:title=" ">
<polygon fill="white" stroke="#666666" points="959.12,-85.75 826.88,-85.75 826.88,-66.5 959.12,-66.5 959.12,-85.75"/>
<text text-anchor="middle" x="893" y="-72.25" font-family="Helvetica,sans-Serif" font-size="10.00">d3d_test/scene&#45;viewer.hpp</text>
</a>
</g>
</g>
<!-- Node5&#45;&gt;Node13 -->
<g id="edge16_Node000005_Node000013" class="edge">
<title>Node5&#45;&gt;Node13</title>
<g id="a_edge16_Node000005_Node000013"><a xlink:title=" ">
<path fill="none" stroke="#63b8ff" d="M893,-127.7C893,-114.1 893,-96.6 893,-86.16"/>
<polygon fill="#63b8ff" stroke="#63b8ff" points="889.5,-127.37 893,-137.37 896.5,-127.37 889.5,-127.37"/>
</a>
</g>
</g>
<!-- Node14 -->
<g id="Node000014" class="node">
<title>Node14</title>
<g id="a_Node000014"><a xlink:href="../../da/d5c/engine_8cpp.html" target="_top" xlink:title=" ">
<polygon fill="white" stroke="#666666" points="1092.88,-85.75 977.12,-85.75 977.12,-66.5 1092.88,-66.5 1092.88,-85.75"/>
<text text-anchor="middle" x="1035" y="-72.25" font-family="Helvetica,sans-Serif" font-size="10.00">engine/core/engine.cpp</text>
</a>
</g>
</g>
<!-- Node5&#45;&gt;Node14 -->
<g id="edge18_Node000005_Node000014" class="edge">
<title>Node5&#45;&gt;Node14</title>
<g id="a_edge18_Node000005_Node000014"><a xlink:title=" ">
<path fill="none" stroke="#63b8ff" d="M921.01,-133.42C949.42,-119.39 992.55,-98.09 1016.8,-86.11"/>
<polygon fill="#63b8ff" stroke="#63b8ff" points="919.69,-130.66 912.27,-138.23 922.79,-136.94 919.69,-130.66"/>
</a>
</g>
</g>
<!-- Node15 -->
<g id="Node000015" class="node">
<title>Node15</title>
<g id="a_Node000015"><a xlink:href="../../d1/da2/deferred-hdr-render-pipeline_8cpp.html" target="_top" xlink:title=" ">
<polygon fill="white" stroke="#666666" points="316.38,-91.38 185.62,-91.38 185.62,-60.88 316.38,-60.88 316.38,-91.38"/>
<text text-anchor="start" x="193.62" y="-77.88" font-family="Helvetica,sans-Serif" font-size="10.00">engine/direct3d11/deferred</text>
<text text-anchor="middle" x="251" y="-66.62" font-family="Helvetica,sans-Serif" font-size="10.00">&#45;hdr&#45;render&#45;pipeline.cpp</text>
</a>
</g>
</g>
<!-- Node5&#45;&gt;Node15 -->
<g id="edge19_Node000005_Node000015" class="edge">
<title>Node5&#45;&gt;Node15</title>
<g id="a_edge19_Node000005_Node000015"><a xlink:title=" ">
<path fill="none" stroke="#63b8ff" d="M824.05,-144.93C716.82,-140.48 503.91,-128.22 326,-97 318.04,-95.6 309.69,-93.77 301.57,-91.78"/>
<polygon fill="#63b8ff" stroke="#63b8ff" points="823.9,-148.47 834.03,-145.38 824.18,-141.47 823.9,-148.47"/>
</a>
</g>
</g>
<!-- Node5&#45;&gt;Node16 -->
<g id="edge20_Node000005_Node000016" class="edge">
<title>Node5&#45;&gt;Node16</title>
<g id="a_edge20_Node000005_Node000016"><a xlink:title=" ">
<path fill="none" stroke="#63b8ff" d="M961.86,-143.88C1065.02,-138.16 1265.56,-124.38 1434,-97 1442.68,-95.59 1451.78,-93.8 1460.68,-91.87"/>
<polygon fill="#63b8ff" stroke="#63b8ff" points="961.77,-140.44 951.98,-144.48 962.15,-147.43 961.77,-140.44"/>
</a>
</g>
</g>
<!-- Node5&#45;&gt;Node17 -->
<g id="edge21_Node000005_Node000017" class="edge">
<title>Node5&#45;&gt;Node17</title>
<g id="a_edge21_Node000005_Node000017"><a xlink:title=" ">
<path fill="none" stroke="#63b8ff" d="M824,-144.83C696.04,-139.81 413.43,-126.19 177,-97 161.81,-95.12 145.55,-92.56 130.27,-89.9"/>
<polygon fill="#63b8ff" stroke="#63b8ff" points="823.67,-148.36 833.79,-145.25 823.94,-141.36 823.67,-148.36"/>
</a>
</g>
</g>
<!-- Node18 -->
<g id="Node000018" class="node">
<title>Node18</title>
<g id="a_Node000018"><a xlink:href="../../d2/d11/emissive-particle-render-system_8cpp.html" target="_top" xlink:title=" ">
<polygon fill="white" stroke="#666666" points="1425,-97 1295,-97 1295,-55.25 1425,-55.25 1425,-97"/>
<text text-anchor="start" x="1303" y="-83.5" font-family="Helvetica,sans-Serif" font-size="10.00">engine/subsystems/render</text>
<text text-anchor="start" x="1303" y="-72.25" font-family="Helvetica,sans-Serif" font-size="10.00">/detail/emissive&#45;particle</text>
<text text-anchor="middle" x="1360" y="-61" font-family="Helvetica,sans-Serif" font-size="10.00">&#45;render&#45;system.cpp</text>
</a>
</g>
</g>
<!-- Node5&#45;&gt;Node18 -->
<g id="edge22_Node000005_Node000018" class="edge">
<title>Node5&#45;&gt;Node18</title>
<g id="a_edge22_Node000005_Node000018"><a xlink:title=" ">
<path fill="none" stroke="#63b8ff" d="M962.09,-141.27C1040.94,-133.78 1173.53,-119.19 1286,-97 1288.87,-96.43 1291.8,-95.82 1294.74,-95.17"/>
<polygon fill="#63b8ff" stroke="#63b8ff" points="961.96,-137.86 952.33,-142.28 962.61,-144.83 961.96,-137.86"/>
</a>
</g>
</g>
<!-- Node19 -->
<g id="Node000019" class="node">
<title>Node19</title>
<g id="a_Node000019"><a xlink:href="../../df/d58/grass-render-system_8cpp.html" target="_top" xlink:title=" ">
<polygon fill="white" stroke="#666666" points="1763.88,-91.38 1612.12,-91.38 1612.12,-60.88 1763.88,-60.88 1763.88,-91.38"/>
<text text-anchor="start" x="1620.12" y="-77.88" font-family="Helvetica,sans-Serif" font-size="10.00">engine/subsystems/render</text>
<text text-anchor="middle" x="1688" y="-66.62" font-family="Helvetica,sans-Serif" font-size="10.00">/detail/grass&#45;render&#45;system.cpp</text>
</a>
</g>
</g>
<!-- Node5&#45;&gt;Node19 -->
<g id="edge23_Node000005_Node000019" class="edge">
<title>Node5&#45;&gt;Node19</title>
<g id="a_edge23_Node000005_Node000019"><a xlink:title=" ">
<path fill="none" stroke="#63b8ff" d="M962.07,-146C1089.46,-142.9 1369.71,-132.3 1603,-97 1611.99,-95.64 1621.44,-93.83 1630.63,-91.84"/>
<polygon fill="#63b8ff" stroke="#63b8ff" points="962.24,-142.52 952.33,-146.26 962.41,-149.52 962.24,-142.52"/>
</a>
</g>
</g>
<!-- Node5&#45;&gt;Node20 -->
<g id="edge24_Node000005_Node000020" class="edge">
<title>Node5&#45;&gt;Node20</title>
<g id="a_edge24_Node000005_Node000020"><a xlink:title=" ">
<path fill="none" stroke="#63b8ff" d="M962.07,-147.53C1111.06,-147.22 1473.41,-141.49 1773,-97 1781.84,-95.69 1791.12,-93.87 1800.13,-91.87"/>
<polygon fill="#63b8ff" stroke="#63b8ff" points="962.28,-144.03 952.29,-147.55 962.29,-151.03 962.28,-144.03"/>
</a>
</g>
</g>
<!-- Node5&#45;&gt;Node21 -->
<g id="edge25_Node000005_Node000021" class="edge">
<title>Node5&#45;&gt;Node21</title>
<g id="a_edge25_Node000005_Node000021"><a xlink:title=" ">
<path fill="none" stroke="#63b8ff" d="M824.25,-136.38C766.98,-127 683.4,-112.54 611,-97 606.58,-96.05 602.02,-95.03 597.44,-93.96"/>
<polygon fill="#63b8ff" stroke="#63b8ff" points="823.55,-139.98 833.98,-138.13 824.67,-133.07 823.55,-139.98"/>
</a>
</g>
</g>
<!-- Node6&#45;&gt;Node3 -->
<g id="edge7_Node000006_Node000003" class="edge">
<title>Node6&#45;&gt;Node3</title>
<g id="a_edge7_Node000006_Node000003"><a xlink:title=" ">
<path fill="none" stroke="#63b8ff" d="M763.96,-62C795.61,-49.4 842.56,-30.71 870.25,-19.68"/>
<polygon fill="#63b8ff" stroke="#63b8ff" points="762.86,-59.07 754.87,-66.02 765.45,-65.57 762.86,-59.07"/>
</a>
</g>
</g>
<!-- Node7 -->
<g id="Node000007" class="node">
<title>Node7</title>
<g id="a_Node000007"><a xlink:href="../../d5/dbb/camera-movement_8cpp.html" target="_top" xlink:title=" ">
<polygon fill="white" stroke="#666666" points="808.75,-19.25 653.25,-19.25 653.25,0 808.75,0 808.75,-19.25"/>
<text text-anchor="middle" x="731" y="-5.75" font-family="Helvetica,sans-Serif" font-size="10.00">d3d_test/camera&#45;movement.cpp</text>
</a>
</g>
</g>
<!-- Node6&#45;&gt;Node7 -->
<g id="edge6_Node000006_Node000007" class="edge">
<title>Node6&#45;&gt;Node7</title>
<g id="a_edge6_Node000006_Node000007"><a xlink:title=" ">
<path fill="none" stroke="#63b8ff" d="M731,-55.4C731,-43.43 731,-28.73 731,-19.52"/>
<polygon fill="#63b8ff" stroke="#63b8ff" points="727.5,-55.16 731,-65.16 734.5,-55.16 727.5,-55.16"/>
</a>
</g>
</g>
<!-- Node8&#45;&gt;Node3 -->
<g id="edge9_Node000008_Node000003" class="edge">
<title>Node8&#45;&gt;Node3</title>
<g id="a_edge9_Node000008_Node000003"><a xlink:title=" ">
<path fill="none" stroke="#63b8ff" d="M428.4,-62.8C437.94,-59.94 448.28,-57.18 458,-55.25 615.72,-23.92 658.12,-36.44 818,-19.25 823.73,-18.63 829.71,-17.97 835.68,-17.31"/>
<polygon fill="#63b8ff" stroke="#63b8ff" points="427.55,-59.71 419.04,-66.02 429.63,-66.39 427.55,-59.71"/>
</a>
</g>
</g>
<!-- Node8&#45;&gt;Node9 -->
<g id="edge10_Node000008_Node000009" class="edge">
<title>Node8&#45;&gt;Node9</title>
<g id="a_edge10_Node000008_Node000009"><a xlink:title=" ">
<path fill="none" stroke="#63b8ff" d="M392,-55.4C392,-43.43 392,-28.73 392,-19.52"/>
<polygon fill="#63b8ff" stroke="#63b8ff" points="388.5,-55.16 392,-65.16 395.5,-55.16 388.5,-55.16"/>
</a>
</g>
</g>
<!-- Node10&#45;&gt;Node3 -->
<g id="edge13_Node000010_Node000003" class="edge">
<title>Node10&#45;&gt;Node3</title>
<g id="a_edge13_Node000010_Node000003"><a xlink:title=" ">
<path fill="none" stroke="#63b8ff" d="M1169.02,-63.37C1157.95,-60.56 1146.07,-57.68 1135,-55.25 1071.15,-41.25 997.18,-28.04 947.99,-19.68"/>
<polygon fill="#63b8ff" stroke="#63b8ff" points="1167.78,-66.92 1178.33,-66.02 1169.52,-60.14 1167.78,-66.92"/>
</a>
</g>
</g>
<!-- Node11 -->
<g id="Node000011" class="node">
<title>Node11</title>
<g id="a_Node000011"><a xlink:href="../../d4/d94/object-editor_8cpp.html" target="_top" xlink:title=" ">
<polygon fill="white" stroke="#666666" points="1202.88,-19.25 1075.12,-19.25 1075.12,0 1202.88,0 1202.88,-19.25"/>
<text text-anchor="middle" x="1139" y="-5.75" font-family="Helvetica,sans-Serif" font-size="10.00">d3d_test/object&#45;editor.cpp</text>
</a>
</g>
</g>
<!-- Node10&#45;&gt;Node11 -->
<g id="edge14_Node000010_Node000011" class="edge">
<title>Node10&#45;&gt;Node11</title>
<g id="a_edge14_Node000010_Node000011"><a xlink:title=" ">
<path fill="none" stroke="#63b8ff" d="M1194.55,-59.04C1180.21,-46.55 1160.87,-29.69 1149.2,-19.52"/>
<polygon fill="#63b8ff" stroke="#63b8ff" points="1191.87,-62.22 1201.71,-66.16 1196.47,-56.95 1191.87,-62.22"/>
</a>
</g>
</g>
<!-- Node12 -->
<g id="Node000012" class="node">
<title>Node12</title>
<g id="a_Node000012"><a xlink:href="../../d0/d38/scene-viewer_8cpp.html" target="_top" xlink:title=" ">
<polygon fill="white" stroke="#666666" points="1353.12,-19.25 1220.88,-19.25 1220.88,0 1353.12,0 1353.12,-19.25"/>
<text text-anchor="middle" x="1287" y="-5.75" font-family="Helvetica,sans-Serif" font-size="10.00">d3d_test/scene&#45;viewer.cpp</text>
</a>
</g>
</g>
<!-- Node10&#45;&gt;Node12 -->
<g id="edge15_Node000010_Node000012" class="edge">
<title>Node10&#45;&gt;Node12</title>
<g id="a_edge15_Node000010_Node000012"><a xlink:title=" ">
<path fill="none" stroke="#63b8ff" d="M1231.45,-59.04C1245.79,-46.55 1265.13,-29.69 1276.8,-19.52"/>
<polygon fill="#63b8ff" stroke="#63b8ff" points="1229.53,-56.95 1224.29,-66.16 1234.13,-62.22 1229.53,-56.95"/>
</a>
</g>
</g>
<!-- Node13&#45;&gt;Node3 -->
<g id="edge17_Node000013_Node000003" class="edge">
<title>Node13&#45;&gt;Node3</title>
<g id="a_edge17_Node000013_Node000003"><a xlink:title=" ">
<path fill="none" stroke="#63b8ff" d="M893,-55.4C893,-43.43 893,-28.73 893,-19.52"/>
<polygon fill="#63b8ff" stroke="#63b8ff" points="889.5,-55.16 893,-65.16 896.5,-55.16 889.5,-55.16"/>
</a>
</g>
</g>
<!-- Node23 -->
<g id="Node000023" class="node">
<title>Node23</title>
<g id="a_Node000023"><a xlink:href="../../d4/d87/layers_8hpp.html" target="_top" xlink:title=" ">
<polygon fill="white" stroke="#666666" points="806.38,-218.75 693.62,-218.75 693.62,-199.5 806.38,-199.5 806.38,-218.75"/>
<text text-anchor="middle" x="750" y="-205.25" font-family="Helvetica,sans-Serif" font-size="10.00">engine/core/layers.hpp</text>
</a>
</g>
</g>
<!-- Node22&#45;&gt;Node23 -->
<g id="edge27_Node000022_Node000023" class="edge">
<title>Node22&#45;&gt;Node23</title>
<g id="a_edge27_Node000022_Node000023"><a xlink:title=" ">
<path fill="none" stroke="#63b8ff" d="M707.38,-252.41C718.97,-240.92 732.46,-227.53 741.11,-218.95"/>
<polygon fill="#63b8ff" stroke="#63b8ff" points="705.38,-249.46 700.75,-258.99 710.31,-254.43 705.38,-249.46"/>
</a>
</g>
</g>
<!-- Node22&#45;&gt;Node24 -->
<g id="edge29_Node000022_Node000024" class="edge">
<title>Node22&#45;&gt;Node24</title>
<g id="a_edge29_Node000022_Node000024"><a xlink:title=" ">
<path fill="none" stroke="#63b8ff" d="M647.87,-254.9C600.37,-229.66 519.18,-186.53 476.72,-163.98"/>
<polygon fill="#63b8ff" stroke="#63b8ff" points="645.99,-258.4 656.47,-260 649.28,-252.22 645.99,-258.4"/>
</a>
</g>
</g>
<!-- Node23&#45;&gt;Node5 -->
<g id="edge28_Node000023_Node000005" class="edge">
<title>Node23&#45;&gt;Node5</title>
<g id="a_edge28_Node000023_Node000005"><a xlink:title=" ">
<path fill="none" stroke="#63b8ff" d="M781.84,-195.01C809.02,-183.83 847.37,-168.04 871.18,-158.23"/>
<polygon fill="#63b8ff" stroke="#63b8ff" points="780.94,-192.01 773.03,-199.05 783.61,-198.48 780.94,-192.01"/>
</a>
</g>
</g>
<!-- Node24&#45;&gt;Node8 -->
<g id="edge30_Node000024_Node000008" class="edge">
<title>Node24&#45;&gt;Node8</title>
<g id="a_edge30_Node000024_Node000008"><a xlink:title=" ">
<path fill="none" stroke="#63b8ff" d="M430.54,-124.54C419.82,-111.36 406.94,-95.51 399.12,-85.88"/>
<polygon fill="#63b8ff" stroke="#63b8ff" points="428.17,-126.17 437.19,-131.72 433.6,-121.75 428.17,-126.17"/>
</a>
</g>
</g>
<!-- Node24&#45;&gt;Node9 -->
<g id="edge31_Node000024_Node000009" class="edge">
<title>Node24&#45;&gt;Node9</title>
<g id="a_edge31_Node000024_Node000009"><a xlink:title=" ">
<path fill="none" stroke="#63b8ff" d="M372.84,-133.48C292.65,-118.93 177.8,-97.96 177,-97 128.18,-38.33 269.85,-19.18 346.45,-13.2"/>
<polygon fill="#63b8ff" stroke="#63b8ff" points="371.95,-137.05 382.41,-135.39 373.2,-130.17 371.95,-137.05"/>
</a>
</g>
</g>
<!-- Node24&#45;&gt;Node15 -->
<g id="edge32_Node000024_Node000015" class="edge">
<title>Node24&#45;&gt;Node15</title>
<g id="a_edge32_Node000024_Node000015"><a xlink:title=" ">
<path fill="none" stroke="#63b8ff" d="M397.23,-128.91C364.56,-117.34 322.93,-102.6 292.45,-91.81"/>
<polygon fill="#63b8ff" stroke="#63b8ff" points="395.9,-132.51 406.49,-132.55 398.23,-125.91 395.9,-132.51"/>
</a>
</g>
</g>
<!-- Node29&#45;&gt;Node2 -->
<g id="edge43_Node000029_Node000002" class="edge">
<title>Node29&#45;&gt;Node2</title>
<g id="a_edge43_Node000029_Node000002"><a xlink:title=" ">
<path fill="none" stroke="#63b8ff" d="M1372.22,-468.42C1367.42,-467.4 1362.64,-466.41 1358,-465.5 1272.28,-448.66 1172.59,-433.5 1108.7,-424.33"/>
<polygon fill="#63b8ff" stroke="#63b8ff" points="1371.23,-472.01 1381.75,-470.73 1372.73,-465.17 1371.23,-472.01"/>
</a>
</g>
</g>
<!-- Node29&#45;&gt;Node16 -->
<g id="edge44_Node000029_Node000016" class="edge">
<title>Node29&#45;&gt;Node16</title>
<g id="a_edge44_Node000029_Node000016"><a xlink:title=" ">
<path fill="none" stroke="#63b8ff" d="M1515.12,-468.21C1519.14,-467.28 1523.12,-466.38 1527,-465.5 1601.49,-448.71 1638.94,-481.35 1695,-429.5 1722.48,-404.08 1719,-386.19 1719,-348.75 1719,-348.75 1719,-348.75 1719,-208.12 1719,-169.11 1611.14,-116.75 1553.84,-91.68"/>
<polygon fill="#63b8ff" stroke="#63b8ff" points="1514.39,-465.01 1505.44,-470.68 1515.97,-471.83 1514.39,-465.01"/>
</a>
</g>
</g>
<!-- Node30&#45;&gt;Node2 -->
<g id="edge46_Node000030_Node000002" class="edge">
<title>Node30&#45;&gt;Node2</title>
<g id="a_edge46_Node000030_Node000002"><a xlink:title=" ">
<path fill="none" stroke="#63b8ff" d="M1090.32,-536.72C1079.59,-528.54 1069.2,-518.63 1062,-507.25 1045.09,-480.51 1042.9,-441.46 1042.83,-424.12"/>
<polygon fill="#63b8ff" stroke="#63b8ff" points="1087.78,-539.93 1097.95,-542.91 1091.86,-534.24 1087.78,-539.93"/>
</a>
</g>
</g>
<!-- Node30&#45;&gt;Node17 -->
<g id="edge47_Node000030_Node000017" class="edge">
<title>Node30&#45;&gt;Node17</title>
<g id="a_edge47_Node000030_Node000017"><a xlink:title=" ">
<path fill="none" stroke="#63b8ff" d="M1060,-560.48C817.96,-551.04 81,-514.18 81,-415.25 81,-415.25 81,-415.25 81,-208.12 81,-168.72 73.78,-123.13 69.04,-97.45"/>
<polygon fill="#63b8ff" stroke="#63b8ff" points="1059.67,-564 1069.8,-560.89 1059.94,-557.01 1059.67,-564"/>
</a>
</g>
</g>
<!-- Node31 -->
<g id="Node000031" class="node">
<title>Node31</title>
<g id="a_Node000031"><a xlink:href="../../df/d79/emissive-particle-render-system_8hpp.html" target="_top" xlink:title=" ">
<polygon fill="white" stroke="#666666" points="1201,-507.25 1071,-507.25 1071,-465.5 1201,-465.5 1201,-507.25"/>
<text text-anchor="start" x="1079" y="-493.75" font-family="Helvetica,sans-Serif" font-size="10.00">engine/subsystems/render</text>
<text text-anchor="start" x="1079" y="-482.5" font-family="Helvetica,sans-Serif" font-size="10.00">/detail/emissive&#45;particle</text>
<text text-anchor="middle" x="1136" y="-471.25" font-family="Helvetica,sans-Serif" font-size="10.00">&#45;render&#45;system.hpp</text>
</a>
</g>
</g>
<!-- Node30&#45;&gt;Node31 -->
<g id="edge48_Node000030_Node000031" class="edge">
<title>Node30&#45;&gt;Node31</title>
<g id="a_edge48_Node000030_Node000031"><a xlink:title=" ">
<path fill="none" stroke="#63b8ff" d="M1136,-532.06C1136,-523.86 1136,-515.21 1136,-507.73"/>
<polygon fill="#63b8ff" stroke="#63b8ff" points="1132.5,-531.83 1136,-541.83 1139.5,-531.83 1132.5,-531.83"/>
</a>
</g>
</g>
<!-- Node30&#45;&gt;Node32 -->
<g id="edge51_Node000030_Node000032" class="edge">
<title>Node30&#45;&gt;Node32</title>
<g id="a_edge51_Node000030_Node000032"><a xlink:title=" ">
<path fill="none" stroke="#63b8ff" d="M1185.39,-537.85C1208.69,-525.92 1235.65,-512.12 1255.49,-501.96"/>
<polygon fill="#63b8ff" stroke="#63b8ff" points="1183.97,-535.15 1176.66,-542.83 1187.16,-541.38 1183.97,-535.15"/>
</a>
</g>
</g>
<!-- Node31&#45;&gt;Node2 -->
<g id="edge49_Node000031_Node000002" class="edge">
<title>Node31&#45;&gt;Node2</title>
<g id="a_edge49_Node000031_Node000002"><a xlink:title=" ">
<path fill="none" stroke="#63b8ff" d="M1100.35,-458.5C1084.17,-446.29 1066.12,-432.68 1054.67,-424.05"/>
<polygon fill="#63b8ff" stroke="#63b8ff" points="1098.01,-461.87 1108.1,-465.09 1102.22,-456.28 1098.01,-461.87"/>
</a>
</g>
</g>
<!-- Node31&#45;&gt;Node18 -->
<g id="edge50_Node000031_Node000018" class="edge">
<title>Node31&#45;&gt;Node18</title>
<g id="a_edge50_Node000031_Node000018"><a xlink:title=" ">
<path fill="none" stroke="#63b8ff" d="M1145.06,-455.19C1154.99,-423.74 1172.31,-373.43 1193,-332.5 1239.84,-239.84 1312.85,-139.37 1344.5,-97.36"/>
<polygon fill="#63b8ff" stroke="#63b8ff" points="1141.48,-453.89 1141.86,-464.48 1148.17,-455.97 1141.48,-453.89"/>
</a>
</g>
</g>
<!-- Node32&#45;&gt;Node2 -->
<g id="edge52_Node000032_Node000002" class="edge">
<title>Node32&#45;&gt;Node2</title>
<g id="a_edge52_Node000032_Node000002"><a xlink:title=" ">
<path fill="none" stroke="#63b8ff" d="M1223.03,-467.63C1175.65,-453.85 1111.87,-435.29 1074.33,-424.36"/>
<polygon fill="#63b8ff" stroke="#63b8ff" points="1221.9,-471.24 1232.48,-470.67 1223.85,-464.52 1221.9,-471.24"/>
</a>
</g>
</g>
<!-- Node32&#45;&gt;Node16 -->
<g id="edge54_Node000032_Node000016" class="edge">
<title>Node32&#45;&gt;Node16</title>
<g id="a_edge54_Node000032_Node000016"><a xlink:title=" ">
<path fill="none" stroke="#63b8ff" d="M1309.43,-463.18C1319.32,-453.58 1330.14,-441.74 1338,-429.5 1377.46,-368.1 1398,-349.62 1398,-276.62 1398,-276.62 1398,-276.62 1398,-208.12 1398,-153.79 1454.87,-112.39 1490.63,-91.72"/>
<polygon fill="#63b8ff" stroke="#63b8ff" points="1307.33,-460.29 1302.43,-469.69 1312.12,-465.4 1307.33,-460.29"/>
</a>
</g>
</g>
<!-- Node32&#45;&gt;Node17 -->
<g id="edge55_Node000032_Node000017" class="edge">
<title>Node32&#45;&gt;Node17</title>
<g id="a_edge55_Node000032_Node000017"><a xlink:title=" ">
<path fill="none" stroke="#63b8ff" d="M1222.43,-468.2C1218.24,-467.23 1214.07,-466.32 1210,-465.5 875.4,-398.32 763.63,-495.2 449,-363 376.81,-332.67 372.6,-301.79 310,-254.75 232.51,-196.51 139.46,-129.96 93.53,-97.32"/>
<polygon fill="#63b8ff" stroke="#63b8ff" points="1221.31,-471.77 1231.85,-470.72 1222.95,-464.97 1221.31,-471.77"/>
</a>
</g>
</g>
<!-- Node32&#45;&gt;Node18 -->
<g id="edge56_Node000032_Node000018" class="edge">
<title>Node32&#45;&gt;Node18</title>
<g id="a_edge56_Node000032_Node000018"><a xlink:title=" ">
<path fill="none" stroke="#63b8ff" d="M1298.8,-461.72C1320.91,-424.04 1360,-347.43 1360,-276.62 1360,-276.62 1360,-276.62 1360,-208.12 1360,-168.78 1360,-122.79 1360,-97.1"/>
<polygon fill="#63b8ff" stroke="#63b8ff" points="1295.46,-459.48 1293.32,-469.85 1301.47,-463.08 1295.46,-459.48"/>
</a>
</g>
</g>
<!-- Node32&#45;&gt;Node20 -->
<g id="edge58_Node000032_Node000020" class="edge">
<title>Node32&#45;&gt;Node20</title>
<g id="a_edge58_Node000032_Node000020"><a xlink:title=" ">
<path fill="none" stroke="#63b8ff" d="M1345.33,-468.18C1349.6,-467.2 1353.86,-466.3 1358,-465.5 1424.8,-452.64 1605.62,-467.56 1662,-429.5 1726.17,-386.18 1824.18,-153 1849.09,-91.83"/>
<polygon fill="#63b8ff" stroke="#63b8ff" points="1344.64,-464.98 1335.73,-470.72 1346.27,-471.79 1344.64,-464.98"/>
</a>
</g>
</g>
<!-- Node32&#45;&gt;Node27 -->
<g id="edge57_Node000032_Node000027" class="edge">
<title>Node32&#45;&gt;Node27</title>
<g id="a_edge57_Node000032_Node000027"><a xlink:title=" ">
<path fill="none" stroke="#63b8ff" d="M1257.3,-463.94C1206.95,-423.52 1098.63,-336.54 1049.34,-296.97"/>
<polygon fill="#63b8ff" stroke="#63b8ff" points="1254.73,-467.16 1264.72,-470.7 1259.11,-461.71 1254.73,-467.16"/>
</a>
</g>
</g>
<!-- Node32&#45;&gt;Node28 -->
<g id="edge59_Node000032_Node000028" class="edge">
<title>Node32&#45;&gt;Node28</title>
<g id="a_edge59_Node000032_Node000028"><a xlink:title=" ">
<path fill="none" stroke="#63b8ff" d="M1225.04,-468.29C1219.98,-467.21 1214.92,-466.25 1210,-465.5 1111.61,-450.5 400.88,-479.8 315,-429.5 287.65,-413.48 244.38,-326.33 227.79,-291.25"/>
<polygon fill="#63b8ff" stroke="#63b8ff" points="1223.83,-471.83 1234.37,-470.67 1225.41,-465.01 1223.83,-471.83"/>
</a>
</g>
</g>
<!-- Node33 -->
<g id="Node000033" class="node">
<title>Node33</title>
<g id="a_Node000033"><a xlink:href="../../d6/dab/model-loader_8cpp.html" target="_top" xlink:title=" ">
<polygon fill="white" stroke="#666666" points="1504.88,-429.5 1383.12,-429.5 1383.12,-399 1504.88,-399 1504.88,-429.5"/>
<text text-anchor="start" x="1391.12" y="-416" font-family="Helvetica,sans-Serif" font-size="10.00">engine/subsystems/core</text>
<text text-anchor="middle" x="1444" y="-404.75" font-family="Helvetica,sans-Serif" font-size="10.00">/model&#45;loader.cpp</text>
</a>
</g>
</g>
<!-- Node32&#45;&gt;Node33 -->
<g id="edge53_Node000032_Node000033" class="edge">
<title>Node32&#45;&gt;Node33</title>
<g id="a_edge53_Node000032_Node000033"><a xlink:title=" ">
<path fill="none" stroke="#63b8ff" d="M1327.56,-466.28C1353.69,-454.83 1386.41,-440.49 1410.5,-429.93"/>
<polygon fill="#63b8ff" stroke="#63b8ff" points="1326.3,-463.45 1318.54,-470.67 1329.11,-469.87 1326.3,-463.45"/>
</a>
</g>
</g>
<!-- Node34 -->
<g id="Node000034" class="node">
<title>Node34</title>
<g id="a_Node000034"><a xlink:href="../../d3/d4f/model-system_8cpp.html" target="_top" xlink:title=" ">
<polygon fill="white" stroke="#666666" points="1653,-429.5 1523,-429.5 1523,-399 1653,-399 1653,-429.5"/>
<text text-anchor="start" x="1531" y="-416" font-family="Helvetica,sans-Serif" font-size="10.00">engine/subsystems/render</text>
<text text-anchor="middle" x="1588" y="-404.75" font-family="Helvetica,sans-Serif" font-size="10.00">/model&#45;system.cpp</text>
</a>
</g>
</g>
<!-- Node32&#45;&gt;Node34 -->
<g id="edge60_Node000032_Node000034" class="edge">
<title>Node32&#45;&gt;Node34</title>
<g id="a_edge60_Node000032_Node000034"><a xlink:title=" ">
<path fill="none" stroke="#63b8ff" d="M1348.25,-467.92C1351.54,-467.09 1354.81,-466.28 1358,-465.5 1413.4,-452.02 1476.72,-438.31 1522.88,-428.62"/>
<polygon fill="#63b8ff" stroke="#63b8ff" points="1347.49,-464.76 1338.68,-470.64 1349.23,-471.54 1347.49,-464.76"/>
</a>
</g>
</g>
<!-- Node35 -->
<g id="Node000035" class="node">
<title>Node35</title>
<g id="a_Node000035"><a xlink:href="../../d6/de4/subsystems_2render_2render_8hpp.html" target="_top" xlink:title=" ">
<polygon fill="white" stroke="#666666" points="1332,-363 1202,-363 1202,-332.5 1332,-332.5 1332,-363"/>
<text text-anchor="start" x="1210" y="-349.5" font-family="Helvetica,sans-Serif" font-size="10.00">engine/subsystems/render</text>
<text text-anchor="middle" x="1267" y="-338.25" font-family="Helvetica,sans-Serif" font-size="10.00">/render.hpp</text>
</a>
</g>
</g>
<!-- Node32&#45;&gt;Node35 -->
<g id="edge61_Node000032_Node000035" class="edge">
<title>Node32&#45;&gt;Node35</title>
<g id="a_edge61_Node000032_Node000035"><a xlink:title=" ">
<path fill="none" stroke="#63b8ff" d="M1280.85,-460.04C1277.3,-431.57 1271.67,-386.31 1268.81,-363.27"/>
<polygon fill="#63b8ff" stroke="#63b8ff" points="1277.47,-460.26 1282.18,-469.75 1284.42,-459.4 1277.47,-460.26"/>
</a>
</g>
</g>
<!-- Node35&#45;&gt;Node5 -->
<g id="edge62_Node000035_Node000005" class="edge">
<title>Node35&#45;&gt;Node5</title>
<g id="a_edge62_Node000035_Node000005"><a xlink:title=" ">
<path fill="none" stroke="#63b8ff" d="M1230.93,-326.8C1196.8,-308 1144.08,-279.15 1098,-254.75 1029.2,-218.32 946.61,-176.35 910.9,-158.28"/>
<polygon fill="#63b8ff" stroke="#63b8ff" points="1229.02,-330.29 1239.47,-332.06 1232.4,-324.16 1229.02,-330.29"/>
</a>
</g>
</g>
<!-- Node36&#45;&gt;Node2 -->
<g id="edge64_Node000036_Node000002" class="edge">
<title>Node36&#45;&gt;Node2</title>
<g id="a_edge64_Node000036_Node000002"><a xlink:title=" ">
<path fill="none" stroke="#63b8ff" d="M1543.19,-468.51C1537.73,-467.41 1532.28,-466.39 1527,-465.5 1378.5,-440.53 1202.15,-425.97 1108.72,-419.43"/>
<polygon fill="#63b8ff" stroke="#63b8ff" points="1542.16,-472.08 1552.67,-470.71 1543.6,-465.23 1542.16,-472.08"/>
</a>
</g>
</g>
<!-- Node36&#45;&gt;Node19 -->
<g id="edge65_Node000036_Node000019" class="edge">
<title>Node36&#45;&gt;Node19</title>
<g id="a_edge65_Node000036_Node000019"><a xlink:title=" ">
<path fill="none" stroke="#63b8ff" d="M1665.28,-466.34C1684.4,-457.47 1704.93,-445.31 1720,-429.5 1747.24,-400.93 1757,-388.23 1757,-348.75 1757,-348.75 1757,-348.75 1757,-208.12 1757,-161.08 1721.74,-114.36 1701.63,-91.53"/>
<polygon fill="#63b8ff" stroke="#63b8ff" points="1664.19,-463.44 1656.45,-470.69 1667.01,-469.84 1664.19,-463.44"/>
</a>
</g>
</g>
</g>
</svg>
