<?xml version="1.0" encoding="UTF-8" standalone="no"?>
<!DOCTYPE svg PUBLIC "-//W3C//DTD SVG 1.1//EN"
 "http://www.w3.org/Graphics/SVG/1.1/DTD/svg11.dtd">
<!-- Generated by graphviz version 9.0.0 (20230911.1827)
 -->
<!-- Title: engine/subsystems/render/detail/opaque&#45;render&#45;system.hpp Pages: 1 -->
<svg width="1936pt" height="660pt"
 viewBox="0.00 0.00 1935.88 659.50" xmlns="http://www.w3.org/2000/svg" xmlns:xlink="http://www.w3.org/1999/xlink">
<g id="graph0" class="graph" transform="scale(1 1) rotate(0) translate(4 655.5)">
<title>engine/subsystems/render/detail/opaque&#45;render&#45;system.hpp</title>
<!-- Node1 -->
<g id="Node000001" class="node">
<title>Node1</title>
<g id="a_Node000001"><a xlink:title=" ">
<polygon fill="#999999" stroke="#666666" points="1363.62,-651.5 1204.38,-651.5 1204.38,-621 1363.62,-621 1363.62,-651.5"/>
<text text-anchor="start" x="1212.38" y="-638" font-family="Helvetica,sans-Serif" font-size="10.00">engine/subsystems/render</text>
<text text-anchor="middle" x="1284" y="-626.75" font-family="Helvetica,sans-Serif" font-size="10.00">/detail/opaque&#45;render&#45;system.hpp</text>
</a>
</g>
</g>
<!-- Node2 -->
<g id="Node000002" class="node">
<title>Node2</title>
<g id="a_Node000002"><a xlink:href="../../d1/dae/renderer_8hpp.html" target="_top" xlink:title=" ">
<polygon fill="white" stroke="#666666" points="1108.38,-423.88 977.62,-423.88 977.62,-404.62 1108.38,-404.62 1108.38,-423.88"/>
<text text-anchor="middle" x="1043" y="-410.38" font-family="Helvetica,sans-Serif" font-size="10.00">engine/render/renderer.hpp</text>
</a>
</g>
</g>
<!-- Node1&#45;&gt;Node2 -->
<g id="edge1_Node000001_Node000002" class="edge">
<title>Node1&#45;&gt;Node2</title>
<g id="a_edge1_Node000001_Node000002"><a xlink:title=" ">
<path fill="none" stroke="#63b8ff" d="M1192.8,-624.4C1140.17,-616.32 1080.78,-603.46 1062,-585 1016.96,-540.72 1033.71,-452.61 1040.62,-424.26"/>
<polygon fill="#63b8ff" stroke="#63b8ff" points="1192.01,-627.82 1202.41,-625.83 1193.04,-620.9 1192.01,-627.82"/>
</a>
</g>
</g>
<!-- Node20 -->
<g id="Node000020" class="node">
<title>Node20</title>
<g id="a_Node000020"><a xlink:href="../../d8/d9c/light-render-system_8cpp.html" target="_top" xlink:title=" ">
<polygon fill="white" stroke="#666666" points="1927.88,-91.38 1782.12,-91.38 1782.12,-60.88 1927.88,-60.88 1927.88,-91.38"/>
<text text-anchor="start" x="1790.12" y="-77.88" font-family="Helvetica,sans-Serif" font-size="10.00">engine/subsystems/render</text>
<text text-anchor="middle" x="1855" y="-66.62" font-family="Helvetica,sans-Serif" font-size="10.00">/detail/light&#45;render&#45;system.cpp</text>
</a>
</g>
</g>
<!-- Node1&#45;&gt;Node20 -->
<g id="edge66_Node000001_Node000020" class="edge">
<title>Node1&#45;&gt;Node20</title>
<g id="a_edge66_Node000001_Node000020"><a xlink:title=" ">
<path fill="none" stroke="#63b8ff" d="M1375.14,-630.24C1535.2,-618.91 1850,-584.33 1850,-487.38 1850,-487.38 1850,-487.38 1850,-208.12 1850,-165.79 1852.64,-115.82 1854.08,-91.66"/>
<polygon fill="#63b8ff" stroke="#63b8ff" points="1375.14,-626.73 1365.4,-630.91 1375.62,-633.71 1375.14,-626.73"/>
</a>
</g>
</g>
<!-- Node28 -->
<g id="Node000028" class="node">
<title>Node28</title>
<g id="a_Node000028"><a xlink:href="../../d1/d62/opaque-render-system_8cpp.html" target="_top" xlink:title=" ">
<polygon fill="white" stroke="#666666" points="300.62,-290.88 141.38,-290.88 141.38,-260.38 300.62,-260.38 300.62,-290.88"/>
<text text-anchor="start" x="149.38" y="-277.38" font-family="Helvetica,sans-Serif" font-size="10.00">engine/subsystems/render</text>
<text text-anchor="middle" x="221" y="-266.12" font-family="Helvetica,sans-Serif" font-size="10.00">/detail/opaque&#45;render&#45;system.cpp</text>
</a>
</g>
</g>
<!-- Node1&#45;&gt;Node28 -->
<g id="edge67_Node000001_Node000028" class="edge">
<title>Node1&#45;&gt;Node28</title>
<g id="a_edge67_Node000001_Node000028"><a xlink:title=" ">
<path fill="none" stroke="#63b8ff" d="M1192.78,-632C936.58,-621.65 229,-584.31 229,-487.38 229,-487.38 229,-487.38 229,-413.25 229,-368.82 224.73,-316.4 222.43,-291.37"/>
<polygon fill="#63b8ff" stroke="#63b8ff" points="1192.63,-635.49 1202.76,-632.39 1192.91,-628.5 1192.63,-635.49"/>
</a>
</g>
</g>
<!-- Node29 -->
<g id="Node000029" class="node">
<title>Node29</title>
<g id="a_Node000029"><a xlink:href="../../dc/d9f/decal-render-system_8hpp.html" target="_top" xlink:title=" ">
<polygon fill="white" stroke="#666666" points="1518.5,-501.62 1367.5,-501.62 1367.5,-471.12 1518.5,-471.12 1518.5,-501.62"/>
<text text-anchor="start" x="1375.5" y="-488.12" font-family="Helvetica,sans-Serif" font-size="10.00">engine/subsystems/render</text>
<text text-anchor="middle" x="1443" y="-476.88" font-family="Helvetica,sans-Serif" font-size="10.00">/detail/decal&#45;render&#45;system.hpp</text>
</a>
</g>
</g>
<!-- Node1&#45;&gt;Node29 -->
<g id="edge42_Node000001_Node000029" class="edge">
<title>Node1&#45;&gt;Node29</title>
<g id="a_edge42_Node000001_Node000029"><a xlink:title=" ">
<path fill="none" stroke="#63b8ff" d="M1308.01,-612.92C1340.97,-582.26 1399.31,-528.01 1427.24,-502.03"/>
<polygon fill="#63b8ff" stroke="#63b8ff" points="1305.87,-610.13 1300.94,-619.5 1310.64,-615.25 1305.87,-610.13"/>
</a>
</g>
</g>
<!-- Node30 -->
<g id="Node000030" class="node">
<title>Node30</title>
<g id="a_Node000030"><a xlink:href="../../d9/d58/dissolution-render-system_8hpp.html" target="_top" xlink:title=" ">
<polygon fill="white" stroke="#666666" points="1201,-585 1071,-585 1071,-543.25 1201,-543.25 1201,-585"/>
<text text-anchor="start" x="1079" y="-571.5" font-family="Helvetica,sans-Serif" font-size="10.00">engine/subsystems/render</text>
<text text-anchor="start" x="1079" y="-560.25" font-family="Helvetica,sans-Serif" font-size="10.00">/detail/dissolution&#45;render</text>
<text text-anchor="middle" x="1136" y="-549" font-family="Helvetica,sans-Serif" font-size="10.00">&#45;system.hpp</text>
</a>
</g>
</g>
<!-- Node1&#45;&gt;Node30 -->
<g id="edge45_Node000001_Node000030" class="edge">
<title>Node1&#45;&gt;Node30</title>
<g id="a_edge45_Node000001_Node000030"><a xlink:title=" ">
<path fill="none" stroke="#63b8ff" d="M1242.66,-615.66C1222.74,-606.23 1198.88,-594.92 1178.77,-585.39"/>
<polygon fill="#63b8ff" stroke="#63b8ff" points="1241.07,-618.78 1251.61,-619.9 1244.07,-612.46 1241.07,-618.78"/>
</a>
</g>
</g>
<!-- Node32 -->
<g id="Node000032" class="node">
<title>Node32</title>
<g id="a_Node000032"><a xlink:href="../../db/d67/model-system_8hpp.html" target="_top" xlink:title=" ">
<polygon fill="white" stroke="#666666" points="1349,-501.62 1219,-501.62 1219,-471.12 1349,-471.12 1349,-501.62"/>
<text text-anchor="start" x="1227" y="-488.12" font-family="Helvetica,sans-Serif" font-size="10.00">engine/subsystems/render</text>
<text text-anchor="middle" x="1284" y="-476.88" font-family="Helvetica,sans-Serif" font-size="10.00">/model&#45;system.hpp</text>
</a>
</g>
</g>
<!-- Node1&#45;&gt;Node32 -->
<g id="edge68_Node000001_Node000032" class="edge">
<title>Node1&#45;&gt;Node32</title>
<g id="a_edge68_Node000001_Node000032"><a xlink:title=" ">
<path fill="none" stroke="#63b8ff" d="M1284,-609.29C1284,-578.15 1284,-527.02 1284,-502.03"/>
<polygon fill="#63b8ff" stroke="#63b8ff" points="1280.5,-609.02 1284,-619.02 1287.5,-609.02 1280.5,-609.02"/>
</a>
</g>
</g>
<!-- Node36 -->
<g id="Node000036" class="node">
<title>Node36</title>
<g id="a_Node000036"><a xlink:href="../../d9/d29/grass-render-system_8hpp.html" target="_top" xlink:title=" ">
<polygon fill="white" stroke="#666666" points="1687.88,-501.62 1536.12,-501.62 1536.12,-471.12 1687.88,-471.12 1687.88,-501.62"/>
<text text-anchor="start" x="1544.12" y="-488.12" font-family="Helvetica,sans-Serif" font-size="10.00">engine/subsystems/render</text>
<text text-anchor="middle" x="1612" y="-476.88" font-family="Helvetica,sans-Serif" font-size="10.00">/detail/grass&#45;render&#45;system.hpp</text>
</a>
</g>
</g>
<!-- Node1&#45;&gt;Node36 -->
<g id="edge63_Node000001_Node000036" class="edge">
<title>Node1&#45;&gt;Node36</title>
<g id="a_edge63_Node000001_Node000036"><a xlink:title=" ">
<path fill="none" stroke="#63b8ff" d="M1326.78,-615.96C1393.26,-585.99 1519.9,-528.9 1579.48,-502.03"/>
<polygon fill="#63b8ff" stroke="#63b8ff" points="1325.71,-612.61 1318.03,-619.91 1328.58,-618.99 1325.71,-612.61"/>
</a>
</g>
</g>
<!-- Node3 -->
<g id="Node000003" class="node">
<title>Node3</title>
<g id="a_Node000003"><a xlink:href="../../d1/d47/controller_8cpp.html" target="_top" xlink:title=" ">
<polygon fill="white" stroke="#666666" points="950.12,-19.25 835.88,-19.25 835.88,0 950.12,0 950.12,-19.25"/>
<text text-anchor="middle" x="893" y="-5.75" font-family="Helvetica,sans-Serif" font-size="10.00">d3d_test/controller.cpp</text>
</a>
</g>
</g>
<!-- Node2&#45;&gt;Node3 -->
<g id="edge2_Node000002_Node000003" class="edge">
<title>Node2&#45;&gt;Node3</title>
<g id="a_edge2_Node000002_Node000003"><a xlink:title=" ">
<path fill="none" stroke="#63b8ff" d="M1054.92,-394.62C1090.13,-336.98 1186.12,-159.22 1102,-55.25 1083.24,-32.07 1005.63,-20.4 950.48,-14.93"/>
<polygon fill="#63b8ff" stroke="#63b8ff" points="1052.05,-392.59 1049.73,-402.93 1057.99,-396.3 1052.05,-392.59"/>
</a>
</g>
</g>
<!-- Node4 -->
<g id="Node000004" class="node">
<title>Node4</title>
<g id="a_Node000004"><a xlink:href="../../d5/d9b/scene_8hpp.html" target="_top" xlink:title=" ">
<polygon fill="white" stroke="#666666" points="803.75,-357.38 690.25,-357.38 690.25,-338.12 803.75,-338.12 803.75,-357.38"/>
<text text-anchor="middle" x="747" y="-343.88" font-family="Helvetica,sans-Serif" font-size="10.00">engine/core/scene.hpp</text>
</a>
</g>
</g>
<!-- Node2&#45;&gt;Node4 -->
<g id="edge3_Node000002_Node000004" class="edge">
<title>Node2&#45;&gt;Node4</title>
<g id="a_edge3_Node000002_Node000004"><a xlink:title=" ">
<path fill="none" stroke="#63b8ff" d="M990.15,-401.73C932.48,-389.17 841.35,-369.31 788.57,-357.81"/>
<polygon fill="#63b8ff" stroke="#63b8ff" points="989.22,-405.11 999.74,-403.82 990.71,-398.27 989.22,-405.11"/>
</a>
</g>
</g>
<!-- Node24 -->
<g id="Node000024" class="node">
<title>Node24</title>
<g id="a_Node000024"><a xlink:href="../../db/df9/deferred-hdr-render-pipeline_8hpp.html" target="_top" xlink:title=" ">
<polygon fill="white" stroke="#666666" points="514.38,-163.5 383.62,-163.5 383.62,-133 514.38,-133 514.38,-163.5"/>
<text text-anchor="start" x="391.62" y="-150" font-family="Helvetica,sans-Serif" font-size="10.00">engine/direct3d11/deferred</text>
<text text-anchor="middle" x="449" y="-138.75" font-family="Helvetica,sans-Serif" font-size="10.00">&#45;hdr&#45;render&#45;pipeline.hpp</text>
</a>
</g>
</g>
<!-- Node2&#45;&gt;Node24 -->
<g id="edge40_Node000002_Node000024" class="edge">
<title>Node2&#45;&gt;Node24</title>
<g id="a_edge40_Node000002_Node000024"><a xlink:title=" ">
<path fill="none" stroke="#63b8ff" d="M965.82,-411.96C809.8,-407.46 466.26,-387.23 402,-296.5 372.07,-254.24 413.98,-192 436.42,-163.94"/>
<polygon fill="#63b8ff" stroke="#63b8ff" points="965.57,-415.46 975.66,-412.23 965.76,-408.46 965.57,-415.46"/>
</a>
</g>
</g>
<!-- Node26 -->
<g id="Node000026" class="node">
<title>Node26</title>
<g id="a_Node000026"><a xlink:href="../../d6/d54/renderer_8cpp.html" target="_top" xlink:title=" ">
<polygon fill="white" stroke="#666666" points="541.38,-285.25 410.62,-285.25 410.62,-266 541.38,-266 541.38,-285.25"/>
<text text-anchor="middle" x="476" y="-271.75" font-family="Helvetica,sans-Serif" font-size="10.00">engine/render/renderer.cpp</text>
</a>
</g>
</g>
<!-- Node2&#45;&gt;Node26 -->
<g id="edge41_Node000002_Node000026" class="edge">
<title>Node2&#45;&gt;Node26</title>
<g id="a_edge41_Node000002_Node000026"><a xlink:title=" ">
<path fill="none" stroke="#63b8ff" d="M966.15,-408.42C892.05,-402.4 777.31,-389.48 681,-363 608.57,-343.08 527.87,-303.57 493.27,-285.74"/>
<polygon fill="#63b8ff" stroke="#63b8ff" points="965.47,-411.87 975.72,-409.17 966.02,-404.9 965.47,-411.87"/>
</a>
</g>
</g>
<!-- Node5 -->
<g id="Node000005" class="node">
<title>Node5</title>
<g id="a_Node000005"><a xlink:href="../../de/d46/engine_8hpp.html" target="_top" xlink:title=" ">
<polygon fill="white" stroke="#666666" points="950.88,-157.88 835.12,-157.88 835.12,-138.62 950.88,-138.62 950.88,-157.88"/>
<text text-anchor="middle" x="893" y="-144.38" font-family="Helvetica,sans-Serif" font-size="10.00">engine/core/engine.hpp</text>
</a>
</g>
</g>
<!-- Node4&#45;&gt;Node5 -->
<g id="edge4_Node000004_Node000005" class="edge">
<title>Node4&#45;&gt;Node5</title>
<g id="a_edge4_Node000004_Node000005"><a xlink:title=" ">
<path fill="none" stroke="#63b8ff" d="M814.71,-334.39C836.82,-327 859.42,-315.24 874,-296.5 907.08,-253.98 898.81,-182.74 894.66,-158.02"/>
<polygon fill="#63b8ff" stroke="#63b8ff" points="813.92,-330.97 805.37,-337.23 815.96,-337.66 813.92,-330.97"/>
</a>
</g>
</g>
<!-- Node16 -->
<g id="Node000016" class="node">
<title>Node16</title>
<g id="a_Node000016"><a xlink:href="../../d8/d30/decal-render-system_8cpp.html" target="_top" xlink:title=" ">
<polygon fill="white" stroke="#666666" points="1594.5,-91.38 1443.5,-91.38 1443.5,-60.88 1594.5,-60.88 1594.5,-91.38"/>
<text text-anchor="start" x="1451.5" y="-77.88" font-family="Helvetica,sans-Serif" font-size="10.00">engine/subsystems/render</text>
<text text-anchor="middle" x="1519" y="-66.62" font-family="Helvetica,sans-Serif" font-size="10.00">/detail/decal&#45;render&#45;system.cpp</text>
</a>
</g>
</g>
<!-- Node4&#45;&gt;Node16 -->
<g id="edge35_Node000004_Node000016" class="edge">
<title>Node4&#45;&gt;Node16</title>
<g id="a_edge35_Node000004_Node000016"><a xlink:title=" ">
<path fill="none" stroke="#63b8ff" d="M797.48,-334.79C827.73,-326.47 866.34,-313.75 898,-296.5 924.03,-282.32 923.84,-268.69 950,-254.75 1041.45,-206.03 1337.99,-124.84 1462.81,-91.8"/>
<polygon fill="#63b8ff" stroke="#63b8ff" points="796.96,-331.31 788.2,-337.27 798.76,-338.07 796.96,-331.31"/>
</a>
</g>
</g>
<!-- Node17 -->
<g id="Node000017" class="node">
<title>Node17</title>
<g id="a_Node000017"><a xlink:href="../../d1/d58/dissolution-render-system_8cpp.html" target="_top" xlink:title=" ">
<polygon fill="white" stroke="#666666" points="130,-97 0,-97 0,-55.25 130,-55.25 130,-97"/>
<text text-anchor="start" x="8" y="-83.5" font-family="Helvetica,sans-Serif" font-size="10.00">engine/subsystems/render</text>
<text text-anchor="start" x="8" y="-72.25" font-family="Helvetica,sans-Serif" font-size="10.00">/detail/dissolution&#45;render</text>
<text text-anchor="middle" x="65" y="-61" font-family="Helvetica,sans-Serif" font-size="10.00">&#45;system.cpp</text>
</a>
</g>
</g>
<!-- Node4&#45;&gt;Node17 -->
<g id="edge36_Node000004_Node000017" class="edge">
<title>Node4&#45;&gt;Node17</title>
<g id="a_edge36_Node000004_Node000017"><a xlink:title=" ">
<path fill="none" stroke="#63b8ff" d="M688.14,-334.94C657.63,-327.09 620.65,-314.8 591,-296.5 568.87,-282.84 570.9,-270.23 550,-254.75 479.52,-202.54 449.84,-209.26 375,-163.5 355.01,-151.28 353.47,-142.37 332,-133 327.32,-130.96 207.72,-106.3 130.19,-90.43"/>
<polygon fill="#63b8ff" stroke="#63b8ff" points="687.05,-338.27 697.6,-337.27 688.73,-331.47 687.05,-338.27"/>
</a>
</g>
</g>
<!-- Node21 -->
<g id="Node000021" class="node">
<title>Node21</title>
<g id="a_Node000021"><a xlink:href="../../d3/dfe/particle-render-system_8cpp.html" target="_top" xlink:title=" ">
<polygon fill="white" stroke="#666666" points="597,-97 467,-97 467,-55.25 597,-55.25 597,-97"/>
<text text-anchor="start" x="475" y="-83.5" font-family="Helvetica,sans-Serif" font-size="10.00">engine/subsystems/render</text>
<text text-anchor="start" x="475" y="-72.25" font-family="Helvetica,sans-Serif" font-size="10.00">/detail/particle&#45;render</text>
<text text-anchor="middle" x="532" y="-61" font-family="Helvetica,sans-Serif" font-size="10.00">&#45;system.cpp</text>
</a>
</g>
</g>
<!-- Node4&#45;&gt;Node21 -->
<g id="edge39_Node000004_Node000021" class="edge">
<title>Node4&#45;&gt;Node21</title>
<g id="a_edge39_Node000004_Node000021"><a xlink:title=" ">
<path fill="none" stroke="#63b8ff" d="M693.6,-334.34C670.43,-326.68 644.43,-314.73 626,-296.5 567.81,-238.96 543.46,-139.63 535.37,-97.24"/>
<polygon fill="#63b8ff" stroke="#63b8ff" points="692.33,-337.61 702.92,-337.22 694.39,-330.92 692.33,-337.61"/>
</a>
</g>
</g>
<!-- Node22 -->
<g id="Node000022" class="node">
<title>Node22</title>
<g id="a_Node000022"><a xlink:href="../../d9/d06/render-pipeline_8hpp.html" target="_top" xlink:title=" ">
<polygon fill="white" stroke="#666666" points="735,-290.88 635,-290.88 635,-260.38 735,-260.38 735,-290.88"/>
<text text-anchor="start" x="643" y="-277.38" font-family="Helvetica,sans-Serif" font-size="10.00">engine/core/layers</text>
<text text-anchor="middle" x="685" y="-266.12" font-family="Helvetica,sans-Serif" font-size="10.00">/render&#45;pipeline.hpp</text>
</a>
</g>
</g>
<!-- Node4&#45;&gt;Node22 -->
<g id="edge26_Node000004_Node000022" class="edge">
<title>Node4&#45;&gt;Node22</title>
<g id="a_edge26_Node000004_Node000022"><a xlink:title=" ">
<path fill="none" stroke="#63b8ff" d="M731.65,-329.39C721.3,-317.68 707.78,-302.39 697.97,-291.29"/>
<polygon fill="#63b8ff" stroke="#63b8ff" points="728.9,-331.56 738.15,-336.73 734.14,-326.92 728.9,-331.56"/>
</a>
</g>
</g>
<!-- Node25 -->
<g id="Node000025" class="node">
<title>Node25</title>
<g id="a_Node000025"><a xlink:href="../../d4/d7c/deferred-resolve_8cpp.html" target="_top" xlink:title=" ">
<polygon fill="white" stroke="#666666" points="865.38,-290.88 752.62,-290.88 752.62,-260.38 865.38,-260.38 865.38,-290.88"/>
<text text-anchor="start" x="760.62" y="-277.38" font-family="Helvetica,sans-Serif" font-size="10.00">engine/render/deferred</text>
<text text-anchor="middle" x="809" y="-266.12" font-family="Helvetica,sans-Serif" font-size="10.00">&#45;resolve.cpp</text>
</a>
</g>
</g>
<!-- Node4&#45;&gt;Node25 -->
<g id="edge33_Node000004_Node000025" class="edge">
<title>Node4&#45;&gt;Node25</title>
<g id="a_edge33_Node000004_Node000025"><a xlink:title=" ">
<path fill="none" stroke="#63b8ff" d="M762.35,-329.39C772.7,-317.68 786.22,-302.39 796.03,-291.29"/>
<polygon fill="#63b8ff" stroke="#63b8ff" points="759.86,-326.92 755.85,-336.73 765.1,-331.56 759.86,-326.92"/>
</a>
</g>
</g>
<!-- Node4&#45;&gt;Node26 -->
<g id="edge34_Node000004_Node000026" class="edge">
<title>Node4&#45;&gt;Node26</title>
<g id="a_edge34_Node000004_Node000026"><a xlink:title=" ">
<path fill="none" stroke="#63b8ff" d="M700.93,-334.83C647.2,-320.93 559.59,-298.25 511.09,-285.7"/>
<polygon fill="#63b8ff" stroke="#63b8ff" points="699.83,-338.16 710.38,-337.28 701.58,-331.38 699.83,-338.16"/>
</a>
</g>
</g>
<!-- Node27 -->
<g id="Node000027" class="node">
<title>Node27</title>
<g id="a_Node000027"><a xlink:href="../../d8/dcb/emissive-render-system_8cpp.html" target="_top" xlink:title=" ">
<polygon fill="white" stroke="#666666" points="1089,-296.5 959,-296.5 959,-254.75 1089,-254.75 1089,-296.5"/>
<text text-anchor="start" x="967" y="-283" font-family="Helvetica,sans-Serif" font-size="10.00">engine/subsystems/render</text>
<text text-anchor="start" x="967" y="-271.75" font-family="Helvetica,sans-Serif" font-size="10.00">/detail/emissive&#45;render</text>
<text text-anchor="middle" x="1024" y="-260.5" font-family="Helvetica,sans-Serif" font-size="10.00">&#45;system.cpp</text>
</a>
</g>
</g>
<!-- Node4&#45;&gt;Node27 -->
<g id="edge37_Node000004_Node000027" class="edge">
<title>Node4&#45;&gt;Node27</title>
<g id="a_edge37_Node000004_Node000027"><a xlink:title=" ">
<path fill="none" stroke="#63b8ff" d="M793.9,-334.88C839.17,-323.42 908.11,-305.96 958.73,-293.15"/>
<polygon fill="#63b8ff" stroke="#63b8ff" points="793.23,-331.44 784.4,-337.28 794.95,-338.22 793.23,-331.44"/>
</a>
</g>
</g>
<!-- Node4&#45;&gt;Node28 -->
<g id="edge38_Node000004_Node000028" class="edge">
<title>Node4&#45;&gt;Node28</title>
<g id="a_edge38_Node000004_Node000028"><a xlink:title=" ">
<path fill="none" stroke="#63b8ff" d="M678.82,-337.66C581.76,-324.72 404.12,-301.04 300.97,-287.29"/>
<polygon fill="#63b8ff" stroke="#63b8ff" points="678.08,-341.09 688.46,-338.95 679.01,-334.15 678.08,-341.09"/>
</a>
</g>
</g>
<!-- Node6 -->
<g id="Node000006" class="node">
<title>Node6</title>
<g id="a_Node000006"><a xlink:href="../../d0/d86/camera-movement_8hpp.html" target="_top" xlink:title=" ">
<polygon fill="white" stroke="#666666" points="808.75,-85.75 653.25,-85.75 653.25,-66.5 808.75,-66.5 808.75,-85.75"/>
<text text-anchor="middle" x="731" y="-72.25" font-family="Helvetica,sans-Serif" font-size="10.00">d3d_test/camera&#45;movement.hpp</text>
</a>
</g>
</g>
<!-- Node5&#45;&gt;Node6 -->
<g id="edge5_Node000005_Node000006" class="edge">
<title>Node5&#45;&gt;Node6</title>
<g id="a_edge5_Node000005_Node000006"><a xlink:title=" ">
<path fill="none" stroke="#63b8ff" d="M861.92,-133.8C829.63,-119.82 779.99,-98.33 752.02,-86.23"/>
<polygon fill="#63b8ff" stroke="#63b8ff" points="860.2,-136.86 870.76,-137.62 862.98,-130.44 860.2,-136.86"/>
</a>
</g>
</g>
<!-- Node8 -->
<g id="Node000008" class="node">
<title>Node8</title>
<g id="a_Node000008"><a xlink:href="../../dc/dfb/controller_8hpp.html" target="_top" xlink:title=" ">
<polygon fill="white" stroke="#666666" points="449.12,-85.75 334.88,-85.75 334.88,-66.5 449.12,-66.5 449.12,-85.75"/>
<text text-anchor="middle" x="392" y="-72.25" font-family="Helvetica,sans-Serif" font-size="10.00">d3d_test/controller.hpp</text>
</a>
</g>
</g>
<!-- Node5&#45;&gt;Node8 -->
<g id="edge8_Node000005_Node000008" class="edge">
<title>Node5&#45;&gt;Node8</title>
<g id="a_edge8_Node000005_Node000008"><a xlink:title=" ">
<path fill="none" stroke="#63b8ff" d="M823.55,-143.04C737.18,-136.94 585.54,-123.35 458,-97 444.76,-94.26 430.35,-90.07 418.38,-86.24"/>
<polygon fill="#63b8ff" stroke="#63b8ff" points="823.05,-146.52 833.27,-143.72 823.54,-139.53 823.05,-146.52"/>
</a>
</g>
</g>
<!-- Node9 -->
<g id="Node000009" class="node">
<title>Node9</title>
<g id="a_Node000009"><a xlink:href="../../d9/d0f/main_8cc.html" target="_top" xlink:title=" ">
<polygon fill="white" stroke="#666666" points="437.12,-19.25 346.88,-19.25 346.88,0 437.12,0 437.12,-19.25"/>
<text text-anchor="middle" x="392" y="-5.75" font-family="Helvetica,sans-Serif" font-size="10.00">d3d_test/main.cc</text>
</a>
</g>
</g>
<!-- Node5&#45;&gt;Node9 -->
<g id="edge11_Node000005_Node000009" class="edge">
<title>Node5&#45;&gt;Node9</title>
<g id="a_edge11_Node000005_Node000009"><a xlink:title=" ">
<path fill="none" stroke="#63b8ff" d="M823.63,-144.81C771.29,-140.33 699.31,-128.36 644,-97 622.17,-84.63 627.79,-67.69 606,-55.25 553.27,-25.13 482.86,-15.23 437.47,-12.04"/>
<polygon fill="#63b8ff" stroke="#63b8ff" points="823.07,-148.28 833.31,-145.56 823.61,-141.3 823.07,-148.28"/>
</a>
</g>
</g>
<!-- Node10 -->
<g id="Node000010" class="node">
<title>Node10</title>
<g id="a_Node000010"><a xlink:href="../../da/df5/object-editor_8hpp.html" target="_top" xlink:title=" ">
<polygon fill="white" stroke="#666666" points="1276.88,-85.75 1149.12,-85.75 1149.12,-66.5 1276.88,-66.5 1276.88,-85.75"/>
<text text-anchor="middle" x="1213" y="-72.25" font-family="Helvetica,sans-Serif" font-size="10.00">d3d_test/object&#45;editor.hpp</text>
</a>
</g>
</g>
<!-- Node5&#45;&gt;Node10 -->
<g id="edge12_Node000005_Node000010" class="edge">
<title>Node5&#45;&gt;Node10</title>
<g id="a_edge12_Node000005_Node000010"><a xlink:title=" ">
<path fill="none" stroke="#63b8ff" d="M945.43,-135.76C1008.67,-121.9 1113.7,-98.89 1171.57,-86.2"/>
<polygon fill="#63b8ff" stroke="#63b8ff" points="945,-132.27 935.98,-137.83 946.5,-139.11 945,-132.27"/>
</a>
</g>
</g>
<!-- Node13 -->
<g id="Node000013" class="node">
<title>Node13</title>
<g id="a_Node000013"><a xlink:href="../../d9/d55/scene-viewer_8hpp.html" target="_top" xlink:title=" ">
<polygon fill="white" stroke="#666666" points="959.12,-85.75 826.88,-85.75 826.88,-66.5 959.12,-66.5 959.12,-85.75"/>
<text text-anchor="middle" x="893" y="-72.25" font-family="Helvetica,sans-Serif" font-size="10.00">d3d_test/scene&#45;viewer.hpp</text>
</a>
</g>
</g>
<!-- Node5&#45;&gt;Node13 -->
<g id="edge16_Node000005_Node000013" class="edge">
<title>Node5&#45;&gt;Node13</title>
<g id="a_edge16_Node000005_Node000013"><a xlink:title=" ">
<path fill="none" stroke="#63b8ff" d="M893,-126.87C893,-113.39 893,-96.39 893,-86.16"/>
<polygon fill="#63b8ff" stroke="#63b8ff" points="889.5,-126.86 893,-136.86 896.5,-126.86 889.5,-126.86"/>
</a>
</g>
</g>
<!-- Node14 -->
<g id="Node000014" class="node">
<title>Node14</title>
<g id="a_Node000014"><a xlink:href="../../da/d5c/engine_8cpp.html" target="_top" xlink:title=" ">
<polygon fill="white" stroke="#666666" points="1092.88,-85.75 977.12,-85.75 977.12,-66.5 1092.88,-66.5 1092.88,-85.75"/>
<text text-anchor="middle" x="1035" y="-72.25" font-family="Helvetica,sans-Serif" font-size="10.00">engine/core/engine.cpp</text>
</a>
</g>
</g>
<!-- Node5&#45;&gt;Node14 -->
<g id="edge18_Node000005_Node000014" class="edge">
<title>Node5&#45;&gt;Node14</title>
<g id="a_edge18_Node000005_Node000014"><a xlink:title=" ">
<path fill="none" stroke="#63b8ff" d="M921.39,-133.23C949.8,-119.2 992.66,-98.04 1016.8,-86.11"/>
<polygon fill="#63b8ff" stroke="#63b8ff" points="920.05,-129.99 912.63,-137.56 923.15,-136.27 920.05,-129.99"/>
</a>
</g>
</g>
<!-- Node15 -->
<g id="Node000015" class="node">
<title>Node15</title>
<g id="a_Node000015"><a xlink:href="../../d1/da2/deferred-hdr-render-pipeline_8cpp.html" target="_top" xlink:title=" ">
<polygon fill="white" stroke="#666666" points="316.38,-91.38 185.62,-91.38 185.62,-60.88 316.38,-60.88 316.38,-91.38"/>
<text text-anchor="start" x="193.62" y="-77.88" font-family="Helvetica,sans-Serif" font-size="10.00">engine/direct3d11/deferred</text>
<text text-anchor="middle" x="251" y="-66.62" font-family="Helvetica,sans-Serif" font-size="10.00">&#45;hdr&#45;render&#45;pipeline.cpp</text>
</a>
</g>
</g>
<!-- Node5&#45;&gt;Node15 -->
<g id="edge19_Node000005_Node000015" class="edge">
<title>Node5&#45;&gt;Node15</title>
<g id="a_edge19_Node000005_Node000015"><a xlink:title=" ">
<path fill="none" stroke="#63b8ff" d="M823.72,-144.92C716.39,-140.45 503.73,-128.19 326,-97 318.04,-95.6 309.69,-93.77 301.57,-91.78"/>
<polygon fill="#63b8ff" stroke="#63b8ff" points="823.38,-148.41 833.52,-145.31 823.67,-141.41 823.38,-148.41"/>
</a>
</g>
</g>
<!-- Node5&#45;&gt;Node16 -->
<g id="edge20_Node000005_Node000016" class="edge">
<title>Node5&#45;&gt;Node16</title>
<g id="a_edge20_Node000005_Node000016"><a xlink:title=" ">
<path fill="none" stroke="#63b8ff" d="M962.17,-143.87C1065.42,-138.13 1265.73,-124.35 1434,-97 1442.68,-95.59 1451.78,-93.8 1460.68,-91.87"/>
<polygon fill="#63b8ff" stroke="#63b8ff" points="962.28,-140.35 952.49,-144.4 962.66,-147.34 962.28,-140.35"/>
</a>
</g>
</g>
<!-- Node5&#45;&gt;Node17 -->
<g id="edge21_Node000005_Node000017" class="edge">
<title>Node5&#45;&gt;Node17</title>
<g id="a_edge21_Node000005_Node000017"><a xlink:title=" ">
<path fill="none" stroke="#63b8ff" d="M823.62,-144.82C695.48,-139.78 413.2,-126.16 177,-97 161.81,-95.12 145.55,-92.56 130.27,-89.9"/>
<polygon fill="#63b8ff" stroke="#63b8ff" points="823.15,-148.3 833.28,-145.19 823.42,-141.31 823.15,-148.3"/>
</a>
</g>
</g>
<!-- Node18 -->
<g id="Node000018" class="node">
<title>Node18</title>
<g id="a_Node000018"><a xlink:href="../../d2/d11/emissive-particle-render-system_8cpp.html" target="_top" xlink:title=" ">
<polygon fill="white" stroke="#666666" points="1425,-97 1295,-97 1295,-55.25 1425,-55.25 1425,-97"/>
<text text-anchor="start" x="1303" y="-83.5" font-family="Helvetica,sans-Serif" font-size="10.00">engine/subsystems/render</text>
<text text-anchor="start" x="1303" y="-72.25" font-family="Helvetica,sans-Serif" font-size="10.00">/detail/emissive&#45;particle</text>
<text text-anchor="middle" x="1360" y="-61" font-family="Helvetica,sans-Serif" font-size="10.00">&#45;render&#45;system.cpp</text>
</a>
</g>
</g>
<!-- Node5&#45;&gt;Node18 -->
<g id="edge22_Node000005_Node000018" class="edge">
<title>Node5&#45;&gt;Node18</title>
<g id="a_edge22_Node000005_Node000018"><a xlink:title=" ">
<path fill="none" stroke="#63b8ff" d="M962.57,-141.22C1041.48,-133.72 1173.76,-119.14 1286,-97 1288.87,-96.43 1291.8,-95.82 1294.74,-95.17"/>
<polygon fill="#63b8ff" stroke="#63b8ff" points="962.46,-137.72 952.83,-142.14 963.12,-144.69 962.46,-137.72"/>
</a>
</g>
</g>
<!-- Node19 -->
<g id="Node000019" class="node">
<title>Node19</title>
<g id="a_Node000019"><a xlink:href="../../df/d58/grass-render-system_8cpp.html" target="_top" xlink:title=" ">
<polygon fill="white" stroke="#666666" points="1763.88,-91.38 1612.12,-91.38 1612.12,-60.88 1763.88,-60.88 1763.88,-91.38"/>
<text text-anchor="start" x="1620.12" y="-77.88" font-family="Helvetica,sans-Serif" font-size="10.00">engine/subsystems/render</text>
<text text-anchor="middle" x="1688" y="-66.62" font-family="Helvetica,sans-Serif" font-size="10.00">/detail/grass&#45;render&#45;system.cpp</text>
</a>
</g>
</g>
<!-- Node5&#45;&gt;Node19 -->
<g id="edge23_Node000005_Node000019" class="edge">
<title>Node5&#45;&gt;Node19</title>
<g id="a_edge23_Node000005_Node000019"><a xlink:title=" ">
<path fill="none" stroke="#63b8ff" d="M962.45,-145.99C1090.02,-142.88 1369.95,-132.26 1603,-97 1611.99,-95.64 1621.44,-93.83 1630.63,-91.84"/>
<polygon fill="#63b8ff" stroke="#63b8ff" points="962.75,-142.49 952.84,-146.22 962.92,-149.48 962.75,-142.49"/>
</a>
</g>
</g>
<!-- Node5&#45;&gt;Node20 -->
<g id="edge24_Node000005_Node000020" class="edge">
<title>Node5&#45;&gt;Node20</title>
<g id="a_edge24_Node000005_Node000020"><a xlink:title=" ">
<path fill="none" stroke="#63b8ff" d="M962.52,-147.53C1111.79,-147.21 1473.71,-141.44 1773,-97 1781.84,-95.69 1791.12,-93.87 1800.13,-91.87"/>
<polygon fill="#63b8ff" stroke="#63b8ff" points="962.8,-144.03 952.8,-147.55 962.81,-151.03 962.8,-144.03"/>
</a>
</g>
</g>
<!-- Node5&#45;&gt;Node21 -->
<g id="edge25_Node000005_Node000021" class="edge">
<title>Node5&#45;&gt;Node21</title>
<g id="a_edge25_Node000005_Node000021"><a xlink:title=" ">
<path fill="none" stroke="#63b8ff" d="M823.89,-136.32C766.64,-126.94 683.25,-112.51 611,-97 606.58,-96.05 602.02,-95.03 597.44,-93.96"/>
<polygon fill="#63b8ff" stroke="#63b8ff" points="823.05,-139.73 833.49,-137.89 824.18,-132.83 823.05,-139.73"/>
</a>
</g>
</g>
<!-- Node6&#45;&gt;Node3 -->
<g id="edge7_Node000006_Node000003" class="edge">
<title>Node6&#45;&gt;Node3</title>
<g id="a_edge7_Node000006_Node000003"><a xlink:title=" ">
<path fill="none" stroke="#63b8ff" d="M764.37,-61.84C796.01,-49.24 842.68,-30.66 870.25,-19.68"/>
<polygon fill="#63b8ff" stroke="#63b8ff" points="763.27,-58.51 755.27,-65.46 765.86,-65.01 763.27,-58.51"/>
</a>
</g>
</g>
<!-- Node7 -->
<g id="Node000007" class="node">
<title>Node7</title>
<g id="a_Node000007"><a xlink:href="../../d5/dbb/camera-movement_8cpp.html" target="_top" xlink:title=" ">
<polygon fill="white" stroke="#666666" points="808.75,-19.25 653.25,-19.25 653.25,0 808.75,0 808.75,-19.25"/>
<text text-anchor="middle" x="731" y="-5.75" font-family="Helvetica,sans-Serif" font-size="10.00">d3d_test/camera&#45;movement.cpp</text>
</a>
</g>
</g>
<!-- Node6&#45;&gt;Node7 -->
<g id="edge6_Node000006_Node000007" class="edge">
<title>Node6&#45;&gt;Node7</title>
<g id="a_edge6_Node000006_Node000007"><a xlink:title=" ">
<path fill="none" stroke="#63b8ff" d="M731,-54.65C731,-42.82 731,-28.54 731,-19.52"/>
<polygon fill="#63b8ff" stroke="#63b8ff" points="727.5,-54.64 731,-64.64 734.5,-54.64 727.5,-54.64"/>
</a>
</g>
</g>
<!-- Node8&#45;&gt;Node3 -->
<g id="edge9_Node000008_Node000003" class="edge">
<title>Node8&#45;&gt;Node3</title>
<g id="a_edge9_Node000008_Node000003"><a xlink:title=" ">
<path fill="none" stroke="#63b8ff" d="M429.01,-62.61C438.38,-59.82 448.49,-57.14 458,-55.25 615.72,-23.92 658.12,-36.44 818,-19.25 823.73,-18.63 829.71,-17.97 835.68,-17.31"/>
<polygon fill="#63b8ff" stroke="#63b8ff" points="428,-59.26 419.49,-65.57 430.08,-65.95 428,-59.26"/>
</a>
</g>
</g>
<!-- Node8&#45;&gt;Node9 -->
<g id="edge10_Node000008_Node000009" class="edge">
<title>Node8&#45;&gt;Node9</title>
<g id="a_edge10_Node000008_Node000009"><a xlink:title=" ">
<path fill="none" stroke="#63b8ff" d="M392,-54.65C392,-42.82 392,-28.54 392,-19.52"/>
<polygon fill="#63b8ff" stroke="#63b8ff" points="388.5,-54.64 392,-64.64 395.5,-54.64 388.5,-54.64"/>
</a>
</g>
</g>
<!-- Node10&#45;&gt;Node3 -->
<g id="edge13_Node000010_Node000003" class="edge">
<title>Node10&#45;&gt;Node3</title>
<g id="a_edge13_Node000010_Node000003"><a xlink:title=" ">
<path fill="none" stroke="#63b8ff" d="M1168.33,-63.2C1157.46,-60.44 1145.84,-57.63 1135,-55.25 1071.15,-41.25 997.18,-28.04 947.99,-19.68"/>
<polygon fill="#63b8ff" stroke="#63b8ff" points="1167.31,-66.55 1177.87,-65.64 1169.05,-59.77 1167.31,-66.55"/>
</a>
</g>
</g>
<!-- Node11 -->
<g id="Node000011" class="node">
<title>Node11</title>
<g id="a_Node000011"><a xlink:href="../../d4/d94/object-editor_8cpp.html" target="_top" xlink:title=" ">
<polygon fill="white" stroke="#666666" points="1202.88,-19.25 1075.12,-19.25 1075.12,0 1202.88,0 1202.88,-19.25"/>
<text text-anchor="middle" x="1139" y="-5.75" font-family="Helvetica,sans-Serif" font-size="10.00">d3d_test/object&#45;editor.cpp</text>
</a>
</g>
</g>
<!-- Node10&#45;&gt;Node11 -->
<g id="edge14_Node000010_Node000011" class="edge">
<title>Node10&#45;&gt;Node11</title>
<g id="a_edge14_Node000010_Node000011"><a xlink:title=" ">
<path fill="none" stroke="#63b8ff" d="M1194.14,-58.69C1179.85,-46.23 1160.76,-29.59 1149.2,-19.52"/>
<polygon fill="#63b8ff" stroke="#63b8ff" points="1191.73,-61.23 1201.57,-65.16 1196.33,-55.95 1191.73,-61.23"/>
</a>
</g>
</g>
<!-- Node12 -->
<g id="Node000012" class="node">
<title>Node12</title>
<g id="a_Node000012"><a xlink:href="../../d0/d38/scene-viewer_8cpp.html" target="_top" xlink:title=" ">
<polygon fill="white" stroke="#666666" points="1353.12,-19.25 1220.88,-19.25 1220.88,0 1353.12,0 1353.12,-19.25"/>
<text text-anchor="middle" x="1287" y="-5.75" font-family="Helvetica,sans-Serif" font-size="10.00">d3d_test/scene&#45;viewer.cpp</text>
</a>
</g>
</g>
<!-- Node10&#45;&gt;Node12 -->
<g id="edge15_Node000010_Node000012" class="edge">
<title>Node10&#45;&gt;Node12</title>
<g id="a_edge15_Node000010_Node000012"><a xlink:title=" ">
<path fill="none" stroke="#63b8ff" d="M1231.86,-58.69C1246.15,-46.23 1265.24,-29.59 1276.8,-19.52"/>
<polygon fill="#63b8ff" stroke="#63b8ff" points="1229.67,-55.95 1224.43,-65.16 1234.27,-61.23 1229.67,-55.95"/>
</a>
</g>
</g>
<!-- Node13&#45;&gt;Node3 -->
<g id="edge17_Node000013_Node000003" class="edge">
<title>Node13&#45;&gt;Node3</title>
<g id="a_edge17_Node000013_Node000003"><a xlink:title=" ">
<path fill="none" stroke="#63b8ff" d="M893,-54.65C893,-42.82 893,-28.54 893,-19.52"/>
<polygon fill="#63b8ff" stroke="#63b8ff" points="889.5,-54.64 893,-64.64 896.5,-54.64 889.5,-54.64"/>
</a>
</g>
</g>
<!-- Node23 -->
<g id="Node000023" class="node">
<title>Node23</title>
<g id="a_Node000023"><a xlink:href="../../d4/d87/layers_8hpp.html" target="_top" xlink:title=" ">
<polygon fill="white" stroke="#666666" points="806.38,-218.75 693.62,-218.75 693.62,-199.5 806.38,-199.5 806.38,-218.75"/>
<text text-anchor="middle" x="750" y="-205.25" font-family="Helvetica,sans-Serif" font-size="10.00">engine/core/layers.hpp</text>
</a>
</g>
</g>
<!-- Node22&#45;&gt;Node23 -->
<g id="edge27_Node000022_Node000023" class="edge">
<title>Node22&#45;&gt;Node23</title>
<g id="a_edge27_Node000022_Node000023"><a xlink:title=" ">
<path fill="none" stroke="#63b8ff" d="M707.72,-252.08C719.23,-240.66 732.54,-227.45 741.11,-218.95"/>
<polygon fill="#63b8ff" stroke="#63b8ff" points="705.46,-249.39 700.82,-258.92 710.39,-254.36 705.46,-249.39"/>
</a>
</g>
</g>
<!-- Node22&#45;&gt;Node24 -->
<g id="edge29_Node000022_Node000024" class="edge">
<title>Node22&#45;&gt;Node24</title>
<g id="a_edge29_Node000022_Node000024"><a xlink:title=" ">
<path fill="none" stroke="#63b8ff" d="M647.57,-254.74C600.03,-229.48 519.09,-186.49 476.72,-163.98"/>
<polygon fill="#63b8ff" stroke="#63b8ff" points="645.66,-257.69 656.13,-259.29 648.94,-251.5 645.66,-257.69"/>
</a>
</g>
</g>
<!-- Node23&#45;&gt;Node5 -->
<g id="edge28_Node000023_Node000005" class="edge">
<title>Node23&#45;&gt;Node5</title>
<g id="a_edge28_Node000023_Node000005"><a xlink:title=" ">
<path fill="none" stroke="#63b8ff" d="M782.56,-194.72C809.69,-183.55 847.58,-167.95 871.18,-158.23"/>
<polygon fill="#63b8ff" stroke="#63b8ff" points="781.34,-191.44 773.43,-198.48 784.01,-197.91 781.34,-191.44"/>
</a>
</g>
</g>
<!-- Node24&#45;&gt;Node8 -->
<g id="edge30_Node000024_Node000008" class="edge">
<title>Node24&#45;&gt;Node8</title>
<g id="a_edge30_Node000024_Node000008"><a xlink:title=" ">
<path fill="none" stroke="#63b8ff" d="M430.23,-124.16C419.58,-111.06 406.87,-95.42 399.12,-85.88"/>
<polygon fill="#63b8ff" stroke="#63b8ff" points="427.21,-125.99 436.23,-131.55 432.64,-121.58 427.21,-125.99"/>
</a>
</g>
</g>
<!-- Node24&#45;&gt;Node9 -->
<g id="edge31_Node000024_Node000009" class="edge">
<title>Node24&#45;&gt;Node9</title>
<g id="a_edge31_Node000024_Node000009"><a xlink:title=" ">
<path fill="none" stroke="#63b8ff" d="M372.34,-133.39C292.18,-118.85 177.8,-97.96 177,-97 128.18,-38.33 269.85,-19.18 346.45,-13.2"/>
<polygon fill="#63b8ff" stroke="#63b8ff" points="371.46,-136.78 381.92,-135.12 372.71,-129.9 371.46,-136.78"/>
</a>
</g>
</g>
<!-- Node24&#45;&gt;Node15 -->
<g id="edge32_Node000024_Node000015" class="edge">
<title>Node24&#45;&gt;Node15</title>
<g id="a_edge32_Node000024_Node000015"><a xlink:title=" ">
<path fill="none" stroke="#63b8ff" d="M396.8,-128.76C364.2,-117.22 322.8,-102.55 292.45,-91.81"/>
<polygon fill="#63b8ff" stroke="#63b8ff" points="395.47,-132 406.07,-132.04 397.81,-125.41 395.47,-132"/>
</a>
</g>
</g>
<!-- Node29&#45;&gt;Node2 -->
<g id="edge43_Node000029_Node000002" class="edge">
<title>Node29&#45;&gt;Node2</title>
<g id="a_edge43_Node000029_Node000002"><a xlink:title=" ">
<path fill="none" stroke="#63b8ff" d="M1371.83,-468.34C1367.16,-467.34 1362.52,-466.39 1358,-465.5 1272.28,-448.66 1172.59,-433.5 1108.7,-424.33"/>
<polygon fill="#63b8ff" stroke="#63b8ff" points="1370.75,-471.69 1381.27,-470.4 1372.25,-464.85 1370.75,-471.69"/>
</a>
</g>
</g>
<!-- Node29&#45;&gt;Node16 -->
<g id="edge44_Node000029_Node000016" class="edge">
<title>Node29&#45;&gt;Node16</title>
<g id="a_edge44_Node000029_Node000016"><a xlink:title=" ">
<path fill="none" stroke="#63b8ff" d="M1515.47,-468.13C1519.37,-467.23 1523.23,-466.35 1527,-465.5 1601.49,-448.71 1638.94,-481.35 1695,-429.5 1722.48,-404.08 1719,-386.19 1719,-348.75 1719,-348.75 1719,-348.75 1719,-208.12 1719,-169.11 1611.14,-116.75 1553.84,-91.68"/>
<polygon fill="#63b8ff" stroke="#63b8ff" points="1514.87,-464.67 1505.91,-470.34 1516.45,-471.49 1514.87,-464.67"/>
</a>
</g>
</g>
<!-- Node30&#45;&gt;Node2 -->
<g id="edge46_Node000030_Node000002" class="edge">
<title>Node30&#45;&gt;Node2</title>
<g id="a_edge46_Node000030_Node000002"><a xlink:title=" ">
<path fill="none" stroke="#63b8ff" d="M1089.69,-536.23C1079.18,-528.15 1069.05,-518.4 1062,-507.25 1045.09,-480.51 1042.9,-441.46 1042.83,-424.12"/>
<polygon fill="#63b8ff" stroke="#63b8ff" points="1087.56,-539.02 1097.72,-542.03 1091.65,-533.34 1087.56,-539.02"/>
</a>
</g>
</g>
<!-- Node30&#45;&gt;Node17 -->
<g id="edge47_Node000030_Node000017" class="edge">
<title>Node30&#45;&gt;Node17</title>
<g id="a_edge47_Node000030_Node000017"><a xlink:title=" ">
<path fill="none" stroke="#63b8ff" d="M1059.64,-560.46C817.23,-551 81,-514.13 81,-415.25 81,-415.25 81,-415.25 81,-208.12 81,-168.72 73.78,-123.13 69.04,-97.45"/>
<polygon fill="#63b8ff" stroke="#63b8ff" points="1059.16,-563.95 1069.29,-560.83 1059.43,-556.95 1059.16,-563.95"/>
</a>
</g>
</g>
<!-- Node31 -->
<g id="Node000031" class="node">
<title>Node31</title>
<g id="a_Node000031"><a xlink:href="../../df/d79/emissive-particle-render-system_8hpp.html" target="_top" xlink:title=" ">
<polygon fill="white" stroke="#666666" points="1201,-507.25 1071,-507.25 1071,-465.5 1201,-465.5 1201,-507.25"/>
<text text-anchor="start" x="1079" y="-493.75" font-family="Helvetica,sans-Serif" font-size="10.00">engine/subsystems/render</text>
<text text-anchor="start" x="1079" y="-482.5" font-family="Helvetica,sans-Serif" font-size="10.00">/detail/emissive&#45;particle</text>
<text text-anchor="middle" x="1136" y="-471.25" font-family="Helvetica,sans-Serif" font-size="10.00">&#45;render&#45;system.hpp</text>
</a>
</g>
</g>
<!-- Node30&#45;&gt;Node31 -->
<g id="edge48_Node000030_Node000031" class="edge">
<title>Node30&#45;&gt;Node31</title>
<g id="a_edge48_Node000030_Node000031"><a xlink:title=" ">
<path fill="none" stroke="#63b8ff" d="M1136,-531.5C1136,-523.46 1136,-515.04 1136,-507.73"/>
<polygon fill="#63b8ff" stroke="#63b8ff" points="1132.5,-531.31 1136,-541.31 1139.5,-531.31 1132.5,-531.31"/>
</a>
</g>
</g>
<!-- Node30&#45;&gt;Node32 -->
<g id="edge51_Node000030_Node000032" class="edge">
<title>Node30&#45;&gt;Node32</title>
<g id="a_edge51_Node000030_Node000032"><a xlink:title=" ">
<path fill="none" stroke="#63b8ff" d="M1185.7,-537.69C1208.93,-525.8 1235.74,-512.07 1255.49,-501.96"/>
<polygon fill="#63b8ff" stroke="#63b8ff" points="1184.32,-534.46 1177.01,-542.14 1187.51,-540.7 1184.32,-534.46"/>
</a>
</g>
</g>
<!-- Node31&#45;&gt;Node2 -->
<g id="edge49_Node000031_Node000002" class="edge">
<title>Node31&#45;&gt;Node2</title>
<g id="a_edge49_Node000031_Node000002"><a xlink:title=" ">
<path fill="none" stroke="#63b8ff" d="M1100.35,-458.5C1084.17,-446.29 1066.12,-432.68 1054.67,-424.05"/>
<polygon fill="#63b8ff" stroke="#63b8ff" points="1097.8,-460.95 1107.89,-464.18 1102.01,-455.37 1097.8,-460.95"/>
</a>
</g>
</g>
<!-- Node31&#45;&gt;Node18 -->
<g id="edge50_Node000031_Node000018" class="edge">
<title>Node31&#45;&gt;Node18</title>
<g id="a_edge50_Node000031_Node000018"><a xlink:title=" ">
<path fill="none" stroke="#63b8ff" d="M1145.19,-454.78C1155.14,-423.3 1172.4,-373.25 1193,-332.5 1239.84,-239.84 1312.85,-139.37 1344.5,-97.36"/>
<polygon fill="#63b8ff" stroke="#63b8ff" points="1141.93,-453.45 1142.3,-464.04 1148.62,-455.53 1141.93,-453.45"/>
</a>
</g>
</g>
<!-- Node32&#45;&gt;Node2 -->
<g id="edge52_Node000032_Node000002" class="edge">
<title>Node32&#45;&gt;Node2</title>
<g id="a_edge52_Node000032_Node000002"><a xlink:title=" ">
<path fill="none" stroke="#63b8ff" d="M1222.43,-467.46C1175.11,-453.69 1111.71,-435.24 1074.33,-424.36"/>
<polygon fill="#63b8ff" stroke="#63b8ff" points="1221.45,-470.82 1232.03,-470.25 1223.4,-464.1 1221.45,-470.82"/>
</a>
</g>
</g>
<!-- Node32&#45;&gt;Node16 -->
<g id="edge54_Node000032_Node000016" class="edge">
<title>Node32&#45;&gt;Node16</title>
<g id="a_edge54_Node000032_Node000016"><a xlink:title=" ">
<path fill="none" stroke="#63b8ff" d="M1309.73,-462.89C1319.54,-453.34 1330.22,-441.61 1338,-429.5 1377.46,-368.1 1398,-349.62 1398,-276.62 1398,-276.62 1398,-276.62 1398,-208.12 1398,-153.79 1454.87,-112.39 1490.63,-91.72"/>
<polygon fill="#63b8ff" stroke="#63b8ff" points="1307.42,-460.25 1302.53,-469.65 1312.22,-465.36 1307.42,-460.25"/>
</a>
</g>
</g>
<!-- Node32&#45;&gt;Node17 -->
<g id="edge55_Node000032_Node000017" class="edge">
<title>Node32&#45;&gt;Node17</title>
<g id="a_edge55_Node000032_Node000017"><a xlink:title=" ">
<path fill="none" stroke="#63b8ff" d="M1221.71,-468.03C1217.76,-467.12 1213.83,-466.27 1210,-465.5 875.4,-398.32 763.63,-495.2 449,-363 376.81,-332.67 372.6,-301.79 310,-254.75 232.51,-196.51 139.46,-129.96 93.53,-97.32"/>
<polygon fill="#63b8ff" stroke="#63b8ff" points="1220.84,-471.42 1231.38,-470.37 1222.48,-464.62 1220.84,-471.42"/>
</a>
</g>
</g>
<!-- Node32&#45;&gt;Node18 -->
<g id="edge56_Node000032_Node000018" class="edge">
<title>Node32&#45;&gt;Node18</title>
<g id="a_edge56_Node000032_Node000018"><a xlink:title=" ">
<path fill="none" stroke="#63b8ff" d="M1299.08,-461.23C1321.24,-423.39 1360,-347.13 1360,-276.62 1360,-276.62 1360,-276.62 1360,-208.12 1360,-168.78 1360,-122.79 1360,-97.1"/>
<polygon fill="#63b8ff" stroke="#63b8ff" points="1296.24,-459.18 1294.1,-469.55 1302.24,-462.78 1296.24,-459.18"/>
</a>
</g>
</g>
<!-- Node32&#45;&gt;Node20 -->
<g id="edge58_Node000032_Node000020" class="edge">
<title>Node32&#45;&gt;Node20</title>
<g id="a_edge58_Node000032_Node000020"><a xlink:title=" ">
<path fill="none" stroke="#63b8ff" d="M1345.7,-468.09C1349.85,-467.15 1353.98,-466.27 1358,-465.5 1424.8,-452.64 1605.62,-467.56 1662,-429.5 1726.17,-386.18 1824.18,-153 1849.09,-91.83"/>
<polygon fill="#63b8ff" stroke="#63b8ff" points="1345.11,-464.63 1336.2,-470.36 1346.74,-471.44 1345.11,-464.63"/>
</a>
</g>
</g>
<!-- Node32&#45;&gt;Node27 -->
<g id="edge57_Node000032_Node000027" class="edge">
<title>Node32&#45;&gt;Node27</title>
<g id="a_edge57_Node000032_Node000027"><a xlink:title=" ">
<path fill="none" stroke="#63b8ff" d="M1256.99,-463.69C1206.51,-423.16 1098.52,-336.46 1049.34,-296.97"/>
<polygon fill="#63b8ff" stroke="#63b8ff" points="1254.55,-466.22 1264.54,-469.75 1258.93,-460.76 1254.55,-466.22"/>
</a>
</g>
</g>
<!-- Node32&#45;&gt;Node28 -->
<g id="edge59_Node000032_Node000028" class="edge">
<title>Node32&#45;&gt;Node28</title>
<g id="a_edge59_Node000032_Node000028"><a xlink:title=" ">
<path fill="none" stroke="#63b8ff" d="M1224.24,-468.12C1219.45,-467.11 1214.66,-466.21 1210,-465.5 1111.61,-450.5 400.88,-479.8 315,-429.5 287.65,-413.48 244.38,-326.33 227.79,-291.25"/>
<polygon fill="#63b8ff" stroke="#63b8ff" points="1223.36,-471.51 1233.89,-470.33 1224.93,-464.69 1223.36,-471.51"/>
</a>
</g>
</g>
<!-- Node33 -->
<g id="Node000033" class="node">
<title>Node33</title>
<g id="a_Node000033"><a xlink:href="../../d6/dab/model-loader_8cpp.html" target="_top" xlink:title=" ">
<polygon fill="white" stroke="#666666" points="1504.88,-429.5 1383.12,-429.5 1383.12,-399 1504.88,-399 1504.88,-429.5"/>
<text text-anchor="start" x="1391.12" y="-416" font-family="Helvetica,sans-Serif" font-size="10.00">engine/subsystems/core</text>
<text text-anchor="middle" x="1444" y="-404.75" font-family="Helvetica,sans-Serif" font-size="10.00">/model&#45;loader.cpp</text>
</a>
</g>
</g>
<!-- Node32&#45;&gt;Node33 -->
<g id="edge53_Node000032_Node000033" class="edge">
<title>Node32&#45;&gt;Node33</title>
<g id="a_edge53_Node000032_Node000033"><a xlink:title=" ">
<path fill="none" stroke="#63b8ff" d="M1327.91,-466.13C1353.98,-454.71 1386.51,-440.45 1410.5,-429.93"/>
<polygon fill="#63b8ff" stroke="#63b8ff" points="1326.68,-462.85 1318.93,-470.07 1329.49,-469.26 1326.68,-462.85"/>
</a>
</g>
</g>
<!-- Node34 -->
<g id="Node000034" class="node">
<title>Node34</title>
<g id="a_Node000034"><a xlink:href="../../d3/d4f/model-system_8cpp.html" target="_top" xlink:title=" ">
<polygon fill="white" stroke="#666666" points="1653,-429.5 1523,-429.5 1523,-399 1653,-399 1653,-429.5"/>
<text text-anchor="start" x="1531" y="-416" font-family="Helvetica,sans-Serif" font-size="10.00">engine/subsystems/render</text>
<text text-anchor="middle" x="1588" y="-404.75" font-family="Helvetica,sans-Serif" font-size="10.00">/model&#45;system.cpp</text>
</a>
</g>
</g>
<!-- Node32&#45;&gt;Node34 -->
<g id="edge60_Node000032_Node000034" class="edge">
<title>Node32&#45;&gt;Node34</title>
<g id="a_edge60_Node000032_Node000034"><a xlink:title=" ">
<path fill="none" stroke="#63b8ff" d="M1348.57,-467.84C1351.75,-467.04 1354.91,-466.25 1358,-465.5 1413.4,-452.02 1476.72,-438.31 1522.88,-428.62"/>
<polygon fill="#63b8ff" stroke="#63b8ff" points="1347.96,-464.38 1339.14,-470.26 1349.7,-471.16 1347.96,-464.38"/>
</a>
</g>
</g>
<!-- Node35 -->
<g id="Node000035" class="node">
<title>Node35</title>
<g id="a_Node000035"><a xlink:href="../../d6/de4/subsystems_2render_2render_8hpp.html" target="_top" xlink:title=" ">
<polygon fill="white" stroke="#666666" points="1332,-363 1202,-363 1202,-332.5 1332,-332.5 1332,-363"/>
<text text-anchor="start" x="1210" y="-349.5" font-family="Helvetica,sans-Serif" font-size="10.00">engine/subsystems/render</text>
<text text-anchor="middle" x="1267" y="-338.25" font-family="Helvetica,sans-Serif" font-size="10.00">/render.hpp</text>
</a>
</g>
</g>
<!-- Node32&#45;&gt;Node35 -->
<g id="edge61_Node000032_Node000035" class="edge">
<title>Node32&#45;&gt;Node35</title>
<g id="a_edge61_Node000032_Node000035"><a xlink:title=" ">
<path fill="none" stroke="#63b8ff" d="M1280.8,-459.66C1277.25,-431.16 1271.66,-386.21 1268.81,-363.27"/>
<polygon fill="#63b8ff" stroke="#63b8ff" points="1277.29,-459.76 1281.99,-469.25 1284.23,-458.9 1277.29,-459.76"/>
</a>
</g>
</g>
<!-- Node35&#45;&gt;Node5 -->
<g id="edge62_Node000035_Node000005" class="edge">
<title>Node35&#45;&gt;Node5</title>
<g id="a_edge62_Node000035_Node000005"><a xlink:title=" ">
<path fill="none" stroke="#63b8ff" d="M1230.49,-326.56C1196.35,-307.75 1143.89,-279.04 1098,-254.75 1029.2,-218.32 946.61,-176.35 910.9,-158.28"/>
<polygon fill="#63b8ff" stroke="#63b8ff" points="1228.69,-329.56 1239.14,-331.33 1232.07,-323.43 1228.69,-329.56"/>
</a>
</g>
</g>
<!-- Node36&#45;&gt;Node2 -->
<g id="edge64_Node000036_Node000002" class="edge">
<title>Node36&#45;&gt;Node2</title>
<g id="a_edge64_Node000036_Node000002"><a xlink:title=" ">
<path fill="none" stroke="#63b8ff" d="M1542.77,-468.43C1537.45,-467.36 1532.15,-466.37 1527,-465.5 1378.5,-440.53 1202.15,-425.97 1108.72,-419.43"/>
<polygon fill="#63b8ff" stroke="#63b8ff" points="1541.68,-471.78 1552.19,-470.4 1543.12,-464.92 1541.68,-471.78"/>
</a>
</g>
</g>
<!-- Node36&#45;&gt;Node19 -->
<g id="edge65_Node000036_Node000019" class="edge">
<title>Node36&#45;&gt;Node19</title>
<g id="a_edge65_Node000036_Node000019"><a xlink:title=" ">
<path fill="none" stroke="#63b8ff" d="M1665.81,-466.1C1684.77,-457.24 1705.07,-445.16 1720,-429.5 1747.24,-400.93 1757,-388.23 1757,-348.75 1757,-348.75 1757,-348.75 1757,-208.12 1757,-161.08 1721.74,-114.36 1701.63,-91.53"/>
<polygon fill="#63b8ff" stroke="#63b8ff" points="1664.56,-462.82 1656.84,-470.07 1667.4,-469.22 1664.56,-462.82"/>
</a>
</g>
</g>
</g>
</svg>
