<?xml version="1.0" encoding="UTF-8" standalone="no"?>
<!DOCTYPE svg PUBLIC "-//W3C//DTD SVG 1.1//EN"
 "http://www.w3.org/Graphics/SVG/1.1/DTD/svg11.dtd">
<!-- Generated by graphviz version 8.1.0 (20230707.0739)
 -->
<!-- Title: engine::render::_decal_detail::DecalRenderSystem Pages: 1 -->
<svg width="1290pt" height="234pt"
 viewBox="0.00 0.00 1289.75 233.50" xmlns="http://www.w3.org/2000/svg" xmlns:xlink="http://www.w3.org/1999/xlink">
<g id="graph0" class="graph" transform="scale(1 1) rotate(0) translate(4 229.5)">
<title>engine::render::_decal_detail::DecalRenderSystem</title>
<!-- Node1 -->
<g id="Node000001" class="node">
<title>Node1</title>
<g id="a_Node000001"><a xlink:title=" ">
<polygon fill="#999999" stroke="#666666" points="1281.75,-128.12 1144.25,-128.12 1144.25,-97.62 1281.75,-97.62 1281.75,-128.12"/>
<text text-anchor="start" x="1152.25" y="-114.62" font-family="Helvetica,sans-Serif" font-size="10.00">engine::render::_decal</text>
<text text-anchor="middle" x="1213" y="-103.38" font-family="Helvetica,sans-Serif" font-size="10.00">_detail::DecalRenderSystem</text>
</a>
</g>
</g>
<!-- Node2 -->
<g id="Node000002" class="node">
<title>Node2</title>
<g id="a_Node000002"><a xlink:href="../../da/df3/structengine_1_1render_1_1_render_pass.html" target="_top" xlink:title=" ">
<polygon fill="white" stroke="#666666" points="1009.62,-187.5 875.88,-187.5 875.88,-168.25 1009.62,-168.25 1009.62,-187.5"/>
<text text-anchor="middle" x="942.75" y="-174" font-family="Helvetica,sans-Serif" font-size="10.00">engine::render::RenderPass</text>
</a>
</g>
</g>
<!-- Node2&#45;&gt;Node1 -->
<g id="edge1_Node000001_Node000002" class="edge">
<title>Node2&#45;&gt;Node1</title>
<g id="a_edge1_Node000001_Node000002"><a xlink:title=" ">
<path fill="none" stroke="#63b8ff" d="M1016.15,-165.85C1049.86,-159.68 1090.35,-151.44 1126.25,-141.88 1140.37,-138.11 1155.55,-133.26 1169.15,-128.6"/>
<polygon fill="#63b8ff" stroke="#63b8ff" points="1015.68,-162.56 1006.46,-167.78 1016.92,-169.45 1015.68,-162.56"/>
</a>
</g>
</g>
<!-- Node3 -->
<g id="Node000003" class="node">
<title>Node3</title>
<g id="a_Node000003"><a xlink:href="../../dd/d36/classengine_1_1render_1_1_graphics_shader_program.html" target="_top" xlink:title=" ">
<polygon fill="white" stroke="#666666" points="1002.5,-150.12 883,-150.12 883,-119.62 1002.5,-119.62 1002.5,-150.12"/>
<text text-anchor="start" x="891" y="-136.62" font-family="Helvetica,sans-Serif" font-size="10.00">engine::render::Graphics</text>
<text text-anchor="middle" x="942.75" y="-125.38" font-family="Helvetica,sans-Serif" font-size="10.00">ShaderProgram</text>
</a>
</g>
</g>
<!-- Node3&#45;&gt;Node1 -->
<g id="edge2_Node000001_Node000003" class="edge">
<title>Node3&#45;&gt;Node1</title>
<g id="a_edge2_Node000001_Node000003"><a xlink:title=" ">
<path fill="none" stroke="#9a32cd" stroke-dasharray="5,2" d="M1013.73,-129.14C1053.9,-125.84 1104.12,-121.72 1143.96,-118.46"/>
<polygon fill="#9a32cd" stroke="#9a32cd" points="1013.63,-125.71 1003.95,-130.02 1014.2,-132.69 1013.63,-125.71"/>
</a>
</g>
<text text-anchor="middle" x="1081.62" y="-128.62" font-family="Helvetica,sans-Serif" font-size="10.00" fill="grey"> decal_shader_</text>
</g>
<!-- Node4 -->
<g id="Node000004" class="node">
<title>Node4</title>
<g id="a_Node000004"><a xlink:href="../../db/db6/structengine_1_1render_1_1_shader_program.html" target="_top" xlink:title=" ">
<polygon fill="white" stroke="#666666" points="771.25,-225.5 623.25,-225.5 623.25,-206.25 771.25,-206.25 771.25,-225.5"/>
<text text-anchor="middle" x="697.25" y="-212" font-family="Helvetica,sans-Serif" font-size="10.00">engine::render::ShaderProgram</text>
</a>
</g>
</g>
<!-- Node4&#45;&gt;Node3 -->
<g id="edge3_Node000003_Node000004" class="edge">
<title>Node4&#45;&gt;Node3</title>
<g id="a_edge3_Node000003_Node000004"><a xlink:title=" ">
<path fill="none" stroke="#63b8ff" d="M748.96,-203C756.45,-201.01 764.06,-198.93 771.25,-196.88 805.82,-187.01 816.63,-189.51 848.5,-172.88 857.48,-168.18 857.53,-163.6 866.5,-158.88 872.32,-155.81 878.61,-153.05 884.98,-150.58"/>
<polygon fill="#63b8ff" stroke="#63b8ff" points="748.28,-199.83 739.5,-205.76 750.06,-206.59 748.28,-199.83"/>
</a>
</g>
</g>
<!-- Node5 -->
<g id="Node000005" class="node">
<title>Node5</title>
<g id="a_Node000005"><a xlink:title=" ">
<polygon fill="white" stroke="#666666" points="755.5,-188.12 639,-188.12 639,-157.62 755.5,-157.62 755.5,-188.12"/>
<text text-anchor="start" x="647" y="-174.62" font-family="Helvetica,sans-Serif" font-size="10.00">std::shared_ptr&lt; engine</text>
<text text-anchor="middle" x="697.25" y="-163.38" font-family="Helvetica,sans-Serif" font-size="10.00">::render::Shader &gt;</text>
</a>
</g>
</g>
<!-- Node5&#45;&gt;Node3 -->
<g id="edge4_Node000003_Node000005" class="edge">
<title>Node5&#45;&gt;Node3</title>
<g id="a_edge4_Node000003_Node000005"><a xlink:title=" ">
<path fill="none" stroke="#9a32cd" stroke-dasharray="5,2" d="M766.54,-162.22C803.11,-156.51 847.71,-149.55 882.77,-144.08"/>
<polygon fill="#9a32cd" stroke="#9a32cd" points="766.3,-158.87 756.96,-163.87 767.38,-165.79 766.3,-158.87"/>
</a>
</g>
<text text-anchor="middle" x="818.88" y="-159.62" font-family="Helvetica,sans-Serif" font-size="10.00" fill="grey"> shaders_</text>
</g>
<!-- Node6 -->
<g id="Node000006" class="node">
<title>Node6</title>
<g id="a_Node000006"><a xlink:href="../../d0/dc5/classengine_1_1render_1_1_shader.html" target="_top" xlink:title=" ">
<polygon fill="white" stroke="#666666" points="563.62,-182.5 452.38,-182.5 452.38,-163.25 563.62,-163.25 563.62,-182.5"/>
<text text-anchor="middle" x="508" y="-169" font-family="Helvetica,sans-Serif" font-size="10.00">engine::render::Shader</text>
</a>
</g>
</g>
<!-- Node6&#45;&gt;Node5 -->
<g id="edge5_Node000005_Node000006" class="edge">
<title>Node6&#45;&gt;Node5</title>
<g id="a_edge5_Node000005_Node000006"><a xlink:title=" ">
<path fill="none" stroke="#9a32cd" stroke-dasharray="5,2" d="M574.63,-172.88C595.52,-172.88 618.46,-172.88 638.73,-172.88"/>
<polygon fill="#9a32cd" stroke="#9a32cd" points="574.92,-169.38 564.92,-172.88 574.92,-176.38 574.92,-169.38"/>
</a>
</g>
<text text-anchor="middle" x="598.5" y="-174.62" font-family="Helvetica,sans-Serif" font-size="10.00" fill="grey"> ptr</text>
</g>
<!-- Node7 -->
<g id="Node000007" class="node">
<title>Node7</title>
<g id="a_Node000007"><a xlink:href="../../d3/de6/structengine_1_1render_1_1_shader_blob.html" target="_top" xlink:title=" ">
<polygon fill="white" stroke="#666666" points="380.75,-182.5 250,-182.5 250,-163.25 380.75,-163.25 380.75,-182.5"/>
<text text-anchor="middle" x="315.38" y="-169" font-family="Helvetica,sans-Serif" font-size="10.00">engine::render::ShaderBlob</text>
</a>
</g>
</g>
<!-- Node7&#45;&gt;Node6 -->
<g id="edge6_Node000006_Node000007" class="edge">
<title>Node7&#45;&gt;Node6</title>
<g id="a_edge6_Node000006_Node000007"><a xlink:title=" ">
<path fill="none" stroke="#9a32cd" stroke-dasharray="5,2" d="M392.12,-172.88C412.09,-172.88 433.26,-172.88 451.91,-172.88"/>
<polygon fill="#9a32cd" stroke="#9a32cd" points="392.18,-169.38 382.18,-172.88 392.18,-176.38 392.18,-169.38"/>
</a>
</g>
<text text-anchor="middle" x="411.5" y="-174.62" font-family="Helvetica,sans-Serif" font-size="10.00" fill="grey"> blob_</text>
</g>
<!-- Node8 -->
<g id="Node000008" class="node">
<title>Node8</title>
<g id="a_Node000008"><a xlink:title=" ">
<polygon fill="white" stroke="#666666" points="139.75,-182.5 33,-182.5 33,-163.25 139.75,-163.25 139.75,-182.5"/>
<text text-anchor="middle" x="86.38" y="-169" font-family="Helvetica,sans-Serif" font-size="10.00">std::vector&lt; uint8_t &gt;</text>
</a>
</g>
</g>
<!-- Node8&#45;&gt;Node7 -->
<g id="edge7_Node000007_Node000008" class="edge">
<title>Node8&#45;&gt;Node7</title>
<g id="a_edge7_Node000007_Node000008"><a xlink:title=" ">
<path fill="none" stroke="#9a32cd" stroke-dasharray="5,2" d="M150.68,-172.88C181.61,-172.88 218.77,-172.88 249.86,-172.88"/>
<polygon fill="#9a32cd" stroke="#9a32cd" points="151.02,-169.38 141.02,-172.88 151.02,-176.38 151.02,-169.38"/>
</a>
</g>
<text text-anchor="middle" x="211.38" y="-174.62" font-family="Helvetica,sans-Serif" font-size="10.00" fill="grey"> bytecode</text>
</g>
<!-- Node9 -->
<g id="Node000009" class="node">
<title>Node9</title>
<g id="a_Node000009"><a xlink:title=" ">
<polygon fill="white" stroke="#666666" points="755.5,-139.12 639,-139.12 639,-108.62 755.5,-108.62 755.5,-139.12"/>
<text text-anchor="start" x="647" y="-125.62" font-family="Helvetica,sans-Serif" font-size="10.00">std::shared_ptr&lt; engine</text>
<text text-anchor="middle" x="697.25" y="-114.38" font-family="Helvetica,sans-Serif" font-size="10.00">::render::InputLayout &gt;</text>
</a>
</g>
</g>
<!-- Node9&#45;&gt;Node3 -->
<g id="edge8_Node000003_Node000009" class="edge">
<title>Node9&#45;&gt;Node3</title>
<g id="a_edge8_Node000003_Node000009"><a xlink:title=" ">
<path fill="none" stroke="#9a32cd" stroke-dasharray="5,2" d="M766.54,-126.96C803.11,-128.61 847.71,-130.63 882.77,-132.21"/>
<polygon fill="#9a32cd" stroke="#9a32cd" points="767.1,-123.44 756.96,-126.48 766.79,-130.43 767.1,-123.44"/>
</a>
</g>
<text text-anchor="middle" x="818.88" y="-131.62" font-family="Helvetica,sans-Serif" font-size="10.00" fill="grey"> input_layout_</text>
</g>
<!-- Node10 -->
<g id="Node000010" class="node">
<title>Node10</title>
<g id="a_Node000010"><a xlink:href="../../d2/d6c/classengine_1_1render_1_1_input_layout.html" target="_top" xlink:title=" ">
<polygon fill="white" stroke="#666666" points="573.75,-133.5 442.25,-133.5 442.25,-114.25 573.75,-114.25 573.75,-133.5"/>
<text text-anchor="middle" x="508" y="-120" font-family="Helvetica,sans-Serif" font-size="10.00">engine::render::InputLayout</text>
</a>
</g>
</g>
<!-- Node10&#45;&gt;Node9 -->
<g id="edge9_Node000009_Node000010" class="edge">
<title>Node10&#45;&gt;Node9</title>
<g id="a_edge9_Node000009_Node000010"><a xlink:title=" ">
<path fill="none" stroke="#9a32cd" stroke-dasharray="5,2" d="M585.22,-123.88C603.1,-123.88 621.85,-123.88 638.75,-123.88"/>
<polygon fill="#9a32cd" stroke="#9a32cd" points="585.23,-120.38 575.23,-123.88 585.23,-127.38 585.23,-120.38"/>
</a>
</g>
<text text-anchor="middle" x="598.5" y="-125.62" font-family="Helvetica,sans-Serif" font-size="10.00" fill="grey"> ptr</text>
</g>
<!-- Node11 -->
<g id="Node000011" class="node">
<title>Node11</title>
<g id="a_Node000011"><a xlink:title=" ">
<polygon fill="white" stroke="#666666" points="997.25,-101.75 888.25,-101.75 888.25,-60 997.25,-60 997.25,-101.75"/>
<text text-anchor="start" x="896.25" y="-88.25" font-family="Helvetica,sans-Serif" font-size="10.00">std::vector&lt; engine</text>
<text text-anchor="start" x="896.25" y="-77" font-family="Helvetica,sans-Serif" font-size="10.00">::render::_decal_detail</text>
<text text-anchor="middle" x="942.75" y="-65.75" font-family="Helvetica,sans-Serif" font-size="10.00">::MaterialInstance &gt;</text>
</a>
</g>
</g>
<!-- Node11&#45;&gt;Node1 -->
<g id="edge10_Node000001_Node000011" class="edge">
<title>Node11&#45;&gt;Node1</title>
<g id="a_edge10_Node000001_Node000011"><a xlink:title=" ">
<path fill="none" stroke="#9a32cd" stroke-dasharray="5,2" d="M1008.38,-88.59C1049.33,-93.47 1102.2,-99.78 1143.81,-104.74"/>
<polygon fill="#9a32cd" stroke="#9a32cd" points="1009.06,-85.02 998.71,-87.31 1008.23,-91.97 1009.06,-85.02"/>
</a>
</g>
<text text-anchor="middle" x="1081.62" y="-103.62" font-family="Helvetica,sans-Serif" font-size="10.00" fill="grey"> material_instances_</text>
</g>
<!-- Node12 -->
<g id="Node000012" class="node">
<title>Node12</title>
<g id="a_Node000012"><a xlink:href="../../d0/d1f/structengine_1_1render_1_1__decal__detail_1_1_material_instance.html" target="_top" xlink:title=" ">
<polygon fill="white" stroke="#666666" points="757.75,-90.12 636.75,-90.12 636.75,-59.62 757.75,-59.62 757.75,-90.12"/>
<text text-anchor="start" x="644.75" y="-76.62" font-family="Helvetica,sans-Serif" font-size="10.00">engine::render::_decal</text>
<text text-anchor="middle" x="697.25" y="-65.38" font-family="Helvetica,sans-Serif" font-size="10.00">_detail::MaterialInstance</text>
</a>
</g>
</g>
<!-- Node12&#45;&gt;Node11 -->
<g id="edge11_Node000011_Node000012" class="edge">
<title>Node12&#45;&gt;Node11</title>
<g id="a_edge11_Node000011_Node000012"><a xlink:title=" ">
<path fill="none" stroke="#9a32cd" stroke-dasharray="5,2" d="M769.1,-76.62C807.02,-77.56 852.96,-78.69 887.92,-79.55"/>
<polygon fill="#9a32cd" stroke="#9a32cd" points="769.21,-73.1 759.13,-76.35 769.04,-80.1 769.21,-73.1"/>
</a>
</g>
<text text-anchor="middle" x="818.88" y="-79.62" font-family="Helvetica,sans-Serif" font-size="10.00" fill="grey"> elements</text>
</g>
<!-- Node13 -->
<g id="Node000013" class="node">
<title>Node13</title>
<g id="a_Node000013"><a xlink:href="../../d5/dbb/classengine_1_1direct3d_1_1_dynamic_vertex_buffer.html" target="_top" xlink:title=" ">
<polygon fill="white" stroke="#666666" points="1019,-41.75 866.5,-41.75 866.5,0 1019,0 1019,-41.75"/>
<text text-anchor="start" x="874.5" y="-28.25" font-family="Helvetica,sans-Serif" font-size="10.00">engine::direct3d::Dynamic</text>
<text text-anchor="start" x="874.5" y="-17" font-family="Helvetica,sans-Serif" font-size="10.00">VertexBuffer&lt; engine::render</text>
<text text-anchor="middle" x="942.75" y="-5.75" font-family="Helvetica,sans-Serif" font-size="10.00">::_decal_detail::DecalInstance &gt;</text>
</a>
</g>
</g>
<!-- Node13&#45;&gt;Node1 -->
<g id="edge12_Node000001_Node000013" class="edge">
<title>Node13&#45;&gt;Node1</title>
<g id="a_edge12_Node000001_Node000013"><a xlink:title=" ">
<path fill="none" stroke="#9a32cd" stroke-dasharray="5,2" d="M1029.61,-45.11C1060.33,-54.3 1095.05,-65.3 1126.25,-76.62 1143.27,-82.8 1161.81,-90.51 1177.28,-97.23"/>
<polygon fill="#9a32cd" stroke="#9a32cd" points="1030.94,-41.56 1020.36,-42.06 1028.95,-48.27 1030.94,-41.56"/>
</a>
</g>
<text text-anchor="middle" x="1081.62" y="-77.62" font-family="Helvetica,sans-Serif" font-size="10.00" fill="grey"> instance_buffer_</text>
</g>
<!-- Node14 -->
<g id="Node000014" class="node">
<title>Node14</title>
<g id="a_Node000014"><a xlink:href="../../df/d0e/classengine_1_1direct3d_1_1_dynamic_buffer.html" target="_top" xlink:title="The dynamic buffer class.">
<polygon fill="white" stroke="#666666" points="760,-36.12 634.5,-36.12 634.5,-5.62 760,-5.62 760,-36.12"/>
<text text-anchor="start" x="642.5" y="-22.62" font-family="Helvetica,sans-Serif" font-size="10.00">engine::direct3d::Dynamic</text>
<text text-anchor="middle" x="697.25" y="-11.38" font-family="Helvetica,sans-Serif" font-size="10.00">Buffer&lt; T &gt;</text>
</a>
</g>
</g>
<!-- Node14&#45;&gt;Node13 -->
<g id="edge13_Node000013_Node000014" class="edge">
<title>Node14&#45;&gt;Node13</title>
<g id="a_edge13_Node000013_Node000014"><a xlink:title=" ">
<path fill="none" stroke="#63b8ff" d="M771.16,-20.88C801.21,-20.88 836.01,-20.88 866.31,-20.88"/>
<polygon fill="#63b8ff" stroke="#63b8ff" points="771.33,-17.38 761.33,-20.88 771.33,-24.38 771.33,-17.38"/>
</a>
</g>
</g>
<!-- Node15 -->
<g id="Node000015" class="node">
<title>Node15</title>
<g id="a_Node000015"><a xlink:href="../../d9/db4/classengine_1_1direct3d_1_1_buffer_base.html" target="_top" xlink:title="Buffer Base class that contains the common functions for all the buffers.">
<polygon fill="white" stroke="#666666" points="564.75,-36.12 451.25,-36.12 451.25,-5.62 564.75,-5.62 564.75,-36.12"/>
<text text-anchor="start" x="459.25" y="-22.62" font-family="Helvetica,sans-Serif" font-size="10.00">engine::direct3d::Buffer</text>
<text text-anchor="middle" x="508" y="-11.38" font-family="Helvetica,sans-Serif" font-size="10.00">Base&lt; T &gt;</text>
</a>
</g>
</g>
<!-- Node15&#45;&gt;Node14 -->
<g id="edge14_Node000014_Node000015" class="edge">
<title>Node15&#45;&gt;Node14</title>
<g id="a_edge14_Node000014_Node000015"><a xlink:title=" ">
<path fill="none" stroke="#63b8ff" d="M576.13,-20.88C595.07,-20.88 615.59,-20.88 634.22,-20.88"/>
<polygon fill="#63b8ff" stroke="#63b8ff" points="576.18,-17.38 566.18,-20.88 576.18,-24.38 576.18,-17.38"/>
</a>
</g>
</g>
<!-- Node16 -->
<g id="Node000016" class="node">
<title>Node16</title>
<g id="a_Node000016"><a xlink:href="../../d6/de4/classengine_1_1direct3d_1_1_buffer_wrapper.html" target="_top" xlink:title="A wrapper for a D3D11 buffer.">
<polygon fill="white" stroke="#666666" points="372.12,-36.12 258.62,-36.12 258.62,-5.62 372.12,-5.62 372.12,-36.12"/>
<text text-anchor="start" x="266.62" y="-22.62" font-family="Helvetica,sans-Serif" font-size="10.00">engine::direct3d::Buffer</text>
<text text-anchor="middle" x="315.38" y="-11.38" font-family="Helvetica,sans-Serif" font-size="10.00">Wrapper</text>
</a>
</g>
</g>
<!-- Node16&#45;&gt;Node15 -->
<g id="edge15_Node000015_Node000016" class="edge">
<title>Node16&#45;&gt;Node15</title>
<g id="a_edge15_Node000015_Node000016"><a xlink:title=" ">
<path fill="none" stroke="#8b1a1a" d="M383.49,-20.88C405.53,-20.88 429.78,-20.88 450.91,-20.88"/>
<polygon fill="#8b1a1a" stroke="#8b1a1a" points="383.54,-17.38 373.54,-20.88 383.54,-24.38 383.54,-17.38"/>
</a>
</g>
</g>
<!-- Node17 -->
<g id="Node000017" class="node">
<title>Node17</title>
<g id="a_Node000017"><a xlink:href="../../df/d47/classengine_1_1direct3d_1_1d3d__resource__wrapper.html" target="_top" xlink:title=" ">
<polygon fill="white" stroke="#666666" points="172.75,-36.12 0,-36.12 0,-5.62 172.75,-5.62 172.75,-36.12"/>
<text text-anchor="start" x="8" y="-22.62" font-family="Helvetica,sans-Serif" font-size="10.00">engine::direct3d::d3d</text>
<text text-anchor="middle" x="86.38" y="-11.38" font-family="Helvetica,sans-Serif" font-size="10.00">_resource_wrapper&lt; ID3D11Buffer &gt;</text>
</a>
</g>
</g>
<!-- Node17&#45;&gt;Node16 -->
<g id="edge16_Node000016_Node000017" class="edge">
<title>Node17&#45;&gt;Node16</title>
<g id="a_edge16_Node000016_Node000017"><a xlink:title=" ">
<path fill="none" stroke="#9a32cd" stroke-dasharray="5,2" d="M183.98,-20.88C209.36,-20.88 235.88,-20.88 258.33,-20.88"/>
<polygon fill="#9a32cd" stroke="#9a32cd" points="184.19,-17.38 174.19,-20.88 184.19,-24.38 184.19,-17.38"/>
</a>
</g>
<text text-anchor="middle" x="211.38" y="-22.62" font-family="Helvetica,sans-Serif" font-size="10.00" fill="grey"> buffer_</text>
</g>
</g>
</svg>
