<?xml version="1.0" encoding="UTF-8" standalone="no"?>
<!DOCTYPE svg PUBLIC "-//W3C//DTD SVG 1.1//EN"
 "http://www.w3.org/Graphics/SVG/1.1/DTD/svg11.dtd">
<!-- Generated by graphviz version 9.0.0 (20230911.1827)
 -->
<!-- Title: engine::render::_decal_detail::DecalRenderSystem Pages: 1 -->
<!--zoomable 234 -->

<svg id="main" version="1.1" xmlns="http://www.w3.org/2000/svg" xmlns:xlink="http://www.w3.org/1999/xlink" xml:space="preserve" onload="init(evt)">
<style type="text/css"><![CDATA[
.node, .edge {opacity: 0.7;}
.node.selected, .edge.selected {opacity: 1;}
.edge:hover path { stroke: red; }
.edge:hover polygon { stroke: red; fill: red; }
]]></style>

<defs>
  <circle id="rim" cx="0" cy="0" r="7"/>
  <circle id="rim2" cx="0" cy="0" r="3.5"/>
  <g id="zoomPlus">
    <use xlink:href="#rim" fill="#404040"><set attributeName="fill" to="#808080" begin="zoomplus.mouseover" end="zoomplus.mouseout"/></use>
    <path d="M-4,0h8M0,-4v8" fill="none" stroke="white" stroke-width="1.5" pointer-events="none"/>
  </g>
  <g id="zoomMin">
    <use xlink:href="#rim" fill="#404040"><set attributeName="fill" to="#808080" begin="zoomminus.mouseover" end="zoomminus.mouseout"/></use>
    <path d="M-4,0h8" fill="none" stroke="white" stroke-width="1.5" pointer-events="none"/>
  </g>
  <g id="arrowUp" transform="translate(30 24)">
    <use xlink:href="#rim"/>
    <path pointer-events="none" fill="none" stroke="white" stroke-width="1.5" d="M0,-3.0v7 M-2.5,-0.5L0,-3.0L2.5,-0.5"/>
  </g>
  <g id="arrowRight" transform="rotate(90) translate(36 -43)">
    <use xlink:href="#rim"/>
    <path pointer-events="none" fill="none" stroke="white" stroke-width="1.5" d="M0,-3.0v7 M-2.5,-0.5L0,-3.0L2.5,-0.5"/>
  </g>
  <g id="arrowDown" transform="rotate(180) translate(-30 -48)">
    <use xlink:href="#rim"/>
    <path pointer-events="none" fill="none" stroke="white" stroke-width="1.5" d="M0,-3.0v7 M-2.5,-0.5L0,-3.0L2.5,-0.5"/>
  </g>
  <g id="arrowLeft" transform="rotate(270) translate(-36 17)">
    <use xlink:href="#rim"/>
    <path pointer-events="none" fill="none" stroke="white" stroke-width="1.5" d="M0,-3.0v7 M-2.5,-0.5L0,-3.0L2.5,-0.5"/>
  </g>
  <g id="resetDef">
    <use xlink:href="#rim2" fill="#404040"><set attributeName="fill" to="#808080" begin="reset.mouseover" end="reset.mouseout"/></use>
  </g>
</defs>
<script type="application/ecmascript">
var viewWidth = 1290;
var viewHeight = 234;
var sectionId = 'dynsection-1';
</script>
<script type="application/ecmascript" xlink:href="../../svg.min.js"/>
<svg id="graph" class="graph">
<g id="viewport">
<title>engine::render::_decal_detail::DecalRenderSystem</title>
<!-- Node1 -->
<g id="Node000001" class="node">
<title>Node1</title>
<g id="a_Node000001"><a xlink:title=" ">
<polygon fill="#999999" stroke="#666666" points="1281.75,-128.12 1144.25,-128.12 1144.25,-97.62 1281.75,-97.62 1281.75,-128.12"/>
<text text-anchor="start" x="1152.25" y="-114.62" font-family="Helvetica,sans-Serif" font-size="10.00">engine::render::_decal</text>
<text text-anchor="middle" x="1213" y="-103.38" font-family="Helvetica,sans-Serif" font-size="10.00">_detail::DecalRenderSystem</text>
</a>
</g>
</g>
<!-- Node2 -->
<g id="Node000002" class="node">
<title>Node2</title>
<g id="a_Node000002"><a xlink:href="../../da/df3/structengine_1_1render_1_1_render_pass.html" target="_top" xlink:title=" ">
<polygon fill="white" stroke="#666666" points="1009.62,-187.5 875.88,-187.5 875.88,-168.25 1009.62,-168.25 1009.62,-187.5"/>
<text text-anchor="middle" x="942.75" y="-174" font-family="Helvetica,sans-Serif" font-size="10.00">engine::render::RenderPass</text>
</a>
</g>
</g>
<!-- Node2&#45;&gt;Node1 -->
<g id="edge1_Node000001_Node000002" class="edge">
<title>Node2&#45;&gt;Node1</title>
<g id="a_edge1_Node000001_Node000002"><a xlink:title=" ">
<path fill="none" stroke="#63b8ff" d="M1016.59,-165.77C1050.21,-159.61 1090.5,-151.4 1126.25,-141.88 1140.37,-138.11 1155.55,-133.26 1169.15,-128.6"/>
<polygon fill="#63b8ff" stroke="#63b8ff" points="1016.17,-162.29 1006.95,-167.51 1017.41,-169.18 1016.17,-162.29"/>
</a>
</g>
</g>
<!-- Node3 -->
<g id="Node000003" class="node">
<title>Node3</title>
<g id="a_Node000003"><a xlink:href="../../dd/d36/classengine_1_1render_1_1_graphics_shader_program.html" target="_top" xlink:title=" ">
<polygon fill="white" stroke="#666666" points="1002.5,-150.12 883,-150.12 883,-119.62 1002.5,-119.62 1002.5,-150.12"/>
<text text-anchor="start" x="891" y="-136.62" font-family="Helvetica,sans-Serif" font-size="10.00">engine::render::Graphics</text>
<text text-anchor="middle" x="942.75" y="-125.38" font-family="Helvetica,sans-Serif" font-size="10.00">ShaderProgram</text>
</a>
</g>
</g>
<!-- Node3&#45;&gt;Node1 -->
<g id="edge2_Node000001_Node000003" class="edge">
<title>Node3&#45;&gt;Node1</title>
<g id="a_edge2_Node000001_Node000003"><a xlink:title=" ">
<path fill="none" stroke="#9a32cd" stroke-dasharray="5,2" d="M1014.25,-129.09C1054.33,-125.81 1104.29,-121.71 1143.96,-118.46"/>
<polygon fill="#9a32cd" stroke="#9a32cd" points="1014.14,-125.59 1004.46,-129.9 1014.71,-132.57 1014.14,-125.59"/>
</a>
</g>
<text text-anchor="middle" x="1081.62" y="-128.62" font-family="Helvetica,sans-Serif" font-size="10.00" fill="grey"> decal_shader_</text>
</g>
<!-- Node4 -->
<g id="Node000004" class="node">
<title>Node4</title>
<g id="a_Node000004"><a xlink:href="../../db/db6/structengine_1_1render_1_1_shader_program.html" target="_top" xlink:title=" ">
<polygon fill="white" stroke="#666666" points="771.25,-225.5 623.25,-225.5 623.25,-206.25 771.25,-206.25 771.25,-225.5"/>
<text text-anchor="middle" x="697.25" y="-212" font-family="Helvetica,sans-Serif" font-size="10.00">engine::render::ShaderProgram</text>
</a>
</g>
</g>
<!-- Node4&#45;&gt;Node3 -->
<g id="edge3_Node000003_Node000004" class="edge">
<title>Node4&#45;&gt;Node3</title>
<g id="a_edge3_Node000003_Node000004"><a xlink:title=" ">
<path fill="none" stroke="#63b8ff" d="M749.47,-202.87C756.8,-200.91 764.23,-198.88 771.25,-196.88 805.82,-187.01 816.63,-189.51 848.5,-172.88 857.48,-168.18 857.53,-163.6 866.5,-158.88 872.32,-155.81 878.61,-153.05 884.98,-150.58"/>
<polygon fill="#63b8ff" stroke="#63b8ff" points="748.74,-199.44 739.97,-205.37 750.53,-206.21 748.74,-199.44"/>
</a>
</g>
</g>
<!-- Node5 -->
<g id="Node000005" class="node">
<title>Node5</title>
<g id="a_Node000005"><a xlink:title=" ">
<polygon fill="white" stroke="#666666" points="755.5,-188.12 639,-188.12 639,-157.62 755.5,-157.62 755.5,-188.12"/>
<text text-anchor="start" x="647" y="-174.62" font-family="Helvetica,sans-Serif" font-size="10.00">std::shared_ptr&lt; engine</text>
<text text-anchor="middle" x="697.25" y="-163.38" font-family="Helvetica,sans-Serif" font-size="10.00">::render::Shader &gt;</text>
</a>
</g>
</g>
<!-- Node5&#45;&gt;Node3 -->
<g id="edge4_Node000003_Node000005" class="edge">
<title>Node5&#45;&gt;Node3</title>
<g id="a_edge4_Node000003_Node000005"><a xlink:title=" ">
<path fill="none" stroke="#9a32cd" stroke-dasharray="5,2" d="M767.01,-162.15C803.49,-156.45 847.87,-149.53 882.77,-144.08"/>
<polygon fill="#9a32cd" stroke="#9a32cd" points="766.79,-158.64 757.45,-163.64 767.87,-165.55 766.79,-158.64"/>
</a>
</g>
<text text-anchor="middle" x="818.88" y="-159.62" font-family="Helvetica,sans-Serif" font-size="10.00" fill="grey"> shaders_</text>
</g>
<!-- Node6 -->
<g id="Node000006" class="node">
<title>Node6</title>
<g id="a_Node000006"><a xlink:href="../../d0/dc5/classengine_1_1render_1_1_shader.html" target="_top" xlink:title=" ">
<polygon fill="white" stroke="#666666" points="563.62,-182.5 452.38,-182.5 452.38,-163.25 563.62,-163.25 563.62,-182.5"/>
<text text-anchor="middle" x="508" y="-169" font-family="Helvetica,sans-Serif" font-size="10.00">engine::render::Shader</text>
</a>
</g>
</g>
<!-- Node6&#45;&gt;Node5 -->
<g id="edge5_Node000005_Node000006" class="edge">
<title>Node6&#45;&gt;Node5</title>
<g id="a_edge5_Node000005_Node000006"><a xlink:title=" ">
<path fill="none" stroke="#9a32cd" stroke-dasharray="5,2" d="M575.2,-172.88C595.94,-172.88 618.64,-172.88 638.73,-172.88"/>
<polygon fill="#9a32cd" stroke="#9a32cd" points="575.43,-169.38 565.43,-172.88 575.43,-176.38 575.43,-169.38"/>
</a>
</g>
<text text-anchor="middle" x="598.5" y="-174.62" font-family="Helvetica,sans-Serif" font-size="10.00" fill="grey"> ptr</text>
</g>
<!-- Node7 -->
<g id="Node000007" class="node">
<title>Node7</title>
<g id="a_Node000007"><a xlink:href="../../d3/de6/structengine_1_1render_1_1_shader_blob.html" target="_top" xlink:title=" ">
<polygon fill="white" stroke="#666666" points="380.75,-182.5 250,-182.5 250,-163.25 380.75,-163.25 380.75,-182.5"/>
<text text-anchor="middle" x="315.38" y="-169" font-family="Helvetica,sans-Serif" font-size="10.00">engine::render::ShaderBlob</text>
</a>
</g>
</g>
<!-- Node7&#45;&gt;Node6 -->
<g id="edge6_Node000006_Node000007" class="edge">
<title>Node7&#45;&gt;Node6</title>
<g id="a_edge6_Node000006_Node000007"><a xlink:title=" ">
<path fill="none" stroke="#9a32cd" stroke-dasharray="5,2" d="M392.68,-172.88C412.49,-172.88 433.43,-172.88 451.91,-172.88"/>
<polygon fill="#9a32cd" stroke="#9a32cd" points="392.69,-169.38 382.69,-172.88 392.69,-176.38 392.69,-169.38"/>
</a>
</g>
<text text-anchor="middle" x="411.5" y="-174.62" font-family="Helvetica,sans-Serif" font-size="10.00" fill="grey"> blob_</text>
</g>
<!-- Node8 -->
<g id="Node000008" class="node">
<title>Node8</title>
<g id="a_Node000008"><a xlink:title=" ">
<polygon fill="white" stroke="#666666" points="139.75,-182.5 33,-182.5 33,-163.25 139.75,-163.25 139.75,-182.5"/>
<text text-anchor="middle" x="86.38" y="-169" font-family="Helvetica,sans-Serif" font-size="10.00">std::vector&lt; uint8_t &gt;</text>
</a>
</g>
</g>
<!-- Node8&#45;&gt;Node7 -->
<g id="edge7_Node000007_Node000008" class="edge">
<title>Node8&#45;&gt;Node7</title>
<g id="a_edge7_Node000007_Node000008"><a xlink:title=" ">
<path fill="none" stroke="#9a32cd" stroke-dasharray="5,2" d="M151.5,-172.88C182.26,-172.88 219.04,-172.88 249.86,-172.88"/>
<polygon fill="#9a32cd" stroke="#9a32cd" points="151.54,-169.38 141.54,-172.88 151.54,-176.38 151.54,-169.38"/>
</a>
</g>
<text text-anchor="middle" x="211.38" y="-174.62" font-family="Helvetica,sans-Serif" font-size="10.00" fill="grey"> bytecode</text>
</g>
<!-- Node9 -->
<g id="Node000009" class="node">
<title>Node9</title>
<g id="a_Node000009"><a xlink:title=" ">
<polygon fill="white" stroke="#666666" points="755.5,-139.12 639,-139.12 639,-108.62 755.5,-108.62 755.5,-139.12"/>
<text text-anchor="start" x="647" y="-125.62" font-family="Helvetica,sans-Serif" font-size="10.00">std::shared_ptr&lt; engine</text>
<text text-anchor="middle" x="697.25" y="-114.38" font-family="Helvetica,sans-Serif" font-size="10.00">::render::InputLayout &gt;</text>
</a>
</g>
</g>
<!-- Node9&#45;&gt;Node3 -->
<g id="edge8_Node000003_Node000009" class="edge">
<title>Node9&#45;&gt;Node3</title>
<g id="a_edge8_Node000003_Node000009"><a xlink:title=" ">
<path fill="none" stroke="#9a32cd" stroke-dasharray="5,2" d="M767.01,-126.98C803.49,-128.63 847.87,-130.63 882.77,-132.21"/>
<polygon fill="#9a32cd" stroke="#9a32cd" points="767.62,-123.51 757.47,-126.55 767.3,-130.5 767.62,-123.51"/>
</a>
</g>
<text text-anchor="middle" x="818.88" y="-131.62" font-family="Helvetica,sans-Serif" font-size="10.00" fill="grey"> input_layout_</text>
</g>
<!-- Node10 -->
<g id="Node000010" class="node">
<title>Node10</title>
<g id="a_Node000010"><a xlink:href="../../d2/d6c/classengine_1_1render_1_1_input_layout.html" target="_top" xlink:title=" ">
<polygon fill="white" stroke="#666666" points="573.75,-133.5 442.25,-133.5 442.25,-114.25 573.75,-114.25 573.75,-133.5"/>
<text text-anchor="middle" x="508" y="-120" font-family="Helvetica,sans-Serif" font-size="10.00">engine::render::InputLayout</text>
</a>
</g>
</g>
<!-- Node10&#45;&gt;Node9 -->
<g id="edge9_Node000009_Node000010" class="edge">
<title>Node10&#45;&gt;Node9</title>
<g id="a_edge9_Node000009_Node000010"><a xlink:title=" ">
<path fill="none" stroke="#9a32cd" stroke-dasharray="5,2" d="M585.73,-123.88C603.45,-123.88 622.01,-123.88 638.75,-123.88"/>
<polygon fill="#9a32cd" stroke="#9a32cd" points="585.74,-120.38 575.74,-123.88 585.74,-127.38 585.74,-120.38"/>
</a>
</g>
<text text-anchor="middle" x="598.5" y="-125.62" font-family="Helvetica,sans-Serif" font-size="10.00" fill="grey"> ptr</text>
</g>
<!-- Node11 -->
<g id="Node000011" class="node">
<title>Node11</title>
<g id="a_Node000011"><a xlink:title=" ">
<polygon fill="white" stroke="#666666" points="997.25,-101.75 888.25,-101.75 888.25,-60 997.25,-60 997.25,-101.75"/>
<text text-anchor="start" x="896.25" y="-88.25" font-family="Helvetica,sans-Serif" font-size="10.00">std::vector&lt; engine</text>
<text text-anchor="start" x="896.25" y="-77" font-family="Helvetica,sans-Serif" font-size="10.00">::render::_decal_detail</text>
<text text-anchor="middle" x="942.75" y="-65.75" font-family="Helvetica,sans-Serif" font-size="10.00">::MaterialInstance &gt;</text>
</a>
</g>
</g>
<!-- Node11&#45;&gt;Node1 -->
<g id="edge10_Node000001_Node000011" class="edge">
<title>Node11&#45;&gt;Node1</title>
<g id="a_edge10_Node000001_Node000011"><a xlink:title=" ">
<path fill="none" stroke="#9a32cd" stroke-dasharray="5,2" d="M1008.91,-88.65C1049.78,-93.52 1102.38,-99.8 1143.81,-104.74"/>
<polygon fill="#9a32cd" stroke="#9a32cd" points="1009.56,-85.2 999.21,-87.49 1008.73,-92.15 1009.56,-85.2"/>
</a>
</g>
<text text-anchor="middle" x="1081.62" y="-103.62" font-family="Helvetica,sans-Serif" font-size="10.00" fill="grey"> material_instances_</text>
</g>
<!-- Node12 -->
<g id="Node000012" class="node">
<title>Node12</title>
<g id="a_Node000012"><a xlink:href="../../d0/d1f/structengine_1_1render_1_1__decal__detail_1_1_material_instance.html" target="_top" xlink:title=" ">
<polygon fill="white" stroke="#666666" points="757.75,-90.12 636.75,-90.12 636.75,-59.62 757.75,-59.62 757.75,-90.12"/>
<text text-anchor="start" x="644.75" y="-76.62" font-family="Helvetica,sans-Serif" font-size="10.00">engine::render::_decal</text>
<text text-anchor="middle" x="697.25" y="-65.38" font-family="Helvetica,sans-Serif" font-size="10.00">_detail::MaterialInstance</text>
</a>
</g>
</g>
<!-- Node12&#45;&gt;Node11 -->
<g id="edge11_Node000011_Node000012" class="edge">
<title>Node12&#45;&gt;Node11</title>
<g id="a_edge11_Node000011_Node000012"><a xlink:title=" ">
<path fill="none" stroke="#9a32cd" stroke-dasharray="5,2" d="M769.59,-76.63C807.41,-77.56 853.11,-78.69 887.92,-79.55"/>
<polygon fill="#9a32cd" stroke="#9a32cd" points="769.72,-73.14 759.64,-76.39 769.55,-80.13 769.72,-73.14"/>
</a>
</g>
<text text-anchor="middle" x="818.88" y="-79.62" font-family="Helvetica,sans-Serif" font-size="10.00" fill="grey"> elements</text>
</g>
<!-- Node13 -->
<g id="Node000013" class="node">
<title>Node13</title>
<g id="a_Node000013"><a xlink:href="../../d5/dbb/classengine_1_1direct3d_1_1_dynamic_vertex_buffer.html" target="_top" xlink:title=" ">
<polygon fill="white" stroke="#666666" points="1019,-41.75 866.5,-41.75 866.5,0 1019,0 1019,-41.75"/>
<text text-anchor="start" x="874.5" y="-28.25" font-family="Helvetica,sans-Serif" font-size="10.00">engine::direct3d::Dynamic</text>
<text text-anchor="start" x="874.5" y="-17" font-family="Helvetica,sans-Serif" font-size="10.00">VertexBuffer&lt; engine::render</text>
<text text-anchor="middle" x="942.75" y="-5.75" font-family="Helvetica,sans-Serif" font-size="10.00">::_decal_detail::DecalInstance &gt;</text>
</a>
</g>
</g>
<!-- Node13&#45;&gt;Node1 -->
<g id="edge12_Node000001_Node000013" class="edge">
<title>Node13&#45;&gt;Node1</title>
<g id="a_edge12_Node000001_Node000013"><a xlink:title=" ">
<path fill="none" stroke="#9a32cd" stroke-dasharray="5,2" d="M1030.01,-45.23C1060.63,-54.4 1095.19,-65.35 1126.25,-76.62 1143.27,-82.8 1161.81,-90.51 1177.28,-97.23"/>
<polygon fill="#9a32cd" stroke="#9a32cd" points="1031.39,-41.99 1020.81,-42.49 1029.4,-48.7 1031.39,-41.99"/>
</a>
</g>
<text text-anchor="middle" x="1081.62" y="-77.62" font-family="Helvetica,sans-Serif" font-size="10.00" fill="grey"> instance_buffer_</text>
</g>
<!-- Node14 -->
<g id="Node000014" class="node">
<title>Node14</title>
<g id="a_Node000014"><a xlink:href="../../df/d0e/classengine_1_1direct3d_1_1_dynamic_buffer.html" target="_top" xlink:title="The dynamic buffer class.">
<polygon fill="white" stroke="#666666" points="760,-36.12 634.5,-36.12 634.5,-5.62 760,-5.62 760,-36.12"/>
<text text-anchor="start" x="642.5" y="-22.62" font-family="Helvetica,sans-Serif" font-size="10.00">engine::direct3d::Dynamic</text>
<text text-anchor="middle" x="697.25" y="-11.38" font-family="Helvetica,sans-Serif" font-size="10.00">Buffer&lt; T &gt;</text>
</a>
</g>
</g>
<!-- Node14&#45;&gt;Node13 -->
<g id="edge13_Node000013_Node000014" class="edge">
<title>Node14&#45;&gt;Node13</title>
<g id="a_edge13_Node000013_Node000014"><a xlink:title=" ">
<path fill="none" stroke="#63b8ff" d="M771.56,-20.88C801.51,-20.88 836.14,-20.88 866.31,-20.88"/>
<polygon fill="#63b8ff" stroke="#63b8ff" points="771.84,-17.38 761.84,-20.88 771.84,-24.38 771.84,-17.38"/>
</a>
</g>
</g>
<!-- Node15 -->
<g id="Node000015" class="node">
<title>Node15</title>
<g id="a_Node000015"><a xlink:href="../../d9/db4/classengine_1_1direct3d_1_1_buffer_base.html" target="_top" xlink:title="Buffer Base class that contains the common functions for all the buffers.">
<polygon fill="white" stroke="#666666" points="564.75,-36.12 451.25,-36.12 451.25,-5.62 564.75,-5.62 564.75,-36.12"/>
<text text-anchor="start" x="459.25" y="-22.62" font-family="Helvetica,sans-Serif" font-size="10.00">engine::direct3d::Buffer</text>
<text text-anchor="middle" x="508" y="-11.38" font-family="Helvetica,sans-Serif" font-size="10.00">Base&lt; T &gt;</text>
</a>
</g>
</g>
<!-- Node15&#45;&gt;Node14 -->
<g id="edge14_Node000014_Node000015" class="edge">
<title>Node15&#45;&gt;Node14</title>
<g id="a_edge14_Node000014_Node000015"><a xlink:title=" ">
<path fill="none" stroke="#63b8ff" d="M576.66,-20.88C595.45,-20.88 615.76,-20.88 634.22,-20.88"/>
<polygon fill="#63b8ff" stroke="#63b8ff" points="576.69,-17.38 566.69,-20.88 576.69,-24.38 576.69,-17.38"/>
</a>
</g>
</g>
<!-- Node16 -->
<g id="Node000016" class="node">
<title>Node16</title>
<g id="a_Node000016"><a xlink:href="../../d6/de4/classengine_1_1direct3d_1_1_buffer_wrapper.html" target="_top" xlink:title="A wrapper for a D3D11 buffer.">
<polygon fill="white" stroke="#666666" points="372.12,-36.12 258.62,-36.12 258.62,-5.62 372.12,-5.62 372.12,-36.12"/>
<text text-anchor="start" x="266.62" y="-22.62" font-family="Helvetica,sans-Serif" font-size="10.00">engine::direct3d::Buffer</text>
<text text-anchor="middle" x="315.38" y="-11.38" font-family="Helvetica,sans-Serif" font-size="10.00">Wrapper</text>
</a>
</g>
</g>
<!-- Node16&#45;&gt;Node15 -->
<g id="edge15_Node000015_Node000016" class="edge">
<title>Node16&#45;&gt;Node15</title>
<g id="a_edge15_Node000015_Node000016"><a xlink:title=" ">
<path fill="none" stroke="#8b1a1a" d="M383.79,-20.88C405.75,-20.88 429.87,-20.88 450.91,-20.88"/>
<polygon fill="#8b1a1a" stroke="#8b1a1a" points="384.05,-17.38 374.05,-20.88 384.05,-24.38 384.05,-17.38"/>
</a>
</g>
</g>
<!-- Node17 -->
<g id="Node000017" class="node">
<title>Node17</title>
<g id="a_Node000017"><a xlink:href="../../df/d47/classengine_1_1direct3d_1_1d3d__resource__wrapper.html" target="_top" xlink:title=" ">
<polygon fill="white" stroke="#666666" points="172.75,-36.12 0,-36.12 0,-5.62 172.75,-5.62 172.75,-36.12"/>
<text text-anchor="start" x="8" y="-22.62" font-family="Helvetica,sans-Serif" font-size="10.00">engine::direct3d::d3d</text>
<text text-anchor="middle" x="86.38" y="-11.38" font-family="Helvetica,sans-Serif" font-size="10.00">_resource_wrapper&lt; ID3D11Buffer &gt;</text>
</a>
</g>
</g>
<!-- Node17&#45;&gt;Node16 -->
<g id="edge16_Node000016_Node000017" class="edge">
<title>Node17&#45;&gt;Node16</title>
<g id="a_edge16_Node000016_Node000017"><a xlink:title=" ">
<path fill="none" stroke="#9a32cd" stroke-dasharray="5,2" d="M184.66,-20.88C209.83,-20.88 236.08,-20.88 258.33,-20.88"/>
<polygon fill="#9a32cd" stroke="#9a32cd" points="184.71,-17.38 174.71,-20.88 184.71,-24.38 184.71,-17.38"/>
</a>
</g>
<text text-anchor="middle" x="211.38" y="-22.62" font-family="Helvetica,sans-Serif" font-size="10.00" fill="grey"> buffer_</text>
</g>
</g>
</svg>

<g id="navigator" transform="translate(0 0)" fill="#404254">
  <rect fill="#f2f5e9" fill-opacity="0.5" stroke="#606060" stroke-width=".5" x="0" y="0" width="60" height="60"/>
  <use id="zoomplus" xlink:href="#zoomPlus" x="17" y="9" onmousedown="handleZoom(evt,'in')"/>
  <use id="zoomminus" xlink:href="#zoomMin" x="42" y="9" onmousedown="handleZoom(evt,'out')"/>
  <use id="reset" xlink:href="#resetDef" x="30" y="36" onmousedown="handleReset()"/>
   <use id="arrowup" xlink:href="#arrowUp" x="0" y="0" onmousedown="handlePan(0,-1)"/>
  <use id="arrowright" xlink:href="#arrowRight" x="0" y="0" onmousedown="handlePan(1,0)"/>
  <use id="arrowdown" xlink:href="#arrowDown" x="0" y="0" onmousedown="handlePan(0,1)"/>
  <use id="arrowleft" xlink:href="#arrowLeft" x="0" y="0" onmousedown="handlePan(-1,0)"/>
</g>
<svg viewBox="0 0 15 15" width="100%" height="30px" preserveAspectRatio="xMaxYMin meet">
 <g id="arrow_out" transform="scale(0.3 0.3)">
  <a xlink:href="classengine_1_1render_1_1__decal__detail_1_1_decal_render_system__coll__graph_org.svg" target="_base">
   <rect id="button" ry="5" rx="5" y="6" x="6" height="38" width="38"
        fill="#f2f5e9" fill-opacity="0.5" stroke="#606060" stroke-width="1.0"/>
   <path id="arrow"
     d="M 11.500037,31.436501 C 11.940474,20.09759 22.043105,11.32322 32.158766,21.979434 L 37.068811,17.246167 C 37.068811,17.246167 37.088388,32 37.088388,32 L 22.160133,31.978069 C 22.160133,31.978069 26.997745,27.140456 26.997745,27.140456 C 18.528582,18.264221 13.291696,25.230495 11.500037,31.436501 z"
     style="fill:#404040;"/>
  </a>
 </g>
</svg>

<style type='text/css'>
<![CDATA[
[data-mouse-over-selected='false'] { opacity: 0.7; }
[data-mouse-over-selected='true']  { opacity: 1.0; }
]]>
</style>
<script type="application/ecmascript"><![CDATA[
document.addEventListener('DOMContentLoaded', (event) => {
  highlightEdges();
  highlightAdjacentNodes();
});
]]></script>
</svg>
