<?xml version="1.0" encoding="UTF-8" standalone="no"?>
<!DOCTYPE svg PUBLIC "-//W3C//DTD SVG 1.1//EN"
 "http://www.w3.org/Graphics/SVG/1.1/DTD/svg11.dtd">
<!-- Generated by graphviz version 8.1.0 (20230707.0739)
 -->
<!-- Title: engine/core/events/util&#45;events.hpp Pages: 1 -->
<!--zoomable 149 -->

<svg id="main" version="1.1" xmlns="http://www.w3.org/2000/svg" xmlns:xlink="http://www.w3.org/1999/xlink" xml:space="preserve" onload="init(evt)">
<style type="text/css"><![CDATA[
.node, .edge {opacity: 0.7;}
.node.selected, .edge.selected {opacity: 1;}
.edge:hover path { stroke: red; }
.edge:hover polygon { stroke: red; fill: red; }
]]></style>

<defs>
  <circle id="rim" cx="0" cy="0" r="7"/>
  <circle id="rim2" cx="0" cy="0" r="3.5"/>
  <g id="zoomPlus">
    <use xlink:href="#rim" fill="#404040"><set attributeName="fill" to="#808080" begin="zoomplus.mouseover" end="zoomplus.mouseout"/></use>
    <path d="M-4,0h8M0,-4v8" fill="none" stroke="white" stroke-width="1.5" pointer-events="none"/>
  </g>
  <g id="zoomMin">
    <use xlink:href="#rim" fill="#404040"><set attributeName="fill" to="#808080" begin="zoomminus.mouseover" end="zoomminus.mouseout"/></use>
    <path d="M-4,0h8" fill="none" stroke="white" stroke-width="1.5" pointer-events="none"/>
  </g>
  <g id="arrowUp" transform="translate(30 24)">
    <use xlink:href="#rim"/>
    <path pointer-events="none" fill="none" stroke="white" stroke-width="1.5" d="M0,-3.0v7 M-2.5,-0.5L0,-3.0L2.5,-0.5"/>
  </g>
  <g id="arrowRight" transform="rotate(90) translate(36 -43)">
    <use xlink:href="#rim"/>
    <path pointer-events="none" fill="none" stroke="white" stroke-width="1.5" d="M0,-3.0v7 M-2.5,-0.5L0,-3.0L2.5,-0.5"/>
  </g>
  <g id="arrowDown" transform="rotate(180) translate(-30 -48)">
    <use xlink:href="#rim"/>
    <path pointer-events="none" fill="none" stroke="white" stroke-width="1.5" d="M0,-3.0v7 M-2.5,-0.5L0,-3.0L2.5,-0.5"/>
  </g>
  <g id="arrowLeft" transform="rotate(270) translate(-36 17)">
    <use xlink:href="#rim"/>
    <path pointer-events="none" fill="none" stroke="white" stroke-width="1.5" d="M0,-3.0v7 M-2.5,-0.5L0,-3.0L2.5,-0.5"/>
  </g>
  <g id="resetDef">
    <use xlink:href="#rim2" fill="#404040"><set attributeName="fill" to="#808080" begin="reset.mouseover" end="reset.mouseout"/></use>
  </g>
</defs>
<script type="application/ecmascript">
var viewWidth = 2670;
var viewHeight = 149;
var sectionId = 'dynsection-0';
</script>
<script type="application/ecmascript" xlink:href="../../svg.min.js"/>
<svg id="graph" class="graph">
<g id="viewport">
<title>engine/core/events/util&#45;events.hpp</title>
<!-- Node1 -->
<g id="Node000001" class="node">
<title>Node1</title>
<g id="a_Node000001"><a xlink:title=" ">
<polygon fill="#999999" stroke="#666666" points="1409.25,-141.5 1310.75,-141.5 1310.75,-111 1409.25,-111 1409.25,-141.5"/>
<text text-anchor="start" x="1318.75" y="-128" font-family="Helvetica,sans-Serif" font-size="10.00">engine/core/events</text>
<text text-anchor="middle" x="1360" y="-116.75" font-family="Helvetica,sans-Serif" font-size="10.00">/util&#45;events.hpp</text>
</a>
</g>
</g>
<!-- Node2 -->
<g id="Node000002" class="node">
<title>Node2</title>
<g id="a_Node000002"><a xlink:href="../../db/d6e/library-pch_8hpp.html" target="_top" xlink:title=" ">
<polygon fill="white" stroke="#666666" points="1365,-75 1253,-75 1253,-55.75 1365,-55.75 1365,-75"/>
<text text-anchor="middle" x="1309" y="-61.5" font-family="Helvetica,sans-Serif" font-size="10.00">include/library&#45;pch.hpp</text>
</a>
</g>
</g>
<!-- Node1&#45;&gt;Node2 -->
<g id="edge1_Node000001_Node000002" class="edge">
<title>Node1&#45;&gt;Node2</title>
<g id="a_edge1_Node000001_Node000002"><a xlink:title=" ">
<path fill="none" stroke="#63b8ff" d="M1347.39,-110.7C1340.3,-102.51 1331.4,-92.23 1323.96,-83.64"/>
<polygon fill="#63b8ff" stroke="#63b8ff" points="1326.06,-81.72 1316.86,-76.45 1320.76,-86.3 1326.06,-81.72"/>
</a>
</g>
</g>
<!-- Node40 -->
<g id="Node000040" class="node">
<title>Node40</title>
<g id="a_Node000040"><a xlink:href="../../dc/d94/event_8hpp.html" target="_top" xlink:title=" ">
<polygon fill="white" stroke="#666666" points="2056,-75 1998,-75 1998,-55.75 2056,-55.75 2056,-75"/>
<text text-anchor="middle" x="2027" y="-61.5" font-family="Helvetica,sans-Serif" font-size="10.00">event.hpp</text>
</a>
</g>
</g>
<!-- Node1&#45;&gt;Node40 -->
<g id="edge40_Node000001_Node000040" class="edge">
<title>Node1&#45;&gt;Node40</title>
<g id="a_edge40_Node000001_Node000040"><a xlink:title=" ">
<path fill="none" stroke="#63b8ff" d="M1409.59,-120.87C1536.4,-109.68 1870.64,-80.17 1986.65,-69.93"/>
<polygon fill="#63b8ff" stroke="#63b8ff" points="1986.85,-73.34 1996.5,-68.98 1986.23,-66.37 1986.85,-73.34"/>
</a>
</g>
</g>
<!-- Node3 -->
<g id="Node000003" class="node">
<title>Node3</title>
<g id="a_Node000003"><a xlink:title=" ">
<polygon fill="#e0e0e0" stroke="#999999" points="70,-19.75 0,-19.75 0,-0.5 70,-0.5 70,-19.75"/>
<text text-anchor="middle" x="35" y="-6.25" font-family="Helvetica,sans-Serif" font-size="10.00">entt/entt.hpp</text>
</a>
</g>
</g>
<!-- Node2&#45;&gt;Node3 -->
<g id="edge2_Node000002_Node000003" class="edge">
<title>Node2&#45;&gt;Node3</title>
<g id="a_edge2_Node000002_Node000003"><a xlink:title=" ">
<path fill="none" stroke="#63b8ff" d="M1252.84,-63.51C1046.88,-60.16 332.4,-46.93 81.35,-19.79"/>
<polygon fill="#63b8ff" stroke="#63b8ff" points="81.79,-16.21 71.47,-18.57 81.01,-23.16 81.79,-16.21"/>
</a>
</g>
</g>
<!-- Node4 -->
<g id="Node000004" class="node">
<title>Node4</title>
<g id="a_Node000004"><a xlink:title=" ">
<polygon fill="#e0e0e0" stroke="#999999" points="143.88,-19.75 88.12,-19.75 88.12,-0.5 143.88,-0.5 143.88,-19.75"/>
<text text-anchor="middle" x="116" y="-6.25" font-family="Helvetica,sans-Serif" font-size="10.00">algorithm</text>
</a>
</g>
</g>
<!-- Node2&#45;&gt;Node4 -->
<g id="edge3_Node000002_Node000004" class="edge">
<title>Node2&#45;&gt;Node4</title>
<g id="a_edge3_Node000002_Node000004"><a xlink:title=" ">
<path fill="none" stroke="#63b8ff" d="M1252.71,-63.67C1054.66,-60.96 389.67,-49.91 155.04,-19.88"/>
<polygon fill="#63b8ff" stroke="#63b8ff" points="155.57,-16.28 145.2,-18.43 154.65,-23.22 155.57,-16.28"/>
</a>
</g>
</g>
<!-- Node5 -->
<g id="Node000005" class="node">
<title>Node5</title>
<g id="a_Node000005"><a xlink:title=" ">
<polygon fill="#e0e0e0" stroke="#999999" points="198.5,-19.75 161.5,-19.75 161.5,-0.5 198.5,-0.5 198.5,-19.75"/>
<text text-anchor="middle" x="180" y="-6.25" font-family="Helvetica,sans-Serif" font-size="10.00">array</text>
</a>
</g>
</g>
<!-- Node2&#45;&gt;Node5 -->
<g id="edge4_Node000002_Node000005" class="edge">
<title>Node2&#45;&gt;Node5</title>
<g id="a_edge4_Node000002_Node000005"><a xlink:title=" ">
<path fill="none" stroke="#63b8ff" d="M1252.69,-64.01C1060.83,-62.47 432.69,-54.94 209.46,-19.41"/>
<polygon fill="#63b8ff" stroke="#63b8ff" points="210.26,-15.83 199.82,-17.64 209.11,-22.74 210.26,-15.83"/>
</a>
</g>
</g>
<!-- Node6 -->
<g id="Node000006" class="node">
<title>Node6</title>
<g id="a_Node000006"><a xlink:title=" ">
<polygon fill="#e0e0e0" stroke="#999999" points="267.25,-19.75 216.75,-19.75 216.75,-0.5 267.25,-0.5 267.25,-19.75"/>
<text text-anchor="middle" x="242" y="-6.25" font-family="Helvetica,sans-Serif" font-size="10.00">assert.h</text>
</a>
</g>
</g>
<!-- Node2&#45;&gt;Node6 -->
<g id="edge5_Node000002_Node000006" class="edge">
<title>Node2&#45;&gt;Node6</title>
<g id="a_edge5_Node000002_Node000006"><a xlink:title=" ">
<path fill="none" stroke="#63b8ff" d="M1252.69,-63.46C1069.05,-60.26 487.85,-48.22 278.39,-19.74"/>
<polygon fill="#63b8ff" stroke="#63b8ff" points="278.9,-16.13 268.51,-18.19 277.91,-23.06 278.9,-16.13"/>
</a>
</g>
</g>
<!-- Node7 -->
<g id="Node000007" class="node">
<title>Node7</title>
<g id="a_Node000007"><a xlink:title=" ">
<polygon fill="#e0e0e0" stroke="#999999" points="330.62,-19.75 285.38,-19.75 285.38,-0.5 330.62,-0.5 330.62,-19.75"/>
<text text-anchor="middle" x="308" y="-6.25" font-family="Helvetica,sans-Serif" font-size="10.00">chrono</text>
</a>
</g>
</g>
<!-- Node2&#45;&gt;Node7 -->
<g id="edge6_Node000002_Node000007" class="edge">
<title>Node2&#45;&gt;Node7</title>
<g id="a_edge6_Node000002_Node000007"><a xlink:title=" ">
<path fill="none" stroke="#63b8ff" d="M1252.68,-63.45C1076.65,-60.3 537.33,-48.64 341.62,-19.77"/>
<polygon fill="#63b8ff" stroke="#63b8ff" points="342.31,-16.18 331.9,-18.11 341.24,-23.1 342.31,-16.18"/>
</a>
</g>
</g>
<!-- Node8 -->
<g id="Node000008" class="node">
<title>Node8</title>
<g id="a_Node000008"><a xlink:title=" ">
<polygon fill="#e0e0e0" stroke="#999999" points="391.5,-19.75 348.5,-19.75 348.5,-0.5 391.5,-0.5 391.5,-19.75"/>
<text text-anchor="middle" x="370" y="-6.25" font-family="Helvetica,sans-Serif" font-size="10.00">cmath</text>
</a>
</g>
</g>
<!-- Node2&#45;&gt;Node8 -->
<g id="edge7_Node000002_Node000008" class="edge">
<title>Node2&#45;&gt;Node8</title>
<g id="a_edge7_Node000002_Node000008"><a xlink:title=" ">
<path fill="none" stroke="#63b8ff" d="M1252.62,-63.31C1084.23,-59.87 585.82,-47.69 402.65,-19.76"/>
<polygon fill="#63b8ff" stroke="#63b8ff" points="403.25,-16.15 392.82,-18.03 402.14,-23.06 403.25,-16.15"/>
</a>
</g>
</g>
<!-- Node9 -->
<g id="Node000009" class="node">
<title>Node9</title>
<g id="a_Node000009"><a xlink:title=" ">
<polygon fill="#e0e0e0" stroke="#999999" points="464.88,-19.75 409.12,-19.75 409.12,-0.5 464.88,-0.5 464.88,-19.75"/>
<text text-anchor="middle" x="437" y="-6.25" font-family="Helvetica,sans-Serif" font-size="10.00">concepts</text>
</a>
</g>
</g>
<!-- Node2&#45;&gt;Node9 -->
<g id="edge8_Node000002_Node000009" class="edge">
<title>Node2&#45;&gt;Node9</title>
<g id="a_edge8_Node000002_Node000009"><a xlink:title=" ">
<path fill="none" stroke="#63b8ff" d="M1252.72,-64.76C1119.26,-64.96 773.11,-61.19 475.74,-19.72"/>
<polygon fill="#63b8ff" stroke="#63b8ff" points="476.58,-16.16 466.19,-18.23 475.6,-23.1 476.58,-16.16"/>
</a>
</g>
</g>
<!-- Node10 -->
<g id="Node000010" class="node">
<title>Node10</title>
<g id="a_Node000010"><a xlink:title=" ">
<polygon fill="#e0e0e0" stroke="#999999" points="577,-19.75 483,-19.75 483,-0.5 577,-0.5 577,-19.75"/>
<text text-anchor="middle" x="530" y="-6.25" font-family="Helvetica,sans-Serif" font-size="10.00">condition_variable</text>
</a>
</g>
</g>
<!-- Node2&#45;&gt;Node10 -->
<g id="edge9_Node000002_Node000010" class="edge">
<title>Node2&#45;&gt;Node10</title>
<g id="a_edge9_Node000002_Node000010"><a xlink:title=" ">
<path fill="none" stroke="#63b8ff" d="M1252.6,-62.64C1132.41,-58.58 841.95,-46.74 588.23,-19.89"/>
<polygon fill="#63b8ff" stroke="#63b8ff" points="588.63,-16.3 578.32,-18.72 587.89,-23.26 588.63,-16.3"/>
</a>
</g>
</g>
<!-- Node11 -->
<g id="Node000011" class="node">
<title>Node11</title>
<g id="a_Node000011"><a xlink:title=" ">
<polygon fill="#e0e0e0" stroke="#999999" points="640.62,-19.75 595.38,-19.75 595.38,-0.5 640.62,-0.5 640.62,-19.75"/>
<text text-anchor="middle" x="618" y="-6.25" font-family="Helvetica,sans-Serif" font-size="10.00">cstdint</text>
</a>
</g>
</g>
<!-- Node2&#45;&gt;Node11 -->
<g id="edge10_Node000002_Node000011" class="edge">
<title>Node2&#45;&gt;Node11</title>
<g id="a_edge10_Node000002_Node000011"><a xlink:title=" ">
<path fill="none" stroke="#63b8ff" d="M1252.59,-64.26C1139.94,-63.22 879.16,-56.83 651.76,-19.68"/>
<polygon fill="#63b8ff" stroke="#63b8ff" points="652.39,-16.07 641.95,-17.89 651.25,-22.98 652.39,-16.07"/>
</a>
</g>
</g>
<!-- Node12 -->
<g id="Node000012" class="node">
<title>Node12</title>
<g id="a_Node000012"><a xlink:title=" ">
<polygon fill="#e0e0e0" stroke="#999999" points="703.25,-19.75 658.75,-19.75 658.75,-0.5 703.25,-0.5 703.25,-19.75"/>
<text text-anchor="middle" x="681" y="-6.25" font-family="Helvetica,sans-Serif" font-size="10.00">cstdlib</text>
</a>
</g>
</g>
<!-- Node2&#45;&gt;Node12 -->
<g id="edge11_Node000002_Node000012" class="edge">
<title>Node2&#45;&gt;Node12</title>
<g id="a_edge11_Node000002_Node000012"><a xlink:title=" ">
<path fill="none" stroke="#63b8ff" d="M1252.58,-63.84C1147.92,-62.06 916.66,-54.37 714.11,-19.78"/>
<polygon fill="#63b8ff" stroke="#63b8ff" points="715.02,-16.22 704.57,-17.96 713.82,-23.11 715.02,-16.22"/>
</a>
</g>
</g>
<!-- Node13 -->
<g id="Node000013" class="node">
<title>Node13</title>
<g id="a_Node000013"><a xlink:title=" ">
<polygon fill="#e0e0e0" stroke="#999999" points="780.75,-19.75 721.25,-19.75 721.25,-0.5 780.75,-0.5 780.75,-19.75"/>
<text text-anchor="middle" x="751" y="-6.25" font-family="Helvetica,sans-Serif" font-size="10.00">filesystem</text>
</a>
</g>
</g>
<!-- Node2&#45;&gt;Node13 -->
<g id="edge12_Node000002_Node000013" class="edge">
<title>Node2&#45;&gt;Node13</title>
<g id="a_edge12_Node000002_Node000013"><a xlink:title=" ">
<path fill="none" stroke="#63b8ff" d="M1252.52,-62.07C1158.68,-57.7 964.6,-46.29 792.02,-20.04"/>
<polygon fill="#63b8ff" stroke="#63b8ff" points="792.63,-16.44 782.21,-18.37 791.56,-23.36 792.63,-16.44"/>
</a>
</g>
</g>
<!-- Node14 -->
<g id="Node000014" class="node">
<title>Node14</title>
<g id="a_Node000014"><a xlink:title=" ">
<polygon fill="#e0e0e0" stroke="#999999" points="847.5,-19.75 798.5,-19.75 798.5,-0.5 847.5,-0.5 847.5,-19.75"/>
<text text-anchor="middle" x="823" y="-6.25" font-family="Helvetica,sans-Serif" font-size="10.00">fstream</text>
</a>
</g>
</g>
<!-- Node2&#45;&gt;Node14 -->
<g id="edge13_Node000002_Node000014" class="edge">
<title>Node2&#45;&gt;Node14</title>
<g id="a_edge13_Node000002_Node000014"><a xlink:title=" ">
<path fill="none" stroke="#63b8ff" d="M1252.61,-61.53C1168.73,-56.7 1006.02,-45.04 858.39,-19.72"/>
<polygon fill="#63b8ff" stroke="#63b8ff" points="859.24,-16.14 848.79,-17.87 858.04,-23.03 859.24,-16.14"/>
</a>
</g>
</g>
<!-- Node15 -->
<g id="Node000015" class="node">
<title>Node15</title>
<g id="a_Node000015"><a xlink:title=" ">
<polygon fill="#e0e0e0" stroke="#999999" points="924,-19.75 866,-19.75 866,-0.5 924,-0.5 924,-19.75"/>
<text text-anchor="middle" x="895" y="-6.25" font-family="Helvetica,sans-Serif" font-size="10.00">functional</text>
</a>
</g>
</g>
<!-- Node2&#45;&gt;Node15 -->
<g id="edge14_Node000002_Node000015" class="edge">
<title>Node2&#45;&gt;Node15</title>
<g id="a_edge14_Node000002_Node000015"><a xlink:title=" ">
<path fill="none" stroke="#63b8ff" d="M1252.68,-59.55C1181.07,-53.01 1053.47,-39.97 935.09,-19.95"/>
<polygon fill="#63b8ff" stroke="#63b8ff" points="935.84,-16.36 925.4,-18.12 934.66,-23.26 935.84,-16.36"/>
</a>
</g>
</g>
<!-- Node16 -->
<g id="Node000016" class="node">
<title>Node16</title>
<g id="a_Node000016"><a xlink:title=" ">
<polygon fill="#e0e0e0" stroke="#999999" points="991.88,-19.75 942.12,-19.75 942.12,-0.5 991.88,-0.5 991.88,-19.75"/>
<text text-anchor="middle" x="967" y="-6.25" font-family="Helvetica,sans-Serif" font-size="10.00">iomanip</text>
</a>
</g>
</g>
<!-- Node2&#45;&gt;Node16 -->
<g id="edge15_Node000002_Node000016" class="edge">
<title>Node2&#45;&gt;Node16</title>
<g id="a_edge15_Node000002_Node000016"><a xlink:title=" ">
<path fill="none" stroke="#63b8ff" d="M1252.78,-58.02C1193.1,-50.87 1095.86,-38.09 1002.91,-19.95"/>
<polygon fill="#63b8ff" stroke="#63b8ff" points="1003.67,-16.33 993.18,-17.82 1002.31,-23.2 1003.67,-16.33"/>
</a>
</g>
</g>
<!-- Node17 -->
<g id="Node000017" class="node">
<title>Node17</title>
<g id="a_Node000017"><a xlink:title=" ">
<polygon fill="#e0e0e0" stroke="#999999" points="1058.12,-19.75 1009.88,-19.75 1009.88,-0.5 1058.12,-0.5 1058.12,-19.75"/>
<text text-anchor="middle" x="1034" y="-6.25" font-family="Helvetica,sans-Serif" font-size="10.00">istream</text>
</a>
</g>
</g>
<!-- Node2&#45;&gt;Node17 -->
<g id="edge16_Node000002_Node000017" class="edge">
<title>Node2&#45;&gt;Node17</title>
<g id="a_edge16_Node000002_Node000017"><a xlink:title=" ">
<path fill="none" stroke="#63b8ff" d="M1253.5,-55.33C1206.7,-47.43 1137.73,-35.17 1069.03,-20.08"/>
<polygon fill="#63b8ff" stroke="#63b8ff" points="1069.98,-16.48 1059.46,-17.73 1068.46,-23.31 1069.98,-16.48"/>
</a>
</g>
</g>
<!-- Node18 -->
<g id="Node000018" class="node">
<title>Node18</title>
<g id="a_Node000018"><a xlink:title=" ">
<polygon fill="#e0e0e0" stroke="#999999" points="1115.62,-19.75 1076.38,-19.75 1076.38,-0.5 1115.62,-0.5 1115.62,-19.75"/>
<text text-anchor="middle" x="1096" y="-6.25" font-family="Helvetica,sans-Serif" font-size="10.00">limits</text>
</a>
</g>
</g>
<!-- Node2&#45;&gt;Node18 -->
<g id="edge17_Node000002_Node000018" class="edge">
<title>Node2&#45;&gt;Node18</title>
<g id="a_edge17_Node000002_Node000018"><a xlink:title=" ">
<path fill="none" stroke="#63b8ff" d="M1269.01,-55.3C1233.9,-47.19 1181.21,-34.69 1126.52,-20.05"/>
<polygon fill="#63b8ff" stroke="#63b8ff" points="1127.5,-16.42 1116.93,-17.2 1125.67,-23.18 1127.5,-16.42"/>
</a>
</g>
</g>
<!-- Node19 -->
<g id="Node000019" class="node">
<title>Node19</title>
<g id="a_Node000019"><a xlink:title=" ">
<polygon fill="#e0e0e0" stroke="#999999" points="1168.38,-19.75 1133.62,-19.75 1133.62,-0.5 1168.38,-0.5 1168.38,-19.75"/>
<text text-anchor="middle" x="1151" y="-6.25" font-family="Helvetica,sans-Serif" font-size="10.00">map</text>
</a>
</g>
</g>
<!-- Node2&#45;&gt;Node19 -->
<g id="edge18_Node000002_Node000019" class="edge">
<title>Node2&#45;&gt;Node19</title>
<g id="a_edge18_Node000002_Node000019"><a xlink:title=" ">
<path fill="none" stroke="#63b8ff" d="M1282.2,-55.34C1253.47,-45.66 1208.07,-30.36 1178.92,-20.53"/>
<polygon fill="#63b8ff" stroke="#63b8ff" points="1180.2,-16.93 1169.61,-17.06 1177.97,-23.57 1180.2,-16.93"/>
</a>
</g>
</g>
<!-- Node20 -->
<g id="Node000020" class="node">
<title>Node20</title>
<g id="a_Node000020"><a xlink:title=" ">
<polygon fill="#e0e0e0" stroke="#999999" points="1237.25,-19.75 1186.75,-19.75 1186.75,-0.5 1237.25,-0.5 1237.25,-19.75"/>
<text text-anchor="middle" x="1212" y="-6.25" font-family="Helvetica,sans-Serif" font-size="10.00">memory</text>
</a>
</g>
</g>
<!-- Node2&#45;&gt;Node20 -->
<g id="edge19_Node000002_Node000020" class="edge">
<title>Node2&#45;&gt;Node20</title>
<g id="a_edge19_Node000002_Node000020"><a xlink:title=" ">
<path fill="none" stroke="#63b8ff" d="M1292.55,-55.34C1277.63,-47.15 1255.41,-34.95 1238.08,-25.44"/>
<polygon fill="#63b8ff" stroke="#63b8ff" points="1239.99,-21.95 1229.54,-20.2 1236.62,-28.08 1239.99,-21.95"/>
</a>
</g>
</g>
<!-- Node21 -->
<g id="Node000021" class="node">
<title>Node21</title>
<g id="a_Node000021"><a xlink:title=" ">
<polygon fill="#e0e0e0" stroke="#999999" points="1297.12,-19.75 1254.88,-19.75 1254.88,-0.5 1297.12,-0.5 1297.12,-19.75"/>
<text text-anchor="middle" x="1276" y="-6.25" font-family="Helvetica,sans-Serif" font-size="10.00">mutex</text>
</a>
</g>
</g>
<!-- Node2&#45;&gt;Node21 -->
<g id="edge20_Node000002_Node000021" class="edge">
<title>Node2&#45;&gt;Node21</title>
<g id="a_edge20_Node000002_Node000021"><a xlink:title=" ">
<path fill="none" stroke="#63b8ff" d="M1303.55,-55.58C1299.13,-48.45 1292.76,-38.18 1287.26,-29.3"/>
<polygon fill="#63b8ff" stroke="#63b8ff" points="1289.81,-27.76 1281.57,-21.11 1283.86,-31.45 1289.81,-27.76"/>
</a>
</g>
</g>
<!-- Node22 -->
<g id="Node000022" class="node">
<title>Node22</title>
<g id="a_Node000022"><a xlink:title=" ">
<polygon fill="#e0e0e0" stroke="#999999" points="1368.75,-19.75 1315.25,-19.75 1315.25,-0.5 1368.75,-0.5 1368.75,-19.75"/>
<text text-anchor="middle" x="1342" y="-6.25" font-family="Helvetica,sans-Serif" font-size="10.00">numbers</text>
</a>
</g>
</g>
<!-- Node2&#45;&gt;Node22 -->
<g id="edge21_Node000002_Node000022" class="edge">
<title>Node2&#45;&gt;Node22</title>
<g id="a_edge21_Node000002_Node000022"><a xlink:title=" ">
<path fill="none" stroke="#63b8ff" d="M1314.45,-55.58C1318.87,-48.45 1325.24,-38.18 1330.74,-29.3"/>
<polygon fill="#63b8ff" stroke="#63b8ff" points="1334.14,-31.45 1336.43,-21.11 1328.19,-27.76 1334.14,-31.45"/>
</a>
</g>
</g>
<!-- Node23 -->
<g id="Node000023" class="node">
<title>Node23</title>
<g id="a_Node000023"><a xlink:title=" ">
<polygon fill="#e0e0e0" stroke="#999999" points="1437.25,-19.75 1386.75,-19.75 1386.75,-0.5 1437.25,-0.5 1437.25,-19.75"/>
<text text-anchor="middle" x="1412" y="-6.25" font-family="Helvetica,sans-Serif" font-size="10.00">numeric</text>
</a>
</g>
</g>
<!-- Node2&#45;&gt;Node23 -->
<g id="edge22_Node000002_Node000023" class="edge">
<title>Node2&#45;&gt;Node23</title>
<g id="a_edge22_Node000002_Node000023"><a xlink:title=" ">
<path fill="none" stroke="#63b8ff" d="M1326.47,-55.34C1342.45,-47.08 1366.35,-34.73 1384.82,-25.17"/>
<polygon fill="#63b8ff" stroke="#63b8ff" points="1386.17,-27.9 1393.44,-20.2 1382.95,-21.68 1386.17,-27.9"/>
</a>
</g>
</g>
<!-- Node24 -->
<g id="Node000024" class="node">
<title>Node24</title>
<g id="a_Node000024"><a xlink:title=" ">
<polygon fill="#e0e0e0" stroke="#999999" points="1504.88,-19.75 1455.12,-19.75 1455.12,-0.5 1504.88,-0.5 1504.88,-19.75"/>
<text text-anchor="middle" x="1480" y="-6.25" font-family="Helvetica,sans-Serif" font-size="10.00">optional</text>
</a>
</g>
</g>
<!-- Node2&#45;&gt;Node24 -->
<g id="edge23_Node000002_Node000024" class="edge">
<title>Node2&#45;&gt;Node24</title>
<g id="a_edge23_Node000002_Node000024"><a xlink:title=" ">
<path fill="none" stroke="#63b8ff" d="M1338.01,-55.34C1367.46,-46.17 1413.09,-31.96 1444.64,-22.13"/>
<polygon fill="#63b8ff" stroke="#63b8ff" points="1445.25,-25.3 1453.76,-18.98 1443.17,-18.62 1445.25,-25.3"/>
</a>
</g>
</g>
<!-- Node25 -->
<g id="Node000025" class="node">
<title>Node25</title>
<g id="a_Node000025"><a xlink:title=" ">
<polygon fill="#e0e0e0" stroke="#999999" points="1574.62,-19.75 1523.38,-19.75 1523.38,-0.5 1574.62,-0.5 1574.62,-19.75"/>
<text text-anchor="middle" x="1549" y="-6.25" font-family="Helvetica,sans-Serif" font-size="10.00">ostream</text>
</a>
</g>
</g>
<!-- Node2&#45;&gt;Node25 -->
<g id="edge24_Node000002_Node000025" class="edge">
<title>Node2&#45;&gt;Node25</title>
<g id="a_edge24_Node000002_Node000025"><a xlink:title=" ">
<path fill="none" stroke="#63b8ff" d="M1352.27,-55.31C1391.54,-47.01 1451.31,-34.17 1512.41,-20.07"/>
<polygon fill="#63b8ff" stroke="#63b8ff" points="1513.07,-23.28 1522.03,-17.61 1511.49,-16.46 1513.07,-23.28"/>
</a>
</g>
</g>
<!-- Node26 -->
<g id="Node000026" class="node">
<title>Node26</title>
<g id="a_Node000026"><a xlink:title=" ">
<polygon fill="#e0e0e0" stroke="#999999" points="1669.38,-19.75 1592.62,-19.75 1592.62,-0.5 1669.38,-0.5 1669.38,-19.75"/>
<text text-anchor="middle" x="1631" y="-6.25" font-family="Helvetica,sans-Serif" font-size="10.00">shared_mutex</text>
</a>
</g>
</g>
<!-- Node2&#45;&gt;Node26 -->
<g id="edge25_Node000002_Node000026" class="edge">
<title>Node2&#45;&gt;Node26</title>
<g id="a_edge25_Node000002_Node000026"><a xlink:title=" ">
<path fill="none" stroke="#63b8ff" d="M1365.41,-55.57C1418.65,-47.18 1501,-34 1581.46,-20.16"/>
<polygon fill="#63b8ff" stroke="#63b8ff" points="1582.02,-23.44 1591.28,-18.29 1580.83,-16.55 1582.02,-23.44"/>
</a>
</g>
</g>
<!-- Node27 -->
<g id="Node000027" class="node">
<title>Node27</title>
<g id="a_Node000027"><a xlink:title=" ">
<polygon fill="#e0e0e0" stroke="#999999" points="1724.5,-19.75 1687.5,-19.75 1687.5,-0.5 1724.5,-0.5 1724.5,-19.75"/>
<text text-anchor="middle" x="1706" y="-6.25" font-family="Helvetica,sans-Serif" font-size="10.00">span</text>
</a>
</g>
</g>
<!-- Node2&#45;&gt;Node27 -->
<g id="edge26_Node000002_Node000027" class="edge">
<title>Node2&#45;&gt;Node27</title>
<g id="a_edge26_Node000002_Node000027"><a xlink:title=" ">
<path fill="none" stroke="#63b8ff" d="M1365.46,-60.69C1436.17,-55.38 1561.06,-43.72 1676.7,-19.65"/>
<polygon fill="#63b8ff" stroke="#63b8ff" points="1677.09,-22.93 1686.14,-17.43 1675.63,-16.08 1677.09,-22.93"/>
</a>
</g>
</g>
<!-- Node28 -->
<g id="Node000028" class="node">
<title>Node28</title>
<g id="a_Node000028"><a xlink:title=" ">
<polygon fill="#e0e0e0" stroke="#999999" points="1793.62,-19.75 1742.38,-19.75 1742.38,-0.5 1793.62,-0.5 1793.62,-19.75"/>
<text text-anchor="middle" x="1768" y="-6.25" font-family="Helvetica,sans-Serif" font-size="10.00">sstream</text>
</a>
</g>
</g>
<!-- Node2&#45;&gt;Node28 -->
<g id="edge27_Node000002_Node000028" class="edge">
<title>Node2&#45;&gt;Node28</title>
<g id="a_edge27_Node000002_Node000028"><a xlink:title=" ">
<path fill="none" stroke="#63b8ff" d="M1365.24,-60.91C1444.69,-55.48 1594.46,-43.26 1731.41,-19.78"/>
<polygon fill="#63b8ff" stroke="#63b8ff" points="1731.84,-23.09 1741.09,-17.93 1730.64,-16.19 1731.84,-23.09"/>
</a>
</g>
</g>
<!-- Node29 -->
<g id="Node000029" class="node">
<title>Node29</title>
<g id="a_Node000029"><a xlink:title=" ">
<polygon fill="#e0e0e0" stroke="#999999" points="1870,-19.75 1812,-19.75 1812,-0.5 1870,-0.5 1870,-19.75"/>
<text text-anchor="middle" x="1841" y="-6.25" font-family="Helvetica,sans-Serif" font-size="10.00">stdexcept</text>
</a>
</g>
</g>
<!-- Node2&#45;&gt;Node29 -->
<g id="edge28_Node000002_Node000029" class="edge">
<title>Node2&#45;&gt;Node29</title>
<g id="a_edge28_Node000002_Node000029"><a xlink:title=" ">
<path fill="none" stroke="#63b8ff" d="M1365.23,-61.73C1455.25,-56.98 1637.39,-45.16 1800.88,-19.88"/>
<polygon fill="#63b8ff" stroke="#63b8ff" points="1801.28,-23.21 1810.62,-18.2 1800.19,-16.29 1801.28,-23.21"/>
</a>
</g>
</g>
<!-- Node30 -->
<g id="Node000030" class="node">
<title>Node30</title>
<g id="a_Node000030"><a xlink:title=" ">
<polygon fill="#e0e0e0" stroke="#999999" points="1935.75,-19.75 1888.25,-19.75 1888.25,-0.5 1935.75,-0.5 1935.75,-19.75"/>
<text text-anchor="middle" x="1912" y="-6.25" font-family="Helvetica,sans-Serif" font-size="10.00">stdint.h</text>
</a>
</g>
</g>
<!-- Node2&#45;&gt;Node30 -->
<g id="edge29_Node000002_Node000030" class="edge">
<title>Node2&#45;&gt;Node30</title>
<g id="a_edge29_Node000002_Node000030"><a xlink:title=" ">
<path fill="none" stroke="#63b8ff" d="M1365.23,-63.27C1466.09,-60.58 1684.46,-51.5 1877.34,-19.71"/>
<polygon fill="#63b8ff" stroke="#63b8ff" points="1877.67,-23.04 1886.96,-17.93 1876.52,-16.13 1877.67,-23.04"/>
</a>
</g>
</g>
<!-- Node31 -->
<g id="Node000031" class="node">
<title>Node31</title>
<g id="a_Node000031"><a xlink:title=" ">
<polygon fill="#e0e0e0" stroke="#999999" points="2662,-19.75 2622,-19.75 2622,-0.5 2662,-0.5 2662,-19.75"/>
<text text-anchor="middle" x="2642" y="-6.25" font-family="Helvetica,sans-Serif" font-size="10.00">string</text>
</a>
</g>
</g>
<!-- Node2&#45;&gt;Node31 -->
<g id="edge30_Node000002_Node000031" class="edge">
<title>Node2&#45;&gt;Node31</title>
<g id="a_edge30_Node000002_Node000031"><a xlink:title=" ">
<path fill="none" stroke="#63b8ff" d="M1365.33,-63.29C1593.93,-58.79 2447.58,-40.85 2611,-19.45"/>
<polygon fill="#63b8ff" stroke="#63b8ff" points="2611.17,-22.82 2620.56,-17.91 2610.15,-15.89 2611.17,-22.82"/>
</a>
</g>
</g>
<!-- Node32 -->
<g id="Node000032" class="node">
<title>Node32</title>
<g id="a_Node000032"><a xlink:title=" ">
<polygon fill="#e0e0e0" stroke="#999999" points="1996.5,-19.75 1953.5,-19.75 1953.5,-0.5 1996.5,-0.5 1996.5,-19.75"/>
<text text-anchor="middle" x="1975" y="-6.25" font-family="Helvetica,sans-Serif" font-size="10.00">thread</text>
</a>
</g>
</g>
<!-- Node2&#45;&gt;Node32 -->
<g id="edge31_Node000002_Node000032" class="edge">
<title>Node2&#45;&gt;Node32</title>
<g id="a_edge31_Node000002_Node000032"><a xlink:title=" ">
<path fill="none" stroke="#63b8ff" d="M1365.2,-64.37C1474.88,-63.52 1725.04,-57.39 1942.51,-19.84"/>
<polygon fill="#63b8ff" stroke="#63b8ff" points="1942.92,-23.15 1952.17,-17.97 1941.72,-16.25 1942.92,-23.15"/>
</a>
</g>
</g>
<!-- Node33 -->
<g id="Node000033" class="node">
<title>Node33</title>
<g id="a_Node000033"><a xlink:title=" ">
<polygon fill="#e0e0e0" stroke="#999999" points="2075.5,-19.75 2014.5,-19.75 2014.5,-0.5 2075.5,-0.5 2075.5,-19.75"/>
<text text-anchor="middle" x="2045" y="-6.25" font-family="Helvetica,sans-Serif" font-size="10.00">type_traits</text>
</a>
</g>
</g>
<!-- Node2&#45;&gt;Node33 -->
<g id="edge32_Node000002_Node000033" class="edge">
<title>Node2&#45;&gt;Node33</title>
<g id="a_edge32_Node000002_Node000033"><a xlink:title=" ">
<path fill="none" stroke="#63b8ff" d="M1365.31,-63.7C1482.49,-61.66 1761.17,-53.51 2003.64,-19.87"/>
<polygon fill="#63b8ff" stroke="#63b8ff" points="2004.01,-23.21 2013.42,-18.35 2003.03,-16.28 2004.01,-23.21"/>
</a>
</g>
</g>
<!-- Node34 -->
<g id="Node000034" class="node">
<title>Node34</title>
<g id="a_Node000034"><a xlink:title=" ">
<polygon fill="#e0e0e0" stroke="#999999" points="2170.75,-19.75 2093.25,-19.75 2093.25,-0.5 2170.75,-0.5 2170.75,-19.75"/>
<text text-anchor="middle" x="2132" y="-6.25" font-family="Helvetica,sans-Serif" font-size="10.00">unordered_set</text>
</a>
</g>
</g>
<!-- Node2&#45;&gt;Node34 -->
<g id="edge33_Node000002_Node000034" class="edge">
<title>Node2&#45;&gt;Node34</title>
<g id="a_edge33_Node000002_Node000034"><a xlink:title=" ">
<path fill="none" stroke="#63b8ff" d="M1365.2,-63.53C1491.7,-61.11 1808.52,-52.19 2082.28,-19.94"/>
<polygon fill="#63b8ff" stroke="#63b8ff" points="2082.3,-23.35 2091.82,-18.69 2081.47,-16.4 2082.3,-23.35"/>
</a>
</g>
</g>
<!-- Node35 -->
<g id="Node000035" class="node">
<title>Node35</title>
<g id="a_Node000035"><a xlink:title=" ">
<polygon fill="#e0e0e0" stroke="#999999" points="2233.62,-19.75 2188.38,-19.75 2188.38,-0.5 2233.62,-0.5 2233.62,-19.75"/>
<text text-anchor="middle" x="2211" y="-6.25" font-family="Helvetica,sans-Serif" font-size="10.00">variant</text>
</a>
</g>
</g>
<!-- Node2&#45;&gt;Node35 -->
<g id="edge34_Node000002_Node000035" class="edge">
<title>Node2&#45;&gt;Node35</title>
<g id="a_edge34_Node000002_Node000035"><a xlink:title=" ">
<path fill="none" stroke="#63b8ff" d="M1365.37,-63.11C1528.86,-59.18 2002.28,-45.97 2177.49,-19.76"/>
<polygon fill="#63b8ff" stroke="#63b8ff" points="2177.77,-23.11 2187.1,-18.1 2176.68,-16.19 2177.77,-23.11"/>
</a>
</g>
</g>
<!-- Node36 -->
<g id="Node000036" class="node">
<title>Node36</title>
<g id="a_Node000036"><a xlink:title=" ">
<polygon fill="#e0e0e0" stroke="#999999" points="2294.5,-19.75 2251.5,-19.75 2251.5,-0.5 2294.5,-0.5 2294.5,-19.75"/>
<text text-anchor="middle" x="2273" y="-6.25" font-family="Helvetica,sans-Serif" font-size="10.00">vector</text>
</a>
</g>
</g>
<!-- Node2&#45;&gt;Node36 -->
<g id="edge35_Node000002_Node000036" class="edge">
<title>Node2&#45;&gt;Node36</title>
<g id="a_edge35_Node000002_Node000036"><a xlink:title=" ">
<path fill="none" stroke="#63b8ff" d="M1365.38,-63.39C1536.95,-60.15 2051.97,-48.39 2240.32,-19.76"/>
<polygon fill="#63b8ff" stroke="#63b8ff" points="2240.85,-23.06 2250.18,-18.03 2239.75,-16.15 2240.85,-23.06"/>
</a>
</g>
</g>
<!-- Node37 -->
<g id="Node000037" class="node">
<title>Node37</title>
<g id="a_Node000037"><a xlink:title=" ">
<polygon fill="#e0e0e0" stroke="#999999" points="2361.12,-19.75 2312.88,-19.75 2312.88,-0.5 2361.12,-0.5 2361.12,-19.75"/>
<text text-anchor="middle" x="2337" y="-6.25" font-family="Helvetica,sans-Serif" font-size="10.00">random</text>
</a>
</g>
</g>
<!-- Node2&#45;&gt;Node37 -->
<g id="edge36_Node000002_Node000037" class="edge">
<title>Node2&#45;&gt;Node37</title>
<g id="a_edge36_Node000002_Node000037"><a xlink:title=" ">
<path fill="none" stroke="#63b8ff" d="M1365.47,-63.41C1544.71,-60.09 2100.38,-47.91 2301.85,-19.68"/>
<polygon fill="#63b8ff" stroke="#63b8ff" points="2302.22,-23.02 2311.61,-18.11 2301.21,-16.1 2302.22,-23.02"/>
</a>
</g>
</g>
<!-- Node38 -->
<g id="Node000038" class="node">
<title>Node38</title>
<g id="a_Node000038"><a xlink:href="../../de/d43/common-typedefs_8hpp.html" target="_top" xlink:title=" ">
<polygon fill="white" stroke="#666666" points="2490.62,-19.75 2379.38,-19.75 2379.38,-0.5 2490.62,-0.5 2490.62,-19.75"/>
<text text-anchor="middle" x="2435" y="-6.25" font-family="Helvetica,sans-Serif" font-size="10.00">common&#45;typedefs.hpp</text>
</a>
</g>
</g>
<!-- Node2&#45;&gt;Node38 -->
<g id="edge37_Node000002_Node000038" class="edge">
<title>Node2&#45;&gt;Node38</title>
<g id="a_edge37_Node000002_Node000038"><a xlink:title=" ">
<path fill="none" stroke="#63b8ff" d="M1365.48,-63.78C1522.62,-61.76 1978.49,-53.3 2368.09,-19.82"/>
<polygon fill="#63b8ff" stroke="#63b8ff" points="2368.35,-23.23 2378.02,-18.88 2367.75,-16.25 2368.35,-23.23"/>
</a>
</g>
</g>
<!-- Node39 -->
<g id="Node000039" class="node">
<title>Node39</title>
<g id="a_Node000039"><a xlink:href="../../d4/d78/math_8hpp.html" target="_top" xlink:title=" ">
<polygon fill="white" stroke="#666666" points="2585.75,-19.75 2508.25,-19.75 2508.25,-0.5 2585.75,-0.5 2585.75,-19.75"/>
<text text-anchor="middle" x="2547" y="-6.25" font-family="Helvetica,sans-Serif" font-size="10.00">core/math.hpp</text>
</a>
</g>
</g>
<!-- Node2&#45;&gt;Node39 -->
<g id="edge38_Node000002_Node000039" class="edge">
<title>Node2&#45;&gt;Node39</title>
<g id="a_edge38_Node000002_Node000039"><a xlink:title=" ">
<path fill="none" stroke="#63b8ff" d="M1365.47,-63.34C1567.48,-59.47 2254.7,-44.83 2496.97,-19.91"/>
<polygon fill="#63b8ff" stroke="#63b8ff" points="2497.25,-23.29 2506.82,-18.75 2496.51,-16.33 2497.25,-23.29"/>
</a>
</g>
</g>
<!-- Node39&#45;&gt;Node39 -->
<g id="edge39_Node000039_Node000039" class="edge">
<title>Node39&#45;&gt;Node39</title>
<g id="a_edge39_Node000039_Node000039"><a xlink:title=" ">
<path fill="none" stroke="#63b8ff" d="M2576.78,-20.23C2591.11,-21.48 2603.75,-18.11 2603.75,-10.12 2603.75,-4.26 2596.93,-0.88 2587.63,0"/>
<polygon fill="#63b8ff" stroke="#63b8ff" points="2587.78,3.5 2577.78,-0.02 2587.79,-3.5 2587.78,3.5"/>
</a>
</g>
</g>
<!-- Node40&#45;&gt;Node31 -->
<g id="edge41_Node000040_Node000031" class="edge">
<title>Node40&#45;&gt;Node31</title>
<g id="a_edge41_Node000040_Node000031"><a xlink:title=" ">
<path fill="none" stroke="#63b8ff" d="M2056.24,-64.34C2140.95,-63.78 2393.72,-58.85 2610.9,-19.75"/>
<polygon fill="#63b8ff" stroke="#63b8ff" points="2611.33,-23.04 2620.54,-17.8 2610.07,-16.16 2611.33,-23.04"/>
</a>
</g>
</g>
</g>
</svg>

<g id="navigator" transform="translate(0 0)" fill="#404254">
  <rect fill="#f2f5e9" fill-opacity="0.5" stroke="#606060" stroke-width=".5" x="0" y="0" width="60" height="60"/>
  <use id="zoomplus" xlink:href="#zoomPlus" x="17" y="9" onmousedown="handleZoom(evt,'in')"/>
  <use id="zoomminus" xlink:href="#zoomMin" x="42" y="9" onmousedown="handleZoom(evt,'out')"/>
  <use id="reset" xlink:href="#resetDef" x="30" y="36" onmousedown="handleReset()"/>
   <use id="arrowup" xlink:href="#arrowUp" x="0" y="0" onmousedown="handlePan(0,-1)"/>
  <use id="arrowright" xlink:href="#arrowRight" x="0" y="0" onmousedown="handlePan(1,0)"/>
  <use id="arrowdown" xlink:href="#arrowDown" x="0" y="0" onmousedown="handlePan(0,1)"/>
  <use id="arrowleft" xlink:href="#arrowLeft" x="0" y="0" onmousedown="handlePan(-1,0)"/>
</g>
<svg viewBox="0 0 15 15" width="100%" height="30px" preserveAspectRatio="xMaxYMin meet">
 <g id="arrow_out" transform="scale(0.3 0.3)">
  <a xlink:href="util-events_8hpp__incl_org.svg" target="_base">
   <rect id="button" ry="5" rx="5" y="6" x="6" height="38" width="38"
        fill="#f2f5e9" fill-opacity="0.5" stroke="#606060" stroke-width="1.0"/>
   <path id="arrow"
     d="M 11.500037,31.436501 C 11.940474,20.09759 22.043105,11.32322 32.158766,21.979434 L 37.068811,17.246167 C 37.068811,17.246167 37.088388,32 37.088388,32 L 22.160133,31.978069 C 22.160133,31.978069 26.997745,27.140456 26.997745,27.140456 C 18.528582,18.264221 13.291696,25.230495 11.500037,31.436501 z"
     style="fill:#404040;"/>
  </a>
 </g>
</svg>

<style type='text/css'>
<![CDATA[
[data-mouse-over-selected='false'] { opacity: 0.7; }
[data-mouse-over-selected='true']  { opacity: 1.0; }
]]>
</style>
<script type="application/ecmascript"><![CDATA[
document.addEventListener('DOMContentLoaded', (event) => {
  highlightEdges();
  highlightAdjacentNodes();
});
]]></script>
</svg>
