<?xml version="1.0" encoding="UTF-8" standalone="no"?>
<!DOCTYPE svg PUBLIC "-//W3C//DTD SVG 1.1//EN"
 "http://www.w3.org/Graphics/SVG/1.1/DTD/svg11.dtd">
<!-- Generated by graphviz version 8.1.0 (20230707.0739)
 -->
<!-- Title: engine::render::Material Pages: 1 -->
<svg width="284pt" height="285pt"
 viewBox="0.00 0.00 284.25 285.00" xmlns="http://www.w3.org/2000/svg" xmlns:xlink="http://www.w3.org/1999/xlink">
<g id="graph0" class="graph" transform="scale(1 1) rotate(0) translate(4 281)">
<title>engine::render::Material</title>
<!-- Node1 -->
<g id="Node000001" class="node">
<title>Node1</title>
<g id="a_Node000001"><a xlink:title=" ">
<polygon fill="#999999" stroke="#666666" points="187.75,-19.25 72.75,-19.25 72.75,0 187.75,0 187.75,-19.25"/>
<text text-anchor="middle" x="130.25" y="-5.75" font-family="Helvetica,sans-Serif" font-size="10.00">engine::render::Material</text>
</a>
</g>
</g>
<!-- Node2 -->
<g id="Node000002" class="node">
<title>Node2</title>
<g id="a_Node000002"><a xlink:title=" ">
<polygon fill="white" stroke="#666666" points="75.25,-203.88 17.25,-203.88 17.25,-184.62 75.25,-184.62 75.25,-203.88"/>
<text text-anchor="middle" x="46.25" y="-190.38" font-family="Helvetica,sans-Serif" font-size="10.00">std::string</text>
</a>
</g>
</g>
<!-- Node2&#45;&gt;Node1 -->
<g id="edge1_Node000001_Node000002" class="edge">
<title>Node2&#45;&gt;Node1</title>
<g id="a_edge1_Node000001_Node000002"><a xlink:title=" ">
<path fill="none" stroke="#9a32cd" stroke-dasharray="5,2" d="M50.66,-173.62C58.2,-142.81 75.54,-82 104,-37.25 108.18,-30.68 114.21,-24.42 119.44,-19.62"/>
<polygon fill="#9a32cd" stroke="#9a32cd" points="47.06,-172.66 48.18,-183.2 53.87,-174.26 47.06,-172.66"/>
</a>
</g>
<text text-anchor="middle" x="117.38" y="-95.25" font-family="Helvetica,sans-Serif" font-size="10.00" fill="grey"> name</text>
</g>
<!-- Node3 -->
<g id="Node000003" class="node">
<title>Node3</title>
<g id="a_Node000003"><a xlink:title=" ">
<polygon fill="white" stroke="#666666" points="92.5,-277 0,-277 0,-246.5 92.5,-246.5 92.5,-277"/>
<text text-anchor="start" x="8" y="-263.5" font-family="Helvetica,sans-Serif" font-size="10.00">std::basic_string&lt;</text>
<text text-anchor="middle" x="46.25" y="-252.25" font-family="Helvetica,sans-Serif" font-size="10.00"> Char &gt;</text>
</a>
</g>
</g>
<!-- Node3&#45;&gt;Node2 -->
<g id="edge2_Node000002_Node000003" class="edge">
<title>Node3&#45;&gt;Node2</title>
<g id="a_edge2_Node000002_Node000003"><a xlink:title=" ">
<path fill="none" stroke="#63b8ff" d="M46.25,-235.44C46.25,-224.47 46.25,-212.34 46.25,-204.3"/>
<polygon fill="#63b8ff" stroke="#63b8ff" points="42.75,-235.21 46.25,-245.21 49.75,-235.21 42.75,-235.21"/>
</a>
</g>
</g>
<!-- Node4 -->
<g id="Node000004" class="node">
<title>Node4</title>
<g id="a_Node000004"><a xlink:title=" ">
<polygon fill="white" stroke="#666666" points="225.38,-209.5 93.12,-209.5 93.12,-179 225.38,-179 225.38,-209.5"/>
<text text-anchor="start" x="101.12" y="-196" font-family="Helvetica,sans-Serif" font-size="10.00">std::vector&lt; ID3D11Shader</text>
<text text-anchor="middle" x="159.25" y="-184.75" font-family="Helvetica,sans-Serif" font-size="10.00">ResourceView * &gt;</text>
</a>
</g>
</g>
<!-- Node4&#45;&gt;Node1 -->
<g id="edge3_Node000001_Node000004" class="edge">
<title>Node4&#45;&gt;Node1</title>
<g id="a_edge3_Node000001_Node000004"><a xlink:title=" ">
<path fill="none" stroke="#9a32cd" stroke-dasharray="5,2" d="M155.2,-167.77C148.61,-126.24 135.85,-45.91 131.64,-19.37"/>
<polygon fill="#9a32cd" stroke="#9a32cd" points="151.9,-168.29 156.93,-177.61 158.81,-167.19 151.9,-168.29"/>
</a>
</g>
<text text-anchor="middle" x="214.75" y="-151.5" font-family="Helvetica,sans-Serif" font-size="10.00" fill="grey"> ambient_occlusion_textures</text>
<text text-anchor="middle" x="214.75" y="-140.25" font-family="Helvetica,sans-Serif" font-size="10.00" fill="grey">ambient_textures</text>
<text text-anchor="middle" x="214.75" y="-129" font-family="Helvetica,sans-Serif" font-size="10.00" fill="grey">base_color_textures</text>
<text text-anchor="middle" x="214.75" y="-117.75" font-family="Helvetica,sans-Serif" font-size="10.00" fill="grey">clearcoat_textures</text>
<text text-anchor="middle" x="214.75" y="-106.5" font-family="Helvetica,sans-Serif" font-size="10.00" fill="grey">diffuse_roughness_textures</text>
<text text-anchor="middle" x="214.75" y="-95.25" font-family="Helvetica,sans-Serif" font-size="10.00" fill="grey">diffuse_textures</text>
<text text-anchor="middle" x="214.75" y="-84" font-family="Helvetica,sans-Serif" font-size="10.00" fill="grey">displacement_textures</text>
<text text-anchor="middle" x="214.75" y="-72.75" font-family="Helvetica,sans-Serif" font-size="10.00" fill="grey">emission_color_textures</text>
<text text-anchor="middle" x="214.75" y="-61.5" font-family="Helvetica,sans-Serif" font-size="10.00" fill="grey">emissive_textures</text>
<text text-anchor="middle" x="214.75" y="-50.25" font-family="Helvetica,sans-Serif" font-size="10.00" fill="grey">height_textures</text>
<text text-anchor="middle" x="214.75" y="-39" font-family="Helvetica,sans-Serif" font-size="10.00" fill="grey">...</text>
</g>
</g>
</svg>
