<?xml version="1.0" encoding="UTF-8" standalone="no"?>
<!DOCTYPE svg PUBLIC "-//W3C//DTD SVG 1.1//EN"
 "http://www.w3.org/Graphics/SVG/1.1/DTD/svg11.dtd">
<!-- Generated by graphviz version 9.0.0 (20230911.1827)
 -->
<!-- Title: engine::components::DecalComponent Pages: 1 -->
<svg width="161pt" height="205pt"
 viewBox="0.00 0.00 160.50 205.25" xmlns="http://www.w3.org/2000/svg" xmlns:xlink="http://www.w3.org/1999/xlink">
<g id="graph0" class="graph" transform="scale(1 1) rotate(0) translate(4 201.25)">
<title>engine::components::DecalComponent</title>
<!-- Node1 -->
<g id="Node000001" class="node">
<title>Node1</title>
<g id="a_Node000001"><a xlink:title=" ">
<polygon fill="#999999" stroke="#666666" points="127.38,-30.5 25.12,-30.5 25.12,0 127.38,0 127.38,-30.5"/>
<text text-anchor="start" x="33.12" y="-17" font-family="Helvetica,sans-Serif" font-size="10.00">engine::components</text>
<text text-anchor="middle" x="76.25" y="-5.75" font-family="Helvetica,sans-Serif" font-size="10.00">::DecalComponent</text>
</a>
</g>
</g>
<!-- Node2 -->
<g id="Node000002" class="node">
<title>Node2</title>
<g id="a_Node000002"><a xlink:title=" ">
<polygon fill="white" stroke="#666666" points="152.5,-119.5 0,-119.5 0,-77.75 152.5,-77.75 152.5,-119.5"/>
<text text-anchor="start" x="8" y="-106" font-family="Helvetica,sans-Serif" font-size="10.00">std::vector&lt; engine</text>
<text text-anchor="start" x="8" y="-94.75" font-family="Helvetica,sans-Serif" font-size="10.00">::components::DecalComponent</text>
<text text-anchor="middle" x="76.25" y="-83.5" font-family="Helvetica,sans-Serif" font-size="10.00">::Decal &gt;</text>
</a>
</g>
</g>
<!-- Node2&#45;&gt;Node1 -->
<g id="edge1_Node000001_Node000002" class="edge">
<title>Node2&#45;&gt;Node1</title>
<g id="a_edge1_Node000001_Node000002"><a xlink:title=" ">
<path fill="none" stroke="#9a32cd" stroke-dasharray="5,2" d="M76.25,-66.3C76.25,-54.07 76.25,-40.64 76.25,-30.77"/>
<polygon fill="#9a32cd" stroke="#9a32cd" points="72.75,-66 76.25,-76 79.75,-66 72.75,-66"/>
</a>
</g>
<text text-anchor="middle" x="91.62" y="-50.25" font-family="Helvetica,sans-Serif" font-size="10.00" fill="grey"> decals</text>
</g>
<!-- Node3 -->
<g id="Node000003" class="node">
<title>Node3</title>
<g id="a_Node000003"><a xlink:href="../../d3/d94/structengine_1_1components_1_1_decal_component_1_1_decal.html" target="_top" xlink:title=" ">
<polygon fill="white" stroke="#666666" points="138.25,-197.25 14.25,-197.25 14.25,-166.75 138.25,-166.75 138.25,-197.25"/>
<text text-anchor="start" x="22.25" y="-183.75" font-family="Helvetica,sans-Serif" font-size="10.00">engine::components</text>
<text text-anchor="middle" x="76.25" y="-172.5" font-family="Helvetica,sans-Serif" font-size="10.00">::DecalComponent::Decal</text>
</a>
</g>
</g>
<!-- Node3&#45;&gt;Node2 -->
<g id="edge2_Node000002_Node000003" class="edge">
<title>Node3&#45;&gt;Node2</title>
<g id="a_edge2_Node000002_Node000003"><a xlink:title=" ">
<path fill="none" stroke="#9a32cd" stroke-dasharray="5,2" d="M76.25,-155.01C76.25,-143.63 76.25,-130.48 76.25,-119.85"/>
<polygon fill="#9a32cd" stroke="#9a32cd" points="72.75,-154.94 76.25,-164.94 79.75,-154.94 72.75,-154.94"/>
</a>
</g>
<text text-anchor="middle" x="97.25" y="-139.25" font-family="Helvetica,sans-Serif" font-size="10.00" fill="grey"> elements</text>
</g>
</g>
</svg>
