<?xml version="1.0" encoding="UTF-8" standalone="no"?>
<!DOCTYPE svg PUBLIC "-//W3C//DTD SVG 1.1//EN"
 "http://www.w3.org/Graphics/SVG/1.1/DTD/svg11.dtd">
<!-- Generated by graphviz version 9.0.0 (20230911.1827)
 -->
<!-- Title: engine::render::misc::SortLib Pages: 1 -->
<svg width="1494pt" height="235pt"
 viewBox="0.00 0.00 1493.75 235.12" xmlns="http://www.w3.org/2000/svg" xmlns:xlink="http://www.w3.org/1999/xlink">
<g id="graph0" class="graph" transform="scale(1 1) rotate(0) translate(4 231.12)">
<title>engine::render::misc::SortLib</title>
<!-- Node1 -->
<g id="Node000001" class="node">
<title>Node1</title>
<g id="a_Node000001"><a xlink:title=" ">
<polygon fill="#999999" stroke="#666666" points="1485.75,-160.5 1384.25,-160.5 1384.25,-130 1485.75,-130 1485.75,-160.5"/>
<text text-anchor="start" x="1392.25" y="-147" font-family="Helvetica,sans-Serif" font-size="10.00">engine::render::misc</text>
<text text-anchor="middle" x="1435" y="-135.75" font-family="Helvetica,sans-Serif" font-size="10.00">::SortLib</text>
</a>
</g>
</g>
<!-- Node2 -->
<g id="Node000002" class="node">
<title>Node2</title>
<g id="a_Node000002"><a xlink:href="../../d2/db0/classengine_1_1direct3d_1_1_dynamic_uniform_buffer.html" target="_top" xlink:title=" ">
<polygon fill="white" stroke="#666666" points="1234.25,-227.12 1105,-227.12 1105,-185.38 1234.25,-185.38 1234.25,-227.12"/>
<text text-anchor="start" x="1113" y="-213.62" font-family="Helvetica,sans-Serif" font-size="10.00">engine::direct3d::Dynamic</text>
<text text-anchor="start" x="1113" y="-202.38" font-family="Helvetica,sans-Serif" font-size="10.00">UniformBuffer&lt; core::math</text>
<text text-anchor="middle" x="1169.62" y="-191.12" font-family="Helvetica,sans-Serif" font-size="10.00">::ivec4 &gt;</text>
</a>
</g>
</g>
<!-- Node2&#45;&gt;Node1 -->
<g id="edge1_Node000001_Node000002" class="edge">
<title>Node2&#45;&gt;Node1</title>
<g id="a_edge1_Node000001_Node000002"><a xlink:title=" ">
<path fill="none" stroke="#9a32cd" stroke-dasharray="5,2" d="M1245.75,-188.85C1290.13,-178.57 1345.08,-165.84 1384.13,-156.8"/>
<polygon fill="#9a32cd" stroke="#9a32cd" points="1245.14,-185.4 1236.19,-191.06 1246.72,-192.22 1245.14,-185.4"/>
</a>
</g>
<text text-anchor="middle" x="1314.5" y="-186" font-family="Helvetica,sans-Serif" font-size="10.00" fill="grey"> pcb_dispatch_info_</text>
</g>
<!-- Node3 -->
<g id="Node000003" class="node">
<title>Node3</title>
<g id="a_Node000003"><a xlink:href="../../df/d0e/classengine_1_1direct3d_1_1_dynamic_buffer.html" target="_top" xlink:title="The dynamic buffer class.">
<polygon fill="white" stroke="#666666" points="911.25,-220.5 785.75,-220.5 785.75,-190 911.25,-190 911.25,-220.5"/>
<text text-anchor="start" x="793.75" y="-207" font-family="Helvetica,sans-Serif" font-size="10.00">engine::direct3d::Dynamic</text>
<text text-anchor="middle" x="848.5" y="-195.75" font-family="Helvetica,sans-Serif" font-size="10.00">Buffer&lt; T &gt;</text>
</a>
</g>
</g>
<!-- Node3&#45;&gt;Node2 -->
<g id="edge2_Node000002_Node000003" class="edge">
<title>Node3&#45;&gt;Node2</title>
<g id="a_edge2_Node000002_Node000003"><a xlink:title=" ">
<path fill="none" stroke="#8b1a1a" d="M922.82,-205.48C977.75,-205.65 1052.18,-205.89 1104.7,-206.05"/>
<polygon fill="#8b1a1a" stroke="#8b1a1a" points="922.93,-201.98 912.92,-205.45 922.91,-208.98 922.93,-201.98"/>
</a>
</g>
</g>
<!-- Node4 -->
<g id="Node000004" class="node">
<title>Node4</title>
<g id="a_Node000004"><a xlink:href="../../d9/db4/classengine_1_1direct3d_1_1_buffer_base.html" target="_top" xlink:title="Buffer Base class that contains the common functions for all the buffers.">
<polygon fill="white" stroke="#666666" points="706.62,-219.5 593.12,-219.5 593.12,-189 706.62,-189 706.62,-219.5"/>
<text text-anchor="start" x="601.12" y="-206" font-family="Helvetica,sans-Serif" font-size="10.00">engine::direct3d::Buffer</text>
<text text-anchor="middle" x="649.88" y="-194.75" font-family="Helvetica,sans-Serif" font-size="10.00">Base&lt; T &gt;</text>
</a>
</g>
</g>
<!-- Node4&#45;&gt;Node3 -->
<g id="edge3_Node000003_Node000004" class="edge">
<title>Node4&#45;&gt;Node3</title>
<g id="a_edge3_Node000003_Node000004"><a xlink:title=" ">
<path fill="none" stroke="#63b8ff" d="M718.44,-204.59C740.18,-204.7 764.15,-204.83 785.48,-204.93"/>
<polygon fill="#63b8ff" stroke="#63b8ff" points="718.49,-201.09 708.47,-204.54 718.45,-208.09 718.49,-201.09"/>
</a>
</g>
</g>
<!-- Node5 -->
<g id="Node000005" class="node">
<title>Node5</title>
<g id="a_Node000005"><a xlink:href="../../d6/de4/classengine_1_1direct3d_1_1_buffer_wrapper.html" target="_top" xlink:title="A wrapper for a D3D11 buffer.">
<polygon fill="white" stroke="#666666" points="537.75,-188.5 424.25,-188.5 424.25,-158 537.75,-158 537.75,-188.5"/>
<text text-anchor="start" x="432.25" y="-175" font-family="Helvetica,sans-Serif" font-size="10.00">engine::direct3d::Buffer</text>
<text text-anchor="middle" x="481" y="-163.75" font-family="Helvetica,sans-Serif" font-size="10.00">Wrapper</text>
</a>
</g>
</g>
<!-- Node5&#45;&gt;Node4 -->
<g id="edge4_Node000004_Node000005" class="edge">
<title>Node5&#45;&gt;Node4</title>
<g id="a_edge4_Node000004_Node000005"><a xlink:title=" ">
<path fill="none" stroke="#8b1a1a" d="M548.96,-185.69C563.47,-188.38 578.67,-191.21 592.71,-193.82"/>
<polygon fill="#8b1a1a" stroke="#8b1a1a" points="549.99,-182.32 539.52,-183.94 548.71,-189.2 549.99,-182.32"/>
</a>
</g>
</g>
<!-- Node8 -->
<g id="Node000008" class="node">
<title>Node8</title>
<g id="a_Node000008"><a xlink:href="../../d9/db4/classengine_1_1direct3d_1_1_buffer_base.html" target="_top" xlink:title="Buffer Base class that contains the common functions for all the buffers.">
<polygon fill="white" stroke="#666666" points="706.62,-170.5 593.12,-170.5 593.12,-140 706.62,-140 706.62,-170.5"/>
<text text-anchor="start" x="601.12" y="-157" font-family="Helvetica,sans-Serif" font-size="10.00">engine::direct3d::Buffer</text>
<text text-anchor="middle" x="649.88" y="-145.75" font-family="Helvetica,sans-Serif" font-size="10.00">Base&lt; T &gt;</text>
</a>
</g>
</g>
<!-- Node5&#45;&gt;Node8 -->
<g id="edge8_Node000008_Node000005" class="edge">
<title>Node5&#45;&gt;Node8</title>
<g id="a_edge8_Node000008_Node000005"><a xlink:title=" ">
<path fill="none" stroke="#8b1a1a" d="M549.39,-165.98C563.76,-164.43 578.8,-162.81 592.71,-161.31"/>
<polygon fill="#8b1a1a" stroke="#8b1a1a" points="549.1,-162.49 539.54,-167.04 549.85,-169.45 549.1,-162.49"/>
</a>
</g>
</g>
<!-- Node6 -->
<g id="Node000006" class="node">
<title>Node6</title>
<g id="a_Node000006"><a xlink:href="../../df/d47/classengine_1_1direct3d_1_1d3d__resource__wrapper.html" target="_top" xlink:title=" ">
<polygon fill="white" stroke="#666666" points="356.75,-188.5 184,-188.5 184,-158 356.75,-158 356.75,-188.5"/>
<text text-anchor="start" x="192" y="-175" font-family="Helvetica,sans-Serif" font-size="10.00">engine::direct3d::d3d</text>
<text text-anchor="middle" x="270.38" y="-163.75" font-family="Helvetica,sans-Serif" font-size="10.00">_resource_wrapper&lt; ID3D11Buffer &gt;</text>
</a>
</g>
</g>
<!-- Node6&#45;&gt;Node5 -->
<g id="edge5_Node000005_Node000006" class="edge">
<title>Node6&#45;&gt;Node5</title>
<g id="a_edge5_Node000005_Node000006"><a xlink:title=" ">
<path fill="none" stroke="#9a32cd" stroke-dasharray="5,2" d="M368.54,-173.25C387.47,-173.25 406.72,-173.25 423.77,-173.25"/>
<polygon fill="#9a32cd" stroke="#9a32cd" points="368.65,-169.75 358.65,-173.25 368.65,-176.75 368.65,-169.75"/>
</a>
</g>
<text text-anchor="middle" x="390.5" y="-175" font-family="Helvetica,sans-Serif" font-size="10.00" fill="grey"> buffer_</text>
</g>
<!-- Node7 -->
<g id="Node000007" class="node">
<title>Node7</title>
<g id="a_Node000007"><a xlink:href="../../da/d25/classengine_1_1direct3d_1_1_default_buffer.html" target="_top" xlink:title=" ">
<polygon fill="white" stroke="#666666" points="1076.5,-163.5 940.5,-163.5 940.5,-133 1076.5,-133 1076.5,-163.5"/>
<text text-anchor="start" x="948.5" y="-150" font-family="Helvetica,sans-Serif" font-size="10.00">engine::direct3d::Default</text>
<text text-anchor="middle" x="1008.5" y="-138.75" font-family="Helvetica,sans-Serif" font-size="10.00">Buffer&lt; core::math::uivec4 &gt;</text>
</a>
</g>
</g>
<!-- Node7&#45;&gt;Node1 -->
<g id="edge6_Node000001_Node000007" class="edge">
<title>Node7&#45;&gt;Node1</title>
<g id="a_edge6_Node000001_Node000007"><a xlink:title=" ">
<path fill="none" stroke="#9a32cd" stroke-dasharray="5,2" d="M1088.1,-147.69C1174.59,-147.08 1310.99,-146.12 1383.98,-145.6"/>
<polygon fill="#9a32cd" stroke="#9a32cd" points="1088.25,-144.19 1078.28,-147.76 1088.3,-151.19 1088.25,-144.19"/>
</a>
</g>
<text text-anchor="start" x="1129.88" y="-160.25" font-family="Helvetica,sans-Serif" font-size="10.00" fill="grey"> indirect_sort_args</text>
<text text-anchor="middle" x="1169.62" y="-149" font-family="Helvetica,sans-Serif" font-size="10.00" fill="grey">_buffer_</text>
</g>
<!-- Node8&#45;&gt;Node7 -->
<g id="edge7_Node000007_Node000008" class="edge">
<title>Node8&#45;&gt;Node7</title>
<g id="a_edge7_Node000007_Node000008"><a xlink:title=" ">
<path fill="none" stroke="#63b8ff" d="M718.48,-153.92C782.05,-152.68 876.68,-150.82 940.16,-149.57"/>
<polygon fill="#63b8ff" stroke="#63b8ff" points="718.43,-150.42 708.5,-154.12 718.57,-157.42 718.43,-150.42"/>
</a>
</g>
</g>
<!-- Node9 -->
<g id="Node000009" class="node">
<title>Node9</title>
<g id="a_Node000009"><a xlink:href="../../d4/d40/classengine_1_1render_1_1_compute_shader_program.html" target="_top" xlink:title=" ">
<polygon fill="white" stroke="#666666" points="1244.75,-55.5 1094.5,-55.5 1094.5,-25 1244.75,-25 1244.75,-55.5"/>
<text text-anchor="start" x="1102.5" y="-42" font-family="Helvetica,sans-Serif" font-size="10.00">engine::render::ComputeShader</text>
<text text-anchor="middle" x="1169.62" y="-30.75" font-family="Helvetica,sans-Serif" font-size="10.00">Program</text>
</a>
</g>
</g>
<!-- Node9&#45;&gt;Node1 -->
<g id="edge9_Node000001_Node000009" class="edge">
<title>Node9&#45;&gt;Node1</title>
<g id="a_edge9_Node000001_Node000009"><a xlink:title=" ">
<path fill="none" stroke="#9a32cd" stroke-dasharray="5,2" d="M1255.94,-23.48C1291.97,-20.61 1333.15,-23.2 1366.25,-41.25 1401.06,-60.23 1420.83,-105.65 1429.2,-129.7"/>
<polygon fill="#9a32cd" stroke="#9a32cd" points="1256.07,-19.95 1246.44,-24.39 1256.73,-26.92 1256.07,-19.95"/>
</a>
</g>
<text text-anchor="start" x="1262.75" y="-121.75" font-family="Helvetica,sans-Serif" font-size="10.00" fill="grey"> init_sort_args_compute</text>
<text text-anchor="middle" x="1314.5" y="-110.5" font-family="Helvetica,sans-Serif" font-size="10.00" fill="grey">_shader_</text>
<text text-anchor="start" x="1262.75" y="-99.25" font-family="Helvetica,sans-Serif" font-size="10.00" fill="grey">inner_compute_shader</text>
<text text-anchor="middle" x="1314.5" y="-88" font-family="Helvetica,sans-Serif" font-size="10.00" fill="grey">_</text>
<text text-anchor="start" x="1262.75" y="-76.75" font-family="Helvetica,sans-Serif" font-size="10.00" fill="grey">lds_compute_shader</text>
<text text-anchor="middle" x="1314.5" y="-65.5" font-family="Helvetica,sans-Serif" font-size="10.00" fill="grey">_</text>
<text text-anchor="start" x="1262.75" y="-54.25" font-family="Helvetica,sans-Serif" font-size="10.00" fill="grey">sort_step_compute</text>
<text text-anchor="middle" x="1314.5" y="-43" font-family="Helvetica,sans-Serif" font-size="10.00" fill="grey">_shader_</text>
</g>
<!-- Node10 -->
<g id="Node000010" class="node">
<title>Node10</title>
<g id="a_Node000010"><a xlink:href="../../db/db6/structengine_1_1render_1_1_shader_program.html" target="_top" xlink:title=" ">
<polygon fill="white" stroke="#666666" points="922.5,-67.88 774.5,-67.88 774.5,-48.62 922.5,-48.62 922.5,-67.88"/>
<text text-anchor="middle" x="848.5" y="-54.38" font-family="Helvetica,sans-Serif" font-size="10.00">engine::render::ShaderProgram</text>
</a>
</g>
</g>
<!-- Node10&#45;&gt;Node9 -->
<g id="edge10_Node000009_Node000010" class="edge">
<title>Node10&#45;&gt;Node9</title>
<g id="a_edge10_Node000009_Node000010"><a xlink:title=" ">
<path fill="none" stroke="#63b8ff" d="M934.1,-53.48C983.85,-50.67 1046.19,-47.16 1094.09,-44.45"/>
<polygon fill="#63b8ff" stroke="#63b8ff" points="934.01,-49.98 924.22,-54.04 934.41,-56.97 934.01,-49.98"/>
</a>
</g>
</g>
<!-- Node11 -->
<g id="Node000011" class="node">
<title>Node11</title>
<g id="a_Node000011"><a xlink:title=" ">
<polygon fill="white" stroke="#666666" points="913.5,-30.5 783.5,-30.5 783.5,0 913.5,0 913.5,-30.5"/>
<text text-anchor="start" x="791.5" y="-17" font-family="Helvetica,sans-Serif" font-size="10.00">std::shared_ptr&lt; engine</text>
<text text-anchor="middle" x="848.5" y="-5.75" font-family="Helvetica,sans-Serif" font-size="10.00">::render::ComputeShader &gt;</text>
</a>
</g>
</g>
<!-- Node11&#45;&gt;Node9 -->
<g id="edge11_Node000009_Node000011" class="edge">
<title>Node11&#45;&gt;Node9</title>
<g id="a_edge11_Node000009_Node000011"><a xlink:title=" ">
<path fill="none" stroke="#9a32cd" stroke-dasharray="5,2" d="M924.89,-19.28C969.1,-21.86 1026.01,-25.55 1076.5,-30 1082.27,-30.51 1088.24,-31.08 1094.24,-31.68"/>
<polygon fill="#9a32cd" stroke="#9a32cd" points="925.34,-15.8 915.16,-18.72 924.94,-22.79 925.34,-15.8"/>
</a>
</g>
<text text-anchor="middle" x="1008.5" y="-32" font-family="Helvetica,sans-Serif" font-size="10.00" fill="grey"> shader_</text>
</g>
<!-- Node12 -->
<g id="Node000012" class="node">
<title>Node12</title>
<g id="a_Node000012"><a xlink:href="../../d3/d0b/classengine_1_1render_1_1_compute_shader.html" target="_top" xlink:title=" ">
<polygon fill="white" stroke="#666666" points="725,-24.88 574.75,-24.88 574.75,-5.62 725,-5.62 725,-24.88"/>
<text text-anchor="middle" x="649.88" y="-11.38" font-family="Helvetica,sans-Serif" font-size="10.00">engine::render::ComputeShader</text>
</a>
</g>
</g>
<!-- Node12&#45;&gt;Node11 -->
<g id="edge12_Node000011_Node000012" class="edge">
<title>Node12&#45;&gt;Node11</title>
<g id="a_edge12_Node000011_Node000012"><a xlink:title=" ">
<path fill="none" stroke="#9a32cd" stroke-dasharray="5,2" d="M736.75,-15.25C752.35,-15.25 768.37,-15.25 783.22,-15.25"/>
<polygon fill="#9a32cd" stroke="#9a32cd" points="737,-11.75 727,-15.25 737,-18.75 737,-11.75"/>
</a>
</g>
<text text-anchor="middle" x="749.75" y="-17" font-family="Helvetica,sans-Serif" font-size="10.00" fill="grey"> ptr</text>
</g>
<!-- Node13 -->
<g id="Node000013" class="node">
<title>Node13</title>
<g id="a_Node000013"><a xlink:href="../../d0/dc5/classengine_1_1render_1_1_shader.html" target="_top" xlink:title=" ">
<polygon fill="white" stroke="#666666" points="536.62,-24.88 425.38,-24.88 425.38,-5.62 536.62,-5.62 536.62,-24.88"/>
<text text-anchor="middle" x="481" y="-11.38" font-family="Helvetica,sans-Serif" font-size="10.00">engine::render::Shader</text>
</a>
</g>
</g>
<!-- Node13&#45;&gt;Node12 -->
<g id="edge13_Node000012_Node000013" class="edge">
<title>Node13&#45;&gt;Node12</title>
<g id="a_edge13_Node000012_Node000013"><a xlink:title=" ">
<path fill="none" stroke="#63b8ff" d="M548.54,-15.25C557.07,-15.25 565.84,-15.25 574.48,-15.25"/>
<polygon fill="#63b8ff" stroke="#63b8ff" points="548.62,-11.75 538.62,-15.25 548.62,-18.75 548.62,-11.75"/>
</a>
</g>
</g>
<!-- Node14 -->
<g id="Node000014" class="node">
<title>Node14</title>
<g id="a_Node000014"><a xlink:href="../../d3/de6/structengine_1_1render_1_1_shader_blob.html" target="_top" xlink:title=" ">
<polygon fill="white" stroke="#666666" points="335.75,-24.88 205,-24.88 205,-5.62 335.75,-5.62 335.75,-24.88"/>
<text text-anchor="middle" x="270.38" y="-11.38" font-family="Helvetica,sans-Serif" font-size="10.00">engine::render::ShaderBlob</text>
</a>
</g>
</g>
<!-- Node14&#45;&gt;Node13 -->
<g id="edge14_Node000013_Node000014" class="edge">
<title>Node14&#45;&gt;Node13</title>
<g id="a_edge14_Node000013_Node000014"><a xlink:title=" ">
<path fill="none" stroke="#9a32cd" stroke-dasharray="5,2" d="M347.46,-15.25C373.14,-15.25 401.29,-15.25 425.01,-15.25"/>
<polygon fill="#9a32cd" stroke="#9a32cd" points="347.76,-11.75 337.76,-15.25 347.76,-18.75 347.76,-11.75"/>
</a>
</g>
<text text-anchor="middle" x="390.5" y="-17" font-family="Helvetica,sans-Serif" font-size="10.00" fill="grey"> blob_</text>
</g>
<!-- Node15 -->
<g id="Node000015" class="node">
<title>Node15</title>
<g id="a_Node000015"><a xlink:title=" ">
<polygon fill="white" stroke="#666666" points="106.75,-24.88 0,-24.88 0,-5.62 106.75,-5.62 106.75,-24.88"/>
<text text-anchor="middle" x="53.38" y="-11.38" font-family="Helvetica,sans-Serif" font-size="10.00">std::vector&lt; uint8_t &gt;</text>
</a>
</g>
</g>
<!-- Node15&#45;&gt;Node14 -->
<g id="edge15_Node000014_Node000015" class="edge">
<title>Node15&#45;&gt;Node14</title>
<g id="a_edge15_Node000014_Node000015"><a xlink:title=" ">
<path fill="none" stroke="#9a32cd" stroke-dasharray="5,2" d="M118.62,-15.25C145.85,-15.25 177.53,-15.25 204.8,-15.25"/>
<polygon fill="#9a32cd" stroke="#9a32cd" points="118.76,-11.75 108.76,-15.25 118.76,-18.75 118.76,-11.75"/>
</a>
</g>
<text text-anchor="middle" x="145.38" y="-17" font-family="Helvetica,sans-Serif" font-size="10.00" fill="grey"> bytecode</text>
</g>
</g>
</svg>
