<?xml version="1.0" encoding="UTF-8" standalone="no"?>
<!DOCTYPE svg PUBLIC "-//W3C//DTD SVG 1.1//EN"
 "http://www.w3.org/Graphics/SVG/1.1/DTD/svg11.dtd">
<!-- Generated by graphviz version 9.0.0 (20230911.1827)
 -->
<!-- Title: engine/core/events/key&#45;events.hpp Pages: 1 -->
<svg width="107pt" height="149pt"
 viewBox="0.00 0.00 106.50 149.00" xmlns="http://www.w3.org/2000/svg" xmlns:xlink="http://www.w3.org/1999/xlink">
<g id="graph0" class="graph" transform="scale(1 1) rotate(0) translate(4 145)">
<title>engine/core/events/key&#45;events.hpp</title>
<!-- Node1 -->
<g id="Node000001" class="node">
<title>Node1</title>
<g id="a_Node000001"><a xlink:title=" ">
<polygon fill="#999999" stroke="#666666" points="98.5,-141 0,-141 0,-110.5 98.5,-110.5 98.5,-141"/>
<text text-anchor="start" x="8" y="-127.5" font-family="Helvetica,sans-Serif" font-size="10.00">engine/core/events</text>
<text text-anchor="middle" x="49.25" y="-116.25" font-family="Helvetica,sans-Serif" font-size="10.00">/key&#45;events.hpp</text>
</a>
</g>
</g>
<!-- Node2 -->
<g id="Node000002" class="node">
<title>Node2</title>
<g id="a_Node000002"><a xlink:href="../../dc/d94/event_8hpp.html" target="_top" xlink:title=" ">
<polygon fill="white" stroke="#666666" points="78.25,-74.5 20.25,-74.5 20.25,-55.25 78.25,-55.25 78.25,-74.5"/>
<text text-anchor="middle" x="49.25" y="-61" font-family="Helvetica,sans-Serif" font-size="10.00">event.hpp</text>
</a>
</g>
</g>
<!-- Node1&#45;&gt;Node2 -->
<g id="edge1_Node000001_Node000002" class="edge">
<title>Node1&#45;&gt;Node2</title>
<g id="a_edge1_Node000001_Node000002"><a xlink:title=" ">
<path fill="none" stroke="#63b8ff" d="M49.25,-110.2C49.25,-102.96 49.25,-94.09 49.25,-86.19"/>
<polygon fill="#63b8ff" stroke="#63b8ff" points="52.75,-86.46 49.25,-76.46 45.75,-86.46 52.75,-86.46"/>
</a>
</g>
</g>
<!-- Node3 -->
<g id="Node000003" class="node">
<title>Node3</title>
<g id="a_Node000003"><a xlink:title=" ">
<polygon fill="#e0e0e0" stroke="#999999" points="69.25,-19.25 29.25,-19.25 29.25,0 69.25,0 69.25,-19.25"/>
<text text-anchor="middle" x="49.25" y="-5.75" font-family="Helvetica,sans-Serif" font-size="10.00">string</text>
</a>
</g>
</g>
<!-- Node2&#45;&gt;Node3 -->
<g id="edge2_Node000002_Node000003" class="edge">
<title>Node2&#45;&gt;Node3</title>
<g id="a_edge2_Node000002_Node000003"><a xlink:title=" ">
<path fill="none" stroke="#63b8ff" d="M49.25,-55.08C49.25,-48.57 49.25,-39.42 49.25,-31.12"/>
<polygon fill="#63b8ff" stroke="#63b8ff" points="52.75,-31.12 49.25,-21.12 45.75,-31.12 52.75,-31.12"/>
</a>
</g>
</g>
</g>
</svg>
