<?xml version="1.0" encoding="UTF-8" standalone="no"?>
<!DOCTYPE svg PUBLIC "-//W3C//DTD SVG 1.1//EN"
 "http://www.w3.org/Graphics/SVG/1.1/DTD/svg11.dtd">
<!-- Generated by graphviz version 8.1.0 (20230707.0739)
 -->
<!-- Title: engine::platform::windows::Window Pages: 1 -->
<svg width="218pt" height="160pt"
 viewBox="0.00 0.00 218.25 160.25" xmlns="http://www.w3.org/2000/svg" xmlns:xlink="http://www.w3.org/1999/xlink">
<g id="graph0" class="graph" transform="scale(1 1) rotate(0) translate(4 156.25)">
<title>engine::platform::windows::Window</title>
<!-- Node1 -->
<g id="Node000001" class="node">
<title>Node1</title>
<g id="a_Node000001"><a xlink:title=" ">
<polygon fill="#999999" stroke="#666666" points="168.62,-30.5 41.62,-30.5 41.62,0 168.62,0 168.62,-30.5"/>
<text text-anchor="start" x="49.62" y="-17" font-family="Helvetica,sans-Serif" font-size="10.00">engine::platform::windows</text>
<text text-anchor="middle" x="105.12" y="-5.75" font-family="Helvetica,sans-Serif" font-size="10.00">::Window</text>
</a>
</g>
</g>
<!-- Node2 -->
<g id="Node000002" class="node">
<title>Node2</title>
<g id="a_Node000002"><a xlink:href="../../dd/d52/classengine_1_1core_1_1_window.html" target="_top" xlink:title=" ">
<polygon fill="white" stroke="#666666" points="158.5,-85.75 51.75,-85.75 51.75,-66.5 158.5,-66.5 158.5,-85.75"/>
<text text-anchor="middle" x="105.12" y="-72.25" font-family="Helvetica,sans-Serif" font-size="10.00">engine::core::Window</text>
</a>
</g>
</g>
<!-- Node2&#45;&gt;Node1 -->
<g id="edge1_Node000001_Node000002" class="edge">
<title>Node2&#45;&gt;Node1</title>
<g id="a_edge1_Node000001_Node000002"><a xlink:title=" ">
<path fill="none" stroke="#63b8ff" d="M105.12,-55.2C105.12,-47.2 105.12,-38.15 105.12,-30.78"/>
<polygon fill="#63b8ff" stroke="#63b8ff" points="101.63,-55.18 105.12,-65.18 108.63,-55.18 101.63,-55.18"/>
</a>
</g>
</g>
<!-- Node3 -->
<g id="Node000003" class="node">
<title>Node3</title>
<g id="a_Node000003"><a xlink:href="../../d0/d04/classengine_1_1core_1_1_layer.html" target="_top" xlink:title=" ">
<polygon fill="white" stroke="#666666" points="96.25,-146.62 0,-146.62 0,-127.38 96.25,-127.38 96.25,-146.62"/>
<text text-anchor="middle" x="48.12" y="-133.12" font-family="Helvetica,sans-Serif" font-size="10.00">engine::core::Layer</text>
</a>
</g>
</g>
<!-- Node3&#45;&gt;Node2 -->
<g id="edge2_Node000002_Node000003" class="edge">
<title>Node3&#45;&gt;Node2</title>
<g id="a_edge2_Node000002_Node000003"><a xlink:title=" ">
<path fill="none" stroke="#63b8ff" d="M64.41,-119.18C74.82,-108.43 87.9,-94.91 96.39,-86.15"/>
<polygon fill="#63b8ff" stroke="#63b8ff" points="62.22,-116.44 57.78,-126.06 67.25,-121.31 62.22,-116.44"/>
</a>
</g>
</g>
<!-- Node4 -->
<g id="Node000004" class="node">
<title>Node4</title>
<g id="a_Node000004"><a xlink:href="../../d5/d41/structengine_1_1core_1_1_layer_1_1_handle_update.html" target="_top" xlink:title=" ">
<polygon fill="white" stroke="#666666" points="210.25,-152.25 114,-152.25 114,-121.75 210.25,-121.75 210.25,-152.25"/>
<text text-anchor="start" x="122" y="-138.75" font-family="Helvetica,sans-Serif" font-size="10.00">engine::core::Layer</text>
<text text-anchor="middle" x="162.12" y="-127.5" font-family="Helvetica,sans-Serif" font-size="10.00">::HandleUpdate</text>
</a>
</g>
</g>
<!-- Node4&#45;&gt;Node2 -->
<g id="edge3_Node000002_Node000004" class="edge">
<title>Node4&#45;&gt;Node2</title>
<g id="a_edge3_Node000002_Node000004"><a xlink:title=" ">
<path fill="none" stroke="#63b8ff" d="M140.59,-113.76C131.33,-104.19 121.02,-93.54 113.91,-86.2"/>
<polygon fill="#63b8ff" stroke="#63b8ff" points="137.56,-115.7 147.04,-120.45 142.59,-110.83 137.56,-115.7"/>
</a>
</g>
</g>
</g>
</svg>
