<?xml version="1.0" encoding="UTF-8" standalone="no"?>
<!DOCTYPE svg PUBLIC "-//W3C//DTD SVG 1.1//EN"
 "http://www.w3.org/Graphics/SVG/1.1/DTD/svg11.dtd">
<!-- Generated by graphviz version 9.0.0 (20230911.1827)
 -->
<!-- Title: engine::core::LayerStackThreadsafe Pages: 1 -->
<!--zoomable 608 -->

<svg id="main" version="1.1" xmlns="http://www.w3.org/2000/svg" xmlns:xlink="http://www.w3.org/1999/xlink" xml:space="preserve" onload="init(evt)">
<style type="text/css"><![CDATA[
.node, .edge {opacity: 0.7;}
.node.selected, .edge.selected {opacity: 1;}
.edge:hover path { stroke: red; }
.edge:hover polygon { stroke: red; fill: red; }
]]></style>

<defs>
  <circle id="rim" cx="0" cy="0" r="7"/>
  <circle id="rim2" cx="0" cy="0" r="3.5"/>
  <g id="zoomPlus">
    <use xlink:href="#rim" fill="#404040"><set attributeName="fill" to="#808080" begin="zoomplus.mouseover" end="zoomplus.mouseout"/></use>
    <path d="M-4,0h8M0,-4v8" fill="none" stroke="white" stroke-width="1.5" pointer-events="none"/>
  </g>
  <g id="zoomMin">
    <use xlink:href="#rim" fill="#404040"><set attributeName="fill" to="#808080" begin="zoomminus.mouseover" end="zoomminus.mouseout"/></use>
    <path d="M-4,0h8" fill="none" stroke="white" stroke-width="1.5" pointer-events="none"/>
  </g>
  <g id="arrowUp" transform="translate(30 24)">
    <use xlink:href="#rim"/>
    <path pointer-events="none" fill="none" stroke="white" stroke-width="1.5" d="M0,-3.0v7 M-2.5,-0.5L0,-3.0L2.5,-0.5"/>
  </g>
  <g id="arrowRight" transform="rotate(90) translate(36 -43)">
    <use xlink:href="#rim"/>
    <path pointer-events="none" fill="none" stroke="white" stroke-width="1.5" d="M0,-3.0v7 M-2.5,-0.5L0,-3.0L2.5,-0.5"/>
  </g>
  <g id="arrowDown" transform="rotate(180) translate(-30 -48)">
    <use xlink:href="#rim"/>
    <path pointer-events="none" fill="none" stroke="white" stroke-width="1.5" d="M0,-3.0v7 M-2.5,-0.5L0,-3.0L2.5,-0.5"/>
  </g>
  <g id="arrowLeft" transform="rotate(270) translate(-36 17)">
    <use xlink:href="#rim"/>
    <path pointer-events="none" fill="none" stroke="white" stroke-width="1.5" d="M0,-3.0v7 M-2.5,-0.5L0,-3.0L2.5,-0.5"/>
  </g>
  <g id="resetDef">
    <use xlink:href="#rim2" fill="#404040"><set attributeName="fill" to="#808080" begin="reset.mouseover" end="reset.mouseout"/></use>
  </g>
</defs>
<script type="application/ecmascript">
var viewWidth = 1301;
var viewHeight = 608;
var sectionId = 'dynsection-1';
</script>
<script type="application/ecmascript" xlink:href="../../svg.min.js"/>
<svg id="graph" class="graph">
<g id="viewport">
<title>engine::core::LayerStackThreadsafe</title>
<!-- Node1 -->
<g id="Node000001" class="node">
<title>Node1</title>
<g id="a_Node000001"><a xlink:title=" ">
<polygon fill="#999999" stroke="#666666" points="1292.75,-277.12 1171,-277.12 1171,-246.62 1292.75,-246.62 1292.75,-277.12"/>
<text text-anchor="start" x="1179" y="-263.62" font-family="Helvetica,sans-Serif" font-size="10.00">engine::core::LayerStack</text>
<text text-anchor="middle" x="1231.88" y="-252.38" font-family="Helvetica,sans-Serif" font-size="10.00">Threadsafe</text>
</a>
</g>
</g>
<!-- Node2 -->
<g id="Node000002" class="node">
<title>Node2</title>
<g id="a_Node000002"><a xlink:href="../../d6/d88/classengine_1_1core_1_1_layer_stack.html" target="_top" xlink:title=" ">
<polygon fill="white" stroke="#666666" points="1106.5,-295.5 984.75,-295.5 984.75,-276.25 1106.5,-276.25 1106.5,-295.5"/>
<text text-anchor="middle" x="1045.62" y="-282" font-family="Helvetica,sans-Serif" font-size="10.00">engine::core::LayerStack</text>
</a>
</g>
</g>
<!-- Node2&#45;&gt;Node1 -->
<g id="edge1_Node000001_Node000002" class="edge">
<title>Node2&#45;&gt;Node1</title>
<g id="a_edge1_Node000001_Node000002"><a xlink:title=" ">
<path fill="none" stroke="#8b1a1a" d="M1118.19,-276.55C1135.56,-274.29 1153.95,-271.9 1170.72,-269.71"/>
<polygon fill="#8b1a1a" stroke="#8b1a1a" points="1117.92,-273.06 1108.46,-277.82 1118.82,-280 1117.92,-273.06"/>
</a>
</g>
</g>
<!-- Node3 -->
<g id="Node000003" class="node">
<title>Node3</title>
<g id="a_Node000003"><a xlink:href="../../d0/d04/classengine_1_1core_1_1_layer.html" target="_top" xlink:title=" ">
<polygon fill="white" stroke="#666666" points="383.12,-532.5 286.88,-532.5 286.88,-513.25 383.12,-513.25 383.12,-532.5"/>
<text text-anchor="middle" x="335" y="-519" font-family="Helvetica,sans-Serif" font-size="10.00">engine::core::Layer</text>
</a>
</g>
</g>
<!-- Node3&#45;&gt;Node2 -->
<g id="edge2_Node000002_Node000003" class="edge">
<title>Node3&#45;&gt;Node2</title>
<g id="a_edge2_Node000002_Node000003"><a xlink:title=" ">
<path fill="none" stroke="#63b8ff" d="M372.64,-536.73C479.56,-574.51 794.45,-666.72 966.75,-513.88 1034.65,-453.64 1043.39,-331.7 1044.48,-295.94"/>
<polygon fill="#63b8ff" stroke="#63b8ff" points="374.11,-533.53 363.51,-533.44 371.74,-540.12 374.11,-533.53"/>
</a>
</g>
</g>
<!-- Node12 -->
<g id="Node000012" class="node">
<title>Node12</title>
<g id="a_Node000012"><a xlink:title=" ">
<polygon fill="white" stroke="#666666" points="601.25,-520.12 484.75,-520.12 484.75,-489.62 601.25,-489.62 601.25,-520.12"/>
<text text-anchor="start" x="492.75" y="-506.62" font-family="Helvetica,sans-Serif" font-size="10.00">std::shared_ptr&lt; engine</text>
<text text-anchor="middle" x="543" y="-495.38" font-family="Helvetica,sans-Serif" font-size="10.00">::core::Layer &gt;</text>
</a>
</g>
</g>
<!-- Node3&#45;&gt;Node12 -->
<g id="edge12_Node000012_Node000003" class="edge">
<title>Node3&#45;&gt;Node12</title>
<g id="a_edge12_Node000012_Node000003"><a xlink:title=" ">
<path fill="none" stroke="#9a32cd" stroke-dasharray="5,2" d="M394.81,-517.74C422.93,-515.28 456.48,-512.35 484.44,-509.9"/>
<polygon fill="#9a32cd" stroke="#9a32cd" points="394.68,-514.23 385.03,-518.59 395.29,-521.21 394.68,-514.23"/>
</a>
</g>
<text text-anchor="middle" x="422.5" y="-518.62" font-family="Helvetica,sans-Serif" font-size="10.00" fill="grey"> ptr</text>
</g>
<!-- Node4 -->
<g id="Node000004" class="node">
<title>Node4</title>
<g id="a_Node000004"><a xlink:title=" ">
<polygon fill="white" stroke="#666666" points="187.5,-532.5 129.5,-532.5 129.5,-513.25 187.5,-513.25 187.5,-532.5"/>
<text text-anchor="middle" x="158.5" y="-519" font-family="Helvetica,sans-Serif" font-size="10.00">std::string</text>
</a>
</g>
</g>
<!-- Node4&#45;&gt;Node3 -->
<g id="edge3_Node000003_Node000004" class="edge">
<title>Node4&#45;&gt;Node3</title>
<g id="a_edge3_Node000003_Node000004"><a xlink:title=" ">
<path fill="none" stroke="#9a32cd" stroke-dasharray="5,2" d="M199.22,-522.88C225.15,-522.88 259.14,-522.88 286.49,-522.88"/>
<polygon fill="#9a32cd" stroke="#9a32cd" points="199.44,-519.38 189.44,-522.88 199.44,-526.38 199.44,-519.38"/>
</a>
</g>
<text text-anchor="middle" x="237" y="-524.62" font-family="Helvetica,sans-Serif" font-size="10.00" fill="grey"> debug_name_</text>
</g>
<!-- Node5 -->
<g id="Node000005" class="node">
<title>Node5</title>
<g id="a_Node000005"><a xlink:title=" ">
<polygon fill="white" stroke="#666666" points="92.5,-538.12 0,-538.12 0,-507.62 92.5,-507.62 92.5,-538.12"/>
<text text-anchor="start" x="8" y="-524.62" font-family="Helvetica,sans-Serif" font-size="10.00">std::basic_string&lt;</text>
<text text-anchor="middle" x="46.25" y="-513.38" font-family="Helvetica,sans-Serif" font-size="10.00"> Char &gt;</text>
</a>
</g>
</g>
<!-- Node5&#45;&gt;Node4 -->
<g id="edge4_Node000004_Node000005" class="edge">
<title>Node5&#45;&gt;Node4</title>
<g id="a_edge4_Node000004_Node000005"><a xlink:title=" ">
<path fill="none" stroke="#63b8ff" d="M104.12,-522.88C112.81,-522.88 121.45,-522.88 129.16,-522.88"/>
<polygon fill="#63b8ff" stroke="#63b8ff" points="104.24,-519.38 94.24,-522.88 104.24,-526.38 104.24,-519.38"/>
</a>
</g>
</g>
<!-- Node6 -->
<g id="Node000006" class="node">
<title>Node6</title>
<g id="a_Node000006"><a xlink:href="../../dd/dd4/structengine_1_1core_1_1_layer_1_1_handle_event.html" target="_top" xlink:title=" ">
<polygon fill="white" stroke="#666666" points="383.12,-471.12 286.88,-471.12 286.88,-440.62 383.12,-440.62 383.12,-471.12"/>
<text text-anchor="start" x="294.88" y="-457.62" font-family="Helvetica,sans-Serif" font-size="10.00">engine::core::Layer</text>
<text text-anchor="middle" x="335" y="-446.38" font-family="Helvetica,sans-Serif" font-size="10.00">::HandleEvent</text>
</a>
</g>
</g>
<!-- Node6&#45;&gt;Node2 -->
<g id="edge5_Node000002_Node000006" class="edge">
<title>Node6&#45;&gt;Node2</title>
<g id="a_edge5_Node000002_Node000006"><a xlink:title=" ">
<path fill="none" stroke="#63b8ff" d="M394.9,-461.49C497.87,-469.78 716.77,-480.52 896.25,-442.88 929.41,-435.92 941,-435.89 966.75,-413.88 1006.89,-379.57 1032.34,-319.18 1041.15,-295.65"/>
<polygon fill="#63b8ff" stroke="#63b8ff" points="395.28,-458.01 385.03,-460.67 394.7,-464.99 395.28,-458.01"/>
</a>
</g>
</g>
<!-- Node20 -->
<g id="Node000020" class="node">
<title>Node20</title>
<g id="a_Node000020"><a xlink:title=" ">
<polygon fill="white" stroke="#666666" points="614,-432.12 472,-432.12 472,-401.62 614,-401.62 614,-432.12"/>
<text text-anchor="start" x="480" y="-418.62" font-family="Helvetica,sans-Serif" font-size="10.00">std::vector&lt; engine</text>
<text text-anchor="middle" x="543" y="-407.38" font-family="Helvetica,sans-Serif" font-size="10.00">::core::Layer::HandleEvent * &gt;</text>
</a>
</g>
</g>
<!-- Node6&#45;&gt;Node20 -->
<g id="edge24_Node000020_Node000006" class="edge">
<title>Node6&#45;&gt;Node20</title>
<g id="a_edge24_Node000020_Node000006"><a xlink:title=" ">
<path fill="none" stroke="#9a32cd" stroke-dasharray="5,2" d="M394.48,-438.23C396.85,-437.66 399.19,-437.12 401.5,-436.62 424.13,-431.74 449.09,-427.77 471.61,-424.72"/>
<polygon fill="#9a32cd" stroke="#9a32cd" points="393.66,-434.83 384.84,-440.69 395.39,-441.61 393.66,-434.83"/>
</a>
</g>
<text text-anchor="middle" x="422.5" y="-437.62" font-family="Helvetica,sans-Serif" font-size="10.00" fill="grey"> elements</text>
</g>
<!-- Node7 -->
<g id="Node000007" class="node">
<title>Node7</title>
<g id="a_Node000007"><a xlink:href="../../d5/d41/structengine_1_1core_1_1_layer_1_1_handle_update.html" target="_top" xlink:title=" ">
<polygon fill="white" stroke="#666666" points="383.12,-356.12 286.88,-356.12 286.88,-325.62 383.12,-325.62 383.12,-356.12"/>
<text text-anchor="start" x="294.88" y="-342.62" font-family="Helvetica,sans-Serif" font-size="10.00">engine::core::Layer</text>
<text text-anchor="middle" x="335" y="-331.38" font-family="Helvetica,sans-Serif" font-size="10.00">::HandleUpdate</text>
</a>
</g>
</g>
<!-- Node7&#45;&gt;Node2 -->
<g id="edge6_Node000002_Node000007" class="edge">
<title>Node7&#45;&gt;Node2</title>
<g id="a_edge6_Node000002_Node000007"><a xlink:title=" ">
<path fill="none" stroke="#63b8ff" d="M394.8,-348.88C497.63,-361.21 716.3,-379.96 896.25,-344.88 945.23,-335.33 998.68,-310.04 1026.11,-295.86"/>
<polygon fill="#63b8ff" stroke="#63b8ff" points="395.29,-345.42 384.94,-347.67 394.44,-352.37 395.29,-345.42"/>
</a>
</g>
</g>
<!-- Node14 -->
<g id="Node000014" class="node">
<title>Node14</title>
<g id="a_Node000014"><a xlink:title=" ">
<polygon fill="white" stroke="#666666" points="617.38,-333.12 468.62,-333.12 468.62,-302.62 617.38,-302.62 617.38,-333.12"/>
<text text-anchor="start" x="476.62" y="-319.62" font-family="Helvetica,sans-Serif" font-size="10.00">std::vector&lt; engine</text>
<text text-anchor="middle" x="543" y="-308.38" font-family="Helvetica,sans-Serif" font-size="10.00">::core::Layer::HandleUpdate * &gt;</text>
</a>
</g>
</g>
<!-- Node7&#45;&gt;Node14 -->
<g id="edge15_Node000014_Node000007" class="edge">
<title>Node7&#45;&gt;Node14</title>
<g id="a_edge15_Node000014_Node000007"><a xlink:title=" ">
<path fill="none" stroke="#9a32cd" stroke-dasharray="5,2" d="M394.81,-334.31C417.75,-331.75 444.3,-328.78 468.48,-326.08"/>
<polygon fill="#9a32cd" stroke="#9a32cd" points="394.57,-330.81 385.02,-335.4 395.35,-337.77 394.57,-330.81"/>
</a>
</g>
<text text-anchor="middle" x="422.5" y="-334.62" font-family="Helvetica,sans-Serif" font-size="10.00" fill="grey"> elements</text>
</g>
<!-- Node8 -->
<g id="Node000008" class="node">
<title>Node8</title>
<g id="a_Node000008"><a xlink:href="../../d1/df2/structengine_1_1core_1_1_layer_1_1_handle_render.html" target="_top" xlink:title=" ">
<polygon fill="white" stroke="#666666" points="383.12,-257.12 286.88,-257.12 286.88,-226.62 383.12,-226.62 383.12,-257.12"/>
<text text-anchor="start" x="294.88" y="-243.62" font-family="Helvetica,sans-Serif" font-size="10.00">engine::core::Layer</text>
<text text-anchor="middle" x="335" y="-232.38" font-family="Helvetica,sans-Serif" font-size="10.00">::HandleRender</text>
</a>
</g>
</g>
<!-- Node8&#45;&gt;Node2 -->
<g id="edge7_Node000002_Node000008" class="edge">
<title>Node8&#45;&gt;Node2</title>
<g id="a_edge7_Node000002_Node000008"><a xlink:title=" ">
<path fill="none" stroke="#63b8ff" d="M394.85,-250.19C397.09,-250.44 399.31,-250.67 401.5,-250.88 615.49,-271.36 870.78,-280.82 984.65,-284.26"/>
<polygon fill="#63b8ff" stroke="#63b8ff" points="395.37,-246.73 385.03,-249.05 394.56,-253.68 395.37,-246.73"/>
</a>
</g>
</g>
<!-- Node16 -->
<g id="Node000016" class="node">
<title>Node16</title>
<g id="a_Node000016"><a xlink:title=" ">
<polygon fill="white" stroke="#666666" points="617,-236.12 469,-236.12 469,-205.62 617,-205.62 617,-236.12"/>
<text text-anchor="start" x="477" y="-222.62" font-family="Helvetica,sans-Serif" font-size="10.00">std::vector&lt; engine</text>
<text text-anchor="middle" x="543" y="-211.38" font-family="Helvetica,sans-Serif" font-size="10.00">::core::Layer::HandleRender * &gt;</text>
</a>
</g>
</g>
<!-- Node8&#45;&gt;Node16 -->
<g id="edge18_Node000016_Node000008" class="edge">
<title>Node8&#45;&gt;Node16</title>
<g id="a_edge18_Node000016_Node000008"><a xlink:title=" ">
<path fill="none" stroke="#9a32cd" stroke-dasharray="5,2" d="M394.86,-235.87C417.92,-233.52 444.61,-230.8 468.88,-228.33"/>
<polygon fill="#9a32cd" stroke="#9a32cd" points="394.62,-232.38 385.02,-236.88 395.33,-239.35 394.62,-232.38"/>
</a>
</g>
<text text-anchor="middle" x="422.5" y="-237.62" font-family="Helvetica,sans-Serif" font-size="10.00" fill="grey"> elements</text>
</g>
<!-- Node9 -->
<g id="Node000009" class="node">
<title>Node9</title>
<g id="a_Node000009"><a xlink:href="../../da/d57/structengine_1_1core_1_1_layer_1_1_handle_gui_render.html" target="_top" xlink:title=" ">
<polygon fill="white" stroke="#666666" points="383.5,-166.12 286.5,-166.12 286.5,-135.62 383.5,-135.62 383.5,-166.12"/>
<text text-anchor="start" x="294.5" y="-152.62" font-family="Helvetica,sans-Serif" font-size="10.00">engine::core::Layer</text>
<text text-anchor="middle" x="335" y="-141.38" font-family="Helvetica,sans-Serif" font-size="10.00">::HandleGuiRender</text>
</a>
</g>
</g>
<!-- Node9&#45;&gt;Node2 -->
<g id="edge8_Node000002_Node000009" class="edge">
<title>Node9&#45;&gt;Node2</title>
<g id="a_edge8_Node000002_Node000009"><a xlink:title=" ">
<path fill="none" stroke="#63b8ff" d="M394.92,-154.13C533.86,-161.86 872.18,-181.16 896.25,-186.88 929.38,-194.75 943.44,-192.05 966.75,-216.88 983.2,-234.4 967.36,-251.28 984.75,-267.88 988.05,-271.02 991.88,-273.62 995.97,-275.77"/>
<polygon fill="#63b8ff" stroke="#63b8ff" points="395.37,-150.65 385.19,-153.58 394.98,-157.63 395.37,-150.65"/>
</a>
</g>
</g>
<!-- Node18 -->
<g id="Node000018" class="node">
<title>Node18</title>
<g id="a_Node000018"><a xlink:title=" ">
<polygon fill="white" stroke="#666666" points="624.5,-137.12 461.5,-137.12 461.5,-106.62 624.5,-106.62 624.5,-137.12"/>
<text text-anchor="start" x="469.5" y="-123.62" font-family="Helvetica,sans-Serif" font-size="10.00">std::vector&lt; engine</text>
<text text-anchor="middle" x="543" y="-112.38" font-family="Helvetica,sans-Serif" font-size="10.00">::core::Layer::HandleGuiRender * &gt;</text>
</a>
</g>
</g>
<!-- Node9&#45;&gt;Node18 -->
<g id="edge21_Node000018_Node000009" class="edge">
<title>Node9&#45;&gt;Node18</title>
<g id="a_edge21_Node000018_Node000009"><a xlink:title=" ">
<path fill="none" stroke="#9a32cd" stroke-dasharray="5,2" d="M394.94,-142.58C415.63,-139.66 439.24,-136.34 461.4,-133.22"/>
<polygon fill="#9a32cd" stroke="#9a32cd" points="394.69,-139.08 385.28,-143.94 395.67,-146.01 394.69,-139.08"/>
</a>
</g>
<text text-anchor="middle" x="422.5" y="-143.62" font-family="Helvetica,sans-Serif" font-size="10.00" fill="grey"> elements</text>
</g>
<!-- Node10 -->
<g id="Node000010" class="node">
<title>Node10</title>
<g id="a_Node000010"><a xlink:href="../../de/d0d/structengine_1_1core_1_1_layer_1_1_handle_tick.html" target="_top" xlink:title=" ">
<polygon fill="white" stroke="#666666" points="383.12,-68.12 286.88,-68.12 286.88,-37.62 383.12,-37.62 383.12,-68.12"/>
<text text-anchor="start" x="294.88" y="-54.62" font-family="Helvetica,sans-Serif" font-size="10.00">engine::core::Layer</text>
<text text-anchor="middle" x="335" y="-43.38" font-family="Helvetica,sans-Serif" font-size="10.00">::HandleTick</text>
</a>
</g>
</g>
<!-- Node10&#45;&gt;Node2 -->
<g id="edge9_Node000002_Node000010" class="edge">
<title>Node10&#45;&gt;Node2</title>
<g id="a_edge9_Node000002_Node000010"><a xlink:title=" ">
<path fill="none" stroke="#63b8ff" d="M394.57,-55.76C528.26,-62.48 848.06,-79.3 896.25,-88.88 928.71,-95.33 945.96,-87.12 966.75,-112.88 1010.31,-166.84 940.22,-214.71 984.75,-267.88 987.4,-271.04 990.58,-273.66 994.08,-275.83"/>
<polygon fill="#63b8ff" stroke="#63b8ff" points="395.04,-52.28 384.88,-55.28 394.69,-59.27 395.04,-52.28"/>
</a>
</g>
</g>
<!-- Node22 -->
<g id="Node000022" class="node">
<title>Node22</title>
<g id="a_Node000022"><a xlink:title=" ">
<polygon fill="white" stroke="#666666" points="611,-41.12 475,-41.12 475,-10.62 611,-10.62 611,-41.12"/>
<text text-anchor="start" x="483" y="-27.62" font-family="Helvetica,sans-Serif" font-size="10.00">std::vector&lt; engine</text>
<text text-anchor="middle" x="543" y="-16.38" font-family="Helvetica,sans-Serif" font-size="10.00">::core::Layer::HandleTick * &gt;</text>
</a>
</g>
</g>
<!-- Node10&#45;&gt;Node22 -->
<g id="edge27_Node000022_Node000010" class="edge">
<title>Node10&#45;&gt;Node22</title>
<g id="a_edge27_Node000022_Node000010"><a xlink:title=" ">
<path fill="none" stroke="#9a32cd" stroke-dasharray="5,2" d="M394.67,-45.18C419.66,-41.91 448.96,-38.07 474.82,-34.68"/>
<polygon fill="#9a32cd" stroke="#9a32cd" points="394.48,-41.68 385.02,-46.45 395.39,-48.62 394.48,-41.68"/>
</a>
</g>
<text text-anchor="middle" x="422.5" y="-46.62" font-family="Helvetica,sans-Serif" font-size="10.00" fill="grey"> elements</text>
</g>
<!-- Node11 -->
<g id="Node000011" class="node">
<title>Node11</title>
<g id="a_Node000011"><a xlink:title=" ">
<polygon fill="white" stroke="#666666" points="868.12,-520.12 730.62,-520.12 730.62,-489.62 868.12,-489.62 868.12,-520.12"/>
<text text-anchor="start" x="738.62" y="-506.62" font-family="Helvetica,sans-Serif" font-size="10.00">std::vector&lt; std::shared</text>
<text text-anchor="middle" x="799.38" y="-495.38" font-family="Helvetica,sans-Serif" font-size="10.00">_ptr&lt; engine::core::Layer &gt; &gt;</text>
</a>
</g>
</g>
<!-- Node11&#45;&gt;Node2 -->
<g id="edge10_Node000002_Node000011" class="edge">
<title>Node11&#45;&gt;Node2</title>
<g id="a_edge10_Node000002_Node000011"><a xlink:title=" ">
<path fill="none" stroke="#9a32cd" stroke-dasharray="5,2" d="M879.88,-506.73C909.86,-503.66 942.54,-495.34 966.75,-475.88 1026.21,-428.07 1040.68,-327.42 1043.83,-295.68"/>
<polygon fill="#9a32cd" stroke="#9a32cd" points="879.74,-503.23 870.06,-507.53 880.31,-510.21 879.74,-503.23"/>
</a>
</g>
<text text-anchor="middle" x="940.5" y="-500.62" font-family="Helvetica,sans-Serif" font-size="10.00" fill="grey"> all_</text>
</g>
<!-- Node12&#45;&gt;Node11 -->
<g id="edge11_Node000011_Node000012" class="edge">
<title>Node12&#45;&gt;Node11</title>
<g id="a_edge11_Node000011_Node000012"><a xlink:title=" ">
<path fill="none" stroke="#9a32cd" stroke-dasharray="5,2" d="M612.78,-504.88C649.33,-504.88 694.1,-504.88 730.51,-504.88"/>
<polygon fill="#9a32cd" stroke="#9a32cd" points="613.24,-501.38 603.24,-504.88 613.24,-508.38 613.24,-501.38"/>
</a>
</g>
<text text-anchor="middle" x="663.5" y="-506.62" font-family="Helvetica,sans-Serif" font-size="10.00" fill="grey"> elements</text>
</g>
<!-- Node13 -->
<g id="Node000013" class="node">
<title>Node13</title>
<g id="a_Node000013"><a xlink:href="../../d2/d80/classengine_1_1core_1_1__layer__stack__detail_1_1_underlying_stack.html" target="_top" xlink:title=" ">
<polygon fill="white" stroke="#666666" points="889.12,-335.75 709.62,-335.75 709.62,-294 889.12,-294 889.12,-335.75"/>
<text text-anchor="start" x="717.62" y="-322.25" font-family="Helvetica,sans-Serif" font-size="10.00">engine::core::_layer</text>
<text text-anchor="start" x="717.62" y="-311" font-family="Helvetica,sans-Serif" font-size="10.00">_stack_detail::UnderlyingStack</text>
<text text-anchor="middle" x="799.38" y="-299.75" font-family="Helvetica,sans-Serif" font-size="10.00">&lt; engine::core::Layer::HandleUpdate &gt;</text>
</a>
</g>
</g>
<!-- Node13&#45;&gt;Node2 -->
<g id="edge13_Node000002_Node000013" class="edge">
<title>Node13&#45;&gt;Node2</title>
<g id="a_edge13_Node000002_Node000013"><a xlink:title=" ">
<path fill="none" stroke="#9a32cd" stroke-dasharray="5,2" d="M900.82,-302.95C929.28,-299.57 959.36,-296 984.61,-293"/>
<polygon fill="#9a32cd" stroke="#9a32cd" points="900.61,-299.45 891.09,-304.1 901.44,-306.4 900.61,-299.45"/>
</a>
</g>
<text text-anchor="middle" x="940.5" y="-302.62" font-family="Helvetica,sans-Serif" font-size="10.00" fill="grey"> update_</text>
</g>
<!-- Node14&#45;&gt;Node13 -->
<g id="edge14_Node000013_Node000014" class="edge">
<title>Node14&#45;&gt;Node13</title>
<g id="a_edge14_Node000013_Node000014"><a xlink:title=" ">
<path fill="none" stroke="#9a32cd" stroke-dasharray="5,2" d="M628.85,-316.87C654.66,-316.57 683.09,-316.23 709.18,-315.93"/>
<polygon fill="#9a32cd" stroke="#9a32cd" points="629.05,-313.37 619.09,-316.99 629.13,-320.37 629.05,-313.37"/>
</a>
</g>
<text text-anchor="middle" x="663.5" y="-317.62" font-family="Helvetica,sans-Serif" font-size="10.00" fill="grey"> layers_</text>
</g>
<!-- Node15 -->
<g id="Node000015" class="node">
<title>Node15</title>
<g id="a_Node000015"><a xlink:href="../../d2/d80/classengine_1_1core_1_1__layer__stack__detail_1_1_underlying_stack.html" target="_top" xlink:title=" ">
<polygon fill="white" stroke="#666666" points="888.75,-237.75 710,-237.75 710,-196 888.75,-196 888.75,-237.75"/>
<text text-anchor="start" x="718" y="-224.25" font-family="Helvetica,sans-Serif" font-size="10.00">engine::core::_layer</text>
<text text-anchor="start" x="718" y="-213" font-family="Helvetica,sans-Serif" font-size="10.00">_stack_detail::UnderlyingStack</text>
<text text-anchor="middle" x="799.38" y="-201.75" font-family="Helvetica,sans-Serif" font-size="10.00">&lt; engine::core::Layer::HandleRender &gt;</text>
</a>
</g>
</g>
<!-- Node15&#45;&gt;Node2 -->
<g id="edge16_Node000002_Node000015" class="edge">
<title>Node15&#45;&gt;Node2</title>
<g id="a_edge16_Node000002_Node000015"><a xlink:title=" ">
<path fill="none" stroke="#9a32cd" stroke-dasharray="5,2" d="M900.27,-217.42C923.43,-221.15 947.05,-228.15 966.75,-240.62 979.01,-248.39 973.1,-259.21 984.75,-267.88 989.02,-271.05 993.85,-273.67 998.86,-275.83"/>
<polygon fill="#9a32cd" stroke="#9a32cd" points="900.83,-213.97 890.45,-216.05 899.87,-220.9 900.83,-213.97"/>
</a>
</g>
<text text-anchor="middle" x="940.5" y="-242.62" font-family="Helvetica,sans-Serif" font-size="10.00" fill="grey"> render_</text>
</g>
<!-- Node16&#45;&gt;Node15 -->
<g id="edge17_Node000015_Node000016" class="edge">
<title>Node16&#45;&gt;Node15</title>
<g id="a_edge17_Node000015_Node000016"><a xlink:title=" ">
<path fill="none" stroke="#9a32cd" stroke-dasharray="5,2" d="M628.63,-219.54C654.73,-219.13 683.53,-218.68 709.88,-218.27"/>
<polygon fill="#9a32cd" stroke="#9a32cd" points="628.69,-216.04 618.75,-219.7 628.8,-223.04 628.69,-216.04"/>
</a>
</g>
<text text-anchor="middle" x="663.5" y="-221.62" font-family="Helvetica,sans-Serif" font-size="10.00" fill="grey"> layers_</text>
</g>
<!-- Node17 -->
<g id="Node000017" class="node">
<title>Node17</title>
<g id="a_Node000017"><a xlink:href="../../d2/d80/classengine_1_1core_1_1__layer__stack__detail_1_1_underlying_stack.html" target="_top" xlink:title=" ">
<polygon fill="white" stroke="#666666" points="896.25,-139.75 702.5,-139.75 702.5,-98 896.25,-98 896.25,-139.75"/>
<text text-anchor="start" x="710.5" y="-126.25" font-family="Helvetica,sans-Serif" font-size="10.00">engine::core::_layer</text>
<text text-anchor="start" x="710.5" y="-115" font-family="Helvetica,sans-Serif" font-size="10.00">_stack_detail::UnderlyingStack</text>
<text text-anchor="middle" x="799.38" y="-103.75" font-family="Helvetica,sans-Serif" font-size="10.00">&lt; engine::core::Layer::HandleGuiRender &gt;</text>
</a>
</g>
</g>
<!-- Node17&#45;&gt;Node2 -->
<g id="edge19_Node000002_Node000017" class="edge">
<title>Node17&#45;&gt;Node2</title>
<g id="a_edge19_Node000002_Node000017"><a xlink:title=" ">
<path fill="none" stroke="#9a32cd" stroke-dasharray="5,2" d="M907.71,-114.25C929.71,-118.37 950.95,-126.84 966.75,-142.62 1006.54,-182.37 948.06,-225.25 984.75,-267.88 987.51,-271.08 990.82,-273.73 994.45,-275.92"/>
<polygon fill="#9a32cd" stroke="#9a32cd" points="908.43,-110.82 898.01,-112.76 907.36,-117.74 908.43,-110.82"/>
</a>
</g>
<text text-anchor="middle" x="940.5" y="-144.62" font-family="Helvetica,sans-Serif" font-size="10.00" fill="grey"> gui_render_</text>
</g>
<!-- Node18&#45;&gt;Node17 -->
<g id="edge20_Node000017_Node000018" class="edge">
<title>Node18&#45;&gt;Node17</title>
<g id="a_edge20_Node000017_Node000018"><a xlink:title=" ">
<path fill="none" stroke="#9a32cd" stroke-dasharray="5,2" d="M636.24,-120.79C657.69,-120.53 680.57,-120.26 702.18,-120.01"/>
<polygon fill="#9a32cd" stroke="#9a32cd" points="636.31,-117.29 626.35,-120.9 636.39,-124.29 636.31,-117.29"/>
</a>
</g>
<text text-anchor="middle" x="663.5" y="-122.62" font-family="Helvetica,sans-Serif" font-size="10.00" fill="grey"> layers_</text>
</g>
<!-- Node19 -->
<g id="Node000019" class="node">
<title>Node19</title>
<g id="a_Node000019"><a xlink:href="../../d2/d80/classengine_1_1core_1_1__layer__stack__detail_1_1_underlying_stack.html" target="_top" xlink:title=" ">
<polygon fill="white" stroke="#666666" points="885.75,-433.75 713,-433.75 713,-392 885.75,-392 885.75,-433.75"/>
<text text-anchor="start" x="721" y="-420.25" font-family="Helvetica,sans-Serif" font-size="10.00">engine::core::_layer</text>
<text text-anchor="start" x="721" y="-409" font-family="Helvetica,sans-Serif" font-size="10.00">_stack_detail::UnderlyingStack</text>
<text text-anchor="middle" x="799.38" y="-397.75" font-family="Helvetica,sans-Serif" font-size="10.00">&lt; engine::core::Layer::HandleEvent &gt;</text>
</a>
</g>
</g>
<!-- Node19&#45;&gt;Node2 -->
<g id="edge22_Node000002_Node000019" class="edge">
<title>Node19&#45;&gt;Node2</title>
<g id="a_edge22_Node000002_Node000019"><a xlink:title=" ">
<path fill="none" stroke="#9a32cd" stroke-dasharray="5,2" d="M897.28,-403.62C921.16,-398.41 945.85,-390.34 966.75,-377.88 1001.61,-357.08 1028.36,-314.97 1039.27,-295.79"/>
<polygon fill="#9a32cd" stroke="#9a32cd" points="896.61,-400.18 887.5,-405.58 897.99,-407.04 896.61,-400.18"/>
</a>
</g>
<text text-anchor="middle" x="940.5" y="-400.62" font-family="Helvetica,sans-Serif" font-size="10.00" fill="grey"> event_</text>
</g>
<!-- Node20&#45;&gt;Node19 -->
<g id="edge23_Node000019_Node000020" class="edge">
<title>Node20&#45;&gt;Node19</title>
<g id="a_edge23_Node000019_Node000020"><a xlink:title=" ">
<path fill="none" stroke="#9a32cd" stroke-dasharray="5,2" d="M625.47,-415.59C653.27,-415.16 684.43,-414.67 712.57,-414.22"/>
<polygon fill="#9a32cd" stroke="#9a32cd" points="625.64,-412.09 615.7,-415.75 625.75,-419.09 625.64,-412.09"/>
</a>
</g>
<text text-anchor="middle" x="663.5" y="-416.62" font-family="Helvetica,sans-Serif" font-size="10.00" fill="grey"> layers_</text>
</g>
<!-- Node21 -->
<g id="Node000021" class="node">
<title>Node21</title>
<g id="a_Node000021"><a xlink:href="../../d2/d80/classengine_1_1core_1_1__layer__stack__detail_1_1_underlying_stack.html" target="_top" xlink:title=" ">
<polygon fill="white" stroke="#666666" points="882.75,-41.75 716,-41.75 716,0 882.75,0 882.75,-41.75"/>
<text text-anchor="start" x="724" y="-28.25" font-family="Helvetica,sans-Serif" font-size="10.00">engine::core::_layer</text>
<text text-anchor="start" x="724" y="-17" font-family="Helvetica,sans-Serif" font-size="10.00">_stack_detail::UnderlyingStack</text>
<text text-anchor="middle" x="799.38" y="-5.75" font-family="Helvetica,sans-Serif" font-size="10.00">&lt; engine::core::Layer::HandleTick &gt;</text>
</a>
</g>
</g>
<!-- Node21&#45;&gt;Node2 -->
<g id="edge25_Node000002_Node000021" class="edge">
<title>Node21&#45;&gt;Node2</title>
<g id="a_edge25_Node000002_Node000021"><a xlink:title=" ">
<path fill="none" stroke="#9a32cd" stroke-dasharray="5,2" d="M894.44,-13.48C921.27,-16.37 948.21,-24.91 966.75,-44.62 1000.85,-80.88 953.47,-229.16 984.75,-267.88 987.27,-271 990.32,-273.6 993.68,-275.75"/>
<polygon fill="#9a32cd" stroke="#9a32cd" points="894.73,-9.99 884.48,-12.7 894.18,-16.97 894.73,-9.99"/>
</a>
</g>
<text text-anchor="middle" x="940.5" y="-46.62" font-family="Helvetica,sans-Serif" font-size="10.00" fill="grey"> tick_</text>
</g>
<!-- Node22&#45;&gt;Node21 -->
<g id="edge26_Node000021_Node000022" class="edge">
<title>Node22&#45;&gt;Node21</title>
<g id="a_edge26_Node000021_Node000022"><a xlink:title=" ">
<path fill="none" stroke="#9a32cd" stroke-dasharray="5,2" d="M622.98,-24.32C652.38,-23.74 685.82,-23.09 715.56,-22.5"/>
<polygon fill="#9a32cd" stroke="#9a32cd" points="622.94,-20.82 613.01,-24.52 623.08,-27.82 622.94,-20.82"/>
</a>
</g>
<text text-anchor="middle" x="663.5" y="-25.62" font-family="Helvetica,sans-Serif" font-size="10.00" fill="grey"> layers_</text>
</g>
<!-- Node23 -->
<g id="Node000023" class="node">
<title>Node23</title>
<g id="a_Node000023"><a xlink:title=" ">
<polygon fill="white" stroke="#666666" points="1093,-258.5 998.25,-258.5 998.25,-239.25 1093,-239.25 1093,-258.5"/>
<text text-anchor="middle" x="1045.62" y="-245" font-family="Helvetica,sans-Serif" font-size="10.00">std::shared_mutex</text>
</a>
</g>
</g>
<!-- Node23&#45;&gt;Node1 -->
<g id="edge28_Node000001_Node000023" class="edge">
<title>Node23&#45;&gt;Node1</title>
<g id="a_edge28_Node000001_Node000023"><a xlink:title=" ">
<path fill="none" stroke="#9a32cd" stroke-dasharray="5,2" d="M1104.46,-251.59C1120.21,-252.44 1137.27,-253.47 1153,-254.62 1158.69,-255.04 1164.61,-255.52 1170.52,-256.02"/>
<polygon fill="#9a32cd" stroke="#9a32cd" points="1104.93,-248.11 1094.76,-251.08 1104.57,-255.1 1104.93,-248.11"/>
</a>
</g>
<text text-anchor="middle" x="1138.75" y="-256.62" font-family="Helvetica,sans-Serif" font-size="10.00" fill="grey"> mutex</text>
</g>
</g>
</svg>

<g id="navigator" transform="translate(0 0)" fill="#404254">
  <rect fill="#f2f5e9" fill-opacity="0.5" stroke="#606060" stroke-width=".5" x="0" y="0" width="60" height="60"/>
  <use id="zoomplus" xlink:href="#zoomPlus" x="17" y="9" onmousedown="handleZoom(evt,'in')"/>
  <use id="zoomminus" xlink:href="#zoomMin" x="42" y="9" onmousedown="handleZoom(evt,'out')"/>
  <use id="reset" xlink:href="#resetDef" x="30" y="36" onmousedown="handleReset()"/>
   <use id="arrowup" xlink:href="#arrowUp" x="0" y="0" onmousedown="handlePan(0,-1)"/>
  <use id="arrowright" xlink:href="#arrowRight" x="0" y="0" onmousedown="handlePan(1,0)"/>
  <use id="arrowdown" xlink:href="#arrowDown" x="0" y="0" onmousedown="handlePan(0,1)"/>
  <use id="arrowleft" xlink:href="#arrowLeft" x="0" y="0" onmousedown="handlePan(-1,0)"/>
</g>
<svg viewBox="0 0 15 15" width="100%" height="30px" preserveAspectRatio="xMaxYMin meet">
 <g id="arrow_out" transform="scale(0.3 0.3)">
  <a xlink:href="classengine_1_1core_1_1_layer_stack_threadsafe__coll__graph_org.svg" target="_base">
   <rect id="button" ry="5" rx="5" y="6" x="6" height="38" width="38"
        fill="#f2f5e9" fill-opacity="0.5" stroke="#606060" stroke-width="1.0"/>
   <path id="arrow"
     d="M 11.500037,31.436501 C 11.940474,20.09759 22.043105,11.32322 32.158766,21.979434 L 37.068811,17.246167 C 37.068811,17.246167 37.088388,32 37.088388,32 L 22.160133,31.978069 C 22.160133,31.978069 26.997745,27.140456 26.997745,27.140456 C 18.528582,18.264221 13.291696,25.230495 11.500037,31.436501 z"
     style="fill:#404040;"/>
  </a>
 </g>
</svg>

<style type='text/css'>
<![CDATA[
[data-mouse-over-selected='false'] { opacity: 0.7; }
[data-mouse-over-selected='true']  { opacity: 1.0; }
]]>
</style>
<script type="application/ecmascript"><![CDATA[
document.addEventListener('DOMContentLoaded', (event) => {
  highlightEdges();
  highlightAdjacentNodes();
});
]]></script>
</svg>
