<?xml version="1.0" encoding="UTF-8" standalone="no"?>
<!DOCTYPE svg PUBLIC "-//W3C//DTD SVG 1.1//EN"
 "http://www.w3.org/Graphics/SVG/1.1/DTD/svg11.dtd">
<!-- Generated by graphviz version 8.1.0 (20230707.0739)
 -->
<!-- Title: engine::render::_dissolution_detail::MaterialInstance Pages: 1 -->
<svg width="244pt" height="116pt"
 viewBox="0.00 0.00 244.38 116.25" xmlns="http://www.w3.org/2000/svg" xmlns:xlink="http://www.w3.org/1999/xlink">
<g id="graph0" class="graph" transform="scale(1 1) rotate(0) translate(4 112.25)">
<title>engine::render::_dissolution_detail::MaterialInstance</title>
<!-- Node1 -->
<g id="Node000001" class="node">
<title>Node1</title>
<g id="a_Node000001"><a xlink:title=" ">
<polygon fill="#999999" stroke="#666666" points="193.38,-30.5 61.12,-30.5 61.12,0 193.38,0 193.38,-30.5"/>
<text text-anchor="start" x="69.12" y="-17" font-family="Helvetica,sans-Serif" font-size="10.00">engine::render::_dissolution</text>
<text text-anchor="middle" x="127.25" y="-5.75" font-family="Helvetica,sans-Serif" font-size="10.00">_detail::MaterialInstance</text>
</a>
</g>
</g>
<!-- Node2 -->
<g id="Node000002" class="node">
<title>Node2</title>
<g id="a_Node000002"><a xlink:href="../../d6/df2/structengine_1_1render_1_1_dissolution_material.html" target="_top" xlink:title=" ">
<polygon fill="white" stroke="#666666" points="128.5,-108.25 0,-108.25 0,-77.75 128.5,-77.75 128.5,-108.25"/>
<text text-anchor="start" x="8" y="-94.75" font-family="Helvetica,sans-Serif" font-size="10.00">engine::render::Dissolution</text>
<text text-anchor="middle" x="64.25" y="-83.5" font-family="Helvetica,sans-Serif" font-size="10.00">Material</text>
</a>
</g>
</g>
<!-- Node2&#45;&gt;Node1 -->
<g id="edge1_Node000001_Node000002" class="edge">
<title>Node2&#45;&gt;Node1</title>
<g id="a_edge1_Node000001_Node000002"><a xlink:title=" ">
<path fill="none" stroke="#9a32cd" stroke-dasharray="5,2" d="M83.16,-69.26C93.53,-56.79 106.09,-41.7 115.14,-30.81"/>
<polygon fill="#9a32cd" stroke="#9a32cd" points="80.1,-66.47 76.4,-76.39 85.48,-70.94 80.1,-66.47"/>
</a>
</g>
<text text-anchor="middle" x="118.62" y="-50.25" font-family="Helvetica,sans-Serif" font-size="10.00" fill="grey"> material</text>
</g>
<!-- Node3 -->
<g id="Node000003" class="node">
<title>Node3</title>
<g id="a_Node000003"><a xlink:title=" ">
<polygon fill="white" stroke="#666666" points="236.38,-108.25 146.12,-108.25 146.12,-77.75 236.38,-77.75 236.38,-108.25"/>
<text text-anchor="start" x="154.12" y="-94.75" font-family="Helvetica,sans-Serif" font-size="10.00">std::vector&lt; entt::</text>
<text text-anchor="middle" x="191.25" y="-83.5" font-family="Helvetica,sans-Serif" font-size="10.00">entity &gt;</text>
</a>
</g>
</g>
<!-- Node3&#45;&gt;Node1 -->
<g id="edge2_Node000001_Node000003" class="edge">
<title>Node3&#45;&gt;Node1</title>
<g id="a_edge2_Node000001_Node000003"><a xlink:title=" ">
<path fill="none" stroke="#9a32cd" stroke-dasharray="5,2" d="M172.04,-69.26C161.5,-56.79 148.75,-41.7 139.55,-30.81"/>
<polygon fill="#9a32cd" stroke="#9a32cd" points="169.78,-71.01 178.91,-76.39 175.13,-66.5 169.78,-71.01"/>
</a>
</g>
<text text-anchor="middle" x="184.38" y="-50.25" font-family="Helvetica,sans-Serif" font-size="10.00" fill="grey"> instances</text>
</g>
</g>
</svg>
