<?xml version="1.0" encoding="UTF-8" standalone="no"?>
<!DOCTYPE svg PUBLIC "-//W3C//DTD SVG 1.1//EN"
 "http://www.w3.org/Graphics/SVG/1.1/DTD/svg11.dtd">
<!-- Generated by graphviz version 8.1.0 (20230707.0739)
 -->
<!-- Title: engine::direct3d::readonly_d3d_resource_wrapper&lt; T &gt; Pages: 1 -->
<!--zoomable 753 -->

<svg id="main" version="1.1" xmlns="http://www.w3.org/2000/svg" xmlns:xlink="http://www.w3.org/1999/xlink" xml:space="preserve" onload="init(evt)">
<style type="text/css"><![CDATA[
.node, .edge {opacity: 0.7;}
.node.selected, .edge.selected {opacity: 1;}
.edge:hover path { stroke: red; }
.edge:hover polygon { stroke: red; fill: red; }
]]></style>

<defs>
  <circle id="rim" cx="0" cy="0" r="7"/>
  <circle id="rim2" cx="0" cy="0" r="3.5"/>
  <g id="zoomPlus">
    <use xlink:href="#rim" fill="#404040"><set attributeName="fill" to="#808080" begin="zoomplus.mouseover" end="zoomplus.mouseout"/></use>
    <path d="M-4,0h8M0,-4v8" fill="none" stroke="white" stroke-width="1.5" pointer-events="none"/>
  </g>
  <g id="zoomMin">
    <use xlink:href="#rim" fill="#404040"><set attributeName="fill" to="#808080" begin="zoomminus.mouseover" end="zoomminus.mouseout"/></use>
    <path d="M-4,0h8" fill="none" stroke="white" stroke-width="1.5" pointer-events="none"/>
  </g>
  <g id="arrowUp" transform="translate(30 24)">
    <use xlink:href="#rim"/>
    <path pointer-events="none" fill="none" stroke="white" stroke-width="1.5" d="M0,-3.0v7 M-2.5,-0.5L0,-3.0L2.5,-0.5"/>
  </g>
  <g id="arrowRight" transform="rotate(90) translate(36 -43)">
    <use xlink:href="#rim"/>
    <path pointer-events="none" fill="none" stroke="white" stroke-width="1.5" d="M0,-3.0v7 M-2.5,-0.5L0,-3.0L2.5,-0.5"/>
  </g>
  <g id="arrowDown" transform="rotate(180) translate(-30 -48)">
    <use xlink:href="#rim"/>
    <path pointer-events="none" fill="none" stroke="white" stroke-width="1.5" d="M0,-3.0v7 M-2.5,-0.5L0,-3.0L2.5,-0.5"/>
  </g>
  <g id="arrowLeft" transform="rotate(270) translate(-36 17)">
    <use xlink:href="#rim"/>
    <path pointer-events="none" fill="none" stroke="white" stroke-width="1.5" d="M0,-3.0v7 M-2.5,-0.5L0,-3.0L2.5,-0.5"/>
  </g>
  <g id="resetDef">
    <use xlink:href="#rim2" fill="#404040"><set attributeName="fill" to="#808080" begin="reset.mouseover" end="reset.mouseout"/></use>
  </g>
</defs>
<script type="application/ecmascript">
var viewWidth = 524;
var viewHeight = 753;
var sectionId = 'dynsection-0';
</script>
<script type="application/ecmascript" xlink:href="../../svg.min.js"/>
<svg id="graph" class="graph">
<g id="viewport">
<title>engine::direct3d::readonly_d3d_resource_wrapper&lt; T &gt;</title>
<!-- Node1 -->
<g id="Node000001" class="node">
<title>Node1</title>
<g id="a_Node000001"><a xlink:title="The readonly d3d resource wrapper class.">
<polygon fill="#999999" stroke="#666666" points="299,-406.12 157,-406.12 157,-375.62 299,-375.62 299,-406.12"/>
<text text-anchor="start" x="165" y="-392.62" font-family="Helvetica,sans-Serif" font-size="10.00">engine::direct3d::readonly</text>
<text text-anchor="middle" x="228" y="-381.38" font-family="Helvetica,sans-Serif" font-size="10.00">_d3d_resource_wrapper&lt; T &gt;</text>
</a>
</g>
</g>
<!-- Node3 -->
<g id="Node000003" class="node">
<title>Node3</title>
<g id="a_Node000003"><a xlink:href="../../df/da2/classengine_1_1direct3d_1_1__api__detail_1_1api__readonly__wrapper.html" target="_top" xlink:title=" ">
<polygon fill="white" stroke="#666666" points="491.25,-744.75 359.75,-744.75 359.75,-703 491.25,-703 491.25,-744.75"/>
<text text-anchor="start" x="367.75" y="-731.25" font-family="Helvetica,sans-Serif" font-size="10.00">engine::direct3d::</text>
<text text-anchor="start" x="367.75" y="-720" font-family="Helvetica,sans-Serif" font-size="10.00">_api_detail::api_readonly</text>
<text text-anchor="middle" x="425.5" y="-708.75" font-family="Helvetica,sans-Serif" font-size="10.00">_wrapper&lt; IDXGIFactory &gt;</text>
</a>
</g>
</g>
<!-- Node1&#45;&gt;Node3 -->
<g id="edge2_Node000001_Node000003" class="edge">
<title>Node1&#45;&gt;Node3</title>
<g id="a_edge2_Node000001_Node000003"><a xlink:title=" ">
<path fill="none" stroke="#63b8ff" d="M230.66,-417.42C235.74,-475.71 255.96,-615.86 335,-693.88 341.88,-700.67 350.34,-705.92 359.3,-709.99"/>
<polygon fill="#63b8ff" stroke="#63b8ff" points="234.09,-417.29 229.82,-407.59 227.11,-417.83 234.09,-417.29"/>
</a>
</g>
</g>
<!-- Node4 -->
<g id="Node000004" class="node">
<title>Node4</title>
<g id="a_Node000004"><a xlink:href="../../df/da2/classengine_1_1direct3d_1_1__api__detail_1_1api__readonly__wrapper.html" target="_top" xlink:title=" ">
<polygon fill="white" stroke="#666666" points="493.88,-684.75 357.12,-684.75 357.12,-643 493.88,-643 493.88,-684.75"/>
<text text-anchor="start" x="365.12" y="-671.25" font-family="Helvetica,sans-Serif" font-size="10.00">engine::direct3d::</text>
<text text-anchor="start" x="365.12" y="-660" font-family="Helvetica,sans-Serif" font-size="10.00">_api_detail::api_readonly</text>
<text text-anchor="middle" x="425.5" y="-648.75" font-family="Helvetica,sans-Serif" font-size="10.00">_wrapper&lt; IDXGIFactory5 &gt;</text>
</a>
</g>
</g>
<!-- Node1&#45;&gt;Node4 -->
<g id="edge3_Node000001_Node000004" class="edge">
<title>Node1&#45;&gt;Node4</title>
<g id="a_edge3_Node000001_Node000004"><a xlink:title=" ">
<path fill="none" stroke="#63b8ff" d="M233.26,-417.22C242.63,-466.72 269.64,-574.02 335,-633.88 341.41,-639.74 348.99,-644.46 357,-648.27"/>
<polygon fill="#63b8ff" stroke="#63b8ff" points="236.54,-416.71 231.34,-407.48 229.65,-417.94 236.54,-416.71"/>
</a>
</g>
</g>
<!-- Node5 -->
<g id="Node000005" class="node">
<title>Node5</title>
<g id="a_Node000005"><a xlink:href="../../df/da2/classengine_1_1direct3d_1_1__api__detail_1_1api__readonly__wrapper.html" target="_top" xlink:title=" ">
<polygon fill="white" stroke="#666666" points="492.75,-624.75 358.25,-624.75 358.25,-583 492.75,-583 492.75,-624.75"/>
<text text-anchor="start" x="366.25" y="-611.25" font-family="Helvetica,sans-Serif" font-size="10.00">engine::direct3d::</text>
<text text-anchor="start" x="366.25" y="-600" font-family="Helvetica,sans-Serif" font-size="10.00">_api_detail::api_readonly</text>
<text text-anchor="middle" x="425.5" y="-588.75" font-family="Helvetica,sans-Serif" font-size="10.00">_wrapper&lt; ID3D11Device &gt;</text>
</a>
</g>
</g>
<!-- Node1&#45;&gt;Node5 -->
<g id="edge4_Node000001_Node000005" class="edge">
<title>Node1&#45;&gt;Node5</title>
<g id="a_edge4_Node000001_Node000005"><a xlink:title=" ">
<path fill="none" stroke="#63b8ff" d="M237.27,-416.74C251.19,-456.23 282.98,-531.41 335,-573.88 341.86,-579.47 349.8,-584.04 358.07,-587.77"/>
<polygon fill="#63b8ff" stroke="#63b8ff" points="240.28,-415.72 233.75,-407.39 233.66,-417.98 240.28,-415.72"/>
</a>
</g>
</g>
<!-- Node6 -->
<g id="Node000006" class="node">
<title>Node6</title>
<g id="a_Node000006"><a xlink:href="../../df/da2/classengine_1_1direct3d_1_1__api__detail_1_1api__readonly__wrapper.html" target="_top" xlink:title=" ">
<polygon fill="white" stroke="#666666" points="495.38,-564.75 355.62,-564.75 355.62,-523 495.38,-523 495.38,-564.75"/>
<text text-anchor="start" x="363.62" y="-551.25" font-family="Helvetica,sans-Serif" font-size="10.00">engine::direct3d::</text>
<text text-anchor="start" x="363.62" y="-540" font-family="Helvetica,sans-Serif" font-size="10.00">_api_detail::api_readonly</text>
<text text-anchor="middle" x="425.5" y="-528.75" font-family="Helvetica,sans-Serif" font-size="10.00">_wrapper&lt; ID3D11Device5 &gt;</text>
</a>
</g>
</g>
<!-- Node1&#45;&gt;Node6 -->
<g id="edge5_Node000001_Node000006" class="edge">
<title>Node1&#45;&gt;Node6</title>
<g id="a_edge5_Node000001_Node000006"><a xlink:title=" ">
<path fill="none" stroke="#63b8ff" d="M244.27,-415.48C262.61,-443.13 295.86,-487.58 335,-513.88 341.26,-518.08 348.16,-521.74 355.26,-524.92"/>
<polygon fill="#63b8ff" stroke="#63b8ff" points="246.79,-413.94 238.41,-407.46 240.92,-417.75 246.79,-413.94"/>
</a>
</g>
</g>
<!-- Node7 -->
<g id="Node000007" class="node">
<title>Node7</title>
<g id="a_Node000007"><a xlink:href="../../df/da2/classengine_1_1direct3d_1_1__api__detail_1_1api__readonly__wrapper.html" target="_top" xlink:title=" ">
<polygon fill="white" stroke="#666666" points="509.25,-504.75 341.75,-504.75 341.75,-463 509.25,-463 509.25,-504.75"/>
<text text-anchor="start" x="349.75" y="-491.25" font-family="Helvetica,sans-Serif" font-size="10.00">engine::direct3d::</text>
<text text-anchor="start" x="349.75" y="-480" font-family="Helvetica,sans-Serif" font-size="10.00">_api_detail::api_readonly</text>
<text text-anchor="middle" x="425.5" y="-468.75" font-family="Helvetica,sans-Serif" font-size="10.00">_wrapper&lt; ID3D11DeviceContext &gt;</text>
</a>
</g>
</g>
<!-- Node1&#45;&gt;Node7 -->
<g id="edge6_Node000001_Node000007" class="edge">
<title>Node1&#45;&gt;Node7</title>
<g id="a_edge6_Node000001_Node000007"><a xlink:title=" ">
<path fill="none" stroke="#63b8ff" d="M261,-412.33C281.54,-425.48 309.13,-442.01 335,-453.88 341.7,-456.95 348.82,-459.87 355.99,-462.59"/>
<polygon fill="#63b8ff" stroke="#63b8ff" points="263.1,-408.87 252.8,-406.37 259.29,-414.74 263.1,-408.87"/>
</a>
</g>
</g>
<!-- Node8 -->
<g id="Node000008" class="node">
<title>Node8</title>
<g id="a_Node000008"><a xlink:href="../../df/da2/classengine_1_1direct3d_1_1__api__detail_1_1api__readonly__wrapper.html" target="_top" xlink:title=" ">
<polygon fill="white" stroke="#666666" points="511.88,-444.75 339.12,-444.75 339.12,-403 511.88,-403 511.88,-444.75"/>
<text text-anchor="start" x="347.12" y="-431.25" font-family="Helvetica,sans-Serif" font-size="10.00">engine::direct3d::</text>
<text text-anchor="start" x="347.12" y="-420" font-family="Helvetica,sans-Serif" font-size="10.00">_api_detail::api_readonly</text>
<text text-anchor="middle" x="425.5" y="-408.75" font-family="Helvetica,sans-Serif" font-size="10.00">_wrapper&lt; ID3D11DeviceContext4 &gt;</text>
</a>
</g>
</g>
<!-- Node1&#45;&gt;Node8 -->
<g id="edge7_Node000001_Node000008" class="edge">
<title>Node1&#45;&gt;Node8</title>
<g id="a_edge7_Node000001_Node000008"><a xlink:title=" ">
<path fill="none" stroke="#63b8ff" d="M309.94,-404.54C319.47,-406.15 329.21,-407.79 338.8,-409.41"/>
<polygon fill="#63b8ff" stroke="#63b8ff" points="310.75,-400.96 300.3,-402.74 309.58,-407.86 310.75,-400.96"/>
</a>
</g>
</g>
<!-- Node9 -->
<g id="Node000009" class="node">
<title>Node9</title>
<g id="a_Node000009"><a xlink:href="../../df/d6a/classengine_1_1direct3d_1_1__state__detail_1_1state__readonly__wrapper.html" target="_top" xlink:title=" ">
<polygon fill="white" stroke="#666666" points="516,-385.38 335,-385.38 335,-332.38 516,-332.38 516,-385.38"/>
<text text-anchor="start" x="343" y="-371.88" font-family="Helvetica,sans-Serif" font-size="10.00">engine::direct3d::</text>
<text text-anchor="start" x="343" y="-360.62" font-family="Helvetica,sans-Serif" font-size="10.00">_state_detail::state</text>
<text text-anchor="start" x="343" y="-349.38" font-family="Helvetica,sans-Serif" font-size="10.00">_readonly_wrapper&lt; ID3D11Rasterizer</text>
<text text-anchor="middle" x="425.5" y="-338.12" font-family="Helvetica,sans-Serif" font-size="10.00">State &gt;</text>
</a>
</g>
</g>
<!-- Node1&#45;&gt;Node9 -->
<g id="edge8_Node000001_Node000009" class="edge">
<title>Node1&#45;&gt;Node9</title>
<g id="a_edge8_Node000001_Node000009"><a xlink:title=" ">
<path fill="none" stroke="#63b8ff" d="M309.94,-377.63C318.12,-376.29 326.46,-374.92 334.73,-373.57"/>
<polygon fill="#63b8ff" stroke="#63b8ff" points="309.61,-374.3 300.3,-379.37 310.74,-381.21 309.61,-374.3"/>
</a>
</g>
</g>
<!-- Node10 -->
<g id="Node000010" class="node">
<title>Node10</title>
<g id="a_Node000010"><a xlink:href="../../df/d6a/classengine_1_1direct3d_1_1__state__detail_1_1state__readonly__wrapper.html" target="_top" xlink:title=" ">
<polygon fill="white" stroke="#666666" points="507,-314.38 344,-314.38 344,-261.38 507,-261.38 507,-314.38"/>
<text text-anchor="start" x="352" y="-300.88" font-family="Helvetica,sans-Serif" font-size="10.00">engine::direct3d::</text>
<text text-anchor="start" x="352" y="-289.62" font-family="Helvetica,sans-Serif" font-size="10.00">_state_detail::state</text>
<text text-anchor="start" x="352" y="-278.38" font-family="Helvetica,sans-Serif" font-size="10.00">_readonly_wrapper&lt; ID3D11Depth</text>
<text text-anchor="middle" x="425.5" y="-267.12" font-family="Helvetica,sans-Serif" font-size="10.00">StencilState &gt;</text>
</a>
</g>
</g>
<!-- Node1&#45;&gt;Node10 -->
<g id="edge9_Node000001_Node000010" class="edge">
<title>Node1&#45;&gt;Node10</title>
<g id="a_edge9_Node000001_Node000010"><a xlink:title=" ">
<path fill="none" stroke="#63b8ff" d="M259.51,-369.01C280.19,-354.77 308.48,-336.4 335,-322.88 340.5,-320.07 346.28,-317.35 352.14,-314.74"/>
<polygon fill="#63b8ff" stroke="#63b8ff" points="257.78,-366.64 251.58,-375.23 261.78,-372.39 257.78,-366.64"/>
</a>
</g>
</g>
<!-- Node11 -->
<g id="Node000011" class="node">
<title>Node11</title>
<g id="a_Node000011"><a xlink:href="../../df/d6a/classengine_1_1direct3d_1_1__state__detail_1_1state__readonly__wrapper.html" target="_top" xlink:title=" ">
<polygon fill="white" stroke="#666666" points="512.25,-243.38 338.75,-243.38 338.75,-190.38 512.25,-190.38 512.25,-243.38"/>
<text text-anchor="start" x="346.75" y="-229.88" font-family="Helvetica,sans-Serif" font-size="10.00">engine::direct3d::</text>
<text text-anchor="start" x="346.75" y="-218.62" font-family="Helvetica,sans-Serif" font-size="10.00">_state_detail::state</text>
<text text-anchor="start" x="346.75" y="-207.38" font-family="Helvetica,sans-Serif" font-size="10.00">_readonly_wrapper&lt; ID3D11Sampler</text>
<text text-anchor="middle" x="425.5" y="-196.12" font-family="Helvetica,sans-Serif" font-size="10.00">State &gt;</text>
</a>
</g>
</g>
<!-- Node1&#45;&gt;Node11 -->
<g id="edge10_Node000001_Node000011" class="edge">
<title>Node1&#45;&gt;Node11</title>
<g id="a_edge10_Node000001_Node000011"><a xlink:title=" ">
<path fill="none" stroke="#63b8ff" d="M242.41,-365.74C259.95,-335 293.42,-283.23 335,-251.88 338.86,-248.96 343,-246.26 347.3,-243.76"/>
<polygon fill="#63b8ff" stroke="#63b8ff" points="238.89,-363.85 237.08,-374.29 245.01,-367.26 238.89,-363.85"/>
</a>
</g>
</g>
<!-- Node12 -->
<g id="Node000012" class="node">
<title>Node12</title>
<g id="a_Node000012"><a xlink:href="../../df/d6a/classengine_1_1direct3d_1_1__state__detail_1_1state__readonly__wrapper.html" target="_top" xlink:title=" ">
<polygon fill="white" stroke="#666666" points="506.62,-172.38 344.38,-172.38 344.38,-119.38 506.62,-119.38 506.62,-172.38"/>
<text text-anchor="start" x="352.38" y="-158.88" font-family="Helvetica,sans-Serif" font-size="10.00">engine::direct3d::</text>
<text text-anchor="start" x="352.38" y="-147.62" font-family="Helvetica,sans-Serif" font-size="10.00">_state_detail::state</text>
<text text-anchor="start" x="352.38" y="-136.38" font-family="Helvetica,sans-Serif" font-size="10.00">_readonly_wrapper&lt; ID3D11Blend</text>
<text text-anchor="middle" x="425.5" y="-125.12" font-family="Helvetica,sans-Serif" font-size="10.00">State &gt;</text>
</a>
</g>
</g>
<!-- Node1&#45;&gt;Node12 -->
<g id="edge11_Node000001_Node000012" class="edge">
<title>Node1&#45;&gt;Node12</title>
<g id="a_edge11_Node000001_Node000012"><a xlink:title=" ">
<path fill="none" stroke="#63b8ff" d="M235.51,-365C247.77,-321.26 278.3,-232.44 335,-180.88 338.21,-177.96 341.69,-175.27 345.35,-172.8"/>
<polygon fill="#63b8ff" stroke="#63b8ff" points="231.94,-363.77 232.72,-374.34 238.7,-365.6 231.94,-363.77"/>
</a>
</g>
</g>
<!-- Node13 -->
<g id="Node000013" class="node">
<title>Node13</title>
<g id="a_Node000013"><a xlink:href="../../df/da2/classengine_1_1direct3d_1_1__api__detail_1_1api__readonly__wrapper.html" target="_top" xlink:title="The readonly_d3d_resource_wrapper class is a wrapper for readonly d3d resources.">
<polygon fill="white" stroke="#666666" points="486,-101.75 365,-101.75 365,-60 486,-60 486,-101.75"/>
<text text-anchor="start" x="373" y="-88.25" font-family="Helvetica,sans-Serif" font-size="10.00">engine::direct3d::</text>
<text text-anchor="start" x="373" y="-77" font-family="Helvetica,sans-Serif" font-size="10.00">_api_detail::api_readonly</text>
<text text-anchor="middle" x="425.5" y="-65.75" font-family="Helvetica,sans-Serif" font-size="10.00">_wrapper&lt; T &gt;</text>
</a>
</g>
</g>
<!-- Node1&#45;&gt;Node13 -->
<g id="edge12_Node000001_Node000013" class="edge">
<title>Node1&#45;&gt;Node13</title>
<g id="a_edge12_Node000001_Node000013"><a xlink:title=" ">
<path fill="none" stroke="#63b8ff" d="M231.41,-364.66C237.86,-309.55 260.5,-180.93 335,-109.88 343.27,-101.98 353.71,-96.24 364.52,-92.06"/>
<polygon fill="#63b8ff" stroke="#63b8ff" points="227.86,-363.94 230.26,-374.25 234.82,-364.69 227.86,-363.94"/>
</a>
</g>
</g>
<!-- Node14 -->
<g id="Node000014" class="node">
<title>Node14</title>
<g id="a_Node000014"><a xlink:href="../../df/d6a/classengine_1_1direct3d_1_1__state__detail_1_1state__readonly__wrapper.html" target="_top" xlink:title="The state_readonly_wrapper class is a wrapper for readonly state d3d resources.">
<polygon fill="white" stroke="#666666" points="485.25,-41.75 365.75,-41.75 365.75,0 485.25,0 485.25,-41.75"/>
<text text-anchor="start" x="373.75" y="-28.25" font-family="Helvetica,sans-Serif" font-size="10.00">engine::direct3d::</text>
<text text-anchor="start" x="373.75" y="-17" font-family="Helvetica,sans-Serif" font-size="10.00">_state_detail::state</text>
<text text-anchor="middle" x="425.5" y="-5.75" font-family="Helvetica,sans-Serif" font-size="10.00">_readonly_wrapper&lt; T &gt;</text>
</a>
</g>
</g>
<!-- Node1&#45;&gt;Node14 -->
<g id="edge13_Node000001_Node000014" class="edge">
<title>Node1&#45;&gt;Node14</title>
<g id="a_edge13_Node000001_Node000014"><a xlink:title=" ">
<path fill="none" stroke="#63b8ff" d="M229.48,-364.21C232.07,-300.93 247.43,-140.32 335,-50.88 343.37,-42.33 354.24,-36.21 365.51,-31.84"/>
<polygon fill="#63b8ff" stroke="#63b8ff" points="225.95,-364.08 229.12,-374.19 232.95,-364.31 225.95,-364.08"/>
</a>
</g>
</g>
<!-- Node2 -->
<g id="Node000002" class="node">
<title>Node2</title>
<g id="a_Node000002"><a xlink:href="../../df/d47/classengine_1_1direct3d_1_1d3d__resource__wrapper.html" target="_top" xlink:title="The d3d resource wrapper class.">
<polygon fill="white" stroke="#666666" points="121,-406.12 0,-406.12 0,-375.62 121,-375.62 121,-406.12"/>
<text text-anchor="start" x="8" y="-392.62" font-family="Helvetica,sans-Serif" font-size="10.00">engine::direct3d::d3d</text>
<text text-anchor="middle" x="60.5" y="-381.38" font-family="Helvetica,sans-Serif" font-size="10.00">_resource_wrapper&lt; T &gt;</text>
</a>
</g>
</g>
<!-- Node2&#45;&gt;Node1 -->
<g id="edge1_Node000001_Node000002" class="edge">
<title>Node2&#45;&gt;Node1</title>
<g id="a_edge1_Node000001_Node000002"><a xlink:title=" ">
<path fill="none" stroke="darkgreen" d="M132.17,-390.88C140.27,-390.88 148.53,-390.88 156.63,-390.88"/>
<polygon fill="darkgreen" stroke="darkgreen" points="132.25,-387.38 122.25,-390.88 132.25,-394.38 132.25,-387.38"/>
</a>
</g>
</g>
</g>
</svg>

<g id="navigator" transform="translate(0 0)" fill="#404254">
  <rect fill="#f2f5e9" fill-opacity="0.5" stroke="#606060" stroke-width=".5" x="0" y="0" width="60" height="60"/>
  <use id="zoomplus" xlink:href="#zoomPlus" x="17" y="9" onmousedown="handleZoom(evt,'in')"/>
  <use id="zoomminus" xlink:href="#zoomMin" x="42" y="9" onmousedown="handleZoom(evt,'out')"/>
  <use id="reset" xlink:href="#resetDef" x="30" y="36" onmousedown="handleReset()"/>
   <use id="arrowup" xlink:href="#arrowUp" x="0" y="0" onmousedown="handlePan(0,-1)"/>
  <use id="arrowright" xlink:href="#arrowRight" x="0" y="0" onmousedown="handlePan(1,0)"/>
  <use id="arrowdown" xlink:href="#arrowDown" x="0" y="0" onmousedown="handlePan(0,1)"/>
  <use id="arrowleft" xlink:href="#arrowLeft" x="0" y="0" onmousedown="handlePan(-1,0)"/>
</g>
<svg viewBox="0 0 15 15" width="100%" height="30px" preserveAspectRatio="xMaxYMin meet">
 <g id="arrow_out" transform="scale(0.3 0.3)">
  <a xlink:href="classengine_1_1direct3d_1_1readonly__d3d__resource__wrapper__inherit__graph_org.svg" target="_base">
   <rect id="button" ry="5" rx="5" y="6" x="6" height="38" width="38"
        fill="#f2f5e9" fill-opacity="0.5" stroke="#606060" stroke-width="1.0"/>
   <path id="arrow"
     d="M 11.500037,31.436501 C 11.940474,20.09759 22.043105,11.32322 32.158766,21.979434 L 37.068811,17.246167 C 37.068811,17.246167 37.088388,32 37.088388,32 L 22.160133,31.978069 C 22.160133,31.978069 26.997745,27.140456 26.997745,27.140456 C 18.528582,18.264221 13.291696,25.230495 11.500037,31.436501 z"
     style="fill:#404040;"/>
  </a>
 </g>
</svg>

<style type='text/css'>
<![CDATA[
[data-mouse-over-selected='false'] { opacity: 0.7; }
[data-mouse-over-selected='true']  { opacity: 1.0; }
]]>
</style>
<script type="application/ecmascript"><![CDATA[
document.addEventListener('DOMContentLoaded', (event) => {
  highlightEdges();
  highlightAdjacentNodes();
});
]]></script>
</svg>
