<?xml version="1.0" encoding="UTF-8" standalone="no"?>
<!DOCTYPE svg PUBLIC "-//W3C//DTD SVG 1.1//EN"
 "http://www.w3.org/Graphics/SVG/1.1/DTD/svg11.dtd">
<!-- Generated by graphviz version 9.0.0 (20230911.1827)
 -->
<!-- Title: engine::direct3d::readonly_d3d_resource_wrapper&lt; T &gt; Pages: 1 -->
<svg width="524pt" height="753pt"
 viewBox="0.00 0.00 524.00 752.75" xmlns="http://www.w3.org/2000/svg" xmlns:xlink="http://www.w3.org/1999/xlink">
<g id="graph0" class="graph" transform="scale(1 1) rotate(0) translate(4 748.75)">
<title>engine::direct3d::readonly_d3d_resource_wrapper&lt; T &gt;</title>
<!-- Node1 -->
<g id="Node000001" class="node">
<title>Node1</title>
<g id="a_Node000001"><a xlink:title="The readonly d3d resource wrapper class.">
<polygon fill="#999999" stroke="#666666" points="299,-406.12 157,-406.12 157,-375.62 299,-375.62 299,-406.12"/>
<text text-anchor="start" x="165" y="-392.62" font-family="Helvetica,sans-Serif" font-size="10.00">engine::direct3d::readonly</text>
<text text-anchor="middle" x="228" y="-381.38" font-family="Helvetica,sans-Serif" font-size="10.00">_d3d_resource_wrapper&lt; T &gt;</text>
</a>
</g>
</g>
<!-- Node3 -->
<g id="Node000003" class="node">
<title>Node3</title>
<g id="a_Node000003"><a xlink:href="../../df/da2/classengine_1_1direct3d_1_1__api__detail_1_1api__readonly__wrapper.html" target="_top" xlink:title=" ">
<polygon fill="white" stroke="#666666" points="491.25,-744.75 359.75,-744.75 359.75,-703 491.25,-703 491.25,-744.75"/>
<text text-anchor="start" x="367.75" y="-731.25" font-family="Helvetica,sans-Serif" font-size="10.00">engine::direct3d::</text>
<text text-anchor="start" x="367.75" y="-720" font-family="Helvetica,sans-Serif" font-size="10.00">_api_detail::api_readonly</text>
<text text-anchor="middle" x="425.5" y="-708.75" font-family="Helvetica,sans-Serif" font-size="10.00">_wrapper&lt; IDXGIFactory &gt;</text>
</a>
</g>
</g>
<!-- Node1&#45;&gt;Node3 -->
<g id="edge2_Node000001_Node000003" class="edge">
<title>Node1&#45;&gt;Node3</title>
<g id="a_edge2_Node000001_Node000003"><a xlink:title=" ">
<path fill="none" stroke="#63b8ff" d="M230.7,-417.79C235.83,-476.29 256.12,-616.03 335,-693.88 341.88,-700.67 350.34,-705.92 359.3,-709.99"/>
<polygon fill="#63b8ff" stroke="#63b8ff" points="234.21,-417.8 229.93,-408.1 227.23,-418.34 234.21,-417.8"/>
</a>
</g>
</g>
<!-- Node4 -->
<g id="Node000004" class="node">
<title>Node4</title>
<g id="a_Node000004"><a xlink:href="../../df/da2/classengine_1_1direct3d_1_1__api__detail_1_1api__readonly__wrapper.html" target="_top" xlink:title=" ">
<polygon fill="white" stroke="#666666" points="493.88,-684.75 357.12,-684.75 357.12,-643 493.88,-643 493.88,-684.75"/>
<text text-anchor="start" x="365.12" y="-671.25" font-family="Helvetica,sans-Serif" font-size="10.00">engine::direct3d::</text>
<text text-anchor="start" x="365.12" y="-660" font-family="Helvetica,sans-Serif" font-size="10.00">_api_detail::api_readonly</text>
<text text-anchor="middle" x="425.5" y="-648.75" font-family="Helvetica,sans-Serif" font-size="10.00">_wrapper&lt; IDXGIFactory5 &gt;</text>
</a>
</g>
</g>
<!-- Node1&#45;&gt;Node4 -->
<g id="edge3_Node000001_Node000004" class="edge">
<title>Node1&#45;&gt;Node4</title>
<g id="a_edge3_Node000001_Node000004"><a xlink:title=" ">
<path fill="none" stroke="#63b8ff" d="M233.32,-417.53C242.74,-467.17 269.77,-574.14 335,-633.88 341.41,-639.74 348.99,-644.46 357,-648.27"/>
<polygon fill="#63b8ff" stroke="#63b8ff" points="236.82,-417.2 231.6,-407.97 229.93,-418.43 236.82,-417.2"/>
</a>
</g>
</g>
<!-- Node5 -->
<g id="Node000005" class="node">
<title>Node5</title>
<g id="a_Node000005"><a xlink:href="../../df/da2/classengine_1_1direct3d_1_1__api__detail_1_1api__readonly__wrapper.html" target="_top" xlink:title=" ">
<polygon fill="white" stroke="#666666" points="492.75,-624.75 358.25,-624.75 358.25,-583 492.75,-583 492.75,-624.75"/>
<text text-anchor="start" x="366.25" y="-611.25" font-family="Helvetica,sans-Serif" font-size="10.00">engine::direct3d::</text>
<text text-anchor="start" x="366.25" y="-600" font-family="Helvetica,sans-Serif" font-size="10.00">_api_detail::api_readonly</text>
<text text-anchor="middle" x="425.5" y="-588.75" font-family="Helvetica,sans-Serif" font-size="10.00">_wrapper&lt; ID3D11Device &gt;</text>
</a>
</g>
</g>
<!-- Node1&#45;&gt;Node5 -->
<g id="edge4_Node000001_Node000005" class="edge">
<title>Node1&#45;&gt;Node5</title>
<g id="a_edge4_Node000001_Node000005"><a xlink:title=" ">
<path fill="none" stroke="#63b8ff" d="M237.45,-417.25C251.46,-456.87 283.21,-531.6 335,-573.88 341.86,-579.47 349.8,-584.04 358.07,-587.77"/>
<polygon fill="#63b8ff" stroke="#63b8ff" points="240.78,-416.15 234.23,-407.82 234.15,-418.41 240.78,-416.15"/>
</a>
</g>
</g>
<!-- Node6 -->
<g id="Node000006" class="node">
<title>Node6</title>
<g id="a_Node000006"><a xlink:href="../../df/da2/classengine_1_1direct3d_1_1__api__detail_1_1api__readonly__wrapper.html" target="_top" xlink:title=" ">
<polygon fill="white" stroke="#666666" points="495.38,-564.75 355.62,-564.75 355.62,-523 495.38,-523 495.38,-564.75"/>
<text text-anchor="start" x="363.62" y="-551.25" font-family="Helvetica,sans-Serif" font-size="10.00">engine::direct3d::</text>
<text text-anchor="start" x="363.62" y="-540" font-family="Helvetica,sans-Serif" font-size="10.00">_api_detail::api_readonly</text>
<text text-anchor="middle" x="425.5" y="-528.75" font-family="Helvetica,sans-Serif" font-size="10.00">_wrapper&lt; ID3D11Device5 &gt;</text>
</a>
</g>
</g>
<!-- Node1&#45;&gt;Node6 -->
<g id="edge5_Node000001_Node000006" class="edge">
<title>Node1&#45;&gt;Node6</title>
<g id="a_edge5_Node000001_Node000006"><a xlink:title=" ">
<path fill="none" stroke="#63b8ff" d="M244.51,-415.85C262.9,-443.52 296.03,-487.7 335,-513.88 341.26,-518.08 348.16,-521.74 355.26,-524.92"/>
<polygon fill="#63b8ff" stroke="#63b8ff" points="247.62,-414.21 239.24,-407.73 241.75,-418.02 247.62,-414.21"/>
</a>
</g>
</g>
<!-- Node7 -->
<g id="Node000007" class="node">
<title>Node7</title>
<g id="a_Node000007"><a xlink:href="../../df/da2/classengine_1_1direct3d_1_1__api__detail_1_1api__readonly__wrapper.html" target="_top" xlink:title=" ">
<polygon fill="white" stroke="#666666" points="509.25,-504.75 341.75,-504.75 341.75,-463 509.25,-463 509.25,-504.75"/>
<text text-anchor="start" x="349.75" y="-491.25" font-family="Helvetica,sans-Serif" font-size="10.00">engine::direct3d::</text>
<text text-anchor="start" x="349.75" y="-480" font-family="Helvetica,sans-Serif" font-size="10.00">_api_detail::api_readonly</text>
<text text-anchor="middle" x="425.5" y="-468.75" font-family="Helvetica,sans-Serif" font-size="10.00">_wrapper&lt; ID3D11DeviceContext &gt;</text>
</a>
</g>
</g>
<!-- Node1&#45;&gt;Node7 -->
<g id="edge6_Node000001_Node000007" class="edge">
<title>Node1&#45;&gt;Node7</title>
<g id="a_edge6_Node000001_Node000007"><a xlink:title=" ">
<path fill="none" stroke="#63b8ff" d="M261.28,-412.51C281.79,-425.63 309.25,-442.07 335,-453.88 341.7,-456.95 348.82,-459.87 355.99,-462.59"/>
<polygon fill="#63b8ff" stroke="#63b8ff" points="263.37,-409.69 253.07,-407.19 259.56,-415.57 263.37,-409.69"/>
</a>
</g>
</g>
<!-- Node8 -->
<g id="Node000008" class="node">
<title>Node8</title>
<g id="a_Node000008"><a xlink:href="../../df/da2/classengine_1_1direct3d_1_1__api__detail_1_1api__readonly__wrapper.html" target="_top" xlink:title=" ">
<polygon fill="white" stroke="#666666" points="511.88,-444.75 339.12,-444.75 339.12,-403 511.88,-403 511.88,-444.75"/>
<text text-anchor="start" x="347.12" y="-431.25" font-family="Helvetica,sans-Serif" font-size="10.00">engine::direct3d::</text>
<text text-anchor="start" x="347.12" y="-420" font-family="Helvetica,sans-Serif" font-size="10.00">_api_detail::api_readonly</text>
<text text-anchor="middle" x="425.5" y="-408.75" font-family="Helvetica,sans-Serif" font-size="10.00">_wrapper&lt; ID3D11DeviceContext4 &gt;</text>
</a>
</g>
</g>
<!-- Node1&#45;&gt;Node8 -->
<g id="edge7_Node000001_Node000008" class="edge">
<title>Node1&#45;&gt;Node8</title>
<g id="a_edge7_Node000001_Node000008"><a xlink:title=" ">
<path fill="none" stroke="#63b8ff" d="M310.56,-404.64C319.89,-406.22 329.42,-407.83 338.8,-409.41"/>
<polygon fill="#63b8ff" stroke="#63b8ff" points="311.24,-401.21 300.8,-402.99 310.07,-408.11 311.24,-401.21"/>
</a>
</g>
</g>
<!-- Node9 -->
<g id="Node000009" class="node">
<title>Node9</title>
<g id="a_Node000009"><a xlink:href="../../df/d6a/classengine_1_1direct3d_1_1__state__detail_1_1state__readonly__wrapper.html" target="_top" xlink:title=" ">
<polygon fill="white" stroke="#666666" points="516,-385.38 335,-385.38 335,-332.38 516,-332.38 516,-385.38"/>
<text text-anchor="start" x="343" y="-371.88" font-family="Helvetica,sans-Serif" font-size="10.00">engine::direct3d::</text>
<text text-anchor="start" x="343" y="-360.62" font-family="Helvetica,sans-Serif" font-size="10.00">_state_detail::state</text>
<text text-anchor="start" x="343" y="-349.38" font-family="Helvetica,sans-Serif" font-size="10.00">_readonly_wrapper&lt; ID3D11Rasterizer</text>
<text text-anchor="middle" x="425.5" y="-338.12" font-family="Helvetica,sans-Serif" font-size="10.00">State &gt;</text>
</a>
</g>
</g>
<!-- Node1&#45;&gt;Node9 -->
<g id="edge8_Node000001_Node000009" class="edge">
<title>Node1&#45;&gt;Node9</title>
<g id="a_edge8_Node000001_Node000009"><a xlink:title=" ">
<path fill="none" stroke="#63b8ff" d="M310.5,-377.54C318.5,-376.23 326.65,-374.89 334.73,-373.57"/>
<polygon fill="#63b8ff" stroke="#63b8ff" points="310.1,-374.05 300.8,-379.12 311.23,-380.96 310.1,-374.05"/>
</a>
</g>
</g>
<!-- Node10 -->
<g id="Node000010" class="node">
<title>Node10</title>
<g id="a_Node000010"><a xlink:href="../../df/d6a/classengine_1_1direct3d_1_1__state__detail_1_1state__readonly__wrapper.html" target="_top" xlink:title=" ">
<polygon fill="white" stroke="#666666" points="507,-314.38 344,-314.38 344,-261.38 507,-261.38 507,-314.38"/>
<text text-anchor="start" x="352" y="-300.88" font-family="Helvetica,sans-Serif" font-size="10.00">engine::direct3d::</text>
<text text-anchor="start" x="352" y="-289.62" font-family="Helvetica,sans-Serif" font-size="10.00">_state_detail::state</text>
<text text-anchor="start" x="352" y="-278.38" font-family="Helvetica,sans-Serif" font-size="10.00">_readonly_wrapper&lt; ID3D11Depth</text>
<text text-anchor="middle" x="425.5" y="-267.12" font-family="Helvetica,sans-Serif" font-size="10.00">StencilState &gt;</text>
</a>
</g>
</g>
<!-- Node1&#45;&gt;Node10 -->
<g id="edge9_Node000001_Node000010" class="edge">
<title>Node1&#45;&gt;Node10</title>
<g id="a_edge9_Node000001_Node000010"><a xlink:title=" ">
<path fill="none" stroke="#63b8ff" d="M259.79,-368.82C280.44,-354.61 308.6,-336.34 335,-322.88 340.5,-320.07 346.28,-317.35 352.14,-314.74"/>
<polygon fill="#63b8ff" stroke="#63b8ff" points="258.03,-365.78 251.82,-374.36 262.03,-371.52 258.03,-365.78"/>
</a>
</g>
</g>
<!-- Node11 -->
<g id="Node000011" class="node">
<title>Node11</title>
<g id="a_Node000011"><a xlink:href="../../df/d6a/classengine_1_1direct3d_1_1__state__detail_1_1state__readonly__wrapper.html" target="_top" xlink:title=" ">
<polygon fill="white" stroke="#666666" points="512.25,-243.38 338.75,-243.38 338.75,-190.38 512.25,-190.38 512.25,-243.38"/>
<text text-anchor="start" x="346.75" y="-229.88" font-family="Helvetica,sans-Serif" font-size="10.00">engine::direct3d::</text>
<text text-anchor="start" x="346.75" y="-218.62" font-family="Helvetica,sans-Serif" font-size="10.00">_state_detail::state</text>
<text text-anchor="start" x="346.75" y="-207.38" font-family="Helvetica,sans-Serif" font-size="10.00">_readonly_wrapper&lt; ID3D11Sampler</text>
<text text-anchor="middle" x="425.5" y="-196.12" font-family="Helvetica,sans-Serif" font-size="10.00">State &gt;</text>
</a>
</g>
</g>
<!-- Node1&#45;&gt;Node11 -->
<g id="edge10_Node000001_Node000011" class="edge">
<title>Node1&#45;&gt;Node11</title>
<g id="a_edge10_Node000001_Node000011"><a xlink:title=" ">
<path fill="none" stroke="#63b8ff" d="M242.64,-365.33C260.24,-334.55 293.6,-283.09 335,-251.88 338.86,-248.96 343,-246.26 347.3,-243.76"/>
<polygon fill="#63b8ff" stroke="#63b8ff" points="239.63,-363.53 237.82,-373.97 245.75,-366.94 239.63,-363.53"/>
</a>
</g>
</g>
<!-- Node12 -->
<g id="Node000012" class="node">
<title>Node12</title>
<g id="a_Node000012"><a xlink:href="../../df/d6a/classengine_1_1direct3d_1_1__state__detail_1_1state__readonly__wrapper.html" target="_top" xlink:title=" ">
<polygon fill="white" stroke="#666666" points="506.62,-172.38 344.38,-172.38 344.38,-119.38 506.62,-119.38 506.62,-172.38"/>
<text text-anchor="start" x="352.38" y="-158.88" font-family="Helvetica,sans-Serif" font-size="10.00">engine::direct3d::</text>
<text text-anchor="start" x="352.38" y="-147.62" font-family="Helvetica,sans-Serif" font-size="10.00">_state_detail::state</text>
<text text-anchor="start" x="352.38" y="-136.38" font-family="Helvetica,sans-Serif" font-size="10.00">_readonly_wrapper&lt; ID3D11Blend</text>
<text text-anchor="middle" x="425.5" y="-125.12" font-family="Helvetica,sans-Serif" font-size="10.00">State &gt;</text>
</a>
</g>
</g>
<!-- Node1&#45;&gt;Node12 -->
<g id="edge11_Node000001_Node000012" class="edge">
<title>Node1&#45;&gt;Node12</title>
<g id="a_edge11_Node000001_Node000012"><a xlink:title=" ">
<path fill="none" stroke="#63b8ff" d="M235.66,-364.44C248.03,-320.5 278.54,-232.22 335,-180.88 338.21,-177.96 341.69,-175.27 345.35,-172.8"/>
<polygon fill="#63b8ff" stroke="#63b8ff" points="232.34,-363.31 233.11,-373.88 239.1,-365.14 232.34,-363.31"/>
</a>
</g>
</g>
<!-- Node13 -->
<g id="Node000013" class="node">
<title>Node13</title>
<g id="a_Node000013"><a xlink:href="../../df/da2/classengine_1_1direct3d_1_1__api__detail_1_1api__readonly__wrapper.html" target="_top" xlink:title="The readonly_d3d_resource_wrapper class is a wrapper for readonly d3d resources.">
<polygon fill="white" stroke="#666666" points="486,-101.75 365,-101.75 365,-60 486,-60 486,-101.75"/>
<text text-anchor="start" x="373" y="-88.25" font-family="Helvetica,sans-Serif" font-size="10.00">engine::direct3d::</text>
<text text-anchor="start" x="373" y="-77" font-family="Helvetica,sans-Serif" font-size="10.00">_api_detail::api_readonly</text>
<text text-anchor="middle" x="425.5" y="-65.75" font-family="Helvetica,sans-Serif" font-size="10.00">_wrapper&lt; T &gt;</text>
</a>
</g>
</g>
<!-- Node1&#45;&gt;Node13 -->
<g id="edge12_Node000001_Node000013" class="edge">
<title>Node1&#45;&gt;Node13</title>
<g id="a_edge12_Node000001_Node000013"><a xlink:title=" ">
<path fill="none" stroke="#63b8ff" d="M231.49,-363.96C238.05,-308.47 260.81,-180.63 335,-109.88 343.27,-101.98 353.71,-96.24 364.52,-92.06"/>
<polygon fill="#63b8ff" stroke="#63b8ff" points="228.03,-363.43 230.42,-373.75 234.98,-364.19 228.03,-363.43"/>
</a>
</g>
</g>
<!-- Node14 -->
<g id="Node000014" class="node">
<title>Node14</title>
<g id="a_Node000014"><a xlink:href="../../df/d6a/classengine_1_1direct3d_1_1__state__detail_1_1state__readonly__wrapper.html" target="_top" xlink:title="The state_readonly_wrapper class is a wrapper for readonly state d3d resources.">
<polygon fill="white" stroke="#666666" points="485.25,-41.75 365.75,-41.75 365.75,0 485.25,0 485.25,-41.75"/>
<text text-anchor="start" x="373.75" y="-28.25" font-family="Helvetica,sans-Serif" font-size="10.00">engine::direct3d::</text>
<text text-anchor="start" x="373.75" y="-17" font-family="Helvetica,sans-Serif" font-size="10.00">_state_detail::state</text>
<text text-anchor="middle" x="425.5" y="-5.75" font-family="Helvetica,sans-Serif" font-size="10.00">_readonly_wrapper&lt; T &gt;</text>
</a>
</g>
</g>
<!-- Node1&#45;&gt;Node14 -->
<g id="edge13_Node000001_Node000014" class="edge">
<title>Node1&#45;&gt;Node14</title>
<g id="a_edge13_Node000001_Node000014"><a xlink:title=" ">
<path fill="none" stroke="#63b8ff" d="M229.5,-363.82C232.14,-300.27 247.61,-140.14 335,-50.88 343.37,-42.33 354.24,-36.21 365.51,-31.84"/>
<polygon fill="#63b8ff" stroke="#63b8ff" points="226,-363.57 229.17,-373.67 233,-363.8 226,-363.57"/>
</a>
</g>
</g>
<!-- Node2 -->
<g id="Node000002" class="node">
<title>Node2</title>
<g id="a_Node000002"><a xlink:href="../../df/d47/classengine_1_1direct3d_1_1d3d__resource__wrapper.html" target="_top" xlink:title="The d3d resource wrapper class.">
<polygon fill="white" stroke="#666666" points="121,-406.12 0,-406.12 0,-375.62 121,-375.62 121,-406.12"/>
<text text-anchor="start" x="8" y="-392.62" font-family="Helvetica,sans-Serif" font-size="10.00">engine::direct3d::d3d</text>
<text text-anchor="middle" x="60.5" y="-381.38" font-family="Helvetica,sans-Serif" font-size="10.00">_resource_wrapper&lt; T &gt;</text>
</a>
</g>
</g>
<!-- Node2&#45;&gt;Node1 -->
<g id="edge1_Node000001_Node000002" class="edge">
<title>Node2&#45;&gt;Node1</title>
<g id="a_edge1_Node000001_Node000002"><a xlink:title=" ">
<path fill="none" stroke="darkgreen" d="M132.72,-390.88C140.65,-390.88 148.72,-390.88 156.63,-390.88"/>
<polygon fill="darkgreen" stroke="darkgreen" points="132.76,-387.38 122.76,-390.88 132.76,-394.38 132.76,-387.38"/>
</a>
</g>
</g>
</g>
</svg>
