<?xml version="1.0" encoding="UTF-8" standalone="no"?>
<!DOCTYPE svg PUBLIC "-//W3C//DTD SVG 1.1//EN"
 "http://www.w3.org/Graphics/SVG/1.1/DTD/svg11.dtd">
<!-- Generated by graphviz version 9.0.0 (20230911.1827)
 -->
<!-- Title: engine::core::Window Pages: 1 -->
<svg width="289pt" height="229pt"
 viewBox="0.00 0.00 289.38 228.75" xmlns="http://www.w3.org/2000/svg" xmlns:xlink="http://www.w3.org/1999/xlink">
<g id="graph0" class="graph" transform="scale(1 1) rotate(0) translate(4 224.75)">
<title>engine::core::Window</title>
<!-- Node1 -->
<g id="Node000001" class="node">
<title>Node1</title>
<g id="a_Node000001"><a xlink:title=" ">
<polygon fill="#999999" stroke="#666666" points="172.62,-19.25 65.88,-19.25 65.88,0 172.62,0 172.62,-19.25"/>
<text text-anchor="middle" x="119.25" y="-5.75" font-family="Helvetica,sans-Serif" font-size="10.00">engine::core::Window</text>
</a>
</g>
</g>
<!-- Node2 -->
<g id="Node000002" class="node">
<title>Node2</title>
<g id="a_Node000002"><a xlink:href="../../d0/d04/classengine_1_1core_1_1_layer.html" target="_top" xlink:title=" ">
<polygon fill="white" stroke="#666666" points="167.38,-81.12 71.12,-81.12 71.12,-61.88 167.38,-61.88 167.38,-81.12"/>
<text text-anchor="middle" x="119.25" y="-67.62" font-family="Helvetica,sans-Serif" font-size="10.00">engine::core::Layer</text>
</a>
</g>
</g>
<!-- Node2&#45;&gt;Node1 -->
<g id="edge1_Node000001_Node000002" class="edge">
<title>Node2&#45;&gt;Node1</title>
<g id="a_edge1_Node000001_Node000002"><a xlink:title=" ">
<path fill="none" stroke="#63b8ff" d="M119.25,-49.92C119.25,-39.5 119.25,-27.4 119.25,-19.41"/>
<polygon fill="#63b8ff" stroke="#63b8ff" points="115.75,-49.89 119.25,-59.89 122.75,-49.89 115.75,-49.89"/>
</a>
</g>
</g>
<!-- Node3 -->
<g id="Node000003" class="node">
<title>Node3</title>
<g id="a_Node000003"><a xlink:title=" ">
<polygon fill="white" stroke="#666666" points="75.25,-153.25 17.25,-153.25 17.25,-134 75.25,-134 75.25,-153.25"/>
<text text-anchor="middle" x="46.25" y="-139.75" font-family="Helvetica,sans-Serif" font-size="10.00">std::string</text>
</a>
</g>
</g>
<!-- Node3&#45;&gt;Node1 -->
<g id="edge5_Node000001_Node000003" class="edge">
<title>Node3&#45;&gt;Node1</title>
<g id="a_edge5_Node000001_Node000003"><a xlink:title=" ">
<path fill="none" stroke="#9a32cd" stroke-dasharray="5,2" d="M38.47,-122.91C32.52,-104.42 27.14,-76.63 39,-56.25 49.56,-38.1 70.32,-26.58 88.09,-19.66"/>
<polygon fill="#9a32cd" stroke="#9a32cd" points="35.1,-123.9 41.78,-132.13 41.69,-121.53 35.1,-123.9"/>
</a>
</g>
<text text-anchor="middle" x="50.88" y="-67.62" font-family="Helvetica,sans-Serif" font-size="10.00" fill="grey"> title_</text>
</g>
<!-- Node3&#45;&gt;Node2 -->
<g id="edge2_Node000002_Node000003" class="edge">
<title>Node3&#45;&gt;Node2</title>
<g id="a_edge2_Node000002_Node000003"><a xlink:title=" ">
<path fill="none" stroke="#9a32cd" stroke-dasharray="5,2" d="M63.67,-125.89C78.15,-111.98 98.21,-92.71 109.85,-81.53"/>
<polygon fill="#9a32cd" stroke="#9a32cd" points="61.37,-123.24 56.59,-132.7 66.22,-128.29 61.37,-123.24"/>
</a>
</g>
<text text-anchor="middle" x="116.75" y="-106.5" font-family="Helvetica,sans-Serif" font-size="10.00" fill="grey"> debug_name_</text>
</g>
<!-- Node4 -->
<g id="Node000004" class="node">
<title>Node4</title>
<g id="a_Node000004"><a xlink:title=" ">
<polygon fill="white" stroke="#666666" points="92.5,-220.75 0,-220.75 0,-190.25 92.5,-190.25 92.5,-220.75"/>
<text text-anchor="start" x="8" y="-207.25" font-family="Helvetica,sans-Serif" font-size="10.00">std::basic_string&lt;</text>
<text text-anchor="middle" x="46.25" y="-196" font-family="Helvetica,sans-Serif" font-size="10.00"> Char &gt;</text>
</a>
</g>
</g>
<!-- Node4&#45;&gt;Node3 -->
<g id="edge3_Node000003_Node000004" class="edge">
<title>Node4&#45;&gt;Node3</title>
<g id="a_edge3_Node000003_Node000004"><a xlink:title=" ">
<path fill="none" stroke="#63b8ff" d="M46.25,-178.77C46.25,-169.79 46.25,-160.29 46.25,-153.6"/>
<polygon fill="#63b8ff" stroke="#63b8ff" points="42.75,-178.49 46.25,-188.49 49.75,-178.49 42.75,-178.49"/>
</a>
</g>
</g>
<!-- Node5 -->
<g id="Node000005" class="node">
<title>Node5</title>
<g id="a_Node000005"><a xlink:href="../../d5/d41/structengine_1_1core_1_1_layer_1_1_handle_update.html" target="_top" xlink:title=" ">
<polygon fill="white" stroke="#666666" points="281.38,-86.75 185.12,-86.75 185.12,-56.25 281.38,-56.25 281.38,-86.75"/>
<text text-anchor="start" x="193.12" y="-73.25" font-family="Helvetica,sans-Serif" font-size="10.00">engine::core::Layer</text>
<text text-anchor="middle" x="233.25" y="-62" font-family="Helvetica,sans-Serif" font-size="10.00">::HandleUpdate</text>
</a>
</g>
</g>
<!-- Node5&#45;&gt;Node1 -->
<g id="edge4_Node000001_Node000005" class="edge">
<title>Node5&#45;&gt;Node1</title>
<g id="a_edge4_Node000001_Node000005"><a xlink:title=" ">
<path fill="none" stroke="#63b8ff" d="M195.35,-50.6C175.49,-40.16 152.13,-27.89 136.58,-19.73"/>
<polygon fill="#63b8ff" stroke="#63b8ff" points="193.54,-53.6 204.02,-55.15 196.8,-47.4 193.54,-53.6"/>
</a>
</g>
</g>
</g>
</svg>
