<?xml version="1.0" encoding="UTF-8" standalone="no"?>
<!DOCTYPE svg PUBLIC "-//W3C//DTD SVG 1.1//EN"
 "http://www.w3.org/Graphics/SVG/1.1/DTD/svg11.dtd">
<!-- Generated by graphviz version 9.0.0 (20230911.1827)
 -->
<!-- Title: engine::components::GameObject Pages: 1 -->
<svg width="434pt" height="171pt"
 viewBox="0.00 0.00 433.50 170.50" xmlns="http://www.w3.org/2000/svg" xmlns:xlink="http://www.w3.org/1999/xlink">

<svg id="main" version="1.1" xmlns="http://www.w3.org/2000/svg" xmlns:xlink="http://www.w3.org/1999/xlink" xml:space="preserve" onload="init(evt)">
<style type="text/css"><![CDATA[
.node, .edge {opacity: 0.7;}
.node.selected, .edge.selected {opacity: 1;}
.edge:hover path { stroke: red; }
.edge:hover polygon { stroke: red; fill: red; }
]]></style>
<script type="application/ecmascript" xlink:href="../../svg.min.js"/>
<svg id="graph" class="graph">
<g id="graph0" class="graph" transform="scale(1 1) rotate(0) translate(4 166.5)">
<title>engine::components::GameObject</title>
<!-- Node1 -->
<g id="Node000001" class="node">
<title>Node1</title>
<g id="a_Node000001"><a xlink:title="Component that contains the name of the object and its tag.">
<polygon fill="#999999" stroke="#666666" points="425.5,-96.5 323.25,-96.5 323.25,-66 425.5,-66 425.5,-96.5"/>
<text text-anchor="start" x="331.25" y="-83" font-family="Helvetica,sans-Serif" font-size="10.00">engine::components</text>
<text text-anchor="middle" x="374.38" y="-71.75" font-family="Helvetica,sans-Serif" font-size="10.00">::GameObject</text>
</a>
</g>
</g>
<!-- Node2 -->
<g id="Node000002" class="node">
<title>Node2</title>
<g id="a_Node000002"><a xlink:href="../../d6/dd6/structengine_1_1components_1_1_component.html" target="_top" xlink:title="Base class for all components.">
<polygon fill="white" stroke="#666666" points="251.25,-162.5 149,-162.5 149,-132 251.25,-132 251.25,-162.5"/>
<text text-anchor="start" x="157" y="-149" font-family="Helvetica,sans-Serif" font-size="10.00">engine::components</text>
<text text-anchor="middle" x="200.12" y="-137.75" font-family="Helvetica,sans-Serif" font-size="10.00">::Component</text>
</a>
</g>
</g>
<!-- Node2&#45;&gt;Node1 -->
<g id="edge1_Node000001_Node000002" class="edge">
<title>Node2&#45;&gt;Node1</title>
<g id="a_edge1_Node000001_Node000002"><a xlink:title=" ">
<path fill="none" stroke="#63b8ff" d="M256.1,-127.65C272,-121.86 289.36,-115.41 305.25,-109.25 315.26,-105.37 326.04,-101.02 336,-96.92"/>
<polygon fill="#63b8ff" stroke="#63b8ff" points="254.98,-124.34 246.77,-131.04 257.37,-130.92 254.98,-124.34"/>
</a>
</g>
</g>
<!-- Node3 -->
<g id="Node000003" class="node">
<title>Node3</title>
<g id="a_Node000003"><a xlink:title=" ">
<polygon fill="white" stroke="#666666" points="241.88,-113.88 158.38,-113.88 158.38,-94.62 241.88,-94.62 241.88,-113.88"/>
<text text-anchor="middle" x="200.12" y="-100.38" font-family="Helvetica,sans-Serif" font-size="10.00">std::string_view</text>
</a>
</g>
</g>
<!-- Node3&#45;&gt;Node1 -->
<g id="edge2_Node000001_Node000003" class="edge">
<title>Node3&#45;&gt;Node1</title>
<g id="a_edge2_Node000001_Node000003"><a xlink:title=" ">
<path fill="none" stroke="#9a32cd" stroke-dasharray="5,2" d="M253.16,-97.3C275.31,-94.34 301.04,-90.91 323,-87.98"/>
<polygon fill="#9a32cd" stroke="#9a32cd" points="252.89,-93.81 243.45,-98.6 253.82,-100.74 252.89,-93.81"/>
</a>
</g>
<text text-anchor="middle" x="287.25" y="-96" font-family="Helvetica,sans-Serif" font-size="10.00" fill="grey"> kName</text>
</g>
<!-- Node4 -->
<g id="Node000004" class="node">
<title>Node4</title>
<g id="a_Node000004"><a xlink:title=" ">
<polygon fill="white" stroke="#666666" points="112,-121.5 0,-121.5 0,-91 112,-91 112,-121.5"/>
<text text-anchor="start" x="8" y="-108" font-family="Helvetica,sans-Serif" font-size="10.00">std::basic_string_view</text>
<text text-anchor="middle" x="56" y="-96.75" font-family="Helvetica,sans-Serif" font-size="10.00">&lt; Char &gt;</text>
</a>
</g>
</g>
<!-- Node4&#45;&gt;Node3 -->
<g id="edge3_Node000003_Node000004" class="edge">
<title>Node4&#45;&gt;Node3</title>
<g id="a_edge3_Node000003_Node000004"><a xlink:title=" ">
<path fill="none" stroke="#63b8ff" d="M123.59,-105.31C135.41,-105.15 147.39,-104.98 158.23,-104.83"/>
<polygon fill="#63b8ff" stroke="#63b8ff" points="123.82,-101.81 113.87,-105.45 123.92,-108.81 123.82,-101.81"/>
</a>
</g>
</g>
<!-- Node5 -->
<g id="Node000005" class="node">
<title>Node5</title>
<g id="a_Node000005"><a xlink:title=" ">
<polygon fill="white" stroke="#666666" points="229.12,-67.88 171.12,-67.88 171.12,-48.62 229.12,-48.62 229.12,-67.88"/>
<text text-anchor="middle" x="200.12" y="-54.38" font-family="Helvetica,sans-Serif" font-size="10.00">std::string</text>
</a>
</g>
</g>
<!-- Node5&#45;&gt;Node1 -->
<g id="edge4_Node000001_Node000005" class="edge">
<title>Node5&#45;&gt;Node1</title>
<g id="a_edge4_Node000001_Node000005"><a xlink:title=" ">
<path fill="none" stroke="#9a32cd" stroke-dasharray="5,2" d="M241.07,-58.51C260.53,-59.1 284.21,-60.52 305.25,-63.75 311.04,-64.64 317.06,-65.81 323.01,-67.12"/>
<polygon fill="#9a32cd" stroke="#9a32cd" points="241.16,-55.01 231.08,-58.27 240.99,-62.01 241.16,-55.01"/>
</a>
</g>
<text text-anchor="middle" x="287.25" y="-76.25" font-family="Helvetica,sans-Serif" font-size="10.00" fill="grey"> name</text>
<text text-anchor="middle" x="287.25" y="-65" font-family="Helvetica,sans-Serif" font-size="10.00" fill="grey">tag</text>
</g>
<!-- Node6 -->
<g id="Node000006" class="node">
<title>Node6</title>
<g id="a_Node000006"><a xlink:title=" ">
<polygon fill="white" stroke="#666666" points="102.25,-72.5 9.75,-72.5 9.75,-42 102.25,-42 102.25,-72.5"/>
<text text-anchor="start" x="17.75" y="-59" font-family="Helvetica,sans-Serif" font-size="10.00">std::basic_string&lt;</text>
<text text-anchor="middle" x="56" y="-47.75" font-family="Helvetica,sans-Serif" font-size="10.00"> Char &gt;</text>
</a>
</g>
</g>
<!-- Node6&#45;&gt;Node5 -->
<g id="edge5_Node000005_Node000006" class="edge">
<title>Node6&#45;&gt;Node5</title>
<g id="a_edge5_Node000005_Node000006"><a xlink:title=" ">
<path fill="none" stroke="#63b8ff" d="M113.67,-57.65C133.25,-57.79 154.36,-57.93 170.69,-58.05"/>
<polygon fill="#63b8ff" stroke="#63b8ff" points="113.9,-54.15 103.87,-57.58 113.85,-61.15 113.9,-54.15"/>
</a>
</g>
</g>
<!-- Node7 -->
<g id="Node000007" class="node">
<title>Node7</title>
<g id="a_Node000007"><a xlink:title=" ">
<polygon fill="white" stroke="#666666" points="245.25,-30.5 155,-30.5 155,0 245.25,0 245.25,-30.5"/>
<text text-anchor="start" x="163" y="-17" font-family="Helvetica,sans-Serif" font-size="10.00">std::vector&lt; entt::</text>
<text text-anchor="middle" x="200.12" y="-5.75" font-family="Helvetica,sans-Serif" font-size="10.00">entity &gt;</text>
</a>
</g>
</g>
<!-- Node7&#45;&gt;Node1 -->
<g id="edge6_Node000001_Node000007" class="edge">
<title>Node7&#45;&gt;Node1</title>
<g id="a_edge6_Node000001_Node000007"><a xlink:title=" ">
<path fill="none" stroke="#9a32cd" stroke-dasharray="5,2" d="M256.51,-28C272.49,-32.35 289.79,-37.74 305.25,-44 319.99,-49.97 335.62,-58.35 348.18,-65.65"/>
<polygon fill="#9a32cd" stroke="#9a32cd" points="257.72,-24.7 247.16,-25.53 255.94,-31.46 257.72,-24.7"/>
</a>
</g>
<text text-anchor="middle" x="287.25" y="-46" font-family="Helvetica,sans-Serif" font-size="10.00" fill="grey"> children</text>
</g>
</g>
</svg>
</svg>

<style type='text/css'>
<![CDATA[
[data-mouse-over-selected='false'] { opacity: 0.7; }
[data-mouse-over-selected='true']  { opacity: 1.0; }
]]>
</style>
<script type="application/ecmascript"><![CDATA[
document.addEventListener('DOMContentLoaded', (event) => {
  highlightEdges();
  highlightAdjacentNodes();
});
]]></script>
</svg>
