<?xml version="1.0" encoding="UTF-8" standalone="no"?>
<!DOCTYPE svg PUBLIC "-//W3C//DTD SVG 1.1//EN"
 "http://www.w3.org/Graphics/SVG/1.1/DTD/svg11.dtd">
<!-- Generated by graphviz version 8.1.0 (20230707.0739)
 -->
<!-- Title: engine::render::Mesh Pages: 1 -->
<svg width="241pt" height="172pt"
 viewBox="0.00 0.00 241.12 171.50" xmlns="http://www.w3.org/2000/svg" xmlns:xlink="http://www.w3.org/1999/xlink">
<g id="graph0" class="graph" transform="scale(1 1) rotate(0) translate(4 167.5)">
<title>engine::render::Mesh</title>
<!-- Node1 -->
<g id="Node000001" class="node">
<title>Node1</title>
<g id="a_Node000001"><a xlink:title=" ">
<polygon fill="#999999" stroke="#666666" points="168.38,-19.25 63.88,-19.25 63.88,0 168.38,0 168.38,-19.25"/>
<text text-anchor="middle" x="116.12" y="-5.75" font-family="Helvetica,sans-Serif" font-size="10.00">engine::render::Mesh</text>
</a>
</g>
</g>
<!-- Node2 -->
<g id="Node000002" class="node">
<title>Node2</title>
<g id="a_Node000002"><a xlink:title=" ">
<polygon fill="white" stroke="#666666" points="103,-97 5.25,-97 5.25,-66.5 103,-66.5 103,-97"/>
<text text-anchor="start" x="13.25" y="-83.5" font-family="Helvetica,sans-Serif" font-size="10.00">std::vector&lt; engine</text>
<text text-anchor="middle" x="54.12" y="-72.25" font-family="Helvetica,sans-Serif" font-size="10.00">::render::Vertex &gt;</text>
</a>
</g>
</g>
<!-- Node2&#45;&gt;Node1 -->
<g id="edge1_Node000001_Node000002" class="edge">
<title>Node2&#45;&gt;Node1</title>
<g id="a_edge1_Node000001_Node000002"><a xlink:title=" ">
<path fill="none" stroke="#9a32cd" stroke-dasharray="5,2" d="M74.21,-58.04C85.86,-44.86 99.87,-29.01 108.38,-19.38"/>
<polygon fill="#9a32cd" stroke="#9a32cd" points="71.97,-55.41 67.97,-65.22 77.22,-60.05 71.97,-55.41"/>
</a>
</g>
<text text-anchor="middle" x="111.5" y="-39" font-family="Helvetica,sans-Serif" font-size="10.00" fill="grey"> vertices</text>
</g>
<!-- Node3 -->
<g id="Node000003" class="node">
<title>Node3</title>
<g id="a_Node000003"><a xlink:href="../../d0/dc6/structengine_1_1render_1_1_vertex.html" target="_top" xlink:title=" ">
<polygon fill="white" stroke="#666666" points="108.25,-163.5 0,-163.5 0,-144.25 108.25,-144.25 108.25,-163.5"/>
<text text-anchor="middle" x="54.12" y="-150" font-family="Helvetica,sans-Serif" font-size="10.00">engine::render::Vertex</text>
</a>
</g>
</g>
<!-- Node3&#45;&gt;Node2 -->
<g id="edge2_Node000002_Node000003" class="edge">
<title>Node3&#45;&gt;Node2</title>
<g id="a_edge2_Node000002_Node000003"><a xlink:title=" ">
<path fill="none" stroke="#9a32cd" stroke-dasharray="5,2" d="M54.12,-133.03C54.12,-121.7 54.12,-107.75 54.12,-97.42"/>
<polygon fill="#9a32cd" stroke="#9a32cd" points="50.63,-132.99 54.12,-142.99 57.63,-132.99 50.63,-132.99"/>
</a>
</g>
<text text-anchor="middle" x="75.12" y="-116.75" font-family="Helvetica,sans-Serif" font-size="10.00" fill="grey"> elements</text>
</g>
<!-- Node4 -->
<g id="Node000004" class="node">
<title>Node4</title>
<g id="a_Node000004"><a xlink:title=" ">
<polygon fill="white" stroke="#666666" points="233.12,-91.38 121.12,-91.38 121.12,-72.12 233.12,-72.12 233.12,-91.38"/>
<text text-anchor="middle" x="177.12" y="-77.88" font-family="Helvetica,sans-Serif" font-size="10.00">std::vector&lt; uint32_t &gt;</text>
</a>
</g>
</g>
<!-- Node4&#45;&gt;Node1 -->
<g id="edge3_Node000001_Node000004" class="edge">
<title>Node4&#45;&gt;Node1</title>
<g id="a_edge3_Node000001_Node000004"><a xlink:title=" ">
<path fill="none" stroke="#9a32cd" stroke-dasharray="5,2" d="M162.23,-63.62C150.15,-49.74 133.62,-30.73 123.98,-19.66"/>
<polygon fill="#9a32cd" stroke="#9a32cd" points="160.2,-65.62 169.4,-70.87 165.48,-61.03 160.2,-65.62"/>
</a>
</g>
<text text-anchor="middle" x="164.62" y="-39" font-family="Helvetica,sans-Serif" font-size="10.00" fill="grey"> indices</text>
</g>
</g>
</svg>
