<?xml version="1.0" encoding="UTF-8" standalone="no"?>
<!DOCTYPE svg PUBLIC "-//W3C//DTD SVG 1.1//EN"
 "http://www.w3.org/Graphics/SVG/1.1/DTD/svg11.dtd">
<!-- Generated by graphviz version 8.1.0 (20230707.0739)
 -->
<!-- Title: engine::core::InputLayer Pages: 1 -->
<svg width="966pt" height="452pt"
 viewBox="0.00 0.00 966.25 451.50" xmlns="http://www.w3.org/2000/svg" xmlns:xlink="http://www.w3.org/1999/xlink">
<g id="graph0" class="graph" transform="scale(1 1) rotate(0) translate(4 447.5)">
<title>engine::core::InputLayer</title>
<!-- Node1 -->
<g id="Node000001" class="node">
<title>Node1</title>
<g id="a_Node000001"><a xlink:title=" ">
<polygon fill="#999999" stroke="#666666" points="761.5,-242.5 643.5,-242.5 643.5,-223.25 761.5,-223.25 761.5,-242.5"/>
<text text-anchor="middle" x="702.5" y="-229" font-family="Helvetica,sans-Serif" font-size="10.00">engine::core::InputLayer</text>
</a>
</g>
</g>
<!-- Node8 -->
<g id="Node000008" class="node">
<title>Node8</title>
<g id="a_Node000008"><a xlink:title=" ">
<polygon fill="white" stroke="#666666" points="958.25,-248.12 841.75,-248.12 841.75,-217.62 958.25,-217.62 958.25,-248.12"/>
<text text-anchor="start" x="849.75" y="-234.62" font-family="Helvetica,sans-Serif" font-size="10.00">std::shared_ptr&lt; engine</text>
<text text-anchor="middle" x="900" y="-223.38" font-family="Helvetica,sans-Serif" font-size="10.00">::core::InputLayer &gt;</text>
</a>
</g>
</g>
<!-- Node1&#45;&gt;Node8 -->
<g id="edge8_Node000008_Node000001" class="edge">
<title>Node1&#45;&gt;Node8</title>
<g id="a_edge8_Node000008_Node000001"><a xlink:title=" ">
<path fill="none" stroke="#9a32cd" stroke-dasharray="5,2" d="M772.75,-232.88C795.28,-232.88 820.02,-232.88 841.58,-232.88"/>
<polygon fill="#9a32cd" stroke="#9a32cd" points="772.89,-229.38 762.89,-232.88 772.89,-236.38 772.89,-229.38"/>
</a>
</g>
<text text-anchor="middle" x="801.62" y="-234.62" font-family="Helvetica,sans-Serif" font-size="10.00" fill="grey"> ptr</text>
</g>
<!-- Node2 -->
<g id="Node000002" class="node">
<title>Node2</title>
<g id="a_Node000002"><a xlink:href="../../d0/d04/classengine_1_1core_1_1_layer.html" target="_top" xlink:title=" ">
<polygon fill="white" stroke="#666666" points="478.88,-443.5 382.62,-443.5 382.62,-424.25 478.88,-424.25 478.88,-443.5"/>
<text text-anchor="middle" x="430.75" y="-430" font-family="Helvetica,sans-Serif" font-size="10.00">engine::core::Layer</text>
</a>
</g>
</g>
<!-- Node2&#45;&gt;Node1 -->
<g id="edge1_Node000001_Node000002" class="edge">
<title>Node2&#45;&gt;Node1</title>
<g id="a_edge1_Node000001_Node000002"><a xlink:title=" ">
<path fill="none" stroke="#63b8ff" d="M490.13,-432.85C531.86,-429.29 587.19,-418.48 625.5,-387.88 674.44,-348.78 694.13,-270.21 699.7,-242.68"/>
<polygon fill="#63b8ff" stroke="#63b8ff" points="490.01,-429.42 480.29,-433.64 490.52,-436.4 490.01,-429.42"/>
</a>
</g>
</g>
<!-- Node3 -->
<g id="Node000003" class="node">
<title>Node3</title>
<g id="a_Node000003"><a xlink:title=" ">
<polygon fill="white" stroke="#666666" points="241.25,-394.5 183.25,-394.5 183.25,-375.25 241.25,-375.25 241.25,-394.5"/>
<text text-anchor="middle" x="212.25" y="-381" font-family="Helvetica,sans-Serif" font-size="10.00">std::string</text>
</a>
</g>
</g>
<!-- Node3&#45;&gt;Node2 -->
<g id="edge2_Node000002_Node000003" class="edge">
<title>Node3&#45;&gt;Node2</title>
<g id="a_edge2_Node000002_Node000003"><a xlink:title=" ">
<path fill="none" stroke="#9a32cd" stroke-dasharray="5,2" d="M251.86,-394.95C258.57,-396.64 265.48,-398.34 272,-399.88 308.95,-408.57 350.98,-417.59 382.36,-424.15"/>
<polygon fill="#9a32cd" stroke="#9a32cd" points="253.14,-391.41 242.59,-392.34 251.41,-398.2 253.14,-391.41"/>
</a>
</g>
<text text-anchor="middle" x="303.5" y="-414.62" font-family="Helvetica,sans-Serif" font-size="10.00" fill="grey"> debug_name_</text>
</g>
<!-- Node14 -->
<g id="Node000014" class="node">
<title>Node14</title>
<g id="a_Node000014"><a xlink:title=" ">
<polygon fill="white" stroke="#666666" points="508.12,-405.75 353.38,-405.75 353.38,-364 508.12,-364 508.12,-405.75"/>
<text text-anchor="start" x="361.38" y="-392.25" font-family="Helvetica,sans-Serif" font-size="10.00">std::map&lt; std::string,</text>
<text text-anchor="start" x="361.38" y="-381" font-family="Helvetica,sans-Serif" font-size="10.00"> std::tuple&lt; KeySeq,</text>
<text text-anchor="middle" x="430.75" y="-369.75" font-family="Helvetica,sans-Serif" font-size="10.00"> bool, OnTickKeyCallbackFn &gt; &gt;</text>
</a>
</g>
</g>
<!-- Node3&#45;&gt;Node14 -->
<g id="edge16_Node000014_Node000003" class="edge">
<title>Node3&#45;&gt;Node14</title>
<g id="a_edge16_Node000014_Node000003"><a xlink:title=" ">
<path fill="none" stroke="#9a32cd" stroke-dasharray="5,2" d="M252.48,-384.88C280.45,-384.88 318.98,-384.88 352.97,-384.88"/>
<polygon fill="#9a32cd" stroke="#9a32cd" points="252.55,-381.38 242.55,-384.88 252.55,-388.38 252.55,-381.38"/>
</a>
</g>
<text text-anchor="middle" x="303.5" y="-386.62" font-family="Helvetica,sans-Serif" font-size="10.00" fill="grey"> keys</text>
</g>
<!-- Node15 -->
<g id="Node000015" class="node">
<title>Node15</title>
<g id="a_Node000015"><a xlink:title=" ">
<polygon fill="white" stroke="#666666" points="483.75,-346.12 377.75,-346.12 377.75,-315.62 483.75,-315.62 483.75,-346.12"/>
<text text-anchor="start" x="385.75" y="-332.62" font-family="Helvetica,sans-Serif" font-size="10.00">std::map&lt; std::string,</text>
<text text-anchor="middle" x="430.75" y="-321.38" font-family="Helvetica,sans-Serif" font-size="10.00"> std::string &gt;</text>
</a>
</g>
</g>
<!-- Node3&#45;&gt;Node15 -->
<g id="edge18_Node000015_Node000003" class="edge">
<title>Node3&#45;&gt;Node15</title>
<g id="a_edge18_Node000015_Node000003"><a xlink:title=" ">
<path fill="none" stroke="#9a32cd" stroke-dasharray="5,2" d="M242.28,-370.04C251.58,-365.77 262.05,-361.43 272,-358.38 306.41,-347.8 346.38,-340.89 377.47,-336.64"/>
<polygon fill="#9a32cd" stroke="#9a32cd" points="240.87,-367.31 233.36,-374.78 243.89,-373.63 240.87,-367.31"/>
</a>
</g>
<text text-anchor="middle" x="303.5" y="-370.88" font-family="Helvetica,sans-Serif" font-size="10.00" fill="grey"> elements</text>
<text text-anchor="middle" x="303.5" y="-359.62" font-family="Helvetica,sans-Serif" font-size="10.00" fill="grey">keys</text>
</g>
<!-- Node4 -->
<g id="Node000004" class="node">
<title>Node4</title>
<g id="a_Node000004"><a xlink:title=" ">
<polygon fill="white" stroke="#666666" points="92.5,-400.12 0,-400.12 0,-369.62 92.5,-369.62 92.5,-400.12"/>
<text text-anchor="start" x="8" y="-386.62" font-family="Helvetica,sans-Serif" font-size="10.00">std::basic_string&lt;</text>
<text text-anchor="middle" x="46.25" y="-375.38" font-family="Helvetica,sans-Serif" font-size="10.00"> Char &gt;</text>
</a>
</g>
</g>
<!-- Node4&#45;&gt;Node3 -->
<g id="edge3_Node000003_Node000004" class="edge">
<title>Node4&#45;&gt;Node3</title>
<g id="a_edge3_Node000003_Node000004"><a xlink:title=" ">
<path fill="none" stroke="#63b8ff" d="M103.7,-384.88C130.37,-384.88 161.05,-384.88 182.8,-384.88"/>
<polygon fill="#63b8ff" stroke="#63b8ff" points="103.93,-381.38 93.93,-384.88 103.93,-388.38 103.93,-381.38"/>
</a>
</g>
</g>
<!-- Node5 -->
<g id="Node000005" class="node">
<title>Node5</title>
<g id="a_Node000005"><a xlink:href="../../dd/dd4/structengine_1_1core_1_1_layer_1_1_handle_event.html" target="_top" xlink:title=" ">
<polygon fill="white" stroke="#666666" points="478.88,-297.12 382.62,-297.12 382.62,-266.62 478.88,-266.62 478.88,-297.12"/>
<text text-anchor="start" x="390.62" y="-283.62" font-family="Helvetica,sans-Serif" font-size="10.00">engine::core::Layer</text>
<text text-anchor="middle" x="430.75" y="-272.38" font-family="Helvetica,sans-Serif" font-size="10.00">::HandleEvent</text>
</a>
</g>
</g>
<!-- Node5&#45;&gt;Node1 -->
<g id="edge4_Node000001_Node000005" class="edge">
<title>Node5&#45;&gt;Node1</title>
<g id="a_edge4_Node000001_Node000005"><a xlink:title=" ">
<path fill="none" stroke="#63b8ff" d="M489.63,-271.47C528.14,-264.54 579.86,-255.2 625.5,-246.88 632.36,-245.62 639.57,-244.3 646.71,-242.99"/>
<polygon fill="#63b8ff" stroke="#63b8ff" points="489.36,-268.15 480.14,-273.36 490.6,-275.04 489.36,-268.15"/>
</a>
</g>
</g>
<!-- Node6 -->
<g id="Node000006" class="node">
<title>Node6</title>
<g id="a_Node000006"><a xlink:href="../../de/d0d/structengine_1_1core_1_1_layer_1_1_handle_tick.html" target="_top" xlink:title=" ">
<polygon fill="white" stroke="#666666" points="478.88,-248.12 382.62,-248.12 382.62,-217.62 478.88,-217.62 478.88,-248.12"/>
<text text-anchor="start" x="390.62" y="-234.62" font-family="Helvetica,sans-Serif" font-size="10.00">engine::core::Layer</text>
<text text-anchor="middle" x="430.75" y="-223.38" font-family="Helvetica,sans-Serif" font-size="10.00">::HandleTick</text>
</a>
</g>
</g>
<!-- Node6&#45;&gt;Node1 -->
<g id="edge5_Node000001_Node000006" class="edge">
<title>Node6&#45;&gt;Node1</title>
<g id="a_edge5_Node000001_Node000006"><a xlink:title=" ">
<path fill="none" stroke="#63b8ff" d="M490.18,-232.88C535.44,-232.88 597.84,-232.88 643.1,-232.88"/>
<polygon fill="#63b8ff" stroke="#63b8ff" points="490.35,-229.38 480.35,-232.88 490.35,-236.38 490.35,-229.38"/>
</a>
</g>
</g>
<!-- Node7 -->
<g id="Node000007" class="node">
<title>Node7</title>
<g id="a_Node000007"><a xlink:href="../../d5/d41/structengine_1_1core_1_1_layer_1_1_handle_update.html" target="_top" xlink:title=" ">
<polygon fill="white" stroke="#666666" points="478.88,-199.12 382.62,-199.12 382.62,-168.62 478.88,-168.62 478.88,-199.12"/>
<text text-anchor="start" x="390.62" y="-185.62" font-family="Helvetica,sans-Serif" font-size="10.00">engine::core::Layer</text>
<text text-anchor="middle" x="430.75" y="-174.38" font-family="Helvetica,sans-Serif" font-size="10.00">::HandleUpdate</text>
</a>
</g>
</g>
<!-- Node7&#45;&gt;Node1 -->
<g id="edge6_Node000001_Node000007" class="edge">
<title>Node7&#45;&gt;Node1</title>
<g id="a_edge6_Node000001_Node000007"><a xlink:title=" ">
<path fill="none" stroke="#63b8ff" d="M490.11,-194.48C536.35,-202.88 600.51,-214.53 645.99,-222.79"/>
<polygon fill="#63b8ff" stroke="#63b8ff" points="490.82,-190.87 480.35,-192.52 489.57,-197.75 490.82,-190.87"/>
</a>
</g>
</g>
<!-- Node8&#45;&gt;Node1 -->
<g id="edge7_Node000001_Node000008" class="edge">
<title>Node8&#45;&gt;Node1</title>
<g id="a_edge7_Node000001_Node000008"><a xlink:title=" ">
<path fill="none" stroke="#9a32cd" stroke-dasharray="5,2" d="M830.53,-217.45C828.25,-217.14 825.98,-216.86 823.75,-216.62 804.19,-214.54 799.06,-214.56 779.5,-216.62 767.56,-217.89 754.73,-220.24 743.08,-222.76"/>
<polygon fill="#9a32cd" stroke="#9a32cd" points="829.86,-221.04 840.27,-219.11 830.93,-214.12 829.86,-221.04"/>
</a>
</g>
<text text-anchor="middle" x="801.62" y="-217.62" font-family="Helvetica,sans-Serif" font-size="10.00" fill="grey"> instance_</text>
</g>
<!-- Node9 -->
<g id="Node000009" class="node">
<title>Node9</title>
<g id="a_Node000009"><a xlink:title=" ">
<polygon fill="white" stroke="#666666" points="481.12,-150.12 380.38,-150.12 380.38,-119.62 481.12,-119.62 481.12,-150.12"/>
<text text-anchor="start" x="388.38" y="-136.62" font-family="Helvetica,sans-Serif" font-size="10.00">std::unordered_map</text>
<text text-anchor="middle" x="430.75" y="-125.38" font-family="Helvetica,sans-Serif" font-size="10.00">&lt; uint32_t, bool &gt;</text>
</a>
</g>
</g>
<!-- Node9&#45;&gt;Node1 -->
<g id="edge9_Node000001_Node000009" class="edge">
<title>Node9&#45;&gt;Node1</title>
<g id="a_edge9_Node000001_Node000009"><a xlink:title=" ">
<path fill="none" stroke="#9a32cd" stroke-dasharray="5,2" d="M491.94,-145.77C530.99,-154.01 582.43,-167.1 625.5,-185.62 648.91,-195.69 673.51,-212.25 688.18,-222.85"/>
<polygon fill="#9a32cd" stroke="#9a32cd" points="492.77,-142.16 482.27,-143.58 491.36,-149.02 492.77,-142.16"/>
</a>
</g>
<text text-anchor="middle" x="576" y="-186.62" font-family="Helvetica,sans-Serif" font-size="10.00" fill="grey"> key_states_</text>
</g>
<!-- Node10 -->
<g id="Node000010" class="node">
<title>Node10</title>
<g id="a_Node000010"><a xlink:title=" ">
<polygon fill="white" stroke="#666666" points="502.12,-101.75 359.38,-101.75 359.38,-60 502.12,-60 502.12,-101.75"/>
<text text-anchor="start" x="367.38" y="-88.25" font-family="Helvetica,sans-Serif" font-size="10.00">std::map&lt; KeySeq, std</text>
<text text-anchor="start" x="367.38" y="-77" font-family="Helvetica,sans-Serif" font-size="10.00">::tuple&lt; bool, uint32</text>
<text text-anchor="middle" x="430.75" y="-65.75" font-family="Helvetica,sans-Serif" font-size="10.00">_t, OnTickKeyCallbackFn &gt; &gt;</text>
</a>
</g>
</g>
<!-- Node10&#45;&gt;Node1 -->
<g id="edge10_Node000001_Node000010" class="edge">
<title>Node10&#45;&gt;Node1</title>
<g id="a_edge10_Node000001_Node000010"><a xlink:title=" ">
<path fill="none" stroke="#9a32cd" stroke-dasharray="5,2" d="M513.18,-93.18C549.77,-101.5 592.13,-115.22 625.5,-137.62 659.58,-160.5 685.65,-203.4 696.28,-222.85"/>
<polygon fill="#9a32cd" stroke="#9a32cd" points="514.04,-89.57 503.53,-90.87 512.56,-96.41 514.04,-89.57"/>
</a>
</g>
<text text-anchor="middle" x="576" y="-138.62" font-family="Helvetica,sans-Serif" font-size="10.00" fill="grey"> on_tick_callbacks_</text>
</g>
<!-- Node11 -->
<g id="Node000011" class="node">
<title>Node11</title>
<g id="a_Node000011"><a xlink:title=" ">
<polygon fill="white" stroke="#666666" points="254,-57.5 170.5,-57.5 170.5,-38.25 254,-38.25 254,-57.5"/>
<text text-anchor="middle" x="212.25" y="-44" font-family="Helvetica,sans-Serif" font-size="10.00">std::vector&lt; T &gt;</text>
</a>
</g>
</g>
<!-- Node11&#45;&gt;Node10 -->
<g id="edge11_Node000010_Node000011" class="edge">
<title>Node11&#45;&gt;Node10</title>
<g id="a_edge11_Node000010_Node000011"><a xlink:title=" ">
<path fill="none" stroke="#9a32cd" stroke-dasharray="5,2" d="M265.3,-55.81C293.48,-60.1 328.68,-65.47 359.27,-70.13"/>
<polygon fill="#9a32cd" stroke="#9a32cd" points="265.89,-52.21 255.48,-54.16 264.84,-59.13 265.89,-52.21"/>
</a>
</g>
<text text-anchor="middle" x="303.5" y="-68.62" font-family="Helvetica,sans-Serif" font-size="10.00" fill="grey"> keys</text>
</g>
<!-- Node13 -->
<g id="Node000013" class="node">
<title>Node13</title>
<g id="a_Node000013"><a xlink:title=" ">
<polygon fill="white" stroke="#666666" points="508.5,-41.75 353,-41.75 353,0 508.5,0 508.5,-41.75"/>
<text text-anchor="start" x="361" y="-28.25" font-family="Helvetica,sans-Serif" font-size="10.00">std::map&lt; KeySeq, std</text>
<text text-anchor="start" x="361" y="-17" font-family="Helvetica,sans-Serif" font-size="10.00">::tuple&lt; bool, uint32</text>
<text text-anchor="middle" x="430.75" y="-5.75" font-family="Helvetica,sans-Serif" font-size="10.00">_t, OnUpdateKeyCallbackFn &gt; &gt;</text>
</a>
</g>
</g>
<!-- Node11&#45;&gt;Node13 -->
<g id="edge14_Node000013_Node000011" class="edge">
<title>Node11&#45;&gt;Node13</title>
<g id="a_edge14_Node000013_Node000011"><a xlink:title=" ">
<path fill="none" stroke="#9a32cd" stroke-dasharray="5,2" d="M264.84,-35.83C267.25,-35.4 269.65,-34.99 272,-34.62 298.21,-30.55 327.08,-27.59 352.87,-25.49"/>
<polygon fill="#9a32cd" stroke="#9a32cd" points="264.35,-32.55 255.2,-37.9 265.69,-39.43 264.35,-32.55"/>
</a>
</g>
<text text-anchor="middle" x="303.5" y="-36.62" font-family="Helvetica,sans-Serif" font-size="10.00" fill="grey"> keys</text>
</g>
<!-- Node12 -->
<g id="Node000012" class="node">
<title>Node12</title>
<g id="a_Node000012"><a xlink:title=" ">
<polygon fill="white" stroke="#666666" points="60.65,-57.5 31.85,-57.5 31.85,-38.25 60.65,-38.25 60.65,-57.5"/>
<text text-anchor="middle" x="46.25" y="-44" font-family="Helvetica,sans-Serif" font-size="10.00">T</text>
</a>
</g>
</g>
<!-- Node12&#45;&gt;Node11 -->
<g id="edge12_Node000011_Node000012" class="edge">
<title>Node12&#45;&gt;Node11</title>
<g id="a_edge12_Node000011_Node000012"><a xlink:title=" ">
<path fill="none" stroke="#9a32cd" stroke-dasharray="5,2" d="M71.71,-47.88C97.72,-47.88 139.31,-47.88 170.32,-47.88"/>
<polygon fill="#9a32cd" stroke="#9a32cd" points="71.95,-44.38 61.95,-47.88 71.95,-51.38 71.95,-44.38"/>
</a>
</g>
<text text-anchor="middle" x="131.5" y="-49.62" font-family="Helvetica,sans-Serif" font-size="10.00" fill="grey"> elements</text>
</g>
<!-- Node13&#45;&gt;Node1 -->
<g id="edge13_Node000001_Node000013" class="edge">
<title>Node13&#45;&gt;Node1</title>
<g id="a_edge13_Node000001_Node000013"><a xlink:title=" ">
<path fill="none" stroke="#9a32cd" stroke-dasharray="5,2" d="M519.52,-32.97C555.6,-41.61 595.8,-56.38 625.5,-81.62 672.07,-121.21 693.14,-196.32 699.4,-223.09"/>
<polygon fill="#9a32cd" stroke="#9a32cd" points="520.5,-29.38 509.97,-30.59 518.96,-36.21 520.5,-29.38"/>
</a>
</g>
<text text-anchor="middle" x="576" y="-82.62" font-family="Helvetica,sans-Serif" font-size="10.00" fill="grey"> on_update_callbacks_</text>
</g>
<!-- Node14&#45;&gt;Node1 -->
<g id="edge15_Node000001_Node000014" class="edge">
<title>Node14&#45;&gt;Node1</title>
<g id="a_edge15_Node000001_Node000014"><a xlink:title=" ">
<path fill="none" stroke="#9a32cd" stroke-dasharray="5,2" d="M518.69,-364.43C553.71,-353.7 593.34,-338.24 625.5,-316.88 656.46,-296.31 683.13,-260.32 694.97,-242.9"/>
<polygon fill="#9a32cd" stroke="#9a32cd" points="518.06,-361.26 509.47,-367.47 520.05,-367.97 518.06,-361.26"/>
</a>
</g>
<text text-anchor="middle" x="576" y="-373.88" font-family="Helvetica,sans-Serif" font-size="10.00" fill="grey"> on_tick_</text>
<text text-anchor="middle" x="576" y="-362.62" font-family="Helvetica,sans-Serif" font-size="10.00" fill="grey">on_update_</text>
</g>
<!-- Node15&#45;&gt;Node1 -->
<g id="edge17_Node000001_Node000015" class="edge">
<title>Node15&#45;&gt;Node1</title>
<g id="a_edge17_Node000001_Node000015"><a xlink:title=" ">
<path fill="none" stroke="#9a32cd" stroke-dasharray="5,2" d="M494.69,-313.04C532.96,-301.63 582.56,-285.83 625.5,-268.88 645.19,-261.1 666.96,-250.58 682.13,-242.93"/>
<polygon fill="#9a32cd" stroke="#9a32cd" points="493.81,-309.95 485.22,-316.14 495.8,-316.66 493.81,-309.95"/>
</a>
</g>
<text text-anchor="middle" x="576" y="-303.62" font-family="Helvetica,sans-Serif" font-size="10.00" fill="grey"> desriptions</text>
</g>
</g>
</svg>
