<?xml version="1.0" encoding="UTF-8" standalone="no"?>
<!DOCTYPE svg PUBLIC "-//W3C//DTD SVG 1.1//EN"
 "http://www.w3.org/Graphics/SVG/1.1/DTD/svg11.dtd">
<!-- Generated by graphviz version 8.1.0 (20230707.0739)
 -->
<!-- Title: engine::core::events::Event Pages: 1 -->
<svg width="289pt" height="431pt"
 viewBox="0.00 0.00 289.00 430.50" xmlns="http://www.w3.org/2000/svg" xmlns:xlink="http://www.w3.org/1999/xlink">
<g id="graph0" class="graph" transform="scale(1 1) rotate(0) translate(4 426.5)">
<title>engine::core::events::Event</title>
<!-- Node1 -->
<g id="Node000001" class="node">
<title>Node1</title>
<g id="a_Node000001"><a xlink:title=" ">
<polygon fill="#999999" stroke="#666666" points="101.5,-226.5 0,-226.5 0,-196 101.5,-196 101.5,-226.5"/>
<text text-anchor="start" x="8" y="-213" font-family="Helvetica,sans-Serif" font-size="10.00">engine::core::events</text>
<text text-anchor="middle" x="50.75" y="-201.75" font-family="Helvetica,sans-Serif" font-size="10.00">::Event</text>
</a>
</g>
</g>
<!-- Node2 -->
<g id="Node000002" class="node">
<title>Node2</title>
<g id="a_Node000002"><a xlink:href="../../da/d43/classengine_1_1core_1_1events_1_1_files_changed_event.html" target="_top" xlink:title=" ">
<polygon fill="white" stroke="#666666" points="261.5,-422.5 157,-422.5 157,-392 261.5,-392 261.5,-422.5"/>
<text text-anchor="start" x="165" y="-409" font-family="Helvetica,sans-Serif" font-size="10.00">engine::core::events</text>
<text text-anchor="middle" x="209.25" y="-397.75" font-family="Helvetica,sans-Serif" font-size="10.00">::FilesChangedEvent</text>
</a>
</g>
</g>
<!-- Node1&#45;&gt;Node2 -->
<g id="edge1_Node000001_Node000002" class="edge">
<title>Node1&#45;&gt;Node2</title>
<g id="a_edge1_Node000001_Node000002"><a xlink:title=" ">
<path fill="none" stroke="#63b8ff" d="M58.18,-237.41C68.64,-274.66 92.81,-342.83 137.5,-382.25 143.07,-387.16 149.67,-391.13 156.56,-394.32"/>
<polygon fill="#63b8ff" stroke="#63b8ff" points="61.33,-236.66 55.37,-227.91 54.57,-238.47 61.33,-236.66"/>
</a>
</g>
</g>
<!-- Node3 -->
<g id="Node000003" class="node">
<title>Node3</title>
<g id="a_Node000003"><a xlink:href="../../d9/dcf/classengine_1_1core_1_1events_1_1_key_pressed_event.html" target="_top" xlink:title=" ">
<polygon fill="white" stroke="#666666" points="260,-373.5 158.5,-373.5 158.5,-343 260,-343 260,-373.5"/>
<text text-anchor="start" x="166.5" y="-360" font-family="Helvetica,sans-Serif" font-size="10.00">engine::core::events</text>
<text text-anchor="middle" x="209.25" y="-348.75" font-family="Helvetica,sans-Serif" font-size="10.00">::KeyPressedEvent</text>
</a>
</g>
</g>
<!-- Node1&#45;&gt;Node3 -->
<g id="edge2_Node000001_Node000003" class="edge">
<title>Node1&#45;&gt;Node3</title>
<g id="a_edge2_Node000001_Node000003"><a xlink:title=" ">
<path fill="none" stroke="#63b8ff" d="M63.44,-236.35C77.43,-263.79 103.3,-307.31 137.5,-333.25 143.73,-337.97 150.92,-341.86 158.29,-345.03"/>
<polygon fill="#63b8ff" stroke="#63b8ff" points="66.24,-235.1 58.67,-227.68 59.96,-238.2 66.24,-235.1"/>
</a>
</g>
</g>
<!-- Node4 -->
<g id="Node000004" class="node">
<title>Node4</title>
<g id="a_Node000004"><a xlink:href="../../db/d91/classengine_1_1core_1_1events_1_1_key_released_event.html" target="_top" xlink:title=" ">
<polygon fill="white" stroke="#666666" points="260.38,-324.5 158.12,-324.5 158.12,-294 260.38,-294 260.38,-324.5"/>
<text text-anchor="start" x="166.12" y="-311" font-family="Helvetica,sans-Serif" font-size="10.00">engine::core::events</text>
<text text-anchor="middle" x="209.25" y="-299.75" font-family="Helvetica,sans-Serif" font-size="10.00">::KeyReleasedEvent</text>
</a>
</g>
</g>
<!-- Node1&#45;&gt;Node4 -->
<g id="edge3_Node000001_Node000004" class="edge">
<title>Node1&#45;&gt;Node4</title>
<g id="a_edge3_Node000001_Node000004"><a xlink:title=" ">
<path fill="none" stroke="#63b8ff" d="M73.98,-234.19C90.33,-250.02 113.77,-270.58 137.5,-284.25 143.82,-287.89 150.76,-291.13 157.75,-293.98"/>
<polygon fill="#63b8ff" stroke="#63b8ff" points="77.12,-232.39 67.54,-227.86 72.2,-237.37 77.12,-232.39"/>
</a>
</g>
</g>
<!-- Node5 -->
<g id="Node000005" class="node">
<title>Node5</title>
<g id="a_Node000005"><a xlink:href="../../de/d46/classengine_1_1core_1_1events_1_1_mouse_button_pressed_event.html" target="_top" xlink:title=" ">
<polygon fill="white" stroke="#666666" points="278.75,-275.5 139.75,-275.5 139.75,-245 278.75,-245 278.75,-275.5"/>
<text text-anchor="start" x="147.75" y="-262" font-family="Helvetica,sans-Serif" font-size="10.00">engine::core::events</text>
<text text-anchor="middle" x="209.25" y="-250.75" font-family="Helvetica,sans-Serif" font-size="10.00">::MouseButtonPressedEvent</text>
</a>
</g>
</g>
<!-- Node1&#45;&gt;Node5 -->
<g id="edge4_Node000001_Node000005" class="edge">
<title>Node1&#45;&gt;Node5</title>
<g id="a_edge4_Node000001_Node000005"><a xlink:title=" ">
<path fill="none" stroke="#63b8ff" d="M112.02,-230.12C127.2,-234.87 143.34,-239.93 157.97,-244.51"/>
<polygon fill="#63b8ff" stroke="#63b8ff" points="113.29,-226.54 102.7,-226.89 111.2,-233.22 113.29,-226.54"/>
</a>
</g>
</g>
<!-- Node6 -->
<g id="Node000006" class="node">
<title>Node6</title>
<g id="a_Node000006"><a xlink:href="../../dc/d01/classengine_1_1core_1_1events_1_1_mouse_button_released_event.html" target="_top" xlink:title=" ">
<polygon fill="white" stroke="#666666" points="281,-226.5 137.5,-226.5 137.5,-196 281,-196 281,-226.5"/>
<text text-anchor="start" x="145.5" y="-213" font-family="Helvetica,sans-Serif" font-size="10.00">engine::core::events</text>
<text text-anchor="middle" x="209.25" y="-201.75" font-family="Helvetica,sans-Serif" font-size="10.00">::MouseButtonReleasedEvent</text>
</a>
</g>
</g>
<!-- Node1&#45;&gt;Node6 -->
<g id="edge5_Node000001_Node000006" class="edge">
<title>Node1&#45;&gt;Node6</title>
<g id="a_edge5_Node000001_Node000006"><a xlink:title=" ">
<path fill="none" stroke="#63b8ff" d="M112.5,-211.25C120.56,-211.25 128.88,-211.25 137.1,-211.25"/>
<polygon fill="#63b8ff" stroke="#63b8ff" points="112.7,-207.75 102.7,-211.25 112.7,-214.75 112.7,-207.75"/>
</a>
</g>
</g>
<!-- Node7 -->
<g id="Node000007" class="node">
<title>Node7</title>
<g id="a_Node000007"><a xlink:href="../../d4/d2f/classengine_1_1core_1_1events_1_1_mouse_moved_event.html" target="_top" xlink:title=" ">
<polygon fill="white" stroke="#666666" points="261.12,-177.5 157.38,-177.5 157.38,-147 261.12,-147 261.12,-177.5"/>
<text text-anchor="start" x="165.38" y="-164" font-family="Helvetica,sans-Serif" font-size="10.00">engine::core::events</text>
<text text-anchor="middle" x="209.25" y="-152.75" font-family="Helvetica,sans-Serif" font-size="10.00">::MouseMovedEvent</text>
</a>
</g>
</g>
<!-- Node1&#45;&gt;Node7 -->
<g id="edge6_Node000001_Node000007" class="edge">
<title>Node1&#45;&gt;Node7</title>
<g id="a_edge6_Node000001_Node000007"><a xlink:title=" ">
<path fill="none" stroke="#63b8ff" d="M112.02,-192.38C127.2,-187.63 143.34,-182.57 157.97,-177.99"/>
<polygon fill="#63b8ff" stroke="#63b8ff" points="111.2,-189.28 102.7,-195.61 113.29,-195.96 111.2,-189.28"/>
</a>
</g>
</g>
<!-- Node8 -->
<g id="Node000008" class="node">
<title>Node8</title>
<g id="a_Node000008"><a xlink:href="../../d6/da9/classengine_1_1core_1_1events_1_1_mouse_scroll_event.html" target="_top" xlink:title=" ">
<polygon fill="white" stroke="#666666" points="260,-128.5 158.5,-128.5 158.5,-98 260,-98 260,-128.5"/>
<text text-anchor="start" x="166.5" y="-115" font-family="Helvetica,sans-Serif" font-size="10.00">engine::core::events</text>
<text text-anchor="middle" x="209.25" y="-103.75" font-family="Helvetica,sans-Serif" font-size="10.00">::MouseScrollEvent</text>
</a>
</g>
</g>
<!-- Node1&#45;&gt;Node8 -->
<g id="edge7_Node000001_Node000008" class="edge">
<title>Node1&#45;&gt;Node8</title>
<g id="a_edge7_Node000001_Node000008"><a xlink:title=" ">
<path fill="none" stroke="#63b8ff" d="M73.98,-188.31C90.33,-172.48 113.77,-151.92 137.5,-138.25 143.93,-134.54 151.01,-131.25 158.13,-128.37"/>
<polygon fill="#63b8ff" stroke="#63b8ff" points="72.2,-185.13 67.54,-194.64 77.12,-190.11 72.2,-185.13"/>
</a>
</g>
</g>
<!-- Node9 -->
<g id="Node000009" class="node">
<title>Node9</title>
<g id="a_Node000009"><a xlink:href="../../d6/d0e/classengine_1_1core_1_1events_1_1_window_close_event.html" target="_top" xlink:title=" ">
<polygon fill="white" stroke="#666666" points="261.5,-79.5 157,-79.5 157,-49 261.5,-49 261.5,-79.5"/>
<text text-anchor="start" x="165" y="-66" font-family="Helvetica,sans-Serif" font-size="10.00">engine::core::events</text>
<text text-anchor="middle" x="209.25" y="-54.75" font-family="Helvetica,sans-Serif" font-size="10.00">::WindowCloseEvent</text>
</a>
</g>
</g>
<!-- Node1&#45;&gt;Node9 -->
<g id="edge8_Node000001_Node000009" class="edge">
<title>Node1&#45;&gt;Node9</title>
<g id="a_edge8_Node000001_Node000009"><a xlink:title=" ">
<path fill="none" stroke="#63b8ff" d="M63.44,-186.15C77.43,-158.71 103.3,-115.19 137.5,-89.25 143.31,-84.84 149.97,-81.17 156.82,-78.11"/>
<polygon fill="#63b8ff" stroke="#63b8ff" points="59.96,-184.3 58.67,-194.82 66.24,-187.4 59.96,-184.3"/>
</a>
</g>
</g>
<!-- Node10 -->
<g id="Node000010" class="node">
<title>Node10</title>
<g id="a_Node000010"><a xlink:href="../../d8/d5c/classengine_1_1core_1_1events_1_1_window_resize_event.html" target="_top" xlink:title=" ">
<polygon fill="white" stroke="#666666" points="263.75,-30.5 154.75,-30.5 154.75,0 263.75,0 263.75,-30.5"/>
<text text-anchor="start" x="162.75" y="-17" font-family="Helvetica,sans-Serif" font-size="10.00">engine::core::events</text>
<text text-anchor="middle" x="209.25" y="-5.75" font-family="Helvetica,sans-Serif" font-size="10.00">::WindowResizeEvent</text>
</a>
</g>
</g>
<!-- Node1&#45;&gt;Node10 -->
<g id="edge9_Node000001_Node000010" class="edge">
<title>Node1&#45;&gt;Node10</title>
<g id="a_edge9_Node000001_Node000010"><a xlink:title=" ">
<path fill="none" stroke="#63b8ff" d="M58.18,-185.09C68.64,-147.84 92.81,-79.67 137.5,-40.25 142.48,-35.86 148.29,-32.22 154.39,-29.21"/>
<polygon fill="#63b8ff" stroke="#63b8ff" points="54.57,-184.03 55.37,-194.59 61.33,-185.84 54.57,-184.03"/>
</a>
</g>
</g>
</g>
</svg>
