<?xml version="1.0" encoding="UTF-8" standalone="no"?>
<!DOCTYPE svg PUBLIC "-//W3C//DTD SVG 1.1//EN"
 "http://www.w3.org/Graphics/SVG/1.1/DTD/svg11.dtd">
<!-- Generated by graphviz version 9.0.0 (20230911.1827)
 -->
<!-- Title: engine/direct3d11 Pages: 1 -->
<svg width="481pt" height="197pt"
 viewBox="0.00 0.00 481.00 197.00" xmlns="http://www.w3.org/2000/svg" xmlns:xlink="http://www.w3.org/1999/xlink">
<g id="graph0" class="graph" transform="scale(1 1) rotate(0) translate(4 193)">
<title>engine/direct3d11</title>
<g id="clust1" class="cluster">
<title>clusterdir_996f45160da62e1a3d7f6046fad68f51</title>
<g id="a_clust1"><a xlink:href="dir_996f45160da62e1a3d7f6046fad68f51.html" target="_top" xlink:title="engine">
<polygon fill="#edf0f7" stroke="#404040" stroke-dasharray="5,2" points="8,-8 8,-181 465,-181 465,-8 8,-8"/>
<text text-anchor="middle" x="236.5" y="-167.5" font-family="Helvetica,sans-Serif" font-size="10.00">engine</text>
</a>
</g>
</g>
<g id="clust2" class="cluster">
<title>clusterdir_52bb8edc54208f47f87ae9b01b1d12a6</title>
<g id="a_clust2"><a xlink:href="dir_52bb8edc54208f47f87ae9b01b1d12a6.html" target="_top">
<polygon fill="#edf0f7" stroke="#404040" stroke-width="2" points="16,-63.25 16,-153.75 94,-153.75 94,-63.25 16,-63.25"/>
</a>
</g>
</g>
<!-- dir_55984c57f282dc48266af8a0d45ddadd -->
<g id="node1" class="node">
<title>dir_55984c57f282dc48266af8a0d45ddadd</title>
<g id="a_node1"><a xlink:href="dir_55984c57f282dc48266af8a0d45ddadd.html" target="_top" xlink:title="subsystems">
<polygon fill="#a2b4d6" stroke="red" points="170.25,-90.5 101.75,-90.5 101.75,-71.25 170.25,-71.25 170.25,-90.5"/>
<text text-anchor="middle" x="136" y="-77" font-family="Helvetica,sans-Serif" font-size="10.00">subsystems</text>
</a>
</g>
</g>
<!-- dir_6eaa9a4b68db9d3a4b16103d94f334fb -->
<g id="node2" class="node">
<title>dir_6eaa9a4b68db9d3a4b16103d94f334fb</title>
<g id="a_node2"><a xlink:href="dir_6eaa9a4b68db9d3a4b16103d94f334fb.html" target="_top" xlink:title="render">
<polygon fill="#a2b4d6" stroke="red" points="231.5,-90.5 188.5,-90.5 188.5,-71.25 231.5,-71.25 231.5,-90.5"/>
<text text-anchor="middle" x="210" y="-77" font-family="Helvetica,sans-Serif" font-size="10.00">render</text>
</a>
</g>
</g>
<!-- dir_961895bef81e67620a5b47a62fb3cb48 -->
<g id="node3" class="node">
<title>dir_961895bef81e67620a5b47a62fb3cb48</title>
<g id="a_node3"><a xlink:href="dir_961895bef81e67620a5b47a62fb3cb48.html" target="_top" xlink:title="utils">
<polygon fill="#a2b4d6" stroke="red" points="173,-35.25 139,-35.25 139,-16 173,-16 173,-35.25"/>
<text text-anchor="middle" x="156" y="-21.75" font-family="Helvetica,sans-Serif" font-size="10.00">utils</text>
</a>
</g>
</g>
<!-- dir_a0e47c104ecd6c0b6dccb5f33d071508 -->
<g id="node4" class="node">
<title>dir_a0e47c104ecd6c0b6dccb5f33d071508</title>
<g id="a_node4"><a xlink:href="dir_a0e47c104ecd6c0b6dccb5f33d071508.html" target="_top" xlink:title="core">
<polygon fill="#a2b4d6" stroke="red" points="304.38,-90.5 269.62,-90.5 269.62,-71.25 304.38,-71.25 304.38,-90.5"/>
<text text-anchor="middle" x="287" y="-77" font-family="Helvetica,sans-Serif" font-size="10.00">core</text>
</a>
</g>
</g>
<!-- dir_bafa501d493553e442f19f5f8dd7b29c -->
<g id="node5" class="node">
<title>dir_bafa501d493553e442f19f5f8dd7b29c</title>
<g id="a_node5"><a xlink:href="dir_bafa501d493553e442f19f5f8dd7b29c.html" target="_top" xlink:title="include">
<polygon fill="#a2b4d6" stroke="#404040" points="369.38,-90.5 322.62,-90.5 322.62,-71.25 369.38,-71.25 369.38,-90.5"/>
<text text-anchor="middle" x="346" y="-77" font-family="Helvetica,sans-Serif" font-size="10.00">include</text>
</a>
</g>
</g>
<!-- dir_c450a44cd74e5a974db470ea1cf0577f -->
<g id="node6" class="node">
<title>dir_c450a44cd74e5a974db470ea1cf0577f</title>
<g id="a_node6"><a xlink:href="dir_c450a44cd74e5a974db470ea1cf0577f.html" target="_top" xlink:title="components">
<polygon fill="#a2b4d6" stroke="#404040" points="456.62,-90.5 387.38,-90.5 387.38,-71.25 456.62,-71.25 456.62,-90.5"/>
<text text-anchor="middle" x="422" y="-77" font-family="Helvetica,sans-Serif" font-size="10.00">components</text>
</a>
</g>
</g>
<!-- dir_52bb8edc54208f47f87ae9b01b1d12a6 -->
<g id="node7" class="node">
<title>dir_52bb8edc54208f47f87ae9b01b1d12a6</title>
<text text-anchor="middle" x="55" y="-132.25" font-family="Helvetica,sans-Serif" font-size="10.00">direct3d11</text>
</g>
<!-- dir_52bb8edc54208f47f87ae9b01b1d12a6&#45;&gt;dir_55984c57f282dc48266af8a0d45ddadd -->
<g id="edge1" class="edge">
<title>dir_52bb8edc54208f47f87ae9b01b1d12a6&#45;&gt;dir_55984c57f282dc48266af8a0d45ddadd</title>
<g id="a_edge1"><a xlink:href="dir_000010_000037.html" target="_top">
<path fill="none" stroke="#63b8ff" d="M68.01,-126.57C80.08,-118.64 98.3,-106.66 112.84,-97.1"/>
<polygon fill="#63b8ff" stroke="#63b8ff" points="114.51,-100.19 120.94,-91.78 110.66,-94.34 114.51,-100.19"/>
</a>
</g>
<g id="a_edge1&#45;headlabel"><a xlink:href="dir_000010_000037.html" target="_top" xlink:title="3">
<text text-anchor="middle" x="114.33" y="-99.83" font-family="Helvetica,sans-Serif" font-size="10.00" fill="#63b8ff">3</text>
</a>
</g>
</g>
<!-- dir_52bb8edc54208f47f87ae9b01b1d12a6&#45;&gt;dir_6eaa9a4b68db9d3a4b16103d94f334fb -->
<g id="edge2" class="edge">
<title>dir_52bb8edc54208f47f87ae9b01b1d12a6&#45;&gt;dir_6eaa9a4b68db9d3a4b16103d94f334fb</title>
<g id="a_edge2"><a xlink:href="dir_000010_000030.html" target="_top">
<path fill="none" stroke="#63b8ff" d="M79.9,-126.57C106.35,-117.49 148.25,-103.09 177.33,-93.1"/>
<polygon fill="#63b8ff" stroke="#63b8ff" points="178.41,-96.43 186.73,-89.87 176.14,-89.81 178.41,-96.43"/>
</a>
</g>
<g id="a_edge2&#45;headlabel"><a xlink:href="dir_000010_000030.html" target="_top" xlink:title="5">
<text text-anchor="middle" x="177.37" y="-95.91" font-family="Helvetica,sans-Serif" font-size="10.00" fill="#63b8ff">5</text>
</a>
</g>
</g>
<!-- dir_52bb8edc54208f47f87ae9b01b1d12a6&#45;&gt;dir_961895bef81e67620a5b47a62fb3cb48 -->
<g id="edge3" class="edge">
<title>dir_52bb8edc54208f47f87ae9b01b1d12a6&#45;&gt;dir_961895bef81e67620a5b47a62fb3cb48</title>
<g id="a_edge3"><a xlink:href="dir_000010_000040.html" target="_top">
<path fill="none" stroke="#63b8ff" d="M85.21,-132.34C132.84,-127.25 221.93,-114.69 241,-90.5 248.5,-80.99 247.66,-73.37 241,-63.25 228.51,-44.26 203.87,-35.08 184.32,-30.66"/>
<polygon fill="#63b8ff" stroke="#63b8ff" points="185.22,-27.27 174.74,-28.81 183.89,-34.14 185.22,-27.27"/>
</a>
</g>
<g id="a_edge3&#45;headlabel"><a xlink:href="dir_000010_000040.html" target="_top" xlink:title="6">
<text text-anchor="middle" x="187.8" y="-21" font-family="Helvetica,sans-Serif" font-size="10.00" fill="#63b8ff">6</text>
</a>
</g>
</g>
<!-- dir_52bb8edc54208f47f87ae9b01b1d12a6&#45;&gt;dir_a0e47c104ecd6c0b6dccb5f33d071508 -->
<g id="edge4" class="edge">
<title>dir_52bb8edc54208f47f87ae9b01b1d12a6&#45;&gt;dir_a0e47c104ecd6c0b6dccb5f33d071508</title>
<g id="a_edge4"><a xlink:href="dir_000010_000004.html" target="_top">
<path fill="none" stroke="#63b8ff" d="M85.42,-128.89C124.9,-120.69 195.83,-105.54 256,-90.5 256.81,-90.3 257.64,-90.09 258.47,-89.87"/>
<polygon fill="#63b8ff" stroke="#63b8ff" points="259.12,-93.32 267.88,-87.35 257.31,-86.56 259.12,-93.32"/>
</a>
</g>
<g id="a_edge4&#45;headlabel"><a xlink:href="dir_000010_000004.html" target="_top" xlink:title="5">
<text text-anchor="middle" x="257.85" y="-92.73" font-family="Helvetica,sans-Serif" font-size="10.00" fill="#63b8ff">5</text>
</a>
</g>
</g>
<!-- dir_52bb8edc54208f47f87ae9b01b1d12a6&#45;&gt;dir_bafa501d493553e442f19f5f8dd7b29c -->
<g id="edge6" class="edge">
<title>dir_52bb8edc54208f47f87ae9b01b1d12a6&#45;&gt;dir_bafa501d493553e442f19f5f8dd7b29c</title>
<g id="a_edge6"><a xlink:href="dir_000010_000019.html" target="_top">
<path fill="none" stroke="#63b8ff" d="M85.35,-130.73C131.75,-123.82 223.34,-109.46 311.04,-90.76"/>
<polygon fill="#63b8ff" stroke="#63b8ff" points="311.75,-94.18 320.79,-88.65 310.27,-87.34 311.75,-94.18"/>
</a>
</g>
<g id="a_edge6&#45;headlabel"><a xlink:href="dir_000010_000019.html" target="_top" xlink:title="2">
<text text-anchor="middle" x="310.31" y="-93.52" font-family="Helvetica,sans-Serif" font-size="10.00" fill="#63b8ff">2</text>
</a>
</g>
</g>
<!-- dir_52bb8edc54208f47f87ae9b01b1d12a6&#45;&gt;dir_c450a44cd74e5a974db470ea1cf0577f -->
<g id="edge7" class="edge">
<title>dir_52bb8edc54208f47f87ae9b01b1d12a6&#45;&gt;dir_c450a44cd74e5a974db470ea1cf0577f</title>
<g id="a_edge7"><a xlink:href="dir_000010_000002.html" target="_top">
<path fill="none" stroke="#63b8ff" d="M85.37,-131.51C140.86,-124.77 262.61,-109.43 375.7,-90.8"/>
<polygon fill="#63b8ff" stroke="#63b8ff" points="376.18,-94.27 385.47,-89.17 375.04,-87.36 376.18,-94.27"/>
</a>
</g>
<g id="a_edge7&#45;headlabel"><a xlink:href="dir_000010_000002.html" target="_top" xlink:title="1">
<text text-anchor="middle" x="374.6" y="-93.53" font-family="Helvetica,sans-Serif" font-size="10.00" fill="#63b8ff">1</text>
</a>
</g>
</g>
<!-- dir_a90e6dba9306c22cb15c23481e5b9c4a -->
<g id="node8" class="node">
<title>dir_a90e6dba9306c22cb15c23481e5b9c4a</title>
<g id="a_node8"><a xlink:href="dir_a90e6dba9306c22cb15c23481e5b9c4a.html" target="_top" xlink:title="buffers">
<polygon fill="#a2b4d6" stroke="#404040" points="80.62,-90.5 35.38,-90.5 35.38,-71.25 80.62,-71.25 80.62,-90.5"/>
<text text-anchor="middle" x="58" y="-77" font-family="Helvetica,sans-Serif" font-size="10.00">buffers</text>
</a>
</g>
</g>
<!-- dir_52bb8edc54208f47f87ae9b01b1d12a6&#45;&gt;dir_a90e6dba9306c22cb15c23481e5b9c4a -->
<g id="edge5" class="edge">
<title>dir_52bb8edc54208f47f87ae9b01b1d12a6&#45;&gt;dir_a90e6dba9306c22cb15c23481e5b9c4a</title>
<g id="a_edge5"><a xlink:href="dir_000010_000001.html" target="_top">
<path fill="none" stroke="#63b8ff" d="M55.47,-126.8C55.84,-120.2 56.38,-110.69 56.86,-102.11"/>
<polygon fill="#63b8ff" stroke="#63b8ff" points="60.35,-102.36 57.42,-92.18 53.36,-101.97 60.35,-102.36"/>
</a>
</g>
<g id="a_edge5&#45;headlabel"><a xlink:href="dir_000010_000001.html" target="_top" xlink:title="7">
<text text-anchor="middle" x="63.07" y="-100.72" font-family="Helvetica,sans-Serif" font-size="10.00" fill="#63b8ff">7</text>
</a>
</g>
</g>
<!-- dir_a90e6dba9306c22cb15c23481e5b9c4a&#45;&gt;dir_961895bef81e67620a5b47a62fb3cb48 -->
<g id="edge8" class="edge">
<title>dir_a90e6dba9306c22cb15c23481e5b9c4a&#45;&gt;dir_961895bef81e67620a5b47a62fb3cb48</title>
<g id="a_edge8"><a xlink:href="dir_000001_000040.html" target="_top">
<path fill="none" stroke="#63b8ff" d="M72.17,-70.87C76.27,-68.34 80.78,-65.63 85,-63.25 99.2,-55.23 115.33,-46.85 128.63,-40.14"/>
<polygon fill="#63b8ff" stroke="#63b8ff" points="129.86,-43.43 137.24,-35.82 126.73,-37.17 129.86,-43.43"/>
</a>
</g>
<g id="a_edge8&#45;headlabel"><a xlink:href="dir_000001_000040.html" target="_top" xlink:title="1">
<text text-anchor="middle" x="129.27" y="-43.03" font-family="Helvetica,sans-Serif" font-size="10.00" fill="#63b8ff">1</text>
</a>
</g>
</g>
</g>
</svg>
