<?xml version="1.0" encoding="UTF-8" standalone="no"?>
<!DOCTYPE svg PUBLIC "-//W3C//DTD SVG 1.1//EN"
 "http://www.w3.org/Graphics/SVG/1.1/DTD/svg11.dtd">
<!-- Generated by graphviz version 8.1.0 (20230707.0739)
 -->
<!-- Title: engine/subsystems/render Pages: 1 -->
<svg width="487pt" height="197pt"
 viewBox="0.00 0.00 486.62 197.00" xmlns="http://www.w3.org/2000/svg" xmlns:xlink="http://www.w3.org/1999/xlink">

<svg id="main" version="1.1" xmlns="http://www.w3.org/2000/svg" xmlns:xlink="http://www.w3.org/1999/xlink" xml:space="preserve" onload="init(evt)">
<style type="text/css"><![CDATA[
.node, .edge {opacity: 0.7;}
.node.selected, .edge.selected {opacity: 1;}
.edge:hover path { stroke: red; }
.edge:hover polygon { stroke: red; fill: red; }
]]></style>
<script type="application/ecmascript" xlink:href="svg.min.js"/>
<svg id="graph" class="graph">
<g id="graph0" class="graph" transform="scale(1 1) rotate(0) translate(4 193)">
<title>engine/subsystems/render</title>
<g id="clust1" class="cluster">
<title>clusterdir_55984c57f282dc48266af8a0d45ddadd</title>
<g id="a_clust1"><a xlink:href="dir_55984c57f282dc48266af8a0d45ddadd.html" target="_top" xlink:title="subsystems">
<polygon fill="#edf0f7" stroke="#7f7f7f" stroke-dasharray="5,2" points="8,-8 8,-181 92,-181 92,-8 8,-8"/>
<text text-anchor="middle" x="50" y="-167.5" font-family="Helvetica,sans-Serif" font-size="10.00">subsystems</text>
</a>
</g>
</g>
<g id="clust2" class="cluster">
<title>clusterdir_631d01bd786b3b410df34efb6696164e</title>
<g id="a_clust2"><a xlink:href="dir_631d01bd786b3b410df34efb6696164e.html" target="_top">
<polygon fill="#edf0f7" stroke="#404040" stroke-width="2" points="24,-63.25 24,-153.75 84,-153.75 84,-63.25 24,-63.25"/>
</a>
</g>
</g>
<!-- dir_fffb0536444c266989e4fa626fabed06 -->
<g id="node1" class="node">
<title>dir_fffb0536444c266989e4fa626fabed06</title>
<g id="a_node1"><a xlink:href="dir_fffb0536444c266989e4fa626fabed06.html" target="_top" xlink:title="core">
<polygon fill="#a2b4d6" stroke="#404040" points="61.38,-35.25 26.62,-35.25 26.62,-16 61.38,-16 61.38,-35.25"/>
<text text-anchor="middle" x="44" y="-21.75" font-family="Helvetica,sans-Serif" font-size="10.00">core</text>
</a>
</g>
</g>
<!-- dir_631d01bd786b3b410df34efb6696164e -->
<g id="node2" class="node">
<title>dir_631d01bd786b3b410df34efb6696164e</title>
<text text-anchor="middle" x="54" y="-132.25" font-family="Helvetica,sans-Serif" font-size="10.00">render</text>
</g>
<!-- dir_631d01bd786b3b410df34efb6696164e&#45;&gt;dir_fffb0536444c266989e4fa626fabed06 -->
<g id="edge6" class="edge">
<title>dir_631d01bd786b3b410df34efb6696164e&#45;&gt;dir_fffb0536444c266989e4fa626fabed06</title>
<path fill="none" stroke="#63b8ff" d="M46.85,-126.57C40.23,-118.05 30.84,-104.28 27,-90.5 23.75,-78.83 24.39,-75.08 27,-63.25 28.34,-57.16 30.81,-50.88 33.45,-45.28"/>
<polygon fill="#63b8ff" stroke="#63b8ff" points="36.99,-47.05 38.5,-36.56 30.78,-43.82 36.99,-47.05"/>
<g id="a_edge6&#45;headlabel"><a xlink:href="dir_000031_000005.html" target="_top" xlink:title="13">
<text text-anchor="middle" x="37.85" y="-46.68" font-family="Helvetica,sans-Serif" font-size="10.00" fill="#63b8ff">13</text>
</a>
</g>
</g>
<!-- dir_9d75d78bff579dfd76de3e7111e79cbd -->
<g id="node3" class="node">
<title>dir_9d75d78bff579dfd76de3e7111e79cbd</title>
<g id="a_node3"><a xlink:href="dir_9d75d78bff579dfd76de3e7111e79cbd.html" target="_top" xlink:title="detail">
<polygon fill="#a2b4d6" stroke="#404040" points="75.62,-90.5 36.38,-90.5 36.38,-71.25 75.62,-71.25 75.62,-90.5"/>
<text text-anchor="middle" x="56" y="-77" font-family="Helvetica,sans-Serif" font-size="10.00">detail</text>
</a>
</g>
</g>
<!-- dir_631d01bd786b3b410df34efb6696164e&#45;&gt;dir_9d75d78bff579dfd76de3e7111e79cbd -->
<g id="edge3" class="edge">
<title>dir_631d01bd786b3b410df34efb6696164e&#45;&gt;dir_9d75d78bff579dfd76de3e7111e79cbd</title>
<path fill="none" stroke="#63b8ff" d="M54.31,-126.8C54.57,-120.05 54.93,-110.24 55.26,-101.51"/>
<polygon fill="#63b8ff" stroke="#63b8ff" points="58.79,-101.79 55.67,-91.67 51.8,-101.53 58.79,-101.79"/>
<g id="a_edge3&#45;headlabel"><a xlink:href="dir_000031_000008.html" target="_top" xlink:title="5">
<text text-anchor="middle" x="61.49" y="-100.62" font-family="Helvetica,sans-Serif" font-size="10.00" fill="#63b8ff">5</text>
</a>
</g>
</g>
<!-- dir_52bb8edc54208f47f87ae9b01b1d12a6 -->
<g id="node4" class="node">
<title>dir_52bb8edc54208f47f87ae9b01b1d12a6</title>
<g id="a_node4"><a xlink:href="dir_52bb8edc54208f47f87ae9b01b1d12a6.html" target="_top" xlink:title="direct3d11">
<polygon fill="#edf0f7" stroke="red" stroke-dasharray="5,2" points="277.5,-35.25 216.5,-35.25 216.5,-16 277.5,-16 277.5,-35.25"/>
<text text-anchor="middle" x="247" y="-21.75" font-family="Helvetica,sans-Serif" font-size="10.00">direct3d11</text>
</a>
</g>
</g>
<!-- dir_631d01bd786b3b410df34efb6696164e&#45;&gt;dir_52bb8edc54208f47f87ae9b01b1d12a6 -->
<g id="edge1" class="edge">
<title>dir_631d01bd786b3b410df34efb6696164e&#45;&gt;dir_52bb8edc54208f47f87ae9b01b1d12a6</title>
<path fill="none" stroke="#63b8ff" d="M69.14,-126.61C102.08,-108.1 180.52,-64 221.33,-41.06"/>
<polygon fill="#63b8ff" stroke="#63b8ff" points="222.84,-43.66 229.85,-35.71 219.41,-37.56 222.84,-43.66"/>
<g id="a_edge1&#45;headlabel"><a xlink:href="dir_000031_000010.html" target="_top" xlink:title="5">
<text text-anchor="middle" x="222.1" y="-44.02" font-family="Helvetica,sans-Serif" font-size="10.00" fill="#63b8ff">5</text>
</a>
</g>
</g>
<!-- dir_6eaa9a4b68db9d3a4b16103d94f334fb -->
<g id="node5" class="node">
<title>dir_6eaa9a4b68db9d3a4b16103d94f334fb</title>
<g id="a_node5"><a xlink:href="dir_6eaa9a4b68db9d3a4b16103d94f334fb.html" target="_top" xlink:title="render">
<polygon fill="#edf0f7" stroke="red" stroke-dasharray="5,2" points="338.5,-35.25 295.5,-35.25 295.5,-16 338.5,-16 338.5,-35.25"/>
<text text-anchor="middle" x="317" y="-21.75" font-family="Helvetica,sans-Serif" font-size="10.00">render</text>
</a>
</g>
</g>
<!-- dir_631d01bd786b3b410df34efb6696164e&#45;&gt;dir_6eaa9a4b68db9d3a4b16103d94f334fb -->
<g id="edge2" class="edge">
<title>dir_631d01bd786b3b410df34efb6696164e&#45;&gt;dir_6eaa9a4b68db9d3a4b16103d94f334fb</title>
<path fill="none" stroke="#63b8ff" d="M75.4,-127.63C99.53,-119.08 139.85,-104.46 174,-90.5 213.9,-74.19 259.22,-53.58 287.95,-40.26"/>
<polygon fill="#63b8ff" stroke="#63b8ff" points="289.15,-43.09 296.74,-35.7 286.2,-36.75 289.15,-43.09"/>
<g id="a_edge2&#45;headlabel"><a xlink:href="dir_000031_000030.html" target="_top" xlink:title="14">
<text text-anchor="middle" x="288.09" y="-43.31" font-family="Helvetica,sans-Serif" font-size="10.00" fill="#63b8ff">14</text>
</a>
</g>
</g>
<!-- dir_a0e47c104ecd6c0b6dccb5f33d071508 -->
<g id="node7" class="node">
<title>dir_a0e47c104ecd6c0b6dccb5f33d071508</title>
<g id="a_node7"><a xlink:href="dir_a0e47c104ecd6c0b6dccb5f33d071508.html" target="_top" xlink:title="core">
<polygon fill="#edf0f7" stroke="red" stroke-dasharray="5,2" points="391.38,-35.25 356.62,-35.25 356.62,-16 391.38,-16 391.38,-35.25"/>
<text text-anchor="middle" x="374" y="-21.75" font-family="Helvetica,sans-Serif" font-size="10.00">core</text>
</a>
</g>
</g>
<!-- dir_631d01bd786b3b410df34efb6696164e&#45;&gt;dir_a0e47c104ecd6c0b6dccb5f33d071508 -->
<g id="edge4" class="edge">
<title>dir_631d01bd786b3b410df34efb6696164e&#45;&gt;dir_a0e47c104ecd6c0b6dccb5f33d071508</title>
<path fill="none" stroke="#63b8ff" d="M75.49,-130.3C107.4,-122.92 169,-107.85 220,-90.5 265.1,-75.16 315.87,-53.14 346.37,-39.37"/>
<polygon fill="#63b8ff" stroke="#63b8ff" points="347.62,-42.2 355.27,-34.87 344.72,-35.82 347.62,-42.2"/>
<g id="a_edge4&#45;headlabel"><a xlink:href="dir_000031_000004.html" target="_top" xlink:title="16">
<text text-anchor="middle" x="346.52" y="-42.39" font-family="Helvetica,sans-Serif" font-size="10.00" fill="#63b8ff">16</text>
</a>
</g>
</g>
<!-- dir_c450a44cd74e5a974db470ea1cf0577f -->
<g id="node9" class="node">
<title>dir_c450a44cd74e5a974db470ea1cf0577f</title>
<g id="a_node9"><a xlink:href="dir_c450a44cd74e5a974db470ea1cf0577f.html" target="_top" xlink:title="components">
<polygon fill="#edf0f7" stroke="#7f7f7f" points="478.62,-35.25 409.38,-35.25 409.38,-16 478.62,-16 478.62,-35.25"/>
<text text-anchor="middle" x="444" y="-21.75" font-family="Helvetica,sans-Serif" font-size="10.00">components</text>
</a>
</g>
</g>
<!-- dir_631d01bd786b3b410df34efb6696164e&#45;&gt;dir_c450a44cd74e5a974db470ea1cf0577f -->
<g id="edge5" class="edge">
<title>dir_631d01bd786b3b410df34efb6696164e&#45;&gt;dir_c450a44cd74e5a974db470ea1cf0577f</title>
<path fill="none" stroke="#63b8ff" d="M75.2,-131.74C113.91,-125.32 198.45,-110.26 268,-90.5 319.29,-75.93 377.11,-53.8 412.03,-39.79"/>
<polygon fill="#63b8ff" stroke="#63b8ff" points="413.15,-42.71 421.11,-35.72 410.52,-36.22 413.15,-42.71"/>
<g id="a_edge5&#45;headlabel"><a xlink:href="dir_000031_000002.html" target="_top" xlink:title="9">
<text text-anchor="middle" x="411.88" y="-42.82" font-family="Helvetica,sans-Serif" font-size="10.00" fill="#63b8ff">9</text>
</a>
</g>
</g>
<!-- dir_9d75d78bff579dfd76de3e7111e79cbd&#45;&gt;dir_fffb0536444c266989e4fa626fabed06 -->
<g id="edge13" class="edge">
<title>dir_9d75d78bff579dfd76de3e7111e79cbd&#45;&gt;dir_fffb0536444c266989e4fa626fabed06</title>
<path fill="none" stroke="#63b8ff" d="M54.02,-71.08C52.5,-64.34 50.34,-54.77 48.42,-46.24"/>
<polygon fill="#63b8ff" stroke="#63b8ff" points="51.64,-45.6 46.02,-36.61 44.81,-47.13 51.64,-45.6"/>
<g id="a_edge13&#45;headlabel"><a xlink:href="dir_000008_000005.html" target="_top" xlink:title="9">
<text text-anchor="middle" x="55.2" y="-43.6" font-family="Helvetica,sans-Serif" font-size="10.00" fill="#63b8ff">9</text>
</a>
</g>
</g>
<!-- dir_9d75d78bff579dfd76de3e7111e79cbd&#45;&gt;dir_52bb8edc54208f47f87ae9b01b1d12a6 -->
<g id="edge7" class="edge">
<title>dir_9d75d78bff579dfd76de3e7111e79cbd&#45;&gt;dir_52bb8edc54208f47f87ae9b01b1d12a6</title>
<path fill="none" stroke="#63b8ff" d="M76.08,-74.28C106.7,-65.74 165.72,-49.29 205.73,-38.13"/>
<polygon fill="#63b8ff" stroke="#63b8ff" points="206.53,-41.26 215.22,-35.21 204.65,-34.52 206.53,-41.26"/>
<g id="a_edge7&#45;headlabel"><a xlink:href="dir_000008_000010.html" target="_top" xlink:title="4">
<text text-anchor="middle" x="204.83" y="-41.09" font-family="Helvetica,sans-Serif" font-size="10.00" fill="#63b8ff">4</text>
</a>
</g>
</g>
<!-- dir_9d75d78bff579dfd76de3e7111e79cbd&#45;&gt;dir_6eaa9a4b68db9d3a4b16103d94f334fb -->
<g id="edge8" class="edge">
<title>dir_9d75d78bff579dfd76de3e7111e79cbd&#45;&gt;dir_6eaa9a4b68db9d3a4b16103d94f334fb</title>
<path fill="none" stroke="#63b8ff" d="M75.9,-76.65C114.41,-70.27 201.97,-55.14 284.54,-35.68"/>
<polygon fill="#63b8ff" stroke="#63b8ff" points="285.19,-38.89 294.1,-33.16 283.57,-32.08 285.19,-38.89"/>
<g id="a_edge8&#45;headlabel"><a xlink:href="dir_000008_000030.html" target="_top" xlink:title="13">
<text text-anchor="middle" x="283.35" y="-38.61" font-family="Helvetica,sans-Serif" font-size="10.00" fill="#63b8ff">13</text>
</a>
</g>
</g>
<!-- dir_961895bef81e67620a5b47a62fb3cb48 -->
<g id="node6" class="node">
<title>dir_961895bef81e67620a5b47a62fb3cb48</title>
<g id="a_node6"><a xlink:href="dir_961895bef81e67620a5b47a62fb3cb48.html" target="_top" xlink:title="utils">
<polygon fill="#edf0f7" stroke="red" stroke-dasharray="5,2" points="134,-35.25 100,-35.25 100,-16 134,-16 134,-35.25"/>
<text text-anchor="middle" x="117" y="-21.75" font-family="Helvetica,sans-Serif" font-size="10.00">utils</text>
</a>
</g>
</g>
<!-- dir_9d75d78bff579dfd76de3e7111e79cbd&#45;&gt;dir_961895bef81e67620a5b47a62fb3cb48 -->
<g id="edge9" class="edge">
<title>dir_9d75d78bff579dfd76de3e7111e79cbd&#45;&gt;dir_961895bef81e67620a5b47a62fb3cb48</title>
<path fill="none" stroke="#63b8ff" d="M66.35,-70.84C75.16,-63.15 88.05,-51.9 98.61,-42.68"/>
<polygon fill="#63b8ff" stroke="#63b8ff" points="100.57,-44.74 105.81,-35.52 95.97,-39.46 100.57,-44.74"/>
<g id="a_edge9&#45;headlabel"><a xlink:href="dir_000008_000040.html" target="_top" xlink:title="4">
<text text-anchor="middle" x="100.73" y="-45.37" font-family="Helvetica,sans-Serif" font-size="10.00" fill="#63b8ff">4</text>
</a>
</g>
</g>
<!-- dir_9d75d78bff579dfd76de3e7111e79cbd&#45;&gt;dir_a0e47c104ecd6c0b6dccb5f33d071508 -->
<g id="edge10" class="edge">
<title>dir_9d75d78bff579dfd76de3e7111e79cbd&#45;&gt;dir_a0e47c104ecd6c0b6dccb5f33d071508</title>
<path fill="none" stroke="#63b8ff" d="M76.05,-77.99C122.17,-73.4 239.39,-60.35 345.64,-35.49"/>
<polygon fill="#63b8ff" stroke="#63b8ff" points="346.3,-38.69 355.21,-32.97 344.67,-31.88 346.3,-38.69"/>
<g id="a_edge10&#45;headlabel"><a xlink:href="dir_000008_000004.html" target="_top" xlink:title="14">
<text text-anchor="middle" x="344.46" y="-38.41" font-family="Helvetica,sans-Serif" font-size="10.00" fill="#63b8ff">14</text>
</a>
</g>
</g>
<!-- dir_bafa501d493553e442f19f5f8dd7b29c -->
<g id="node8" class="node">
<title>dir_bafa501d493553e442f19f5f8dd7b29c</title>
<g id="a_node8"><a xlink:href="dir_bafa501d493553e442f19f5f8dd7b29c.html" target="_top" xlink:title="include">
<polygon fill="#edf0f7" stroke="#7f7f7f" points="198.38,-35.25 151.62,-35.25 151.62,-16 198.38,-16 198.38,-35.25"/>
<text text-anchor="middle" x="175" y="-21.75" font-family="Helvetica,sans-Serif" font-size="10.00">include</text>
</a>
</g>
</g>
<!-- dir_9d75d78bff579dfd76de3e7111e79cbd&#45;&gt;dir_bafa501d493553e442f19f5f8dd7b29c -->
<g id="edge11" class="edge">
<title>dir_9d75d78bff579dfd76de3e7111e79cbd&#45;&gt;dir_bafa501d493553e442f19f5f8dd7b29c</title>
<path fill="none" stroke="#63b8ff" d="M75.92,-70.96C94.68,-62.57 123.06,-49.87 144.64,-40.21"/>
<polygon fill="#63b8ff" stroke="#63b8ff" points="145.92,-43.02 153.62,-35.75 143.06,-36.64 145.92,-43.02"/>
<g id="a_edge11&#45;headlabel"><a xlink:href="dir_000008_000019.html" target="_top" xlink:title="3">
<text text-anchor="middle" x="144.8" y="-43.21" font-family="Helvetica,sans-Serif" font-size="10.00" fill="#63b8ff">3</text>
</a>
</g>
</g>
<!-- dir_9d75d78bff579dfd76de3e7111e79cbd&#45;&gt;dir_c450a44cd74e5a974db470ea1cf0577f -->
<g id="edge12" class="edge">
<title>dir_9d75d78bff579dfd76de3e7111e79cbd&#45;&gt;dir_c450a44cd74e5a974db470ea1cf0577f</title>
<path fill="none" stroke="#63b8ff" d="M75.84,-77.75C127.26,-72.17 269.2,-56.13 398.13,-35.46"/>
<polygon fill="#63b8ff" stroke="#63b8ff" points="398.66,-38.76 407.97,-33.7 397.54,-31.85 398.66,-38.76"/>
<g id="a_edge12&#45;headlabel"><a xlink:href="dir_000008_000002.html" target="_top" xlink:title="7">
<text text-anchor="middle" x="396.56" y="-38.26" font-family="Helvetica,sans-Serif" font-size="10.00" fill="#63b8ff">7</text>
</a>
</g>
</g>
</g>
</svg>
</svg>

<style type='text/css'>
<![CDATA[
[data-mouse-over-selected='false'] { opacity: 0.7; }
[data-mouse-over-selected='true']  { opacity: 1.0; }
]]>
</style>
<script type="application/ecmascript"><![CDATA[
document.addEventListener('DOMContentLoaded', (event) => {
  highlightEdges();
  highlightAdjacentNodes();
});
]]></script>
</svg>
