<?xml version="1.0" encoding="UTF-8" standalone="no"?>
<!DOCTYPE svg PUBLIC "-//W3C//DTD SVG 1.1//EN"
 "http://www.w3.org/Graphics/SVG/1.1/DTD/svg11.dtd">
<!-- Generated by graphviz version 9.0.0 (20230911.1827)
 -->
<!-- Title: engine/subsystems/render Pages: 1 -->
<svg width="487pt" height="197pt"
 viewBox="0.00 0.00 486.62 197.00" xmlns="http://www.w3.org/2000/svg" xmlns:xlink="http://www.w3.org/1999/xlink">
<g id="graph0" class="graph" transform="scale(1 1) rotate(0) translate(4 193)">
<title>engine/subsystems/render</title>
<g id="clust1" class="cluster">
<title>clusterdir_55984c57f282dc48266af8a0d45ddadd</title>
<g id="a_clust1"><a xlink:href="dir_55984c57f282dc48266af8a0d45ddadd.html" target="_top" xlink:title="subsystems">
<polygon fill="#edf0f7" stroke="#7f7f7f" stroke-dasharray="5,2" points="8,-8 8,-181 92,-181 92,-8 8,-8"/>
<text text-anchor="middle" x="50" y="-167.5" font-family="Helvetica,sans-Serif" font-size="10.00">subsystems</text>
</a>
</g>
</g>
<g id="clust2" class="cluster">
<title>clusterdir_631d01bd786b3b410df34efb6696164e</title>
<g id="a_clust2"><a xlink:href="dir_631d01bd786b3b410df34efb6696164e.html" target="_top">
<polygon fill="#edf0f7" stroke="#404040" stroke-width="2" points="24,-63.25 24,-153.75 84,-153.75 84,-63.25 24,-63.25"/>
</a>
</g>
</g>
<!-- dir_fffb0536444c266989e4fa626fabed06 -->
<g id="node1" class="node">
<title>dir_fffb0536444c266989e4fa626fabed06</title>
<g id="a_node1"><a xlink:href="dir_fffb0536444c266989e4fa626fabed06.html" target="_top" xlink:title="core">
<polygon fill="#a2b4d6" stroke="#404040" points="61.38,-35.25 26.62,-35.25 26.62,-16 61.38,-16 61.38,-35.25"/>
<text text-anchor="middle" x="44" y="-21.75" font-family="Helvetica,sans-Serif" font-size="10.00">core</text>
</a>
</g>
</g>
<!-- dir_631d01bd786b3b410df34efb6696164e -->
<g id="node2" class="node">
<title>dir_631d01bd786b3b410df34efb6696164e</title>
<text text-anchor="middle" x="54" y="-132.25" font-family="Helvetica,sans-Serif" font-size="10.00">render</text>
</g>
<!-- dir_631d01bd786b3b410df34efb6696164e&#45;&gt;dir_fffb0536444c266989e4fa626fabed06 -->
<g id="edge6" class="edge">
<title>dir_631d01bd786b3b410df34efb6696164e&#45;&gt;dir_fffb0536444c266989e4fa626fabed06</title>
<g id="a_edge6"><a xlink:href="dir_000031_000005.html" target="_top">
<path fill="none" stroke="#63b8ff" d="M46.85,-126.57C40.23,-118.05 30.84,-104.28 27,-90.5 23.75,-78.83 24.39,-75.08 27,-63.25 28.31,-57.32 30.68,-51.2 33.25,-45.71"/>
<polygon fill="#63b8ff" stroke="#63b8ff" points="36.31,-47.4 37.81,-36.91 30.1,-44.18 36.31,-47.4"/>
</a>
</g>
<g id="a_edge6&#45;headlabel"><a xlink:href="dir_000031_000005.html" target="_top" xlink:title="13">
<text text-anchor="middle" x="37.88" y="-46.68" font-family="Helvetica,sans-Serif" font-size="10.00" fill="#63b8ff">13</text>
</a>
</g>
</g>
<!-- dir_9d75d78bff579dfd76de3e7111e79cbd -->
<g id="node3" class="node">
<title>dir_9d75d78bff579dfd76de3e7111e79cbd</title>
<g id="a_node3"><a xlink:href="dir_9d75d78bff579dfd76de3e7111e79cbd.html" target="_top" xlink:title="detail">
<polygon fill="#a2b4d6" stroke="#404040" points="75.62,-90.5 36.38,-90.5 36.38,-71.25 75.62,-71.25 75.62,-90.5"/>
<text text-anchor="middle" x="56" y="-77" font-family="Helvetica,sans-Serif" font-size="10.00">detail</text>
</a>
</g>
</g>
<!-- dir_631d01bd786b3b410df34efb6696164e&#45;&gt;dir_9d75d78bff579dfd76de3e7111e79cbd -->
<g id="edge3" class="edge">
<title>dir_631d01bd786b3b410df34efb6696164e&#45;&gt;dir_9d75d78bff579dfd76de3e7111e79cbd</title>
<g id="a_edge3"><a xlink:href="dir_000031_000008.html" target="_top">
<path fill="none" stroke="#63b8ff" d="M54.31,-126.8C54.56,-120.2 54.92,-110.69 55.24,-102.11"/>
<polygon fill="#63b8ff" stroke="#63b8ff" points="58.74,-102.3 55.61,-92.18 51.74,-102.04 58.74,-102.3"/>
</a>
</g>
<g id="a_edge3&#45;headlabel"><a xlink:href="dir_000031_000008.html" target="_top" xlink:title="5">
<text text-anchor="middle" x="61.49" y="-100.62" font-family="Helvetica,sans-Serif" font-size="10.00" fill="#63b8ff">5</text>
</a>
</g>
</g>
<!-- dir_52bb8edc54208f47f87ae9b01b1d12a6 -->
<g id="node4" class="node">
<title>dir_52bb8edc54208f47f87ae9b01b1d12a6</title>
<g id="a_node4"><a xlink:href="dir_52bb8edc54208f47f87ae9b01b1d12a6.html" target="_top" xlink:title="direct3d11">
<polygon fill="#edf0f7" stroke="red" stroke-dasharray="5,2" points="277.5,-35.25 216.5,-35.25 216.5,-16 277.5,-16 277.5,-35.25"/>
<text text-anchor="middle" x="247" y="-21.75" font-family="Helvetica,sans-Serif" font-size="10.00">direct3d11</text>
</a>
</g>
</g>
<!-- dir_631d01bd786b3b410df34efb6696164e&#45;&gt;dir_52bb8edc54208f47f87ae9b01b1d12a6 -->
<g id="edge1" class="edge">
<title>dir_631d01bd786b3b410df34efb6696164e&#45;&gt;dir_52bb8edc54208f47f87ae9b01b1d12a6</title>
<g id="a_edge1"><a xlink:href="dir_000031_000010.html" target="_top">
<path fill="none" stroke="#63b8ff" d="M69.14,-126.61C102.01,-108.14 180.18,-64.19 221.07,-41.2"/>
<polygon fill="#63b8ff" stroke="#63b8ff" points="222.52,-44.4 229.53,-36.45 219.09,-38.3 222.52,-44.4"/>
</a>
</g>
<g id="a_edge1&#45;headlabel"><a xlink:href="dir_000031_000010.html" target="_top" xlink:title="5">
<text text-anchor="middle" x="222.1" y="-44.02" font-family="Helvetica,sans-Serif" font-size="10.00" fill="#63b8ff">5</text>
</a>
</g>
</g>
<!-- dir_6eaa9a4b68db9d3a4b16103d94f334fb -->
<g id="node5" class="node">
<title>dir_6eaa9a4b68db9d3a4b16103d94f334fb</title>
<g id="a_node5"><a xlink:href="dir_6eaa9a4b68db9d3a4b16103d94f334fb.html" target="_top" xlink:title="render">
<polygon fill="#edf0f7" stroke="red" stroke-dasharray="5,2" points="338.5,-35.25 295.5,-35.25 295.5,-16 338.5,-16 338.5,-35.25"/>
<text text-anchor="middle" x="317" y="-21.75" font-family="Helvetica,sans-Serif" font-size="10.00">render</text>
</a>
</g>
</g>
<!-- dir_631d01bd786b3b410df34efb6696164e&#45;&gt;dir_6eaa9a4b68db9d3a4b16103d94f334fb -->
<g id="edge2" class="edge">
<title>dir_631d01bd786b3b410df34efb6696164e&#45;&gt;dir_6eaa9a4b68db9d3a4b16103d94f334fb</title>
<g id="a_edge2"><a xlink:href="dir_000031_000030.html" target="_top">
<path fill="none" stroke="#63b8ff" d="M75.4,-127.63C99.53,-119.08 139.85,-104.46 174,-90.5 213.73,-74.26 258.82,-53.77 287.57,-40.43"/>
<polygon fill="#63b8ff" stroke="#63b8ff" points="288.78,-43.73 296.37,-36.34 285.83,-37.39 288.78,-43.73"/>
</a>
</g>
<g id="a_edge2&#45;headlabel"><a xlink:href="dir_000031_000030.html" target="_top" xlink:title="14">
<text text-anchor="middle" x="288.09" y="-43.31" font-family="Helvetica,sans-Serif" font-size="10.00" fill="#63b8ff">14</text>
</a>
</g>
</g>
<!-- dir_a0e47c104ecd6c0b6dccb5f33d071508 -->
<g id="node7" class="node">
<title>dir_a0e47c104ecd6c0b6dccb5f33d071508</title>
<g id="a_node7"><a xlink:href="dir_a0e47c104ecd6c0b6dccb5f33d071508.html" target="_top" xlink:title="core">
<polygon fill="#edf0f7" stroke="red" stroke-dasharray="5,2" points="391.38,-35.25 356.62,-35.25 356.62,-16 391.38,-16 391.38,-35.25"/>
<text text-anchor="middle" x="374" y="-21.75" font-family="Helvetica,sans-Serif" font-size="10.00">core</text>
</a>
</g>
</g>
<!-- dir_631d01bd786b3b410df34efb6696164e&#45;&gt;dir_a0e47c104ecd6c0b6dccb5f33d071508 -->
<g id="edge4" class="edge">
<title>dir_631d01bd786b3b410df34efb6696164e&#45;&gt;dir_a0e47c104ecd6c0b6dccb5f33d071508</title>
<g id="a_edge4"><a xlink:href="dir_000031_000004.html" target="_top">
<path fill="none" stroke="#63b8ff" d="M75.49,-130.3C107.4,-122.92 169,-107.85 220,-90.5 264.91,-75.22 315.43,-53.33 345.97,-39.55"/>
<polygon fill="#63b8ff" stroke="#63b8ff" points="347.24,-42.82 354.89,-35.5 344.34,-36.45 347.24,-42.82"/>
</a>
</g>
<g id="a_edge4&#45;headlabel"><a xlink:href="dir_000031_000004.html" target="_top" xlink:title="16">
<text text-anchor="middle" x="346.52" y="-42.39" font-family="Helvetica,sans-Serif" font-size="10.00" fill="#63b8ff">16</text>
</a>
</g>
</g>
<!-- dir_c450a44cd74e5a974db470ea1cf0577f -->
<g id="node9" class="node">
<title>dir_c450a44cd74e5a974db470ea1cf0577f</title>
<g id="a_node9"><a xlink:href="dir_c450a44cd74e5a974db470ea1cf0577f.html" target="_top" xlink:title="components">
<polygon fill="#edf0f7" stroke="#7f7f7f" points="478.62,-35.25 409.38,-35.25 409.38,-16 478.62,-16 478.62,-35.25"/>
<text text-anchor="middle" x="444" y="-21.75" font-family="Helvetica,sans-Serif" font-size="10.00">components</text>
</a>
</g>
</g>
<!-- dir_631d01bd786b3b410df34efb6696164e&#45;&gt;dir_c450a44cd74e5a974db470ea1cf0577f -->
<g id="edge5" class="edge">
<title>dir_631d01bd786b3b410df34efb6696164e&#45;&gt;dir_c450a44cd74e5a974db470ea1cf0577f</title>
<g id="a_edge5"><a xlink:href="dir_000031_000002.html" target="_top">
<path fill="none" stroke="#63b8ff" d="M75.2,-131.74C113.91,-125.32 198.45,-110.26 268,-90.5 319.07,-75.99 376.61,-53.99 411.58,-39.97"/>
<polygon fill="#63b8ff" stroke="#63b8ff" points="412.74,-43.28 420.7,-36.29 410.12,-36.79 412.74,-43.28"/>
</a>
</g>
<g id="a_edge5&#45;headlabel"><a xlink:href="dir_000031_000002.html" target="_top" xlink:title="9">
<text text-anchor="middle" x="411.88" y="-42.82" font-family="Helvetica,sans-Serif" font-size="10.00" fill="#63b8ff">9</text>
</a>
</g>
</g>
<!-- dir_9d75d78bff579dfd76de3e7111e79cbd&#45;&gt;dir_fffb0536444c266989e4fa626fabed06 -->
<g id="edge13" class="edge">
<title>dir_9d75d78bff579dfd76de3e7111e79cbd&#45;&gt;dir_fffb0536444c266989e4fa626fabed06</title>
<g id="a_edge13"><a xlink:href="dir_000008_000005.html" target="_top">
<path fill="none" stroke="#63b8ff" d="M54.02,-71.08C52.53,-64.49 50.44,-55.21 48.55,-46.82"/>
<polygon fill="#63b8ff" stroke="#63b8ff" points="51.97,-46.07 46.36,-37.09 45.14,-47.61 51.97,-46.07"/>
</a>
</g>
<g id="a_edge13&#45;headlabel"><a xlink:href="dir_000008_000005.html" target="_top" xlink:title="9">
<text text-anchor="middle" x="55.2" y="-43.6" font-family="Helvetica,sans-Serif" font-size="10.00" fill="#63b8ff">9</text>
</a>
</g>
</g>
<!-- dir_9d75d78bff579dfd76de3e7111e79cbd&#45;&gt;dir_52bb8edc54208f47f87ae9b01b1d12a6 -->
<g id="edge7" class="edge">
<title>dir_9d75d78bff579dfd76de3e7111e79cbd&#45;&gt;dir_52bb8edc54208f47f87ae9b01b1d12a6</title>
<g id="a_edge7"><a xlink:href="dir_000008_000010.html" target="_top">
<path fill="none" stroke="#63b8ff" d="M76.08,-74.28C106.57,-65.78 165.21,-49.43 205.22,-38.27"/>
<polygon fill="#63b8ff" stroke="#63b8ff" points="206.07,-41.67 214.77,-35.61 204.19,-34.93 206.07,-41.67"/>
</a>
</g>
<g id="a_edge7&#45;headlabel"><a xlink:href="dir_000008_000010.html" target="_top" xlink:title="4">
<text text-anchor="middle" x="204.83" y="-41.09" font-family="Helvetica,sans-Serif" font-size="10.00" fill="#63b8ff">4</text>
</a>
</g>
</g>
<!-- dir_9d75d78bff579dfd76de3e7111e79cbd&#45;&gt;dir_6eaa9a4b68db9d3a4b16103d94f334fb -->
<g id="edge8" class="edge">
<title>dir_9d75d78bff579dfd76de3e7111e79cbd&#45;&gt;dir_6eaa9a4b68db9d3a4b16103d94f334fb</title>
<g id="a_edge8"><a xlink:href="dir_000008_000030.html" target="_top">
<path fill="none" stroke="#63b8ff" d="M75.9,-76.65C114.33,-70.28 201.61,-55.2 284.04,-35.8"/>
<polygon fill="#63b8ff" stroke="#63b8ff" points="284.72,-39.24 293.63,-33.51 283.09,-32.43 284.72,-39.24"/>
</a>
</g>
<g id="a_edge8&#45;headlabel"><a xlink:href="dir_000008_000030.html" target="_top" xlink:title="13">
<text text-anchor="middle" x="283.35" y="-38.61" font-family="Helvetica,sans-Serif" font-size="10.00" fill="#63b8ff">13</text>
</a>
</g>
</g>
<!-- dir_961895bef81e67620a5b47a62fb3cb48 -->
<g id="node6" class="node">
<title>dir_961895bef81e67620a5b47a62fb3cb48</title>
<g id="a_node6"><a xlink:href="dir_961895bef81e67620a5b47a62fb3cb48.html" target="_top" xlink:title="utils">
<polygon fill="#edf0f7" stroke="red" stroke-dasharray="5,2" points="134,-35.25 100,-35.25 100,-16 134,-16 134,-35.25"/>
<text text-anchor="middle" x="117" y="-21.75" font-family="Helvetica,sans-Serif" font-size="10.00">utils</text>
</a>
</g>
</g>
<!-- dir_9d75d78bff579dfd76de3e7111e79cbd&#45;&gt;dir_961895bef81e67620a5b47a62fb3cb48 -->
<g id="edge9" class="edge">
<title>dir_9d75d78bff579dfd76de3e7111e79cbd&#45;&gt;dir_961895bef81e67620a5b47a62fb3cb48</title>
<g id="a_edge9"><a xlink:href="dir_000008_000040.html" target="_top">
<path fill="none" stroke="#63b8ff" d="M66.35,-70.84C75.08,-63.22 87.79,-52.12 98.3,-42.95"/>
<polygon fill="#63b8ff" stroke="#63b8ff" points="100.43,-45.73 105.66,-36.52 95.83,-40.46 100.43,-45.73"/>
</a>
</g>
<g id="a_edge9&#45;headlabel"><a xlink:href="dir_000008_000040.html" target="_top" xlink:title="4">
<text text-anchor="middle" x="100.73" y="-45.37" font-family="Helvetica,sans-Serif" font-size="10.00" fill="#63b8ff">4</text>
</a>
</g>
</g>
<!-- dir_9d75d78bff579dfd76de3e7111e79cbd&#45;&gt;dir_a0e47c104ecd6c0b6dccb5f33d071508 -->
<g id="edge10" class="edge">
<title>dir_9d75d78bff579dfd76de3e7111e79cbd&#45;&gt;dir_a0e47c104ecd6c0b6dccb5f33d071508</title>
<g id="a_edge10"><a xlink:href="dir_000008_000004.html" target="_top">
<path fill="none" stroke="#63b8ff" d="M76.05,-77.99C122.12,-73.41 239.16,-60.37 345.32,-35.56"/>
<polygon fill="#63b8ff" stroke="#63b8ff" points="345.82,-39.04 354.74,-33.32 344.2,-32.23 345.82,-39.04"/>
</a>
</g>
<g id="a_edge10&#45;headlabel"><a xlink:href="dir_000008_000004.html" target="_top" xlink:title="14">
<text text-anchor="middle" x="344.46" y="-38.41" font-family="Helvetica,sans-Serif" font-size="10.00" fill="#63b8ff">14</text>
</a>
</g>
</g>
<!-- dir_bafa501d493553e442f19f5f8dd7b29c -->
<g id="node8" class="node">
<title>dir_bafa501d493553e442f19f5f8dd7b29c</title>
<g id="a_node8"><a xlink:href="dir_bafa501d493553e442f19f5f8dd7b29c.html" target="_top" xlink:title="include">
<polygon fill="#edf0f7" stroke="#7f7f7f" points="198.38,-35.25 151.62,-35.25 151.62,-16 198.38,-16 198.38,-35.25"/>
<text text-anchor="middle" x="175" y="-21.75" font-family="Helvetica,sans-Serif" font-size="10.00">include</text>
</a>
</g>
</g>
<!-- dir_9d75d78bff579dfd76de3e7111e79cbd&#45;&gt;dir_bafa501d493553e442f19f5f8dd7b29c -->
<g id="edge11" class="edge">
<title>dir_9d75d78bff579dfd76de3e7111e79cbd&#45;&gt;dir_bafa501d493553e442f19f5f8dd7b29c</title>
<g id="a_edge11"><a xlink:href="dir_000008_000019.html" target="_top">
<path fill="none" stroke="#63b8ff" d="M75.92,-70.96C94.6,-62.6 122.8,-49.98 144.35,-40.34"/>
<polygon fill="#63b8ff" stroke="#63b8ff" points="145.54,-43.64 153.24,-36.36 142.68,-37.25 145.54,-43.64"/>
</a>
</g>
<g id="a_edge11&#45;headlabel"><a xlink:href="dir_000008_000019.html" target="_top" xlink:title="3">
<text text-anchor="middle" x="144.8" y="-43.21" font-family="Helvetica,sans-Serif" font-size="10.00" fill="#63b8ff">3</text>
</a>
</g>
</g>
<!-- dir_9d75d78bff579dfd76de3e7111e79cbd&#45;&gt;dir_c450a44cd74e5a974db470ea1cf0577f -->
<g id="edge12" class="edge">
<title>dir_9d75d78bff579dfd76de3e7111e79cbd&#45;&gt;dir_c450a44cd74e5a974db470ea1cf0577f</title>
<g id="a_edge12"><a xlink:href="dir_000008_000002.html" target="_top">
<path fill="none" stroke="#63b8ff" d="M75.84,-77.75C127.2,-72.17 268.92,-56.16 397.74,-35.52"/>
<polygon fill="#63b8ff" stroke="#63b8ff" points="398.17,-39 407.48,-33.94 397.05,-32.09 398.17,-39"/>
</a>
</g>
<g id="a_edge12&#45;headlabel"><a xlink:href="dir_000008_000002.html" target="_top" xlink:title="7">
<text text-anchor="middle" x="396.56" y="-38.26" font-family="Helvetica,sans-Serif" font-size="10.00" fill="#63b8ff">7</text>
</a>
</g>
</g>
</g>
</svg>
