<?xml version="1.0" encoding="UTF-8" standalone="no"?>
<!DOCTYPE svg PUBLIC "-//W3C//DTD SVG 1.1//EN"
 "http://www.w3.org/Graphics/SVG/1.1/DTD/svg11.dtd">
<!-- Generated by graphviz version 8.1.0 (20230707.0739)
 -->
<!-- Title: engine/render Pages: 1 -->
<svg width="358pt" height="197pt"
 viewBox="0.00 0.00 358.00 197.00" xmlns="http://www.w3.org/2000/svg" xmlns:xlink="http://www.w3.org/1999/xlink">
<g id="graph0" class="graph" transform="scale(1 1) rotate(0) translate(4 193)">
<title>engine/render</title>
<g id="clust1" class="cluster">
<title>clusterdir_996f45160da62e1a3d7f6046fad68f51</title>
<g id="a_clust1"><a xlink:href="dir_996f45160da62e1a3d7f6046fad68f51.html" target="_top" xlink:title="engine">
<polygon fill="#edf0f7" stroke="#404040" stroke-dasharray="5,2" points="8,-8 8,-181 342,-181 342,-8 8,-8"/>
<text text-anchor="middle" x="175" y="-167.5" font-family="Helvetica,sans-Serif" font-size="10.00">engine</text>
</a>
</g>
</g>
<g id="clust2" class="cluster">
<title>clusterdir_6eaa9a4b68db9d3a4b16103d94f334fb</title>
<g id="a_clust2"><a xlink:href="dir_6eaa9a4b68db9d3a4b16103d94f334fb.html" target="_top">
<polygon fill="#edf0f7" stroke="#404040" stroke-width="2" points="28,-63.25 28,-153.75 94,-153.75 94,-63.25 28,-63.25"/>
</a>
</g>
</g>
<!-- dir_52bb8edc54208f47f87ae9b01b1d12a6 -->
<g id="node1" class="node">
<title>dir_52bb8edc54208f47f87ae9b01b1d12a6</title>
<g id="a_node1"><a xlink:href="dir_52bb8edc54208f47f87ae9b01b1d12a6.html" target="_top" xlink:title="direct3d11">
<polygon fill="#a2b4d6" stroke="red" points="84.5,-35.25 23.5,-35.25 23.5,-16 84.5,-16 84.5,-35.25"/>
<text text-anchor="middle" x="54" y="-21.75" font-family="Helvetica,sans-Serif" font-size="10.00">direct3d11</text>
</a>
</g>
</g>
<!-- dir_55984c57f282dc48266af8a0d45ddadd -->
<g id="node2" class="node">
<title>dir_55984c57f282dc48266af8a0d45ddadd</title>
<g id="a_node2"><a xlink:href="dir_55984c57f282dc48266af8a0d45ddadd.html" target="_top" xlink:title="subsystems">
<polygon fill="#a2b4d6" stroke="red" points="173.25,-90.5 104.75,-90.5 104.75,-71.25 173.25,-71.25 173.25,-90.5"/>
<text text-anchor="middle" x="139" y="-77" font-family="Helvetica,sans-Serif" font-size="10.00">subsystems</text>
</a>
</g>
</g>
<!-- dir_a0e47c104ecd6c0b6dccb5f33d071508 -->
<g id="node3" class="node">
<title>dir_a0e47c104ecd6c0b6dccb5f33d071508</title>
<g id="a_node3"><a xlink:href="dir_a0e47c104ecd6c0b6dccb5f33d071508.html" target="_top" xlink:title="core">
<polygon fill="#a2b4d6" stroke="red" points="226.38,-90.5 191.62,-90.5 191.62,-71.25 226.38,-71.25 226.38,-90.5"/>
<text text-anchor="middle" x="209" y="-77" font-family="Helvetica,sans-Serif" font-size="10.00">core</text>
</a>
</g>
</g>
<!-- dir_bafa501d493553e442f19f5f8dd7b29c -->
<g id="node4" class="node">
<title>dir_bafa501d493553e442f19f5f8dd7b29c</title>
<g id="a_node4"><a xlink:href="dir_bafa501d493553e442f19f5f8dd7b29c.html" target="_top" xlink:title="include">
<polygon fill="#a2b4d6" stroke="#404040" points="208.38,-35.25 161.62,-35.25 161.62,-16 208.38,-16 208.38,-35.25"/>
<text text-anchor="middle" x="185" y="-21.75" font-family="Helvetica,sans-Serif" font-size="10.00">include</text>
</a>
</g>
</g>
<!-- dir_c450a44cd74e5a974db470ea1cf0577f -->
<g id="node5" class="node">
<title>dir_c450a44cd74e5a974db470ea1cf0577f</title>
<g id="a_node5"><a xlink:href="dir_c450a44cd74e5a974db470ea1cf0577f.html" target="_top" xlink:title="components">
<polygon fill="#a2b4d6" stroke="#404040" points="333.62,-90.5 264.38,-90.5 264.38,-71.25 333.62,-71.25 333.62,-90.5"/>
<text text-anchor="middle" x="299" y="-77" font-family="Helvetica,sans-Serif" font-size="10.00">components</text>
</a>
</g>
</g>
<!-- dir_6eaa9a4b68db9d3a4b16103d94f334fb -->
<g id="node6" class="node">
<title>dir_6eaa9a4b68db9d3a4b16103d94f334fb</title>
<text text-anchor="middle" x="64" y="-132.25" font-family="Helvetica,sans-Serif" font-size="10.00">render</text>
</g>
<!-- dir_6eaa9a4b68db9d3a4b16103d94f334fb&#45;&gt;dir_52bb8edc54208f47f87ae9b01b1d12a6 -->
<g id="edge2" class="edge">
<title>dir_6eaa9a4b68db9d3a4b16103d94f334fb&#45;&gt;dir_52bb8edc54208f47f87ae9b01b1d12a6</title>
<path fill="none" stroke="#63b8ff" d="M53.91,-126.78C44.9,-118.61 32.33,-105.27 27,-90.5 22.89,-79.11 23.22,-74.76 27,-63.25 29.3,-56.26 33.5,-49.5 37.92,-43.74"/>
<polygon fill="#63b8ff" stroke="#63b8ff" points="41.01,-46.5 44.79,-36.61 35.66,-41.98 41.01,-46.5"/>
<g id="a_edge2&#45;headlabel"><a xlink:href="dir_000030_000010.html" target="_top" xlink:title="3">
<text text-anchor="middle" x="40.86" y="-46.21" font-family="Helvetica,sans-Serif" font-size="10.00" fill="#63b8ff">3</text>
</a>
</g>
</g>
<!-- dir_6eaa9a4b68db9d3a4b16103d94f334fb&#45;&gt;dir_55984c57f282dc48266af8a0d45ddadd -->
<g id="edge3" class="edge">
<title>dir_6eaa9a4b68db9d3a4b16103d94f334fb&#45;&gt;dir_55984c57f282dc48266af8a0d45ddadd</title>
<path fill="none" stroke="#63b8ff" d="M76.05,-126.57C87.22,-118.64 104.09,-106.66 117.56,-97.1"/>
<polygon fill="#63b8ff" stroke="#63b8ff" points="119.1,-99.59 125.23,-90.94 115.05,-93.88 119.1,-99.59"/>
<g id="a_edge3&#45;headlabel"><a xlink:href="dir_000030_000037.html" target="_top" xlink:title="16">
<text text-anchor="middle" x="118.81" y="-100.11" font-family="Helvetica,sans-Serif" font-size="10.00" fill="#63b8ff">16</text>
</a>
</g>
</g>
<!-- dir_6eaa9a4b68db9d3a4b16103d94f334fb&#45;&gt;dir_a0e47c104ecd6c0b6dccb5f33d071508 -->
<g id="edge4" class="edge">
<title>dir_6eaa9a4b68db9d3a4b16103d94f334fb&#45;&gt;dir_a0e47c104ecd6c0b6dccb5f33d071508</title>
<path fill="none" stroke="#63b8ff" d="M85.4,-127.27C110.71,-117.97 152.94,-102.46 180.88,-92.2"/>
<polygon fill="#63b8ff" stroke="#63b8ff" points="181.99,-95.15 190.17,-88.42 179.58,-88.58 181.99,-95.15"/>
<g id="a_edge4&#45;headlabel"><a xlink:href="dir_000030_000004.html" target="_top" xlink:title="6">
<text text-anchor="middle" x="180.6" y="-95.18" font-family="Helvetica,sans-Serif" font-size="10.00" fill="#63b8ff">6</text>
</a>
</g>
</g>
<!-- dir_6eaa9a4b68db9d3a4b16103d94f334fb&#45;&gt;dir_bafa501d493553e442f19f5f8dd7b29c -->
<g id="edge5" class="edge">
<title>dir_6eaa9a4b68db9d3a4b16103d94f334fb&#45;&gt;dir_bafa501d493553e442f19f5f8dd7b29c</title>
<path fill="none" stroke="#63b8ff" d="M85.39,-132.76C127.07,-127.67 216.71,-114.17 235,-90.5 242.4,-80.92 240.48,-74.05 235,-63.25 230.47,-54.32 222.64,-47.05 214.49,-41.41"/>
<polygon fill="#63b8ff" stroke="#63b8ff" points="216.67,-38.02 206.33,-35.72 212.98,-43.97 216.67,-38.02"/>
<g id="a_edge5&#45;headlabel"><a xlink:href="dir_000030_000019.html" target="_top" xlink:title="3">
<text text-anchor="middle" x="220.22" y="-33.62" font-family="Helvetica,sans-Serif" font-size="10.00" fill="#63b8ff">3</text>
</a>
</g>
</g>
<!-- dir_6eaa9a4b68db9d3a4b16103d94f334fb&#45;&gt;dir_c450a44cd74e5a974db470ea1cf0577f -->
<g id="edge6" class="edge">
<title>dir_6eaa9a4b68db9d3a4b16103d94f334fb&#45;&gt;dir_c450a44cd74e5a974db470ea1cf0577f</title>
<path fill="none" stroke="#63b8ff" d="M85.27,-130.31C123.06,-121.74 202.68,-103.7 253.36,-92.22"/>
<polygon fill="#63b8ff" stroke="#63b8ff" points="254.04,-95.43 263.02,-89.8 252.49,-88.6 254.04,-95.43"/>
<g id="a_edge6&#45;headlabel"><a xlink:href="dir_000030_000002.html" target="_top" xlink:title="2">
<text text-anchor="middle" x="252.16" y="-95.11" font-family="Helvetica,sans-Serif" font-size="10.00" fill="#63b8ff">2</text>
</a>
</g>
</g>
<!-- dir_432b4a4585f701939cbdc956226f8b03 -->
<g id="node7" class="node">
<title>dir_432b4a4585f701939cbdc956226f8b03</title>
<g id="a_node7"><a xlink:href="dir_432b4a4585f701939cbdc956226f8b03.html" target="_top" xlink:title="shaders">
<polygon fill="#a2b4d6" stroke="#404040" points="86.25,-90.5 35.75,-90.5 35.75,-71.25 86.25,-71.25 86.25,-90.5"/>
<text text-anchor="middle" x="61" y="-77" font-family="Helvetica,sans-Serif" font-size="10.00">shaders</text>
</a>
</g>
</g>
<!-- dir_6eaa9a4b68db9d3a4b16103d94f334fb&#45;&gt;dir_432b4a4585f701939cbdc956226f8b03 -->
<g id="edge1" class="edge">
<title>dir_6eaa9a4b68db9d3a4b16103d94f334fb&#45;&gt;dir_432b4a4585f701939cbdc956226f8b03</title>
<path fill="none" stroke="#63b8ff" d="M63.53,-126.8C63.15,-120.05 62.6,-110.24 62.11,-101.51"/>
<polygon fill="#63b8ff" stroke="#63b8ff" points="65.55,-101.46 61.5,-91.67 58.56,-101.85 65.55,-101.46"/>
<g id="a_edge1&#45;headlabel"><a xlink:href="dir_000030_000033.html" target="_top" xlink:title="7">
<text text-anchor="middle" x="68.59" y="-100.01" font-family="Helvetica,sans-Serif" font-size="10.00" fill="#63b8ff">7</text>
</a>
</g>
</g>
<!-- dir_432b4a4585f701939cbdc956226f8b03&#45;&gt;dir_52bb8edc54208f47f87ae9b01b1d12a6 -->
<g id="edge7" class="edge">
<title>dir_432b4a4585f701939cbdc956226f8b03&#45;&gt;dir_52bb8edc54208f47f87ae9b01b1d12a6</title>
<path fill="none" stroke="#63b8ff" d="M59.84,-71.08C58.96,-64.34 57.7,-54.77 56.58,-46.24"/>
<polygon fill="#63b8ff" stroke="#63b8ff" points="59.95,-46.07 55.18,-36.61 53.01,-46.98 59.95,-46.07"/>
<g id="a_edge7&#45;headlabel"><a xlink:href="dir_000033_000010.html" target="_top" xlink:title="1">
<text text-anchor="middle" x="63.24" y="-44.39" font-family="Helvetica,sans-Serif" font-size="10.00" fill="#63b8ff">1</text>
</a>
</g>
</g>
<!-- dir_432b4a4585f701939cbdc956226f8b03&#45;&gt;dir_bafa501d493553e442f19f5f8dd7b29c -->
<g id="edge8" class="edge">
<title>dir_432b4a4585f701939cbdc956226f8b03&#45;&gt;dir_bafa501d493553e442f19f5f8dd7b29c</title>
<path fill="none" stroke="#63b8ff" d="M75.82,-70.8C80.3,-68.22 85.28,-65.49 90,-63.25 109.75,-53.85 132.59,-44.98 150.93,-38.33"/>
<polygon fill="#63b8ff" stroke="#63b8ff" points="151.91,-41.34 160.15,-34.68 149.56,-34.74 151.91,-41.34"/>
<g id="a_edge8&#45;headlabel"><a xlink:href="dir_000033_000019.html" target="_top" xlink:title="1">
<text text-anchor="middle" x="150.48" y="-41.34" font-family="Helvetica,sans-Serif" font-size="10.00" fill="#63b8ff">1</text>
</a>
</g>
</g>
</g>
</svg>
