<?xml version="1.0" encoding="UTF-8" standalone="no"?>
<!DOCTYPE svg PUBLIC "-//W3C//DTD SVG 1.1//EN"
 "http://www.w3.org/Graphics/SVG/1.1/DTD/svg11.dtd">
<!-- Generated by graphviz version 8.1.0 (20230707.0739)
 -->
<!-- Title: engine/utils Pages: 1 -->
<svg width="160pt" height="197pt"
 viewBox="0.00 0.00 160.00 197.00" xmlns="http://www.w3.org/2000/svg" xmlns:xlink="http://www.w3.org/1999/xlink">
<g id="graph0" class="graph" transform="scale(1 1) rotate(0) translate(4 193)">
<title>engine/utils</title>
<g id="clust1" class="cluster">
<title>clusterdir_996f45160da62e1a3d7f6046fad68f51</title>
<g id="a_clust1"><a xlink:href="dir_996f45160da62e1a3d7f6046fad68f51.html" target="_top" xlink:title="engine">
<polygon fill="#edf0f7" stroke="#404040" stroke-dasharray="5,2" points="8,-8 8,-181 144,-181 144,-8 8,-8"/>
<text text-anchor="middle" x="76" y="-167.5" font-family="Helvetica,sans-Serif" font-size="10.00">engine</text>
</a>
</g>
</g>
<g id="clust2" class="cluster">
<title>clusterdir_961895bef81e67620a5b47a62fb3cb48</title>
<g id="a_clust2"><a xlink:href="dir_961895bef81e67620a5b47a62fb3cb48.html" target="_top">
<polygon fill="#edf0f7" stroke="#404040" stroke-width="2" points="16,-63.25 16,-153.75 72,-153.75 72,-63.25 16,-63.25"/>
</a>
</g>
</g>
<!-- dir_a0e47c104ecd6c0b6dccb5f33d071508 -->
<g id="node1" class="node">
<title>dir_a0e47c104ecd6c0b6dccb5f33d071508</title>
<g id="a_node1"><a xlink:href="dir_a0e47c104ecd6c0b6dccb5f33d071508.html" target="_top" xlink:title="core">
<polygon fill="#a2b4d6" stroke="red" points="116.38,-90.5 81.62,-90.5 81.62,-71.25 116.38,-71.25 116.38,-90.5"/>
<text text-anchor="middle" x="99" y="-77" font-family="Helvetica,sans-Serif" font-size="10.00">core</text>
</a>
</g>
</g>
<!-- dir_bafa501d493553e442f19f5f8dd7b29c -->
<g id="node2" class="node">
<title>dir_bafa501d493553e442f19f5f8dd7b29c</title>
<g id="a_node2"><a xlink:href="dir_bafa501d493553e442f19f5f8dd7b29c.html" target="_top" xlink:title="include">
<polygon fill="#a2b4d6" stroke="#404040" points="101.38,-35.25 54.62,-35.25 54.62,-16 101.38,-16 101.38,-35.25"/>
<text text-anchor="middle" x="78" y="-21.75" font-family="Helvetica,sans-Serif" font-size="10.00">include</text>
</a>
</g>
</g>
<!-- dir_961895bef81e67620a5b47a62fb3cb48 -->
<g id="node3" class="node">
<title>dir_961895bef81e67620a5b47a62fb3cb48</title>
<text text-anchor="middle" x="47" y="-132.25" font-family="Helvetica,sans-Serif" font-size="10.00">utils</text>
</g>
<!-- dir_961895bef81e67620a5b47a62fb3cb48&#45;&gt;dir_a0e47c104ecd6c0b6dccb5f33d071508 -->
<g id="edge1" class="edge">
<title>dir_961895bef81e67620a5b47a62fb3cb48&#45;&gt;dir_a0e47c104ecd6c0b6dccb5f33d071508</title>
<path fill="none" stroke="#63b8ff" d="M55.12,-126.8C62.55,-119.2 73.74,-107.74 82.96,-98.3"/>
<polygon fill="#63b8ff" stroke="#63b8ff" points="84.93,-101.27 89.41,-91.67 79.92,-96.38 84.93,-101.27"/>
<g id="a_edge1&#45;headlabel"><a xlink:href="dir_000040_000004.html" target="_top" xlink:title="2">
<text text-anchor="middle" x="85.45" y="-100.95" font-family="Helvetica,sans-Serif" font-size="10.00" fill="#63b8ff">2</text>
</a>
</g>
</g>
<!-- dir_961895bef81e67620a5b47a62fb3cb48&#45;&gt;dir_bafa501d493553e442f19f5f8dd7b29c -->
<g id="edge3" class="edge">
<title>dir_961895bef81e67620a5b47a62fb3cb48&#45;&gt;dir_bafa501d493553e442f19f5f8dd7b29c</title>
<path fill="none" stroke="#63b8ff" d="M63.99,-130.87C82.72,-125.16 111.93,-113.04 125,-90.5 131.08,-80.02 130.32,-74.13 125,-63.25 120.76,-54.57 113.35,-47.34 105.65,-41.67"/>
<polygon fill="#63b8ff" stroke="#63b8ff" points="107.93,-38.32 97.66,-35.73 104.07,-44.16 107.93,-38.32"/>
<g id="a_edge3&#45;headlabel"><a xlink:href="dir_000040_000019.html" target="_top" xlink:title="8">
<text text-anchor="middle" x="111.5" y="-34.05" font-family="Helvetica,sans-Serif" font-size="10.00" fill="#63b8ff">8</text>
</a>
</g>
</g>
<!-- dir_b10907c16dbc59f0c8b7c54478a0ca27 -->
<g id="node4" class="node">
<title>dir_b10907c16dbc59f0c8b7c54478a0ca27</title>
<g id="a_node4"><a xlink:href="dir_b10907c16dbc59f0c8b7c54478a0ca27.html" target="_top" xlink:title="detail">
<polygon fill="#a2b4d6" stroke="#404040" points="63.62,-90.5 24.38,-90.5 24.38,-71.25 63.62,-71.25 63.62,-90.5"/>
<text text-anchor="middle" x="44" y="-77" font-family="Helvetica,sans-Serif" font-size="10.00">detail</text>
</a>
</g>
</g>
<!-- dir_961895bef81e67620a5b47a62fb3cb48&#45;&gt;dir_b10907c16dbc59f0c8b7c54478a0ca27 -->
<g id="edge2" class="edge">
<title>dir_961895bef81e67620a5b47a62fb3cb48&#45;&gt;dir_b10907c16dbc59f0c8b7c54478a0ca27</title>
<path fill="none" stroke="#63b8ff" d="M46.53,-126.8C46.15,-120.05 45.6,-110.24 45.11,-101.51"/>
<polygon fill="#63b8ff" stroke="#63b8ff" points="48.55,-101.46 44.5,-91.67 41.56,-101.85 48.55,-101.46"/>
<g id="a_edge2&#45;headlabel"><a xlink:href="dir_000040_000009.html" target="_top" xlink:title="2">
<text text-anchor="middle" x="51.59" y="-100.01" font-family="Helvetica,sans-Serif" font-size="10.00" fill="#63b8ff">2</text>
</a>
</g>
</g>
<!-- dir_b10907c16dbc59f0c8b7c54478a0ca27&#45;&gt;dir_bafa501d493553e442f19f5f8dd7b29c -->
<g id="edge4" class="edge">
<title>dir_b10907c16dbc59f0c8b7c54478a0ca27&#45;&gt;dir_bafa501d493553e442f19f5f8dd7b29c</title>
<path fill="none" stroke="#63b8ff" d="M49.61,-71.08C54.16,-63.96 60.73,-53.68 66.4,-44.8"/>
<polygon fill="#63b8ff" stroke="#63b8ff" points="69.83,-46.92 72.26,-36.61 63.93,-43.15 69.83,-46.92"/>
<g id="a_edge4&#45;headlabel"><a xlink:href="dir_000009_000019.html" target="_top" xlink:title="1">
<text text-anchor="middle" x="70.29" y="-46.6" font-family="Helvetica,sans-Serif" font-size="10.00" fill="#63b8ff">1</text>
</a>
</g>
</g>
</g>
</svg>
