<?xml version="1.0" encoding="UTF-8" standalone="no"?>
<!DOCTYPE svg PUBLIC "-//W3C//DTD SVG 1.1//EN"
 "http://www.w3.org/Graphics/SVG/1.1/DTD/svg11.dtd">
<!-- Generated by graphviz version 8.1.0 (20230707.0739)
 -->
<!-- Title: engine Pages: 1 -->
<svg width="298pt" height="391pt"
 viewBox="0.00 0.00 298.00 390.75" xmlns="http://www.w3.org/2000/svg" xmlns:xlink="http://www.w3.org/1999/xlink">

<svg id="main" version="1.1" xmlns="http://www.w3.org/2000/svg" xmlns:xlink="http://www.w3.org/1999/xlink" xml:space="preserve" onload="init(evt)">
<style type="text/css"><![CDATA[
.node, .edge {opacity: 0.7;}
.node.selected, .edge.selected {opacity: 1;}
.edge:hover path { stroke: red; }
.edge:hover polygon { stroke: red; fill: red; }
]]></style>
<script type="application/ecmascript" xlink:href="svg.min.js"/>
<svg id="graph" class="graph">
<g id="graph0" class="graph" transform="scale(1 1) rotate(0) translate(4 386.75)">
<title>engine</title>
<g id="clust1" class="cluster">
<title>clusterdir_996f45160da62e1a3d7f6046fad68f51</title>
<g id="a_clust1"><a xlink:href="dir_996f45160da62e1a3d7f6046fad68f51.html" target="_top">
<polygon fill="#edf0f7" stroke="#404040" stroke-width="2" points="8,-8 8,-374.75 282,-374.75 282,-8 8,-8"/>
</a>
</g>
</g>
<!-- dir_996f45160da62e1a3d7f6046fad68f51 -->
<g id="node1" class="node">
<title>dir_996f45160da62e1a3d7f6046fad68f51</title>
<text text-anchor="middle" x="252" y="-353.25" font-family="Helvetica,sans-Serif" font-size="10.00">engine</text>
</g>
<!-- dir_c450a44cd74e5a974db470ea1cf0577f -->
<g id="node2" class="node">
<title>dir_c450a44cd74e5a974db470ea1cf0577f</title>
<g id="a_node2"><a xlink:href="dir_c450a44cd74e5a974db470ea1cf0577f.html" target="_top" xlink:title="components">
<polygon fill="#a2b4d6" stroke="#404040" points="211.62,-366.75 142.38,-366.75 142.38,-347.5 211.62,-347.5 211.62,-366.75"/>
<text text-anchor="middle" x="177" y="-353.25" font-family="Helvetica,sans-Serif" font-size="10.00">components</text>
</a>
</g>
</g>
<!-- dir_bafa501d493553e442f19f5f8dd7b29c -->
<g id="node5" class="node">
<title>dir_bafa501d493553e442f19f5f8dd7b29c</title>
<g id="a_node5"><a xlink:href="dir_bafa501d493553e442f19f5f8dd7b29c.html" target="_top" xlink:title="include">
<polygon fill="#a2b4d6" stroke="#404040" points="177.38,-311.5 130.62,-311.5 130.62,-292.25 177.38,-292.25 177.38,-311.5"/>
<text text-anchor="middle" x="154" y="-298" font-family="Helvetica,sans-Serif" font-size="10.00">include</text>
</a>
</g>
</g>
<!-- dir_c450a44cd74e5a974db470ea1cf0577f&#45;&gt;dir_bafa501d493553e442f19f5f8dd7b29c -->
<g id="edge1" class="edge">
<title>dir_c450a44cd74e5a974db470ea1cf0577f&#45;&gt;dir_bafa501d493553e442f19f5f8dd7b29c</title>
<g id="a_edge1"><a xlink:href="dir_000002_000019.html" target="_top">
<path fill="none" stroke="#63b8ff" d="M168.04,-347.33C163.63,-340.51 158.99,-330.81 155.83,-322.2"/>
<polygon fill="#63b8ff" stroke="#63b8ff" points="158.94,-321.4 152.67,-312.86 152.24,-323.45 158.94,-321.4"/>
</a>
</g>
<g id="a_edge1&#45;headlabel"><a xlink:href="dir_000002_000019.html" target="_top" xlink:title="1">
<text text-anchor="middle" x="162.7" y="-319.14" font-family="Helvetica,sans-Serif" font-size="10.00" fill="#63b8ff">1</text>
</a>
</g>
</g>
<!-- dir_a0e47c104ecd6c0b6dccb5f33d071508 -->
<g id="node3" class="node">
<title>dir_a0e47c104ecd6c0b6dccb5f33d071508</title>
<g id="a_node3"><a xlink:href="dir_a0e47c104ecd6c0b6dccb5f33d071508.html" target="_top" xlink:title="core">
<polygon fill="#a2b4d6" stroke="#404040" points="122.38,-201 87.62,-201 87.62,-181.75 122.38,-181.75 122.38,-201"/>
<text text-anchor="middle" x="105" y="-187.5" font-family="Helvetica,sans-Serif" font-size="10.00">core</text>
</a>
</g>
</g>
<!-- dir_52bb8edc54208f47f87ae9b01b1d12a6 -->
<g id="node4" class="node">
<title>dir_52bb8edc54208f47f87ae9b01b1d12a6</title>
<g id="a_node4"><a xlink:href="dir_52bb8edc54208f47f87ae9b01b1d12a6.html" target="_top" xlink:title="direct3d11">
<polygon fill="#a2b4d6" stroke="#404040" points="213.5,-145.75 152.5,-145.75 152.5,-126.5 213.5,-126.5 213.5,-145.75"/>
<text text-anchor="middle" x="183" y="-132.25" font-family="Helvetica,sans-Serif" font-size="10.00">direct3d11</text>
</a>
</g>
</g>
<!-- dir_a0e47c104ecd6c0b6dccb5f33d071508&#45;&gt;dir_52bb8edc54208f47f87ae9b01b1d12a6 -->
<g id="edge7" class="edge">
<title>dir_a0e47c104ecd6c0b6dccb5f33d071508&#45;&gt;dir_52bb8edc54208f47f87ae9b01b1d12a6</title>
<g id="a_edge7"><a xlink:href="dir_000004_000010.html" target="_top">
<path fill="none" stroke="#63b8ff" d="M113.01,-181.34C123.11,-173.31 140.23,-161.41 155.12,-151.98"/>
<polygon fill="#63b8ff" stroke="#63b8ff" points="156.81,-154.43 163.48,-146.2 153.13,-148.48 156.81,-154.43"/>
</a>
</g>
<g id="a_edge7&#45;headlabel"><a xlink:href="dir_000004_000010.html" target="_top" xlink:title="1">
<text text-anchor="middle" x="156.24" y="-154.86" font-family="Helvetica,sans-Serif" font-size="10.00" fill="#63b8ff">1</text>
</a>
</g>
</g>
<!-- dir_a0e47c104ecd6c0b6dccb5f33d071508&#45;&gt;dir_bafa501d493553e442f19f5f8dd7b29c -->
<g id="edge6" class="edge">
<title>dir_a0e47c104ecd6c0b6dccb5f33d071508&#45;&gt;dir_bafa501d493553e442f19f5f8dd7b29c</title>
<g id="a_edge6"><a xlink:href="dir_000004_000019.html" target="_top">
<path fill="none" stroke="#63b8ff" d="M113,-201.38C124.17,-218.96 142.35,-258.22 150.68,-281.83"/>
<polygon fill="#63b8ff" stroke="#63b8ff" points="147.54,-282.52 153.9,-291 154.22,-280.41 147.54,-282.52"/>
</a>
</g>
<g id="a_edge6&#45;headlabel"><a xlink:href="dir_000004_000019.html" target="_top" xlink:title="8">
<text text-anchor="middle" x="143.75" y="-277.08" font-family="Helvetica,sans-Serif" font-size="10.00" fill="#63b8ff">8</text>
</a>
</g>
</g>
<!-- dir_9af29253f2e6856b2c85289071488b96 -->
<g id="node6" class="node">
<title>dir_9af29253f2e6856b2c85289071488b96</title>
<g id="a_node6"><a xlink:href="dir_9af29253f2e6856b2c85289071488b96.html" target="_top" xlink:title="misc">
<polygon fill="#a2b4d6" stroke="#404040" points="73.5,-145.75 36.5,-145.75 36.5,-126.5 73.5,-126.5 73.5,-145.75"/>
<text text-anchor="middle" x="55" y="-132.25" font-family="Helvetica,sans-Serif" font-size="10.00">misc</text>
</a>
</g>
</g>
<!-- dir_a0e47c104ecd6c0b6dccb5f33d071508&#45;&gt;dir_9af29253f2e6856b2c85289071488b96 -->
<g id="edge5" class="edge">
<title>dir_a0e47c104ecd6c0b6dccb5f33d071508&#45;&gt;dir_9af29253f2e6856b2c85289071488b96</title>
<g id="a_edge5"><a xlink:href="dir_000004_000022.html" target="_top">
<path fill="none" stroke="#63b8ff" d="M96.74,-181.58C89.69,-174.07 79.35,-163.06 70.73,-153.88"/>
<polygon fill="#63b8ff" stroke="#63b8ff" points="73.83,-152 64.44,-147.11 68.73,-156.8 73.83,-152"/>
</a>
</g>
<g id="a_edge5&#45;headlabel"><a xlink:href="dir_000004_000022.html" target="_top" xlink:title="3">
<text text-anchor="middle" x="77.36" y="-147.81" font-family="Helvetica,sans-Serif" font-size="10.00" fill="#63b8ff">3</text>
</a>
</g>
</g>
<!-- dir_6eaa9a4b68db9d3a4b16103d94f334fb -->
<g id="node8" class="node">
<title>dir_6eaa9a4b68db9d3a4b16103d94f334fb</title>
<g id="a_node8"><a xlink:href="dir_6eaa9a4b68db9d3a4b16103d94f334fb.html" target="_top" xlink:title="render">
<polygon fill="#a2b4d6" stroke="#404040" points="193.5,-35.25 150.5,-35.25 150.5,-16 193.5,-16 193.5,-35.25"/>
<text text-anchor="middle" x="172" y="-21.75" font-family="Helvetica,sans-Serif" font-size="10.00">render</text>
</a>
</g>
</g>
<!-- dir_a0e47c104ecd6c0b6dccb5f33d071508&#45;&gt;dir_6eaa9a4b68db9d3a4b16103d94f334fb -->
<g id="edge3" class="edge">
<title>dir_a0e47c104ecd6c0b6dccb5f33d071508&#45;&gt;dir_6eaa9a4b68db9d3a4b16103d94f334fb</title>
<g id="a_edge3"><a xlink:href="dir_000004_000030.html" target="_top">
<path fill="none" stroke="#63b8ff" d="M97.37,-181.3C86.69,-160.38 74.13,-107.77 94,-71.25 103.37,-54.02 122.58,-42.43 139.74,-35.39"/>
<polygon fill="#63b8ff" stroke="#63b8ff" points="140.89,-38.33 149.06,-31.58 138.47,-31.76 140.89,-38.33"/>
</a>
</g>
<g id="a_edge3&#45;headlabel"><a xlink:href="dir_000004_000030.html" target="_top" xlink:title="2">
<text text-anchor="middle" x="139.5" y="-38.36" font-family="Helvetica,sans-Serif" font-size="10.00" fill="#63b8ff">2</text>
</a>
</g>
</g>
<!-- dir_55984c57f282dc48266af8a0d45ddadd -->
<g id="node9" class="node">
<title>dir_55984c57f282dc48266af8a0d45ddadd</title>
<g id="a_node9"><a xlink:href="dir_55984c57f282dc48266af8a0d45ddadd.html" target="_top" xlink:title="subsystems">
<polygon fill="#a2b4d6" stroke="#404040" points="180.25,-90.5 111.75,-90.5 111.75,-71.25 180.25,-71.25 180.25,-90.5"/>
<text text-anchor="middle" x="146" y="-77" font-family="Helvetica,sans-Serif" font-size="10.00">subsystems</text>
</a>
</g>
</g>
<!-- dir_a0e47c104ecd6c0b6dccb5f33d071508&#45;&gt;dir_55984c57f282dc48266af8a0d45ddadd -->
<g id="edge2" class="edge">
<title>dir_a0e47c104ecd6c0b6dccb5f33d071508&#45;&gt;dir_55984c57f282dc48266af8a0d45ddadd</title>
<g id="a_edge2"><a xlink:href="dir_000004_000037.html" target="_top">
<path fill="none" stroke="#63b8ff" d="M102.05,-181.66C103.32,-169.33 111.52,-146.1 119,-126.5 122.31,-117.82 126.15,-108.25 130.16,-100.21"/>
<polygon fill="#63b8ff" stroke="#63b8ff" points="133.65,-102.16 135.51,-91.73 127.55,-98.72 133.65,-102.16"/>
</a>
</g>
<g id="a_edge2&#45;headlabel"><a xlink:href="dir_000004_000037.html" target="_top" xlink:title="2">
<text text-anchor="middle" x="134.35" y="-101.81" font-family="Helvetica,sans-Serif" font-size="10.00" fill="#63b8ff">2</text>
</a>
</g>
</g>
<!-- dir_961895bef81e67620a5b47a62fb3cb48 -->
<g id="node10" class="node">
<title>dir_961895bef81e67620a5b47a62fb3cb48</title>
<g id="a_node10"><a xlink:href="dir_961895bef81e67620a5b47a62fb3cb48.html" target="_top" xlink:title="utils">
<polygon fill="#a2b4d6" stroke="#404040" points="93,-256.25 59,-256.25 59,-237 93,-237 93,-256.25"/>
<text text-anchor="middle" x="76" y="-242.75" font-family="Helvetica,sans-Serif" font-size="10.00">utils</text>
</a>
</g>
</g>
<!-- dir_a0e47c104ecd6c0b6dccb5f33d071508&#45;&gt;dir_961895bef81e67620a5b47a62fb3cb48 -->
<g id="edge4" class="edge">
<title>dir_a0e47c104ecd6c0b6dccb5f33d071508&#45;&gt;dir_961895bef81e67620a5b47a62fb3cb48</title>
<g id="a_edge4"><a xlink:href="dir_000004_000040.html" target="_top">
<path fill="none" stroke="#63b8ff" d="M105.31,-201.36C102.88,-208.62 97.59,-219.06 92.01,-227.97"/>
<polygon fill="#63b8ff" stroke="#63b8ff" points="88.71,-225.6 85.96,-235.83 94.49,-229.55 88.71,-225.6"/>
</a>
</g>
<g id="a_edge4&#45;headlabel"><a xlink:href="dir_000004_000040.html" target="_top" xlink:title="2">
<text text-anchor="middle" x="88.39" y="-218.16" font-family="Helvetica,sans-Serif" font-size="10.00" fill="#63b8ff">2</text>
</a>
</g>
</g>
<!-- dir_52bb8edc54208f47f87ae9b01b1d12a6&#45;&gt;dir_c450a44cd74e5a974db470ea1cf0577f -->
<g id="edge13" class="edge">
<title>dir_52bb8edc54208f47f87ae9b01b1d12a6&#45;&gt;dir_c450a44cd74e5a974db470ea1cf0577f</title>
<g id="a_edge13"><a xlink:href="dir_000010_000002.html" target="_top">
<path fill="none" stroke="#63b8ff" d="M183.9,-146.23C186.31,-172.15 192.29,-248.53 186,-311.5 185.17,-319.86 183.47,-328.96 181.78,-336.76"/>
<polygon fill="#63b8ff" stroke="#63b8ff" points="178.18,-335.78 179.32,-346.31 185,-337.37 178.18,-335.78"/>
</a>
</g>
<g id="a_edge13&#45;headlabel"><a xlink:href="dir_000010_000002.html" target="_top" xlink:title="1">
<text text-anchor="middle" x="176.23" y="-328.76" font-family="Helvetica,sans-Serif" font-size="10.00" fill="#63b8ff">1</text>
</a>
</g>
</g>
<!-- dir_52bb8edc54208f47f87ae9b01b1d12a6&#45;&gt;dir_a0e47c104ecd6c0b6dccb5f33d071508 -->
<g id="edge11" class="edge">
<title>dir_52bb8edc54208f47f87ae9b01b1d12a6&#45;&gt;dir_a0e47c104ecd6c0b6dccb5f33d071508</title>
<g id="a_edge11"><a xlink:href="dir_000010_000004.html" target="_top">
<path fill="none" stroke="#63b8ff" d="M174.94,-146.19C164.56,-154.45 146.78,-166.77 131.64,-176.3"/>
<polygon fill="#63b8ff" stroke="#63b8ff" points="130.34,-173.61 123.65,-181.82 134,-179.58 130.34,-173.61"/>
</a>
</g>
<g id="a_edge11&#45;headlabel"><a xlink:href="dir_000010_000004.html" target="_top" xlink:title="5">
<text text-anchor="middle" x="130.92" y="-165.43" font-family="Helvetica,sans-Serif" font-size="10.00" fill="#63b8ff">5</text>
</a>
</g>
</g>
<!-- dir_52bb8edc54208f47f87ae9b01b1d12a6&#45;&gt;dir_bafa501d493553e442f19f5f8dd7b29c -->
<g id="edge12" class="edge">
<title>dir_52bb8edc54208f47f87ae9b01b1d12a6&#45;&gt;dir_bafa501d493553e442f19f5f8dd7b29c</title>
<g id="a_edge12"><a xlink:href="dir_000010_000019.html" target="_top">
<path fill="none" stroke="#63b8ff" d="M184.7,-145.97C184.34,-171.57 171.55,-246.15 161.94,-281.66"/>
<polygon fill="#63b8ff" stroke="#63b8ff" points="158.34,-280.49 158.82,-291.07 165.04,-282.49 158.34,-280.49"/>
</a>
</g>
<g id="a_edge12&#45;headlabel"><a xlink:href="dir_000010_000019.html" target="_top" xlink:title="2">
<text text-anchor="middle" x="156.65" y="-273.35" font-family="Helvetica,sans-Serif" font-size="10.00" fill="#63b8ff">2</text>
</a>
</g>
</g>
<!-- dir_52bb8edc54208f47f87ae9b01b1d12a6&#45;&gt;dir_6eaa9a4b68db9d3a4b16103d94f334fb -->
<g id="edge9" class="edge">
<title>dir_52bb8edc54208f47f87ae9b01b1d12a6&#45;&gt;dir_6eaa9a4b68db9d3a4b16103d94f334fb</title>
<g id="a_edge9"><a xlink:href="dir_000010_000030.html" target="_top">
<path fill="none" stroke="#63b8ff" d="M179.36,-126.38C179.29,-114.01 183.59,-90.75 180,-71.25 178.43,-62.7 175.29,-53.66 172.75,-45.97"/>
<polygon fill="#63b8ff" stroke="#63b8ff" points="175.86,-45.15 169.64,-36.57 169.15,-47.16 175.86,-45.15"/>
</a>
</g>
<g id="a_edge9&#45;headlabel"><a xlink:href="dir_000010_000030.html" target="_top" xlink:title="5">
<text text-anchor="middle" x="179.61" y="-42.91" font-family="Helvetica,sans-Serif" font-size="10.00" fill="#63b8ff">5</text>
</a>
</g>
</g>
<!-- dir_52bb8edc54208f47f87ae9b01b1d12a6&#45;&gt;dir_55984c57f282dc48266af8a0d45ddadd -->
<g id="edge8" class="edge">
<title>dir_52bb8edc54208f47f87ae9b01b1d12a6&#45;&gt;dir_55984c57f282dc48266af8a0d45ddadd</title>
<g id="a_edge8"><a xlink:href="dir_000010_000037.html" target="_top">
<path fill="none" stroke="#63b8ff" d="M171.72,-126.33C165.32,-119.28 157.84,-109.15 152.37,-100.33"/>
<polygon fill="#63b8ff" stroke="#63b8ff" points="154.99,-98.86 147.04,-91.86 148.89,-102.29 154.99,-98.86"/>
</a>
</g>
<g id="a_edge8&#45;headlabel"><a xlink:href="dir_000010_000037.html" target="_top" xlink:title="3">
<text text-anchor="middle" x="159.23" y="-95.72" font-family="Helvetica,sans-Serif" font-size="10.00" fill="#63b8ff">3</text>
</a>
</g>
</g>
<!-- dir_52bb8edc54208f47f87ae9b01b1d12a6&#45;&gt;dir_961895bef81e67620a5b47a62fb3cb48 -->
<g id="edge10" class="edge">
<title>dir_52bb8edc54208f47f87ae9b01b1d12a6&#45;&gt;dir_961895bef81e67620a5b47a62fb3cb48</title>
<g id="a_edge10"><a xlink:href="dir_000010_000040.html" target="_top">
<path fill="none" stroke="#63b8ff" d="M176.79,-145.86C167.52,-158.62 149.22,-182.81 131,-201 120.5,-211.48 107.68,-222 97.06,-230.18"/>
<polygon fill="#63b8ff" stroke="#63b8ff" points="95.28,-227.9 89.41,-236.72 99.5,-233.49 95.28,-227.9"/>
</a>
</g>
<g id="a_edge10&#45;headlabel"><a xlink:href="dir_000010_000040.html" target="_top" xlink:title="6">
<text text-anchor="middle" x="95.43" y="-219.59" font-family="Helvetica,sans-Serif" font-size="10.00" fill="#63b8ff">6</text>
</a>
</g>
</g>
<!-- dir_bafa501d493553e442f19f5f8dd7b29c&#45;&gt;dir_c450a44cd74e5a974db470ea1cf0577f -->
<g id="edge17" class="edge">
<title>dir_bafa501d493553e442f19f5f8dd7b29c&#45;&gt;dir_c450a44cd74e5a974db470ea1cf0577f</title>
<g id="a_edge17"><a xlink:href="dir_000019_000002.html" target="_top">
<path fill="none" stroke="#63b8ff" d="M163.09,-311.86C167.5,-318.73 172.13,-328.46 175.26,-337.04"/>
<polygon fill="#63b8ff" stroke="#63b8ff" points="172.13,-337.77 178.37,-346.33 178.83,-335.75 172.13,-337.77"/>
</a>
</g>
<g id="a_edge17&#45;headlabel"><a xlink:href="dir_000019_000002.html" target="_top" xlink:title="1">
<text text-anchor="middle" x="168.37" y="-332.28" font-family="Helvetica,sans-Serif" font-size="10.00" fill="#63b8ff">1</text>
</a>
</g>
</g>
<!-- dir_bafa501d493553e442f19f5f8dd7b29c&#45;&gt;dir_a0e47c104ecd6c0b6dccb5f33d071508 -->
<g id="edge16" class="edge">
<title>dir_bafa501d493553e442f19f5f8dd7b29c&#45;&gt;dir_a0e47c104ecd6c0b6dccb5f33d071508</title>
<g id="a_edge16"><a xlink:href="dir_000019_000004.html" target="_top">
<path fill="none" stroke="#63b8ff" d="M146.08,-292C134.94,-274.51 116.75,-235.27 108.38,-211.59"/>
<polygon fill="#63b8ff" stroke="#63b8ff" points="111.5,-210.85 105.13,-202.38 104.83,-212.97 111.5,-210.85"/>
</a>
</g>
<g id="a_edge16&#45;headlabel"><a xlink:href="dir_000019_000004.html" target="_top" xlink:title="3">
<text text-anchor="middle" x="115.29" y="-208.54" font-family="Helvetica,sans-Serif" font-size="10.00" fill="#63b8ff">3</text>
</a>
</g>
</g>
<!-- dir_bafa501d493553e442f19f5f8dd7b29c&#45;&gt;dir_52bb8edc54208f47f87ae9b01b1d12a6 -->
<g id="edge14" class="edge">
<title>dir_bafa501d493553e442f19f5f8dd7b29c&#45;&gt;dir_52bb8edc54208f47f87ae9b01b1d12a6</title>
<g id="a_edge14"><a xlink:href="dir_000019_000010.html" target="_top">
<path fill="none" stroke="#63b8ff" d="M152.3,-292.07C152.65,-266.53 165.43,-191.95 175.04,-156.4"/>
<polygon fill="#63b8ff" stroke="#63b8ff" points="178.65,-157.56 178.16,-146.97 171.95,-155.55 178.65,-157.56"/>
</a>
</g>
<g id="a_edge14&#45;headlabel"><a xlink:href="dir_000019_000010.html" target="_top" xlink:title="1">
<text text-anchor="middle" x="180.34" y="-156.94" font-family="Helvetica,sans-Serif" font-size="10.00" fill="#63b8ff">1</text>
</a>
</g>
</g>
<!-- dir_bafa501d493553e442f19f5f8dd7b29c&#45;&gt;dir_961895bef81e67620a5b47a62fb3cb48 -->
<g id="edge15" class="edge">
<title>dir_bafa501d493553e442f19f5f8dd7b29c&#45;&gt;dir_961895bef81e67620a5b47a62fb3cb48</title>
<g id="a_edge15"><a xlink:href="dir_000019_000040.html" target="_top">
<path fill="none" stroke="#63b8ff" d="M135.55,-291.84C122.42,-283.99 105.18,-272.45 92.51,-263.12"/>
<polygon fill="#63b8ff" stroke="#63b8ff" points="94.92,-259.8 84.85,-256.52 90.68,-265.37 94.92,-259.8"/>
</a>
</g>
<g id="a_edge15&#45;headlabel"><a xlink:href="dir_000019_000040.html" target="_top" xlink:title="1">
<text text-anchor="middle" x="98.5" y="-255.85" font-family="Helvetica,sans-Serif" font-size="10.00" fill="#63b8ff">1</text>
</a>
</g>
</g>
<!-- dir_9af29253f2e6856b2c85289071488b96&#45;&gt;dir_c450a44cd74e5a974db470ea1cf0577f -->
<g id="edge19" class="edge">
<title>dir_9af29253f2e6856b2c85289071488b96&#45;&gt;dir_c450a44cd74e5a974db470ea1cf0577f</title>
<g id="a_edge19"><a xlink:href="dir_000022_000002.html" target="_top">
<path fill="none" stroke="#63b8ff" d="M51.89,-146.08C45.27,-166.73 31.82,-218.83 50,-256.25 69.93,-297.28 115.79,-326.48 146.59,-342.33"/>
<polygon fill="#63b8ff" stroke="#63b8ff" points="144.88,-345.89 155.4,-347.19 147.99,-339.61 144.88,-345.89"/>
</a>
</g>
<g id="a_edge19&#45;headlabel"><a xlink:href="dir_000022_000002.html" target="_top" xlink:title="1">
<text text-anchor="middle" x="141.4" y="-342.96" font-family="Helvetica,sans-Serif" font-size="10.00" fill="#63b8ff">1</text>
</a>
</g>
</g>
<!-- dir_9af29253f2e6856b2c85289071488b96&#45;&gt;dir_961895bef81e67620a5b47a62fb3cb48 -->
<g id="edge18" class="edge">
<title>dir_9af29253f2e6856b2c85289071488b96&#45;&gt;dir_961895bef81e67620a5b47a62fb3cb48</title>
<g id="a_edge18"><a xlink:href="dir_000022_000040.html" target="_top">
<path fill="none" stroke="#63b8ff" d="M56.74,-146.13C60.13,-163.63 67.68,-202.62 72.25,-226.26"/>
<polygon fill="#63b8ff" stroke="#63b8ff" points="68.94,-226.59 74.28,-235.75 75.82,-225.26 68.94,-226.59"/>
</a>
</g>
<g id="a_edge18&#45;headlabel"><a xlink:href="dir_000022_000040.html" target="_top" xlink:title="2">
<text text-anchor="middle" x="65.47" y="-220.73" font-family="Helvetica,sans-Serif" font-size="10.00" fill="#63b8ff">2</text>
</a>
</g>
</g>
<!-- dir_3862078e0a5429b6ce9a8a5d655cc609 -->
<g id="node7" class="node">
<title>dir_3862078e0a5429b6ce9a8a5d655cc609</title>
<g id="a_node7"><a xlink:href="dir_3862078e0a5429b6ce9a8a5d655cc609.html" target="_top" xlink:title="platform">
<polygon fill="#a2b4d6" stroke="#404040" points="124.62,-366.75 73.38,-366.75 73.38,-347.5 124.62,-347.5 124.62,-366.75"/>
<text text-anchor="middle" x="99" y="-353.25" font-family="Helvetica,sans-Serif" font-size="10.00">platform</text>
</a>
</g>
</g>
<!-- dir_3862078e0a5429b6ce9a8a5d655cc609&#45;&gt;dir_a0e47c104ecd6c0b6dccb5f33d071508 -->
<g id="edge22" class="edge">
<title>dir_3862078e0a5429b6ce9a8a5d655cc609&#45;&gt;dir_a0e47c104ecd6c0b6dccb5f33d071508</title>
<g id="a_edge22"><a xlink:href="dir_000028_000004.html" target="_top">
<path fill="none" stroke="#63b8ff" d="M99.32,-347.32C100.25,-321.89 102.97,-247.85 104.28,-212.12"/>
<polygon fill="#63b8ff" stroke="#63b8ff" points="107.81,-212.34 104.68,-202.22 100.81,-212.09 107.81,-212.34"/>
</a>
</g>
<g id="a_edge22&#45;headlabel"><a xlink:href="dir_000028_000004.html" target="_top" xlink:title="1">
<text text-anchor="middle" x="110.51" y="-211.17" font-family="Helvetica,sans-Serif" font-size="10.00" fill="#63b8ff">1</text>
</a>
</g>
</g>
<!-- dir_3862078e0a5429b6ce9a8a5d655cc609&#45;&gt;dir_bafa501d493553e442f19f5f8dd7b29c -->
<g id="edge20" class="edge">
<title>dir_3862078e0a5429b6ce9a8a5d655cc609&#45;&gt;dir_bafa501d493553e442f19f5f8dd7b29c</title>
<g id="a_edge20"><a xlink:href="dir_000028_000019.html" target="_top">
<path fill="none" stroke="#63b8ff" d="M108.08,-347.33C115.92,-339.75 127.44,-328.59 136.99,-319.35"/>
<polygon fill="#63b8ff" stroke="#63b8ff" points="138.97,-322.33 143.72,-312.86 134.1,-317.3 138.97,-322.33"/>
</a>
</g>
<g id="a_edge20&#45;headlabel"><a xlink:href="dir_000028_000019.html" target="_top" xlink:title="3">
<text text-anchor="middle" x="139.36" y="-321.99" font-family="Helvetica,sans-Serif" font-size="10.00" fill="#63b8ff">3</text>
</a>
</g>
</g>
<!-- dir_3862078e0a5429b6ce9a8a5d655cc609&#45;&gt;dir_961895bef81e67620a5b47a62fb3cb48 -->
<g id="edge21" class="edge">
<title>dir_3862078e0a5429b6ce9a8a5d655cc609&#45;&gt;dir_961895bef81e67620a5b47a62fb3cb48</title>
<g id="a_edge21"><a xlink:href="dir_000028_000040.html" target="_top">
<path fill="none" stroke="#63b8ff" d="M97.12,-347.25C93.43,-329.84 85.17,-290.87 80.14,-267.16"/>
<polygon fill="#63b8ff" stroke="#63b8ff" points="83.41,-266.68 77.91,-257.63 76.56,-268.14 83.41,-266.68"/>
</a>
</g>
<g id="a_edge21&#45;headlabel"><a xlink:href="dir_000028_000040.html" target="_top" xlink:title="2">
<text text-anchor="middle" x="86.93" y="-264.74" font-family="Helvetica,sans-Serif" font-size="10.00" fill="#63b8ff">2</text>
</a>
</g>
</g>
<!-- dir_6eaa9a4b68db9d3a4b16103d94f334fb&#45;&gt;dir_c450a44cd74e5a974db470ea1cf0577f -->
<g id="edge27" class="edge">
<title>dir_6eaa9a4b68db9d3a4b16103d94f334fb&#45;&gt;dir_c450a44cd74e5a974db470ea1cf0577f</title>
<g id="a_edge27"><a xlink:href="dir_000030_000002.html" target="_top">
<path fill="none" stroke="#63b8ff" d="M185.38,-35.64C208.38,-52.33 253,-90.46 253,-135.12 253,-247.62 253,-247.62 253,-247.62 253,-286.4 220.03,-321.17 197.52,-340.39"/>
<polygon fill="#63b8ff" stroke="#63b8ff" points="195.73,-338.15 190.21,-347.19 200.17,-343.56 195.73,-338.15"/>
</a>
</g>
<g id="a_edge27&#45;headlabel"><a xlink:href="dir_000030_000002.html" target="_top" xlink:title="2">
<text text-anchor="middle" x="195.71" y="-329.8" font-family="Helvetica,sans-Serif" font-size="10.00" fill="#63b8ff">2</text>
</a>
</g>
</g>
<!-- dir_6eaa9a4b68db9d3a4b16103d94f334fb&#45;&gt;dir_a0e47c104ecd6c0b6dccb5f33d071508 -->
<g id="edge25" class="edge">
<title>dir_6eaa9a4b68db9d3a4b16103d94f334fb&#45;&gt;dir_a0e47c104ecd6c0b6dccb5f33d071508</title>
<g id="a_edge25"><a xlink:href="dir_000030_000004.html" target="_top">
<path fill="none" stroke="#63b8ff" d="M154.49,-35.61C140.17,-42.68 121.27,-54.21 112,-71.25 94.92,-102.63 101.8,-145.9 105.32,-170.73"/>
<polygon fill="#63b8ff" stroke="#63b8ff" points="101.93,-170.82 106.65,-180.3 108.87,-169.94 101.93,-170.82"/>
</a>
</g>
<g id="a_edge25&#45;headlabel"><a xlink:href="dir_000030_000004.html" target="_top" xlink:title="6">
<text text-anchor="middle" x="98.66" y="-164.73" font-family="Helvetica,sans-Serif" font-size="10.00" fill="#63b8ff">6</text>
</a>
</g>
</g>
<!-- dir_6eaa9a4b68db9d3a4b16103d94f334fb&#45;&gt;dir_52bb8edc54208f47f87ae9b01b1d12a6 -->
<g id="edge23" class="edge">
<title>dir_6eaa9a4b68db9d3a4b16103d94f334fb&#45;&gt;dir_52bb8edc54208f47f87ae9b01b1d12a6</title>
<g id="a_edge23"><a xlink:href="dir_000030_000010.html" target="_top">
<path fill="none" stroke="#63b8ff" d="M183.41,-35.57C189.71,-44.39 195.63,-58.37 198,-71.25 200.75,-86.18 198.87,-103.31 195.15,-116.08"/>
<polygon fill="#63b8ff" stroke="#63b8ff" points="191.53,-114.79 191.31,-125.38 198.08,-117.24 191.53,-114.79"/>
</a>
</g>
<g id="a_edge23&#45;headlabel"><a xlink:href="dir_000030_000010.html" target="_top" xlink:title="3">
<text text-anchor="middle" x="190.12" y="-107.55" font-family="Helvetica,sans-Serif" font-size="10.00" fill="#63b8ff">3</text>
</a>
</g>
</g>
<!-- dir_6eaa9a4b68db9d3a4b16103d94f334fb&#45;&gt;dir_bafa501d493553e442f19f5f8dd7b29c -->
<g id="edge26" class="edge">
<title>dir_6eaa9a4b68db9d3a4b16103d94f334fb&#45;&gt;dir_bafa501d493553e442f19f5f8dd7b29c</title>
<g id="a_edge26"><a xlink:href="dir_000030_000019.html" target="_top">
<path fill="none" stroke="#63b8ff" d="M181.26,-35.53C198.33,-52.93 233,-93.42 233,-135.12 233,-192.38 233,-192.38 233,-192.38 233,-231.46 199.09,-265.91 175.7,-285.01"/>
<polygon fill="#63b8ff" stroke="#63b8ff" points="173.76,-282.87 168.05,-291.79 178.08,-288.38 173.76,-282.87"/>
</a>
</g>
<g id="a_edge26&#45;headlabel"><a xlink:href="dir_000030_000019.html" target="_top" xlink:title="3">
<text text-anchor="middle" x="173.84" y="-274.54" font-family="Helvetica,sans-Serif" font-size="10.00" fill="#63b8ff">3</text>
</a>
</g>
</g>
<!-- dir_6eaa9a4b68db9d3a4b16103d94f334fb&#45;&gt;dir_55984c57f282dc48266af8a0d45ddadd -->
<g id="edge24" class="edge">
<title>dir_6eaa9a4b68db9d3a4b16103d94f334fb&#45;&gt;dir_55984c57f282dc48266af8a0d45ddadd</title>
<g id="a_edge24"><a xlink:href="dir_000030_000037.html" target="_top">
<path fill="none" stroke="#63b8ff" d="M172.82,-35.61C170.82,-42.79 166.2,-53.09 161.18,-61.94"/>
<polygon fill="#63b8ff" stroke="#63b8ff" points="157.79,-59.75 155.46,-70.08 163.73,-63.46 157.79,-59.75"/>
</a>
</g>
<g id="a_edge24&#45;headlabel"><a xlink:href="dir_000030_000037.html" target="_top" xlink:title="16">
<text text-anchor="middle" x="157.29" y="-52.32" font-family="Helvetica,sans-Serif" font-size="10.00" fill="#63b8ff">16</text>
</a>
</g>
</g>
<!-- dir_55984c57f282dc48266af8a0d45ddadd&#45;&gt;dir_c450a44cd74e5a974db470ea1cf0577f -->
<g id="edge33" class="edge">
<title>dir_55984c57f282dc48266af8a0d45ddadd&#45;&gt;dir_c450a44cd74e5a974db470ea1cf0577f</title>
<g id="a_edge33"><a xlink:href="dir_000037_000002.html" target="_top">
<path fill="none" stroke="#63b8ff" d="M172.62,-90.96C209.86,-105.56 273,-138.03 273,-190.38 273,-247.62 273,-247.62 273,-247.62 273,-276.79 275.62,-288.27 258,-311.5 247.33,-325.56 230.89,-335.77 215.6,-342.85"/>
<polygon fill="#63b8ff" stroke="#63b8ff" points="214.61,-339.9 206.8,-347.06 217.37,-346.33 214.61,-339.9"/>
</a>
</g>
<g id="a_edge33&#45;headlabel"><a xlink:href="dir_000037_000002.html" target="_top" xlink:title="9">
<text text-anchor="middle" x="215.79" y="-332" font-family="Helvetica,sans-Serif" font-size="10.00" fill="#63b8ff">9</text>
</a>
</g>
</g>
<!-- dir_55984c57f282dc48266af8a0d45ddadd&#45;&gt;dir_a0e47c104ecd6c0b6dccb5f33d071508 -->
<g id="edge31" class="edge">
<title>dir_55984c57f282dc48266af8a0d45ddadd&#45;&gt;dir_a0e47c104ecd6c0b6dccb5f33d071508</title>
<g id="a_edge31"><a xlink:href="dir_000037_000004.html" target="_top">
<path fill="none" stroke="#63b8ff" d="M149.12,-90.73C147.6,-99.7 141.76,-114.01 137,-126.5 131.16,-141.81 124.88,-159.34 118.91,-172.15"/>
<polygon fill="#63b8ff" stroke="#63b8ff" points="115.48,-170.17 114,-180.66 121.7,-173.38 115.48,-170.17"/>
</a>
</g>
<g id="a_edge31&#45;headlabel"><a xlink:href="dir_000037_000004.html" target="_top" xlink:title="16">
<text text-anchor="middle" x="114.61" y="-162.8" font-family="Helvetica,sans-Serif" font-size="10.00" fill="#63b8ff">16</text>
</a>
</g>
</g>
<!-- dir_55984c57f282dc48266af8a0d45ddadd&#45;&gt;dir_52bb8edc54208f47f87ae9b01b1d12a6 -->
<g id="edge28" class="edge">
<title>dir_55984c57f282dc48266af8a0d45ddadd&#45;&gt;dir_52bb8edc54208f47f87ae9b01b1d12a6</title>
<g id="a_edge28"><a xlink:href="dir_000037_000010.html" target="_top">
<path fill="none" stroke="#63b8ff" d="M157.45,-90.86C163.87,-97.96 171.34,-108.11 176.78,-116.9"/>
<polygon fill="#63b8ff" stroke="#63b8ff" points="174.12,-118.31 182.06,-125.33 180.23,-114.9 174.12,-118.31"/>
</a>
</g>
<g id="a_edge28&#45;headlabel"><a xlink:href="dir_000037_000010.html" target="_top" xlink:title="5">
<text text-anchor="middle" x="169.89" y="-113.69" font-family="Helvetica,sans-Serif" font-size="10.00" fill="#63b8ff">5</text>
</a>
</g>
</g>
<!-- dir_55984c57f282dc48266af8a0d45ddadd&#45;&gt;dir_bafa501d493553e442f19f5f8dd7b29c -->
<g id="edge32" class="edge">
<title>dir_55984c57f282dc48266af8a0d45ddadd&#45;&gt;dir_bafa501d493553e442f19f5f8dd7b29c</title>
<g id="a_edge32"><a xlink:href="dir_000037_000019.html" target="_top">
<path fill="none" stroke="#63b8ff" d="M145.48,-90.76C144.99,-99.76 144.28,-114.09 144,-126.5 142.74,-182.68 148.55,-248.9 151.85,-281.19"/>
<polygon fill="#63b8ff" stroke="#63b8ff" points="148.44,-281.23 152.97,-290.81 155.4,-280.49 148.44,-281.23"/>
</a>
</g>
<g id="a_edge32&#45;headlabel"><a xlink:href="dir_000037_000019.html" target="_top" xlink:title="5">
<text text-anchor="middle" x="145.24" y="-275.08" font-family="Helvetica,sans-Serif" font-size="10.00" fill="#63b8ff">5</text>
</a>
</g>
</g>
<!-- dir_55984c57f282dc48266af8a0d45ddadd&#45;&gt;dir_6eaa9a4b68db9d3a4b16103d94f334fb -->
<g id="edge29" class="edge">
<title>dir_55984c57f282dc48266af8a0d45ddadd&#45;&gt;dir_6eaa9a4b68db9d3a4b16103d94f334fb</title>
<g id="a_edge29"><a xlink:href="dir_000037_000030.html" target="_top">
<path fill="none" stroke="#63b8ff" d="M145.13,-71.08C147.08,-63.96 151.68,-53.68 156.69,-44.8"/>
<polygon fill="#63b8ff" stroke="#63b8ff" points="160.09,-46.95 162.41,-36.61 154.15,-43.25 160.09,-46.95"/>
</a>
</g>
<g id="a_edge29&#45;headlabel"><a xlink:href="dir_000037_000030.html" target="_top" xlink:title="16">
<text text-anchor="middle" x="160.61" y="-46.63" font-family="Helvetica,sans-Serif" font-size="10.00" fill="#63b8ff">16</text>
</a>
</g>
</g>
<!-- dir_55984c57f282dc48266af8a0d45ddadd&#45;&gt;dir_961895bef81e67620a5b47a62fb3cb48 -->
<g id="edge30" class="edge">
<title>dir_55984c57f282dc48266af8a0d45ddadd&#45;&gt;dir_961895bef81e67620a5b47a62fb3cb48</title>
<g id="a_edge30"><a xlink:href="dir_000037_000040.html" target="_top">
<path fill="none" stroke="#63b8ff" d="M111.39,-84.63C83.73,-88.87 46.61,-99.56 28,-126.5 5.31,-159.34 37.82,-204.5 59.43,-228.7"/>
<polygon fill="#63b8ff" stroke="#63b8ff" points="56.41,-230.66 65.78,-235.6 61.53,-225.89 56.41,-230.66"/>
</a>
</g>
<g id="a_edge30&#45;headlabel"><a xlink:href="dir_000037_000040.html" target="_top" xlink:title="6">
<text text-anchor="middle" x="52.88" y="-227.08" font-family="Helvetica,sans-Serif" font-size="10.00" fill="#63b8ff">6</text>
</a>
</g>
</g>
<!-- dir_961895bef81e67620a5b47a62fb3cb48&#45;&gt;dir_a0e47c104ecd6c0b6dccb5f33d071508 -->
<g id="edge34" class="edge">
<title>dir_961895bef81e67620a5b47a62fb3cb48&#45;&gt;dir_a0e47c104ecd6c0b6dccb5f33d071508</title>
<g id="a_edge34"><a xlink:href="dir_000040_000004.html" target="_top">
<path fill="none" stroke="#63b8ff" d="M75.62,-236.83C78,-229.63 83.26,-219.21 88.84,-210.26"/>
<polygon fill="#63b8ff" stroke="#63b8ff" points="92.17,-212.6 94.9,-202.36 86.38,-208.66 92.17,-212.6"/>
</a>
</g>
<g id="a_edge34&#45;headlabel"><a xlink:href="dir_000040_000004.html" target="_top" xlink:title="2">
<text text-anchor="middle" x="92.49" y="-212.29" font-family="Helvetica,sans-Serif" font-size="10.00" fill="#63b8ff">2</text>
</a>
</g>
</g>
<!-- dir_961895bef81e67620a5b47a62fb3cb48&#45;&gt;dir_bafa501d493553e442f19f5f8dd7b29c -->
<g id="edge35" class="edge">
<title>dir_961895bef81e67620a5b47a62fb3cb48&#45;&gt;dir_bafa501d493553e442f19f5f8dd7b29c</title>
<g id="a_edge35"><a xlink:href="dir_000040_000019.html" target="_top">
<path fill="none" stroke="#63b8ff" d="M93.34,-256C106.6,-263.85 124.45,-275.78 137.48,-285.37"/>
<polygon fill="#63b8ff" stroke="#63b8ff" points="134.91,-288.57 144.99,-291.84 139.15,-283 134.91,-288.57"/>
</a>
</g>
<g id="a_edge35&#45;headlabel"><a xlink:href="dir_000040_000019.html" target="_top" xlink:title="8">
<text text-anchor="middle" x="131.33" y="-284.78" font-family="Helvetica,sans-Serif" font-size="10.00" fill="#63b8ff">8</text>
</a>
</g>
</g>
</g>
</svg>
</svg>

<style type='text/css'>
<![CDATA[
[data-mouse-over-selected='false'] { opacity: 0.7; }
[data-mouse-over-selected='true']  { opacity: 1.0; }
]]>
</style>
<script type="application/ecmascript"><![CDATA[
document.addEventListener('DOMContentLoaded', (event) => {
  highlightEdges();
  highlightAdjacentNodes();
});
]]></script>
</svg>
