<?xml version="1.0" encoding="UTF-8" standalone="no"?>
<!DOCTYPE svg PUBLIC "-//W3C//DTD SVG 1.1//EN"
 "http://www.w3.org/Graphics/SVG/1.1/DTD/svg11.dtd">
<!-- Generated by graphviz version 8.1.0 (20230707.0739)
 -->
<!-- Title: engine/direct3d11 Pages: 1 -->
<svg width="481pt" height="197pt"
 viewBox="0.00 0.00 481.00 197.00" xmlns="http://www.w3.org/2000/svg" xmlns:xlink="http://www.w3.org/1999/xlink">
<g id="graph0" class="graph" transform="scale(1 1) rotate(0) translate(4 193)">
<title>engine/direct3d11</title>
<g id="clust1" class="cluster">
<title>clusterdir_996f45160da62e1a3d7f6046fad68f51</title>
<g id="a_clust1"><a xlink:href="dir_996f45160da62e1a3d7f6046fad68f51.html" target="_top" xlink:title="engine">
<polygon fill="#edf0f7" stroke="#404040" stroke-dasharray="5,2" points="8,-8 8,-181 465,-181 465,-8 8,-8"/>
<text text-anchor="middle" x="236.5" y="-167.5" font-family="Helvetica,sans-Serif" font-size="10.00">engine</text>
</a>
</g>
</g>
<g id="clust2" class="cluster">
<title>clusterdir_52bb8edc54208f47f87ae9b01b1d12a6</title>
<g id="a_clust2"><a xlink:href="dir_52bb8edc54208f47f87ae9b01b1d12a6.html" target="_top">
<polygon fill="#edf0f7" stroke="#404040" stroke-width="2" points="16,-63.25 16,-153.75 94,-153.75 94,-63.25 16,-63.25"/>
</a>
</g>
</g>
<!-- dir_55984c57f282dc48266af8a0d45ddadd -->
<g id="node1" class="node">
<title>dir_55984c57f282dc48266af8a0d45ddadd</title>
<g id="a_node1"><a xlink:href="dir_55984c57f282dc48266af8a0d45ddadd.html" target="_top" xlink:title="subsystems">
<polygon fill="#a2b4d6" stroke="red" points="170.25,-90.5 101.75,-90.5 101.75,-71.25 170.25,-71.25 170.25,-90.5"/>
<text text-anchor="middle" x="136" y="-77" font-family="Helvetica,sans-Serif" font-size="10.00">subsystems</text>
</a>
</g>
</g>
<!-- dir_6eaa9a4b68db9d3a4b16103d94f334fb -->
<g id="node2" class="node">
<title>dir_6eaa9a4b68db9d3a4b16103d94f334fb</title>
<g id="a_node2"><a xlink:href="dir_6eaa9a4b68db9d3a4b16103d94f334fb.html" target="_top" xlink:title="render">
<polygon fill="#a2b4d6" stroke="red" points="231.5,-90.5 188.5,-90.5 188.5,-71.25 231.5,-71.25 231.5,-90.5"/>
<text text-anchor="middle" x="210" y="-77" font-family="Helvetica,sans-Serif" font-size="10.00">render</text>
</a>
</g>
</g>
<!-- dir_961895bef81e67620a5b47a62fb3cb48 -->
<g id="node3" class="node">
<title>dir_961895bef81e67620a5b47a62fb3cb48</title>
<g id="a_node3"><a xlink:href="dir_961895bef81e67620a5b47a62fb3cb48.html" target="_top" xlink:title="utils">
<polygon fill="#a2b4d6" stroke="red" points="173,-35.25 139,-35.25 139,-16 173,-16 173,-35.25"/>
<text text-anchor="middle" x="156" y="-21.75" font-family="Helvetica,sans-Serif" font-size="10.00">utils</text>
</a>
</g>
</g>
<!-- dir_a0e47c104ecd6c0b6dccb5f33d071508 -->
<g id="node4" class="node">
<title>dir_a0e47c104ecd6c0b6dccb5f33d071508</title>
<g id="a_node4"><a xlink:href="dir_a0e47c104ecd6c0b6dccb5f33d071508.html" target="_top" xlink:title="core">
<polygon fill="#a2b4d6" stroke="red" points="304.38,-90.5 269.62,-90.5 269.62,-71.25 304.38,-71.25 304.38,-90.5"/>
<text text-anchor="middle" x="287" y="-77" font-family="Helvetica,sans-Serif" font-size="10.00">core</text>
</a>
</g>
</g>
<!-- dir_bafa501d493553e442f19f5f8dd7b29c -->
<g id="node5" class="node">
<title>dir_bafa501d493553e442f19f5f8dd7b29c</title>
<g id="a_node5"><a xlink:href="dir_bafa501d493553e442f19f5f8dd7b29c.html" target="_top" xlink:title="include">
<polygon fill="#a2b4d6" stroke="#404040" points="369.38,-90.5 322.62,-90.5 322.62,-71.25 369.38,-71.25 369.38,-90.5"/>
<text text-anchor="middle" x="346" y="-77" font-family="Helvetica,sans-Serif" font-size="10.00">include</text>
</a>
</g>
</g>
<!-- dir_c450a44cd74e5a974db470ea1cf0577f -->
<g id="node6" class="node">
<title>dir_c450a44cd74e5a974db470ea1cf0577f</title>
<g id="a_node6"><a xlink:href="dir_c450a44cd74e5a974db470ea1cf0577f.html" target="_top" xlink:title="components">
<polygon fill="#a2b4d6" stroke="#404040" points="456.62,-90.5 387.38,-90.5 387.38,-71.25 456.62,-71.25 456.62,-90.5"/>
<text text-anchor="middle" x="422" y="-77" font-family="Helvetica,sans-Serif" font-size="10.00">components</text>
</a>
</g>
</g>
<!-- dir_52bb8edc54208f47f87ae9b01b1d12a6 -->
<g id="node7" class="node">
<title>dir_52bb8edc54208f47f87ae9b01b1d12a6</title>
<text text-anchor="middle" x="55" y="-132.25" font-family="Helvetica,sans-Serif" font-size="10.00">direct3d11</text>
</g>
<!-- dir_52bb8edc54208f47f87ae9b01b1d12a6&#45;&gt;dir_55984c57f282dc48266af8a0d45ddadd -->
<g id="edge1" class="edge">
<title>dir_52bb8edc54208f47f87ae9b01b1d12a6&#45;&gt;dir_55984c57f282dc48266af8a0d45ddadd</title>
<path fill="none" stroke="#63b8ff" d="M68.01,-126.57C80.19,-118.56 98.65,-106.43 113.26,-96.82"/>
<polygon fill="#63b8ff" stroke="#63b8ff" points="114.77,-99.36 121.2,-90.94 110.93,-93.51 114.77,-99.36"/>
<g id="a_edge1&#45;headlabel"><a xlink:href="dir_000010_000037.html" target="_top" xlink:title="3">
<text text-anchor="middle" x="114.33" y="-99.83" font-family="Helvetica,sans-Serif" font-size="10.00" fill="#63b8ff">3</text>
</a>
</g>
</g>
<!-- dir_52bb8edc54208f47f87ae9b01b1d12a6&#45;&gt;dir_6eaa9a4b68db9d3a4b16103d94f334fb -->
<g id="edge2" class="edge">
<title>dir_52bb8edc54208f47f87ae9b01b1d12a6&#45;&gt;dir_6eaa9a4b68db9d3a4b16103d94f334fb</title>
<path fill="none" stroke="#63b8ff" d="M79.9,-126.57C106.58,-117.41 149,-102.83 178.1,-92.83"/>
<polygon fill="#63b8ff" stroke="#63b8ff" points="178.84,-95.94 187.16,-89.38 176.57,-89.32 178.84,-95.94"/>
<g id="a_edge2&#45;headlabel"><a xlink:href="dir_000010_000030.html" target="_top" xlink:title="5">
<text text-anchor="middle" x="177.37" y="-95.91" font-family="Helvetica,sans-Serif" font-size="10.00" fill="#63b8ff">5</text>
</a>
</g>
</g>
<!-- dir_52bb8edc54208f47f87ae9b01b1d12a6&#45;&gt;dir_961895bef81e67620a5b47a62fb3cb48 -->
<g id="edge3" class="edge">
<title>dir_52bb8edc54208f47f87ae9b01b1d12a6&#45;&gt;dir_961895bef81e67620a5b47a62fb3cb48</title>
<path fill="none" stroke="#63b8ff" d="M85.21,-132.34C132.84,-127.25 221.93,-114.69 241,-90.5 248.5,-80.99 247.66,-73.37 241,-63.25 228.45,-44.17 203.64,-34.99 184.05,-30.6"/>
<polygon fill="#63b8ff" stroke="#63b8ff" points="184.73,-26.97 174.25,-28.52 183.41,-33.84 184.73,-26.97"/>
<g id="a_edge3&#45;headlabel"><a xlink:href="dir_000010_000040.html" target="_top" xlink:title="6">
<text text-anchor="middle" x="187.8" y="-20.98" font-family="Helvetica,sans-Serif" font-size="10.00" fill="#63b8ff">6</text>
</a>
</g>
</g>
<!-- dir_52bb8edc54208f47f87ae9b01b1d12a6&#45;&gt;dir_a0e47c104ecd6c0b6dccb5f33d071508 -->
<g id="edge4" class="edge">
<title>dir_52bb8edc54208f47f87ae9b01b1d12a6&#45;&gt;dir_a0e47c104ecd6c0b6dccb5f33d071508</title>
<path fill="none" stroke="#63b8ff" d="M85.42,-128.89C124.9,-120.69 195.83,-105.54 256,-90.5 256.95,-90.26 257.91,-90.02 258.88,-89.77"/>
<polygon fill="#63b8ff" stroke="#63b8ff" points="259.59,-92.93 268.34,-86.96 257.77,-86.17 259.59,-92.93"/>
<g id="a_edge4&#45;headlabel"><a xlink:href="dir_000010_000004.html" target="_top" xlink:title="5">
<text text-anchor="middle" x="257.85" y="-92.73" font-family="Helvetica,sans-Serif" font-size="10.00" fill="#63b8ff">5</text>
</a>
</g>
</g>
<!-- dir_52bb8edc54208f47f87ae9b01b1d12a6&#45;&gt;dir_bafa501d493553e442f19f5f8dd7b29c -->
<g id="edge6" class="edge">
<title>dir_52bb8edc54208f47f87ae9b01b1d12a6&#45;&gt;dir_bafa501d493553e442f19f5f8dd7b29c</title>
<path fill="none" stroke="#63b8ff" d="M85.35,-130.73C131.85,-123.8 223.71,-109.4 311.57,-90.64"/>
<polygon fill="#63b8ff" stroke="#63b8ff" points="312.23,-93.87 321.26,-88.33 310.75,-87.02 312.23,-93.87"/>
<g id="a_edge6&#45;headlabel"><a xlink:href="dir_000010_000019.html" target="_top" xlink:title="2">
<text text-anchor="middle" x="310.31" y="-93.53" font-family="Helvetica,sans-Serif" font-size="10.00" fill="#63b8ff">2</text>
</a>
</g>
</g>
<!-- dir_52bb8edc54208f47f87ae9b01b1d12a6&#45;&gt;dir_c450a44cd74e5a974db470ea1cf0577f -->
<g id="edge7" class="edge">
<title>dir_52bb8edc54208f47f87ae9b01b1d12a6&#45;&gt;dir_c450a44cd74e5a974db470ea1cf0577f</title>
<path fill="none" stroke="#63b8ff" d="M85.37,-131.51C140.97,-124.76 263.1,-109.37 376.39,-90.69"/>
<polygon fill="#63b8ff" stroke="#63b8ff" points="376.68,-94.02 385.97,-88.93 375.53,-87.11 376.68,-94.02"/>
<g id="a_edge7&#45;headlabel"><a xlink:href="dir_000010_000002.html" target="_top" xlink:title="1">
<text text-anchor="middle" x="374.6" y="-93.53" font-family="Helvetica,sans-Serif" font-size="10.00" fill="#63b8ff">1</text>
</a>
</g>
</g>
<!-- dir_a90e6dba9306c22cb15c23481e5b9c4a -->
<g id="node8" class="node">
<title>dir_a90e6dba9306c22cb15c23481e5b9c4a</title>
<g id="a_node8"><a xlink:href="dir_a90e6dba9306c22cb15c23481e5b9c4a.html" target="_top" xlink:title="buffers">
<polygon fill="#a2b4d6" stroke="#404040" points="80.62,-90.5 35.38,-90.5 35.38,-71.25 80.62,-71.25 80.62,-90.5"/>
<text text-anchor="middle" x="58" y="-77" font-family="Helvetica,sans-Serif" font-size="10.00">buffers</text>
</a>
</g>
</g>
<!-- dir_52bb8edc54208f47f87ae9b01b1d12a6&#45;&gt;dir_a90e6dba9306c22cb15c23481e5b9c4a -->
<g id="edge5" class="edge">
<title>dir_52bb8edc54208f47f87ae9b01b1d12a6&#45;&gt;dir_a90e6dba9306c22cb15c23481e5b9c4a</title>
<path fill="none" stroke="#63b8ff" d="M55.47,-126.8C55.85,-120.05 56.4,-110.24 56.89,-101.51"/>
<polygon fill="#63b8ff" stroke="#63b8ff" points="60.44,-101.85 57.5,-91.67 53.45,-101.46 60.44,-101.85"/>
<g id="a_edge5&#45;headlabel"><a xlink:href="dir_000010_000001.html" target="_top" xlink:title="7">
<text text-anchor="middle" x="63.07" y="-100.72" font-family="Helvetica,sans-Serif" font-size="10.00" fill="#63b8ff">7</text>
</a>
</g>
</g>
<!-- dir_a90e6dba9306c22cb15c23481e5b9c4a&#45;&gt;dir_961895bef81e67620a5b47a62fb3cb48 -->
<g id="edge8" class="edge">
<title>dir_a90e6dba9306c22cb15c23481e5b9c4a&#45;&gt;dir_961895bef81e67620a5b47a62fb3cb48</title>
<path fill="none" stroke="#63b8ff" d="M72.17,-70.87C76.27,-68.34 80.78,-65.63 85,-63.25 99.34,-55.15 115.65,-46.69 129.02,-39.94"/>
<polygon fill="#63b8ff" stroke="#63b8ff" points="130.22,-42.75 137.59,-35.15 127.08,-36.49 130.22,-42.75"/>
<g id="a_edge8&#45;headlabel"><a xlink:href="dir_000001_000040.html" target="_top" xlink:title="1">
<text text-anchor="middle" x="129.27" y="-43.03" font-family="Helvetica,sans-Serif" font-size="10.00" fill="#63b8ff">1</text>
</a>
</g>
</g>
</g>
</svg>
