<?xml version="1.0" encoding="UTF-8" standalone="no"?>
<!DOCTYPE svg PUBLIC "-//W3C//DTD SVG 1.1//EN"
 "http://www.w3.org/Graphics/SVG/1.1/DTD/svg11.dtd">
<!-- Generated by graphviz version 8.1.0 (20230707.0739)
 -->
<!-- Title: engine/subsystems Pages: 1 -->
<svg width="419pt" height="197pt"
 viewBox="0.00 0.00 419.00 197.00" xmlns="http://www.w3.org/2000/svg" xmlns:xlink="http://www.w3.org/1999/xlink">

<svg id="main" version="1.1" xmlns="http://www.w3.org/2000/svg" xmlns:xlink="http://www.w3.org/1999/xlink" xml:space="preserve" onload="init(evt)">
<style type="text/css"><![CDATA[
.node, .edge {opacity: 0.7;}
.node.selected, .edge.selected {opacity: 1;}
.edge:hover path { stroke: red; }
.edge:hover polygon { stroke: red; fill: red; }
]]></style>
<script type="application/ecmascript" xlink:href="svg.min.js"/>
<svg id="graph" class="graph">
<g id="graph0" class="graph" transform="scale(1 1) rotate(0) translate(4 193)">
<title>engine/subsystems</title>
<g id="clust1" class="cluster">
<title>clusterdir_996f45160da62e1a3d7f6046fad68f51</title>
<g id="a_clust1"><a xlink:href="dir_996f45160da62e1a3d7f6046fad68f51.html" target="_top" xlink:title="engine">
<polygon fill="#edf0f7" stroke="#404040" stroke-dasharray="5,2" points="8,-8 8,-181 403,-181 403,-8 8,-8"/>
<text text-anchor="middle" x="205.5" y="-167.5" font-family="Helvetica,sans-Serif" font-size="10.00">engine</text>
</a>
</g>
</g>
<g id="clust2" class="cluster">
<title>clusterdir_55984c57f282dc48266af8a0d45ddadd</title>
<g id="a_clust2"><a xlink:href="dir_55984c57f282dc48266af8a0d45ddadd.html" target="_top">
<polygon fill="#edf0f7" stroke="#404040" stroke-width="2" points="228,-63.25 228,-153.75 365,-153.75 365,-63.25 228,-63.25"/>
</a>
</g>
</g>
<!-- dir_52bb8edc54208f47f87ae9b01b1d12a6 -->
<g id="node1" class="node">
<title>dir_52bb8edc54208f47f87ae9b01b1d12a6</title>
<g id="a_node1"><a xlink:href="dir_52bb8edc54208f47f87ae9b01b1d12a6.html" target="_top" xlink:title="direct3d11">
<polygon fill="#a2b4d6" stroke="red" points="129.5,-35.25 68.5,-35.25 68.5,-16 129.5,-16 129.5,-35.25"/>
<text text-anchor="middle" x="99" y="-21.75" font-family="Helvetica,sans-Serif" font-size="10.00">direct3d11</text>
</a>
</g>
</g>
<!-- dir_6eaa9a4b68db9d3a4b16103d94f334fb -->
<g id="node2" class="node">
<title>dir_6eaa9a4b68db9d3a4b16103d94f334fb</title>
<g id="a_node2"><a xlink:href="dir_6eaa9a4b68db9d3a4b16103d94f334fb.html" target="_top" xlink:title="render">
<polygon fill="#a2b4d6" stroke="red" points="342.5,-35.25 299.5,-35.25 299.5,-16 342.5,-16 342.5,-35.25"/>
<text text-anchor="middle" x="321" y="-21.75" font-family="Helvetica,sans-Serif" font-size="10.00">render</text>
</a>
</g>
</g>
<!-- dir_961895bef81e67620a5b47a62fb3cb48 -->
<g id="node3" class="node">
<title>dir_961895bef81e67620a5b47a62fb3cb48</title>
<g id="a_node3"><a xlink:href="dir_961895bef81e67620a5b47a62fb3cb48.html" target="_top" xlink:title="utils">
<polygon fill="#a2b4d6" stroke="red" points="395,-35.25 361,-35.25 361,-16 395,-16 395,-35.25"/>
<text text-anchor="middle" x="378" y="-21.75" font-family="Helvetica,sans-Serif" font-size="10.00">utils</text>
</a>
</g>
</g>
<!-- dir_a0e47c104ecd6c0b6dccb5f33d071508 -->
<g id="node4" class="node">
<title>dir_a0e47c104ecd6c0b6dccb5f33d071508</title>
<g id="a_node4"><a xlink:href="dir_a0e47c104ecd6c0b6dccb5f33d071508.html" target="_top" xlink:title="core">
<polygon fill="#a2b4d6" stroke="red" points="50.38,-35.25 15.62,-35.25 15.62,-16 50.38,-16 50.38,-35.25"/>
<text text-anchor="middle" x="33" y="-21.75" font-family="Helvetica,sans-Serif" font-size="10.00">core</text>
</a>
</g>
</g>
<!-- dir_bafa501d493553e442f19f5f8dd7b29c -->
<g id="node5" class="node">
<title>dir_bafa501d493553e442f19f5f8dd7b29c</title>
<g id="a_node5"><a xlink:href="dir_bafa501d493553e442f19f5f8dd7b29c.html" target="_top" xlink:title="include">
<polygon fill="#a2b4d6" stroke="#404040" points="281.38,-35.25 234.62,-35.25 234.62,-16 281.38,-16 281.38,-35.25"/>
<text text-anchor="middle" x="258" y="-21.75" font-family="Helvetica,sans-Serif" font-size="10.00">include</text>
</a>
</g>
</g>
<!-- dir_c450a44cd74e5a974db470ea1cf0577f -->
<g id="node6" class="node">
<title>dir_c450a44cd74e5a974db470ea1cf0577f</title>
<g id="a_node6"><a xlink:href="dir_c450a44cd74e5a974db470ea1cf0577f.html" target="_top" xlink:title="components">
<polygon fill="#a2b4d6" stroke="#404040" points="216.62,-35.25 147.38,-35.25 147.38,-16 216.62,-16 216.62,-35.25"/>
<text text-anchor="middle" x="182" y="-21.75" font-family="Helvetica,sans-Serif" font-size="10.00">components</text>
</a>
</g>
</g>
<!-- dir_55984c57f282dc48266af8a0d45ddadd -->
<g id="node7" class="node">
<title>dir_55984c57f282dc48266af8a0d45ddadd</title>
<text text-anchor="middle" x="323" y="-132.25" font-family="Helvetica,sans-Serif" font-size="10.00">subsystems</text>
</g>
<!-- dir_fffb0536444c266989e4fa626fabed06 -->
<g id="node8" class="node">
<title>dir_fffb0536444c266989e4fa626fabed06</title>
<g id="a_node8"><a xlink:href="dir_fffb0536444c266989e4fa626fabed06.html" target="_top" xlink:title="core">
<polygon fill="#a2b4d6" stroke="#404040" points="270.38,-145.75 235.62,-145.75 235.62,-126.5 270.38,-126.5 270.38,-145.75"/>
<text text-anchor="middle" x="253" y="-132.25" font-family="Helvetica,sans-Serif" font-size="10.00">core</text>
</a>
</g>
</g>
<!-- dir_fffb0536444c266989e4fa626fabed06&#45;&gt;dir_6eaa9a4b68db9d3a4b16103d94f334fb -->
<g id="edge2" class="edge">
<title>dir_fffb0536444c266989e4fa626fabed06&#45;&gt;dir_6eaa9a4b68db9d3a4b16103d94f334fb</title>
<path fill="none" stroke="#63b8ff" d="M263.47,-126.08C272.75,-117.63 286.15,-104.29 295,-90.5 304.01,-76.47 310.91,-58.81 315.33,-45.62"/>
<polygon fill="#63b8ff" stroke="#63b8ff" points="318.89,-46.97 318.57,-36.38 312.21,-44.86 318.89,-46.97"/>
<g id="a_edge2&#45;headlabel"><a xlink:href="dir_000005_000030.html" target="_top" xlink:title="2">
<text text-anchor="middle" x="320.51" y="-46.37" font-family="Helvetica,sans-Serif" font-size="10.00" fill="#63b8ff">2</text>
</a>
</g>
</g>
<!-- dir_fffb0536444c266989e4fa626fabed06&#45;&gt;dir_961895bef81e67620a5b47a62fb3cb48 -->
<g id="edge3" class="edge">
<title>dir_fffb0536444c266989e4fa626fabed06&#45;&gt;dir_961895bef81e67620a5b47a62fb3cb48</title>
<path fill="none" stroke="#63b8ff" d="M263.63,-126.31C274.38,-117.37 291.44,-103.09 306,-90.5 324.64,-74.39 345.68,-55.66 360.18,-42.66"/>
<polygon fill="#63b8ff" stroke="#63b8ff" points="362.19,-45.67 367.29,-36.38 357.51,-40.46 362.19,-45.67"/>
<g id="a_edge3&#45;headlabel"><a xlink:href="dir_000005_000040.html" target="_top" xlink:title="2">
<text text-anchor="middle" x="362.41" y="-45.31" font-family="Helvetica,sans-Serif" font-size="10.00" fill="#63b8ff">2</text>
</a>
</g>
</g>
<!-- dir_fffb0536444c266989e4fa626fabed06&#45;&gt;dir_bafa501d493553e442f19f5f8dd7b29c -->
<g id="edge4" class="edge">
<title>dir_fffb0536444c266989e4fa626fabed06&#45;&gt;dir_bafa501d493553e442f19f5f8dd7b29c</title>
<path fill="none" stroke="#63b8ff" d="M263.5,-126.08C272.22,-117.82 283.96,-104.77 289,-90.5 293.03,-79.08 293.17,-74.62 289,-63.25 286.3,-55.89 281.4,-49 276.28,-43.22"/>
<polygon fill="#63b8ff" stroke="#63b8ff" points="279.35,-41.33 269.86,-36.62 274.35,-46.22 279.35,-41.33"/>
<g id="a_edge4&#45;headlabel"><a xlink:href="dir_000005_000019.html" target="_top" xlink:title="2">
<text text-anchor="middle" x="282.89" y="-37.03" font-family="Helvetica,sans-Serif" font-size="10.00" fill="#63b8ff">2</text>
</a>
</g>
</g>
<!-- dir_631d01bd786b3b410df34efb6696164e -->
<g id="node9" class="node">
<title>dir_631d01bd786b3b410df34efb6696164e</title>
<g id="a_node9"><a xlink:href="dir_631d01bd786b3b410df34efb6696164e.html" target="_top" xlink:title="render">
<polygon fill="#a2b4d6" stroke="#404040" points="279.5,-90.5 236.5,-90.5 236.5,-71.25 279.5,-71.25 279.5,-90.5"/>
<text text-anchor="middle" x="258" y="-77" font-family="Helvetica,sans-Serif" font-size="10.00">render</text>
</a>
</g>
</g>
<!-- dir_fffb0536444c266989e4fa626fabed06&#45;&gt;dir_631d01bd786b3b410df34efb6696164e -->
<g id="edge1" class="edge">
<title>dir_fffb0536444c266989e4fa626fabed06&#45;&gt;dir_631d01bd786b3b410df34efb6696164e</title>
<path fill="none" stroke="#63b8ff" d="M248.66,-126.33C247.85,-119.59 248.29,-110.02 249.62,-101.49"/>
<polygon fill="#63b8ff" stroke="#63b8ff" points="253.23,-102.38 251.95,-91.86 246.39,-100.88 253.23,-102.38"/>
<g id="a_edge1&#45;headlabel"><a xlink:href="dir_000005_000031.html" target="_top" xlink:title="1">
<text text-anchor="middle" x="255.23" y="-101.62" font-family="Helvetica,sans-Serif" font-size="10.00" fill="#63b8ff">1</text>
</a>
</g>
</g>
<!-- dir_631d01bd786b3b410df34efb6696164e&#45;&gt;dir_52bb8edc54208f47f87ae9b01b1d12a6 -->
<g id="edge5" class="edge">
<title>dir_631d01bd786b3b410df34efb6696164e&#45;&gt;dir_52bb8edc54208f47f87ae9b01b1d12a6</title>
<path fill="none" stroke="#63b8ff" d="M236.23,-72.58C210.47,-63.96 167.19,-49.46 136.12,-39.06"/>
<polygon fill="#63b8ff" stroke="#63b8ff" points="137.68,-35.55 127.09,-35.7 135.46,-42.19 137.68,-35.55"/>
<g id="a_edge5&#45;headlabel"><a xlink:href="dir_000031_000010.html" target="_top" xlink:title="5">
<text text-anchor="middle" x="140.99" y="-30.13" font-family="Helvetica,sans-Serif" font-size="10.00" fill="#63b8ff">5</text>
</a>
</g>
</g>
<!-- dir_631d01bd786b3b410df34efb6696164e&#45;&gt;dir_6eaa9a4b68db9d3a4b16103d94f334fb -->
<g id="edge6" class="edge">
<title>dir_631d01bd786b3b410df34efb6696164e&#45;&gt;dir_6eaa9a4b68db9d3a4b16103d94f334fb</title>
<path fill="none" stroke="#63b8ff" d="M268.69,-70.84C277.88,-63.07 291.36,-51.67 302.34,-42.4"/>
<polygon fill="#63b8ff" stroke="#63b8ff" points="304.09,-44.65 309.47,-35.52 299.57,-39.31 304.09,-44.65"/>
<g id="a_edge6&#45;headlabel"><a xlink:href="dir_000031_000030.html" target="_top" xlink:title="14">
<text text-anchor="middle" x="304.18" y="-45.27" font-family="Helvetica,sans-Serif" font-size="10.00" fill="#63b8ff">14</text>
</a>
</g>
</g>
<!-- dir_631d01bd786b3b410df34efb6696164e&#45;&gt;dir_961895bef81e67620a5b47a62fb3cb48 -->
<g id="edge7" class="edge">
<title>dir_631d01bd786b3b410df34efb6696164e&#45;&gt;dir_961895bef81e67620a5b47a62fb3cb48</title>
<path fill="none" stroke="#63b8ff" d="M270.93,-70.9C275.01,-68.26 279.61,-65.48 284,-63.25 295.93,-57.19 327.11,-45.31 350.3,-36.73"/>
<polygon fill="#63b8ff" stroke="#63b8ff" points="351.44,-39.67 359.62,-32.93 349.02,-33.1 351.44,-39.67"/>
<g id="a_edge7&#45;headlabel"><a xlink:href="dir_000031_000040.html" target="_top" xlink:title="4">
<text text-anchor="middle" x="350.05" y="-39.7" font-family="Helvetica,sans-Serif" font-size="10.00" fill="#63b8ff">4</text>
</a>
</g>
</g>
<!-- dir_631d01bd786b3b410df34efb6696164e&#45;&gt;dir_a0e47c104ecd6c0b6dccb5f33d071508 -->
<g id="edge8" class="edge">
<title>dir_631d01bd786b3b410df34efb6696164e&#45;&gt;dir_a0e47c104ecd6c0b6dccb5f33d071508</title>
<path fill="none" stroke="#63b8ff" d="M236.03,-75.69C200.97,-68.86 130.01,-54.4 61.38,-35.71"/>
<polygon fill="#63b8ff" stroke="#63b8ff" points="62.4,-32.09 51.83,-32.8 60.54,-38.83 62.4,-32.09"/>
<g id="a_edge8&#45;headlabel"><a xlink:href="dir_000031_000004.html" target="_top" xlink:title="16">
<text text-anchor="middle" x="65.62" y="-26.43" font-family="Helvetica,sans-Serif" font-size="10.00" fill="#63b8ff">16</text>
</a>
</g>
</g>
<!-- dir_631d01bd786b3b410df34efb6696164e&#45;&gt;dir_bafa501d493553e442f19f5f8dd7b29c -->
<g id="edge9" class="edge">
<title>dir_631d01bd786b3b410df34efb6696164e&#45;&gt;dir_bafa501d493553e442f19f5f8dd7b29c</title>
<path fill="none" stroke="#63b8ff" d="M258,-71.08C258,-64.42 258,-54.99 258,-46.53"/>
<polygon fill="#63b8ff" stroke="#63b8ff" points="261.5,-46.61 258,-36.61 254.5,-46.61 261.5,-46.61"/>
<g id="a_edge9&#45;headlabel"><a xlink:href="dir_000031_000019.html" target="_top" xlink:title="3">
<text text-anchor="middle" x="264.34" y="-45.33" font-family="Helvetica,sans-Serif" font-size="10.00" fill="#63b8ff">3</text>
</a>
</g>
</g>
<!-- dir_631d01bd786b3b410df34efb6696164e&#45;&gt;dir_c450a44cd74e5a974db470ea1cf0577f -->
<g id="edge10" class="edge">
<title>dir_631d01bd786b3b410df34efb6696164e&#45;&gt;dir_c450a44cd74e5a974db470ea1cf0577f</title>
<path fill="none" stroke="#63b8ff" d="M245.11,-70.84C233.75,-62.89 216.98,-51.14 203.59,-41.75"/>
<polygon fill="#63b8ff" stroke="#63b8ff" points="206.15,-38.57 195.96,-35.7 202.14,-44.31 206.15,-38.57"/>
<g id="a_edge10&#45;headlabel"><a xlink:href="dir_000031_000002.html" target="_top" xlink:title="9">
<text text-anchor="middle" x="209.73" y="-34.44" font-family="Helvetica,sans-Serif" font-size="10.00" fill="#63b8ff">9</text>
</a>
</g>
</g>
<!-- dir_631d01bd786b3b410df34efb6696164e&#45;&gt;dir_fffb0536444c266989e4fa626fabed06 -->
<g id="edge11" class="edge">
<title>dir_631d01bd786b3b410df34efb6696164e&#45;&gt;dir_fffb0536444c266989e4fa626fabed06</title>
<path fill="none" stroke="#63b8ff" d="M262.36,-90.86C263.15,-97.65 262.69,-107.24 261.34,-115.75"/>
<polygon fill="#63b8ff" stroke="#63b8ff" points="257.74,-114.81 258.99,-125.33 264.58,-116.33 257.74,-114.81"/>
<g id="a_edge11&#45;headlabel"><a xlink:href="dir_000031_000005.html" target="_top" xlink:title="13">
<text text-anchor="middle" x="255.75" y="-107.81" font-family="Helvetica,sans-Serif" font-size="10.00" fill="#63b8ff">13</text>
</a>
</g>
</g>
</g>
</svg>
</svg>

<style type='text/css'>
<![CDATA[
[data-mouse-over-selected='false'] { opacity: 0.7; }
[data-mouse-over-selected='true']  { opacity: 1.0; }
]]>
</style>
<script type="application/ecmascript"><![CDATA[
document.addEventListener('DOMContentLoaded', (event) => {
  highlightEdges();
  highlightAdjacentNodes();
});
]]></script>
</svg>
