<?xml version="1.0" encoding="UTF-8" standalone="no"?>
<!DOCTYPE svg PUBLIC "-//W3C//DTD SVG 1.1//EN"
 "http://www.w3.org/Graphics/SVG/1.1/DTD/svg11.dtd">
<!-- Generated by graphviz version 8.1.0 (20230707.0739)
 -->
<!-- Title: engine/subsystems/render/detail Pages: 1 -->
<svg width="387pt" height="181pt"
 viewBox="0.00 0.00 386.61 181.00" xmlns="http://www.w3.org/2000/svg" xmlns:xlink="http://www.w3.org/1999/xlink">

<svg id="main" version="1.1" xmlns="http://www.w3.org/2000/svg" xmlns:xlink="http://www.w3.org/1999/xlink" xml:space="preserve" onload="init(evt)">
<style type="text/css"><![CDATA[
.node, .edge {opacity: 0.7;}
.node.selected, .edge.selected {opacity: 1;}
.edge:hover path { stroke: red; }
.edge:hover polygon { stroke: red; fill: red; }
]]></style>
<script type="application/ecmascript" xlink:href="svg.min.js"/>
<svg id="graph" class="graph">
<g id="graph0" class="graph" transform="scale(1 1) rotate(0) translate(4 177)">
<title>engine/subsystems/render/detail</title>
<g id="clust1" class="cluster">
<title>clusterdir_631d01bd786b3b410df34efb6696164e</title>
<g id="a_clust1"><a xlink:href="dir_631d01bd786b3b410df34efb6696164e.html" target="_top" xlink:title="render">
<polygon fill="#edf0f7" stroke="#7f7f7f" stroke-dasharray="5,2" points="78.5,-39.25 78.5,-165 150.5,-165 150.5,-39.25 78.5,-39.25"/>
<text text-anchor="middle" x="114.5" y="-151.5" font-family="Helvetica,sans-Serif" font-size="10.00">render</text>
</a>
</g>
</g>
<g id="clust2" class="cluster">
<title>clusterdir_9d75d78bff579dfd76de3e7111e79cbd</title>
<g id="a_clust2"><a xlink:href="dir_9d75d78bff579dfd76de3e7111e79cbd.html" target="_top">
<polygon fill="#edf0f7" stroke="#404040" stroke-width="2" points="86.5,-47.25 86.5,-137.75 142.5,-137.75 142.5,-47.25 86.5,-47.25"/>
</a>
</g>
</g>
<!-- dir_9d75d78bff579dfd76de3e7111e79cbd -->
<g id="node1" class="node">
<title>dir_9d75d78bff579dfd76de3e7111e79cbd</title>
<text text-anchor="middle" x="114.5" y="-116.25" font-family="Helvetica,sans-Serif" font-size="10.00">detail</text>
</g>
<!-- dir_4e6b7cf77a91847c445a3f466d593fea -->
<g id="node2" class="node">
<title>dir_4e6b7cf77a91847c445a3f466d593fea</title>
<g id="a_node2"><a xlink:href="dir_4e6b7cf77a91847c445a3f466d593fea.html" target="_top" xlink:title="misc">
<polygon fill="#a2b4d6" stroke="#404040" points="132,-74.5 95,-74.5 95,-55.25 132,-55.25 132,-74.5"/>
<text text-anchor="middle" x="113.5" y="-61" font-family="Helvetica,sans-Serif" font-size="10.00">misc</text>
</a>
</g>
</g>
<!-- dir_9d75d78bff579dfd76de3e7111e79cbd&#45;&gt;dir_4e6b7cf77a91847c445a3f466d593fea -->
<g id="edge1" class="edge">
<title>dir_9d75d78bff579dfd76de3e7111e79cbd&#45;&gt;dir_4e6b7cf77a91847c445a3f466d593fea</title>
<path fill="none" stroke="#63b8ff" d="M114.34,-110.8C114.22,-104.05 114.03,-94.24 113.87,-85.51"/>
<polygon fill="#63b8ff" stroke="#63b8ff" points="117.35,-85.6 113.67,-75.67 110.35,-85.73 117.35,-85.6"/>
<g id="a_edge1&#45;headlabel"><a xlink:href="dir_000008_000023.html" target="_top" xlink:title="2">
<text text-anchor="middle" x="120.26" y="-84.27" font-family="Helvetica,sans-Serif" font-size="10.00" fill="#63b8ff">2</text>
</a>
</g>
</g>
<!-- dir_52bb8edc54208f47f87ae9b01b1d12a6 -->
<g id="node3" class="node">
<title>dir_52bb8edc54208f47f87ae9b01b1d12a6</title>
<g id="a_node3"><a xlink:href="dir_52bb8edc54208f47f87ae9b01b1d12a6.html" target="_top" xlink:title="direct3d11">
<polygon fill="#edf0f7" stroke="red" stroke-dasharray="5,2" points="61,-19.25 0,-19.25 0,0 61,0 61,-19.25"/>
<text text-anchor="middle" x="30.5" y="-5.75" font-family="Helvetica,sans-Serif" font-size="10.00">direct3d11</text>
</a>
</g>
</g>
<!-- dir_9d75d78bff579dfd76de3e7111e79cbd&#45;&gt;dir_52bb8edc54208f47f87ae9b01b1d12a6 -->
<g id="edge2" class="edge">
<title>dir_9d75d78bff579dfd76de3e7111e79cbd&#45;&gt;dir_52bb8edc54208f47f87ae9b01b1d12a6</title>
<path fill="none" stroke="#63b8ff" d="M107.51,-110.64C100.19,-101.71 88.41,-87.22 78.5,-74.5 66.41,-58.98 52.98,-41.05 43.41,-28.14"/>
<polygon fill="#63b8ff" stroke="#63b8ff" points="45.69,-26.33 36.93,-20.38 40.06,-30.5 45.69,-26.33"/>
<g id="a_edge2&#45;headlabel"><a xlink:href="dir_000008_000010.html" target="_top" xlink:title="4">
<text text-anchor="middle" x="50.11" y="-22.66" font-family="Helvetica,sans-Serif" font-size="10.00" fill="#63b8ff">4</text>
</a>
</g>
</g>
<!-- dir_6eaa9a4b68db9d3a4b16103d94f334fb -->
<g id="node4" class="node">
<title>dir_6eaa9a4b68db9d3a4b16103d94f334fb</title>
<g id="a_node4"><a xlink:href="dir_6eaa9a4b68db9d3a4b16103d94f334fb.html" target="_top" xlink:title="render">
<polygon fill="#edf0f7" stroke="red" stroke-dasharray="5,2" points="123,-19.25 80,-19.25 80,0 123,0 123,-19.25"/>
<text text-anchor="middle" x="101.5" y="-5.75" font-family="Helvetica,sans-Serif" font-size="10.00">render</text>
</a>
</g>
</g>
<!-- dir_9d75d78bff579dfd76de3e7111e79cbd&#45;&gt;dir_6eaa9a4b68db9d3a4b16103d94f334fb -->
<g id="edge3" class="edge">
<title>dir_9d75d78bff579dfd76de3e7111e79cbd&#45;&gt;dir_6eaa9a4b68db9d3a4b16103d94f334fb</title>
<path fill="none" stroke="#63b8ff" d="M107.09,-110.62C100.23,-102.13 90.5,-88.39 86.5,-74.5 82.17,-59.44 82.76,-54.46 86.5,-39.25 87.33,-35.87 88.64,-32.45 90.15,-29.21"/>
<polygon fill="#63b8ff" stroke="#63b8ff" points="93.61,-31.17 95.29,-20.71 87.45,-27.84 93.61,-31.17"/>
<g id="a_edge3&#45;headlabel"><a xlink:href="dir_000008_000030.html" target="_top" xlink:title="13">
<text text-anchor="middle" x="94.39" y="-30.81" font-family="Helvetica,sans-Serif" font-size="10.00" fill="#63b8ff">13</text>
</a>
</g>
</g>
<!-- dir_961895bef81e67620a5b47a62fb3cb48 -->
<g id="node5" class="node">
<title>dir_961895bef81e67620a5b47a62fb3cb48</title>
<g id="a_node5"><a xlink:href="dir_961895bef81e67620a5b47a62fb3cb48.html" target="_top" xlink:title="utils">
<polygon fill="#edf0f7" stroke="red" stroke-dasharray="5,2" points="222.5,-74.5 188.5,-74.5 188.5,-55.25 222.5,-55.25 222.5,-74.5"/>
<text text-anchor="middle" x="205.5" y="-61" font-family="Helvetica,sans-Serif" font-size="10.00">utils</text>
</a>
</g>
</g>
<!-- dir_9d75d78bff579dfd76de3e7111e79cbd&#45;&gt;dir_961895bef81e67620a5b47a62fb3cb48 -->
<g id="edge4" class="edge">
<title>dir_9d75d78bff579dfd76de3e7111e79cbd&#45;&gt;dir_961895bef81e67620a5b47a62fb3cb48</title>
<path fill="none" stroke="#63b8ff" d="M129.12,-110.57C143.06,-102.41 164.33,-89.96 180.89,-80.28"/>
<polygon fill="#63b8ff" stroke="#63b8ff" points="182.14,-83.02 189,-74.94 178.6,-76.97 182.14,-83.02"/>
<g id="a_edge4&#45;headlabel"><a xlink:href="dir_000008_000040.html" target="_top" xlink:title="4">
<text text-anchor="middle" x="181.47" y="-83.41" font-family="Helvetica,sans-Serif" font-size="10.00" fill="#63b8ff">4</text>
</a>
</g>
</g>
<!-- dir_a0e47c104ecd6c0b6dccb5f33d071508 -->
<g id="node6" class="node">
<title>dir_a0e47c104ecd6c0b6dccb5f33d071508</title>
<g id="a_node6"><a xlink:href="dir_a0e47c104ecd6c0b6dccb5f33d071508.html" target="_top" xlink:title="core">
<polygon fill="#edf0f7" stroke="red" stroke-dasharray="5,2" points="274.88,-74.5 240.12,-74.5 240.12,-55.25 274.88,-55.25 274.88,-74.5"/>
<text text-anchor="middle" x="257.5" y="-61" font-family="Helvetica,sans-Serif" font-size="10.00">core</text>
</a>
</g>
</g>
<!-- dir_9d75d78bff579dfd76de3e7111e79cbd&#45;&gt;dir_a0e47c104ecd6c0b6dccb5f33d071508 -->
<g id="edge5" class="edge">
<title>dir_9d75d78bff579dfd76de3e7111e79cbd&#45;&gt;dir_a0e47c104ecd6c0b6dccb5f33d071508</title>
<path fill="none" stroke="#63b8ff" d="M134.08,-111.83C158.91,-102.59 201.85,-86.6 229.97,-76.13"/>
<polygon fill="#63b8ff" stroke="#63b8ff" points="230.8,-79.18 238.95,-72.41 228.35,-72.62 230.8,-79.18"/>
<g id="a_edge5&#45;headlabel"><a xlink:href="dir_000008_000004.html" target="_top" xlink:title="14">
<text text-anchor="middle" x="229.42" y="-79.22" font-family="Helvetica,sans-Serif" font-size="10.00" fill="#63b8ff">14</text>
</a>
</g>
</g>
<!-- dir_bafa501d493553e442f19f5f8dd7b29c -->
<g id="node7" class="node">
<title>dir_bafa501d493553e442f19f5f8dd7b29c</title>
<g id="a_node7"><a xlink:href="dir_bafa501d493553e442f19f5f8dd7b29c.html" target="_top" xlink:title="include">
<polygon fill="#edf0f7" stroke="#7f7f7f" points="327.88,-19.25 281.12,-19.25 281.12,0 327.88,0 327.88,-19.25"/>
<text text-anchor="middle" x="304.5" y="-5.75" font-family="Helvetica,sans-Serif" font-size="10.00">include</text>
</a>
</g>
</g>
<!-- dir_9d75d78bff579dfd76de3e7111e79cbd&#45;&gt;dir_bafa501d493553e442f19f5f8dd7b29c -->
<g id="edge6" class="edge">
<title>dir_9d75d78bff579dfd76de3e7111e79cbd&#45;&gt;dir_bafa501d493553e442f19f5f8dd7b29c</title>
<path fill="none" stroke="#63b8ff" d="M133.83,-118.84C188.29,-117.57 340.96,-110.8 371.5,-74.5 381.59,-62.51 380.13,-52.32 371.5,-39.25 364.04,-27.95 351.11,-21.1 338.58,-16.95"/>
<polygon fill="#63b8ff" stroke="#63b8ff" points="339.86,-13.39 329.28,-14.06 337.97,-20.13 339.86,-13.39"/>
<g id="a_edge6&#45;headlabel"><a xlink:href="dir_000008_000019.html" target="_top" xlink:title="3">
<text text-anchor="middle" x="343.09" y="-7.75" font-family="Helvetica,sans-Serif" font-size="10.00" fill="#63b8ff">3</text>
</a>
</g>
</g>
<!-- dir_c450a44cd74e5a974db470ea1cf0577f -->
<g id="node8" class="node">
<title>dir_c450a44cd74e5a974db470ea1cf0577f</title>
<g id="a_node8"><a xlink:href="dir_c450a44cd74e5a974db470ea1cf0577f.html" target="_top" xlink:title="components">
<polygon fill="#edf0f7" stroke="#7f7f7f" points="362.12,-74.5 292.88,-74.5 292.88,-55.25 362.12,-55.25 362.12,-74.5"/>
<text text-anchor="middle" x="327.5" y="-61" font-family="Helvetica,sans-Serif" font-size="10.00">components</text>
</a>
</g>
</g>
<!-- dir_9d75d78bff579dfd76de3e7111e79cbd&#45;&gt;dir_c450a44cd74e5a974db470ea1cf0577f -->
<g id="edge7" class="edge">
<title>dir_9d75d78bff579dfd76de3e7111e79cbd&#45;&gt;dir_c450a44cd74e5a974db470ea1cf0577f</title>
<path fill="none" stroke="#63b8ff" d="M133.78,-114.31C167.05,-105.99 236.12,-88.72 282.15,-77.21"/>
<polygon fill="#63b8ff" stroke="#63b8ff" points="282.89,-80.39 291.74,-74.56 281.19,-73.59 282.89,-80.39"/>
<g id="a_edge7&#45;headlabel"><a xlink:href="dir_000008_000002.html" target="_top" xlink:title="7">
<text text-anchor="middle" x="281.09" y="-80.14" font-family="Helvetica,sans-Serif" font-size="10.00" fill="#63b8ff">7</text>
</a>
</g>
</g>
<!-- dir_fffb0536444c266989e4fa626fabed06 -->
<g id="node9" class="node">
<title>dir_fffb0536444c266989e4fa626fabed06</title>
<g id="a_node9"><a xlink:href="dir_fffb0536444c266989e4fa626fabed06.html" target="_top" xlink:title="core">
<polygon fill="#edf0f7" stroke="#7f7f7f" points="176.88,-19.25 142.12,-19.25 142.12,0 176.88,0 176.88,-19.25"/>
<text text-anchor="middle" x="159.5" y="-5.75" font-family="Helvetica,sans-Serif" font-size="10.00">core</text>
</a>
</g>
</g>
<!-- dir_9d75d78bff579dfd76de3e7111e79cbd&#45;&gt;dir_fffb0536444c266989e4fa626fabed06 -->
<g id="edge8" class="edge">
<title>dir_9d75d78bff579dfd76de3e7111e79cbd&#45;&gt;dir_fffb0536444c266989e4fa626fabed06</title>
<path fill="none" stroke="#63b8ff" d="M120.61,-110.61C126.63,-101.9 135.73,-87.79 141.5,-74.5 147.75,-60.1 152.45,-42.93 155.47,-30.02"/>
<polygon fill="#63b8ff" stroke="#63b8ff" points="159.04,-31.08 157.78,-20.56 152.21,-29.57 159.04,-31.08"/>
<g id="a_edge8&#45;headlabel"><a xlink:href="dir_000008_000005.html" target="_top" xlink:title="9">
<text text-anchor="middle" x="161.04" y="-30.33" font-family="Helvetica,sans-Serif" font-size="10.00" fill="#63b8ff">9</text>
</a>
</g>
</g>
<!-- dir_4e6b7cf77a91847c445a3f466d593fea&#45;&gt;dir_52bb8edc54208f47f87ae9b01b1d12a6 -->
<g id="edge9" class="edge">
<title>dir_4e6b7cf77a91847c445a3f466d593fea&#45;&gt;dir_52bb8edc54208f47f87ae9b01b1d12a6</title>
<path fill="none" stroke="#63b8ff" d="M99.42,-54.84C86.9,-46.81 68.35,-34.91 53.65,-25.48"/>
<polygon fill="#63b8ff" stroke="#63b8ff" points="55.96,-22.16 45.65,-19.7 52.18,-28.05 55.96,-22.16"/>
<g id="a_edge9&#45;headlabel"><a xlink:href="dir_000023_000010.html" target="_top" xlink:title="1">
<text text-anchor="middle" x="59.51" y="-17.83" font-family="Helvetica,sans-Serif" font-size="10.00" fill="#63b8ff">1</text>
</a>
</g>
</g>
<!-- dir_4e6b7cf77a91847c445a3f466d593fea&#45;&gt;dir_6eaa9a4b68db9d3a4b16103d94f334fb -->
<g id="edge10" class="edge">
<title>dir_4e6b7cf77a91847c445a3f466d593fea&#45;&gt;dir_6eaa9a4b68db9d3a4b16103d94f334fb</title>
<path fill="none" stroke="#63b8ff" d="M111.52,-55.08C110,-48.34 107.84,-38.77 105.92,-30.24"/>
<polygon fill="#63b8ff" stroke="#63b8ff" points="109.14,-29.6 103.52,-20.61 102.31,-31.13 109.14,-29.6"/>
<g id="a_edge10&#45;headlabel"><a xlink:href="dir_000023_000030.html" target="_top" xlink:title="1">
<text text-anchor="middle" x="112.7" y="-27.6" font-family="Helvetica,sans-Serif" font-size="10.00" fill="#63b8ff">1</text>
</a>
</g>
</g>
<!-- dir_4e6b7cf77a91847c445a3f466d593fea&#45;&gt;dir_bafa501d493553e442f19f5f8dd7b29c -->
<g id="edge11" class="edge">
<title>dir_4e6b7cf77a91847c445a3f466d593fea&#45;&gt;dir_bafa501d493553e442f19f5f8dd7b29c</title>
<path fill="none" stroke="#63b8ff" d="M132.34,-56.09C145.42,-50.87 163.33,-44.09 179.5,-39.25 209.78,-30.18 244.93,-22.36 270.22,-17.2"/>
<polygon fill="#63b8ff" stroke="#63b8ff" points="270.64,-20.49 279.76,-15.09 269.27,-13.62 270.64,-20.49"/>
<g id="a_edge11&#45;headlabel"><a xlink:href="dir_000023_000019.html" target="_top" xlink:title="1">
<text text-anchor="middle" x="268.68" y="-20.1" font-family="Helvetica,sans-Serif" font-size="10.00" fill="#63b8ff">1</text>
</a>
</g>
</g>
<!-- dir_4e6b7cf77a91847c445a3f466d593fea&#45;&gt;dir_fffb0536444c266989e4fa626fabed06 -->
<g id="edge12" class="edge">
<title>dir_4e6b7cf77a91847c445a3f466d593fea&#45;&gt;dir_fffb0536444c266989e4fa626fabed06</title>
<path fill="none" stroke="#63b8ff" d="M121.1,-55.08C127.52,-47.65 136.9,-36.79 144.78,-27.66"/>
<polygon fill="#63b8ff" stroke="#63b8ff" points="147.85,-30.46 151.74,-20.61 142.55,-25.89 147.85,-30.46"/>
<g id="a_edge12&#45;headlabel"><a xlink:href="dir_000023_000005.html" target="_top" xlink:title="1">
<text text-anchor="middle" x="147.65" y="-30.17" font-family="Helvetica,sans-Serif" font-size="10.00" fill="#63b8ff">1</text>
</a>
</g>
</g>
</g>
</svg>
</svg>

<style type='text/css'>
<![CDATA[
[data-mouse-over-selected='false'] { opacity: 0.7; }
[data-mouse-over-selected='true']  { opacity: 1.0; }
]]>
</style>
<script type="application/ecmascript"><![CDATA[
document.addEventListener('DOMContentLoaded', (event) => {
  highlightEdges();
  highlightAdjacentNodes();
});
]]></script>
</svg>
