<?xml version="1.0" encoding="UTF-8" standalone="no"?>
<!DOCTYPE svg PUBLIC "-//W3C//DTD SVG 1.1//EN"
 "http://www.w3.org/Graphics/SVG/1.1/DTD/svg11.dtd">
<!-- Generated by graphviz version 8.1.0 (20230707.0739)
 -->
<!-- Title: engine/include Pages: 1 -->
<svg width="294pt" height="134pt"
 viewBox="0.00 0.00 294.00 133.75" xmlns="http://www.w3.org/2000/svg" xmlns:xlink="http://www.w3.org/1999/xlink">
<g id="graph0" class="graph" transform="scale(1 1) rotate(0) translate(4 129.75)">
<title>engine/include</title>
<g id="clust1" class="cluster">
<title>clusterdir_996f45160da62e1a3d7f6046fad68f51</title>
<g id="a_clust1"><a xlink:href="dir_996f45160da62e1a3d7f6046fad68f51.html" target="_top" xlink:title="engine">
<polygon fill="#edf0f7" stroke="#404040" stroke-dasharray="5,2" points="8,-8 8,-117.75 278,-117.75 278,-8 8,-8"/>
<text text-anchor="middle" x="143" y="-104.25" font-family="Helvetica,sans-Serif" font-size="10.00">engine</text>
</a>
</g>
</g>
<!-- dir_52bb8edc54208f47f87ae9b01b1d12a6 -->
<g id="node1" class="node">
<title>dir_52bb8edc54208f47f87ae9b01b1d12a6</title>
<g id="a_node1"><a xlink:href="dir_52bb8edc54208f47f87ae9b01b1d12a6.html" target="_top" xlink:title="direct3d11">
<polygon fill="#a2b4d6" stroke="red" points="77.5,-35.25 16.5,-35.25 16.5,-16 77.5,-16 77.5,-35.25"/>
<text text-anchor="middle" x="47" y="-21.75" font-family="Helvetica,sans-Serif" font-size="10.00">direct3d11</text>
</a>
</g>
</g>
<!-- dir_961895bef81e67620a5b47a62fb3cb48 -->
<g id="node2" class="node">
<title>dir_961895bef81e67620a5b47a62fb3cb48</title>
<g id="a_node2"><a xlink:href="dir_961895bef81e67620a5b47a62fb3cb48.html" target="_top" xlink:title="utils">
<polygon fill="#a2b4d6" stroke="red" points="130,-35.25 96,-35.25 96,-16 130,-16 130,-35.25"/>
<text text-anchor="middle" x="113" y="-21.75" font-family="Helvetica,sans-Serif" font-size="10.00">utils</text>
</a>
</g>
</g>
<!-- dir_a0e47c104ecd6c0b6dccb5f33d071508 -->
<g id="node3" class="node">
<title>dir_a0e47c104ecd6c0b6dccb5f33d071508</title>
<g id="a_node3"><a xlink:href="dir_a0e47c104ecd6c0b6dccb5f33d071508.html" target="_top" xlink:title="core">
<polygon fill="#a2b4d6" stroke="red" points="182.38,-35.25 147.62,-35.25 147.62,-16 182.38,-16 182.38,-35.25"/>
<text text-anchor="middle" x="165" y="-21.75" font-family="Helvetica,sans-Serif" font-size="10.00">core</text>
</a>
</g>
</g>
<!-- dir_c450a44cd74e5a974db470ea1cf0577f -->
<g id="node4" class="node">
<title>dir_c450a44cd74e5a974db470ea1cf0577f</title>
<g id="a_node4"><a xlink:href="dir_c450a44cd74e5a974db470ea1cf0577f.html" target="_top" xlink:title="components">
<polygon fill="#a2b4d6" stroke="#404040" points="269.62,-35.25 200.38,-35.25 200.38,-16 269.62,-16 269.62,-35.25"/>
<text text-anchor="middle" x="235" y="-21.75" font-family="Helvetica,sans-Serif" font-size="10.00">components</text>
</a>
</g>
</g>
<!-- dir_bafa501d493553e442f19f5f8dd7b29c -->
<g id="node5" class="node">
<title>dir_bafa501d493553e442f19f5f8dd7b29c</title>
<g id="a_node5"><a xlink:href="dir_bafa501d493553e442f19f5f8dd7b29c.html" target="_top" xlink:title="include">
<polygon fill="#edf0f7" stroke="#404040" stroke-width="2" points="162.38,-90.5 115.62,-90.5 115.62,-71.25 162.38,-71.25 162.38,-90.5"/>
<text text-anchor="middle" x="139" y="-77" font-family="Helvetica,sans-Serif" font-size="10.00">include</text>
</a>
</g>
</g>
<!-- dir_bafa501d493553e442f19f5f8dd7b29c&#45;&gt;dir_52bb8edc54208f47f87ae9b01b1d12a6 -->
<g id="edge1" class="edge">
<title>dir_bafa501d493553e442f19f5f8dd7b29c&#45;&gt;dir_52bb8edc54208f47f87ae9b01b1d12a6</title>
<path fill="none" stroke="#63b8ff" d="M123.39,-70.84C109.38,-62.73 88.57,-50.68 72.2,-41.21"/>
<polygon fill="#63b8ff" stroke="#63b8ff" points="74.09,-37.68 63.68,-35.7 70.58,-43.74 74.09,-37.68"/>
<g id="a_edge1&#45;headlabel"><a xlink:href="dir_000019_000010.html" target="_top" xlink:title="1">
<text text-anchor="middle" x="77.62" y="-33.15" font-family="Helvetica,sans-Serif" font-size="10.00" fill="#63b8ff">1</text>
</a>
</g>
</g>
<!-- dir_bafa501d493553e442f19f5f8dd7b29c&#45;&gt;dir_961895bef81e67620a5b47a62fb3cb48 -->
<g id="edge2" class="edge">
<title>dir_bafa501d493553e442f19f5f8dd7b29c&#45;&gt;dir_961895bef81e67620a5b47a62fb3cb48</title>
<path fill="none" stroke="#63b8ff" d="M134.71,-71.08C131.3,-64.11 126.42,-54.12 122.15,-45.37"/>
<polygon fill="#63b8ff" stroke="#63b8ff" points="124.92,-44.06 117.39,-36.61 118.63,-47.13 124.92,-44.06"/>
<g id="a_edge2&#45;headlabel"><a xlink:href="dir_000019_000040.html" target="_top" xlink:title="1">
<text text-anchor="middle" x="129.05" y="-41.17" font-family="Helvetica,sans-Serif" font-size="10.00" fill="#63b8ff">1</text>
</a>
</g>
</g>
<!-- dir_bafa501d493553e442f19f5f8dd7b29c&#45;&gt;dir_a0e47c104ecd6c0b6dccb5f33d071508 -->
<g id="edge3" class="edge">
<title>dir_bafa501d493553e442f19f5f8dd7b29c&#45;&gt;dir_a0e47c104ecd6c0b6dccb5f33d071508</title>
<path fill="none" stroke="#63b8ff" d="M143.29,-71.08C146.7,-64.11 151.58,-54.12 155.85,-45.37"/>
<polygon fill="#63b8ff" stroke="#63b8ff" points="159.37,-47.13 160.61,-36.61 153.08,-44.06 159.37,-47.13"/>
<g id="a_edge3&#45;headlabel"><a xlink:href="dir_000019_000004.html" target="_top" xlink:title="3">
<text text-anchor="middle" x="160.35" y="-46.73" font-family="Helvetica,sans-Serif" font-size="10.00" fill="#63b8ff">3</text>
</a>
</g>
</g>
<!-- dir_bafa501d493553e442f19f5f8dd7b29c&#45;&gt;dir_c450a44cd74e5a974db470ea1cf0577f -->
<g id="edge4" class="edge">
<title>dir_bafa501d493553e442f19f5f8dd7b29c&#45;&gt;dir_c450a44cd74e5a974db470ea1cf0577f</title>
<path fill="none" stroke="#63b8ff" d="M155.29,-70.84C170.04,-62.66 192.04,-50.46 209.19,-40.94"/>
<polygon fill="#63b8ff" stroke="#63b8ff" points="210.59,-43.61 217.64,-35.7 207.19,-37.49 210.59,-43.61"/>
<g id="a_edge4&#45;headlabel"><a xlink:href="dir_000019_000002.html" target="_top" xlink:title="1">
<text text-anchor="middle" x="209.82" y="-43.97" font-family="Helvetica,sans-Serif" font-size="10.00" fill="#63b8ff">1</text>
</a>
</g>
</g>
</g>
</svg>
