<?xml version="1.0" encoding="UTF-8" standalone="no"?>
<!DOCTYPE svg PUBLIC "-//W3C//DTD SVG 1.1//EN"
 "http://www.w3.org/Graphics/SVG/1.1/DTD/svg11.dtd">
<!-- Generated by graphviz version 9.0.0 (20230911.1827)
 -->
<!-- Title: engine Pages: 1 -->
<svg width="298pt" height="391pt"
 viewBox="0.00 0.00 298.00 390.75" xmlns="http://www.w3.org/2000/svg" xmlns:xlink="http://www.w3.org/1999/xlink">

<svg id="main" version="1.1" xmlns="http://www.w3.org/2000/svg" xmlns:xlink="http://www.w3.org/1999/xlink" xml:space="preserve" onload="init(evt)">
<style type="text/css"><![CDATA[
.node, .edge {opacity: 0.7;}
.node.selected, .edge.selected {opacity: 1;}
.edge:hover path { stroke: red; }
.edge:hover polygon { stroke: red; fill: red; }
]]></style>
<script type="application/ecmascript" xlink:href="svg.min.js"/>
<svg id="graph" class="graph">
<g id="graph0" class="graph" transform="scale(1 1) rotate(0) translate(4 386.75)">
<title>engine</title>
<g id="clust1" class="cluster">
<title>clusterdir_996f45160da62e1a3d7f6046fad68f51</title>
<g id="a_clust1"><a xlink:href="dir_996f45160da62e1a3d7f6046fad68f51.html" target="_top">
<polygon fill="#edf0f7" stroke="#404040" stroke-width="2" points="8,-8 8,-374.75 282,-374.75 282,-8 8,-8"/>
</a>
</g>
</g>
<!-- dir_996f45160da62e1a3d7f6046fad68f51 -->
<g id="node1" class="node">
<title>dir_996f45160da62e1a3d7f6046fad68f51</title>
<text text-anchor="middle" x="252" y="-353.25" font-family="Helvetica,sans-Serif" font-size="10.00">engine</text>
</g>
<!-- dir_c450a44cd74e5a974db470ea1cf0577f -->
<g id="node2" class="node">
<title>dir_c450a44cd74e5a974db470ea1cf0577f</title>
<g id="a_node2"><a xlink:href="dir_c450a44cd74e5a974db470ea1cf0577f.html" target="_top" xlink:title="components">
<polygon fill="#a2b4d6" stroke="#404040" points="211.62,-366.75 142.38,-366.75 142.38,-347.5 211.62,-347.5 211.62,-366.75"/>
<text text-anchor="middle" x="177" y="-353.25" font-family="Helvetica,sans-Serif" font-size="10.00">components</text>
</a>
</g>
</g>
<!-- dir_bafa501d493553e442f19f5f8dd7b29c -->
<g id="node5" class="node">
<title>dir_bafa501d493553e442f19f5f8dd7b29c</title>
<g id="a_node5"><a xlink:href="dir_bafa501d493553e442f19f5f8dd7b29c.html" target="_top" xlink:title="include">
<polygon fill="#a2b4d6" stroke="#404040" points="177.38,-311.5 130.62,-311.5 130.62,-292.25 177.38,-292.25 177.38,-311.5"/>
<text text-anchor="middle" x="154" y="-298" font-family="Helvetica,sans-Serif" font-size="10.00">include</text>
</a>
</g>
</g>
<!-- dir_c450a44cd74e5a974db470ea1cf0577f&#45;&gt;dir_bafa501d493553e442f19f5f8dd7b29c -->
<g id="edge1" class="edge">
<title>dir_c450a44cd74e5a974db470ea1cf0577f&#45;&gt;dir_bafa501d493553e442f19f5f8dd7b29c</title>
<g id="a_edge1"><a xlink:href="dir_000002_000019.html" target="_top">
<path fill="none" stroke="#63b8ff" d="M168.04,-347.33C163.73,-340.67 159.2,-331.24 156.04,-322.78"/>
<polygon fill="#63b8ff" stroke="#63b8ff" points="159.41,-321.83 153.12,-313.31 152.72,-323.89 159.41,-321.83"/>
</a>
</g>
<g id="a_edge1&#45;headlabel"><a xlink:href="dir_000002_000019.html" target="_top" xlink:title="1">
<text text-anchor="middle" x="162.74" y="-319.11" font-family="Helvetica,sans-Serif" font-size="10.00" fill="#63b8ff">1</text>
</a>
</g>
</g>
<!-- dir_a0e47c104ecd6c0b6dccb5f33d071508 -->
<g id="node3" class="node">
<title>dir_a0e47c104ecd6c0b6dccb5f33d071508</title>
<g id="a_node3"><a xlink:href="dir_a0e47c104ecd6c0b6dccb5f33d071508.html" target="_top" xlink:title="core">
<polygon fill="#a2b4d6" stroke="#404040" points="122.38,-201 87.62,-201 87.62,-181.75 122.38,-181.75 122.38,-201"/>
<text text-anchor="middle" x="105" y="-187.5" font-family="Helvetica,sans-Serif" font-size="10.00">core</text>
</a>
</g>
</g>
<!-- dir_52bb8edc54208f47f87ae9b01b1d12a6 -->
<g id="node4" class="node">
<title>dir_52bb8edc54208f47f87ae9b01b1d12a6</title>
<g id="a_node4"><a xlink:href="dir_52bb8edc54208f47f87ae9b01b1d12a6.html" target="_top" xlink:title="direct3d11">
<polygon fill="#a2b4d6" stroke="#404040" points="213.5,-145.75 152.5,-145.75 152.5,-126.5 213.5,-126.5 213.5,-145.75"/>
<text text-anchor="middle" x="183" y="-132.25" font-family="Helvetica,sans-Serif" font-size="10.00">direct3d11</text>
</a>
</g>
</g>
<!-- dir_a0e47c104ecd6c0b6dccb5f33d071508&#45;&gt;dir_52bb8edc54208f47f87ae9b01b1d12a6 -->
<g id="edge7" class="edge">
<title>dir_a0e47c104ecd6c0b6dccb5f33d071508&#45;&gt;dir_52bb8edc54208f47f87ae9b01b1d12a6</title>
<g id="a_edge7"><a xlink:href="dir_000004_000010.html" target="_top">
<path fill="none" stroke="#63b8ff" d="M113.01,-181.34C123.01,-173.39 139.91,-161.64 154.69,-152.25"/>
<polygon fill="#63b8ff" stroke="#63b8ff" points="156.52,-155.23 163.19,-147 152.84,-149.28 156.52,-155.23"/>
</a>
</g>
<g id="a_edge7&#45;headlabel"><a xlink:href="dir_000004_000010.html" target="_top" xlink:title="1">
<text text-anchor="middle" x="156.24" y="-154.87" font-family="Helvetica,sans-Serif" font-size="10.00" fill="#63b8ff">1</text>
</a>
</g>
</g>
<!-- dir_a0e47c104ecd6c0b6dccb5f33d071508&#45;&gt;dir_bafa501d493553e442f19f5f8dd7b29c -->
<g id="edge6" class="edge">
<title>dir_a0e47c104ecd6c0b6dccb5f33d071508&#45;&gt;dir_bafa501d493553e442f19f5f8dd7b29c</title>
<g id="a_edge6"><a xlink:href="dir_000004_000019.html" target="_top">
<path fill="none" stroke="#63b8ff" d="M113,-201.38C124.07,-218.8 142.02,-257.51 150.45,-281.18"/>
<polygon fill="#63b8ff" stroke="#63b8ff" points="147.07,-282.09 153.44,-290.55 153.74,-279.96 147.07,-282.09"/>
</a>
</g>
<g id="a_edge6&#45;headlabel"><a xlink:href="dir_000004_000019.html" target="_top" xlink:title="8">
<text text-anchor="middle" x="143.73" y="-277.1" font-family="Helvetica,sans-Serif" font-size="10.00" fill="#63b8ff">8</text>
</a>
</g>
</g>
<!-- dir_9af29253f2e6856b2c85289071488b96 -->
<g id="node6" class="node">
<title>dir_9af29253f2e6856b2c85289071488b96</title>
<g id="a_node6"><a xlink:href="dir_9af29253f2e6856b2c85289071488b96.html" target="_top" xlink:title="misc">
<polygon fill="#a2b4d6" stroke="#404040" points="73.5,-145.75 36.5,-145.75 36.5,-126.5 73.5,-126.5 73.5,-145.75"/>
<text text-anchor="middle" x="55" y="-132.25" font-family="Helvetica,sans-Serif" font-size="10.00">misc</text>
</a>
</g>
</g>
<!-- dir_a0e47c104ecd6c0b6dccb5f33d071508&#45;&gt;dir_9af29253f2e6856b2c85289071488b96 -->
<g id="edge5" class="edge">
<title>dir_a0e47c104ecd6c0b6dccb5f33d071508&#45;&gt;dir_9af29253f2e6856b2c85289071488b96</title>
<g id="a_edge5"><a xlink:href="dir_000004_000022.html" target="_top">
<path fill="none" stroke="#63b8ff" d="M96.74,-181.58C89.84,-174.23 79.78,-163.51 71.26,-154.44"/>
<polygon fill="#63b8ff" stroke="#63b8ff" points="73.87,-152.11 64.47,-147.21 68.77,-156.9 73.87,-152.11"/>
</a>
</g>
<g id="a_edge5&#45;headlabel"><a xlink:href="dir_000004_000022.html" target="_top" xlink:title="3">
<text text-anchor="middle" x="77.36" y="-147.81" font-family="Helvetica,sans-Serif" font-size="10.00" fill="#63b8ff">3</text>
</a>
</g>
</g>
<!-- dir_6eaa9a4b68db9d3a4b16103d94f334fb -->
<g id="node8" class="node">
<title>dir_6eaa9a4b68db9d3a4b16103d94f334fb</title>
<g id="a_node8"><a xlink:href="dir_6eaa9a4b68db9d3a4b16103d94f334fb.html" target="_top" xlink:title="render">
<polygon fill="#a2b4d6" stroke="#404040" points="193.5,-35.25 150.5,-35.25 150.5,-16 193.5,-16 193.5,-35.25"/>
<text text-anchor="middle" x="172" y="-21.75" font-family="Helvetica,sans-Serif" font-size="10.00">render</text>
</a>
</g>
</g>
<!-- dir_a0e47c104ecd6c0b6dccb5f33d071508&#45;&gt;dir_6eaa9a4b68db9d3a4b16103d94f334fb -->
<g id="edge3" class="edge">
<title>dir_a0e47c104ecd6c0b6dccb5f33d071508&#45;&gt;dir_6eaa9a4b68db9d3a4b16103d94f334fb</title>
<g id="a_edge3"><a xlink:href="dir_000004_000030.html" target="_top">
<path fill="none" stroke="#63b8ff" d="M97.37,-181.3C86.69,-160.38 74.13,-107.77 94,-71.25 103.37,-54.02 122.58,-42.43 139.74,-35.39"/>
<polygon fill="#63b8ff" stroke="#63b8ff" points="140.47,-38.85 148.64,-32.1 138.05,-32.28 140.47,-38.85"/>
</a>
</g>
<g id="a_edge3&#45;headlabel"><a xlink:href="dir_000004_000030.html" target="_top" xlink:title="2">
<text text-anchor="middle" x="139.5" y="-38.36" font-family="Helvetica,sans-Serif" font-size="10.00" fill="#63b8ff">2</text>
</a>
</g>
</g>
<!-- dir_55984c57f282dc48266af8a0d45ddadd -->
<g id="node9" class="node">
<title>dir_55984c57f282dc48266af8a0d45ddadd</title>
<g id="a_node9"><a xlink:href="dir_55984c57f282dc48266af8a0d45ddadd.html" target="_top" xlink:title="subsystems">
<polygon fill="#a2b4d6" stroke="#404040" points="180.25,-90.5 111.75,-90.5 111.75,-71.25 180.25,-71.25 180.25,-90.5"/>
<text text-anchor="middle" x="146" y="-77" font-family="Helvetica,sans-Serif" font-size="10.00">subsystems</text>
</a>
</g>
</g>
<!-- dir_a0e47c104ecd6c0b6dccb5f33d071508&#45;&gt;dir_55984c57f282dc48266af8a0d45ddadd -->
<g id="edge2" class="edge">
<title>dir_a0e47c104ecd6c0b6dccb5f33d071508&#45;&gt;dir_55984c57f282dc48266af8a0d45ddadd</title>
<g id="a_edge2"><a xlink:href="dir_000004_000037.html" target="_top">
<path fill="none" stroke="#63b8ff" d="M102.05,-181.66C103.32,-169.33 111.52,-146.1 119,-126.5 122.24,-118.01 125.97,-108.68 129.89,-100.76"/>
<polygon fill="#63b8ff" stroke="#63b8ff" points="132.94,-102.48 134.77,-92.05 126.83,-99.06 132.94,-102.48"/>
</a>
</g>
<g id="a_edge2&#45;headlabel"><a xlink:href="dir_000004_000037.html" target="_top" xlink:title="2">
<text text-anchor="middle" x="134.4" y="-101.81" font-family="Helvetica,sans-Serif" font-size="10.00" fill="#63b8ff">2</text>
</a>
</g>
</g>
<!-- dir_961895bef81e67620a5b47a62fb3cb48 -->
<g id="node10" class="node">
<title>dir_961895bef81e67620a5b47a62fb3cb48</title>
<g id="a_node10"><a xlink:href="dir_961895bef81e67620a5b47a62fb3cb48.html" target="_top" xlink:title="utils">
<polygon fill="#a2b4d6" stroke="#404040" points="93,-256.25 59,-256.25 59,-237 93,-237 93,-256.25"/>
<text text-anchor="middle" x="76" y="-242.75" font-family="Helvetica,sans-Serif" font-size="10.00">utils</text>
</a>
</g>
</g>
<!-- dir_a0e47c104ecd6c0b6dccb5f33d071508&#45;&gt;dir_961895bef81e67620a5b47a62fb3cb48 -->
<g id="edge4" class="edge">
<title>dir_a0e47c104ecd6c0b6dccb5f33d071508&#45;&gt;dir_961895bef81e67620a5b47a62fb3cb48</title>
<g id="a_edge4"><a xlink:href="dir_000004_000040.html" target="_top">
<path fill="none" stroke="#63b8ff" d="M105.31,-201.36C102.93,-208.46 97.82,-218.61 92.37,-227.4"/>
<polygon fill="#63b8ff" stroke="#63b8ff" points="89.53,-225.34 86.81,-235.58 95.32,-229.28 89.53,-225.34"/>
</a>
</g>
<g id="a_edge4&#45;headlabel"><a xlink:href="dir_000004_000040.html" target="_top" xlink:title="2">
<text text-anchor="middle" x="88.36" y="-218.15" font-family="Helvetica,sans-Serif" font-size="10.00" fill="#63b8ff">2</text>
</a>
</g>
</g>
<!-- dir_52bb8edc54208f47f87ae9b01b1d12a6&#45;&gt;dir_c450a44cd74e5a974db470ea1cf0577f -->
<g id="edge13" class="edge">
<title>dir_52bb8edc54208f47f87ae9b01b1d12a6&#45;&gt;dir_c450a44cd74e5a974db470ea1cf0577f</title>
<g id="a_edge13"><a xlink:href="dir_000010_000002.html" target="_top">
<path fill="none" stroke="#63b8ff" d="M183.9,-146.23C186.31,-172.15 192.29,-248.53 186,-311.5 185.19,-319.66 183.55,-328.53 181.9,-336.21"/>
<polygon fill="#63b8ff" stroke="#63b8ff" points="178.51,-335.31 179.66,-345.84 185.33,-336.89 178.51,-335.31"/>
</a>
</g>
<g id="a_edge13&#45;headlabel"><a xlink:href="dir_000010_000002.html" target="_top" xlink:title="1">
<text text-anchor="middle" x="176.22" y="-328.76" font-family="Helvetica,sans-Serif" font-size="10.00" fill="#63b8ff">1</text>
</a>
</g>
</g>
<!-- dir_52bb8edc54208f47f87ae9b01b1d12a6&#45;&gt;dir_a0e47c104ecd6c0b6dccb5f33d071508 -->
<g id="edge11" class="edge">
<title>dir_52bb8edc54208f47f87ae9b01b1d12a6&#45;&gt;dir_a0e47c104ecd6c0b6dccb5f33d071508</title>
<g id="a_edge11"><a xlink:href="dir_000010_000004.html" target="_top">
<path fill="none" stroke="#63b8ff" d="M174.94,-146.19C164.66,-154.37 147.12,-166.54 132.07,-176.03"/>
<polygon fill="#63b8ff" stroke="#63b8ff" points="130.63,-172.81 123.94,-181.03 134.29,-178.78 130.63,-172.81"/>
</a>
</g>
<g id="a_edge11&#45;headlabel"><a xlink:href="dir_000010_000004.html" target="_top" xlink:title="5">
<text text-anchor="middle" x="130.92" y="-165.43" font-family="Helvetica,sans-Serif" font-size="10.00" fill="#63b8ff">5</text>
</a>
</g>
</g>
<!-- dir_52bb8edc54208f47f87ae9b01b1d12a6&#45;&gt;dir_bafa501d493553e442f19f5f8dd7b29c -->
<g id="edge12" class="edge">
<title>dir_52bb8edc54208f47f87ae9b01b1d12a6&#45;&gt;dir_bafa501d493553e442f19f5f8dd7b29c</title>
<g id="a_edge12"><a xlink:href="dir_000010_000019.html" target="_top">
<path fill="none" stroke="#63b8ff" d="M184.7,-145.97C184.34,-171.46 171.66,-245.5 162.06,-281.19"/>
<polygon fill="#63b8ff" stroke="#63b8ff" points="158.76,-280.04 159.25,-290.62 165.46,-282.04 158.76,-280.04"/>
</a>
</g>
<g id="a_edge12&#45;headlabel"><a xlink:href="dir_000010_000019.html" target="_top" xlink:title="2">
<text text-anchor="middle" x="156.63" y="-273.36" font-family="Helvetica,sans-Serif" font-size="10.00" fill="#63b8ff">2</text>
</a>
</g>
</g>
<!-- dir_52bb8edc54208f47f87ae9b01b1d12a6&#45;&gt;dir_6eaa9a4b68db9d3a4b16103d94f334fb -->
<g id="edge9" class="edge">
<title>dir_52bb8edc54208f47f87ae9b01b1d12a6&#45;&gt;dir_6eaa9a4b68db9d3a4b16103d94f334fb</title>
<g id="a_edge9"><a xlink:href="dir_000010_000030.html" target="_top">
<path fill="none" stroke="#63b8ff" d="M179.36,-126.38C179.29,-114.01 183.59,-90.75 180,-71.25 178.46,-62.9 175.43,-54.08 172.93,-46.51"/>
<polygon fill="#63b8ff" stroke="#63b8ff" points="176.31,-45.59 170.08,-37.02 169.6,-47.61 176.31,-45.59"/>
</a>
</g>
<g id="a_edge9&#45;headlabel"><a xlink:href="dir_000010_000030.html" target="_top" xlink:title="5">
<text text-anchor="middle" x="179.62" y="-42.89" font-family="Helvetica,sans-Serif" font-size="10.00" fill="#63b8ff">5</text>
</a>
</g>
</g>
<!-- dir_52bb8edc54208f47f87ae9b01b1d12a6&#45;&gt;dir_55984c57f282dc48266af8a0d45ddadd -->
<g id="edge8" class="edge">
<title>dir_52bb8edc54208f47f87ae9b01b1d12a6&#45;&gt;dir_55984c57f282dc48266af8a0d45ddadd</title>
<g id="a_edge8"><a xlink:href="dir_000010_000037.html" target="_top">
<path fill="none" stroke="#63b8ff" d="M171.72,-126.33C165.39,-119.36 158.01,-109.37 152.55,-100.62"/>
<polygon fill="#63b8ff" stroke="#63b8ff" points="155.74,-99.17 147.78,-92.18 149.65,-102.61 155.74,-99.17"/>
</a>
</g>
<g id="a_edge8&#45;headlabel"><a xlink:href="dir_000010_000037.html" target="_top" xlink:title="3">
<text text-anchor="middle" x="159.24" y="-95.71" font-family="Helvetica,sans-Serif" font-size="10.00" fill="#63b8ff">3</text>
</a>
</g>
</g>
<!-- dir_52bb8edc54208f47f87ae9b01b1d12a6&#45;&gt;dir_961895bef81e67620a5b47a62fb3cb48 -->
<g id="edge10" class="edge">
<title>dir_52bb8edc54208f47f87ae9b01b1d12a6&#45;&gt;dir_961895bef81e67620a5b47a62fb3cb48</title>
<g id="a_edge10"><a xlink:href="dir_000010_000040.html" target="_top">
<path fill="none" stroke="#63b8ff" d="M176.79,-145.86C167.52,-158.62 149.22,-182.81 131,-201 120.61,-211.38 107.94,-221.78 97.38,-229.94"/>
<polygon fill="#63b8ff" stroke="#63b8ff" points="95.48,-226.99 89.61,-235.81 99.7,-232.57 95.48,-226.99"/>
</a>
</g>
<g id="a_edge10&#45;headlabel"><a xlink:href="dir_000010_000040.html" target="_top" xlink:title="6">
<text text-anchor="middle" x="95.43" y="-219.59" font-family="Helvetica,sans-Serif" font-size="10.00" fill="#63b8ff">6</text>
</a>
</g>
</g>
<!-- dir_bafa501d493553e442f19f5f8dd7b29c&#45;&gt;dir_c450a44cd74e5a974db470ea1cf0577f -->
<g id="edge17" class="edge">
<title>dir_bafa501d493553e442f19f5f8dd7b29c&#45;&gt;dir_c450a44cd74e5a974db470ea1cf0577f</title>
<g id="a_edge17"><a xlink:href="dir_000019_000002.html" target="_top">
<path fill="none" stroke="#63b8ff" d="M163.09,-311.86C167.4,-318.58 171.92,-328.02 175.05,-336.46"/>
<polygon fill="#63b8ff" stroke="#63b8ff" points="171.66,-337.34 177.93,-345.88 178.35,-335.3 171.66,-337.34"/>
</a>
</g>
<g id="a_edge17&#45;headlabel"><a xlink:href="dir_000019_000002.html" target="_top" xlink:title="1">
<text text-anchor="middle" x="168.33" y="-332.31" font-family="Helvetica,sans-Serif" font-size="10.00" fill="#63b8ff">1</text>
</a>
</g>
</g>
<!-- dir_bafa501d493553e442f19f5f8dd7b29c&#45;&gt;dir_a0e47c104ecd6c0b6dccb5f33d071508 -->
<g id="edge16" class="edge">
<title>dir_bafa501d493553e442f19f5f8dd7b29c&#45;&gt;dir_a0e47c104ecd6c0b6dccb5f33d071508</title>
<g id="a_edge16"><a xlink:href="dir_000019_000004.html" target="_top">
<path fill="none" stroke="#63b8ff" d="M146.08,-292C135.04,-274.67 117.08,-235.98 108.61,-212.24"/>
<polygon fill="#63b8ff" stroke="#63b8ff" points="111.98,-211.27 105.59,-202.82 105.31,-213.41 111.98,-211.27"/>
</a>
</g>
<g id="a_edge16&#45;headlabel"><a xlink:href="dir_000019_000004.html" target="_top" xlink:title="3">
<text text-anchor="middle" x="115.31" y="-208.51" font-family="Helvetica,sans-Serif" font-size="10.00" fill="#63b8ff">3</text>
</a>
</g>
</g>
<!-- dir_bafa501d493553e442f19f5f8dd7b29c&#45;&gt;dir_52bb8edc54208f47f87ae9b01b1d12a6 -->
<g id="edge14" class="edge">
<title>dir_bafa501d493553e442f19f5f8dd7b29c&#45;&gt;dir_52bb8edc54208f47f87ae9b01b1d12a6</title>
<g id="a_edge14"><a xlink:href="dir_000019_000010.html" target="_top">
<path fill="none" stroke="#63b8ff" d="M152.3,-292.07C152.64,-266.64 165.32,-192.6 174.92,-156.87"/>
<polygon fill="#63b8ff" stroke="#63b8ff" points="178.23,-158.01 177.73,-147.42 171.52,-156.01 178.23,-158.01"/>
</a>
</g>
<g id="a_edge14&#45;headlabel"><a xlink:href="dir_000019_000010.html" target="_top" xlink:title="1">
<text text-anchor="middle" x="180.36" y="-156.94" font-family="Helvetica,sans-Serif" font-size="10.00" fill="#63b8ff">1</text>
</a>
</g>
</g>
<!-- dir_bafa501d493553e442f19f5f8dd7b29c&#45;&gt;dir_961895bef81e67620a5b47a62fb3cb48 -->
<g id="edge15" class="edge">
<title>dir_bafa501d493553e442f19f5f8dd7b29c&#45;&gt;dir_961895bef81e67620a5b47a62fb3cb48</title>
<g id="a_edge15"><a xlink:href="dir_000019_000040.html" target="_top">
<path fill="none" stroke="#63b8ff" d="M135.55,-291.84C122.54,-284.07 105.52,-272.67 92.88,-263.4"/>
<polygon fill="#63b8ff" stroke="#63b8ff" points="95.13,-260.71 85.05,-257.44 90.89,-266.28 95.13,-260.71"/>
</a>
</g>
<g id="a_edge15&#45;headlabel"><a xlink:href="dir_000019_000040.html" target="_top" xlink:title="1">
<text text-anchor="middle" x="98.5" y="-255.84" font-family="Helvetica,sans-Serif" font-size="10.00" fill="#63b8ff">1</text>
</a>
</g>
</g>
<!-- dir_9af29253f2e6856b2c85289071488b96&#45;&gt;dir_c450a44cd74e5a974db470ea1cf0577f -->
<g id="edge19" class="edge">
<title>dir_9af29253f2e6856b2c85289071488b96&#45;&gt;dir_c450a44cd74e5a974db470ea1cf0577f</title>
<g id="a_edge19"><a xlink:href="dir_000022_000002.html" target="_top">
<path fill="none" stroke="#63b8ff" d="M51.89,-146.08C45.27,-166.73 31.82,-218.83 50,-256.25 69.84,-297.1 115.39,-326.23 146.19,-342.12"/>
<polygon fill="#63b8ff" stroke="#63b8ff" points="144.53,-345.21 155.04,-346.52 147.64,-338.94 144.53,-345.21"/>
</a>
</g>
<g id="a_edge19&#45;headlabel"><a xlink:href="dir_000022_000002.html" target="_top" xlink:title="1">
<text text-anchor="middle" x="141.4" y="-342.95" font-family="Helvetica,sans-Serif" font-size="10.00" fill="#63b8ff">1</text>
</a>
</g>
</g>
<!-- dir_9af29253f2e6856b2c85289071488b96&#45;&gt;dir_961895bef81e67620a5b47a62fb3cb48 -->
<g id="edge18" class="edge">
<title>dir_9af29253f2e6856b2c85289071488b96&#45;&gt;dir_961895bef81e67620a5b47a62fb3cb48</title>
<g id="a_edge18"><a xlink:href="dir_000022_000040.html" target="_top">
<path fill="none" stroke="#63b8ff" d="M56.74,-146.13C60.1,-163.47 67.54,-201.9 72.12,-225.6"/>
<polygon fill="#63b8ff" stroke="#63b8ff" points="68.66,-226.11 73.99,-235.26 75.53,-224.78 68.66,-226.11"/>
</a>
</g>
<g id="a_edge18&#45;headlabel"><a xlink:href="dir_000022_000040.html" target="_top" xlink:title="2">
<text text-anchor="middle" x="65.47" y="-220.73" font-family="Helvetica,sans-Serif" font-size="10.00" fill="#63b8ff">2</text>
</a>
</g>
</g>
<!-- dir_3862078e0a5429b6ce9a8a5d655cc609 -->
<g id="node7" class="node">
<title>dir_3862078e0a5429b6ce9a8a5d655cc609</title>
<g id="a_node7"><a xlink:href="dir_3862078e0a5429b6ce9a8a5d655cc609.html" target="_top" xlink:title="platform">
<polygon fill="#a2b4d6" stroke="#404040" points="124.62,-366.75 73.38,-366.75 73.38,-347.5 124.62,-347.5 124.62,-366.75"/>
<text text-anchor="middle" x="99" y="-353.25" font-family="Helvetica,sans-Serif" font-size="10.00">platform</text>
</a>
</g>
</g>
<!-- dir_3862078e0a5429b6ce9a8a5d655cc609&#45;&gt;dir_a0e47c104ecd6c0b6dccb5f33d071508 -->
<g id="edge22" class="edge">
<title>dir_3862078e0a5429b6ce9a8a5d655cc609&#45;&gt;dir_a0e47c104ecd6c0b6dccb5f33d071508</title>
<g id="a_edge22"><a xlink:href="dir_000028_000004.html" target="_top">
<path fill="none" stroke="#63b8ff" d="M99.32,-347.32C100.25,-322 102.94,-248.5 104.26,-212.59"/>
<polygon fill="#63b8ff" stroke="#63b8ff" points="107.75,-212.86 104.62,-202.73 100.76,-212.6 107.75,-212.86"/>
</a>
</g>
<g id="a_edge22&#45;headlabel"><a xlink:href="dir_000028_000004.html" target="_top" xlink:title="1">
<text text-anchor="middle" x="110.51" y="-211.17" font-family="Helvetica,sans-Serif" font-size="10.00" fill="#63b8ff">1</text>
</a>
</g>
</g>
<!-- dir_3862078e0a5429b6ce9a8a5d655cc609&#45;&gt;dir_bafa501d493553e442f19f5f8dd7b29c -->
<g id="edge20" class="edge">
<title>dir_3862078e0a5429b6ce9a8a5d655cc609&#45;&gt;dir_bafa501d493553e442f19f5f8dd7b29c</title>
<g id="a_edge20"><a xlink:href="dir_000028_000019.html" target="_top">
<path fill="none" stroke="#63b8ff" d="M108.08,-347.33C115.84,-339.82 127.21,-328.81 136.7,-319.63"/>
<polygon fill="#63b8ff" stroke="#63b8ff" points="138.88,-322.38 143.63,-312.91 134.01,-317.35 138.88,-322.38"/>
</a>
</g>
<g id="a_edge20&#45;headlabel"><a xlink:href="dir_000028_000019.html" target="_top" xlink:title="3">
<text text-anchor="middle" x="139.36" y="-321.99" font-family="Helvetica,sans-Serif" font-size="10.00" fill="#63b8ff">3</text>
</a>
</g>
</g>
<!-- dir_3862078e0a5429b6ce9a8a5d655cc609&#45;&gt;dir_961895bef81e67620a5b47a62fb3cb48 -->
<g id="edge21" class="edge">
<title>dir_3862078e0a5429b6ce9a8a5d655cc609&#45;&gt;dir_961895bef81e67620a5b47a62fb3cb48</title>
<g id="a_edge21"><a xlink:href="dir_000028_000040.html" target="_top">
<path fill="none" stroke="#63b8ff" d="M97.12,-347.25C93.46,-330 85.32,-291.58 80.28,-267.81"/>
<polygon fill="#63b8ff" stroke="#63b8ff" points="83.72,-267.16 78.22,-258.11 76.87,-268.62 83.72,-267.16"/>
</a>
</g>
<g id="a_edge21&#45;headlabel"><a xlink:href="dir_000028_000040.html" target="_top" xlink:title="2">
<text text-anchor="middle" x="86.93" y="-264.74" font-family="Helvetica,sans-Serif" font-size="10.00" fill="#63b8ff">2</text>
</a>
</g>
</g>
<!-- dir_6eaa9a4b68db9d3a4b16103d94f334fb&#45;&gt;dir_c450a44cd74e5a974db470ea1cf0577f -->
<g id="edge27" class="edge">
<title>dir_6eaa9a4b68db9d3a4b16103d94f334fb&#45;&gt;dir_c450a44cd74e5a974db470ea1cf0577f</title>
<g id="a_edge27"><a xlink:href="dir_000030_000002.html" target="_top">
<path fill="none" stroke="#63b8ff" d="M185.38,-35.64C208.38,-52.33 253,-90.46 253,-135.12 253,-247.62 253,-247.62 253,-247.62 253,-286.23 220.32,-320.86 197.82,-340.13"/>
<polygon fill="#63b8ff" stroke="#63b8ff" points="195.89,-337.18 190.38,-346.23 200.33,-342.59 195.89,-337.18"/>
</a>
</g>
<g id="a_edge27&#45;headlabel"><a xlink:href="dir_000030_000002.html" target="_top" xlink:title="2">
<text text-anchor="middle" x="195.7" y="-329.79" font-family="Helvetica,sans-Serif" font-size="10.00" fill="#63b8ff">2</text>
</a>
</g>
</g>
<!-- dir_6eaa9a4b68db9d3a4b16103d94f334fb&#45;&gt;dir_a0e47c104ecd6c0b6dccb5f33d071508 -->
<g id="edge25" class="edge">
<title>dir_6eaa9a4b68db9d3a4b16103d94f334fb&#45;&gt;dir_a0e47c104ecd6c0b6dccb5f33d071508</title>
<g id="a_edge25"><a xlink:href="dir_000030_000004.html" target="_top">
<path fill="none" stroke="#63b8ff" d="M154.49,-35.61C140.17,-42.68 121.27,-54.21 112,-71.25 95.08,-102.35 101.68,-145.11 105.22,-170.04"/>
<polygon fill="#63b8ff" stroke="#63b8ff" points="101.73,-170.32 106.46,-179.8 108.67,-169.44 101.73,-170.32"/>
</a>
</g>
<g id="a_edge25&#45;headlabel"><a xlink:href="dir_000030_000004.html" target="_top" xlink:title="6">
<text text-anchor="middle" x="98.65" y="-164.74" font-family="Helvetica,sans-Serif" font-size="10.00" fill="#63b8ff">6</text>
</a>
</g>
</g>
<!-- dir_6eaa9a4b68db9d3a4b16103d94f334fb&#45;&gt;dir_52bb8edc54208f47f87ae9b01b1d12a6 -->
<g id="edge23" class="edge">
<title>dir_6eaa9a4b68db9d3a4b16103d94f334fb&#45;&gt;dir_52bb8edc54208f47f87ae9b01b1d12a6</title>
<g id="a_edge23"><a xlink:href="dir_000030_000010.html" target="_top">
<path fill="none" stroke="#63b8ff" d="M183.41,-35.57C189.71,-44.39 195.63,-58.37 198,-71.25 200.72,-86.03 198.91,-102.97 195.27,-115.69"/>
<polygon fill="#63b8ff" stroke="#63b8ff" points="192.02,-114.37 191.83,-124.96 198.59,-116.8 192.02,-114.37"/>
</a>
</g>
<g id="a_edge23&#45;headlabel"><a xlink:href="dir_000030_000010.html" target="_top" xlink:title="3">
<text text-anchor="middle" x="190.08" y="-107.55" font-family="Helvetica,sans-Serif" font-size="10.00" fill="#63b8ff">3</text>
</a>
</g>
</g>
<!-- dir_6eaa9a4b68db9d3a4b16103d94f334fb&#45;&gt;dir_bafa501d493553e442f19f5f8dd7b29c -->
<g id="edge26" class="edge">
<title>dir_6eaa9a4b68db9d3a4b16103d94f334fb&#45;&gt;dir_bafa501d493553e442f19f5f8dd7b29c</title>
<g id="a_edge26"><a xlink:href="dir_000030_000019.html" target="_top">
<path fill="none" stroke="#63b8ff" d="M181.26,-35.53C198.33,-52.93 233,-93.42 233,-135.12 233,-192.38 233,-192.38 233,-192.38 233,-231.29 199.38,-265.6 176.01,-284.76"/>
<polygon fill="#63b8ff" stroke="#63b8ff" points="173.95,-281.93 168.24,-290.85 178.27,-287.44 173.95,-281.93"/>
</a>
</g>
<g id="a_edge26&#45;headlabel"><a xlink:href="dir_000030_000019.html" target="_top" xlink:title="3">
<text text-anchor="middle" x="173.83" y="-274.53" font-family="Helvetica,sans-Serif" font-size="10.00" fill="#63b8ff">3</text>
</a>
</g>
</g>
<!-- dir_6eaa9a4b68db9d3a4b16103d94f334fb&#45;&gt;dir_55984c57f282dc48266af8a0d45ddadd -->
<g id="edge24" class="edge">
<title>dir_6eaa9a4b68db9d3a4b16103d94f334fb&#45;&gt;dir_55984c57f282dc48266af8a0d45ddadd</title>
<g id="a_edge24"><a xlink:href="dir_000030_000037.html" target="_top">
<path fill="none" stroke="#63b8ff" d="M172.82,-35.61C170.86,-42.64 166.39,-52.64 161.5,-61.37"/>
<polygon fill="#63b8ff" stroke="#63b8ff" points="158.57,-59.46 156.26,-69.8 164.51,-63.15 158.57,-59.46"/>
</a>
</g>
<g id="a_edge24&#45;headlabel"><a xlink:href="dir_000030_000037.html" target="_top" xlink:title="16">
<text text-anchor="middle" x="157.25" y="-52.31" font-family="Helvetica,sans-Serif" font-size="10.00" fill="#63b8ff">16</text>
</a>
</g>
</g>
<!-- dir_55984c57f282dc48266af8a0d45ddadd&#45;&gt;dir_c450a44cd74e5a974db470ea1cf0577f -->
<g id="edge33" class="edge">
<title>dir_55984c57f282dc48266af8a0d45ddadd&#45;&gt;dir_c450a44cd74e5a974db470ea1cf0577f</title>
<g id="a_edge33"><a xlink:href="dir_000037_000002.html" target="_top">
<path fill="none" stroke="#63b8ff" d="M172.62,-90.96C209.86,-105.56 273,-138.03 273,-190.38 273,-247.62 273,-247.62 273,-247.62 273,-276.79 275.62,-288.27 258,-311.5 247.44,-325.43 231.21,-335.58 216.04,-342.65"/>
<polygon fill="#63b8ff" stroke="#63b8ff" points="214.99,-339.29 207.19,-346.46 217.75,-345.72 214.99,-339.29"/>
</a>
</g>
<g id="a_edge33&#45;headlabel"><a xlink:href="dir_000037_000002.html" target="_top" xlink:title="9">
<text text-anchor="middle" x="215.78" y="-331.99" font-family="Helvetica,sans-Serif" font-size="10.00" fill="#63b8ff">9</text>
</a>
</g>
</g>
<!-- dir_55984c57f282dc48266af8a0d45ddadd&#45;&gt;dir_a0e47c104ecd6c0b6dccb5f33d071508 -->
<g id="edge31" class="edge">
<title>dir_55984c57f282dc48266af8a0d45ddadd&#45;&gt;dir_a0e47c104ecd6c0b6dccb5f33d071508</title>
<g id="a_edge31"><a xlink:href="dir_000037_000004.html" target="_top">
<path fill="none" stroke="#63b8ff" d="M149.12,-90.73C147.6,-99.7 141.76,-114.01 137,-126.5 131.22,-141.66 125,-158.99 119.09,-171.77"/>
<polygon fill="#63b8ff" stroke="#63b8ff" points="116.16,-169.82 114.69,-180.31 122.38,-173.03 116.16,-169.82"/>
</a>
</g>
<g id="a_edge31&#45;headlabel"><a xlink:href="dir_000037_000004.html" target="_top" xlink:title="16">
<text text-anchor="middle" x="114.59" y="-162.79" font-family="Helvetica,sans-Serif" font-size="10.00" fill="#63b8ff">16</text>
</a>
</g>
</g>
<!-- dir_55984c57f282dc48266af8a0d45ddadd&#45;&gt;dir_52bb8edc54208f47f87ae9b01b1d12a6 -->
<g id="edge28" class="edge">
<title>dir_55984c57f282dc48266af8a0d45ddadd&#45;&gt;dir_52bb8edc54208f47f87ae9b01b1d12a6</title>
<g id="a_edge28"><a xlink:href="dir_000037_000010.html" target="_top">
<path fill="none" stroke="#63b8ff" d="M157.45,-90.86C163.73,-97.81 171.01,-107.67 176.42,-116.33"/>
<polygon fill="#63b8ff" stroke="#63b8ff" points="173.36,-118.02 181.31,-125.01 179.46,-114.58 173.36,-118.02"/>
</a>
</g>
<g id="a_edge28&#45;headlabel"><a xlink:href="dir_000037_000010.html" target="_top" xlink:title="5">
<text text-anchor="middle" x="169.86" y="-113.72" font-family="Helvetica,sans-Serif" font-size="10.00" fill="#63b8ff">5</text>
</a>
</g>
</g>
<!-- dir_55984c57f282dc48266af8a0d45ddadd&#45;&gt;dir_bafa501d493553e442f19f5f8dd7b29c -->
<g id="edge32" class="edge">
<title>dir_55984c57f282dc48266af8a0d45ddadd&#45;&gt;dir_bafa501d493553e442f19f5f8dd7b29c</title>
<g id="a_edge32"><a xlink:href="dir_000037_000019.html" target="_top">
<path fill="none" stroke="#63b8ff" d="M145.48,-90.76C144.99,-99.76 144.28,-114.09 144,-126.5 142.75,-182.43 148.49,-248.32 151.8,-280.76"/>
<polygon fill="#63b8ff" stroke="#63b8ff" points="148.28,-280.72 152.81,-290.3 155.24,-279.99 148.28,-280.72"/>
</a>
</g>
<g id="a_edge32&#45;headlabel"><a xlink:href="dir_000037_000019.html" target="_top" xlink:title="5">
<text text-anchor="middle" x="145.24" y="-275.08" font-family="Helvetica,sans-Serif" font-size="10.00" fill="#63b8ff">5</text>
</a>
</g>
</g>
<!-- dir_55984c57f282dc48266af8a0d45ddadd&#45;&gt;dir_6eaa9a4b68db9d3a4b16103d94f334fb -->
<g id="edge29" class="edge">
<title>dir_55984c57f282dc48266af8a0d45ddadd&#45;&gt;dir_6eaa9a4b68db9d3a4b16103d94f334fb</title>
<g id="a_edge29"><a xlink:href="dir_000037_000030.html" target="_top">
<path fill="none" stroke="#63b8ff" d="M145.13,-71.08C147.04,-64.11 151.48,-54.12 156.37,-45.37"/>
<polygon fill="#63b8ff" stroke="#63b8ff" points="159.33,-47.24 161.61,-36.9 153.37,-43.56 159.33,-47.24"/>
</a>
</g>
<g id="a_edge29&#45;headlabel"><a xlink:href="dir_000037_000030.html" target="_top" xlink:title="16">
<text text-anchor="middle" x="160.64" y="-46.63" font-family="Helvetica,sans-Serif" font-size="10.00" fill="#63b8ff">16</text>
</a>
</g>
</g>
<!-- dir_55984c57f282dc48266af8a0d45ddadd&#45;&gt;dir_961895bef81e67620a5b47a62fb3cb48 -->
<g id="edge30" class="edge">
<title>dir_55984c57f282dc48266af8a0d45ddadd&#45;&gt;dir_961895bef81e67620a5b47a62fb3cb48</title>
<g id="a_edge30"><a xlink:href="dir_000037_000040.html" target="_top">
<path fill="none" stroke="#63b8ff" d="M111.39,-84.63C83.73,-88.87 46.61,-99.56 28,-126.5 5.41,-159.2 37.54,-204.11 59.15,-228.38"/>
<polygon fill="#63b8ff" stroke="#63b8ff" points="56.38,-230.54 65.75,-235.49 61.51,-225.78 56.38,-230.54"/>
</a>
</g>
<g id="a_edge30&#45;headlabel"><a xlink:href="dir_000037_000040.html" target="_top" xlink:title="6">
<text text-anchor="middle" x="52.88" y="-227.07" font-family="Helvetica,sans-Serif" font-size="10.00" fill="#63b8ff">6</text>
</a>
</g>
</g>
<!-- dir_961895bef81e67620a5b47a62fb3cb48&#45;&gt;dir_a0e47c104ecd6c0b6dccb5f33d071508 -->
<g id="edge34" class="edge">
<title>dir_961895bef81e67620a5b47a62fb3cb48&#45;&gt;dir_a0e47c104ecd6c0b6dccb5f33d071508</title>
<g id="a_edge34"><a xlink:href="dir_000040_000004.html" target="_top">
<path fill="none" stroke="#63b8ff" d="M75.62,-236.83C77.95,-229.78 83.04,-219.65 88.49,-210.83"/>
<polygon fill="#63b8ff" stroke="#63b8ff" points="91.35,-212.86 94.05,-202.61 85.55,-208.93 91.35,-212.86"/>
</a>
</g>
<g id="a_edge34&#45;headlabel"><a xlink:href="dir_000040_000004.html" target="_top" xlink:title="2">
<text text-anchor="middle" x="92.53" y="-212.3" font-family="Helvetica,sans-Serif" font-size="10.00" fill="#63b8ff">2</text>
</a>
</g>
</g>
<!-- dir_961895bef81e67620a5b47a62fb3cb48&#45;&gt;dir_bafa501d493553e442f19f5f8dd7b29c -->
<g id="edge35" class="edge">
<title>dir_961895bef81e67620a5b47a62fb3cb48&#45;&gt;dir_bafa501d493553e442f19f5f8dd7b29c</title>
<g id="a_edge35"><a xlink:href="dir_000040_000019.html" target="_top">
<path fill="none" stroke="#63b8ff" d="M93.34,-256C106.47,-263.77 124.1,-275.55 137.1,-285.09"/>
<polygon fill="#63b8ff" stroke="#63b8ff" points="134.7,-287.66 144.78,-290.93 138.94,-282.09 134.7,-287.66"/>
</a>
</g>
<g id="a_edge35&#45;headlabel"><a xlink:href="dir_000040_000019.html" target="_top" xlink:title="8">
<text text-anchor="middle" x="131.33" y="-284.79" font-family="Helvetica,sans-Serif" font-size="10.00" fill="#63b8ff">8</text>
</a>
</g>
</g>
</g>
</svg>
</svg>

<style type='text/css'>
<![CDATA[
[data-mouse-over-selected='false'] { opacity: 0.7; }
[data-mouse-over-selected='true']  { opacity: 1.0; }
]]>
</style>
<script type="application/ecmascript"><![CDATA[
document.addEventListener('DOMContentLoaded', (event) => {
  highlightEdges();
  highlightAdjacentNodes();
});
]]></script>
</svg>
