<?xml version="1.0" encoding="UTF-8" standalone="no"?>
<!DOCTYPE svg PUBLIC "-//W3C//DTD SVG 1.1//EN"
 "http://www.w3.org/Graphics/SVG/1.1/DTD/svg11.dtd">
<!-- Generated by graphviz version 8.1.0 (20230707.0739)
 -->
<!-- Title: runtime_directory/assets/shaders Pages: 1 -->
<!--zoomable 95 -->

<svg id="main" version="1.1" xmlns="http://www.w3.org/2000/svg" xmlns:xlink="http://www.w3.org/1999/xlink" xml:space="preserve" onload="init(evt)">
<style type="text/css"><![CDATA[
.node, .edge {opacity: 0.7;}
.node.selected, .edge.selected {opacity: 1;}
.edge:hover path { stroke: red; }
.edge:hover polygon { stroke: red; fill: red; }
]]></style>

<defs>
  <circle id="rim" cx="0" cy="0" r="7"/>
  <circle id="rim2" cx="0" cy="0" r="3.5"/>
  <g id="zoomPlus">
    <use xlink:href="#rim" fill="#404040"><set attributeName="fill" to="#808080" begin="zoomplus.mouseover" end="zoomplus.mouseout"/></use>
    <path d="M-4,0h8M0,-4v8" fill="none" stroke="white" stroke-width="1.5" pointer-events="none"/>
  </g>
  <g id="zoomMin">
    <use xlink:href="#rim" fill="#404040"><set attributeName="fill" to="#808080" begin="zoomminus.mouseover" end="zoomminus.mouseout"/></use>
    <path d="M-4,0h8" fill="none" stroke="white" stroke-width="1.5" pointer-events="none"/>
  </g>
  <g id="arrowUp" transform="translate(30 24)">
    <use xlink:href="#rim"/>
    <path pointer-events="none" fill="none" stroke="white" stroke-width="1.5" d="M0,-3.0v7 M-2.5,-0.5L0,-3.0L2.5,-0.5"/>
  </g>
  <g id="arrowRight" transform="rotate(90) translate(36 -43)">
    <use xlink:href="#rim"/>
    <path pointer-events="none" fill="none" stroke="white" stroke-width="1.5" d="M0,-3.0v7 M-2.5,-0.5L0,-3.0L2.5,-0.5"/>
  </g>
  <g id="arrowDown" transform="rotate(180) translate(-30 -48)">
    <use xlink:href="#rim"/>
    <path pointer-events="none" fill="none" stroke="white" stroke-width="1.5" d="M0,-3.0v7 M-2.5,-0.5L0,-3.0L2.5,-0.5"/>
  </g>
  <g id="arrowLeft" transform="rotate(270) translate(-36 17)">
    <use xlink:href="#rim"/>
    <path pointer-events="none" fill="none" stroke="white" stroke-width="1.5" d="M0,-3.0v7 M-2.5,-0.5L0,-3.0L2.5,-0.5"/>
  </g>
  <g id="resetDef">
    <use xlink:href="#rim2" fill="#404040"><set attributeName="fill" to="#808080" begin="reset.mouseover" end="reset.mouseout"/></use>
  </g>
</defs>
<script type="application/ecmascript">
var viewWidth = 837;
var viewHeight = 95;
var sectionId = 'dynsection-0';
</script>
<script type="application/ecmascript" xlink:href="svg.min.js"/>
<svg id="graph" class="graph">
<g id="viewport">
<title>runtime_directory/assets/shaders</title>
<g id="clust1" class="cluster">
<title>clusterdir_32f23025cf59d3a1762330ac421f9622</title>
<g id="a_clust1"><a xlink:href="dir_32f23025cf59d3a1762330ac421f9622.html" target="_top" xlink:title="assets">
<polygon fill="#edf0f7" stroke="#7f7f7f" stroke-dasharray="5,2" points="8,-8 8,-78.5 821,-78.5 821,-8 8,-8"/>
<text text-anchor="middle" x="414.5" y="-65" font-family="Helvetica,sans-Serif" font-size="10.00">assets</text>
</a>
</g>
</g>
<g id="clust2" class="cluster">
<title>clusterdir_67177aed31a510facb9b8ef37de173f2</title>
<g id="a_clust2"><a xlink:href="dir_67177aed31a510facb9b8ef37de173f2.html" target="_top">
<polygon fill="#edf0f7" stroke="#404040" stroke-width="2" points="16,-16 16,-51.25 813,-51.25 813,-16 16,-16"/>
</a>
</g>
</g>
<!-- dir_67177aed31a510facb9b8ef37de173f2 -->
<g id="node1" class="node">
<title>dir_67177aed31a510facb9b8ef37de173f2</title>
<text text-anchor="middle" x="780" y="-29.75" font-family="Helvetica,sans-Serif" font-size="10.00">shaders</text>
</g>
<!-- dir_b5175e41f8cce7bbcc7cf80a3bbdb6f7 -->
<g id="node2" class="node">
<title>dir_b5175e41f8cce7bbcc7cf80a3bbdb6f7</title>
<g id="a_node2"><a xlink:href="dir_b5175e41f8cce7bbcc7cf80a3bbdb6f7.html" target="_top" xlink:title="decal">
<polygon fill="#a2b4d6" stroke="#404040" points="736.62,-43.25 697.38,-43.25 697.38,-24 736.62,-24 736.62,-43.25"/>
<text text-anchor="middle" x="717" y="-29.75" font-family="Helvetica,sans-Serif" font-size="10.00">decal</text>
</a>
</g>
</g>
<!-- dir_5c05ffa9e16a957b238b2f5eb8bd84fb -->
<g id="node3" class="node">
<title>dir_5c05ffa9e16a957b238b2f5eb8bd84fb</title>
<g id="a_node3"><a xlink:href="dir_5c05ffa9e16a957b238b2f5eb8bd84fb.html" target="_top" xlink:title="dissolution">
<polygon fill="#a2b4d6" stroke="#404040" points="679.25,-43.25 616.75,-43.25 616.75,-24 679.25,-24 679.25,-43.25"/>
<text text-anchor="middle" x="648" y="-29.75" font-family="Helvetica,sans-Serif" font-size="10.00">dissolution</text>
</a>
</g>
</g>
<!-- dir_5a413dcab1ec7d002e6e47925d60e642 -->
<g id="node4" class="node">
<title>dir_5a413dcab1ec7d002e6e47925d60e642</title>
<g id="a_node4"><a xlink:href="dir_5a413dcab1ec7d002e6e47925d60e642.html" target="_top" xlink:title="emissive">
<polygon fill="#a2b4d6" stroke="#404040" points="598.5,-43.25 543.5,-43.25 543.5,-24 598.5,-24 598.5,-43.25"/>
<text text-anchor="middle" x="571" y="-29.75" font-family="Helvetica,sans-Serif" font-size="10.00">emissive</text>
</a>
</g>
</g>
<!-- dir_3883628a0d69819f89df4743a381f0ea -->
<g id="node5" class="node">
<title>dir_3883628a0d69819f89df4743a381f0ea</title>
<g id="a_node5"><a xlink:href="dir_3883628a0d69819f89df4743a381f0ea.html" target="_top" xlink:title="emissive&#45;particle">
<polygon fill="#a2b4d6" stroke="#404040" points="525.75,-43.25 436.25,-43.25 436.25,-24 525.75,-24 525.75,-43.25"/>
<text text-anchor="middle" x="481" y="-29.75" font-family="Helvetica,sans-Serif" font-size="10.00">emissive&#45;particle</text>
</a>
</g>
</g>
<!-- dir_b62d46621c7d048b87612228a44e4dc3 -->
<g id="node6" class="node">
<title>dir_b62d46621c7d048b87612228a44e4dc3</title>
<g id="a_node6"><a xlink:href="dir_b62d46621c7d048b87612228a44e4dc3.html" target="_top" xlink:title="grass">
<polygon fill="#a2b4d6" stroke="#404040" points="418,-43.25 378,-43.25 378,-24 418,-24 418,-43.25"/>
<text text-anchor="middle" x="398" y="-29.75" font-family="Helvetica,sans-Serif" font-size="10.00">grass</text>
</a>
</g>
</g>
<!-- dir_e38c97a64b4086577a7c13d776d93f56 -->
<g id="node7" class="node">
<title>dir_e38c97a64b4086577a7c13d776d93f56</title>
<g id="a_node7"><a xlink:href="dir_e38c97a64b4086577a7c13d776d93f56.html" target="_top" xlink:title="misc">
<polygon fill="#a2b4d6" stroke="#404040" points="359.5,-43.25 322.5,-43.25 322.5,-24 359.5,-24 359.5,-43.25"/>
<text text-anchor="middle" x="341" y="-29.75" font-family="Helvetica,sans-Serif" font-size="10.00">misc</text>
</a>
</g>
</g>
<!-- dir_17bdc791eabc7766c6bfdaa326dc8b22 -->
<g id="node8" class="node">
<title>dir_17bdc791eabc7766c6bfdaa326dc8b22</title>
<g id="a_node8"><a xlink:href="dir_17bdc791eabc7766c6bfdaa326dc8b22.html" target="_top" xlink:title="opaque">
<polygon fill="#a2b4d6" stroke="#404040" points="304.75,-43.25 257.25,-43.25 257.25,-24 304.75,-24 304.75,-43.25"/>
<text text-anchor="middle" x="281" y="-29.75" font-family="Helvetica,sans-Serif" font-size="10.00">opaque</text>
</a>
</g>
</g>
<!-- dir_e48d6b05788dc9753949445e43fbca34 -->
<g id="node9" class="node">
<title>dir_e48d6b05788dc9753949445e43fbca34</title>
<g id="a_node9"><a xlink:href="dir_e48d6b05788dc9753949445e43fbca34.html" target="_top" xlink:title="particle">
<polygon fill="#a2b4d6" stroke="#404040" points="238.75,-43.25 191.25,-43.25 191.25,-24 238.75,-24 238.75,-43.25"/>
<text text-anchor="middle" x="215" y="-29.75" font-family="Helvetica,sans-Serif" font-size="10.00">particle</text>
</a>
</g>
</g>
<!-- dir_985fc9de32771870a1e0f2210d1cad16 -->
<g id="node10" class="node">
<title>dir_985fc9de32771870a1e0f2210d1cad16</title>
<g id="a_node10"><a xlink:href="dir_985fc9de32771870a1e0f2210d1cad16.html" target="_top" xlink:title="post&#45;processing">
<polygon fill="#a2b4d6" stroke="#404040" points="173.5,-43.25 88.5,-43.25 88.5,-24 173.5,-24 173.5,-43.25"/>
<text text-anchor="middle" x="131" y="-29.75" font-family="Helvetica,sans-Serif" font-size="10.00">post&#45;processing</text>
</a>
</g>
</g>
<!-- dir_a4955dbf3c25d04acf1f333e6e8722f9 -->
<g id="node11" class="node">
<title>dir_a4955dbf3c25d04acf1f333e6e8722f9</title>
<g id="a_node11"><a xlink:href="dir_a4955dbf3c25d04acf1f333e6e8722f9.html" target="_top" xlink:title="skybox">
<polygon fill="#a2b4d6" stroke="#404040" points="70,-43.25 24,-43.25 24,-24 70,-24 70,-43.25"/>
<text text-anchor="middle" x="47" y="-29.75" font-family="Helvetica,sans-Serif" font-size="10.00">skybox</text>
</a>
</g>
</g>
</g>
</svg>

<g id="navigator" transform="translate(0 0)" fill="#404254">
  <rect fill="#f2f5e9" fill-opacity="0.5" stroke="#606060" stroke-width=".5" x="0" y="0" width="60" height="60"/>
  <use id="zoomplus" xlink:href="#zoomPlus" x="17" y="9" onmousedown="handleZoom(evt,'in')"/>
  <use id="zoomminus" xlink:href="#zoomMin" x="42" y="9" onmousedown="handleZoom(evt,'out')"/>
  <use id="reset" xlink:href="#resetDef" x="30" y="36" onmousedown="handleReset()"/>
   <use id="arrowup" xlink:href="#arrowUp" x="0" y="0" onmousedown="handlePan(0,-1)"/>
  <use id="arrowright" xlink:href="#arrowRight" x="0" y="0" onmousedown="handlePan(1,0)"/>
  <use id="arrowdown" xlink:href="#arrowDown" x="0" y="0" onmousedown="handlePan(0,1)"/>
  <use id="arrowleft" xlink:href="#arrowLeft" x="0" y="0" onmousedown="handlePan(-1,0)"/>
</g>
<svg viewBox="0 0 15 15" width="100%" height="30px" preserveAspectRatio="xMaxYMin meet">
 <g id="arrow_out" transform="scale(0.3 0.3)">
  <a xlink:href="dir_67177aed31a510facb9b8ef37de173f2_dep_org.svg" target="_base">
   <rect id="button" ry="5" rx="5" y="6" x="6" height="38" width="38"
        fill="#f2f5e9" fill-opacity="0.5" stroke="#606060" stroke-width="1.0"/>
   <path id="arrow"
     d="M 11.500037,31.436501 C 11.940474,20.09759 22.043105,11.32322 32.158766,21.979434 L 37.068811,17.246167 C 37.068811,17.246167 37.088388,32 37.088388,32 L 22.160133,31.978069 C 22.160133,31.978069 26.997745,27.140456 26.997745,27.140456 C 18.528582,18.264221 13.291696,25.230495 11.500037,31.436501 z"
     style="fill:#404040;"/>
  </a>
 </g>
</svg>

<style type='text/css'>
<![CDATA[
[data-mouse-over-selected='false'] { opacity: 0.7; }
[data-mouse-over-selected='true']  { opacity: 1.0; }
]]>
</style>
<script type="application/ecmascript"><![CDATA[
document.addEventListener('DOMContentLoaded', (event) => {
  highlightEdges();
  highlightAdjacentNodes();
});
]]></script>
</svg>
