<?xml version="1.0" encoding="UTF-8" standalone="no"?>
<!DOCTYPE svg PUBLIC "-//W3C//DTD SVG 1.1//EN"
 "http://www.w3.org/Graphics/SVG/1.1/DTD/svg11.dtd">
<!-- Generated by graphviz version 9.0.0 (20230911.1827)
 -->
<!-- Title: Graphical Class Hierarchy Pages: 1 -->
<svg width="650pt" height="635pt"
 viewBox="0.00 0.00 649.50 634.50" xmlns="http://www.w3.org/2000/svg" xmlns:xlink="http://www.w3.org/1999/xlink">
<g id="graph0" class="graph" transform="scale(1 1) rotate(0) translate(4 630.5)">
<title>Graphical Class Hierarchy</title>
<!-- Node0 -->
<g id="Node000000" class="node">
<title>Node0</title>
<g id="a_Node000000"><a xlink:href="dd/dd4/structengine_1_1core_1_1_layer_1_1_handle_event.html" target="_top" xlink:title=" ">
<polygon fill="white" stroke="#666666" points="96.62,-392.5 0.38,-392.5 0.38,-362 96.62,-362 96.62,-392.5"/>
<text text-anchor="start" x="8.38" y="-379" font-family="Helvetica,sans-Serif" font-size="10.00">engine::core::Layer</text>
<text text-anchor="middle" x="48.5" y="-367.75" font-family="Helvetica,sans-Serif" font-size="10.00">::HandleEvent</text>
</a>
</g>
</g>
<!-- Node1 -->
<g id="Node000001" class="node">
<title>Node1</title>
<g id="a_Node000001"><a xlink:href="d8/d87/class_controller.html" target="_top" xlink:title=" ">
<polygon fill="white" stroke="#666666" points="236.38,-434.88 179.12,-434.88 179.12,-415.62 236.38,-415.62 236.38,-434.88"/>
<text text-anchor="middle" x="207.75" y="-421.38" font-family="Helvetica,sans-Serif" font-size="10.00">Controller</text>
</a>
</g>
</g>
<!-- Node0&#45;&gt;Node1 -->
<g id="edge19_Node000000_Node000001" class="edge">
<title>Node0&#45;&gt;Node1</title>
<g id="a_edge19_Node000000_Node000001"><a xlink:title=" ">
<path fill="none" stroke="#63b8ff" d="M108.03,-395.12C132.31,-402.53 159.33,-410.78 178.96,-416.77"/>
<polygon fill="#63b8ff" stroke="#63b8ff" points="109.14,-391.8 98.55,-392.22 107.1,-398.49 109.14,-391.8"/>
</a>
</g>
</g>
<!-- Node17 -->
<g id="Node000017" class="node">
<title>Node17</title>
<g id="a_Node000017"><a xlink:href="da/d3d/classengine_1_1core_1_1_im_gui_layer.html" target="_top" xlink:title=" ">
<polygon fill="white" stroke="#666666" points="269,-245.88 146.5,-245.88 146.5,-226.62 269,-226.62 269,-245.88"/>
<text text-anchor="middle" x="207.75" y="-232.38" font-family="Helvetica,sans-Serif" font-size="10.00">engine::core::ImGuiLayer</text>
</a>
</g>
</g>
<!-- Node0&#45;&gt;Node17 -->
<g id="edge20_Node000000_Node000017" class="edge">
<title>Node0&#45;&gt;Node17</title>
<g id="a_edge20_Node000000_Node000017"><a xlink:title=" ">
<path fill="none" stroke="#63b8ff" d="M79.34,-354.39C85.7,-348.61 91.99,-342.09 97,-335.25 120.29,-303.48 102.77,-279.51 133,-254.25 136.94,-250.95 141.4,-248.25 146.12,-246.02"/>
<polygon fill="#63b8ff" stroke="#63b8ff" points="77.21,-351.61 71.91,-360.78 81.77,-356.92 77.21,-351.61"/>
</a>
</g>
</g>
<!-- Node18 -->
<g id="Node000018" class="node">
<title>Node18</title>
<g id="a_Node000018"><a xlink:href="da/df3/classengine_1_1core_1_1_input_layer.html" target="_top" xlink:title=" ">
<polygon fill="white" stroke="#666666" points="266.75,-358.88 148.75,-358.88 148.75,-339.62 266.75,-339.62 266.75,-358.88"/>
<text text-anchor="middle" x="207.75" y="-345.38" font-family="Helvetica,sans-Serif" font-size="10.00">engine::core::InputLayer</text>
</a>
</g>
</g>
<!-- Node0&#45;&gt;Node18 -->
<g id="edge21_Node000000_Node000018" class="edge">
<title>Node0&#45;&gt;Node18</title>
<g id="a_edge21_Node000000_Node000018"><a xlink:title=" ">
<path fill="none" stroke="#63b8ff" d="M108.3,-366.78C121.91,-364.36 136.36,-361.78 149.89,-359.37"/>
<polygon fill="#63b8ff" stroke="#63b8ff" points="107.83,-363.31 98.6,-368.51 109.06,-370.2 107.83,-363.31"/>
</a>
</g>
</g>
<!-- Node3 -->
<g id="Node000003" class="node">
<title>Node3</title>
<g id="a_Node000003"><a xlink:href="d6/d88/classengine_1_1core_1_1_layer_stack.html" target="_top" xlink:title=" ">
<polygon fill="white" stroke="#666666" points="268.62,-558.88 146.88,-558.88 146.88,-539.62 268.62,-539.62 268.62,-558.88"/>
<text text-anchor="middle" x="207.75" y="-545.38" font-family="Helvetica,sans-Serif" font-size="10.00">engine::core::LayerStack</text>
</a>
</g>
</g>
<!-- Node0&#45;&gt;Node3 -->
<g id="edge22_Node000000_Node000003" class="edge">
<title>Node0&#45;&gt;Node3</title>
<g id="a_edge22_Node000000_Node000003"><a xlink:title=" ">
<path fill="none" stroke="#63b8ff" d="M87.19,-399.63C90.84,-402.86 94.21,-406.41 97,-410.25 129.69,-455.32 92.86,-491.66 133,-530.25 137,-534.1 141.68,-537.2 146.7,-539.68"/>
<polygon fill="#63b8ff" stroke="#63b8ff" points="89.53,-397.02 79.5,-393.61 85.21,-402.53 89.53,-397.02"/>
</a>
</g>
</g>
<!-- Node21 -->
<g id="Node000021" class="node">
<title>Node21</title>
<g id="a_Node000021"><a xlink:href="d1/d8a/classengine_1_1core_1_1_shader_manager.html" target="_top" xlink:title=" ">
<polygon fill="white" stroke="#666666" points="278,-282.88 137.5,-282.88 137.5,-263.62 278,-263.62 278,-282.88"/>
<text text-anchor="middle" x="207.75" y="-269.38" font-family="Helvetica,sans-Serif" font-size="10.00">engine::core::ShaderManager</text>
</a>
</g>
</g>
<!-- Node0&#45;&gt;Node21 -->
<g id="edge27_Node000000_Node000021" class="edge">
<title>Node0&#45;&gt;Node21</title>
<g id="a_edge27_Node000000_Node000021"><a xlink:title=" ">
<path fill="none" stroke="#63b8ff" d="M82.44,-355.46C116,-333.27 166.56,-299.83 191.6,-283.27"/>
<polygon fill="#63b8ff" stroke="#63b8ff" points="80.71,-352.41 74.3,-360.85 84.58,-358.25 80.71,-352.41"/>
</a>
</g>
</g>
<!-- Node9 -->
<g id="Node000009" class="node">
<title>Node9</title>
<g id="a_Node000009"><a xlink:href="df/df1/classengine_1_1render_1_1_post_processing.html" target="_top" xlink:title=" ">
<polygon fill="white" stroke="#666666" points="474.38,-396.88 324.88,-396.88 324.88,-377.62 474.38,-377.62 474.38,-396.88"/>
<text text-anchor="middle" x="399.62" y="-383.38" font-family="Helvetica,sans-Serif" font-size="10.00">engine::render::PostProcessing</text>
</a>
</g>
</g>
<!-- Node0&#45;&gt;Node9 -->
<g id="edge28_Node000000_Node000009" class="edge">
<title>Node0&#45;&gt;Node9</title>
<g id="a_edge28_Node000000_Node000009"><a xlink:title=" ">
<path fill="none" stroke="#63b8ff" d="M108.39,-378.94C167.89,-380.64 259.99,-383.28 324.44,-385.13"/>
<polygon fill="#63b8ff" stroke="#63b8ff" points="108.56,-375.44 98.46,-378.65 108.36,-382.44 108.56,-375.44"/>
</a>
</g>
</g>
<!-- Node4 -->
<g id="Node000004" class="node">
<title>Node4</title>
<g id="a_Node000004"><a xlink:href="d2/d5c/classengine_1_1core_1_1_layer_stack_threadsafe.html" target="_top" xlink:title=" ">
<polygon fill="white" stroke="#666666" points="460.5,-585.5 338.75,-585.5 338.75,-555 460.5,-555 460.5,-585.5"/>
<text text-anchor="start" x="346.75" y="-572" font-family="Helvetica,sans-Serif" font-size="10.00">engine::core::LayerStack</text>
<text text-anchor="middle" x="399.62" y="-560.75" font-family="Helvetica,sans-Serif" font-size="10.00">Threadsafe</text>
</a>
</g>
</g>
<!-- Node3&#45;&gt;Node4 -->
<g id="edge23_Node000003_Node000004" class="edge">
<title>Node3&#45;&gt;Node4</title>
<g id="a_edge23_Node000003_Node000004"><a xlink:title=" ">
<path fill="none" stroke="#8b1a1a" d="M280.47,-557.18C299.58,-559.3 320.02,-561.56 338.44,-563.59"/>
<polygon fill="#8b1a1a" stroke="#8b1a1a" points="280.92,-553.71 270.59,-556.09 280.15,-560.67 280.92,-553.71"/>
</a>
</g>
</g>
<!-- Node6 -->
<g id="Node000006" class="node">
<title>Node6</title>
<g id="a_Node000006"><a xlink:href="d9/d15/classengine_1_1core_1_1_render_pipeline.html" target="_top" xlink:title=" ">
<polygon fill="white" stroke="#666666" points="468.38,-536.88 330.88,-536.88 330.88,-517.62 468.38,-517.62 468.38,-536.88"/>
<text text-anchor="middle" x="399.62" y="-523.38" font-family="Helvetica,sans-Serif" font-size="10.00">engine::core::RenderPipeline</text>
</a>
</g>
</g>
<!-- Node3&#45;&gt;Node6 -->
<g id="edge25_Node000003_Node000006" class="edge">
<title>Node3&#45;&gt;Node6</title>
<g id="a_edge25_Node000003_Node000006"><a xlink:title=" ">
<path fill="none" stroke="#63b8ff" d="M280.3,-540.96C296.75,-539.05 314.21,-537.03 330.52,-535.14"/>
<polygon fill="#63b8ff" stroke="#63b8ff" points="280.12,-537.46 270.59,-542.08 280.93,-544.41 280.12,-537.46"/>
</a>
</g>
</g>
<!-- Node5 -->
<g id="Node000005" class="node">
<title>Node5</title>
<g id="a_Node000005"><a xlink:href="da/d33/classengine_1_1core_1_1_engine.html" target="_top" xlink:title="Represents the core of the engine.">
<polygon fill="white" stroke="#666666" points="629.88,-579.88 528.38,-579.88 528.38,-560.62 629.88,-560.62 629.88,-579.88"/>
<text text-anchor="middle" x="579.12" y="-566.38" font-family="Helvetica,sans-Serif" font-size="10.00">engine::core::Engine</text>
</a>
</g>
</g>
<!-- Node4&#45;&gt;Node5 -->
<g id="edge24_Node000004_Node000005" class="edge">
<title>Node4&#45;&gt;Node5</title>
<g id="a_edge24_Node000004_Node000005"><a xlink:title=" ">
<path fill="none" stroke="#8b1a1a" d="M472.22,-570.25C490.97,-570.25 510.78,-570.25 528.14,-570.25"/>
<polygon fill="#8b1a1a" stroke="#8b1a1a" points="472.23,-566.75 462.23,-570.25 472.23,-573.75 472.23,-566.75"/>
</a>
</g>
</g>
<!-- Node7 -->
<g id="Node000007" class="node">
<title>Node7</title>
<g id="a_Node000007"><a xlink:href="d9/d04/classengine_1_1direct3d_1_1_deferred_h_d_r_render_pipeline.html" target="_top" xlink:title=" ">
<polygon fill="white" stroke="#666666" points="641.5,-542.5 516.75,-542.5 516.75,-512 641.5,-512 641.5,-542.5"/>
<text text-anchor="start" x="524.75" y="-529" font-family="Helvetica,sans-Serif" font-size="10.00">engine::direct3d::Deferred</text>
<text text-anchor="middle" x="579.12" y="-517.75" font-family="Helvetica,sans-Serif" font-size="10.00">HDRRenderPipeline</text>
</a>
</g>
</g>
<!-- Node6&#45;&gt;Node7 -->
<g id="edge26_Node000006_Node000007" class="edge">
<title>Node6&#45;&gt;Node7</title>
<g id="a_edge26_Node000006_Node000007"><a xlink:title=" ">
<path fill="none" stroke="#63b8ff" d="M480.24,-527.25C492.33,-527.25 504.65,-527.25 516.29,-527.25"/>
<polygon fill="#63b8ff" stroke="#63b8ff" points="480.26,-523.75 470.26,-527.25 480.26,-530.75 480.26,-523.75"/>
</a>
</g>
</g>
<!-- Node10 -->
<g id="Node000010" class="node">
<title>Node10</title>
<g id="a_Node000010"><a xlink:href="d2/d84/classengine_1_1render_1_1_post_processing_layer_1_1_handle_frame_begin.html" target="_top" xlink:title=" ">
<polygon fill="white" stroke="#666666" points="282.5,-521.5 133,-521.5 133,-491 282.5,-491 282.5,-521.5"/>
<text text-anchor="start" x="141" y="-508" font-family="Helvetica,sans-Serif" font-size="10.00">engine::render::PostProcessing</text>
<text text-anchor="middle" x="207.75" y="-496.75" font-family="Helvetica,sans-Serif" font-size="10.00">Layer::HandleFrameBegin</text>
</a>
</g>
</g>
<!-- Node10&#45;&gt;Node9 -->
<g id="edge29_Node000010_Node000009" class="edge">
<title>Node10&#45;&gt;Node9</title>
<g id="a_edge29_Node000010_Node000009"><a xlink:title=" ">
<path fill="none" stroke="#63b8ff" d="M264.81,-486.17C270.9,-483.42 276.91,-480.43 282.5,-477.25 324.63,-453.3 368.19,-415.32 387.85,-397.34"/>
<polygon fill="#63b8ff" stroke="#63b8ff" points="263.74,-482.82 255.94,-489.99 266.5,-489.25 263.74,-482.82"/>
</a>
</g>
</g>
<!-- Node11 -->
<g id="Node000011" class="node">
<title>Node11</title>
<g id="a_Node000011"><a xlink:href="dc/d15/classengine_1_1render_1_1_post_processing_layer_1_1_handle_frame_end.html" target="_top" xlink:title=" ">
<polygon fill="white" stroke="#666666" points="282.5,-208.5 133,-208.5 133,-178 282.5,-178 282.5,-208.5"/>
<text text-anchor="start" x="141" y="-195" font-family="Helvetica,sans-Serif" font-size="10.00">engine::render::PostProcessing</text>
<text text-anchor="middle" x="207.75" y="-183.75" font-family="Helvetica,sans-Serif" font-size="10.00">Layer::HandleFrameEnd</text>
</a>
</g>
</g>
<!-- Node11&#45;&gt;Node9 -->
<g id="edge30_Node000011_Node000009" class="edge">
<title>Node11&#45;&gt;Node9</title>
<g id="a_edge30_Node000011_Node000009"><a xlink:title=" ">
<path fill="none" stroke="#63b8ff" d="M278.44,-214.41C279.83,-215.32 281.19,-216.27 282.5,-217.25 342.85,-262.47 382.61,-348.64 394.72,-377.53"/>
<polygon fill="#63b8ff" stroke="#63b8ff" points="280.57,-211.6 270.14,-209.71 277.12,-217.69 280.57,-211.6"/>
</a>
</g>
</g>
<!-- Node12 -->
<g id="Node000012" class="node">
<title>Node12</title>
<g id="a_Node000012"><a xlink:href="d3/df2/classengine_1_1render_1_1_present_swapchain.html" target="_top" xlink:title=" ">
<polygon fill="white" stroke="#666666" points="480.75,-137.88 318.5,-137.88 318.5,-118.62 480.75,-118.62 480.75,-137.88"/>
<text text-anchor="middle" x="399.62" y="-124.38" font-family="Helvetica,sans-Serif" font-size="10.00">engine::render::PresentSwapchain</text>
</a>
</g>
</g>
<!-- Node11&#45;&gt;Node12 -->
<g id="edge31_Node000011_Node000012" class="edge">
<title>Node11&#45;&gt;Node12</title>
<g id="a_edge31_Node000011_Node000012"><a xlink:title=" ">
<path fill="none" stroke="#63b8ff" d="M268.2,-174.05C273.04,-172.44 277.86,-170.83 282.5,-169.25 312.87,-158.95 347.52,-146.64 371.01,-138.22"/>
<polygon fill="#63b8ff" stroke="#63b8ff" points="267.44,-170.61 259.04,-177.07 269.63,-177.26 267.44,-170.61"/>
</a>
</g>
</g>
<!-- Node2 -->
<g id="Node000002" class="node">
<title>Node2</title>
<g id="a_Node000002"><a xlink:href="da/d57/structengine_1_1core_1_1_layer_1_1_handle_gui_render.html" target="_top" xlink:title=" ">
<polygon fill="white" stroke="#666666" points="97,-564.5 0,-564.5 0,-534 97,-534 97,-564.5"/>
<text text-anchor="start" x="8" y="-551" font-family="Helvetica,sans-Serif" font-size="10.00">engine::core::Layer</text>
<text text-anchor="middle" x="48.5" y="-539.75" font-family="Helvetica,sans-Serif" font-size="10.00">::HandleGuiRender</text>
</a>
</g>
</g>
<!-- Node2&#45;&gt;Node1 -->
<g id="edge32_Node000002_Node000001" class="edge">
<title>Node2&#45;&gt;Node1</title>
<g id="a_edge32_Node000002_Node000001"><a xlink:title=" ">
<path fill="none" stroke="#63b8ff" d="M77.59,-526.5C93.74,-513.47 114.45,-496.86 133,-482.25 154.1,-465.63 178.85,-446.6 193.64,-435.27"/>
<polygon fill="#63b8ff" stroke="#63b8ff" points="75.41,-523.76 69.83,-532.76 79.81,-529.2 75.41,-523.76"/>
</a>
</g>
</g>
<!-- Node2&#45;&gt;Node3 -->
<g id="edge33_Node000002_Node000003" class="edge">
<title>Node2&#45;&gt;Node3</title>
<g id="a_edge33_Node000002_Node000003"><a xlink:title=" ">
<path fill="none" stroke="#63b8ff" d="M108.32,-549.25C120.78,-549.25 133.96,-549.25 146.48,-549.25"/>
<polygon fill="#63b8ff" stroke="#63b8ff" points="108.62,-545.75 98.62,-549.25 108.62,-552.75 108.62,-545.75"/>
</a>
</g>
</g>
<!-- Node2&#45;&gt;Node9 -->
<g id="edge34_Node000002_Node000009" class="edge">
<title>Node2&#45;&gt;Node9</title>
<g id="a_edge34_Node000002_Node000009"><a xlink:title=" ">
<path fill="none" stroke="#63b8ff" d="M98.61,-568.51C148.3,-584.66 225.7,-600.41 282.5,-568.25 309.56,-552.93 301.91,-534.55 318.5,-508.25 344.84,-466.48 377.82,-417.74 391.83,-397.19"/>
<polygon fill="#63b8ff" stroke="#63b8ff" points="99.86,-565.24 89.26,-565.34 97.61,-571.87 99.86,-565.24"/>
</a>
</g>
</g>
<!-- Node15 -->
<g id="Node000015" class="node">
<title>Node15</title>
<g id="a_Node000015"><a xlink:href="d1/dee/classengine_1_1render_1_1_post_processing_layer_1_1_handle_process.html" target="_top" xlink:title=" ">
<polygon fill="white" stroke="#666666" points="282.5,-73.5 133,-73.5 133,-43 282.5,-43 282.5,-73.5"/>
<text text-anchor="start" x="141" y="-60" font-family="Helvetica,sans-Serif" font-size="10.00">engine::render::PostProcessing</text>
<text text-anchor="middle" x="207.75" y="-48.75" font-family="Helvetica,sans-Serif" font-size="10.00">Layer::HandleProcess</text>
</a>
</g>
</g>
<!-- Node15&#45;&gt;Node9 -->
<g id="edge36_Node000015_Node000009" class="edge">
<title>Node15&#45;&gt;Node9</title>
<g id="a_edge36_Node000015_Node000009"><a xlink:title=" ">
<path fill="none" stroke="#63b8ff" d="M279.17,-80.29C280.32,-81.24 281.43,-82.22 282.5,-83.25 305.6,-105.49 379.04,-327.31 395.38,-377.29"/>
<polygon fill="#63b8ff" stroke="#63b8ff" points="281.18,-77.42 270.95,-74.66 277.22,-83.2 281.18,-77.42"/>
</a>
</g>
</g>
<!-- Node14 -->
<g id="Node000014" class="node">
<title>Node14</title>
<g id="a_Node000014"><a xlink:href="dd/d52/classengine_1_1render_1_1_h_d_rto_l_d_r_layer.html" target="_top" xlink:title=" ">
<polygon fill="white" stroke="#666666" points="476.25,-94.88 323,-94.88 323,-75.62 476.25,-75.62 476.25,-94.88"/>
<text text-anchor="middle" x="399.62" y="-81.38" font-family="Helvetica,sans-Serif" font-size="10.00">engine::render::HDRtoLDRLayer</text>
</a>
</g>
</g>
<!-- Node15&#45;&gt;Node14 -->
<g id="edge35_Node000015_Node000014" class="edge">
<title>Node15&#45;&gt;Node14</title>
<g id="a_edge35_Node000015_Node000014"><a xlink:title=" ">
<path fill="none" stroke="#63b8ff" d="M294.08,-70.38C305.27,-71.98 316.64,-73.59 327.56,-75.14"/>
<polygon fill="#63b8ff" stroke="#63b8ff" points="294.87,-66.96 284.47,-69.02 293.88,-73.89 294.87,-66.96"/>
</a>
</g>
</g>
<!-- Node8 -->
<g id="Node000008" class="node">
<title>Node8</title>
<g id="a_Node000008"><a xlink:href="d1/df2/structengine_1_1core_1_1_layer_1_1_handle_render.html" target="_top" xlink:title=" ">
<polygon fill="white" stroke="#666666" points="96.62,-626.5 0.38,-626.5 0.38,-596 96.62,-596 96.62,-626.5"/>
<text text-anchor="start" x="8.38" y="-613" font-family="Helvetica,sans-Serif" font-size="10.00">engine::core::Layer</text>
<text text-anchor="middle" x="48.5" y="-601.75" font-family="Helvetica,sans-Serif" font-size="10.00">::HandleRender</text>
</a>
</g>
</g>
<!-- Node8&#45;&gt;Node3 -->
<g id="edge37_Node000008_Node000003" class="edge">
<title>Node8&#45;&gt;Node3</title>
<g id="a_edge37_Node000008_Node000003"><a xlink:title=" ">
<path fill="none" stroke="#63b8ff" d="M99.7,-591.46C126.92,-580.73 159.38,-567.93 181.36,-559.26"/>
<polygon fill="#63b8ff" stroke="#63b8ff" points="98.61,-588.13 90.59,-595.05 101.18,-594.64 98.61,-588.13"/>
</a>
</g>
</g>
<!-- Node8&#45;&gt;Node9 -->
<g id="edge38_Node000008_Node000009" class="edge">
<title>Node8&#45;&gt;Node9</title>
<g id="a_edge38_Node000008_Node000009"><a xlink:title=" ">
<path fill="none" stroke="#63b8ff" d="M107.88,-621.77C158.76,-627.58 232.1,-627.51 282.5,-591.25 315.14,-567.77 299.33,-543.59 318.5,-508.25 341.93,-465.07 376.15,-417.46 391.14,-397.23"/>
<polygon fill="#63b8ff" stroke="#63b8ff" points="108.6,-618.33 98.24,-620.55 107.72,-625.27 108.6,-618.33"/>
</a>
</g>
</g>
<!-- Node19 -->
<g id="Node000019" class="node">
<title>Node19</title>
<g id="a_Node000019"><a xlink:href="de/d0d/structengine_1_1core_1_1_layer_1_1_handle_tick.html" target="_top" xlink:title=" ">
<polygon fill="white" stroke="#666666" points="96.62,-449.5 0.38,-449.5 0.38,-419 96.62,-419 96.62,-449.5"/>
<text text-anchor="start" x="8.38" y="-436" font-family="Helvetica,sans-Serif" font-size="10.00">engine::core::Layer</text>
<text text-anchor="middle" x="48.5" y="-424.75" font-family="Helvetica,sans-Serif" font-size="10.00">::HandleTick</text>
</a>
</g>
</g>
<!-- Node19&#45;&gt;Node1 -->
<g id="edge39_Node000019_Node000001" class="edge">
<title>Node19&#45;&gt;Node1</title>
<g id="a_edge39_Node000019_Node000001"><a xlink:title=" ">
<path fill="none" stroke="#63b8ff" d="M108.36,-430.88C132.56,-429.5 159.42,-427.96 178.96,-426.84"/>
<polygon fill="#63b8ff" stroke="#63b8ff" points="108.4,-427.37 98.62,-431.44 108.8,-434.36 108.4,-427.37"/>
</a>
</g>
</g>
<!-- Node19&#45;&gt;Node18 -->
<g id="edge40_Node000019_Node000018" class="edge">
<title>Node19&#45;&gt;Node18</title>
<g id="a_edge40_Node000019_Node000018"><a xlink:title=" ">
<path fill="none" stroke="#63b8ff" d="M88.24,-413.31C120.15,-396.06 163.98,-372.37 188.41,-359.16"/>
<polygon fill="#63b8ff" stroke="#63b8ff" points="86.81,-410.11 79.67,-417.94 90.13,-416.26 86.81,-410.11"/>
</a>
</g>
</g>
<!-- Node19&#45;&gt;Node3 -->
<g id="edge41_Node000019_Node000003" class="edge">
<title>Node19&#45;&gt;Node3</title>
<g id="a_edge41_Node000019_Node000003"><a xlink:title=" ">
<path fill="none" stroke="#63b8ff" d="M64.82,-459.16C79.61,-481.11 104,-512.33 133,-530.25 138.85,-533.86 145.36,-536.79 152.03,-539.17"/>
<polygon fill="#63b8ff" stroke="#63b8ff" points="67.94,-457.53 59.54,-451.07 62.07,-461.35 67.94,-457.53"/>
</a>
</g>
</g>
<!-- Node19&#45;&gt;Node9 -->
<g id="edge42_Node000019_Node000009" class="edge">
<title>Node19&#45;&gt;Node9</title>
<g id="a_edge42_Node000019_Node000009"><a xlink:title=" ">
<path fill="none" stroke="#63b8ff" d="M108.38,-445.42C155.98,-452.39 224.39,-457.74 282.5,-444.25 321.66,-435.16 362.83,-410.91 384.06,-397.15"/>
<polygon fill="#63b8ff" stroke="#63b8ff" points="108.96,-441.96 98.54,-443.9 107.89,-448.88 108.96,-441.96"/>
</a>
</g>
</g>
<!-- Node20 -->
<g id="Node000020" class="node">
<title>Node20</title>
<g id="a_Node000020"><a xlink:href="d5/d41/structengine_1_1core_1_1_layer_1_1_handle_update.html" target="_top" xlink:title=" ">
<polygon fill="white" stroke="#666666" points="96.62,-326.5 0.38,-326.5 0.38,-296 96.62,-296 96.62,-326.5"/>
<text text-anchor="start" x="8.38" y="-313" font-family="Helvetica,sans-Serif" font-size="10.00">engine::core::Layer</text>
<text text-anchor="middle" x="48.5" y="-301.75" font-family="Helvetica,sans-Serif" font-size="10.00">::HandleUpdate</text>
</a>
</g>
</g>
<!-- Node20&#45;&gt;Node1 -->
<g id="edge43_Node000020_Node000001" class="edge">
<title>Node20&#45;&gt;Node1</title>
<g id="a_edge43_Node000020_Node000001"><a xlink:title=" ">
<path fill="none" stroke="#63b8ff" d="M80.09,-333.43C114.17,-358.13 167.77,-396.99 192.89,-415.2"/>
<polygon fill="#63b8ff" stroke="#63b8ff" points="82.41,-330.79 72.26,-327.75 78.3,-336.45 82.41,-330.79"/>
</a>
</g>
</g>
<!-- Node20&#45;&gt;Node18 -->
<g id="edge44_Node000020_Node000018" class="edge">
<title>Node20&#45;&gt;Node18</title>
<g id="a_edge44_Node000020_Node000018"><a xlink:title=" ">
<path fill="none" stroke="#63b8ff" d="M108.27,-325.45C127.09,-330 147.54,-334.94 164.9,-339.14"/>
<polygon fill="#63b8ff" stroke="#63b8ff" points="109.12,-322.06 98.58,-323.11 107.48,-328.86 109.12,-322.06"/>
</a>
</g>
</g>
<!-- Node20&#45;&gt;Node3 -->
<g id="edge45_Node000020_Node000003" class="edge">
<title>Node20&#45;&gt;Node3</title>
<g id="a_edge45_Node000020_Node000003"><a xlink:title=" ">
<path fill="none" stroke="#63b8ff" d="M81.15,-334C87.2,-339.67 92.91,-346.17 97,-353.25 137.15,-422.77 77.72,-472.04 133,-530.25 136.92,-534.37 141.6,-537.65 146.67,-540.24"/>
<polygon fill="#63b8ff" stroke="#63b8ff" points="83.82,-331.67 73.96,-327.8 79.25,-336.98 83.82,-331.67"/>
</a>
</g>
</g>
<!-- Node20&#45;&gt;Node21 -->
<g id="edge46_Node000020_Node000021" class="edge">
<title>Node20&#45;&gt;Node21</title>
<g id="a_edge46_Node000020_Node000021"><a xlink:title=" ">
<path fill="none" stroke="#63b8ff" d="M108.27,-297.05C127.09,-292.5 147.54,-287.56 164.9,-283.36"/>
<polygon fill="#63b8ff" stroke="#63b8ff" points="107.48,-293.64 98.58,-299.39 109.12,-300.44 107.48,-293.64"/>
</a>
</g>
</g>
<!-- Node20&#45;&gt;Node9 -->
<g id="edge49_Node000020_Node000009" class="edge">
<title>Node20&#45;&gt;Node9</title>
<g id="a_edge49_Node000020_Node000009"><a xlink:title=" ">
<path fill="none" stroke="#63b8ff" d="M108.18,-310.02C155.94,-310.45 224.66,-314.32 282.5,-330.25 320.82,-340.81 361.67,-364.01 383.22,-377.33"/>
<polygon fill="#63b8ff" stroke="#63b8ff" points="108.34,-306.53 98.32,-309.99 108.31,-313.53 108.34,-306.53"/>
</a>
</g>
</g>
<!-- Node22 -->
<g id="Node000022" class="node">
<title>Node22</title>
<g id="a_Node000022"><a xlink:href="dd/d52/classengine_1_1core_1_1_window.html" target="_top" xlink:title=" ">
<polygon fill="white" stroke="#666666" points="261.12,-24.88 154.38,-24.88 154.38,-5.62 261.12,-5.62 261.12,-24.88"/>
<text text-anchor="middle" x="207.75" y="-11.38" font-family="Helvetica,sans-Serif" font-size="10.00">engine::core::Window</text>
</a>
</g>
</g>
<!-- Node20&#45;&gt;Node22 -->
<g id="edge47_Node000020_Node000022" class="edge">
<title>Node20&#45;&gt;Node22</title>
<g id="a_edge47_Node000020_Node000022"><a xlink:title=" ">
<path fill="none" stroke="#63b8ff" d="M83.18,-288.32C88.54,-283.28 93.47,-277.55 97,-271.25 149.09,-178.31 61.58,-113.31 133,-34.25 138.67,-27.97 146.12,-23.64 154.1,-20.69"/>
<polygon fill="#63b8ff" stroke="#63b8ff" points="81.06,-285.53 75.7,-294.67 85.59,-290.87 81.06,-285.53"/>
</a>
</g>
</g>
<!-- Node24 -->
<g id="Node000024" class="node">
<title>Node24</title>
<g id="a_Node000024"><a xlink:href="d9/d64/classengine_1_1utils_1_1_file_watcher.html" target="_top" xlink:title=" ">
<polygon fill="white" stroke="#666666" points="269.38,-159.88 146.12,-159.88 146.12,-140.62 269.38,-140.62 269.38,-159.88"/>
<text text-anchor="middle" x="207.75" y="-146.38" font-family="Helvetica,sans-Serif" font-size="10.00">engine::utils::FileWatcher</text>
</a>
</g>
</g>
<!-- Node20&#45;&gt;Node24 -->
<g id="edge50_Node000020_Node000024" class="edge">
<title>Node20&#45;&gt;Node24</title>
<g id="a_edge50_Node000020_Node000024"><a xlink:title=" ">
<path fill="none" stroke="#63b8ff" d="M81.19,-288.68C87.02,-283.46 92.63,-277.56 97,-271.25 124.35,-231.71 97.56,-201.73 133,-169.25 136.9,-165.68 141.38,-162.76 146.17,-160.37"/>
<polygon fill="#63b8ff" stroke="#63b8ff" points="79.22,-285.77 73.78,-294.86 83.7,-291.15 79.22,-285.77"/>
</a>
</g>
</g>
<!-- Node23 -->
<g id="Node000023" class="node">
<title>Node23</title>
<g id="a_Node000023"><a xlink:href="d0/de6/classengine_1_1platform_1_1windows_1_1_window.html" target="_top" xlink:title=" ">
<polygon fill="white" stroke="#666666" points="463.12,-30.5 336.12,-30.5 336.12,0 463.12,0 463.12,-30.5"/>
<text text-anchor="start" x="344.12" y="-17" font-family="Helvetica,sans-Serif" font-size="10.00">engine::platform::windows</text>
<text text-anchor="middle" x="399.62" y="-5.75" font-family="Helvetica,sans-Serif" font-size="10.00">::Window</text>
</a>
</g>
</g>
<!-- Node22&#45;&gt;Node23 -->
<g id="edge48_Node000022_Node000023" class="edge">
<title>Node22&#45;&gt;Node23</title>
<g id="a_edge48_Node000022_Node000023"><a xlink:title=" ">
<path fill="none" stroke="#63b8ff" d="M272.75,-15.25C293.08,-15.25 315.52,-15.25 335.77,-15.25"/>
<polygon fill="#63b8ff" stroke="#63b8ff" points="272.9,-11.75 262.9,-15.25 272.9,-18.75 272.9,-11.75"/>
</a>
</g>
</g>
<!-- Node16 -->
<g id="Node000016" class="node">
<title>Node16</title>
<g id="a_Node000016"><a xlink:href="d0/d04/classengine_1_1core_1_1_layer.html" target="_top" xlink:title=" ">
<polygon fill="white" stroke="#666666" points="96.62,-261.88 0.38,-261.88 0.38,-242.62 96.62,-242.62 96.62,-261.88"/>
<text text-anchor="middle" x="48.5" y="-248.38" font-family="Helvetica,sans-Serif" font-size="10.00">engine::core::Layer</text>
</a>
</g>
</g>
<!-- Node16&#45;&gt;Node1 -->
<g id="edge51_Node000016_Node000001" class="edge">
<title>Node16&#45;&gt;Node1</title>
<g id="a_edge51_Node000016_Node000001"><a xlink:title=" ">
<path fill="none" stroke="#63b8ff" d="M76.23,-268.25C83.64,-273.6 91.22,-280.06 97,-287.25 121.68,-317.96 108.67,-337.26 133,-368.25 148.69,-388.23 172.87,-405.15 189.23,-415.24"/>
<polygon fill="#63b8ff" stroke="#63b8ff" points="78.59,-265.62 68.34,-262.93 74.68,-271.42 78.59,-265.62"/>
</a>
</g>
</g>
<!-- Node16&#45;&gt;Node17 -->
<g id="edge52_Node000016_Node000017" class="edge">
<title>Node16&#45;&gt;Node17</title>
<g id="a_edge52_Node000016_Node000017"><a xlink:title=" ">
<path fill="none" stroke="#63b8ff" d="M108.25,-246.27C120.64,-245.01 133.74,-243.68 146.2,-242.41"/>
<polygon fill="#63b8ff" stroke="#63b8ff" points="108.21,-242.76 98.61,-247.25 108.92,-249.72 108.21,-242.76"/>
</a>
</g>
</g>
<!-- Node16&#45;&gt;Node18 -->
<g id="edge53_Node000016_Node000018" class="edge">
<title>Node16&#45;&gt;Node18</title>
<g id="a_edge53_Node000016_Node000018"><a xlink:title=" ">
<path fill="none" stroke="#63b8ff" d="M75.48,-268.27C108.09,-288.39 163.08,-322.31 190.37,-339.14"/>
<polygon fill="#63b8ff" stroke="#63b8ff" points="77.37,-265.33 67.02,-263.06 73.7,-271.29 77.37,-265.33"/>
</a>
</g>
</g>
<!-- Node16&#45;&gt;Node3 -->
<g id="edge54_Node000016_Node000003" class="edge">
<title>Node16&#45;&gt;Node3</title>
<g id="a_edge54_Node000016_Node000003"><a xlink:title=" ">
<path fill="none" stroke="#63b8ff" d="M79.04,-268.45C85.95,-273.59 92.57,-279.89 97,-287.25 153.27,-380.81 59.96,-449.1 133,-530.25 136.8,-534.48 141.41,-537.82 146.44,-540.45"/>
<polygon fill="#63b8ff" stroke="#63b8ff" points="81.15,-265.65 70.88,-263.02 77.26,-271.48 81.15,-265.65"/>
</a>
</g>
</g>
<!-- Node16&#45;&gt;Node21 -->
<g id="edge55_Node000016_Node000021" class="edge">
<title>Node16&#45;&gt;Node21</title>
<g id="a_edge55_Node000016_Node000021"><a xlink:title=" ">
<path fill="none" stroke="#63b8ff" d="M108.36,-260.11C117.79,-261.37 127.62,-262.68 137.26,-263.97"/>
<polygon fill="#63b8ff" stroke="#63b8ff" points="108.98,-256.66 98.61,-258.81 108.06,-263.6 108.98,-256.66"/>
</a>
</g>
</g>
<!-- Node16&#45;&gt;Node22 -->
<g id="edge56_Node000016_Node000022" class="edge">
<title>Node16&#45;&gt;Node22</title>
<g id="a_edge56_Node000016_Node000022"><a xlink:title=" ">
<path fill="none" stroke="#63b8ff" d="M51.33,-230.77C56.24,-187 73.68,-87.19 133,-34.25 139.02,-28.88 146.36,-24.99 154.04,-22.18"/>
<polygon fill="#63b8ff" stroke="#63b8ff" points="47.85,-230.41 50.34,-240.71 54.81,-231.1 47.85,-230.41"/>
</a>
</g>
</g>
<!-- Node16&#45;&gt;Node24 -->
<g id="edge61_Node000016_Node000024" class="edge">
<title>Node16&#45;&gt;Node24</title>
<g id="a_edge61_Node000016_Node000024"><a xlink:title=" ">
<path fill="none" stroke="#63b8ff" d="M63.42,-233.45C78.49,-214.44 104.26,-185.6 133,-169.25 139.32,-165.65 146.33,-162.73 153.44,-160.35"/>
<polygon fill="#63b8ff" stroke="#63b8ff" points="60.8,-231.11 57.48,-241.17 66.35,-235.38 60.8,-231.11"/>
</a>
</g>
</g>
<!-- Node13 -->
<g id="Node000013" class="node">
<title>Node13</title>
<g id="a_Node000013"><a xlink:href="d9/d60/classengine_1_1render_1_1_post_processing_layer.html" target="_top" xlink:title=" ">
<polygon fill="white" stroke="#666666" points="282.5,-122.5 133,-122.5 133,-92 282.5,-92 282.5,-122.5"/>
<text text-anchor="start" x="141" y="-109" font-family="Helvetica,sans-Serif" font-size="10.00">engine::render::PostProcessing</text>
<text text-anchor="middle" x="207.75" y="-97.75" font-family="Helvetica,sans-Serif" font-size="10.00">Layer</text>
</a>
</g>
</g>
<!-- Node16&#45;&gt;Node13 -->
<g id="edge57_Node000016_Node000013" class="edge">
<title>Node16&#45;&gt;Node13</title>
<g id="a_edge57_Node000016_Node000013"><a xlink:title=" ">
<path fill="none" stroke="#63b8ff" d="M58.34,-232C71.06,-205.16 97.01,-158.08 133,-131.25 137.21,-128.11 141.85,-125.37 146.69,-122.98"/>
<polygon fill="#63b8ff" stroke="#63b8ff" points="55.31,-230.21 54.34,-240.76 61.68,-233.12 55.31,-230.21"/>
</a>
</g>
</g>
<!-- Node13&#45;&gt;Node9 -->
<g id="edge59_Node000013_Node000009" class="edge">
<title>Node13&#45;&gt;Node9</title>
<g id="a_edge59_Node000013_Node000009"><a xlink:title=" ">
<path fill="none" stroke="#63b8ff" d="M280.07,-129.19C280.9,-129.86 281.71,-130.54 282.5,-131.25 362.16,-202.51 390.51,-339.2 397.04,-377.22"/>
<polygon fill="#63b8ff" stroke="#63b8ff" points="282.04,-126.3 271.79,-123.64 278.15,-132.12 282.04,-126.3"/>
</a>
</g>
</g>
<!-- Node13&#45;&gt;Node12 -->
<g id="edge60_Node000013_Node000012" class="edge">
<title>Node13&#45;&gt;Node12</title>
<g id="a_edge60_Node000013_Node000012"><a xlink:title=" ">
<path fill="none" stroke="#63b8ff" d="M294.18,-116.7C302.16,-117.58 310.24,-118.47 318.17,-119.35"/>
<polygon fill="#63b8ff" stroke="#63b8ff" points="294.8,-113.25 284.48,-115.63 294.04,-120.2 294.8,-113.25"/>
</a>
</g>
</g>
<!-- Node13&#45;&gt;Node14 -->
<g id="edge58_Node000013_Node000014" class="edge">
<title>Node13&#45;&gt;Node14</title>
<g id="a_edge58_Node000013_Node000014"><a xlink:title=" ">
<path fill="none" stroke="#63b8ff" d="M294.36,-97.33C303.77,-96.24 313.3,-95.14 322.57,-94.06"/>
<polygon fill="#63b8ff" stroke="#63b8ff" points="294.01,-93.85 284.48,-98.48 294.82,-100.8 294.01,-93.85"/>
</a>
</g>
</g>
</g>
</svg>
