<?xml version="1.0" encoding="UTF-8" standalone="no"?>
<!DOCTYPE svg PUBLIC "-//W3C//DTD SVG 1.1//EN"
 "http://www.w3.org/Graphics/SVG/1.1/DTD/svg11.dtd">
<!-- Generated by graphviz version 9.0.0 (20230911.1827)
 -->
<!-- Title: Graphical Class Hierarchy Pages: 1 -->
<svg width="545pt" height="217pt"
 viewBox="0.00 0.00 545.25 216.50" xmlns="http://www.w3.org/2000/svg" xmlns:xlink="http://www.w3.org/1999/xlink">
<g id="graph0" class="graph" transform="scale(1 1) rotate(0) translate(4 212.5)">
<title>Graphical Class Hierarchy</title>
<!-- Node0 -->
<g id="Node000000" class="node">
<title>Node0</title>
<g id="a_Node000000"><a xlink:title=" ">
<polygon fill="#e0e0e0" stroke="#999999" points="75.25,-134.88 0,-134.88 0,-115.62 75.25,-115.62 75.25,-134.88"/>
<text text-anchor="middle" x="37.62" y="-121.38" font-family="Helvetica,sans-Serif" font-size="10.00">std::exception</text>
</a>
</g>
</g>
<!-- Node1 -->
<g id="Node000001" class="node">
<title>Node1</title>
<g id="a_Node000001"><a xlink:title=" ">
<polygon fill="#e0e0e0" stroke="#999999" points="196.25,-177.88 117.25,-177.88 117.25,-158.62 196.25,-158.62 196.25,-177.88"/>
<text text-anchor="middle" x="156.75" y="-164.38" font-family="Helvetica,sans-Serif" font-size="10.00">std::logic_error</text>
</a>
</g>
</g>
<!-- Node0&#45;&gt;Node1 -->
<g id="edge206_Node000000_Node000001" class="edge">
<title>Node0&#45;&gt;Node1</title>
<g id="a_edge206_Node000000_Node000001"><a xlink:title=" ">
<path fill="none" stroke="#63b8ff" d="M76.73,-139.24C93.61,-145.44 113.07,-152.58 128.46,-158.23"/>
<polygon fill="#63b8ff" stroke="#63b8ff" points="78.1,-136.01 67.51,-135.85 75.69,-142.59 78.1,-136.01"/>
</a>
</g>
</g>
<!-- Node4 -->
<g id="Node000004" class="node">
<title>Node4</title>
<g id="a_Node000004"><a xlink:title=" ">
<polygon fill="#e0e0e0" stroke="#999999" points="202.25,-116.88 111.25,-116.88 111.25,-97.62 202.25,-97.62 202.25,-116.88"/>
<text text-anchor="middle" x="156.75" y="-103.38" font-family="Helvetica,sans-Serif" font-size="10.00">std::runtime_error</text>
</a>
</g>
</g>
<!-- Node0&#45;&gt;Node4 -->
<g id="edge209_Node000000_Node000004" class="edge">
<title>Node0&#45;&gt;Node4</title>
<g id="a_edge209_Node000000_Node000004"><a xlink:title=" ">
<path fill="none" stroke="#63b8ff" d="M86.82,-117.84C94.86,-116.61 103.18,-115.33 111.14,-114.11"/>
<polygon fill="#63b8ff" stroke="#63b8ff" points="86.53,-114.35 77.18,-119.32 87.6,-121.27 86.53,-114.35"/>
</a>
</g>
</g>
<!-- Node2 -->
<g id="Node000002" class="node">
<title>Node2</title>
<g id="a_Node000002"><a xlink:title=" ">
<polygon fill="#e0e0e0" stroke="#999999" points="363,-202.88 255.5,-202.88 255.5,-183.62 363,-183.62 363,-202.88"/>
<text text-anchor="middle" x="309.25" y="-189.38" font-family="Helvetica,sans-Serif" font-size="10.00">std::invalid_argument</text>
</a>
</g>
</g>
<!-- Node1&#45;&gt;Node2 -->
<g id="edge207_Node000001_Node000002" class="edge">
<title>Node1&#45;&gt;Node2</title>
<g id="a_edge207_Node000001_Node000002"><a xlink:title=" ">
<path fill="none" stroke="#63b8ff" d="M207.79,-176.56C223,-179.09 239.76,-181.87 255.16,-184.43"/>
<polygon fill="#63b8ff" stroke="#63b8ff" points="208.44,-173.12 198,-174.94 207.29,-180.03 208.44,-173.12"/>
</a>
</g>
</g>
<!-- Node3 -->
<g id="Node000003" class="node">
<title>Node3</title>
<g id="a_Node000003"><a xlink:href="de/db9/classengine_1_1ini_1_1_invalid_syntax_exception.html" target="_top" xlink:title="Exception thrown when the syntax of the ini file is invalid.">
<polygon fill="white" stroke="#666666" points="537.25,-208.5 416.25,-208.5 416.25,-178 537.25,-178 537.25,-208.5"/>
<text text-anchor="start" x="424.25" y="-195" font-family="Helvetica,sans-Serif" font-size="10.00">engine::ini::InvalidSyntax</text>
<text text-anchor="middle" x="476.75" y="-183.75" font-family="Helvetica,sans-Serif" font-size="10.00">Exception</text>
</a>
</g>
</g>
<!-- Node2&#45;&gt;Node3 -->
<g id="edge208_Node000002_Node000003" class="edge">
<title>Node2&#45;&gt;Node3</title>
<g id="a_edge208_Node000002_Node000003"><a xlink:title=" ">
<path fill="none" stroke="#63b8ff" d="M374.36,-193.25C388.04,-193.25 402.44,-193.25 415.96,-193.25"/>
<polygon fill="#63b8ff" stroke="#63b8ff" points="374.58,-189.75 364.58,-193.25 374.58,-196.75 374.58,-189.75"/>
</a>
</g>
</g>
<!-- Node5 -->
<g id="Node000005" class="node">
<title>Node5</title>
<g id="a_Node000005"><a xlink:href="d1/dea/structengine_1_1core_1_1_shader_compiler_1_1_compiler_exception.html" target="_top" xlink:title=" ">
<polygon fill="white" stroke="#666666" points="379.88,-165.5 238.62,-165.5 238.62,-135 379.88,-135 379.88,-165.5"/>
<text text-anchor="start" x="246.62" y="-152" font-family="Helvetica,sans-Serif" font-size="10.00">engine::core::ShaderCompiler</text>
<text text-anchor="middle" x="309.25" y="-140.75" font-family="Helvetica,sans-Serif" font-size="10.00">::CompilerException</text>
</a>
</g>
</g>
<!-- Node4&#45;&gt;Node5 -->
<g id="edge210_Node000004_Node000005" class="edge">
<title>Node4&#45;&gt;Node5</title>
<g id="a_edge210_Node000004_Node000005"><a xlink:title=" ">
<path fill="none" stroke="#63b8ff" d="M203.96,-120.45C219.51,-124.89 237,-129.89 253.16,-134.51"/>
<polygon fill="#63b8ff" stroke="#63b8ff" points="205.07,-117.13 194.49,-117.75 203.14,-123.86 205.07,-117.13"/>
</a>
</g>
</g>
<!-- Node6 -->
<g id="Node000006" class="node">
<title>Node6</title>
<g id="a_Node000006"><a xlink:href="d1/dbf/classengine_1_1ini_1_1_key_error_exception.html" target="_top" xlink:title="Exception thrown when the key is not found in the ini file.">
<polygon fill="white" stroke="#666666" points="380.25,-116.88 238.25,-116.88 238.25,-97.62 380.25,-97.62 380.25,-116.88"/>
<text text-anchor="middle" x="309.25" y="-103.38" font-family="Helvetica,sans-Serif" font-size="10.00">engine::ini::KeyErrorException</text>
</a>
</g>
</g>
<!-- Node4&#45;&gt;Node6 -->
<g id="edge211_Node000004_Node000006" class="edge">
<title>Node4&#45;&gt;Node6</title>
<g id="a_edge211_Node000004_Node000006"><a xlink:title=" ">
<path fill="none" stroke="#63b8ff" d="M213.81,-107.25C221.7,-107.25 229.9,-107.25 238.02,-107.25"/>
<polygon fill="#63b8ff" stroke="#63b8ff" points="214.01,-103.75 204.01,-107.25 214.01,-110.75 214.01,-103.75"/>
</a>
</g>
</g>
<!-- Node7 -->
<g id="Node000007" class="node">
<title>Node7</title>
<g id="a_Node000007"><a xlink:href="d2/d1e/classengine_1_1ini_1_1_type_conversion_exception.html" target="_top" xlink:title="Exception thrown when the type of the entry is not convertible to the requested type.">
<polygon fill="white" stroke="#666666" points="375.75,-79.5 242.75,-79.5 242.75,-49 375.75,-49 375.75,-79.5"/>
<text text-anchor="start" x="250.75" y="-66" font-family="Helvetica,sans-Serif" font-size="10.00">engine::ini::TypeConversion</text>
<text text-anchor="middle" x="309.25" y="-54.75" font-family="Helvetica,sans-Serif" font-size="10.00">Exception</text>
</a>
</g>
</g>
<!-- Node4&#45;&gt;Node7 -->
<g id="edge212_Node000004_Node000007" class="edge">
<title>Node4&#45;&gt;Node7</title>
<g id="a_edge212_Node000004_Node000007"><a xlink:title=" ">
<path fill="none" stroke="#63b8ff" d="M203.96,-94.05C219.51,-89.61 237,-84.61 253.16,-79.99"/>
<polygon fill="#63b8ff" stroke="#63b8ff" points="203.14,-90.64 194.49,-96.75 205.07,-97.37 203.14,-90.64"/>
</a>
</g>
</g>
<!-- Node8 -->
<g id="Node000008" class="node">
<title>Node8</title>
<g id="a_Node000008"><a xlink:href="d3/d47/structengine_1_1platform_1_1windows_1_1_window_1_1_window_error.html" target="_top" xlink:title=" ">
<polygon fill="white" stroke="#666666" points="372.75,-30.5 245.75,-30.5 245.75,0 372.75,0 372.75,-30.5"/>
<text text-anchor="start" x="253.75" y="-17" font-family="Helvetica,sans-Serif" font-size="10.00">engine::platform::windows</text>
<text text-anchor="middle" x="309.25" y="-5.75" font-family="Helvetica,sans-Serif" font-size="10.00">::Window::WindowError</text>
</a>
</g>
</g>
<!-- Node4&#45;&gt;Node8 -->
<g id="edge213_Node000004_Node000008" class="edge">
<title>Node4&#45;&gt;Node8</title>
<g id="a_edge213_Node000004_Node000008"><a xlink:title=" ">
<path fill="none" stroke="#63b8ff" d="M175.4,-89.39C190.85,-74.58 214.49,-53.81 238.25,-40.25 244.3,-36.8 250.92,-33.69 257.58,-30.93"/>
<polygon fill="#63b8ff" stroke="#63b8ff" points="173.07,-86.77 168.39,-96.27 177.98,-91.77 173.07,-86.77"/>
</a>
</g>
</g>
</g>
</svg>
