<?xml version="1.0" encoding="UTF-8" standalone="no"?>
<!DOCTYPE svg PUBLIC "-//W3C//DTD SVG 1.1//EN"
 "http://www.w3.org/Graphics/SVG/1.1/DTD/svg11.dtd">
<!-- Generated by graphviz version 9.0.0 (20230911.1827)
 -->
<!-- Title: Graphical Class Hierarchy Pages: 1 -->
<svg width="339pt" height="441pt"
 viewBox="0.00 0.00 338.50 440.50" xmlns="http://www.w3.org/2000/svg" xmlns:xlink="http://www.w3.org/1999/xlink">
<g id="graph0" class="graph" transform="scale(1 1) rotate(0) translate(4 436.5)">
<title>Graphical Class Hierarchy</title>
<!-- Node0 -->
<g id="Node000000" class="node">
<title>Node0</title>
<g id="a_Node000000"><a xlink:href="da/df3/structengine_1_1render_1_1_render_pass.html" target="_top" xlink:title=" ">
<polygon fill="white" stroke="#666666" points="133.75,-225.88 0,-225.88 0,-206.62 133.75,-206.62 133.75,-225.88"/>
<text text-anchor="middle" x="66.88" y="-212.38" font-family="Helvetica,sans-Serif" font-size="10.00">engine::render::RenderPass</text>
</a>
</g>
</g>
<!-- Node1 -->
<g id="Node000001" class="node">
<title>Node1</title>
<g id="a_Node000001"><a xlink:href="dd/df4/structengine_1_1render_1_1_renderer_1_1_skybox_render_wrapper.html" target="_top" xlink:title=" ">
<polygon fill="white" stroke="#666666" points="309.88,-432.5 190.38,-432.5 190.38,-402 309.88,-402 309.88,-432.5"/>
<text text-anchor="start" x="198.38" y="-419" font-family="Helvetica,sans-Serif" font-size="10.00">engine::render::Renderer</text>
<text text-anchor="middle" x="250.12" y="-407.75" font-family="Helvetica,sans-Serif" font-size="10.00">::SkyboxRenderWrapper</text>
</a>
</g>
</g>
<!-- Node0&#45;&gt;Node1 -->
<g id="edge188_Node000000_Node000001" class="edge">
<title>Node0&#45;&gt;Node1</title>
<g id="a_edge188_Node000000_Node000001"><a xlink:title=" ">
<path fill="none" stroke="#63b8ff" d="M74.34,-237.2C86.78,-274.02 117.52,-350.4 169.75,-392.25 175.84,-397.13 182.89,-401.06 190.23,-404.23"/>
<polygon fill="#63b8ff" stroke="#63b8ff" points="77.7,-236.21 71.29,-227.77 71.04,-238.37 77.7,-236.21"/>
</a>
</g>
</g>
<!-- Node2 -->
<g id="Node000002" class="node">
<title>Node2</title>
<g id="a_Node000002"><a xlink:href="d1/d80/classengine_1_1render_1_1__decal__detail_1_1_decal_render_system.html" target="_top" xlink:title=" ">
<polygon fill="white" stroke="#666666" points="318.88,-383.5 181.38,-383.5 181.38,-353 318.88,-353 318.88,-383.5"/>
<text text-anchor="start" x="189.38" y="-370" font-family="Helvetica,sans-Serif" font-size="10.00">engine::render::_decal</text>
<text text-anchor="middle" x="250.12" y="-358.75" font-family="Helvetica,sans-Serif" font-size="10.00">_detail::DecalRenderSystem</text>
</a>
</g>
</g>
<!-- Node0&#45;&gt;Node2 -->
<g id="edge189_Node000000_Node000002" class="edge">
<title>Node0&#45;&gt;Node2</title>
<g id="a_edge189_Node000000_Node000002"><a xlink:title=" ">
<path fill="none" stroke="#63b8ff" d="M78.59,-235.96C94.74,-263.86 127.94,-314.65 169.75,-343.25 175,-346.84 180.79,-349.93 186.77,-352.6"/>
<polygon fill="#63b8ff" stroke="#63b8ff" points="81.77,-234.48 73.82,-227.48 75.67,-237.91 81.77,-234.48"/>
</a>
</g>
</g>
<!-- Node3 -->
<g id="Node000003" class="node">
<title>Node3</title>
<g id="a_Node000003"><a xlink:href="d2/de8/classengine_1_1render_1_1__dissolution__detail_1_1_dissolution_render_system.html" target="_top" xlink:title=" ">
<polygon fill="white" stroke="#666666" points="330.5,-334.5 169.75,-334.5 169.75,-304 330.5,-304 330.5,-334.5"/>
<text text-anchor="start" x="177.75" y="-321" font-family="Helvetica,sans-Serif" font-size="10.00">engine::render::_dissolution</text>
<text text-anchor="middle" x="250.12" y="-309.75" font-family="Helvetica,sans-Serif" font-size="10.00">_detail::DissolutionRenderSystem</text>
</a>
</g>
</g>
<!-- Node0&#45;&gt;Node3 -->
<g id="edge190_Node000000_Node000003" class="edge">
<title>Node0&#45;&gt;Node3</title>
<g id="a_edge190_Node000000_Node000003"><a xlink:title=" ">
<path fill="none" stroke="#63b8ff" d="M86.56,-233.81C106.01,-251.27 138.01,-277.76 169.75,-294.25 176.42,-297.71 183.65,-300.8 190.94,-303.53"/>
<polygon fill="#63b8ff" stroke="#63b8ff" points="89.17,-231.46 79.43,-227.29 84.45,-236.62 89.17,-231.46"/>
</a>
</g>
</g>
<!-- Node4 -->
<g id="Node000004" class="node">
<title>Node4</title>
<g id="a_Node000004"><a xlink:href="da/d4d/classengine_1_1render_1_1__emissive__detail_1_1_emissive_render_system.html" target="_top" xlink:title=" ">
<polygon fill="white" stroke="#666666" points="326.38,-285.5 173.88,-285.5 173.88,-255 326.38,-255 326.38,-285.5"/>
<text text-anchor="start" x="181.88" y="-272" font-family="Helvetica,sans-Serif" font-size="10.00">engine::render::_emissive</text>
<text text-anchor="middle" x="250.12" y="-260.75" font-family="Helvetica,sans-Serif" font-size="10.00">_detail::EmissiveRenderSystem</text>
</a>
</g>
</g>
<!-- Node0&#45;&gt;Node4 -->
<g id="edge191_Node000000_Node000004" class="edge">
<title>Node0&#45;&gt;Node4</title>
<g id="a_edge191_Node000000_Node000004"><a xlink:title=" ">
<path fill="none" stroke="#63b8ff" d="M112.35,-229.5C137.75,-237.07 169.75,-246.6 196.41,-254.54"/>
<polygon fill="#63b8ff" stroke="#63b8ff" points="113.58,-226.21 102.99,-226.71 111.58,-232.92 113.58,-226.21"/>
</a>
</g>
</g>
<!-- Node5 -->
<g id="Node000005" class="node">
<title>Node5</title>
<g id="a_Node000005"><a xlink:href="d2/da7/classengine_1_1render_1_1__emissive__particle__detail_1_1_emissive_particle_render_system.html" target="_top" xlink:title=" ">
<polygon fill="white" stroke="#666666" points="329.38,-237.12 170.88,-237.12 170.88,-195.38 329.38,-195.38 329.38,-237.12"/>
<text text-anchor="start" x="178.88" y="-223.62" font-family="Helvetica,sans-Serif" font-size="10.00">engine::render::_emissive</text>
<text text-anchor="start" x="178.88" y="-212.38" font-family="Helvetica,sans-Serif" font-size="10.00">_particle_detail::EmissiveParticle</text>
<text text-anchor="middle" x="250.12" y="-201.12" font-family="Helvetica,sans-Serif" font-size="10.00">RenderSystem</text>
</a>
</g>
</g>
<!-- Node0&#45;&gt;Node5 -->
<g id="edge192_Node000000_Node000005" class="edge">
<title>Node0&#45;&gt;Node5</title>
<g id="a_edge192_Node000000_Node000005"><a xlink:title=" ">
<path fill="none" stroke="#63b8ff" d="M145.32,-216.25C153.65,-216.25 162.14,-216.25 170.48,-216.25"/>
<polygon fill="#63b8ff" stroke="#63b8ff" points="145.59,-212.75 135.59,-216.25 145.59,-219.75 145.59,-212.75"/>
</a>
</g>
</g>
<!-- Node6 -->
<g id="Node000006" class="node">
<title>Node6</title>
<g id="a_Node000006"><a xlink:href="d4/db9/classengine_1_1render_1_1__grass__detail_1_1_grass_render_system.html" target="_top" xlink:title=" ">
<polygon fill="white" stroke="#666666" points="319.62,-177.5 180.62,-177.5 180.62,-147 319.62,-147 319.62,-177.5"/>
<text text-anchor="start" x="188.62" y="-164" font-family="Helvetica,sans-Serif" font-size="10.00">engine::render::_grass</text>
<text text-anchor="middle" x="250.12" y="-152.75" font-family="Helvetica,sans-Serif" font-size="10.00">_detail::GrassRenderSystem</text>
</a>
</g>
</g>
<!-- Node0&#45;&gt;Node6 -->
<g id="edge193_Node000000_Node000006" class="edge">
<title>Node0&#45;&gt;Node6</title>
<g id="a_edge193_Node000000_Node000006"><a xlink:title=" ">
<path fill="none" stroke="#63b8ff" d="M112.35,-203C137.75,-195.43 169.75,-185.9 196.41,-177.96"/>
<polygon fill="#63b8ff" stroke="#63b8ff" points="111.58,-199.58 102.99,-205.79 113.58,-206.29 111.58,-199.58"/>
</a>
</g>
</g>
<!-- Node7 -->
<g id="Node000007" class="node">
<title>Node7</title>
<g id="a_Node000007"><a xlink:href="d4/d54/classengine_1_1render_1_1__light__detail_1_1_light_render_system.html" target="_top" xlink:title=" ">
<polygon fill="white" stroke="#666666" points="317.38,-128.5 182.88,-128.5 182.88,-98 317.38,-98 317.38,-128.5"/>
<text text-anchor="start" x="190.88" y="-115" font-family="Helvetica,sans-Serif" font-size="10.00">engine::render::_light</text>
<text text-anchor="middle" x="250.12" y="-103.75" font-family="Helvetica,sans-Serif" font-size="10.00">_detail::LightRenderSystem</text>
</a>
</g>
</g>
<!-- Node0&#45;&gt;Node7 -->
<g id="edge194_Node000000_Node000007" class="edge">
<title>Node0&#45;&gt;Node7</title>
<g id="a_edge194_Node000000_Node000007"><a xlink:title=" ">
<path fill="none" stroke="#63b8ff" d="M86.56,-198.69C106.01,-181.23 138.01,-154.74 169.75,-138.25 176.42,-134.79 183.65,-131.7 190.94,-128.97"/>
<polygon fill="#63b8ff" stroke="#63b8ff" points="84.45,-195.88 79.43,-205.21 89.17,-201.04 84.45,-195.88"/>
</a>
</g>
</g>
<!-- Node8 -->
<g id="Node000008" class="node">
<title>Node8</title>
<g id="a_Node000008"><a xlink:href="dc/d99/classengine_1_1render_1_1__opaque__detail_1_1_opaque_render_system.html" target="_top" xlink:title=" ">
<polygon fill="white" stroke="#666666" points="323.38,-79.5 176.88,-79.5 176.88,-49 323.38,-49 323.38,-79.5"/>
<text text-anchor="start" x="184.88" y="-66" font-family="Helvetica,sans-Serif" font-size="10.00">engine::render::_opaque</text>
<text text-anchor="middle" x="250.12" y="-54.75" font-family="Helvetica,sans-Serif" font-size="10.00">_detail::OpaqueRenderSystem</text>
</a>
</g>
</g>
<!-- Node0&#45;&gt;Node8 -->
<g id="edge195_Node000000_Node000008" class="edge">
<title>Node0&#45;&gt;Node8</title>
<g id="a_edge195_Node000000_Node000008"><a xlink:title=" ">
<path fill="none" stroke="#63b8ff" d="M78.59,-196.54C94.74,-168.64 127.94,-117.85 169.75,-89.25 175,-85.66 180.79,-82.57 186.77,-79.9"/>
<polygon fill="#63b8ff" stroke="#63b8ff" points="75.67,-194.59 73.82,-205.02 81.77,-198.02 75.67,-194.59"/>
</a>
</g>
</g>
<!-- Node9 -->
<g id="Node000009" class="node">
<title>Node9</title>
<g id="a_Node000009"><a xlink:href="d6/dd8/classengine_1_1render_1_1__particle__detail_1_1_particle_render_system.html" target="_top" xlink:title=" ">
<polygon fill="white" stroke="#666666" points="323,-30.5 177.25,-30.5 177.25,0 323,0 323,-30.5"/>
<text text-anchor="start" x="185.25" y="-17" font-family="Helvetica,sans-Serif" font-size="10.00">engine::render::_particle</text>
<text text-anchor="middle" x="250.12" y="-5.75" font-family="Helvetica,sans-Serif" font-size="10.00">_detail::ParticleRenderSystem</text>
</a>
</g>
</g>
<!-- Node0&#45;&gt;Node9 -->
<g id="edge196_Node000000_Node000009" class="edge">
<title>Node0&#45;&gt;Node9</title>
<g id="a_edge196_Node000000_Node000009"><a xlink:title=" ">
<path fill="none" stroke="#63b8ff" d="M74.34,-195.3C86.78,-158.48 117.52,-82.1 169.75,-40.25 174.26,-36.64 179.3,-33.54 184.59,-30.89"/>
<polygon fill="#63b8ff" stroke="#63b8ff" points="71.04,-194.13 71.29,-204.73 77.7,-196.29 71.04,-194.13"/>
</a>
</g>
</g>
</g>
</svg>
