<?xml version="1.0" encoding="UTF-8" standalone="no"?>
<!DOCTYPE svg PUBLIC "-//W3C//DTD SVG 1.1//EN"
 "http://www.w3.org/Graphics/SVG/1.1/DTD/svg11.dtd">
<!-- Generated by graphviz version 9.0.0 (20230911.1827)
 -->
<!-- Title: Graphical Class Hierarchy Pages: 1 -->
<svg width="342pt" height="88pt"
 viewBox="0.00 0.00 342.25 87.50" xmlns="http://www.w3.org/2000/svg" xmlns:xlink="http://www.w3.org/1999/xlink">
<g id="graph0" class="graph" transform="scale(1 1) rotate(0) translate(4 83.5)">
<title>Graphical Class Hierarchy</title>
<!-- Node0 -->
<g id="Node000000" class="node">
<title>Node0</title>
<g id="a_Node000000"><a xlink:href="db/db6/structengine_1_1render_1_1_shader_program.html" target="_top" xlink:title=" ">
<polygon fill="white" stroke="#666666" points="148,-48.88 0,-48.88 0,-29.62 148,-29.62 148,-48.88"/>
<text text-anchor="middle" x="74" y="-35.38" font-family="Helvetica,sans-Serif" font-size="10.00">engine::render::ShaderProgram</text>
</a>
</g>
</g>
<!-- Node1 -->
<g id="Node000001" class="node">
<title>Node1</title>
<g id="a_Node000001"><a xlink:href="d4/d40/classengine_1_1render_1_1_compute_shader_program.html" target="_top" xlink:title=" ">
<polygon fill="white" stroke="#666666" points="334.25,-79.5 184,-79.5 184,-49 334.25,-49 334.25,-79.5"/>
<text text-anchor="start" x="192" y="-66" font-family="Helvetica,sans-Serif" font-size="10.00">engine::render::ComputeShader</text>
<text text-anchor="middle" x="259.12" y="-54.75" font-family="Helvetica,sans-Serif" font-size="10.00">Program</text>
</a>
</g>
</g>
<!-- Node0&#45;&gt;Node1 -->
<g id="edge203_Node000000_Node000001" class="edge">
<title>Node0&#45;&gt;Node1</title>
<g id="a_edge203_Node000000_Node000001"><a xlink:title=" ">
<path fill="none" stroke="#63b8ff" d="M159.72,-50.82C167.75,-51.91 175.86,-53.02 183.78,-54.1"/>
<polygon fill="#63b8ff" stroke="#63b8ff" points="160.31,-47.36 149.93,-49.48 159.36,-54.3 160.31,-47.36"/>
</a>
</g>
</g>
<!-- Node2 -->
<g id="Node000002" class="node">
<title>Node2</title>
<g id="a_Node000002"><a xlink:href="dd/d36/classengine_1_1render_1_1_graphics_shader_program.html" target="_top" xlink:title=" ">
<polygon fill="white" stroke="#666666" points="318.88,-30.5 199.38,-30.5 199.38,0 318.88,0 318.88,-30.5"/>
<text text-anchor="start" x="207.38" y="-17" font-family="Helvetica,sans-Serif" font-size="10.00">engine::render::Graphics</text>
<text text-anchor="middle" x="259.12" y="-5.75" font-family="Helvetica,sans-Serif" font-size="10.00">ShaderProgram</text>
</a>
</g>
</g>
<!-- Node0&#45;&gt;Node2 -->
<g id="edge204_Node000000_Node000002" class="edge">
<title>Node0&#45;&gt;Node2</title>
<g id="a_edge204_Node000000_Node000002"><a xlink:title=" ">
<path fill="none" stroke="#63b8ff" d="M159.56,-28.17C172.9,-26.42 186.44,-24.65 199.03,-22.99"/>
<polygon fill="#63b8ff" stroke="#63b8ff" points="159.39,-24.66 149.93,-29.43 160.3,-31.6 159.39,-24.66"/>
</a>
</g>
</g>
</g>
</svg>
