<?xml version="1.0" encoding="UTF-8" standalone="no"?>
<!DOCTYPE svg PUBLIC "-//W3C//DTD SVG 1.1//EN"
 "http://www.w3.org/Graphics/SVG/1.1/DTD/svg11.dtd">
<!-- Generated by graphviz version 9.0.0 (20230911.1827)
 -->
<!-- Title: Graphical Class Hierarchy Pages: 1 -->
<svg width="306pt" height="224pt"
 viewBox="0.00 0.00 305.50 224.25" xmlns="http://www.w3.org/2000/svg" xmlns:xlink="http://www.w3.org/1999/xlink">
<g id="graph0" class="graph" transform="scale(1 1) rotate(0) translate(4 220.25)">
<title>Graphical Class Hierarchy</title>
<!-- Node0 -->
<g id="Node000000" class="node">
<title>Node0</title>
<g id="a_Node000000"><a xlink:href="d0/dc5/classengine_1_1render_1_1_shader.html" target="_top" xlink:title=" ">
<polygon fill="white" stroke="#666666" points="111.25,-114.25 0,-114.25 0,-95 111.25,-95 111.25,-114.25"/>
<text text-anchor="middle" x="55.62" y="-100.75" font-family="Helvetica,sans-Serif" font-size="10.00">engine::render::Shader</text>
</a>
</g>
</g>
<!-- Node1 -->
<g id="Node000001" class="node">
<title>Node1</title>
<g id="a_Node000001"><a xlink:href="d3/d0b/classengine_1_1render_1_1_compute_shader.html" target="_top" xlink:title=" ">
<polygon fill="white" stroke="#666666" points="297.5,-216.25 147.25,-216.25 147.25,-197 297.5,-197 297.5,-216.25"/>
<text text-anchor="middle" x="222.38" y="-202.75" font-family="Helvetica,sans-Serif" font-size="10.00">engine::render::ComputeShader</text>
</a>
</g>
</g>
<!-- Node0&#45;&gt;Node1 -->
<g id="edge197_Node000000_Node000001" class="edge">
<title>Node0&#45;&gt;Node1</title>
<g id="a_edge197_Node000000_Node000001"><a xlink:title=" ">
<path fill="none" stroke="#63b8ff" d="M71.76,-123.44C88.29,-142.72 116.53,-172.13 147.25,-188.62 153.08,-191.76 159.47,-194.35 165.96,-196.5"/>
<polygon fill="#63b8ff" stroke="#63b8ff" points="74.49,-121.25 65.4,-115.81 69.11,-125.73 74.49,-121.25"/>
</a>
</g>
</g>
<!-- Node2 -->
<g id="Node000002" class="node">
<title>Node2</title>
<g id="a_Node000002"><a xlink:href="d9/d36/classengine_1_1render_1_1_domain_shader.html" target="_top" xlink:title=" ">
<polygon fill="white" stroke="#666666" points="294.5,-179.25 150.25,-179.25 150.25,-160 294.5,-160 294.5,-179.25"/>
<text text-anchor="middle" x="222.38" y="-165.75" font-family="Helvetica,sans-Serif" font-size="10.00">engine::render::DomainShader</text>
</a>
</g>
</g>
<!-- Node0&#45;&gt;Node2 -->
<g id="edge198_Node000000_Node000002" class="edge">
<title>Node0&#45;&gt;Node2</title>
<g id="a_edge198_Node000000_Node000002"><a xlink:title=" ">
<path fill="none" stroke="#63b8ff" d="M83.12,-120.02C100.83,-129.82 124.89,-142.2 147.25,-150.62 156.2,-154 165.98,-156.98 175.41,-159.51"/>
<polygon fill="#63b8ff" stroke="#63b8ff" points="85.24,-117.2 74.81,-115.34 81.81,-123.3 85.24,-117.2"/>
</a>
</g>
</g>
<!-- Node3 -->
<g id="Node000003" class="node">
<title>Node3</title>
<g id="a_Node000003"><a xlink:href="dc/d0e/classengine_1_1render_1_1_geometry_shader.html" target="_top" xlink:title=" ">
<polygon fill="white" stroke="#666666" points="283.62,-141.88 161.12,-141.88 161.12,-111.38 283.62,-111.38 283.62,-141.88"/>
<text text-anchor="start" x="169.12" y="-128.38" font-family="Helvetica,sans-Serif" font-size="10.00">engine::render::Geometry</text>
<text text-anchor="middle" x="222.38" y="-117.12" font-family="Helvetica,sans-Serif" font-size="10.00">Shader</text>
</a>
</g>
</g>
<!-- Node0&#45;&gt;Node3 -->
<g id="edge199_Node000000_Node000003" class="edge">
<title>Node0&#45;&gt;Node3</title>
<g id="a_edge199_Node000000_Node000003"><a xlink:title=" ">
<path fill="none" stroke="#63b8ff" d="M122.82,-113.46C135.37,-115.14 148.44,-116.89 160.8,-118.54"/>
<polygon fill="#63b8ff" stroke="#63b8ff" points="123.36,-110.01 112.98,-112.15 122.43,-116.94 123.36,-110.01"/>
</a>
</g>
</g>
<!-- Node4 -->
<g id="Node000004" class="node">
<title>Node4</title>
<g id="a_Node000004"><a xlink:href="d6/d3c/classengine_1_1render_1_1_hull_shader.html" target="_top" xlink:title=" ">
<polygon fill="white" stroke="#666666" points="286.62,-93.25 158.12,-93.25 158.12,-74 286.62,-74 286.62,-93.25"/>
<text text-anchor="middle" x="222.38" y="-79.75" font-family="Helvetica,sans-Serif" font-size="10.00">engine::render::HullShader</text>
</a>
</g>
</g>
<!-- Node0&#45;&gt;Node4 -->
<g id="edge200_Node000000_Node000004" class="edge">
<title>Node0&#45;&gt;Node4</title>
<g id="a_edge200_Node000000_Node000004"><a xlink:title=" ">
<path fill="none" stroke="#63b8ff" d="M122.79,-96.19C134.28,-94.73 146.21,-93.21 157.63,-91.75"/>
<polygon fill="#63b8ff" stroke="#63b8ff" points="122.46,-92.7 112.99,-97.44 123.35,-99.65 122.46,-92.7"/>
</a>
</g>
</g>
<!-- Node5 -->
<g id="Node000005" class="node">
<title>Node5</title>
<g id="a_Node000005"><a xlink:href="d9/d25/classengine_1_1render_1_1_pixel_shader.html" target="_top" xlink:title=" ">
<polygon fill="white" stroke="#666666" points="288.5,-56.25 156.25,-56.25 156.25,-37 288.5,-37 288.5,-56.25"/>
<text text-anchor="middle" x="222.38" y="-42.75" font-family="Helvetica,sans-Serif" font-size="10.00">engine::render::PixelShader</text>
</a>
</g>
</g>
<!-- Node0&#45;&gt;Node5 -->
<g id="edge201_Node000000_Node000005" class="edge">
<title>Node0&#45;&gt;Node5</title>
<g id="a_edge201_Node000000_Node000005"><a xlink:title=" ">
<path fill="none" stroke="#63b8ff" d="M86.83,-89.68C104.21,-81.49 126.61,-71.62 147.25,-64.62 155.9,-61.69 165.28,-59.03 174.35,-56.71"/>
<polygon fill="#63b8ff" stroke="#63b8ff" points="85.6,-86.39 78.09,-93.86 88.63,-92.7 85.6,-86.39"/>
</a>
</g>
</g>
<!-- Node6 -->
<g id="Node000006" class="node">
<title>Node6</title>
<g id="a_Node000006"><a xlink:href="d1/d51/classengine_1_1render_1_1_vertex_shader.html" target="_top" xlink:title=" ">
<polygon fill="white" stroke="#666666" points="291.88,-19.25 152.88,-19.25 152.88,0 291.88,0 291.88,-19.25"/>
<text text-anchor="middle" x="222.38" y="-5.75" font-family="Helvetica,sans-Serif" font-size="10.00">engine::render::VertexShader</text>
</a>
</g>
</g>
<!-- Node0&#45;&gt;Node6 -->
<g id="edge202_Node000000_Node000006" class="edge">
<title>Node0&#45;&gt;Node6</title>
<g id="a_edge202_Node000000_Node000006"><a xlink:title=" ">
<path fill="none" stroke="#63b8ff" d="M73.12,-86.34C90.04,-68.7 117.96,-42.55 147.25,-27.62 153.39,-24.5 160.09,-21.9 166.87,-19.74"/>
<polygon fill="#63b8ff" stroke="#63b8ff" points="70.63,-83.88 66.36,-93.57 75.75,-88.66 70.63,-83.88"/>
</a>
</g>
</g>
</g>
</svg>
