<?xml version="1.0" encoding="UTF-8" standalone="no"?>
<!DOCTYPE svg PUBLIC "-//W3C//DTD SVG 1.1//EN"
 "http://www.w3.org/Graphics/SVG/1.1/DTD/svg11.dtd">
<!-- Generated by graphviz version 8.1.0 (20230707.0739)
 -->
<!-- Title: Controller Pages: 1 -->
<svg width="198pt" height="223pt"
 viewBox="0.00 0.00 198.25 222.88" xmlns="http://www.w3.org/2000/svg" xmlns:xlink="http://www.w3.org/1999/xlink">

<svg id="main" version="1.1" xmlns="http://www.w3.org/2000/svg" xmlns:xlink="http://www.w3.org/1999/xlink" xml:space="preserve" onload="init(evt)">
<style type="text/css"><![CDATA[
.node, .edge {opacity: 0.7;}
.node.selected, .edge.selected {opacity: 1;}
.edge:hover path { stroke: red; }
.edge:hover polygon { stroke: red; fill: red; }
]]></style>
<script type="application/ecmascript" xlink:href="../../svg.min.js"/>
<svg id="graph" class="graph">
<g id="graph0" class="graph" transform="scale(1 1) rotate(0) translate(4 218.88)">
<title>Controller</title>
<!-- Node1 -->
<g id="Node000001" class="node">
<title>Node1</title>
<g id="a_Node000001"><a xlink:title=" ">
<polygon fill="#999999" stroke="#666666" points="190.25,-122.88 133,-122.88 133,-103.62 190.25,-103.62 190.25,-122.88"/>
<text text-anchor="middle" x="161.62" y="-109.38" font-family="Helvetica,sans-Serif" font-size="10.00">Controller</text>
</a>
</g>
</g>
<!-- Node2 -->
<g id="Node000002" class="node">
<title>Node2</title>
<g id="a_Node000002"><a xlink:href="../../d0/d04/classengine_1_1core_1_1_layer.html" target="_top" xlink:title=" ">
<polygon fill="white" stroke="#666666" points="96.62,-214.88 0.38,-214.88 0.38,-195.62 96.62,-195.62 96.62,-214.88"/>
<text text-anchor="middle" x="48.5" y="-201.38" font-family="Helvetica,sans-Serif" font-size="10.00">engine::core::Layer</text>
</a>
</g>
</g>
<!-- Node2&#45;&gt;Node1 -->
<g id="edge1_Node000001_Node000002" class="edge">
<title>Node2&#45;&gt;Node1</title>
<g id="a_edge1_Node000001_Node000002"><a xlink:title=" ">
<path fill="none" stroke="#63b8ff" d="M90.43,-190.4C92.71,-189.11 94.92,-187.72 97,-186.25 122.09,-168.44 143.82,-138.79 154.18,-123.33"/>
<polygon fill="#63b8ff" stroke="#63b8ff" points="89.15,-187.63 81.76,-195.21 92.27,-193.89 89.15,-187.63"/>
</a>
</g>
</g>
<!-- Node3 -->
<g id="Node000003" class="node">
<title>Node3</title>
<g id="a_Node000003"><a xlink:href="../../de/d0d/structengine_1_1core_1_1_layer_1_1_handle_tick.html" target="_top" xlink:title=" ">
<polygon fill="white" stroke="#666666" points="96.62,-177.5 0.38,-177.5 0.38,-147 96.62,-147 96.62,-177.5"/>
<text text-anchor="start" x="8.38" y="-164" font-family="Helvetica,sans-Serif" font-size="10.00">engine::core::Layer</text>
<text text-anchor="middle" x="48.5" y="-152.75" font-family="Helvetica,sans-Serif" font-size="10.00">::HandleTick</text>
</a>
</g>
</g>
<!-- Node3&#45;&gt;Node1 -->
<g id="edge2_Node000001_Node000003" class="edge">
<title>Node3&#45;&gt;Node1</title>
<g id="a_edge2_Node000001_Node000003"><a xlink:title=" ">
<path fill="none" stroke="#63b8ff" d="M94.95,-142.21C109.67,-135.72 125.37,-128.8 137.73,-123.35"/>
<polygon fill="#63b8ff" stroke="#63b8ff" points="93.7,-139.37 85.97,-146.61 96.53,-145.78 93.7,-139.37"/>
</a>
</g>
</g>
<!-- Node4 -->
<g id="Node000004" class="node">
<title>Node4</title>
<g id="a_Node000004"><a xlink:href="../../dd/dd4/structengine_1_1core_1_1_layer_1_1_handle_event.html" target="_top" xlink:title=" ">
<polygon fill="white" stroke="#666666" points="96.62,-128.5 0.38,-128.5 0.38,-98 96.62,-98 96.62,-128.5"/>
<text text-anchor="start" x="8.38" y="-115" font-family="Helvetica,sans-Serif" font-size="10.00">engine::core::Layer</text>
<text text-anchor="middle" x="48.5" y="-103.75" font-family="Helvetica,sans-Serif" font-size="10.00">::HandleEvent</text>
</a>
</g>
</g>
<!-- Node4&#45;&gt;Node1 -->
<g id="edge3_Node000001_Node000004" class="edge">
<title>Node4&#45;&gt;Node1</title>
<g id="a_edge3_Node000001_Node000004"><a xlink:title=" ">
<path fill="none" stroke="#63b8ff" d="M107.85,-113.25C116.47,-113.25 124.99,-113.25 132.6,-113.25"/>
<polygon fill="#63b8ff" stroke="#63b8ff" points="107.95,-109.75 97.95,-113.25 107.95,-116.75 107.95,-109.75"/>
</a>
</g>
</g>
<!-- Node5 -->
<g id="Node000005" class="node">
<title>Node5</title>
<g id="a_Node000005"><a xlink:href="../../da/d57/structengine_1_1core_1_1_layer_1_1_handle_gui_render.html" target="_top" xlink:title=" ">
<polygon fill="white" stroke="#666666" points="97,-79.5 0,-79.5 0,-49 97,-49 97,-79.5"/>
<text text-anchor="start" x="8" y="-66" font-family="Helvetica,sans-Serif" font-size="10.00">engine::core::Layer</text>
<text text-anchor="middle" x="48.5" y="-54.75" font-family="Helvetica,sans-Serif" font-size="10.00">::HandleGuiRender</text>
</a>
</g>
</g>
<!-- Node5&#45;&gt;Node1 -->
<g id="edge4_Node000001_Node000005" class="edge">
<title>Node5&#45;&gt;Node1</title>
<g id="a_edge4_Node000001_Node000005"><a xlink:title=" ">
<path fill="none" stroke="#63b8ff" d="M94.95,-84.29C109.67,-90.78 125.37,-97.7 137.73,-103.15"/>
<polygon fill="#63b8ff" stroke="#63b8ff" points="96.53,-80.72 85.97,-79.89 93.7,-87.13 96.53,-80.72"/>
</a>
</g>
</g>
<!-- Node6 -->
<g id="Node000006" class="node">
<title>Node6</title>
<g id="a_Node000006"><a xlink:href="../../d5/d41/structengine_1_1core_1_1_layer_1_1_handle_update.html" target="_top" xlink:title=" ">
<polygon fill="white" stroke="#666666" points="96.62,-30.5 0.38,-30.5 0.38,0 96.62,0 96.62,-30.5"/>
<text text-anchor="start" x="8.38" y="-17" font-family="Helvetica,sans-Serif" font-size="10.00">engine::core::Layer</text>
<text text-anchor="middle" x="48.5" y="-5.75" font-family="Helvetica,sans-Serif" font-size="10.00">::HandleUpdate</text>
</a>
</g>
</g>
<!-- Node6&#45;&gt;Node1 -->
<g id="edge5_Node000001_Node000006" class="edge">
<title>Node6&#45;&gt;Node1</title>
<g id="a_edge5_Node000001_Node000006"><a xlink:title=" ">
<path fill="none" stroke="#63b8ff" d="M92.04,-36.58C93.75,-37.77 95.41,-38.99 97,-40.25 121,-59.23 143.03,-88.12 153.77,-103.24"/>
<polygon fill="#63b8ff" stroke="#63b8ff" points="94.5,-33.37 84.18,-30.96 90.75,-39.28 94.5,-33.37"/>
</a>
</g>
</g>
</g>
</svg>
</svg>

<style type='text/css'>
<![CDATA[
[data-mouse-over-selected='false'] { opacity: 0.7; }
[data-mouse-over-selected='true']  { opacity: 1.0; }
]]>
</style>
<script type="application/ecmascript"><![CDATA[
document.addEventListener('DOMContentLoaded', (event) => {
  highlightEdges();
  highlightAdjacentNodes();
});
]]></script>
</svg>
