<?xml version="1.0" encoding="UTF-8" standalone="no"?>
<!DOCTYPE svg PUBLIC "-//W3C//DTD SVG 1.1//EN"
 "http://www.w3.org/Graphics/SVG/1.1/DTD/svg11.dtd">
<!-- Generated by graphviz version 8.1.0 (20230707.0739)
 -->
<!-- Title: tests/pch.h Pages: 1 -->
<svg width="691pt" height="94pt"
 viewBox="0.00 0.00 691.25 93.75" xmlns="http://www.w3.org/2000/svg" xmlns:xlink="http://www.w3.org/1999/xlink">
<g id="graph0" class="graph" transform="scale(1 1) rotate(0) translate(4 89.75)">
<title>tests/pch.h</title>
<!-- Node1 -->
<g id="Node000001" class="node">
<title>Node1</title>
<g id="a_Node000001"><a xlink:title=" ">
<polygon fill="#999999" stroke="#666666" points="372.62,-85.75 308.62,-85.75 308.62,-66.5 372.62,-66.5 372.62,-85.75"/>
<text text-anchor="middle" x="340.62" y="-72.25" font-family="Helvetica,sans-Serif" font-size="10.00">tests/pch.h</text>
</a>
</g>
</g>
<!-- Node2 -->
<g id="Node000002" class="node">
<title>Node2</title>
<g id="a_Node000002"><a xlink:href="../../d9/dc3/matrix-test_8cpp.html" target="_top" xlink:title=" ">
<polygon fill="white" stroke="#666666" points="129.25,-24.88 0,-24.88 0,-5.63 129.25,-5.63 129.25,-24.88"/>
<text text-anchor="middle" x="64.62" y="-11.38" font-family="Helvetica,sans-Serif" font-size="10.00">tests/math/matrix&#45;test.cpp</text>
</a>
</g>
</g>
<!-- Node1&#45;&gt;Node2 -->
<g id="edge1_Node000001_Node000002" class="edge">
<title>Node1&#45;&gt;Node2</title>
<g id="a_edge1_Node000001_Node000002"><a xlink:title=" ">
<path fill="none" stroke="#63b8ff" d="M297.64,-65.96C245.77,-54.89 159.11,-36.41 107.36,-25.37"/>
<polygon fill="#63b8ff" stroke="#63b8ff" points="296.64,-69.53 307.15,-68.2 298.1,-62.69 296.64,-69.53"/>
</a>
</g>
</g>
<!-- Node3 -->
<g id="Node000003" class="node">
<title>Node3</title>
<g id="a_Node000003"><a xlink:href="../../d3/d7f/quaternion-test_8cpp.html" target="_top" xlink:title=" ">
<polygon fill="white" stroke="#666666" points="257.88,-30.5 147.38,-30.5 147.38,0 257.88,0 257.88,-30.5"/>
<text text-anchor="start" x="155.38" y="-17" font-family="Helvetica,sans-Serif" font-size="10.00">tests/math/quaternion</text>
<text text-anchor="middle" x="202.62" y="-5.75" font-family="Helvetica,sans-Serif" font-size="10.00">&#45;test.cpp</text>
</a>
</g>
</g>
<!-- Node1&#45;&gt;Node3 -->
<g id="edge2_Node000001_Node000003" class="edge">
<title>Node1&#45;&gt;Node3</title>
<g id="a_edge2_Node000001_Node000003"><a xlink:title=" ">
<path fill="none" stroke="#63b8ff" d="M309.43,-61.81C287.9,-52.63 259.27,-40.42 237.07,-30.94"/>
<polygon fill="#63b8ff" stroke="#63b8ff" points="307.79,-65.35 318.36,-66.05 310.54,-58.91 307.79,-65.35"/>
</a>
</g>
</g>
<!-- Node4 -->
<g id="Node000004" class="node">
<title>Node4</title>
<g id="a_Node000004"><a xlink:href="../../dd/dfb/vector-test_8cpp.html" target="_top" xlink:title=" ">
<polygon fill="white" stroke="#666666" points="405.62,-24.88 275.62,-24.88 275.62,-5.63 405.62,-5.63 405.62,-24.88"/>
<text text-anchor="middle" x="340.62" y="-11.38" font-family="Helvetica,sans-Serif" font-size="10.00">tests/math/vector&#45;test.cpp</text>
</a>
</g>
</g>
<!-- Node1&#45;&gt;Node4 -->
<g id="edge3_Node000001_Node000004" class="edge">
<title>Node1&#45;&gt;Node4</title>
<g id="a_edge3_Node000001_Node000004"><a xlink:title=" ">
<path fill="none" stroke="#63b8ff" d="M340.62,-55.37C340.62,-45.18 340.62,-33.26 340.62,-25.28"/>
<polygon fill="#63b8ff" stroke="#63b8ff" points="337.13,-55.18 340.62,-65.18 344.13,-55.18 337.13,-55.18"/>
</a>
</g>
</g>
<!-- Node5 -->
<g id="Node000005" class="node">
<title>Node5</title>
<g id="a_Node000005"><a xlink:href="../../dd/da1/ini-test_8cpp.html" target="_top" xlink:title=" ">
<polygon fill="white" stroke="#666666" points="535.62,-24.88 423.62,-24.88 423.62,-5.63 535.62,-5.63 535.62,-24.88"/>
<text text-anchor="middle" x="479.62" y="-11.38" font-family="Helvetica,sans-Serif" font-size="10.00">tests/misc/ini&#45;test.cpp</text>
</a>
</g>
</g>
<!-- Node1&#45;&gt;Node5 -->
<g id="edge4_Node000001_Node000005" class="edge">
<title>Node1&#45;&gt;Node5</title>
<g id="a_edge4_Node000001_Node000005"><a xlink:title=" ">
<path fill="none" stroke="#63b8ff" d="M371.93,-61.87C398.32,-50.69 435.37,-34.99 458.41,-25.23"/>
<polygon fill="#63b8ff" stroke="#63b8ff" points="370.88,-58.93 363.04,-66.05 373.61,-65.38 370.88,-58.93"/>
</a>
</g>
</g>
<!-- Node6 -->
<g id="Node000006" class="node">
<title>Node6</title>
<g id="a_Node000006"><a xlink:href="../../d1/d3c/tests_2utils_2file-watcher_8cpp.html" target="_top" xlink:title=" ">
<polygon fill="white" stroke="#666666" points="683.25,-24.88 554,-24.88 554,-5.63 683.25,-5.63 683.25,-24.88"/>
<text text-anchor="middle" x="618.62" y="-11.38" font-family="Helvetica,sans-Serif" font-size="10.00">tests/utils/file&#45;watcher.cpp</text>
</a>
</g>
</g>
<!-- Node1&#45;&gt;Node6 -->
<g id="edge5_Node000001_Node000006" class="edge">
<title>Node1&#45;&gt;Node6</title>
<g id="a_edge5_Node000001_Node000006"><a xlink:title=" ">
<path fill="none" stroke="#63b8ff" d="M383.66,-66.01C436,-54.93 523.8,-36.33 575.96,-25.28"/>
<polygon fill="#63b8ff" stroke="#63b8ff" points="383.12,-62.76 374.06,-68.26 384.57,-69.61 383.12,-62.76"/>
</a>
</g>
</g>
</g>
</svg>
