<?xml version="1.0" encoding="UTF-8" standalone="no"?>
<!DOCTYPE svg PUBLIC "-//W3C//DTD SVG 1.1//EN"
 "http://www.w3.org/Graphics/SVG/1.1/DTD/svg11.dtd">
<!-- Generated by graphviz version 8.1.0 (20230707.0739)
 -->
<!-- Title: engine::render::Shader Pages: 1 -->
<svg width="306pt" height="224pt"
 viewBox="0.00 0.00 305.50 224.25" xmlns="http://www.w3.org/2000/svg" xmlns:xlink="http://www.w3.org/1999/xlink">
<g id="graph0" class="graph" transform="scale(1 1) rotate(0) translate(4 220.25)">
<title>engine::render::Shader</title>
<!-- Node1 -->
<g id="Node000001" class="node">
<title>Node1</title>
<g id="a_Node000001"><a xlink:title=" ">
<polygon fill="#999999" stroke="#666666" points="111.25,-114.25 0,-114.25 0,-95 111.25,-95 111.25,-114.25"/>
<text text-anchor="middle" x="55.62" y="-100.75" font-family="Helvetica,sans-Serif" font-size="10.00">engine::render::Shader</text>
</a>
</g>
</g>
<!-- Node2 -->
<g id="Node000002" class="node">
<title>Node2</title>
<g id="a_Node000002"><a xlink:href="../../d3/d0b/classengine_1_1render_1_1_compute_shader.html" target="_top" xlink:title=" ">
<polygon fill="white" stroke="#666666" points="297.5,-216.25 147.25,-216.25 147.25,-197 297.5,-197 297.5,-216.25"/>
<text text-anchor="middle" x="222.38" y="-202.75" font-family="Helvetica,sans-Serif" font-size="10.00">engine::render::ComputeShader</text>
</a>
</g>
</g>
<!-- Node1&#45;&gt;Node2 -->
<g id="edge1_Node000001_Node000002" class="edge">
<title>Node1&#45;&gt;Node2</title>
<g id="a_edge1_Node000001_Node000002"><a xlink:title=" ">
<path fill="none" stroke="#63b8ff" d="M71.31,-122.92C87.77,-142.18 116.25,-171.98 147.25,-188.62 153.08,-191.76 159.47,-194.35 165.96,-196.5"/>
<polygon fill="#63b8ff" stroke="#63b8ff" points="73.52,-121.1 64.43,-115.65 68.14,-125.58 73.52,-121.1"/>
</a>
</g>
</g>
<!-- Node3 -->
<g id="Node000003" class="node">
<title>Node3</title>
<g id="a_Node000003"><a xlink:href="../../d9/d36/classengine_1_1render_1_1_domain_shader.html" target="_top" xlink:title=" ">
<polygon fill="white" stroke="#666666" points="294.5,-179.25 150.25,-179.25 150.25,-160 294.5,-160 294.5,-179.25"/>
<text text-anchor="middle" x="222.38" y="-165.75" font-family="Helvetica,sans-Serif" font-size="10.00">engine::render::DomainShader</text>
</a>
</g>
</g>
<!-- Node1&#45;&gt;Node3 -->
<g id="edge2_Node000001_Node000003" class="edge">
<title>Node1&#45;&gt;Node3</title>
<g id="a_edge2_Node000001_Node000003"><a xlink:title=" ">
<path fill="none" stroke="#63b8ff" d="M82.62,-119.75C100.38,-129.59 124.68,-142.12 147.25,-150.62 156.2,-154 165.98,-156.98 175.41,-159.51"/>
<polygon fill="#63b8ff" stroke="#63b8ff" points="84.92,-116.46 74.49,-114.6 81.48,-122.56 84.92,-116.46"/>
</a>
</g>
</g>
<!-- Node4 -->
<g id="Node000004" class="node">
<title>Node4</title>
<g id="a_Node000004"><a xlink:href="../../dc/d0e/classengine_1_1render_1_1_geometry_shader.html" target="_top" xlink:title=" ">
<polygon fill="white" stroke="#666666" points="283.62,-141.88 161.12,-141.88 161.12,-111.38 283.62,-111.38 283.62,-141.88"/>
<text text-anchor="start" x="169.12" y="-128.38" font-family="Helvetica,sans-Serif" font-size="10.00">engine::render::Geometry</text>
<text text-anchor="middle" x="222.38" y="-117.12" font-family="Helvetica,sans-Serif" font-size="10.00">Shader</text>
</a>
</g>
</g>
<!-- Node1&#45;&gt;Node4 -->
<g id="edge3_Node000001_Node000004" class="edge">
<title>Node1&#45;&gt;Node4</title>
<g id="a_edge3_Node000001_Node000004"><a xlink:title=" ">
<path fill="none" stroke="#63b8ff" d="M122.06,-113.36C134.84,-115.07 148.18,-116.85 160.8,-118.54"/>
<polygon fill="#63b8ff" stroke="#63b8ff" points="122.86,-109.81 112.48,-111.95 121.93,-116.74 122.86,-109.81"/>
</a>
</g>
</g>
<!-- Node5 -->
<g id="Node000005" class="node">
<title>Node5</title>
<g id="a_Node000005"><a xlink:href="../../d6/d3c/classengine_1_1render_1_1_hull_shader.html" target="_top" xlink:title=" ">
<polygon fill="white" stroke="#666666" points="286.62,-93.25 158.12,-93.25 158.12,-74 286.62,-74 286.62,-93.25"/>
<text text-anchor="middle" x="222.38" y="-79.75" font-family="Helvetica,sans-Serif" font-size="10.00">engine::render::HullShader</text>
</a>
</g>
</g>
<!-- Node1&#45;&gt;Node5 -->
<g id="edge4_Node000001_Node000005" class="edge">
<title>Node1&#45;&gt;Node5</title>
<g id="a_edge4_Node000001_Node000005"><a xlink:title=" ">
<path fill="none" stroke="#63b8ff" d="M122.07,-96.28C133.78,-94.79 145.97,-93.24 157.63,-91.75"/>
<polygon fill="#63b8ff" stroke="#63b8ff" points="121.96,-92.9 112.48,-97.63 122.85,-99.84 121.96,-92.9"/>
</a>
</g>
</g>
<!-- Node6 -->
<g id="Node000006" class="node">
<title>Node6</title>
<g id="a_Node000006"><a xlink:href="../../d9/d25/classengine_1_1render_1_1_pixel_shader.html" target="_top" xlink:title=" ">
<polygon fill="white" stroke="#666666" points="288.5,-56.25 156.25,-56.25 156.25,-37 288.5,-37 288.5,-56.25"/>
<text text-anchor="middle" x="222.38" y="-42.75" font-family="Helvetica,sans-Serif" font-size="10.00">engine::render::PixelShader</text>
</a>
</g>
</g>
<!-- Node1&#45;&gt;Node6 -->
<g id="edge5_Node000001_Node000006" class="edge">
<title>Node1&#45;&gt;Node6</title>
<g id="a_edge5_Node000001_Node000006"><a xlink:title=" ">
<path fill="none" stroke="#63b8ff" d="M86.34,-89.91C103.78,-81.68 126.42,-71.69 147.25,-64.62 155.9,-61.69 165.28,-59.03 174.35,-56.71"/>
<polygon fill="#63b8ff" stroke="#63b8ff" points="85.24,-87.04 77.73,-94.51 88.26,-93.35 85.24,-87.04"/>
</a>
</g>
</g>
<!-- Node7 -->
<g id="Node000007" class="node">
<title>Node7</title>
<g id="a_Node000007"><a xlink:href="../../d1/d51/classengine_1_1render_1_1_vertex_shader.html" target="_top" xlink:title=" ">
<polygon fill="white" stroke="#666666" points="291.88,-19.25 152.88,-19.25 152.88,0 291.88,0 291.88,-19.25"/>
<text text-anchor="middle" x="222.38" y="-5.75" font-family="Helvetica,sans-Serif" font-size="10.00">engine::render::VertexShader</text>
</a>
</g>
</g>
<!-- Node1&#45;&gt;Node7 -->
<g id="edge6_Node000001_Node000007" class="edge">
<title>Node1&#45;&gt;Node7</title>
<g id="a_edge6_Node000001_Node000007"><a xlink:title=" ">
<path fill="none" stroke="#63b8ff" d="M72.66,-86.82C89.53,-69.18 117.69,-42.69 147.25,-27.62 153.39,-24.5 160.09,-21.9 166.87,-19.74"/>
<polygon fill="#63b8ff" stroke="#63b8ff" points="70.59,-83.98 66.33,-93.68 75.71,-88.75 70.59,-83.98"/>
</a>
</g>
</g>
</g>
</svg>
