<?xml version="1.0" encoding="UTF-8" standalone="no"?>
<!DOCTYPE svg PUBLIC "-//W3C//DTD SVG 1.1//EN"
 "http://www.w3.org/Graphics/SVG/1.1/DTD/svg11.dtd">
<!-- Generated by graphviz version 9.0.0 (20230911.1827)
 -->
<!-- Title: engine/subsystems/render/detail/misc/sort&#45;lib.hpp Pages: 1 -->
<!--zoomable 559 -->

<svg id="main" version="1.1" xmlns="http://www.w3.org/2000/svg" xmlns:xlink="http://www.w3.org/1999/xlink" xml:space="preserve" onload="init(evt)">
<style type="text/css"><![CDATA[
.node, .edge {opacity: 0.7;}
.node.selected, .edge.selected {opacity: 1;}
.edge:hover path { stroke: red; }
.edge:hover polygon { stroke: red; fill: red; }
]]></style>

<defs>
  <circle id="rim" cx="0" cy="0" r="7"/>
  <circle id="rim2" cx="0" cy="0" r="3.5"/>
  <g id="zoomPlus">
    <use xlink:href="#rim" fill="#404040"><set attributeName="fill" to="#808080" begin="zoomplus.mouseover" end="zoomplus.mouseout"/></use>
    <path d="M-4,0h8M0,-4v8" fill="none" stroke="white" stroke-width="1.5" pointer-events="none"/>
  </g>
  <g id="zoomMin">
    <use xlink:href="#rim" fill="#404040"><set attributeName="fill" to="#808080" begin="zoomminus.mouseover" end="zoomminus.mouseout"/></use>
    <path d="M-4,0h8" fill="none" stroke="white" stroke-width="1.5" pointer-events="none"/>
  </g>
  <g id="arrowUp" transform="translate(30 24)">
    <use xlink:href="#rim"/>
    <path pointer-events="none" fill="none" stroke="white" stroke-width="1.5" d="M0,-3.0v7 M-2.5,-0.5L0,-3.0L2.5,-0.5"/>
  </g>
  <g id="arrowRight" transform="rotate(90) translate(36 -43)">
    <use xlink:href="#rim"/>
    <path pointer-events="none" fill="none" stroke="white" stroke-width="1.5" d="M0,-3.0v7 M-2.5,-0.5L0,-3.0L2.5,-0.5"/>
  </g>
  <g id="arrowDown" transform="rotate(180) translate(-30 -48)">
    <use xlink:href="#rim"/>
    <path pointer-events="none" fill="none" stroke="white" stroke-width="1.5" d="M0,-3.0v7 M-2.5,-0.5L0,-3.0L2.5,-0.5"/>
  </g>
  <g id="arrowLeft" transform="rotate(270) translate(-36 17)">
    <use xlink:href="#rim"/>
    <path pointer-events="none" fill="none" stroke="white" stroke-width="1.5" d="M0,-3.0v7 M-2.5,-0.5L0,-3.0L2.5,-0.5"/>
  </g>
  <g id="resetDef">
    <use xlink:href="#rim2" fill="#404040"><set attributeName="fill" to="#808080" begin="reset.mouseover" end="reset.mouseout"/></use>
  </g>
</defs>
<script type="application/ecmascript">
var viewWidth = 1910;
var viewHeight = 559;
var sectionId = 'dynsection-1';
</script>
<script type="application/ecmascript" xlink:href="../../svg.min.js"/>
<svg id="graph" class="graph">
<g id="viewport">
<title>engine/subsystems/render/detail/misc/sort&#45;lib.hpp</title>
<!-- Node1 -->
<g id="Node000001" class="node">
<title>Node1</title>
<g id="a_Node000001"><a xlink:title=" ">
<polygon fill="#999999" stroke="#666666" points="822.3,-551.25 692.3,-551.25 692.3,-520.75 822.3,-520.75 822.3,-551.25"/>
<text text-anchor="start" x="700.3" y="-537.75" font-family="Helvetica,sans-Serif" font-size="10.00">engine/subsystems/render</text>
<text text-anchor="middle" x="757.3" y="-526.5" font-family="Helvetica,sans-Serif" font-size="10.00">/detail/misc/sort&#45;lib.hpp</text>
</a>
</g>
</g>
<!-- Node2 -->
<g id="Node000002" class="node">
<title>Node2</title>
<g id="a_Node000002"><a xlink:href="../../df/d79/emissive-particle-render-system_8hpp.html" target="_top" xlink:title=" ">
<polygon fill="white" stroke="#666666" points="674.3,-484.75 544.3,-484.75 544.3,-443 674.3,-443 674.3,-484.75"/>
<text text-anchor="start" x="552.3" y="-471.25" font-family="Helvetica,sans-Serif" font-size="10.00">engine/subsystems/render</text>
<text text-anchor="start" x="552.3" y="-460" font-family="Helvetica,sans-Serif" font-size="10.00">/detail/emissive&#45;particle</text>
<text text-anchor="middle" x="609.3" y="-448.75" font-family="Helvetica,sans-Serif" font-size="10.00">&#45;render&#45;system.hpp</text>
</a>
</g>
</g>
<!-- Node1&#45;&gt;Node2 -->
<g id="edge1_Node000001_Node000002" class="edge">
<title>Node1&#45;&gt;Node2</title>
<g id="a_edge1_Node000001_Node000002"><a xlink:title=" ">
<path fill="none" stroke="#63b8ff" d="M715.97,-515.41C696.05,-505.98 672.18,-494.67 652.07,-485.14"/>
<polygon fill="#63b8ff" stroke="#63b8ff" points="714.37,-518.53 724.91,-519.65 717.37,-512.21 714.37,-518.53"/>
</a>
</g>
</g>
<!-- Node30 -->
<g id="Node000030" class="node">
<title>Node30</title>
<g id="a_Node000030"><a xlink:href="../../d9/d5a/sort-lib_8cpp.html" target="_top" xlink:title=" ">
<polygon fill="white" stroke="#666666" points="822.3,-479.12 692.3,-479.12 692.3,-448.62 822.3,-448.62 822.3,-479.12"/>
<text text-anchor="start" x="700.3" y="-465.62" font-family="Helvetica,sans-Serif" font-size="10.00">engine/subsystems/render</text>
<text text-anchor="middle" x="757.3" y="-454.38" font-family="Helvetica,sans-Serif" font-size="10.00">/detail/misc/sort&#45;lib.cpp</text>
</a>
</g>
</g>
<!-- Node1&#45;&gt;Node30 -->
<g id="edge44_Node000001_Node000030" class="edge">
<title>Node1&#45;&gt;Node30</title>
<g id="a_edge44_Node000001_Node000030"><a xlink:title=" ">
<path fill="none" stroke="#63b8ff" d="M757.3,-509.02C757.3,-499.01 757.3,-487.94 757.3,-479.39"/>
<polygon fill="#63b8ff" stroke="#63b8ff" points="753.8,-508.96 757.3,-518.96 760.8,-508.96 753.8,-508.96"/>
</a>
</g>
</g>
<!-- Node31 -->
<g id="Node000031" class="node">
<title>Node31</title>
<g id="a_Node000031"><a xlink:href="../../da/dda/particle-render-system_8hpp.html" target="_top" xlink:title=" ">
<polygon fill="white" stroke="#666666" points="970.3,-484.75 840.3,-484.75 840.3,-443 970.3,-443 970.3,-484.75"/>
<text text-anchor="start" x="848.3" y="-471.25" font-family="Helvetica,sans-Serif" font-size="10.00">engine/subsystems/render</text>
<text text-anchor="start" x="848.3" y="-460" font-family="Helvetica,sans-Serif" font-size="10.00">/detail/particle&#45;render</text>
<text text-anchor="middle" x="905.3" y="-448.75" font-family="Helvetica,sans-Serif" font-size="10.00">&#45;system.hpp</text>
</a>
</g>
</g>
<!-- Node1&#45;&gt;Node31 -->
<g id="edge45_Node000001_Node000031" class="edge">
<title>Node1&#45;&gt;Node31</title>
<g id="a_edge45_Node000001_Node000031"><a xlink:title=" ">
<path fill="none" stroke="#63b8ff" d="M798.64,-515.41C818.56,-505.98 842.43,-494.67 862.53,-485.14"/>
<polygon fill="#63b8ff" stroke="#63b8ff" points="797.23,-512.21 789.7,-519.65 800.23,-518.53 797.23,-512.21"/>
</a>
</g>
</g>
<!-- Node3 -->
<g id="Node000003" class="node">
<title>Node3</title>
<g id="a_Node000003"><a xlink:href="../../d1/dae/renderer_8hpp.html" target="_top" xlink:title=" ">
<polygon fill="white" stroke="#666666" points="822.68,-407 691.93,-407 691.93,-387.75 822.68,-387.75 822.68,-407"/>
<text text-anchor="middle" x="757.3" y="-393.5" font-family="Helvetica,sans-Serif" font-size="10.00">engine/render/renderer.hpp</text>
</a>
</g>
</g>
<!-- Node2&#45;&gt;Node3 -->
<g id="edge2_Node000002_Node000003" class="edge">
<title>Node2&#45;&gt;Node3</title>
<g id="a_edge2_Node000002_Node000003"><a xlink:title=" ">
<path fill="none" stroke="#63b8ff" d="M666.13,-438.11C690.89,-427.32 718.36,-415.35 736.61,-407.39"/>
<polygon fill="#63b8ff" stroke="#63b8ff" points="664.88,-434.84 657.11,-442.04 667.68,-441.25 664.88,-434.84"/>
</a>
</g>
</g>
<!-- Node19 -->
<g id="Node000019" class="node">
<title>Node19</title>
<g id="a_Node000019"><a xlink:href="../../d2/d11/emissive-particle-render-system_8cpp.html" target="_top" xlink:title=" ">
<polygon fill="white" stroke="#666666" points="148.3,-97 18.3,-97 18.3,-55.25 148.3,-55.25 148.3,-97"/>
<text text-anchor="start" x="26.3" y="-83.5" font-family="Helvetica,sans-Serif" font-size="10.00">engine/subsystems/render</text>
<text text-anchor="start" x="26.3" y="-72.25" font-family="Helvetica,sans-Serif" font-size="10.00">/detail/emissive&#45;particle</text>
<text text-anchor="middle" x="83.3" y="-61" font-family="Helvetica,sans-Serif" font-size="10.00">&#45;render&#45;system.cpp</text>
</a>
</g>
</g>
<!-- Node2&#45;&gt;Node19 -->
<g id="edge43_Node000002_Node000019" class="edge">
<title>Node2&#45;&gt;Node19</title>
<g id="a_edge43_Node000002_Node000019"><a xlink:title=" ">
<path fill="none" stroke="#63b8ff" d="M532.92,-458.03C405.72,-447.83 164.3,-418.55 164.3,-343.12 164.3,-343.12 164.3,-343.12 164.3,-208.12 164.3,-163.47 129.83,-121.33 105.87,-97.42"/>
<polygon fill="#63b8ff" stroke="#63b8ff" points="532.37,-461.49 542.61,-458.78 532.91,-454.51 532.37,-461.49"/>
</a>
</g>
</g>
<!-- Node4 -->
<g id="Node000004" class="node">
<title>Node4</title>
<g id="a_Node000004"><a xlink:href="../../d1/d47/controller_8cpp.html" target="_top" xlink:title=" ">
<polygon fill="white" stroke="#666666" points="969.43,-19.25 855.18,-19.25 855.18,0 969.43,0 969.43,-19.25"/>
<text text-anchor="middle" x="912.3" y="-5.75" font-family="Helvetica,sans-Serif" font-size="10.00">d3d_test/controller.cpp</text>
</a>
</g>
</g>
<!-- Node3&#45;&gt;Node4 -->
<g id="edge3_Node000003_Node000004" class="edge">
<title>Node3&#45;&gt;Node4</title>
<g id="a_edge3_Node000003_Node000004"><a xlink:title=" ">
<path fill="none" stroke="#63b8ff" d="M834.22,-391.98C1090.52,-376.32 1899.3,-318.32 1899.3,-210.12 1899.3,-210.12 1899.3,-210.12 1899.3,-147.25 1899.3,-105.5 1912.06,-82.36 1880.3,-55.25 1845.56,-25.59 1172.65,-14.13 969.74,-11.34"/>
<polygon fill="#63b8ff" stroke="#63b8ff" points="834.08,-388.48 824.31,-392.58 834.51,-395.47 834.08,-388.48"/>
</a>
</g>
</g>
<!-- Node5 -->
<g id="Node000005" class="node">
<title>Node5</title>
<g id="a_Node000005"><a xlink:href="../../d5/d9b/scene_8hpp.html" target="_top" xlink:title=" ">
<polygon fill="white" stroke="#666666" points="856.05,-351.75 742.55,-351.75 742.55,-332.5 856.05,-332.5 856.05,-351.75"/>
<text text-anchor="middle" x="799.3" y="-338.25" font-family="Helvetica,sans-Serif" font-size="10.00">engine/core/scene.hpp</text>
</a>
</g>
</g>
<!-- Node3&#45;&gt;Node5 -->
<g id="edge4_Node000003_Node000005" class="edge">
<title>Node3&#45;&gt;Node5</title>
<g id="a_edge4_Node000003_Node000005"><a xlink:title=" ">
<path fill="none" stroke="#63b8ff" d="M771.22,-378.72C778.26,-369.81 786.49,-359.37 792.22,-352.11"/>
<polygon fill="#63b8ff" stroke="#63b8ff" points="768.62,-376.37 765.18,-386.39 774.12,-380.71 768.62,-376.37"/>
</a>
</g>
</g>
<!-- Node25 -->
<g id="Node000025" class="node">
<title>Node25</title>
<g id="a_Node000025"><a xlink:href="../../db/df9/deferred-hdr-render-pipeline_8hpp.html" target="_top" xlink:title=" ">
<polygon fill="white" stroke="#666666" points="466.68,-163.5 335.93,-163.5 335.93,-133 466.68,-133 466.68,-163.5"/>
<text text-anchor="start" x="343.93" y="-150" font-family="Helvetica,sans-Serif" font-size="10.00">engine/direct3d11/deferred</text>
<text text-anchor="middle" x="401.3" y="-138.75" font-family="Helvetica,sans-Serif" font-size="10.00">&#45;hdr&#45;render&#45;pipeline.hpp</text>
</a>
</g>
</g>
<!-- Node3&#45;&gt;Node25 -->
<g id="edge41_Node000003_Node000025" class="edge">
<title>Node3&#45;&gt;Node25</title>
<g id="a_edge41_Node000003_Node000025"><a xlink:title=" ">
<path fill="none" stroke="#63b8ff" d="M680.27,-389.76C568.66,-378.41 370.57,-350.96 327.3,-296.5 292.96,-253.26 352.46,-191.53 383.82,-163.76"/>
<polygon fill="#63b8ff" stroke="#63b8ff" points="679.65,-393.22 689.95,-390.73 680.34,-386.25 679.65,-393.22"/>
</a>
</g>
</g>
<!-- Node27 -->
<g id="Node000027" class="node">
<title>Node27</title>
<g id="a_Node000027"><a xlink:href="../../d6/d54/renderer_8cpp.html" target="_top" xlink:title=" ">
<polygon fill="white" stroke="#666666" points="466.68,-285.25 335.93,-285.25 335.93,-266 466.68,-266 466.68,-285.25"/>
<text text-anchor="middle" x="401.3" y="-271.75" font-family="Helvetica,sans-Serif" font-size="10.00">engine/render/renderer.cpp</text>
</a>
</g>
</g>
<!-- Node3&#45;&gt;Node27 -->
<g id="edge42_Node000003_Node000027" class="edge">
<title>Node3&#45;&gt;Node27</title>
<g id="a_edge42_Node000003_Node000027"><a xlink:title=" ">
<path fill="none" stroke="#63b8ff" d="M719.39,-383.62C647.09,-359.3 491.11,-306.83 428.31,-285.71"/>
<polygon fill="#63b8ff" stroke="#63b8ff" points="718.22,-386.92 728.82,-386.79 720.46,-380.29 718.22,-386.92"/>
</a>
</g>
</g>
<!-- Node6 -->
<g id="Node000006" class="node">
<title>Node6</title>
<g id="a_Node000006"><a xlink:href="../../de/d46/engine_8hpp.html" target="_top" xlink:title=" ">
<polygon fill="white" stroke="#666666" points="1067.18,-157.88 951.43,-157.88 951.43,-138.62 1067.18,-138.62 1067.18,-157.88"/>
<text text-anchor="middle" x="1009.3" y="-144.38" font-family="Helvetica,sans-Serif" font-size="10.00">engine/core/engine.hpp</text>
</a>
</g>
</g>
<!-- Node5&#45;&gt;Node6 -->
<g id="edge5_Node000005_Node000006" class="edge">
<title>Node5&#45;&gt;Node6</title>
<g id="a_edge5_Node000005_Node000006"><a xlink:title=" ">
<path fill="none" stroke="#63b8ff" d="M867.71,-340.39C943.77,-337.94 1059.59,-328.84 1087.3,-296.5 1096.47,-285.81 1080.86,-200.43 1080.3,-199.5 1068.8,-180.34 1046.87,-166.54 1030.41,-158.3"/>
<polygon fill="#63b8ff" stroke="#63b8ff" points="867.74,-336.88 857.84,-340.67 867.94,-343.88 867.74,-336.88"/>
</a>
</g>
</g>
<!-- Node17 -->
<g id="Node000017" class="node">
<title>Node17</title>
<g id="a_Node000017"><a xlink:href="../../d8/d30/decal-render-system_8cpp.html" target="_top" xlink:title=" ">
<polygon fill="white" stroke="#666666" points="317.8,-91.38 166.8,-91.38 166.8,-60.88 317.8,-60.88 317.8,-91.38"/>
<text text-anchor="start" x="174.8" y="-77.88" font-family="Helvetica,sans-Serif" font-size="10.00">engine/subsystems/render</text>
<text text-anchor="middle" x="242.3" y="-66.62" font-family="Helvetica,sans-Serif" font-size="10.00">/detail/decal&#45;render&#45;system.cpp</text>
</a>
</g>
</g>
<!-- Node5&#45;&gt;Node17 -->
<g id="edge36_Node000005_Node000017" class="edge">
<title>Node5&#45;&gt;Node17</title>
<g id="a_edge36_Node000005_Node000017"><a xlink:title=" ">
<path fill="none" stroke="#63b8ff" d="M730.95,-335.71C658.6,-329.07 549.9,-316.19 513.3,-296.5 491.21,-284.61 494.61,-270.77 475.3,-254.75 415.83,-205.42 387.73,-211.67 327.3,-163.5 299.01,-140.94 270.36,-109.71 254.61,-91.64"/>
<polygon fill="#63b8ff" stroke="#63b8ff" points="730.45,-339.18 740.72,-336.59 731.08,-332.21 730.45,-339.18"/>
</a>
</g>
</g>
<!-- Node18 -->
<g id="Node000018" class="node">
<title>Node18</title>
<g id="a_Node000018"><a xlink:href="../../d1/d58/dissolution-render-system_8cpp.html" target="_top" xlink:title=" ">
<polygon fill="white" stroke="#666666" points="1723.3,-97 1593.3,-97 1593.3,-55.25 1723.3,-55.25 1723.3,-97"/>
<text text-anchor="start" x="1601.3" y="-83.5" font-family="Helvetica,sans-Serif" font-size="10.00">engine/subsystems/render</text>
<text text-anchor="start" x="1601.3" y="-72.25" font-family="Helvetica,sans-Serif" font-size="10.00">/detail/dissolution&#45;render</text>
<text text-anchor="middle" x="1658.3" y="-61" font-family="Helvetica,sans-Serif" font-size="10.00">&#45;system.cpp</text>
</a>
</g>
</g>
<!-- Node5&#45;&gt;Node18 -->
<g id="edge37_Node000005_Node000018" class="edge">
<title>Node5&#45;&gt;Node18</title>
<g id="a_edge37_Node000005_Node000018"><a xlink:title=" ">
<path fill="none" stroke="#63b8ff" d="M867.7,-335.57C929.71,-329.48 1023.23,-317.62 1102.3,-296.5 1301.06,-243.41 1525.42,-140.98 1616.53,-97.47"/>
<polygon fill="#63b8ff" stroke="#63b8ff" points="867.62,-332.06 858,-336.5 868.29,-339.03 867.62,-332.06"/>
</a>
</g>
</g>
<!-- Node22 -->
<g id="Node000022" class="node">
<title>Node22</title>
<g id="a_Node000022"><a xlink:href="../../d3/dfe/particle-render-system_8cpp.html" target="_top" xlink:title=" ">
<polygon fill="white" stroke="#666666" points="1871.3,-97 1741.3,-97 1741.3,-55.25 1871.3,-55.25 1871.3,-97"/>
<text text-anchor="start" x="1749.3" y="-83.5" font-family="Helvetica,sans-Serif" font-size="10.00">engine/subsystems/render</text>
<text text-anchor="start" x="1749.3" y="-72.25" font-family="Helvetica,sans-Serif" font-size="10.00">/detail/particle&#45;render</text>
<text text-anchor="middle" x="1806.3" y="-61" font-family="Helvetica,sans-Serif" font-size="10.00">&#45;system.cpp</text>
</a>
</g>
</g>
<!-- Node5&#45;&gt;Node22 -->
<g id="edge40_Node000005_Node000022" class="edge">
<title>Node5&#45;&gt;Node22</title>
<g id="a_edge40_Node000005_Node000022"><a xlink:title=" ">
<path fill="none" stroke="#63b8ff" d="M867.73,-337.7C944.78,-332.79 1073.32,-321.43 1181.3,-296.5 1404,-245.08 1657.62,-141.27 1759.92,-97.42"/>
<polygon fill="#63b8ff" stroke="#63b8ff" points="867.56,-334.21 857.79,-338.31 867.99,-341.19 867.56,-334.21"/>
</a>
</g>
</g>
<!-- Node23 -->
<g id="Node000023" class="node">
<title>Node23</title>
<g id="a_Node000023"><a xlink:href="../../d9/d06/render-pipeline_8hpp.html" target="_top" xlink:title=" ">
<polygon fill="white" stroke="#666666" points="1078.3,-290.88 978.3,-290.88 978.3,-260.38 1078.3,-260.38 1078.3,-290.88"/>
<text text-anchor="start" x="986.3" y="-277.38" font-family="Helvetica,sans-Serif" font-size="10.00">engine/core/layers</text>
<text text-anchor="middle" x="1028.3" y="-266.12" font-family="Helvetica,sans-Serif" font-size="10.00">/render&#45;pipeline.hpp</text>
</a>
</g>
</g>
<!-- Node5&#45;&gt;Node23 -->
<g id="edge27_Node000005_Node000023" class="edge">
<title>Node5&#45;&gt;Node23</title>
<g id="a_edge27_Node000005_Node000023"><a xlink:title=" ">
<path fill="none" stroke="#63b8ff" d="M848.05,-329.27C882.17,-320.74 928.73,-308.64 969.3,-296.5 974.69,-294.89 980.32,-293.11 985.87,-291.3"/>
<polygon fill="#63b8ff" stroke="#63b8ff" points="847.31,-325.84 838.45,-331.65 849,-332.64 847.31,-325.84"/>
</a>
</g>
</g>
<!-- Node26 -->
<g id="Node000026" class="node">
<title>Node26</title>
<g id="a_Node000026"><a xlink:href="../../d4/d7c/deferred-resolve_8cpp.html" target="_top" xlink:title=" ">
<polygon fill="white" stroke="#666666" points="634.68,-290.88 521.93,-290.88 521.93,-260.38 634.68,-260.38 634.68,-290.88"/>
<text text-anchor="start" x="529.93" y="-277.38" font-family="Helvetica,sans-Serif" font-size="10.00">engine/render/deferred</text>
<text text-anchor="middle" x="578.3" y="-266.12" font-family="Helvetica,sans-Serif" font-size="10.00">&#45;resolve.cpp</text>
</a>
</g>
</g>
<!-- Node5&#45;&gt;Node26 -->
<g id="edge34_Node000005_Node000026" class="edge">
<title>Node5&#45;&gt;Node26</title>
<g id="a_edge34_Node000005_Node000026"><a xlink:title=" ">
<path fill="none" stroke="#63b8ff" d="M756.01,-328.97C724.67,-320.11 681.31,-307.75 643.3,-296.5 637.65,-294.83 631.72,-293.05 625.84,-291.27"/>
<polygon fill="#63b8ff" stroke="#63b8ff" points="754.95,-332.31 765.53,-331.65 756.86,-325.57 754.95,-332.31"/>
</a>
</g>
</g>
<!-- Node5&#45;&gt;Node27 -->
<g id="edge35_Node000005_Node000027" class="edge">
<title>Node5&#45;&gt;Node27</title>
<g id="a_edge35_Node000005_Node000027"><a xlink:title=" ">
<path fill="none" stroke="#63b8ff" d="M730.95,-333.72C666.11,-326.18 566.12,-313.25 480.3,-296.5 465.03,-293.52 448.3,-289.43 434.18,-285.74"/>
<polygon fill="#63b8ff" stroke="#63b8ff" points="730.4,-337.18 740.73,-334.84 731.2,-330.22 730.4,-337.18"/>
</a>
</g>
</g>
<!-- Node28 -->
<g id="Node000028" class="node">
<title>Node28</title>
<g id="a_Node000028"><a xlink:href="../../d8/dcb/emissive-render-system_8cpp.html" target="_top" xlink:title=" ">
<polygon fill="white" stroke="#666666" points="782.3,-296.5 652.3,-296.5 652.3,-254.75 782.3,-254.75 782.3,-296.5"/>
<text text-anchor="start" x="660.3" y="-283" font-family="Helvetica,sans-Serif" font-size="10.00">engine/subsystems/render</text>
<text text-anchor="start" x="660.3" y="-271.75" font-family="Helvetica,sans-Serif" font-size="10.00">/detail/emissive&#45;render</text>
<text text-anchor="middle" x="717.3" y="-260.5" font-family="Helvetica,sans-Serif" font-size="10.00">&#45;system.cpp</text>
</a>
</g>
</g>
<!-- Node5&#45;&gt;Node28 -->
<g id="edge38_Node000005_Node000028" class="edge">
<title>Node5&#45;&gt;Node28</title>
<g id="a_edge38_Node000005_Node000028"><a xlink:title=" ">
<path fill="none" stroke="#63b8ff" d="M779.15,-325.27C768.28,-316.72 754.75,-306.08 743.11,-296.93"/>
<polygon fill="#63b8ff" stroke="#63b8ff" points="776.69,-327.79 786.71,-331.22 781.02,-322.29 776.69,-327.79"/>
</a>
</g>
</g>
<!-- Node29 -->
<g id="Node000029" class="node">
<title>Node29</title>
<g id="a_Node000029"><a xlink:href="../../d1/d62/opaque-render-system_8cpp.html" target="_top" xlink:title=" ">
<polygon fill="white" stroke="#666666" points="959.93,-290.88 800.68,-290.88 800.68,-260.38 959.93,-260.38 959.93,-290.88"/>
<text text-anchor="start" x="808.68" y="-277.38" font-family="Helvetica,sans-Serif" font-size="10.00">engine/subsystems/render</text>
<text text-anchor="middle" x="880.3" y="-266.12" font-family="Helvetica,sans-Serif" font-size="10.00">/detail/opaque&#45;render&#45;system.cpp</text>
</a>
</g>
</g>
<!-- Node5&#45;&gt;Node29 -->
<g id="edge39_Node000005_Node000029" class="edge">
<title>Node5&#45;&gt;Node29</title>
<g id="a_edge39_Node000005_Node000029"><a xlink:title=" ">
<path fill="none" stroke="#63b8ff" d="M819.28,-325.22C832.33,-314.82 849.27,-301.34 861.98,-291.22"/>
<polygon fill="#63b8ff" stroke="#63b8ff" points="817.39,-322.25 811.75,-331.21 821.75,-327.72 817.39,-322.25"/>
</a>
</g>
</g>
<!-- Node7 -->
<g id="Node000007" class="node">
<title>Node7</title>
<g id="a_Node000007"><a xlink:href="../../d0/d86/camera-movement_8hpp.html" target="_top" xlink:title=" ">
<polygon fill="white" stroke="#666666" points="1575.05,-85.75 1419.55,-85.75 1419.55,-66.5 1575.05,-66.5 1575.05,-85.75"/>
<text text-anchor="middle" x="1497.3" y="-72.25" font-family="Helvetica,sans-Serif" font-size="10.00">d3d_test/camera&#45;movement.hpp</text>
</a>
</g>
</g>
<!-- Node6&#45;&gt;Node7 -->
<g id="edge6_Node000006_Node000007" class="edge">
<title>Node6&#45;&gt;Node7</title>
<g id="a_edge6_Node000006_Node000007"><a xlink:title=" ">
<path fill="none" stroke="#63b8ff" d="M1078.77,-140.67C1158.98,-132.59 1294.72,-117.39 1410.3,-97 1427.24,-94.01 1445.84,-89.88 1461.49,-86.15"/>
<polygon fill="#63b8ff" stroke="#63b8ff" points="1078.46,-137.19 1068.85,-141.66 1079.15,-144.15 1078.46,-137.19"/>
</a>
</g>
</g>
<!-- Node9 -->
<g id="Node000009" class="node">
<title>Node9</title>
<g id="a_Node000009"><a xlink:href="../../dc/dfb/controller_8hpp.html" target="_top" xlink:title=" ">
<polygon fill="white" stroke="#666666" points="599.43,-85.75 485.18,-85.75 485.18,-66.5 599.43,-66.5 599.43,-85.75"/>
<text text-anchor="middle" x="542.3" y="-72.25" font-family="Helvetica,sans-Serif" font-size="10.00">d3d_test/controller.hpp</text>
</a>
</g>
</g>
<!-- Node6&#45;&gt;Node9 -->
<g id="edge9_Node000006_Node000009" class="edge">
<title>Node6&#45;&gt;Node9</title>
<g id="a_edge9_Node000006_Node000009"><a xlink:title=" ">
<path fill="none" stroke="#63b8ff" d="M939.84,-141.55C860.37,-134.3 726.6,-119.92 613.3,-97 599.25,-94.16 583.9,-90 571.09,-86.22"/>
<polygon fill="#63b8ff" stroke="#63b8ff" points="939.38,-145.02 949.65,-142.43 940,-138.05 939.38,-145.02"/>
</a>
</g>
</g>
<!-- Node10 -->
<g id="Node000010" class="node">
<title>Node10</title>
<g id="a_Node000010"><a xlink:href="../../d9/d0f/main_8cc.html" target="_top" xlink:title=" ">
<polygon fill="white" stroke="#666666" points="541.43,-19.25 451.18,-19.25 451.18,0 541.43,0 541.43,-19.25"/>
<text text-anchor="middle" x="496.3" y="-5.75" font-family="Helvetica,sans-Serif" font-size="10.00">d3d_test/main.cc</text>
</a>
</g>
</g>
<!-- Node6&#45;&gt;Node10 -->
<g id="edge12_Node000006_Node000010" class="edge">
<title>Node6&#45;&gt;Node10</title>
<g id="a_edge12_Node000006_Node000010"><a xlink:title=" ">
<path fill="none" stroke="#63b8ff" d="M939.95,-143.26C849.21,-137.1 695.89,-123.13 646.3,-97 624.11,-85.3 628.93,-69.54 608.3,-55.25 584.39,-38.68 553.42,-26.95 530.11,-19.69"/>
<polygon fill="#63b8ff" stroke="#63b8ff" points="939.52,-146.74 949.73,-143.91 939.98,-139.76 939.52,-146.74"/>
</a>
</g>
</g>
<!-- Node11 -->
<g id="Node000011" class="node">
<title>Node11</title>
<g id="a_Node000011"><a xlink:href="../../da/df5/object-editor_8hpp.html" target="_top" xlink:title=" ">
<polygon fill="white" stroke="#666666" points="783.18,-85.75 655.43,-85.75 655.43,-66.5 783.18,-66.5 783.18,-85.75"/>
<text text-anchor="middle" x="719.3" y="-72.25" font-family="Helvetica,sans-Serif" font-size="10.00">d3d_test/object&#45;editor.hpp</text>
</a>
</g>
</g>
<!-- Node6&#45;&gt;Node11 -->
<g id="edge13_Node000006_Node000011" class="edge">
<title>Node6&#45;&gt;Node11</title>
<g id="a_edge13_Node000006_Node000011"><a xlink:title=" ">
<path fill="none" stroke="#63b8ff" d="M956.98,-135.72C912.94,-125.88 848.36,-111.12 792.3,-97 778.93,-93.63 764.24,-89.68 751.58,-86.2"/>
<polygon fill="#63b8ff" stroke="#63b8ff" points="955.99,-139.09 966.52,-137.85 957.52,-132.26 955.99,-139.09"/>
</a>
</g>
</g>
<!-- Node14 -->
<g id="Node000014" class="node">
<title>Node14</title>
<g id="a_Node000014"><a xlink:href="../../d9/d55/scene-viewer_8hpp.html" target="_top" xlink:title=" ">
<polygon fill="white" stroke="#666666" points="933.43,-85.75 801.18,-85.75 801.18,-66.5 933.43,-66.5 933.43,-85.75"/>
<text text-anchor="middle" x="867.3" y="-72.25" font-family="Helvetica,sans-Serif" font-size="10.00">d3d_test/scene&#45;viewer.hpp</text>
</a>
</g>
</g>
<!-- Node6&#45;&gt;Node14 -->
<g id="edge17_Node000006_Node000014" class="edge">
<title>Node6&#45;&gt;Node14</title>
<g id="a_edge17_Node000006_Node000014"><a xlink:title=" ">
<path fill="none" stroke="#63b8ff" d="M980.92,-133.23C952.51,-119.2 909.65,-98.04 885.51,-86.11"/>
<polygon fill="#63b8ff" stroke="#63b8ff" points="979.16,-136.27 989.67,-137.56 982.26,-129.99 979.16,-136.27"/>
</a>
</g>
</g>
<!-- Node15 -->
<g id="Node000015" class="node">
<title>Node15</title>
<g id="a_Node000015"><a xlink:href="../../da/d5c/engine_8cpp.html" target="_top" xlink:title=" ">
<polygon fill="white" stroke="#666666" points="1067.18,-85.75 951.43,-85.75 951.43,-66.5 1067.18,-66.5 1067.18,-85.75"/>
<text text-anchor="middle" x="1009.3" y="-72.25" font-family="Helvetica,sans-Serif" font-size="10.00">engine/core/engine.cpp</text>
</a>
</g>
</g>
<!-- Node6&#45;&gt;Node15 -->
<g id="edge19_Node000006_Node000015" class="edge">
<title>Node6&#45;&gt;Node15</title>
<g id="a_edge19_Node000006_Node000015"><a xlink:title=" ">
<path fill="none" stroke="#63b8ff" d="M1009.3,-126.87C1009.3,-113.39 1009.3,-96.39 1009.3,-86.16"/>
<polygon fill="#63b8ff" stroke="#63b8ff" points="1005.8,-126.86 1009.3,-136.86 1012.8,-126.86 1005.8,-126.86"/>
</a>
</g>
</g>
<!-- Node16 -->
<g id="Node000016" class="node">
<title>Node16</title>
<g id="a_Node000016"><a xlink:href="../../d1/da2/deferred-hdr-render-pipeline_8cpp.html" target="_top" xlink:title=" ">
<polygon fill="white" stroke="#666666" points="466.68,-91.38 335.93,-91.38 335.93,-60.88 466.68,-60.88 466.68,-91.38"/>
<text text-anchor="start" x="343.93" y="-77.88" font-family="Helvetica,sans-Serif" font-size="10.00">engine/direct3d11/deferred</text>
<text text-anchor="middle" x="401.3" y="-66.62" font-family="Helvetica,sans-Serif" font-size="10.00">&#45;hdr&#45;render&#45;pipeline.cpp</text>
</a>
</g>
</g>
<!-- Node6&#45;&gt;Node16 -->
<g id="edge20_Node000006_Node000016" class="edge">
<title>Node6&#45;&gt;Node16</title>
<g id="a_edge20_Node000006_Node000016"><a xlink:title=" ">
<path fill="none" stroke="#63b8ff" d="M939.92,-144.37C837.73,-139.3 641.06,-126.39 476.3,-97 468.48,-95.6 460.28,-93.8 452.29,-91.84"/>
<polygon fill="#63b8ff" stroke="#63b8ff" points="939.63,-147.86 949.79,-144.84 939.97,-140.86 939.63,-147.86"/>
</a>
</g>
</g>
<!-- Node6&#45;&gt;Node17 -->
<g id="edge21_Node000006_Node000017" class="edge">
<title>Node6&#45;&gt;Node17</title>
<g id="a_edge21_Node000006_Node000017"><a xlink:title=" ">
<path fill="none" stroke="#63b8ff" d="M939.86,-145.71C816.09,-142.17 549.51,-130.95 327.3,-97 318.31,-95.63 308.87,-93.81 299.68,-91.82"/>
<polygon fill="#63b8ff" stroke="#63b8ff" points="939.42,-149.2 949.51,-145.98 939.61,-142.2 939.42,-149.2"/>
</a>
</g>
</g>
<!-- Node6&#45;&gt;Node18 -->
<g id="edge22_Node000006_Node000018" class="edge">
<title>Node6&#45;&gt;Node18</title>
<g id="a_edge22_Node000006_Node000018"><a xlink:title=" ">
<path fill="none" stroke="#63b8ff" d="M1078.71,-145.11C1187.3,-140.87 1403.64,-128.9 1584.3,-97 1587.18,-96.49 1590.12,-95.92 1593.07,-95.31"/>
<polygon fill="#63b8ff" stroke="#63b8ff" points="1078.65,-141.61 1068.79,-145.48 1078.91,-148.6 1078.65,-141.61"/>
</a>
</g>
</g>
<!-- Node6&#45;&gt;Node19 -->
<g id="edge23_Node000006_Node000019" class="edge">
<title>Node6&#45;&gt;Node19</title>
<g id="a_edge23_Node000006_Node000019"><a xlink:title=" ">
<path fill="none" stroke="#63b8ff" d="M939.59,-147.92C793.5,-148.26 444.97,-143.62 157.3,-97 154.41,-96.53 151.48,-96 148.52,-95.41"/>
<polygon fill="#63b8ff" stroke="#63b8ff" points="939.5,-151.42 949.49,-147.88 939.48,-144.42 939.5,-151.42"/>
</a>
</g>
</g>
<!-- Node20 -->
<g id="Node000020" class="node">
<title>Node20</title>
<g id="a_Node000020"><a xlink:href="../../df/d58/grass-render-system_8cpp.html" target="_top" xlink:title=" ">
<polygon fill="white" stroke="#666666" points="1237.18,-91.38 1085.43,-91.38 1085.43,-60.88 1237.18,-60.88 1237.18,-91.38"/>
<text text-anchor="start" x="1093.43" y="-77.88" font-family="Helvetica,sans-Serif" font-size="10.00">engine/subsystems/render</text>
<text text-anchor="middle" x="1161.3" y="-66.62" font-family="Helvetica,sans-Serif" font-size="10.00">/detail/grass&#45;render&#45;system.cpp</text>
</a>
</g>
</g>
<!-- Node6&#45;&gt;Node20 -->
<g id="edge24_Node000006_Node000020" class="edge">
<title>Node6&#45;&gt;Node20</title>
<g id="a_edge24_Node000006_Node000020"><a xlink:title=" ">
<path fill="none" stroke="#63b8ff" d="M1039.23,-133.44C1065.23,-121.45 1102.79,-104.12 1129.36,-91.86"/>
<polygon fill="#63b8ff" stroke="#63b8ff" points="1037.85,-130.22 1030.24,-137.59 1040.78,-136.58 1037.85,-130.22"/>
</a>
</g>
</g>
<!-- Node21 -->
<g id="Node000021" class="node">
<title>Node21</title>
<g id="a_Node000021"><a xlink:href="../../d8/d9c/light-render-system_8cpp.html" target="_top" xlink:title=" ">
<polygon fill="white" stroke="#666666" points="1401.18,-91.38 1255.43,-91.38 1255.43,-60.88 1401.18,-60.88 1401.18,-91.38"/>
<text text-anchor="start" x="1263.43" y="-77.88" font-family="Helvetica,sans-Serif" font-size="10.00">engine/subsystems/render</text>
<text text-anchor="middle" x="1328.3" y="-66.62" font-family="Helvetica,sans-Serif" font-size="10.00">/detail/light&#45;render&#45;system.cpp</text>
</a>
</g>
</g>
<!-- Node6&#45;&gt;Node21 -->
<g id="edge25_Node000006_Node000021" class="edge">
<title>Node6&#45;&gt;Node21</title>
<g id="a_edge25_Node000006_Node000021"><a xlink:title=" ">
<path fill="none" stroke="#63b8ff" d="M1065.04,-135.9C1113.13,-126 1184.41,-111.06 1246.3,-97 1253.45,-95.38 1260.93,-93.63 1268.34,-91.87"/>
<polygon fill="#63b8ff" stroke="#63b8ff" points="1064.51,-132.44 1055.42,-137.88 1065.92,-139.3 1064.51,-132.44"/>
</a>
</g>
</g>
<!-- Node6&#45;&gt;Node22 -->
<g id="edge26_Node000006_Node000022" class="edge">
<title>Node6&#45;&gt;Node22</title>
<g id="a_edge26_Node000006_Node000022"><a xlink:title=" ">
<path fill="none" stroke="#63b8ff" d="M1078.67,-146.86C1208.07,-145.17 1494.69,-136.78 1732.3,-97 1735.19,-96.52 1738.13,-95.97 1741.08,-95.37"/>
<polygon fill="#63b8ff" stroke="#63b8ff" points="1078.85,-143.36 1068.9,-146.98 1078.94,-150.36 1078.85,-143.36"/>
</a>
</g>
</g>
<!-- Node7&#45;&gt;Node4 -->
<g id="edge8_Node000007_Node000004" class="edge">
<title>Node7&#45;&gt;Node4</title>
<g id="a_edge8_Node000007_Node000004"><a xlink:title=" ">
<path fill="none" stroke="#63b8ff" d="M1451.2,-63.37C1438.06,-60.35 1423.68,-57.37 1410.3,-55.25 1251.9,-30.18 1062.76,-18.05 969.75,-13.24"/>
<polygon fill="#63b8ff" stroke="#63b8ff" points="1450.37,-66.77 1460.91,-65.66 1451.98,-59.96 1450.37,-66.77"/>
</a>
</g>
</g>
<!-- Node8 -->
<g id="Node000008" class="node">
<title>Node8</title>
<g id="a_Node000008"><a xlink:href="../../d5/dbb/camera-movement_8cpp.html" target="_top" xlink:title=" ">
<polygon fill="white" stroke="#666666" points="1575.05,-19.25 1419.55,-19.25 1419.55,0 1575.05,0 1575.05,-19.25"/>
<text text-anchor="middle" x="1497.3" y="-5.75" font-family="Helvetica,sans-Serif" font-size="10.00">d3d_test/camera&#45;movement.cpp</text>
</a>
</g>
</g>
<!-- Node7&#45;&gt;Node8 -->
<g id="edge7_Node000007_Node000008" class="edge">
<title>Node7&#45;&gt;Node8</title>
<g id="a_edge7_Node000007_Node000008"><a xlink:title=" ">
<path fill="none" stroke="#63b8ff" d="M1497.3,-54.65C1497.3,-42.82 1497.3,-28.54 1497.3,-19.52"/>
<polygon fill="#63b8ff" stroke="#63b8ff" points="1493.8,-54.64 1497.3,-64.64 1500.8,-54.64 1493.8,-54.64"/>
</a>
</g>
</g>
<!-- Node9&#45;&gt;Node4 -->
<g id="edge10_Node000009_Node000004" class="edge">
<title>Node9&#45;&gt;Node4</title>
<g id="a_edge10_Node000009_Node000004"><a xlink:title=" ">
<path fill="none" stroke="#63b8ff" d="M599.87,-63.88C614.97,-61 631.24,-57.95 646.3,-55.25 718.43,-42.31 801.78,-28.51 855.68,-19.74"/>
<polygon fill="#63b8ff" stroke="#63b8ff" points="599.24,-60.44 590.08,-65.76 600.56,-67.31 599.24,-60.44"/>
</a>
</g>
</g>
<!-- Node9&#45;&gt;Node10 -->
<g id="edge11_Node000009_Node000010" class="edge">
<title>Node9&#45;&gt;Node10</title>
<g id="a_edge11_Node000009_Node000010"><a xlink:title=" ">
<path fill="none" stroke="#63b8ff" d="M529.29,-56.88C520.58,-44.66 509.49,-29.11 502.64,-19.52"/>
<polygon fill="#63b8ff" stroke="#63b8ff" points="526.37,-58.81 535.03,-64.92 532.07,-54.75 526.37,-58.81"/>
</a>
</g>
</g>
<!-- Node11&#45;&gt;Node4 -->
<g id="edge14_Node000011_Node000004" class="edge">
<title>Node11&#45;&gt;Node4</title>
<g id="a_edge14_Node000011_Node000004"><a xlink:title=" ">
<path fill="none" stroke="#63b8ff" d="M757.11,-62.49C794.81,-49.89 851.79,-30.85 885.2,-19.68"/>
<polygon fill="#63b8ff" stroke="#63b8ff" points="756.36,-59.05 747.98,-65.54 758.57,-65.69 756.36,-59.05"/>
</a>
</g>
</g>
<!-- Node12 -->
<g id="Node000012" class="node">
<title>Node12</title>
<g id="a_Node000012"><a xlink:href="../../d4/d94/object-editor_8cpp.html" target="_top" xlink:title=" ">
<polygon fill="white" stroke="#666666" points="687.18,-19.25 559.43,-19.25 559.43,0 687.18,0 687.18,-19.25"/>
<text text-anchor="middle" x="623.3" y="-5.75" font-family="Helvetica,sans-Serif" font-size="10.00">d3d_test/object&#45;editor.cpp</text>
</a>
</g>
</g>
<!-- Node11&#45;&gt;Node12 -->
<g id="edge15_Node000011_Node000012" class="edge">
<title>Node11&#45;&gt;Node12</title>
<g id="a_edge15_Node000011_Node000012"><a xlink:title=" ">
<path fill="none" stroke="#63b8ff" d="M696.47,-59.78C677.9,-47.31 652.32,-30.12 636.85,-19.73"/>
<polygon fill="#63b8ff" stroke="#63b8ff" points="694.45,-62.64 704.7,-65.31 698.35,-56.83 694.45,-62.64"/>
</a>
</g>
</g>
<!-- Node13 -->
<g id="Node000013" class="node">
<title>Node13</title>
<g id="a_Node000013"><a xlink:href="../../d0/d38/scene-viewer_8cpp.html" target="_top" xlink:title=" ">
<polygon fill="white" stroke="#666666" points="837.43,-19.25 705.18,-19.25 705.18,0 837.43,0 837.43,-19.25"/>
<text text-anchor="middle" x="771.3" y="-5.75" font-family="Helvetica,sans-Serif" font-size="10.00">d3d_test/scene&#45;viewer.cpp</text>
</a>
</g>
</g>
<!-- Node11&#45;&gt;Node13 -->
<g id="edge16_Node000011_Node000013" class="edge">
<title>Node11&#45;&gt;Node13</title>
<g id="a_edge16_Node000011_Node000013"><a xlink:title=" ">
<path fill="none" stroke="#63b8ff" d="M733.72,-57.24C743.61,-44.97 756.32,-29.21 764.13,-19.52"/>
<polygon fill="#63b8ff" stroke="#63b8ff" points="731.03,-55 727.48,-64.98 736.48,-59.39 731.03,-55"/>
</a>
</g>
</g>
<!-- Node14&#45;&gt;Node4 -->
<g id="edge18_Node000014_Node000004" class="edge">
<title>Node14&#45;&gt;Node4</title>
<g id="a_edge18_Node000014_Node000004"><a xlink:title=" ">
<path fill="none" stroke="#63b8ff" d="M880.03,-56.88C888.56,-44.66 899.4,-29.11 906.1,-19.52"/>
<polygon fill="#63b8ff" stroke="#63b8ff" points="877.28,-54.71 874.43,-64.92 883.02,-58.72 877.28,-54.71"/>
</a>
</g>
</g>
<!-- Node24 -->
<g id="Node000024" class="node">
<title>Node24</title>
<g id="a_Node000024"><a xlink:href="../../d4/d87/layers_8hpp.html" target="_top" xlink:title=" ">
<polygon fill="white" stroke="#666666" points="1071.68,-218.75 958.93,-218.75 958.93,-199.5 1071.68,-199.5 1071.68,-218.75"/>
<text text-anchor="middle" x="1015.3" y="-205.25" font-family="Helvetica,sans-Serif" font-size="10.00">engine/core/layers.hpp</text>
</a>
</g>
</g>
<!-- Node23&#45;&gt;Node24 -->
<g id="edge28_Node000023_Node000024" class="edge">
<title>Node23&#45;&gt;Node24</title>
<g id="a_edge28_Node000023_Node000024"><a xlink:title=" ">
<path fill="none" stroke="#63b8ff" d="M1023.08,-248.71C1020.95,-238.14 1018.63,-226.62 1017.08,-218.95"/>
<polygon fill="#63b8ff" stroke="#63b8ff" points="1019.65,-249.39 1025.05,-258.51 1026.51,-248.01 1019.65,-249.39"/>
</a>
</g>
</g>
<!-- Node23&#45;&gt;Node25 -->
<g id="edge30_Node000023_Node000025" class="edge">
<title>Node23&#45;&gt;Node25</title>
<g id="a_edge30_Node000023_Node000025"><a xlink:title=" ">
<path fill="none" stroke="#63b8ff" d="M976.26,-256.65C973.92,-255.98 971.59,-255.34 969.3,-254.75 789.96,-208.14 573.65,-173.86 467.13,-158.39"/>
<polygon fill="#63b8ff" stroke="#63b8ff" points="975.23,-260 985.82,-259.54 977.25,-253.3 975.23,-260"/>
</a>
</g>
</g>
<!-- Node24&#45;&gt;Node6 -->
<g id="edge29_Node000024_Node000006" class="edge">
<title>Node24&#45;&gt;Node6</title>
<g id="a_edge29_Node000024_Node000006"><a xlink:title=" ">
<path fill="none" stroke="#63b8ff" d="M1013.26,-188.03C1012.22,-177.92 1011.03,-166.17 1010.22,-158.28"/>
<polygon fill="#63b8ff" stroke="#63b8ff" points="1009.74,-188.08 1014.24,-197.68 1016.71,-187.37 1009.74,-188.08"/>
</a>
</g>
</g>
<!-- Node25&#45;&gt;Node9 -->
<g id="edge31_Node000025_Node000009" class="edge">
<title>Node25&#45;&gt;Node9</title>
<g id="a_edge31_Node000025_Node000009"><a xlink:title=" ">
<path fill="none" stroke="#63b8ff" d="M440.88,-127.57C468.11,-114.02 503.02,-96.66 523.98,-86.24"/>
<polygon fill="#63b8ff" stroke="#63b8ff" points="439.61,-124.29 432.22,-131.88 442.73,-130.56 439.61,-124.29"/>
</a>
</g>
</g>
<!-- Node25&#45;&gt;Node10 -->
<g id="edge32_Node000025_Node000010" class="edge">
<title>Node25&#45;&gt;Node10</title>
<g id="a_edge32_Node000025_Node000010"><a xlink:title=" ">
<path fill="none" stroke="#63b8ff" d="M324.66,-142.79C216.47,-135.71 29.77,-120.26 9.3,-97 -2.96,-83.07 -3.2,-68.96 9.3,-55.25 38.74,-22.99 335.44,-13.76 450.78,-11.38"/>
<polygon fill="#63b8ff" stroke="#63b8ff" points="324.12,-146.27 334.33,-143.42 324.57,-139.28 324.12,-146.27"/>
</a>
</g>
</g>
<!-- Node25&#45;&gt;Node16 -->
<g id="edge33_Node000025_Node000016" class="edge">
<title>Node25&#45;&gt;Node16</title>
<g id="a_edge33_Node000025_Node000016"><a xlink:title=" ">
<path fill="none" stroke="#63b8ff" d="M401.3,-121.27C401.3,-111.26 401.3,-100.19 401.3,-91.64"/>
<polygon fill="#63b8ff" stroke="#63b8ff" points="397.8,-121.21 401.3,-131.21 404.8,-121.21 397.8,-121.21"/>
</a>
</g>
</g>
<!-- Node31&#45;&gt;Node3 -->
<g id="edge46_Node000031_Node000003" class="edge">
<title>Node31&#45;&gt;Node3</title>
<g id="a_edge46_Node000031_Node000003"><a xlink:title=" ">
<path fill="none" stroke="#63b8ff" d="M848.47,-438.11C823.72,-427.32 796.25,-415.35 778,-407.39"/>
<polygon fill="#63b8ff" stroke="#63b8ff" points="846.93,-441.25 857.49,-442.04 849.72,-434.84 846.93,-441.25"/>
</a>
</g>
</g>
<!-- Node31&#45;&gt;Node22 -->
<g id="edge47_Node000031_Node000022" class="edge">
<title>Node31&#45;&gt;Node22</title>
<g id="a_edge47_Node000031_Node000022"><a xlink:title=" ">
<path fill="none" stroke="#63b8ff" d="M982.09,-461.29C1209.09,-455.6 1861.3,-431.55 1861.3,-343.12 1861.3,-343.12 1861.3,-343.12 1861.3,-208.12 1861.3,-166.19 1837.05,-122.18 1820.75,-97.35"/>
<polygon fill="#63b8ff" stroke="#63b8ff" points="982.06,-457.79 972.15,-461.53 982.23,-464.79 982.06,-457.79"/>
</a>
</g>
</g>
</g>
</svg>

<g id="navigator" transform="translate(0 0)" fill="#404254">
  <rect fill="#f2f5e9" fill-opacity="0.5" stroke="#606060" stroke-width=".5" x="0" y="0" width="60" height="60"/>
  <use id="zoomplus" xlink:href="#zoomPlus" x="17" y="9" onmousedown="handleZoom(evt,'in')"/>
  <use id="zoomminus" xlink:href="#zoomMin" x="42" y="9" onmousedown="handleZoom(evt,'out')"/>
  <use id="reset" xlink:href="#resetDef" x="30" y="36" onmousedown="handleReset()"/>
   <use id="arrowup" xlink:href="#arrowUp" x="0" y="0" onmousedown="handlePan(0,-1)"/>
  <use id="arrowright" xlink:href="#arrowRight" x="0" y="0" onmousedown="handlePan(1,0)"/>
  <use id="arrowdown" xlink:href="#arrowDown" x="0" y="0" onmousedown="handlePan(0,1)"/>
  <use id="arrowleft" xlink:href="#arrowLeft" x="0" y="0" onmousedown="handlePan(-1,0)"/>
</g>
<svg viewBox="0 0 15 15" width="100%" height="30px" preserveAspectRatio="xMaxYMin meet">
 <g id="arrow_out" transform="scale(0.3 0.3)">
  <a xlink:href="sort-lib_8hpp__dep__incl_org.svg" target="_base">
   <rect id="button" ry="5" rx="5" y="6" x="6" height="38" width="38"
        fill="#f2f5e9" fill-opacity="0.5" stroke="#606060" stroke-width="1.0"/>
   <path id="arrow"
     d="M 11.500037,31.436501 C 11.940474,20.09759 22.043105,11.32322 32.158766,21.979434 L 37.068811,17.246167 C 37.068811,17.246167 37.088388,32 37.088388,32 L 22.160133,31.978069 C 22.160133,31.978069 26.997745,27.140456 26.997745,27.140456 C 18.528582,18.264221 13.291696,25.230495 11.500037,31.436501 z"
     style="fill:#404040;"/>
  </a>
 </g>
</svg>

<style type='text/css'>
<![CDATA[
[data-mouse-over-selected='false'] { opacity: 0.7; }
[data-mouse-over-selected='true']  { opacity: 1.0; }
]]>
</style>
<script type="application/ecmascript"><![CDATA[
document.addEventListener('DOMContentLoaded', (event) => {
  highlightEdges();
  highlightAdjacentNodes();
});
]]></script>
</svg>
