<?xml version="1.0" encoding="UTF-8" standalone="no"?>
<!DOCTYPE svg PUBLIC "-//W3C//DTD SVG 1.1//EN"
 "http://www.w3.org/Graphics/SVG/1.1/DTD/svg11.dtd">
<!-- Generated by graphviz version 9.0.0 (20230911.1827)
 -->
<!-- Title: engine::render::PostProcessingLayer::HandleProcess Pages: 1 -->
<svg width="328pt" height="94pt"
 viewBox="0.00 0.00 328.38 93.75" xmlns="http://www.w3.org/2000/svg" xmlns:xlink="http://www.w3.org/1999/xlink">
<g id="graph0" class="graph" transform="scale(1 1) rotate(0) translate(4 89.75)">
<title>engine::render::PostProcessingLayer::HandleProcess</title>
<!-- Node1 -->
<g id="Node000001" class="node">
<title>Node1</title>
<g id="a_Node000001"><a xlink:title=" ">
<polygon fill="#999999" stroke="#666666" points="235.38,-85.75 85.88,-85.75 85.88,-55.25 235.38,-55.25 235.38,-85.75"/>
<text text-anchor="start" x="93.88" y="-72.25" font-family="Helvetica,sans-Serif" font-size="10.00">engine::render::PostProcessing</text>
<text text-anchor="middle" x="160.62" y="-61" font-family="Helvetica,sans-Serif" font-size="10.00">Layer::HandleProcess</text>
</a>
</g>
</g>
<!-- Node2 -->
<g id="Node000002" class="node">
<title>Node2</title>
<g id="a_Node000002"><a xlink:href="../../dd/d52/classengine_1_1render_1_1_h_d_rto_l_d_r_layer.html" target="_top" xlink:title=" ">
<polygon fill="white" stroke="#666666" points="153.25,-19.25 0,-19.25 0,0 153.25,0 153.25,-19.25"/>
<text text-anchor="middle" x="76.62" y="-5.75" font-family="Helvetica,sans-Serif" font-size="10.00">engine::render::HDRtoLDRLayer</text>
</a>
</g>
</g>
<!-- Node1&#45;&gt;Node2 -->
<g id="edge1_Node000001_Node000002" class="edge">
<title>Node1&#45;&gt;Node2</title>
<g id="a_edge1_Node000001_Node000002"><a xlink:title=" ">
<path fill="none" stroke="#63b8ff" d="M130.52,-48.4C116.46,-38.55 100.46,-27.33 89.57,-19.7"/>
<polygon fill="#63b8ff" stroke="#63b8ff" points="128.42,-51.2 138.62,-54.08 132.44,-45.47 128.42,-51.2"/>
</a>
</g>
</g>
<!-- Node3 -->
<g id="Node000003" class="node">
<title>Node3</title>
<g id="a_Node000003"><a xlink:href="../../df/df1/classengine_1_1render_1_1_post_processing.html" target="_top" xlink:title=" ">
<polygon fill="white" stroke="#666666" points="320.38,-19.25 170.88,-19.25 170.88,0 320.38,0 320.38,-19.25"/>
<text text-anchor="middle" x="245.62" y="-5.75" font-family="Helvetica,sans-Serif" font-size="10.00">engine::render::PostProcessing</text>
</a>
</g>
</g>
<!-- Node1&#45;&gt;Node3 -->
<g id="edge2_Node000001_Node000003" class="edge">
<title>Node1&#45;&gt;Node3</title>
<g id="a_edge2_Node000001_Node000003"><a xlink:title=" ">
<path fill="none" stroke="#63b8ff" d="M191.08,-48.4C205.31,-38.55 221.5,-27.33 232.52,-19.7"/>
<polygon fill="#63b8ff" stroke="#63b8ff" points="189.11,-45.51 182.88,-54.08 193.09,-51.27 189.11,-45.51"/>
</a>
</g>
</g>
</g>
</svg>
