<?xml version="1.0" encoding="UTF-8" standalone="no"?>
<!DOCTYPE svg PUBLIC "-//W3C//DTD SVG 1.1//EN"
 "http://www.w3.org/Graphics/SVG/1.1/DTD/svg11.dtd">
<!-- Generated by graphviz version 8.1.0 (20230707.0739)
 -->
<!-- Title: engine::core::LayerStack Pages: 1 -->
<svg width="597pt" height="272pt"
 viewBox="0.00 0.00 597.00 271.88" xmlns="http://www.w3.org/2000/svg" xmlns:xlink="http://www.w3.org/1999/xlink">
<g id="graph0" class="graph" transform="scale(1 1) rotate(0) translate(4 267.88)">
<title>engine::core::LayerStack</title>
<!-- Node1 -->
<g id="Node000001" class="node">
<title>Node1</title>
<g id="a_Node000001"><a xlink:title=" ">
<polygon fill="#999999" stroke="#666666" points="254.75,-146.88 133,-146.88 133,-127.62 254.75,-127.62 254.75,-146.88"/>
<text text-anchor="middle" x="193.88" y="-133.38" font-family="Helvetica,sans-Serif" font-size="10.00">engine::core::LayerStack</text>
</a>
</g>
</g>
<!-- Node8 -->
<g id="Node000008" class="node">
<title>Node8</title>
<g id="a_Node000008"><a xlink:href="../../d2/d5c/classengine_1_1core_1_1_layer_stack_threadsafe.html" target="_top" xlink:title=" ">
<polygon fill="white" stroke="#666666" points="420.38,-174.5 298.62,-174.5 298.62,-144 420.38,-144 420.38,-174.5"/>
<text text-anchor="start" x="306.62" y="-161" font-family="Helvetica,sans-Serif" font-size="10.00">engine::core::LayerStack</text>
<text text-anchor="middle" x="359.5" y="-149.75" font-family="Helvetica,sans-Serif" font-size="10.00">Threadsafe</text>
</a>
</g>
</g>
<!-- Node1&#45;&gt;Node8 -->
<g id="edge7_Node000001_Node000008" class="edge">
<title>Node1&#45;&gt;Node8</title>
<g id="a_edge7_Node000001_Node000008"><a xlink:title=" ">
<path fill="none" stroke="#8b1a1a" d="M265.62,-146.76C276.49,-148.22 287.62,-149.72 298.23,-151.15"/>
<polygon fill="#8b1a1a" stroke="#8b1a1a" points="266.25,-143.18 255.87,-145.32 265.32,-150.12 266.25,-143.18"/>
</a>
</g>
</g>
<!-- Node10 -->
<g id="Node000010" class="node">
<title>Node10</title>
<g id="a_Node000010"><a xlink:href="../../d9/d15/classengine_1_1core_1_1_render_pipeline.html" target="_top" xlink:title=" ">
<polygon fill="white" stroke="#666666" points="428.25,-125.88 290.75,-125.88 290.75,-106.62 428.25,-106.62 428.25,-125.88"/>
<text text-anchor="middle" x="359.5" y="-112.38" font-family="Helvetica,sans-Serif" font-size="10.00">engine::core::RenderPipeline</text>
</a>
</g>
</g>
<!-- Node1&#45;&gt;Node10 -->
<g id="edge9_Node000001_Node000010" class="edge">
<title>Node1&#45;&gt;Node10</title>
<g id="a_edge9_Node000001_Node000010"><a xlink:title=" ">
<path fill="none" stroke="#63b8ff" d="M265.61,-128.17C273.86,-127.11 282.27,-126.03 290.49,-124.98"/>
<polygon fill="#63b8ff" stroke="#63b8ff" points="265.35,-124.81 255.87,-129.55 266.24,-131.75 265.35,-124.81"/>
</a>
</g>
</g>
<!-- Node2 -->
<g id="Node000002" class="node">
<title>Node2</title>
<g id="a_Node000002"><a xlink:href="../../d0/d04/classengine_1_1core_1_1_layer.html" target="_top" xlink:title=" ">
<polygon fill="white" stroke="#666666" points="96.62,-263.88 0.38,-263.88 0.38,-244.62 96.62,-244.62 96.62,-263.88"/>
<text text-anchor="middle" x="48.5" y="-250.38" font-family="Helvetica,sans-Serif" font-size="10.00">engine::core::Layer</text>
</a>
</g>
</g>
<!-- Node2&#45;&gt;Node1 -->
<g id="edge1_Node000001_Node000002" class="edge">
<title>Node2&#45;&gt;Node1</title>
<g id="a_edge1_Node000001_Node000002"><a xlink:title=" ">
<path fill="none" stroke="#63b8ff" d="M89.86,-239.51C92.34,-238.18 94.74,-236.76 97,-235.25 135.41,-209.62 170.66,-166.56 185.49,-147.2"/>
<polygon fill="#63b8ff" stroke="#63b8ff" points="88.6,-236.72 81.1,-244.2 91.63,-243.03 88.6,-236.72"/>
</a>
</g>
</g>
<!-- Node3 -->
<g id="Node000003" class="node">
<title>Node3</title>
<g id="a_Node000003"><a xlink:href="../../dd/dd4/structengine_1_1core_1_1_layer_1_1_handle_event.html" target="_top" xlink:title=" ">
<polygon fill="white" stroke="#666666" points="96.62,-226.5 0.38,-226.5 0.38,-196 96.62,-196 96.62,-226.5"/>
<text text-anchor="start" x="8.38" y="-213" font-family="Helvetica,sans-Serif" font-size="10.00">engine::core::Layer</text>
<text text-anchor="middle" x="48.5" y="-201.75" font-family="Helvetica,sans-Serif" font-size="10.00">::HandleEvent</text>
</a>
</g>
</g>
<!-- Node3&#45;&gt;Node1 -->
<g id="edge2_Node000001_Node000003" class="edge">
<title>Node3&#45;&gt;Node1</title>
<g id="a_edge2_Node000001_Node000003"><a xlink:title=" ">
<path fill="none" stroke="#63b8ff" d="M89.61,-190.55C117.01,-176.41 152.09,-158.3 173.5,-147.25"/>
<polygon fill="#63b8ff" stroke="#63b8ff" points="88.19,-187.86 80.91,-195.56 91.4,-194.08 88.19,-187.86"/>
</a>
</g>
</g>
<!-- Node4 -->
<g id="Node000004" class="node">
<title>Node4</title>
<g id="a_Node000004"><a xlink:href="../../d5/d41/structengine_1_1core_1_1_layer_1_1_handle_update.html" target="_top" xlink:title=" ">
<polygon fill="white" stroke="#666666" points="96.62,-177.5 0.38,-177.5 0.38,-147 96.62,-147 96.62,-177.5"/>
<text text-anchor="start" x="8.38" y="-164" font-family="Helvetica,sans-Serif" font-size="10.00">engine::core::Layer</text>
<text text-anchor="middle" x="48.5" y="-152.75" font-family="Helvetica,sans-Serif" font-size="10.00">::HandleUpdate</text>
</a>
</g>
</g>
<!-- Node4&#45;&gt;Node1 -->
<g id="edge3_Node000001_Node000004" class="edge">
<title>Node4&#45;&gt;Node1</title>
<g id="a_edge3_Node000001_Node000004"><a xlink:title=" ">
<path fill="none" stroke="#63b8ff" d="M107.61,-152.12C116.59,-150.55 125.86,-148.94 134.84,-147.37"/>
<polygon fill="#63b8ff" stroke="#63b8ff" points="107.09,-148.83 97.84,-153.99 108.3,-155.72 107.09,-148.83"/>
</a>
</g>
</g>
<!-- Node5 -->
<g id="Node000005" class="node">
<title>Node5</title>
<g id="a_Node000005"><a xlink:href="../../d1/df2/structengine_1_1core_1_1_layer_1_1_handle_render.html" target="_top" xlink:title=" ">
<polygon fill="white" stroke="#666666" points="96.62,-128.5 0.38,-128.5 0.38,-98 96.62,-98 96.62,-128.5"/>
<text text-anchor="start" x="8.38" y="-115" font-family="Helvetica,sans-Serif" font-size="10.00">engine::core::Layer</text>
<text text-anchor="middle" x="48.5" y="-103.75" font-family="Helvetica,sans-Serif" font-size="10.00">::HandleRender</text>
</a>
</g>
</g>
<!-- Node5&#45;&gt;Node1 -->
<g id="edge4_Node000001_Node000005" class="edge">
<title>Node5&#45;&gt;Node1</title>
<g id="a_edge4_Node000001_Node000005"><a xlink:title=" ">
<path fill="none" stroke="#63b8ff" d="M107.5,-122.96C115.75,-124.34 124.25,-125.76 132.54,-127.15"/>
<polygon fill="#63b8ff" stroke="#63b8ff" points="108.28,-119.37 97.84,-121.18 107.13,-126.28 108.28,-119.37"/>
</a>
</g>
</g>
<!-- Node6 -->
<g id="Node000006" class="node">
<title>Node6</title>
<g id="a_Node000006"><a xlink:href="../../da/d57/structengine_1_1core_1_1_layer_1_1_handle_gui_render.html" target="_top" xlink:title=" ">
<polygon fill="white" stroke="#666666" points="97,-79.5 0,-79.5 0,-49 97,-49 97,-79.5"/>
<text text-anchor="start" x="8" y="-66" font-family="Helvetica,sans-Serif" font-size="10.00">engine::core::Layer</text>
<text text-anchor="middle" x="48.5" y="-54.75" font-family="Helvetica,sans-Serif" font-size="10.00">::HandleGuiRender</text>
</a>
</g>
</g>
<!-- Node6&#45;&gt;Node1 -->
<g id="edge5_Node000001_Node000006" class="edge">
<title>Node6&#45;&gt;Node1</title>
<g id="a_edge5_Node000001_Node000006"><a xlink:title=" ">
<path fill="none" stroke="#63b8ff" d="M89.91,-84.82C117.12,-98.68 151.82,-116.34 173.18,-127.22"/>
<polygon fill="#63b8ff" stroke="#63b8ff" points="91.76,-81.33 81.26,-79.91 88.58,-87.57 91.76,-81.33"/>
</a>
</g>
</g>
<!-- Node7 -->
<g id="Node000007" class="node">
<title>Node7</title>
<g id="a_Node000007"><a xlink:href="../../de/d0d/structengine_1_1core_1_1_layer_1_1_handle_tick.html" target="_top" xlink:title=" ">
<polygon fill="white" stroke="#666666" points="96.62,-30.5 0.38,-30.5 0.38,0 96.62,0 96.62,-30.5"/>
<text text-anchor="start" x="8.38" y="-17" font-family="Helvetica,sans-Serif" font-size="10.00">engine::core::Layer</text>
<text text-anchor="middle" x="48.5" y="-5.75" font-family="Helvetica,sans-Serif" font-size="10.00">::HandleTick</text>
</a>
</g>
</g>
<!-- Node7&#45;&gt;Node1 -->
<g id="edge6_Node000001_Node000007" class="edge">
<title>Node7&#45;&gt;Node1</title>
<g id="a_edge6_Node000001_Node000007"><a xlink:title=" ">
<path fill="none" stroke="#63b8ff" d="M91.76,-36.59C93.56,-37.78 95.32,-39 97,-40.25 133.52,-67.32 169.19,-108.35 184.74,-127.17"/>
<polygon fill="#63b8ff" stroke="#63b8ff" points="93.85,-33.15 83.5,-30.92 90.2,-39.12 93.85,-33.15"/>
</a>
</g>
</g>
<!-- Node9 -->
<g id="Node000009" class="node">
<title>Node9</title>
<g id="a_Node000009"><a xlink:href="../../da/d33/classengine_1_1core_1_1_engine.html" target="_top" xlink:title="Represents the core of the engine.">
<polygon fill="white" stroke="#666666" points="577.38,-168.88 475.88,-168.88 475.88,-149.62 577.38,-149.62 577.38,-168.88"/>
<text text-anchor="middle" x="526.62" y="-155.38" font-family="Helvetica,sans-Serif" font-size="10.00">engine::core::Engine</text>
</a>
</g>
</g>
<!-- Node8&#45;&gt;Node9 -->
<g id="edge8_Node000008_Node000009" class="edge">
<title>Node8&#45;&gt;Node9</title>
<g id="a_edge8_Node000008_Node000009"><a xlink:title=" ">
<path fill="none" stroke="#8b1a1a" d="M431.32,-159.25C446.24,-159.25 461.67,-159.25 475.63,-159.25"/>
<polygon fill="#8b1a1a" stroke="#8b1a1a" points="431.58,-155.75 421.58,-159.25 431.58,-162.75 431.58,-155.75"/>
</a>
</g>
</g>
<!-- Node11 -->
<g id="Node000011" class="node">
<title>Node11</title>
<g id="a_Node000011"><a xlink:href="../../d9/d04/classengine_1_1direct3d_1_1_deferred_h_d_r_render_pipeline.html" target="_top" xlink:title=" ">
<polygon fill="white" stroke="#666666" points="589,-131.5 464.25,-131.5 464.25,-101 589,-101 589,-131.5"/>
<text text-anchor="start" x="472.25" y="-118" font-family="Helvetica,sans-Serif" font-size="10.00">engine::direct3d::Deferred</text>
<text text-anchor="middle" x="526.62" y="-106.75" font-family="Helvetica,sans-Serif" font-size="10.00">HDRRenderPipeline</text>
</a>
</g>
</g>
<!-- Node10&#45;&gt;Node11 -->
<g id="edge10_Node000010_Node000011" class="edge">
<title>Node10&#45;&gt;Node11</title>
<g id="a_edge10_Node000010_Node000011"><a xlink:title=" ">
<path fill="none" stroke="#63b8ff" d="M439.61,-116.25C447.72,-116.25 455.87,-116.25 463.75,-116.25"/>
<polygon fill="#63b8ff" stroke="#63b8ff" points="439.62,-112.75 429.62,-116.25 439.62,-119.75 439.62,-112.75"/>
</a>
</g>
</g>
</g>
</svg>
