<?xml version="1.0" encoding="UTF-8" standalone="no"?>
<!DOCTYPE svg PUBLIC "-//W3C//DTD SVG 1.1//EN"
 "http://www.w3.org/Graphics/SVG/1.1/DTD/svg11.dtd">
<!-- Generated by graphviz version 8.1.0 (20230707.0739)
 -->
<!-- Title: engine::core::InputLayer Pages: 1 -->
<svg width="258pt" height="174pt"
 viewBox="0.00 0.00 258.25 173.88" xmlns="http://www.w3.org/2000/svg" xmlns:xlink="http://www.w3.org/1999/xlink">

<svg id="main" version="1.1" xmlns="http://www.w3.org/2000/svg" xmlns:xlink="http://www.w3.org/1999/xlink" xml:space="preserve" onload="init(evt)">
<style type="text/css"><![CDATA[
.node, .edge {opacity: 0.7;}
.node.selected, .edge.selected {opacity: 1;}
.edge:hover path { stroke: red; }
.edge:hover polygon { stroke: red; fill: red; }
]]></style>
<script type="application/ecmascript" xlink:href="../../svg.min.js"/>
<svg id="graph" class="graph">
<g id="graph0" class="graph" transform="scale(1 1) rotate(0) translate(4 169.88)">
<title>engine::core::InputLayer</title>
<!-- Node1 -->
<g id="Node000001" class="node">
<title>Node1</title>
<g id="a_Node000001"><a xlink:title=" ">
<polygon fill="#999999" stroke="#666666" points="250.25,-97.88 132.25,-97.88 132.25,-78.62 250.25,-78.62 250.25,-97.88"/>
<text text-anchor="middle" x="191.25" y="-84.38" font-family="Helvetica,sans-Serif" font-size="10.00">engine::core::InputLayer</text>
</a>
</g>
</g>
<!-- Node2 -->
<g id="Node000002" class="node">
<title>Node2</title>
<g id="a_Node000002"><a xlink:href="../../d0/d04/classengine_1_1core_1_1_layer.html" target="_top" xlink:title=" ">
<polygon fill="white" stroke="#666666" points="96.25,-165.88 0,-165.88 0,-146.62 96.25,-146.62 96.25,-165.88"/>
<text text-anchor="middle" x="48.12" y="-152.38" font-family="Helvetica,sans-Serif" font-size="10.00">engine::core::Layer</text>
</a>
</g>
</g>
<!-- Node2&#45;&gt;Node1 -->
<g id="edge1_Node000001_Node000002" class="edge">
<title>Node2&#45;&gt;Node1</title>
<g id="a_edge1_Node000001_Node000002"><a xlink:title=" ">
<path fill="none" stroke="#63b8ff" d="M85.14,-142.15C88.91,-140.55 92.67,-138.9 96.25,-137.25 123.16,-124.85 153.4,-108.66 172.14,-98.36"/>
<polygon fill="#63b8ff" stroke="#63b8ff" points="84.15,-139.19 76.24,-146.24 86.82,-145.66 84.15,-139.19"/>
</a>
</g>
</g>
<!-- Node3 -->
<g id="Node000003" class="node">
<title>Node3</title>
<g id="a_Node000003"><a xlink:href="../../dd/dd4/structengine_1_1core_1_1_layer_1_1_handle_event.html" target="_top" xlink:title=" ">
<polygon fill="white" stroke="#666666" points="96.25,-128.5 0,-128.5 0,-98 96.25,-98 96.25,-128.5"/>
<text text-anchor="start" x="8" y="-115" font-family="Helvetica,sans-Serif" font-size="10.00">engine::core::Layer</text>
<text text-anchor="middle" x="48.12" y="-103.75" font-family="Helvetica,sans-Serif" font-size="10.00">::HandleEvent</text>
</a>
</g>
</g>
<!-- Node3&#45;&gt;Node1 -->
<g id="edge2_Node000001_Node000003" class="edge">
<title>Node3&#45;&gt;Node1</title>
<g id="a_edge2_Node000001_Node000003"><a xlink:title=" ">
<path fill="none" stroke="#63b8ff" d="M107.28,-102.95C115.93,-101.42 124.83,-99.84 133.45,-98.31"/>
<polygon fill="#63b8ff" stroke="#63b8ff" points="106.75,-99.67 97.51,-104.86 107.97,-106.56 106.75,-99.67"/>
</a>
</g>
</g>
<!-- Node4 -->
<g id="Node000004" class="node">
<title>Node4</title>
<g id="a_Node000004"><a xlink:href="../../de/d0d/structengine_1_1core_1_1_layer_1_1_handle_tick.html" target="_top" xlink:title=" ">
<polygon fill="white" stroke="#666666" points="96.25,-79.5 0,-79.5 0,-49 96.25,-49 96.25,-79.5"/>
<text text-anchor="start" x="8" y="-66" font-family="Helvetica,sans-Serif" font-size="10.00">engine::core::Layer</text>
<text text-anchor="middle" x="48.12" y="-54.75" font-family="Helvetica,sans-Serif" font-size="10.00">::HandleTick</text>
</a>
</g>
</g>
<!-- Node4&#45;&gt;Node1 -->
<g id="edge3_Node000001_Node000004" class="edge">
<title>Node4&#45;&gt;Node1</title>
<g id="a_edge3_Node000001_Node000004"><a xlink:title=" ">
<path fill="none" stroke="#63b8ff" d="M107.12,-74.11C115.32,-75.51 123.75,-76.94 131.96,-78.34"/>
<polygon fill="#63b8ff" stroke="#63b8ff" points="107.96,-70.53 97.51,-72.31 106.78,-77.44 107.96,-70.53"/>
</a>
</g>
</g>
<!-- Node5 -->
<g id="Node000005" class="node">
<title>Node5</title>
<g id="a_Node000005"><a xlink:href="../../d5/d41/structengine_1_1core_1_1_layer_1_1_handle_update.html" target="_top" xlink:title=" ">
<polygon fill="white" stroke="#666666" points="96.25,-30.5 0,-30.5 0,0 96.25,0 96.25,-30.5"/>
<text text-anchor="start" x="8" y="-17" font-family="Helvetica,sans-Serif" font-size="10.00">engine::core::Layer</text>
<text text-anchor="middle" x="48.12" y="-5.75" font-family="Helvetica,sans-Serif" font-size="10.00">::HandleUpdate</text>
</a>
</g>
</g>
<!-- Node5&#45;&gt;Node1 -->
<g id="edge4_Node000001_Node000005" class="edge">
<title>Node5&#45;&gt;Node1</title>
<g id="a_edge4_Node000001_Node000005"><a xlink:title=" ">
<path fill="none" stroke="#63b8ff" d="M88.9,-35.82C115.68,-49.68 149.84,-67.34 170.86,-78.22"/>
<polygon fill="#63b8ff" stroke="#63b8ff" points="90.89,-32.4 80.4,-30.91 87.67,-38.61 90.89,-32.4"/>
</a>
</g>
</g>
</g>
</svg>
</svg>

<style type='text/css'>
<![CDATA[
[data-mouse-over-selected='false'] { opacity: 0.7; }
[data-mouse-over-selected='true']  { opacity: 1.0; }
]]>
</style>
<script type="application/ecmascript"><![CDATA[
document.addEventListener('DOMContentLoaded', (event) => {
  highlightEdges();
  highlightAdjacentNodes();
});
]]></script>
</svg>
