<?xml version="1.0" encoding="UTF-8" standalone="no"?>
<!DOCTYPE svg PUBLIC "-//W3C//DTD SVG 1.1//EN"
 "http://www.w3.org/Graphics/SVG/1.1/DTD/svg11.dtd">
<!-- Generated by graphviz version 9.0.0 (20230911.1827)
 -->
<!-- Title: engine::core::InputLayer Pages: 1 -->
<svg width="258pt" height="174pt"
 viewBox="0.00 0.00 258.25 173.88" xmlns="http://www.w3.org/2000/svg" xmlns:xlink="http://www.w3.org/1999/xlink">
<g id="graph0" class="graph" transform="scale(1 1) rotate(0) translate(4 169.88)">
<title>engine::core::InputLayer</title>
<!-- Node1 -->
<g id="Node000001" class="node">
<title>Node1</title>
<g id="a_Node000001"><a xlink:title=" ">
<polygon fill="#999999" stroke="#666666" points="250.25,-97.88 132.25,-97.88 132.25,-78.62 250.25,-78.62 250.25,-97.88"/>
<text text-anchor="middle" x="191.25" y="-84.38" font-family="Helvetica,sans-Serif" font-size="10.00">engine::core::InputLayer</text>
</a>
</g>
</g>
<!-- Node2 -->
<g id="Node000002" class="node">
<title>Node2</title>
<g id="a_Node000002"><a xlink:href="../../d0/d04/classengine_1_1core_1_1_layer.html" target="_top" xlink:title=" ">
<polygon fill="white" stroke="#666666" points="96.25,-165.88 0,-165.88 0,-146.62 96.25,-146.62 96.25,-165.88"/>
<text text-anchor="middle" x="48.12" y="-152.38" font-family="Helvetica,sans-Serif" font-size="10.00">engine::core::Layer</text>
</a>
</g>
</g>
<!-- Node2&#45;&gt;Node1 -->
<g id="edge1_Node000001_Node000002" class="edge">
<title>Node2&#45;&gt;Node1</title>
<g id="a_edge1_Node000001_Node000002"><a xlink:title=" ">
<path fill="none" stroke="#63b8ff" d="M85.81,-141.87C89.36,-140.35 92.89,-138.8 96.25,-137.25 123.16,-124.85 153.4,-108.66 172.14,-98.36"/>
<polygon fill="#63b8ff" stroke="#63b8ff" points="84.54,-138.6 76.64,-145.67 87.22,-145.07 84.54,-138.6"/>
</a>
</g>
</g>
<!-- Node3 -->
<g id="Node000003" class="node">
<title>Node3</title>
<g id="a_Node000003"><a xlink:href="../../dd/dd4/structengine_1_1core_1_1_layer_1_1_handle_event.html" target="_top" xlink:title=" ">
<polygon fill="white" stroke="#666666" points="96.25,-128.5 0,-128.5 0,-98 96.25,-98 96.25,-128.5"/>
<text text-anchor="start" x="8" y="-115" font-family="Helvetica,sans-Serif" font-size="10.00">engine::core::Layer</text>
<text text-anchor="middle" x="48.12" y="-103.75" font-family="Helvetica,sans-Serif" font-size="10.00">::HandleEvent</text>
</a>
</g>
</g>
<!-- Node3&#45;&gt;Node1 -->
<g id="edge2_Node000001_Node000003" class="edge">
<title>Node3&#45;&gt;Node1</title>
<g id="a_edge2_Node000001_Node000003"><a xlink:title=" ">
<path fill="none" stroke="#63b8ff" d="M107.57,-102.9C116.13,-101.38 124.93,-99.82 133.45,-98.31"/>
<polygon fill="#63b8ff" stroke="#63b8ff" points="107.24,-99.4 98,-104.59 108.46,-106.29 107.24,-99.4"/>
</a>
</g>
</g>
<!-- Node4 -->
<g id="Node000004" class="node">
<title>Node4</title>
<g id="a_Node000004"><a xlink:href="../../de/d0d/structengine_1_1core_1_1_layer_1_1_handle_tick.html" target="_top" xlink:title=" ">
<polygon fill="white" stroke="#666666" points="96.25,-79.5 0,-79.5 0,-49 96.25,-49 96.25,-79.5"/>
<text text-anchor="start" x="8" y="-66" font-family="Helvetica,sans-Serif" font-size="10.00">engine::core::Layer</text>
<text text-anchor="middle" x="48.12" y="-54.75" font-family="Helvetica,sans-Serif" font-size="10.00">::HandleTick</text>
</a>
</g>
</g>
<!-- Node4&#45;&gt;Node1 -->
<g id="edge3_Node000001_Node000004" class="edge">
<title>Node4&#45;&gt;Node1</title>
<g id="a_edge3_Node000001_Node000004"><a xlink:title=" ">
<path fill="none" stroke="#63b8ff" d="M107.67,-74.21C115.7,-75.57 123.93,-76.97 131.96,-78.34"/>
<polygon fill="#63b8ff" stroke="#63b8ff" points="108.45,-70.79 98,-72.56 107.27,-77.69 108.45,-70.79"/>
</a>
</g>
</g>
<!-- Node5 -->
<g id="Node000005" class="node">
<title>Node5</title>
<g id="a_Node000005"><a xlink:href="../../d5/d41/structengine_1_1core_1_1_layer_1_1_handle_update.html" target="_top" xlink:title=" ">
<polygon fill="white" stroke="#666666" points="96.25,-30.5 0,-30.5 0,0 96.25,0 96.25,-30.5"/>
<text text-anchor="start" x="8" y="-17" font-family="Helvetica,sans-Serif" font-size="10.00">engine::core::Layer</text>
<text text-anchor="middle" x="48.12" y="-5.75" font-family="Helvetica,sans-Serif" font-size="10.00">::HandleUpdate</text>
</a>
</g>
</g>
<!-- Node5&#45;&gt;Node1 -->
<g id="edge4_Node000001_Node000005" class="edge">
<title>Node5&#45;&gt;Node1</title>
<g id="a_edge4_Node000001_Node000005"><a xlink:title=" ">
<path fill="none" stroke="#63b8ff" d="M89.6,-36.19C116.28,-49.99 150.02,-67.44 170.86,-78.22"/>
<polygon fill="#63b8ff" stroke="#63b8ff" points="91.23,-33.09 80.74,-31.61 88.02,-39.31 91.23,-33.09"/>
</a>
</g>
</g>
</g>
</svg>
