<?xml version="1.0" encoding="UTF-8" standalone="no"?>
<!DOCTYPE svg PUBLIC "-//W3C//DTD SVG 1.1//EN"
 "http://www.w3.org/Graphics/SVG/1.1/DTD/svg11.dtd">
<!-- Generated by graphviz version 9.0.0 (20230911.1827)
 -->
<!-- Title: engine/misc/camera&#45;controller.hpp Pages: 1 -->
<svg width="1924pt" height="438pt"
 viewBox="0.00 0.00 1923.88 437.50" xmlns="http://www.w3.org/2000/svg" xmlns:xlink="http://www.w3.org/1999/xlink">
<g id="graph0" class="graph" transform="scale(1 1) rotate(0) translate(4 433.5)">
<title>engine/misc/camera&#45;controller.hpp</title>
<!-- Node1 -->
<g id="Node000001" class="node">
<title>Node1</title>
<g id="a_Node000001"><a xlink:title=" ">
<polygon fill="#999999" stroke="#666666" points="1835.88,-429.5 1732.12,-429.5 1732.12,-399 1835.88,-399 1835.88,-429.5"/>
<text text-anchor="start" x="1740.12" y="-416" font-family="Helvetica,sans-Serif" font-size="10.00">engine/misc/camera</text>
<text text-anchor="middle" x="1784" y="-404.75" font-family="Helvetica,sans-Serif" font-size="10.00">&#45;controller.hpp</text>
</a>
</g>
</g>
<!-- Node2 -->
<g id="Node000002" class="node">
<title>Node2</title>
<g id="a_Node000002"><a xlink:href="../../dc/dfb/controller_8hpp.html" target="_top" xlink:title=" ">
<polygon fill="white" stroke="#666666" points="1853.12,-85.75 1738.88,-85.75 1738.88,-66.5 1853.12,-66.5 1853.12,-85.75"/>
<text text-anchor="middle" x="1796" y="-72.25" font-family="Helvetica,sans-Serif" font-size="10.00">d3d_test/controller.hpp</text>
</a>
</g>
</g>
<!-- Node1&#45;&gt;Node2 -->
<g id="edge1_Node000001_Node000002" class="edge">
<title>Node1&#45;&gt;Node2</title>
<g id="a_edge1_Node000001_Node000002"><a xlink:title=" ">
<path fill="none" stroke="#63b8ff" d="M1784,-387.58C1784,-360.12 1784,-315.3 1784,-276.62 1784,-276.62 1784,-276.62 1784,-208.12 1784,-161.99 1791.47,-107.1 1794.62,-85.99"/>
<polygon fill="#63b8ff" stroke="#63b8ff" points="1780.5,-387.38 1784,-397.38 1787.5,-387.38 1780.5,-387.38"/>
</a>
</g>
</g>
<!-- Node5 -->
<g id="Node000005" class="node">
<title>Node5</title>
<g id="a_Node000005"><a xlink:href="../../d5/d9b/scene_8hpp.html" target="_top" xlink:title=" ">
<polygon fill="white" stroke="#666666" points="1089.75,-357.38 976.25,-357.38 976.25,-338.12 1089.75,-338.12 1089.75,-357.38"/>
<text text-anchor="middle" x="1033" y="-343.88" font-family="Helvetica,sans-Serif" font-size="10.00">engine/core/scene.hpp</text>
</a>
</g>
</g>
<!-- Node1&#45;&gt;Node5 -->
<g id="edge4_Node000001_Node000005" class="edge">
<title>Node1&#45;&gt;Node5</title>
<g id="a_edge4_Node000001_Node000005"><a xlink:title=" ">
<path fill="none" stroke="#63b8ff" d="M1720.56,-407.8C1576.77,-395.45 1227.85,-365.48 1090.2,-353.66"/>
<polygon fill="#63b8ff" stroke="#63b8ff" points="1720.02,-411.27 1730.28,-408.64 1720.62,-404.29 1720.02,-411.27"/>
</a>
</g>
</g>
<!-- Node28 -->
<g id="Node000028" class="node">
<title>Node28</title>
<g id="a_Node000028"><a xlink:href="../../dd/da8/camera-controller_8cpp.html" target="_top" xlink:title=" ">
<polygon fill="white" stroke="#666666" points="1915.88,-363 1812.12,-363 1812.12,-332.5 1915.88,-332.5 1915.88,-363"/>
<text text-anchor="start" x="1820.12" y="-349.5" font-family="Helvetica,sans-Serif" font-size="10.00">engine/misc/camera</text>
<text text-anchor="middle" x="1864" y="-338.25" font-family="Helvetica,sans-Serif" font-size="10.00">&#45;controller.cpp</text>
</a>
</g>
</g>
<!-- Node1&#45;&gt;Node28 -->
<g id="edge39_Node000001_Node000028" class="edge">
<title>Node1&#45;&gt;Node28</title>
<g id="a_edge39_Node000001_Node000028"><a xlink:title=" ">
<path fill="none" stroke="#63b8ff" d="M1810.95,-391.52C1822.47,-382.23 1835.6,-371.65 1845.92,-363.33"/>
<polygon fill="#63b8ff" stroke="#63b8ff" points="1808.92,-388.66 1803.33,-397.66 1813.31,-394.11 1808.92,-388.66"/>
</a>
</g>
</g>
<!-- Node3 -->
<g id="Node000003" class="node">
<title>Node3</title>
<g id="a_Node000003"><a xlink:href="../../d1/d47/controller_8cpp.html" target="_top" xlink:title=" ">
<polygon fill="white" stroke="#666666" points="1051.12,-19.25 936.88,-19.25 936.88,0 1051.12,0 1051.12,-19.25"/>
<text text-anchor="middle" x="994" y="-5.75" font-family="Helvetica,sans-Serif" font-size="10.00">d3d_test/controller.cpp</text>
</a>
</g>
</g>
<!-- Node2&#45;&gt;Node3 -->
<g id="edge2_Node000002_Node000003" class="edge">
<title>Node2&#45;&gt;Node3</title>
<g id="a_edge2_Node000002_Node000003"><a xlink:title=" ">
<path fill="none" stroke="#63b8ff" d="M1759.86,-62.72C1749.96,-59.79 1739.16,-57.01 1729,-55.25 1437.78,-4.88 1359.41,-45.08 1065,-19.25 1060.55,-18.86 1055.94,-18.41 1051.32,-17.92"/>
<polygon fill="#63b8ff" stroke="#63b8ff" points="1758.53,-65.97 1769.12,-65.6 1760.61,-59.29 1758.53,-65.97"/>
</a>
</g>
</g>
<!-- Node4 -->
<g id="Node000004" class="node">
<title>Node4</title>
<g id="a_Node000004"><a xlink:href="../../d9/d0f/main_8cc.html" target="_top" xlink:title=" ">
<polygon fill="white" stroke="#666666" points="1841.12,-19.25 1750.88,-19.25 1750.88,0 1841.12,0 1841.12,-19.25"/>
<text text-anchor="middle" x="1796" y="-5.75" font-family="Helvetica,sans-Serif" font-size="10.00">d3d_test/main.cc</text>
</a>
</g>
</g>
<!-- Node2&#45;&gt;Node4 -->
<g id="edge3_Node000002_Node000004" class="edge">
<title>Node2&#45;&gt;Node4</title>
<g id="a_edge3_Node000002_Node000004"><a xlink:title=" ">
<path fill="none" stroke="#63b8ff" d="M1796,-54.65C1796,-42.82 1796,-28.54 1796,-19.52"/>
<polygon fill="#63b8ff" stroke="#63b8ff" points="1792.5,-54.64 1796,-64.64 1799.5,-54.64 1792.5,-54.64"/>
</a>
</g>
</g>
<!-- Node6 -->
<g id="Node000006" class="node">
<title>Node6</title>
<g id="a_Node000006"><a xlink:href="../../de/d46/engine_8hpp.html" target="_top" xlink:title=" ">
<polygon fill="white" stroke="#666666" points="1047.88,-157.88 932.12,-157.88 932.12,-138.62 1047.88,-138.62 1047.88,-157.88"/>
<text text-anchor="middle" x="990" y="-144.38" font-family="Helvetica,sans-Serif" font-size="10.00">engine/core/engine.hpp</text>
</a>
</g>
</g>
<!-- Node5&#45;&gt;Node6 -->
<g id="edge5_Node000005_Node000006" class="edge">
<title>Node5&#45;&gt;Node6</title>
<g id="a_edge5_Node000005_Node000006"><a xlink:title=" ">
<path fill="none" stroke="#63b8ff" d="M964.75,-344.18C890.96,-339.8 780.35,-328.02 754,-296.5 693.91,-224.62 860.42,-177.12 944.6,-158.33"/>
<polygon fill="#63b8ff" stroke="#63b8ff" points="964.11,-347.65 974.29,-344.71 964.5,-340.66 964.11,-347.65"/>
</a>
</g>
</g>
<!-- Node15 -->
<g id="Node000015" class="node">
<title>Node15</title>
<g id="a_Node000015"><a xlink:href="../../d8/d30/decal-render-system_8cpp.html" target="_top" xlink:title=" ">
<polygon fill="white" stroke="#666666" points="1571.5,-91.38 1420.5,-91.38 1420.5,-60.88 1571.5,-60.88 1571.5,-91.38"/>
<text text-anchor="start" x="1428.5" y="-77.88" font-family="Helvetica,sans-Serif" font-size="10.00">engine/subsystems/render</text>
<text text-anchor="middle" x="1496" y="-66.62" font-family="Helvetica,sans-Serif" font-size="10.00">/detail/decal&#45;render&#45;system.cpp</text>
</a>
</g>
</g>
<!-- Node5&#45;&gt;Node15 -->
<g id="edge34_Node000005_Node000015" class="edge">
<title>Node5&#45;&gt;Node15</title>
<g id="a_edge34_Node000005_Node000015"><a xlink:title=" ">
<path fill="none" stroke="#63b8ff" d="M1101.33,-343.71C1219.35,-337.78 1451.3,-322.89 1477,-296.5 1532.35,-239.68 1510.45,-130.84 1500.17,-91.64"/>
<polygon fill="#63b8ff" stroke="#63b8ff" points="1101.26,-340.21 1091.44,-344.2 1101.6,-347.2 1101.26,-340.21"/>
</a>
</g>
</g>
<!-- Node16 -->
<g id="Node000016" class="node">
<title>Node16</title>
<g id="a_Node000016"><a xlink:href="../../d1/d58/dissolution-render-system_8cpp.html" target="_top" xlink:title=" ">
<polygon fill="white" stroke="#666666" points="130,-97 0,-97 0,-55.25 130,-55.25 130,-97"/>
<text text-anchor="start" x="8" y="-83.5" font-family="Helvetica,sans-Serif" font-size="10.00">engine/subsystems/render</text>
<text text-anchor="start" x="8" y="-72.25" font-family="Helvetica,sans-Serif" font-size="10.00">/detail/dissolution&#45;render</text>
<text text-anchor="middle" x="65" y="-61" font-family="Helvetica,sans-Serif" font-size="10.00">&#45;system.cpp</text>
</a>
</g>
</g>
<!-- Node5&#45;&gt;Node16 -->
<g id="edge35_Node000005_Node000016" class="edge">
<title>Node5&#45;&gt;Node16</title>
<g id="a_edge35_Node000005_Node000016"><a xlink:title=" ">
<path fill="none" stroke="#63b8ff" d="M964.35,-343.63C882.12,-338.69 740.72,-326.34 623,-296.5 422.21,-245.6 196.41,-141.27 105.81,-97.34"/>
<polygon fill="#63b8ff" stroke="#63b8ff" points="964.1,-347.12 974.28,-344.21 964.5,-340.14 964.1,-347.12"/>
</a>
</g>
</g>
<!-- Node20 -->
<g id="Node000020" class="node">
<title>Node20</title>
<g id="a_Node000020"><a xlink:href="../../d3/dfe/particle-render-system_8cpp.html" target="_top" xlink:title=" ">
<polygon fill="white" stroke="#666666" points="278,-97 148,-97 148,-55.25 278,-55.25 278,-97"/>
<text text-anchor="start" x="156" y="-83.5" font-family="Helvetica,sans-Serif" font-size="10.00">engine/subsystems/render</text>
<text text-anchor="start" x="156" y="-72.25" font-family="Helvetica,sans-Serif" font-size="10.00">/detail/particle&#45;render</text>
<text text-anchor="middle" x="213" y="-61" font-family="Helvetica,sans-Serif" font-size="10.00">&#45;system.cpp</text>
</a>
</g>
</g>
<!-- Node5&#45;&gt;Node20 -->
<g id="edge38_Node000005_Node000020" class="edge">
<title>Node5&#45;&gt;Node20</title>
<g id="a_edge38_Node000005_Node000020"><a xlink:title=" ">
<path fill="none" stroke="#63b8ff" d="M964.44,-340.17C903.7,-333.15 813.1,-319.77 737,-296.5 568.56,-245 539.71,-197.96 376,-133 343.75,-120.2 307.25,-107.53 276.99,-97.5"/>
<polygon fill="#63b8ff" stroke="#63b8ff" points="963.97,-343.64 974.3,-341.28 964.75,-336.68 963.97,-343.64"/>
</a>
</g>
</g>
<!-- Node21 -->
<g id="Node000021" class="node">
<title>Node21</title>
<g id="a_Node000021"><a xlink:href="../../d9/d06/render-pipeline_8hpp.html" target="_top" xlink:title=" ">
<polygon fill="white" stroke="#666666" points="1468,-290.88 1368,-290.88 1368,-260.38 1468,-260.38 1468,-290.88"/>
<text text-anchor="start" x="1376" y="-277.38" font-family="Helvetica,sans-Serif" font-size="10.00">engine/core/layers</text>
<text text-anchor="middle" x="1418" y="-266.12" font-family="Helvetica,sans-Serif" font-size="10.00">/render&#45;pipeline.hpp</text>
</a>
</g>
</g>
<!-- Node5&#45;&gt;Node21 -->
<g id="edge25_Node000005_Node000021" class="edge">
<title>Node5&#45;&gt;Node21</title>
<g id="a_edge25_Node000005_Node000021"><a xlink:title=" ">
<path fill="none" stroke="#63b8ff" d="M1101.26,-339.69C1167.69,-332.01 1271.16,-317.9 1359,-296.5 1364.99,-295.04 1371.23,-293.25 1377.32,-291.34"/>
<polygon fill="#63b8ff" stroke="#63b8ff" points="1101.16,-336.18 1091.62,-340.79 1101.95,-343.14 1101.16,-336.18"/>
</a>
</g>
</g>
<!-- Node24 -->
<g id="Node000024" class="node">
<title>Node24</title>
<g id="a_Node000024"><a xlink:href="../../d4/d7c/deferred-resolve_8cpp.html" target="_top" xlink:title=" ">
<polygon fill="white" stroke="#666666" points="875.38,-290.88 762.62,-290.88 762.62,-260.38 875.38,-260.38 875.38,-290.88"/>
<text text-anchor="start" x="770.62" y="-277.38" font-family="Helvetica,sans-Serif" font-size="10.00">engine/render/deferred</text>
<text text-anchor="middle" x="819" y="-266.12" font-family="Helvetica,sans-Serif" font-size="10.00">&#45;resolve.cpp</text>
</a>
</g>
</g>
<!-- Node5&#45;&gt;Node24 -->
<g id="edge32_Node000005_Node000024" class="edge">
<title>Node5&#45;&gt;Node24</title>
<g id="a_edge32_Node000005_Node000024"><a xlink:title=" ">
<path fill="none" stroke="#63b8ff" d="M994.72,-334.21C958.05,-322.19 902.72,-304.06 863.97,-291.36"/>
<polygon fill="#63b8ff" stroke="#63b8ff" points="993.43,-337.47 1004.02,-337.25 995.61,-330.81 993.43,-337.47"/>
</a>
</g>
</g>
<!-- Node25 -->
<g id="Node000025" class="node">
<title>Node25</title>
<g id="a_Node000025"><a xlink:href="../../d6/d54/renderer_8cpp.html" target="_top" xlink:title=" ">
<polygon fill="white" stroke="#666666" points="1024.38,-285.25 893.62,-285.25 893.62,-266 1024.38,-266 1024.38,-285.25"/>
<text text-anchor="middle" x="959" y="-271.75" font-family="Helvetica,sans-Serif" font-size="10.00">engine/render/renderer.cpp</text>
</a>
</g>
</g>
<!-- Node5&#45;&gt;Node25 -->
<g id="edge33_Node000005_Node000025" class="edge">
<title>Node5&#45;&gt;Node25</title>
<g id="a_edge33_Node000005_Node000025"><a xlink:title=" ">
<path fill="none" stroke="#63b8ff" d="M1015.34,-330.02C1000.66,-316.11 980.33,-296.84 968.53,-285.66"/>
<polygon fill="#63b8ff" stroke="#63b8ff" points="1012.86,-332.49 1022.53,-336.83 1017.68,-327.41 1012.86,-332.49"/>
</a>
</g>
</g>
<!-- Node26 -->
<g id="Node000026" class="node">
<title>Node26</title>
<g id="a_Node000026"><a xlink:href="../../d8/dcb/emissive-render-system_8cpp.html" target="_top" xlink:title=" ">
<polygon fill="white" stroke="#666666" points="1172,-296.5 1042,-296.5 1042,-254.75 1172,-254.75 1172,-296.5"/>
<text text-anchor="start" x="1050" y="-283" font-family="Helvetica,sans-Serif" font-size="10.00">engine/subsystems/render</text>
<text text-anchor="start" x="1050" y="-271.75" font-family="Helvetica,sans-Serif" font-size="10.00">/detail/emissive&#45;render</text>
<text text-anchor="middle" x="1107" y="-260.5" font-family="Helvetica,sans-Serif" font-size="10.00">&#45;system.cpp</text>
</a>
</g>
</g>
<!-- Node5&#45;&gt;Node26 -->
<g id="edge36_Node000005_Node000026" class="edge">
<title>Node5&#45;&gt;Node26</title>
<g id="a_edge36_Node000005_Node000026"><a xlink:title=" ">
<path fill="none" stroke="#63b8ff" d="M1050.72,-329.96C1061.2,-320.03 1074.55,-307.38 1085.62,-296.89"/>
<polygon fill="#63b8ff" stroke="#63b8ff" points="1048.32,-327.41 1043.47,-336.83 1053.14,-332.49 1048.32,-327.41"/>
</a>
</g>
</g>
<!-- Node27 -->
<g id="Node000027" class="node">
<title>Node27</title>
<g id="a_Node000027"><a xlink:href="../../d1/d62/opaque-render-system_8cpp.html" target="_top" xlink:title=" ">
<polygon fill="white" stroke="#666666" points="1349.62,-290.88 1190.38,-290.88 1190.38,-260.38 1349.62,-260.38 1349.62,-290.88"/>
<text text-anchor="start" x="1198.38" y="-277.38" font-family="Helvetica,sans-Serif" font-size="10.00">engine/subsystems/render</text>
<text text-anchor="middle" x="1270" y="-266.12" font-family="Helvetica,sans-Serif" font-size="10.00">/detail/opaque&#45;render&#45;system.cpp</text>
</a>
</g>
</g>
<!-- Node5&#45;&gt;Node27 -->
<g id="edge37_Node000005_Node000027" class="edge">
<title>Node5&#45;&gt;Node27</title>
<g id="a_edge37_Node000005_Node000027"><a xlink:title=" ">
<path fill="none" stroke="#63b8ff" d="M1074.35,-334.52C1114.95,-322.5 1176.92,-304.17 1220.2,-291.36"/>
<polygon fill="#63b8ff" stroke="#63b8ff" points="1073.55,-331.1 1064.95,-337.3 1075.53,-337.82 1073.55,-331.1"/>
</a>
</g>
</g>
<!-- Node6&#45;&gt;Node2 -->
<g id="edge9_Node000006_Node000002" class="edge">
<title>Node6&#45;&gt;Node2</title>
<g id="a_edge9_Node000006_Node000002"><a xlink:title=" ">
<path fill="none" stroke="#63b8ff" d="M1059.5,-147.6C1191.2,-147.15 1485.75,-140.79 1729,-97 1742.85,-94.51 1757.91,-90.19 1770.23,-86.22"/>
<polygon fill="#63b8ff" stroke="#63b8ff" points="1059.53,-144.1 1049.54,-147.62 1059.54,-151.1 1059.53,-144.1"/>
</a>
</g>
</g>
<!-- Node6&#45;&gt;Node4 -->
<g id="edge10_Node000006_Node000004" class="edge">
<title>Node6&#45;&gt;Node4</title>
<g id="a_edge10_Node000006_Node000004"><a xlink:title=" ">
<path fill="none" stroke="#63b8ff" d="M1059.43,-143.75C1154.58,-138 1319.77,-124.37 1373,-97 1395.58,-85.39 1389.33,-66.69 1412,-55.25 1470.34,-25.79 1662.15,-15.33 1750.59,-12.01"/>
<polygon fill="#63b8ff" stroke="#63b8ff" points="1059.47,-140.24 1049.69,-144.32 1059.88,-147.23 1059.47,-140.24"/>
</a>
</g>
</g>
<!-- Node7 -->
<g id="Node000007" class="node">
<title>Node7</title>
<g id="a_Node000007"><a xlink:href="../../d0/d86/camera-movement_8hpp.html" target="_top" xlink:title=" ">
<polygon fill="white" stroke="#666666" points="1229.75,-85.75 1074.25,-85.75 1074.25,-66.5 1229.75,-66.5 1229.75,-85.75"/>
<text text-anchor="middle" x="1152" y="-72.25" font-family="Helvetica,sans-Serif" font-size="10.00">d3d_test/camera&#45;movement.hpp</text>
</a>
</g>
</g>
<!-- Node6&#45;&gt;Node7 -->
<g id="edge6_Node000006_Node000007" class="edge">
<title>Node6&#45;&gt;Node7</title>
<g id="a_edge6_Node000006_Node000007"><a xlink:title=" ">
<path fill="none" stroke="#63b8ff" d="M1021.08,-133.8C1053.37,-119.82 1103.01,-98.33 1130.98,-86.23"/>
<polygon fill="#63b8ff" stroke="#63b8ff" points="1020.02,-130.44 1012.24,-137.62 1022.8,-136.86 1020.02,-130.44"/>
</a>
</g>
</g>
<!-- Node9 -->
<g id="Node000009" class="node">
<title>Node9</title>
<g id="a_Node000009"><a xlink:href="../../da/df5/object-editor_8hpp.html" target="_top" xlink:title=" ">
<polygon fill="white" stroke="#666666" points="571.88,-85.75 444.12,-85.75 444.12,-66.5 571.88,-66.5 571.88,-85.75"/>
<text text-anchor="middle" x="508" y="-72.25" font-family="Helvetica,sans-Serif" font-size="10.00">d3d_test/object&#45;editor.hpp</text>
</a>
</g>
</g>
<!-- Node6&#45;&gt;Node9 -->
<g id="edge11_Node000006_Node000009" class="edge">
<title>Node6&#45;&gt;Node9</title>
<g id="a_edge11_Node000006_Node000009"><a xlink:title=" ">
<path fill="none" stroke="#63b8ff" d="M920.28,-141.75C838.49,-134.6 699.05,-120.2 581,-97 566.56,-94.16 550.79,-90 537.61,-86.22"/>
<polygon fill="#63b8ff" stroke="#63b8ff" points="919.9,-145.24 930.17,-142.61 920.5,-138.26 919.9,-145.24"/>
</a>
</g>
</g>
<!-- Node12 -->
<g id="Node000012" class="node">
<title>Node12</title>
<g id="a_Node000012"><a xlink:href="../../d9/d55/scene-viewer_8hpp.html" target="_top" xlink:title=" ">
<polygon fill="white" stroke="#666666" points="1056.12,-85.75 923.88,-85.75 923.88,-66.5 1056.12,-66.5 1056.12,-85.75"/>
<text text-anchor="middle" x="990" y="-72.25" font-family="Helvetica,sans-Serif" font-size="10.00">d3d_test/scene&#45;viewer.hpp</text>
</a>
</g>
</g>
<!-- Node6&#45;&gt;Node12 -->
<g id="edge15_Node000006_Node000012" class="edge">
<title>Node6&#45;&gt;Node12</title>
<g id="a_edge15_Node000006_Node000012"><a xlink:title=" ">
<path fill="none" stroke="#63b8ff" d="M990,-126.87C990,-113.39 990,-96.39 990,-86.16"/>
<polygon fill="#63b8ff" stroke="#63b8ff" points="986.5,-126.86 990,-136.86 993.5,-126.86 986.5,-126.86"/>
</a>
</g>
</g>
<!-- Node13 -->
<g id="Node000013" class="node">
<title>Node13</title>
<g id="a_Node000013"><a xlink:href="../../da/d5c/engine_8cpp.html" target="_top" xlink:title=" ">
<polygon fill="white" stroke="#666666" points="1363.88,-85.75 1248.12,-85.75 1248.12,-66.5 1363.88,-66.5 1363.88,-85.75"/>
<text text-anchor="middle" x="1306" y="-72.25" font-family="Helvetica,sans-Serif" font-size="10.00">engine/core/engine.cpp</text>
</a>
</g>
</g>
<!-- Node6&#45;&gt;Node13 -->
<g id="edge17_Node000006_Node000013" class="edge">
<title>Node6&#45;&gt;Node13</title>
<g id="a_edge17_Node000006_Node000013"><a xlink:title=" ">
<path fill="none" stroke="#63b8ff" d="M1052.88,-136.17C1103.43,-126.87 1176.14,-112.63 1239,-97 1251.72,-93.84 1265.63,-89.81 1277.46,-86.2"/>
<polygon fill="#63b8ff" stroke="#63b8ff" points="1052.5,-132.68 1043.29,-137.92 1053.76,-139.56 1052.5,-132.68"/>
</a>
</g>
</g>
<!-- Node14 -->
<g id="Node000014" class="node">
<title>Node14</title>
<g id="a_Node000014"><a xlink:href="../../d1/da2/deferred-hdr-render-pipeline_8cpp.html" target="_top" xlink:title=" ">
<polygon fill="white" stroke="#666666" points="1720.38,-91.38 1589.62,-91.38 1589.62,-60.88 1720.38,-60.88 1720.38,-91.38"/>
<text text-anchor="start" x="1597.62" y="-77.88" font-family="Helvetica,sans-Serif" font-size="10.00">engine/direct3d11/deferred</text>
<text text-anchor="middle" x="1655" y="-66.62" font-family="Helvetica,sans-Serif" font-size="10.00">&#45;hdr&#45;render&#45;pipeline.cpp</text>
</a>
</g>
</g>
<!-- Node6&#45;&gt;Node14 -->
<g id="edge18_Node000006_Node000014" class="edge">
<title>Node6&#45;&gt;Node14</title>
<g id="a_edge18_Node000006_Node000014"><a xlink:title=" ">
<path fill="none" stroke="#63b8ff" d="M1059.68,-145.33C1170.74,-141.37 1394.39,-129.73 1581,-97 1588.86,-95.62 1597.1,-93.8 1605.11,-91.81"/>
<polygon fill="#63b8ff" stroke="#63b8ff" points="1059.71,-141.82 1049.84,-145.67 1059.95,-148.82 1059.71,-141.82"/>
</a>
</g>
</g>
<!-- Node6&#45;&gt;Node15 -->
<g id="edge19_Node000006_Node000015" class="edge">
<title>Node6&#45;&gt;Node15</title>
<g id="a_edge19_Node000006_Node000015"><a xlink:title=" ">
<path fill="none" stroke="#63b8ff" d="M1059.42,-140.95C1142.25,-132.94 1284.77,-117.66 1406,-97 1414.83,-95.49 1424.11,-93.7 1433.21,-91.81"/>
<polygon fill="#63b8ff" stroke="#63b8ff" points="1059.26,-137.45 1049.64,-141.88 1059.93,-144.41 1059.26,-137.45"/>
</a>
</g>
</g>
<!-- Node6&#45;&gt;Node16 -->
<g id="edge20_Node000006_Node000016" class="edge">
<title>Node6&#45;&gt;Node16</title>
<g id="a_edge20_Node000006_Node000016"><a xlink:title=" ">
<path fill="none" stroke="#63b8ff" d="M920.37,-147.91C774.45,-148.24 426.33,-143.57 139,-97 136.11,-96.53 133.17,-96 130.21,-95.41"/>
<polygon fill="#63b8ff" stroke="#63b8ff" points="920.27,-151.41 930.26,-147.88 920.25,-144.41 920.27,-151.41"/>
</a>
</g>
</g>
<!-- Node17 -->
<g id="Node000017" class="node">
<title>Node17</title>
<g id="a_Node000017"><a xlink:href="../../d2/d11/emissive-particle-render-system_8cpp.html" target="_top" xlink:title=" ">
<polygon fill="white" stroke="#666666" points="426,-97 296,-97 296,-55.25 426,-55.25 426,-97"/>
<text text-anchor="start" x="304" y="-83.5" font-family="Helvetica,sans-Serif" font-size="10.00">engine/subsystems/render</text>
<text text-anchor="start" x="304" y="-72.25" font-family="Helvetica,sans-Serif" font-size="10.00">/detail/emissive&#45;particle</text>
<text text-anchor="middle" x="361" y="-61" font-family="Helvetica,sans-Serif" font-size="10.00">&#45;render&#45;system.cpp</text>
</a>
</g>
</g>
<!-- Node6&#45;&gt;Node17 -->
<g id="edge21_Node000006_Node000017" class="edge">
<title>Node6&#45;&gt;Node17</title>
<g id="a_edge21_Node000006_Node000017"><a xlink:title=" ">
<path fill="none" stroke="#63b8ff" d="M920.18,-144.78C814.48,-140.18 607.83,-127.8 435,-97 432.12,-96.49 429.19,-95.91 426.23,-95.3"/>
<polygon fill="#63b8ff" stroke="#63b8ff" points="919.98,-148.28 930.12,-145.2 920.28,-141.28 919.98,-148.28"/>
</a>
</g>
</g>
<!-- Node18 -->
<g id="Node000018" class="node">
<title>Node18</title>
<g id="a_Node000018"><a xlink:href="../../df/d58/grass-render-system_8cpp.html" target="_top" xlink:title=" ">
<polygon fill="white" stroke="#666666" points="741.88,-91.38 590.12,-91.38 590.12,-60.88 741.88,-60.88 741.88,-91.38"/>
<text text-anchor="start" x="598.12" y="-77.88" font-family="Helvetica,sans-Serif" font-size="10.00">engine/subsystems/render</text>
<text text-anchor="middle" x="666" y="-66.62" font-family="Helvetica,sans-Serif" font-size="10.00">/detail/grass&#45;render&#45;system.cpp</text>
</a>
</g>
</g>
<!-- Node6&#45;&gt;Node18 -->
<g id="edge22_Node000006_Node000018" class="edge">
<title>Node6&#45;&gt;Node18</title>
<g id="a_edge22_Node000006_Node000018"><a xlink:title=" ">
<path fill="none" stroke="#63b8ff" d="M934.26,-135.9C885.77,-125.94 813.65,-110.91 751,-97 743.6,-95.36 735.85,-93.6 728.17,-91.83"/>
<polygon fill="#63b8ff" stroke="#63b8ff" points="933.46,-139.31 943.96,-137.89 934.87,-132.45 933.46,-139.31"/>
</a>
</g>
</g>
<!-- Node19 -->
<g id="Node000019" class="node">
<title>Node19</title>
<g id="a_Node000019"><a xlink:href="../../d8/d9c/light-render-system_8cpp.html" target="_top" xlink:title=" ">
<polygon fill="white" stroke="#666666" points="905.88,-91.38 760.12,-91.38 760.12,-60.88 905.88,-60.88 905.88,-91.38"/>
<text text-anchor="start" x="768.12" y="-77.88" font-family="Helvetica,sans-Serif" font-size="10.00">engine/subsystems/render</text>
<text text-anchor="middle" x="833" y="-66.62" font-family="Helvetica,sans-Serif" font-size="10.00">/detail/light&#45;render&#45;system.cpp</text>
</a>
</g>
</g>
<!-- Node6&#45;&gt;Node19 -->
<g id="edge23_Node000006_Node000019" class="edge">
<title>Node6&#45;&gt;Node19</title>
<g id="a_edge23_Node000006_Node000019"><a xlink:title=" ">
<path fill="none" stroke="#63b8ff" d="M959.44,-133.6C932.58,-121.6 893.56,-104.17 865.99,-91.86"/>
<polygon fill="#63b8ff" stroke="#63b8ff" points="957.86,-136.73 968.41,-137.61 960.71,-130.33 957.86,-136.73"/>
</a>
</g>
</g>
<!-- Node6&#45;&gt;Node20 -->
<g id="edge24_Node000006_Node000020" class="edge">
<title>Node6&#45;&gt;Node20</title>
<g id="a_edge24_Node000006_Node000020"><a xlink:title=" ">
<path fill="none" stroke="#63b8ff" d="M920.25,-146.66C793.35,-144.62 516.63,-135.68 287,-97 284.11,-96.51 281.18,-95.96 278.22,-95.37"/>
<polygon fill="#63b8ff" stroke="#63b8ff" points="920.12,-150.16 930.17,-146.81 920.23,-143.16 920.12,-150.16"/>
</a>
</g>
</g>
<!-- Node7&#45;&gt;Node3 -->
<g id="edge8_Node000007_Node000003" class="edge">
<title>Node7&#45;&gt;Node3</title>
<g id="a_edge8_Node000007_Node000003"><a xlink:title=" ">
<path fill="none" stroke="#63b8ff" d="M1119.04,-61.67C1088.19,-49.08 1042.96,-30.61 1016.19,-19.68"/>
<polygon fill="#63b8ff" stroke="#63b8ff" points="1117.72,-64.91 1128.3,-65.45 1120.36,-58.43 1117.72,-64.91"/>
</a>
</g>
</g>
<!-- Node8 -->
<g id="Node000008" class="node">
<title>Node8</title>
<g id="a_Node000008"><a xlink:href="../../d5/dbb/camera-movement_8cpp.html" target="_top" xlink:title=" ">
<polygon fill="white" stroke="#666666" points="1229.75,-19.25 1074.25,-19.25 1074.25,0 1229.75,0 1229.75,-19.25"/>
<text text-anchor="middle" x="1152" y="-5.75" font-family="Helvetica,sans-Serif" font-size="10.00">d3d_test/camera&#45;movement.cpp</text>
</a>
</g>
</g>
<!-- Node7&#45;&gt;Node8 -->
<g id="edge7_Node000007_Node000008" class="edge">
<title>Node7&#45;&gt;Node8</title>
<g id="a_edge7_Node000007_Node000008"><a xlink:title=" ">
<path fill="none" stroke="#63b8ff" d="M1152,-54.65C1152,-42.82 1152,-28.54 1152,-19.52"/>
<polygon fill="#63b8ff" stroke="#63b8ff" points="1148.5,-54.64 1152,-64.64 1155.5,-54.64 1148.5,-54.64"/>
</a>
</g>
</g>
<!-- Node9&#45;&gt;Node3 -->
<g id="edge12_Node000009_Node000003" class="edge">
<title>Node9&#45;&gt;Node3</title>
<g id="a_edge12_Node000009_Node000003"><a xlink:title=" ">
<path fill="none" stroke="#63b8ff" d="M548.28,-62.93C558.85,-60.07 570.29,-57.27 581,-55.25 706.61,-31.52 856.27,-19.26 936.46,-13.96"/>
<polygon fill="#63b8ff" stroke="#63b8ff" points="547.38,-59.55 538.69,-65.62 549.27,-66.29 547.38,-59.55"/>
</a>
</g>
</g>
<!-- Node10 -->
<g id="Node000010" class="node">
<title>Node10</title>
<g id="a_Node000010"><a xlink:href="../../d4/d94/object-editor_8cpp.html" target="_top" xlink:title=" ">
<polygon fill="white" stroke="#666666" points="497.88,-19.25 370.12,-19.25 370.12,0 497.88,0 497.88,-19.25"/>
<text text-anchor="middle" x="434" y="-5.75" font-family="Helvetica,sans-Serif" font-size="10.00">d3d_test/object&#45;editor.cpp</text>
</a>
</g>
</g>
<!-- Node9&#45;&gt;Node10 -->
<g id="edge13_Node000009_Node000010" class="edge">
<title>Node9&#45;&gt;Node10</title>
<g id="a_edge13_Node000009_Node000010"><a xlink:title=" ">
<path fill="none" stroke="#63b8ff" d="M489.14,-58.69C474.85,-46.23 455.76,-29.59 444.2,-19.52"/>
<polygon fill="#63b8ff" stroke="#63b8ff" points="486.73,-61.23 496.57,-65.16 491.33,-55.95 486.73,-61.23"/>
</a>
</g>
</g>
<!-- Node11 -->
<g id="Node000011" class="node">
<title>Node11</title>
<g id="a_Node000011"><a xlink:href="../../d0/d38/scene-viewer_8cpp.html" target="_top" xlink:title=" ">
<polygon fill="white" stroke="#666666" points="648.12,-19.25 515.88,-19.25 515.88,0 648.12,0 648.12,-19.25"/>
<text text-anchor="middle" x="582" y="-5.75" font-family="Helvetica,sans-Serif" font-size="10.00">d3d_test/scene&#45;viewer.cpp</text>
</a>
</g>
</g>
<!-- Node9&#45;&gt;Node11 -->
<g id="edge14_Node000009_Node000011" class="edge">
<title>Node9&#45;&gt;Node11</title>
<g id="a_edge14_Node000009_Node000011"><a xlink:title=" ">
<path fill="none" stroke="#63b8ff" d="M526.86,-58.69C541.15,-46.23 560.24,-29.59 571.8,-19.52"/>
<polygon fill="#63b8ff" stroke="#63b8ff" points="524.67,-55.95 519.43,-65.16 529.27,-61.23 524.67,-55.95"/>
</a>
</g>
</g>
<!-- Node12&#45;&gt;Node3 -->
<g id="edge16_Node000012_Node000003" class="edge">
<title>Node12&#45;&gt;Node3</title>
<g id="a_edge16_Node000012_Node000003"><a xlink:title=" ">
<path fill="none" stroke="#63b8ff" d="M991.25,-55.02C991.98,-43.12 992.88,-28.63 993.45,-19.52"/>
<polygon fill="#63b8ff" stroke="#63b8ff" points="987.78,-54.45 990.65,-64.65 994.76,-54.88 987.78,-54.45"/>
</a>
</g>
</g>
<!-- Node22 -->
<g id="Node000022" class="node">
<title>Node22</title>
<g id="a_Node000022"><a xlink:href="../../d4/d87/layers_8hpp.html" target="_top" xlink:title=" ">
<polygon fill="white" stroke="#666666" points="1257.38,-218.75 1144.62,-218.75 1144.62,-199.5 1257.38,-199.5 1257.38,-218.75"/>
<text text-anchor="middle" x="1201" y="-205.25" font-family="Helvetica,sans-Serif" font-size="10.00">engine/core/layers.hpp</text>
</a>
</g>
</g>
<!-- Node21&#45;&gt;Node22 -->
<g id="edge26_Node000021_Node000022" class="edge">
<title>Node21&#45;&gt;Node22</title>
<g id="a_edge26_Node000021_Node000022"><a xlink:title=" ">
<path fill="none" stroke="#63b8ff" d="M1364.5,-256.48C1362.65,-255.89 1360.81,-255.31 1359,-254.75 1316.52,-241.61 1267.14,-227.91 1235.05,-219.22"/>
<polygon fill="#63b8ff" stroke="#63b8ff" points="1363.19,-259.73 1373.78,-259.47 1365.34,-253.07 1363.19,-259.73"/>
</a>
</g>
</g>
<!-- Node23 -->
<g id="Node000023" class="node">
<title>Node23</title>
<g id="a_Node000023"><a xlink:href="../../db/df9/deferred-hdr-render-pipeline_8hpp.html" target="_top" xlink:title=" ">
<polygon fill="white" stroke="#666666" points="1732.38,-163.5 1601.62,-163.5 1601.62,-133 1732.38,-133 1732.38,-163.5"/>
<text text-anchor="start" x="1609.62" y="-150" font-family="Helvetica,sans-Serif" font-size="10.00">engine/direct3d11/deferred</text>
<text text-anchor="middle" x="1667" y="-138.75" font-family="Helvetica,sans-Serif" font-size="10.00">&#45;hdr&#45;render&#45;pipeline.hpp</text>
</a>
</g>
</g>
<!-- Node21&#45;&gt;Node23 -->
<g id="edge28_Node000021_Node000023" class="edge">
<title>Node21&#45;&gt;Node23</title>
<g id="a_edge28_Node000021_Node000023"><a xlink:title=" ">
<path fill="none" stroke="#63b8ff" d="M1457.18,-254.9C1507.29,-229.66 1592.95,-186.53 1637.75,-163.98"/>
<polygon fill="#63b8ff" stroke="#63b8ff" points="1455.76,-251.69 1448.4,-259.32 1458.91,-257.95 1455.76,-251.69"/>
</a>
</g>
</g>
<!-- Node22&#45;&gt;Node6 -->
<g id="edge27_Node000022_Node000006" class="edge">
<title>Node22&#45;&gt;Node6</title>
<g id="a_edge27_Node000022_Node000006"><a xlink:title=" ">
<path fill="none" stroke="#63b8ff" d="M1157.45,-195.97C1117.34,-184.78 1058.72,-168.43 1022.54,-158.33"/>
<polygon fill="#63b8ff" stroke="#63b8ff" points="1156.46,-199.33 1167.04,-198.65 1158.34,-192.59 1156.46,-199.33"/>
</a>
</g>
</g>
<!-- Node23&#45;&gt;Node2 -->
<g id="edge29_Node000023_Node000002" class="edge">
<title>Node23&#45;&gt;Node2</title>
<g id="a_edge29_Node000023_Node000002"><a xlink:title=" ">
<path fill="none" stroke="#63b8ff" d="M1703.87,-127.21C1728.68,-113.72 1760.23,-96.57 1779.23,-86.24"/>
<polygon fill="#63b8ff" stroke="#63b8ff" points="1702.49,-123.98 1695.37,-131.83 1705.83,-130.13 1702.49,-123.98"/>
</a>
</g>
</g>
<!-- Node23&#45;&gt;Node4 -->
<g id="edge30_Node000023_Node000004" class="edge">
<title>Node23&#45;&gt;Node4</title>
<g id="a_edge30_Node000023_Node000004"><a xlink:title=" ">
<path fill="none" stroke="#63b8ff" d="M1744.22,-137.13C1792.13,-129.08 1847.28,-115.99 1862,-97 1873.37,-82.33 1870.7,-71.64 1862,-55.25 1853.11,-38.51 1834.84,-26.91 1819.76,-19.74"/>
<polygon fill="#63b8ff" stroke="#63b8ff" points="1743.67,-133.67 1734.36,-138.72 1744.79,-140.58 1743.67,-133.67"/>
</a>
</g>
</g>
<!-- Node23&#45;&gt;Node14 -->
<g id="edge31_Node000023_Node000014" class="edge">
<title>Node23&#45;&gt;Node14</title>
<g id="a_edge31_Node000023_Node000014"><a xlink:title=" ">
<path fill="none" stroke="#63b8ff" d="M1662.61,-121.6C1660.88,-111.51 1658.96,-100.28 1657.48,-91.64"/>
<polygon fill="#63b8ff" stroke="#63b8ff" points="1659.12,-121.96 1664.26,-131.23 1666.02,-120.78 1659.12,-121.96"/>
</a>
</g>
</g>
</g>
</svg>
