<?xml version="1.0" encoding="UTF-8" standalone="no"?>
<!DOCTYPE svg PUBLIC "-//W3C//DTD SVG 1.1//EN"
 "http://www.w3.org/Graphics/SVG/1.1/DTD/svg11.dtd">
<!-- Generated by graphviz version 8.1.0 (20230707.0739)
 -->
<!-- Title: engine::render::_particle_detail::ParticleRenderSystem Pages: 1 -->
<!--zoomable 229 -->

<svg id="main" version="1.1" xmlns="http://www.w3.org/2000/svg" xmlns:xlink="http://www.w3.org/1999/xlink" xml:space="preserve" onload="init(evt)">
<style type="text/css"><![CDATA[
.node, .edge {opacity: 0.7;}
.node.selected, .edge.selected {opacity: 1;}
.edge:hover path { stroke: red; }
.edge:hover polygon { stroke: red; fill: red; }
]]></style>

<defs>
  <circle id="rim" cx="0" cy="0" r="7"/>
  <circle id="rim2" cx="0" cy="0" r="3.5"/>
  <g id="zoomPlus">
    <use xlink:href="#rim" fill="#404040"><set attributeName="fill" to="#808080" begin="zoomplus.mouseover" end="zoomplus.mouseout"/></use>
    <path d="M-4,0h8M0,-4v8" fill="none" stroke="white" stroke-width="1.5" pointer-events="none"/>
  </g>
  <g id="zoomMin">
    <use xlink:href="#rim" fill="#404040"><set attributeName="fill" to="#808080" begin="zoomminus.mouseover" end="zoomminus.mouseout"/></use>
    <path d="M-4,0h8" fill="none" stroke="white" stroke-width="1.5" pointer-events="none"/>
  </g>
  <g id="arrowUp" transform="translate(30 24)">
    <use xlink:href="#rim"/>
    <path pointer-events="none" fill="none" stroke="white" stroke-width="1.5" d="M0,-3.0v7 M-2.5,-0.5L0,-3.0L2.5,-0.5"/>
  </g>
  <g id="arrowRight" transform="rotate(90) translate(36 -43)">
    <use xlink:href="#rim"/>
    <path pointer-events="none" fill="none" stroke="white" stroke-width="1.5" d="M0,-3.0v7 M-2.5,-0.5L0,-3.0L2.5,-0.5"/>
  </g>
  <g id="arrowDown" transform="rotate(180) translate(-30 -48)">
    <use xlink:href="#rim"/>
    <path pointer-events="none" fill="none" stroke="white" stroke-width="1.5" d="M0,-3.0v7 M-2.5,-0.5L0,-3.0L2.5,-0.5"/>
  </g>
  <g id="arrowLeft" transform="rotate(270) translate(-36 17)">
    <use xlink:href="#rim"/>
    <path pointer-events="none" fill="none" stroke="white" stroke-width="1.5" d="M0,-3.0v7 M-2.5,-0.5L0,-3.0L2.5,-0.5"/>
  </g>
  <g id="resetDef">
    <use xlink:href="#rim2" fill="#404040"><set attributeName="fill" to="#808080" begin="reset.mouseover" end="reset.mouseout"/></use>
  </g>
</defs>
<script type="application/ecmascript">
var viewWidth = 1292;
var viewHeight = 229;
var sectionId = 'dynsection-1';
</script>
<script type="application/ecmascript" xlink:href="../../svg.min.js"/>
<svg id="graph" class="graph">
<g id="viewport">
<title>engine::render::_particle_detail::ParticleRenderSystem</title>
<!-- Node1 -->
<g id="Node000001" class="node">
<title>Node1</title>
<g id="a_Node000001"><a xlink:title=" ">
<polygon fill="#999999" stroke="#666666" points="1284,-134.12 1138.25,-134.12 1138.25,-103.62 1284,-103.62 1284,-134.12"/>
<text text-anchor="start" x="1146.25" y="-120.62" font-family="Helvetica,sans-Serif" font-size="10.00">engine::render::_particle</text>
<text text-anchor="middle" x="1211.12" y="-109.38" font-family="Helvetica,sans-Serif" font-size="10.00">_detail::ParticleRenderSystem</text>
</a>
</g>
</g>
<!-- Node2 -->
<g id="Node000002" class="node">
<title>Node2</title>
<g id="a_Node000002"><a xlink:href="../../da/df3/structengine_1_1render_1_1_render_pass.html" target="_top" xlink:title=" ">
<polygon fill="white" stroke="#666666" points="1010,-198.5 876.25,-198.5 876.25,-179.25 1010,-179.25 1010,-198.5"/>
<text text-anchor="middle" x="943.12" y="-185" font-family="Helvetica,sans-Serif" font-size="10.00">engine::render::RenderPass</text>
</a>
</g>
</g>
<!-- Node2&#45;&gt;Node1 -->
<g id="edge1_Node000001_Node000002" class="edge">
<title>Node2&#45;&gt;Node1</title>
<g id="a_edge1_Node000001_Node000002"><a xlink:title=" ">
<path fill="none" stroke="#63b8ff" d="M1010.23,-176.72C1043.49,-170.08 1084.28,-161.11 1120.25,-150.88 1136.66,-146.21 1154.41,-140.11 1169.77,-134.5"/>
<polygon fill="#63b8ff" stroke="#63b8ff" points="1009.85,-173.43 1000.71,-178.8 1011.2,-180.3 1009.85,-173.43"/>
</a>
</g>
</g>
<!-- Node3 -->
<g id="Node000003" class="node">
<title>Node3</title>
<g id="a_Node000003"><a xlink:href="../../dd/d36/classengine_1_1render_1_1_graphics_shader_program.html" target="_top" xlink:title=" ">
<polygon fill="white" stroke="#666666" points="1002.88,-161.12 883.38,-161.12 883.38,-130.62 1002.88,-130.62 1002.88,-161.12"/>
<text text-anchor="start" x="891.38" y="-147.62" font-family="Helvetica,sans-Serif" font-size="10.00">engine::render::Graphics</text>
<text text-anchor="middle" x="943.12" y="-136.38" font-family="Helvetica,sans-Serif" font-size="10.00">ShaderProgram</text>
</a>
</g>
</g>
<!-- Node3&#45;&gt;Node1 -->
<g id="edge2_Node000001_Node000003" class="edge">
<title>Node3&#45;&gt;Node1</title>
<g id="a_edge2_Node000001_Node000003"><a xlink:title=" ">
<path fill="none" stroke="#9a32cd" stroke-dasharray="5,2" d="M1013.69,-138.81C1051.94,-134.93 1099.34,-130.12 1137.99,-126.2"/>
<polygon fill="#9a32cd" stroke="#9a32cd" points="1013.75,-135.39 1004.16,-139.88 1014.46,-142.35 1013.75,-135.39"/>
</a>
</g>
<text text-anchor="middle" x="1079" y="-137.62" font-family="Helvetica,sans-Serif" font-size="10.00" fill="grey"> particle_shader_</text>
</g>
<!-- Node4 -->
<g id="Node000004" class="node">
<title>Node4</title>
<g id="a_Node000004"><a xlink:href="../../db/db6/structengine_1_1render_1_1_shader_program.html" target="_top" xlink:title=" ">
<polygon fill="white" stroke="#666666" points="771.25,-220.5 623.25,-220.5 623.25,-201.25 771.25,-201.25 771.25,-220.5"/>
<text text-anchor="middle" x="697.25" y="-207" font-family="Helvetica,sans-Serif" font-size="10.00">engine::render::ShaderProgram</text>
</a>
</g>
</g>
<!-- Node4&#45;&gt;Node3 -->
<g id="edge3_Node000003_Node000004" class="edge">
<title>Node4&#45;&gt;Node3</title>
<g id="a_edge3_Node000003_Node000004"><a xlink:title=" ">
<path fill="none" stroke="#63b8ff" d="M752.4,-198.22C781.06,-191.35 816.78,-182.52 848.5,-173.88 862.41,-170.08 877.41,-165.72 891.23,-161.59"/>
<polygon fill="#63b8ff" stroke="#63b8ff" points="751.71,-195.03 742.79,-200.75 753.33,-201.84 751.71,-195.03"/>
</a>
</g>
</g>
<!-- Node5 -->
<g id="Node000005" class="node">
<title>Node5</title>
<g id="a_Node000005"><a xlink:title=" ">
<polygon fill="white" stroke="#666666" points="755.5,-183.12 639,-183.12 639,-152.62 755.5,-152.62 755.5,-183.12"/>
<text text-anchor="start" x="647" y="-169.62" font-family="Helvetica,sans-Serif" font-size="10.00">std::shared_ptr&lt; engine</text>
<text text-anchor="middle" x="697.25" y="-158.38" font-family="Helvetica,sans-Serif" font-size="10.00">::render::Shader &gt;</text>
</a>
</g>
</g>
<!-- Node5&#45;&gt;Node3 -->
<g id="edge4_Node000003_Node000005" class="edge">
<title>Node5&#45;&gt;Node3</title>
<g id="a_edge4_Node000003_Node000005"><a xlink:title=" ">
<path fill="none" stroke="#9a32cd" stroke-dasharray="5,2" d="M766.33,-161.73C802.97,-158.43 847.72,-154.39 882.9,-151.22"/>
<polygon fill="#9a32cd" stroke="#9a32cd" points="766.38,-158.3 756.74,-162.69 767.01,-165.28 766.38,-158.3"/>
</a>
</g>
<text text-anchor="middle" x="818.88" y="-160.62" font-family="Helvetica,sans-Serif" font-size="10.00" fill="grey"> shaders_</text>
</g>
<!-- Node6 -->
<g id="Node000006" class="node">
<title>Node6</title>
<g id="a_Node000006"><a xlink:href="../../d0/dc5/classengine_1_1render_1_1_shader.html" target="_top" xlink:title=" ">
<polygon fill="white" stroke="#666666" points="563.62,-177.5 452.38,-177.5 452.38,-158.25 563.62,-158.25 563.62,-177.5"/>
<text text-anchor="middle" x="508" y="-164" font-family="Helvetica,sans-Serif" font-size="10.00">engine::render::Shader</text>
</a>
</g>
</g>
<!-- Node6&#45;&gt;Node5 -->
<g id="edge5_Node000005_Node000006" class="edge">
<title>Node6&#45;&gt;Node5</title>
<g id="a_edge5_Node000005_Node000006"><a xlink:title=" ">
<path fill="none" stroke="#9a32cd" stroke-dasharray="5,2" d="M574.63,-167.88C595.52,-167.88 618.46,-167.88 638.73,-167.88"/>
<polygon fill="#9a32cd" stroke="#9a32cd" points="574.92,-164.38 564.92,-167.88 574.92,-171.38 574.92,-164.38"/>
</a>
</g>
<text text-anchor="middle" x="598.5" y="-169.62" font-family="Helvetica,sans-Serif" font-size="10.00" fill="grey"> ptr</text>
</g>
<!-- Node7 -->
<g id="Node000007" class="node">
<title>Node7</title>
<g id="a_Node000007"><a xlink:href="../../d3/de6/structengine_1_1render_1_1_shader_blob.html" target="_top" xlink:title=" ">
<polygon fill="white" stroke="#666666" points="380.75,-177.5 250,-177.5 250,-158.25 380.75,-158.25 380.75,-177.5"/>
<text text-anchor="middle" x="315.38" y="-164" font-family="Helvetica,sans-Serif" font-size="10.00">engine::render::ShaderBlob</text>
</a>
</g>
</g>
<!-- Node7&#45;&gt;Node6 -->
<g id="edge6_Node000006_Node000007" class="edge">
<title>Node7&#45;&gt;Node6</title>
<g id="a_edge6_Node000006_Node000007"><a xlink:title=" ">
<path fill="none" stroke="#9a32cd" stroke-dasharray="5,2" d="M392.12,-167.88C412.09,-167.88 433.26,-167.88 451.91,-167.88"/>
<polygon fill="#9a32cd" stroke="#9a32cd" points="392.18,-164.38 382.18,-167.88 392.18,-171.38 392.18,-164.38"/>
</a>
</g>
<text text-anchor="middle" x="411.5" y="-169.62" font-family="Helvetica,sans-Serif" font-size="10.00" fill="grey"> blob_</text>
</g>
<!-- Node8 -->
<g id="Node000008" class="node">
<title>Node8</title>
<g id="a_Node000008"><a xlink:title=" ">
<polygon fill="white" stroke="#666666" points="139.75,-177.5 33,-177.5 33,-158.25 139.75,-158.25 139.75,-177.5"/>
<text text-anchor="middle" x="86.38" y="-164" font-family="Helvetica,sans-Serif" font-size="10.00">std::vector&lt; uint8_t &gt;</text>
</a>
</g>
</g>
<!-- Node8&#45;&gt;Node7 -->
<g id="edge7_Node000007_Node000008" class="edge">
<title>Node8&#45;&gt;Node7</title>
<g id="a_edge7_Node000007_Node000008"><a xlink:title=" ">
<path fill="none" stroke="#9a32cd" stroke-dasharray="5,2" d="M150.68,-167.88C181.61,-167.88 218.77,-167.88 249.86,-167.88"/>
<polygon fill="#9a32cd" stroke="#9a32cd" points="151.02,-164.38 141.02,-167.88 151.02,-171.38 151.02,-164.38"/>
</a>
</g>
<text text-anchor="middle" x="211.38" y="-169.62" font-family="Helvetica,sans-Serif" font-size="10.00" fill="grey"> bytecode</text>
</g>
<!-- Node9 -->
<g id="Node000009" class="node">
<title>Node9</title>
<g id="a_Node000009"><a xlink:title=" ">
<polygon fill="white" stroke="#666666" points="755.5,-134.12 639,-134.12 639,-103.62 755.5,-103.62 755.5,-134.12"/>
<text text-anchor="start" x="647" y="-120.62" font-family="Helvetica,sans-Serif" font-size="10.00">std::shared_ptr&lt; engine</text>
<text text-anchor="middle" x="697.25" y="-109.38" font-family="Helvetica,sans-Serif" font-size="10.00">::render::InputLayout &gt;</text>
</a>
</g>
</g>
<!-- Node9&#45;&gt;Node3 -->
<g id="edge8_Node000003_Node000009" class="edge">
<title>Node9&#45;&gt;Node3</title>
<g id="a_edge8_Node000003_Node000009"><a xlink:title=" ">
<path fill="none" stroke="#9a32cd" stroke-dasharray="5,2" d="M766.33,-126.41C802.97,-130.47 847.72,-135.42 882.9,-139.32"/>
<polygon fill="#9a32cd" stroke="#9a32cd" points="767.06,-122.86 756.74,-125.24 766.29,-129.82 767.06,-122.86"/>
</a>
</g>
<text text-anchor="middle" x="818.88" y="-135.62" font-family="Helvetica,sans-Serif" font-size="10.00" fill="grey"> input_layout_</text>
</g>
<!-- Node10 -->
<g id="Node000010" class="node">
<title>Node10</title>
<g id="a_Node000010"><a xlink:href="../../d2/d6c/classengine_1_1render_1_1_input_layout.html" target="_top" xlink:title=" ">
<polygon fill="white" stroke="#666666" points="573.75,-128.5 442.25,-128.5 442.25,-109.25 573.75,-109.25 573.75,-128.5"/>
<text text-anchor="middle" x="508" y="-115" font-family="Helvetica,sans-Serif" font-size="10.00">engine::render::InputLayout</text>
</a>
</g>
</g>
<!-- Node10&#45;&gt;Node9 -->
<g id="edge9_Node000009_Node000010" class="edge">
<title>Node10&#45;&gt;Node9</title>
<g id="a_edge9_Node000009_Node000010"><a xlink:title=" ">
<path fill="none" stroke="#9a32cd" stroke-dasharray="5,2" d="M585.22,-118.88C603.1,-118.88 621.85,-118.88 638.75,-118.88"/>
<polygon fill="#9a32cd" stroke="#9a32cd" points="585.23,-115.38 575.23,-118.88 585.23,-122.38 585.23,-115.38"/>
</a>
</g>
<text text-anchor="middle" x="598.5" y="-120.62" font-family="Helvetica,sans-Serif" font-size="10.00" fill="grey"> ptr</text>
</g>
<!-- Node11 -->
<g id="Node000011" class="node">
<title>Node11</title>
<g id="a_Node000011"><a xlink:href="../../d2/db0/classengine_1_1direct3d_1_1_dynamic_uniform_buffer.html" target="_top" xlink:title=" ">
<polygon fill="white" stroke="#666666" points="1005.88,-112.38 880.38,-112.38 880.38,-59.38 1005.88,-59.38 1005.88,-112.38"/>
<text text-anchor="start" x="888.38" y="-98.88" font-family="Helvetica,sans-Serif" font-size="10.00">engine::direct3d::Dynamic</text>
<text text-anchor="start" x="888.38" y="-87.62" font-family="Helvetica,sans-Serif" font-size="10.00">UniformBuffer&lt; engine::</text>
<text text-anchor="start" x="888.38" y="-76.38" font-family="Helvetica,sans-Serif" font-size="10.00">render::_particle_detail</text>
<text text-anchor="middle" x="943.12" y="-65.12" font-family="Helvetica,sans-Serif" font-size="10.00">::ParticlePerFrame &gt;</text>
</a>
</g>
</g>
<!-- Node11&#45;&gt;Node1 -->
<g id="edge10_Node000001_Node000011" class="edge">
<title>Node11&#45;&gt;Node1</title>
<g id="a_edge10_Node000001_Node000011"><a xlink:title=" ">
<path fill="none" stroke="#9a32cd" stroke-dasharray="5,2" d="M1016.81,-90.56C1048.64,-93.05 1086.39,-96.6 1120.25,-101.38 1126.07,-102.2 1132.09,-103.15 1138.13,-104.17"/>
<polygon fill="#9a32cd" stroke="#9a32cd" points="1017.49,-87.02 1007.25,-89.75 1016.96,-94 1017.49,-87.02"/>
</a>
</g>
<text text-anchor="start" x="1037.75" y="-113.88" font-family="Helvetica,sans-Serif" font-size="10.00" fill="grey"> particle_per_frame</text>
<text text-anchor="middle" x="1079" y="-102.62" font-family="Helvetica,sans-Serif" font-size="10.00" fill="grey">_buffer_</text>
</g>
<!-- Node12 -->
<g id="Node000012" class="node">
<title>Node12</title>
<g id="a_Node000012"><a xlink:href="../../df/d0e/classengine_1_1direct3d_1_1_dynamic_buffer.html" target="_top" xlink:title="The dynamic buffer class.">
<polygon fill="white" stroke="#666666" points="760,-85.12 634.5,-85.12 634.5,-54.62 760,-54.62 760,-85.12"/>
<text text-anchor="start" x="642.5" y="-71.62" font-family="Helvetica,sans-Serif" font-size="10.00">engine::direct3d::Dynamic</text>
<text text-anchor="middle" x="697.25" y="-60.38" font-family="Helvetica,sans-Serif" font-size="10.00">Buffer&lt; T &gt;</text>
</a>
</g>
</g>
<!-- Node12&#45;&gt;Node11 -->
<g id="edge11_Node000011_Node000012" class="edge">
<title>Node12&#45;&gt;Node11</title>
<g id="a_edge11_Node000011_Node000012"><a xlink:title=" ">
<path fill="none" stroke="#8b1a1a" d="M770.98,-74.65C805.71,-76.92 846.83,-79.62 880.07,-81.8"/>
<polygon fill="#8b1a1a" stroke="#8b1a1a" points="771.63,-71.12 761.42,-73.95 771.17,-78.1 771.63,-71.12"/>
</a>
</g>
</g>
<!-- Node13 -->
<g id="Node000013" class="node">
<title>Node13</title>
<g id="a_Node000013"><a xlink:href="../../d9/db4/classengine_1_1direct3d_1_1_buffer_base.html" target="_top" xlink:title="Buffer Base class that contains the common functions for all the buffers.">
<polygon fill="white" stroke="#666666" points="564.75,-58.12 451.25,-58.12 451.25,-27.62 564.75,-27.62 564.75,-58.12"/>
<text text-anchor="start" x="459.25" y="-44.62" font-family="Helvetica,sans-Serif" font-size="10.00">engine::direct3d::Buffer</text>
<text text-anchor="middle" x="508" y="-33.38" font-family="Helvetica,sans-Serif" font-size="10.00">Base&lt; T &gt;</text>
</a>
</g>
</g>
<!-- Node13&#45;&gt;Node12 -->
<g id="edge12_Node000012_Node000013" class="edge">
<title>Node13&#45;&gt;Node12</title>
<g id="a_edge12_Node000012_Node000013"><a xlink:title=" ">
<path fill="none" stroke="#63b8ff" d="M575.86,-52.52C594.88,-55.26 615.5,-58.23 634.22,-60.93"/>
<polygon fill="#63b8ff" stroke="#63b8ff" points="576.58,-48.94 566.18,-50.98 575.58,-55.87 576.58,-48.94"/>
</a>
</g>
</g>
<!-- Node17 -->
<g id="Node000017" class="node">
<title>Node17</title>
<g id="a_Node000017"><a xlink:href="../../df/d0e/classengine_1_1direct3d_1_1_dynamic_buffer.html" target="_top" xlink:title="The dynamic buffer class.">
<polygon fill="white" stroke="#666666" points="760,-36.12 634.5,-36.12 634.5,-5.62 760,-5.62 760,-36.12"/>
<text text-anchor="start" x="642.5" y="-22.62" font-family="Helvetica,sans-Serif" font-size="10.00">engine::direct3d::Dynamic</text>
<text text-anchor="middle" x="697.25" y="-11.38" font-family="Helvetica,sans-Serif" font-size="10.00">Buffer&lt; T &gt;</text>
</a>
</g>
</g>
<!-- Node13&#45;&gt;Node17 -->
<g id="edge17_Node000017_Node000013" class="edge">
<title>Node13&#45;&gt;Node17</title>
<g id="a_edge17_Node000017_Node000013"><a xlink:title=" ">
<path fill="none" stroke="#63b8ff" d="M575.86,-35.02C594.88,-32.79 615.5,-30.36 634.22,-28.16"/>
<polygon fill="#63b8ff" stroke="#63b8ff" points="575.7,-31.63 566.18,-36.27 576.52,-38.58 575.7,-31.63"/>
</a>
</g>
</g>
<!-- Node14 -->
<g id="Node000014" class="node">
<title>Node14</title>
<g id="a_Node000014"><a xlink:href="../../d6/de4/classengine_1_1direct3d_1_1_buffer_wrapper.html" target="_top" xlink:title="A wrapper for a D3D11 buffer.">
<polygon fill="white" stroke="#666666" points="372.12,-58.12 258.62,-58.12 258.62,-27.62 372.12,-27.62 372.12,-58.12"/>
<text text-anchor="start" x="266.62" y="-44.62" font-family="Helvetica,sans-Serif" font-size="10.00">engine::direct3d::Buffer</text>
<text text-anchor="middle" x="315.38" y="-33.38" font-family="Helvetica,sans-Serif" font-size="10.00">Wrapper</text>
</a>
</g>
</g>
<!-- Node14&#45;&gt;Node13 -->
<g id="edge13_Node000013_Node000014" class="edge">
<title>Node14&#45;&gt;Node13</title>
<g id="a_edge13_Node000013_Node000014"><a xlink:title=" ">
<path fill="none" stroke="#8b1a1a" d="M383.49,-42.88C405.53,-42.88 429.78,-42.88 450.91,-42.88"/>
<polygon fill="#8b1a1a" stroke="#8b1a1a" points="383.54,-39.38 373.54,-42.88 383.54,-46.38 383.54,-39.38"/>
</a>
</g>
</g>
<!-- Node15 -->
<g id="Node000015" class="node">
<title>Node15</title>
<g id="a_Node000015"><a xlink:href="../../df/d47/classengine_1_1direct3d_1_1d3d__resource__wrapper.html" target="_top" xlink:title=" ">
<polygon fill="white" stroke="#666666" points="172.75,-58.12 0,-58.12 0,-27.62 172.75,-27.62 172.75,-58.12"/>
<text text-anchor="start" x="8" y="-44.62" font-family="Helvetica,sans-Serif" font-size="10.00">engine::direct3d::d3d</text>
<text text-anchor="middle" x="86.38" y="-33.38" font-family="Helvetica,sans-Serif" font-size="10.00">_resource_wrapper&lt; ID3D11Buffer &gt;</text>
</a>
</g>
</g>
<!-- Node15&#45;&gt;Node14 -->
<g id="edge14_Node000014_Node000015" class="edge">
<title>Node15&#45;&gt;Node14</title>
<g id="a_edge14_Node000014_Node000015"><a xlink:title=" ">
<path fill="none" stroke="#9a32cd" stroke-dasharray="5,2" d="M183.98,-42.88C209.36,-42.88 235.88,-42.88 258.33,-42.88"/>
<polygon fill="#9a32cd" stroke="#9a32cd" points="184.19,-39.38 174.19,-42.88 184.19,-46.38 184.19,-39.38"/>
</a>
</g>
<text text-anchor="middle" x="211.38" y="-44.62" font-family="Helvetica,sans-Serif" font-size="10.00" fill="grey"> buffer_</text>
</g>
<!-- Node16 -->
<g id="Node000016" class="node">
<title>Node16</title>
<g id="a_Node000016"><a xlink:href="../../d5/dbb/classengine_1_1direct3d_1_1_dynamic_vertex_buffer.html" target="_top" xlink:title=" ">
<polygon fill="white" stroke="#666666" points="1019.75,-41.75 866.5,-41.75 866.5,0 1019.75,0 1019.75,-41.75"/>
<text text-anchor="start" x="874.5" y="-28.25" font-family="Helvetica,sans-Serif" font-size="10.00">engine::direct3d::Dynamic</text>
<text text-anchor="start" x="874.5" y="-17" font-family="Helvetica,sans-Serif" font-size="10.00">VertexBuffer&lt; engine::render</text>
<text text-anchor="middle" x="943.12" y="-5.75" font-family="Helvetica,sans-Serif" font-size="10.00">::_particle_detail::GPUParticle &gt;</text>
</a>
</g>
</g>
<!-- Node16&#45;&gt;Node1 -->
<g id="edge15_Node000001_Node000016" class="edge">
<title>Node16&#45;&gt;Node1</title>
<g id="a_edge15_Node000001_Node000016"><a xlink:title=" ">
<path fill="none" stroke="#9a32cd" stroke-dasharray="5,2" d="M1029.18,-45.29C1058.34,-54.33 1090.99,-65.18 1120.25,-76.62 1140.32,-84.48 1162.22,-94.74 1179.37,-103.18"/>
<polygon fill="#9a32cd" stroke="#9a32cd" points="1030.6,-41.76 1020.02,-42.18 1028.55,-48.46 1030.6,-41.76"/>
</a>
</g>
<text text-anchor="middle" x="1079" y="-77.62" font-family="Helvetica,sans-Serif" font-size="10.00" fill="grey"> particle_buffer_</text>
</g>
<!-- Node17&#45;&gt;Node16 -->
<g id="edge16_Node000016_Node000017" class="edge">
<title>Node17&#45;&gt;Node16</title>
<g id="a_edge16_Node000016_Node000017"><a xlink:title=" ">
<path fill="none" stroke="#63b8ff" d="M771.23,-20.88C801.18,-20.88 835.86,-20.88 866.13,-20.88"/>
<polygon fill="#63b8ff" stroke="#63b8ff" points="771.42,-17.38 761.42,-20.88 771.42,-24.38 771.42,-17.38"/>
</a>
</g>
</g>
</g>
</svg>

<g id="navigator" transform="translate(0 0)" fill="#404254">
  <rect fill="#f2f5e9" fill-opacity="0.5" stroke="#606060" stroke-width=".5" x="0" y="0" width="60" height="60"/>
  <use id="zoomplus" xlink:href="#zoomPlus" x="17" y="9" onmousedown="handleZoom(evt,'in')"/>
  <use id="zoomminus" xlink:href="#zoomMin" x="42" y="9" onmousedown="handleZoom(evt,'out')"/>
  <use id="reset" xlink:href="#resetDef" x="30" y="36" onmousedown="handleReset()"/>
   <use id="arrowup" xlink:href="#arrowUp" x="0" y="0" onmousedown="handlePan(0,-1)"/>
  <use id="arrowright" xlink:href="#arrowRight" x="0" y="0" onmousedown="handlePan(1,0)"/>
  <use id="arrowdown" xlink:href="#arrowDown" x="0" y="0" onmousedown="handlePan(0,1)"/>
  <use id="arrowleft" xlink:href="#arrowLeft" x="0" y="0" onmousedown="handlePan(-1,0)"/>
</g>
<svg viewBox="0 0 15 15" width="100%" height="30px" preserveAspectRatio="xMaxYMin meet">
 <g id="arrow_out" transform="scale(0.3 0.3)">
  <a xlink:href="classengine_1_1render_1_1__particle__detail_1_1_particle_render_system__coll__graph_org.svg" target="_base">
   <rect id="button" ry="5" rx="5" y="6" x="6" height="38" width="38"
        fill="#f2f5e9" fill-opacity="0.5" stroke="#606060" stroke-width="1.0"/>
   <path id="arrow"
     d="M 11.500037,31.436501 C 11.940474,20.09759 22.043105,11.32322 32.158766,21.979434 L 37.068811,17.246167 C 37.068811,17.246167 37.088388,32 37.088388,32 L 22.160133,31.978069 C 22.160133,31.978069 26.997745,27.140456 26.997745,27.140456 C 18.528582,18.264221 13.291696,25.230495 11.500037,31.436501 z"
     style="fill:#404040;"/>
  </a>
 </g>
</svg>

<style type='text/css'>
<![CDATA[
[data-mouse-over-selected='false'] { opacity: 0.7; }
[data-mouse-over-selected='true']  { opacity: 1.0; }
]]>
</style>
<script type="application/ecmascript"><![CDATA[
document.addEventListener('DOMContentLoaded', (event) => {
  highlightEdges();
  highlightAdjacentNodes();
});
]]></script>
</svg>
