<?xml version="1.0" encoding="UTF-8" standalone="no"?>
<!DOCTYPE svg PUBLIC "-//W3C//DTD SVG 1.1//EN"
 "http://www.w3.org/Graphics/SVG/1.1/DTD/svg11.dtd">
<!-- Generated by graphviz version 9.0.0 (20230911.1827)
 -->
<!-- Title: engine::render::_particle_detail::ParticleRenderSystem Pages: 1 -->
<!--zoomable 229 -->

<svg id="main" version="1.1" xmlns="http://www.w3.org/2000/svg" xmlns:xlink="http://www.w3.org/1999/xlink" xml:space="preserve" onload="init(evt)">
<style type="text/css"><![CDATA[
.node, .edge {opacity: 0.7;}
.node.selected, .edge.selected {opacity: 1;}
.edge:hover path { stroke: red; }
.edge:hover polygon { stroke: red; fill: red; }
]]></style>

<defs>
  <circle id="rim" cx="0" cy="0" r="7"/>
  <circle id="rim2" cx="0" cy="0" r="3.5"/>
  <g id="zoomPlus">
    <use xlink:href="#rim" fill="#404040"><set attributeName="fill" to="#808080" begin="zoomplus.mouseover" end="zoomplus.mouseout"/></use>
    <path d="M-4,0h8M0,-4v8" fill="none" stroke="white" stroke-width="1.5" pointer-events="none"/>
  </g>
  <g id="zoomMin">
    <use xlink:href="#rim" fill="#404040"><set attributeName="fill" to="#808080" begin="zoomminus.mouseover" end="zoomminus.mouseout"/></use>
    <path d="M-4,0h8" fill="none" stroke="white" stroke-width="1.5" pointer-events="none"/>
  </g>
  <g id="arrowUp" transform="translate(30 24)">
    <use xlink:href="#rim"/>
    <path pointer-events="none" fill="none" stroke="white" stroke-width="1.5" d="M0,-3.0v7 M-2.5,-0.5L0,-3.0L2.5,-0.5"/>
  </g>
  <g id="arrowRight" transform="rotate(90) translate(36 -43)">
    <use xlink:href="#rim"/>
    <path pointer-events="none" fill="none" stroke="white" stroke-width="1.5" d="M0,-3.0v7 M-2.5,-0.5L0,-3.0L2.5,-0.5"/>
  </g>
  <g id="arrowDown" transform="rotate(180) translate(-30 -48)">
    <use xlink:href="#rim"/>
    <path pointer-events="none" fill="none" stroke="white" stroke-width="1.5" d="M0,-3.0v7 M-2.5,-0.5L0,-3.0L2.5,-0.5"/>
  </g>
  <g id="arrowLeft" transform="rotate(270) translate(-36 17)">
    <use xlink:href="#rim"/>
    <path pointer-events="none" fill="none" stroke="white" stroke-width="1.5" d="M0,-3.0v7 M-2.5,-0.5L0,-3.0L2.5,-0.5"/>
  </g>
  <g id="resetDef">
    <use xlink:href="#rim2" fill="#404040"><set attributeName="fill" to="#808080" begin="reset.mouseover" end="reset.mouseout"/></use>
  </g>
</defs>
<script type="application/ecmascript">
var viewWidth = 1292;
var viewHeight = 229;
var sectionId = 'dynsection-1';
</script>
<script type="application/ecmascript" xlink:href="../../svg.min.js"/>
<svg id="graph" class="graph">
<g id="viewport">
<title>engine::render::_particle_detail::ParticleRenderSystem</title>
<!-- Node1 -->
<g id="Node000001" class="node">
<title>Node1</title>
<g id="a_Node000001"><a xlink:title=" ">
<polygon fill="#999999" stroke="#666666" points="1284,-134.12 1138.25,-134.12 1138.25,-103.62 1284,-103.62 1284,-134.12"/>
<text text-anchor="start" x="1146.25" y="-120.62" font-family="Helvetica,sans-Serif" font-size="10.00">engine::render::_particle</text>
<text text-anchor="middle" x="1211.12" y="-109.38" font-family="Helvetica,sans-Serif" font-size="10.00">_detail::ParticleRenderSystem</text>
</a>
</g>
</g>
<!-- Node2 -->
<g id="Node000002" class="node">
<title>Node2</title>
<g id="a_Node000002"><a xlink:href="../../da/df3/structengine_1_1render_1_1_render_pass.html" target="_top" xlink:title=" ">
<polygon fill="white" stroke="#666666" points="1010,-198.5 876.25,-198.5 876.25,-179.25 1010,-179.25 1010,-198.5"/>
<text text-anchor="middle" x="943.12" y="-185" font-family="Helvetica,sans-Serif" font-size="10.00">engine::render::RenderPass</text>
</a>
</g>
</g>
<!-- Node2&#45;&gt;Node1 -->
<g id="edge1_Node000001_Node000002" class="edge">
<title>Node2&#45;&gt;Node1</title>
<g id="a_edge1_Node000001_Node000002"><a xlink:title=" ">
<path fill="none" stroke="#63b8ff" d="M1010.66,-176.64C1043.84,-170 1084.43,-161.07 1120.25,-150.88 1136.66,-146.21 1154.41,-140.11 1169.77,-134.5"/>
<polygon fill="#63b8ff" stroke="#63b8ff" points="1010.33,-173.13 1001.2,-178.5 1011.69,-180 1010.33,-173.13"/>
</a>
</g>
</g>
<!-- Node3 -->
<g id="Node000003" class="node">
<title>Node3</title>
<g id="a_Node000003"><a xlink:href="../../dd/d36/classengine_1_1render_1_1_graphics_shader_program.html" target="_top" xlink:title=" ">
<polygon fill="white" stroke="#666666" points="1002.88,-161.12 883.38,-161.12 883.38,-130.62 1002.88,-130.62 1002.88,-161.12"/>
<text text-anchor="start" x="891.38" y="-147.62" font-family="Helvetica,sans-Serif" font-size="10.00">engine::render::Graphics</text>
<text text-anchor="middle" x="943.12" y="-136.38" font-family="Helvetica,sans-Serif" font-size="10.00">ShaderProgram</text>
</a>
</g>
</g>
<!-- Node3&#45;&gt;Node1 -->
<g id="edge2_Node000001_Node000003" class="edge">
<title>Node3&#45;&gt;Node1</title>
<g id="a_edge2_Node000001_Node000003"><a xlink:title=" ">
<path fill="none" stroke="#9a32cd" stroke-dasharray="5,2" d="M1014.18,-138.76C1052.35,-134.89 1099.5,-130.1 1137.99,-126.2"/>
<polygon fill="#9a32cd" stroke="#9a32cd" points="1014.26,-135.24 1004.66,-139.73 1014.97,-142.2 1014.26,-135.24"/>
</a>
</g>
<text text-anchor="middle" x="1079" y="-137.62" font-family="Helvetica,sans-Serif" font-size="10.00" fill="grey"> particle_shader_</text>
</g>
<!-- Node4 -->
<g id="Node000004" class="node">
<title>Node4</title>
<g id="a_Node000004"><a xlink:href="../../db/db6/structengine_1_1render_1_1_shader_program.html" target="_top" xlink:title=" ">
<polygon fill="white" stroke="#666666" points="771.25,-220.5 623.25,-220.5 623.25,-201.25 771.25,-201.25 771.25,-220.5"/>
<text text-anchor="middle" x="697.25" y="-207" font-family="Helvetica,sans-Serif" font-size="10.00">engine::render::ShaderProgram</text>
</a>
</g>
</g>
<!-- Node4&#45;&gt;Node3 -->
<g id="edge3_Node000003_Node000004" class="edge">
<title>Node4&#45;&gt;Node3</title>
<g id="a_edge3_Node000003_Node000004"><a xlink:title=" ">
<path fill="none" stroke="#63b8ff" d="M752.78,-198.13C781.37,-191.27 816.92,-182.48 848.5,-173.88 862.41,-170.08 877.41,-165.72 891.23,-161.59"/>
<polygon fill="#63b8ff" stroke="#63b8ff" points="752.18,-194.67 743.26,-200.4 753.8,-201.48 752.18,-194.67"/>
</a>
</g>
</g>
<!-- Node5 -->
<g id="Node000005" class="node">
<title>Node5</title>
<g id="a_Node000005"><a xlink:title=" ">
<polygon fill="white" stroke="#666666" points="755.5,-183.12 639,-183.12 639,-152.62 755.5,-152.62 755.5,-183.12"/>
<text text-anchor="start" x="647" y="-169.62" font-family="Helvetica,sans-Serif" font-size="10.00">std::shared_ptr&lt; engine</text>
<text text-anchor="middle" x="697.25" y="-158.38" font-family="Helvetica,sans-Serif" font-size="10.00">::render::Shader &gt;</text>
</a>
</g>
</g>
<!-- Node5&#45;&gt;Node3 -->
<g id="edge4_Node000003_Node000005" class="edge">
<title>Node5&#45;&gt;Node3</title>
<g id="a_edge4_Node000003_Node000005"><a xlink:title=" ">
<path fill="none" stroke="#9a32cd" stroke-dasharray="5,2" d="M766.8,-161.69C803.35,-158.39 847.87,-154.38 882.9,-151.22"/>
<polygon fill="#9a32cd" stroke="#9a32cd" points="766.89,-158.17 757.24,-162.55 767.52,-165.14 766.89,-158.17"/>
</a>
</g>
<text text-anchor="middle" x="818.88" y="-160.62" font-family="Helvetica,sans-Serif" font-size="10.00" fill="grey"> shaders_</text>
</g>
<!-- Node6 -->
<g id="Node000006" class="node">
<title>Node6</title>
<g id="a_Node000006"><a xlink:href="../../d0/dc5/classengine_1_1render_1_1_shader.html" target="_top" xlink:title=" ">
<polygon fill="white" stroke="#666666" points="563.62,-177.5 452.38,-177.5 452.38,-158.25 563.62,-158.25 563.62,-177.5"/>
<text text-anchor="middle" x="508" y="-164" font-family="Helvetica,sans-Serif" font-size="10.00">engine::render::Shader</text>
</a>
</g>
</g>
<!-- Node6&#45;&gt;Node5 -->
<g id="edge5_Node000005_Node000006" class="edge">
<title>Node6&#45;&gt;Node5</title>
<g id="a_edge5_Node000005_Node000006"><a xlink:title=" ">
<path fill="none" stroke="#9a32cd" stroke-dasharray="5,2" d="M575.2,-167.88C595.94,-167.88 618.64,-167.88 638.73,-167.88"/>
<polygon fill="#9a32cd" stroke="#9a32cd" points="575.43,-164.38 565.43,-167.88 575.43,-171.38 575.43,-164.38"/>
</a>
</g>
<text text-anchor="middle" x="598.5" y="-169.62" font-family="Helvetica,sans-Serif" font-size="10.00" fill="grey"> ptr</text>
</g>
<!-- Node7 -->
<g id="Node000007" class="node">
<title>Node7</title>
<g id="a_Node000007"><a xlink:href="../../d3/de6/structengine_1_1render_1_1_shader_blob.html" target="_top" xlink:title=" ">
<polygon fill="white" stroke="#666666" points="380.75,-177.5 250,-177.5 250,-158.25 380.75,-158.25 380.75,-177.5"/>
<text text-anchor="middle" x="315.38" y="-164" font-family="Helvetica,sans-Serif" font-size="10.00">engine::render::ShaderBlob</text>
</a>
</g>
</g>
<!-- Node7&#45;&gt;Node6 -->
<g id="edge6_Node000006_Node000007" class="edge">
<title>Node7&#45;&gt;Node6</title>
<g id="a_edge6_Node000006_Node000007"><a xlink:title=" ">
<path fill="none" stroke="#9a32cd" stroke-dasharray="5,2" d="M392.68,-167.88C412.49,-167.88 433.43,-167.88 451.91,-167.88"/>
<polygon fill="#9a32cd" stroke="#9a32cd" points="392.69,-164.38 382.69,-167.88 392.69,-171.38 392.69,-164.38"/>
</a>
</g>
<text text-anchor="middle" x="411.5" y="-169.62" font-family="Helvetica,sans-Serif" font-size="10.00" fill="grey"> blob_</text>
</g>
<!-- Node8 -->
<g id="Node000008" class="node">
<title>Node8</title>
<g id="a_Node000008"><a xlink:title=" ">
<polygon fill="white" stroke="#666666" points="139.75,-177.5 33,-177.5 33,-158.25 139.75,-158.25 139.75,-177.5"/>
<text text-anchor="middle" x="86.38" y="-164" font-family="Helvetica,sans-Serif" font-size="10.00">std::vector&lt; uint8_t &gt;</text>
</a>
</g>
</g>
<!-- Node8&#45;&gt;Node7 -->
<g id="edge7_Node000007_Node000008" class="edge">
<title>Node8&#45;&gt;Node7</title>
<g id="a_edge7_Node000007_Node000008"><a xlink:title=" ">
<path fill="none" stroke="#9a32cd" stroke-dasharray="5,2" d="M151.5,-167.88C182.26,-167.88 219.04,-167.88 249.86,-167.88"/>
<polygon fill="#9a32cd" stroke="#9a32cd" points="151.54,-164.38 141.54,-167.88 151.54,-171.38 151.54,-164.38"/>
</a>
</g>
<text text-anchor="middle" x="211.38" y="-169.62" font-family="Helvetica,sans-Serif" font-size="10.00" fill="grey"> bytecode</text>
</g>
<!-- Node9 -->
<g id="Node000009" class="node">
<title>Node9</title>
<g id="a_Node000009"><a xlink:title=" ">
<polygon fill="white" stroke="#666666" points="755.5,-134.12 639,-134.12 639,-103.62 755.5,-103.62 755.5,-134.12"/>
<text text-anchor="start" x="647" y="-120.62" font-family="Helvetica,sans-Serif" font-size="10.00">std::shared_ptr&lt; engine</text>
<text text-anchor="middle" x="697.25" y="-109.38" font-family="Helvetica,sans-Serif" font-size="10.00">::render::InputLayout &gt;</text>
</a>
</g>
</g>
<!-- Node9&#45;&gt;Node3 -->
<g id="edge8_Node000003_Node000009" class="edge">
<title>Node9&#45;&gt;Node3</title>
<g id="a_edge8_Node000003_Node000009"><a xlink:title=" ">
<path fill="none" stroke="#9a32cd" stroke-dasharray="5,2" d="M766.8,-126.46C803.35,-130.51 847.87,-135.44 882.9,-139.32"/>
<polygon fill="#9a32cd" stroke="#9a32cd" points="767.56,-123.03 757.24,-125.41 766.79,-129.99 767.56,-123.03"/>
</a>
</g>
<text text-anchor="middle" x="818.88" y="-135.62" font-family="Helvetica,sans-Serif" font-size="10.00" fill="grey"> input_layout_</text>
</g>
<!-- Node10 -->
<g id="Node000010" class="node">
<title>Node10</title>
<g id="a_Node000010"><a xlink:href="../../d2/d6c/classengine_1_1render_1_1_input_layout.html" target="_top" xlink:title=" ">
<polygon fill="white" stroke="#666666" points="573.75,-128.5 442.25,-128.5 442.25,-109.25 573.75,-109.25 573.75,-128.5"/>
<text text-anchor="middle" x="508" y="-115" font-family="Helvetica,sans-Serif" font-size="10.00">engine::render::InputLayout</text>
</a>
</g>
</g>
<!-- Node10&#45;&gt;Node9 -->
<g id="edge9_Node000009_Node000010" class="edge">
<title>Node10&#45;&gt;Node9</title>
<g id="a_edge9_Node000009_Node000010"><a xlink:title=" ">
<path fill="none" stroke="#9a32cd" stroke-dasharray="5,2" d="M585.73,-118.88C603.45,-118.88 622.01,-118.88 638.75,-118.88"/>
<polygon fill="#9a32cd" stroke="#9a32cd" points="585.74,-115.38 575.74,-118.88 585.74,-122.38 585.74,-115.38"/>
</a>
</g>
<text text-anchor="middle" x="598.5" y="-120.62" font-family="Helvetica,sans-Serif" font-size="10.00" fill="grey"> ptr</text>
</g>
<!-- Node11 -->
<g id="Node000011" class="node">
<title>Node11</title>
<g id="a_Node000011"><a xlink:href="../../d2/db0/classengine_1_1direct3d_1_1_dynamic_uniform_buffer.html" target="_top" xlink:title=" ">
<polygon fill="white" stroke="#666666" points="1005.88,-112.38 880.38,-112.38 880.38,-59.38 1005.88,-59.38 1005.88,-112.38"/>
<text text-anchor="start" x="888.38" y="-98.88" font-family="Helvetica,sans-Serif" font-size="10.00">engine::direct3d::Dynamic</text>
<text text-anchor="start" x="888.38" y="-87.62" font-family="Helvetica,sans-Serif" font-size="10.00">UniformBuffer&lt; engine::</text>
<text text-anchor="start" x="888.38" y="-76.38" font-family="Helvetica,sans-Serif" font-size="10.00">render::_particle_detail</text>
<text text-anchor="middle" x="943.12" y="-65.12" font-family="Helvetica,sans-Serif" font-size="10.00">::ParticlePerFrame &gt;</text>
</a>
</g>
</g>
<!-- Node11&#45;&gt;Node1 -->
<g id="edge10_Node000001_Node000011" class="edge">
<title>Node11&#45;&gt;Node1</title>
<g id="a_edge10_Node000001_Node000011"><a xlink:title=" ">
<path fill="none" stroke="#9a32cd" stroke-dasharray="5,2" d="M1017.64,-90.62C1049.3,-93.11 1086.68,-96.64 1120.25,-101.38 1126.07,-102.2 1132.09,-103.15 1138.13,-104.17"/>
<polygon fill="#9a32cd" stroke="#9a32cd" points="1018,-87.14 1007.76,-89.87 1017.47,-94.12 1018,-87.14"/>
</a>
</g>
<text text-anchor="start" x="1037.75" y="-113.88" font-family="Helvetica,sans-Serif" font-size="10.00" fill="grey"> particle_per_frame</text>
<text text-anchor="middle" x="1079" y="-102.62" font-family="Helvetica,sans-Serif" font-size="10.00" fill="grey">_buffer_</text>
</g>
<!-- Node12 -->
<g id="Node000012" class="node">
<title>Node12</title>
<g id="a_Node000012"><a xlink:href="../../df/d0e/classengine_1_1direct3d_1_1_dynamic_buffer.html" target="_top" xlink:title="The dynamic buffer class.">
<polygon fill="white" stroke="#666666" points="760,-85.12 634.5,-85.12 634.5,-54.62 760,-54.62 760,-85.12"/>
<text text-anchor="start" x="642.5" y="-71.62" font-family="Helvetica,sans-Serif" font-size="10.00">engine::direct3d::Dynamic</text>
<text text-anchor="middle" x="697.25" y="-60.38" font-family="Helvetica,sans-Serif" font-size="10.00">Buffer&lt; T &gt;</text>
</a>
</g>
</g>
<!-- Node12&#45;&gt;Node11 -->
<g id="edge11_Node000011_Node000012" class="edge">
<title>Node12&#45;&gt;Node11</title>
<g id="a_edge11_Node000011_Node000012"><a xlink:title=" ">
<path fill="none" stroke="#8b1a1a" d="M771.88,-74.71C806.41,-76.97 847.12,-79.64 880.07,-81.8"/>
<polygon fill="#8b1a1a" stroke="#8b1a1a" points="772.14,-71.22 761.93,-74.05 771.68,-78.2 772.14,-71.22"/>
</a>
</g>
</g>
<!-- Node13 -->
<g id="Node000013" class="node">
<title>Node13</title>
<g id="a_Node000013"><a xlink:href="../../d9/db4/classengine_1_1direct3d_1_1_buffer_base.html" target="_top" xlink:title="Buffer Base class that contains the common functions for all the buffers.">
<polygon fill="white" stroke="#666666" points="564.75,-58.12 451.25,-58.12 451.25,-27.62 564.75,-27.62 564.75,-58.12"/>
<text text-anchor="start" x="459.25" y="-44.62" font-family="Helvetica,sans-Serif" font-size="10.00">engine::direct3d::Buffer</text>
<text text-anchor="middle" x="508" y="-33.38" font-family="Helvetica,sans-Serif" font-size="10.00">Base&lt; T &gt;</text>
</a>
</g>
</g>
<!-- Node13&#45;&gt;Node12 -->
<g id="edge12_Node000012_Node000013" class="edge">
<title>Node13&#45;&gt;Node12</title>
<g id="a_edge12_Node000012_Node000013"><a xlink:title=" ">
<path fill="none" stroke="#63b8ff" d="M576.39,-52.59C595.26,-55.31 615.68,-58.26 634.22,-60.93"/>
<polygon fill="#63b8ff" stroke="#63b8ff" points="577.08,-49.15 566.68,-51.19 576.08,-56.08 577.08,-49.15"/>
</a>
</g>
</g>
<!-- Node17 -->
<g id="Node000017" class="node">
<title>Node17</title>
<g id="a_Node000017"><a xlink:href="../../df/d0e/classengine_1_1direct3d_1_1_dynamic_buffer.html" target="_top" xlink:title="The dynamic buffer class.">
<polygon fill="white" stroke="#666666" points="760,-36.12 634.5,-36.12 634.5,-5.62 760,-5.62 760,-36.12"/>
<text text-anchor="start" x="642.5" y="-22.62" font-family="Helvetica,sans-Serif" font-size="10.00">engine::direct3d::Dynamic</text>
<text text-anchor="middle" x="697.25" y="-11.38" font-family="Helvetica,sans-Serif" font-size="10.00">Buffer&lt; T &gt;</text>
</a>
</g>
</g>
<!-- Node13&#45;&gt;Node17 -->
<g id="edge17_Node000017_Node000013" class="edge">
<title>Node13&#45;&gt;Node17</title>
<g id="a_edge17_Node000017_Node000013"><a xlink:title=" ">
<path fill="none" stroke="#63b8ff" d="M576.39,-34.96C595.26,-32.74 615.68,-30.34 634.22,-28.16"/>
<polygon fill="#63b8ff" stroke="#63b8ff" points="576.21,-31.45 566.68,-36.1 577.02,-38.41 576.21,-31.45"/>
</a>
</g>
</g>
<!-- Node14 -->
<g id="Node000014" class="node">
<title>Node14</title>
<g id="a_Node000014"><a xlink:href="../../d6/de4/classengine_1_1direct3d_1_1_buffer_wrapper.html" target="_top" xlink:title="A wrapper for a D3D11 buffer.">
<polygon fill="white" stroke="#666666" points="372.12,-58.12 258.62,-58.12 258.62,-27.62 372.12,-27.62 372.12,-58.12"/>
<text text-anchor="start" x="266.62" y="-44.62" font-family="Helvetica,sans-Serif" font-size="10.00">engine::direct3d::Buffer</text>
<text text-anchor="middle" x="315.38" y="-33.38" font-family="Helvetica,sans-Serif" font-size="10.00">Wrapper</text>
</a>
</g>
</g>
<!-- Node14&#45;&gt;Node13 -->
<g id="edge13_Node000013_Node000014" class="edge">
<title>Node14&#45;&gt;Node13</title>
<g id="a_edge13_Node000013_Node000014"><a xlink:title=" ">
<path fill="none" stroke="#8b1a1a" d="M383.79,-42.88C405.75,-42.88 429.87,-42.88 450.91,-42.88"/>
<polygon fill="#8b1a1a" stroke="#8b1a1a" points="384.05,-39.38 374.05,-42.88 384.05,-46.38 384.05,-39.38"/>
</a>
</g>
</g>
<!-- Node15 -->
<g id="Node000015" class="node">
<title>Node15</title>
<g id="a_Node000015"><a xlink:href="../../df/d47/classengine_1_1direct3d_1_1d3d__resource__wrapper.html" target="_top" xlink:title=" ">
<polygon fill="white" stroke="#666666" points="172.75,-58.12 0,-58.12 0,-27.62 172.75,-27.62 172.75,-58.12"/>
<text text-anchor="start" x="8" y="-44.62" font-family="Helvetica,sans-Serif" font-size="10.00">engine::direct3d::d3d</text>
<text text-anchor="middle" x="86.38" y="-33.38" font-family="Helvetica,sans-Serif" font-size="10.00">_resource_wrapper&lt; ID3D11Buffer &gt;</text>
</a>
</g>
</g>
<!-- Node15&#45;&gt;Node14 -->
<g id="edge14_Node000014_Node000015" class="edge">
<title>Node15&#45;&gt;Node14</title>
<g id="a_edge14_Node000014_Node000015"><a xlink:title=" ">
<path fill="none" stroke="#9a32cd" stroke-dasharray="5,2" d="M184.66,-42.88C209.83,-42.88 236.08,-42.88 258.33,-42.88"/>
<polygon fill="#9a32cd" stroke="#9a32cd" points="184.71,-39.38 174.71,-42.88 184.71,-46.38 184.71,-39.38"/>
</a>
</g>
<text text-anchor="middle" x="211.38" y="-44.62" font-family="Helvetica,sans-Serif" font-size="10.00" fill="grey"> buffer_</text>
</g>
<!-- Node16 -->
<g id="Node000016" class="node">
<title>Node16</title>
<g id="a_Node000016"><a xlink:href="../../d5/dbb/classengine_1_1direct3d_1_1_dynamic_vertex_buffer.html" target="_top" xlink:title=" ">
<polygon fill="white" stroke="#666666" points="1019.75,-41.75 866.5,-41.75 866.5,0 1019.75,0 1019.75,-41.75"/>
<text text-anchor="start" x="874.5" y="-28.25" font-family="Helvetica,sans-Serif" font-size="10.00">engine::direct3d::Dynamic</text>
<text text-anchor="start" x="874.5" y="-17" font-family="Helvetica,sans-Serif" font-size="10.00">VertexBuffer&lt; engine::render</text>
<text text-anchor="middle" x="943.12" y="-5.75" font-family="Helvetica,sans-Serif" font-size="10.00">::_particle_detail::GPUParticle &gt;</text>
</a>
</g>
</g>
<!-- Node16&#45;&gt;Node1 -->
<g id="edge15_Node000001_Node000016" class="edge">
<title>Node16&#45;&gt;Node1</title>
<g id="a_edge15_Node000001_Node000016"><a xlink:title=" ">
<path fill="none" stroke="#9a32cd" stroke-dasharray="5,2" d="M1029.94,-45.53C1058.91,-54.52 1091.25,-65.28 1120.25,-76.62 1140.32,-84.48 1162.22,-94.74 1179.37,-103.18"/>
<polygon fill="#9a32cd" stroke="#9a32cd" points="1031.05,-42.21 1020.46,-42.62 1028.99,-48.9 1031.05,-42.21"/>
</a>
</g>
<text text-anchor="middle" x="1079" y="-77.62" font-family="Helvetica,sans-Serif" font-size="10.00" fill="grey"> particle_buffer_</text>
</g>
<!-- Node17&#45;&gt;Node16 -->
<g id="edge16_Node000016_Node000017" class="edge">
<title>Node17&#45;&gt;Node16</title>
<g id="a_edge16_Node000016_Node000017"><a xlink:title=" ">
<path fill="none" stroke="#63b8ff" d="M771.62,-20.88C801.49,-20.88 836,-20.88 866.13,-20.88"/>
<polygon fill="#63b8ff" stroke="#63b8ff" points="771.93,-17.38 761.93,-20.88 771.93,-24.38 771.93,-17.38"/>
</a>
</g>
</g>
</g>
</svg>

<g id="navigator" transform="translate(0 0)" fill="#404254">
  <rect fill="#f2f5e9" fill-opacity="0.5" stroke="#606060" stroke-width=".5" x="0" y="0" width="60" height="60"/>
  <use id="zoomplus" xlink:href="#zoomPlus" x="17" y="9" onmousedown="handleZoom(evt,'in')"/>
  <use id="zoomminus" xlink:href="#zoomMin" x="42" y="9" onmousedown="handleZoom(evt,'out')"/>
  <use id="reset" xlink:href="#resetDef" x="30" y="36" onmousedown="handleReset()"/>
   <use id="arrowup" xlink:href="#arrowUp" x="0" y="0" onmousedown="handlePan(0,-1)"/>
  <use id="arrowright" xlink:href="#arrowRight" x="0" y="0" onmousedown="handlePan(1,0)"/>
  <use id="arrowdown" xlink:href="#arrowDown" x="0" y="0" onmousedown="handlePan(0,1)"/>
  <use id="arrowleft" xlink:href="#arrowLeft" x="0" y="0" onmousedown="handlePan(-1,0)"/>
</g>
<svg viewBox="0 0 15 15" width="100%" height="30px" preserveAspectRatio="xMaxYMin meet">
 <g id="arrow_out" transform="scale(0.3 0.3)">
  <a xlink:href="classengine_1_1render_1_1__particle__detail_1_1_particle_render_system__coll__graph_org.svg" target="_base">
   <rect id="button" ry="5" rx="5" y="6" x="6" height="38" width="38"
        fill="#f2f5e9" fill-opacity="0.5" stroke="#606060" stroke-width="1.0"/>
   <path id="arrow"
     d="M 11.500037,31.436501 C 11.940474,20.09759 22.043105,11.32322 32.158766,21.979434 L 37.068811,17.246167 C 37.068811,17.246167 37.088388,32 37.088388,32 L 22.160133,31.978069 C 22.160133,31.978069 26.997745,27.140456 26.997745,27.140456 C 18.528582,18.264221 13.291696,25.230495 11.500037,31.436501 z"
     style="fill:#404040;"/>
  </a>
 </g>
</svg>

<style type='text/css'>
<![CDATA[
[data-mouse-over-selected='false'] { opacity: 0.7; }
[data-mouse-over-selected='true']  { opacity: 1.0; }
]]>
</style>
<script type="application/ecmascript"><![CDATA[
document.addEventListener('DOMContentLoaded', (event) => {
  highlightEdges();
  highlightAdjacentNodes();
});
]]></script>
</svg>
