<?xml version="1.0" encoding="UTF-8" standalone="no"?>
<!DOCTYPE svg PUBLIC "-//W3C//DTD SVG 1.1//EN"
 "http://www.w3.org/Graphics/SVG/1.1/DTD/svg11.dtd">
<!-- Generated by graphviz version 8.1.0 (20230707.0739)
 -->
<!-- Title: engine::core::ShaderCompileInput Pages: 1 -->
<svg width="219pt" height="328pt"
 viewBox="0.00 0.00 219.12 328.00" xmlns="http://www.w3.org/2000/svg" xmlns:xlink="http://www.w3.org/1999/xlink">
<g id="graph0" class="graph" transform="scale(1 1) rotate(0) translate(4 324)">
<title>engine::core::ShaderCompileInput</title>
<!-- Node1 -->
<g id="Node000001" class="node">
<title>Node1</title>
<g id="a_Node000001"><a xlink:title=" ">
<polygon fill="#999999" stroke="#666666" points="138.25,-30.5 0,-30.5 0,0 138.25,0 138.25,-30.5"/>
<text text-anchor="start" x="8" y="-17" font-family="Helvetica,sans-Serif" font-size="10.00">engine::core::ShaderCompile</text>
<text text-anchor="middle" x="69.12" y="-5.75" font-family="Helvetica,sans-Serif" font-size="10.00">Input</text>
</a>
</g>
</g>
<!-- Node2 -->
<g id="Node000002" class="node">
<title>Node2</title>
<g id="a_Node000002"><a xlink:title=" ">
<polygon fill="white" stroke="#666666" points="98.12,-252.5 40.12,-252.5 40.12,-233.25 98.12,-233.25 98.12,-252.5"/>
<text text-anchor="middle" x="69.12" y="-239" font-family="Helvetica,sans-Serif" font-size="10.00">std::string</text>
</a>
</g>
</g>
<!-- Node2&#45;&gt;Node1 -->
<g id="edge1_Node000001_Node000002" class="edge">
<title>Node2&#45;&gt;Node1</title>
<g id="a_edge1_Node000001_Node000002"><a xlink:title=" ">
<path fill="none" stroke="#9a32cd" stroke-dasharray="5,2" d="M69.12,-221.9C69.12,-177.16 69.12,-69.77 69.12,-30.74"/>
<polygon fill="#9a32cd" stroke="#9a32cd" points="65.63,-221.75 69.12,-231.75 72.63,-221.75 65.63,-221.75"/>
</a>
</g>
<text text-anchor="middle" x="91.25" y="-128" font-family="Helvetica,sans-Serif" font-size="10.00" fill="grey"> entrypoint</text>
</g>
<!-- Node5 -->
<g id="Node000005" class="node">
<title>Node5</title>
<g id="a_Node000005"><a xlink:href="../../d7/d7d/structengine_1_1core_1_1_shader_macro.html" target="_top" xlink:title=" ">
<polygon fill="white" stroke="#666666" points="211.12,-174.75 81.12,-174.75 81.12,-155.5 211.12,-155.5 211.12,-174.75"/>
<text text-anchor="middle" x="146.12" y="-161.25" font-family="Helvetica,sans-Serif" font-size="10.00">engine::core::ShaderMacro</text>
</a>
</g>
</g>
<!-- Node2&#45;&gt;Node5 -->
<g id="edge5_Node000005_Node000002" class="edge">
<title>Node2&#45;&gt;Node5</title>
<g id="a_edge5_Node000005_Node000002"><a xlink:title=" ">
<path fill="none" stroke="#9a32cd" stroke-dasharray="5,2" d="M85.71,-225.56C101.41,-210.12 124.39,-187.51 137,-175.1"/>
<polygon fill="#9a32cd" stroke="#9a32cd" points="83.93,-222.38 79.26,-231.89 88.84,-227.37 83.93,-222.38"/>
</a>
</g>
<text text-anchor="middle" x="138.38" y="-205.75" font-family="Helvetica,sans-Serif" font-size="10.00" fill="grey"> definition</text>
<text text-anchor="middle" x="138.38" y="-194.5" font-family="Helvetica,sans-Serif" font-size="10.00" fill="grey">name</text>
</g>
<!-- Node3 -->
<g id="Node000003" class="node">
<title>Node3</title>
<g id="a_Node000003"><a xlink:title=" ">
<polygon fill="white" stroke="#666666" points="115.38,-320 22.88,-320 22.88,-289.5 115.38,-289.5 115.38,-320"/>
<text text-anchor="start" x="30.88" y="-306.5" font-family="Helvetica,sans-Serif" font-size="10.00">std::basic_string&lt;</text>
<text text-anchor="middle" x="69.12" y="-295.25" font-family="Helvetica,sans-Serif" font-size="10.00"> Char &gt;</text>
</a>
</g>
</g>
<!-- Node3&#45;&gt;Node2 -->
<g id="edge2_Node000002_Node000003" class="edge">
<title>Node3&#45;&gt;Node2</title>
<g id="a_edge2_Node000002_Node000003"><a xlink:title=" ">
<path fill="none" stroke="#63b8ff" d="M69.12,-278.33C69.12,-269.25 69.12,-259.61 69.12,-252.85"/>
<polygon fill="#63b8ff" stroke="#63b8ff" points="65.63,-278.26 69.12,-288.26 72.63,-278.26 65.63,-278.26"/>
</a>
</g>
</g>
<!-- Node4 -->
<g id="Node000004" class="node">
<title>Node4</title>
<g id="a_Node000004"><a xlink:title=" ">
<polygon fill="white" stroke="#666666" points="196,-108.25 86.25,-108.25 86.25,-77.75 196,-77.75 196,-108.25"/>
<text text-anchor="start" x="94.25" y="-94.75" font-family="Helvetica,sans-Serif" font-size="10.00">std::vector&lt; engine</text>
<text text-anchor="middle" x="141.12" y="-83.5" font-family="Helvetica,sans-Serif" font-size="10.00">::core::ShaderMacro &gt;</text>
</a>
</g>
</g>
<!-- Node4&#45;&gt;Node1 -->
<g id="edge3_Node000001_Node000004" class="edge">
<title>Node4&#45;&gt;Node1</title>
<g id="a_edge3_Node000001_Node000004"><a xlink:title=" ">
<path fill="none" stroke="#9a32cd" stroke-dasharray="5,2" d="M119.85,-69.62C107.94,-57.08 93.41,-41.8 82.96,-30.81"/>
<polygon fill="#9a32cd" stroke="#9a32cd" points="116.82,-71.56 126.24,-76.39 121.89,-66.74 116.82,-71.56"/>
</a>
</g>
<text text-anchor="middle" x="126.38" y="-50.25" font-family="Helvetica,sans-Serif" font-size="10.00" fill="grey"> macros</text>
</g>
<!-- Node5&#45;&gt;Node4 -->
<g id="edge4_Node000004_Node000005" class="edge">
<title>Node5&#45;&gt;Node4</title>
<g id="a_edge4_Node000004_Node000005"><a xlink:title=" ">
<path fill="none" stroke="#9a32cd" stroke-dasharray="5,2" d="M144.71,-144.28C143.9,-132.95 142.91,-119 142.17,-108.67"/>
<polygon fill="#9a32cd" stroke="#9a32cd" points="141.29,-144.52 145.49,-154.24 148.27,-144.02 141.29,-144.52"/>
</a>
</g>
<text text-anchor="middle" x="165.12" y="-128" font-family="Helvetica,sans-Serif" font-size="10.00" fill="grey"> elements</text>
</g>
</g>
</svg>
