<?xml version="1.0" encoding="UTF-8" standalone="no"?>
<!DOCTYPE svg PUBLIC "-//W3C//DTD SVG 1.1//EN"
 "http://www.w3.org/Graphics/SVG/1.1/DTD/svg11.dtd">
<!-- Generated by graphviz version 9.0.0 (20230911.1827)
 -->
<!-- Title: engine::core::Config Pages: 1 -->
<svg width="1336pt" height="114pt"
 viewBox="0.00 0.00 1336.00 113.88" xmlns="http://www.w3.org/2000/svg" xmlns:xlink="http://www.w3.org/1999/xlink">
<g id="graph0" class="graph" transform="scale(1 1) rotate(0) translate(4 109.88)">
<title>engine::core::Config</title>
<!-- Node1 -->
<g id="Node000001" class="node">
<title>Node1</title>
<g id="a_Node000001"><a xlink:title="Config class which is used to store all the configuration data for the engine.">
<polygon fill="#999999" stroke="#666666" points="1132,-85.25 1032.75,-85.25 1032.75,-66 1132,-66 1132,-85.25"/>
<text text-anchor="middle" x="1082.38" y="-71.75" font-family="Helvetica,sans-Serif" font-size="10.00">engine::core::Config</text>
</a>
</g>
</g>
<!-- Node9 -->
<g id="Node000009" class="node">
<title>Node9</title>
<g id="a_Node000009"><a xlink:title=" ">
<polygon fill="white" stroke="#666666" points="1328,-90.88 1212.25,-90.88 1212.25,-60.38 1328,-60.38 1328,-90.88"/>
<text text-anchor="start" x="1220.25" y="-77.38" font-family="Helvetica,sans-Serif" font-size="10.00">std::unique_ptr&lt; engine</text>
<text text-anchor="middle" x="1270.12" y="-66.12" font-family="Helvetica,sans-Serif" font-size="10.00">::core::Config &gt;</text>
</a>
</g>
</g>
<!-- Node1&#45;&gt;Node9 -->
<g id="edge11_Node000009_Node000001" class="edge">
<title>Node1&#45;&gt;Node9</title>
<g id="a_edge11_Node000009_Node000001"><a xlink:title=" ">
<path fill="none" stroke="#9a32cd" stroke-dasharray="5,2" d="M1143.41,-75.62C1165.45,-75.62 1190.32,-75.62 1212.08,-75.62"/>
<polygon fill="#9a32cd" stroke="#9a32cd" points="1143.69,-72.13 1133.69,-75.63 1143.69,-79.13 1143.69,-72.13"/>
</a>
</g>
<text text-anchor="middle" x="1172.12" y="-77.38" font-family="Helvetica,sans-Serif" font-size="10.00" fill="grey"> ptr</text>
</g>
<!-- Node2 -->
<g id="Node000002" class="node">
<title>Node2</title>
<g id="a_Node000002"><a xlink:href="../../dc/d2b/classengine_1_1ini_1_1_ini.html" target="_top" xlink:title=" ">
<polygon fill="white" stroke="#666666" points="995.75,-85.25 922,-85.25 922,-66 995.75,-66 995.75,-85.25"/>
<text text-anchor="middle" x="958.88" y="-71.75" font-family="Helvetica,sans-Serif" font-size="10.00">engine::ini::Ini</text>
</a>
</g>
</g>
<!-- Node2&#45;&gt;Node1 -->
<g id="edge1_Node000001_Node000002" class="edge">
<title>Node2&#45;&gt;Node1</title>
<g id="a_edge1_Node000001_Node000002"><a xlink:title=" ">
<path fill="none" stroke="#63b8ff" d="M1007.39,-75.62C1015.66,-75.62 1024.27,-75.62 1032.57,-75.62"/>
<polygon fill="#63b8ff" stroke="#63b8ff" points="1007.51,-72.13 997.51,-75.63 1007.51,-79.13 1007.51,-72.13"/>
</a>
</g>
</g>
<!-- Node3 -->
<g id="Node000003" class="node">
<title>Node3</title>
<g id="a_Node000003"><a xlink:title=" ">
<polygon fill="white" stroke="#666666" points="862.75,-96.5 756.75,-96.5 756.75,-54.75 862.75,-54.75 862.75,-96.5"/>
<text text-anchor="start" x="764.75" y="-83" font-family="Helvetica,sans-Serif" font-size="10.00">std::map&lt; std::string,</text>
<text text-anchor="start" x="764.75" y="-71.75" font-family="Helvetica,sans-Serif" font-size="10.00"> engine::ini::Section,</text>
<text text-anchor="middle" x="809.75" y="-60.5" font-family="Helvetica,sans-Serif" font-size="10.00"> std::less&lt;&gt; &gt;</text>
</a>
</g>
</g>
<!-- Node3&#45;&gt;Node2 -->
<g id="edge2_Node000002_Node000003" class="edge">
<title>Node3&#45;&gt;Node2</title>
<g id="a_edge2_Node000002_Node000003"><a xlink:title=" ">
<path fill="none" stroke="#9a32cd" stroke-dasharray="5,2" d="M874.19,-75.62C890.51,-75.62 907.52,-75.62 921.9,-75.62"/>
<polygon fill="#9a32cd" stroke="#9a32cd" points="874.55,-72.13 864.55,-75.63 874.55,-79.13 874.55,-72.13"/>
</a>
</g>
<text text-anchor="middle" x="892.38" y="-77.38" font-family="Helvetica,sans-Serif" font-size="10.00" fill="grey"> dict_</text>
</g>
<!-- Node4 -->
<g id="Node000004" class="node">
<title>Node4</title>
<g id="a_Node000004"><a xlink:title=" ">
<polygon fill="white" stroke="#666666" points="187.5,-65.25 129.5,-65.25 129.5,-46 187.5,-46 187.5,-65.25"/>
<text text-anchor="middle" x="158.5" y="-51.75" font-family="Helvetica,sans-Serif" font-size="10.00">std::string</text>
</a>
</g>
</g>
<!-- Node4&#45;&gt;Node3 -->
<g id="edge3_Node000003_Node000004" class="edge">
<title>Node4&#45;&gt;Node3</title>
<g id="a_edge3_Node000003_Node000004"><a xlink:title=" ">
<path fill="none" stroke="#9a32cd" stroke-dasharray="5,2" d="M191.09,-70.08C218.25,-81.18 258.77,-94.62 295.75,-94.62 295.75,-94.62 295.75,-94.62 631.62,-94.62 673.84,-94.62 721.39,-89.22 756.59,-84.18"/>
<polygon fill="#9a32cd" stroke="#9a32cd" points="192.64,-66.94 182.07,-66.26 189.91,-73.38 192.64,-66.94"/>
</a>
</g>
<text text-anchor="middle" x="470.25" y="-96.38" font-family="Helvetica,sans-Serif" font-size="10.00" fill="grey"> keys</text>
</g>
<!-- Node7 -->
<g id="Node000007" class="node">
<title>Node7</title>
<g id="a_Node000007"><a xlink:title=" ">
<polygon fill="white" stroke="#666666" points="523.25,-58.5 417.25,-58.5 417.25,-16.75 523.25,-16.75 523.25,-58.5"/>
<text text-anchor="start" x="425.25" y="-45" font-family="Helvetica,sans-Serif" font-size="10.00">std::map&lt; std::string,</text>
<text text-anchor="start" x="425.25" y="-33.75" font-family="Helvetica,sans-Serif" font-size="10.00"> engine::ini::Entry,</text>
<text text-anchor="middle" x="470.25" y="-22.5" font-family="Helvetica,sans-Serif" font-size="10.00"> std::less&lt;&gt; &gt;</text>
</a>
</g>
</g>
<!-- Node4&#45;&gt;Node7 -->
<g id="edge7_Node000007_Node000004" class="edge">
<title>Node4&#45;&gt;Node7</title>
<g id="a_edge7_Node000007_Node000004"><a xlink:title=" ">
<path fill="none" stroke="#9a32cd" stroke-dasharray="5,2" d="M199.25,-53.32C254.69,-50.09 355.32,-44.25 416.83,-40.67"/>
<polygon fill="#9a32cd" stroke="#9a32cd" points="199.1,-49.82 189.32,-53.89 199.51,-56.81 199.1,-49.82"/>
</a>
</g>
<text text-anchor="middle" x="296.75" y="-52.38" font-family="Helvetica,sans-Serif" font-size="10.00" fill="grey"> keys</text>
</g>
<!-- Node8 -->
<g id="Node000008" class="node">
<title>Node8</title>
<g id="a_Node000008"><a xlink:href="../../df/da4/classengine_1_1ini_1_1_entry.html" target="_top" xlink:title="Class representing an entry in the ini file.">
<polygon fill="white" stroke="#666666" points="339.25,-19.25 254.25,-19.25 254.25,0 339.25,0 339.25,-19.25"/>
<text text-anchor="middle" x="296.75" y="-5.75" font-family="Helvetica,sans-Serif" font-size="10.00">engine::ini::Entry</text>
</a>
</g>
</g>
<!-- Node4&#45;&gt;Node8 -->
<g id="edge9_Node000008_Node000004" class="edge">
<title>Node4&#45;&gt;Node8</title>
<g id="a_edge9_Node000008_Node000004"><a xlink:title=" ">
<path fill="none" stroke="#9a32cd" stroke-dasharray="5,2" d="M184.84,-40.09C191.4,-36.53 198.57,-33.01 205.5,-30.38 220.97,-24.48 238.61,-19.97 254.16,-16.68"/>
<polygon fill="#9a32cd" stroke="#9a32cd" points="183.42,-36.87 176.47,-44.87 186.89,-42.95 183.42,-36.87"/>
</a>
</g>
<text text-anchor="middle" x="220.88" y="-32.38" font-family="Helvetica,sans-Serif" font-size="10.00" fill="grey"> value_</text>
</g>
<!-- Node5 -->
<g id="Node000005" class="node">
<title>Node5</title>
<g id="a_Node000005"><a xlink:title=" ">
<polygon fill="white" stroke="#666666" points="92.5,-70.88 0,-70.88 0,-40.38 92.5,-40.38 92.5,-70.88"/>
<text text-anchor="start" x="8" y="-57.38" font-family="Helvetica,sans-Serif" font-size="10.00">std::basic_string&lt;</text>
<text text-anchor="middle" x="46.25" y="-46.12" font-family="Helvetica,sans-Serif" font-size="10.00"> Char &gt;</text>
</a>
</g>
</g>
<!-- Node5&#45;&gt;Node4 -->
<g id="edge4_Node000004_Node000005" class="edge">
<title>Node5&#45;&gt;Node4</title>
<g id="a_edge4_Node000004_Node000005"><a xlink:title=" ">
<path fill="none" stroke="#63b8ff" d="M104.12,-55.62C112.81,-55.62 121.45,-55.62 129.16,-55.62"/>
<polygon fill="#63b8ff" stroke="#63b8ff" points="104.24,-52.13 94.24,-55.63 104.24,-59.13 104.24,-52.13"/>
</a>
</g>
</g>
<!-- Node6 -->
<g id="Node000006" class="node">
<title>Node6</title>
<g id="a_Node000006"><a xlink:href="../../d1/dcf/classengine_1_1ini_1_1_section.html" target="_top" xlink:title="The section of the ini file.">
<polygon fill="white" stroke="#666666" points="678.75,-61.25 582.5,-61.25 582.5,-42 678.75,-42 678.75,-61.25"/>
<text text-anchor="middle" x="630.62" y="-47.75" font-family="Helvetica,sans-Serif" font-size="10.00">engine::ini::Section</text>
</a>
</g>
</g>
<!-- Node6&#45;&gt;Node3 -->
<g id="edge5_Node000003_Node000006" class="edge">
<title>Node6&#45;&gt;Node3</title>
<g id="a_edge5_Node000003_Node000006"><a xlink:title=" ">
<path fill="none" stroke="#9a32cd" stroke-dasharray="5,2" d="M690.33,-59.58C711.7,-62.47 735.7,-65.73 756.48,-68.54"/>
<polygon fill="#9a32cd" stroke="#9a32cd" points="690.97,-56.13 680.59,-58.26 690.03,-63.07 690.97,-56.13"/>
</a>
</g>
<text text-anchor="middle" x="717.75" y="-68.38" font-family="Helvetica,sans-Serif" font-size="10.00" fill="grey"> elements</text>
</g>
<!-- Node7&#45;&gt;Node6 -->
<g id="edge6_Node000006_Node000007" class="edge">
<title>Node7&#45;&gt;Node6</title>
<g id="a_edge6_Node000006_Node000007"><a xlink:title=" ">
<path fill="none" stroke="#9a32cd" stroke-dasharray="5,2" d="M534.86,-43.25C550.66,-44.64 567.32,-46.12 582.19,-47.43"/>
<polygon fill="#9a32cd" stroke="#9a32cd" points="535.32,-39.78 525.05,-42.38 534.71,-46.75 535.32,-39.78"/>
</a>
</g>
<text text-anchor="middle" x="552.88" y="-47.38" font-family="Helvetica,sans-Serif" font-size="10.00" fill="grey"> dict_</text>
</g>
<!-- Node8&#45;&gt;Node7 -->
<g id="edge8_Node000007_Node000008" class="edge">
<title>Node8&#45;&gt;Node7</title>
<g id="a_edge8_Node000007_Node000008"><a xlink:title=" ">
<path fill="none" stroke="#9a32cd" stroke-dasharray="5,2" d="M351.02,-18.32C372.03,-21.75 396.08,-25.68 416.99,-29.09"/>
<polygon fill="#9a32cd" stroke="#9a32cd" points="351.63,-14.88 341.2,-16.72 350.5,-21.78 351.63,-14.88"/>
</a>
</g>
<text text-anchor="middle" x="378.25" y="-28.38" font-family="Helvetica,sans-Serif" font-size="10.00" fill="grey"> elements</text>
</g>
<!-- Node9&#45;&gt;Node1 -->
<g id="edge10_Node000001_Node000009" class="edge">
<title>Node9&#45;&gt;Node1</title>
<g id="a_edge10_Node000001_Node000009"><a xlink:title=" ">
<path fill="none" stroke="#9a32cd" stroke-dasharray="5,2" d="M1200.87,-60.18C1198.64,-59.88 1196.43,-59.61 1194.25,-59.38 1174.7,-57.28 1169.53,-57.03 1150,-59.38 1139.48,-60.64 1128.22,-62.99 1118.01,-65.52"/>
<polygon fill="#9a32cd" stroke="#9a32cd" points="1200.18,-63.62 1210.6,-61.7 1201.26,-56.7 1200.18,-63.62"/>
</a>
</g>
<text text-anchor="middle" x="1172.12" y="-61.38" font-family="Helvetica,sans-Serif" font-size="10.00" fill="grey"> instance_</text>
</g>
</g>
</svg>
