<?xml version="1.0" encoding="UTF-8" standalone="no"?>
<!DOCTYPE svg PUBLIC "-//W3C//DTD SVG 1.1//EN"
 "http://www.w3.org/Graphics/SVG/1.1/DTD/svg11.dtd">
<!-- Generated by graphviz version 8.1.0 (20230707.0739)
 -->
<!-- Title: engine::render::HDRtoLDRLayer Pages: 1 -->
<!--zoomable 405 -->

<svg id="main" version="1.1" xmlns="http://www.w3.org/2000/svg" xmlns:xlink="http://www.w3.org/1999/xlink" xml:space="preserve" onload="init(evt)">
<style type="text/css"><![CDATA[
.node, .edge {opacity: 0.7;}
.node.selected, .edge.selected {opacity: 1;}
.edge:hover path { stroke: red; }
.edge:hover polygon { stroke: red; fill: red; }
]]></style>

<defs>
  <circle id="rim" cx="0" cy="0" r="7"/>
  <circle id="rim2" cx="0" cy="0" r="3.5"/>
  <g id="zoomPlus">
    <use xlink:href="#rim" fill="#404040"><set attributeName="fill" to="#808080" begin="zoomplus.mouseover" end="zoomplus.mouseout"/></use>
    <path d="M-4,0h8M0,-4v8" fill="none" stroke="white" stroke-width="1.5" pointer-events="none"/>
  </g>
  <g id="zoomMin">
    <use xlink:href="#rim" fill="#404040"><set attributeName="fill" to="#808080" begin="zoomminus.mouseover" end="zoomminus.mouseout"/></use>
    <path d="M-4,0h8" fill="none" stroke="white" stroke-width="1.5" pointer-events="none"/>
  </g>
  <g id="arrowUp" transform="translate(30 24)">
    <use xlink:href="#rim"/>
    <path pointer-events="none" fill="none" stroke="white" stroke-width="1.5" d="M0,-3.0v7 M-2.5,-0.5L0,-3.0L2.5,-0.5"/>
  </g>
  <g id="arrowRight" transform="rotate(90) translate(36 -43)">
    <use xlink:href="#rim"/>
    <path pointer-events="none" fill="none" stroke="white" stroke-width="1.5" d="M0,-3.0v7 M-2.5,-0.5L0,-3.0L2.5,-0.5"/>
  </g>
  <g id="arrowDown" transform="rotate(180) translate(-30 -48)">
    <use xlink:href="#rim"/>
    <path pointer-events="none" fill="none" stroke="white" stroke-width="1.5" d="M0,-3.0v7 M-2.5,-0.5L0,-3.0L2.5,-0.5"/>
  </g>
  <g id="arrowLeft" transform="rotate(270) translate(-36 17)">
    <use xlink:href="#rim"/>
    <path pointer-events="none" fill="none" stroke="white" stroke-width="1.5" d="M0,-3.0v7 M-2.5,-0.5L0,-3.0L2.5,-0.5"/>
  </g>
  <g id="resetDef">
    <use xlink:href="#rim2" fill="#404040"><set attributeName="fill" to="#808080" begin="reset.mouseover" end="reset.mouseout"/></use>
  </g>
</defs>
<script type="application/ecmascript">
var viewWidth = 1487;
var viewHeight = 405;
var sectionId = 'dynsection-1';
</script>
<script type="application/ecmascript" xlink:href="../../svg.min.js"/>
<svg id="graph" class="graph">
<g id="viewport">
<title>engine::render::HDRtoLDRLayer</title>
<!-- Node1 -->
<g id="Node000001" class="node">
<title>Node1</title>
<g id="a_Node000001"><a xlink:title=" ">
<polygon fill="#999999" stroke="#666666" points="1479,-275.5 1325.75,-275.5 1325.75,-256.25 1479,-256.25 1479,-275.5"/>
<text text-anchor="middle" x="1402.38" y="-262" font-family="Helvetica,sans-Serif" font-size="10.00">engine::render::HDRtoLDRLayer</text>
</a>
</g>
</g>
<!-- Node2 -->
<g id="Node000002" class="node">
<title>Node2</title>
<g id="a_Node000002"><a xlink:href="../../d9/d60/classengine_1_1render_1_1_post_processing_layer.html" target="_top" xlink:title=" ">
<polygon fill="white" stroke="#666666" points="1182.5,-397.12 1033,-397.12 1033,-366.62 1182.5,-366.62 1182.5,-397.12"/>
<text text-anchor="start" x="1041" y="-383.62" font-family="Helvetica,sans-Serif" font-size="10.00">engine::render::PostProcessing</text>
<text text-anchor="middle" x="1107.75" y="-372.38" font-family="Helvetica,sans-Serif" font-size="10.00">Layer</text>
</a>
</g>
</g>
<!-- Node2&#45;&gt;Node1 -->
<g id="edge1_Node000001_Node000002" class="edge">
<title>Node2&#45;&gt;Node1</title>
<g id="a_edge1_Node000001_Node000002"><a xlink:title=" ">
<path fill="none" stroke="#63b8ff" d="M1168.78,-362.82C1174.94,-360.83 1181.1,-358.82 1187,-356.88 1240.83,-339.14 1255.75,-338.41 1307.75,-315.88 1335.48,-303.86 1366.1,-286.72 1384.53,-275.95"/>
<polygon fill="#63b8ff" stroke="#63b8ff" points="1167.91,-359.74 1159.47,-366.14 1170.06,-366.41 1167.91,-359.74"/>
</a>
</g>
</g>
<!-- Node3 -->
<g id="Node000003" class="node">
<title>Node3</title>
<g id="a_Node000003"><a xlink:href="../../d0/d04/classengine_1_1core_1_1_layer.html" target="_top" xlink:title=" ">
<polygon fill="white" stroke="#666666" points="902.12,-391.5 805.88,-391.5 805.88,-372.25 902.12,-372.25 902.12,-391.5"/>
<text text-anchor="middle" x="854" y="-378" font-family="Helvetica,sans-Serif" font-size="10.00">engine::core::Layer</text>
</a>
</g>
</g>
<!-- Node3&#45;&gt;Node2 -->
<g id="edge2_Node000002_Node000003" class="edge">
<title>Node3&#45;&gt;Node2</title>
<g id="a_edge2_Node000002_Node000003"><a xlink:title=" ">
<path fill="none" stroke="#63b8ff" d="M913.06,-381.88C948.69,-381.88 994.67,-381.88 1032.88,-381.88"/>
<polygon fill="#63b8ff" stroke="#63b8ff" points="913.35,-378.38 903.35,-381.88 913.35,-385.38 913.35,-378.38"/>
</a>
</g>
</g>
<!-- Node4 -->
<g id="Node000004" class="node">
<title>Node4</title>
<g id="a_Node000004"><a xlink:title=" ">
<polygon fill="white" stroke="#666666" points="567,-391.5 509,-391.5 509,-372.25 567,-372.25 567,-391.5"/>
<text text-anchor="middle" x="538" y="-378" font-family="Helvetica,sans-Serif" font-size="10.00">std::string</text>
</a>
</g>
</g>
<!-- Node4&#45;&gt;Node3 -->
<g id="edge3_Node000003_Node000004" class="edge">
<title>Node4&#45;&gt;Node3</title>
<g id="a_edge3_Node000003_Node000004"><a xlink:title=" ">
<path fill="none" stroke="#9a32cd" stroke-dasharray="5,2" d="M578.26,-381.88C635.92,-381.88 743.36,-381.88 805.42,-381.88"/>
<polygon fill="#9a32cd" stroke="#9a32cd" points="578.42,-378.38 568.42,-381.88 578.42,-385.38 578.42,-378.38"/>
</a>
</g>
<text text-anchor="middle" x="704.25" y="-383.62" font-family="Helvetica,sans-Serif" font-size="10.00" fill="grey"> debug_name_</text>
</g>
<!-- Node5 -->
<g id="Node000005" class="node">
<title>Node5</title>
<g id="a_Node000005"><a xlink:title=" ">
<polygon fill="white" stroke="#666666" points="361.62,-397.12 269.12,-397.12 269.12,-366.62 361.62,-366.62 361.62,-397.12"/>
<text text-anchor="start" x="277.12" y="-383.62" font-family="Helvetica,sans-Serif" font-size="10.00">std::basic_string&lt;</text>
<text text-anchor="middle" x="315.38" y="-372.38" font-family="Helvetica,sans-Serif" font-size="10.00"> Char &gt;</text>
</a>
</g>
</g>
<!-- Node5&#45;&gt;Node4 -->
<g id="edge4_Node000004_Node000005" class="edge">
<title>Node5&#45;&gt;Node4</title>
<g id="a_edge4_Node000004_Node000005"><a xlink:title=" ">
<path fill="none" stroke="#63b8ff" d="M373.09,-381.88C416.57,-381.88 474.75,-381.88 508.82,-381.88"/>
<polygon fill="#63b8ff" stroke="#63b8ff" points="373.09,-378.38 363.09,-381.88 373.09,-385.38 373.09,-378.38"/>
</a>
</g>
</g>
<!-- Node6 -->
<g id="Node000006" class="node">
<title>Node6</title>
<g id="a_Node000006"><a xlink:href="../../d1/dee/classengine_1_1render_1_1_post_processing_layer_1_1_handle_process.html" target="_top" xlink:title=" ">
<polygon fill="white" stroke="#666666" points="1182.5,-348.12 1033,-348.12 1033,-317.62 1182.5,-317.62 1182.5,-348.12"/>
<text text-anchor="start" x="1041" y="-334.62" font-family="Helvetica,sans-Serif" font-size="10.00">engine::render::PostProcessing</text>
<text text-anchor="middle" x="1107.75" y="-323.38" font-family="Helvetica,sans-Serif" font-size="10.00">Layer::HandleProcess</text>
</a>
</g>
</g>
<!-- Node6&#45;&gt;Node1 -->
<g id="edge5_Node000001_Node000006" class="edge">
<title>Node6&#45;&gt;Node1</title>
<g id="a_edge5_Node000001_Node000006"><a xlink:title=" ">
<path fill="none" stroke="#63b8ff" d="M1193.52,-316.73C1228.94,-309.64 1270.46,-300.88 1307.75,-291.88 1327.59,-287.08 1349.59,-281.01 1367.28,-275.94"/>
<polygon fill="#63b8ff" stroke="#63b8ff" points="1192.85,-313.49 1183.73,-318.87 1194.22,-320.35 1192.85,-313.49"/>
</a>
</g>
</g>
<!-- Node7 -->
<g id="Node000007" class="node">
<title>Node7</title>
<g id="a_Node000007"><a xlink:href="../../d0/d7e/structengine_1_1render_1_1_h_d_rto_l_d_r_layer_1_1_buffer.html" target="_top" xlink:title=" ">
<polygon fill="white" stroke="#666666" points="1184.38,-299.12 1031.12,-299.12 1031.12,-268.62 1184.38,-268.62 1184.38,-299.12"/>
<text text-anchor="start" x="1039.12" y="-285.62" font-family="Helvetica,sans-Serif" font-size="10.00">engine::render::HDRtoLDRLayer</text>
<text text-anchor="middle" x="1107.75" y="-274.38" font-family="Helvetica,sans-Serif" font-size="10.00">::Buffer</text>
</a>
</g>
</g>
<!-- Node7&#45;&gt;Node1 -->
<g id="edge6_Node000001_Node000007" class="edge">
<title>Node7&#45;&gt;Node1</title>
<g id="a_edge6_Node000001_Node000007"><a xlink:title=" ">
<path fill="none" stroke="#9a32cd" stroke-dasharray="5,2" d="M1195.72,-278.53C1236.92,-275.99 1285.68,-272.99 1325.38,-270.55"/>
<polygon fill="#9a32cd" stroke="#9a32cd" points="1195.64,-275.09 1185.87,-279.19 1196.07,-282.07 1195.64,-275.09"/>
</a>
</g>
<text text-anchor="middle" x="1256.38" y="-278.62" font-family="Helvetica,sans-Serif" font-size="10.00" fill="grey"> buffer_</text>
</g>
<!-- Node8 -->
<g id="Node000008" class="node">
<title>Node8</title>
<g id="a_Node000008"><a xlink:href="../../dd/d36/classengine_1_1render_1_1_graphics_shader_program.html" target="_top" xlink:title=" ">
<polygon fill="white" stroke="#666666" points="1167.5,-250.12 1048,-250.12 1048,-219.62 1167.5,-219.62 1167.5,-250.12"/>
<text text-anchor="start" x="1056" y="-236.62" font-family="Helvetica,sans-Serif" font-size="10.00">engine::render::Graphics</text>
<text text-anchor="middle" x="1107.75" y="-225.38" font-family="Helvetica,sans-Serif" font-size="10.00">ShaderProgram</text>
</a>
</g>
</g>
<!-- Node8&#45;&gt;Node1 -->
<g id="edge7_Node000001_Node000008" class="edge">
<title>Node8&#45;&gt;Node1</title>
<g id="a_edge7_Node000001_Node000008"><a xlink:title=" ">
<path fill="none" stroke="#9a32cd" stroke-dasharray="5,2" d="M1178.46,-242.06C1216.65,-246.01 1264.81,-251.04 1307.75,-255.62 1313.52,-256.24 1319.49,-256.88 1325.5,-257.53"/>
<polygon fill="#9a32cd" stroke="#9a32cd" points="1179.28,-238.52 1168.97,-240.97 1178.56,-245.48 1179.28,-238.52"/>
</a>
</g>
<text text-anchor="middle" x="1256.38" y="-256.62" font-family="Helvetica,sans-Serif" font-size="10.00" fill="grey"> shader_</text>
</g>
<!-- Node9 -->
<g id="Node000009" class="node">
<title>Node9</title>
<g id="a_Node000009"><a xlink:href="../../db/db6/structengine_1_1render_1_1_shader_program.html" target="_top" xlink:title=" ">
<polygon fill="white" stroke="#666666" points="928,-331.5 780,-331.5 780,-312.25 928,-312.25 928,-331.5"/>
<text text-anchor="middle" x="854" y="-318" font-family="Helvetica,sans-Serif" font-size="10.00">engine::render::ShaderProgram</text>
</a>
</g>
</g>
<!-- Node9&#45;&gt;Node8 -->
<g id="edge8_Node000008_Node000009" class="edge">
<title>Node9&#45;&gt;Node8</title>
<g id="a_edge8_Node000008_Node000009"><a xlink:title=" ">
<path fill="none" stroke="#63b8ff" d="M910.9,-309.09C918.45,-307.14 926.06,-305.04 933.25,-302.88 968.21,-292.33 978.83,-293.06 1010.5,-274.88 1019.53,-269.69 1019.37,-264.89 1028.5,-259.88 1034.88,-256.38 1041.82,-253.28 1048.85,-250.56"/>
<polygon fill="#63b8ff" stroke="#63b8ff" points="910.17,-305.92 901.33,-311.76 911.88,-312.71 910.17,-305.92"/>
</a>
</g>
</g>
<!-- Node10 -->
<g id="Node000010" class="node">
<title>Node10</title>
<g id="a_Node000010"><a xlink:title=" ">
<polygon fill="white" stroke="#666666" points="912.25,-294.12 795.75,-294.12 795.75,-263.62 912.25,-263.62 912.25,-294.12"/>
<text text-anchor="start" x="803.75" y="-280.62" font-family="Helvetica,sans-Serif" font-size="10.00">std::shared_ptr&lt; engine</text>
<text text-anchor="middle" x="854" y="-269.38" font-family="Helvetica,sans-Serif" font-size="10.00">::render::Shader &gt;</text>
</a>
</g>
</g>
<!-- Node10&#45;&gt;Node8 -->
<g id="edge9_Node000008_Node000010" class="edge">
<title>Node10&#45;&gt;Node8</title>
<g id="a_edge9_Node000008_Node000010"><a xlink:title=" ">
<path fill="none" stroke="#9a32cd" stroke-dasharray="5,2" d="M923.16,-266.96C962.12,-260.15 1010.5,-251.7 1047.81,-245.18"/>
<polygon fill="#9a32cd" stroke="#9a32cd" points="922.69,-263.67 913.44,-268.84 923.89,-270.56 922.69,-263.67"/>
</a>
</g>
<text text-anchor="middle" x="980.88" y="-261.62" font-family="Helvetica,sans-Serif" font-size="10.00" fill="grey"> shaders_</text>
</g>
<!-- Node11 -->
<g id="Node000011" class="node">
<title>Node11</title>
<g id="a_Node000011"><a xlink:href="../../d0/dc5/classengine_1_1render_1_1_shader.html" target="_top" xlink:title=" ">
<polygon fill="white" stroke="#666666" points="593.62,-288.5 482.38,-288.5 482.38,-269.25 593.62,-269.25 593.62,-288.5"/>
<text text-anchor="middle" x="538" y="-275" font-family="Helvetica,sans-Serif" font-size="10.00">engine::render::Shader</text>
</a>
</g>
</g>
<!-- Node11&#45;&gt;Node10 -->
<g id="edge10_Node000010_Node000011" class="edge">
<title>Node11&#45;&gt;Node10</title>
<g id="a_edge10_Node000010_Node000011"><a xlink:title=" ">
<path fill="none" stroke="#9a32cd" stroke-dasharray="5,2" d="M604.99,-278.88C661.33,-278.88 741.55,-278.88 795.35,-278.88"/>
<polygon fill="#9a32cd" stroke="#9a32cd" points="605.05,-275.38 595.05,-278.88 605.05,-282.38 605.05,-275.38"/>
</a>
</g>
<text text-anchor="middle" x="704.25" y="-280.62" font-family="Helvetica,sans-Serif" font-size="10.00" fill="grey"> ptr</text>
</g>
<!-- Node12 -->
<g id="Node000012" class="node">
<title>Node12</title>
<g id="a_Node000012"><a xlink:href="../../d3/de6/structengine_1_1render_1_1_shader_blob.html" target="_top" xlink:title=" ">
<polygon fill="white" stroke="#666666" points="380.75,-288.5 250,-288.5 250,-269.25 380.75,-269.25 380.75,-288.5"/>
<text text-anchor="middle" x="315.38" y="-275" font-family="Helvetica,sans-Serif" font-size="10.00">engine::render::ShaderBlob</text>
</a>
</g>
</g>
<!-- Node12&#45;&gt;Node11 -->
<g id="edge11_Node000011_Node000012" class="edge">
<title>Node12&#45;&gt;Node11</title>
<g id="a_edge11_Node000011_Node000012"><a xlink:title=" ">
<path fill="none" stroke="#9a32cd" stroke-dasharray="5,2" d="M391.8,-278.88C421.4,-278.88 454.74,-278.88 482,-278.88"/>
<polygon fill="#9a32cd" stroke="#9a32cd" points="392.08,-275.38 382.08,-278.88 392.08,-282.38 392.08,-275.38"/>
</a>
</g>
<text text-anchor="middle" x="411.5" y="-280.62" font-family="Helvetica,sans-Serif" font-size="10.00" fill="grey"> blob_</text>
</g>
<!-- Node13 -->
<g id="Node000013" class="node">
<title>Node13</title>
<g id="a_Node000013"><a xlink:title=" ">
<polygon fill="white" stroke="#666666" points="139.75,-288.5 33,-288.5 33,-269.25 139.75,-269.25 139.75,-288.5"/>
<text text-anchor="middle" x="86.38" y="-275" font-family="Helvetica,sans-Serif" font-size="10.00">std::vector&lt; uint8_t &gt;</text>
</a>
</g>
</g>
<!-- Node13&#45;&gt;Node12 -->
<g id="edge12_Node000012_Node000013" class="edge">
<title>Node13&#45;&gt;Node12</title>
<g id="a_edge12_Node000012_Node000013"><a xlink:title=" ">
<path fill="none" stroke="#9a32cd" stroke-dasharray="5,2" d="M150.68,-278.88C181.61,-278.88 218.77,-278.88 249.86,-278.88"/>
<polygon fill="#9a32cd" stroke="#9a32cd" points="151.02,-275.38 141.02,-278.88 151.02,-282.38 151.02,-275.38"/>
</a>
</g>
<text text-anchor="middle" x="211.38" y="-280.62" font-family="Helvetica,sans-Serif" font-size="10.00" fill="grey"> bytecode</text>
</g>
<!-- Node14 -->
<g id="Node000014" class="node">
<title>Node14</title>
<g id="a_Node000014"><a xlink:title=" ">
<polygon fill="white" stroke="#666666" points="912.25,-245.12 795.75,-245.12 795.75,-214.62 912.25,-214.62 912.25,-245.12"/>
<text text-anchor="start" x="803.75" y="-231.62" font-family="Helvetica,sans-Serif" font-size="10.00">std::shared_ptr&lt; engine</text>
<text text-anchor="middle" x="854" y="-220.38" font-family="Helvetica,sans-Serif" font-size="10.00">::render::InputLayout &gt;</text>
</a>
</g>
</g>
<!-- Node14&#45;&gt;Node8 -->
<g id="edge13_Node000008_Node000014" class="edge">
<title>Node14&#45;&gt;Node8</title>
<g id="a_edge13_Node000008_Node000014"><a xlink:title=" ">
<path fill="none" stroke="#9a32cd" stroke-dasharray="5,2" d="M923.41,-231.23C962.33,-232.01 1010.58,-232.96 1047.81,-233.7"/>
<polygon fill="#9a32cd" stroke="#9a32cd" points="923.51,-227.72 913.44,-231.02 923.37,-234.71 923.51,-227.72"/>
</a>
</g>
<text text-anchor="middle" x="980.88" y="-233.62" font-family="Helvetica,sans-Serif" font-size="10.00" fill="grey"> input_layout_</text>
</g>
<!-- Node15 -->
<g id="Node000015" class="node">
<title>Node15</title>
<g id="a_Node000015"><a xlink:href="../../d2/d6c/classengine_1_1render_1_1_input_layout.html" target="_top" xlink:title=" ">
<polygon fill="white" stroke="#666666" points="603.75,-239.5 472.25,-239.5 472.25,-220.25 603.75,-220.25 603.75,-239.5"/>
<text text-anchor="middle" x="538" y="-226" font-family="Helvetica,sans-Serif" font-size="10.00">engine::render::InputLayout</text>
</a>
</g>
</g>
<!-- Node15&#45;&gt;Node14 -->
<g id="edge14_Node000014_Node000015" class="edge">
<title>Node15&#45;&gt;Node14</title>
<g id="a_edge14_Node000014_Node000015"><a xlink:title=" ">
<path fill="none" stroke="#9a32cd" stroke-dasharray="5,2" d="M614.91,-229.88C670.47,-229.88 744.7,-229.88 795.41,-229.88"/>
<polygon fill="#9a32cd" stroke="#9a32cd" points="615.06,-226.38 605.06,-229.88 615.06,-233.38 615.06,-226.38"/>
</a>
</g>
<text text-anchor="middle" x="704.25" y="-231.62" font-family="Helvetica,sans-Serif" font-size="10.00" fill="grey"> ptr</text>
</g>
<!-- Node16 -->
<g id="Node000016" class="node">
<title>Node16</title>
<g id="a_Node000016"><a xlink:href="../../d2/db0/classengine_1_1direct3d_1_1_dynamic_uniform_buffer.html" target="_top" xlink:title=" ">
<polygon fill="white" stroke="#666666" points="1187,-201.75 1028.5,-201.75 1028.5,-160 1187,-160 1187,-201.75"/>
<text text-anchor="start" x="1036.5" y="-188.25" font-family="Helvetica,sans-Serif" font-size="10.00">engine::direct3d::Dynamic</text>
<text text-anchor="start" x="1036.5" y="-177" font-family="Helvetica,sans-Serif" font-size="10.00">UniformBuffer&lt; engine::</text>
<text text-anchor="middle" x="1107.75" y="-165.75" font-family="Helvetica,sans-Serif" font-size="10.00">render::HDRtoLDRLayer::Buffer &gt;</text>
</a>
</g>
</g>
<!-- Node16&#45;&gt;Node1 -->
<g id="edge15_Node000001_Node000016" class="edge">
<title>Node16&#45;&gt;Node1</title>
<g id="a_edge15_Node000001_Node000016"><a xlink:title=" ">
<path fill="none" stroke="#9a32cd" stroke-dasharray="5,2" d="M1197.92,-200.13C1232.49,-208.26 1272.23,-218.45 1307.75,-229.62 1332.02,-237.26 1359.06,-247.98 1377.82,-255.78"/>
<polygon fill="#9a32cd" stroke="#9a32cd" points="1198.9,-196.53 1188.37,-197.67 1197.31,-203.34 1198.9,-196.53"/>
</a>
</g>
<text text-anchor="middle" x="1256.38" y="-230.62" font-family="Helvetica,sans-Serif" font-size="10.00" fill="grey"> constant_buffer_</text>
</g>
<!-- Node17 -->
<g id="Node000017" class="node">
<title>Node17</title>
<g id="a_Node000017"><a xlink:href="../../df/d0e/classengine_1_1direct3d_1_1_dynamic_buffer.html" target="_top" xlink:title="The dynamic buffer class.">
<polygon fill="white" stroke="#666666" points="916.75,-196.12 791.25,-196.12 791.25,-165.62 916.75,-165.62 916.75,-196.12"/>
<text text-anchor="start" x="799.25" y="-182.62" font-family="Helvetica,sans-Serif" font-size="10.00">engine::direct3d::Dynamic</text>
<text text-anchor="middle" x="854" y="-171.38" font-family="Helvetica,sans-Serif" font-size="10.00">Buffer&lt; T &gt;</text>
</a>
</g>
</g>
<!-- Node17&#45;&gt;Node16 -->
<g id="edge16_Node000016_Node000017" class="edge">
<title>Node17&#45;&gt;Node16</title>
<g id="a_edge16_Node000016_Node000017"><a xlink:title=" ">
<path fill="none" stroke="#8b1a1a" d="M928.08,-180.88C959.44,-180.88 996.13,-180.88 1028.08,-180.88"/>
<polygon fill="#8b1a1a" stroke="#8b1a1a" points="928.23,-177.38 918.23,-180.88 928.23,-184.38 928.23,-177.38"/>
</a>
</g>
</g>
<!-- Node18 -->
<g id="Node000018" class="node">
<title>Node18</title>
<g id="a_Node000018"><a xlink:href="../../d9/db4/classengine_1_1direct3d_1_1_buffer_base.html" target="_top" xlink:title="Buffer Base class that contains the common functions for all the buffers.">
<polygon fill="white" stroke="#666666" points="594.75,-199.12 481.25,-199.12 481.25,-168.62 594.75,-168.62 594.75,-199.12"/>
<text text-anchor="start" x="489.25" y="-185.62" font-family="Helvetica,sans-Serif" font-size="10.00">engine::direct3d::Buffer</text>
<text text-anchor="middle" x="538" y="-174.38" font-family="Helvetica,sans-Serif" font-size="10.00">Base&lt; T &gt;</text>
</a>
</g>
</g>
<!-- Node18&#45;&gt;Node17 -->
<g id="edge17_Node000017_Node000018" class="edge">
<title>Node18&#45;&gt;Node17</title>
<g id="a_edge17_Node000017_Node000018"><a xlink:title=" ">
<path fill="none" stroke="#63b8ff" d="M606.12,-183.23C660.85,-182.71 737.56,-181.98 790.89,-181.47"/>
<polygon fill="#63b8ff" stroke="#63b8ff" points="606.1,-179.74 596.14,-183.34 606.17,-186.74 606.1,-179.74"/>
</a>
</g>
</g>
<!-- Node19 -->
<g id="Node000019" class="node">
<title>Node19</title>
<g id="a_Node000019"><a xlink:href="../../d6/de4/classengine_1_1direct3d_1_1_buffer_wrapper.html" target="_top" xlink:title="A wrapper for a D3D11 buffer.">
<polygon fill="white" stroke="#666666" points="372.12,-199.12 258.62,-199.12 258.62,-168.62 372.12,-168.62 372.12,-199.12"/>
<text text-anchor="start" x="266.62" y="-185.62" font-family="Helvetica,sans-Serif" font-size="10.00">engine::direct3d::Buffer</text>
<text text-anchor="middle" x="315.38" y="-174.38" font-family="Helvetica,sans-Serif" font-size="10.00">Wrapper</text>
</a>
</g>
</g>
<!-- Node19&#45;&gt;Node18 -->
<g id="edge18_Node000018_Node000019" class="edge">
<title>Node19&#45;&gt;Node18</title>
<g id="a_edge18_Node000018_Node000019"><a xlink:title=" ">
<path fill="none" stroke="#8b1a1a" d="M383.39,-183.88C414.55,-183.88 451.18,-183.88 480.86,-183.88"/>
<polygon fill="#8b1a1a" stroke="#8b1a1a" points="383.62,-180.38 373.62,-183.88 383.62,-187.38 383.62,-180.38"/>
</a>
</g>
</g>
<!-- Node20 -->
<g id="Node000020" class="node">
<title>Node20</title>
<g id="a_Node000020"><a xlink:href="../../df/d47/classengine_1_1direct3d_1_1d3d__resource__wrapper.html" target="_top" xlink:title=" ">
<polygon fill="white" stroke="#666666" points="172.75,-199.12 0,-199.12 0,-168.62 172.75,-168.62 172.75,-199.12"/>
<text text-anchor="start" x="8" y="-185.62" font-family="Helvetica,sans-Serif" font-size="10.00">engine::direct3d::d3d</text>
<text text-anchor="middle" x="86.38" y="-174.38" font-family="Helvetica,sans-Serif" font-size="10.00">_resource_wrapper&lt; ID3D11Buffer &gt;</text>
</a>
</g>
</g>
<!-- Node20&#45;&gt;Node19 -->
<g id="edge19_Node000019_Node000020" class="edge">
<title>Node20&#45;&gt;Node19</title>
<g id="a_edge19_Node000019_Node000020"><a xlink:title=" ">
<path fill="none" stroke="#9a32cd" stroke-dasharray="5,2" d="M183.98,-183.88C209.36,-183.88 235.88,-183.88 258.33,-183.88"/>
<polygon fill="#9a32cd" stroke="#9a32cd" points="184.19,-180.38 174.19,-183.88 184.19,-187.38 184.19,-180.38"/>
</a>
</g>
<text text-anchor="middle" x="211.38" y="-185.62" font-family="Helvetica,sans-Serif" font-size="10.00" fill="grey"> buffer_</text>
</g>
<!-- Node21 -->
<g id="Node000021" class="node">
<title>Node21</title>
<g id="a_Node000021"><a xlink:href="../../dc/d43/classengine_1_1direct3d_1_1_swapchain_render_target.html" target="_top" xlink:title=" ">
<polygon fill="white" stroke="#666666" points="1175.75,-121.12 1039.75,-121.12 1039.75,-90.62 1175.75,-90.62 1175.75,-121.12"/>
<text text-anchor="start" x="1047.75" y="-107.62" font-family="Helvetica,sans-Serif" font-size="10.00">engine::direct3d::Swapchain</text>
<text text-anchor="middle" x="1107.75" y="-96.38" font-family="Helvetica,sans-Serif" font-size="10.00">RenderTarget</text>
</a>
</g>
</g>
<!-- Node21&#45;&gt;Node1 -->
<g id="edge20_Node000001_Node000021" class="edge">
<title>Node21&#45;&gt;Node1</title>
<g id="a_edge20_Node000001_Node000021"><a xlink:title=" ">
<path fill="none" stroke="#9a32cd" stroke-dasharray="5,2" d="M1170.2,-125.13C1210.79,-139.19 1264.31,-160.35 1307.75,-186.62 1341.64,-207.12 1375.71,-239.67 1391.81,-255.94"/>
<polygon fill="#9a32cd" stroke="#9a32cd" points="1171.5,-121.53 1160.91,-121.62 1169.24,-128.16 1171.5,-121.53"/>
</a>
</g>
<text text-anchor="middle" x="1256.38" y="-187.62" font-family="Helvetica,sans-Serif" font-size="10.00" fill="grey"> window_render_target_</text>
</g>
<!-- Node22 -->
<g id="Node000022" class="node">
<title>Node22</title>
<g id="a_Node000022"><a xlink:href="../../df/de1/classengine_1_1direct3d_1_1_render_target_base.html" target="_top" xlink:title="The render target base class.">
<polygon fill="white" stroke="#666666" points="913.38,-121.12 794.62,-121.12 794.62,-90.62 913.38,-90.62 913.38,-121.12"/>
<text text-anchor="start" x="802.62" y="-107.62" font-family="Helvetica,sans-Serif" font-size="10.00">engine::direct3d::Render</text>
<text text-anchor="middle" x="854" y="-96.38" font-family="Helvetica,sans-Serif" font-size="10.00">TargetBase</text>
</a>
</g>
</g>
<!-- Node22&#45;&gt;Node21 -->
<g id="edge21_Node000021_Node000022" class="edge">
<title>Node22&#45;&gt;Node21</title>
<g id="a_edge21_Node000021_Node000022"><a xlink:title=" ">
<path fill="none" stroke="#63b8ff" d="M924.57,-105.88C960.43,-105.88 1003.97,-105.88 1039.49,-105.88"/>
<polygon fill="#63b8ff" stroke="#63b8ff" points="924.71,-102.38 914.71,-105.88 924.71,-109.38 924.71,-102.38"/>
</a>
</g>
</g>
<!-- Node23 -->
<g id="Node000023" class="node">
<title>Node23</title>
<g id="a_Node000023"><a xlink:href="../../df/d47/classengine_1_1direct3d_1_1d3d__resource__wrapper.html" target="_top" xlink:title=" ">
<polygon fill="white" stroke="#666666" points="633.75,-150.12 442.25,-150.12 442.25,-119.62 633.75,-119.62 633.75,-150.12"/>
<text text-anchor="start" x="450.25" y="-136.62" font-family="Helvetica,sans-Serif" font-size="10.00">engine::direct3d::d3d</text>
<text text-anchor="middle" x="538" y="-125.38" font-family="Helvetica,sans-Serif" font-size="10.00">_resource_wrapper&lt; ID3D11Texture2D &gt;</text>
</a>
</g>
</g>
<!-- Node23&#45;&gt;Node22 -->
<g id="edge22_Node000022_Node000023" class="edge">
<title>Node23&#45;&gt;Node22</title>
<g id="a_edge22_Node000022_Node000023"><a xlink:title=" ">
<path fill="none" stroke="#9a32cd" stroke-dasharray="5,2" d="M644.9,-125.09C694.76,-120.49 752.34,-115.17 794.27,-111.3"/>
<polygon fill="#9a32cd" stroke="#9a32cd" points="644.7,-121.69 635.06,-126.1 645.34,-128.66 644.7,-121.69"/>
</a>
</g>
<text text-anchor="middle" x="704.25" y="-124.62" font-family="Helvetica,sans-Serif" font-size="10.00" fill="grey"> render_target_</text>
</g>
<!-- Node24 -->
<g id="Node000024" class="node">
<title>Node24</title>
<g id="a_Node000024"><a xlink:href="../../df/d47/classengine_1_1direct3d_1_1d3d__resource__wrapper.html" target="_top" xlink:title=" ">
<polygon fill="white" stroke="#666666" points="622.88,-101.75 453.12,-101.75 453.12,-60 622.88,-60 622.88,-101.75"/>
<text text-anchor="start" x="461.12" y="-88.25" font-family="Helvetica,sans-Serif" font-size="10.00">engine::direct3d::d3d</text>
<text text-anchor="start" x="461.12" y="-77" font-family="Helvetica,sans-Serif" font-size="10.00">_resource_wrapper&lt; ID3D11Render</text>
<text text-anchor="middle" x="538" y="-65.75" font-family="Helvetica,sans-Serif" font-size="10.00">TargetView &gt;</text>
</a>
</g>
</g>
<!-- Node24&#45;&gt;Node22 -->
<g id="edge23_Node000022_Node000024" class="edge">
<title>Node24&#45;&gt;Node22</title>
<g id="a_edge23_Node000022_Node000024"><a xlink:title=" ">
<path fill="none" stroke="#9a32cd" stroke-dasharray="5,2" d="M633.79,-88.42C686.09,-92.59 749.37,-97.62 794.47,-101.22"/>
<polygon fill="#9a32cd" stroke="#9a32cd" points="634.39,-84.88 624.15,-87.57 633.84,-91.86 634.39,-84.88"/>
</a>
</g>
<text text-anchor="middle" x="704.25" y="-98.62" font-family="Helvetica,sans-Serif" font-size="10.00" fill="grey"> render_target_view_</text>
</g>
<!-- Node25 -->
<g id="Node000025" class="node">
<title>Node25</title>
<g id="a_Node000025"><a xlink:href="../../df/d47/classengine_1_1direct3d_1_1d3d__resource__wrapper.html" target="_top" xlink:title=" ">
<polygon fill="white" stroke="#666666" points="622.88,-41.75 453.12,-41.75 453.12,0 622.88,0 622.88,-41.75"/>
<text text-anchor="start" x="461.12" y="-28.25" font-family="Helvetica,sans-Serif" font-size="10.00">engine::direct3d::d3d</text>
<text text-anchor="start" x="461.12" y="-17" font-family="Helvetica,sans-Serif" font-size="10.00">_resource_wrapper&lt; ID3D11Shader</text>
<text text-anchor="middle" x="538" y="-5.75" font-family="Helvetica,sans-Serif" font-size="10.00">ResourceView &gt;</text>
</a>
</g>
</g>
<!-- Node25&#45;&gt;Node22 -->
<g id="edge24_Node000022_Node000025" class="edge">
<title>Node25&#45;&gt;Node22</title>
<g id="a_edge24_Node000022_Node000025"><a xlink:title=" ">
<path fill="none" stroke="#9a32cd" stroke-dasharray="5,2" d="M633.95,-41.24C672.41,-50.29 717.04,-61.8 756.75,-74.62 764.96,-77.28 766.62,-79 774.75,-81.88 782.79,-84.72 791.36,-87.55 799.76,-90.22"/>
<polygon fill="#9a32cd" stroke="#9a32cd" points="634.81,-37.62 624.27,-38.76 633.22,-44.44 634.81,-37.62"/>
</a>
</g>
<text text-anchor="middle" x="704.25" y="-75.62" font-family="Helvetica,sans-Serif" font-size="10.00" fill="grey"> shader_resource_view_</text>
</g>
<!-- Node26 -->
<g id="Node000026" class="node">
<title>Node26</title>
<g id="a_Node000026"><a xlink:href="../../df/d47/classengine_1_1direct3d_1_1d3d__resource__wrapper.html" target="_top" xlink:title=" ">
<polygon fill="white" stroke="#666666" points="933.25,-72.75 774.75,-72.75 774.75,-31 933.25,-31 933.25,-72.75"/>
<text text-anchor="start" x="782.75" y="-59.25" font-family="Helvetica,sans-Serif" font-size="10.00">engine::direct3d::d3d</text>
<text text-anchor="start" x="782.75" y="-48" font-family="Helvetica,sans-Serif" font-size="10.00">_resource_wrapper&lt; IDXGISwap</text>
<text text-anchor="middle" x="854" y="-36.75" font-family="Helvetica,sans-Serif" font-size="10.00">Chain1 &gt;</text>
</a>
</g>
</g>
<!-- Node26&#45;&gt;Node21 -->
<g id="edge25_Node000021_Node000026" class="edge">
<title>Node26&#45;&gt;Node21</title>
<g id="a_edge25_Node000021_Node000026"><a xlink:title=" ">
<path fill="none" stroke="#9a32cd" stroke-dasharray="5,2" d="M944.1,-70.99C975.43,-77.71 1010.08,-85.14 1039.33,-91.41"/>
<polygon fill="#9a32cd" stroke="#9a32cd" points="945.13,-67.41 934.62,-68.74 943.66,-74.26 945.13,-67.41"/>
</a>
</g>
<text text-anchor="middle" x="980.88" y="-84.62" font-family="Helvetica,sans-Serif" font-size="10.00" fill="grey"> swapchain_</text>
</g>
</g>
</svg>

<g id="navigator" transform="translate(0 0)" fill="#404254">
  <rect fill="#f2f5e9" fill-opacity="0.5" stroke="#606060" stroke-width=".5" x="0" y="0" width="60" height="60"/>
  <use id="zoomplus" xlink:href="#zoomPlus" x="17" y="9" onmousedown="handleZoom(evt,'in')"/>
  <use id="zoomminus" xlink:href="#zoomMin" x="42" y="9" onmousedown="handleZoom(evt,'out')"/>
  <use id="reset" xlink:href="#resetDef" x="30" y="36" onmousedown="handleReset()"/>
   <use id="arrowup" xlink:href="#arrowUp" x="0" y="0" onmousedown="handlePan(0,-1)"/>
  <use id="arrowright" xlink:href="#arrowRight" x="0" y="0" onmousedown="handlePan(1,0)"/>
  <use id="arrowdown" xlink:href="#arrowDown" x="0" y="0" onmousedown="handlePan(0,1)"/>
  <use id="arrowleft" xlink:href="#arrowLeft" x="0" y="0" onmousedown="handlePan(-1,0)"/>
</g>
<svg viewBox="0 0 15 15" width="100%" height="30px" preserveAspectRatio="xMaxYMin meet">
 <g id="arrow_out" transform="scale(0.3 0.3)">
  <a xlink:href="classengine_1_1render_1_1_h_d_rto_l_d_r_layer__coll__graph_org.svg" target="_base">
   <rect id="button" ry="5" rx="5" y="6" x="6" height="38" width="38"
        fill="#f2f5e9" fill-opacity="0.5" stroke="#606060" stroke-width="1.0"/>
   <path id="arrow"
     d="M 11.500037,31.436501 C 11.940474,20.09759 22.043105,11.32322 32.158766,21.979434 L 37.068811,17.246167 C 37.068811,17.246167 37.088388,32 37.088388,32 L 22.160133,31.978069 C 22.160133,31.978069 26.997745,27.140456 26.997745,27.140456 C 18.528582,18.264221 13.291696,25.230495 11.500037,31.436501 z"
     style="fill:#404040;"/>
  </a>
 </g>
</svg>

<style type='text/css'>
<![CDATA[
[data-mouse-over-selected='false'] { opacity: 0.7; }
[data-mouse-over-selected='true']  { opacity: 1.0; }
]]>
</style>
<script type="application/ecmascript"><![CDATA[
document.addEventListener('DOMContentLoaded', (event) => {
  highlightEdges();
  highlightAdjacentNodes();
});
]]></script>
</svg>
