<?xml version="1.0" encoding="UTF-8" standalone="no"?>
<!DOCTYPE svg PUBLIC "-//W3C//DTD SVG 1.1//EN"
 "http://www.w3.org/Graphics/SVG/1.1/DTD/svg11.dtd">
<!-- Generated by graphviz version 9.0.0 (20230911.1827)
 -->
<!-- Title: engine::utils::FileWatcher Pages: 1 -->
<svg width="620pt" height="141pt"
 viewBox="0.00 0.00 619.75 141.12" xmlns="http://www.w3.org/2000/svg" xmlns:xlink="http://www.w3.org/1999/xlink">
<g id="graph0" class="graph" transform="scale(1 1) rotate(0) translate(4 137.12)">
<title>engine::utils::FileWatcher</title>
<!-- Node1 -->
<g id="Node000001" class="node">
<title>Node1</title>
<g id="a_Node000001"><a xlink:title=" ">
<polygon fill="#999999" stroke="#666666" points="611.75,-84.5 488.5,-84.5 488.5,-65.25 611.75,-65.25 611.75,-84.5"/>
<text text-anchor="middle" x="550.12" y="-71" font-family="Helvetica,sans-Serif" font-size="10.00">engine::utils::FileWatcher</text>
</a>
</g>
</g>
<!-- Node2 -->
<g id="Node000002" class="node">
<title>Node2</title>
<g id="a_Node000002"><a xlink:href="../../d0/d04/classengine_1_1core_1_1_layer.html" target="_top" xlink:title=" ">
<polygon fill="white" stroke="#666666" points="395.88,-127.5 299.62,-127.5 299.62,-108.25 395.88,-108.25 395.88,-127.5"/>
<text text-anchor="middle" x="347.75" y="-114" font-family="Helvetica,sans-Serif" font-size="10.00">engine::core::Layer</text>
</a>
</g>
</g>
<!-- Node2&#45;&gt;Node1 -->
<g id="edge1_Node000001_Node000002" class="edge">
<title>Node2&#45;&gt;Node1</title>
<g id="a_edge1_Node000001_Node000002"><a xlink:title=" ">
<path fill="none" stroke="#63b8ff" d="M406.98,-105.38C437.22,-98.89 473.67,-91.07 502.09,-84.97"/>
<polygon fill="#63b8ff" stroke="#63b8ff" points="406.25,-101.96 397.21,-107.48 407.72,-108.8 406.25,-101.96"/>
</a>
</g>
</g>
<!-- Node3 -->
<g id="Node000003" class="node">
<title>Node3</title>
<g id="a_Node000003"><a xlink:title=" ">
<polygon fill="white" stroke="#666666" points="187.5,-127.5 129.5,-127.5 129.5,-108.25 187.5,-108.25 187.5,-127.5"/>
<text text-anchor="middle" x="158.5" y="-114" font-family="Helvetica,sans-Serif" font-size="10.00">std::string</text>
</a>
</g>
</g>
<!-- Node3&#45;&gt;Node2 -->
<g id="edge2_Node000002_Node000003" class="edge">
<title>Node3&#45;&gt;Node2</title>
<g id="a_edge2_Node000002_Node000003"><a xlink:title=" ">
<path fill="none" stroke="#9a32cd" stroke-dasharray="5,2" d="M199.39,-117.88C228.67,-117.88 268.55,-117.88 299.44,-117.88"/>
<polygon fill="#9a32cd" stroke="#9a32cd" points="199.45,-114.38 189.45,-117.88 199.45,-121.38 199.45,-114.38"/>
</a>
</g>
<text text-anchor="middle" x="237" y="-119.62" font-family="Helvetica,sans-Serif" font-size="10.00" fill="grey"> debug_name_</text>
</g>
<!-- Node4 -->
<g id="Node000004" class="node">
<title>Node4</title>
<g id="a_Node000004"><a xlink:title=" ">
<polygon fill="white" stroke="#666666" points="92.5,-133.12 0,-133.12 0,-102.62 92.5,-102.62 92.5,-133.12"/>
<text text-anchor="start" x="8" y="-119.62" font-family="Helvetica,sans-Serif" font-size="10.00">std::basic_string&lt;</text>
<text text-anchor="middle" x="46.25" y="-108.38" font-family="Helvetica,sans-Serif" font-size="10.00"> Char &gt;</text>
</a>
</g>
</g>
<!-- Node4&#45;&gt;Node3 -->
<g id="edge3_Node000003_Node000004" class="edge">
<title>Node4&#45;&gt;Node3</title>
<g id="a_edge3_Node000003_Node000004"><a xlink:title=" ">
<path fill="none" stroke="#63b8ff" d="M104.12,-117.88C112.81,-117.88 121.45,-117.88 129.16,-117.88"/>
<polygon fill="#63b8ff" stroke="#63b8ff" points="104.24,-114.38 94.24,-117.88 104.24,-121.38 104.24,-114.38"/>
</a>
</g>
</g>
<!-- Node5 -->
<g id="Node000005" class="node">
<title>Node5</title>
<g id="a_Node000005"><a xlink:href="../../d5/d41/structengine_1_1core_1_1_layer_1_1_handle_update.html" target="_top" xlink:title=" ">
<polygon fill="white" stroke="#666666" points="395.88,-90.12 299.62,-90.12 299.62,-59.62 395.88,-59.62 395.88,-90.12"/>
<text text-anchor="start" x="307.62" y="-76.62" font-family="Helvetica,sans-Serif" font-size="10.00">engine::core::Layer</text>
<text text-anchor="middle" x="347.75" y="-65.38" font-family="Helvetica,sans-Serif" font-size="10.00">::HandleUpdate</text>
</a>
</g>
</g>
<!-- Node5&#45;&gt;Node1 -->
<g id="edge4_Node000001_Node000005" class="edge">
<title>Node5&#45;&gt;Node1</title>
<g id="a_edge4_Node000001_Node000005"><a xlink:title=" ">
<path fill="none" stroke="#63b8ff" d="M407.57,-74.88C432.97,-74.88 462.68,-74.88 488.3,-74.88"/>
<polygon fill="#63b8ff" stroke="#63b8ff" points="407.75,-71.38 397.75,-74.88 407.75,-78.38 407.75,-71.38"/>
</a>
</g>
</g>
<!-- Node6 -->
<g id="Node000006" class="node">
<title>Node6</title>
<g id="a_Node000006"><a xlink:title=" ">
<polygon fill="white" stroke="#666666" points="409,-41.75 286.5,-41.75 286.5,0 409,0 409,-41.75"/>
<text text-anchor="start" x="294.5" y="-28.25" font-family="Helvetica,sans-Serif" font-size="10.00">std::map&lt; std::filesystem</text>
<text text-anchor="start" x="294.5" y="-17" font-family="Helvetica,sans-Serif" font-size="10.00">::path, std::filesystem</text>
<text text-anchor="middle" x="347.75" y="-5.75" font-family="Helvetica,sans-Serif" font-size="10.00">::file_time_type &gt;</text>
</a>
</g>
</g>
<!-- Node6&#45;&gt;Node1 -->
<g id="edge5_Node000001_Node000006" class="edge">
<title>Node6&#45;&gt;Node1</title>
<g id="a_edge5_Node000001_Node000006"><a xlink:title=" ">
<path fill="none" stroke="#9a32cd" stroke-dasharray="5,2" d="M420.16,-40.12C451.06,-48.45 485.95,-57.85 511.65,-64.77"/>
<polygon fill="#9a32cd" stroke="#9a32cd" points="421.44,-36.84 410.87,-37.62 419.62,-43.6 421.44,-36.84"/>
</a>
</g>
<text text-anchor="middle" x="448.75" y="-53.62" font-family="Helvetica,sans-Serif" font-size="10.00" fill="grey"> file_map_</text>
</g>
</g>
</svg>
