<?xml version="1.0" encoding="UTF-8" standalone="no"?>
<!DOCTYPE svg PUBLIC "-//W3C//DTD SVG 1.1//EN"
 "http://www.w3.org/Graphics/SVG/1.1/DTD/svg11.dtd">
<!-- Generated by graphviz version 9.0.0 (20230911.1827)
 -->
<!-- Title: engine::core::Layer::HandleRender Pages: 1 -->
<svg width="372pt" height="227pt"
 viewBox="0.00 0.00 371.62 226.75" xmlns="http://www.w3.org/2000/svg" xmlns:xlink="http://www.w3.org/1999/xlink">

<svg id="main" version="1.1" xmlns="http://www.w3.org/2000/svg" xmlns:xlink="http://www.w3.org/1999/xlink" xml:space="preserve" onload="init(evt)">
<style type="text/css"><![CDATA[
.node, .edge {opacity: 0.7;}
.node.selected, .edge.selected {opacity: 1;}
.edge:hover path { stroke: red; }
.edge:hover polygon { stroke: red; fill: red; }
]]></style>
<script type="application/ecmascript" xlink:href="../../svg.min.js"/>
<svg id="graph" class="graph">
<g id="graph0" class="graph" transform="scale(1 1) rotate(0) translate(4 222.75)">
<title>engine::core::Layer::HandleRender</title>
<!-- Node1 -->
<g id="Node000001" class="node">
<title>Node1</title>
<g id="a_Node000001"><a xlink:title=" ">
<polygon fill="#999999" stroke="#666666" points="260,-218.75 163.75,-218.75 163.75,-188.25 260,-188.25 260,-218.75"/>
<text text-anchor="start" x="171.75" y="-205.25" font-family="Helvetica,sans-Serif" font-size="10.00">engine::core::Layer</text>
<text text-anchor="middle" x="211.88" y="-194" font-family="Helvetica,sans-Serif" font-size="10.00">::HandleRender</text>
</a>
</g>
</g>
<!-- Node2 -->
<g id="Node000002" class="node">
<title>Node2</title>
<g id="a_Node000002"><a xlink:href="../../d6/d88/classengine_1_1core_1_1_layer_stack.html" target="_top" xlink:title=" ">
<polygon fill="white" stroke="#666666" points="195.75,-152.25 74,-152.25 74,-133 195.75,-133 195.75,-152.25"/>
<text text-anchor="middle" x="134.88" y="-138.75" font-family="Helvetica,sans-Serif" font-size="10.00">engine::core::LayerStack</text>
</a>
</g>
</g>
<!-- Node1&#45;&gt;Node2 -->
<g id="edge1_Node000001_Node000002" class="edge">
<title>Node1&#45;&gt;Node2</title>
<g id="a_edge1_Node000001_Node000002"><a xlink:title=" ">
<path fill="none" stroke="#63b8ff" d="M183.91,-181.12C171.11,-171.33 156.63,-160.26 146.75,-152.7"/>
<polygon fill="#63b8ff" stroke="#63b8ff" points="181.57,-183.73 191.64,-187.03 185.82,-178.17 181.57,-183.73"/>
</a>
</g>
</g>
<!-- Node7 -->
<g id="Node000007" class="node">
<title>Node7</title>
<g id="a_Node000007"><a xlink:href="../../df/df1/classengine_1_1render_1_1_post_processing.html" target="_top" xlink:title=" ">
<polygon fill="white" stroke="#666666" points="363.62,-152.25 214.12,-152.25 214.12,-133 363.62,-133 363.62,-152.25"/>
<text text-anchor="middle" x="288.88" y="-138.75" font-family="Helvetica,sans-Serif" font-size="10.00">engine::render::PostProcessing</text>
</a>
</g>
</g>
<!-- Node1&#45;&gt;Node7 -->
<g id="edge6_Node000001_Node000007" class="edge">
<title>Node1&#45;&gt;Node7</title>
<g id="a_edge6_Node000001_Node000007"><a xlink:title=" ">
<path fill="none" stroke="#63b8ff" d="M239.84,-181.12C252.64,-171.33 267.12,-160.26 277,-152.7"/>
<polygon fill="#63b8ff" stroke="#63b8ff" points="237.93,-178.17 232.11,-187.03 242.18,-183.73 237.93,-178.17"/>
</a>
</g>
</g>
<!-- Node3 -->
<g id="Node000003" class="node">
<title>Node3</title>
<g id="a_Node000003"><a xlink:href="../../d2/d5c/classengine_1_1core_1_1_layer_stack_threadsafe.html" target="_top" xlink:title=" ">
<polygon fill="white" stroke="#666666" points="121.75,-97 0,-97 0,-66.5 121.75,-66.5 121.75,-97"/>
<text text-anchor="start" x="8" y="-83.5" font-family="Helvetica,sans-Serif" font-size="10.00">engine::core::LayerStack</text>
<text text-anchor="middle" x="60.88" y="-72.25" font-family="Helvetica,sans-Serif" font-size="10.00">Threadsafe</text>
</a>
</g>
</g>
<!-- Node2&#45;&gt;Node3 -->
<g id="edge2_Node000002_Node000003" class="edge">
<title>Node2&#45;&gt;Node3</title>
<g id="a_edge2_Node000002_Node000003"><a xlink:title=" ">
<path fill="none" stroke="#8b1a1a" d="M114.68,-125.56C103.58,-116.73 89.92,-105.86 79.14,-97.28"/>
<polygon fill="#8b1a1a" stroke="#8b1a1a" points="112.45,-128.25 122.45,-131.74 116.81,-122.78 112.45,-128.25"/>
</a>
</g>
</g>
<!-- Node5 -->
<g id="Node000005" class="node">
<title>Node5</title>
<g id="a_Node000005"><a xlink:href="../../d9/d15/classengine_1_1core_1_1_render_pipeline.html" target="_top" xlink:title=" ">
<polygon fill="white" stroke="#666666" points="277.62,-91.38 140.12,-91.38 140.12,-72.12 277.62,-72.12 277.62,-91.38"/>
<text text-anchor="middle" x="208.88" y="-77.88" font-family="Helvetica,sans-Serif" font-size="10.00">engine::core::RenderPipeline</text>
</a>
</g>
</g>
<!-- Node2&#45;&gt;Node5 -->
<g id="edge4_Node000002_Node000005" class="edge">
<title>Node2&#45;&gt;Node5</title>
<g id="a_edge4_Node000002_Node000005"><a xlink:title=" ">
<path fill="none" stroke="#63b8ff" d="M154.83,-125.75C168.52,-114.86 186.19,-100.8 197.53,-91.78"/>
<polygon fill="#63b8ff" stroke="#63b8ff" points="152.94,-122.78 147.3,-131.74 157.3,-128.25 152.94,-122.78"/>
</a>
</g>
</g>
<!-- Node4 -->
<g id="Node000004" class="node">
<title>Node4</title>
<g id="a_Node000004"><a xlink:href="../../da/d33/classengine_1_1core_1_1_engine.html" target="_top" xlink:title="Represents the core of the engine.">
<polygon fill="white" stroke="#666666" points="111.62,-24.88 10.12,-24.88 10.12,-5.63 111.62,-5.63 111.62,-24.88"/>
<text text-anchor="middle" x="60.88" y="-11.38" font-family="Helvetica,sans-Serif" font-size="10.00">engine::core::Engine</text>
</a>
</g>
</g>
<!-- Node3&#45;&gt;Node4 -->
<g id="edge3_Node000003_Node000004" class="edge">
<title>Node3&#45;&gt;Node4</title>
<g id="a_edge3_Node000003_Node000004"><a xlink:title=" ">
<path fill="none" stroke="#8b1a1a" d="M60.88,-54.84C60.88,-44.26 60.88,-32.75 60.88,-25.07"/>
<polygon fill="#8b1a1a" stroke="#8b1a1a" points="57.38,-54.6 60.88,-64.6 64.38,-54.6 57.38,-54.6"/>
</a>
</g>
</g>
<!-- Node6 -->
<g id="Node000006" class="node">
<title>Node6</title>
<g id="a_Node000006"><a xlink:href="../../d9/d04/classengine_1_1direct3d_1_1_deferred_h_d_r_render_pipeline.html" target="_top" xlink:title=" ">
<polygon fill="white" stroke="#666666" points="271.25,-30.5 146.5,-30.5 146.5,0 271.25,0 271.25,-30.5"/>
<text text-anchor="start" x="154.5" y="-17" font-family="Helvetica,sans-Serif" font-size="10.00">engine::direct3d::Deferred</text>
<text text-anchor="middle" x="208.88" y="-5.75" font-family="Helvetica,sans-Serif" font-size="10.00">HDRRenderPipeline</text>
</a>
</g>
</g>
<!-- Node5&#45;&gt;Node6 -->
<g id="edge5_Node000005_Node000006" class="edge">
<title>Node5&#45;&gt;Node6</title>
<g id="a_edge5_Node000005_Node000006"><a xlink:title=" ">
<path fill="none" stroke="#63b8ff" d="M208.88,-60.37C208.88,-50.69 208.88,-39.35 208.88,-30.59"/>
<polygon fill="#63b8ff" stroke="#63b8ff" points="205.38,-60.27 208.88,-70.27 212.38,-60.27 205.38,-60.27"/>
</a>
</g>
</g>
</g>
</svg>
</svg>

<style type='text/css'>
<![CDATA[
[data-mouse-over-selected='false'] { opacity: 0.7; }
[data-mouse-over-selected='true']  { opacity: 1.0; }
]]>
</style>
<script type="application/ecmascript"><![CDATA[
document.addEventListener('DOMContentLoaded', (event) => {
  highlightEdges();
  highlightAdjacentNodes();
});
]]></script>
</svg>
