<?xml version="1.0" encoding="UTF-8" standalone="no"?>
<!DOCTYPE svg PUBLIC "-//W3C//DTD SVG 1.1//EN"
 "http://www.w3.org/Graphics/SVG/1.1/DTD/svg11.dtd">
<!-- Generated by graphviz version 8.1.0 (20230707.0739)
 -->
<!-- Title: engine::render::PresentSwapchain Pages: 1 -->
<svg width="488pt" height="88pt"
 viewBox="0.00 0.00 488.00 87.50" xmlns="http://www.w3.org/2000/svg" xmlns:xlink="http://www.w3.org/1999/xlink">
<g id="graph0" class="graph" transform="scale(1 1) rotate(0) translate(4 83.5)">
<title>engine::render::PresentSwapchain</title>
<!-- Node1 -->
<g id="Node000001" class="node">
<title>Node1</title>
<g id="a_Node000001"><a xlink:title=" ">
<polygon fill="#999999" stroke="#666666" points="480,-48.88 317.75,-48.88 317.75,-29.62 480,-29.62 480,-48.88"/>
<text text-anchor="middle" x="398.88" y="-35.38" font-family="Helvetica,sans-Serif" font-size="10.00">engine::render::PresentSwapchain</text>
</a>
</g>
</g>
<!-- Node2 -->
<g id="Node000002" class="node">
<title>Node2</title>
<g id="a_Node000002"><a xlink:href="../../d9/d60/classengine_1_1render_1_1_post_processing_layer.html" target="_top" xlink:title=" ">
<polygon fill="white" stroke="#666666" points="281.75,-79.5 132.25,-79.5 132.25,-49 281.75,-49 281.75,-79.5"/>
<text text-anchor="start" x="140.25" y="-66" font-family="Helvetica,sans-Serif" font-size="10.00">engine::render::PostProcessing</text>
<text text-anchor="middle" x="207" y="-54.75" font-family="Helvetica,sans-Serif" font-size="10.00">Layer</text>
</a>
</g>
</g>
<!-- Node2&#45;&gt;Node1 -->
<g id="edge1_Node000001_Node000002" class="edge">
<title>Node2&#45;&gt;Node1</title>
<g id="a_edge1_Node000001_Node000002"><a xlink:title=" ">
<path fill="none" stroke="#63b8ff" d="M293.12,-53.04C302.48,-51.81 311.96,-50.56 321.2,-49.35"/>
<polygon fill="#63b8ff" stroke="#63b8ff" points="292.68,-49.7 283.23,-54.48 293.6,-56.64 292.68,-49.7"/>
</a>
</g>
</g>
<!-- Node3 -->
<g id="Node000003" class="node">
<title>Node3</title>
<g id="a_Node000003"><a xlink:href="../../d0/d04/classengine_1_1core_1_1_layer.html" target="_top" xlink:title=" ">
<polygon fill="white" stroke="#666666" points="96.25,-73.88 0,-73.88 0,-54.62 96.25,-54.62 96.25,-73.88"/>
<text text-anchor="middle" x="48.12" y="-60.38" font-family="Helvetica,sans-Serif" font-size="10.00">engine::core::Layer</text>
</a>
</g>
</g>
<!-- Node3&#45;&gt;Node2 -->
<g id="edge2_Node000002_Node000003" class="edge">
<title>Node3&#45;&gt;Node2</title>
<g id="a_edge2_Node000002_Node000003"><a xlink:title=" ">
<path fill="none" stroke="#63b8ff" d="M107.36,-64.25C115.4,-64.25 123.75,-64.25 132.02,-64.25"/>
<polygon fill="#63b8ff" stroke="#63b8ff" points="107.62,-60.75 97.62,-64.25 107.62,-67.75 107.62,-60.75"/>
</a>
</g>
</g>
<!-- Node4 -->
<g id="Node000004" class="node">
<title>Node4</title>
<g id="a_Node000004"><a xlink:href="../../dc/d15/classengine_1_1render_1_1_post_processing_layer_1_1_handle_frame_end.html" target="_top" xlink:title=" ">
<polygon fill="white" stroke="#666666" points="281.75,-30.5 132.25,-30.5 132.25,0 281.75,0 281.75,-30.5"/>
<text text-anchor="start" x="140.25" y="-17" font-family="Helvetica,sans-Serif" font-size="10.00">engine::render::PostProcessing</text>
<text text-anchor="middle" x="207" y="-5.75" font-family="Helvetica,sans-Serif" font-size="10.00">Layer::HandleFrameEnd</text>
</a>
</g>
</g>
<!-- Node4&#45;&gt;Node1 -->
<g id="edge3_Node000001_Node000004" class="edge">
<title>Node4&#45;&gt;Node1</title>
<g id="a_edge3_Node000001_Node000004"><a xlink:title=" ">
<path fill="none" stroke="#63b8ff" d="M293.07,-26C301.38,-27.05 309.8,-28.12 318.05,-29.16"/>
<polygon fill="#63b8ff" stroke="#63b8ff" points="293.59,-22.41 283.23,-24.63 292.71,-29.36 293.59,-22.41"/>
</a>
</g>
</g>
</g>
</svg>
