<?xml version="1.0" encoding="UTF-8" standalone="no"?>
<!DOCTYPE svg PUBLIC "-//W3C//DTD SVG 1.1//EN"
 "http://www.w3.org/Graphics/SVG/1.1/DTD/svg11.dtd">
<!-- Generated by graphviz version 8.1.0 (20230707.0739)
 -->
<!-- Title: engine/core/layers/layer&#45;stack.inl Pages: 1 -->
<!--zoomable 438 -->

<svg id="main" version="1.1" xmlns="http://www.w3.org/2000/svg" xmlns:xlink="http://www.w3.org/1999/xlink" xml:space="preserve" onload="init(evt)">
<style type="text/css"><![CDATA[
.node, .edge {opacity: 0.7;}
.node.selected, .edge.selected {opacity: 1;}
.edge:hover path { stroke: red; }
.edge:hover polygon { stroke: red; fill: red; }
]]></style>

<defs>
  <circle id="rim" cx="0" cy="0" r="7"/>
  <circle id="rim2" cx="0" cy="0" r="3.5"/>
  <g id="zoomPlus">
    <use xlink:href="#rim" fill="#404040"><set attributeName="fill" to="#808080" begin="zoomplus.mouseover" end="zoomplus.mouseout"/></use>
    <path d="M-4,0h8M0,-4v8" fill="none" stroke="white" stroke-width="1.5" pointer-events="none"/>
  </g>
  <g id="zoomMin">
    <use xlink:href="#rim" fill="#404040"><set attributeName="fill" to="#808080" begin="zoomminus.mouseover" end="zoomminus.mouseout"/></use>
    <path d="M-4,0h8" fill="none" stroke="white" stroke-width="1.5" pointer-events="none"/>
  </g>
  <g id="arrowUp" transform="translate(30 24)">
    <use xlink:href="#rim"/>
    <path pointer-events="none" fill="none" stroke="white" stroke-width="1.5" d="M0,-3.0v7 M-2.5,-0.5L0,-3.0L2.5,-0.5"/>
  </g>
  <g id="arrowRight" transform="rotate(90) translate(36 -43)">
    <use xlink:href="#rim"/>
    <path pointer-events="none" fill="none" stroke="white" stroke-width="1.5" d="M0,-3.0v7 M-2.5,-0.5L0,-3.0L2.5,-0.5"/>
  </g>
  <g id="arrowDown" transform="rotate(180) translate(-30 -48)">
    <use xlink:href="#rim"/>
    <path pointer-events="none" fill="none" stroke="white" stroke-width="1.5" d="M0,-3.0v7 M-2.5,-0.5L0,-3.0L2.5,-0.5"/>
  </g>
  <g id="arrowLeft" transform="rotate(270) translate(-36 17)">
    <use xlink:href="#rim"/>
    <path pointer-events="none" fill="none" stroke="white" stroke-width="1.5" d="M0,-3.0v7 M-2.5,-0.5L0,-3.0L2.5,-0.5"/>
  </g>
  <g id="resetDef">
    <use xlink:href="#rim2" fill="#404040"><set attributeName="fill" to="#808080" begin="reset.mouseover" end="reset.mouseout"/></use>
  </g>
</defs>
<script type="application/ecmascript">
var viewWidth = 2055;
var viewHeight = 438;
var sectionId = 'dynsection-1';
</script>
<script type="application/ecmascript" xlink:href="../../svg.min.js"/>
<svg id="graph" class="graph">
<g id="viewport">
<title>engine/core/layers/layer&#45;stack.inl</title>
<!-- Node1 -->
<g id="Node000001" class="node">
<title>Node1</title>
<g id="a_Node000001"><a xlink:title=" ">
<polygon fill="#999999" stroke="#666666" points="1313.25,-429.5 1218.5,-429.5 1218.5,-399 1313.25,-399 1313.25,-429.5"/>
<text text-anchor="start" x="1226.5" y="-416" font-family="Helvetica,sans-Serif" font-size="10.00">engine/core/layers</text>
<text text-anchor="middle" x="1265.88" y="-404.75" font-family="Helvetica,sans-Serif" font-size="10.00">/layer&#45;stack.inl</text>
</a>
</g>
</g>
<!-- Node2 -->
<g id="Node000002" class="node">
<title>Node2</title>
<g id="a_Node000002"><a xlink:href="../../dc/d15/layer-stack_8hpp.html" target="_top" xlink:title=" ">
<polygon fill="white" stroke="#666666" points="1313.25,-363 1218.5,-363 1218.5,-332.5 1313.25,-332.5 1313.25,-363"/>
<text text-anchor="start" x="1226.5" y="-349.5" font-family="Helvetica,sans-Serif" font-size="10.00">engine/core/layers</text>
<text text-anchor="middle" x="1265.88" y="-338.25" font-family="Helvetica,sans-Serif" font-size="10.00">/layer&#45;stack.hpp</text>
</a>
</g>
</g>
<!-- Node1&#45;&gt;Node2 -->
<g id="edge1_Node000001_Node000002" class="edge">
<title>Node1&#45;&gt;Node2</title>
<g id="a_edge1_Node000001_Node000002"><a xlink:title=" ">
<path fill="none" stroke="#63b8ff" d="M1259.26,-387.88C1258.92,-379.55 1259.21,-370.58 1260.12,-363.33"/>
<polygon fill="#63b8ff" stroke="#63b8ff" points="1255.84,-387.92 1260.11,-397.61 1262.81,-387.37 1255.84,-387.92"/>
</a>
</g>
</g>
<!-- Node2&#45;&gt;Node1 -->
<g id="edge30_Node000002_Node000001" class="edge">
<title>Node2&#45;&gt;Node1</title>
<g id="a_edge30_Node000002_Node000001"><a xlink:title=" ">
<path fill="none" stroke="#63b8ff" d="M1272.48,-374.06C1272.83,-382.38 1272.54,-391.36 1271.64,-398.61"/>
<polygon fill="#63b8ff" stroke="#63b8ff" points="1275.91,-374.02 1271.63,-364.33 1268.93,-374.57 1275.91,-374.02"/>
</a>
</g>
</g>
<!-- Node3 -->
<g id="Node000003" class="node">
<title>Node3</title>
<g id="a_Node000003"><a xlink:href="../../d4/da0/layer-stack-threadsafe_8hpp.html" target="_top" xlink:title=" ">
<polygon fill="white" stroke="#666666" points="1143.38,-296.5 1010.38,-296.5 1010.38,-266 1143.38,-266 1143.38,-296.5"/>
<text text-anchor="start" x="1018.38" y="-283" font-family="Helvetica,sans-Serif" font-size="10.00">engine/core/layers</text>
<text text-anchor="middle" x="1076.88" y="-271.75" font-family="Helvetica,sans-Serif" font-size="10.00">/layer&#45;stack&#45;threadsafe.hpp</text>
</a>
</g>
</g>
<!-- Node2&#45;&gt;Node3 -->
<g id="edge2_Node000002_Node000003" class="edge">
<title>Node2&#45;&gt;Node3</title>
<g id="a_edge2_Node000002_Node000003"><a xlink:title=" ">
<path fill="none" stroke="#63b8ff" d="M1212.91,-328.67C1183.55,-318.66 1147.52,-306.36 1119.92,-296.94"/>
<polygon fill="#63b8ff" stroke="#63b8ff" points="1211.39,-332.2 1221.99,-332.11 1213.65,-325.57 1211.39,-332.2"/>
</a>
</g>
</g>
<!-- Node25 -->
<g id="Node000025" class="node">
<title>Node25</title>
<g id="a_Node000025"><a xlink:href="../../d4/d93/layer-stack_8cpp.html" target="_top" xlink:title=" ">
<polygon fill="white" stroke="#666666" points="1256.25,-296.5 1161.5,-296.5 1161.5,-266 1256.25,-266 1256.25,-296.5"/>
<text text-anchor="start" x="1169.5" y="-283" font-family="Helvetica,sans-Serif" font-size="10.00">engine/core/layers</text>
<text text-anchor="middle" x="1208.88" y="-271.75" font-family="Helvetica,sans-Serif" font-size="10.00">/layer&#45;stack.cpp</text>
</a>
</g>
</g>
<!-- Node2&#45;&gt;Node25 -->
<g id="edge29_Node000002_Node000025" class="edge">
<title>Node2&#45;&gt;Node25</title>
<g id="a_edge29_Node000002_Node000025"><a xlink:title=" ">
<path fill="none" stroke="#63b8ff" d="M1245.69,-323.91C1237.73,-314.9 1228.82,-304.82 1221.76,-296.83"/>
<polygon fill="#63b8ff" stroke="#63b8ff" points="1242.7,-325.94 1251.94,-331.11 1247.94,-321.3 1242.7,-325.94"/>
</a>
</g>
</g>
<!-- Node26 -->
<g id="Node000026" class="node">
<title>Node26</title>
<g id="a_Node000026"><a xlink:href="../../d9/d06/render-pipeline_8hpp.html" target="_top" xlink:title=" ">
<polygon fill="white" stroke="#666666" points="1373.88,-296.5 1273.88,-296.5 1273.88,-266 1373.88,-266 1373.88,-296.5"/>
<text text-anchor="start" x="1281.88" y="-283" font-family="Helvetica,sans-Serif" font-size="10.00">engine/core/layers</text>
<text text-anchor="middle" x="1323.88" y="-271.75" font-family="Helvetica,sans-Serif" font-size="10.00">/render&#45;pipeline.hpp</text>
</a>
</g>
</g>
<!-- Node2&#45;&gt;Node26 -->
<g id="edge31_Node000002_Node000026" class="edge">
<title>Node2&#45;&gt;Node26</title>
<g id="a_edge31_Node000002_Node000026"><a xlink:title=" ">
<path fill="none" stroke="#63b8ff" d="M1286.16,-324.19C1294.33,-315.11 1303.51,-304.9 1310.77,-296.83"/>
<polygon fill="#63b8ff" stroke="#63b8ff" points="1284.12,-321.34 1280.04,-331.11 1289.33,-326.02 1284.12,-321.34"/>
</a>
</g>
</g>
<!-- Node28 -->
<g id="Node000028" class="node">
<title>Node28</title>
<g id="a_Node000028"><a xlink:href="../../d2/d42/post-processing_8hpp.html" target="_top" xlink:title=" ">
<polygon fill="white" stroke="#666666" points="1667.88,-296.5 1537.88,-296.5 1537.88,-266 1667.88,-266 1667.88,-296.5"/>
<text text-anchor="start" x="1545.88" y="-283" font-family="Helvetica,sans-Serif" font-size="10.00">engine/subsystems/render</text>
<text text-anchor="middle" x="1602.88" y="-271.75" font-family="Helvetica,sans-Serif" font-size="10.00">/post&#45;processing.hpp</text>
</a>
</g>
</g>
<!-- Node2&#45;&gt;Node28 -->
<g id="edge37_Node000002_Node000028" class="edge">
<title>Node2&#45;&gt;Node28</title>
<g id="a_edge37_Node000002_Node000028"><a xlink:title=" ">
<path fill="none" stroke="#63b8ff" d="M1324.16,-335.6C1383.63,-324.21 1475.75,-306.58 1537.63,-294.74"/>
<polygon fill="#63b8ff" stroke="#63b8ff" points="1323.61,-332.33 1314.44,-337.65 1324.92,-339.2 1323.61,-332.33"/>
</a>
</g>
</g>
<!-- Node4 -->
<g id="Node000004" class="node">
<title>Node4</title>
<g id="a_Node000004"><a xlink:href="../../d4/d87/layers_8hpp.html" target="_top" xlink:title=" ">
<polygon fill="white" stroke="#666666" points="1271.25,-224.38 1158.5,-224.38 1158.5,-205.12 1271.25,-205.12 1271.25,-224.38"/>
<text text-anchor="middle" x="1214.88" y="-210.88" font-family="Helvetica,sans-Serif" font-size="10.00">engine/core/layers.hpp</text>
</a>
</g>
</g>
<!-- Node3&#45;&gt;Node4 -->
<g id="edge3_Node000003_Node000004" class="edge">
<title>Node3&#45;&gt;Node4</title>
<g id="a_edge3_Node000003_Node000004"><a xlink:title=" ">
<path fill="none" stroke="#63b8ff" d="M1118.05,-261.01C1143.74,-249 1175.61,-234.1 1195.6,-224.76"/>
<polygon fill="#63b8ff" stroke="#63b8ff" points="1116.77,-258.21 1109.19,-265.61 1119.73,-264.55 1116.77,-258.21"/>
</a>
</g>
</g>
<!-- Node23 -->
<g id="Node000023" class="node">
<title>Node23</title>
<g id="a_Node000023"><a xlink:href="../../d8/df2/layer-stack-threadsafe_8cpp.html" target="_top" xlink:title=" ">
<polygon fill="white" stroke="#666666" points="995.38,-230 862.38,-230 862.38,-199.5 995.38,-199.5 995.38,-230"/>
<text text-anchor="start" x="870.38" y="-216.5" font-family="Helvetica,sans-Serif" font-size="10.00">engine/core/layers</text>
<text text-anchor="middle" x="928.88" y="-205.25" font-family="Helvetica,sans-Serif" font-size="10.00">/layer&#45;stack&#45;threadsafe.cpp</text>
</a>
</g>
</g>
<!-- Node3&#45;&gt;Node23 -->
<g id="edge26_Node000003_Node000023" class="edge">
<title>Node3&#45;&gt;Node23</title>
<g id="a_edge26_Node000003_Node000023"><a xlink:title=" ">
<path fill="none" stroke="#63b8ff" d="M1033.28,-261.25C1010.69,-251.41 983.54,-239.57 962.58,-230.44"/>
<polygon fill="#63b8ff" stroke="#63b8ff" points="1031.73,-264.83 1042.29,-265.61 1034.52,-258.41 1031.73,-264.83"/>
</a>
</g>
</g>
<!-- Node24 -->
<g id="Node000024" class="node">
<title>Node24</title>
<g id="a_Node000024"><a xlink:href="../../d9/de3/layer-stack-threadsafe_8inl.html" target="_top" xlink:title=" ">
<polygon fill="white" stroke="#666666" points="1140.38,-230 1013.38,-230 1013.38,-199.5 1140.38,-199.5 1140.38,-230"/>
<text text-anchor="start" x="1021.38" y="-216.5" font-family="Helvetica,sans-Serif" font-size="10.00">engine/core/layers</text>
<text text-anchor="middle" x="1076.88" y="-205.25" font-family="Helvetica,sans-Serif" font-size="10.00">/layer&#45;stack&#45;threadsafe.inl</text>
</a>
</g>
</g>
<!-- Node3&#45;&gt;Node24 -->
<g id="edge27_Node000003_Node000024" class="edge">
<title>Node3&#45;&gt;Node24</title>
<g id="a_edge27_Node000003_Node000024"><a xlink:title=" ">
<path fill="none" stroke="#63b8ff" d="M1070.26,-254.88C1069.92,-246.55 1070.21,-237.58 1071.12,-230.33"/>
<polygon fill="#63b8ff" stroke="#63b8ff" points="1066.84,-254.92 1071.11,-264.61 1073.81,-254.37 1066.84,-254.92"/>
</a>
</g>
</g>
<!-- Node5 -->
<g id="Node000005" class="node">
<title>Node5</title>
<g id="a_Node000005"><a xlink:href="../../de/d46/engine_8hpp.html" target="_top" xlink:title=" ">
<polygon fill="white" stroke="#666666" points="1196.75,-157.88 1081,-157.88 1081,-138.62 1196.75,-138.62 1196.75,-157.88"/>
<text text-anchor="middle" x="1138.88" y="-144.38" font-family="Helvetica,sans-Serif" font-size="10.00">engine/core/engine.hpp</text>
</a>
</g>
</g>
<!-- Node4&#45;&gt;Node5 -->
<g id="edge4_Node000004_Node000005" class="edge">
<title>Node4&#45;&gt;Node5</title>
<g id="a_edge4_Node000004_Node000005"><a xlink:title=" ">
<path fill="none" stroke="#63b8ff" d="M1195.92,-197.67C1181.2,-185.17 1161.34,-168.31 1149.35,-158.14"/>
<polygon fill="#63b8ff" stroke="#63b8ff" points="1193.42,-200.98 1203.31,-204.78 1197.95,-195.64 1193.42,-200.98"/>
</a>
</g>
</g>
<!-- Node6 -->
<g id="Node000006" class="node">
<title>Node6</title>
<g id="a_Node000006"><a xlink:href="../../d0/d86/camera-movement_8hpp.html" target="_top" xlink:title=" ">
<polygon fill="white" stroke="#666666" points="1606.62,-85.75 1451.12,-85.75 1451.12,-66.5 1606.62,-66.5 1606.62,-85.75"/>
<text text-anchor="middle" x="1528.88" y="-72.25" font-family="Helvetica,sans-Serif" font-size="10.00">d3d_test/camera&#45;movement.hpp</text>
</a>
</g>
</g>
<!-- Node5&#45;&gt;Node6 -->
<g id="edge5_Node000005_Node000006" class="edge">
<title>Node5&#45;&gt;Node6</title>
<g id="a_edge5_Node000005_Node000006"><a xlink:title=" ">
<path fill="none" stroke="#63b8ff" d="M1207.89,-137.02C1269.45,-127.6 1361.92,-112.75 1441.88,-97 1458.14,-93.8 1476.01,-89.8 1491.3,-86.23"/>
<polygon fill="#63b8ff" stroke="#63b8ff" points="1207.51,-133.69 1198.15,-138.65 1208.56,-140.61 1207.51,-133.69"/>
</a>
</g>
</g>
<!-- Node9 -->
<g id="Node000009" class="node">
<title>Node9</title>
<g id="a_Node000009"><a xlink:href="../../dc/dfb/controller_8hpp.html" target="_top" xlink:title=" ">
<polygon fill="white" stroke="#666666" points="1926,-85.75 1811.75,-85.75 1811.75,-66.5 1926,-66.5 1926,-85.75"/>
<text text-anchor="middle" x="1868.88" y="-72.25" font-family="Helvetica,sans-Serif" font-size="10.00">d3d_test/controller.hpp</text>
</a>
</g>
</g>
<!-- Node5&#45;&gt;Node9 -->
<g id="edge8_Node000005_Node000009" class="edge">
<title>Node5&#45;&gt;Node9</title>
<g id="a_edge8_Node000005_Node000009"><a xlink:title=" ">
<path fill="none" stroke="#63b8ff" d="M1208,-146.83C1329.25,-145.02 1587.75,-136.41 1801.88,-97 1815.72,-94.45 1830.77,-90.13 1843.1,-86.17"/>
<polygon fill="#63b8ff" stroke="#63b8ff" points="1208,-143.34 1198.05,-146.98 1208.1,-150.34 1208,-143.34"/>
</a>
</g>
</g>
<!-- Node10 -->
<g id="Node000010" class="node">
<title>Node10</title>
<g id="a_Node000010"><a xlink:href="../../d9/d0f/main_8cc.html" target="_top" xlink:title=" ">
<polygon fill="white" stroke="#666666" points="1956,-19.25 1865.75,-19.25 1865.75,0 1956,0 1956,-19.25"/>
<text text-anchor="middle" x="1910.88" y="-5.75" font-family="Helvetica,sans-Serif" font-size="10.00">d3d_test/main.cc</text>
</a>
</g>
</g>
<!-- Node5&#45;&gt;Node10 -->
<g id="edge11_Node000005_Node000010" class="edge">
<title>Node5&#45;&gt;Node10</title>
<g id="a_edge11_Node000005_Node000010"><a xlink:title=" ">
<path fill="none" stroke="#63b8ff" d="M1207.74,-145.97C1322.25,-142.85 1546.15,-132.3 1615.88,-97 1638.26,-85.67 1631.88,-67.33 1653.88,-55.25 1721.16,-18.3 1812.01,-10.72 1865.72,-9.81"/>
<polygon fill="#63b8ff" stroke="#63b8ff" points="1207.91,-142.49 1198.01,-146.24 1208.09,-149.48 1207.91,-142.49"/>
</a>
</g>
</g>
<!-- Node11 -->
<g id="Node000011" class="node">
<title>Node11</title>
<g id="a_Node000011"><a xlink:href="../../da/df5/object-editor_8hpp.html" target="_top" xlink:title=" ">
<polygon fill="white" stroke="#666666" points="201.75,-85.75 74,-85.75 74,-66.5 201.75,-66.5 201.75,-85.75"/>
<text text-anchor="middle" x="137.88" y="-72.25" font-family="Helvetica,sans-Serif" font-size="10.00">d3d_test/object&#45;editor.hpp</text>
</a>
</g>
</g>
<!-- Node5&#45;&gt;Node11 -->
<g id="edge12_Node000005_Node000011" class="edge">
<title>Node5&#45;&gt;Node11</title>
<g id="a_edge12_Node000005_Node000011"><a xlink:title=" ">
<path fill="none" stroke="#63b8ff" d="M1069.72,-145.4C883.83,-140.14 376.24,-123.68 210.88,-97 195.7,-94.55 179.15,-90.19 165.65,-86.18"/>
<polygon fill="#63b8ff" stroke="#63b8ff" points="1069.61,-148.93 1079.71,-145.71 1069.81,-141.93 1069.61,-148.93"/>
</a>
</g>
</g>
<!-- Node14 -->
<g id="Node000014" class="node">
<title>Node14</title>
<g id="a_Node000014"><a xlink:href="../../d9/d55/scene-viewer_8hpp.html" target="_top" xlink:title=" ">
<polygon fill="white" stroke="#666666" points="1433,-85.75 1300.75,-85.75 1300.75,-66.5 1433,-66.5 1433,-85.75"/>
<text text-anchor="middle" x="1366.88" y="-72.25" font-family="Helvetica,sans-Serif" font-size="10.00">d3d_test/scene&#45;viewer.hpp</text>
</a>
</g>
</g>
<!-- Node5&#45;&gt;Node14 -->
<g id="edge16_Node000005_Node000014" class="edge">
<title>Node5&#45;&gt;Node14</title>
<g id="a_edge16_Node000005_Node000014"><a xlink:title=" ">
<path fill="none" stroke="#63b8ff" d="M1178.53,-135.05C1223.78,-121.14 1296.73,-98.7 1337.29,-86.23"/>
<polygon fill="#63b8ff" stroke="#63b8ff" points="1177.74,-131.94 1169.22,-138.23 1179.8,-138.63 1177.74,-131.94"/>
</a>
</g>
</g>
<!-- Node15 -->
<g id="Node000015" class="node">
<title>Node15</title>
<g id="a_Node000015"><a xlink:href="../../da/d5c/engine_8cpp.html" target="_top" xlink:title=" ">
<polygon fill="white" stroke="#666666" points="335.75,-85.75 220,-85.75 220,-66.5 335.75,-66.5 335.75,-85.75"/>
<text text-anchor="middle" x="277.88" y="-72.25" font-family="Helvetica,sans-Serif" font-size="10.00">engine/core/engine.cpp</text>
</a>
</g>
</g>
<!-- Node5&#45;&gt;Node15 -->
<g id="edge18_Node000005_Node000015" class="edge">
<title>Node5&#45;&gt;Node15</title>
<g id="a_edge18_Node000005_Node000015"><a xlink:title=" ">
<path fill="none" stroke="#63b8ff" d="M1070.12,-148.18C931.54,-148.89 609.26,-144.69 343.88,-97 330.09,-94.52 315.12,-90.16 302.93,-86.15"/>
<polygon fill="#63b8ff" stroke="#63b8ff" points="1069.99,-151.67 1079.97,-148.11 1069.95,-144.67 1069.99,-151.67"/>
</a>
</g>
</g>
<!-- Node16 -->
<g id="Node000016" class="node">
<title>Node16</title>
<g id="a_Node000016"><a xlink:href="../../d1/da2/deferred-hdr-render-pipeline_8cpp.html" target="_top" xlink:title=" ">
<polygon fill="white" stroke="#666666" points="1793.25,-91.38 1662.5,-91.38 1662.5,-60.88 1793.25,-60.88 1793.25,-91.38"/>
<text text-anchor="start" x="1670.5" y="-77.88" font-family="Helvetica,sans-Serif" font-size="10.00">engine/direct3d11/deferred</text>
<text text-anchor="middle" x="1727.88" y="-66.62" font-family="Helvetica,sans-Serif" font-size="10.00">&#45;hdr&#45;render&#45;pipeline.cpp</text>
</a>
</g>
</g>
<!-- Node5&#45;&gt;Node16 -->
<g id="edge19_Node000005_Node000016" class="edge">
<title>Node5&#45;&gt;Node16</title>
<g id="a_edge19_Node000005_Node000016"><a xlink:title=" ">
<path fill="none" stroke="#63b8ff" d="M1207.69,-143.72C1306.07,-137.93 1492.37,-124.24 1648.88,-97 1657.1,-95.57 1665.72,-93.74 1674.13,-91.78"/>
<polygon fill="#63b8ff" stroke="#63b8ff" points="1207.78,-140.26 1198,-144.33 1208.18,-147.25 1207.78,-140.26"/>
</a>
</g>
</g>
<!-- Node17 -->
<g id="Node000017" class="node">
<title>Node17</title>
<g id="a_Node000017"><a xlink:href="../../d8/d30/decal-render-system_8cpp.html" target="_top" xlink:title=" ">
<polygon fill="white" stroke="#666666" points="504.38,-91.38 353.38,-91.38 353.38,-60.88 504.38,-60.88 504.38,-91.38"/>
<text text-anchor="start" x="361.38" y="-77.88" font-family="Helvetica,sans-Serif" font-size="10.00">engine/subsystems/render</text>
<text text-anchor="middle" x="428.88" y="-66.62" font-family="Helvetica,sans-Serif" font-size="10.00">/detail/decal&#45;render&#45;system.cpp</text>
</a>
</g>
</g>
<!-- Node5&#45;&gt;Node17 -->
<g id="edge20_Node000005_Node000017" class="edge">
<title>Node5&#45;&gt;Node17</title>
<g id="a_edge20_Node000005_Node000017"><a xlink:title=" ">
<path fill="none" stroke="#63b8ff" d="M1070.01,-145.08C954.46,-140.68 714.44,-128.33 513.88,-97 505.04,-95.62 495.76,-93.82 486.72,-91.87"/>
<polygon fill="#63b8ff" stroke="#63b8ff" points="1069.68,-148.6 1079.8,-145.48 1069.94,-141.61 1069.68,-148.6"/>
</a>
</g>
</g>
<!-- Node18 -->
<g id="Node000018" class="node">
<title>Node18</title>
<g id="a_Node000018"><a xlink:href="../../d1/d58/dissolution-render-system_8cpp.html" target="_top" xlink:title=" ">
<polygon fill="white" stroke="#666666" points="652.88,-97 522.88,-97 522.88,-55.25 652.88,-55.25 652.88,-97"/>
<text text-anchor="start" x="530.88" y="-83.5" font-family="Helvetica,sans-Serif" font-size="10.00">engine/subsystems/render</text>
<text text-anchor="start" x="530.88" y="-72.25" font-family="Helvetica,sans-Serif" font-size="10.00">/detail/dissolution&#45;render</text>
<text text-anchor="middle" x="587.88" y="-61" font-family="Helvetica,sans-Serif" font-size="10.00">&#45;system.cpp</text>
</a>
</g>
</g>
<!-- Node5&#45;&gt;Node18 -->
<g id="edge21_Node000005_Node000018" class="edge">
<title>Node5&#45;&gt;Node18</title>
<g id="a_edge21_Node000005_Node000018"><a xlink:title=" ">
<path fill="none" stroke="#63b8ff" d="M1069.84,-143.4C976.63,-137.42 805.65,-123.71 661.88,-97 659,-96.47 656.07,-95.88 653.12,-95.25"/>
<polygon fill="#63b8ff" stroke="#63b8ff" points="1069.61,-146.95 1079.81,-144.09 1070.05,-139.97 1069.61,-146.95"/>
</a>
</g>
</g>
<!-- Node19 -->
<g id="Node000019" class="node">
<title>Node19</title>
<g id="a_Node000019"><a xlink:href="../../d2/d11/emissive-particle-render-system_8cpp.html" target="_top" xlink:title=" ">
<polygon fill="white" stroke="#666666" points="800.88,-97 670.88,-97 670.88,-55.25 800.88,-55.25 800.88,-97"/>
<text text-anchor="start" x="678.88" y="-83.5" font-family="Helvetica,sans-Serif" font-size="10.00">engine/subsystems/render</text>
<text text-anchor="start" x="678.88" y="-72.25" font-family="Helvetica,sans-Serif" font-size="10.00">/detail/emissive&#45;particle</text>
<text text-anchor="middle" x="735.88" y="-61" font-family="Helvetica,sans-Serif" font-size="10.00">&#45;render&#45;system.cpp</text>
</a>
</g>
</g>
<!-- Node5&#45;&gt;Node19 -->
<g id="edge22_Node000005_Node000019" class="edge">
<title>Node5&#45;&gt;Node19</title>
<g id="a_edge22_Node000005_Node000019"><a xlink:title=" ">
<path fill="none" stroke="#63b8ff" d="M1069.77,-138.96C1002.92,-130.41 898.93,-115.7 809.88,-97 807.01,-96.4 804.09,-95.75 801.15,-95.08"/>
<polygon fill="#63b8ff" stroke="#63b8ff" points="1069.22,-142.55 1079.58,-140.33 1070.1,-135.6 1069.22,-142.55"/>
</a>
</g>
</g>
<!-- Node20 -->
<g id="Node000020" class="node">
<title>Node20</title>
<g id="a_Node000020"><a xlink:href="../../df/d58/grass-render-system_8cpp.html" target="_top" xlink:title=" ">
<polygon fill="white" stroke="#666666" points="970.75,-91.38 819,-91.38 819,-60.88 970.75,-60.88 970.75,-91.38"/>
<text text-anchor="start" x="827" y="-77.88" font-family="Helvetica,sans-Serif" font-size="10.00">engine/subsystems/render</text>
<text text-anchor="middle" x="894.88" y="-66.62" font-family="Helvetica,sans-Serif" font-size="10.00">/detail/grass&#45;render&#45;system.cpp</text>
</a>
</g>
</g>
<!-- Node5&#45;&gt;Node20 -->
<g id="edge23_Node000005_Node000020" class="edge">
<title>Node5&#45;&gt;Node20</title>
<g id="a_edge23_Node000005_Node000020"><a xlink:title=" ">
<path fill="none" stroke="#63b8ff" d="M1097.11,-135.25C1055.33,-123.24 990.99,-104.75 946.15,-91.86"/>
<polygon fill="#63b8ff" stroke="#63b8ff" points="1095.9,-138.83 1106.48,-138.23 1097.83,-132.1 1095.9,-138.83"/>
</a>
</g>
</g>
<!-- Node21 -->
<g id="Node000021" class="node">
<title>Node21</title>
<g id="a_Node000021"><a xlink:href="../../d8/d9c/light-render-system_8cpp.html" target="_top" xlink:title=" ">
<polygon fill="white" stroke="#666666" points="1134.75,-91.38 989,-91.38 989,-60.88 1134.75,-60.88 1134.75,-91.38"/>
<text text-anchor="start" x="997" y="-77.88" font-family="Helvetica,sans-Serif" font-size="10.00">engine/subsystems/render</text>
<text text-anchor="middle" x="1061.88" y="-66.62" font-family="Helvetica,sans-Serif" font-size="10.00">/detail/light&#45;render&#45;system.cpp</text>
</a>
</g>
</g>
<!-- Node5&#45;&gt;Node21 -->
<g id="edge24_Node000005_Node000021" class="edge">
<title>Node5&#45;&gt;Node21</title>
<g id="a_edge24_Node000005_Node000021"><a xlink:title=" ">
<path fill="none" stroke="#63b8ff" d="M1121.32,-131.26C1108.29,-119.4 1090.65,-103.33 1077.98,-91.79"/>
<polygon fill="#63b8ff" stroke="#63b8ff" points="1118.37,-133.22 1128.12,-137.37 1123.09,-128.05 1118.37,-133.22"/>
</a>
</g>
</g>
<!-- Node22 -->
<g id="Node000022" class="node">
<title>Node22</title>
<g id="a_Node000022"><a xlink:href="../../d3/dfe/particle-render-system_8cpp.html" target="_top" xlink:title=" ">
<polygon fill="white" stroke="#666666" points="1282.88,-97 1152.88,-97 1152.88,-55.25 1282.88,-55.25 1282.88,-97"/>
<text text-anchor="start" x="1160.88" y="-83.5" font-family="Helvetica,sans-Serif" font-size="10.00">engine/subsystems/render</text>
<text text-anchor="start" x="1160.88" y="-72.25" font-family="Helvetica,sans-Serif" font-size="10.00">/detail/particle&#45;render</text>
<text text-anchor="middle" x="1217.88" y="-61" font-family="Helvetica,sans-Serif" font-size="10.00">&#45;system.cpp</text>
</a>
</g>
</g>
<!-- Node5&#45;&gt;Node22 -->
<g id="edge25_Node000005_Node000022" class="edge">
<title>Node5&#45;&gt;Node22</title>
<g id="a_edge25_Node000005_Node000022"><a xlink:title=" ">
<path fill="none" stroke="#63b8ff" d="M1156.78,-131.36C1168.12,-121.29 1182.87,-108.19 1195.05,-97.39"/>
<polygon fill="#63b8ff" stroke="#63b8ff" points="1155.04,-128.11 1149.88,-137.37 1159.68,-133.35 1155.04,-128.11"/>
</a>
</g>
</g>
<!-- Node7 -->
<g id="Node000007" class="node">
<title>Node7</title>
<g id="a_Node000007"><a xlink:href="../../d5/dbb/camera-movement_8cpp.html" target="_top" xlink:title=" ">
<polygon fill="white" stroke="#666666" points="1606.62,-19.25 1451.12,-19.25 1451.12,0 1606.62,0 1606.62,-19.25"/>
<text text-anchor="middle" x="1528.88" y="-5.75" font-family="Helvetica,sans-Serif" font-size="10.00">d3d_test/camera&#45;movement.cpp</text>
</a>
</g>
</g>
<!-- Node6&#45;&gt;Node7 -->
<g id="edge6_Node000006_Node000007" class="edge">
<title>Node6&#45;&gt;Node7</title>
<g id="a_edge6_Node000006_Node000007"><a xlink:title=" ">
<path fill="none" stroke="#63b8ff" d="M1528.88,-55.4C1528.88,-43.43 1528.88,-28.73 1528.88,-19.52"/>
<polygon fill="#63b8ff" stroke="#63b8ff" points="1525.38,-55.16 1528.88,-65.16 1532.38,-55.16 1525.38,-55.16"/>
</a>
</g>
</g>
<!-- Node8 -->
<g id="Node000008" class="node">
<title>Node8</title>
<g id="a_Node000008"><a xlink:href="../../d1/d47/controller_8cpp.html" target="_top" xlink:title=" ">
<polygon fill="white" stroke="#666666" points="1428,-19.25 1313.75,-19.25 1313.75,0 1428,0 1428,-19.25"/>
<text text-anchor="middle" x="1370.88" y="-5.75" font-family="Helvetica,sans-Serif" font-size="10.00">d3d_test/controller.cpp</text>
</a>
</g>
</g>
<!-- Node6&#45;&gt;Node8 -->
<g id="edge7_Node000006_Node000008" class="edge">
<title>Node6&#45;&gt;Node8</title>
<g id="a_edge7_Node000006_Node000008"><a xlink:title=" ">
<path fill="none" stroke="#63b8ff" d="M1496.73,-62C1465.87,-49.4 1420.07,-30.71 1393.06,-19.68"/>
<polygon fill="#63b8ff" stroke="#63b8ff" points="1494.99,-65.48 1505.57,-66.02 1497.64,-59 1494.99,-65.48"/>
</a>
</g>
</g>
<!-- Node9&#45;&gt;Node8 -->
<g id="edge9_Node000009_Node000008" class="edge">
<title>Node9&#45;&gt;Node8</title>
<g id="a_edge9_Node000009_Node000008"><a xlink:title=" ">
<path fill="none" stroke="#63b8ff" d="M1831.91,-62.81C1822.23,-59.95 1811.74,-57.19 1801.88,-55.25 1644.09,-24.25 1601.7,-36.95 1441.88,-19.25 1437.43,-18.76 1432.83,-18.23 1428.21,-17.7"/>
<polygon fill="#63b8ff" stroke="#63b8ff" points="1830.84,-66.44 1841.43,-66.03 1832.89,-59.75 1830.84,-66.44"/>
</a>
</g>
</g>
<!-- Node9&#45;&gt;Node10 -->
<g id="edge10_Node000009_Node000010" class="edge">
<title>Node9&#45;&gt;Node10</title>
<g id="a_edge10_Node000009_Node000010"><a xlink:title=" ">
<path fill="none" stroke="#63b8ff" d="M1880.52,-57.24C1888.51,-44.97 1898.77,-29.21 1905.08,-19.52"/>
<polygon fill="#63b8ff" stroke="#63b8ff" points="1877.24,-54.87 1874.71,-65.16 1883.1,-58.69 1877.24,-54.87"/>
</a>
</g>
</g>
<!-- Node11&#45;&gt;Node8 -->
<g id="edge13_Node000011_Node000008" class="edge">
<title>Node11&#45;&gt;Node8</title>
<g id="a_edge13_Node000011_Node000008"><a xlink:title=" ">
<path fill="none" stroke="#63b8ff" d="M175.63,-63.09C186.86,-59.99 199.27,-57.03 210.88,-55.25 427.02,-22.11 1110.22,-13.09 1313.36,-11.11"/>
<polygon fill="#63b8ff" stroke="#63b8ff" points="174.93,-59.94 166.29,-66.07 176.87,-66.67 174.93,-59.94"/>
</a>
</g>
</g>
<!-- Node12 -->
<g id="Node000012" class="node">
<title>Node12</title>
<g id="a_Node000012"><a xlink:href="../../d4/d94/object-editor_8cpp.html" target="_top" xlink:title=" ">
<polygon fill="white" stroke="#666666" points="127.75,-19.25 0,-19.25 0,0 127.75,0 127.75,-19.25"/>
<text text-anchor="middle" x="63.88" y="-5.75" font-family="Helvetica,sans-Serif" font-size="10.00">d3d_test/object&#45;editor.cpp</text>
</a>
</g>
</g>
<!-- Node11&#45;&gt;Node12 -->
<g id="edge14_Node000011_Node000012" class="edge">
<title>Node11&#45;&gt;Node12</title>
<g id="a_edge14_Node000011_Node000012"><a xlink:title=" ">
<path fill="none" stroke="#63b8ff" d="M119.42,-59.04C105.09,-46.55 85.75,-29.69 74.08,-19.52"/>
<polygon fill="#63b8ff" stroke="#63b8ff" points="116.75,-62.22 126.59,-66.16 121.35,-56.95 116.75,-62.22"/>
</a>
</g>
</g>
<!-- Node13 -->
<g id="Node000013" class="node">
<title>Node13</title>
<g id="a_Node000013"><a xlink:href="../../d0/d38/scene-viewer_8cpp.html" target="_top" xlink:title=" ">
<polygon fill="white" stroke="#666666" points="278,-19.25 145.75,-19.25 145.75,0 278,0 278,-19.25"/>
<text text-anchor="middle" x="211.88" y="-5.75" font-family="Helvetica,sans-Serif" font-size="10.00">d3d_test/scene&#45;viewer.cpp</text>
</a>
</g>
</g>
<!-- Node11&#45;&gt;Node13 -->
<g id="edge15_Node000011_Node000013" class="edge">
<title>Node11&#45;&gt;Node13</title>
<g id="a_edge15_Node000011_Node000013"><a xlink:title=" ">
<path fill="none" stroke="#63b8ff" d="M156.33,-59.04C170.66,-46.55 190,-29.69 201.67,-19.52"/>
<polygon fill="#63b8ff" stroke="#63b8ff" points="154.4,-56.95 149.16,-66.16 159,-62.22 154.4,-56.95"/>
</a>
</g>
</g>
<!-- Node14&#45;&gt;Node8 -->
<g id="edge17_Node000014_Node000008" class="edge">
<title>Node14&#45;&gt;Node8</title>
<g id="a_edge17_Node000014_Node000008"><a xlink:title=" ">
<path fill="none" stroke="#63b8ff" d="M1368.1,-55.4C1368.84,-43.43 1369.75,-28.73 1370.32,-19.52"/>
<polygon fill="#63b8ff" stroke="#63b8ff" points="1364.56,-54.96 1367.43,-65.16 1371.54,-55.39 1364.56,-54.96"/>
</a>
</g>
</g>
<!-- Node24&#45;&gt;Node3 -->
<g id="edge28_Node000024_Node000003" class="edge">
<title>Node24&#45;&gt;Node3</title>
<g id="a_edge28_Node000024_Node000003"><a xlink:title=" ">
<path fill="none" stroke="#63b8ff" d="M1083.48,-241.06C1083.83,-249.38 1083.54,-258.36 1082.64,-265.61"/>
<polygon fill="#63b8ff" stroke="#63b8ff" points="1086.91,-241.02 1082.63,-231.33 1079.93,-241.57 1086.91,-241.02"/>
</a>
</g>
</g>
<!-- Node26&#45;&gt;Node4 -->
<g id="edge32_Node000026_Node000004" class="edge">
<title>Node26&#45;&gt;Node4</title>
<g id="a_edge32_Node000026_Node000004"><a xlink:title=" ">
<path fill="none" stroke="#63b8ff" d="M1289.73,-260.04C1269.73,-248.21 1245.47,-233.86 1230.1,-224.76"/>
<polygon fill="#63b8ff" stroke="#63b8ff" points="1287.75,-263.53 1298.14,-265.61 1291.32,-257.51 1287.75,-263.53"/>
</a>
</g>
</g>
<!-- Node27 -->
<g id="Node000027" class="node">
<title>Node27</title>
<g id="a_Node000027"><a xlink:href="../../db/df9/deferred-hdr-render-pipeline_8hpp.html" target="_top" xlink:title=" ">
<polygon fill="white" stroke="#666666" points="1802.25,-163.5 1671.5,-163.5 1671.5,-133 1802.25,-133 1802.25,-163.5"/>
<text text-anchor="start" x="1679.5" y="-150" font-family="Helvetica,sans-Serif" font-size="10.00">engine/direct3d11/deferred</text>
<text text-anchor="middle" x="1736.88" y="-138.75" font-family="Helvetica,sans-Serif" font-size="10.00">&#45;hdr&#45;render&#45;pipeline.hpp</text>
</a>
</g>
</g>
<!-- Node26&#45;&gt;Node27 -->
<g id="edge33_Node000026_Node000027" class="edge">
<title>Node26&#45;&gt;Node27</title>
<g id="a_edge33_Node000026_Node000027"><a xlink:title=" ">
<path fill="none" stroke="#63b8ff" d="M1330.17,-255.22C1336.18,-236.76 1347.16,-212.66 1365.88,-199.5 1413.79,-165.8 1578.16,-154.65 1671.23,-150.99"/>
<polygon fill="#63b8ff" stroke="#63b8ff" points="1326.59,-253.99 1327.12,-264.57 1333.31,-255.97 1326.59,-253.99"/>
</a>
</g>
</g>
<!-- Node27&#45;&gt;Node9 -->
<g id="edge34_Node000027_Node000009" class="edge">
<title>Node27&#45;&gt;Node9</title>
<g id="a_edge34_Node000027_Node000009"><a xlink:title=" ">
<path fill="none" stroke="#63b8ff" d="M1773.92,-127.57C1799.42,-114.02 1832.1,-96.66 1851.72,-86.24"/>
<polygon fill="#63b8ff" stroke="#63b8ff" points="1772.74,-124.77 1765.55,-132.55 1776.02,-130.95 1772.74,-124.77"/>
</a>
</g>
</g>
<!-- Node27&#45;&gt;Node10 -->
<g id="edge35_Node000027_Node000010" class="edge">
<title>Node27&#45;&gt;Node10</title>
<g id="a_edge35_Node000027_Node000010"><a xlink:title=" ">
<path fill="none" stroke="#63b8ff" d="M1813.34,-132.51C1865.7,-121.64 1927.06,-107.05 1934.88,-97 1953.22,-73.41 1930.55,-36.62 1918.07,-19.7"/>
<polygon fill="#63b8ff" stroke="#63b8ff" points="1812.76,-129.26 1803.66,-134.7 1814.16,-136.12 1812.76,-129.26"/>
</a>
</g>
</g>
<!-- Node27&#45;&gt;Node16 -->
<g id="edge36_Node000027_Node000016" class="edge">
<title>Node27&#45;&gt;Node16</title>
<g id="a_edge36_Node000027_Node000016"><a xlink:title=" ">
<path fill="none" stroke="#63b8ff" d="M1733.63,-121.93C1732.32,-111.75 1730.86,-100.38 1729.74,-91.64"/>
<polygon fill="#63b8ff" stroke="#63b8ff" points="1730.27,-122.25 1735.01,-131.72 1737.21,-121.36 1730.27,-122.25"/>
</a>
</g>
</g>
<!-- Node28&#45;&gt;Node27 -->
<g id="edge38_Node000028_Node000027" class="edge">
<title>Node28&#45;&gt;Node27</title>
<g id="a_edge38_Node000028_Node000027"><a xlink:title=" ">
<path fill="none" stroke="#63b8ff" d="M1526.82,-276.67C1445.99,-270.13 1335.57,-251.65 1380.88,-199.5 1417.72,-157.09 1578.75,-149.48 1671.12,-148.69"/>
<polygon fill="#63b8ff" stroke="#63b8ff" points="1526.28,-280.22 1536.52,-277.49 1526.81,-273.24 1526.28,-280.22"/>
</a>
</g>
</g>
<!-- Node29 -->
<g id="Node000029" class="node">
<title>Node29</title>
<g id="a_Node000029"><a xlink:href="../../de/d8e/deferred-resolve_8hpp.html" target="_top" xlink:title=" ">
<polygon fill="white" stroke="#666666" points="1919.25,-230 1806.5,-230 1806.5,-199.5 1919.25,-199.5 1919.25,-230"/>
<text text-anchor="start" x="1814.5" y="-216.5" font-family="Helvetica,sans-Serif" font-size="10.00">engine/render/deferred</text>
<text text-anchor="middle" x="1862.88" y="-205.25" font-family="Helvetica,sans-Serif" font-size="10.00">&#45;resolve.hpp</text>
</a>
</g>
</g>
<!-- Node28&#45;&gt;Node29 -->
<g id="edge39_Node000028_Node000029" class="edge">
<title>Node28&#45;&gt;Node29</title>
<g id="a_edge39_Node000028_Node000029"><a xlink:title=" ">
<path fill="none" stroke="#63b8ff" d="M1672.84,-262.89C1714.57,-252.54 1766.87,-239.57 1806.04,-229.85"/>
<polygon fill="#63b8ff" stroke="#63b8ff" points="1672.06,-259.73 1663.2,-265.53 1673.75,-266.52 1672.06,-259.73"/>
</a>
</g>
</g>
<!-- Node31 -->
<g id="Node000031" class="node">
<title>Node31</title>
<g id="a_Node000031"><a xlink:href="../../d2/deb/hdr-to-ldr-layer_8hpp.html" target="_top" xlink:title=" ">
<polygon fill="white" stroke="#666666" points="1788,-230 1685.75,-230 1685.75,-199.5 1788,-199.5 1788,-230"/>
<text text-anchor="start" x="1693.75" y="-216.5" font-family="Helvetica,sans-Serif" font-size="10.00">engine/render/hdr&#45;to</text>
<text text-anchor="middle" x="1736.88" y="-205.25" font-family="Helvetica,sans-Serif" font-size="10.00">&#45;ldr&#45;layer.hpp</text>
</a>
</g>
</g>
<!-- Node28&#45;&gt;Node31 -->
<g id="edge42_Node000028_Node000031" class="edge">
<title>Node28&#45;&gt;Node31</title>
<g id="a_edge42_Node000028_Node000031"><a xlink:title=" ">
<path fill="none" stroke="#63b8ff" d="M1642.94,-260.97C1663.35,-251.14 1687.77,-239.39 1706.59,-230.33"/>
<polygon fill="#63b8ff" stroke="#63b8ff" points="1641.77,-258.12 1634.28,-265.61 1644.81,-264.43 1641.77,-258.12"/>
</a>
</g>
</g>
<!-- Node32 -->
<g id="Node000032" class="node">
<title>Node32</title>
<g id="a_Node000032"><a xlink:href="../../da/d7b/present-swapchain_8hpp.html" target="_top" xlink:title=" ">
<polygon fill="white" stroke="#666666" points="2046.75,-230 1937,-230 1937,-199.5 2046.75,-199.5 2046.75,-230"/>
<text text-anchor="start" x="1945" y="-216.5" font-family="Helvetica,sans-Serif" font-size="10.00">engine/render/present</text>
<text text-anchor="middle" x="1991.88" y="-205.25" font-family="Helvetica,sans-Serif" font-size="10.00">&#45;swapchain.hpp</text>
</a>
</g>
</g>
<!-- Node28&#45;&gt;Node32 -->
<g id="edge44_Node000028_Node000032" class="edge">
<title>Node28&#45;&gt;Node32</title>
<g id="a_edge44_Node000028_Node000032"><a xlink:title=" ">
<path fill="none" stroke="#63b8ff" d="M1678.86,-269.94C1744.88,-260.64 1842.97,-246 1927.88,-230 1930.78,-229.45 1933.76,-228.87 1936.76,-228.26"/>
<polygon fill="#63b8ff" stroke="#63b8ff" points="1678.56,-266.59 1669.14,-271.44 1679.53,-273.52 1678.56,-266.59"/>
</a>
</g>
</g>
<!-- Node33 -->
<g id="Node000033" class="node">
<title>Node33</title>
<g id="a_Node000033"><a xlink:href="../../d1/d3c/post-processing_8cpp.html" target="_top" xlink:title=" ">
<polygon fill="white" stroke="#666666" points="1519.88,-230 1389.88,-230 1389.88,-199.5 1519.88,-199.5 1519.88,-230"/>
<text text-anchor="start" x="1397.88" y="-216.5" font-family="Helvetica,sans-Serif" font-size="10.00">engine/subsystems/render</text>
<text text-anchor="middle" x="1454.88" y="-205.25" font-family="Helvetica,sans-Serif" font-size="10.00">/post&#45;processing.cpp</text>
</a>
</g>
</g>
<!-- Node28&#45;&gt;Node33 -->
<g id="edge47_Node000028_Node000033" class="edge">
<title>Node28&#45;&gt;Node33</title>
<g id="a_edge47_Node000028_Node000033"><a xlink:title=" ">
<path fill="none" stroke="#63b8ff" d="M1559.28,-261.25C1536.69,-251.41 1509.54,-239.57 1488.58,-230.44"/>
<polygon fill="#63b8ff" stroke="#63b8ff" points="1557.73,-264.83 1568.29,-265.61 1560.52,-258.41 1557.73,-264.83"/>
</a>
</g>
</g>
<!-- Node34 -->
<g id="Node000034" class="node">
<title>Node34</title>
<g id="a_Node000034"><a xlink:href="../../d3/de4/post-processing_8inl.html" target="_top" xlink:title=" ">
<polygon fill="white" stroke="#666666" points="1667.88,-230 1537.88,-230 1537.88,-199.5 1667.88,-199.5 1667.88,-230"/>
<text text-anchor="start" x="1545.88" y="-216.5" font-family="Helvetica,sans-Serif" font-size="10.00">engine/subsystems/render</text>
<text text-anchor="middle" x="1602.88" y="-205.25" font-family="Helvetica,sans-Serif" font-size="10.00">/post&#45;processing.inl</text>
</a>
</g>
</g>
<!-- Node28&#45;&gt;Node34 -->
<g id="edge48_Node000028_Node000034" class="edge">
<title>Node28&#45;&gt;Node34</title>
<g id="a_edge48_Node000028_Node000034"><a xlink:title=" ">
<path fill="none" stroke="#63b8ff" d="M1596.26,-254.88C1595.92,-246.55 1596.21,-237.58 1597.12,-230.33"/>
<polygon fill="#63b8ff" stroke="#63b8ff" points="1592.84,-254.92 1597.11,-264.61 1599.81,-254.37 1592.84,-254.92"/>
</a>
</g>
</g>
<!-- Node29&#45;&gt;Node27 -->
<g id="edge40_Node000029_Node000027" class="edge">
<title>Node29&#45;&gt;Node27</title>
<g id="a_edge40_Node000029_Node000027"><a xlink:title=" ">
<path fill="none" stroke="#63b8ff" d="M1824.68,-194.2C1805.59,-184.43 1782.89,-172.81 1765.35,-163.83"/>
<polygon fill="#63b8ff" stroke="#63b8ff" points="1822.79,-197.67 1833.28,-199.11 1825.98,-191.44 1822.79,-197.67"/>
</a>
</g>
</g>
<!-- Node30 -->
<g id="Node000030" class="node">
<title>Node30</title>
<g id="a_Node000030"><a xlink:href="../../d4/d7c/deferred-resolve_8cpp.html" target="_top" xlink:title=" ">
<polygon fill="white" stroke="#666666" points="1933.25,-163.5 1820.5,-163.5 1820.5,-133 1933.25,-133 1933.25,-163.5"/>
<text text-anchor="start" x="1828.5" y="-150" font-family="Helvetica,sans-Serif" font-size="10.00">engine/render/deferred</text>
<text text-anchor="middle" x="1876.88" y="-138.75" font-family="Helvetica,sans-Serif" font-size="10.00">&#45;resolve.cpp</text>
</a>
</g>
</g>
<!-- Node29&#45;&gt;Node30 -->
<g id="edge41_Node000029_Node000030" class="edge">
<title>Node29&#45;&gt;Node30</title>
<g id="a_edge41_Node000029_Node000030"><a xlink:title=" ">
<path fill="none" stroke="#63b8ff" d="M1868.38,-188.38C1870.19,-180.05 1872.14,-171.08 1873.71,-163.83"/>
<polygon fill="#63b8ff" stroke="#63b8ff" points="1864.75,-187.6 1866.05,-198.11 1871.59,-189.08 1864.75,-187.6"/>
</a>
</g>
</g>
<!-- Node31&#45;&gt;Node27 -->
<g id="edge43_Node000031_Node000027" class="edge">
<title>Node31&#45;&gt;Node27</title>
<g id="a_edge43_Node000031_Node000027"><a xlink:title=" ">
<path fill="none" stroke="#63b8ff" d="M1736.88,-188.38C1736.88,-180.05 1736.88,-171.08 1736.88,-163.83"/>
<polygon fill="#63b8ff" stroke="#63b8ff" points="1733.38,-188.11 1736.88,-198.11 1740.38,-188.11 1733.38,-188.11"/>
</a>
</g>
</g>
<!-- Node32&#45;&gt;Node10 -->
<g id="edge45_Node000032_Node000010" class="edge">
<title>Node32&#45;&gt;Node10</title>
<g id="a_edge45_Node000032_Node000010"><a xlink:title=" ">
<path fill="none" stroke="#63b8ff" d="M1989.39,-188.57C1985.35,-156.09 1975.29,-98.62 1951.88,-55.25 1944.18,-40.99 1930.9,-27.74 1921.55,-19.44"/>
<polygon fill="#63b8ff" stroke="#63b8ff" points="1986.01,-188.8 1990.62,-198.34 1992.96,-188 1986.01,-188.8"/>
</a>
</g>
</g>
<!-- Node32&#45;&gt;Node27 -->
<g id="edge46_Node000032_Node000027" class="edge">
<title>Node32&#45;&gt;Node27</title>
<g id="a_edge46_Node000032_Node000027"><a xlink:title=" ">
<path fill="none" stroke="#63b8ff" d="M1925.94,-197.07C1885.33,-186.8 1833.77,-173.76 1794.75,-163.89"/>
<polygon fill="#63b8ff" stroke="#63b8ff" points="1924.99,-200.7 1935.54,-199.75 1926.71,-193.91 1924.99,-200.7"/>
</a>
</g>
</g>
<!-- Node34&#45;&gt;Node28 -->
<g id="edge49_Node000034_Node000028" class="edge">
<title>Node34&#45;&gt;Node28</title>
<g id="a_edge49_Node000034_Node000028"><a xlink:title=" ">
<path fill="none" stroke="#63b8ff" d="M1609.48,-241.06C1609.83,-249.38 1609.54,-258.36 1608.64,-265.61"/>
<polygon fill="#63b8ff" stroke="#63b8ff" points="1612.91,-241.02 1608.63,-231.33 1605.93,-241.57 1612.91,-241.02"/>
</a>
</g>
</g>
</g>
</svg>

<g id="navigator" transform="translate(0 0)" fill="#404254">
  <rect fill="#f2f5e9" fill-opacity="0.5" stroke="#606060" stroke-width=".5" x="0" y="0" width="60" height="60"/>
  <use id="zoomplus" xlink:href="#zoomPlus" x="17" y="9" onmousedown="handleZoom(evt,'in')"/>
  <use id="zoomminus" xlink:href="#zoomMin" x="42" y="9" onmousedown="handleZoom(evt,'out')"/>
  <use id="reset" xlink:href="#resetDef" x="30" y="36" onmousedown="handleReset()"/>
   <use id="arrowup" xlink:href="#arrowUp" x="0" y="0" onmousedown="handlePan(0,-1)"/>
  <use id="arrowright" xlink:href="#arrowRight" x="0" y="0" onmousedown="handlePan(1,0)"/>
  <use id="arrowdown" xlink:href="#arrowDown" x="0" y="0" onmousedown="handlePan(0,1)"/>
  <use id="arrowleft" xlink:href="#arrowLeft" x="0" y="0" onmousedown="handlePan(-1,0)"/>
</g>
<svg viewBox="0 0 15 15" width="100%" height="30px" preserveAspectRatio="xMaxYMin meet">
 <g id="arrow_out" transform="scale(0.3 0.3)">
  <a xlink:href="layer-stack_8inl__dep__incl_org.svg" target="_base">
   <rect id="button" ry="5" rx="5" y="6" x="6" height="38" width="38"
        fill="#f2f5e9" fill-opacity="0.5" stroke="#606060" stroke-width="1.0"/>
   <path id="arrow"
     d="M 11.500037,31.436501 C 11.940474,20.09759 22.043105,11.32322 32.158766,21.979434 L 37.068811,17.246167 C 37.068811,17.246167 37.088388,32 37.088388,32 L 22.160133,31.978069 C 22.160133,31.978069 26.997745,27.140456 26.997745,27.140456 C 18.528582,18.264221 13.291696,25.230495 11.500037,31.436501 z"
     style="fill:#404040;"/>
  </a>
 </g>
</svg>

<style type='text/css'>
<![CDATA[
[data-mouse-over-selected='false'] { opacity: 0.7; }
[data-mouse-over-selected='true']  { opacity: 1.0; }
]]>
</style>
<script type="application/ecmascript"><![CDATA[
document.addEventListener('DOMContentLoaded', (event) => {
  highlightEdges();
  highlightAdjacentNodes();
});
]]></script>
</svg>
