<?xml version="1.0" encoding="UTF-8" standalone="no"?>
<!DOCTYPE svg PUBLIC "-//W3C//DTD SVG 1.1//EN"
 "http://www.w3.org/Graphics/SVG/1.1/DTD/svg11.dtd">
<!-- Generated by graphviz version 8.1.0 (20230707.0739)
 -->
<!-- Title: engine::components::CameraComponent Pages: 1 -->
<svg width="226pt" height="184pt"
 viewBox="0.00 0.00 226.12 183.75" xmlns="http://www.w3.org/2000/svg" xmlns:xlink="http://www.w3.org/1999/xlink">
<g id="graph0" class="graph" transform="scale(1 1) rotate(0) translate(4 179.75)">
<title>engine::components::CameraComponent</title>
<!-- Node1 -->
<g id="Node000001" class="node">
<title>Node1</title>
<g id="a_Node000001"><a xlink:title="Component that contains the camera of the object.">
<polygon fill="#999999" stroke="#666666" points="119,-30.5 15.25,-30.5 15.25,0 119,0 119,-30.5"/>
<text text-anchor="start" x="23.25" y="-17" font-family="Helvetica,sans-Serif" font-size="10.00">engine::components</text>
<text text-anchor="middle" x="67.12" y="-5.75" font-family="Helvetica,sans-Serif" font-size="10.00">::CameraComponent</text>
</a>
</g>
</g>
<!-- Node2 -->
<g id="Node000002" class="node">
<title>Node2</title>
<g id="a_Node000002"><a xlink:href="../../d6/dd6/structengine_1_1components_1_1_component.html" target="_top" xlink:title="Base class for all components.">
<polygon fill="white" stroke="#666666" points="102.25,-108.25 0,-108.25 0,-77.75 102.25,-77.75 102.25,-108.25"/>
<text text-anchor="start" x="8" y="-94.75" font-family="Helvetica,sans-Serif" font-size="10.00">engine::components</text>
<text text-anchor="middle" x="51.12" y="-83.5" font-family="Helvetica,sans-Serif" font-size="10.00">::Component</text>
</a>
</g>
</g>
<!-- Node2&#45;&gt;Node1 -->
<g id="edge1_Node000001_Node000002" class="edge">
<title>Node2&#45;&gt;Node1</title>
<g id="a_edge1_Node000001_Node000002"><a xlink:title=" ">
<path fill="none" stroke="#63b8ff" d="M56.47,-66.71C58.99,-54.78 61.9,-40.96 64.05,-30.81"/>
<polygon fill="#63b8ff" stroke="#63b8ff" points="52.85,-65.89 54.21,-76.39 59.7,-67.33 52.85,-65.89"/>
</a>
</g>
</g>
<!-- Node3 -->
<g id="Node000003" class="node">
<title>Node3</title>
<g id="a_Node000003"><a xlink:title=" ">
<polygon fill="white" stroke="#666666" points="203.88,-102.62 120.38,-102.62 120.38,-83.38 203.88,-83.38 203.88,-102.62"/>
<text text-anchor="middle" x="162.12" y="-89.12" font-family="Helvetica,sans-Serif" font-size="10.00">std::string_view</text>
</a>
</g>
</g>
<!-- Node3&#45;&gt;Node1 -->
<g id="edge2_Node000001_Node000003" class="edge">
<title>Node3&#45;&gt;Node1</title>
<g id="a_edge2_Node000001_Node000003"><a xlink:title=" ">
<path fill="none" stroke="#9a32cd" stroke-dasharray="5,2" d="M142.39,-76.26C125.67,-62.93 101.88,-43.96 85.55,-30.94"/>
<polygon fill="#9a32cd" stroke="#9a32cd" points="139.85,-79.52 149.85,-83.01 144.22,-74.04 139.85,-79.52"/>
</a>
</g>
<text text-anchor="middle" x="137" y="-50.25" font-family="Helvetica,sans-Serif" font-size="10.00" fill="grey"> kName</text>
</g>
<!-- Node4 -->
<g id="Node000004" class="node">
<title>Node4</title>
<g id="a_Node000004"><a xlink:title=" ">
<polygon fill="white" stroke="#666666" points="218.12,-175.75 106.12,-175.75 106.12,-145.25 218.12,-145.25 218.12,-175.75"/>
<text text-anchor="start" x="114.12" y="-162.25" font-family="Helvetica,sans-Serif" font-size="10.00">std::basic_string_view</text>
<text text-anchor="middle" x="162.12" y="-151" font-family="Helvetica,sans-Serif" font-size="10.00">&lt; Char &gt;</text>
</a>
</g>
</g>
<!-- Node4&#45;&gt;Node3 -->
<g id="edge3_Node000003_Node000004" class="edge">
<title>Node4&#45;&gt;Node3</title>
<g id="a_edge3_Node000003_Node000004"><a xlink:title=" ">
<path fill="none" stroke="#63b8ff" d="M162.12,-134.19C162.12,-123.22 162.12,-111.09 162.12,-103.05"/>
<polygon fill="#63b8ff" stroke="#63b8ff" points="158.63,-133.96 162.12,-143.96 165.63,-133.96 158.63,-133.96"/>
</a>
</g>
</g>
</g>
</svg>
