<?xml version="1.0" encoding="UTF-8" standalone="no"?>
<!DOCTYPE svg PUBLIC "-//W3C//DTD SVG 1.1//EN"
 "http://www.w3.org/Graphics/SVG/1.1/DTD/svg11.dtd">
<!-- Generated by graphviz version 8.1.0 (20230707.0739)
 -->
<!-- Title: engine/core/layers/layer&#45;stack&#45;threadsafe.hpp Pages: 1 -->
<!--zoomable 293 -->

<svg id="main" version="1.1" xmlns="http://www.w3.org/2000/svg" xmlns:xlink="http://www.w3.org/1999/xlink" xml:space="preserve" onload="init(evt)">
<style type="text/css"><![CDATA[
.node, .edge {opacity: 0.7;}
.node.selected, .edge.selected {opacity: 1;}
.edge:hover path { stroke: red; }
.edge:hover polygon { stroke: red; fill: red; }
]]></style>

<defs>
  <circle id="rim" cx="0" cy="0" r="7"/>
  <circle id="rim2" cx="0" cy="0" r="3.5"/>
  <g id="zoomPlus">
    <use xlink:href="#rim" fill="#404040"><set attributeName="fill" to="#808080" begin="zoomplus.mouseover" end="zoomplus.mouseout"/></use>
    <path d="M-4,0h8M0,-4v8" fill="none" stroke="white" stroke-width="1.5" pointer-events="none"/>
  </g>
  <g id="zoomMin">
    <use xlink:href="#rim" fill="#404040"><set attributeName="fill" to="#808080" begin="zoomminus.mouseover" end="zoomminus.mouseout"/></use>
    <path d="M-4,0h8" fill="none" stroke="white" stroke-width="1.5" pointer-events="none"/>
  </g>
  <g id="arrowUp" transform="translate(30 24)">
    <use xlink:href="#rim"/>
    <path pointer-events="none" fill="none" stroke="white" stroke-width="1.5" d="M0,-3.0v7 M-2.5,-0.5L0,-3.0L2.5,-0.5"/>
  </g>
  <g id="arrowRight" transform="rotate(90) translate(36 -43)">
    <use xlink:href="#rim"/>
    <path pointer-events="none" fill="none" stroke="white" stroke-width="1.5" d="M0,-3.0v7 M-2.5,-0.5L0,-3.0L2.5,-0.5"/>
  </g>
  <g id="arrowDown" transform="rotate(180) translate(-30 -48)">
    <use xlink:href="#rim"/>
    <path pointer-events="none" fill="none" stroke="white" stroke-width="1.5" d="M0,-3.0v7 M-2.5,-0.5L0,-3.0L2.5,-0.5"/>
  </g>
  <g id="arrowLeft" transform="rotate(270) translate(-36 17)">
    <use xlink:href="#rim"/>
    <path pointer-events="none" fill="none" stroke="white" stroke-width="1.5" d="M0,-3.0v7 M-2.5,-0.5L0,-3.0L2.5,-0.5"/>
  </g>
  <g id="resetDef">
    <use xlink:href="#rim2" fill="#404040"><set attributeName="fill" to="#808080" begin="reset.mouseover" end="reset.mouseout"/></use>
  </g>
</defs>
<script type="application/ecmascript">
var viewWidth = 1860;
var viewHeight = 293;
var sectionId = 'dynsection-1';
</script>
<script type="application/ecmascript" xlink:href="../../svg.min.js"/>
<svg id="graph" class="graph">
<g id="viewport">
<title>engine/core/layers/layer&#45;stack&#45;threadsafe.hpp</title>
<!-- Node1 -->
<g id="Node000001" class="node">
<title>Node1</title>
<g id="a_Node000001"><a xlink:title=" ">
<polygon fill="#999999" stroke="#666666" points="1120.25,-285.25 987.25,-285.25 987.25,-254.75 1120.25,-254.75 1120.25,-285.25"/>
<text text-anchor="start" x="995.25" y="-271.75" font-family="Helvetica,sans-Serif" font-size="10.00">engine/core/layers</text>
<text text-anchor="middle" x="1053.75" y="-260.5" font-family="Helvetica,sans-Serif" font-size="10.00">/layer&#45;stack&#45;threadsafe.hpp</text>
</a>
</g>
</g>
<!-- Node2 -->
<g id="Node000002" class="node">
<title>Node2</title>
<g id="a_Node000002"><a xlink:href="../../d4/d87/layers_8hpp.html" target="_top" xlink:title=" ">
<polygon fill="white" stroke="#666666" points="895.12,-213.12 782.38,-213.12 782.38,-193.88 895.12,-193.88 895.12,-213.12"/>
<text text-anchor="middle" x="838.75" y="-199.62" font-family="Helvetica,sans-Serif" font-size="10.00">engine/core/layers.hpp</text>
</a>
</g>
</g>
<!-- Node1&#45;&gt;Node2 -->
<g id="edge1_Node000001_Node000002" class="edge">
<title>Node1&#45;&gt;Node2</title>
<g id="a_edge1_Node000001_Node000002"><a xlink:title=" ">
<path fill="none" stroke="#63b8ff" d="M994.36,-251.18C953.68,-238.98 901.43,-223.3 869.02,-213.58"/>
<polygon fill="#63b8ff" stroke="#63b8ff" points="993.11,-254.76 1003.69,-254.28 995.12,-248.06 993.11,-254.76"/>
</a>
</g>
</g>
<!-- Node21 -->
<g id="Node000021" class="node">
<title>Node21</title>
<g id="a_Node000021"><a xlink:href="../../d8/df2/layer-stack-threadsafe_8cpp.html" target="_top" xlink:title=" ">
<polygon fill="white" stroke="#666666" points="1046.25,-218.75 913.25,-218.75 913.25,-188.25 1046.25,-188.25 1046.25,-218.75"/>
<text text-anchor="start" x="921.25" y="-205.25" font-family="Helvetica,sans-Serif" font-size="10.00">engine/core/layers</text>
<text text-anchor="middle" x="979.75" y="-194" font-family="Helvetica,sans-Serif" font-size="10.00">/layer&#45;stack&#45;threadsafe.cpp</text>
</a>
</g>
</g>
<!-- Node1&#45;&gt;Node21 -->
<g id="edge24_Node000001_Node000021" class="edge">
<title>Node1&#45;&gt;Node21</title>
<g id="a_edge24_Node000001_Node000021"><a xlink:title=" ">
<path fill="none" stroke="#63b8ff" d="M1028.82,-247.27C1018.17,-237.98 1006.02,-227.4 996.48,-219.08"/>
<polygon fill="#63b8ff" stroke="#63b8ff" points="1026.12,-250.43 1035.96,-254.36 1030.72,-245.15 1026.12,-250.43"/>
</a>
</g>
</g>
<!-- Node22 -->
<g id="Node000022" class="node">
<title>Node22</title>
<g id="a_Node000022"><a xlink:href="../../d9/de3/layer-stack-threadsafe_8inl.html" target="_top" xlink:title=" ">
<polygon fill="white" stroke="#666666" points="1191.25,-218.75 1064.25,-218.75 1064.25,-188.25 1191.25,-188.25 1191.25,-218.75"/>
<text text-anchor="start" x="1072.25" y="-205.25" font-family="Helvetica,sans-Serif" font-size="10.00">engine/core/layers</text>
<text text-anchor="middle" x="1127.75" y="-194" font-family="Helvetica,sans-Serif" font-size="10.00">/layer&#45;stack&#45;threadsafe.inl</text>
</a>
</g>
</g>
<!-- Node1&#45;&gt;Node22 -->
<g id="edge25_Node000001_Node000022" class="edge">
<title>Node1&#45;&gt;Node22</title>
<g id="a_edge25_Node000001_Node000022"><a xlink:title=" ">
<path fill="none" stroke="#63b8ff" d="M1072.56,-246.99C1082.56,-237.78 1094.79,-227.31 1105.27,-219.08"/>
<polygon fill="#63b8ff" stroke="#63b8ff" points="1070.63,-243.95 1065.78,-253.36 1075.45,-249.03 1070.63,-243.95"/>
</a>
</g>
</g>
<!-- Node3 -->
<g id="Node000003" class="node">
<title>Node3</title>
<g id="a_Node000003"><a xlink:href="../../de/d46/engine_8hpp.html" target="_top" xlink:title=" ">
<polygon fill="white" stroke="#666666" points="896.62,-152.25 780.88,-152.25 780.88,-133 896.62,-133 896.62,-152.25"/>
<text text-anchor="middle" x="838.75" y="-138.75" font-family="Helvetica,sans-Serif" font-size="10.00">engine/core/engine.hpp</text>
</a>
</g>
</g>
<!-- Node2&#45;&gt;Node3 -->
<g id="edge2_Node000002_Node000003" class="edge">
<title>Node2&#45;&gt;Node3</title>
<g id="a_edge2_Node000002_Node000003"><a xlink:title=" ">
<path fill="none" stroke="#63b8ff" d="M838.75,-182.74C838.75,-172.56 838.75,-160.63 838.75,-152.65"/>
<polygon fill="#63b8ff" stroke="#63b8ff" points="835.25,-182.56 838.75,-192.56 842.25,-182.56 835.25,-182.56"/>
</a>
</g>
</g>
<!-- Node4 -->
<g id="Node000004" class="node">
<title>Node4</title>
<g id="a_Node000004"><a xlink:href="../../d0/d86/camera-movement_8hpp.html" target="_top" xlink:title=" ">
<polygon fill="white" stroke="#666666" points="155.5,-85.75 0,-85.75 0,-66.5 155.5,-66.5 155.5,-85.75"/>
<text text-anchor="middle" x="77.75" y="-72.25" font-family="Helvetica,sans-Serif" font-size="10.00">d3d_test/camera&#45;movement.hpp</text>
</a>
</g>
</g>
<!-- Node3&#45;&gt;Node4 -->
<g id="edge3_Node000003_Node000004" class="edge">
<title>Node3&#45;&gt;Node4</title>
<g id="a_edge3_Node000003_Node000004"><a xlink:title=" ">
<path fill="none" stroke="#63b8ff" d="M770.04,-140.66C647.71,-138.15 384.39,-129.15 164.75,-97 147.12,-94.42 127.77,-90.15 111.81,-86.22"/>
<polygon fill="#63b8ff" stroke="#63b8ff" points="769.66,-144.18 779.72,-140.87 769.79,-137.18 769.66,-144.18"/>
</a>
</g>
</g>
<!-- Node7 -->
<g id="Node000007" class="node">
<title>Node7</title>
<g id="a_Node000007"><a xlink:href="../../dc/dfb/controller_8hpp.html" target="_top" xlink:title=" ">
<polygon fill="white" stroke="#666666" points="437.88,-85.75 323.62,-85.75 323.62,-66.5 437.88,-66.5 437.88,-85.75"/>
<text text-anchor="middle" x="380.75" y="-72.25" font-family="Helvetica,sans-Serif" font-size="10.00">d3d_test/controller.hpp</text>
</a>
</g>
</g>
<!-- Node3&#45;&gt;Node7 -->
<g id="edge6_Node000003_Node000007" class="edge">
<title>Node3&#45;&gt;Node7</title>
<g id="a_edge6_Node000003_Node000007"><a xlink:title=" ">
<path fill="none" stroke="#63b8ff" d="M769.99,-137C692.22,-131 562.04,-118.65 451.75,-97 437.56,-94.21 422.06,-90.01 409.18,-86.19"/>
<polygon fill="#63b8ff" stroke="#63b8ff" points="769.38,-140.54 779.61,-137.8 769.9,-133.56 769.38,-140.54"/>
</a>
</g>
</g>
<!-- Node8 -->
<g id="Node000008" class="node">
<title>Node8</title>
<g id="a_Node000008"><a xlink:href="../../d9/d0f/main_8cc.html" target="_top" xlink:title=" ">
<polygon fill="white" stroke="#666666" points="437.88,-19.25 347.62,-19.25 347.62,0 437.88,0 437.88,-19.25"/>
<text text-anchor="middle" x="392.75" y="-5.75" font-family="Helvetica,sans-Serif" font-size="10.00">d3d_test/main.cc</text>
</a>
</g>
</g>
<!-- Node3&#45;&gt;Node8 -->
<g id="edge9_Node000003_Node000008" class="edge">
<title>Node3&#45;&gt;Node8</title>
<g id="a_edge9_Node000003_Node000008"><a xlink:title=" ">
<path fill="none" stroke="#63b8ff" d="M769.96,-138.59C681.35,-133.72 532.97,-122.04 484.75,-97 462.48,-85.44 464.91,-72.56 446.75,-55.25 433.02,-42.16 415.97,-28.45 404.75,-19.74"/>
<polygon fill="#63b8ff" stroke="#63b8ff" points="769.55,-142.12 779.73,-139.16 769.93,-135.13 769.55,-142.12"/>
</a>
</g>
</g>
<!-- Node9 -->
<g id="Node000009" class="node">
<title>Node9</title>
<g id="a_Node000009"><a xlink:href="../../da/df5/object-editor_8hpp.html" target="_top" xlink:title=" ">
<polygon fill="white" stroke="#666666" points="621.62,-85.75 493.88,-85.75 493.88,-66.5 621.62,-66.5 621.62,-85.75"/>
<text text-anchor="middle" x="557.75" y="-72.25" font-family="Helvetica,sans-Serif" font-size="10.00">d3d_test/object&#45;editor.hpp</text>
</a>
</g>
</g>
<!-- Node3&#45;&gt;Node9 -->
<g id="edge10_Node000003_Node000009" class="edge">
<title>Node3&#45;&gt;Node9</title>
<g id="a_edge10_Node000003_Node000009"><a xlink:title=" ">
<path fill="none" stroke="#63b8ff" d="M782.17,-130.35C740.24,-121.79 681.76,-109.4 630.75,-97 617.22,-93.71 602.38,-89.74 589.63,-86.21"/>
<polygon fill="#63b8ff" stroke="#63b8ff" points="781.24,-133.94 791.73,-132.5 782.63,-127.08 781.24,-133.94"/>
</a>
</g>
</g>
<!-- Node12 -->
<g id="Node000012" class="node">
<title>Node12</title>
<g id="a_Node000012"><a xlink:href="../../d9/d55/scene-viewer_8hpp.html" target="_top" xlink:title=" ">
<polygon fill="white" stroke="#666666" points="305.88,-85.75 173.62,-85.75 173.62,-66.5 305.88,-66.5 305.88,-85.75"/>
<text text-anchor="middle" x="239.75" y="-72.25" font-family="Helvetica,sans-Serif" font-size="10.00">d3d_test/scene&#45;viewer.hpp</text>
</a>
</g>
</g>
<!-- Node3&#45;&gt;Node12 -->
<g id="edge14_Node000003_Node000012" class="edge">
<title>Node3&#45;&gt;Node12</title>
<g id="a_edge14_Node000003_Node000012"><a xlink:title=" ">
<path fill="none" stroke="#63b8ff" d="M769.63,-139.57C668.92,-135.71 476.24,-125.05 314.75,-97 299.49,-94.35 282.8,-90.07 269.05,-86.16"/>
<polygon fill="#63b8ff" stroke="#63b8ff" points="769.44,-143.1 779.56,-139.97 769.7,-136.1 769.44,-143.1"/>
</a>
</g>
</g>
<!-- Node13 -->
<g id="Node000013" class="node">
<title>Node13</title>
<g id="a_Node000013"><a xlink:href="../../da/d5c/engine_8cpp.html" target="_top" xlink:title=" ">
<polygon fill="white" stroke="#666666" points="755.62,-85.75 639.88,-85.75 639.88,-66.5 755.62,-66.5 755.62,-85.75"/>
<text text-anchor="middle" x="697.75" y="-72.25" font-family="Helvetica,sans-Serif" font-size="10.00">engine/core/engine.cpp</text>
</a>
</g>
</g>
<!-- Node3&#45;&gt;Node13 -->
<g id="edge16_Node000003_Node000013" class="edge">
<title>Node3&#45;&gt;Node13</title>
<g id="a_edge16_Node000003_Node000013"><a xlink:title=" ">
<path fill="none" stroke="#63b8ff" d="M808.98,-128.01C781.46,-115.42 741.33,-97.06 717.55,-86.18"/>
<polygon fill="#63b8ff" stroke="#63b8ff" points="807.3,-131.54 817.85,-132.52 810.21,-125.18 807.3,-131.54"/>
</a>
</g>
</g>
<!-- Node14 -->
<g id="Node000014" class="node">
<title>Node14</title>
<g id="a_Node000014"><a xlink:href="../../d1/da2/deferred-hdr-render-pipeline_8cpp.html" target="_top" xlink:title=" ">
<polygon fill="white" stroke="#666666" points="904.12,-91.38 773.38,-91.38 773.38,-60.88 904.12,-60.88 904.12,-91.38"/>
<text text-anchor="start" x="781.38" y="-77.88" font-family="Helvetica,sans-Serif" font-size="10.00">engine/direct3d11/deferred</text>
<text text-anchor="middle" x="838.75" y="-66.62" font-family="Helvetica,sans-Serif" font-size="10.00">&#45;hdr&#45;render&#45;pipeline.cpp</text>
</a>
</g>
</g>
<!-- Node3&#45;&gt;Node14 -->
<g id="edge17_Node000003_Node000014" class="edge">
<title>Node3&#45;&gt;Node14</title>
<g id="a_edge17_Node000003_Node000014"><a xlink:title=" ">
<path fill="none" stroke="#63b8ff" d="M838.75,-121.89C838.75,-112.08 838.75,-100.42 838.75,-91.47"/>
<polygon fill="#63b8ff" stroke="#63b8ff" points="835.25,-121.66 838.75,-131.66 842.25,-121.66 835.25,-121.66"/>
</a>
</g>
</g>
<!-- Node15 -->
<g id="Node000015" class="node">
<title>Node15</title>
<g id="a_Node000015"><a xlink:href="../../d8/d30/decal-render-system_8cpp.html" target="_top" xlink:title=" ">
<polygon fill="white" stroke="#666666" points="1073.25,-91.38 922.25,-91.38 922.25,-60.88 1073.25,-60.88 1073.25,-91.38"/>
<text text-anchor="start" x="930.25" y="-77.88" font-family="Helvetica,sans-Serif" font-size="10.00">engine/subsystems/render</text>
<text text-anchor="middle" x="997.75" y="-66.62" font-family="Helvetica,sans-Serif" font-size="10.00">/detail/decal&#45;render&#45;system.cpp</text>
</a>
</g>
</g>
<!-- Node3&#45;&gt;Node15 -->
<g id="edge18_Node000003_Node000015" class="edge">
<title>Node3&#45;&gt;Node15</title>
<g id="a_edge18_Node000003_Node000015"><a xlink:title=" ">
<path fill="none" stroke="#63b8ff" d="M871.04,-128.53C897.32,-117.87 934.38,-102.83 961.64,-91.77"/>
<polygon fill="#63b8ff" stroke="#63b8ff" points="870.14,-125.52 862.19,-132.52 872.78,-132 870.14,-125.52"/>
</a>
</g>
</g>
<!-- Node16 -->
<g id="Node000016" class="node">
<title>Node16</title>
<g id="a_Node000016"><a xlink:href="../../d1/d58/dissolution-render-system_8cpp.html" target="_top" xlink:title=" ">
<polygon fill="white" stroke="#666666" points="1221.75,-97 1091.75,-97 1091.75,-55.25 1221.75,-55.25 1221.75,-97"/>
<text text-anchor="start" x="1099.75" y="-83.5" font-family="Helvetica,sans-Serif" font-size="10.00">engine/subsystems/render</text>
<text text-anchor="start" x="1099.75" y="-72.25" font-family="Helvetica,sans-Serif" font-size="10.00">/detail/dissolution&#45;render</text>
<text text-anchor="middle" x="1156.75" y="-61" font-family="Helvetica,sans-Serif" font-size="10.00">&#45;system.cpp</text>
</a>
</g>
</g>
<!-- Node3&#45;&gt;Node16 -->
<g id="edge19_Node000003_Node000016" class="edge">
<title>Node3&#45;&gt;Node16</title>
<g id="a_edge19_Node000003_Node000016"><a xlink:title=" ">
<path fill="none" stroke="#63b8ff" d="M906.53,-130.75C955.66,-122.5 1023.58,-110.33 1082.75,-97 1085.6,-96.36 1088.52,-95.68 1091.45,-94.97"/>
<polygon fill="#63b8ff" stroke="#63b8ff" points="906,-127.46 896.71,-132.56 907.15,-134.36 906,-127.46"/>
</a>
</g>
</g>
<!-- Node17 -->
<g id="Node000017" class="node">
<title>Node17</title>
<g id="a_Node000017"><a xlink:href="../../d2/d11/emissive-particle-render-system_8cpp.html" target="_top" xlink:title=" ">
<polygon fill="white" stroke="#666666" points="1369.75,-97 1239.75,-97 1239.75,-55.25 1369.75,-55.25 1369.75,-97"/>
<text text-anchor="start" x="1247.75" y="-83.5" font-family="Helvetica,sans-Serif" font-size="10.00">engine/subsystems/render</text>
<text text-anchor="start" x="1247.75" y="-72.25" font-family="Helvetica,sans-Serif" font-size="10.00">/detail/emissive&#45;particle</text>
<text text-anchor="middle" x="1304.75" y="-61" font-family="Helvetica,sans-Serif" font-size="10.00">&#45;render&#45;system.cpp</text>
</a>
</g>
</g>
<!-- Node3&#45;&gt;Node17 -->
<g id="edge20_Node000003_Node000017" class="edge">
<title>Node3&#45;&gt;Node17</title>
<g id="a_edge20_Node000003_Node000017"><a xlink:title=" ">
<path fill="none" stroke="#63b8ff" d="M907.68,-136.9C986.34,-130.79 1118.6,-118.32 1230.75,-97 1233.63,-96.45 1236.55,-95.85 1239.5,-95.21"/>
<polygon fill="#63b8ff" stroke="#63b8ff" points="907.65,-133.47 897.94,-137.72 908.18,-140.45 907.65,-133.47"/>
</a>
</g>
</g>
<!-- Node18 -->
<g id="Node000018" class="node">
<title>Node18</title>
<g id="a_Node000018"><a xlink:href="../../df/d58/grass-render-system_8cpp.html" target="_top" xlink:title=" ">
<polygon fill="white" stroke="#666666" points="1539.62,-91.38 1387.88,-91.38 1387.88,-60.88 1539.62,-60.88 1539.62,-91.38"/>
<text text-anchor="start" x="1395.88" y="-77.88" font-family="Helvetica,sans-Serif" font-size="10.00">engine/subsystems/render</text>
<text text-anchor="middle" x="1463.75" y="-66.62" font-family="Helvetica,sans-Serif" font-size="10.00">/detail/grass&#45;render&#45;system.cpp</text>
</a>
</g>
</g>
<!-- Node3&#45;&gt;Node18 -->
<g id="edge21_Node000003_Node000018" class="edge">
<title>Node3&#45;&gt;Node18</title>
<g id="a_edge21_Node000003_Node000018"><a xlink:title=" ">
<path fill="none" stroke="#63b8ff" d="M907.9,-139.17C1010.99,-134.77 1210.86,-123.42 1378.75,-97 1387.58,-95.61 1396.86,-93.81 1405.91,-91.85"/>
<polygon fill="#63b8ff" stroke="#63b8ff" points="907.87,-135.71 898.02,-139.62 908.16,-142.7 907.87,-135.71"/>
</a>
</g>
</g>
<!-- Node19 -->
<g id="Node000019" class="node">
<title>Node19</title>
<g id="a_Node000019"><a xlink:href="../../d8/d9c/light-render-system_8cpp.html" target="_top" xlink:title=" ">
<polygon fill="white" stroke="#666666" points="1703.62,-91.38 1557.88,-91.38 1557.88,-60.88 1703.62,-60.88 1703.62,-91.38"/>
<text text-anchor="start" x="1565.88" y="-77.88" font-family="Helvetica,sans-Serif" font-size="10.00">engine/subsystems/render</text>
<text text-anchor="middle" x="1630.75" y="-66.62" font-family="Helvetica,sans-Serif" font-size="10.00">/detail/light&#45;render&#45;system.cpp</text>
</a>
</g>
</g>
<!-- Node3&#45;&gt;Node19 -->
<g id="edge22_Node000003_Node000019" class="edge">
<title>Node3&#45;&gt;Node19</title>
<g id="a_edge22_Node000003_Node000019"><a xlink:title=" ">
<path fill="none" stroke="#63b8ff" d="M907.84,-141.28C1035.27,-139.77 1315.59,-132.31 1548.75,-97 1557.58,-95.66 1566.86,-93.83 1575.88,-91.82"/>
<polygon fill="#63b8ff" stroke="#63b8ff" points="908.06,-137.79 898.1,-141.4 908.13,-144.79 908.06,-137.79"/>
</a>
</g>
</g>
<!-- Node20 -->
<g id="Node000020" class="node">
<title>Node20</title>
<g id="a_Node000020"><a xlink:href="../../d3/dfe/particle-render-system_8cpp.html" target="_top" xlink:title=" ">
<polygon fill="white" stroke="#666666" points="1851.75,-97 1721.75,-97 1721.75,-55.25 1851.75,-55.25 1851.75,-97"/>
<text text-anchor="start" x="1729.75" y="-83.5" font-family="Helvetica,sans-Serif" font-size="10.00">engine/subsystems/render</text>
<text text-anchor="start" x="1729.75" y="-72.25" font-family="Helvetica,sans-Serif" font-size="10.00">/detail/particle&#45;render</text>
<text text-anchor="middle" x="1786.75" y="-61" font-family="Helvetica,sans-Serif" font-size="10.00">&#45;system.cpp</text>
</a>
</g>
</g>
<!-- Node3&#45;&gt;Node20 -->
<g id="edge23_Node000003_Node000020" class="edge">
<title>Node3&#45;&gt;Node20</title>
<g id="a_edge23_Node000003_Node000020"><a xlink:title=" ">
<path fill="none" stroke="#63b8ff" d="M907.9,-139.98C1086.16,-135.44 1558.13,-121.43 1712.75,-97 1715.64,-96.54 1718.58,-96.02 1721.54,-95.44"/>
<polygon fill="#63b8ff" stroke="#63b8ff" points="908,-136.5 898.1,-140.25 908.18,-143.5 908,-136.5"/>
</a>
</g>
</g>
<!-- Node5 -->
<g id="Node000005" class="node">
<title>Node5</title>
<g id="a_Node000005"><a xlink:href="../../d5/dbb/camera-movement_8cpp.html" target="_top" xlink:title=" ">
<polygon fill="white" stroke="#666666" points="155.5,-19.25 0,-19.25 0,0 155.5,0 155.5,-19.25"/>
<text text-anchor="middle" x="77.75" y="-5.75" font-family="Helvetica,sans-Serif" font-size="10.00">d3d_test/camera&#45;movement.cpp</text>
</a>
</g>
</g>
<!-- Node4&#45;&gt;Node5 -->
<g id="edge4_Node000004_Node000005" class="edge">
<title>Node4&#45;&gt;Node5</title>
<g id="a_edge4_Node000004_Node000005"><a xlink:title=" ">
<path fill="none" stroke="#63b8ff" d="M77.75,-55.4C77.75,-43.43 77.75,-28.73 77.75,-19.52"/>
<polygon fill="#63b8ff" stroke="#63b8ff" points="74.25,-55.16 77.75,-65.16 81.25,-55.16 74.25,-55.16"/>
</a>
</g>
</g>
<!-- Node6 -->
<g id="Node000006" class="node">
<title>Node6</title>
<g id="a_Node000006"><a xlink:href="../../d1/d47/controller_8cpp.html" target="_top" xlink:title=" ">
<polygon fill="white" stroke="#666666" points="306.88,-19.25 192.62,-19.25 192.62,0 306.88,0 306.88,-19.25"/>
<text text-anchor="middle" x="249.75" y="-5.75" font-family="Helvetica,sans-Serif" font-size="10.00">d3d_test/controller.cpp</text>
</a>
</g>
</g>
<!-- Node4&#45;&gt;Node6 -->
<g id="edge5_Node000004_Node000006" class="edge">
<title>Node4&#45;&gt;Node6</title>
<g id="a_edge5_Node000004_Node000006"><a xlink:title=" ">
<path fill="none" stroke="#63b8ff" d="M112.31,-62.17C145.91,-49.57 196.07,-30.75 225.59,-19.68"/>
<polygon fill="#63b8ff" stroke="#63b8ff" points="111.16,-59.23 103.03,-66.02 113.62,-65.79 111.16,-59.23"/>
</a>
</g>
</g>
<!-- Node7&#45;&gt;Node6 -->
<g id="edge7_Node000007_Node000006" class="edge">
<title>Node7&#45;&gt;Node6</title>
<g id="a_edge7_Node000007_Node000006"><a xlink:title=" ">
<path fill="none" stroke="#63b8ff" d="M352.41,-61.17C326.86,-48.59 290.05,-30.47 268.15,-19.68"/>
<polygon fill="#63b8ff" stroke="#63b8ff" points="350.74,-64.74 361.26,-66.02 353.83,-58.46 350.74,-64.74"/>
</a>
</g>
</g>
<!-- Node7&#45;&gt;Node8 -->
<g id="edge8_Node000007_Node000008" class="edge">
<title>Node7&#45;&gt;Node8</title>
<g id="a_edge8_Node000007_Node000008"><a xlink:title=" ">
<path fill="none" stroke="#63b8ff" d="M384.42,-55.4C386.65,-43.43 389.38,-28.73 391.1,-19.52"/>
<polygon fill="#63b8ff" stroke="#63b8ff" points="380.81,-54.69 382.42,-65.16 387.69,-55.97 380.81,-54.69"/>
</a>
</g>
</g>
<!-- Node9&#45;&gt;Node6 -->
<g id="edge11_Node000009_Node000006" class="edge">
<title>Node9&#45;&gt;Node6</title>
<g id="a_edge11_Node000009_Node000006"><a xlink:title=" ">
<path fill="none" stroke="#63b8ff" d="M503.88,-63.84C443.94,-51.29 348.27,-31.26 293,-19.68"/>
<polygon fill="#63b8ff" stroke="#63b8ff" points="502.77,-67.4 513.27,-66.02 504.2,-60.55 502.77,-67.4"/>
</a>
</g>
</g>
<!-- Node10 -->
<g id="Node000010" class="node">
<title>Node10</title>
<g id="a_Node000010"><a xlink:href="../../d4/d94/object-editor_8cpp.html" target="_top" xlink:title=" ">
<polygon fill="white" stroke="#666666" points="757.62,-19.25 629.88,-19.25 629.88,0 757.62,0 757.62,-19.25"/>
<text text-anchor="middle" x="693.75" y="-5.75" font-family="Helvetica,sans-Serif" font-size="10.00">d3d_test/object&#45;editor.cpp</text>
</a>
</g>
</g>
<!-- Node9&#45;&gt;Node10 -->
<g id="edge12_Node000009_Node000010" class="edge">
<title>Node9&#45;&gt;Node10</title>
<g id="a_edge12_Node000009_Node000010"><a xlink:title=" ">
<path fill="none" stroke="#63b8ff" d="M586.82,-61.34C613.35,-48.75 651.81,-30.51 674.65,-19.68"/>
<polygon fill="#63b8ff" stroke="#63b8ff" points="585.48,-58.57 577.95,-66.02 588.48,-64.9 585.48,-58.57"/>
</a>
</g>
</g>
<!-- Node11 -->
<g id="Node000011" class="node">
<title>Node11</title>
<g id="a_Node000011"><a xlink:href="../../d0/d38/scene-viewer_8cpp.html" target="_top" xlink:title=" ">
<polygon fill="white" stroke="#666666" points="611.88,-19.25 479.62,-19.25 479.62,0 611.88,0 611.88,-19.25"/>
<text text-anchor="middle" x="545.75" y="-5.75" font-family="Helvetica,sans-Serif" font-size="10.00">d3d_test/scene&#45;viewer.cpp</text>
</a>
</g>
</g>
<!-- Node9&#45;&gt;Node11 -->
<g id="edge13_Node000009_Node000011" class="edge">
<title>Node9&#45;&gt;Node11</title>
<g id="a_edge13_Node000009_Node000011"><a xlink:title=" ">
<path fill="none" stroke="#63b8ff" d="M554.08,-55.4C551.85,-43.43 549.12,-28.73 547.4,-19.52"/>
<polygon fill="#63b8ff" stroke="#63b8ff" points="550.81,-55.97 556.08,-65.16 557.69,-54.69 550.81,-55.97"/>
</a>
</g>
</g>
<!-- Node12&#45;&gt;Node6 -->
<g id="edge15_Node000012_Node000006" class="edge">
<title>Node12&#45;&gt;Node6</title>
<g id="a_edge15_Node000012_Node000006"><a xlink:title=" ">
<path fill="none" stroke="#63b8ff" d="M242.81,-55.4C244.66,-43.43 246.94,-28.73 248.37,-19.52"/>
<polygon fill="#63b8ff" stroke="#63b8ff" points="239.21,-54.74 241.14,-65.16 246.13,-55.81 239.21,-54.74"/>
</a>
</g>
</g>
<!-- Node22&#45;&gt;Node1 -->
<g id="edge26_Node000022_Node000001" class="edge">
<title>Node22&#45;&gt;Node1</title>
<g id="a_edge26_Node000022_Node000001"><a xlink:title=" ">
<path fill="none" stroke="#63b8ff" d="M1109.01,-226.44C1099.03,-235.65 1086.8,-246.12 1076.3,-254.36"/>
<polygon fill="#63b8ff" stroke="#63b8ff" points="1110.93,-229.5 1115.78,-220.08 1106.11,-224.42 1110.93,-229.5"/>
</a>
</g>
</g>
</g>
</svg>

<g id="navigator" transform="translate(0 0)" fill="#404254">
  <rect fill="#f2f5e9" fill-opacity="0.5" stroke="#606060" stroke-width=".5" x="0" y="0" width="60" height="60"/>
  <use id="zoomplus" xlink:href="#zoomPlus" x="17" y="9" onmousedown="handleZoom(evt,'in')"/>
  <use id="zoomminus" xlink:href="#zoomMin" x="42" y="9" onmousedown="handleZoom(evt,'out')"/>
  <use id="reset" xlink:href="#resetDef" x="30" y="36" onmousedown="handleReset()"/>
   <use id="arrowup" xlink:href="#arrowUp" x="0" y="0" onmousedown="handlePan(0,-1)"/>
  <use id="arrowright" xlink:href="#arrowRight" x="0" y="0" onmousedown="handlePan(1,0)"/>
  <use id="arrowdown" xlink:href="#arrowDown" x="0" y="0" onmousedown="handlePan(0,1)"/>
  <use id="arrowleft" xlink:href="#arrowLeft" x="0" y="0" onmousedown="handlePan(-1,0)"/>
</g>
<svg viewBox="0 0 15 15" width="100%" height="30px" preserveAspectRatio="xMaxYMin meet">
 <g id="arrow_out" transform="scale(0.3 0.3)">
  <a xlink:href="layer-stack-threadsafe_8hpp__dep__incl_org.svg" target="_base">
   <rect id="button" ry="5" rx="5" y="6" x="6" height="38" width="38"
        fill="#f2f5e9" fill-opacity="0.5" stroke="#606060" stroke-width="1.0"/>
   <path id="arrow"
     d="M 11.500037,31.436501 C 11.940474,20.09759 22.043105,11.32322 32.158766,21.979434 L 37.068811,17.246167 C 37.068811,17.246167 37.088388,32 37.088388,32 L 22.160133,31.978069 C 22.160133,31.978069 26.997745,27.140456 26.997745,27.140456 C 18.528582,18.264221 13.291696,25.230495 11.500037,31.436501 z"
     style="fill:#404040;"/>
  </a>
 </g>
</svg>

<style type='text/css'>
<![CDATA[
[data-mouse-over-selected='false'] { opacity: 0.7; }
[data-mouse-over-selected='true']  { opacity: 1.0; }
]]>
</style>
<script type="application/ecmascript"><![CDATA[
document.addEventListener('DOMContentLoaded', (event) => {
  highlightEdges();
  highlightAdjacentNodes();
});
]]></script>
</svg>
