<?xml version="1.0" encoding="UTF-8" standalone="no"?>
<!DOCTYPE svg PUBLIC "-//W3C//DTD SVG 1.1//EN"
 "http://www.w3.org/Graphics/SVG/1.1/DTD/svg11.dtd">
<!-- Generated by graphviz version 8.1.0 (20230707.0739)
 -->
<!-- Title: engine::core::ImGuiLayer Pages: 1 -->
<svg width="900pt" height="123pt"
 viewBox="0.00 0.00 899.50 122.88" xmlns="http://www.w3.org/2000/svg" xmlns:xlink="http://www.w3.org/1999/xlink">
<g id="graph0" class="graph" transform="scale(1 1) rotate(0) translate(4 118.88)">
<title>engine::core::ImGuiLayer</title>
<!-- Node1 -->
<g id="Node000001" class="node">
<title>Node1</title>
<g id="a_Node000001"><a xlink:title=" ">
<polygon fill="#999999" stroke="#666666" points="891.5,-81.88 769,-81.88 769,-62.62 891.5,-62.62 891.5,-81.88"/>
<text text-anchor="middle" x="830.25" y="-68.38" font-family="Helvetica,sans-Serif" font-size="10.00">engine::core::ImGuiLayer</text>
</a>
</g>
</g>
<!-- Node2 -->
<g id="Node000002" class="node">
<title>Node2</title>
<g id="a_Node000002"><a xlink:href="../../d0/d04/classengine_1_1core_1_1_layer.html" target="_top" xlink:title=" ">
<polygon fill="white" stroke="#666666" points="382.75,-114.88 286.5,-114.88 286.5,-95.62 382.75,-95.62 382.75,-114.88"/>
<text text-anchor="middle" x="334.62" y="-101.38" font-family="Helvetica,sans-Serif" font-size="10.00">engine::core::Layer</text>
</a>
</g>
</g>
<!-- Node2&#45;&gt;Node1 -->
<g id="edge1_Node000001_Node000002" class="edge">
<title>Node2&#45;&gt;Node1</title>
<g id="a_edge1_Node000001_Node000002"><a xlink:title=" ">
<path fill="none" stroke="#63b8ff" d="M393.97,-106.05C464.75,-106.5 587.61,-105.6 692.5,-96.25 718.7,-93.91 725.08,-91.73 751,-87.25 759.72,-85.74 768.98,-84.05 777.95,-82.36"/>
<polygon fill="#63b8ff" stroke="#63b8ff" points="394.1,-102.55 384.07,-105.97 394.04,-109.55 394.1,-102.55"/>
</a>
</g>
</g>
<!-- Node7 -->
<g id="Node000007" class="node">
<title>Node7</title>
<g id="a_Node000007"><a xlink:href="../../dd/d52/classengine_1_1core_1_1_window.html" target="_top" xlink:title=" ">
<polygon fill="white" stroke="#666666" points="526.5,-77.88 419.75,-77.88 419.75,-58.62 526.5,-58.62 526.5,-77.88"/>
<text text-anchor="middle" x="473.12" y="-64.38" font-family="Helvetica,sans-Serif" font-size="10.00">engine::core::Window</text>
</a>
</g>
</g>
<!-- Node2&#45;&gt;Node7 -->
<g id="edge7_Node000007_Node000002" class="edge">
<title>Node2&#45;&gt;Node7</title>
<g id="a_edge7_Node000007_Node000002"><a xlink:title=" ">
<path fill="none" stroke="#63b8ff" d="M383.18,-92.36C400.12,-87.77 418.93,-82.67 434.87,-78.35"/>
<polygon fill="#63b8ff" stroke="#63b8ff" points="382.66,-89.15 373.92,-95.14 384.49,-95.9 382.66,-89.15"/>
</a>
</g>
</g>
<!-- Node3 -->
<g id="Node000003" class="node">
<title>Node3</title>
<g id="a_Node000003"><a xlink:title=" ">
<polygon fill="white" stroke="#666666" points="187.5,-91.88 129.5,-91.88 129.5,-72.62 187.5,-72.62 187.5,-91.88"/>
<text text-anchor="middle" x="158.5" y="-78.38" font-family="Helvetica,sans-Serif" font-size="10.00">std::string</text>
</a>
</g>
</g>
<!-- Node3&#45;&gt;Node2 -->
<g id="edge2_Node000002_Node000003" class="edge">
<title>Node3&#45;&gt;Node2</title>
<g id="a_edge2_Node000002_Node000003"><a xlink:title=" ">
<path fill="none" stroke="#9a32cd" stroke-dasharray="5,2" d="M198.44,-87.39C224.39,-90.82 258.67,-95.35 286.22,-98.99"/>
<polygon fill="#9a32cd" stroke="#9a32cd" points="199.24,-83.84 188.86,-86 198.32,-90.78 199.24,-83.84"/>
</a>
</g>
<text text-anchor="middle" x="237" y="-98" font-family="Helvetica,sans-Serif" font-size="10.00" fill="grey"> debug_name_</text>
</g>
<!-- Node3&#45;&gt;Node7 -->
<g id="edge9_Node000007_Node000003" class="edge">
<title>Node3&#45;&gt;Node7</title>
<g id="a_edge9_Node000007_Node000003"><a xlink:title=" ">
<path fill="none" stroke="#9a32cd" stroke-dasharray="5,2" d="M198.9,-79.79C223.97,-78.28 257.13,-76.37 286.5,-75 331.28,-72.91 382.15,-71.1 419.31,-69.88"/>
<polygon fill="#9a32cd" stroke="#9a32cd" points="198.76,-76.35 188.99,-80.45 199.18,-83.34 198.76,-76.35"/>
</a>
</g>
<text text-anchor="middle" x="334.62" y="-77" font-family="Helvetica,sans-Serif" font-size="10.00" fill="grey"> title_</text>
</g>
<!-- Node4 -->
<g id="Node000004" class="node">
<title>Node4</title>
<g id="a_Node000004"><a xlink:title=" ">
<polygon fill="white" stroke="#666666" points="92.5,-97.5 0,-97.5 0,-67 92.5,-67 92.5,-97.5"/>
<text text-anchor="start" x="8" y="-84" font-family="Helvetica,sans-Serif" font-size="10.00">std::basic_string&lt;</text>
<text text-anchor="middle" x="46.25" y="-72.75" font-family="Helvetica,sans-Serif" font-size="10.00"> Char &gt;</text>
</a>
</g>
</g>
<!-- Node4&#45;&gt;Node3 -->
<g id="edge3_Node000003_Node000004" class="edge">
<title>Node4&#45;&gt;Node3</title>
<g id="a_edge3_Node000003_Node000004"><a xlink:title=" ">
<path fill="none" stroke="#63b8ff" d="M103.53,-82.25C112.42,-82.25 121.28,-82.25 129.16,-82.25"/>
<polygon fill="#63b8ff" stroke="#63b8ff" points="103.73,-78.75 93.73,-82.25 103.73,-85.75 103.73,-78.75"/>
</a>
</g>
</g>
<!-- Node5 -->
<g id="Node000005" class="node">
<title>Node5</title>
<g id="a_Node000005"><a xlink:href="../../dd/dd4/structengine_1_1core_1_1_layer_1_1_handle_event.html" target="_top" xlink:title=" ">
<polygon fill="white" stroke="#666666" points="682.38,-38.5 586.12,-38.5 586.12,-8 682.38,-8 682.38,-38.5"/>
<text text-anchor="start" x="594.12" y="-25" font-family="Helvetica,sans-Serif" font-size="10.00">engine::core::Layer</text>
<text text-anchor="middle" x="634.25" y="-13.75" font-family="Helvetica,sans-Serif" font-size="10.00">::HandleEvent</text>
</a>
</g>
</g>
<!-- Node5&#45;&gt;Node1 -->
<g id="edge4_Node000001_Node000005" class="edge">
<title>Node5&#45;&gt;Node1</title>
<g id="a_edge4_Node000001_Node000005"><a xlink:title=" ">
<path fill="none" stroke="#63b8ff" d="M692.98,-37.83C724.08,-45.69 761.66,-55.18 789.48,-62.2"/>
<polygon fill="#63b8ff" stroke="#63b8ff" points="694.26,-34.29 683.71,-35.24 692.55,-41.08 694.26,-34.29"/>
</a>
</g>
</g>
<!-- Node6 -->
<g id="Node000006" class="node">
<title>Node6</title>
<g id="a_Node000006"><a xlink:title=" ">
<polygon fill="white" stroke="#666666" points="692.5,-87.5 576,-87.5 576,-57 692.5,-57 692.5,-87.5"/>
<text text-anchor="start" x="584" y="-74" font-family="Helvetica,sans-Serif" font-size="10.00">std::shared_ptr&lt; engine</text>
<text text-anchor="middle" x="634.25" y="-62.75" font-family="Helvetica,sans-Serif" font-size="10.00">::core::Window &gt;</text>
</a>
</g>
</g>
<!-- Node6&#45;&gt;Node1 -->
<g id="edge5_Node000001_Node000006" class="edge">
<title>Node6&#45;&gt;Node1</title>
<g id="a_edge5_Node000001_Node000006"><a xlink:title=" ">
<path fill="none" stroke="#9a32cd" stroke-dasharray="5,2" d="M703.8,-72.25C724.99,-72.25 748.16,-72.25 768.76,-72.25"/>
<polygon fill="#9a32cd" stroke="#9a32cd" points="703.93,-68.75 693.93,-72.25 703.93,-75.75 703.93,-68.75"/>
</a>
</g>
<text text-anchor="middle" x="730.75" y="-74" font-family="Helvetica,sans-Serif" font-size="10.00" fill="grey"> window_</text>
</g>
<!-- Node7&#45;&gt;Node6 -->
<g id="edge6_Node000006_Node000007" class="edge">
<title>Node7&#45;&gt;Node6</title>
<g id="a_edge6_Node000006_Node000007"><a xlink:title=" ">
<path fill="none" stroke="#9a32cd" stroke-dasharray="5,2" d="M537.52,-69.84C550.08,-70.16 563.2,-70.49 575.55,-70.8"/>
<polygon fill="#9a32cd" stroke="#9a32cd" points="537.75,-66.32 527.67,-69.57 537.58,-73.32 537.75,-66.32"/>
</a>
</g>
<text text-anchor="middle" x="551.25" y="-72" font-family="Helvetica,sans-Serif" font-size="10.00" fill="grey"> ptr</text>
</g>
<!-- Node8 -->
<g id="Node000008" class="node">
<title>Node8</title>
<g id="a_Node000008"><a xlink:href="../../d5/d41/structengine_1_1core_1_1_layer_1_1_handle_update.html" target="_top" xlink:title=" ">
<polygon fill="white" stroke="#666666" points="382.75,-30.5 286.5,-30.5 286.5,0 382.75,0 382.75,-30.5"/>
<text text-anchor="start" x="294.5" y="-17" font-family="Helvetica,sans-Serif" font-size="10.00">engine::core::Layer</text>
<text text-anchor="middle" x="334.62" y="-5.75" font-family="Helvetica,sans-Serif" font-size="10.00">::HandleUpdate</text>
</a>
</g>
</g>
<!-- Node8&#45;&gt;Node7 -->
<g id="edge8_Node000007_Node000008" class="edge">
<title>Node8&#45;&gt;Node7</title>
<g id="a_edge8_Node000007_Node000008"><a xlink:title=" ">
<path fill="none" stroke="#63b8ff" d="M386.01,-34.81C406.53,-42.78 429.38,-51.65 446.38,-58.25"/>
<polygon fill="#63b8ff" stroke="#63b8ff" points="387.43,-31.22 376.84,-30.87 384.9,-37.75 387.43,-31.22"/>
</a>
</g>
</g>
</g>
</svg>
