<?xml version="1.0" encoding="UTF-8" standalone="no"?>
<!DOCTYPE svg PUBLIC "-//W3C//DTD SVG 1.1//EN"
 "http://www.w3.org/Graphics/SVG/1.1/DTD/svg11.dtd">
<!-- Generated by graphviz version 9.0.0 (20230911.1827)
 -->
<!-- Title: engine::core::ImGuiLayer Pages: 1 -->
<svg width="900pt" height="123pt"
 viewBox="0.00 0.00 899.50 122.88" xmlns="http://www.w3.org/2000/svg" xmlns:xlink="http://www.w3.org/1999/xlink">
<g id="graph0" class="graph" transform="scale(1 1) rotate(0) translate(4 118.88)">
<title>engine::core::ImGuiLayer</title>
<!-- Node1 -->
<g id="Node000001" class="node">
<title>Node1</title>
<g id="a_Node000001"><a xlink:title=" ">
<polygon fill="#999999" stroke="#666666" points="891.5,-81.88 769,-81.88 769,-62.62 891.5,-62.62 891.5,-81.88"/>
<text text-anchor="middle" x="830.25" y="-68.38" font-family="Helvetica,sans-Serif" font-size="10.00">engine::core::ImGuiLayer</text>
</a>
</g>
</g>
<!-- Node2 -->
<g id="Node000002" class="node">
<title>Node2</title>
<g id="a_Node000002"><a xlink:href="../../d0/d04/classengine_1_1core_1_1_layer.html" target="_top" xlink:title=" ">
<polygon fill="white" stroke="#666666" points="382.75,-114.88 286.5,-114.88 286.5,-95.62 382.75,-95.62 382.75,-114.88"/>
<text text-anchor="middle" x="334.62" y="-101.38" font-family="Helvetica,sans-Serif" font-size="10.00">engine::core::Layer</text>
</a>
</g>
</g>
<!-- Node2&#45;&gt;Node1 -->
<g id="edge1_Node000001_Node000002" class="edge">
<title>Node2&#45;&gt;Node1</title>
<g id="a_edge1_Node000001_Node000002"><a xlink:title=" ">
<path fill="none" stroke="#63b8ff" d="M394.41,-106.06C465.25,-106.5 587.83,-105.58 692.5,-96.25 718.7,-93.91 725.08,-91.73 751,-87.25 759.72,-85.74 768.98,-84.05 777.95,-82.36"/>
<polygon fill="#63b8ff" stroke="#63b8ff" points="394.61,-102.56 384.58,-105.98 394.56,-109.56 394.61,-102.56"/>
</a>
</g>
</g>
<!-- Node7 -->
<g id="Node000007" class="node">
<title>Node7</title>
<g id="a_Node000007"><a xlink:href="../../dd/d52/classengine_1_1core_1_1_window.html" target="_top" xlink:title=" ">
<polygon fill="white" stroke="#666666" points="526.5,-77.88 419.75,-77.88 419.75,-58.62 526.5,-58.62 526.5,-77.88"/>
<text text-anchor="middle" x="473.12" y="-64.38" font-family="Helvetica,sans-Serif" font-size="10.00">engine::core::Window</text>
</a>
</g>
</g>
<!-- Node2&#45;&gt;Node7 -->
<g id="edge7_Node000007_Node000002" class="edge">
<title>Node2&#45;&gt;Node7</title>
<g id="a_edge7_Node000007_Node000002"><a xlink:title=" ">
<path fill="none" stroke="#63b8ff" d="M383.66,-92.23C400.47,-87.67 419.08,-82.63 434.87,-78.35"/>
<polygon fill="#63b8ff" stroke="#63b8ff" points="383.12,-88.75 374.39,-94.74 384.95,-95.51 383.12,-88.75"/>
</a>
</g>
</g>
<!-- Node3 -->
<g id="Node000003" class="node">
<title>Node3</title>
<g id="a_Node000003"><a xlink:title=" ">
<polygon fill="white" stroke="#666666" points="187.5,-91.88 129.5,-91.88 129.5,-72.62 187.5,-72.62 187.5,-91.88"/>
<text text-anchor="middle" x="158.5" y="-78.38" font-family="Helvetica,sans-Serif" font-size="10.00">std::string</text>
</a>
</g>
</g>
<!-- Node3&#45;&gt;Node2 -->
<g id="edge2_Node000002_Node000003" class="edge">
<title>Node3&#45;&gt;Node2</title>
<g id="a_edge2_Node000002_Node000003"><a xlink:title=" ">
<path fill="none" stroke="#9a32cd" stroke-dasharray="5,2" d="M199.13,-87.49C225.01,-90.9 258.92,-95.38 286.22,-98.99"/>
<polygon fill="#9a32cd" stroke="#9a32cd" points="199.74,-84.03 189.36,-86.19 198.82,-90.97 199.74,-84.03"/>
</a>
</g>
<text text-anchor="middle" x="237" y="-98" font-family="Helvetica,sans-Serif" font-size="10.00" fill="grey"> debug_name_</text>
</g>
<!-- Node3&#45;&gt;Node7 -->
<g id="edge9_Node000007_Node000003" class="edge">
<title>Node3&#45;&gt;Node7</title>
<g id="a_edge9_Node000007_Node000003"><a xlink:title=" ">
<path fill="none" stroke="#9a32cd" stroke-dasharray="5,2" d="M199.24,-79.77C224.27,-78.26 257.27,-76.37 286.5,-75 331.28,-72.91 382.15,-71.1 419.31,-69.88"/>
<polygon fill="#9a32cd" stroke="#9a32cd" points="199.27,-76.26 189.5,-80.36 199.69,-83.25 199.27,-76.26"/>
</a>
</g>
<text text-anchor="middle" x="334.62" y="-77" font-family="Helvetica,sans-Serif" font-size="10.00" fill="grey"> title_</text>
</g>
<!-- Node4 -->
<g id="Node000004" class="node">
<title>Node4</title>
<g id="a_Node000004"><a xlink:title=" ">
<polygon fill="white" stroke="#666666" points="92.5,-97.5 0,-97.5 0,-67 92.5,-67 92.5,-97.5"/>
<text text-anchor="start" x="8" y="-84" font-family="Helvetica,sans-Serif" font-size="10.00">std::basic_string&lt;</text>
<text text-anchor="middle" x="46.25" y="-72.75" font-family="Helvetica,sans-Serif" font-size="10.00"> Char &gt;</text>
</a>
</g>
</g>
<!-- Node4&#45;&gt;Node3 -->
<g id="edge3_Node000003_Node000004" class="edge">
<title>Node4&#45;&gt;Node3</title>
<g id="a_edge3_Node000003_Node000004"><a xlink:title=" ">
<path fill="none" stroke="#63b8ff" d="M104.12,-82.25C112.81,-82.25 121.45,-82.25 129.16,-82.25"/>
<polygon fill="#63b8ff" stroke="#63b8ff" points="104.24,-78.75 94.24,-82.25 104.24,-85.75 104.24,-78.75"/>
</a>
</g>
</g>
<!-- Node5 -->
<g id="Node000005" class="node">
<title>Node5</title>
<g id="a_Node000005"><a xlink:href="../../dd/dd4/structengine_1_1core_1_1_layer_1_1_handle_event.html" target="_top" xlink:title=" ">
<polygon fill="white" stroke="#666666" points="682.38,-38.5 586.12,-38.5 586.12,-8 682.38,-8 682.38,-38.5"/>
<text text-anchor="start" x="594.12" y="-25" font-family="Helvetica,sans-Serif" font-size="10.00">engine::core::Layer</text>
<text text-anchor="middle" x="634.25" y="-13.75" font-family="Helvetica,sans-Serif" font-size="10.00">::HandleEvent</text>
</a>
</g>
</g>
<!-- Node5&#45;&gt;Node1 -->
<g id="edge4_Node000001_Node000005" class="edge">
<title>Node5&#45;&gt;Node1</title>
<g id="a_edge4_Node000001_Node000005"><a xlink:title=" ">
<path fill="none" stroke="#63b8ff" d="M693.8,-38.04C724.74,-45.85 761.91,-55.24 789.48,-62.2"/>
<polygon fill="#63b8ff" stroke="#63b8ff" points="694.73,-34.66 684.18,-35.61 693.01,-41.45 694.73,-34.66"/>
</a>
</g>
</g>
<!-- Node6 -->
<g id="Node000006" class="node">
<title>Node6</title>
<g id="a_Node000006"><a xlink:title=" ">
<polygon fill="white" stroke="#666666" points="692.5,-87.5 576,-87.5 576,-57 692.5,-57 692.5,-87.5"/>
<text text-anchor="start" x="584" y="-74" font-family="Helvetica,sans-Serif" font-size="10.00">std::shared_ptr&lt; engine</text>
<text text-anchor="middle" x="634.25" y="-62.75" font-family="Helvetica,sans-Serif" font-size="10.00">::core::Window &gt;</text>
</a>
</g>
</g>
<!-- Node6&#45;&gt;Node1 -->
<g id="edge5_Node000001_Node000006" class="edge">
<title>Node6&#45;&gt;Node1</title>
<g id="a_edge5_Node000001_Node000006"><a xlink:title=" ">
<path fill="none" stroke="#9a32cd" stroke-dasharray="5,2" d="M704.39,-72.25C725.41,-72.25 748.35,-72.25 768.76,-72.25"/>
<polygon fill="#9a32cd" stroke="#9a32cd" points="704.44,-68.75 694.44,-72.25 704.44,-75.75 704.44,-68.75"/>
</a>
</g>
<text text-anchor="middle" x="730.75" y="-74" font-family="Helvetica,sans-Serif" font-size="10.00" fill="grey"> window_</text>
</g>
<!-- Node7&#45;&gt;Node6 -->
<g id="edge6_Node000006_Node000007" class="edge">
<title>Node7&#45;&gt;Node6</title>
<g id="a_edge6_Node000006_Node000007"><a xlink:title=" ">
<path fill="none" stroke="#9a32cd" stroke-dasharray="5,2" d="M537.91,-69.85C550.34,-70.17 563.32,-70.49 575.55,-70.8"/>
<polygon fill="#9a32cd" stroke="#9a32cd" points="538.27,-66.36 528.18,-69.61 538.09,-73.36 538.27,-66.36"/>
</a>
</g>
<text text-anchor="middle" x="551.25" y="-72" font-family="Helvetica,sans-Serif" font-size="10.00" fill="grey"> ptr</text>
</g>
<!-- Node8 -->
<g id="Node000008" class="node">
<title>Node8</title>
<g id="a_Node000008"><a xlink:href="../../d5/d41/structengine_1_1core_1_1_layer_1_1_handle_update.html" target="_top" xlink:title=" ">
<polygon fill="white" stroke="#666666" points="382.75,-30.5 286.5,-30.5 286.5,0 382.75,0 382.75,-30.5"/>
<text text-anchor="start" x="294.5" y="-17" font-family="Helvetica,sans-Serif" font-size="10.00">engine::core::Layer</text>
<text text-anchor="middle" x="334.62" y="-5.75" font-family="Helvetica,sans-Serif" font-size="10.00">::HandleUpdate</text>
</a>
</g>
</g>
<!-- Node8&#45;&gt;Node7 -->
<g id="edge8_Node000007_Node000008" class="edge">
<title>Node8&#45;&gt;Node7</title>
<g id="a_edge8_Node000007_Node000008"><a xlink:title=" ">
<path fill="none" stroke="#63b8ff" d="M386.57,-35.03C406.95,-42.94 429.54,-51.71 446.38,-58.25"/>
<polygon fill="#63b8ff" stroke="#63b8ff" points="387.84,-31.77 377.25,-31.41 385.31,-38.3 387.84,-31.77"/>
</a>
</g>
</g>
</g>
</svg>
