<?xml version="1.0" encoding="UTF-8" standalone="no"?>
<!DOCTYPE svg PUBLIC "-//W3C//DTD SVG 1.1//EN"
 "http://www.w3.org/Graphics/SVG/1.1/DTD/svg11.dtd">
<!-- Generated by graphviz version 8.1.0 (20230707.0739)
 -->
<!-- Title: engine/core/scene.hpp Pages: 1 -->
<svg width="2153pt" height="360pt"
 viewBox="0.00 0.00 2153.12 359.75" xmlns="http://www.w3.org/2000/svg" xmlns:xlink="http://www.w3.org/1999/xlink">
<g id="graph0" class="graph" transform="scale(1 1) rotate(0) translate(4 355.75)">
<title>engine/core/scene.hpp</title>
<!-- Node1 -->
<g id="Node000001" class="node">
<title>Node1</title>
<g id="a_Node000001"><a xlink:title=" ">
<polygon fill="#999999" stroke="#666666" points="1587.25,-351.75 1473.75,-351.75 1473.75,-332.5 1587.25,-332.5 1587.25,-351.75"/>
<text text-anchor="middle" x="1530.5" y="-338.25" font-family="Helvetica,sans-Serif" font-size="10.00">engine/core/scene.hpp</text>
</a>
</g>
</g>
<!-- Node2 -->
<g id="Node000002" class="node">
<title>Node2</title>
<g id="a_Node000002"><a xlink:href="../../de/d46/engine_8hpp.html" target="_top" xlink:title=" ">
<polygon fill="white" stroke="#666666" points="1237.38,-157.88 1121.62,-157.88 1121.62,-138.62 1237.38,-138.62 1237.38,-157.88"/>
<text text-anchor="middle" x="1179.5" y="-144.38" font-family="Helvetica,sans-Serif" font-size="10.00">engine/core/engine.hpp</text>
</a>
</g>
</g>
<!-- Node1&#45;&gt;Node2 -->
<g id="edge1_Node000001_Node000002" class="edge">
<title>Node1&#45;&gt;Node2</title>
<g id="a_edge1_Node000001_Node000002"><a xlink:title=" ">
<path fill="none" stroke="#63b8ff" d="M1480.42,-329.34C1452.11,-321.76 1416.5,-310.68 1386.5,-296.5 1329.72,-269.66 1319.51,-255.38 1268.5,-218.75 1239.68,-198.05 1207.12,-171.88 1190.52,-158.32"/>
<polygon fill="#63b8ff" stroke="#63b8ff" points="1479.32,-332.93 1489.88,-332.07 1481.08,-326.15 1479.32,-332.93"/>
</a>
</g>
</g>
<!-- Node14 -->
<g id="Node000014" class="node">
<title>Node14</title>
<g id="a_Node000014"><a xlink:href="../../d8/d30/decal-render-system_8cpp.html" target="_top" xlink:title=" ">
<polygon fill="white" stroke="#666666" points="151,-91.38 0,-91.38 0,-60.88 151,-60.88 151,-91.38"/>
<text text-anchor="start" x="8" y="-77.88" font-family="Helvetica,sans-Serif" font-size="10.00">engine/subsystems/render</text>
<text text-anchor="middle" x="75.5" y="-66.62" font-family="Helvetica,sans-Serif" font-size="10.00">/detail/decal&#45;render&#45;system.cpp</text>
</a>
</g>
</g>
<!-- Node1&#45;&gt;Node14 -->
<g id="edge32_Node000001_Node000014" class="edge">
<title>Node1&#45;&gt;Node14</title>
<g id="a_edge32_Node000001_Node000014"><a xlink:title=" ">
<path fill="none" stroke="#63b8ff" d="M1462.55,-337.1C1372.35,-331.17 1208.27,-318.36 1069.5,-296.5 707.92,-239.53 280.75,-131.14 130.82,-91.83"/>
<polygon fill="#63b8ff" stroke="#63b8ff" points="1462.24,-340.65 1472.45,-337.8 1462.69,-333.66 1462.24,-340.65"/>
</a>
</g>
</g>
<!-- Node15 -->
<g id="Node000015" class="node">
<title>Node15</title>
<g id="a_Node000015"><a xlink:href="../../d1/d58/dissolution-render-system_8cpp.html" target="_top" xlink:title=" ">
<polygon fill="white" stroke="#666666" points="299.5,-97 169.5,-97 169.5,-55.25 299.5,-55.25 299.5,-97"/>
<text text-anchor="start" x="177.5" y="-83.5" font-family="Helvetica,sans-Serif" font-size="10.00">engine/subsystems/render</text>
<text text-anchor="start" x="177.5" y="-72.25" font-family="Helvetica,sans-Serif" font-size="10.00">/detail/dissolution&#45;render</text>
<text text-anchor="middle" x="234.5" y="-61" font-family="Helvetica,sans-Serif" font-size="10.00">&#45;system.cpp</text>
</a>
</g>
</g>
<!-- Node1&#45;&gt;Node15 -->
<g id="edge33_Node000001_Node000015" class="edge">
<title>Node1&#45;&gt;Node15</title>
<g id="a_edge33_Node000001_Node000015"><a xlink:title=" ">
<path fill="none" stroke="#63b8ff" d="M1468.12,-330.15C1287.69,-298.08 750.03,-200.28 308.5,-97 305.65,-96.33 302.74,-95.63 299.81,-94.91"/>
<polygon fill="#63b8ff" stroke="#63b8ff" points="1467.27,-333.73 1477.72,-332.03 1468.49,-326.84 1467.27,-333.73"/>
</a>
</g>
</g>
<!-- Node19 -->
<g id="Node000019" class="node">
<title>Node19</title>
<g id="a_Node000019"><a xlink:href="../../d3/dfe/particle-render-system_8cpp.html" target="_top" xlink:title=" ">
<polygon fill="white" stroke="#666666" points="1851.5,-97 1721.5,-97 1721.5,-55.25 1851.5,-55.25 1851.5,-97"/>
<text text-anchor="start" x="1729.5" y="-83.5" font-family="Helvetica,sans-Serif" font-size="10.00">engine/subsystems/render</text>
<text text-anchor="start" x="1729.5" y="-72.25" font-family="Helvetica,sans-Serif" font-size="10.00">/detail/particle&#45;render</text>
<text text-anchor="middle" x="1786.5" y="-61" font-family="Helvetica,sans-Serif" font-size="10.00">&#45;system.cpp</text>
</a>
</g>
</g>
<!-- Node1&#45;&gt;Node19 -->
<g id="edge36_Node000001_Node000019" class="edge">
<title>Node1&#45;&gt;Node19</title>
<g id="a_edge36_Node000001_Node000019"><a xlink:title=" ">
<path fill="none" stroke="#63b8ff" d="M1531,-321.08C1532.32,-302.53 1536.54,-274.88 1549.5,-254.75 1597.66,-179.96 1688.96,-125.13 1743.1,-97.45"/>
<polygon fill="#63b8ff" stroke="#63b8ff" points="1527.46,-320.86 1530.48,-331.02 1534.45,-321.19 1527.46,-320.86"/>
</a>
</g>
</g>
<!-- Node20 -->
<g id="Node000020" class="node">
<title>Node20</title>
<g id="a_Node000020"><a xlink:href="../../d9/d06/render-pipeline_8hpp.html" target="_top" xlink:title=" ">
<polygon fill="white" stroke="#666666" points="1495.5,-290.88 1395.5,-290.88 1395.5,-260.38 1495.5,-260.38 1495.5,-290.88"/>
<text text-anchor="start" x="1403.5" y="-277.38" font-family="Helvetica,sans-Serif" font-size="10.00">engine/core/layers</text>
<text text-anchor="middle" x="1445.5" y="-266.12" font-family="Helvetica,sans-Serif" font-size="10.00">/render&#45;pipeline.hpp</text>
</a>
</g>
</g>
<!-- Node1&#45;&gt;Node20 -->
<g id="edge23_Node000001_Node000020" class="edge">
<title>Node1&#45;&gt;Node20</title>
<g id="a_edge23_Node000001_Node000020"><a xlink:title=" ">
<path fill="none" stroke="#63b8ff" d="M1509.94,-325.52C1496.18,-315.08 1478.2,-301.44 1464.73,-291.22"/>
<polygon fill="#63b8ff" stroke="#63b8ff" points="1507.6,-328.9 1517.68,-332.16 1511.83,-323.32 1507.6,-328.9"/>
</a>
</g>
</g>
<!-- Node23 -->
<g id="Node000023" class="node">
<title>Node23</title>
<g id="a_Node000023"><a xlink:href="../../d4/d7c/deferred-resolve_8cpp.html" target="_top" xlink:title=" ">
<polygon fill="white" stroke="#666666" points="1670.88,-290.88 1558.12,-290.88 1558.12,-260.38 1670.88,-260.38 1670.88,-290.88"/>
<text text-anchor="start" x="1566.12" y="-277.38" font-family="Helvetica,sans-Serif" font-size="10.00">engine/render/deferred</text>
<text text-anchor="middle" x="1614.5" y="-266.12" font-family="Helvetica,sans-Serif" font-size="10.00">&#45;resolve.cpp</text>
</a>
</g>
</g>
<!-- Node1&#45;&gt;Node23 -->
<g id="edge30_Node000001_Node000023" class="edge">
<title>Node1&#45;&gt;Node23</title>
<g id="a_edge30_Node000001_Node000023"><a xlink:title=" ">
<path fill="none" stroke="#63b8ff" d="M1550.82,-325.52C1564.41,-315.08 1582.18,-301.44 1595.5,-291.22"/>
<polygon fill="#63b8ff" stroke="#63b8ff" points="1548.98,-323.29 1543.18,-332.16 1553.24,-328.84 1548.98,-323.29"/>
</a>
</g>
</g>
<!-- Node24 -->
<g id="Node000024" class="node">
<title>Node24</title>
<g id="a_Node000024"><a xlink:href="../../d6/d54/renderer_8cpp.html" target="_top" xlink:title=" ">
<polygon fill="white" stroke="#666666" points="1819.88,-285.25 1689.12,-285.25 1689.12,-266 1819.88,-266 1819.88,-285.25"/>
<text text-anchor="middle" x="1754.5" y="-271.75" font-family="Helvetica,sans-Serif" font-size="10.00">engine/render/renderer.cpp</text>
</a>
</g>
</g>
<!-- Node1&#45;&gt;Node24 -->
<g id="edge31_Node000001_Node000024" class="edge">
<title>Node1&#45;&gt;Node24</title>
<g id="a_edge31_Node000001_Node000024"><a xlink:title=" ">
<path fill="none" stroke="#63b8ff" d="M1572.42,-329.05C1616.14,-316.47 1683.68,-297.02 1723.04,-285.68"/>
<polygon fill="#63b8ff" stroke="#63b8ff" points="1571.76,-325.89 1563.12,-332.02 1573.7,-332.62 1571.76,-325.89"/>
</a>
</g>
</g>
<!-- Node25 -->
<g id="Node000025" class="node">
<title>Node25</title>
<g id="a_Node000025"><a xlink:href="../../d8/dcb/emissive-render-system_8cpp.html" target="_top" xlink:title=" ">
<polygon fill="white" stroke="#666666" points="1967.5,-296.5 1837.5,-296.5 1837.5,-254.75 1967.5,-254.75 1967.5,-296.5"/>
<text text-anchor="start" x="1845.5" y="-283" font-family="Helvetica,sans-Serif" font-size="10.00">engine/subsystems/render</text>
<text text-anchor="start" x="1845.5" y="-271.75" font-family="Helvetica,sans-Serif" font-size="10.00">/detail/emissive&#45;render</text>
<text text-anchor="middle" x="1902.5" y="-260.5" font-family="Helvetica,sans-Serif" font-size="10.00">&#45;system.cpp</text>
</a>
</g>
</g>
<!-- Node1&#45;&gt;Node25 -->
<g id="edge34_Node000001_Node000025" class="edge">
<title>Node1&#45;&gt;Node25</title>
<g id="a_edge34_Node000001_Node000025"><a xlink:title=" ">
<path fill="none" stroke="#63b8ff" d="M1598.28,-333.21C1658.93,-325.59 1750.11,-312.84 1828.5,-296.5 1831.36,-295.9 1834.28,-295.26 1837.23,-294.59"/>
<polygon fill="#63b8ff" stroke="#63b8ff" points="1598.19,-329.82 1588.69,-334.52 1599.05,-336.76 1598.19,-329.82"/>
</a>
</g>
</g>
<!-- Node26 -->
<g id="Node000026" class="node">
<title>Node26</title>
<g id="a_Node000026"><a xlink:href="../../d1/d62/opaque-render-system_8cpp.html" target="_top" xlink:title=" ">
<polygon fill="white" stroke="#666666" points="2145.12,-290.88 1985.88,-290.88 1985.88,-260.38 2145.12,-260.38 2145.12,-290.88"/>
<text text-anchor="start" x="1993.88" y="-277.38" font-family="Helvetica,sans-Serif" font-size="10.00">engine/subsystems/render</text>
<text text-anchor="middle" x="2065.5" y="-266.12" font-family="Helvetica,sans-Serif" font-size="10.00">/detail/opaque&#45;render&#45;system.cpp</text>
</a>
</g>
</g>
<!-- Node1&#45;&gt;Node26 -->
<g id="edge35_Node000001_Node000026" class="edge">
<title>Node1&#45;&gt;Node26</title>
<g id="a_edge35_Node000001_Node000026"><a xlink:title=" ">
<path fill="none" stroke="#63b8ff" d="M1598.32,-336.88C1686.03,-330.81 1843.33,-317.95 1976.5,-296.5 1985.57,-295.04 1995.09,-293.22 2004.4,-291.28"/>
<polygon fill="#63b8ff" stroke="#63b8ff" points="1598.2,-333.45 1588.46,-337.62 1598.67,-340.43 1598.2,-333.45"/>
</a>
</g>
</g>
<!-- Node3 -->
<g id="Node000003" class="node">
<title>Node3</title>
<g id="a_Node000003"><a xlink:href="../../d0/d86/camera-movement_8hpp.html" target="_top" xlink:title=" ">
<polygon fill="white" stroke="#666666" points="953.25,-85.75 797.75,-85.75 797.75,-66.5 953.25,-66.5 953.25,-85.75"/>
<text text-anchor="middle" x="875.5" y="-72.25" font-family="Helvetica,sans-Serif" font-size="10.00">d3d_test/camera&#45;movement.hpp</text>
</a>
</g>
</g>
<!-- Node2&#45;&gt;Node3 -->
<g id="edge2_Node000002_Node000003" class="edge">
<title>Node2&#45;&gt;Node3</title>
<g id="a_edge2_Node000002_Node000003"><a xlink:title=" ">
<path fill="none" stroke="#63b8ff" d="M1129.69,-135.76C1069.61,-121.9 969.84,-98.89 914.86,-86.2"/>
<polygon fill="#63b8ff" stroke="#63b8ff" points="1128.54,-139.32 1139.07,-138.15 1130.11,-132.5 1128.54,-139.32"/>
</a>
</g>
</g>
<!-- Node6 -->
<g id="Node000006" class="node">
<title>Node6</title>
<g id="a_Node000006"><a xlink:href="../../dc/dfb/controller_8hpp.html" target="_top" xlink:title=" ">
<polygon fill="white" stroke="#666666" points="1517.62,-85.75 1403.38,-85.75 1403.38,-66.5 1517.62,-66.5 1517.62,-85.75"/>
<text text-anchor="middle" x="1460.5" y="-72.25" font-family="Helvetica,sans-Serif" font-size="10.00">d3d_test/controller.hpp</text>
</a>
</g>
</g>
<!-- Node2&#45;&gt;Node6 -->
<g id="edge5_Node000002_Node000006" class="edge">
<title>Node2&#45;&gt;Node6</title>
<g id="a_edge5_Node000002_Node000006"><a xlink:title=" ">
<path fill="none" stroke="#63b8ff" d="M1232.37,-135.87C1276.03,-126.23 1339.53,-111.68 1394.5,-97 1406.75,-93.73 1420.18,-89.76 1431.7,-86.23"/>
<polygon fill="#63b8ff" stroke="#63b8ff" points="1231.73,-132.64 1222.72,-138.21 1233.23,-139.48 1231.73,-132.64"/>
</a>
</g>
</g>
<!-- Node7 -->
<g id="Node000007" class="node">
<title>Node7</title>
<g id="a_Node000007"><a xlink:href="../../d9/d0f/main_8cc.html" target="_top" xlink:title=" ">
<polygon fill="white" stroke="#666666" points="1590.62,-19.25 1500.38,-19.25 1500.38,0 1590.62,0 1590.62,-19.25"/>
<text text-anchor="middle" x="1545.5" y="-5.75" font-family="Helvetica,sans-Serif" font-size="10.00">d3d_test/main.cc</text>
</a>
</g>
</g>
<!-- Node2&#45;&gt;Node7 -->
<g id="edge8_Node000002_Node000007" class="edge">
<title>Node2&#45;&gt;Node7</title>
<g id="a_edge8_Node000002_Node000007"><a xlink:title=" ">
<path fill="none" stroke="#63b8ff" d="M1248.46,-141.46C1343.8,-132.84 1506.49,-115.61 1526.5,-97 1548.43,-76.61 1547.97,-37.17 1546.51,-19.53"/>
<polygon fill="#63b8ff" stroke="#63b8ff" points="1248.39,-138.05 1238.74,-142.42 1249.02,-145.02 1248.39,-138.05"/>
</a>
</g>
</g>
<!-- Node8 -->
<g id="Node000008" class="node">
<title>Node8</title>
<g id="a_Node000008"><a xlink:href="../../da/df5/object-editor_8hpp.html" target="_top" xlink:title=" ">
<polygon fill="white" stroke="#666666" points="615.38,-85.75 487.62,-85.75 487.62,-66.5 615.38,-66.5 615.38,-85.75"/>
<text text-anchor="middle" x="551.5" y="-72.25" font-family="Helvetica,sans-Serif" font-size="10.00">d3d_test/object&#45;editor.hpp</text>
</a>
</g>
</g>
<!-- Node2&#45;&gt;Node8 -->
<g id="edge9_Node000002_Node000008" class="edge">
<title>Node2&#45;&gt;Node8</title>
<g id="a_edge9_Node000002_Node000008"><a xlink:title=" ">
<path fill="none" stroke="#63b8ff" d="M1110.73,-144.9C1005.33,-140.44 797.85,-128.2 624.5,-97 609.76,-94.35 593.67,-90.12 580.36,-86.24"/>
<polygon fill="#63b8ff" stroke="#63b8ff" points="1110.39,-148.43 1120.53,-145.35 1110.68,-141.44 1110.39,-148.43"/>
</a>
</g>
</g>
<!-- Node11 -->
<g id="Node000011" class="node">
<title>Node11</title>
<g id="a_Node000011"><a xlink:href="../../d9/d55/scene-viewer_8hpp.html" target="_top" xlink:title=" ">
<polygon fill="white" stroke="#666666" points="1103.62,-85.75 971.38,-85.75 971.38,-66.5 1103.62,-66.5 1103.62,-85.75"/>
<text text-anchor="middle" x="1037.5" y="-72.25" font-family="Helvetica,sans-Serif" font-size="10.00">d3d_test/scene&#45;viewer.hpp</text>
</a>
</g>
</g>
<!-- Node2&#45;&gt;Node11 -->
<g id="edge13_Node000002_Node000011" class="edge">
<title>Node2&#45;&gt;Node11</title>
<g id="a_edge13_Node000002_Node000011"><a xlink:title=" ">
<path fill="none" stroke="#63b8ff" d="M1151.49,-133.42C1123.08,-119.39 1079.95,-98.09 1055.7,-86.11"/>
<polygon fill="#63b8ff" stroke="#63b8ff" points="1149.71,-136.94 1160.23,-138.23 1152.81,-130.66 1149.71,-136.94"/>
</a>
</g>
</g>
<!-- Node12 -->
<g id="Node000012" class="node">
<title>Node12</title>
<g id="a_Node000012"><a xlink:href="../../da/d5c/engine_8cpp.html" target="_top" xlink:title=" ">
<polygon fill="white" stroke="#666666" points="1237.38,-85.75 1121.62,-85.75 1121.62,-66.5 1237.38,-66.5 1237.38,-85.75"/>
<text text-anchor="middle" x="1179.5" y="-72.25" font-family="Helvetica,sans-Serif" font-size="10.00">engine/core/engine.cpp</text>
</a>
</g>
</g>
<!-- Node2&#45;&gt;Node12 -->
<g id="edge15_Node000002_Node000012" class="edge">
<title>Node2&#45;&gt;Node12</title>
<g id="a_edge15_Node000002_Node000012"><a xlink:title=" ">
<path fill="none" stroke="#63b8ff" d="M1179.5,-127.7C1179.5,-114.1 1179.5,-96.6 1179.5,-86.16"/>
<polygon fill="#63b8ff" stroke="#63b8ff" points="1176,-127.37 1179.5,-137.37 1183,-127.37 1176,-127.37"/>
</a>
</g>
</g>
<!-- Node13 -->
<g id="Node000013" class="node">
<title>Node13</title>
<g id="a_Node000013"><a xlink:href="../../d1/da2/deferred-hdr-render-pipeline_8cpp.html" target="_top" xlink:title=" ">
<polygon fill="white" stroke="#666666" points="1703.88,-91.38 1573.12,-91.38 1573.12,-60.88 1703.88,-60.88 1703.88,-91.38"/>
<text text-anchor="start" x="1581.12" y="-77.88" font-family="Helvetica,sans-Serif" font-size="10.00">engine/direct3d11/deferred</text>
<text text-anchor="middle" x="1638.5" y="-66.62" font-family="Helvetica,sans-Serif" font-size="10.00">&#45;hdr&#45;render&#45;pipeline.cpp</text>
</a>
</g>
</g>
<!-- Node2&#45;&gt;Node13 -->
<g id="edge16_Node000002_Node000013" class="edge">
<title>Node2&#45;&gt;Node13</title>
<g id="a_edge16_Node000002_Node000013"><a xlink:title=" ">
<path fill="none" stroke="#63b8ff" d="M1248.68,-140.52C1325.14,-132.52 1451.72,-117.61 1559.5,-97 1567.28,-95.51 1575.43,-93.72 1583.43,-91.84"/>
<polygon fill="#63b8ff" stroke="#63b8ff" points="1248.36,-137.14 1238.77,-141.65 1249.08,-144.1 1248.36,-137.14"/>
</a>
</g>
</g>
<!-- Node2&#45;&gt;Node14 -->
<g id="edge17_Node000002_Node000014" class="edge">
<title>Node2&#45;&gt;Node14</title>
<g id="a_edge17_Node000002_Node000014"><a xlink:title=" ">
<path fill="none" stroke="#63b8ff" d="M1110.54,-145.47C912.54,-140.11 344.7,-122.86 160.5,-97 151.2,-95.69 141.41,-93.85 131.93,-91.82"/>
<polygon fill="#63b8ff" stroke="#63b8ff" points="1110.28,-148.99 1120.37,-145.76 1110.47,-142 1110.28,-148.99"/>
</a>
</g>
</g>
<!-- Node2&#45;&gt;Node15 -->
<g id="edge18_Node000002_Node000015" class="edge">
<title>Node2&#45;&gt;Node15</title>
<g id="a_edge18_Node000002_Node000015"><a xlink:title=" ">
<path fill="none" stroke="#63b8ff" d="M1110.63,-144.09C918.69,-135.17 386.7,-109.62 308.5,-97 305.61,-96.53 302.67,-96 299.71,-95.42"/>
<polygon fill="#63b8ff" stroke="#63b8ff" points="1110.26,-147.62 1120.41,-144.59 1110.59,-140.63 1110.26,-147.62"/>
</a>
</g>
</g>
<!-- Node16 -->
<g id="Node000016" class="node">
<title>Node16</title>
<g id="a_Node000016"><a xlink:href="../../d2/d11/emissive-particle-render-system_8cpp.html" target="_top" xlink:title=" ">
<polygon fill="white" stroke="#666666" points="1385.5,-97 1255.5,-97 1255.5,-55.25 1385.5,-55.25 1385.5,-97"/>
<text text-anchor="start" x="1263.5" y="-83.5" font-family="Helvetica,sans-Serif" font-size="10.00">engine/subsystems/render</text>
<text text-anchor="start" x="1263.5" y="-72.25" font-family="Helvetica,sans-Serif" font-size="10.00">/detail/emissive&#45;particle</text>
<text text-anchor="middle" x="1320.5" y="-61" font-family="Helvetica,sans-Serif" font-size="10.00">&#45;render&#45;system.cpp</text>
</a>
</g>
</g>
<!-- Node2&#45;&gt;Node16 -->
<g id="edge19_Node000002_Node000016" class="edge">
<title>Node2&#45;&gt;Node16</title>
<g id="a_edge19_Node000002_Node000016"><a xlink:title=" ">
<path fill="none" stroke="#63b8ff" d="M1207.37,-133.39C1228,-123.13 1256.44,-108.99 1279.63,-97.45"/>
<polygon fill="#63b8ff" stroke="#63b8ff" points="1206.04,-130.64 1198.64,-138.23 1209.16,-136.91 1206.04,-130.64"/>
</a>
</g>
</g>
<!-- Node17 -->
<g id="Node000017" class="node">
<title>Node17</title>
<g id="a_Node000017"><a xlink:href="../../df/d58/grass-render-system_8cpp.html" target="_top" xlink:title=" ">
<polygon fill="white" stroke="#666666" points="469.38,-91.38 317.62,-91.38 317.62,-60.88 469.38,-60.88 469.38,-91.38"/>
<text text-anchor="start" x="325.62" y="-77.88" font-family="Helvetica,sans-Serif" font-size="10.00">engine/subsystems/render</text>
<text text-anchor="middle" x="393.5" y="-66.62" font-family="Helvetica,sans-Serif" font-size="10.00">/detail/grass&#45;render&#45;system.cpp</text>
</a>
</g>
</g>
<!-- Node2&#45;&gt;Node17 -->
<g id="edge20_Node000002_Node000017" class="edge">
<title>Node2&#45;&gt;Node17</title>
<g id="a_edge20_Node000002_Node000017"><a xlink:title=" ">
<path fill="none" stroke="#63b8ff" d="M1110.75,-143.71C958.96,-135.67 599.1,-115.3 478.5,-97 469.51,-95.64 460.06,-93.82 450.87,-91.84"/>
<polygon fill="#63b8ff" stroke="#63b8ff" points="1110.14,-147.24 1120.31,-144.27 1110.51,-140.25 1110.14,-147.24"/>
</a>
</g>
</g>
<!-- Node18 -->
<g id="Node000018" class="node">
<title>Node18</title>
<g id="a_Node000018"><a xlink:href="../../d8/d9c/light-render-system_8cpp.html" target="_top" xlink:title=" ">
<polygon fill="white" stroke="#666666" points="779.38,-91.38 633.62,-91.38 633.62,-60.88 779.38,-60.88 779.38,-91.38"/>
<text text-anchor="start" x="641.62" y="-77.88" font-family="Helvetica,sans-Serif" font-size="10.00">engine/subsystems/render</text>
<text text-anchor="middle" x="706.5" y="-66.62" font-family="Helvetica,sans-Serif" font-size="10.00">/detail/light&#45;render&#45;system.cpp</text>
</a>
</g>
</g>
<!-- Node2&#45;&gt;Node18 -->
<g id="edge21_Node000002_Node000018" class="edge">
<title>Node2&#45;&gt;Node18</title>
<g id="a_edge21_Node000002_Node000018"><a xlink:title=" ">
<path fill="none" stroke="#63b8ff" d="M1110.52,-140.7C1032.12,-132.73 900.5,-117.71 788.5,-97 780.43,-95.51 771.97,-93.72 763.68,-91.83"/>
<polygon fill="#63b8ff" stroke="#63b8ff" points="1109.92,-144.26 1120.22,-141.78 1110.63,-137.3 1109.92,-144.26"/>
</a>
</g>
</g>
<!-- Node2&#45;&gt;Node19 -->
<g id="edge22_Node000002_Node000019" class="edge">
<title>Node2&#45;&gt;Node19</title>
<g id="a_edge22_Node000002_Node000019"><a xlink:title=" ">
<path fill="none" stroke="#63b8ff" d="M1248.27,-142.22C1371.48,-132.96 1625.15,-112.73 1712.5,-97 1715.38,-96.48 1718.31,-95.9 1721.26,-95.28"/>
<polygon fill="#63b8ff" stroke="#63b8ff" points="1248.19,-138.79 1238.48,-143.03 1248.71,-145.77 1248.19,-138.79"/>
</a>
</g>
</g>
<!-- Node4 -->
<g id="Node000004" class="node">
<title>Node4</title>
<g id="a_Node000004"><a xlink:href="../../d5/dbb/camera-movement_8cpp.html" target="_top" xlink:title=" ">
<polygon fill="white" stroke="#666666" points="953.25,-19.25 797.75,-19.25 797.75,0 953.25,0 953.25,-19.25"/>
<text text-anchor="middle" x="875.5" y="-5.75" font-family="Helvetica,sans-Serif" font-size="10.00">d3d_test/camera&#45;movement.cpp</text>
</a>
</g>
</g>
<!-- Node3&#45;&gt;Node4 -->
<g id="edge3_Node000003_Node000004" class="edge">
<title>Node3&#45;&gt;Node4</title>
<g id="a_edge3_Node000003_Node000004"><a xlink:title=" ">
<path fill="none" stroke="#63b8ff" d="M875.5,-55.4C875.5,-43.43 875.5,-28.73 875.5,-19.52"/>
<polygon fill="#63b8ff" stroke="#63b8ff" points="872,-55.16 875.5,-65.16 879,-55.16 872,-55.16"/>
</a>
</g>
</g>
<!-- Node5 -->
<g id="Node000005" class="node">
<title>Node5</title>
<g id="a_Node000005"><a xlink:href="../../d1/d47/controller_8cpp.html" target="_top" xlink:title=" ">
<polygon fill="white" stroke="#666666" points="1090.62,-19.25 976.38,-19.25 976.38,0 1090.62,0 1090.62,-19.25"/>
<text text-anchor="middle" x="1033.5" y="-5.75" font-family="Helvetica,sans-Serif" font-size="10.00">d3d_test/controller.cpp</text>
</a>
</g>
</g>
<!-- Node3&#45;&gt;Node5 -->
<g id="edge4_Node000003_Node000005" class="edge">
<title>Node3&#45;&gt;Node5</title>
<g id="a_edge4_Node000003_Node000005"><a xlink:title=" ">
<path fill="none" stroke="#63b8ff" d="M907.65,-62C938.51,-49.4 984.31,-30.71 1011.31,-19.68"/>
<polygon fill="#63b8ff" stroke="#63b8ff" points="906.74,-59 898.8,-66.02 909.38,-65.48 906.74,-59"/>
</a>
</g>
</g>
<!-- Node6&#45;&gt;Node5 -->
<g id="edge6_Node000006_Node000005" class="edge">
<title>Node6&#45;&gt;Node5</title>
<g id="a_edge6_Node000006_Node000005"><a xlink:title=" ">
<path fill="none" stroke="#63b8ff" d="M1423.82,-62.88C1414.35,-60.05 1404.11,-57.28 1394.5,-55.25 1288.53,-32.91 1162.53,-20.48 1090.89,-14.7"/>
<polygon fill="#63b8ff" stroke="#63b8ff" points="1422.52,-66.45 1433.11,-66.06 1424.59,-59.76 1422.52,-66.45"/>
</a>
</g>
</g>
<!-- Node6&#45;&gt;Node7 -->
<g id="edge7_Node000006_Node000007" class="edge">
<title>Node6&#45;&gt;Node7</title>
<g id="a_edge7_Node000006_Node000007"><a xlink:title=" ">
<path fill="none" stroke="#63b8ff" d="M1480.72,-59.78C1497.16,-47.31 1519.81,-30.12 1533.51,-19.73"/>
<polygon fill="#63b8ff" stroke="#63b8ff" points="1479.17,-57.32 1473.32,-66.16 1483.4,-62.9 1479.17,-57.32"/>
</a>
</g>
</g>
<!-- Node8&#45;&gt;Node5 -->
<g id="edge10_Node000008_Node000005" class="edge">
<title>Node8&#45;&gt;Node5</title>
<g id="a_edge10_Node000008_Node000005"><a xlink:title=" ">
<path fill="none" stroke="#63b8ff" d="M591.11,-63.11C601.86,-60.18 613.56,-57.31 624.5,-55.25 772.97,-27.32 812.4,-36.36 962.5,-19.25 966.94,-18.74 971.54,-18.21 976.16,-17.66"/>
<polygon fill="#63b8ff" stroke="#63b8ff" points="590.41,-59.95 581.73,-66.02 592.31,-66.69 590.41,-59.95"/>
</a>
</g>
</g>
<!-- Node9 -->
<g id="Node000009" class="node">
<title>Node9</title>
<g id="a_Node000009"><a xlink:href="../../d4/d94/object-editor_8cpp.html" target="_top" xlink:title=" ">
<polygon fill="white" stroke="#666666" points="541.38,-19.25 413.62,-19.25 413.62,0 541.38,0 541.38,-19.25"/>
<text text-anchor="middle" x="477.5" y="-5.75" font-family="Helvetica,sans-Serif" font-size="10.00">d3d_test/object&#45;editor.cpp</text>
</a>
</g>
</g>
<!-- Node8&#45;&gt;Node9 -->
<g id="edge11_Node000008_Node000009" class="edge">
<title>Node8&#45;&gt;Node9</title>
<g id="a_edge11_Node000008_Node000009"><a xlink:title=" ">
<path fill="none" stroke="#63b8ff" d="M533.05,-59.04C518.71,-46.55 499.37,-29.69 487.7,-19.52"/>
<polygon fill="#63b8ff" stroke="#63b8ff" points="530.37,-62.22 540.21,-66.16 534.97,-56.95 530.37,-62.22"/>
</a>
</g>
</g>
<!-- Node10 -->
<g id="Node000010" class="node">
<title>Node10</title>
<g id="a_Node000010"><a xlink:href="../../d0/d38/scene-viewer_8cpp.html" target="_top" xlink:title=" ">
<polygon fill="white" stroke="#666666" points="691.62,-19.25 559.38,-19.25 559.38,0 691.62,0 691.62,-19.25"/>
<text text-anchor="middle" x="625.5" y="-5.75" font-family="Helvetica,sans-Serif" font-size="10.00">d3d_test/scene&#45;viewer.cpp</text>
</a>
</g>
</g>
<!-- Node8&#45;&gt;Node10 -->
<g id="edge12_Node000008_Node000010" class="edge">
<title>Node8&#45;&gt;Node10</title>
<g id="a_edge12_Node000008_Node000010"><a xlink:title=" ">
<path fill="none" stroke="#63b8ff" d="M569.95,-59.04C584.29,-46.55 603.63,-29.69 615.3,-19.52"/>
<polygon fill="#63b8ff" stroke="#63b8ff" points="568.03,-56.95 562.79,-66.16 572.63,-62.22 568.03,-56.95"/>
</a>
</g>
</g>
<!-- Node11&#45;&gt;Node5 -->
<g id="edge14_Node000011_Node000005" class="edge">
<title>Node11&#45;&gt;Node5</title>
<g id="a_edge14_Node000011_Node000005"><a xlink:title=" ">
<path fill="none" stroke="#63b8ff" d="M1036.28,-55.4C1035.53,-43.43 1034.62,-28.73 1034.05,-19.52"/>
<polygon fill="#63b8ff" stroke="#63b8ff" points="1032.83,-55.39 1036.94,-65.16 1039.82,-54.96 1032.83,-55.39"/>
</a>
</g>
</g>
<!-- Node21 -->
<g id="Node000021" class="node">
<title>Node21</title>
<g id="a_Node000021"><a xlink:href="../../d4/d87/layers_8hpp.html" target="_top" xlink:title=" ">
<polygon fill="white" stroke="#666666" points="1389.88,-218.75 1277.12,-218.75 1277.12,-199.5 1389.88,-199.5 1389.88,-218.75"/>
<text text-anchor="middle" x="1333.5" y="-205.25" font-family="Helvetica,sans-Serif" font-size="10.00">engine/core/layers.hpp</text>
</a>
</g>
</g>
<!-- Node20&#45;&gt;Node21 -->
<g id="edge24_Node000020_Node000021" class="edge">
<title>Node20&#45;&gt;Node21</title>
<g id="a_edge24_Node000020_Node000021"><a xlink:title=" ">
<path fill="none" stroke="#63b8ff" d="M1410.69,-254.58C1390.09,-242.72 1365.01,-228.27 1349.14,-219.13"/>
<polygon fill="#63b8ff" stroke="#63b8ff" points="1408.67,-258.03 1419.09,-259.99 1412.17,-251.97 1408.67,-258.03"/>
</a>
</g>
</g>
<!-- Node22 -->
<g id="Node000022" class="node">
<title>Node22</title>
<g id="a_Node000022"><a xlink:href="../../db/df9/deferred-hdr-render-pipeline_8hpp.html" target="_top" xlink:title=" ">
<polygon fill="white" stroke="#666666" points="1510.88,-163.5 1380.12,-163.5 1380.12,-133 1510.88,-133 1510.88,-163.5"/>
<text text-anchor="start" x="1388.12" y="-150" font-family="Helvetica,sans-Serif" font-size="10.00">engine/direct3d11/deferred</text>
<text text-anchor="middle" x="1445.5" y="-138.75" font-family="Helvetica,sans-Serif" font-size="10.00">&#45;hdr&#45;render&#45;pipeline.hpp</text>
</a>
</g>
</g>
<!-- Node20&#45;&gt;Node22 -->
<g id="edge26_Node000020_Node000022" class="edge">
<title>Node20&#45;&gt;Node22</title>
<g id="a_edge26_Node000020_Node000022"><a xlink:title=" ">
<path fill="none" stroke="#63b8ff" d="M1445.5,-249.5C1445.5,-223.82 1445.5,-184.84 1445.5,-163.85"/>
<polygon fill="#63b8ff" stroke="#63b8ff" points="1442,-249.24 1445.5,-259.24 1449,-249.24 1442,-249.24"/>
</a>
</g>
</g>
<!-- Node21&#45;&gt;Node2 -->
<g id="edge25_Node000021_Node000002" class="edge">
<title>Node21&#45;&gt;Node2</title>
<g id="a_edge25_Node000021_Node000002"><a xlink:title=" ">
<path fill="none" stroke="#63b8ff" d="M1299.62,-195.17C1270.43,-184.01 1229.04,-168.19 1203.25,-158.33"/>
<polygon fill="#63b8ff" stroke="#63b8ff" points="1298.18,-198.75 1308.77,-199.05 1300.68,-192.21 1298.18,-198.75"/>
</a>
</g>
</g>
<!-- Node22&#45;&gt;Node6 -->
<g id="edge27_Node000022_Node000006" class="edge">
<title>Node22&#45;&gt;Node6</title>
<g id="a_edge27_Node000022_Node000006"><a xlink:title=" ">
<path fill="none" stroke="#63b8ff" d="M1450.85,-122.25C1453.56,-109.57 1456.69,-94.96 1458.63,-85.88"/>
<polygon fill="#63b8ff" stroke="#63b8ff" points="1447.28,-121.21 1448.61,-131.72 1454.12,-122.67 1447.28,-121.21"/>
</a>
</g>
</g>
<!-- Node22&#45;&gt;Node7 -->
<g id="edge28_Node000022_Node000007" class="edge">
<title>Node22&#45;&gt;Node7</title>
<g id="a_edge28_Node000022_Node000007"><a xlink:title=" ">
<path fill="none" stroke="#63b8ff" d="M1521.94,-143.39C1635.67,-136.86 1838.47,-121.86 1860.5,-97 1872.81,-83.11 1872.67,-69.26 1860.5,-55.25 1826.14,-15.68 1669.66,-10.25 1590.97,-10.09"/>
<polygon fill="#63b8ff" stroke="#63b8ff" points="1522.01,-139.94 1512.23,-144 1522.41,-146.93 1522.01,-139.94"/>
</a>
</g>
</g>
<!-- Node22&#45;&gt;Node13 -->
<g id="edge29_Node000022_Node000013" class="edge">
<title>Node22&#45;&gt;Node13</title>
<g id="a_edge29_Node000022_Node000013"><a xlink:title=" ">
<path fill="none" stroke="#63b8ff" d="M1495.97,-128.91C1527.81,-117.34 1568.38,-102.6 1598.09,-91.81"/>
<polygon fill="#63b8ff" stroke="#63b8ff" points="1495.16,-125.84 1486.96,-132.55 1497.55,-132.42 1495.16,-125.84"/>
</a>
</g>
</g>
</g>
</svg>
