<?xml version="1.0" encoding="UTF-8" standalone="no"?>
<!DOCTYPE svg PUBLIC "-//W3C//DTD SVG 1.1//EN"
 "http://www.w3.org/Graphics/SVG/1.1/DTD/svg11.dtd">
<!-- Generated by graphviz version 9.0.0 (20230911.1827)
 -->
<!-- Title: engine/core/scene.hpp Pages: 1 -->
<!--zoomable 360 -->

<svg id="main" version="1.1" xmlns="http://www.w3.org/2000/svg" xmlns:xlink="http://www.w3.org/1999/xlink" xml:space="preserve" onload="init(evt)">
<style type="text/css"><![CDATA[
.node, .edge {opacity: 0.7;}
.node.selected, .edge.selected {opacity: 1;}
.edge:hover path { stroke: red; }
.edge:hover polygon { stroke: red; fill: red; }
]]></style>

<defs>
  <circle id="rim" cx="0" cy="0" r="7"/>
  <circle id="rim2" cx="0" cy="0" r="3.5"/>
  <g id="zoomPlus">
    <use xlink:href="#rim" fill="#404040"><set attributeName="fill" to="#808080" begin="zoomplus.mouseover" end="zoomplus.mouseout"/></use>
    <path d="M-4,0h8M0,-4v8" fill="none" stroke="white" stroke-width="1.5" pointer-events="none"/>
  </g>
  <g id="zoomMin">
    <use xlink:href="#rim" fill="#404040"><set attributeName="fill" to="#808080" begin="zoomminus.mouseover" end="zoomminus.mouseout"/></use>
    <path d="M-4,0h8" fill="none" stroke="white" stroke-width="1.5" pointer-events="none"/>
  </g>
  <g id="arrowUp" transform="translate(30 24)">
    <use xlink:href="#rim"/>
    <path pointer-events="none" fill="none" stroke="white" stroke-width="1.5" d="M0,-3.0v7 M-2.5,-0.5L0,-3.0L2.5,-0.5"/>
  </g>
  <g id="arrowRight" transform="rotate(90) translate(36 -43)">
    <use xlink:href="#rim"/>
    <path pointer-events="none" fill="none" stroke="white" stroke-width="1.5" d="M0,-3.0v7 M-2.5,-0.5L0,-3.0L2.5,-0.5"/>
  </g>
  <g id="arrowDown" transform="rotate(180) translate(-30 -48)">
    <use xlink:href="#rim"/>
    <path pointer-events="none" fill="none" stroke="white" stroke-width="1.5" d="M0,-3.0v7 M-2.5,-0.5L0,-3.0L2.5,-0.5"/>
  </g>
  <g id="arrowLeft" transform="rotate(270) translate(-36 17)">
    <use xlink:href="#rim"/>
    <path pointer-events="none" fill="none" stroke="white" stroke-width="1.5" d="M0,-3.0v7 M-2.5,-0.5L0,-3.0L2.5,-0.5"/>
  </g>
  <g id="resetDef">
    <use xlink:href="#rim2" fill="#404040"><set attributeName="fill" to="#808080" begin="reset.mouseover" end="reset.mouseout"/></use>
  </g>
</defs>
<script type="application/ecmascript">
var viewWidth = 2153;
var viewHeight = 360;
var sectionId = 'dynsection-1';
</script>
<script type="application/ecmascript" xlink:href="../../svg.min.js"/>
<svg id="graph" class="graph">
<g id="viewport">
<title>engine/core/scene.hpp</title>
<!-- Node1 -->
<g id="Node000001" class="node">
<title>Node1</title>
<g id="a_Node000001"><a xlink:title=" ">
<polygon fill="#999999" stroke="#666666" points="1587.25,-351.75 1473.75,-351.75 1473.75,-332.5 1587.25,-332.5 1587.25,-351.75"/>
<text text-anchor="middle" x="1530.5" y="-338.25" font-family="Helvetica,sans-Serif" font-size="10.00">engine/core/scene.hpp</text>
</a>
</g>
</g>
<!-- Node2 -->
<g id="Node000002" class="node">
<title>Node2</title>
<g id="a_Node000002"><a xlink:href="../../de/d46/engine_8hpp.html" target="_top" xlink:title=" ">
<polygon fill="white" stroke="#666666" points="1237.38,-157.88 1121.62,-157.88 1121.62,-138.62 1237.38,-138.62 1237.38,-157.88"/>
<text text-anchor="middle" x="1179.5" y="-144.38" font-family="Helvetica,sans-Serif" font-size="10.00">engine/core/engine.hpp</text>
</a>
</g>
</g>
<!-- Node1&#45;&gt;Node2 -->
<g id="edge1_Node000001_Node000002" class="edge">
<title>Node1&#45;&gt;Node2</title>
<g id="a_edge1_Node000001_Node000002"><a xlink:title=" ">
<path fill="none" stroke="#63b8ff" d="M1480.04,-329.24C1451.8,-321.67 1416.37,-310.62 1386.5,-296.5 1329.72,-269.66 1319.51,-255.38 1268.5,-218.75 1239.68,-198.05 1207.12,-171.88 1190.52,-158.32"/>
<polygon fill="#63b8ff" stroke="#63b8ff" points="1478.85,-332.54 1489.41,-331.68 1480.62,-325.77 1478.85,-332.54"/>
</a>
</g>
</g>
<!-- Node14 -->
<g id="Node000014" class="node">
<title>Node14</title>
<g id="a_Node000014"><a xlink:href="../../d8/d30/decal-render-system_8cpp.html" target="_top" xlink:title=" ">
<polygon fill="white" stroke="#666666" points="151,-91.38 0,-91.38 0,-60.88 151,-60.88 151,-91.38"/>
<text text-anchor="start" x="8" y="-77.88" font-family="Helvetica,sans-Serif" font-size="10.00">engine/subsystems/render</text>
<text text-anchor="middle" x="75.5" y="-66.62" font-family="Helvetica,sans-Serif" font-size="10.00">/detail/decal&#45;render&#45;system.cpp</text>
</a>
</g>
</g>
<!-- Node1&#45;&gt;Node14 -->
<g id="edge32_Node000001_Node000014" class="edge">
<title>Node1&#45;&gt;Node14</title>
<g id="a_edge32_Node000001_Node000014"><a xlink:title=" ">
<path fill="none" stroke="#63b8ff" d="M1462,-337.06C1371.68,-331.12 1207.99,-318.32 1069.5,-296.5 707.92,-239.53 280.75,-131.14 130.82,-91.83"/>
<polygon fill="#63b8ff" stroke="#63b8ff" points="1461.73,-340.55 1471.94,-337.71 1462.18,-333.57 1461.73,-340.55"/>
</a>
</g>
</g>
<!-- Node15 -->
<g id="Node000015" class="node">
<title>Node15</title>
<g id="a_Node000015"><a xlink:href="../../d1/d58/dissolution-render-system_8cpp.html" target="_top" xlink:title=" ">
<polygon fill="white" stroke="#666666" points="299.5,-97 169.5,-97 169.5,-55.25 299.5,-55.25 299.5,-97"/>
<text text-anchor="start" x="177.5" y="-83.5" font-family="Helvetica,sans-Serif" font-size="10.00">engine/subsystems/render</text>
<text text-anchor="start" x="177.5" y="-72.25" font-family="Helvetica,sans-Serif" font-size="10.00">/detail/dissolution&#45;render</text>
<text text-anchor="middle" x="234.5" y="-61" font-family="Helvetica,sans-Serif" font-size="10.00">&#45;system.cpp</text>
</a>
</g>
</g>
<!-- Node1&#45;&gt;Node15 -->
<g id="edge33_Node000001_Node000015" class="edge">
<title>Node1&#45;&gt;Node15</title>
<g id="a_edge33_Node000001_Node000015"><a xlink:title=" ">
<path fill="none" stroke="#63b8ff" d="M1467.58,-330.05C1286.62,-297.89 749.59,-200.18 308.5,-97 305.65,-96.33 302.74,-95.63 299.81,-94.91"/>
<polygon fill="#63b8ff" stroke="#63b8ff" points="1466.78,-333.46 1477.23,-331.77 1468,-326.57 1466.78,-333.46"/>
</a>
</g>
</g>
<!-- Node19 -->
<g id="Node000019" class="node">
<title>Node19</title>
<g id="a_Node000019"><a xlink:href="../../d3/dfe/particle-render-system_8cpp.html" target="_top" xlink:title=" ">
<polygon fill="white" stroke="#666666" points="1851.5,-97 1721.5,-97 1721.5,-55.25 1851.5,-55.25 1851.5,-97"/>
<text text-anchor="start" x="1729.5" y="-83.5" font-family="Helvetica,sans-Serif" font-size="10.00">engine/subsystems/render</text>
<text text-anchor="start" x="1729.5" y="-72.25" font-family="Helvetica,sans-Serif" font-size="10.00">/detail/particle&#45;render</text>
<text text-anchor="middle" x="1786.5" y="-61" font-family="Helvetica,sans-Serif" font-size="10.00">&#45;system.cpp</text>
</a>
</g>
</g>
<!-- Node1&#45;&gt;Node19 -->
<g id="edge36_Node000001_Node000019" class="edge">
<title>Node1&#45;&gt;Node19</title>
<g id="a_edge36_Node000001_Node000019"><a xlink:title=" ">
<path fill="none" stroke="#63b8ff" d="M1531.04,-320.54C1532.4,-302.01 1536.66,-274.69 1549.5,-254.75 1597.66,-179.96 1688.96,-125.13 1743.1,-97.45"/>
<polygon fill="#63b8ff" stroke="#63b8ff" points="1527.54,-320.35 1530.56,-330.5 1534.53,-320.69 1527.54,-320.35"/>
</a>
</g>
</g>
<!-- Node20 -->
<g id="Node000020" class="node">
<title>Node20</title>
<g id="a_Node000020"><a xlink:href="../../d9/d06/render-pipeline_8hpp.html" target="_top" xlink:title=" ">
<polygon fill="white" stroke="#666666" points="1495.5,-290.88 1395.5,-290.88 1395.5,-260.38 1495.5,-260.38 1495.5,-290.88"/>
<text text-anchor="start" x="1403.5" y="-277.38" font-family="Helvetica,sans-Serif" font-size="10.00">engine/core/layers</text>
<text text-anchor="middle" x="1445.5" y="-266.12" font-family="Helvetica,sans-Serif" font-size="10.00">/render&#45;pipeline.hpp</text>
</a>
</g>
</g>
<!-- Node1&#45;&gt;Node20 -->
<g id="edge23_Node000001_Node000020" class="edge">
<title>Node1&#45;&gt;Node20</title>
<g id="a_edge23_Node000001_Node000020"><a xlink:title=" ">
<path fill="none" stroke="#63b8ff" d="M1509.54,-325.22C1495.84,-314.82 1478.07,-301.34 1464.73,-291.22"/>
<polygon fill="#63b8ff" stroke="#63b8ff" points="1507.39,-327.98 1517.48,-331.24 1511.62,-322.41 1507.39,-327.98"/>
</a>
</g>
</g>
<!-- Node23 -->
<g id="Node000023" class="node">
<title>Node23</title>
<g id="a_Node000023"><a xlink:href="../../d4/d7c/deferred-resolve_8cpp.html" target="_top" xlink:title=" ">
<polygon fill="white" stroke="#666666" points="1670.88,-290.88 1558.12,-290.88 1558.12,-260.38 1670.88,-260.38 1670.88,-290.88"/>
<text text-anchor="start" x="1566.12" y="-277.38" font-family="Helvetica,sans-Serif" font-size="10.00">engine/render/deferred</text>
<text text-anchor="middle" x="1614.5" y="-266.12" font-family="Helvetica,sans-Serif" font-size="10.00">&#45;resolve.cpp</text>
</a>
</g>
</g>
<!-- Node1&#45;&gt;Node23 -->
<g id="edge30_Node000001_Node000023" class="edge">
<title>Node1&#45;&gt;Node23</title>
<g id="a_edge30_Node000001_Node000023"><a xlink:title=" ">
<path fill="none" stroke="#63b8ff" d="M1551.21,-325.22C1564.76,-314.82 1582.31,-301.34 1595.5,-291.22"/>
<polygon fill="#63b8ff" stroke="#63b8ff" points="1549.18,-322.37 1543.38,-331.23 1553.44,-327.92 1549.18,-322.37"/>
</a>
</g>
</g>
<!-- Node24 -->
<g id="Node000024" class="node">
<title>Node24</title>
<g id="a_Node000024"><a xlink:href="../../d6/d54/renderer_8cpp.html" target="_top" xlink:title=" ">
<polygon fill="white" stroke="#666666" points="1819.88,-285.25 1689.12,-285.25 1689.12,-266 1819.88,-266 1819.88,-285.25"/>
<text text-anchor="middle" x="1754.5" y="-271.75" font-family="Helvetica,sans-Serif" font-size="10.00">engine/render/renderer.cpp</text>
</a>
</g>
</g>
<!-- Node1&#45;&gt;Node24 -->
<g id="edge31_Node000001_Node000024" class="edge">
<title>Node1&#45;&gt;Node24</title>
<g id="a_edge31_Node000001_Node000024"><a xlink:title=" ">
<path fill="none" stroke="#63b8ff" d="M1572.97,-328.89C1616.71,-316.3 1683.85,-296.97 1723.04,-285.68"/>
<polygon fill="#63b8ff" stroke="#63b8ff" points="1572.21,-325.47 1563.57,-331.6 1574.15,-332.2 1572.21,-325.47"/>
</a>
</g>
</g>
<!-- Node25 -->
<g id="Node000025" class="node">
<title>Node25</title>
<g id="a_Node000025"><a xlink:href="../../d8/dcb/emissive-render-system_8cpp.html" target="_top" xlink:title=" ">
<polygon fill="white" stroke="#666666" points="1967.5,-296.5 1837.5,-296.5 1837.5,-254.75 1967.5,-254.75 1967.5,-296.5"/>
<text text-anchor="start" x="1845.5" y="-283" font-family="Helvetica,sans-Serif" font-size="10.00">engine/subsystems/render</text>
<text text-anchor="start" x="1845.5" y="-271.75" font-family="Helvetica,sans-Serif" font-size="10.00">/detail/emissive&#45;render</text>
<text text-anchor="middle" x="1902.5" y="-260.5" font-family="Helvetica,sans-Serif" font-size="10.00">&#45;system.cpp</text>
</a>
</g>
</g>
<!-- Node1&#45;&gt;Node25 -->
<g id="edge34_Node000001_Node000025" class="edge">
<title>Node1&#45;&gt;Node25</title>
<g id="a_edge34_Node000001_Node000025"><a xlink:title=" ">
<path fill="none" stroke="#63b8ff" d="M1599.03,-333.11C1659.69,-325.49 1750.44,-312.77 1828.5,-296.5 1831.36,-295.9 1834.28,-295.26 1837.23,-294.59"/>
<polygon fill="#63b8ff" stroke="#63b8ff" points="1598.69,-329.63 1589.2,-334.34 1599.55,-336.58 1598.69,-329.63"/>
</a>
</g>
</g>
<!-- Node26 -->
<g id="Node000026" class="node">
<title>Node26</title>
<g id="a_Node000026"><a xlink:href="../../d1/d62/opaque-render-system_8cpp.html" target="_top" xlink:title=" ">
<polygon fill="white" stroke="#666666" points="2145.12,-290.88 1985.88,-290.88 1985.88,-260.38 2145.12,-260.38 2145.12,-290.88"/>
<text text-anchor="start" x="1993.88" y="-277.38" font-family="Helvetica,sans-Serif" font-size="10.00">engine/subsystems/render</text>
<text text-anchor="middle" x="2065.5" y="-266.12" font-family="Helvetica,sans-Serif" font-size="10.00">/detail/opaque&#45;render&#45;system.cpp</text>
</a>
</g>
</g>
<!-- Node1&#45;&gt;Node26 -->
<g id="edge35_Node000001_Node000026" class="edge">
<title>Node1&#45;&gt;Node26</title>
<g id="a_edge35_Node000001_Node000026"><a xlink:title=" ">
<path fill="none" stroke="#63b8ff" d="M1598.86,-336.84C1686.67,-330.76 1843.6,-317.91 1976.5,-296.5 1985.57,-295.04 1995.09,-293.22 2004.4,-291.28"/>
<polygon fill="#63b8ff" stroke="#63b8ff" points="1598.71,-333.35 1588.97,-337.52 1599.18,-340.33 1598.71,-333.35"/>
</a>
</g>
</g>
<!-- Node3 -->
<g id="Node000003" class="node">
<title>Node3</title>
<g id="a_Node000003"><a xlink:href="../../d0/d86/camera-movement_8hpp.html" target="_top" xlink:title=" ">
<polygon fill="white" stroke="#666666" points="953.25,-85.75 797.75,-85.75 797.75,-66.5 953.25,-66.5 953.25,-85.75"/>
<text text-anchor="middle" x="875.5" y="-72.25" font-family="Helvetica,sans-Serif" font-size="10.00">d3d_test/camera&#45;movement.hpp</text>
</a>
</g>
</g>
<!-- Node2&#45;&gt;Node3 -->
<g id="edge2_Node000002_Node000003" class="edge">
<title>Node2&#45;&gt;Node3</title>
<g id="a_edge2_Node000002_Node000003"><a xlink:title=" ">
<path fill="none" stroke="#63b8ff" d="M1128.95,-135.59C1068.78,-121.71 969.61,-98.83 914.86,-86.2"/>
<polygon fill="#63b8ff" stroke="#63b8ff" points="1128.06,-138.98 1138.59,-137.81 1129.64,-132.16 1128.06,-138.98"/>
</a>
</g>
</g>
<!-- Node6 -->
<g id="Node000006" class="node">
<title>Node6</title>
<g id="a_Node000006"><a xlink:href="../../dc/dfb/controller_8hpp.html" target="_top" xlink:title=" ">
<polygon fill="white" stroke="#666666" points="1517.62,-85.75 1403.38,-85.75 1403.38,-66.5 1517.62,-66.5 1517.62,-85.75"/>
<text text-anchor="middle" x="1460.5" y="-72.25" font-family="Helvetica,sans-Serif" font-size="10.00">d3d_test/controller.hpp</text>
</a>
</g>
</g>
<!-- Node2&#45;&gt;Node6 -->
<g id="edge5_Node000002_Node000006" class="edge">
<title>Node2&#45;&gt;Node6</title>
<g id="a_edge5_Node000002_Node000006"><a xlink:title=" ">
<path fill="none" stroke="#63b8ff" d="M1232.93,-135.74C1276.57,-126.11 1339.77,-111.62 1394.5,-97 1406.75,-93.73 1420.18,-89.76 1431.7,-86.23"/>
<polygon fill="#63b8ff" stroke="#63b8ff" points="1232.21,-132.32 1223.19,-137.88 1233.71,-139.15 1232.21,-132.32"/>
</a>
</g>
</g>
<!-- Node7 -->
<g id="Node000007" class="node">
<title>Node7</title>
<g id="a_Node000007"><a xlink:href="../../d9/d0f/main_8cc.html" target="_top" xlink:title=" ">
<polygon fill="white" stroke="#666666" points="1590.62,-19.25 1500.38,-19.25 1500.38,0 1590.62,0 1590.62,-19.25"/>
<text text-anchor="middle" x="1545.5" y="-5.75" font-family="Helvetica,sans-Serif" font-size="10.00">d3d_test/main.cc</text>
</a>
</g>
</g>
<!-- Node2&#45;&gt;Node7 -->
<g id="edge8_Node000002_Node000007" class="edge">
<title>Node2&#45;&gt;Node7</title>
<g id="a_edge8_Node000002_Node000007"><a xlink:title=" ">
<path fill="none" stroke="#63b8ff" d="M1249.04,-141.41C1344.46,-132.77 1506.53,-115.57 1526.5,-97 1548.43,-76.61 1547.97,-37.17 1546.51,-19.53"/>
<polygon fill="#63b8ff" stroke="#63b8ff" points="1248.9,-137.91 1239.25,-142.29 1249.52,-144.88 1248.9,-137.91"/>
</a>
</g>
</g>
<!-- Node8 -->
<g id="Node000008" class="node">
<title>Node8</title>
<g id="a_Node000008"><a xlink:href="../../da/df5/object-editor_8hpp.html" target="_top" xlink:title=" ">
<polygon fill="white" stroke="#666666" points="615.38,-85.75 487.62,-85.75 487.62,-66.5 615.38,-66.5 615.38,-85.75"/>
<text text-anchor="middle" x="551.5" y="-72.25" font-family="Helvetica,sans-Serif" font-size="10.00">d3d_test/object&#45;editor.hpp</text>
</a>
</g>
</g>
<!-- Node2&#45;&gt;Node8 -->
<g id="edge9_Node000002_Node000008" class="edge">
<title>Node2&#45;&gt;Node8</title>
<g id="a_edge9_Node000002_Node000008"><a xlink:title=" ">
<path fill="none" stroke="#63b8ff" d="M1110.09,-144.88C1004.49,-140.39 797.5,-128.13 624.5,-97 609.76,-94.35 593.67,-90.12 580.36,-86.24"/>
<polygon fill="#63b8ff" stroke="#63b8ff" points="1109.88,-148.37 1120.02,-145.29 1110.17,-141.38 1109.88,-148.37"/>
</a>
</g>
</g>
<!-- Node11 -->
<g id="Node000011" class="node">
<title>Node11</title>
<g id="a_Node000011"><a xlink:href="../../d9/d55/scene-viewer_8hpp.html" target="_top" xlink:title=" ">
<polygon fill="white" stroke="#666666" points="1103.62,-85.75 971.38,-85.75 971.38,-66.5 1103.62,-66.5 1103.62,-85.75"/>
<text text-anchor="middle" x="1037.5" y="-72.25" font-family="Helvetica,sans-Serif" font-size="10.00">d3d_test/scene&#45;viewer.hpp</text>
</a>
</g>
</g>
<!-- Node2&#45;&gt;Node11 -->
<g id="edge13_Node000002_Node000011" class="edge">
<title>Node2&#45;&gt;Node11</title>
<g id="a_edge13_Node000002_Node000011"><a xlink:title=" ">
<path fill="none" stroke="#63b8ff" d="M1151.11,-133.23C1122.7,-119.2 1079.84,-98.04 1055.7,-86.11"/>
<polygon fill="#63b8ff" stroke="#63b8ff" points="1149.35,-136.27 1159.87,-137.56 1152.45,-129.99 1149.35,-136.27"/>
</a>
</g>
</g>
<!-- Node12 -->
<g id="Node000012" class="node">
<title>Node12</title>
<g id="a_Node000012"><a xlink:href="../../da/d5c/engine_8cpp.html" target="_top" xlink:title=" ">
<polygon fill="white" stroke="#666666" points="1237.38,-85.75 1121.62,-85.75 1121.62,-66.5 1237.38,-66.5 1237.38,-85.75"/>
<text text-anchor="middle" x="1179.5" y="-72.25" font-family="Helvetica,sans-Serif" font-size="10.00">engine/core/engine.cpp</text>
</a>
</g>
</g>
<!-- Node2&#45;&gt;Node12 -->
<g id="edge15_Node000002_Node000012" class="edge">
<title>Node2&#45;&gt;Node12</title>
<g id="a_edge15_Node000002_Node000012"><a xlink:title=" ">
<path fill="none" stroke="#63b8ff" d="M1179.5,-126.87C1179.5,-113.39 1179.5,-96.39 1179.5,-86.16"/>
<polygon fill="#63b8ff" stroke="#63b8ff" points="1176,-126.86 1179.5,-136.86 1183,-126.86 1176,-126.86"/>
</a>
</g>
</g>
<!-- Node13 -->
<g id="Node000013" class="node">
<title>Node13</title>
<g id="a_Node000013"><a xlink:href="../../d1/da2/deferred-hdr-render-pipeline_8cpp.html" target="_top" xlink:title=" ">
<polygon fill="white" stroke="#666666" points="1703.88,-91.38 1573.12,-91.38 1573.12,-60.88 1703.88,-60.88 1703.88,-91.38"/>
<text text-anchor="start" x="1581.12" y="-77.88" font-family="Helvetica,sans-Serif" font-size="10.00">engine/direct3d11/deferred</text>
<text text-anchor="middle" x="1638.5" y="-66.62" font-family="Helvetica,sans-Serif" font-size="10.00">&#45;hdr&#45;render&#45;pipeline.cpp</text>
</a>
</g>
</g>
<!-- Node2&#45;&gt;Node13 -->
<g id="edge16_Node000002_Node000013" class="edge">
<title>Node2&#45;&gt;Node13</title>
<g id="a_edge16_Node000002_Node000013"><a xlink:title=" ">
<path fill="none" stroke="#63b8ff" d="M1249.15,-140.47C1325.65,-132.46 1451.95,-117.57 1559.5,-97 1567.28,-95.51 1575.43,-93.72 1583.43,-91.84"/>
<polygon fill="#63b8ff" stroke="#63b8ff" points="1248.87,-136.98 1239.28,-141.49 1249.59,-143.94 1248.87,-136.98"/>
</a>
</g>
</g>
<!-- Node2&#45;&gt;Node14 -->
<g id="edge17_Node000002_Node000014" class="edge">
<title>Node2&#45;&gt;Node14</title>
<g id="a_edge17_Node000002_Node000014"><a xlink:title=" ">
<path fill="none" stroke="#63b8ff" d="M1109.95,-145.46C911.41,-140.08 344.52,-122.84 160.5,-97 151.2,-95.69 141.41,-93.85 131.93,-91.82"/>
<polygon fill="#63b8ff" stroke="#63b8ff" points="1109.77,-148.95 1119.86,-145.72 1109.96,-141.96 1109.77,-148.95"/>
</a>
</g>
</g>
<!-- Node2&#45;&gt;Node15 -->
<g id="edge18_Node000002_Node000015" class="edge">
<title>Node2&#45;&gt;Node15</title>
<g id="a_edge18_Node000002_Node000015"><a xlink:title=" ">
<path fill="none" stroke="#63b8ff" d="M1110.05,-144.06C917.63,-135.12 386.62,-109.61 308.5,-97 305.61,-96.53 302.67,-96 299.71,-95.42"/>
<polygon fill="#63b8ff" stroke="#63b8ff" points="1109.75,-147.55 1119.9,-144.52 1110.08,-140.56 1109.75,-147.55"/>
</a>
</g>
</g>
<!-- Node16 -->
<g id="Node000016" class="node">
<title>Node16</title>
<g id="a_Node000016"><a xlink:href="../../d2/d11/emissive-particle-render-system_8cpp.html" target="_top" xlink:title=" ">
<polygon fill="white" stroke="#666666" points="1385.5,-97 1255.5,-97 1255.5,-55.25 1385.5,-55.25 1385.5,-97"/>
<text text-anchor="start" x="1263.5" y="-83.5" font-family="Helvetica,sans-Serif" font-size="10.00">engine/subsystems/render</text>
<text text-anchor="start" x="1263.5" y="-72.25" font-family="Helvetica,sans-Serif" font-size="10.00">/detail/emissive&#45;particle</text>
<text text-anchor="middle" x="1320.5" y="-61" font-family="Helvetica,sans-Serif" font-size="10.00">&#45;render&#45;system.cpp</text>
</a>
</g>
</g>
<!-- Node2&#45;&gt;Node16 -->
<g id="edge19_Node000002_Node000016" class="edge">
<title>Node2&#45;&gt;Node16</title>
<g id="a_edge19_Node000002_Node000016"><a xlink:title=" ">
<path fill="none" stroke="#63b8ff" d="M1207.94,-133.11C1228.52,-122.87 1256.65,-108.88 1279.63,-97.45"/>
<polygon fill="#63b8ff" stroke="#63b8ff" points="1206.4,-129.96 1199,-137.55 1209.51,-136.23 1206.4,-129.96"/>
</a>
</g>
</g>
<!-- Node17 -->
<g id="Node000017" class="node">
<title>Node17</title>
<g id="a_Node000017"><a xlink:href="../../df/d58/grass-render-system_8cpp.html" target="_top" xlink:title=" ">
<polygon fill="white" stroke="#666666" points="469.38,-91.38 317.62,-91.38 317.62,-60.88 469.38,-60.88 469.38,-91.38"/>
<text text-anchor="start" x="325.62" y="-77.88" font-family="Helvetica,sans-Serif" font-size="10.00">engine/subsystems/render</text>
<text text-anchor="middle" x="393.5" y="-66.62" font-family="Helvetica,sans-Serif" font-size="10.00">/detail/grass&#45;render&#45;system.cpp</text>
</a>
</g>
</g>
<!-- Node2&#45;&gt;Node17 -->
<g id="edge20_Node000002_Node000017" class="edge">
<title>Node2&#45;&gt;Node17</title>
<g id="a_edge20_Node000002_Node000017"><a xlink:title=" ">
<path fill="none" stroke="#63b8ff" d="M1109.84,-143.66C957.52,-135.59 598.86,-115.27 478.5,-97 469.51,-95.64 460.06,-93.82 450.87,-91.84"/>
<polygon fill="#63b8ff" stroke="#63b8ff" points="1109.63,-147.16 1119.8,-144.19 1110,-140.17 1109.63,-147.16"/>
</a>
</g>
</g>
<!-- Node18 -->
<g id="Node000018" class="node">
<title>Node18</title>
<g id="a_Node000018"><a xlink:href="../../d8/d9c/light-render-system_8cpp.html" target="_top" xlink:title=" ">
<polygon fill="white" stroke="#666666" points="779.38,-91.38 633.62,-91.38 633.62,-60.88 779.38,-60.88 779.38,-91.38"/>
<text text-anchor="start" x="641.62" y="-77.88" font-family="Helvetica,sans-Serif" font-size="10.00">engine/subsystems/render</text>
<text text-anchor="middle" x="706.5" y="-66.62" font-family="Helvetica,sans-Serif" font-size="10.00">/detail/light&#45;render&#45;system.cpp</text>
</a>
</g>
</g>
<!-- Node2&#45;&gt;Node18 -->
<g id="edge21_Node000002_Node000018" class="edge">
<title>Node2&#45;&gt;Node18</title>
<g id="a_edge21_Node000002_Node000018"><a xlink:title=" ">
<path fill="none" stroke="#63b8ff" d="M1110.04,-140.65C1031.59,-132.67 900.27,-117.66 788.5,-97 780.43,-95.51 771.97,-93.72 763.68,-91.83"/>
<polygon fill="#63b8ff" stroke="#63b8ff" points="1109.42,-144.11 1119.72,-141.63 1110.12,-137.14 1109.42,-144.11"/>
</a>
</g>
</g>
<!-- Node2&#45;&gt;Node19 -->
<g id="edge22_Node000002_Node000019" class="edge">
<title>Node2&#45;&gt;Node19</title>
<g id="a_edge22_Node000002_Node000019"><a xlink:title=" ">
<path fill="none" stroke="#63b8ff" d="M1248.64,-142.19C1371.99,-132.92 1625.24,-112.72 1712.5,-97 1715.38,-96.48 1718.31,-95.9 1721.26,-95.28"/>
<polygon fill="#63b8ff" stroke="#63b8ff" points="1248.7,-138.68 1238.99,-142.91 1249.22,-145.66 1248.7,-138.68"/>
</a>
</g>
</g>
<!-- Node4 -->
<g id="Node000004" class="node">
<title>Node4</title>
<g id="a_Node000004"><a xlink:href="../../d5/dbb/camera-movement_8cpp.html" target="_top" xlink:title=" ">
<polygon fill="white" stroke="#666666" points="953.25,-19.25 797.75,-19.25 797.75,0 953.25,0 953.25,-19.25"/>
<text text-anchor="middle" x="875.5" y="-5.75" font-family="Helvetica,sans-Serif" font-size="10.00">d3d_test/camera&#45;movement.cpp</text>
</a>
</g>
</g>
<!-- Node3&#45;&gt;Node4 -->
<g id="edge3_Node000003_Node000004" class="edge">
<title>Node3&#45;&gt;Node4</title>
<g id="a_edge3_Node000003_Node000004"><a xlink:title=" ">
<path fill="none" stroke="#63b8ff" d="M875.5,-54.65C875.5,-42.82 875.5,-28.54 875.5,-19.52"/>
<polygon fill="#63b8ff" stroke="#63b8ff" points="872,-54.64 875.5,-64.64 879,-54.64 872,-54.64"/>
</a>
</g>
</g>
<!-- Node5 -->
<g id="Node000005" class="node">
<title>Node5</title>
<g id="a_Node000005"><a xlink:href="../../d1/d47/controller_8cpp.html" target="_top" xlink:title=" ">
<polygon fill="white" stroke="#666666" points="1090.62,-19.25 976.38,-19.25 976.38,0 1090.62,0 1090.62,-19.25"/>
<text text-anchor="middle" x="1033.5" y="-5.75" font-family="Helvetica,sans-Serif" font-size="10.00">d3d_test/controller.cpp</text>
</a>
</g>
</g>
<!-- Node3&#45;&gt;Node5 -->
<g id="edge4_Node000003_Node000005" class="edge">
<title>Node3&#45;&gt;Node5</title>
<g id="a_edge4_Node000003_Node000005"><a xlink:title=" ">
<path fill="none" stroke="#63b8ff" d="M908.46,-61.67C939.31,-49.08 984.54,-30.61 1011.31,-19.68"/>
<polygon fill="#63b8ff" stroke="#63b8ff" points="907.14,-58.43 899.2,-65.45 909.78,-64.91 907.14,-58.43"/>
</a>
</g>
</g>
<!-- Node6&#45;&gt;Node5 -->
<g id="edge6_Node000006_Node000005" class="edge">
<title>Node6&#45;&gt;Node5</title>
<g id="a_edge6_Node000006_Node000005"><a xlink:title=" ">
<path fill="none" stroke="#63b8ff" d="M1423.21,-62.69C1413.91,-59.93 1403.91,-57.23 1394.5,-55.25 1288.53,-32.91 1162.53,-20.48 1090.89,-14.7"/>
<polygon fill="#63b8ff" stroke="#63b8ff" points="1422.08,-66.01 1432.67,-65.61 1424.14,-59.32 1422.08,-66.01"/>
</a>
</g>
</g>
<!-- Node6&#45;&gt;Node7 -->
<g id="edge7_Node000006_Node000007" class="edge">
<title>Node6&#45;&gt;Node7</title>
<g id="a_edge7_Node000006_Node000007"><a xlink:title=" ">
<path fill="none" stroke="#63b8ff" d="M1481.18,-59.43C1497.58,-46.99 1519.93,-30.03 1533.51,-19.73"/>
<polygon fill="#63b8ff" stroke="#63b8ff" points="1479.38,-56.41 1473.52,-65.24 1483.61,-61.98 1479.38,-56.41"/>
</a>
</g>
</g>
<!-- Node8&#45;&gt;Node5 -->
<g id="edge10_Node000008_Node000005" class="edge">
<title>Node8&#45;&gt;Node5</title>
<g id="a_edge10_Node000008_Node000005"><a xlink:title=" ">
<path fill="none" stroke="#63b8ff" d="M591.78,-62.92C602.35,-60.06 613.79,-57.27 624.5,-55.25 772.97,-27.32 812.4,-36.36 962.5,-19.25 966.94,-18.74 971.54,-18.21 976.16,-17.66"/>
<polygon fill="#63b8ff" stroke="#63b8ff" points="590.88,-59.54 582.19,-65.61 592.76,-66.28 590.88,-59.54"/>
</a>
</g>
</g>
<!-- Node9 -->
<g id="Node000009" class="node">
<title>Node9</title>
<g id="a_Node000009"><a xlink:href="../../d4/d94/object-editor_8cpp.html" target="_top" xlink:title=" ">
<polygon fill="white" stroke="#666666" points="541.38,-19.25 413.62,-19.25 413.62,0 541.38,0 541.38,-19.25"/>
<text text-anchor="middle" x="477.5" y="-5.75" font-family="Helvetica,sans-Serif" font-size="10.00">d3d_test/object&#45;editor.cpp</text>
</a>
</g>
</g>
<!-- Node8&#45;&gt;Node9 -->
<g id="edge11_Node000008_Node000009" class="edge">
<title>Node8&#45;&gt;Node9</title>
<g id="a_edge11_Node000008_Node000009"><a xlink:title=" ">
<path fill="none" stroke="#63b8ff" d="M532.64,-58.69C518.35,-46.23 499.26,-29.59 487.7,-19.52"/>
<polygon fill="#63b8ff" stroke="#63b8ff" points="530.23,-61.23 540.07,-65.16 534.83,-55.95 530.23,-61.23"/>
</a>
</g>
</g>
<!-- Node10 -->
<g id="Node000010" class="node">
<title>Node10</title>
<g id="a_Node000010"><a xlink:href="../../d0/d38/scene-viewer_8cpp.html" target="_top" xlink:title=" ">
<polygon fill="white" stroke="#666666" points="691.62,-19.25 559.38,-19.25 559.38,0 691.62,0 691.62,-19.25"/>
<text text-anchor="middle" x="625.5" y="-5.75" font-family="Helvetica,sans-Serif" font-size="10.00">d3d_test/scene&#45;viewer.cpp</text>
</a>
</g>
</g>
<!-- Node8&#45;&gt;Node10 -->
<g id="edge12_Node000008_Node000010" class="edge">
<title>Node8&#45;&gt;Node10</title>
<g id="a_edge12_Node000008_Node000010"><a xlink:title=" ">
<path fill="none" stroke="#63b8ff" d="M570.36,-58.69C584.65,-46.23 603.74,-29.59 615.3,-19.52"/>
<polygon fill="#63b8ff" stroke="#63b8ff" points="568.17,-55.95 562.93,-65.16 572.77,-61.23 568.17,-55.95"/>
</a>
</g>
</g>
<!-- Node11&#45;&gt;Node5 -->
<g id="edge14_Node000011_Node000005" class="edge">
<title>Node11&#45;&gt;Node5</title>
<g id="a_edge14_Node000011_Node000005"><a xlink:title=" ">
<path fill="none" stroke="#63b8ff" d="M1036.25,-55.02C1035.52,-43.12 1034.62,-28.63 1034.05,-19.52"/>
<polygon fill="#63b8ff" stroke="#63b8ff" points="1032.74,-54.88 1036.85,-64.65 1039.72,-54.45 1032.74,-54.88"/>
</a>
</g>
</g>
<!-- Node21 -->
<g id="Node000021" class="node">
<title>Node21</title>
<g id="a_Node000021"><a xlink:href="../../d4/d87/layers_8hpp.html" target="_top" xlink:title=" ">
<polygon fill="white" stroke="#666666" points="1389.88,-218.75 1277.12,-218.75 1277.12,-199.5 1389.88,-199.5 1389.88,-218.75"/>
<text text-anchor="middle" x="1333.5" y="-205.25" font-family="Helvetica,sans-Serif" font-size="10.00">engine/core/layers.hpp</text>
</a>
</g>
</g>
<!-- Node20&#45;&gt;Node21 -->
<g id="edge24_Node000020_Node000021" class="edge">
<title>Node20&#45;&gt;Node21</title>
<g id="a_edge24_Node000020_Node000021"><a xlink:title=" ">
<path fill="none" stroke="#63b8ff" d="M1410.13,-254.26C1389.64,-242.46 1364.87,-228.19 1349.14,-219.13"/>
<polygon fill="#63b8ff" stroke="#63b8ff" points="1408.36,-257.28 1418.77,-259.23 1411.85,-251.21 1408.36,-257.28"/>
</a>
</g>
</g>
<!-- Node22 -->
<g id="Node000022" class="node">
<title>Node22</title>
<g id="a_Node000022"><a xlink:href="../../db/df9/deferred-hdr-render-pipeline_8hpp.html" target="_top" xlink:title=" ">
<polygon fill="white" stroke="#666666" points="1510.88,-163.5 1380.12,-163.5 1380.12,-133 1510.88,-133 1510.88,-163.5"/>
<text text-anchor="start" x="1388.12" y="-150" font-family="Helvetica,sans-Serif" font-size="10.00">engine/direct3d11/deferred</text>
<text text-anchor="middle" x="1445.5" y="-138.75" font-family="Helvetica,sans-Serif" font-size="10.00">&#45;hdr&#45;render&#45;pipeline.hpp</text>
</a>
</g>
</g>
<!-- Node20&#45;&gt;Node22 -->
<g id="edge26_Node000020_Node000022" class="edge">
<title>Node20&#45;&gt;Node22</title>
<g id="a_edge26_Node000020_Node000022"><a xlink:title=" ">
<path fill="none" stroke="#63b8ff" d="M1445.5,-248.8C1445.5,-223.12 1445.5,-184.65 1445.5,-163.85"/>
<polygon fill="#63b8ff" stroke="#63b8ff" points="1442,-248.73 1445.5,-258.73 1449,-248.73 1442,-248.73"/>
</a>
</g>
</g>
<!-- Node21&#45;&gt;Node2 -->
<g id="edge25_Node000021_Node000002" class="edge">
<title>Node21&#45;&gt;Node2</title>
<g id="a_edge25_Node000021_Node000002"><a xlink:title=" ">
<path fill="none" stroke="#63b8ff" d="M1299.24,-195.03C1270.07,-183.88 1228.92,-168.15 1203.25,-158.33"/>
<polygon fill="#63b8ff" stroke="#63b8ff" points="1297.77,-198.21 1308.36,-198.51 1300.27,-191.67 1297.77,-198.21"/>
</a>
</g>
</g>
<!-- Node22&#45;&gt;Node6 -->
<g id="edge27_Node000022_Node000006" class="edge">
<title>Node22&#45;&gt;Node6</title>
<g id="a_edge27_Node000022_Node000006"><a xlink:title=" ">
<path fill="none" stroke="#63b8ff" d="M1451.01,-121.48C1453.69,-108.98 1456.72,-94.77 1458.63,-85.88"/>
<polygon fill="#63b8ff" stroke="#63b8ff" points="1447.59,-120.73 1448.92,-131.24 1454.44,-122.19 1447.59,-120.73"/>
</a>
</g>
</g>
<!-- Node22&#45;&gt;Node7 -->
<g id="edge28_Node000022_Node000007" class="edge">
<title>Node22&#45;&gt;Node7</title>
<g id="a_edge28_Node000022_Node000007"><a xlink:title=" ">
<path fill="none" stroke="#63b8ff" d="M1522.63,-143.35C1636.48,-136.8 1838.51,-121.81 1860.5,-97 1872.81,-83.11 1872.67,-69.26 1860.5,-55.25 1826.14,-15.68 1669.66,-10.25 1590.97,-10.09"/>
<polygon fill="#63b8ff" stroke="#63b8ff" points="1522.52,-139.85 1512.74,-143.91 1522.92,-146.84 1522.52,-139.85"/>
</a>
</g>
</g>
<!-- Node22&#45;&gt;Node13 -->
<g id="edge29_Node000022_Node000013" class="edge">
<title>Node22&#45;&gt;Node13</title>
<g id="a_edge29_Node000022_Node000013"><a xlink:title=" ">
<path fill="none" stroke="#63b8ff" d="M1496.38,-128.76C1528.16,-117.22 1568.51,-102.55 1598.09,-91.81"/>
<polygon fill="#63b8ff" stroke="#63b8ff" points="1495.59,-125.33 1487.38,-132.03 1497.98,-131.91 1495.59,-125.33"/>
</a>
</g>
</g>
</g>
</svg>

<g id="navigator" transform="translate(0 0)" fill="#404254">
  <rect fill="#f2f5e9" fill-opacity="0.5" stroke="#606060" stroke-width=".5" x="0" y="0" width="60" height="60"/>
  <use id="zoomplus" xlink:href="#zoomPlus" x="17" y="9" onmousedown="handleZoom(evt,'in')"/>
  <use id="zoomminus" xlink:href="#zoomMin" x="42" y="9" onmousedown="handleZoom(evt,'out')"/>
  <use id="reset" xlink:href="#resetDef" x="30" y="36" onmousedown="handleReset()"/>
   <use id="arrowup" xlink:href="#arrowUp" x="0" y="0" onmousedown="handlePan(0,-1)"/>
  <use id="arrowright" xlink:href="#arrowRight" x="0" y="0" onmousedown="handlePan(1,0)"/>
  <use id="arrowdown" xlink:href="#arrowDown" x="0" y="0" onmousedown="handlePan(0,1)"/>
  <use id="arrowleft" xlink:href="#arrowLeft" x="0" y="0" onmousedown="handlePan(-1,0)"/>
</g>
<svg viewBox="0 0 15 15" width="100%" height="30px" preserveAspectRatio="xMaxYMin meet">
 <g id="arrow_out" transform="scale(0.3 0.3)">
  <a xlink:href="scene_8hpp__dep__incl_org.svg" target="_base">
   <rect id="button" ry="5" rx="5" y="6" x="6" height="38" width="38"
        fill="#f2f5e9" fill-opacity="0.5" stroke="#606060" stroke-width="1.0"/>
   <path id="arrow"
     d="M 11.500037,31.436501 C 11.940474,20.09759 22.043105,11.32322 32.158766,21.979434 L 37.068811,17.246167 C 37.068811,17.246167 37.088388,32 37.088388,32 L 22.160133,31.978069 C 22.160133,31.978069 26.997745,27.140456 26.997745,27.140456 C 18.528582,18.264221 13.291696,25.230495 11.500037,31.436501 z"
     style="fill:#404040;"/>
  </a>
 </g>
</svg>

<style type='text/css'>
<![CDATA[
[data-mouse-over-selected='false'] { opacity: 0.7; }
[data-mouse-over-selected='true']  { opacity: 1.0; }
]]>
</style>
<script type="application/ecmascript"><![CDATA[
document.addEventListener('DOMContentLoaded', (event) => {
  highlightEdges();
  highlightAdjacentNodes();
});
]]></script>
</svg>
