<?xml version="1.0" encoding="UTF-8" standalone="no"?>
<!DOCTYPE svg PUBLIC "-//W3C//DTD SVG 1.1//EN"
 "http://www.w3.org/Graphics/SVG/1.1/DTD/svg11.dtd">
<!-- Generated by graphviz version 8.1.0 (20230707.0739)
 -->
<!-- Title: engine/components/components.hpp Pages: 1 -->
<svg width="2671pt" height="138pt"
 viewBox="0.00 0.00 2670.75 138.25" xmlns="http://www.w3.org/2000/svg" xmlns:xlink="http://www.w3.org/1999/xlink">
<g id="graph0" class="graph" transform="scale(1 1) rotate(0) translate(4 134.25)">
<title>engine/components/components.hpp</title>
<!-- Node1 -->
<g id="Node000001" class="node">
<title>Node1</title>
<g id="a_Node000001"><a xlink:title=" ">
<polygon fill="#999999" stroke="#666666" points="1363.5,-130.25 1188.5,-130.25 1188.5,-111 1363.5,-111 1363.5,-130.25"/>
<text text-anchor="middle" x="1276" y="-116.75" font-family="Helvetica,sans-Serif" font-size="10.00">engine/components/components.hpp</text>
</a>
</g>
</g>
<!-- Node2 -->
<g id="Node000002" class="node">
<title>Node2</title>
<g id="a_Node000002"><a xlink:href="../../db/d6e/library-pch_8hpp.html" target="_top" xlink:title=" ">
<polygon fill="white" stroke="#666666" points="1332,-75 1220,-75 1220,-55.75 1332,-55.75 1332,-75"/>
<text text-anchor="middle" x="1276" y="-61.5" font-family="Helvetica,sans-Serif" font-size="10.00">include/library&#45;pch.hpp</text>
</a>
</g>
</g>
<!-- Node1&#45;&gt;Node2 -->
<g id="edge1_Node000001_Node000002" class="edge">
<title>Node1&#45;&gt;Node2</title>
<g id="a_edge1_Node000001_Node000002"><a xlink:title=" ">
<path fill="none" stroke="#63b8ff" d="M1276,-110.83C1276,-104.16 1276,-94.74 1276,-86.28"/>
<polygon fill="#63b8ff" stroke="#63b8ff" points="1279.5,-86.36 1276,-76.36 1272.5,-86.36 1279.5,-86.36"/>
</a>
</g>
</g>
<!-- Node3 -->
<g id="Node000003" class="node">
<title>Node3</title>
<g id="a_Node000003"><a xlink:title=" ">
<polygon fill="#e0e0e0" stroke="#999999" points="70,-19.75 0,-19.75 0,-0.5 70,-0.5 70,-19.75"/>
<text text-anchor="middle" x="35" y="-6.25" font-family="Helvetica,sans-Serif" font-size="10.00">entt/entt.hpp</text>
</a>
</g>
</g>
<!-- Node2&#45;&gt;Node3 -->
<g id="edge2_Node000002_Node000003" class="edge">
<title>Node2&#45;&gt;Node3</title>
<g id="a_edge2_Node000002_Node000003"><a xlink:title=" ">
<path fill="none" stroke="#63b8ff" d="M1219.59,-63.44C1016.87,-59.91 324.85,-46.26 81.04,-19.76"/>
<polygon fill="#63b8ff" stroke="#63b8ff" points="81.8,-16.21 71.47,-18.57 81.01,-23.17 81.8,-16.21"/>
</a>
</g>
</g>
<!-- Node4 -->
<g id="Node000004" class="node">
<title>Node4</title>
<g id="a_Node000004"><a xlink:title=" ">
<polygon fill="#e0e0e0" stroke="#999999" points="143.88,-19.75 88.12,-19.75 88.12,-0.5 143.88,-0.5 143.88,-19.75"/>
<text text-anchor="middle" x="116" y="-6.25" font-family="Helvetica,sans-Serif" font-size="10.00">algorithm</text>
</a>
</g>
</g>
<!-- Node2&#45;&gt;Node4 -->
<g id="edge3_Node000002_Node000004" class="edge">
<title>Node2&#45;&gt;Node4</title>
<g id="a_edge3_Node000002_Node000004"><a xlink:title=" ">
<path fill="none" stroke="#63b8ff" d="M1219.62,-63.59C1025.23,-60.68 382.82,-49.12 155.05,-19.88"/>
<polygon fill="#63b8ff" stroke="#63b8ff" points="155.57,-16.29 145.2,-18.43 154.65,-23.22 155.57,-16.29"/>
</a>
</g>
</g>
<!-- Node5 -->
<g id="Node000005" class="node">
<title>Node5</title>
<g id="a_Node000005"><a xlink:title=" ">
<polygon fill="#e0e0e0" stroke="#999999" points="198.5,-19.75 161.5,-19.75 161.5,-0.5 198.5,-0.5 198.5,-19.75"/>
<text text-anchor="middle" x="180" y="-6.25" font-family="Helvetica,sans-Serif" font-size="10.00">array</text>
</a>
</g>
</g>
<!-- Node2&#45;&gt;Node5 -->
<g id="edge4_Node000002_Node000005" class="edge">
<title>Node2&#45;&gt;Node5</title>
<g id="a_edge4_Node000002_Node000005"><a xlink:title=" ">
<path fill="none" stroke="#63b8ff" d="M1219.73,-63.93C1031.78,-62.14 425.87,-53.95 209.44,-19.41"/>
<polygon fill="#63b8ff" stroke="#63b8ff" points="210.26,-15.83 199.82,-17.64 209.11,-22.74 210.26,-15.83"/>
</a>
</g>
</g>
<!-- Node6 -->
<g id="Node000006" class="node">
<title>Node6</title>
<g id="a_Node000006"><a xlink:title=" ">
<polygon fill="#e0e0e0" stroke="#999999" points="267.25,-19.75 216.75,-19.75 216.75,-0.5 267.25,-0.5 267.25,-19.75"/>
<text text-anchor="middle" x="242" y="-6.25" font-family="Helvetica,sans-Serif" font-size="10.00">assert.h</text>
</a>
</g>
</g>
<!-- Node2&#45;&gt;Node6 -->
<g id="edge5_Node000002_Node000006" class="edge">
<title>Node2&#45;&gt;Node6</title>
<g id="a_edge5_Node000002_Node000006"><a xlink:title=" ">
<path fill="none" stroke="#63b8ff" d="M1219.58,-63.37C1039.8,-59.93 480.87,-47.39 278.32,-19.73"/>
<polygon fill="#63b8ff" stroke="#63b8ff" points="278.9,-16.13 268.51,-18.19 277.91,-23.06 278.9,-16.13"/>
</a>
</g>
</g>
<!-- Node7 -->
<g id="Node000007" class="node">
<title>Node7</title>
<g id="a_Node000007"><a xlink:title=" ">
<polygon fill="#e0e0e0" stroke="#999999" points="330.62,-19.75 285.38,-19.75 285.38,-0.5 330.62,-0.5 330.62,-19.75"/>
<text text-anchor="middle" x="308" y="-6.25" font-family="Helvetica,sans-Serif" font-size="10.00">chrono</text>
</a>
</g>
</g>
<!-- Node2&#45;&gt;Node7 -->
<g id="edge6_Node000002_Node000007" class="edge">
<title>Node2&#45;&gt;Node7</title>
<g id="a_edge6_Node000002_Node000007"><a xlink:title=" ">
<path fill="none" stroke="#63b8ff" d="M1219.76,-63.34C1047.9,-59.95 530.37,-47.75 341.52,-19.76"/>
<polygon fill="#63b8ff" stroke="#63b8ff" points="342.31,-16.18 331.9,-18.11 341.24,-23.1 342.31,-16.18"/>
</a>
</g>
</g>
<!-- Node8 -->
<g id="Node000008" class="node">
<title>Node8</title>
<g id="a_Node000008"><a xlink:title=" ">
<polygon fill="#e0e0e0" stroke="#999999" points="391.5,-19.75 348.5,-19.75 348.5,-0.5 391.5,-0.5 391.5,-19.75"/>
<text text-anchor="middle" x="370" y="-6.25" font-family="Helvetica,sans-Serif" font-size="10.00">cmath</text>
</a>
</g>
</g>
<!-- Node2&#45;&gt;Node8 -->
<g id="edge7_Node000002_Node000008" class="edge">
<title>Node2&#45;&gt;Node8</title>
<g id="a_edge7_Node000002_Node000008"><a xlink:title=" ">
<path fill="none" stroke="#63b8ff" d="M1219.6,-63.19C1055.41,-59.47 578.75,-46.77 402.49,-19.74"/>
<polygon fill="#63b8ff" stroke="#63b8ff" points="403.25,-16.16 392.82,-18.02 402.14,-23.07 403.25,-16.16"/>
</a>
</g>
</g>
<!-- Node9 -->
<g id="Node000009" class="node">
<title>Node9</title>
<g id="a_Node000009"><a xlink:title=" ">
<polygon fill="#e0e0e0" stroke="#999999" points="464.88,-19.75 409.12,-19.75 409.12,-0.5 464.88,-0.5 464.88,-19.75"/>
<text text-anchor="middle" x="437" y="-6.25" font-family="Helvetica,sans-Serif" font-size="10.00">concepts</text>
</a>
</g>
</g>
<!-- Node2&#45;&gt;Node9 -->
<g id="edge8_Node000002_Node000009" class="edge">
<title>Node2&#45;&gt;Node9</title>
<g id="a_edge8_Node000002_Node000009"><a xlink:title=" ">
<path fill="none" stroke="#63b8ff" d="M1219.76,-64.58C1090.07,-64.35 760,-59.67 475.7,-19.72"/>
<polygon fill="#63b8ff" stroke="#63b8ff" points="476.58,-16.17 466.19,-18.22 475.59,-23.1 476.58,-16.17"/>
</a>
</g>
</g>
<!-- Node10 -->
<g id="Node000010" class="node">
<title>Node10</title>
<g id="a_Node000010"><a xlink:title=" ">
<polygon fill="#e0e0e0" stroke="#999999" points="577,-19.75 483,-19.75 483,-0.5 577,-0.5 577,-19.75"/>
<text text-anchor="middle" x="530" y="-6.25" font-family="Helvetica,sans-Serif" font-size="10.00">condition_variable</text>
</a>
</g>
</g>
<!-- Node2&#45;&gt;Node10 -->
<g id="edge9_Node000002_Node000010" class="edge">
<title>Node2&#45;&gt;Node10</title>
<g id="a_edge9_Node000002_Node000010"><a xlink:title=" ">
<path fill="none" stroke="#63b8ff" d="M1219.51,-62.41C1103.26,-58 828.69,-45.71 588.03,-19.87"/>
<polygon fill="#63b8ff" stroke="#63b8ff" points="588.64,-16.31 578.32,-18.71 587.88,-23.27 588.64,-16.31"/>
</a>
</g>
</g>
<!-- Node11 -->
<g id="Node000011" class="node">
<title>Node11</title>
<g id="a_Node000011"><a xlink:title=" ">
<polygon fill="#e0e0e0" stroke="#999999" points="640.62,-19.75 595.38,-19.75 595.38,-0.5 640.62,-0.5 640.62,-19.75"/>
<text text-anchor="middle" x="618" y="-6.25" font-family="Helvetica,sans-Serif" font-size="10.00">cstdint</text>
</a>
</g>
</g>
<!-- Node2&#45;&gt;Node11 -->
<g id="edge10_Node000002_Node000011" class="edge">
<title>Node2&#45;&gt;Node11</title>
<g id="a_edge10_Node000002_Node000011"><a xlink:title=" ">
<path fill="none" stroke="#63b8ff" d="M1219.88,-63.97C1111.63,-62.42 866.47,-55.13 651.8,-19.7"/>
<polygon fill="#63b8ff" stroke="#63b8ff" points="652.4,-16.08 641.96,-17.88 651.24,-22.98 652.4,-16.08"/>
</a>
</g>
</g>
<!-- Node12 -->
<g id="Node000012" class="node">
<title>Node12</title>
<g id="a_Node000012"><a xlink:title=" ">
<polygon fill="#e0e0e0" stroke="#999999" points="703.25,-19.75 658.75,-19.75 658.75,-0.5 703.25,-0.5 703.25,-19.75"/>
<text text-anchor="middle" x="681" y="-6.25" font-family="Helvetica,sans-Serif" font-size="10.00">cstdlib</text>
</a>
</g>
</g>
<!-- Node2&#45;&gt;Node12 -->
<g id="edge11_Node000002_Node000012" class="edge">
<title>Node2&#45;&gt;Node12</title>
<g id="a_edge11_Node000002_Node000012"><a xlink:title=" ">
<path fill="none" stroke="#63b8ff" d="M1219.51,-63.49C1119.32,-61.14 903.95,-52.6 714.3,-19.83"/>
<polygon fill="#63b8ff" stroke="#63b8ff" points="715.03,-16.23 704.57,-17.94 713.81,-23.12 715.03,-16.23"/>
</a>
</g>
</g>
<!-- Node13 -->
<g id="Node000013" class="node">
<title>Node13</title>
<g id="a_Node000013"><a xlink:title=" ">
<polygon fill="#e0e0e0" stroke="#999999" points="780.75,-19.75 721.25,-19.75 721.25,-0.5 780.75,-0.5 780.75,-19.75"/>
<text text-anchor="middle" x="751" y="-6.25" font-family="Helvetica,sans-Serif" font-size="10.00">filesystem</text>
</a>
</g>
</g>
<!-- Node2&#45;&gt;Node13 -->
<g id="edge12_Node000002_Node000013" class="edge">
<title>Node2&#45;&gt;Node13</title>
<g id="a_edge12_Node000002_Node000013"><a xlink:title=" ">
<path fill="none" stroke="#63b8ff" d="M1219.83,-61.64C1130.83,-56.77 951.83,-44.85 791.73,-20.01"/>
<polygon fill="#63b8ff" stroke="#63b8ff" points="792.64,-16.46 782.21,-18.36 791.55,-23.37 792.64,-16.46"/>
</a>
</g>
</g>
<!-- Node14 -->
<g id="Node000014" class="node">
<title>Node14</title>
<g id="a_Node000014"><a xlink:title=" ">
<polygon fill="#e0e0e0" stroke="#999999" points="847.5,-19.75 798.5,-19.75 798.5,-0.5 847.5,-0.5 847.5,-19.75"/>
<text text-anchor="middle" x="823" y="-6.25" font-family="Helvetica,sans-Serif" font-size="10.00">fstream</text>
</a>
</g>
</g>
<!-- Node2&#45;&gt;Node14 -->
<g id="edge13_Node000002_Node000014" class="edge">
<title>Node2&#45;&gt;Node14</title>
<g id="a_edge13_Node000002_Node000014"><a xlink:title=" ">
<path fill="none" stroke="#63b8ff" d="M1219.73,-60.93C1141.01,-55.56 993.45,-43.44 858.33,-19.72"/>
<polygon fill="#63b8ff" stroke="#63b8ff" points="859.25,-16.16 848.79,-17.85 858.02,-23.05 859.25,-16.16"/>
</a>
</g>
</g>
<!-- Node15 -->
<g id="Node000015" class="node">
<title>Node15</title>
<g id="a_Node000015"><a xlink:title=" ">
<polygon fill="#e0e0e0" stroke="#999999" points="924,-19.75 866,-19.75 866,-0.5 924,-0.5 924,-19.75"/>
<text text-anchor="middle" x="895" y="-6.25" font-family="Helvetica,sans-Serif" font-size="10.00">functional</text>
</a>
</g>
</g>
<!-- Node2&#45;&gt;Node15 -->
<g id="edge14_Node000002_Node000015" class="edge">
<title>Node2&#45;&gt;Node15</title>
<g id="a_edge14_Node000002_Node000015"><a xlink:title=" ">
<path fill="none" stroke="#63b8ff" d="M1219.61,-58.68C1153.63,-51.65 1040.91,-38.51 934.96,-19.95"/>
<polygon fill="#63b8ff" stroke="#63b8ff" points="935.86,-16.38 925.4,-18.08 934.64,-23.27 935.86,-16.38"/>
</a>
</g>
</g>
<!-- Node16 -->
<g id="Node000016" class="node">
<title>Node16</title>
<g id="a_Node000016"><a xlink:title=" ">
<polygon fill="#e0e0e0" stroke="#999999" points="991.88,-19.75 942.12,-19.75 942.12,-0.5 991.88,-0.5 991.88,-19.75"/>
<text text-anchor="middle" x="967" y="-6.25" font-family="Helvetica,sans-Serif" font-size="10.00">iomanip</text>
</a>
</g>
</g>
<!-- Node2&#45;&gt;Node16 -->
<g id="edge15_Node000002_Node000016" class="edge">
<title>Node2&#45;&gt;Node16</title>
<g id="a_edge15_Node000002_Node000016"><a xlink:title=" ">
<path fill="none" stroke="#63b8ff" d="M1219.64,-56.7C1166.16,-49.09 1083.32,-36.44 1002.54,-19.92"/>
<polygon fill="#63b8ff" stroke="#63b8ff" points="1003.7,-16.37 993.19,-17.78 1002.28,-23.23 1003.7,-16.37"/>
</a>
</g>
</g>
<!-- Node17 -->
<g id="Node000017" class="node">
<title>Node17</title>
<g id="a_Node000017"><a xlink:title=" ">
<polygon fill="#e0e0e0" stroke="#999999" points="1058.12,-19.75 1009.88,-19.75 1009.88,-0.5 1058.12,-0.5 1058.12,-19.75"/>
<text text-anchor="middle" x="1034" y="-6.25" font-family="Helvetica,sans-Serif" font-size="10.00">istream</text>
</a>
</g>
</g>
<!-- Node2&#45;&gt;Node17 -->
<g id="edge16_Node000002_Node000017" class="edge">
<title>Node2&#45;&gt;Node17</title>
<g id="a_edge16_Node000002_Node000017"><a xlink:title=" ">
<path fill="none" stroke="#63b8ff" d="M1230.61,-55.3C1190.51,-47.14 1130.18,-34.54 1069.09,-20.17"/>
<polygon fill="#63b8ff" stroke="#63b8ff" points="1070.01,-16.55 1059.48,-17.65 1068.4,-23.36 1070.01,-16.55"/>
</a>
</g>
</g>
<!-- Node18 -->
<g id="Node000018" class="node">
<title>Node18</title>
<g id="a_Node000018"><a xlink:title=" ">
<polygon fill="#e0e0e0" stroke="#999999" points="1115.62,-19.75 1076.38,-19.75 1076.38,-0.5 1115.62,-0.5 1115.62,-19.75"/>
<text text-anchor="middle" x="1096" y="-6.25" font-family="Helvetica,sans-Serif" font-size="10.00">limits</text>
</a>
</g>
</g>
<!-- Node2&#45;&gt;Node18 -->
<g id="edge17_Node000002_Node000018" class="edge">
<title>Node2&#45;&gt;Node18</title>
<g id="a_edge17_Node000002_Node000018"><a xlink:title=" ">
<path fill="none" stroke="#63b8ff" d="M1245.34,-55.33C1216.91,-46.94 1173.17,-34.02 1126.32,-20.14"/>
<polygon fill="#63b8ff" stroke="#63b8ff" points="1127.55,-16.55 1116.97,-17.07 1125.56,-23.26 1127.55,-16.55"/>
</a>
</g>
</g>
<!-- Node19 -->
<g id="Node000019" class="node">
<title>Node19</title>
<g id="a_Node000019"><a xlink:title=" ">
<polygon fill="#e0e0e0" stroke="#999999" points="1168.38,-19.75 1133.62,-19.75 1133.62,-0.5 1168.38,-0.5 1168.38,-19.75"/>
<text text-anchor="middle" x="1151" y="-6.25" font-family="Helvetica,sans-Serif" font-size="10.00">map</text>
</a>
</g>
</g>
<!-- Node2&#45;&gt;Node19 -->
<g id="edge18_Node000002_Node000019" class="edge">
<title>Node2&#45;&gt;Node19</title>
<g id="a_edge18_Node000002_Node000019"><a xlink:title=" ">
<path fill="none" stroke="#63b8ff" d="M1254.8,-55.34C1233.78,-46.39 1201.47,-32.63 1178.49,-22.84"/>
<polygon fill="#63b8ff" stroke="#63b8ff" points="1180.24,-19.35 1169.66,-18.65 1177.49,-25.79 1180.24,-19.35"/>
</a>
</g>
</g>
<!-- Node20 -->
<g id="Node000020" class="node">
<title>Node20</title>
<g id="a_Node000020"><a xlink:title=" ">
<polygon fill="#e0e0e0" stroke="#999999" points="1237.25,-19.75 1186.75,-19.75 1186.75,-0.5 1237.25,-0.5 1237.25,-19.75"/>
<text text-anchor="middle" x="1212" y="-6.25" font-family="Helvetica,sans-Serif" font-size="10.00">memory</text>
</a>
</g>
</g>
<!-- Node2&#45;&gt;Node20 -->
<g id="edge19_Node000002_Node000020" class="edge">
<title>Node2&#45;&gt;Node20</title>
<g id="a_edge19_Node000002_Node000020"><a xlink:title=" ">
<path fill="none" stroke="#63b8ff" d="M1265.14,-55.34C1255.8,-47.57 1242.11,-36.17 1230.96,-26.9"/>
<polygon fill="#63b8ff" stroke="#63b8ff" points="1233.62,-23.73 1223.7,-20.02 1229.14,-29.11 1233.62,-23.73"/>
</a>
</g>
</g>
<!-- Node21 -->
<g id="Node000021" class="node">
<title>Node21</title>
<g id="a_Node000021"><a xlink:title=" ">
<polygon fill="#e0e0e0" stroke="#999999" points="1297.12,-19.75 1254.88,-19.75 1254.88,-0.5 1297.12,-0.5 1297.12,-19.75"/>
<text text-anchor="middle" x="1276" y="-6.25" font-family="Helvetica,sans-Serif" font-size="10.00">mutex</text>
</a>
</g>
</g>
<!-- Node2&#45;&gt;Node21 -->
<g id="edge20_Node000002_Node000021" class="edge">
<title>Node2&#45;&gt;Node21</title>
<g id="a_edge20_Node000002_Node000021"><a xlink:title=" ">
<path fill="none" stroke="#63b8ff" d="M1276,-55.58C1276,-48.91 1276,-39.49 1276,-31.03"/>
<polygon fill="#63b8ff" stroke="#63b8ff" points="1279.5,-31.11 1276,-21.11 1272.5,-31.11 1279.5,-31.11"/>
</a>
</g>
</g>
<!-- Node22 -->
<g id="Node000022" class="node">
<title>Node22</title>
<g id="a_Node000022"><a xlink:title=" ">
<polygon fill="#e0e0e0" stroke="#999999" points="1368.75,-19.75 1315.25,-19.75 1315.25,-0.5 1368.75,-0.5 1368.75,-19.75"/>
<text text-anchor="middle" x="1342" y="-6.25" font-family="Helvetica,sans-Serif" font-size="10.00">numbers</text>
</a>
</g>
</g>
<!-- Node2&#45;&gt;Node22 -->
<g id="edge21_Node000002_Node000022" class="edge">
<title>Node2&#45;&gt;Node22</title>
<g id="a_edge21_Node000002_Node000022"><a xlink:title=" ">
<path fill="none" stroke="#63b8ff" d="M1287.2,-55.34C1296.83,-47.57 1310.95,-36.17 1322.45,-26.9"/>
<polygon fill="#63b8ff" stroke="#63b8ff" points="1324.38,-29.03 1329.97,-20.02 1319.99,-23.58 1324.38,-29.03"/>
</a>
</g>
</g>
<!-- Node23 -->
<g id="Node000023" class="node">
<title>Node23</title>
<g id="a_Node000023"><a xlink:title=" ">
<polygon fill="#e0e0e0" stroke="#999999" points="1437.25,-19.75 1386.75,-19.75 1386.75,-0.5 1437.25,-0.5 1437.25,-19.75"/>
<text text-anchor="middle" x="1412" y="-6.25" font-family="Helvetica,sans-Serif" font-size="10.00">numeric</text>
</a>
</g>
</g>
<!-- Node2&#45;&gt;Node23 -->
<g id="edge22_Node000002_Node000023" class="edge">
<title>Node2&#45;&gt;Node23</title>
<g id="a_edge22_Node000002_Node000023"><a xlink:title=" ">
<path fill="none" stroke="#63b8ff" d="M1299.07,-55.34C1320.95,-46.77 1354.07,-33.81 1378.79,-24.13"/>
<polygon fill="#63b8ff" stroke="#63b8ff" points="1379.78,-27.11 1387.82,-20.2 1377.23,-20.59 1379.78,-27.11"/>
</a>
</g>
</g>
<!-- Node24 -->
<g id="Node000024" class="node">
<title>Node24</title>
<g id="a_Node000024"><a xlink:title=" ">
<polygon fill="#e0e0e0" stroke="#999999" points="1504.88,-19.75 1455.12,-19.75 1455.12,-0.5 1504.88,-0.5 1504.88,-19.75"/>
<text text-anchor="middle" x="1480" y="-6.25" font-family="Helvetica,sans-Serif" font-size="10.00">optional</text>
</a>
</g>
</g>
<!-- Node2&#45;&gt;Node24 -->
<g id="edge23_Node000002_Node000024" class="edge">
<title>Node2&#45;&gt;Node24</title>
<g id="a_edge23_Node000002_Node000024"><a xlink:title=" ">
<path fill="none" stroke="#63b8ff" d="M1310.61,-55.34C1347.85,-45.62 1406.8,-30.23 1444.42,-20.41"/>
<polygon fill="#63b8ff" stroke="#63b8ff" points="1445.1,-23.59 1453.9,-17.68 1443.34,-16.82 1445.1,-23.59"/>
</a>
</g>
</g>
<!-- Node25 -->
<g id="Node000025" class="node">
<title>Node25</title>
<g id="a_Node000025"><a xlink:title=" ">
<polygon fill="#e0e0e0" stroke="#999999" points="1574.62,-19.75 1523.38,-19.75 1523.38,-0.5 1574.62,-0.5 1574.62,-19.75"/>
<text text-anchor="middle" x="1549" y="-6.25" font-family="Helvetica,sans-Serif" font-size="10.00">ostream</text>
</a>
</g>
</g>
<!-- Node2&#45;&gt;Node25 -->
<g id="edge24_Node000002_Node000025" class="edge">
<title>Node2&#45;&gt;Node25</title>
<g id="a_edge24_Node000002_Node000025"><a xlink:title=" ">
<path fill="none" stroke="#63b8ff" d="M1329.11,-55.3C1375.09,-47.24 1443.63,-34.76 1512.45,-19.99"/>
<polygon fill="#63b8ff" stroke="#63b8ff" points="1513.01,-23.23 1522.04,-17.69 1511.53,-16.39 1513.01,-23.23"/>
</a>
</g>
</g>
<!-- Node26 -->
<g id="Node000026" class="node">
<title>Node26</title>
<g id="a_Node000026"><a xlink:title=" ">
<polygon fill="#e0e0e0" stroke="#999999" points="1669.38,-19.75 1592.62,-19.75 1592.62,-0.5 1669.38,-0.5 1669.38,-19.75"/>
<text text-anchor="middle" x="1631" y="-6.25" font-family="Helvetica,sans-Serif" font-size="10.00">shared_mutex</text>
</a>
</g>
</g>
<!-- Node2&#45;&gt;Node26 -->
<g id="edge25_Node000002_Node000026" class="edge">
<title>Node2&#45;&gt;Node26</title>
<g id="a_edge25_Node000002_Node000026"><a xlink:title=" ">
<path fill="none" stroke="#63b8ff" d="M1332.3,-56.86C1391.83,-48.78 1488.77,-35.2 1581.58,-20.1"/>
<polygon fill="#63b8ff" stroke="#63b8ff" points="1581.99,-23.42 1591.29,-18.35 1580.86,-16.51 1581.99,-23.42"/>
</a>
</g>
</g>
<!-- Node27 -->
<g id="Node000027" class="node">
<title>Node27</title>
<g id="a_Node000027"><a xlink:title=" ">
<polygon fill="#e0e0e0" stroke="#999999" points="1724.5,-19.75 1687.5,-19.75 1687.5,-0.5 1724.5,-0.5 1724.5,-19.75"/>
<text text-anchor="middle" x="1706" y="-6.25" font-family="Helvetica,sans-Serif" font-size="10.00">span</text>
</a>
</g>
</g>
<!-- Node2&#45;&gt;Node27 -->
<g id="edge26_Node000002_Node000027" class="edge">
<title>Node2&#45;&gt;Node27</title>
<g id="a_edge26_Node000002_Node000027"><a xlink:title=" ">
<path fill="none" stroke="#63b8ff" d="M1332.45,-61.46C1408.58,-56.8 1548.39,-45.64 1676.38,-19.68"/>
<polygon fill="#63b8ff" stroke="#63b8ff" points="1677.06,-22.91 1686.15,-17.46 1675.65,-16.05 1677.06,-22.91"/>
</a>
</g>
</g>
<!-- Node28 -->
<g id="Node000028" class="node">
<title>Node28</title>
<g id="a_Node000028"><a xlink:title=" ">
<polygon fill="#e0e0e0" stroke="#999999" points="1793.62,-19.75 1742.38,-19.75 1742.38,-0.5 1793.62,-0.5 1793.62,-19.75"/>
<text text-anchor="middle" x="1768" y="-6.25" font-family="Helvetica,sans-Serif" font-size="10.00">sstream</text>
</a>
</g>
</g>
<!-- Node2&#45;&gt;Node28 -->
<g id="edge27_Node000002_Node000028" class="edge">
<title>Node2&#45;&gt;Node28</title>
<g id="a_edge27_Node000002_Node000028"><a xlink:title=" ">
<path fill="none" stroke="#63b8ff" d="M1332.42,-61.63C1417.2,-56.9 1582.58,-45.34 1731.41,-19.97"/>
<polygon fill="#63b8ff" stroke="#63b8ff" points="1731.84,-23.28 1741.1,-18.12 1730.65,-16.38 1731.84,-23.28"/>
</a>
</g>
</g>
<!-- Node29 -->
<g id="Node000029" class="node">
<title>Node29</title>
<g id="a_Node000029"><a xlink:title=" ">
<polygon fill="#e0e0e0" stroke="#999999" points="1870,-19.75 1812,-19.75 1812,-0.5 1870,-0.5 1870,-19.75"/>
<text text-anchor="middle" x="1841" y="-6.25" font-family="Helvetica,sans-Serif" font-size="10.00">stdexcept</text>
</a>
</g>
</g>
<!-- Node2&#45;&gt;Node29 -->
<g id="edge28_Node000002_Node000029" class="edge">
<title>Node2&#45;&gt;Node29</title>
<g id="a_edge28_Node000002_Node000029"><a xlink:title=" ">
<path fill="none" stroke="#63b8ff" d="M1332.46,-62.16C1427.31,-57.89 1624.76,-46.59 1800.85,-19.87"/>
<polygon fill="#63b8ff" stroke="#63b8ff" points="1801.27,-23.2 1810.62,-18.22 1800.2,-16.28 1801.27,-23.2"/>
</a>
</g>
</g>
<!-- Node30 -->
<g id="Node000030" class="node">
<title>Node30</title>
<g id="a_Node000030"><a xlink:title=" ">
<polygon fill="#e0e0e0" stroke="#999999" points="1935.75,-19.75 1888.25,-19.75 1888.25,-0.5 1935.75,-0.5 1935.75,-19.75"/>
<text text-anchor="middle" x="1912" y="-6.25" font-family="Helvetica,sans-Serif" font-size="10.00">stdint.h</text>
</a>
</g>
</g>
<!-- Node2&#45;&gt;Node30 -->
<g id="edge29_Node000002_Node000030" class="edge">
<title>Node2&#45;&gt;Node30</title>
<g id="a_edge29_Node000002_Node000030"><a xlink:title=" ">
<path fill="none" stroke="#63b8ff" d="M1332.1,-63.62C1437.32,-61.46 1671.48,-53.18 1877.25,-19.72"/>
<polygon fill="#63b8ff" stroke="#63b8ff" points="1877.66,-23.03 1886.96,-17.95 1876.52,-16.12 1877.66,-23.03"/>
</a>
</g>
</g>
<!-- Node31 -->
<g id="Node000031" class="node">
<title>Node31</title>
<g id="a_Node000031"><a xlink:title=" ">
<polygon fill="#e0e0e0" stroke="#999999" points="1994,-19.75 1954,-19.75 1954,-0.5 1994,-0.5 1994,-19.75"/>
<text text-anchor="middle" x="1974" y="-6.25" font-family="Helvetica,sans-Serif" font-size="10.00">string</text>
</a>
</g>
</g>
<!-- Node2&#45;&gt;Node31 -->
<g id="edge30_Node000002_Node000031" class="edge">
<title>Node2&#45;&gt;Node31</title>
<g id="a_edge30_Node000002_Node000031"><a xlink:title=" ">
<path fill="none" stroke="#63b8ff" d="M1332.46,-64.82C1446.53,-64.81 1712.52,-60.2 1942.94,-19.71"/>
<polygon fill="#63b8ff" stroke="#63b8ff" points="1943.31,-23.03 1952.54,-17.82 1942.08,-16.13 1943.31,-23.03"/>
</a>
</g>
</g>
<!-- Node32 -->
<g id="Node000032" class="node">
<title>Node32</title>
<g id="a_Node000032"><a xlink:title=" ">
<polygon fill="#e0e0e0" stroke="#999999" points="2055.5,-19.75 2012.5,-19.75 2012.5,-0.5 2055.5,-0.5 2055.5,-19.75"/>
<text text-anchor="middle" x="2034" y="-6.25" font-family="Helvetica,sans-Serif" font-size="10.00">thread</text>
</a>
</g>
</g>
<!-- Node2&#45;&gt;Node32 -->
<g id="edge31_Node000002_Node000032" class="edge">
<title>Node2&#45;&gt;Node32</title>
<g id="a_edge31_Node000002_Node000032"><a xlink:title=" ">
<path fill="none" stroke="#63b8ff" d="M1332.09,-64.92C1453.03,-65.24 1747.27,-61.41 2001.56,-19.59"/>
<polygon fill="#63b8ff" stroke="#63b8ff" points="2001.83,-22.93 2011.11,-17.83 2000.67,-16.02 2001.83,-22.93"/>
</a>
</g>
</g>
<!-- Node33 -->
<g id="Node000033" class="node">
<title>Node33</title>
<g id="a_Node000033"><a xlink:title=" ">
<polygon fill="#e0e0e0" stroke="#999999" points="2134.5,-19.75 2073.5,-19.75 2073.5,-0.5 2134.5,-0.5 2134.5,-19.75"/>
<text text-anchor="middle" x="2104" y="-6.25" font-family="Helvetica,sans-Serif" font-size="10.00">type_traits</text>
</a>
</g>
</g>
<!-- Node2&#45;&gt;Node33 -->
<g id="edge32_Node000002_Node000033" class="edge">
<title>Node2&#45;&gt;Node33</title>
<g id="a_edge32_Node000002_Node000033"><a xlink:title=" ">
<path fill="none" stroke="#63b8ff" d="M1332.26,-64.29C1460.4,-63.45 1783.81,-57.54 2062.28,-19.92"/>
<polygon fill="#63b8ff" stroke="#63b8ff" points="2062.57,-23.28 2072,-18.45 2061.62,-16.34 2062.57,-23.28"/>
</a>
</g>
</g>
<!-- Node34 -->
<g id="Node000034" class="node">
<title>Node34</title>
<g id="a_Node000034"><a xlink:title=" ">
<polygon fill="#e0e0e0" stroke="#999999" points="2229.75,-19.75 2152.25,-19.75 2152.25,-0.5 2229.75,-0.5 2229.75,-19.75"/>
<text text-anchor="middle" x="2191" y="-6.25" font-family="Helvetica,sans-Serif" font-size="10.00">unordered_set</text>
</a>
</g>
</g>
<!-- Node2&#45;&gt;Node34 -->
<g id="edge33_Node000002_Node000034" class="edge">
<title>Node2&#45;&gt;Node34</title>
<g id="a_edge33_Node000002_Node000034"><a xlink:title=" ">
<path fill="none" stroke="#63b8ff" d="M1332.32,-64.01C1469.31,-62.59 1830.95,-55.56 2141.27,-19.93"/>
<polygon fill="#63b8ff" stroke="#63b8ff" points="2141.29,-23.34 2150.82,-18.71 2140.48,-16.38 2141.29,-23.34"/>
</a>
</g>
</g>
<!-- Node35 -->
<g id="Node000035" class="node">
<title>Node35</title>
<g id="a_Node000035"><a xlink:title=" ">
<polygon fill="#e0e0e0" stroke="#999999" points="2292.62,-19.75 2247.38,-19.75 2247.38,-0.5 2292.62,-0.5 2292.62,-19.75"/>
<text text-anchor="middle" x="2270" y="-6.25" font-family="Helvetica,sans-Serif" font-size="10.00">variant</text>
</a>
</g>
</g>
<!-- Node2&#45;&gt;Node35 -->
<g id="edge34_Node000002_Node000035" class="edge">
<title>Node2&#45;&gt;Node35</title>
<g id="a_edge34_Node000002_Node000035"><a xlink:title=" ">
<path fill="none" stroke="#63b8ff" d="M1332.23,-63.43C1507.32,-60.23 2042.23,-48.46 2236.46,-19.76"/>
<polygon fill="#63b8ff" stroke="#63b8ff" points="2236.76,-23.1 2246.1,-18.11 2235.69,-16.18 2236.76,-23.1"/>
</a>
</g>
</g>
<!-- Node36 -->
<g id="Node000036" class="node">
<title>Node36</title>
<g id="a_Node000036"><a xlink:title=" ">
<polygon fill="#e0e0e0" stroke="#999999" points="2353.5,-19.75 2310.5,-19.75 2310.5,-0.5 2353.5,-0.5 2353.5,-19.75"/>
<text text-anchor="middle" x="2332" y="-6.25" font-family="Helvetica,sans-Serif" font-size="10.00">vector</text>
</a>
</g>
</g>
<!-- Node2&#45;&gt;Node36 -->
<g id="edge35_Node000002_Node000036" class="edge">
<title>Node2&#45;&gt;Node36</title>
<g id="a_edge35_Node000002_Node000036"><a xlink:title=" ">
<path fill="none" stroke="#63b8ff" d="M1332.29,-63.68C1515.15,-61.14 2092.17,-50.96 2299.42,-19.74"/>
<polygon fill="#63b8ff" stroke="#63b8ff" points="2299.85,-23.06 2309.18,-18.04 2298.76,-16.14 2299.85,-23.06"/>
</a>
</g>
</g>
<!-- Node37 -->
<g id="Node000037" class="node">
<title>Node37</title>
<g id="a_Node000037"><a xlink:title=" ">
<polygon fill="#e0e0e0" stroke="#999999" points="2420.12,-19.75 2371.88,-19.75 2371.88,-0.5 2420.12,-0.5 2420.12,-19.75"/>
<text text-anchor="middle" x="2396" y="-6.25" font-family="Helvetica,sans-Serif" font-size="10.00">random</text>
</a>
</g>
</g>
<!-- Node2&#45;&gt;Node37 -->
<g id="edge36_Node000002_Node000037" class="edge">
<title>Node2&#45;&gt;Node37</title>
<g id="a_edge36_Node000002_Node000037"><a xlink:title=" ">
<path fill="none" stroke="#63b8ff" d="M1332.21,-63.66C1522.16,-61 2140.15,-50.28 2360.78,-19.69"/>
<polygon fill="#63b8ff" stroke="#63b8ff" points="2361.22,-23.02 2370.61,-18.12 2360.21,-16.09 2361.22,-23.02"/>
</a>
</g>
</g>
<!-- Node38 -->
<g id="Node000038" class="node">
<title>Node38</title>
<g id="a_Node000038"><a xlink:href="../../de/d43/common-typedefs_8hpp.html" target="_top" xlink:title=" ">
<polygon fill="white" stroke="#666666" points="2549.62,-19.75 2438.38,-19.75 2438.38,-0.5 2549.62,-0.5 2549.62,-19.75"/>
<text text-anchor="middle" x="2494" y="-6.25" font-family="Helvetica,sans-Serif" font-size="10.00">common&#45;typedefs.hpp</text>
</a>
</g>
</g>
<!-- Node2&#45;&gt;Node38 -->
<g id="edge37_Node000002_Node000038" class="edge">
<title>Node2&#45;&gt;Node38</title>
<g id="a_edge37_Node000002_Node000038"><a xlink:title=" ">
<path fill="none" stroke="#63b8ff" d="M1332.21,-64.05C1498.09,-62.71 2000.17,-55.81 2427.31,-19.8"/>
<polygon fill="#63b8ff" stroke="#63b8ff" points="2427.35,-23.22 2437.02,-18.89 2426.76,-16.25 2427.35,-23.22"/>
</a>
</g>
</g>
<!-- Node39 -->
<g id="Node000039" class="node">
<title>Node39</title>
<g id="a_Node000039"><a xlink:href="../../d4/d78/math_8hpp.html" target="_top" xlink:title=" ">
<polygon fill="white" stroke="#666666" points="2644.75,-19.75 2567.25,-19.75 2567.25,-0.5 2644.75,-0.5 2644.75,-19.75"/>
<text text-anchor="middle" x="2606" y="-6.25" font-family="Helvetica,sans-Serif" font-size="10.00">core/math.hpp</text>
</a>
</g>
</g>
<!-- Node2&#45;&gt;Node39 -->
<g id="edge38_Node000002_Node000039" class="edge">
<title>Node2&#45;&gt;Node39</title>
<g id="a_edge38_Node000002_Node000039"><a xlink:title=" ">
<path fill="none" stroke="#63b8ff" d="M1332.34,-63.51C1544.37,-60.11 2295.04,-46.51 2556.25,-19.87"/>
<polygon fill="#63b8ff" stroke="#63b8ff" points="2556.25,-23.29 2565.83,-18.76 2555.51,-16.32 2556.25,-23.29"/>
</a>
</g>
</g>
<!-- Node39&#45;&gt;Node39 -->
<g id="edge39_Node000039_Node000039" class="edge">
<title>Node39&#45;&gt;Node39</title>
<g id="a_edge39_Node000039_Node000039"><a xlink:title=" ">
<path fill="none" stroke="#63b8ff" d="M2635.78,-20.23C2650.11,-21.48 2662.75,-18.11 2662.75,-10.12 2662.75,-4.26 2655.93,-0.88 2646.63,0"/>
<polygon fill="#63b8ff" stroke="#63b8ff" points="2646.78,3.5 2636.78,-0.02 2646.79,-3.5 2646.78,3.5"/>
</a>
</g>
</g>
</g>
</svg>
