<?xml version="1.0" encoding="UTF-8" standalone="no"?>
<!DOCTYPE svg PUBLIC "-//W3C//DTD SVG 1.1//EN"
 "http://www.w3.org/Graphics/SVG/1.1/DTD/svg11.dtd">
<!-- Generated by graphviz version 9.0.0 (20230911.1827)
 -->
<!-- Title: engine::platform::windows::Window Pages: 1 -->
<svg width="289pt" height="296pt"
 viewBox="0.00 0.00 289.38 296.25" xmlns="http://www.w3.org/2000/svg" xmlns:xlink="http://www.w3.org/1999/xlink">

<svg id="main" version="1.1" xmlns="http://www.w3.org/2000/svg" xmlns:xlink="http://www.w3.org/1999/xlink" xml:space="preserve" onload="init(evt)">
<style type="text/css"><![CDATA[
.node, .edge {opacity: 0.7;}
.node.selected, .edge.selected {opacity: 1;}
.edge:hover path { stroke: red; }
.edge:hover polygon { stroke: red; fill: red; }
]]></style>
<script type="application/ecmascript" xlink:href="../../svg.min.js"/>
<svg id="graph" class="graph">
<g id="graph0" class="graph" transform="scale(1 1) rotate(0) translate(4 292.25)">
<title>engine::platform::windows::Window</title>
<!-- Node1 -->
<g id="Node000001" class="node">
<title>Node1</title>
<g id="a_Node000001"><a xlink:title=" ">
<polygon fill="#999999" stroke="#666666" points="182.75,-30.5 55.75,-30.5 55.75,0 182.75,0 182.75,-30.5"/>
<text text-anchor="start" x="63.75" y="-17" font-family="Helvetica,sans-Serif" font-size="10.00">engine::platform::windows</text>
<text text-anchor="middle" x="119.25" y="-5.75" font-family="Helvetica,sans-Serif" font-size="10.00">::Window</text>
</a>
</g>
</g>
<!-- Node2 -->
<g id="Node000002" class="node">
<title>Node2</title>
<g id="a_Node000002"><a xlink:href="../../dd/d52/classengine_1_1core_1_1_window.html" target="_top" xlink:title=" ">
<polygon fill="white" stroke="#666666" points="172.62,-86.75 65.88,-86.75 65.88,-67.5 172.62,-67.5 172.62,-86.75"/>
<text text-anchor="middle" x="119.25" y="-73.25" font-family="Helvetica,sans-Serif" font-size="10.00">engine::core::Window</text>
</a>
</g>
</g>
<!-- Node2&#45;&gt;Node1 -->
<g id="edge1_Node000001_Node000002" class="edge">
<title>Node2&#45;&gt;Node1</title>
<g id="a_edge1_Node000001_Node000002"><a xlink:title=" ">
<path fill="none" stroke="#63b8ff" d="M119.25,-55.69C119.25,-47.43 119.25,-38.09 119.25,-30.57"/>
<polygon fill="#63b8ff" stroke="#63b8ff" points="115.75,-55.52 119.25,-65.52 122.75,-55.52 115.75,-55.52"/>
</a>
</g>
</g>
<!-- Node3 -->
<g id="Node000003" class="node">
<title>Node3</title>
<g id="a_Node000003"><a xlink:href="../../d0/d04/classengine_1_1core_1_1_layer.html" target="_top" xlink:title=" ">
<polygon fill="white" stroke="#666666" points="167.38,-148.62 71.12,-148.62 71.12,-129.38 167.38,-129.38 167.38,-148.62"/>
<text text-anchor="middle" x="119.25" y="-135.12" font-family="Helvetica,sans-Serif" font-size="10.00">engine::core::Layer</text>
</a>
</g>
</g>
<!-- Node3&#45;&gt;Node2 -->
<g id="edge2_Node000002_Node000003" class="edge">
<title>Node3&#45;&gt;Node2</title>
<g id="a_edge2_Node000002_Node000003"><a xlink:title=" ">
<path fill="none" stroke="#63b8ff" d="M119.25,-117.42C119.25,-107 119.25,-94.9 119.25,-86.91"/>
<polygon fill="#63b8ff" stroke="#63b8ff" points="115.75,-117.39 119.25,-127.39 122.75,-117.39 115.75,-117.39"/>
</a>
</g>
</g>
<!-- Node4 -->
<g id="Node000004" class="node">
<title>Node4</title>
<g id="a_Node000004"><a xlink:title=" ">
<polygon fill="white" stroke="#666666" points="75.25,-220.75 17.25,-220.75 17.25,-201.5 75.25,-201.5 75.25,-220.75"/>
<text text-anchor="middle" x="46.25" y="-207.25" font-family="Helvetica,sans-Serif" font-size="10.00">std::string</text>
</a>
</g>
</g>
<!-- Node4&#45;&gt;Node2 -->
<g id="edge6_Node000002_Node000004" class="edge">
<title>Node4&#45;&gt;Node2</title>
<g id="a_edge6_Node000002_Node000004"><a xlink:title=" ">
<path fill="none" stroke="#9a32cd" stroke-dasharray="5,2" d="M38.47,-190.41C32.52,-171.92 27.14,-144.13 39,-123.75 49.56,-105.6 70.32,-94.08 88.09,-87.16"/>
<polygon fill="#9a32cd" stroke="#9a32cd" points="35.1,-191.4 41.78,-199.63 41.69,-189.03 35.1,-191.4"/>
</a>
</g>
<text text-anchor="middle" x="50.88" y="-135.12" font-family="Helvetica,sans-Serif" font-size="10.00" fill="grey"> title_</text>
</g>
<!-- Node4&#45;&gt;Node3 -->
<g id="edge3_Node000003_Node000004" class="edge">
<title>Node4&#45;&gt;Node3</title>
<g id="a_edge3_Node000003_Node000004"><a xlink:title=" ">
<path fill="none" stroke="#9a32cd" stroke-dasharray="5,2" d="M63.67,-193.39C78.15,-179.48 98.21,-160.21 109.85,-149.03"/>
<polygon fill="#9a32cd" stroke="#9a32cd" points="61.37,-190.74 56.59,-200.2 66.22,-195.79 61.37,-190.74"/>
</a>
</g>
<text text-anchor="middle" x="116.75" y="-174" font-family="Helvetica,sans-Serif" font-size="10.00" fill="grey"> debug_name_</text>
</g>
<!-- Node5 -->
<g id="Node000005" class="node">
<title>Node5</title>
<g id="a_Node000005"><a xlink:title=" ">
<polygon fill="white" stroke="#666666" points="92.5,-288.25 0,-288.25 0,-257.75 92.5,-257.75 92.5,-288.25"/>
<text text-anchor="start" x="8" y="-274.75" font-family="Helvetica,sans-Serif" font-size="10.00">std::basic_string&lt;</text>
<text text-anchor="middle" x="46.25" y="-263.5" font-family="Helvetica,sans-Serif" font-size="10.00"> Char &gt;</text>
</a>
</g>
</g>
<!-- Node5&#45;&gt;Node4 -->
<g id="edge4_Node000004_Node000005" class="edge">
<title>Node5&#45;&gt;Node4</title>
<g id="a_edge4_Node000004_Node000005"><a xlink:title=" ">
<path fill="none" stroke="#63b8ff" d="M46.25,-246.27C46.25,-237.29 46.25,-227.79 46.25,-221.1"/>
<polygon fill="#63b8ff" stroke="#63b8ff" points="42.75,-245.99 46.25,-255.99 49.75,-245.99 42.75,-245.99"/>
</a>
</g>
</g>
<!-- Node6 -->
<g id="Node000006" class="node">
<title>Node6</title>
<g id="a_Node000006"><a xlink:href="../../d5/d41/structengine_1_1core_1_1_layer_1_1_handle_update.html" target="_top" xlink:title=" ">
<polygon fill="white" stroke="#666666" points="281.38,-154.25 185.12,-154.25 185.12,-123.75 281.38,-123.75 281.38,-154.25"/>
<text text-anchor="start" x="193.12" y="-140.75" font-family="Helvetica,sans-Serif" font-size="10.00">engine::core::Layer</text>
<text text-anchor="middle" x="233.25" y="-129.5" font-family="Helvetica,sans-Serif" font-size="10.00">::HandleUpdate</text>
</a>
</g>
</g>
<!-- Node6&#45;&gt;Node2 -->
<g id="edge5_Node000002_Node000006" class="edge">
<title>Node6&#45;&gt;Node2</title>
<g id="a_edge5_Node000002_Node000006"><a xlink:title=" ">
<path fill="none" stroke="#63b8ff" d="M195.35,-118.1C175.49,-107.66 152.13,-95.39 136.58,-87.23"/>
<polygon fill="#63b8ff" stroke="#63b8ff" points="193.54,-121.1 204.02,-122.65 196.8,-114.9 193.54,-121.1"/>
</a>
</g>
</g>
</g>
</svg>
</svg>

<style type='text/css'>
<![CDATA[
[data-mouse-over-selected='false'] { opacity: 0.7; }
[data-mouse-over-selected='true']  { opacity: 1.0; }
]]>
</style>
<script type="application/ecmascript"><![CDATA[
document.addEventListener('DOMContentLoaded', (event) => {
  highlightEdges();
  highlightAdjacentNodes();
});
]]></script>
</svg>
