<?xml version="1.0" encoding="UTF-8" standalone="no"?>
<!DOCTYPE svg PUBLIC "-//W3C//DTD SVG 1.1//EN"
 "http://www.w3.org/Graphics/SVG/1.1/DTD/svg11.dtd">
<!-- Generated by graphviz version 8.1.0 (20230707.0739)
 -->
<!-- Title: engine::direct3d::States Pages: 1 -->
<svg width="995pt" height="497pt"
 viewBox="0.00 0.00 995.25 497.49" xmlns="http://www.w3.org/2000/svg" xmlns:xlink="http://www.w3.org/1999/xlink">
<g id="graph0" class="graph" transform="scale(1 1) rotate(0) translate(4 493.49)">
<title>engine::direct3d::States</title>
<!-- Node1 -->
<g id="Node000001" class="node">
<title>Node1</title>
<g id="a_Node000001"><a xlink:title="The class that contains all the states.">
<polygon fill="#999999" stroke="#666666" points="791.25,-224.37 674.75,-224.37 674.75,-205.12 791.25,-205.12 791.25,-224.37"/>
<text text-anchor="middle" x="733" y="-210.87" font-family="Helvetica,sans-Serif" font-size="10.00">engine::direct3d::States</text>
</a>
</g>
</g>
<!-- Node11 -->
<g id="Node000011" class="node">
<title>Node11</title>
<g id="a_Node000011"><a xlink:title=" ">
<polygon fill="white" stroke="#666666" points="987.25,-229.99 871.5,-229.99 871.5,-199.49 987.25,-199.49 987.25,-229.99"/>
<text text-anchor="start" x="879.5" y="-216.49" font-family="Helvetica,sans-Serif" font-size="10.00">std::unique_ptr&lt; engine</text>
<text text-anchor="middle" x="929.38" y="-205.24" font-family="Helvetica,sans-Serif" font-size="10.00">::direct3d::States &gt;</text>
</a>
</g>
</g>
<!-- Node1&#45;&gt;Node11 -->
<g id="edge14_Node000011_Node000001" class="edge">
<title>Node1&#45;&gt;Node11</title>
<g id="a_edge14_Node000011_Node000001"><a xlink:title=" ">
<path fill="none" stroke="#9a32cd" stroke-dasharray="5,2" d="M802.39,-214.74C824.92,-214.74 849.73,-214.74 871.33,-214.74"/>
<polygon fill="#9a32cd" stroke="#9a32cd" points="802.53,-211.24 792.53,-214.74 802.53,-218.24 802.53,-211.24"/>
</a>
</g>
<text text-anchor="middle" x="831.38" y="-216.49" font-family="Helvetica,sans-Serif" font-size="10.00" fill="grey"> ptr</text>
</g>
<!-- Node2 -->
<g id="Node000002" class="node">
<title>Node2</title>
<g id="a_Node000002"><a xlink:href="../../df/d6a/classengine_1_1direct3d_1_1__state__detail_1_1state__readonly__wrapper.html" target="_top" xlink:title=" ">
<polygon fill="white" stroke="#666666" points="518,-449.24 337,-449.24 337,-396.24 518,-396.24 518,-449.24"/>
<text text-anchor="start" x="345" y="-435.74" font-family="Helvetica,sans-Serif" font-size="10.00">engine::direct3d::</text>
<text text-anchor="start" x="345" y="-424.49" font-family="Helvetica,sans-Serif" font-size="10.00">_state_detail::state</text>
<text text-anchor="start" x="345" y="-413.24" font-family="Helvetica,sans-Serif" font-size="10.00">_readonly_wrapper&lt; ID3D11Rasterizer</text>
<text text-anchor="middle" x="427.5" y="-401.99" font-family="Helvetica,sans-Serif" font-size="10.00">State &gt;</text>
</a>
</g>
</g>
<!-- Node2&#45;&gt;Node1 -->
<g id="edge1_Node000001_Node000002" class="edge">
<title>Node2&#45;&gt;Node1</title>
<g id="a_edge1_Node000001_Node000002"><a xlink:title=" ">
<path fill="none" stroke="#9a32cd" stroke-dasharray="5,2" d="M524.28,-451.69C568.34,-459.07 619.06,-458.56 656.75,-431.74 727.25,-381.57 732.3,-260.54 732.2,-224.82"/>
<polygon fill="#9a32cd" stroke="#9a32cd" points="525,-448.07 514.53,-449.71 523.73,-454.96 525,-448.07"/>
</a>
</g>
<text text-anchor="middle" x="596.38" y="-479.99" font-family="Helvetica,sans-Serif" font-size="10.00" fill="grey"> cull_back</text>
<text text-anchor="middle" x="596.38" y="-468.74" font-family="Helvetica,sans-Serif" font-size="10.00" fill="grey">cull_front</text>
<text text-anchor="middle" x="596.38" y="-457.49" font-family="Helvetica,sans-Serif" font-size="10.00" fill="grey">cull_none</text>
</g>
<!-- Node3 -->
<g id="Node000003" class="node">
<title>Node3</title>
<g id="a_Node000003"><a xlink:href="../../de/d9d/classengine_1_1direct3d_1_1readonly__d3d__resource__wrapper.html" target="_top" xlink:title="The readonly d3d resource wrapper class.">
<polygon fill="white" stroke="#666666" points="300,-305.99 158,-305.99 158,-275.49 300,-275.49 300,-305.99"/>
<text text-anchor="start" x="166" y="-292.49" font-family="Helvetica,sans-Serif" font-size="10.00">engine::direct3d::readonly</text>
<text text-anchor="middle" x="229" y="-281.24" font-family="Helvetica,sans-Serif" font-size="10.00">_d3d_resource_wrapper&lt; T &gt;</text>
</a>
</g>
</g>
<!-- Node3&#45;&gt;Node2 -->
<g id="edge2_Node000002_Node000003" class="edge">
<title>Node3&#45;&gt;Node2</title>
<g id="a_edge2_Node000002_Node000003"><a xlink:title=" ">
<path fill="none" stroke="#63b8ff" d="M262.36,-312.48C296.37,-335.33 349.92,-371.3 386.55,-395.91"/>
<polygon fill="#63b8ff" stroke="#63b8ff" points="264.57,-309.07 254.31,-306.4 260.66,-314.88 264.57,-309.07"/>
</a>
</g>
</g>
<!-- Node4 -->
<g id="Node000004" class="node">
<title>Node4</title>
<g id="a_Node000004"><a xlink:href="../../df/d47/classengine_1_1direct3d_1_1d3d__resource__wrapper.html" target="_top" xlink:title="The d3d resource wrapper class.">
<polygon fill="white" stroke="#666666" points="121,-203.99 0,-203.99 0,-173.49 121,-173.49 121,-203.99"/>
<text text-anchor="start" x="8" y="-190.49" font-family="Helvetica,sans-Serif" font-size="10.00">engine::direct3d::d3d</text>
<text text-anchor="middle" x="60.5" y="-179.24" font-family="Helvetica,sans-Serif" font-size="10.00">_resource_wrapper&lt; T &gt;</text>
</a>
</g>
</g>
<!-- Node4&#45;&gt;Node3 -->
<g id="edge3_Node000003_Node000004" class="edge">
<title>Node4&#45;&gt;Node3</title>
<g id="a_edge3_Node000003_Node000004"><a xlink:title=" ">
<path fill="none" stroke="darkgreen" d="M94.74,-210.14C113.27,-221.97 136.81,-236.84 158,-249.74 172.08,-258.31 187.91,-267.61 200.95,-275.18"/>
<polygon fill="darkgreen" stroke="darkgreen" points="96.86,-206.71 86.55,-204.26 93.09,-212.6 96.86,-206.71"/>
</a>
</g>
</g>
<!-- Node6 -->
<g id="Node000006" class="node">
<title>Node6</title>
<g id="a_Node000006"><a xlink:href="../../de/d9d/classengine_1_1direct3d_1_1readonly__d3d__resource__wrapper.html" target="_top" xlink:title="The readonly d3d resource wrapper class.">
<polygon fill="white" stroke="#666666" points="300,-240.99 158,-240.99 158,-210.49 300,-210.49 300,-240.99"/>
<text text-anchor="start" x="166" y="-227.49" font-family="Helvetica,sans-Serif" font-size="10.00">engine::direct3d::readonly</text>
<text text-anchor="middle" x="229" y="-216.24" font-family="Helvetica,sans-Serif" font-size="10.00">_d3d_resource_wrapper&lt; T &gt;</text>
</a>
</g>
</g>
<!-- Node4&#45;&gt;Node6 -->
<g id="edge6_Node000006_Node000004" class="edge">
<title>Node4&#45;&gt;Node6</title>
<g id="a_edge6_Node000006_Node000004"><a xlink:title=" ">
<path fill="none" stroke="darkgreen" d="M131.85,-204.38C140.41,-206.28 149.15,-208.22 157.7,-210.12"/>
<polygon fill="darkgreen" stroke="darkgreen" points="132.66,-200.75 122.14,-202 131.14,-207.58 132.66,-200.75"/>
</a>
</g>
</g>
<!-- Node8 -->
<g id="Node000008" class="node">
<title>Node8</title>
<g id="a_Node000008"><a xlink:href="../../de/d9d/classengine_1_1direct3d_1_1readonly__d3d__resource__wrapper.html" target="_top" xlink:title="The readonly d3d resource wrapper class.">
<polygon fill="white" stroke="#666666" points="300,-180.99 158,-180.99 158,-150.49 300,-150.49 300,-180.99"/>
<text text-anchor="start" x="166" y="-167.49" font-family="Helvetica,sans-Serif" font-size="10.00">engine::direct3d::readonly</text>
<text text-anchor="middle" x="229" y="-156.24" font-family="Helvetica,sans-Serif" font-size="10.00">_d3d_resource_wrapper&lt; T &gt;</text>
</a>
</g>
</g>
<!-- Node4&#45;&gt;Node8 -->
<g id="edge9_Node000008_Node000004" class="edge">
<title>Node4&#45;&gt;Node8</title>
<g id="a_edge9_Node000008_Node000004"><a xlink:title=" ">
<path fill="none" stroke="darkgreen" d="M131.85,-179.02C140.41,-177.84 149.15,-176.64 157.7,-175.45"/>
<polygon fill="darkgreen" stroke="darkgreen" points="131.57,-175.67 122.14,-180.5 132.52,-182.6 131.57,-175.67"/>
</a>
</g>
</g>
<!-- Node10 -->
<g id="Node000010" class="node">
<title>Node10</title>
<g id="a_Node000010"><a xlink:href="../../de/d9d/classengine_1_1direct3d_1_1readonly__d3d__resource__wrapper.html" target="_top" xlink:title="The readonly d3d resource wrapper class.">
<polygon fill="white" stroke="#666666" points="300,-126.99 158,-126.99 158,-96.49 300,-96.49 300,-126.99"/>
<text text-anchor="start" x="166" y="-113.49" font-family="Helvetica,sans-Serif" font-size="10.00">engine::direct3d::readonly</text>
<text text-anchor="middle" x="229" y="-102.24" font-family="Helvetica,sans-Serif" font-size="10.00">_d3d_resource_wrapper&lt; T &gt;</text>
</a>
</g>
</g>
<!-- Node4&#45;&gt;Node10 -->
<g id="edge12_Node000010_Node000004" class="edge">
<title>Node4&#45;&gt;Node10</title>
<g id="a_edge12_Node000010_Node000004"><a xlink:title=" ">
<path fill="none" stroke="darkgreen" d="M102.3,-168.33C119.41,-159.91 139.58,-150.17 158,-141.74 168.46,-136.96 179.9,-131.96 190.43,-127.45"/>
<polygon fill="darkgreen" stroke="darkgreen" points="101.02,-165.55 93.61,-173.12 104.13,-171.83 101.02,-165.55"/>
</a>
</g>
</g>
<!-- Node5 -->
<g id="Node000005" class="node">
<title>Node5</title>
<g id="a_Node000005"><a xlink:href="../../df/d6a/classengine_1_1direct3d_1_1__state__detail_1_1state__readonly__wrapper.html" target="_top" xlink:title=" ">
<polygon fill="white" stroke="#666666" points="509,-310.24 346,-310.24 346,-257.24 509,-257.24 509,-310.24"/>
<text text-anchor="start" x="354" y="-296.74" font-family="Helvetica,sans-Serif" font-size="10.00">engine::direct3d::</text>
<text text-anchor="start" x="354" y="-285.49" font-family="Helvetica,sans-Serif" font-size="10.00">_state_detail::state</text>
<text text-anchor="start" x="354" y="-274.24" font-family="Helvetica,sans-Serif" font-size="10.00">_readonly_wrapper&lt; ID3D11Depth</text>
<text text-anchor="middle" x="427.5" y="-262.99" font-family="Helvetica,sans-Serif" font-size="10.00">StencilState &gt;</text>
</a>
</g>
</g>
<!-- Node5&#45;&gt;Node1 -->
<g id="edge4_Node000001_Node000005" class="edge">
<title>Node5&#45;&gt;Node1</title>
<g id="a_edge4_Node000001_Node000005"><a xlink:title=" ">
<path fill="none" stroke="#9a32cd" stroke-dasharray="5,2" d="M520.24,-309.72C563.39,-317.13 614.51,-318.76 656.75,-299.74 691.43,-284.13 716.59,-243.74 726.87,-224.82"/>
<polygon fill="#9a32cd" stroke="#9a32cd" points="520.93,-306.1 510.46,-307.72 519.65,-312.99 520.93,-306.1"/>
</a>
</g>
<text text-anchor="middle" x="596.38" y="-417.74" font-family="Helvetica,sans-Serif" font-size="10.00" fill="grey"> geq_depth</text>
<text text-anchor="middle" x="596.38" y="-406.49" font-family="Helvetica,sans-Serif" font-size="10.00" fill="grey">geq_depth_no_write</text>
<text text-anchor="start" x="541.25" y="-395.24" font-family="Helvetica,sans-Serif" font-size="10.00" fill="grey">geq_depth_write_stencil</text>
<text text-anchor="middle" x="596.38" y="-383.99" font-family="Helvetica,sans-Serif" font-size="10.00" fill="grey">_read</text>
<text text-anchor="start" x="541.25" y="-372.74" font-family="Helvetica,sans-Serif" font-size="10.00" fill="grey">geq_depth_write_stencil</text>
<text text-anchor="middle" x="596.38" y="-361.49" font-family="Helvetica,sans-Serif" font-size="10.00" fill="grey">_replace</text>
<text text-anchor="middle" x="596.38" y="-350.24" font-family="Helvetica,sans-Serif" font-size="10.00" fill="grey">no_depth_no_write</text>
<text text-anchor="middle" x="596.38" y="-338.99" font-family="Helvetica,sans-Serif" font-size="10.00" fill="grey">no_depth_stencil_read</text>
<text text-anchor="middle" x="596.38" y="-327.74" font-family="Helvetica,sans-Serif" font-size="10.00" fill="grey">no_depth_stencil_replace</text>
<text text-anchor="middle" x="596.38" y="-316.49" font-family="Helvetica,sans-Serif" font-size="10.00" fill="grey">no_depth_write</text>
</g>
<!-- Node6&#45;&gt;Node5 -->
<g id="edge5_Node000005_Node000006" class="edge">
<title>Node6&#45;&gt;Node5</title>
<g id="a_edge5_Node000005_Node000006"><a xlink:title=" ">
<path fill="none" stroke="#63b8ff" d="M293.32,-244.43C309.96,-249.35 328.15,-254.71 345.58,-259.86"/>
<polygon fill="#63b8ff" stroke="#63b8ff" points="294.76,-240.91 284.18,-241.44 292.78,-247.63 294.76,-240.91"/>
</a>
</g>
</g>
<!-- Node7 -->
<g id="Node000007" class="node">
<title>Node7</title>
<g id="a_Node000007"><a xlink:href="../../df/d6a/classengine_1_1direct3d_1_1__state__detail_1_1state__readonly__wrapper.html" target="_top" xlink:title=" ">
<polygon fill="white" stroke="#666666" points="514.25,-168.24 340.75,-168.24 340.75,-115.24 514.25,-115.24 514.25,-168.24"/>
<text text-anchor="start" x="348.75" y="-154.74" font-family="Helvetica,sans-Serif" font-size="10.00">engine::direct3d::</text>
<text text-anchor="start" x="348.75" y="-143.49" font-family="Helvetica,sans-Serif" font-size="10.00">_state_detail::state</text>
<text text-anchor="start" x="348.75" y="-132.24" font-family="Helvetica,sans-Serif" font-size="10.00">_readonly_wrapper&lt; ID3D11Sampler</text>
<text text-anchor="middle" x="427.5" y="-120.99" font-family="Helvetica,sans-Serif" font-size="10.00">State &gt;</text>
</a>
</g>
</g>
<!-- Node7&#45;&gt;Node1 -->
<g id="edge7_Node000001_Node000007" class="edge">
<title>Node7&#45;&gt;Node1</title>
<g id="a_edge7_Node000001_Node000007"><a xlink:title=" ">
<path fill="none" stroke="#9a32cd" stroke-dasharray="5,2" d="M492.97,-110.71C540.7,-92.44 605.98,-77.68 656.75,-104.49 697.94,-126.25 720.84,-181.81 728.78,-204.68"/>
<polygon fill="#9a32cd" stroke="#9a32cd" points="491.76,-107.82 483.76,-114.77 494.35,-114.32 491.76,-107.82"/>
</a>
</g>
<text text-anchor="middle" x="596.38" y="-285.49" font-family="Helvetica,sans-Serif" font-size="10.00" fill="grey"> anisotropic_clamp_sampler</text>
<text text-anchor="middle" x="596.38" y="-274.24" font-family="Helvetica,sans-Serif" font-size="10.00" fill="grey">anisotropic_wrap_sampler</text>
<text text-anchor="middle" x="596.38" y="-262.99" font-family="Helvetica,sans-Serif" font-size="10.00" fill="grey">bilinear_clamp_sampler</text>
<text text-anchor="middle" x="596.38" y="-251.74" font-family="Helvetica,sans-Serif" font-size="10.00" fill="grey">bilinear_wrap_sampler</text>
<text text-anchor="start" x="536" y="-240.49" font-family="Helvetica,sans-Serif" font-size="10.00" fill="grey">comparison_anisotropic</text>
<text text-anchor="middle" x="596.38" y="-229.24" font-family="Helvetica,sans-Serif" font-size="10.00" fill="grey">_clamp_sampler</text>
<text text-anchor="start" x="536" y="-217.99" font-family="Helvetica,sans-Serif" font-size="10.00" fill="grey">comparison_anisotropic</text>
<text text-anchor="middle" x="596.38" y="-206.74" font-family="Helvetica,sans-Serif" font-size="10.00" fill="grey">_wrap_sampler</text>
<text text-anchor="start" x="536" y="-195.49" font-family="Helvetica,sans-Serif" font-size="10.00" fill="grey">comparison_linear_clamp</text>
<text text-anchor="middle" x="596.38" y="-184.24" font-family="Helvetica,sans-Serif" font-size="10.00" fill="grey">_sampler</text>
<text text-anchor="start" x="536" y="-172.99" font-family="Helvetica,sans-Serif" font-size="10.00" fill="grey">comparison_linear_wrap</text>
<text text-anchor="middle" x="596.38" y="-161.74" font-family="Helvetica,sans-Serif" font-size="10.00" fill="grey">_sampler</text>
<text text-anchor="start" x="536" y="-150.49" font-family="Helvetica,sans-Serif" font-size="10.00" fill="grey">comparison_point_clamp</text>
<text text-anchor="middle" x="596.38" y="-139.24" font-family="Helvetica,sans-Serif" font-size="10.00" fill="grey">_sampler</text>
<text text-anchor="start" x="536" y="-127.99" font-family="Helvetica,sans-Serif" font-size="10.00" fill="grey">comparison_point_wrap</text>
<text text-anchor="middle" x="596.38" y="-116.74" font-family="Helvetica,sans-Serif" font-size="10.00" fill="grey">_sampler</text>
<text text-anchor="middle" x="596.38" y="-105.49" font-family="Helvetica,sans-Serif" font-size="10.00" fill="grey">...</text>
</g>
<!-- Node8&#45;&gt;Node7 -->
<g id="edge8_Node000007_Node000008" class="edge">
<title>Node8&#45;&gt;Node7</title>
<g id="a_edge8_Node000007_Node000008"><a xlink:title=" ">
<path fill="none" stroke="#63b8ff" d="M311.18,-155.83C320.85,-154.65 330.75,-153.44 340.48,-152.25"/>
<polygon fill="#63b8ff" stroke="#63b8ff" points="310.89,-152.46 301.39,-157.15 311.74,-159.41 310.89,-152.46"/>
</a>
</g>
</g>
<!-- Node9 -->
<g id="Node000009" class="node">
<title>Node9</title>
<g id="a_Node000009"><a xlink:href="../../df/d6a/classengine_1_1direct3d_1_1__state__detail_1_1state__readonly__wrapper.html" target="_top" xlink:title=" ">
<polygon fill="white" stroke="#666666" points="508.62,-87.24 346.38,-87.24 346.38,-34.24 508.62,-34.24 508.62,-87.24"/>
<text text-anchor="start" x="354.38" y="-73.74" font-family="Helvetica,sans-Serif" font-size="10.00">engine::direct3d::</text>
<text text-anchor="start" x="354.38" y="-62.49" font-family="Helvetica,sans-Serif" font-size="10.00">_state_detail::state</text>
<text text-anchor="start" x="354.38" y="-51.24" font-family="Helvetica,sans-Serif" font-size="10.00">_readonly_wrapper&lt; ID3D11Blend</text>
<text text-anchor="middle" x="427.5" y="-39.99" font-family="Helvetica,sans-Serif" font-size="10.00">State &gt;</text>
</a>
</g>
</g>
<!-- Node9&#45;&gt;Node1 -->
<g id="edge10_Node000001_Node000009" class="edge">
<title>Node9&#45;&gt;Node1</title>
<g id="a_edge10_Node000001_Node000009"><a xlink:title=" ">
<path fill="none" stroke="#9a32cd" stroke-dasharray="5,2" d="M483.76,-29.22C533.19,-5.65 605.53,16.99 656.75,-18.24 721.46,-62.75 730.55,-171.1 731.81,-204.66"/>
<polygon fill="#9a32cd" stroke="#9a32cd" points="482.62,-26.38 475.2,-33.93 485.71,-32.66 482.62,-26.38"/>
</a>
</g>
<text text-anchor="start" x="550.62" y="-76.74" font-family="Helvetica,sans-Serif" font-size="10.00" fill="grey"> additive_blend_state</text>
<text text-anchor="middle" x="596.38" y="-65.49" font-family="Helvetica,sans-Serif" font-size="10.00" fill="grey">_alpha</text>
<text text-anchor="start" x="550.62" y="-54.24" font-family="Helvetica,sans-Serif" font-size="10.00" fill="grey">additive_blend_state</text>
<text text-anchor="middle" x="596.38" y="-42.99" font-family="Helvetica,sans-Serif" font-size="10.00" fill="grey">_no_alpha</text>
<text text-anchor="start" x="550.62" y="-31.74" font-family="Helvetica,sans-Serif" font-size="10.00" fill="grey">alpha_to_coverage</text>
<text text-anchor="middle" x="596.38" y="-20.49" font-family="Helvetica,sans-Serif" font-size="10.00" fill="grey">_blend_state</text>
</g>
<!-- Node10&#45;&gt;Node9 -->
<g id="edge11_Node000009_Node000010" class="edge">
<title>Node10&#45;&gt;Node9</title>
<g id="a_edge11_Node000009_Node000010"><a xlink:title=" ">
<path fill="none" stroke="#63b8ff" d="M301,-93.32C315.57,-89.53 331.01,-85.53 345.89,-81.67"/>
<polygon fill="#63b8ff" stroke="#63b8ff" points="300.36,-90.13 291.56,-96.03 302.12,-96.9 300.36,-90.13"/>
</a>
</g>
</g>
<!-- Node11&#45;&gt;Node1 -->
<g id="edge13_Node000001_Node000011" class="edge">
<title>Node11&#45;&gt;Node1</title>
<g id="a_edge13_Node000001_Node000011"><a xlink:title=" ">
<path fill="none" stroke="#9a32cd" stroke-dasharray="5,2" d="M860.68,-199.38C858.26,-199.04 855.86,-198.75 853.5,-198.49 833.95,-196.4 828.81,-196.41 809.25,-198.49 797.42,-199.76 784.72,-202.1 773.19,-204.63"/>
<polygon fill="#9a32cd" stroke="#9a32cd" points="859.93,-202.96 870.35,-201.05 861.01,-196.04 859.93,-202.96"/>
</a>
</g>
<text text-anchor="middle" x="831.38" y="-199.49" font-family="Helvetica,sans-Serif" font-size="10.00" fill="grey"> instance_</text>
</g>
</g>
</svg>
