<?xml version="1.0" encoding="UTF-8" standalone="no"?>
<!DOCTYPE svg PUBLIC "-//W3C//DTD SVG 1.1//EN"
 "http://www.w3.org/Graphics/SVG/1.1/DTD/svg11.dtd">
<!-- Generated by graphviz version 8.1.0 (20230707.0739)
 -->
<!-- Title: engine/direct3d11/typedefs.hpp Pages: 1 -->
<svg width="3021pt" height="193pt"
 viewBox="0.00 0.00 3020.50 193.50" xmlns="http://www.w3.org/2000/svg" xmlns:xlink="http://www.w3.org/1999/xlink">
<g id="graph0" class="graph" transform="scale(1 1) rotate(0) translate(4 189.5)">
<title>engine/direct3d11/typedefs.hpp</title>
<!-- Node1 -->
<g id="Node000001" class="node">
<title>Node1</title>
<g id="a_Node000001"><a xlink:title=" ">
<polygon fill="#999999" stroke="#666666" points="955.88,-185.5 805.62,-185.5 805.62,-166.25 955.88,-166.25 955.88,-185.5"/>
<text text-anchor="middle" x="880.75" y="-172" font-family="Helvetica,sans-Serif" font-size="10.00">engine/direct3d11/typedefs.hpp</text>
</a>
</g>
</g>
<!-- Node2 -->
<g id="Node000002" class="node">
<title>Node2</title>
<g id="a_Node000002"><a xlink:href="../../d0/dd5/d3d-common_8hpp.html" target="_top" xlink:title=" ">
<polygon fill="white" stroke="#666666" points="925.88,-130.25 835.62,-130.25 835.62,-111 925.88,-111 925.88,-130.25"/>
<text text-anchor="middle" x="880.75" y="-116.75" font-family="Helvetica,sans-Serif" font-size="10.00">d3d&#45;common.hpp</text>
</a>
</g>
</g>
<!-- Node1&#45;&gt;Node2 -->
<g id="edge1_Node000001_Node000002" class="edge">
<title>Node1&#45;&gt;Node2</title>
<g id="a_edge1_Node000001_Node000002"><a xlink:title=" ">
<path fill="none" stroke="#63b8ff" d="M875.58,-166.08C874.14,-159.34 873.68,-149.77 874.21,-141.24"/>
<polygon fill="#63b8ff" stroke="#63b8ff" points="877.77,-141.97 875.54,-131.61 870.83,-141.1 877.77,-141.97"/>
</a>
</g>
</g>
<!-- Node2&#45;&gt;Node1 -->
<g id="edge46_Node000002_Node000001" class="edge">
<title>Node2&#45;&gt;Node1</title>
<g id="a_edge46_Node000002_Node000001"><a xlink:title=" ">
<path fill="none" stroke="#63b8ff" d="M885.96,-130.61C887.36,-137.33 887.81,-146.77 887.29,-155.21"/>
<polygon fill="#63b8ff" stroke="#63b8ff" points="883.7,-154.72 885.92,-165.08 890.64,-155.6 883.7,-154.72"/>
</a>
</g>
</g>
<!-- Node3 -->
<g id="Node000003" class="node">
<title>Node3</title>
<g id="a_Node000003"><a xlink:href="../../d1/d0a/d3d_8hpp.html" target="_top" xlink:title=" ">
<polygon fill="white" stroke="#666666" points="241.5,-75 158,-75 158,-55.75 241.5,-55.75 241.5,-75"/>
<text text-anchor="middle" x="199.75" y="-61.5" font-family="Helvetica,sans-Serif" font-size="10.00">include/d3d.hpp</text>
</a>
</g>
</g>
<!-- Node2&#45;&gt;Node3 -->
<g id="edge2_Node000002_Node000003" class="edge">
<title>Node2&#45;&gt;Node3</title>
<g id="a_edge2_Node000002_Node000003"><a xlink:title=" ">
<path fill="none" stroke="#63b8ff" d="M835.28,-116.07C713.81,-106.57 382.2,-80.64 252.63,-70.51"/>
<polygon fill="#63b8ff" stroke="#63b8ff" points="253.07,-66.95 242.83,-69.66 252.52,-73.93 253.07,-66.95"/>
</a>
</g>
</g>
<!-- Node8 -->
<g id="Node000008" class="node">
<title>Node8</title>
<g id="a_Node000008"><a xlink:href="../../db/d6e/library-pch_8hpp.html" target="_top" xlink:title=" ">
<polygon fill="white" stroke="#666666" points="1649.75,-75 1537.75,-75 1537.75,-55.75 1649.75,-55.75 1649.75,-75"/>
<text text-anchor="middle" x="1593.75" y="-61.5" font-family="Helvetica,sans-Serif" font-size="10.00">include/library&#45;pch.hpp</text>
</a>
</g>
</g>
<!-- Node2&#45;&gt;Node8 -->
<g id="edge7_Node000002_Node000008" class="edge">
<title>Node2&#45;&gt;Node8</title>
<g id="a_edge7_Node000002_Node000008"><a xlink:title=" ">
<path fill="none" stroke="#63b8ff" d="M926.16,-116.23C1047.99,-107.13 1382.5,-82.15 1526.44,-71.4"/>
<polygon fill="#63b8ff" stroke="#63b8ff" points="1526.58,-74.83 1536.29,-70.59 1526.06,-67.84 1526.58,-74.83"/>
</a>
</g>
</g>
<!-- Node4 -->
<g id="Node000004" class="node">
<title>Node4</title>
<g id="a_Node000004"><a xlink:href="../../d8/d2a/win-def_8hpp.html" target="_top" xlink:title=" ">
<polygon fill="white" stroke="#666666" points="65.5,-19.75 0,-19.75 0,-0.5 65.5,-0.5 65.5,-19.75"/>
<text text-anchor="middle" x="32.75" y="-6.25" font-family="Helvetica,sans-Serif" font-size="10.00">win&#45;def.hpp</text>
</a>
</g>
</g>
<!-- Node3&#45;&gt;Node4 -->
<g id="edge3_Node000003_Node000004" class="edge">
<title>Node3&#45;&gt;Node4</title>
<g id="a_edge3_Node000003_Node000004"><a xlink:title=" ">
<path fill="none" stroke="#63b8ff" d="M171.42,-55.34C143.95,-46.58 102.06,-33.22 71.51,-23.48"/>
<polygon fill="#63b8ff" stroke="#63b8ff" points="72.81,-19.9 62.22,-20.2 70.68,-26.57 72.81,-19.9"/>
</a>
</g>
</g>
<!-- Node5 -->
<g id="Node000005" class="node">
<title>Node5</title>
<g id="a_Node000005"><a xlink:title=" ">
<polygon fill="#e0e0e0" stroke="#999999" points="143.88,-19.75 83.62,-19.75 83.62,-0.5 143.88,-0.5 143.88,-19.75"/>
<text text-anchor="middle" x="113.75" y="-6.25" font-family="Helvetica,sans-Serif" font-size="10.00">d3d11_4.h</text>
</a>
</g>
</g>
<!-- Node3&#45;&gt;Node5 -->
<g id="edge4_Node000003_Node000005" class="edge">
<title>Node3&#45;&gt;Node5</title>
<g id="a_edge4_Node000003_Node000005"><a xlink:title=" ">
<path fill="none" stroke="#63b8ff" d="M185.16,-55.34C172.19,-47.31 152.97,-35.41 137.74,-25.98"/>
<polygon fill="#63b8ff" stroke="#63b8ff" points="139.75,-22.49 129.41,-20.2 136.07,-28.44 139.75,-22.49"/>
</a>
</g>
</g>
<!-- Node6 -->
<g id="Node000006" class="node">
<title>Node6</title>
<g id="a_Node000006"><a xlink:title=" ">
<polygon fill="#e0e0e0" stroke="#999999" points="237.75,-19.75 161.75,-19.75 161.75,-0.5 237.75,-0.5 237.75,-19.75"/>
<text text-anchor="middle" x="199.75" y="-6.25" font-family="Helvetica,sans-Serif" font-size="10.00">d3dcompiler.h</text>
</a>
</g>
</g>
<!-- Node3&#45;&gt;Node6 -->
<g id="edge5_Node000003_Node000006" class="edge">
<title>Node3&#45;&gt;Node6</title>
<g id="a_edge5_Node000003_Node000006"><a xlink:title=" ">
<path fill="none" stroke="#63b8ff" d="M199.75,-55.58C199.75,-48.91 199.75,-39.49 199.75,-31.03"/>
<polygon fill="#63b8ff" stroke="#63b8ff" points="203.25,-31.11 199.75,-21.11 196.25,-31.11 203.25,-31.11"/>
</a>
</g>
</g>
<!-- Node7 -->
<g id="Node000007" class="node">
<title>Node7</title>
<g id="a_Node000007"><a xlink:href="../../d4/dfc/win-undef_8hpp.html" target="_top" xlink:title=" ">
<polygon fill="white" stroke="#666666" points="331.75,-19.75 255.75,-19.75 255.75,-0.5 331.75,-0.5 331.75,-19.75"/>
<text text-anchor="middle" x="293.75" y="-6.25" font-family="Helvetica,sans-Serif" font-size="10.00">win&#45;undef.hpp</text>
</a>
</g>
</g>
<!-- Node3&#45;&gt;Node7 -->
<g id="edge6_Node000003_Node000007" class="edge">
<title>Node3&#45;&gt;Node7</title>
<g id="a_edge6_Node000003_Node000007"><a xlink:title=" ">
<path fill="none" stroke="#63b8ff" d="M215.7,-55.34C230.15,-47.15 251.68,-34.95 268.48,-25.44"/>
<polygon fill="#63b8ff" stroke="#63b8ff" points="269.75,-28.18 276.73,-20.2 266.3,-22.08 269.75,-28.18"/>
</a>
</g>
</g>
<!-- Node9 -->
<g id="Node000009" class="node">
<title>Node9</title>
<g id="a_Node000009"><a xlink:title=" ">
<polygon fill="#e0e0e0" stroke="#999999" points="419.75,-19.75 349.75,-19.75 349.75,-0.5 419.75,-0.5 419.75,-19.75"/>
<text text-anchor="middle" x="384.75" y="-6.25" font-family="Helvetica,sans-Serif" font-size="10.00">entt/entt.hpp</text>
</a>
</g>
</g>
<!-- Node8&#45;&gt;Node9 -->
<g id="edge8_Node000008_Node000009" class="edge">
<title>Node8&#45;&gt;Node9</title>
<g id="a_edge8_Node000008_Node000009"><a xlink:title=" ">
<path fill="none" stroke="#63b8ff" d="M1537.46,-63.38C1338.51,-59.68 668.11,-45.64 430.85,-19.77"/>
<polygon fill="#63b8ff" stroke="#63b8ff" points="431.55,-16.21 421.22,-18.57 430.76,-23.17 431.55,-16.21"/>
</a>
</g>
</g>
<!-- Node10 -->
<g id="Node000010" class="node">
<title>Node10</title>
<g id="a_Node000010"><a xlink:title=" ">
<polygon fill="#e0e0e0" stroke="#999999" points="493.62,-19.75 437.88,-19.75 437.88,-0.5 493.62,-0.5 493.62,-19.75"/>
<text text-anchor="middle" x="465.75" y="-6.25" font-family="Helvetica,sans-Serif" font-size="10.00">algorithm</text>
</a>
</g>
</g>
<!-- Node8&#45;&gt;Node10 -->
<g id="edge9_Node000008_Node000010" class="edge">
<title>Node8&#45;&gt;Node10</title>
<g id="a_edge9_Node000008_Node000010"><a xlink:title=" ">
<path fill="none" stroke="#63b8ff" d="M1537.3,-63.52C1346.55,-60.39 725.92,-48.36 504.8,-19.88"/>
<polygon fill="#63b8ff" stroke="#63b8ff" points="505.33,-16.29 494.95,-18.43 504.4,-23.23 505.33,-16.29"/>
</a>
</g>
</g>
<!-- Node11 -->
<g id="Node000011" class="node">
<title>Node11</title>
<g id="a_Node000011"><a xlink:title=" ">
<polygon fill="#e0e0e0" stroke="#999999" points="548.25,-19.75 511.25,-19.75 511.25,-0.5 548.25,-0.5 548.25,-19.75"/>
<text text-anchor="middle" x="529.75" y="-6.25" font-family="Helvetica,sans-Serif" font-size="10.00">array</text>
</a>
</g>
</g>
<!-- Node8&#45;&gt;Node11 -->
<g id="edge10_Node000008_Node000011" class="edge">
<title>Node8&#45;&gt;Node11</title>
<g id="a_edge10_Node000008_Node000011"><a xlink:title=" ">
<path fill="none" stroke="#63b8ff" d="M1537.54,-63.84C1353.47,-61.81 769.02,-53 559.17,-19.41"/>
<polygon fill="#63b8ff" stroke="#63b8ff" points="560.01,-15.84 549.57,-17.64 558.85,-22.74 560.01,-15.84"/>
</a>
</g>
</g>
<!-- Node12 -->
<g id="Node000012" class="node">
<title>Node12</title>
<g id="a_Node000012"><a xlink:title=" ">
<polygon fill="#e0e0e0" stroke="#999999" points="617,-19.75 566.5,-19.75 566.5,-0.5 617,-0.5 617,-19.75"/>
<text text-anchor="middle" x="591.75" y="-6.25" font-family="Helvetica,sans-Serif" font-size="10.00">assert.h</text>
</a>
</g>
</g>
<!-- Node8&#45;&gt;Node12 -->
<g id="edge11_Node000008_Node000012" class="edge">
<title>Node8&#45;&gt;Node12</title>
<g id="a_edge11_Node000008_Node000012"><a xlink:title=" ">
<path fill="none" stroke="#63b8ff" d="M1537.26,-63.27C1361.33,-59.6 823.85,-46.59 627.99,-19.72"/>
<polygon fill="#63b8ff" stroke="#63b8ff" points="628.65,-16.14 618.26,-18.18 627.66,-23.07 628.65,-16.14"/>
</a>
</g>
</g>
<!-- Node13 -->
<g id="Node000013" class="node">
<title>Node13</title>
<g id="a_Node000013"><a xlink:title=" ">
<polygon fill="#e0e0e0" stroke="#999999" points="680.38,-19.75 635.12,-19.75 635.12,-0.5 680.38,-0.5 680.38,-19.75"/>
<text text-anchor="middle" x="657.75" y="-6.25" font-family="Helvetica,sans-Serif" font-size="10.00">chrono</text>
</a>
</g>
</g>
<!-- Node8&#45;&gt;Node13 -->
<g id="edge12_Node000008_Node000013" class="edge">
<title>Node8&#45;&gt;Node13</title>
<g id="a_edge12_Node000008_Node000013"><a xlink:title=" ">
<path fill="none" stroke="#63b8ff" d="M1537.32,-63.23C1369.41,-59.58 873.75,-46.89 691.42,-19.78"/>
<polygon fill="#63b8ff" stroke="#63b8ff" points="692.07,-16.19 681.65,-18.1 690.99,-23.1 692.07,-16.19"/>
</a>
</g>
</g>
<!-- Node14 -->
<g id="Node000014" class="node">
<title>Node14</title>
<g id="a_Node000014"><a xlink:title=" ">
<polygon fill="#e0e0e0" stroke="#999999" points="741.25,-19.75 698.25,-19.75 698.25,-0.5 741.25,-0.5 741.25,-19.75"/>
<text text-anchor="middle" x="719.75" y="-6.25" font-family="Helvetica,sans-Serif" font-size="10.00">cmath</text>
</a>
</g>
</g>
<!-- Node8&#45;&gt;Node14 -->
<g id="edge13_Node000008_Node000014" class="edge">
<title>Node8&#45;&gt;Node14</title>
<g id="a_edge13_Node000008_Node000014"><a xlink:title=" ">
<path fill="none" stroke="#63b8ff" d="M1537.39,-63.06C1377.48,-59.08 922.1,-45.89 752.34,-19.76"/>
<polygon fill="#63b8ff" stroke="#63b8ff" points="753,-16.16 742.57,-18.02 751.89,-23.07 753,-16.16"/>
</a>
</g>
</g>
<!-- Node15 -->
<g id="Node000015" class="node">
<title>Node15</title>
<g id="a_Node000015"><a xlink:title=" ">
<polygon fill="#e0e0e0" stroke="#999999" points="814.62,-19.75 758.88,-19.75 758.88,-0.5 814.62,-0.5 814.62,-19.75"/>
<text text-anchor="middle" x="786.75" y="-6.25" font-family="Helvetica,sans-Serif" font-size="10.00">concepts</text>
</a>
</g>
</g>
<!-- Node8&#45;&gt;Node15 -->
<g id="edge14_Node000008_Node000015" class="edge">
<title>Node8&#45;&gt;Node15</title>
<g id="a_edge14_Node000008_Node000015"><a xlink:title=" ">
<path fill="none" stroke="#63b8ff" d="M1537.38,-64.4C1411.37,-63.74 1097.24,-58.18 825.79,-19.78"/>
<polygon fill="#63b8ff" stroke="#63b8ff" points="826.33,-16.17 815.94,-18.22 825.34,-23.1 826.33,-16.17"/>
</a>
</g>
</g>
<!-- Node16 -->
<g id="Node000016" class="node">
<title>Node16</title>
<g id="a_Node000016"><a xlink:title=" ">
<polygon fill="#e0e0e0" stroke="#999999" points="926.75,-19.75 832.75,-19.75 832.75,-0.5 926.75,-0.5 926.75,-19.75"/>
<text text-anchor="middle" x="879.75" y="-6.25" font-family="Helvetica,sans-Serif" font-size="10.00">condition_variable</text>
</a>
</g>
</g>
<!-- Node8&#45;&gt;Node16 -->
<g id="edge15_Node000008_Node000016" class="edge">
<title>Node8&#45;&gt;Node16</title>
<g id="a_edge15_Node000008_Node000016"><a xlink:title=" ">
<path fill="none" stroke="#63b8ff" d="M1537.27,-62.16C1425.07,-57.42 1165.93,-44.72 937.9,-19.89"/>
<polygon fill="#63b8ff" stroke="#63b8ff" points="938.39,-16.32 928.07,-18.7 937.63,-23.27 938.39,-16.32"/>
</a>
</g>
</g>
<!-- Node17 -->
<g id="Node000017" class="node">
<title>Node17</title>
<g id="a_Node000017"><a xlink:title=" ">
<polygon fill="#e0e0e0" stroke="#999999" points="990.38,-19.75 945.12,-19.75 945.12,-0.5 990.38,-0.5 990.38,-19.75"/>
<text text-anchor="middle" x="967.75" y="-6.25" font-family="Helvetica,sans-Serif" font-size="10.00">cstdint</text>
</a>
</g>
</g>
<!-- Node8&#45;&gt;Node17 -->
<g id="edge16_Node000008_Node000017" class="edge">
<title>Node8&#45;&gt;Node17</title>
<g id="a_edge16_Node000008_Node000017"><a xlink:title=" ">
<path fill="none" stroke="#63b8ff" d="M1537.64,-63.67C1433.6,-61.6 1203.74,-53.46 1001.53,-19.7"/>
<polygon fill="#63b8ff" stroke="#63b8ff" points="1002.15,-16.09 991.71,-17.87 1000.98,-22.99 1002.15,-16.09"/>
</a>
</g>
</g>
<!-- Node18 -->
<g id="Node000018" class="node">
<title>Node18</title>
<g id="a_Node000018"><a xlink:title=" ">
<polygon fill="#e0e0e0" stroke="#999999" points="1053,-19.75 1008.5,-19.75 1008.5,-0.5 1053,-0.5 1053,-19.75"/>
<text text-anchor="middle" x="1030.75" y="-6.25" font-family="Helvetica,sans-Serif" font-size="10.00">cstdlib</text>
</a>
</g>
</g>
<!-- Node8&#45;&gt;Node18 -->
<g id="edge17_Node000008_Node000018" class="edge">
<title>Node8&#45;&gt;Node18</title>
<g id="a_edge17_Node000008_Node000018"><a xlink:title=" ">
<path fill="none" stroke="#63b8ff" d="M1537.39,-63.11C1441.68,-60.22 1241.29,-50.89 1063.9,-19.82"/>
<polygon fill="#63b8ff" stroke="#63b8ff" points="1064.78,-16.24 1054.32,-17.93 1063.55,-23.13 1064.78,-16.24"/>
</a>
</g>
</g>
<!-- Node19 -->
<g id="Node000019" class="node">
<title>Node19</title>
<g id="a_Node000019"><a xlink:title=" ">
<polygon fill="#e0e0e0" stroke="#999999" points="1130.5,-19.75 1071,-19.75 1071,-0.5 1130.5,-0.5 1130.5,-19.75"/>
<text text-anchor="middle" x="1100.75" y="-6.25" font-family="Helvetica,sans-Serif" font-size="10.00">filesystem</text>
</a>
</g>
</g>
<!-- Node8&#45;&gt;Node19 -->
<g id="edge18_Node000008_Node000019" class="edge">
<title>Node8&#45;&gt;Node19</title>
<g id="a_edge18_Node000008_Node000019"><a xlink:title=" ">
<path fill="none" stroke="#63b8ff" d="M1537.42,-61.13C1453.18,-55.78 1289.27,-43.43 1141.57,-20.04"/>
<polygon fill="#63b8ff" stroke="#63b8ff" points="1142.39,-16.47 1131.97,-18.34 1141.28,-23.38 1142.39,-16.47"/>
</a>
</g>
</g>
<!-- Node20 -->
<g id="Node000020" class="node">
<title>Node20</title>
<g id="a_Node000020"><a xlink:title=" ">
<polygon fill="#e0e0e0" stroke="#999999" points="1197.25,-19.75 1148.25,-19.75 1148.25,-0.5 1197.25,-0.5 1197.25,-19.75"/>
<text text-anchor="middle" x="1172.75" y="-6.25" font-family="Helvetica,sans-Serif" font-size="10.00">fstream</text>
</a>
</g>
</g>
<!-- Node8&#45;&gt;Node20 -->
<g id="edge19_Node000008_Node000020" class="edge">
<title>Node8&#45;&gt;Node20</title>
<g id="a_edge19_Node000008_Node000020"><a xlink:title=" ">
<path fill="none" stroke="#63b8ff" d="M1537.32,-60.24C1463.8,-54.34 1331.11,-41.89 1208.26,-19.78"/>
<polygon fill="#63b8ff" stroke="#63b8ff" points="1209.01,-16.18 1198.55,-17.82 1207.76,-23.06 1209.01,-16.18"/>
</a>
</g>
</g>
<!-- Node21 -->
<g id="Node000021" class="node">
<title>Node21</title>
<g id="a_Node000021"><a xlink:title=" ">
<polygon fill="#e0e0e0" stroke="#999999" points="1273.75,-19.75 1215.75,-19.75 1215.75,-0.5 1273.75,-0.5 1273.75,-19.75"/>
<text text-anchor="middle" x="1244.75" y="-6.25" font-family="Helvetica,sans-Serif" font-size="10.00">functional</text>
</a>
</g>
</g>
<!-- Node8&#45;&gt;Node21 -->
<g id="edge20_Node000008_Node000021" class="edge">
<title>Node8&#45;&gt;Node21</title>
<g id="a_edge20_Node000008_Node000021"><a xlink:title=" ">
<path fill="none" stroke="#63b8ff" d="M1537.34,-57.67C1477.12,-50.2 1378.68,-37.1 1284.71,-19.99"/>
<polygon fill="#63b8ff" stroke="#63b8ff" points="1285.63,-16.41 1275.16,-18.05 1284.36,-23.3 1285.63,-16.41"/>
</a>
</g>
</g>
<!-- Node22 -->
<g id="Node000022" class="node">
<title>Node22</title>
<g id="a_Node000022"><a xlink:title=" ">
<polygon fill="#e0e0e0" stroke="#999999" points="1341.62,-19.75 1291.88,-19.75 1291.88,-0.5 1341.62,-0.5 1341.62,-19.75"/>
<text text-anchor="middle" x="1316.75" y="-6.25" font-family="Helvetica,sans-Serif" font-size="10.00">iomanip</text>
</a>
</g>
</g>
<!-- Node8&#45;&gt;Node22 -->
<g id="edge21_Node000008_Node000022" class="edge">
<title>Node8&#45;&gt;Node22</title>
<g id="a_edge21_Node000008_Node000022"><a xlink:title=" ">
<path fill="none" stroke="#63b8ff" d="M1538.53,-55.32C1491.55,-47.36 1422.06,-35.03 1352.64,-20.05"/>
<polygon fill="#63b8ff" stroke="#63b8ff" points="1353.47,-16.43 1342.96,-17.72 1351.98,-23.27 1353.47,-16.43"/>
</a>
</g>
</g>
<!-- Node23 -->
<g id="Node000023" class="node">
<title>Node23</title>
<g id="a_Node000023"><a xlink:title=" ">
<polygon fill="#e0e0e0" stroke="#999999" points="1407.88,-19.75 1359.62,-19.75 1359.62,-0.5 1407.88,-0.5 1407.88,-19.75"/>
<text text-anchor="middle" x="1383.75" y="-6.25" font-family="Helvetica,sans-Serif" font-size="10.00">istream</text>
</a>
</g>
</g>
<!-- Node8&#45;&gt;Node23 -->
<g id="edge22_Node000008_Node000023" class="edge">
<title>Node8&#45;&gt;Node23</title>
<g id="a_edge22_Node000008_Node000023"><a xlink:title=" ">
<path fill="none" stroke="#63b8ff" d="M1557.45,-55.32C1523.83,-46.91 1472.14,-33.93 1418.62,-20.21"/>
<polygon fill="#63b8ff" stroke="#63b8ff" points="1419.81,-16.65 1409.25,-17.55 1418.07,-23.43 1419.81,-16.65"/>
</a>
</g>
</g>
<!-- Node24 -->
<g id="Node000024" class="node">
<title>Node24</title>
<g id="a_Node000024"><a xlink:title=" ">
<polygon fill="#e0e0e0" stroke="#999999" points="1465.38,-19.75 1426.12,-19.75 1426.12,-0.5 1465.38,-0.5 1465.38,-19.75"/>
<text text-anchor="middle" x="1445.75" y="-6.25" font-family="Helvetica,sans-Serif" font-size="10.00">limits</text>
</a>
</g>
</g>
<!-- Node8&#45;&gt;Node24 -->
<g id="edge23_Node000008_Node000024" class="edge">
<title>Node8&#45;&gt;Node24</title>
<g id="a_edge23_Node000008_Node000024"><a xlink:title=" ">
<path fill="none" stroke="#63b8ff" d="M1568.64,-55.34C1543.02,-46.12 1503.23,-31.8 1475.91,-21.97"/>
<polygon fill="#63b8ff" stroke="#63b8ff" points="1477.34,-18.41 1466.75,-18.32 1474.97,-25 1477.34,-18.41"/>
</a>
</g>
</g>
<!-- Node25 -->
<g id="Node000025" class="node">
<title>Node25</title>
<g id="a_Node000025"><a xlink:title=" ">
<polygon fill="#e0e0e0" stroke="#999999" points="1518.12,-19.75 1483.38,-19.75 1483.38,-0.5 1518.12,-0.5 1518.12,-19.75"/>
<text text-anchor="middle" x="1500.75" y="-6.25" font-family="Helvetica,sans-Serif" font-size="10.00">map</text>
</a>
</g>
</g>
<!-- Node8&#45;&gt;Node25 -->
<g id="edge24_Node000008_Node000025" class="edge">
<title>Node8&#45;&gt;Node25</title>
<g id="a_edge24_Node000008_Node000025"><a xlink:title=" ">
<path fill="none" stroke="#63b8ff" d="M1577.97,-55.34C1563.68,-47.15 1542.37,-34.95 1525.76,-25.44"/>
<polygon fill="#63b8ff" stroke="#63b8ff" points="1528.02,-22.13 1517.6,-20.2 1524.54,-28.21 1528.02,-22.13"/>
</a>
</g>
</g>
<!-- Node26 -->
<g id="Node000026" class="node">
<title>Node26</title>
<g id="a_Node000026"><a xlink:title=" ">
<polygon fill="#e0e0e0" stroke="#999999" points="1587,-19.75 1536.5,-19.75 1536.5,-0.5 1587,-0.5 1587,-19.75"/>
<text text-anchor="middle" x="1561.75" y="-6.25" font-family="Helvetica,sans-Serif" font-size="10.00">memory</text>
</a>
</g>
</g>
<!-- Node8&#45;&gt;Node26 -->
<g id="edge25_Node000008_Node000026" class="edge">
<title>Node8&#45;&gt;Node26</title>
<g id="a_edge25_Node000008_Node000026"><a xlink:title=" ">
<path fill="none" stroke="#63b8ff" d="M1588.47,-55.58C1584.18,-48.45 1578.01,-38.18 1572.67,-29.3"/>
<polygon fill="#63b8ff" stroke="#63b8ff" points="1575.3,-27.88 1567.15,-21.11 1569.3,-31.48 1575.3,-27.88"/>
</a>
</g>
</g>
<!-- Node27 -->
<g id="Node000027" class="node">
<title>Node27</title>
<g id="a_Node000027"><a xlink:title=" ">
<polygon fill="#e0e0e0" stroke="#999999" points="1646.88,-19.75 1604.62,-19.75 1604.62,-0.5 1646.88,-0.5 1646.88,-19.75"/>
<text text-anchor="middle" x="1625.75" y="-6.25" font-family="Helvetica,sans-Serif" font-size="10.00">mutex</text>
</a>
</g>
</g>
<!-- Node8&#45;&gt;Node27 -->
<g id="edge26_Node000008_Node000027" class="edge">
<title>Node8&#45;&gt;Node27</title>
<g id="a_edge26_Node000008_Node000027"><a xlink:title=" ">
<path fill="none" stroke="#63b8ff" d="M1599.03,-55.58C1603.32,-48.45 1609.49,-38.18 1614.83,-29.3"/>
<polygon fill="#63b8ff" stroke="#63b8ff" points="1618.2,-31.48 1620.35,-21.11 1612.2,-27.88 1618.2,-31.48"/>
</a>
</g>
</g>
<!-- Node28 -->
<g id="Node000028" class="node">
<title>Node28</title>
<g id="a_Node000028"><a xlink:title=" ">
<polygon fill="#e0e0e0" stroke="#999999" points="1718.5,-19.75 1665,-19.75 1665,-0.5 1718.5,-0.5 1718.5,-19.75"/>
<text text-anchor="middle" x="1691.75" y="-6.25" font-family="Helvetica,sans-Serif" font-size="10.00">numbers</text>
</a>
</g>
</g>
<!-- Node8&#45;&gt;Node28 -->
<g id="edge27_Node000008_Node000028" class="edge">
<title>Node8&#45;&gt;Node28</title>
<g id="a_edge27_Node000008_Node000028"><a xlink:title=" ">
<path fill="none" stroke="#63b8ff" d="M1610.37,-55.34C1625.44,-47.15 1647.89,-34.95 1665.4,-25.44"/>
<polygon fill="#63b8ff" stroke="#63b8ff" points="1666.93,-28.05 1674.04,-20.2 1663.59,-21.9 1666.93,-28.05"/>
</a>
</g>
</g>
<!-- Node29 -->
<g id="Node000029" class="node">
<title>Node29</title>
<g id="a_Node000029"><a xlink:title=" ">
<polygon fill="#e0e0e0" stroke="#999999" points="1787,-19.75 1736.5,-19.75 1736.5,-0.5 1787,-0.5 1787,-19.75"/>
<text text-anchor="middle" x="1761.75" y="-6.25" font-family="Helvetica,sans-Serif" font-size="10.00">numeric</text>
</a>
</g>
</g>
<!-- Node8&#45;&gt;Node29 -->
<g id="edge28_Node000008_Node000029" class="edge">
<title>Node8&#45;&gt;Node29</title>
<g id="a_edge28_Node000008_Node000029"><a xlink:title=" ">
<path fill="none" stroke="#63b8ff" d="M1622.25,-55.34C1650.8,-46.29 1694.85,-32.33 1725.79,-22.52"/>
<polygon fill="#63b8ff" stroke="#63b8ff" points="1726.67,-25.6 1735.14,-19.24 1724.55,-18.92 1726.67,-25.6"/>
</a>
</g>
</g>
<!-- Node30 -->
<g id="Node000030" class="node">
<title>Node30</title>
<g id="a_Node000030"><a xlink:title=" ">
<polygon fill="#e0e0e0" stroke="#999999" points="1854.62,-19.75 1804.88,-19.75 1804.88,-0.5 1854.62,-0.5 1854.62,-19.75"/>
<text text-anchor="middle" x="1829.75" y="-6.25" font-family="Helvetica,sans-Serif" font-size="10.00">optional</text>
</a>
</g>
</g>
<!-- Node8&#45;&gt;Node30 -->
<g id="edge29_Node000008_Node000030" class="edge">
<title>Node8&#45;&gt;Node30</title>
<g id="a_edge29_Node000008_Node000030"><a xlink:title=" ">
<path fill="none" stroke="#63b8ff" d="M1636.79,-55.27C1675.51,-46.99 1734.2,-34.22 1794.11,-20.08"/>
<polygon fill="#63b8ff" stroke="#63b8ff" points="1794.6,-23.33 1803.52,-17.62 1792.98,-16.52 1794.6,-23.33"/>
</a>
</g>
</g>
<!-- Node31 -->
<g id="Node000031" class="node">
<title>Node31</title>
<g id="a_Node000031"><a xlink:title=" ">
<polygon fill="#e0e0e0" stroke="#999999" points="1924.38,-19.75 1873.12,-19.75 1873.12,-0.5 1924.38,-0.5 1924.38,-19.75"/>
<text text-anchor="middle" x="1898.75" y="-6.25" font-family="Helvetica,sans-Serif" font-size="10.00">ostream</text>
</a>
</g>
</g>
<!-- Node8&#45;&gt;Node31 -->
<g id="edge30_Node000008_Node000031" class="edge">
<title>Node8&#45;&gt;Node31</title>
<g id="a_edge30_Node000008_Node000031"><a xlink:title=" ">
<path fill="none" stroke="#63b8ff" d="M1650.09,-56.37C1702.52,-48.62 1783.05,-35.98 1862.16,-19.94"/>
<polygon fill="#63b8ff" stroke="#63b8ff" points="1862.71,-23.19 1871.81,-17.75 1861.31,-16.33 1862.71,-23.19"/>
</a>
</g>
</g>
<!-- Node32 -->
<g id="Node000032" class="node">
<title>Node32</title>
<g id="a_Node000032"><a xlink:title=" ">
<polygon fill="#e0e0e0" stroke="#999999" points="2019.12,-19.75 1942.38,-19.75 1942.38,-0.5 2019.12,-0.5 2019.12,-19.75"/>
<text text-anchor="middle" x="1980.75" y="-6.25" font-family="Helvetica,sans-Serif" font-size="10.00">shared_mutex</text>
</a>
</g>
</g>
<!-- Node8&#45;&gt;Node32 -->
<g id="edge31_Node000008_Node000032" class="edge">
<title>Node8&#45;&gt;Node32</title>
<g id="a_edge31_Node000008_Node000032"><a xlink:title=" ">
<path fill="none" stroke="#63b8ff" d="M1650.13,-57.87C1715.43,-50.13 1826.53,-36.36 1931.28,-20.07"/>
<polygon fill="#63b8ff" stroke="#63b8ff" points="1931.71,-23.39 1941.05,-18.39 1930.63,-16.48 1931.71,-23.39"/>
</a>
</g>
</g>
<!-- Node33 -->
<g id="Node000033" class="node">
<title>Node33</title>
<g id="a_Node000033"><a xlink:title=" ">
<polygon fill="#e0e0e0" stroke="#999999" points="2074.25,-19.75 2037.25,-19.75 2037.25,-0.5 2074.25,-0.5 2074.25,-19.75"/>
<text text-anchor="middle" x="2055.75" y="-6.25" font-family="Helvetica,sans-Serif" font-size="10.00">span</text>
</a>
</g>
</g>
<!-- Node8&#45;&gt;Node33 -->
<g id="edge32_Node000008_Node000033" class="edge">
<title>Node8&#45;&gt;Node33</title>
<g id="a_edge32_Node000008_Node000033"><a xlink:title=" ">
<path fill="none" stroke="#63b8ff" d="M1650.12,-62.11C1731.38,-58.08 1886.17,-47.49 2026.4,-19.61"/>
<polygon fill="#63b8ff" stroke="#63b8ff" points="2026.8,-22.89 2035.9,-17.48 2025.41,-16.03 2026.8,-22.89"/>
</a>
</g>
</g>
<!-- Node34 -->
<g id="Node000034" class="node">
<title>Node34</title>
<g id="a_Node000034"><a xlink:title=" ">
<polygon fill="#e0e0e0" stroke="#999999" points="2143.38,-19.75 2092.12,-19.75 2092.12,-0.5 2143.38,-0.5 2143.38,-19.75"/>
<text text-anchor="middle" x="2117.75" y="-6.25" font-family="Helvetica,sans-Serif" font-size="10.00">sstream</text>
</a>
</g>
</g>
<!-- Node8&#45;&gt;Node34 -->
<g id="edge33_Node000008_Node000034" class="edge">
<title>Node8&#45;&gt;Node34</title>
<g id="a_edge33_Node000008_Node000034"><a xlink:title=" ">
<path fill="none" stroke="#63b8ff" d="M1649.97,-62.14C1739.49,-57.94 1920.02,-46.91 2081.26,-19.94"/>
<polygon fill="#63b8ff" stroke="#63b8ff" points="2081.58,-23.27 2090.85,-18.14 2080.41,-16.37 2081.58,-23.27"/>
</a>
</g>
</g>
<!-- Node35 -->
<g id="Node000035" class="node">
<title>Node35</title>
<g id="a_Node000035"><a xlink:title=" ">
<polygon fill="#e0e0e0" stroke="#999999" points="2219.75,-19.75 2161.75,-19.75 2161.75,-0.5 2219.75,-0.5 2219.75,-19.75"/>
<text text-anchor="middle" x="2190.75" y="-6.25" font-family="Helvetica,sans-Serif" font-size="10.00">stdexcept</text>
</a>
</g>
</g>
<!-- Node8&#45;&gt;Node35 -->
<g id="edge34_Node000008_Node000035" class="edge">
<title>Node8&#45;&gt;Node35</title>
<g id="a_edge34_Node000008_Node000035"><a xlink:title=" ">
<path fill="none" stroke="#63b8ff" d="M1649.99,-62.55C1749.24,-58.76 1962.04,-48.02 2150.7,-19.85"/>
<polygon fill="#63b8ff" stroke="#63b8ff" points="2151.01,-23.19 2160.37,-18.23 2149.96,-16.27 2151.01,-23.19"/>
</a>
</g>
</g>
<!-- Node36 -->
<g id="Node000036" class="node">
<title>Node36</title>
<g id="a_Node000036"><a xlink:title=" ">
<polygon fill="#e0e0e0" stroke="#999999" points="2285.5,-19.75 2238,-19.75 2238,-0.5 2285.5,-0.5 2285.5,-19.75"/>
<text text-anchor="middle" x="2261.75" y="-6.25" font-family="Helvetica,sans-Serif" font-size="10.00">stdint.h</text>
</a>
</g>
</g>
<!-- Node8&#45;&gt;Node36 -->
<g id="edge35_Node000008_Node000036" class="edge">
<title>Node8&#45;&gt;Node36</title>
<g id="a_edge35_Node000008_Node000036"><a xlink:title=" ">
<path fill="none" stroke="#63b8ff" d="M1650.22,-63.91C1759.81,-62.25 2008.99,-54.77 2227.02,-19.7"/>
<polygon fill="#63b8ff" stroke="#63b8ff" points="2227.41,-23.02 2236.71,-17.96 2226.28,-16.11 2227.41,-23.02"/>
</a>
</g>
</g>
<!-- Node37 -->
<g id="Node000037" class="node">
<title>Node37</title>
<g id="a_Node000037"><a xlink:title=" ">
<polygon fill="#e0e0e0" stroke="#999999" points="2343.75,-19.75 2303.75,-19.75 2303.75,-0.5 2343.75,-0.5 2343.75,-19.75"/>
<text text-anchor="middle" x="2323.75" y="-6.25" font-family="Helvetica,sans-Serif" font-size="10.00">string</text>
</a>
</g>
</g>
<!-- Node8&#45;&gt;Node37 -->
<g id="edge36_Node000008_Node000037" class="edge">
<title>Node8&#45;&gt;Node37</title>
<g id="a_edge36_Node000008_Node000037"><a xlink:title=" ">
<path fill="none" stroke="#63b8ff" d="M1650.15,-65.07C1768.13,-65.6 2049.53,-62.05 2292.48,-19.74"/>
<polygon fill="#63b8ff" stroke="#63b8ff" points="2293.06,-23.02 2302.29,-17.83 2291.84,-16.13 2293.06,-23.02"/>
</a>
</g>
</g>
<!-- Node38 -->
<g id="Node000038" class="node">
<title>Node38</title>
<g id="a_Node000038"><a xlink:title=" ">
<polygon fill="#e0e0e0" stroke="#999999" points="2405.25,-19.75 2362.25,-19.75 2362.25,-0.5 2405.25,-0.5 2405.25,-19.75"/>
<text text-anchor="middle" x="2383.75" y="-6.25" font-family="Helvetica,sans-Serif" font-size="10.00">thread</text>
</a>
</g>
</g>
<!-- Node8&#45;&gt;Node38 -->
<g id="edge37_Node000008_Node000038" class="edge">
<title>Node8&#45;&gt;Node38</title>
<g id="a_edge37_Node000008_Node000038"><a xlink:title=" ">
<path fill="none" stroke="#63b8ff" d="M1649.91,-65.13C1774.69,-65.94 2084.36,-63.14 2351.19,-19.6"/>
<polygon fill="#63b8ff" stroke="#63b8ff" points="2351.57,-22.92 2360.86,-17.83 2350.43,-16.01 2351.57,-22.92"/>
</a>
</g>
</g>
<!-- Node39 -->
<g id="Node000039" class="node">
<title>Node39</title>
<g id="a_Node000039"><a xlink:title=" ">
<polygon fill="#e0e0e0" stroke="#999999" points="2484.25,-19.75 2423.25,-19.75 2423.25,-0.5 2484.25,-0.5 2484.25,-19.75"/>
<text text-anchor="middle" x="2453.75" y="-6.25" font-family="Helvetica,sans-Serif" font-size="10.00">type_traits</text>
</a>
</g>
</g>
<!-- Node8&#45;&gt;Node39 -->
<g id="edge38_Node000008_Node000039" class="edge">
<title>Node8&#45;&gt;Node39</title>
<g id="a_edge38_Node000008_Node000039"><a xlink:title=" ">
<path fill="none" stroke="#63b8ff" d="M1649.79,-64.47C1781.43,-64.03 2120.65,-58.96 2411.97,-19.92"/>
<polygon fill="#63b8ff" stroke="#63b8ff" points="2412.31,-23.27 2421.75,-18.46 2411.37,-16.33 2412.31,-23.27"/>
</a>
</g>
</g>
<!-- Node40 -->
<g id="Node000040" class="node">
<title>Node40</title>
<g id="a_Node000040"><a xlink:title=" ">
<polygon fill="#e0e0e0" stroke="#999999" points="2579.5,-19.75 2502,-19.75 2502,-0.5 2579.5,-0.5 2579.5,-19.75"/>
<text text-anchor="middle" x="2540.75" y="-6.25" font-family="Helvetica,sans-Serif" font-size="10.00">unordered_set</text>
</a>
</g>
</g>
<!-- Node8&#45;&gt;Node40 -->
<g id="edge39_Node000008_Node000040" class="edge">
<title>Node8&#45;&gt;Node40</title>
<g id="a_edge39_Node000008_Node000040"><a xlink:title=" ">
<path fill="none" stroke="#63b8ff" d="M1650.04,-64.16C1790.52,-63.07 2167.93,-56.74 2491.06,-19.92"/>
<polygon fill="#63b8ff" stroke="#63b8ff" points="2491.04,-23.33 2500.57,-18.71 2490.24,-16.38 2491.04,-23.33"/>
</a>
</g>
</g>
<!-- Node41 -->
<g id="Node000041" class="node">
<title>Node41</title>
<g id="a_Node000041"><a xlink:title=" ">
<polygon fill="#e0e0e0" stroke="#999999" points="2642.38,-19.75 2597.12,-19.75 2597.12,-0.5 2642.38,-0.5 2642.38,-19.75"/>
<text text-anchor="middle" x="2619.75" y="-6.25" font-family="Helvetica,sans-Serif" font-size="10.00">variant</text>
</a>
</g>
</g>
<!-- Node8&#45;&gt;Node41 -->
<g id="edge40_Node000008_Node000041" class="edge">
<title>Node8&#45;&gt;Node41</title>
<g id="a_edge40_Node000008_Node000041"><a xlink:title=" ">
<path fill="none" stroke="#63b8ff" d="M1650.23,-63.52C1829.53,-60.56 2385.35,-49.31 2586.14,-19.77"/>
<polygon fill="#63b8ff" stroke="#63b8ff" points="2586.5,-23.1 2595.86,-18.12 2585.44,-16.18 2586.5,-23.1"/>
</a>
</g>
</g>
<!-- Node42 -->
<g id="Node000042" class="node">
<title>Node42</title>
<g id="a_Node000042"><a xlink:title=" ">
<polygon fill="#e0e0e0" stroke="#999999" points="2703.25,-19.75 2660.25,-19.75 2660.25,-0.5 2703.25,-0.5 2703.25,-19.75"/>
<text text-anchor="middle" x="2681.75" y="-6.25" font-family="Helvetica,sans-Serif" font-size="10.00">vector</text>
</a>
</g>
</g>
<!-- Node8&#45;&gt;Node42 -->
<g id="edge41_Node000008_Node000042" class="edge">
<title>Node8&#45;&gt;Node42</title>
<g id="a_edge41_Node000008_Node000042"><a xlink:title=" ">
<path fill="none" stroke="#63b8ff" d="M1650.13,-63.76C1836.91,-61.46 2435.29,-51.85 2649.13,-19.74"/>
<polygon fill="#63b8ff" stroke="#63b8ff" points="2649.6,-23.05 2658.93,-18.05 2648.51,-16.14 2649.6,-23.05"/>
</a>
</g>
</g>
<!-- Node43 -->
<g id="Node000043" class="node">
<title>Node43</title>
<g id="a_Node000043"><a xlink:title=" ">
<polygon fill="#e0e0e0" stroke="#999999" points="2769.88,-19.75 2721.62,-19.75 2721.62,-0.5 2769.88,-0.5 2769.88,-19.75"/>
<text text-anchor="middle" x="2745.75" y="-6.25" font-family="Helvetica,sans-Serif" font-size="10.00">random</text>
</a>
</g>
</g>
<!-- Node8&#45;&gt;Node43 -->
<g id="edge42_Node000008_Node000043" class="edge">
<title>Node8&#45;&gt;Node43</title>
<g id="a_edge42_Node000008_Node000043"><a xlink:title=" ">
<path fill="none" stroke="#63b8ff" d="M1650.24,-63.73C1844.25,-61.28 2483.4,-51.09 2710.54,-19.68"/>
<polygon fill="#63b8ff" stroke="#63b8ff" points="2710.96,-23.01 2720.36,-18.12 2709.97,-16.09 2710.96,-23.01"/>
</a>
</g>
</g>
<!-- Node44 -->
<g id="Node000044" class="node">
<title>Node44</title>
<g id="a_Node000044"><a xlink:href="../../de/d43/common-typedefs_8hpp.html" target="_top" xlink:title=" ">
<polygon fill="white" stroke="#666666" points="2899.38,-19.75 2788.12,-19.75 2788.12,-0.5 2899.38,-0.5 2899.38,-19.75"/>
<text text-anchor="middle" x="2843.75" y="-6.25" font-family="Helvetica,sans-Serif" font-size="10.00">common&#45;typedefs.hpp</text>
</a>
</g>
</g>
<!-- Node8&#45;&gt;Node44 -->
<g id="edge43_Node000008_Node000044" class="edge">
<title>Node8&#45;&gt;Node44</title>
<g id="a_edge43_Node000008_Node000044"><a xlink:title=" ">
<path fill="none" stroke="#63b8ff" d="M1649.99,-64.14C1818.95,-63.02 2336.96,-56.68 2777.06,-19.8"/>
<polygon fill="#63b8ff" stroke="#63b8ff" points="2777.1,-23.22 2786.77,-18.89 2776.51,-16.25 2777.1,-23.22"/>
</a>
</g>
</g>
<!-- Node45 -->
<g id="Node000045" class="node">
<title>Node45</title>
<g id="a_Node000045"><a xlink:href="../../d4/d78/math_8hpp.html" target="_top" xlink:title=" ">
<polygon fill="white" stroke="#666666" points="2994.5,-19.75 2917,-19.75 2917,-0.5 2994.5,-0.5 2994.5,-19.75"/>
<text text-anchor="middle" x="2955.75" y="-6.25" font-family="Helvetica,sans-Serif" font-size="10.00">core/math.hpp</text>
</a>
</g>
</g>
<!-- Node8&#45;&gt;Node45 -->
<g id="edge44_Node000008_Node000045" class="edge">
<title>Node8&#45;&gt;Node45</title>
<g id="a_edge44_Node000008_Node000045"><a xlink:title=" ">
<path fill="none" stroke="#63b8ff" d="M1650,-63.57C1865.24,-60.33 2637.56,-47.11 2905.72,-19.9"/>
<polygon fill="#63b8ff" stroke="#63b8ff" points="2906,-23.28 2915.58,-18.76 2905.27,-16.32 2906,-23.28"/>
</a>
</g>
</g>
<!-- Node45&#45;&gt;Node45 -->
<g id="edge45_Node000045_Node000045" class="edge">
<title>Node45&#45;&gt;Node45</title>
<g id="a_edge45_Node000045_Node000045"><a xlink:title=" ">
<path fill="none" stroke="#63b8ff" d="M2985.53,-20.23C2999.86,-21.48 3012.5,-18.11 3012.5,-10.12 3012.5,-4.26 3005.68,-0.88 2996.38,0"/>
<polygon fill="#63b8ff" stroke="#63b8ff" points="2996.53,3.5 2986.53,-0.02 2996.54,-3.5 2996.53,3.5"/>
</a>
</g>
</g>
</g>
</svg>
