<?xml version="1.0" encoding="UTF-8" standalone="no"?>
<!DOCTYPE svg PUBLIC "-//W3C//DTD SVG 1.1//EN"
 "http://www.w3.org/Graphics/SVG/1.1/DTD/svg11.dtd">
<!-- Generated by graphviz version 9.0.0 (20230911.1827)
 -->
<!-- Title: engine::render::DomainShader Pages: 1 -->
<svg width="152pt" height="217pt"
 viewBox="0.00 0.00 152.25 216.50" xmlns="http://www.w3.org/2000/svg" xmlns:xlink="http://www.w3.org/1999/xlink">
<g id="graph0" class="graph" transform="scale(1 1) rotate(0) translate(4 212.5)">
<title>engine::render::DomainShader</title>
<!-- Node1 -->
<g id="Node000001" class="node">
<title>Node1</title>
<g id="a_Node000001"><a xlink:title=" ">
<polygon fill="#999999" stroke="#666666" points="144.25,-19.25 0,-19.25 0,0 144.25,0 144.25,-19.25"/>
<text text-anchor="middle" x="72.12" y="-5.75" font-family="Helvetica,sans-Serif" font-size="10.00">engine::render::DomainShader</text>
</a>
</g>
</g>
<!-- Node2 -->
<g id="Node000002" class="node">
<title>Node2</title>
<g id="a_Node000002"><a xlink:href="../../d0/dc5/classengine_1_1render_1_1_shader.html" target="_top" xlink:title=" ">
<polygon fill="white" stroke="#666666" points="127.75,-75.5 16.5,-75.5 16.5,-56.25 127.75,-56.25 127.75,-75.5"/>
<text text-anchor="middle" x="72.12" y="-62" font-family="Helvetica,sans-Serif" font-size="10.00">engine::render::Shader</text>
</a>
</g>
</g>
<!-- Node2&#45;&gt;Node1 -->
<g id="edge1_Node000001_Node000002" class="edge">
<title>Node2&#45;&gt;Node1</title>
<g id="a_edge1_Node000001_Node000002"><a xlink:title=" ">
<path fill="none" stroke="#63b8ff" d="M72.12,-44.69C72.12,-35.98 72.12,-26.24 72.12,-19.42"/>
<polygon fill="#63b8ff" stroke="#63b8ff" points="68.63,-44.4 72.13,-54.4 75.63,-44.4 68.63,-44.4"/>
</a>
</g>
</g>
<!-- Node3 -->
<g id="Node000003" class="node">
<title>Node3</title>
<g id="a_Node000003"><a xlink:href="../../d3/de6/structengine_1_1render_1_1_shader_blob.html" target="_top" xlink:title=" ">
<polygon fill="white" stroke="#666666" points="137.5,-142 6.75,-142 6.75,-122.75 137.5,-122.75 137.5,-142"/>
<text text-anchor="middle" x="72.12" y="-128.5" font-family="Helvetica,sans-Serif" font-size="10.00">engine::render::ShaderBlob</text>
</a>
</g>
</g>
<!-- Node3&#45;&gt;Node2 -->
<g id="edge2_Node000002_Node000003" class="edge">
<title>Node3&#45;&gt;Node2</title>
<g id="a_edge2_Node000002_Node000003"><a xlink:title=" ">
<path fill="none" stroke="#9a32cd" stroke-dasharray="5,2" d="M72.12,-110.9C72.12,-99.07 72.12,-84.79 72.12,-75.77"/>
<polygon fill="#9a32cd" stroke="#9a32cd" points="68.63,-110.89 72.13,-120.89 75.63,-110.89 68.63,-110.89"/>
</a>
</g>
<text text-anchor="middle" x="84.88" y="-95.25" font-family="Helvetica,sans-Serif" font-size="10.00" fill="grey"> blob_</text>
</g>
<!-- Node4 -->
<g id="Node000004" class="node">
<title>Node4</title>
<g id="a_Node000004"><a xlink:title=" ">
<polygon fill="white" stroke="#666666" points="125.5,-208.5 18.75,-208.5 18.75,-189.25 125.5,-189.25 125.5,-208.5"/>
<text text-anchor="middle" x="72.12" y="-195" font-family="Helvetica,sans-Serif" font-size="10.00">std::vector&lt; uint8_t &gt;</text>
</a>
</g>
</g>
<!-- Node4&#45;&gt;Node3 -->
<g id="edge3_Node000003_Node000004" class="edge">
<title>Node4&#45;&gt;Node3</title>
<g id="a_edge3_Node000003_Node000004"><a xlink:title=" ">
<path fill="none" stroke="#9a32cd" stroke-dasharray="5,2" d="M72.12,-177.4C72.12,-165.57 72.12,-151.29 72.12,-142.27"/>
<polygon fill="#9a32cd" stroke="#9a32cd" points="68.63,-177.39 72.13,-187.39 75.63,-177.39 68.63,-177.39"/>
</a>
</g>
<text text-anchor="middle" x="92.75" y="-161.75" font-family="Helvetica,sans-Serif" font-size="10.00" fill="grey"> bytecode</text>
</g>
</g>
</svg>
