<?xml version="1.0" encoding="UTF-8" standalone="no"?>
<!DOCTYPE svg PUBLIC "-//W3C//DTD SVG 1.1//EN"
 "http://www.w3.org/Graphics/SVG/1.1/DTD/svg11.dtd">
<!-- Generated by graphviz version 8.1.0 (20230707.0739)
 -->
<!-- Title: engine/utils/debug.hpp Pages: 1 -->
<svg width="3414pt" height="160pt"
 viewBox="0.00 0.00 3414.00 160.25" xmlns="http://www.w3.org/2000/svg" xmlns:xlink="http://www.w3.org/1999/xlink">
<g id="graph0" class="graph" transform="scale(1 1) rotate(0) translate(4 156.25)">
<title>engine/utils/debug.hpp</title>
<!-- Node1 -->
<g id="Node000001" class="node">
<title>Node1</title>
<g id="a_Node000001"><a xlink:title=" ">
<polygon fill="#999999" stroke="#666666" points="3101.38,-152.25 2988.62,-152.25 2988.62,-133 3101.38,-133 3101.38,-152.25"/>
<text text-anchor="middle" x="3045" y="-138.75" font-family="Helvetica,sans-Serif" font-size="10.00">engine/utils/debug.hpp</text>
</a>
</g>
</g>
<!-- Node2 -->
<g id="Node000002" class="node">
<title>Node2</title>
<g id="a_Node000002"><a xlink:href="../../db/d6e/library-pch_8hpp.html" target="_top" xlink:title=" ">
<polygon fill="white" stroke="#666666" points="1365,-91.38 1253,-91.38 1253,-72.12 1365,-72.12 1365,-91.38"/>
<text text-anchor="middle" x="1309" y="-77.88" font-family="Helvetica,sans-Serif" font-size="10.00">include/library&#45;pch.hpp</text>
</a>
</g>
</g>
<!-- Node1&#45;&gt;Node2 -->
<g id="edge1_Node000001_Node000002" class="edge">
<title>Node1&#45;&gt;Node2</title>
<g id="a_edge1_Node000001_Node000002"><a xlink:title=" ">
<path fill="none" stroke="#63b8ff" d="M2988.23,-139.7C2728.74,-130.9 1656.18,-94.52 1376.14,-85.03"/>
<polygon fill="#63b8ff" stroke="#63b8ff" points="1376.45,-81.5 1366.34,-84.66 1376.22,-88.5 1376.45,-81.5"/>
</a>
</g>
</g>
<!-- Node40 -->
<g id="Node000040" class="node">
<title>Node40</title>
<g id="a_Node000040"><a xlink:href="../../dd/db5/spdlog_8hpp.html" target="_top" xlink:title=" ">
<polygon fill="white" stroke="#666666" points="3029.12,-91.38 2932.88,-91.38 2932.88,-72.12 3029.12,-72.12 3029.12,-91.38"/>
<text text-anchor="middle" x="2981" y="-77.88" font-family="Helvetica,sans-Serif" font-size="10.00">include/spdlog.hpp</text>
</a>
</g>
</g>
<!-- Node1&#45;&gt;Node40 -->
<g id="edge40_Node000001_Node000040" class="edge">
<title>Node1&#45;&gt;Node40</title>
<g id="a_edge40_Node000001_Node000040"><a xlink:title=" ">
<path fill="none" stroke="#63b8ff" d="M3035.28,-132.68C3025.6,-123.78 3010.52,-109.91 2998.71,-99.04"/>
<polygon fill="#63b8ff" stroke="#63b8ff" points="3001.54,-96.97 2991.81,-92.78 2996.8,-102.12 3001.54,-96.97"/>
</a>
</g>
</g>
<!-- Node48 -->
<g id="Node000048" class="node">
<title>Node48</title>
<g id="a_Node000048"><a xlink:href="../../da/d43/debug__with__source__location_8hpp.html" target="_top" xlink:title=" ">
<polygon fill="white" stroke="#666666" points="3173.12,-97 3046.88,-97 3046.88,-66.5 3173.12,-66.5 3173.12,-97"/>
<text text-anchor="start" x="3054.88" y="-83.5" font-family="Helvetica,sans-Serif" font-size="10.00">detail/debug_with_source</text>
<text text-anchor="middle" x="3110" y="-72.25" font-family="Helvetica,sans-Serif" font-size="10.00">_location.hpp</text>
</a>
</g>
</g>
<!-- Node1&#45;&gt;Node48 -->
<g id="edge48_Node000001_Node000048" class="edge">
<title>Node1&#45;&gt;Node48</title>
<g id="a_edge48_Node000001_Node000048"><a xlink:title=" ">
<path fill="none" stroke="#63b8ff" d="M3049.86,-132.68C3056.63,-125.12 3068.42,-113.99 3079.86,-104.15"/>
<polygon fill="#63b8ff" stroke="#63b8ff" points="3081.63,-106.39 3087.04,-97.28 3077.13,-101.03 3081.63,-106.39"/>
</a>
</g>
</g>
<!-- Node3 -->
<g id="Node000003" class="node">
<title>Node3</title>
<g id="a_Node000003"><a xlink:title=" ">
<polygon fill="#e0e0e0" stroke="#999999" points="70,-24.88 0,-24.88 0,-5.63 70,-5.63 70,-24.88"/>
<text text-anchor="middle" x="35" y="-11.38" font-family="Helvetica,sans-Serif" font-size="10.00">entt/entt.hpp</text>
</a>
</g>
</g>
<!-- Node2&#45;&gt;Node3 -->
<g id="edge2_Node000002_Node000003" class="edge">
<title>Node2&#45;&gt;Node3</title>
<g id="a_edge2_Node000002_Node000003"><a xlink:title=" ">
<path fill="none" stroke="#63b8ff" d="M1252.71,-80.48C1043.22,-79.16 308.97,-71.64 79,-30.5 75.78,-29.92 72.48,-29.17 69.19,-28.31"/>
<polygon fill="#63b8ff" stroke="#63b8ff" points="70.49,-24.75 59.91,-25.3 68.52,-31.47 70.49,-24.75"/>
</a>
</g>
</g>
<!-- Node4 -->
<g id="Node000004" class="node">
<title>Node4</title>
<g id="a_Node000004"><a xlink:title=" ">
<polygon fill="#e0e0e0" stroke="#999999" points="143.88,-24.88 88.12,-24.88 88.12,-5.63 143.88,-5.63 143.88,-24.88"/>
<text text-anchor="middle" x="116" y="-11.38" font-family="Helvetica,sans-Serif" font-size="10.00">algorithm</text>
</a>
</g>
</g>
<!-- Node2&#45;&gt;Node4 -->
<g id="edge3_Node000002_Node000004" class="edge">
<title>Node2&#45;&gt;Node4</title>
<g id="a_edge3_Node000002_Node000004"><a xlink:title=" ">
<path fill="none" stroke="#63b8ff" d="M1252.53,-80.78C1050.7,-80.49 365.72,-76.09 152,-30.5 149.93,-30.06 147.82,-29.51 145.72,-28.89"/>
<polygon fill="#63b8ff" stroke="#63b8ff" points="147.03,-25.29 136.44,-25.31 144.73,-31.9 147.03,-25.29"/>
</a>
</g>
</g>
<!-- Node5 -->
<g id="Node000005" class="node">
<title>Node5</title>
<g id="a_Node000005"><a xlink:title=" ">
<polygon fill="#e0e0e0" stroke="#999999" points="198.5,-24.88 161.5,-24.88 161.5,-5.63 198.5,-5.63 198.5,-24.88"/>
<text text-anchor="middle" x="180" y="-11.38" font-family="Helvetica,sans-Serif" font-size="10.00">array</text>
</a>
</g>
</g>
<!-- Node2&#45;&gt;Node5 -->
<g id="edge4_Node000002_Node000005" class="edge">
<title>Node2&#45;&gt;Node5</title>
<g id="a_edge4_Node000002_Node000005"><a xlink:title=" ">
<path fill="none" stroke="#63b8ff" d="M1252.76,-81.31C1057.25,-82.76 408.27,-83.39 208,-30.5 206.89,-30.21 205.78,-29.87 204.67,-29.49"/>
<polygon fill="#63b8ff" stroke="#63b8ff" points="206.51,-26.04 195.94,-25.32 203.75,-32.48 206.51,-26.04"/>
</a>
</g>
</g>
<!-- Node6 -->
<g id="Node000006" class="node">
<title>Node6</title>
<g id="a_Node000006"><a xlink:title=" ">
<polygon fill="#e0e0e0" stroke="#999999" points="267.25,-24.88 216.75,-24.88 216.75,-5.63 267.25,-5.63 267.25,-24.88"/>
<text text-anchor="middle" x="242" y="-11.38" font-family="Helvetica,sans-Serif" font-size="10.00">assert.h</text>
</a>
</g>
</g>
<!-- Node2&#45;&gt;Node6 -->
<g id="edge5_Node000002_Node000006" class="edge">
<title>Node2&#45;&gt;Node6</title>
<g id="a_edge5_Node000002_Node000006"><a xlink:title=" ">
<path fill="none" stroke="#63b8ff" d="M1252.81,-80.58C1065.61,-79.61 464.36,-73.16 276,-30.5 274.2,-30.09 272.37,-29.59 270.54,-29.03"/>
<polygon fill="#63b8ff" stroke="#63b8ff" points="271.91,-25.44 261.32,-25.3 269.51,-32.02 271.91,-25.44"/>
</a>
</g>
</g>
<!-- Node7 -->
<g id="Node000007" class="node">
<title>Node7</title>
<g id="a_Node000007"><a xlink:title=" ">
<polygon fill="#e0e0e0" stroke="#999999" points="330.62,-24.88 285.38,-24.88 285.38,-5.63 330.62,-5.63 330.62,-24.88"/>
<text text-anchor="middle" x="308" y="-11.38" font-family="Helvetica,sans-Serif" font-size="10.00">chrono</text>
</a>
</g>
</g>
<!-- Node2&#45;&gt;Node7 -->
<g id="edge6_Node000002_Node000007" class="edge">
<title>Node2&#45;&gt;Node7</title>
<g id="a_edge6_Node000002_Node000007"><a xlink:title=" ">
<path fill="none" stroke="#63b8ff" d="M1252.76,-80.62C1073.01,-79.75 514,-73.57 339,-30.5 337.49,-30.13 335.96,-29.68 334.44,-29.18"/>
<polygon fill="#63b8ff" stroke="#63b8ff" points="336.22,-25.73 325.63,-25.29 333.64,-32.23 336.22,-25.73"/>
</a>
</g>
</g>
<!-- Node8 -->
<g id="Node000008" class="node">
<title>Node8</title>
<g id="a_Node000008"><a xlink:title=" ">
<polygon fill="#e0e0e0" stroke="#999999" points="391.5,-24.88 348.5,-24.88 348.5,-5.63 391.5,-5.63 391.5,-24.88"/>
<text text-anchor="middle" x="370" y="-11.38" font-family="Helvetica,sans-Serif" font-size="10.00">cmath</text>
</a>
</g>
</g>
<!-- Node2&#45;&gt;Node8 -->
<g id="edge7_Node000002_Node000008" class="edge">
<title>Node2&#45;&gt;Node8</title>
<g id="a_edge7_Node000002_Node000008"><a xlink:title=" ">
<path fill="none" stroke="#63b8ff" d="M1252.67,-80.48C1080.41,-79.19 562.55,-71.89 400,-30.5 398.68,-30.16 397.35,-29.77 396.02,-29.33"/>
<polygon fill="#63b8ff" stroke="#63b8ff" points="397.66,-25.81 387.07,-25.29 395.02,-32.29 397.66,-25.81"/>
</a>
</g>
</g>
<!-- Node9 -->
<g id="Node000009" class="node">
<title>Node9</title>
<g id="a_Node000009"><a xlink:title=" ">
<polygon fill="#e0e0e0" stroke="#999999" points="464.88,-24.88 409.12,-24.88 409.12,-5.63 464.88,-5.63 464.88,-24.88"/>
<text text-anchor="middle" x="437" y="-11.38" font-family="Helvetica,sans-Serif" font-size="10.00">concepts</text>
</a>
</g>
</g>
<!-- Node2&#45;&gt;Node9 -->
<g id="edge8_Node000002_Node000009" class="edge">
<title>Node2&#45;&gt;Node9</title>
<g id="a_edge8_Node000002_Node000009"><a xlink:title=" ">
<path fill="none" stroke="#63b8ff" d="M1252.53,-79.61C1089.99,-75.96 623.1,-62.88 474,-30.5 471.79,-30.02 469.54,-29.43 467.3,-28.76"/>
<polygon fill="#63b8ff" stroke="#63b8ff" points="468.61,-25.17 458.01,-25.24 466.34,-31.79 468.61,-25.17"/>
</a>
</g>
</g>
<!-- Node10 -->
<g id="Node000010" class="node">
<title>Node10</title>
<g id="a_Node000010"><a xlink:title=" ">
<polygon fill="#e0e0e0" stroke="#999999" points="577,-24.88 483,-24.88 483,-5.63 577,-5.63 577,-24.88"/>
<text text-anchor="middle" x="530" y="-11.38" font-family="Helvetica,sans-Serif" font-size="10.00">condition_variable</text>
</a>
</g>
</g>
<!-- Node2&#45;&gt;Node10 -->
<g id="edge9_Node000002_Node000010" class="edge">
<title>Node2&#45;&gt;Node10</title>
<g id="a_edge9_Node000002_Node000010"><a xlink:title=" ">
<path fill="none" stroke="#63b8ff" d="M1252.82,-80.27C1130.71,-78.49 832.29,-70.06 586,-30.5 581.49,-29.78 576.81,-28.86 572.16,-27.84"/>
<polygon fill="#63b8ff" stroke="#63b8ff" points="573.02,-24.21 562.48,-25.32 571.41,-31.02 573.02,-24.21"/>
</a>
</g>
</g>
<!-- Node11 -->
<g id="Node000011" class="node">
<title>Node11</title>
<g id="a_Node000011"><a xlink:title=" ">
<polygon fill="#e0e0e0" stroke="#999999" points="640.62,-24.88 595.38,-24.88 595.38,-5.63 640.62,-5.63 640.62,-24.88"/>
<text text-anchor="middle" x="618" y="-11.38" font-family="Helvetica,sans-Serif" font-size="10.00">cstdint</text>
</a>
</g>
</g>
<!-- Node2&#45;&gt;Node11 -->
<g id="edge10_Node000002_Node000011" class="edge">
<title>Node2&#45;&gt;Node11</title>
<g id="a_edge10_Node000002_Node000011"><a xlink:title=" ">
<path fill="none" stroke="#63b8ff" d="M1252.52,-78.92C1114.57,-74.06 763.47,-59.17 650,-30.5 648.49,-30.12 646.96,-29.67 645.43,-29.17"/>
<polygon fill="#63b8ff" stroke="#63b8ff" points="647.14,-25.7 636.55,-25.36 644.62,-32.23 647.14,-25.7"/>
</a>
</g>
</g>
<!-- Node12 -->
<g id="Node000012" class="node">
<title>Node12</title>
<g id="a_Node000012"><a xlink:title=" ">
<polygon fill="#e0e0e0" stroke="#999999" points="703.25,-24.88 658.75,-24.88 658.75,-5.63 703.25,-5.63 703.25,-24.88"/>
<text text-anchor="middle" x="681" y="-11.38" font-family="Helvetica,sans-Serif" font-size="10.00">cstdlib</text>
</a>
</g>
</g>
<!-- Node2&#45;&gt;Node12 -->
<g id="edge11_Node000002_Node000012" class="edge">
<title>Node2&#45;&gt;Node12</title>
<g id="a_edge11_Node000002_Node000012"><a xlink:title=" ">
<path fill="none" stroke="#63b8ff" d="M1252.65,-78.49C1124.24,-72.95 813.21,-57.15 712,-30.5 710.68,-30.15 709.34,-29.75 708.01,-29.31"/>
<polygon fill="#63b8ff" stroke="#63b8ff" points="709.57,-25.77 698.99,-25.34 706.99,-32.28 709.57,-25.77"/>
</a>
</g>
</g>
<!-- Node13 -->
<g id="Node000013" class="node">
<title>Node13</title>
<g id="a_Node000013"><a xlink:title=" ">
<polygon fill="#e0e0e0" stroke="#999999" points="780.75,-24.88 721.25,-24.88 721.25,-5.63 780.75,-5.63 780.75,-24.88"/>
<text text-anchor="middle" x="751" y="-11.38" font-family="Helvetica,sans-Serif" font-size="10.00">filesystem</text>
</a>
</g>
</g>
<!-- Node2&#45;&gt;Node13 -->
<g id="edge12_Node000002_Node000013" class="edge">
<title>Node2&#45;&gt;Node13</title>
<g id="a_edge12_Node000002_Node000013"><a xlink:title=" ">
<path fill="none" stroke="#63b8ff" d="M1252.82,-80.12C1156.61,-77.99 954.68,-68.86 789,-30.5 786.8,-29.99 784.56,-29.39 782.32,-28.72"/>
<polygon fill="#63b8ff" stroke="#63b8ff" points="783.59,-25.12 773,-25.24 781.36,-31.75 783.59,-25.12"/>
</a>
</g>
</g>
<!-- Node14 -->
<g id="Node000014" class="node">
<title>Node14</title>
<g id="a_Node000014"><a xlink:title=" ">
<polygon fill="#e0e0e0" stroke="#999999" points="847.5,-24.88 798.5,-24.88 798.5,-5.63 847.5,-5.63 847.5,-24.88"/>
<text text-anchor="middle" x="823" y="-11.38" font-family="Helvetica,sans-Serif" font-size="10.00">fstream</text>
</a>
</g>
</g>
<!-- Node2&#45;&gt;Node14 -->
<g id="edge13_Node000002_Node000014" class="edge">
<title>Node2&#45;&gt;Node14</title>
<g id="a_edge13_Node000002_Node000014"><a xlink:title=" ">
<path fill="none" stroke="#63b8ff" d="M1252.75,-79.64C1166.34,-76.78 996.29,-66.63 857,-30.5 855.45,-30.1 853.88,-29.64 852.31,-29.14"/>
<polygon fill="#63b8ff" stroke="#63b8ff" points="853.68,-25.54 843.09,-25.37 851.26,-32.11 853.68,-25.54"/>
</a>
</g>
</g>
<!-- Node15 -->
<g id="Node000015" class="node">
<title>Node15</title>
<g id="a_Node000015"><a xlink:title=" ">
<polygon fill="#e0e0e0" stroke="#999999" points="924,-24.88 866,-24.88 866,-5.63 924,-5.63 924,-24.88"/>
<text text-anchor="middle" x="895" y="-11.38" font-family="Helvetica,sans-Serif" font-size="10.00">functional</text>
</a>
</g>
</g>
<!-- Node2&#45;&gt;Node15 -->
<g id="edge14_Node000002_Node000015" class="edge">
<title>Node2&#45;&gt;Node15</title>
<g id="a_edge14_Node000002_Node000015"><a xlink:title=" ">
<path fill="none" stroke="#63b8ff" d="M1252.51,-77.19C1178.29,-71.62 1044.31,-58.43 933,-30.5 930.95,-29.99 928.86,-29.4 926.76,-28.76"/>
<polygon fill="#63b8ff" stroke="#63b8ff" points="928.03,-25.15 917.43,-25.25 925.78,-31.78 928.03,-25.15"/>
</a>
</g>
</g>
<!-- Node16 -->
<g id="Node000016" class="node">
<title>Node16</title>
<g id="a_Node000016"><a xlink:title=" ">
<polygon fill="#e0e0e0" stroke="#999999" points="991.88,-24.88 942.12,-24.88 942.12,-5.63 991.88,-5.63 991.88,-24.88"/>
<text text-anchor="middle" x="967" y="-11.38" font-family="Helvetica,sans-Serif" font-size="10.00">iomanip</text>
</a>
</g>
</g>
<!-- Node2&#45;&gt;Node16 -->
<g id="edge15_Node000002_Node000016" class="edge">
<title>Node2&#45;&gt;Node16</title>
<g id="a_edge15_Node000002_Node000016"><a xlink:title=" ">
<path fill="none" stroke="#63b8ff" d="M1252.77,-75.59C1190.35,-68.94 1087.06,-55.18 1001,-30.5 999.5,-30.07 997.98,-29.59 996.45,-29.08"/>
<polygon fill="#63b8ff" stroke="#63b8ff" points="998.09,-25.58 987.49,-25.34 995.63,-32.13 998.09,-25.58"/>
</a>
</g>
</g>
<!-- Node17 -->
<g id="Node000017" class="node">
<title>Node17</title>
<g id="a_Node000017"><a xlink:title=" ">
<polygon fill="#e0e0e0" stroke="#999999" points="1058.12,-24.88 1009.88,-24.88 1009.88,-5.63 1058.12,-5.63 1058.12,-24.88"/>
<text text-anchor="middle" x="1034" y="-11.38" font-family="Helvetica,sans-Serif" font-size="10.00">istream</text>
</a>
</g>
</g>
<!-- Node2&#45;&gt;Node17 -->
<g id="edge16_Node000002_Node000017" class="edge">
<title>Node2&#45;&gt;Node17</title>
<g id="a_edge16_Node000002_Node000017"><a xlink:title=" ">
<path fill="none" stroke="#63b8ff" d="M1252.91,-72.42C1203.33,-64.28 1129.39,-50.22 1067,-30.5 1065.73,-30.1 1064.44,-29.66 1063.14,-29.21"/>
<polygon fill="#63b8ff" stroke="#63b8ff" points="1064.88,-25.74 1054.29,-25.36 1062.34,-32.26 1064.88,-25.74"/>
</a>
</g>
</g>
<!-- Node18 -->
<g id="Node000018" class="node">
<title>Node18</title>
<g id="a_Node000018"><a xlink:title=" ">
<polygon fill="#e0e0e0" stroke="#999999" points="1115.62,-24.88 1076.38,-24.88 1076.38,-5.63 1115.62,-5.63 1115.62,-24.88"/>
<text text-anchor="middle" x="1096" y="-11.38" font-family="Helvetica,sans-Serif" font-size="10.00">limits</text>
</a>
</g>
</g>
<!-- Node2&#45;&gt;Node18 -->
<g id="edge17_Node000002_Node000018" class="edge">
<title>Node2&#45;&gt;Node18</title>
<g id="a_edge17_Node000002_Node000018"><a xlink:title=" ">
<path fill="none" stroke="#63b8ff" d="M1266.99,-71.68C1229.22,-62.97 1172.54,-48.49 1125,-30.5 1124.25,-30.22 1123.5,-29.92 1122.74,-29.62"/>
<polygon fill="#63b8ff" stroke="#63b8ff" points="1124.49,-26.12 1113.94,-25.24 1121.64,-32.51 1124.49,-26.12"/>
</a>
</g>
</g>
<!-- Node19 -->
<g id="Node000019" class="node">
<title>Node19</title>
<g id="a_Node000019"><a xlink:title=" ">
<polygon fill="#e0e0e0" stroke="#999999" points="1168.38,-24.88 1133.62,-24.88 1133.62,-5.63 1168.38,-5.63 1168.38,-24.88"/>
<text text-anchor="middle" x="1151" y="-11.38" font-family="Helvetica,sans-Serif" font-size="10.00">map</text>
</a>
</g>
</g>
<!-- Node2&#45;&gt;Node19 -->
<g id="edge18_Node000002_Node000019" class="edge">
<title>Node2&#45;&gt;Node19</title>
<g id="a_edge18_Node000002_Node000019"><a xlink:title=" ">
<path fill="none" stroke="#63b8ff" d="M1282.52,-71.64C1255.79,-62.21 1213.49,-46.6 1178,-30.5 1177.67,-30.35 1177.35,-30.2 1177.02,-30.05"/>
<polygon fill="#63b8ff" stroke="#63b8ff" points="1178.92,-26.59 1168.41,-25.31 1175.83,-32.87 1178.92,-26.59"/>
</a>
</g>
</g>
<!-- Node20 -->
<g id="Node000020" class="node">
<title>Node20</title>
<g id="a_Node000020"><a xlink:title=" ">
<polygon fill="#e0e0e0" stroke="#999999" points="1237.25,-24.88 1186.75,-24.88 1186.75,-5.63 1237.25,-5.63 1237.25,-24.88"/>
<text text-anchor="middle" x="1212" y="-11.38" font-family="Helvetica,sans-Serif" font-size="10.00">memory</text>
</a>
</g>
</g>
<!-- Node2&#45;&gt;Node20 -->
<g id="edge19_Node000002_Node000020" class="edge">
<title>Node2&#45;&gt;Node20</title>
<g id="a_edge19_Node000002_Node000020"><a xlink:title=" ">
<path fill="none" stroke="#63b8ff" d="M1295.51,-71.78C1279.82,-61.35 1253.66,-43.95 1234.79,-31.4"/>
<polygon fill="#63b8ff" stroke="#63b8ff" points="1236.95,-27.97 1226.69,-25.35 1233.07,-33.8 1236.95,-27.97"/>
</a>
</g>
</g>
<!-- Node21 -->
<g id="Node000021" class="node">
<title>Node21</title>
<g id="a_Node000021"><a xlink:title=" ">
<polygon fill="#e0e0e0" stroke="#999999" points="1297.12,-24.88 1254.88,-24.88 1254.88,-5.63 1297.12,-5.63 1297.12,-24.88"/>
<text text-anchor="middle" x="1276" y="-11.38" font-family="Helvetica,sans-Serif" font-size="10.00">mutex</text>
</a>
</g>
</g>
<!-- Node2&#45;&gt;Node21 -->
<g id="edge20_Node000002_Node000021" class="edge">
<title>Node2&#45;&gt;Node21</title>
<g id="a_edge20_Node000002_Node000021"><a xlink:title=" ">
<path fill="none" stroke="#63b8ff" d="M1304.41,-71.78C1299.54,-62.25 1291.69,-46.91 1285.47,-34.77"/>
<polygon fill="#63b8ff" stroke="#63b8ff" points="1288.22,-33.45 1280.55,-26.14 1281.99,-36.64 1288.22,-33.45"/>
</a>
</g>
</g>
<!-- Node22 -->
<g id="Node000022" class="node">
<title>Node22</title>
<g id="a_Node000022"><a xlink:title=" ">
<polygon fill="#e0e0e0" stroke="#999999" points="1368.75,-24.88 1315.25,-24.88 1315.25,-5.63 1368.75,-5.63 1368.75,-24.88"/>
<text text-anchor="middle" x="1342" y="-11.38" font-family="Helvetica,sans-Serif" font-size="10.00">numbers</text>
</a>
</g>
</g>
<!-- Node2&#45;&gt;Node22 -->
<g id="edge21_Node000002_Node000022" class="edge">
<title>Node2&#45;&gt;Node22</title>
<g id="a_edge21_Node000002_Node000022"><a xlink:title=" ">
<path fill="none" stroke="#63b8ff" d="M1313.59,-71.78C1318.46,-62.25 1326.31,-46.91 1332.53,-34.77"/>
<polygon fill="#63b8ff" stroke="#63b8ff" points="1336.01,-36.64 1337.45,-26.14 1329.78,-33.45 1336.01,-36.64"/>
</a>
</g>
</g>
<!-- Node23 -->
<g id="Node000023" class="node">
<title>Node23</title>
<g id="a_Node000023"><a xlink:title=" ">
<polygon fill="#e0e0e0" stroke="#999999" points="1437.25,-24.88 1386.75,-24.88 1386.75,-5.63 1437.25,-5.63 1437.25,-24.88"/>
<text text-anchor="middle" x="1412" y="-11.38" font-family="Helvetica,sans-Serif" font-size="10.00">numeric</text>
</a>
</g>
</g>
<!-- Node2&#45;&gt;Node23 -->
<g id="edge22_Node000002_Node000023" class="edge">
<title>Node2&#45;&gt;Node23</title>
<g id="a_edge22_Node000002_Node000023"><a xlink:title=" ">
<path fill="none" stroke="#63b8ff" d="M1323.32,-71.78C1340.14,-61.25 1368.28,-43.63 1388.35,-31.06"/>
<polygon fill="#63b8ff" stroke="#63b8ff" points="1389.85,-33.62 1396.47,-25.35 1386.13,-27.69 1389.85,-33.62"/>
</a>
</g>
</g>
<!-- Node24 -->
<g id="Node000024" class="node">
<title>Node24</title>
<g id="a_Node000024"><a xlink:title=" ">
<polygon fill="#e0e0e0" stroke="#999999" points="1504.88,-24.88 1455.12,-24.88 1455.12,-5.63 1504.88,-5.63 1504.88,-24.88"/>
<text text-anchor="middle" x="1480" y="-11.38" font-family="Helvetica,sans-Serif" font-size="10.00">optional</text>
</a>
</g>
</g>
<!-- Node2&#45;&gt;Node24 -->
<g id="edge23_Node000002_Node000024" class="edge">
<title>Node2&#45;&gt;Node24</title>
<g id="a_edge23_Node000002_Node000024"><a xlink:title=" ">
<path fill="none" stroke="#63b8ff" d="M1334.89,-71.65C1362.53,-61.84 1407.56,-45.59 1446,-30.5 1446.91,-30.14 1447.84,-29.78 1448.77,-29.4"/>
<polygon fill="#63b8ff" stroke="#63b8ff" points="1449.9,-32.31 1457.84,-25.29 1447.26,-25.83 1449.9,-32.31"/>
</a>
</g>
</g>
<!-- Node25 -->
<g id="Node000025" class="node">
<title>Node25</title>
<g id="a_Node000025"><a xlink:title=" ">
<polygon fill="#e0e0e0" stroke="#999999" points="1574.62,-24.88 1523.38,-24.88 1523.38,-5.63 1574.62,-5.63 1574.62,-24.88"/>
<text text-anchor="middle" x="1549" y="-11.38" font-family="Helvetica,sans-Serif" font-size="10.00">ostream</text>
</a>
</g>
</g>
<!-- Node2&#45;&gt;Node25 -->
<g id="edge24_Node000002_Node000025" class="edge">
<title>Node2&#45;&gt;Node25</title>
<g id="a_edge24_Node000002_Node000025"><a xlink:title=" ">
<path fill="none" stroke="#63b8ff" d="M1354.32,-71.64C1396.22,-62.74 1459.97,-48.02 1514,-30.5 1515.3,-30.08 1516.62,-29.63 1517.95,-29.17"/>
<polygon fill="#63b8ff" stroke="#63b8ff" points="1518.96,-32.15 1527.09,-25.35 1516.49,-25.6 1518.96,-32.15"/>
</a>
</g>
</g>
<!-- Node26 -->
<g id="Node000026" class="node">
<title>Node26</title>
<g id="a_Node000026"><a xlink:title=" ">
<polygon fill="#e0e0e0" stroke="#999999" points="1669.38,-24.88 1592.62,-24.88 1592.62,-5.63 1669.38,-5.63 1669.38,-24.88"/>
<text text-anchor="middle" x="1631" y="-11.38" font-family="Helvetica,sans-Serif" font-size="10.00">shared_mutex</text>
</a>
</g>
</g>
<!-- Node2&#45;&gt;Node26 -->
<g id="edge25_Node000002_Node000026" class="edge">
<title>Node2&#45;&gt;Node26</title>
<g id="a_edge25_Node000002_Node000026"><a xlink:title=" ">
<path fill="none" stroke="#63b8ff" d="M1365.49,-72.35C1421.36,-63.6 1509.12,-48.63 1584,-30.5 1586.78,-29.83 1589.64,-29.09 1592.5,-28.31"/>
<polygon fill="#63b8ff" stroke="#63b8ff" points="1593.15,-31.47 1601.81,-25.36 1591.23,-24.74 1593.15,-31.47"/>
</a>
</g>
</g>
<!-- Node27 -->
<g id="Node000027" class="node">
<title>Node27</title>
<g id="a_Node000027"><a xlink:title=" ">
<polygon fill="#e0e0e0" stroke="#999999" points="1724.5,-24.88 1687.5,-24.88 1687.5,-5.63 1724.5,-5.63 1724.5,-24.88"/>
<text text-anchor="middle" x="1706" y="-11.38" font-family="Helvetica,sans-Serif" font-size="10.00">span</text>
</a>
</g>
</g>
<!-- Node2&#45;&gt;Node27 -->
<g id="edge26_Node000002_Node000027" class="edge">
<title>Node2&#45;&gt;Node27</title>
<g id="a_edge26_Node000002_Node000027"><a xlink:title=" ">
<path fill="none" stroke="#63b8ff" d="M1365.28,-78.92C1438.75,-75.22 1570.63,-64.07 1678,-30.5 1678.78,-30.26 1679.57,-29.99 1680.35,-29.71"/>
<polygon fill="#63b8ff" stroke="#63b8ff" points="1681.62,-32.54 1689.4,-25.35 1678.83,-26.12 1681.62,-32.54"/>
</a>
</g>
</g>
<!-- Node28 -->
<g id="Node000028" class="node">
<title>Node28</title>
<g id="a_Node000028"><a xlink:title=" ">
<polygon fill="#e0e0e0" stroke="#999999" points="1793.62,-24.88 1742.38,-24.88 1742.38,-5.63 1793.62,-5.63 1793.62,-24.88"/>
<text text-anchor="middle" x="1768" y="-11.38" font-family="Helvetica,sans-Serif" font-size="10.00">sstream</text>
</a>
</g>
</g>
<!-- Node2&#45;&gt;Node28 -->
<g id="edge27_Node000002_Node000028" class="edge">
<title>Node2&#45;&gt;Node28</title>
<g id="a_edge27_Node000002_Node000028"><a xlink:title=" ">
<path fill="none" stroke="#63b8ff" d="M1365.44,-78.87C1447.54,-75.06 1604.16,-63.72 1733,-30.5 1734.75,-30.05 1736.52,-29.53 1738.3,-28.97"/>
<polygon fill="#63b8ff" stroke="#63b8ff" points="1739.11,-32.03 1747.32,-25.34 1736.73,-25.45 1739.11,-32.03"/>
</a>
</g>
</g>
<!-- Node29 -->
<g id="Node000029" class="node">
<title>Node29</title>
<g id="a_Node000029"><a xlink:title=" ">
<polygon fill="#e0e0e0" stroke="#999999" points="1870,-24.88 1812,-24.88 1812,-5.63 1870,-5.63 1870,-24.88"/>
<text text-anchor="middle" x="1841" y="-11.38" font-family="Helvetica,sans-Serif" font-size="10.00">stdexcept</text>
</a>
</g>
</g>
<!-- Node2&#45;&gt;Node29 -->
<g id="edge28_Node000002_Node000029" class="edge">
<title>Node2&#45;&gt;Node29</title>
<g id="a_edge28_Node000002_Node000029"><a xlink:title=" ">
<path fill="none" stroke="#63b8ff" d="M1365.34,-79.71C1457.86,-76.97 1647.3,-66.97 1803,-30.5 1805.06,-30.02 1807.16,-29.45 1809.26,-28.83"/>
<polygon fill="#63b8ff" stroke="#63b8ff" points="1810.22,-31.86 1818.6,-25.37 1808,-25.23 1810.22,-31.86"/>
</a>
</g>
</g>
<!-- Node30 -->
<g id="Node000030" class="node">
<title>Node30</title>
<g id="a_Node000030"><a xlink:title=" ">
<polygon fill="#e0e0e0" stroke="#999999" points="1935.75,-24.88 1888.25,-24.88 1888.25,-5.63 1935.75,-5.63 1935.75,-24.88"/>
<text text-anchor="middle" x="1912" y="-11.38" font-family="Helvetica,sans-Serif" font-size="10.00">stdint.h</text>
</a>
</g>
</g>
<!-- Node2&#45;&gt;Node30 -->
<g id="edge29_Node000002_Node000030" class="edge">
<title>Node2&#45;&gt;Node30</title>
<g id="a_edge29_Node000002_Node000030"><a xlink:title=" ">
<path fill="none" stroke="#63b8ff" d="M1365.41,-81.68C1468.89,-82.09 1695.29,-76.97 1879,-30.5 1880.55,-30.11 1882.12,-29.65 1883.69,-29.15"/>
<polygon fill="#63b8ff" stroke="#63b8ff" points="1884.74,-32.11 1892.86,-25.31 1882.27,-25.57 1884.74,-32.11"/>
</a>
</g>
</g>
<!-- Node31 -->
<g id="Node000031" class="node">
<title>Node31</title>
<g id="a_Node000031"><a xlink:title=" ">
<polygon fill="#e0e0e0" stroke="#999999" points="1994,-24.88 1954,-24.88 1954,-5.63 1994,-5.63 1994,-24.88"/>
<text text-anchor="middle" x="1974" y="-11.38" font-family="Helvetica,sans-Serif" font-size="10.00">string</text>
</a>
</g>
</g>
<!-- Node2&#45;&gt;Node31 -->
<g id="edge30_Node000002_Node000031" class="edge">
<title>Node2&#45;&gt;Node31</title>
<g id="a_edge30_Node000002_Node000031"><a xlink:title=" ">
<path fill="none" stroke="#63b8ff" d="M1365.06,-79.02C1499.36,-74.45 1836.45,-60.28 1945,-30.5 1946.11,-30.2 1947.23,-29.85 1948.34,-29.47"/>
<polygon fill="#63b8ff" stroke="#63b8ff" points="1949.29,-32.45 1957.17,-25.36 1946.59,-25.99 1949.29,-32.45"/>
</a>
</g>
</g>
<!-- Node32 -->
<g id="Node000032" class="node">
<title>Node32</title>
<g id="a_Node000032"><a xlink:title=" ">
<polygon fill="#e0e0e0" stroke="#999999" points="2055.5,-24.88 2012.5,-24.88 2012.5,-5.63 2055.5,-5.63 2055.5,-24.88"/>
<text text-anchor="middle" x="2034" y="-11.38" font-family="Helvetica,sans-Serif" font-size="10.00">thread</text>
</a>
</g>
</g>
<!-- Node2&#45;&gt;Node32 -->
<g id="edge31_Node000002_Node000032" class="edge">
<title>Node2&#45;&gt;Node32</title>
<g id="a_edge31_Node000002_Node000032"><a xlink:title=" ">
<path fill="none" stroke="#63b8ff" d="M1365.33,-79.26C1508.37,-75.07 1882.78,-61.4 2003,-30.5 2004.32,-30.16 2005.66,-29.77 2007,-29.33"/>
<polygon fill="#63b8ff" stroke="#63b8ff" points="2008.01,-32.3 2016.02,-25.37 2005.44,-25.79 2008.01,-32.3"/>
</a>
</g>
</g>
<!-- Node33 -->
<g id="Node000033" class="node">
<title>Node33</title>
<g id="a_Node000033"><a xlink:title=" ">
<polygon fill="#e0e0e0" stroke="#999999" points="2134.5,-24.88 2073.5,-24.88 2073.5,-5.63 2134.5,-5.63 2134.5,-24.88"/>
<text text-anchor="middle" x="2104" y="-11.38" font-family="Helvetica,sans-Serif" font-size="10.00">type_traits</text>
</a>
</g>
</g>
<!-- Node2&#45;&gt;Node33 -->
<g id="edge32_Node000002_Node000033" class="edge">
<title>Node2&#45;&gt;Node33</title>
<g id="a_edge32_Node000002_Node000033"><a xlink:title=" ">
<path fill="none" stroke="#63b8ff" d="M1365.38,-79.01C1516.91,-74.01 1930.46,-58.17 2064,-30.5 2066.5,-29.98 2069.05,-29.34 2071.6,-28.63"/>
<polygon fill="#63b8ff" stroke="#63b8ff" points="2072.42,-31.72 2080.89,-25.35 2070.3,-25.05 2072.42,-31.72"/>
</a>
</g>
</g>
<!-- Node34 -->
<g id="Node000034" class="node">
<title>Node34</title>
<g id="a_Node000034"><a xlink:title=" ">
<polygon fill="#e0e0e0" stroke="#999999" points="2229.75,-24.88 2152.25,-24.88 2152.25,-5.63 2229.75,-5.63 2229.75,-24.88"/>
<text text-anchor="middle" x="2191" y="-11.38" font-family="Helvetica,sans-Serif" font-size="10.00">unordered_set</text>
</a>
</g>
</g>
<!-- Node2&#45;&gt;Node34 -->
<g id="edge33_Node000002_Node000034" class="edge">
<title>Node2&#45;&gt;Node34</title>
<g id="a_edge33_Node000002_Node000034"><a xlink:title=" ">
<path fill="none" stroke="#63b8ff" d="M1365.29,-79.03C1527.33,-73.83 1992.91,-56.94 2143,-30.5 2146.62,-29.86 2150.35,-29.05 2154.06,-28.13"/>
<polygon fill="#63b8ff" stroke="#63b8ff" points="2154.62,-31.33 2163.35,-25.34 2152.78,-24.58 2154.62,-31.33"/>
</a>
</g>
</g>
<!-- Node35 -->
<g id="Node000035" class="node">
<title>Node35</title>
<g id="a_Node000035"><a xlink:title=" ">
<polygon fill="#e0e0e0" stroke="#999999" points="2292.62,-24.88 2247.38,-24.88 2247.38,-5.63 2292.62,-5.63 2292.62,-24.88"/>
<text text-anchor="middle" x="2270" y="-11.38" font-family="Helvetica,sans-Serif" font-size="10.00">variant</text>
</a>
</g>
</g>
<!-- Node2&#45;&gt;Node35 -->
<g id="edge34_Node000002_Node000035" class="edge">
<title>Node2&#45;&gt;Node35</title>
<g id="a_edge34_Node000002_Node000035"><a xlink:title=" ">
<path fill="none" stroke="#63b8ff" d="M1365.37,-80.47C1540.28,-79.16 2072.03,-71.79 2239,-30.5 2240.51,-30.13 2242.04,-29.68 2243.56,-29.18"/>
<polygon fill="#63b8ff" stroke="#63b8ff" points="2244.36,-32.23 2252.36,-25.29 2241.78,-25.72 2244.36,-32.23"/>
</a>
</g>
</g>
<!-- Node36 -->
<g id="Node000036" class="node">
<title>Node36</title>
<g id="a_Node000036"><a xlink:title=" ">
<polygon fill="#e0e0e0" stroke="#999999" points="2353.5,-24.88 2310.5,-24.88 2310.5,-5.63 2353.5,-5.63 2353.5,-24.88"/>
<text text-anchor="middle" x="2332" y="-11.38" font-family="Helvetica,sans-Serif" font-size="10.00">vector</text>
</a>
</g>
</g>
<!-- Node2&#45;&gt;Node36 -->
<g id="edge35_Node000002_Node000036" class="edge">
<title>Node2&#45;&gt;Node36</title>
<g id="a_edge35_Node000002_Node000036"><a xlink:title=" ">
<path fill="none" stroke="#63b8ff" d="M1365.31,-80.78C1547.99,-80.44 2122.7,-75.71 2302,-30.5 2303.32,-30.17 2304.65,-29.77 2305.98,-29.34"/>
<polygon fill="#63b8ff" stroke="#63b8ff" points="2306.98,-32.3 2314.93,-25.3 2304.35,-25.82 2306.98,-32.3"/>
</a>
</g>
</g>
<!-- Node37 -->
<g id="Node000037" class="node">
<title>Node37</title>
<g id="a_Node000037"><a xlink:title=" ">
<polygon fill="#e0e0e0" stroke="#999999" points="2420.12,-24.88 2371.88,-24.88 2371.88,-5.63 2420.12,-5.63 2420.12,-24.88"/>
<text text-anchor="middle" x="2396" y="-11.38" font-family="Helvetica,sans-Serif" font-size="10.00">random</text>
</a>
</g>
</g>
<!-- Node2&#45;&gt;Node37 -->
<g id="edge36_Node000002_Node000037" class="edge">
<title>Node2&#45;&gt;Node37</title>
<g id="a_edge36_Node000002_Node000037"><a xlink:title=" ">
<path fill="none" stroke="#63b8ff" d="M1365.28,-80.64C1554.96,-79.86 2169.65,-73.97 2362,-30.5 2363.8,-30.09 2365.63,-29.6 2367.46,-29.03"/>
<polygon fill="#63b8ff" stroke="#63b8ff" points="2368.49,-32.02 2376.68,-25.3 2366.09,-25.44 2368.49,-32.02"/>
</a>
</g>
</g>
<!-- Node38 -->
<g id="Node000038" class="node">
<title>Node38</title>
<g id="a_Node000038"><a xlink:href="../../de/d43/common-typedefs_8hpp.html" target="_top" xlink:title=" ">
<polygon fill="white" stroke="#666666" points="2549.62,-24.88 2438.38,-24.88 2438.38,-5.63 2549.62,-5.63 2549.62,-24.88"/>
<text text-anchor="middle" x="2494" y="-11.38" font-family="Helvetica,sans-Serif" font-size="10.00">common&#45;typedefs.hpp</text>
</a>
</g>
</g>
<!-- Node2&#45;&gt;Node38 -->
<g id="edge37_Node000002_Node000038" class="edge">
<title>Node2&#45;&gt;Node38</title>
<g id="a_edge37_Node000002_Node000038"><a xlink:title=" ">
<path fill="none" stroke="#63b8ff" d="M1365.16,-79.5C1561.97,-74.93 2219.85,-57.91 2429,-30.5 2434.87,-29.73 2441,-28.7 2447.04,-27.54"/>
<polygon fill="#63b8ff" stroke="#63b8ff" points="2447.66,-30.78 2456.75,-25.34 2446.25,-23.92 2447.66,-30.78"/>
</a>
</g>
</g>
<!-- Node39 -->
<g id="Node000039" class="node">
<title>Node39</title>
<g id="a_Node000039"><a xlink:href="../../d4/d78/math_8hpp.html" target="_top" xlink:title=" ">
<polygon fill="white" stroke="#666666" points="2644.75,-24.88 2567.25,-24.88 2567.25,-5.63 2644.75,-5.63 2644.75,-24.88"/>
<text text-anchor="middle" x="2606" y="-11.38" font-family="Helvetica,sans-Serif" font-size="10.00">core/math.hpp</text>
</a>
</g>
</g>
<!-- Node2&#45;&gt;Node39 -->
<g id="edge38_Node000002_Node000039" class="edge">
<title>Node2&#45;&gt;Node39</title>
<g id="a_edge38_Node000002_Node000039"><a xlink:title=" ">
<path fill="none" stroke="#63b8ff" d="M1365.45,-80.38C1577.28,-78.71 2324.63,-70.08 2559,-30.5 2562.64,-29.89 2566.4,-29.07 2570.12,-28.14"/>
<polygon fill="#63b8ff" stroke="#63b8ff" points="2570.72,-31.33 2579.42,-25.29 2568.85,-24.58 2570.72,-31.33"/>
</a>
</g>
</g>
<!-- Node39&#45;&gt;Node39 -->
<g id="edge39_Node000039_Node000039" class="edge">
<title>Node39&#45;&gt;Node39</title>
<g id="a_edge39_Node000039_Node000039"><a xlink:title=" ">
<path fill="none" stroke="#63b8ff" d="M2625.19,-25.33C2643.21,-30.56 2662.75,-27.2 2662.75,-15.25 2662.75,-5.63 2650.09,-1.58 2635.76,-3.09"/>
<polygon fill="#63b8ff" stroke="#63b8ff" points="2635.32,0.2 2626.19,-5.17 2636.67,-6.67 2635.32,0.2"/>
</a>
</g>
</g>
<!-- Node41 -->
<g id="Node000041" class="node">
<title>Node41</title>
<g id="a_Node000041"><a xlink:href="../../d8/d2a/win-def_8hpp.html" target="_top" xlink:title=" ">
<polygon fill="white" stroke="#666666" points="2746.75,-24.88 2681.25,-24.88 2681.25,-5.63 2746.75,-5.63 2746.75,-24.88"/>
<text text-anchor="middle" x="2714" y="-11.38" font-family="Helvetica,sans-Serif" font-size="10.00">win&#45;def.hpp</text>
</a>
</g>
</g>
<!-- Node40&#45;&gt;Node41 -->
<g id="edge41_Node000040_Node000041" class="edge">
<title>Node40&#45;&gt;Node41</title>
<g id="a_edge41_Node000040_Node000041"><a xlink:title=" ">
<path fill="none" stroke="#63b8ff" d="M2933.22,-71.63C2887.42,-62.52 2816.5,-47.47 2756,-30.5 2753.86,-29.9 2751.66,-29.25 2749.46,-28.58"/>
<polygon fill="#63b8ff" stroke="#63b8ff" points="2750.77,-25 2740.18,-25.28 2748.64,-31.67 2750.77,-25"/>
</a>
</g>
</g>
<!-- Node42 -->
<g id="Node000042" class="node">
<title>Node42</title>
<g id="a_Node000042"><a xlink:title=" ">
<polygon fill="#e0e0e0" stroke="#999999" points="2845.25,-24.88 2764.75,-24.88 2764.75,-5.63 2845.25,-5.63 2845.25,-24.88"/>
<text text-anchor="middle" x="2805" y="-11.38" font-family="Helvetica,sans-Serif" font-size="10.00">spdlog/async.h</text>
</a>
</g>
</g>
<!-- Node40&#45;&gt;Node42 -->
<g id="edge42_Node000040_Node000042" class="edge">
<title>Node40&#45;&gt;Node42</title>
<g id="a_edge42_Node000040_Node000042"><a xlink:title=" ">
<path fill="none" stroke="#63b8ff" d="M2956.16,-71.65C2925.76,-60.51 2874.11,-41.58 2839.77,-28.99"/>
<polygon fill="#63b8ff" stroke="#63b8ff" points="2841.31,-25.46 2830.72,-25.31 2838.9,-32.04 2841.31,-25.46"/>
</a>
</g>
</g>
<!-- Node43 -->
<g id="Node000043" class="node">
<title>Node43</title>
<g id="a_Node000043"><a xlink:title=" ">
<polygon fill="#e0e0e0" stroke="#999999" points="2976.38,-30.5 2863.62,-30.5 2863.62,0 2976.38,0 2976.38,-30.5"/>
<text text-anchor="start" x="2871.62" y="-17" font-family="Helvetica,sans-Serif" font-size="10.00">spdlog/sinks/ansicolor</text>
<text text-anchor="middle" x="2920" y="-5.75" font-family="Helvetica,sans-Serif" font-size="10.00">_sink.h</text>
</a>
</g>
</g>
<!-- Node40&#45;&gt;Node43 -->
<g id="edge43_Node000040_Node000043" class="edge">
<title>Node40&#45;&gt;Node43</title>
<g id="a_edge43_Node000040_Node000043"><a xlink:title=" ">
<path fill="none" stroke="#63b8ff" d="M2972.52,-71.78C2964.4,-63.2 2951.84,-49.92 2941.03,-38.49"/>
<polygon fill="#63b8ff" stroke="#63b8ff" points="2943.98,-36.46 2934.57,-31.59 2938.89,-41.27 2943.98,-36.46"/>
</a>
</g>
</g>
<!-- Node44 -->
<g id="Node000044" class="node">
<title>Node44</title>
<g id="a_Node000044"><a xlink:title=" ">
<polygon fill="#e0e0e0" stroke="#999999" points="3091.5,-30.5 2994.5,-30.5 2994.5,0 3091.5,0 3091.5,-30.5"/>
<text text-anchor="start" x="3002.5" y="-17" font-family="Helvetica,sans-Serif" font-size="10.00">spdlog/sinks/basic</text>
<text text-anchor="middle" x="3043" y="-5.75" font-family="Helvetica,sans-Serif" font-size="10.00">_file_sink.h</text>
</a>
</g>
</g>
<!-- Node40&#45;&gt;Node44 -->
<g id="edge44_Node000040_Node000044" class="edge">
<title>Node40&#45;&gt;Node44</title>
<g id="a_edge44_Node000040_Node000044"><a xlink:title=" ">
<path fill="none" stroke="#63b8ff" d="M2989.62,-71.78C2997.87,-63.2 3010.64,-49.92 3021.62,-38.49"/>
<polygon fill="#63b8ff" stroke="#63b8ff" points="3023.8,-41.23 3028.21,-31.59 3018.76,-36.38 3023.8,-41.23"/>
</a>
</g>
</g>
<!-- Node45 -->
<g id="Node000045" class="node">
<title>Node45</title>
<g id="a_Node000045"><a xlink:title=" ">
<polygon fill="#e0e0e0" stroke="#999999" points="3210.38,-30.5 3109.62,-30.5 3109.62,0 3210.38,0 3210.38,-30.5"/>
<text text-anchor="start" x="3117.62" y="-17" font-family="Helvetica,sans-Serif" font-size="10.00">spdlog/sinks/stdout</text>
<text text-anchor="middle" x="3160" y="-5.75" font-family="Helvetica,sans-Serif" font-size="10.00">_color_sinks.h</text>
</a>
</g>
</g>
<!-- Node40&#45;&gt;Node45 -->
<g id="edge45_Node000040_Node000045" class="edge">
<title>Node40&#45;&gt;Node45</title>
<g id="a_edge45_Node000040_Node000045"><a xlink:title=" ">
<path fill="none" stroke="#63b8ff" d="M3006.27,-71.65C3032.9,-62.05 3075.59,-46.67 3109.22,-34.55"/>
<polygon fill="#63b8ff" stroke="#63b8ff" points="3110.12,-37.58 3118.35,-30.9 3107.75,-31 3110.12,-37.58"/>
</a>
</g>
</g>
<!-- Node46 -->
<g id="Node000046" class="node">
<title>Node46</title>
<g id="a_Node000046"><a xlink:title=" ">
<polygon fill="#e0e0e0" stroke="#999999" points="3311.75,-24.88 3228.25,-24.88 3228.25,-5.63 3311.75,-5.63 3311.75,-24.88"/>
<text text-anchor="middle" x="3270" y="-11.38" font-family="Helvetica,sans-Serif" font-size="10.00">spdlog/spdlog.h</text>
</a>
</g>
</g>
<!-- Node40&#45;&gt;Node46 -->
<g id="edge46_Node000040_Node000046" class="edge">
<title>Node40&#45;&gt;Node46</title>
<g id="a_edge46_Node000040_Node000046"><a xlink:title=" ">
<path fill="none" stroke="#63b8ff" d="M3016.21,-71.66C3023.4,-69.89 3030.93,-68.09 3038,-66.5 3118.03,-48.55 3139.22,-49.55 3219,-30.5 3222.02,-29.78 3225.13,-29 3228.25,-28.19"/>
<polygon fill="#63b8ff" stroke="#63b8ff" points="3229.05,-31.33 3237.81,-25.37 3227.25,-24.57 3229.05,-31.33"/>
</a>
</g>
</g>
<!-- Node47 -->
<g id="Node000047" class="node">
<title>Node47</title>
<g id="a_Node000047"><a xlink:href="../../d4/dfc/win-undef_8hpp.html" target="_top" xlink:title=" ">
<polygon fill="white" stroke="#666666" points="3406,-24.88 3330,-24.88 3330,-5.63 3406,-5.63 3406,-24.88"/>
<text text-anchor="middle" x="3368" y="-11.38" font-family="Helvetica,sans-Serif" font-size="10.00">win&#45;undef.hpp</text>
</a>
</g>
</g>
<!-- Node40&#45;&gt;Node47 -->
<g id="edge47_Node000040_Node000047" class="edge">
<title>Node40&#45;&gt;Node47</title>
<g id="a_edge47_Node000040_Node000047"><a xlink:title=" ">
<path fill="none" stroke="#63b8ff" d="M3014.61,-71.65C3022.26,-69.77 3030.38,-67.93 3038,-66.5 3162.61,-43.08 3197.01,-56.99 3321,-30.5 3324.05,-29.85 3327.19,-29.09 3330.32,-28.28"/>
<polygon fill="#63b8ff" stroke="#63b8ff" points="3331.18,-31.39 3339.86,-25.32 3329.29,-24.65 3331.18,-31.39"/>
</a>
</g>
</g>
<!-- Node48&#45;&gt;Node1 -->
<g id="edge49_Node000048_Node000001" class="edge">
<title>Node48&#45;&gt;Node1</title>
<g id="a_edge49_Node000048_Node000001"><a xlink:title=" ">
<path fill="none" stroke="#63b8ff" d="M3099.87,-97.28C3091.29,-106.03 3079.03,-117.17 3068.18,-126.09"/>
<polygon fill="#63b8ff" stroke="#63b8ff" points="3066.53,-123.72 3060.88,-132.68 3070.89,-129.2 3066.53,-123.72"/>
</a>
</g>
</g>
</g>
</svg>
