<?xml version="1.0" encoding="UTF-8" standalone="no"?>
<!DOCTYPE svg PUBLIC "-//W3C//DTD SVG 1.1//EN"
 "http://www.w3.org/Graphics/SVG/1.1/DTD/svg11.dtd">
<!-- Generated by graphviz version 9.0.0 (20230911.1827)
 -->
<!-- Title: engine/subsystems/core/shader&#45;manager.inl Pages: 1 -->
<!--zoomable 382 -->

<svg id="main" version="1.1" xmlns="http://www.w3.org/2000/svg" xmlns:xlink="http://www.w3.org/1999/xlink" xml:space="preserve" onload="init(evt)">
<style type="text/css"><![CDATA[
.node, .edge {opacity: 0.7;}
.node.selected, .edge.selected {opacity: 1;}
.edge:hover path { stroke: red; }
.edge:hover polygon { stroke: red; fill: red; }
]]></style>

<defs>
  <circle id="rim" cx="0" cy="0" r="7"/>
  <circle id="rim2" cx="0" cy="0" r="3.5"/>
  <g id="zoomPlus">
    <use xlink:href="#rim" fill="#404040"><set attributeName="fill" to="#808080" begin="zoomplus.mouseover" end="zoomplus.mouseout"/></use>
    <path d="M-4,0h8M0,-4v8" fill="none" stroke="white" stroke-width="1.5" pointer-events="none"/>
  </g>
  <g id="zoomMin">
    <use xlink:href="#rim" fill="#404040"><set attributeName="fill" to="#808080" begin="zoomminus.mouseover" end="zoomminus.mouseout"/></use>
    <path d="M-4,0h8" fill="none" stroke="white" stroke-width="1.5" pointer-events="none"/>
  </g>
  <g id="arrowUp" transform="translate(30 24)">
    <use xlink:href="#rim"/>
    <path pointer-events="none" fill="none" stroke="white" stroke-width="1.5" d="M0,-3.0v7 M-2.5,-0.5L0,-3.0L2.5,-0.5"/>
  </g>
  <g id="arrowRight" transform="rotate(90) translate(36 -43)">
    <use xlink:href="#rim"/>
    <path pointer-events="none" fill="none" stroke="white" stroke-width="1.5" d="M0,-3.0v7 M-2.5,-0.5L0,-3.0L2.5,-0.5"/>
  </g>
  <g id="arrowDown" transform="rotate(180) translate(-30 -48)">
    <use xlink:href="#rim"/>
    <path pointer-events="none" fill="none" stroke="white" stroke-width="1.5" d="M0,-3.0v7 M-2.5,-0.5L0,-3.0L2.5,-0.5"/>
  </g>
  <g id="arrowLeft" transform="rotate(270) translate(-36 17)">
    <use xlink:href="#rim"/>
    <path pointer-events="none" fill="none" stroke="white" stroke-width="1.5" d="M0,-3.0v7 M-2.5,-0.5L0,-3.0L2.5,-0.5"/>
  </g>
  <g id="resetDef">
    <use xlink:href="#rim2" fill="#404040"><set attributeName="fill" to="#808080" begin="reset.mouseover" end="reset.mouseout"/></use>
  </g>
</defs>
<script type="application/ecmascript">
var viewWidth = 1889;
var viewHeight = 382;
var sectionId = 'dynsection-1';
</script>
<script type="application/ecmascript" xlink:href="../../svg.min.js"/>
<svg id="graph" class="graph">
<g id="viewport">
<title>engine/subsystems/core/shader&#45;manager.inl</title>
<!-- Node1 -->
<g id="Node000001" class="node">
<title>Node1</title>
<g id="a_Node000001"><a xlink:title=" ">
<polygon fill="#999999" stroke="#666666" points="1114.38,-374.25 992.63,-374.25 992.63,-343.75 1114.38,-343.75 1114.38,-374.25"/>
<text text-anchor="start" x="1000.63" y="-360.75" font-family="Helvetica,sans-Serif" font-size="10.00">engine/subsystems/core</text>
<text text-anchor="middle" x="1053.51" y="-349.5" font-family="Helvetica,sans-Serif" font-size="10.00">/shader&#45;manager.inl</text>
</a>
</g>
</g>
<!-- Node2 -->
<g id="Node000002" class="node">
<title>Node2</title>
<g id="a_Node000002"><a xlink:href="../../d4/d92/shader-manager_8hpp.html" target="_top" xlink:title=" ">
<polygon fill="white" stroke="#666666" points="1114.38,-307.75 992.63,-307.75 992.63,-277.25 1114.38,-277.25 1114.38,-307.75"/>
<text text-anchor="start" x="1000.63" y="-294.25" font-family="Helvetica,sans-Serif" font-size="10.00">engine/subsystems/core</text>
<text text-anchor="middle" x="1053.51" y="-283" font-family="Helvetica,sans-Serif" font-size="10.00">/shader&#45;manager.hpp</text>
</a>
</g>
</g>
<!-- Node1&#45;&gt;Node2 -->
<g id="edge1_Node000001_Node000002" class="edge">
<title>Node1&#45;&gt;Node2</title>
<g id="a_edge1_Node000001_Node000002"><a xlink:title=" ">
<path fill="none" stroke="#63b8ff" d="M1046.87,-332.06C1046.57,-323.89 1046.86,-315.16 1047.75,-308.08"/>
<polygon fill="#63b8ff" stroke="#63b8ff" points="1043.37,-332.15 1047.63,-341.85 1050.35,-331.62 1043.37,-332.15"/>
</a>
</g>
</g>
<!-- Node2&#45;&gt;Node1 -->
<g id="edge37_Node000002_Node000001" class="edge">
<title>Node2&#45;&gt;Node1</title>
<g id="a_edge37_Node000002_Node000001"><a xlink:title=" ">
<path fill="none" stroke="#63b8ff" d="M1060.14,-319.38C1060.45,-327.54 1060.16,-336.27 1059.27,-343.36"/>
<polygon fill="#63b8ff" stroke="#63b8ff" points="1063.64,-319.29 1059.38,-309.59 1056.66,-319.83 1063.64,-319.29"/>
</a>
</g>
</g>
<!-- Node3 -->
<g id="Node000003" class="node">
<title>Node3</title>
<g id="a_Node000003"><a xlink:href="../../de/d8e/deferred-resolve_8hpp.html" target="_top" xlink:title=" ">
<polygon fill="white" stroke="#666666" points="756.88,-235.62 644.13,-235.62 644.13,-205.12 756.88,-205.12 756.88,-235.62"/>
<text text-anchor="start" x="652.13" y="-222.12" font-family="Helvetica,sans-Serif" font-size="10.00">engine/render/deferred</text>
<text text-anchor="middle" x="700.51" y="-210.88" font-family="Helvetica,sans-Serif" font-size="10.00">&#45;resolve.hpp</text>
</a>
</g>
</g>
<!-- Node2&#45;&gt;Node3 -->
<g id="edge2_Node000002_Node000003" class="edge">
<title>Node2&#45;&gt;Node3</title>
<g id="a_edge2_Node000002_Node000003"><a xlink:title=" ">
<path fill="none" stroke="#63b8ff" d="M981.24,-277.14C915,-263.98 818.22,-244.76 757.35,-232.67"/>
<polygon fill="#63b8ff" stroke="#63b8ff" points="980.45,-280.55 990.94,-279.07 981.81,-273.69 980.45,-280.55"/>
</a>
</g>
</g>
<!-- Node10 -->
<g id="Node000010" class="node">
<title>Node10</title>
<g id="a_Node000010"><a xlink:href="../../d2/deb/hdr-to-ldr-layer_8hpp.html" target="_top" xlink:title=" ">
<polygon fill="white" stroke="#666666" points="481.63,-235.62 379.38,-235.62 379.38,-205.12 481.63,-205.12 481.63,-235.62"/>
<text text-anchor="start" x="387.38" y="-222.12" font-family="Helvetica,sans-Serif" font-size="10.00">engine/render/hdr&#45;to</text>
<text text-anchor="middle" x="430.51" y="-210.88" font-family="Helvetica,sans-Serif" font-size="10.00">&#45;ldr&#45;layer.hpp</text>
</a>
</g>
</g>
<!-- Node2&#45;&gt;Node10 -->
<g id="edge10_Node000002_Node000010" class="edge">
<title>Node2&#45;&gt;Node10</title>
<g id="a_edge10_Node000002_Node000010"><a xlink:title=" ">
<path fill="none" stroke="#63b8ff" d="M981.19,-283.36C853.81,-269.02 592.44,-239.6 481.8,-227.15"/>
<polygon fill="#63b8ff" stroke="#63b8ff" points="980.52,-286.81 990.85,-284.45 981.3,-279.85 980.52,-286.81"/>
</a>
</g>
</g>
<!-- Node11 -->
<g id="Node000011" class="node">
<title>Node11</title>
<g id="a_Node000011"><a xlink:href="../../da/d7b/present-swapchain_8hpp.html" target="_top" xlink:title=" ">
<polygon fill="white" stroke="#666666" points="289.38,-235.62 179.63,-235.62 179.63,-205.12 289.38,-205.12 289.38,-235.62"/>
<text text-anchor="start" x="187.63" y="-222.12" font-family="Helvetica,sans-Serif" font-size="10.00">engine/render/present</text>
<text text-anchor="middle" x="234.51" y="-210.88" font-family="Helvetica,sans-Serif" font-size="10.00">&#45;swapchain.hpp</text>
</a>
</g>
</g>
<!-- Node2&#45;&gt;Node11 -->
<g id="edge12_Node000002_Node000011" class="edge">
<title>Node2&#45;&gt;Node11</title>
<g id="a_edge12_Node000002_Node000011"><a xlink:title=" ">
<path fill="none" stroke="#63b8ff" d="M980.86,-287.87C855.89,-281.24 592.28,-265.58 370.51,-241.25 343.82,-238.32 314.33,-234.13 289.64,-230.35"/>
<polygon fill="#63b8ff" stroke="#63b8ff" points="980.47,-291.35 990.64,-288.38 980.83,-284.36 980.47,-291.35"/>
</a>
</g>
</g>
<!-- Node12 -->
<g id="Node000012" class="node">
<title>Node12</title>
<g id="a_Node000012"><a xlink:href="../../da/d47/core_8hpp.html" target="_top" xlink:title=" ">
<polygon fill="white" stroke="#666666" points="968.38,-235.62 846.63,-235.62 846.63,-205.12 968.38,-205.12 968.38,-235.62"/>
<text text-anchor="start" x="854.63" y="-222.12" font-family="Helvetica,sans-Serif" font-size="10.00">engine/subsystems/core</text>
<text text-anchor="middle" x="907.51" y="-210.88" font-family="Helvetica,sans-Serif" font-size="10.00">/core.hpp</text>
</a>
</g>
</g>
<!-- Node2&#45;&gt;Node12 -->
<g id="edge15_Node000002_Node000012" class="edge">
<title>Node2&#45;&gt;Node12</title>
<g id="a_edge15_Node000002_Node000012"><a xlink:title=" ">
<path fill="none" stroke="#63b8ff" d="M1012.8,-271.95C989.13,-260.58 959.77,-246.48 938.07,-236.06"/>
<polygon fill="#63b8ff" stroke="#63b8ff" points="1011.01,-274.97 1021.54,-276.14 1014.04,-268.66 1011.01,-274.97"/>
</a>
</g>
</g>
<!-- Node21 -->
<g id="Node000021" class="node">
<title>Node21</title>
<g id="a_Node000021"><a xlink:href="../../d8/d30/decal-render-system_8cpp.html" target="_top" xlink:title=" ">
<polygon fill="white" stroke="#666666" points="1584.01,-91.38 1433.01,-91.38 1433.01,-60.88 1584.01,-60.88 1584.01,-91.38"/>
<text text-anchor="start" x="1441.01" y="-77.88" font-family="Helvetica,sans-Serif" font-size="10.00">engine/subsystems/render</text>
<text text-anchor="middle" x="1508.51" y="-66.62" font-family="Helvetica,sans-Serif" font-size="10.00">/detail/decal&#45;render&#45;system.cpp</text>
</a>
</g>
</g>
<!-- Node2&#45;&gt;Node21 -->
<g id="edge38_Node000002_Node000021" class="edge">
<title>Node2&#45;&gt;Node21</title>
<g id="a_edge38_Node000002_Node000021"><a xlink:title=" ">
<path fill="none" stroke="#63b8ff" d="M1033.76,-267.59C1028.38,-259.69 1023.28,-250.53 1020.51,-241.25 1006.72,-195.16 988.03,-168.5 1020.51,-133 1050.93,-99.75 1380.02,-104.21 1424.51,-97 1433.23,-95.59 1442.4,-93.77 1451.34,-91.81"/>
<polygon fill="#63b8ff" stroke="#63b8ff" points="1030.92,-269.64 1039.66,-275.62 1036.56,-265.49 1030.92,-269.64"/>
</a>
</g>
</g>
<!-- Node22 -->
<g id="Node000022" class="node">
<title>Node22</title>
<g id="a_Node000022"><a xlink:href="../../d1/d58/dissolution-render-system_8cpp.html" target="_top" xlink:title=" ">
<polygon fill="white" stroke="#666666" points="1732.51,-97 1602.51,-97 1602.51,-55.25 1732.51,-55.25 1732.51,-97"/>
<text text-anchor="start" x="1610.51" y="-83.5" font-family="Helvetica,sans-Serif" font-size="10.00">engine/subsystems/render</text>
<text text-anchor="start" x="1610.51" y="-72.25" font-family="Helvetica,sans-Serif" font-size="10.00">/detail/dissolution&#45;render</text>
<text text-anchor="middle" x="1667.51" y="-61" font-family="Helvetica,sans-Serif" font-size="10.00">&#45;system.cpp</text>
</a>
</g>
</g>
<!-- Node2&#45;&gt;Node22 -->
<g id="edge39_Node000002_Node000022" class="edge">
<title>Node2&#45;&gt;Node22</title>
<g id="a_edge39_Node000002_Node000022"><a xlink:title=" ">
<path fill="none" stroke="#63b8ff" d="M1045.12,-266.08C1035.34,-231.04 1024.5,-168.24 1058.51,-133 1099.88,-90.13 1534.74,-106.77 1593.51,-97 1596.39,-96.52 1599.33,-95.98 1602.29,-95.38"/>
<polygon fill="#63b8ff" stroke="#63b8ff" points="1041.68,-266.79 1047.9,-275.37 1048.39,-264.79 1041.68,-266.79"/>
</a>
</g>
</g>
<!-- Node23 -->
<g id="Node000023" class="node">
<title>Node23</title>
<g id="a_Node000023"><a xlink:href="../../d2/d11/emissive-particle-render-system_8cpp.html" target="_top" xlink:title=" ">
<polygon fill="white" stroke="#666666" points="1880.51,-97 1750.51,-97 1750.51,-55.25 1880.51,-55.25 1880.51,-97"/>
<text text-anchor="start" x="1758.51" y="-83.5" font-family="Helvetica,sans-Serif" font-size="10.00">engine/subsystems/render</text>
<text text-anchor="start" x="1758.51" y="-72.25" font-family="Helvetica,sans-Serif" font-size="10.00">/detail/emissive&#45;particle</text>
<text text-anchor="middle" x="1815.51" y="-61" font-family="Helvetica,sans-Serif" font-size="10.00">&#45;render&#45;system.cpp</text>
</a>
</g>
</g>
<!-- Node2&#45;&gt;Node23 -->
<g id="edge40_Node000002_Node000023" class="edge">
<title>Node2&#45;&gt;Node23</title>
<g id="a_edge40_Node000002_Node000023"><a xlink:title=" ">
<path fill="none" stroke="#63b8ff" d="M1057.09,-265.99C1061.46,-244.83 1070.99,-215.68 1091.51,-199.5 1321.15,-18.4 1455.44,-157.79 1741.51,-97 1744.37,-96.39 1747.29,-95.74 1750.23,-95.06"/>
<polygon fill="#63b8ff" stroke="#63b8ff" points="1053.68,-265.13 1055.37,-275.59 1060.57,-266.36 1053.68,-265.13"/>
</a>
</g>
</g>
<!-- Node27 -->
<g id="Node000027" class="node">
<title>Node27</title>
<g id="a_Node000027"><a xlink:href="../../d9/d30/shader-manager_8cpp.html" target="_top" xlink:title=" ">
<polygon fill="white" stroke="#666666" points="1222.38,-235.62 1100.63,-235.62 1100.63,-205.12 1222.38,-205.12 1222.38,-235.62"/>
<text text-anchor="start" x="1108.63" y="-222.12" font-family="Helvetica,sans-Serif" font-size="10.00">engine/subsystems/core</text>
<text text-anchor="middle" x="1161.51" y="-210.88" font-family="Helvetica,sans-Serif" font-size="10.00">/shader&#45;manager.cpp</text>
</a>
</g>
</g>
<!-- Node2&#45;&gt;Node27 -->
<g id="edge36_Node000002_Node000027" class="edge">
<title>Node2&#45;&gt;Node27</title>
<g id="a_edge36_Node000002_Node000027"><a xlink:title=" ">
<path fill="none" stroke="#63b8ff" d="M1085.76,-270.56C1102.87,-259.45 1123.49,-246.06 1138.9,-236.06"/>
<polygon fill="#63b8ff" stroke="#63b8ff" points="1083.9,-267.59 1077.42,-275.98 1087.71,-273.46 1083.9,-267.59"/>
</a>
</g>
</g>
<!-- Node28 -->
<g id="Node000028" class="node">
<title>Node28</title>
<g id="a_Node000028"><a xlink:href="../../d8/dcb/emissive-render-system_8cpp.html" target="_top" xlink:title=" ">
<polygon fill="white" stroke="#666666" points="1370.51,-241.25 1240.51,-241.25 1240.51,-199.5 1370.51,-199.5 1370.51,-241.25"/>
<text text-anchor="start" x="1248.51" y="-227.75" font-family="Helvetica,sans-Serif" font-size="10.00">engine/subsystems/render</text>
<text text-anchor="start" x="1248.51" y="-216.5" font-family="Helvetica,sans-Serif" font-size="10.00">/detail/emissive&#45;render</text>
<text text-anchor="middle" x="1305.51" y="-205.25" font-family="Helvetica,sans-Serif" font-size="10.00">&#45;system.cpp</text>
</a>
</g>
</g>
<!-- Node2&#45;&gt;Node28 -->
<g id="edge41_Node000002_Node000028" class="edge">
<title>Node2&#45;&gt;Node28</title>
<g id="a_edge41_Node000002_Node000028"><a xlink:title=" ">
<path fill="none" stroke="#63b8ff" d="M1117.16,-273.79C1154.78,-263.32 1202.3,-250.09 1240.2,-239.55"/>
<polygon fill="#63b8ff" stroke="#63b8ff" points="1116.49,-270.34 1107.79,-276.39 1118.36,-277.08 1116.49,-270.34"/>
</a>
</g>
</g>
<!-- Node29 -->
<g id="Node000029" class="node">
<title>Node29</title>
<g id="a_Node000029"><a xlink:href="../../d9/d5a/sort-lib_8cpp.html" target="_top" xlink:title=" ">
<polygon fill="white" stroke="#666666" points="1518.51,-235.62 1388.51,-235.62 1388.51,-205.12 1518.51,-205.12 1518.51,-235.62"/>
<text text-anchor="start" x="1396.51" y="-222.12" font-family="Helvetica,sans-Serif" font-size="10.00">engine/subsystems/render</text>
<text text-anchor="middle" x="1453.51" y="-210.88" font-family="Helvetica,sans-Serif" font-size="10.00">/detail/misc/sort&#45;lib.cpp</text>
</a>
</g>
</g>
<!-- Node2&#45;&gt;Node29 -->
<g id="edge42_Node000002_Node000029" class="edge">
<title>Node2&#45;&gt;Node29</title>
<g id="a_edge42_Node000002_Node000029"><a xlink:title=" ">
<path fill="none" stroke="#63b8ff" d="M1126.01,-282.64C1192.35,-273.98 1293.03,-259.47 1379.51,-241.25 1386.67,-239.74 1394.16,-237.96 1401.53,-236.1"/>
<polygon fill="#63b8ff" stroke="#63b8ff" points="1125.82,-279.13 1116.35,-283.89 1126.72,-286.08 1125.82,-279.13"/>
</a>
</g>
</g>
<!-- Node30 -->
<g id="Node000030" class="node">
<title>Node30</title>
<g id="a_Node000030"><a xlink:href="../../d1/d62/opaque-render-system_8cpp.html" target="_top" xlink:title=" ">
<polygon fill="white" stroke="#666666" points="1696.13,-235.62 1536.88,-235.62 1536.88,-205.12 1696.13,-205.12 1696.13,-235.62"/>
<text text-anchor="start" x="1544.88" y="-222.12" font-family="Helvetica,sans-Serif" font-size="10.00">engine/subsystems/render</text>
<text text-anchor="middle" x="1616.51" y="-210.88" font-family="Helvetica,sans-Serif" font-size="10.00">/detail/opaque&#45;render&#45;system.cpp</text>
</a>
</g>
</g>
<!-- Node2&#45;&gt;Node30 -->
<g id="edge43_Node000002_Node000030" class="edge">
<title>Node2&#45;&gt;Node30</title>
<g id="a_edge43_Node000002_Node000030"><a xlink:title=" ">
<path fill="none" stroke="#63b8ff" d="M1126.07,-286.39C1219.37,-279.24 1386.21,-264.44 1527.51,-241.25 1536.41,-239.79 1545.76,-237.99 1554.92,-236.08"/>
<polygon fill="#63b8ff" stroke="#63b8ff" points="1126,-282.89 1116.3,-287.14 1126.53,-289.87 1126,-282.89"/>
</a>
</g>
</g>
<!-- Node31 -->
<g id="Node000031" class="node">
<title>Node31</title>
<g id="a_Node000031"><a xlink:href="../../d3/dd8/skybox-manager_8cpp.html" target="_top" xlink:title=" ">
<polygon fill="white" stroke="#666666" points="1844.51,-235.62 1714.51,-235.62 1714.51,-205.12 1844.51,-205.12 1844.51,-235.62"/>
<text text-anchor="start" x="1722.51" y="-222.12" font-family="Helvetica,sans-Serif" font-size="10.00">engine/subsystems/render</text>
<text text-anchor="middle" x="1779.51" y="-210.88" font-family="Helvetica,sans-Serif" font-size="10.00">/skybox&#45;manager.cpp</text>
</a>
</g>
</g>
<!-- Node2&#45;&gt;Node31 -->
<g id="edge44_Node000002_Node000031" class="edge">
<title>Node2&#45;&gt;Node31</title>
<g id="a_edge44_Node000002_Node000031"><a xlink:title=" ">
<path fill="none" stroke="#63b8ff" d="M1125.94,-290.29C1246.85,-287.3 1497.1,-276.95 1705.51,-241.25 1713.37,-239.9 1721.62,-238.09 1729.63,-236.12"/>
<polygon fill="#63b8ff" stroke="#63b8ff" points="1126.07,-286.79 1116.16,-290.52 1126.24,-293.79 1126.07,-286.79"/>
</a>
</g>
</g>
<!-- Node4 -->
<g id="Node000004" class="node">
<title>Node4</title>
<g id="a_Node000004"><a xlink:href="../../db/df9/deferred-hdr-render-pipeline_8hpp.html" target="_top" xlink:title=" ">
<polygon fill="white" stroke="#666666" points="299.88,-163.5 169.13,-163.5 169.13,-133 299.88,-133 299.88,-163.5"/>
<text text-anchor="start" x="177.13" y="-150" font-family="Helvetica,sans-Serif" font-size="10.00">engine/direct3d11/deferred</text>
<text text-anchor="middle" x="234.51" y="-138.75" font-family="Helvetica,sans-Serif" font-size="10.00">&#45;hdr&#45;render&#45;pipeline.hpp</text>
</a>
</g>
</g>
<!-- Node3&#45;&gt;Node4 -->
<g id="edge3_Node000003_Node000004" class="edge">
<title>Node3&#45;&gt;Node4</title>
<g id="a_edge3_Node000003_Node000004"><a xlink:title=" ">
<path fill="none" stroke="#63b8ff" d="M632.5,-209.14C543.37,-195.73 388.08,-172.36 300.14,-159.13"/>
<polygon fill="#63b8ff" stroke="#63b8ff" points="631.93,-212.59 642.34,-210.62 632.97,-205.67 631.93,-212.59"/>
</a>
</g>
</g>
<!-- Node9 -->
<g id="Node000009" class="node">
<title>Node9</title>
<g id="a_Node000009"><a xlink:href="../../d4/d7c/deferred-resolve_8cpp.html" target="_top" xlink:title=" ">
<polygon fill="white" stroke="#666666" points="756.88,-163.5 644.13,-163.5 644.13,-133 756.88,-133 756.88,-163.5"/>
<text text-anchor="start" x="652.13" y="-150" font-family="Helvetica,sans-Serif" font-size="10.00">engine/render/deferred</text>
<text text-anchor="middle" x="700.51" y="-138.75" font-family="Helvetica,sans-Serif" font-size="10.00">&#45;resolve.cpp</text>
</a>
</g>
</g>
<!-- Node3&#45;&gt;Node9 -->
<g id="edge9_Node000003_Node000009" class="edge">
<title>Node3&#45;&gt;Node9</title>
<g id="a_edge9_Node000003_Node000009"><a xlink:title=" ">
<path fill="none" stroke="#63b8ff" d="M700.51,-193.4C700.51,-183.39 700.51,-172.31 700.51,-163.76"/>
<polygon fill="#63b8ff" stroke="#63b8ff" points="697.01,-193.33 700.51,-203.33 704.01,-193.33 697.01,-193.33"/>
</a>
</g>
</g>
<!-- Node5 -->
<g id="Node000005" class="node">
<title>Node5</title>
<g id="a_Node000005"><a xlink:href="../../dc/dfb/controller_8hpp.html" target="_top" xlink:title=" ">
<polygon fill="white" stroke="#666666" points="291.63,-85.75 177.38,-85.75 177.38,-66.5 291.63,-66.5 291.63,-85.75"/>
<text text-anchor="middle" x="234.51" y="-72.25" font-family="Helvetica,sans-Serif" font-size="10.00">d3d_test/controller.hpp</text>
</a>
</g>
</g>
<!-- Node4&#45;&gt;Node5 -->
<g id="edge4_Node000004_Node000005" class="edge">
<title>Node4&#45;&gt;Node5</title>
<g id="a_edge4_Node000004_Node000005"><a xlink:title=" ">
<path fill="none" stroke="#63b8ff" d="M234.51,-121.48C234.51,-108.98 234.51,-94.77 234.51,-85.88"/>
<polygon fill="#63b8ff" stroke="#63b8ff" points="231.01,-121.21 234.51,-131.21 238.01,-121.21 231.01,-121.21"/>
</a>
</g>
</g>
<!-- Node7 -->
<g id="Node000007" class="node">
<title>Node7</title>
<g id="a_Node000007"><a xlink:href="../../d9/d0f/main_8cc.html" target="_top" xlink:title=" ">
<polygon fill="white" stroke="#666666" points="162.63,-19.25 72.38,-19.25 72.38,0 162.63,0 162.63,-19.25"/>
<text text-anchor="middle" x="117.51" y="-5.75" font-family="Helvetica,sans-Serif" font-size="10.00">d3d_test/main.cc</text>
</a>
</g>
</g>
<!-- Node4&#45;&gt;Node7 -->
<g id="edge7_Node000004_Node000007" class="edge">
<title>Node4&#45;&gt;Node7</title>
<g id="a_edge7_Node000004_Node000007"><a xlink:title=" ">
<path fill="none" stroke="#63b8ff" d="M157.78,-139.35C103.25,-131.96 36.75,-118.74 19.51,-97 7.98,-82.46 9.47,-70.85 19.51,-55.25 31.24,-37.01 52.46,-26.14 72.16,-19.7"/>
<polygon fill="#63b8ff" stroke="#63b8ff" points="157,-142.77 167.36,-140.6 157.9,-135.83 157,-142.77"/>
</a>
</g>
</g>
<!-- Node8 -->
<g id="Node000008" class="node">
<title>Node8</title>
<g id="a_Node000008"><a xlink:href="../../d1/da2/deferred-hdr-render-pipeline_8cpp.html" target="_top" xlink:title=" ">
<polygon fill="white" stroke="#666666" points="158.88,-91.38 28.13,-91.38 28.13,-60.88 158.88,-60.88 158.88,-91.38"/>
<text text-anchor="start" x="36.13" y="-77.88" font-family="Helvetica,sans-Serif" font-size="10.00">engine/direct3d11/deferred</text>
<text text-anchor="middle" x="93.51" y="-66.62" font-family="Helvetica,sans-Serif" font-size="10.00">&#45;hdr&#45;render&#45;pipeline.cpp</text>
</a>
</g>
</g>
<!-- Node4&#45;&gt;Node8 -->
<g id="edge8_Node000004_Node000008" class="edge">
<title>Node4&#45;&gt;Node8</title>
<g id="a_edge8_Node000004_Node000008"><a xlink:title=" ">
<path fill="none" stroke="#63b8ff" d="M194.89,-127.55C172.08,-116.2 143.89,-102.18 123.03,-91.81"/>
<polygon fill="#63b8ff" stroke="#63b8ff" points="193.08,-130.56 203.59,-131.88 196.2,-124.29 193.08,-130.56"/>
</a>
</g>
</g>
<!-- Node6 -->
<g id="Node000006" class="node">
<title>Node6</title>
<g id="a_Node000006"><a xlink:href="../../d1/d47/controller_8cpp.html" target="_top" xlink:title=" ">
<polygon fill="white" stroke="#666666" points="1121.63,-19.25 1007.38,-19.25 1007.38,0 1121.63,0 1121.63,-19.25"/>
<text text-anchor="middle" x="1064.51" y="-5.75" font-family="Helvetica,sans-Serif" font-size="10.00">d3d_test/controller.cpp</text>
</a>
</g>
</g>
<!-- Node5&#45;&gt;Node6 -->
<g id="edge5_Node000005_Node000006" class="edge">
<title>Node5&#45;&gt;Node6</title>
<g id="a_edge5_Node000005_Node000006"><a xlink:title=" ">
<path fill="none" stroke="#63b8ff" d="M286.43,-63.79C303,-60.55 321.46,-57.34 338.51,-55.25 628.34,-19.77 703.66,-45.12 994.51,-19.25 998.65,-18.88 1002.93,-18.46 1007.24,-18"/>
<polygon fill="#63b8ff" stroke="#63b8ff" points="285.91,-60.32 276.79,-65.72 287.28,-67.18 285.91,-60.32"/>
</a>
</g>
</g>
<!-- Node5&#45;&gt;Node7 -->
<g id="edge6_Node000005_Node000007" class="edge">
<title>Node5&#45;&gt;Node7</title>
<g id="a_edge6_Node000005_Node000007"><a xlink:title=" ">
<path fill="none" stroke="#63b8ff" d="M207.97,-60.5C185.21,-47.95 153.15,-30.27 133.94,-19.68"/>
<polygon fill="#63b8ff" stroke="#63b8ff" points="206.22,-63.53 216.67,-65.29 209.6,-57.4 206.22,-63.53"/>
</a>
</g>
</g>
<!-- Node10&#45;&gt;Node4 -->
<g id="edge11_Node000010_Node000004" class="edge">
<title>Node10&#45;&gt;Node4</title>
<g id="a_edge11_Node000010_Node000004"><a xlink:title=" ">
<path fill="none" stroke="#63b8ff" d="M378.84,-200.89C346.56,-189.34 305.58,-174.68 275.54,-163.93"/>
<polygon fill="#63b8ff" stroke="#63b8ff" points="377.4,-204.09 387.99,-204.16 379.76,-197.5 377.4,-204.09"/>
</a>
</g>
</g>
<!-- Node11&#45;&gt;Node4 -->
<g id="edge14_Node000011_Node000004" class="edge">
<title>Node11&#45;&gt;Node4</title>
<g id="a_edge14_Node000011_Node000004"><a xlink:title=" ">
<path fill="none" stroke="#63b8ff" d="M234.51,-193.4C234.51,-183.39 234.51,-172.31 234.51,-163.76"/>
<polygon fill="#63b8ff" stroke="#63b8ff" points="231.01,-193.33 234.51,-203.33 238.01,-193.33 231.01,-193.33"/>
</a>
</g>
</g>
<!-- Node11&#45;&gt;Node7 -->
<g id="edge13_Node000011_Node000007" class="edge">
<title>Node11&#45;&gt;Node7</title>
<g id="a_edge13_Node000011_Node000007"><a xlink:title=" ">
<path fill="none" stroke="#63b8ff" d="M168.35,-203.67C114.55,-187.03 42.07,-154.9 7.51,-97 -2,-81.07 -2.86,-70.64 7.51,-55.25 21.95,-33.8 48.67,-22.65 72.16,-16.87"/>
<polygon fill="#63b8ff" stroke="#63b8ff" points="167.16,-206.97 177.74,-206.46 169.15,-200.26 167.16,-206.97"/>
</a>
</g>
</g>
<!-- Node13 -->
<g id="Node000013" class="node">
<title>Node13</title>
<g id="a_Node000013"><a xlink:href="../../de/d46/engine_8hpp.html" target="_top" xlink:title=" ">
<polygon fill="white" stroke="#666666" points="965.38,-157.88 849.63,-157.88 849.63,-138.62 965.38,-138.62 965.38,-157.88"/>
<text text-anchor="middle" x="907.51" y="-144.38" font-family="Helvetica,sans-Serif" font-size="10.00">engine/core/engine.hpp</text>
</a>
</g>
</g>
<!-- Node12&#45;&gt;Node13 -->
<g id="edge16_Node000012_Node000013" class="edge">
<title>Node12&#45;&gt;Node13</title>
<g id="a_edge16_Node000012_Node000013"><a xlink:title=" ">
<path fill="none" stroke="#63b8ff" d="M907.51,-193.61C907.51,-181.1 907.51,-166.9 907.51,-158.01"/>
<polygon fill="#63b8ff" stroke="#63b8ff" points="904.01,-193.33 907.51,-203.33 911.01,-193.33 904.01,-193.33"/>
</a>
</g>
</g>
<!-- Node13&#45;&gt;Node5 -->
<g id="edge20_Node000013_Node000005" class="edge">
<title>Node13&#45;&gt;Node5</title>
<g id="a_edge20_Node000013_Node000005"><a xlink:title=" ">
<path fill="none" stroke="#63b8ff" d="M837.76,-139.94C814.76,-137.62 789.05,-135.1 765.51,-133 561.25,-114.76 507.43,-132.81 305.51,-97 291.01,-94.43 275.21,-90.16 262.21,-86.23"/>
<polygon fill="#63b8ff" stroke="#63b8ff" points="837.35,-143.42 847.65,-140.95 838.06,-136.46 837.35,-143.42"/>
</a>
</g>
</g>
<!-- Node13&#45;&gt;Node7 -->
<g id="edge21_Node000013_Node000007" class="edge">
<title>Node13&#45;&gt;Node7</title>
<g id="a_edge21_Node000013_Node000007"><a xlink:title=" ">
<path fill="none" stroke="#63b8ff" d="M837.75,-140.03C814.75,-137.7 789.04,-135.17 765.51,-133 670.68,-124.25 423.91,-139.13 338.51,-97 316,-85.9 322.08,-68.06 300.51,-55.25 257.91,-29.96 201.64,-18.97 162.8,-14.22"/>
<polygon fill="#63b8ff" stroke="#63b8ff" points="837.34,-143.5 847.64,-141.03 838.05,-136.54 837.34,-143.5"/>
</a>
</g>
</g>
<!-- Node13&#45;&gt;Node8 -->
<g id="edge29_Node000013_Node000008" class="edge">
<title>Node13&#45;&gt;Node8</title>
<g id="a_edge29_Node000013_Node000008"><a xlink:title=" ">
<path fill="none" stroke="#63b8ff" d="M837.78,-139.69C814.78,-137.35 789.06,-134.89 765.51,-133 500.54,-111.72 430.94,-139.25 168.51,-97 160.26,-95.67 151.61,-93.82 143.24,-91.78"/>
<polygon fill="#63b8ff" stroke="#63b8ff" points="837.36,-143.17 847.67,-140.71 838.08,-136.21 837.36,-143.17"/>
</a>
</g>
</g>
<!-- Node14 -->
<g id="Node000014" class="node">
<title>Node14</title>
<g id="a_Node000014"><a xlink:href="../../d0/d86/camera-movement_8hpp.html" target="_top" xlink:title=" ">
<polygon fill="white" stroke="#666666" points="985.26,-85.75 829.76,-85.75 829.76,-66.5 985.26,-66.5 985.26,-85.75"/>
<text text-anchor="middle" x="907.51" y="-72.25" font-family="Helvetica,sans-Serif" font-size="10.00">d3d_test/camera&#45;movement.hpp</text>
</a>
</g>
</g>
<!-- Node13&#45;&gt;Node14 -->
<g id="edge17_Node000013_Node000014" class="edge">
<title>Node13&#45;&gt;Node14</title>
<g id="a_edge17_Node000013_Node000014"><a xlink:title=" ">
<path fill="none" stroke="#63b8ff" d="M907.51,-126.87C907.51,-113.39 907.51,-96.39 907.51,-86.16"/>
<polygon fill="#63b8ff" stroke="#63b8ff" points="904.01,-126.86 907.51,-136.86 911.01,-126.86 904.01,-126.86"/>
</a>
</g>
</g>
<!-- Node16 -->
<g id="Node000016" class="node">
<title>Node16</title>
<g id="a_Node000016"><a xlink:href="../../da/df5/object-editor_8hpp.html" target="_top" xlink:title=" ">
<polygon fill="white" stroke="#666666" points="1281.38,-85.75 1153.63,-85.75 1153.63,-66.5 1281.38,-66.5 1281.38,-85.75"/>
<text text-anchor="middle" x="1217.51" y="-72.25" font-family="Helvetica,sans-Serif" font-size="10.00">d3d_test/object&#45;editor.hpp</text>
</a>
</g>
</g>
<!-- Node13&#45;&gt;Node16 -->
<g id="edge22_Node000013_Node000016" class="edge">
<title>Node13&#45;&gt;Node16</title>
<g id="a_edge22_Node000013_Node000016"><a xlink:title=" ">
<path fill="none" stroke="#63b8ff" d="M965.13,-135.99C1013.25,-126.35 1083.57,-111.74 1144.51,-97 1158.04,-93.73 1172.88,-89.76 1185.63,-86.23"/>
<polygon fill="#63b8ff" stroke="#63b8ff" points="964.61,-132.52 955.49,-137.91 965.98,-139.39 964.61,-132.52"/>
</a>
</g>
</g>
<!-- Node19 -->
<g id="Node000019" class="node">
<title>Node19</title>
<g id="a_Node000019"><a xlink:href="../../d9/d55/scene-viewer_8hpp.html" target="_top" xlink:title=" ">
<polygon fill="white" stroke="#666666" points="1135.63,-85.75 1003.38,-85.75 1003.38,-66.5 1135.63,-66.5 1135.63,-85.75"/>
<text text-anchor="middle" x="1069.51" y="-72.25" font-family="Helvetica,sans-Serif" font-size="10.00">d3d_test/scene&#45;viewer.hpp</text>
</a>
</g>
</g>
<!-- Node13&#45;&gt;Node19 -->
<g id="edge26_Node000013_Node000019" class="edge">
<title>Node13&#45;&gt;Node19</title>
<g id="a_edge26_Node000013_Node000019"><a xlink:title=" ">
<path fill="none" stroke="#63b8ff" d="M938.58,-133.8C970.88,-119.82 1020.52,-98.33 1048.48,-86.23"/>
<polygon fill="#63b8ff" stroke="#63b8ff" points="937.53,-130.44 929.74,-137.62 940.31,-136.86 937.53,-130.44"/>
</a>
</g>
</g>
<!-- Node20 -->
<g id="Node000020" class="node">
<title>Node20</title>
<g id="a_Node000020"><a xlink:href="../../da/d5c/engine_8cpp.html" target="_top" xlink:title=" ">
<polygon fill="white" stroke="#666666" points="1415.38,-85.75 1299.63,-85.75 1299.63,-66.5 1415.38,-66.5 1415.38,-85.75"/>
<text text-anchor="middle" x="1357.51" y="-72.25" font-family="Helvetica,sans-Serif" font-size="10.00">engine/core/engine.cpp</text>
</a>
</g>
</g>
<!-- Node13&#45;&gt;Node20 -->
<g id="edge28_Node000013_Node000020" class="edge">
<title>Node13&#45;&gt;Node20</title>
<g id="a_edge28_Node000013_Node000020"><a xlink:title=" ">
<path fill="none" stroke="#63b8ff" d="M963.84,-136.1C970.13,-134.99 976.45,-133.93 982.51,-133 1118.74,-112.12 1155.5,-124.7 1290.51,-97 1303.94,-94.24 1318.57,-90.05 1330.72,-86.22"/>
<polygon fill="#63b8ff" stroke="#63b8ff" points="963.33,-132.63 954.12,-137.87 964.58,-139.52 963.33,-132.63"/>
</a>
</g>
</g>
<!-- Node13&#45;&gt;Node21 -->
<g id="edge30_Node000013_Node000021" class="edge">
<title>Node13&#45;&gt;Node21</title>
<g id="a_edge30_Node000013_Node000021"><a xlink:title=" ">
<path fill="none" stroke="#63b8ff" d="M962.3,-136.14C969.09,-134.97 975.94,-133.89 982.51,-133 1177.82,-106.57 1229.83,-127.78 1424.51,-97 1433.24,-95.62 1442.41,-93.82 1451.35,-91.87"/>
<polygon fill="#63b8ff" stroke="#63b8ff" points="961.72,-132.69 952.49,-137.91 962.95,-139.58 961.72,-132.69"/>
</a>
</g>
</g>
<!-- Node13&#45;&gt;Node22 -->
<g id="edge31_Node000013_Node000022" class="edge">
<title>Node13&#45;&gt;Node22</title>
<g id="a_edge31_Node000013_Node000022"><a xlink:title=" ">
<path fill="none" stroke="#63b8ff" d="M977.11,-137.78C991.44,-136.02 1006.45,-134.33 1020.51,-133 1274.55,-109.03 1341.7,-138.3 1593.51,-97 1596.39,-96.53 1599.33,-95.99 1602.29,-95.4"/>
<polygon fill="#63b8ff" stroke="#63b8ff" points="976.78,-134.29 967.29,-139 977.65,-141.24 976.78,-134.29"/>
</a>
</g>
</g>
<!-- Node13&#45;&gt;Node23 -->
<g id="edge32_Node000013_Node000023" class="edge">
<title>Node13&#45;&gt;Node23</title>
<g id="a_edge32_Node000013_Node000023"><a xlink:title=" ">
<path fill="none" stroke="#63b8ff" d="M976.68,-140.12C1002.36,-137.63 1031.74,-134.97 1058.51,-133 1361.67,-110.72 1441.29,-144.69 1741.51,-97 1744.4,-96.54 1747.34,-96.01 1750.3,-95.43"/>
<polygon fill="#63b8ff" stroke="#63b8ff" points="976.66,-136.6 967.05,-141.06 977.34,-143.57 976.66,-136.6"/>
</a>
</g>
</g>
<!-- Node24 -->
<g id="Node000024" class="node">
<title>Node24</title>
<g id="a_Node000024"><a xlink:href="../../df/d58/grass-render-system_8cpp.html" target="_top" xlink:title=" ">
<polygon fill="white" stroke="#666666" points="499.38,-91.38 347.63,-91.38 347.63,-60.88 499.38,-60.88 499.38,-91.38"/>
<text text-anchor="start" x="355.63" y="-77.88" font-family="Helvetica,sans-Serif" font-size="10.00">engine/subsystems/render</text>
<text text-anchor="middle" x="423.51" y="-66.62" font-family="Helvetica,sans-Serif" font-size="10.00">/detail/grass&#45;render&#45;system.cpp</text>
</a>
</g>
</g>
<!-- Node13&#45;&gt;Node24 -->
<g id="edge33_Node000013_Node000024" class="edge">
<title>Node13&#45;&gt;Node24</title>
<g id="a_edge33_Node000013_Node000024"><a xlink:title=" ">
<path fill="none" stroke="#63b8ff" d="M838.27,-139.41C741.34,-128.29 570.15,-108.06 508.51,-97 500.15,-95.5 491.39,-93.71 482.79,-91.82"/>
<polygon fill="#63b8ff" stroke="#63b8ff" points="837.58,-142.86 847.92,-140.52 838.38,-135.9 837.58,-142.86"/>
</a>
</g>
</g>
<!-- Node25 -->
<g id="Node000025" class="node">
<title>Node25</title>
<g id="a_Node000025"><a xlink:href="../../d8/d9c/light-render-system_8cpp.html" target="_top" xlink:title=" ">
<polygon fill="white" stroke="#666666" points="663.38,-91.38 517.63,-91.38 517.63,-60.88 663.38,-60.88 663.38,-91.38"/>
<text text-anchor="start" x="525.63" y="-77.88" font-family="Helvetica,sans-Serif" font-size="10.00">engine/subsystems/render</text>
<text text-anchor="middle" x="590.51" y="-66.62" font-family="Helvetica,sans-Serif" font-size="10.00">/detail/light&#45;render&#45;system.cpp</text>
</a>
</g>
</g>
<!-- Node13&#45;&gt;Node25 -->
<g id="edge34_Node000013_Node000025" class="edge">
<title>Node13&#45;&gt;Node25</title>
<g id="a_edge34_Node000013_Node000025"><a xlink:title=" ">
<path fill="none" stroke="#63b8ff" d="M852.24,-135.87C804.56,-125.95 733.89,-111 672.51,-97 665.37,-95.37 657.89,-93.62 650.47,-91.86"/>
<polygon fill="#63b8ff" stroke="#63b8ff" points="851.27,-139.25 861.77,-137.85 852.69,-132.39 851.27,-139.25"/>
</a>
</g>
</g>
<!-- Node26 -->
<g id="Node000026" class="node">
<title>Node26</title>
<g id="a_Node000026"><a xlink:href="../../d3/dfe/particle-render-system_8cpp.html" target="_top" xlink:title=" ">
<polygon fill="white" stroke="#666666" points="811.51,-97 681.51,-97 681.51,-55.25 811.51,-55.25 811.51,-97"/>
<text text-anchor="start" x="689.51" y="-83.5" font-family="Helvetica,sans-Serif" font-size="10.00">engine/subsystems/render</text>
<text text-anchor="start" x="689.51" y="-72.25" font-family="Helvetica,sans-Serif" font-size="10.00">/detail/particle&#45;render</text>
<text text-anchor="middle" x="746.51" y="-61" font-family="Helvetica,sans-Serif" font-size="10.00">&#45;system.cpp</text>
</a>
</g>
</g>
<!-- Node13&#45;&gt;Node26 -->
<g id="edge35_Node000013_Node000026" class="edge">
<title>Node13&#45;&gt;Node26</title>
<g id="a_edge35_Node000013_Node000026"><a xlink:title=" ">
<path fill="none" stroke="#63b8ff" d="M876.33,-133.67C852.72,-123.39 819.9,-109.09 793.17,-97.45"/>
<polygon fill="#63b8ff" stroke="#63b8ff" points="874.84,-136.84 885.4,-137.62 877.63,-130.42 874.84,-136.84"/>
</a>
</g>
</g>
<!-- Node14&#45;&gt;Node6 -->
<g id="edge19_Node000014_Node000006" class="edge">
<title>Node14&#45;&gt;Node6</title>
<g id="a_edge19_Node000014_Node000006"><a xlink:title=" ">
<path fill="none" stroke="#63b8ff" d="M940.25,-61.67C970.91,-49.08 1015.86,-30.61 1042.46,-19.68"/>
<polygon fill="#63b8ff" stroke="#63b8ff" points="938.99,-58.41 931.07,-65.45 941.65,-64.88 938.99,-58.41"/>
</a>
</g>
</g>
<!-- Node15 -->
<g id="Node000015" class="node">
<title>Node15</title>
<g id="a_Node000015"><a xlink:href="../../d5/dbb/camera-movement_8cpp.html" target="_top" xlink:title=" ">
<polygon fill="white" stroke="#666666" points="985.26,-19.25 829.76,-19.25 829.76,0 985.26,0 985.26,-19.25"/>
<text text-anchor="middle" x="907.51" y="-5.75" font-family="Helvetica,sans-Serif" font-size="10.00">d3d_test/camera&#45;movement.cpp</text>
</a>
</g>
</g>
<!-- Node14&#45;&gt;Node15 -->
<g id="edge18_Node000014_Node000015" class="edge">
<title>Node14&#45;&gt;Node15</title>
<g id="a_edge18_Node000014_Node000015"><a xlink:title=" ">
<path fill="none" stroke="#63b8ff" d="M907.51,-54.65C907.51,-42.82 907.51,-28.54 907.51,-19.52"/>
<polygon fill="#63b8ff" stroke="#63b8ff" points="904.01,-54.64 907.51,-64.64 911.01,-54.64 904.01,-54.64"/>
</a>
</g>
</g>
<!-- Node16&#45;&gt;Node6 -->
<g id="edge23_Node000016_Node000006" class="edge">
<title>Node16&#45;&gt;Node6</title>
<g id="a_edge23_Node000016_Node000006"><a xlink:title=" ">
<path fill="none" stroke="#63b8ff" d="M1185.59,-61.67C1155.72,-49.08 1111.91,-30.61 1085.99,-19.68"/>
<polygon fill="#63b8ff" stroke="#63b8ff" points="1183.94,-64.77 1194.52,-65.43 1186.66,-58.32 1183.94,-64.77"/>
</a>
</g>
</g>
<!-- Node17 -->
<g id="Node000017" class="node">
<title>Node17</title>
<g id="a_Node000017"><a xlink:href="../../d4/d94/object-editor_8cpp.html" target="_top" xlink:title=" ">
<polygon fill="white" stroke="#666666" points="1423.38,-19.25 1295.63,-19.25 1295.63,0 1423.38,0 1423.38,-19.25"/>
<text text-anchor="middle" x="1359.51" y="-5.75" font-family="Helvetica,sans-Serif" font-size="10.00">d3d_test/object&#45;editor.cpp</text>
</a>
</g>
</g>
<!-- Node16&#45;&gt;Node17 -->
<g id="edge24_Node000016_Node000017" class="edge">
<title>Node16&#45;&gt;Node17</title>
<g id="a_edge24_Node000016_Node000017"><a xlink:title=" ">
<path fill="none" stroke="#63b8ff" d="M1247.86,-61.34C1275.56,-48.75 1315.72,-30.51 1339.57,-19.68"/>
<polygon fill="#63b8ff" stroke="#63b8ff" points="1246.59,-58.07 1238.93,-65.39 1249.48,-64.45 1246.59,-58.07"/>
</a>
</g>
</g>
<!-- Node18 -->
<g id="Node000018" class="node">
<title>Node18</title>
<g id="a_Node000018"><a xlink:href="../../d0/d38/scene-viewer_8cpp.html" target="_top" xlink:title=" ">
<polygon fill="white" stroke="#666666" points="1277.63,-19.25 1145.38,-19.25 1145.38,0 1277.63,0 1277.63,-19.25"/>
<text text-anchor="middle" x="1211.51" y="-5.75" font-family="Helvetica,sans-Serif" font-size="10.00">d3d_test/scene&#45;viewer.cpp</text>
</a>
</g>
</g>
<!-- Node16&#45;&gt;Node18 -->
<g id="edge25_Node000016_Node000018" class="edge">
<title>Node16&#45;&gt;Node18</title>
<g id="a_edge25_Node000016_Node000018"><a xlink:title=" ">
<path fill="none" stroke="#63b8ff" d="M1215.64,-55.02C1214.53,-43.12 1213.18,-28.63 1212.33,-19.52"/>
<polygon fill="#63b8ff" stroke="#63b8ff" points="1212.12,-55.02 1216.53,-64.65 1219.09,-54.37 1212.12,-55.02"/>
</a>
</g>
</g>
<!-- Node19&#45;&gt;Node6 -->
<g id="edge27_Node000019_Node000006" class="edge">
<title>Node19&#45;&gt;Node6</title>
<g id="a_edge27_Node000019_Node000006"><a xlink:title=" ">
<path fill="none" stroke="#63b8ff" d="M1067.95,-55.02C1067.03,-43.12 1065.9,-28.63 1065.2,-19.52"/>
<polygon fill="#63b8ff" stroke="#63b8ff" points="1064.43,-54.95 1068.69,-64.65 1071.41,-54.41 1064.43,-54.95"/>
</a>
</g>
</g>
</g>
</svg>

<g id="navigator" transform="translate(0 0)" fill="#404254">
  <rect fill="#f2f5e9" fill-opacity="0.5" stroke="#606060" stroke-width=".5" x="0" y="0" width="60" height="60"/>
  <use id="zoomplus" xlink:href="#zoomPlus" x="17" y="9" onmousedown="handleZoom(evt,'in')"/>
  <use id="zoomminus" xlink:href="#zoomMin" x="42" y="9" onmousedown="handleZoom(evt,'out')"/>
  <use id="reset" xlink:href="#resetDef" x="30" y="36" onmousedown="handleReset()"/>
   <use id="arrowup" xlink:href="#arrowUp" x="0" y="0" onmousedown="handlePan(0,-1)"/>
  <use id="arrowright" xlink:href="#arrowRight" x="0" y="0" onmousedown="handlePan(1,0)"/>
  <use id="arrowdown" xlink:href="#arrowDown" x="0" y="0" onmousedown="handlePan(0,1)"/>
  <use id="arrowleft" xlink:href="#arrowLeft" x="0" y="0" onmousedown="handlePan(-1,0)"/>
</g>
<svg viewBox="0 0 15 15" width="100%" height="30px" preserveAspectRatio="xMaxYMin meet">
 <g id="arrow_out" transform="scale(0.3 0.3)">
  <a xlink:href="shader-manager_8inl__dep__incl_org.svg" target="_base">
   <rect id="button" ry="5" rx="5" y="6" x="6" height="38" width="38"
        fill="#f2f5e9" fill-opacity="0.5" stroke="#606060" stroke-width="1.0"/>
   <path id="arrow"
     d="M 11.500037,31.436501 C 11.940474,20.09759 22.043105,11.32322 32.158766,21.979434 L 37.068811,17.246167 C 37.068811,17.246167 37.088388,32 37.088388,32 L 22.160133,31.978069 C 22.160133,31.978069 26.997745,27.140456 26.997745,27.140456 C 18.528582,18.264221 13.291696,25.230495 11.500037,31.436501 z"
     style="fill:#404040;"/>
  </a>
 </g>
</svg>

<style type='text/css'>
<![CDATA[
[data-mouse-over-selected='false'] { opacity: 0.7; }
[data-mouse-over-selected='true']  { opacity: 1.0; }
]]>
</style>
<script type="application/ecmascript"><![CDATA[
document.addEventListener('DOMContentLoaded', (event) => {
  highlightEdges();
  highlightAdjacentNodes();
});
]]></script>
</svg>
