<?xml version="1.0" encoding="UTF-8" standalone="no"?>
<!DOCTYPE svg PUBLIC "-//W3C//DTD SVG 1.1//EN"
 "http://www.w3.org/Graphics/SVG/1.1/DTD/svg11.dtd">
<!-- Generated by graphviz version 9.0.0 (20230911.1827)
 -->
<!-- Title: engine/include/imgui.hpp Pages: 1 -->
<svg width="392pt" height="94pt"
 viewBox="0.00 0.00 391.62 93.75" xmlns="http://www.w3.org/2000/svg" xmlns:xlink="http://www.w3.org/1999/xlink">
<g id="graph0" class="graph" transform="scale(1 1) rotate(0) translate(4 89.75)">
<title>engine/include/imgui.hpp</title>
<!-- Node1 -->
<g id="Node000001" class="node">
<title>Node1</title>
<g id="a_Node000001"><a xlink:title=" ">
<polygon fill="#999999" stroke="#666666" points="288,-85.75 165.5,-85.75 165.5,-66.5 288,-66.5 288,-85.75"/>
<text text-anchor="middle" x="226.75" y="-72.25" font-family="Helvetica,sans-Serif" font-size="10.00">engine/include/imgui.hpp</text>
</a>
</g>
</g>
<!-- Node2 -->
<g id="Node000002" class="node">
<title>Node2</title>
<g id="a_Node000002"><a xlink:title=" ">
<polygon fill="#e0e0e0" stroke="#999999" points="107.5,-30.5 0,-30.5 0,0 107.5,0 107.5,-30.5"/>
<text text-anchor="start" x="8" y="-17" font-family="Helvetica,sans-Serif" font-size="10.00">backends/imgui_impl</text>
<text text-anchor="middle" x="53.75" y="-5.75" font-family="Helvetica,sans-Serif" font-size="10.00">_dx11.h</text>
</a>
</g>
</g>
<!-- Node1&#45;&gt;Node2 -->
<g id="edge1_Node000001_Node000002" class="edge">
<title>Node1&#45;&gt;Node2</title>
<g id="a_edge1_Node000001_Node000002"><a xlink:title=" ">
<path fill="none" stroke="#63b8ff" d="M200.1,-66.05C175.51,-57.69 138.27,-45.01 107.51,-34.54"/>
<polygon fill="#63b8ff" stroke="#63b8ff" points="108.96,-31.34 98.36,-31.43 106.7,-37.97 108.96,-31.34"/>
</a>
</g>
</g>
<!-- Node3 -->
<g id="Node000003" class="node">
<title>Node3</title>
<g id="a_Node000003"><a xlink:title=" ">
<polygon fill="#e0e0e0" stroke="#999999" points="233.5,-30.5 126,-30.5 126,0 233.5,0 233.5,-30.5"/>
<text text-anchor="start" x="134" y="-17" font-family="Helvetica,sans-Serif" font-size="10.00">backends/imgui_impl</text>
<text text-anchor="middle" x="179.75" y="-5.75" font-family="Helvetica,sans-Serif" font-size="10.00">_win32.h</text>
</a>
</g>
</g>
<!-- Node1&#45;&gt;Node3 -->
<g id="edge2_Node000001_Node000003" class="edge">
<title>Node1&#45;&gt;Node3</title>
<g id="a_edge2_Node000001_Node000003"><a xlink:title=" ">
<path fill="none" stroke="#63b8ff" d="M219.61,-66.18C213.99,-59.14 205.88,-48.98 198.45,-39.67"/>
<polygon fill="#63b8ff" stroke="#63b8ff" points="201.27,-37.6 192.3,-31.96 195.8,-41.96 201.27,-37.6"/>
</a>
</g>
</g>
<!-- Node4 -->
<g id="Node000004" class="node">
<title>Node4</title>
<g id="a_Node000004"><a xlink:title=" ">
<polygon fill="#e0e0e0" stroke="#999999" points="298.12,-24.88 251.38,-24.88 251.38,-5.63 298.12,-5.63 298.12,-24.88"/>
<text text-anchor="middle" x="274.75" y="-11.38" font-family="Helvetica,sans-Serif" font-size="10.00">imgui.h</text>
</a>
</g>
</g>
<!-- Node1&#45;&gt;Node4 -->
<g id="edge3_Node000001_Node000004" class="edge">
<title>Node1&#45;&gt;Node4</title>
<g id="a_edge3_Node000001_Node000004"><a xlink:title=" ">
<path fill="none" stroke="#63b8ff" d="M234.04,-66.18C240.95,-57.71 251.52,-44.74 260.16,-34.14"/>
<polygon fill="#63b8ff" stroke="#63b8ff" points="262.83,-36.41 266.43,-26.45 257.4,-31.99 262.83,-36.41"/>
</a>
</g>
</g>
<!-- Node5 -->
<g id="Node000005" class="node">
<title>Node5</title>
<g id="a_Node000005"><a xlink:title=" ">
<polygon fill="#e0e0e0" stroke="#999999" points="383.62,-24.88 315.88,-24.88 315.88,-5.63 383.62,-5.63 383.62,-24.88"/>
<text text-anchor="middle" x="349.75" y="-11.38" font-family="Helvetica,sans-Serif" font-size="10.00">ImGuizmo.h</text>
</a>
</g>
</g>
<!-- Node1&#45;&gt;Node5 -->
<g id="edge4_Node000001_Node000005" class="edge">
<title>Node1&#45;&gt;Node5</title>
<g id="a_edge4_Node000001_Node000005"><a xlink:title=" ">
<path fill="none" stroke="#63b8ff" d="M245.7,-66.05C265.71,-56.48 297.51,-41.25 320.7,-30.16"/>
<polygon fill="#63b8ff" stroke="#63b8ff" points="322.11,-33.36 329.62,-25.89 319.08,-27.05 322.11,-33.36"/>
</a>
</g>
</g>
</g>
</svg>
