<?xml version="1.0" encoding="UTF-8" standalone="no"?>
<!DOCTYPE svg PUBLIC "-//W3C//DTD SVG 1.1//EN"
 "http://www.w3.org/Graphics/SVG/1.1/DTD/svg11.dtd">
<!-- Generated by graphviz version 8.1.0 (20230707.0739)
 -->
<!-- Title: engine/include/imgui.hpp Pages: 1 -->
<svg width="392pt" height="94pt"
 viewBox="0.00 0.00 391.62 93.75" xmlns="http://www.w3.org/2000/svg" xmlns:xlink="http://www.w3.org/1999/xlink">

<svg id="main" version="1.1" xmlns="http://www.w3.org/2000/svg" xmlns:xlink="http://www.w3.org/1999/xlink" xml:space="preserve" onload="init(evt)">
<style type="text/css"><![CDATA[
.node, .edge {opacity: 0.7;}
.node.selected, .edge.selected {opacity: 1;}
.edge:hover path { stroke: red; }
.edge:hover polygon { stroke: red; fill: red; }
]]></style>
<script type="application/ecmascript" xlink:href="../../svg.min.js"/>
<svg id="graph" class="graph">
<g id="graph0" class="graph" transform="scale(1 1) rotate(0) translate(4 89.75)">
<title>engine/include/imgui.hpp</title>
<!-- Node1 -->
<g id="Node000001" class="node">
<title>Node1</title>
<g id="a_Node000001"><a xlink:title=" ">
<polygon fill="#999999" stroke="#666666" points="288,-85.75 165.5,-85.75 165.5,-66.5 288,-66.5 288,-85.75"/>
<text text-anchor="middle" x="226.75" y="-72.25" font-family="Helvetica,sans-Serif" font-size="10.00">engine/include/imgui.hpp</text>
</a>
</g>
</g>
<!-- Node2 -->
<g id="Node000002" class="node">
<title>Node2</title>
<g id="a_Node000002"><a xlink:title=" ">
<polygon fill="#e0e0e0" stroke="#999999" points="107.5,-30.5 0,-30.5 0,0 107.5,0 107.5,-30.5"/>
<text text-anchor="start" x="8" y="-17" font-family="Helvetica,sans-Serif" font-size="10.00">backends/imgui_impl</text>
<text text-anchor="middle" x="53.75" y="-5.75" font-family="Helvetica,sans-Serif" font-size="10.00">_dx11.h</text>
</a>
</g>
</g>
<!-- Node1&#45;&gt;Node2 -->
<g id="edge1_Node000001_Node000002" class="edge">
<title>Node1&#45;&gt;Node2</title>
<g id="a_edge1_Node000001_Node000002"><a xlink:title=" ">
<path fill="none" stroke="#63b8ff" d="M200.1,-66.05C175.4,-57.65 137.94,-44.9 107.11,-34.41"/>
<polygon fill="#63b8ff" stroke="#63b8ff" points="108.52,-30.85 97.93,-30.94 106.27,-37.48 108.52,-30.85"/>
</a>
</g>
</g>
<!-- Node3 -->
<g id="Node000003" class="node">
<title>Node3</title>
<g id="a_Node000003"><a xlink:title=" ">
<polygon fill="#e0e0e0" stroke="#999999" points="233.5,-30.5 126,-30.5 126,0 233.5,0 233.5,-30.5"/>
<text text-anchor="start" x="134" y="-17" font-family="Helvetica,sans-Serif" font-size="10.00">backends/imgui_impl</text>
<text text-anchor="middle" x="179.75" y="-5.75" font-family="Helvetica,sans-Serif" font-size="10.00">_win32.h</text>
</a>
</g>
</g>
<!-- Node1&#45;&gt;Node3 -->
<g id="edge2_Node000001_Node000003" class="edge">
<title>Node1&#45;&gt;Node3</title>
<g id="a_edge2_Node000001_Node000003"><a xlink:title=" ">
<path fill="none" stroke="#63b8ff" d="M219.61,-66.18C213.87,-58.99 205.54,-48.56 197.98,-39.09"/>
<polygon fill="#63b8ff" stroke="#63b8ff" points="200.33,-37.41 191.35,-31.78 194.85,-41.78 200.33,-37.41"/>
</a>
</g>
</g>
<!-- Node4 -->
<g id="Node000004" class="node">
<title>Node4</title>
<g id="a_Node000004"><a xlink:title=" ">
<polygon fill="#e0e0e0" stroke="#999999" points="298.12,-24.88 251.38,-24.88 251.38,-5.63 298.12,-5.63 298.12,-24.88"/>
<text text-anchor="middle" x="274.75" y="-11.38" font-family="Helvetica,sans-Serif" font-size="10.00">imgui.h</text>
</a>
</g>
</g>
<!-- Node1&#45;&gt;Node4 -->
<g id="edge3_Node000001_Node000004" class="edge">
<title>Node1&#45;&gt;Node4</title>
<g id="a_edge3_Node000001_Node000004"><a xlink:title=" ">
<path fill="none" stroke="#63b8ff" d="M234.04,-66.18C241.09,-57.54 251.95,-44.21 260.69,-33.5"/>
<polygon fill="#63b8ff" stroke="#63b8ff" points="263.78,-36.24 267.39,-26.28 258.36,-31.81 263.78,-36.24"/>
</a>
</g>
</g>
<!-- Node5 -->
<g id="Node000005" class="node">
<title>Node5</title>
<g id="a_Node000005"><a xlink:title=" ">
<polygon fill="#e0e0e0" stroke="#999999" points="383.62,-24.88 315.88,-24.88 315.88,-5.63 383.62,-5.63 383.62,-24.88"/>
<text text-anchor="middle" x="349.75" y="-11.38" font-family="Helvetica,sans-Serif" font-size="10.00">ImGuizmo.h</text>
</a>
</g>
</g>
<!-- Node1&#45;&gt;Node5 -->
<g id="edge4_Node000001_Node000005" class="edge">
<title>Node1&#45;&gt;Node5</title>
<g id="a_edge4_Node000001_Node000005"><a xlink:title=" ">
<path fill="none" stroke="#63b8ff" d="M245.7,-66.05C265.89,-56.39 298.09,-40.98 321.32,-29.86"/>
<polygon fill="#63b8ff" stroke="#63b8ff" points="322.47,-32.71 329.98,-25.23 319.45,-26.39 322.47,-32.71"/>
</a>
</g>
</g>
</g>
</svg>
</svg>

<style type='text/css'>
<![CDATA[
[data-mouse-over-selected='false'] { opacity: 0.7; }
[data-mouse-over-selected='true']  { opacity: 1.0; }
]]>
</style>
<script type="application/ecmascript"><![CDATA[
document.addEventListener('DOMContentLoaded', (event) => {
  highlightEdges();
  highlightAdjacentNodes();
});
]]></script>
</svg>
