<?xml version="1.0" encoding="UTF-8" standalone="no"?>
<!DOCTYPE svg PUBLIC "-//W3C//DTD SVG 1.1//EN"
 "http://www.w3.org/Graphics/SVG/1.1/DTD/svg11.dtd">
<!-- Generated by graphviz version 9.0.0 (20230911.1827)
 -->
<!-- Title: engine::core::TriangleOctree Pages: 1 -->
<!--zoomable 93 -->

<svg id="main" version="1.1" xmlns="http://www.w3.org/2000/svg" xmlns:xlink="http://www.w3.org/1999/xlink" xml:space="preserve" onload="init(evt)">
<style type="text/css"><![CDATA[
.node, .edge {opacity: 0.7;}
.node.selected, .edge.selected {opacity: 1;}
.edge:hover path { stroke: red; }
.edge:hover polygon { stroke: red; fill: red; }
]]></style>

<defs>
  <circle id="rim" cx="0" cy="0" r="7"/>
  <circle id="rim2" cx="0" cy="0" r="3.5"/>
  <g id="zoomPlus">
    <use xlink:href="#rim" fill="#404040"><set attributeName="fill" to="#808080" begin="zoomplus.mouseover" end="zoomplus.mouseout"/></use>
    <path d="M-4,0h8M0,-4v8" fill="none" stroke="white" stroke-width="1.5" pointer-events="none"/>
  </g>
  <g id="zoomMin">
    <use xlink:href="#rim" fill="#404040"><set attributeName="fill" to="#808080" begin="zoomminus.mouseover" end="zoomminus.mouseout"/></use>
    <path d="M-4,0h8" fill="none" stroke="white" stroke-width="1.5" pointer-events="none"/>
  </g>
  <g id="arrowUp" transform="translate(30 24)">
    <use xlink:href="#rim"/>
    <path pointer-events="none" fill="none" stroke="white" stroke-width="1.5" d="M0,-3.0v7 M-2.5,-0.5L0,-3.0L2.5,-0.5"/>
  </g>
  <g id="arrowRight" transform="rotate(90) translate(36 -43)">
    <use xlink:href="#rim"/>
    <path pointer-events="none" fill="none" stroke="white" stroke-width="1.5" d="M0,-3.0v7 M-2.5,-0.5L0,-3.0L2.5,-0.5"/>
  </g>
  <g id="arrowDown" transform="rotate(180) translate(-30 -48)">
    <use xlink:href="#rim"/>
    <path pointer-events="none" fill="none" stroke="white" stroke-width="1.5" d="M0,-3.0v7 M-2.5,-0.5L0,-3.0L2.5,-0.5"/>
  </g>
  <g id="arrowLeft" transform="rotate(270) translate(-36 17)">
    <use xlink:href="#rim"/>
    <path pointer-events="none" fill="none" stroke="white" stroke-width="1.5" d="M0,-3.0v7 M-2.5,-0.5L0,-3.0L2.5,-0.5"/>
  </g>
  <g id="resetDef">
    <use xlink:href="#rim2" fill="#404040"><set attributeName="fill" to="#808080" begin="reset.mouseover" end="reset.mouseout"/></use>
  </g>
</defs>
<script type="application/ecmascript">
var viewWidth = 1060;
var viewHeight = 93;
var sectionId = 'dynsection-0';
</script>
<script type="application/ecmascript" xlink:href="../../svg.min.js"/>
<svg id="graph" class="graph">
<g id="viewport">
<title>engine::core::TriangleOctree</title>
<!-- Node1 -->
<g id="Node000001" class="node">
<title>Node1</title>
<g id="a_Node000001"><a xlink:title=" ">
<polygon fill="#999999" stroke="#666666" points="687.25,-30.5 551.25,-30.5 551.25,-11.25 687.25,-11.25 687.25,-30.5"/>
<text text-anchor="middle" x="619.25" y="-17" font-family="Helvetica,sans-Serif" font-size="10.00">engine::core::TriangleOctree</text>
</a>
</g>
</g>
<!-- Node7 -->
<g id="Node000007" class="node">
<title>Node7</title>
<g id="a_Node000007"><a xlink:title=" ">
<polygon fill="white" stroke="#666666" points="891.5,-65.12 765.25,-65.12 765.25,-34.62 891.5,-34.62 891.5,-65.12"/>
<text text-anchor="start" x="773.25" y="-51.62" font-family="Helvetica,sans-Serif" font-size="10.00">std::array&lt; engine</text>
<text text-anchor="middle" x="828.38" y="-40.38" font-family="Helvetica,sans-Serif" font-size="10.00">::core::TriangleOctree, 8 &gt;</text>
</a>
</g>
</g>
<!-- Node1&#45;&gt;Node7 -->
<g id="edge8_Node000007_Node000001" class="edge">
<title>Node1&#45;&gt;Node7</title>
<g id="a_edge8_Node000007_Node000001"><a xlink:title=" ">
<path fill="none" stroke="#9a32cd" stroke-dasharray="5,2" d="M698.79,-31.87C720.69,-34.94 744.19,-38.23 765.03,-41.15"/>
<polygon fill="#9a32cd" stroke="#9a32cd" points="699.39,-28.42 689,-30.5 698.41,-35.35 699.39,-28.42"/>
</a>
</g>
<text text-anchor="middle" x="726.25" y="-39.62" font-family="Helvetica,sans-Serif" font-size="10.00" fill="grey"> elements</text>
</g>
<!-- Node2 -->
<g id="Node000002" class="node">
<title>Node2</title>
<g id="a_Node000002"><a xlink:href="../../d7/d90/structengine_1_1render_1_1_mesh.html" target="_top" xlink:title=" ">
<polygon fill="white" stroke="#666666" points="475.5,-51.5 371,-51.5 371,-32.25 475.5,-32.25 475.5,-51.5"/>
<text text-anchor="middle" x="423.25" y="-38" font-family="Helvetica,sans-Serif" font-size="10.00">engine::render::Mesh</text>
</a>
</g>
</g>
<!-- Node2&#45;&gt;Node1 -->
<g id="edge1_Node000001_Node000002" class="edge">
<title>Node2&#45;&gt;Node1</title>
<g id="a_edge1_Node000001_Node000002"><a xlink:title=" ">
<path fill="none" stroke="#9a32cd" stroke-dasharray="5,2" d="M487.35,-35.04C507.7,-32.84 530.32,-30.39 550.96,-28.16"/>
<polygon fill="#9a32cd" stroke="#9a32cd" points="487.05,-31.56 477.49,-36.11 487.81,-38.52 487.05,-31.56"/>
</a>
</g>
<text text-anchor="middle" x="513.38" y="-35.62" font-family="Helvetica,sans-Serif" font-size="10.00" fill="grey"> m_mesh</text>
</g>
<!-- Node3 -->
<g id="Node000003" class="node">
<title>Node3</title>
<g id="a_Node000003"><a xlink:title=" ">
<polygon fill="white" stroke="#666666" points="291.12,-85.12 193.38,-85.12 193.38,-54.62 291.12,-54.62 291.12,-85.12"/>
<text text-anchor="start" x="201.38" y="-71.62" font-family="Helvetica,sans-Serif" font-size="10.00">std::vector&lt; engine</text>
<text text-anchor="middle" x="242.25" y="-60.38" font-family="Helvetica,sans-Serif" font-size="10.00">::render::Vertex &gt;</text>
</a>
</g>
</g>
<!-- Node3&#45;&gt;Node2 -->
<g id="edge2_Node000002_Node000003" class="edge">
<title>Node3&#45;&gt;Node2</title>
<g id="a_edge2_Node000002_Node000003"><a xlink:title=" ">
<path fill="none" stroke="#9a32cd" stroke-dasharray="5,2" d="M302.47,-60.61C324.53,-57.16 349.38,-53.27 370.7,-49.94"/>
<polygon fill="#9a32cd" stroke="#9a32cd" points="302.05,-57.13 292.71,-62.14 303.13,-64.05 302.05,-57.13"/>
</a>
</g>
<text text-anchor="middle" x="334.62" y="-59.62" font-family="Helvetica,sans-Serif" font-size="10.00" fill="grey"> vertices</text>
</g>
<!-- Node4 -->
<g id="Node000004" class="node">
<title>Node4</title>
<g id="a_Node000004"><a xlink:href="../../d0/dc6/structengine_1_1render_1_1_vertex.html" target="_top" xlink:title=" ">
<polygon fill="white" stroke="#666666" points="108.25,-79.5 0,-79.5 0,-60.25 108.25,-60.25 108.25,-79.5"/>
<text text-anchor="middle" x="54.12" y="-66" font-family="Helvetica,sans-Serif" font-size="10.00">engine::render::Vertex</text>
</a>
</g>
</g>
<!-- Node4&#45;&gt;Node3 -->
<g id="edge3_Node000003_Node000004" class="edge">
<title>Node4&#45;&gt;Node3</title>
<g id="a_edge3_Node000003_Node000004"><a xlink:title=" ">
<path fill="none" stroke="#9a32cd" stroke-dasharray="5,2" d="M119.66,-69.88C143.73,-69.88 170.63,-69.88 192.99,-69.88"/>
<polygon fill="#9a32cd" stroke="#9a32cd" points="119.97,-66.38 109.97,-69.88 119.97,-73.38 119.97,-66.38"/>
</a>
</g>
<text text-anchor="middle" x="147.25" y="-71.62" font-family="Helvetica,sans-Serif" font-size="10.00" fill="grey"> elements</text>
</g>
<!-- Node5 -->
<g id="Node000005" class="node">
<title>Node5</title>
<g id="a_Node000005"><a xlink:title=" ">
<polygon fill="white" stroke="#666666" points="298.25,-24.5 186.25,-24.5 186.25,-5.25 298.25,-5.25 298.25,-24.5"/>
<text text-anchor="middle" x="242.25" y="-11" font-family="Helvetica,sans-Serif" font-size="10.00">std::vector&lt; uint32_t &gt;</text>
</a>
</g>
</g>
<!-- Node5&#45;&gt;Node1 -->
<g id="edge5_Node000001_Node000005" class="edge">
<title>Node5&#45;&gt;Node1</title>
<g id="a_edge5_Node000001_Node000005"><a xlink:title=" ">
<path fill="none" stroke="#9a32cd" stroke-dasharray="5,2" d="M309.91,-12.86C329.59,-12.35 351.16,-11.88 371,-11.62 417.44,-11.03 429.08,-10.12 475.5,-11.62 500.07,-12.42 526.99,-13.98 550.76,-15.6"/>
<polygon fill="#9a32cd" stroke="#9a32cd" points="310,-9.35 300.09,-13.12 310.18,-16.35 310,-9.35"/>
</a>
</g>
<text text-anchor="middle" x="423.25" y="-13.62" font-family="Helvetica,sans-Serif" font-size="10.00" fill="grey"> m_triangles</text>
</g>
<!-- Node5&#45;&gt;Node2 -->
<g id="edge4_Node000002_Node000005" class="edge">
<title>Node5&#45;&gt;Node2</title>
<g id="a_edge4_Node000002_Node000005"><a xlink:title=" ">
<path fill="none" stroke="#9a32cd" stroke-dasharray="5,2" d="M309.72,-24.9C329.84,-27.94 351.63,-31.22 370.63,-34.09"/>
<polygon fill="#9a32cd" stroke="#9a32cd" points="310.32,-21.45 299.91,-23.42 309.28,-28.37 310.32,-21.45"/>
</a>
</g>
<text text-anchor="middle" x="334.62" y="-32.62" font-family="Helvetica,sans-Serif" font-size="10.00" fill="grey"> indices</text>
</g>
<!-- Node6 -->
<g id="Node000006" class="node">
<title>Node6</title>
<g id="a_Node000006"><a xlink:title=" ">
<polygon fill="white" stroke="#666666" points="1052.25,-41.75 941,-41.75 941,0 1052.25,0 1052.25,-41.75"/>
<text text-anchor="start" x="949" y="-28.25" font-family="Helvetica,sans-Serif" font-size="10.00">std::unique_ptr&lt; std</text>
<text text-anchor="start" x="949" y="-17" font-family="Helvetica,sans-Serif" font-size="10.00">::array&lt; engine::core</text>
<text text-anchor="middle" x="996.62" y="-5.75" font-family="Helvetica,sans-Serif" font-size="10.00">::TriangleOctree, 8 &gt; &gt;</text>
</a>
</g>
</g>
<!-- Node6&#45;&gt;Node1 -->
<g id="edge6_Node000001_Node000006" class="edge">
<title>Node6&#45;&gt;Node1</title>
<g id="a_edge6_Node000001_Node000006"><a xlink:title=" ">
<path fill="none" stroke="#9a32cd" stroke-dasharray="5,2" d="M929.2,-16.29C916.68,-15.6 903.7,-14.99 891.5,-14.62 835.41,-12.94 821.35,-13.42 765.25,-14.62 739.93,-15.17 712.15,-16.25 687.73,-17.36"/>
<polygon fill="#9a32cd" stroke="#9a32cd" points="928.84,-19.78 939.02,-16.86 929.24,-12.79 928.84,-19.78"/>
</a>
</g>
<text text-anchor="middle" x="828.38" y="-16.62" font-family="Helvetica,sans-Serif" font-size="10.00" fill="grey"> m_children</text>
</g>
<!-- Node7&#45;&gt;Node6 -->
<g id="edge7_Node000006_Node000007" class="edge">
<title>Node7&#45;&gt;Node6</title>
<g id="a_edge7_Node000006_Node000007"><a xlink:title=" ">
<path fill="none" stroke="#9a32cd" stroke-dasharray="5,2" d="M902.79,-37.07C915.47,-34.86 928.46,-32.59 940.55,-30.48"/>
<polygon fill="#9a32cd" stroke="#9a32cd" points="902.49,-33.57 893.24,-38.73 903.7,-40.46 902.49,-33.57"/>
</a>
</g>
<text text-anchor="middle" x="916.25" y="-36.62" font-family="Helvetica,sans-Serif" font-size="10.00" fill="grey"> ptr</text>
</g>
</g>
</svg>

<g id="navigator" transform="translate(0 0)" fill="#404254">
  <rect fill="#f2f5e9" fill-opacity="0.5" stroke="#606060" stroke-width=".5" x="0" y="0" width="60" height="60"/>
  <use id="zoomplus" xlink:href="#zoomPlus" x="17" y="9" onmousedown="handleZoom(evt,'in')"/>
  <use id="zoomminus" xlink:href="#zoomMin" x="42" y="9" onmousedown="handleZoom(evt,'out')"/>
  <use id="reset" xlink:href="#resetDef" x="30" y="36" onmousedown="handleReset()"/>
   <use id="arrowup" xlink:href="#arrowUp" x="0" y="0" onmousedown="handlePan(0,-1)"/>
  <use id="arrowright" xlink:href="#arrowRight" x="0" y="0" onmousedown="handlePan(1,0)"/>
  <use id="arrowdown" xlink:href="#arrowDown" x="0" y="0" onmousedown="handlePan(0,1)"/>
  <use id="arrowleft" xlink:href="#arrowLeft" x="0" y="0" onmousedown="handlePan(-1,0)"/>
</g>
<svg viewBox="0 0 15 15" width="100%" height="30px" preserveAspectRatio="xMaxYMin meet">
 <g id="arrow_out" transform="scale(0.3 0.3)">
  <a xlink:href="classengine_1_1core_1_1_triangle_octree__coll__graph_org.svg" target="_base">
   <rect id="button" ry="5" rx="5" y="6" x="6" height="38" width="38"
        fill="#f2f5e9" fill-opacity="0.5" stroke="#606060" stroke-width="1.0"/>
   <path id="arrow"
     d="M 11.500037,31.436501 C 11.940474,20.09759 22.043105,11.32322 32.158766,21.979434 L 37.068811,17.246167 C 37.068811,17.246167 37.088388,32 37.088388,32 L 22.160133,31.978069 C 22.160133,31.978069 26.997745,27.140456 26.997745,27.140456 C 18.528582,18.264221 13.291696,25.230495 11.500037,31.436501 z"
     style="fill:#404040;"/>
  </a>
 </g>
</svg>

<style type='text/css'>
<![CDATA[
[data-mouse-over-selected='false'] { opacity: 0.7; }
[data-mouse-over-selected='true']  { opacity: 1.0; }
]]>
</style>
<script type="application/ecmascript"><![CDATA[
document.addEventListener('DOMContentLoaded', (event) => {
  highlightEdges();
  highlightAdjacentNodes();
});
]]></script>
</svg>
