<?xml version="1.0" encoding="UTF-8" standalone="no"?>
<!DOCTYPE svg PUBLIC "-//W3C//DTD SVG 1.1//EN"
 "http://www.w3.org/Graphics/SVG/1.1/DTD/svg11.dtd">
<!-- Generated by graphviz version 8.1.0 (20230707.0739)
 -->
<!-- Title: engine::core::TriangleOctree Pages: 1 -->
<svg width="1060pt" height="93pt"
 viewBox="0.00 0.00 1060.25 93.12" xmlns="http://www.w3.org/2000/svg" xmlns:xlink="http://www.w3.org/1999/xlink">
<g id="graph0" class="graph" transform="scale(1 1) rotate(0) translate(4 89.12)">
<title>engine::core::TriangleOctree</title>
<!-- Node1 -->
<g id="Node000001" class="node">
<title>Node1</title>
<g id="a_Node000001"><a xlink:title=" ">
<polygon fill="#999999" stroke="#666666" points="687.25,-30.5 551.25,-30.5 551.25,-11.25 687.25,-11.25 687.25,-30.5"/>
<text text-anchor="middle" x="619.25" y="-17" font-family="Helvetica,sans-Serif" font-size="10.00">engine::core::TriangleOctree</text>
</a>
</g>
</g>
<!-- Node7 -->
<g id="Node000007" class="node">
<title>Node7</title>
<g id="a_Node000007"><a xlink:title=" ">
<polygon fill="white" stroke="#666666" points="891.5,-65.12 765.25,-65.12 765.25,-34.62 891.5,-34.62 891.5,-65.12"/>
<text text-anchor="start" x="773.25" y="-51.62" font-family="Helvetica,sans-Serif" font-size="10.00">std::array&lt; engine</text>
<text text-anchor="middle" x="828.38" y="-40.38" font-family="Helvetica,sans-Serif" font-size="10.00">::core::TriangleOctree, 8 &gt;</text>
</a>
</g>
</g>
<!-- Node1&#45;&gt;Node7 -->
<g id="edge8_Node000007_Node000001" class="edge">
<title>Node1&#45;&gt;Node7</title>
<g id="a_edge8_Node000007_Node000001"><a xlink:title=" ">
<path fill="none" stroke="#9a32cd" stroke-dasharray="5,2" d="M698.18,-31.79C720.26,-34.88 744,-38.2 765.03,-41.15"/>
<polygon fill="#9a32cd" stroke="#9a32cd" points="698.89,-28.21 688.5,-30.29 697.92,-35.14 698.89,-28.21"/>
</a>
</g>
<text text-anchor="middle" x="726.25" y="-39.62" font-family="Helvetica,sans-Serif" font-size="10.00" fill="grey"> elements</text>
</g>
<!-- Node2 -->
<g id="Node000002" class="node">
<title>Node2</title>
<g id="a_Node000002"><a xlink:href="../../d7/d90/structengine_1_1render_1_1_mesh.html" target="_top" xlink:title=" ">
<polygon fill="white" stroke="#666666" points="475.5,-51.5 371,-51.5 371,-32.25 475.5,-32.25 475.5,-51.5"/>
<text text-anchor="middle" x="423.25" y="-38" font-family="Helvetica,sans-Serif" font-size="10.00">engine::render::Mesh</text>
</a>
</g>
</g>
<!-- Node2&#45;&gt;Node1 -->
<g id="edge1_Node000001_Node000002" class="edge">
<title>Node2&#45;&gt;Node1</title>
<g id="a_edge1_Node000001_Node000002"><a xlink:title=" ">
<path fill="none" stroke="#9a32cd" stroke-dasharray="5,2" d="M486.78,-35.11C507.27,-32.89 530.13,-30.41 550.96,-28.16"/>
<polygon fill="#9a32cd" stroke="#9a32cd" points="486.55,-31.72 476.98,-36.27 487.3,-38.68 486.55,-31.72"/>
</a>
</g>
<text text-anchor="middle" x="513.38" y="-35.62" font-family="Helvetica,sans-Serif" font-size="10.00" fill="grey"> m_mesh</text>
</g>
<!-- Node3 -->
<g id="Node000003" class="node">
<title>Node3</title>
<g id="a_Node000003"><a xlink:title=" ">
<polygon fill="white" stroke="#666666" points="291.12,-85.12 193.38,-85.12 193.38,-54.62 291.12,-54.62 291.12,-85.12"/>
<text text-anchor="start" x="201.38" y="-71.62" font-family="Helvetica,sans-Serif" font-size="10.00">std::vector&lt; engine</text>
<text text-anchor="middle" x="242.25" y="-60.38" font-family="Helvetica,sans-Serif" font-size="10.00">::render::Vertex &gt;</text>
</a>
</g>
</g>
<!-- Node3&#45;&gt;Node2 -->
<g id="edge2_Node000002_Node000003" class="edge">
<title>Node3&#45;&gt;Node2</title>
<g id="a_edge2_Node000002_Node000003"><a xlink:title=" ">
<path fill="none" stroke="#9a32cd" stroke-dasharray="5,2" d="M301.86,-60.71C324.07,-57.23 349.18,-53.3 370.7,-49.94"/>
<polygon fill="#9a32cd" stroke="#9a32cd" points="301.56,-57.37 292.22,-62.37 302.64,-64.28 301.56,-57.37"/>
</a>
</g>
<text text-anchor="middle" x="334.62" y="-59.62" font-family="Helvetica,sans-Serif" font-size="10.00" fill="grey"> vertices</text>
</g>
<!-- Node4 -->
<g id="Node000004" class="node">
<title>Node4</title>
<g id="a_Node000004"><a xlink:href="../../d0/dc6/structengine_1_1render_1_1_vertex.html" target="_top" xlink:title=" ">
<polygon fill="white" stroke="#666666" points="108.25,-79.5 0,-79.5 0,-60.25 108.25,-60.25 108.25,-79.5"/>
<text text-anchor="middle" x="54.12" y="-66" font-family="Helvetica,sans-Serif" font-size="10.00">engine::render::Vertex</text>
</a>
</g>
</g>
<!-- Node4&#45;&gt;Node3 -->
<g id="edge3_Node000003_Node000004" class="edge">
<title>Node4&#45;&gt;Node3</title>
<g id="a_edge3_Node000003_Node000004"><a xlink:title=" ">
<path fill="none" stroke="#9a32cd" stroke-dasharray="5,2" d="M119.33,-69.88C143.49,-69.88 170.53,-69.88 192.99,-69.88"/>
<polygon fill="#9a32cd" stroke="#9a32cd" points="119.46,-66.38 109.46,-69.88 119.46,-73.38 119.46,-66.38"/>
</a>
</g>
<text text-anchor="middle" x="147.25" y="-71.62" font-family="Helvetica,sans-Serif" font-size="10.00" fill="grey"> elements</text>
</g>
<!-- Node5 -->
<g id="Node000005" class="node">
<title>Node5</title>
<g id="a_Node000005"><a xlink:title=" ">
<polygon fill="white" stroke="#666666" points="298.25,-24.5 186.25,-24.5 186.25,-5.25 298.25,-5.25 298.25,-24.5"/>
<text text-anchor="middle" x="242.25" y="-11" font-family="Helvetica,sans-Serif" font-size="10.00">std::vector&lt; uint32_t &gt;</text>
</a>
</g>
</g>
<!-- Node5&#45;&gt;Node1 -->
<g id="edge5_Node000001_Node000005" class="edge">
<title>Node5&#45;&gt;Node1</title>
<g id="a_edge5_Node000001_Node000005"><a xlink:title=" ">
<path fill="none" stroke="#9a32cd" stroke-dasharray="5,2" d="M309.36,-12.87C329.18,-12.36 350.97,-11.88 371,-11.62 417.44,-11.03 429.08,-10.12 475.5,-11.62 500.07,-12.42 526.99,-13.98 550.76,-15.6"/>
<polygon fill="#9a32cd" stroke="#9a32cd" points="309.48,-9.39 299.58,-13.16 309.67,-16.39 309.48,-9.39"/>
</a>
</g>
<text text-anchor="middle" x="423.25" y="-13.62" font-family="Helvetica,sans-Serif" font-size="10.00" fill="grey"> m_triangles</text>
</g>
<!-- Node5&#45;&gt;Node2 -->
<g id="edge4_Node000002_Node000005" class="edge">
<title>Node5&#45;&gt;Node2</title>
<g id="a_edge4_Node000002_Node000005"><a xlink:title=" ">
<path fill="none" stroke="#9a32cd" stroke-dasharray="5,2" d="M309.15,-24.82C329.43,-27.87 351.45,-31.2 370.63,-34.09"/>
<polygon fill="#9a32cd" stroke="#9a32cd" points="309.83,-21.23 299.42,-23.2 308.78,-28.15 309.83,-21.23"/>
</a>
</g>
<text text-anchor="middle" x="334.62" y="-32.62" font-family="Helvetica,sans-Serif" font-size="10.00" fill="grey"> indices</text>
</g>
<!-- Node6 -->
<g id="Node000006" class="node">
<title>Node6</title>
<g id="a_Node000006"><a xlink:title=" ">
<polygon fill="white" stroke="#666666" points="1052.25,-41.75 941,-41.75 941,0 1052.25,0 1052.25,-41.75"/>
<text text-anchor="start" x="949" y="-28.25" font-family="Helvetica,sans-Serif" font-size="10.00">std::unique_ptr&lt; std</text>
<text text-anchor="start" x="949" y="-17" font-family="Helvetica,sans-Serif" font-size="10.00">::array&lt; engine::core</text>
<text text-anchor="middle" x="996.62" y="-5.75" font-family="Helvetica,sans-Serif" font-size="10.00">::TriangleOctree, 8 &gt; &gt;</text>
</a>
</g>
</g>
<!-- Node6&#45;&gt;Node1 -->
<g id="edge6_Node000001_Node000006" class="edge">
<title>Node6&#45;&gt;Node1</title>
<g id="a_edge6_Node000001_Node000006"><a xlink:title=" ">
<path fill="none" stroke="#9a32cd" stroke-dasharray="5,2" d="M929.59,-16.31C916.95,-15.61 903.82,-14.99 891.5,-14.62 835.41,-12.94 821.35,-13.42 765.25,-14.62 739.93,-15.17 712.15,-16.25 687.73,-17.36"/>
<polygon fill="#9a32cd" stroke="#9a32cd" points="929.35,-19.86 939.53,-16.95 929.75,-12.87 929.35,-19.86"/>
</a>
</g>
<text text-anchor="middle" x="828.38" y="-16.62" font-family="Helvetica,sans-Serif" font-size="10.00" fill="grey"> m_children</text>
</g>
<!-- Node7&#45;&gt;Node6 -->
<g id="edge7_Node000006_Node000007" class="edge">
<title>Node7&#45;&gt;Node6</title>
<g id="a_edge7_Node000006_Node000007"><a xlink:title=" ">
<path fill="none" stroke="#9a32cd" stroke-dasharray="5,2" d="M902.4,-37.14C915.21,-34.9 928.34,-32.61 940.55,-30.48"/>
<polygon fill="#9a32cd" stroke="#9a32cd" points="902,-33.83 892.75,-38.99 903.21,-40.72 902,-33.83"/>
</a>
</g>
<text text-anchor="middle" x="916.25" y="-36.62" font-family="Helvetica,sans-Serif" font-size="10.00" fill="grey"> ptr</text>
</g>
</g>
</svg>
