<?xml version="1.0" encoding="UTF-8" standalone="no"?>
<!DOCTYPE svg PUBLIC "-//W3C//DTD SVG 1.1//EN"
 "http://www.w3.org/Graphics/SVG/1.1/DTD/svg11.dtd">
<!-- Generated by graphviz version 8.1.0 (20230707.0739)
 -->
<!-- Title: engine::core::Layer::HandleTick Pages: 1 -->
<svg width="624pt" height="138pt"
 viewBox="0.00 0.00 624.00 138.25" xmlns="http://www.w3.org/2000/svg" xmlns:xlink="http://www.w3.org/1999/xlink">
<g id="graph0" class="graph" transform="scale(1 1) rotate(0) translate(4 134.25)">
<title>engine::core::Layer::HandleTick</title>
<!-- Node1 -->
<g id="Node000001" class="node">
<title>Node1</title>
<g id="a_Node000001"><a xlink:title=" ">
<polygon fill="#999999" stroke="#666666" points="96.25,-79.88 0,-79.88 0,-49.38 96.25,-49.38 96.25,-79.88"/>
<text text-anchor="start" x="8" y="-66.38" font-family="Helvetica,sans-Serif" font-size="10.00">engine::core::Layer</text>
<text text-anchor="middle" x="48.12" y="-55.12" font-family="Helvetica,sans-Serif" font-size="10.00">::HandleTick</text>
</a>
</g>
</g>
<!-- Node2 -->
<g id="Node000002" class="node">
<title>Node2</title>
<g id="a_Node000002"><a xlink:href="../../d8/d87/class_controller.html" target="_top" xlink:title=" ">
<polygon fill="white" stroke="#666666" points="235.62,-130.25 178.38,-130.25 178.38,-111 235.62,-111 235.62,-130.25"/>
<text text-anchor="middle" x="207" y="-116.75" font-family="Helvetica,sans-Serif" font-size="10.00">Controller</text>
</a>
</g>
</g>
<!-- Node1&#45;&gt;Node2 -->
<g id="edge1_Node000001_Node000002" class="edge">
<title>Node1&#45;&gt;Node2</title>
<g id="a_edge1_Node000001_Node000002"><a xlink:title=" ">
<path fill="none" stroke="#63b8ff" d="M89.58,-84.98C102.94,-91.2 118.03,-97.69 132.25,-102.62 147.07,-107.77 164.04,-112.02 177.97,-115.1"/>
<polygon fill="#63b8ff" stroke="#63b8ff" points="91.27,-81.43 80.74,-80.31 88.27,-87.76 91.27,-81.43"/>
</a>
</g>
</g>
<!-- Node3 -->
<g id="Node000003" class="node">
<title>Node3</title>
<g id="a_Node000003"><a xlink:href="../../da/df3/classengine_1_1core_1_1_input_layer.html" target="_top" xlink:title=" ">
<polygon fill="white" stroke="#666666" points="266,-93.25 148,-93.25 148,-74 266,-74 266,-93.25"/>
<text text-anchor="middle" x="207" y="-79.75" font-family="Helvetica,sans-Serif" font-size="10.00">engine::core::InputLayer</text>
</a>
</g>
</g>
<!-- Node1&#45;&gt;Node3 -->
<g id="edge2_Node000001_Node000003" class="edge">
<title>Node1&#45;&gt;Node3</title>
<g id="a_edge2_Node000001_Node000003"><a xlink:title=" ">
<path fill="none" stroke="#63b8ff" d="M107.41,-71.68C120.53,-73.27 134.46,-74.96 147.58,-76.55"/>
<polygon fill="#63b8ff" stroke="#63b8ff" points="107.97,-68.11 97.62,-70.38 107.12,-75.05 107.97,-68.11"/>
</a>
</g>
</g>
<!-- Node4 -->
<g id="Node000004" class="node">
<title>Node4</title>
<g id="a_Node000004"><a xlink:href="../../d6/d88/classengine_1_1core_1_1_layer_stack.html" target="_top" xlink:title=" ">
<polygon fill="white" stroke="#666666" points="267.88,-56.25 146.12,-56.25 146.12,-37 267.88,-37 267.88,-56.25"/>
<text text-anchor="middle" x="207" y="-42.75" font-family="Helvetica,sans-Serif" font-size="10.00">engine::core::LayerStack</text>
</a>
</g>
</g>
<!-- Node1&#45;&gt;Node4 -->
<g id="edge3_Node000001_Node000004" class="edge">
<title>Node1&#45;&gt;Node4</title>
<g id="a_edge3_Node000001_Node000004"><a xlink:title=" ">
<path fill="none" stroke="#63b8ff" d="M107.42,-57.94C119.97,-56.5 133.26,-54.97 145.88,-53.52"/>
<polygon fill="#63b8ff" stroke="#63b8ff" points="107.15,-54.56 97.62,-59.18 107.95,-61.51 107.15,-54.56"/>
</a>
</g>
</g>
<!-- Node9 -->
<g id="Node000009" class="node">
<title>Node9</title>
<g id="a_Node000009"><a xlink:href="../../df/df1/classengine_1_1render_1_1_post_processing.html" target="_top" xlink:title=" ">
<polygon fill="white" stroke="#666666" points="281.75,-19.25 132.25,-19.25 132.25,0 281.75,0 281.75,-19.25"/>
<text text-anchor="middle" x="207" y="-5.75" font-family="Helvetica,sans-Serif" font-size="10.00">engine::render::PostProcessing</text>
</a>
</g>
</g>
<!-- Node1&#45;&gt;Node9 -->
<g id="edge8_Node000001_Node000009" class="edge">
<title>Node1&#45;&gt;Node9</title>
<g id="a_edge8_Node000001_Node000009"><a xlink:title=" ">
<path fill="none" stroke="#63b8ff" d="M90.3,-44.55C103.5,-38.59 118.31,-32.38 132.25,-27.62 140.86,-24.69 150.18,-22.02 159.21,-19.7"/>
<polygon fill="#63b8ff" stroke="#63b8ff" points="89.18,-41.67 81.56,-49.03 92.11,-48.03 89.18,-41.67"/>
</a>
</g>
</g>
<!-- Node5 -->
<g id="Node000005" class="node">
<title>Node5</title>
<g id="a_Node000005"><a xlink:href="../../d2/d5c/classengine_1_1core_1_1_layer_stack_threadsafe.html" target="_top" xlink:title=" ">
<polygon fill="white" stroke="#666666" points="447.38,-83.88 325.62,-83.88 325.62,-53.38 447.38,-53.38 447.38,-83.88"/>
<text text-anchor="start" x="333.62" y="-70.38" font-family="Helvetica,sans-Serif" font-size="10.00">engine::core::LayerStack</text>
<text text-anchor="middle" x="386.5" y="-59.12" font-family="Helvetica,sans-Serif" font-size="10.00">Threadsafe</text>
</a>
</g>
</g>
<!-- Node4&#45;&gt;Node5 -->
<g id="edge4_Node000004_Node000005" class="edge">
<title>Node4&#45;&gt;Node5</title>
<g id="a_edge4_Node000004_Node000005"><a xlink:title=" ">
<path fill="none" stroke="#8b1a1a" d="M278.62,-55.38C294.03,-57.29 310.2,-59.29 325.17,-61.15"/>
<polygon fill="#8b1a1a" stroke="#8b1a1a" points="279.45,-51.83 269.09,-54.07 278.59,-58.78 279.45,-51.83"/>
</a>
</g>
</g>
<!-- Node7 -->
<g id="Node000007" class="node">
<title>Node7</title>
<g id="a_Node000007"><a xlink:href="../../d9/d15/classengine_1_1core_1_1_render_pipeline.html" target="_top" xlink:title=" ">
<polygon fill="white" stroke="#666666" points="455.25,-35.25 317.75,-35.25 317.75,-16 455.25,-16 455.25,-35.25"/>
<text text-anchor="middle" x="386.5" y="-21.75" font-family="Helvetica,sans-Serif" font-size="10.00">engine::core::RenderPipeline</text>
</a>
</g>
</g>
<!-- Node4&#45;&gt;Node7 -->
<g id="edge6_Node000004_Node000007" class="edge">
<title>Node4&#45;&gt;Node7</title>
<g id="a_edge6_Node000004_Node000007"><a xlink:title=" ">
<path fill="none" stroke="#63b8ff" d="M278.69,-38.26C291.49,-36.75 304.81,-35.17 317.52,-33.67"/>
<polygon fill="#63b8ff" stroke="#63b8ff" points="278.61,-34.86 269.09,-39.52 279.44,-41.82 278.61,-34.86"/>
</a>
</g>
</g>
<!-- Node6 -->
<g id="Node000006" class="node">
<title>Node6</title>
<g id="a_Node000006"><a xlink:href="../../da/d33/classengine_1_1core_1_1_engine.html" target="_top" xlink:title="Represents the core of the engine.">
<polygon fill="white" stroke="#666666" points="604.38,-78.25 502.88,-78.25 502.88,-59 604.38,-59 604.38,-78.25"/>
<text text-anchor="middle" x="553.62" y="-64.75" font-family="Helvetica,sans-Serif" font-size="10.00">engine::core::Engine</text>
</a>
</g>
</g>
<!-- Node5&#45;&gt;Node6 -->
<g id="edge5_Node000005_Node000006" class="edge">
<title>Node5&#45;&gt;Node6</title>
<g id="a_edge5_Node000005_Node000006"><a xlink:title=" ">
<path fill="none" stroke="#8b1a1a" d="M458.32,-68.62C473.24,-68.62 488.67,-68.62 502.63,-68.62"/>
<polygon fill="#8b1a1a" stroke="#8b1a1a" points="458.58,-65.13 448.58,-68.62 458.58,-72.13 458.58,-65.13"/>
</a>
</g>
</g>
<!-- Node8 -->
<g id="Node000008" class="node">
<title>Node8</title>
<g id="a_Node000008"><a xlink:href="../../d9/d04/classengine_1_1direct3d_1_1_deferred_h_d_r_render_pipeline.html" target="_top" xlink:title=" ">
<polygon fill="white" stroke="#666666" points="616,-40.88 491.25,-40.88 491.25,-10.37 616,-10.37 616,-40.88"/>
<text text-anchor="start" x="499.25" y="-27.38" font-family="Helvetica,sans-Serif" font-size="10.00">engine::direct3d::Deferred</text>
<text text-anchor="middle" x="553.62" y="-16.12" font-family="Helvetica,sans-Serif" font-size="10.00">HDRRenderPipeline</text>
</a>
</g>
</g>
<!-- Node7&#45;&gt;Node8 -->
<g id="edge7_Node000007_Node000008" class="edge">
<title>Node7&#45;&gt;Node8</title>
<g id="a_edge7_Node000007_Node000008"><a xlink:title=" ">
<path fill="none" stroke="#63b8ff" d="M466.61,-25.62C474.72,-25.62 482.87,-25.62 490.75,-25.62"/>
<polygon fill="#63b8ff" stroke="#63b8ff" points="466.62,-22.13 456.62,-25.62 466.62,-29.13 466.62,-22.13"/>
</a>
</g>
</g>
</g>
</svg>
