<?xml version="1.0" encoding="UTF-8" standalone="no"?>
<!DOCTYPE svg PUBLIC "-//W3C//DTD SVG 1.1//EN"
 "http://www.w3.org/Graphics/SVG/1.1/DTD/svg11.dtd">
<!-- Generated by graphviz version 9.0.0 (20230911.1827)
 -->
<!-- Title: engine/utils/detail/debug_with_source_location.hpp Pages: 1 -->
<!--zoomable 216 -->

<svg id="main" version="1.1" xmlns="http://www.w3.org/2000/svg" xmlns:xlink="http://www.w3.org/1999/xlink" xml:space="preserve" onload="init(evt)">
<style type="text/css"><![CDATA[
.node, .edge {opacity: 0.7;}
.node.selected, .edge.selected {opacity: 1;}
.edge:hover path { stroke: red; }
.edge:hover polygon { stroke: red; fill: red; }
]]></style>

<defs>
  <circle id="rim" cx="0" cy="0" r="7"/>
  <circle id="rim2" cx="0" cy="0" r="3.5"/>
  <g id="zoomPlus">
    <use xlink:href="#rim" fill="#404040"><set attributeName="fill" to="#808080" begin="zoomplus.mouseover" end="zoomplus.mouseout"/></use>
    <path d="M-4,0h8M0,-4v8" fill="none" stroke="white" stroke-width="1.5" pointer-events="none"/>
  </g>
  <g id="zoomMin">
    <use xlink:href="#rim" fill="#404040"><set attributeName="fill" to="#808080" begin="zoomminus.mouseover" end="zoomminus.mouseout"/></use>
    <path d="M-4,0h8" fill="none" stroke="white" stroke-width="1.5" pointer-events="none"/>
  </g>
  <g id="arrowUp" transform="translate(30 24)">
    <use xlink:href="#rim"/>
    <path pointer-events="none" fill="none" stroke="white" stroke-width="1.5" d="M0,-3.0v7 M-2.5,-0.5L0,-3.0L2.5,-0.5"/>
  </g>
  <g id="arrowRight" transform="rotate(90) translate(36 -43)">
    <use xlink:href="#rim"/>
    <path pointer-events="none" fill="none" stroke="white" stroke-width="1.5" d="M0,-3.0v7 M-2.5,-0.5L0,-3.0L2.5,-0.5"/>
  </g>
  <g id="arrowDown" transform="rotate(180) translate(-30 -48)">
    <use xlink:href="#rim"/>
    <path pointer-events="none" fill="none" stroke="white" stroke-width="1.5" d="M0,-3.0v7 M-2.5,-0.5L0,-3.0L2.5,-0.5"/>
  </g>
  <g id="arrowLeft" transform="rotate(270) translate(-36 17)">
    <use xlink:href="#rim"/>
    <path pointer-events="none" fill="none" stroke="white" stroke-width="1.5" d="M0,-3.0v7 M-2.5,-0.5L0,-3.0L2.5,-0.5"/>
  </g>
  <g id="resetDef">
    <use xlink:href="#rim2" fill="#404040"><set attributeName="fill" to="#808080" begin="reset.mouseover" end="reset.mouseout"/></use>
  </g>
</defs>
<script type="application/ecmascript">
var viewWidth = 3414;
var viewHeight = 216;
var sectionId = 'dynsection-0';
</script>
<script type="application/ecmascript" xlink:href="../../svg.min.js"/>
<svg id="graph" class="graph">
<g id="viewport">
<title>engine/utils/detail/debug_with_source_location.hpp</title>
<!-- Node1 -->
<g id="Node000001" class="node">
<title>Node1</title>
<g id="a_Node000001"><a xlink:title=" ">
<polygon fill="#999999" stroke="#666666" points="2178,-207.5 2018,-207.5 2018,-177 2178,-177 2178,-207.5"/>
<text text-anchor="start" x="2026" y="-194" font-family="Helvetica,sans-Serif" font-size="10.00">engine/utils/detail</text>
<text text-anchor="middle" x="2098" y="-182.75" font-family="Helvetica,sans-Serif" font-size="10.00">/debug_with_source_location.hpp</text>
</a>
</g>
</g>
<!-- Node2 -->
<g id="Node000002" class="node">
<title>Node2</title>
<g id="a_Node000002"><a xlink:href="../../da/d7b/debug_8hpp.html" target="_top" xlink:title=" ">
<polygon fill="white" stroke="#666666" points="2131.88,-141 2064.12,-141 2064.12,-121.75 2131.88,-121.75 2131.88,-141"/>
<text text-anchor="middle" x="2098" y="-127.5" font-family="Helvetica,sans-Serif" font-size="10.00">../debug.hpp</text>
</a>
</g>
</g>
<!-- Node1&#45;&gt;Node2 -->
<g id="edge1_Node000001_Node000002" class="edge">
<title>Node1&#45;&gt;Node2</title>
<g id="a_edge1_Node000001_Node000002"><a xlink:title=" ">
<path fill="none" stroke="#63b8ff" d="M2092.08,-176.7C2091.2,-169.46 2091.02,-160.59 2091.55,-152.69"/>
<polygon fill="#63b8ff" stroke="#63b8ff" points="2095,-153.31 2092.77,-142.95 2088.05,-152.44 2095,-153.31"/>
</a>
</g>
</g>
<!-- Node2&#45;&gt;Node1 -->
<g id="edge49_Node000002_Node000001" class="edge">
<title>Node2&#45;&gt;Node1</title>
<g id="a_edge49_Node000002_Node000001"><a xlink:title=" ">
<path fill="none" stroke="#63b8ff" d="M2103.04,-141.45C2104.36,-147.84 2104.91,-156.73 2104.71,-165.23"/>
<polygon fill="#63b8ff" stroke="#63b8ff" points="2101.22,-164.97 2104.02,-175.19 2108.2,-165.45 2101.22,-164.97"/>
</a>
</g>
</g>
<!-- Node3 -->
<g id="Node000003" class="node">
<title>Node3</title>
<g id="a_Node000003"><a xlink:href="../../db/d6e/library-pch_8hpp.html" target="_top" xlink:title=" ">
<polygon fill="white" stroke="#666666" points="1365,-85.75 1253,-85.75 1253,-66.5 1365,-66.5 1365,-85.75"/>
<text text-anchor="middle" x="1309" y="-72.25" font-family="Helvetica,sans-Serif" font-size="10.00">include/library&#45;pch.hpp</text>
</a>
</g>
</g>
<!-- Node2&#45;&gt;Node3 -->
<g id="edge2_Node000002_Node000003" class="edge">
<title>Node2&#45;&gt;Node3</title>
<g id="a_edge2_Node000002_Node000003"><a xlink:title=" ">
<path fill="none" stroke="#63b8ff" d="M2063.84,-128.07C1943.61,-119.96 1538.49,-92.61 1376.63,-81.69"/>
<polygon fill="#63b8ff" stroke="#63b8ff" points="1377.13,-78.22 1366.92,-81.03 1376.66,-85.2 1377.13,-78.22"/>
</a>
</g>
</g>
<!-- Node41 -->
<g id="Node000041" class="node">
<title>Node41</title>
<g id="a_Node000041"><a xlink:href="../../dd/db5/spdlog_8hpp.html" target="_top" xlink:title=" ">
<polygon fill="white" stroke="#666666" points="3029.12,-85.75 2932.88,-85.75 2932.88,-66.5 3029.12,-66.5 3029.12,-85.75"/>
<text text-anchor="middle" x="2981" y="-72.25" font-family="Helvetica,sans-Serif" font-size="10.00">include/spdlog.hpp</text>
</a>
</g>
</g>
<!-- Node2&#45;&gt;Node41 -->
<g id="edge41_Node000002_Node000041" class="edge">
<title>Node2&#45;&gt;Node41</title>
<g id="a_edge41_Node000002_Node000041"><a xlink:title=" ">
<path fill="none" stroke="#63b8ff" d="M2132.34,-128.3C2265.75,-120.26 2750.57,-91.02 2921.14,-80.73"/>
<polygon fill="#63b8ff" stroke="#63b8ff" points="2921.35,-84.23 2931.12,-80.13 2920.93,-77.24 2921.35,-84.23"/>
</a>
</g>
</g>
<!-- Node4 -->
<g id="Node000004" class="node">
<title>Node4</title>
<g id="a_Node000004"><a xlink:title=" ">
<polygon fill="#e0e0e0" stroke="#999999" points="70,-24.88 0,-24.88 0,-5.63 70,-5.63 70,-24.88"/>
<text text-anchor="middle" x="35" y="-11.38" font-family="Helvetica,sans-Serif" font-size="10.00">entt/entt.hpp</text>
</a>
</g>
</g>
<!-- Node3&#45;&gt;Node4 -->
<g id="edge3_Node000003_Node000004" class="edge">
<title>Node3&#45;&gt;Node4</title>
<g id="a_edge3_Node000003_Node000004"><a xlink:title=" ">
<path fill="none" stroke="#63b8ff" d="M1252.71,-75.15C1043.23,-74.9 309.02,-71.11 79,-30.5 75.99,-29.97 72.9,-29.28 69.83,-28.49"/>
<polygon fill="#63b8ff" stroke="#63b8ff" points="70.93,-25.17 60.36,-25.74 68.98,-31.89 70.93,-25.17"/>
</a>
</g>
</g>
<!-- Node5 -->
<g id="Node000005" class="node">
<title>Node5</title>
<g id="a_Node000005"><a xlink:title=" ">
<polygon fill="#e0e0e0" stroke="#999999" points="143.88,-24.88 88.12,-24.88 88.12,-5.63 143.88,-5.63 143.88,-24.88"/>
<text text-anchor="middle" x="116" y="-11.38" font-family="Helvetica,sans-Serif" font-size="10.00">algorithm</text>
</a>
</g>
</g>
<!-- Node3&#45;&gt;Node5 -->
<g id="edge4_Node000003_Node000005" class="edge">
<title>Node3&#45;&gt;Node5</title>
<g id="a_edge4_Node000003_Node000005"><a xlink:title=" ">
<path fill="none" stroke="#63b8ff" d="M1252.53,-75.46C1050.72,-76.27 365.78,-75.56 152,-30.5 150.1,-30.1 148.17,-29.61 146.24,-29.05"/>
<polygon fill="#63b8ff" stroke="#63b8ff" points="147.46,-25.77 136.86,-25.82 145.18,-32.39 147.46,-25.77"/>
</a>
</g>
</g>
<!-- Node6 -->
<g id="Node000006" class="node">
<title>Node6</title>
<g id="a_Node000006"><a xlink:title=" ">
<polygon fill="#e0e0e0" stroke="#999999" points="198.5,-24.88 161.5,-24.88 161.5,-5.63 198.5,-5.63 198.5,-24.88"/>
<text text-anchor="middle" x="180" y="-11.38" font-family="Helvetica,sans-Serif" font-size="10.00">array</text>
</a>
</g>
</g>
<!-- Node3&#45;&gt;Node6 -->
<g id="edge5_Node000003_Node000006" class="edge">
<title>Node3&#45;&gt;Node6</title>
<g id="a_edge5_Node000003_Node000006"><a xlink:title=" ">
<path fill="none" stroke="#63b8ff" d="M1252.64,-74.25C1042.2,-70.8 309.28,-56.97 208,-30.5 207.17,-30.28 206.33,-30.04 205.5,-29.77"/>
<polygon fill="#63b8ff" stroke="#63b8ff" points="206.9,-26.56 196.33,-25.92 204.19,-33.02 206.9,-26.56"/>
</a>
</g>
</g>
<!-- Node7 -->
<g id="Node000007" class="node">
<title>Node7</title>
<g id="a_Node000007"><a xlink:title=" ">
<polygon fill="#e0e0e0" stroke="#999999" points="267.25,-24.88 216.75,-24.88 216.75,-5.63 267.25,-5.63 267.25,-24.88"/>
<text text-anchor="middle" x="242" y="-11.38" font-family="Helvetica,sans-Serif" font-size="10.00">assert.h</text>
</a>
</g>
</g>
<!-- Node3&#45;&gt;Node7 -->
<g id="edge6_Node000003_Node000007" class="edge">
<title>Node3&#45;&gt;Node7</title>
<g id="a_edge6_Node000003_Node000007"><a xlink:title=" ">
<path fill="none" stroke="#63b8ff" d="M1252.82,-75.3C1065.63,-75.47 464.43,-72.64 276,-30.5 274.36,-30.13 272.7,-29.69 271.04,-29.2"/>
<polygon fill="#63b8ff" stroke="#63b8ff" points="272.33,-25.94 261.74,-25.83 269.95,-32.52 272.33,-25.94"/>
</a>
</g>
</g>
<!-- Node8 -->
<g id="Node000008" class="node">
<title>Node8</title>
<g id="a_Node000008"><a xlink:title=" ">
<polygon fill="#e0e0e0" stroke="#999999" points="330.62,-24.88 285.38,-24.88 285.38,-5.63 330.62,-5.63 330.62,-24.88"/>
<text text-anchor="middle" x="308" y="-11.38" font-family="Helvetica,sans-Serif" font-size="10.00">chrono</text>
</a>
</g>
</g>
<!-- Node3&#45;&gt;Node8 -->
<g id="edge7_Node000003_Node000008" class="edge">
<title>Node3&#45;&gt;Node8</title>
<g id="a_edge7_Node000003_Node000008"><a xlink:title=" ">
<path fill="none" stroke="#63b8ff" d="M1252.76,-75.36C1073.03,-75.66 514.07,-73.05 339,-30.5 337.79,-30.21 336.57,-29.86 335.35,-29.49"/>
<polygon fill="#63b8ff" stroke="#63b8ff" points="336.63,-26.23 326.04,-25.86 334.09,-32.75 336.63,-26.23"/>
</a>
</g>
</g>
<!-- Node9 -->
<g id="Node000009" class="node">
<title>Node9</title>
<g id="a_Node000009"><a xlink:title=" ">
<polygon fill="#e0e0e0" stroke="#999999" points="391.5,-24.88 348.5,-24.88 348.5,-5.63 391.5,-5.63 391.5,-24.88"/>
<text text-anchor="middle" x="370" y="-11.38" font-family="Helvetica,sans-Serif" font-size="10.00">cmath</text>
</a>
</g>
</g>
<!-- Node3&#45;&gt;Node9 -->
<g id="edge8_Node000003_Node000009" class="edge">
<title>Node3&#45;&gt;Node9</title>
<g id="a_edge8_Node000003_Node000009"><a xlink:title=" ">
<path fill="none" stroke="#63b8ff" d="M1252.68,-75.24C1080.44,-75.15 562.62,-71.38 400,-30.5 398.83,-30.2 397.64,-29.86 396.46,-29.48"/>
<polygon fill="#63b8ff" stroke="#63b8ff" points="398.06,-26.35 387.47,-25.87 395.45,-32.85 398.06,-26.35"/>
</a>
</g>
</g>
<!-- Node10 -->
<g id="Node000010" class="node">
<title>Node10</title>
<g id="a_Node000010"><a xlink:title=" ">
<polygon fill="#e0e0e0" stroke="#999999" points="464.88,-24.88 409.12,-24.88 409.12,-5.63 464.88,-5.63 464.88,-24.88"/>
<text text-anchor="middle" x="437" y="-11.38" font-family="Helvetica,sans-Serif" font-size="10.00">concepts</text>
</a>
</g>
</g>
<!-- Node3&#45;&gt;Node10 -->
<g id="edge9_Node000003_Node000010" class="edge">
<title>Node3&#45;&gt;Node10</title>
<g id="a_edge9_Node000003_Node000010"><a xlink:title=" ">
<path fill="none" stroke="#63b8ff" d="M1252.54,-74.41C1090.01,-71.99 623.15,-62.37 474,-30.5 471.97,-30.07 469.9,-29.54 467.83,-28.94"/>
<polygon fill="#63b8ff" stroke="#63b8ff" points="469.03,-25.65 458.44,-25.75 466.79,-32.28 469.03,-25.65"/>
</a>
</g>
</g>
<!-- Node11 -->
<g id="Node000011" class="node">
<title>Node11</title>
<g id="a_Node000011"><a xlink:title=" ">
<polygon fill="#e0e0e0" stroke="#999999" points="577,-24.88 483,-24.88 483,-5.63 577,-5.63 577,-24.88"/>
<text text-anchor="middle" x="530" y="-11.38" font-family="Helvetica,sans-Serif" font-size="10.00">condition_variable</text>
</a>
</g>
</g>
<!-- Node3&#45;&gt;Node11 -->
<g id="edge10_Node000003_Node000011" class="edge">
<title>Node3&#45;&gt;Node11</title>
<g id="a_edge10_Node000003_Node000011"><a xlink:title=" ">
<path fill="none" stroke="#63b8ff" d="M1252.83,-75.23C1130.73,-74.67 832.31,-69.09 586,-30.5 581.61,-29.81 577.06,-28.94 572.54,-27.96"/>
<polygon fill="#63b8ff" stroke="#63b8ff" points="573.48,-24.58 562.95,-25.71 571.88,-31.4 573.48,-24.58"/>
</a>
</g>
</g>
<!-- Node12 -->
<g id="Node000012" class="node">
<title>Node12</title>
<g id="a_Node000012"><a xlink:title=" ">
<polygon fill="#e0e0e0" stroke="#999999" points="640.62,-24.88 595.38,-24.88 595.38,-5.63 640.62,-5.63 640.62,-24.88"/>
<text text-anchor="middle" x="618" y="-11.38" font-family="Helvetica,sans-Serif" font-size="10.00">cstdint</text>
</a>
</g>
</g>
<!-- Node3&#45;&gt;Node12 -->
<g id="edge11_Node000003_Node000012" class="edge">
<title>Node3&#45;&gt;Node12</title>
<g id="a_edge11_Node000003_Node000012"><a xlink:title=" ">
<path fill="none" stroke="#63b8ff" d="M1252.53,-73.84C1114.59,-70.28 763.52,-58.68 650,-30.5 648.61,-30.15 647.2,-29.75 645.79,-29.3"/>
<polygon fill="#63b8ff" stroke="#63b8ff" points="647.21,-26.1 636.62,-25.78 644.7,-32.64 647.21,-26.1"/>
</a>
</g>
</g>
<!-- Node13 -->
<g id="Node000013" class="node">
<title>Node13</title>
<g id="a_Node000013"><a xlink:title=" ">
<polygon fill="#e0e0e0" stroke="#999999" points="703.25,-24.88 658.75,-24.88 658.75,-5.63 703.25,-5.63 703.25,-24.88"/>
<text text-anchor="middle" x="681" y="-11.38" font-family="Helvetica,sans-Serif" font-size="10.00">cstdlib</text>
</a>
</g>
</g>
<!-- Node3&#45;&gt;Node13 -->
<g id="edge12_Node000003_Node000013" class="edge">
<title>Node3&#45;&gt;Node13</title>
<g id="a_edge12_Node000003_Node000013"><a xlink:title=" ">
<path fill="none" stroke="#63b8ff" d="M1252.66,-73.46C1124.26,-69.26 813.26,-56.65 712,-30.5 710.82,-30.2 709.64,-29.85 708.45,-29.47"/>
<polygon fill="#63b8ff" stroke="#63b8ff" points="709.97,-26.31 699.39,-25.92 707.42,-32.83 709.97,-26.31"/>
</a>
</g>
</g>
<!-- Node14 -->
<g id="Node000014" class="node">
<title>Node14</title>
<g id="a_Node000014"><a xlink:title=" ">
<polygon fill="#e0e0e0" stroke="#999999" points="780.75,-24.88 721.25,-24.88 721.25,-5.63 780.75,-5.63 780.75,-24.88"/>
<text text-anchor="middle" x="751" y="-11.38" font-family="Helvetica,sans-Serif" font-size="10.00">filesystem</text>
</a>
</g>
</g>
<!-- Node3&#45;&gt;Node14 -->
<g id="edge13_Node000003_Node000014" class="edge">
<title>Node3&#45;&gt;Node14</title>
<g id="a_edge13_Node000003_Node000014"><a xlink:title=" ">
<path fill="none" stroke="#63b8ff" d="M1252.83,-75.29C1156.63,-74.47 954.72,-67.94 789,-30.5 786.97,-30.04 784.91,-29.5 782.85,-28.9"/>
<polygon fill="#63b8ff" stroke="#63b8ff" points="784.02,-25.6 773.43,-25.76 781.81,-32.25 784.02,-25.6"/>
</a>
</g>
</g>
<!-- Node15 -->
<g id="Node000015" class="node">
<title>Node15</title>
<g id="a_Node000015"><a xlink:title=" ">
<polygon fill="#e0e0e0" stroke="#999999" points="847.5,-24.88 798.5,-24.88 798.5,-5.63 847.5,-5.63 847.5,-24.88"/>
<text text-anchor="middle" x="823" y="-11.38" font-family="Helvetica,sans-Serif" font-size="10.00">fstream</text>
</a>
</g>
</g>
<!-- Node3&#45;&gt;Node15 -->
<g id="edge14_Node000003_Node000015" class="edge">
<title>Node3&#45;&gt;Node15</title>
<g id="a_edge14_Node000003_Node000015"><a xlink:title=" ">
<path fill="none" stroke="#63b8ff" d="M1252.76,-74.92C1166.36,-73.41 996.33,-65.73 857,-30.5 855.41,-30.1 853.8,-29.63 852.18,-29.12"/>
<polygon fill="#63b8ff" stroke="#63b8ff" points="853.73,-25.96 843.14,-25.79 851.31,-32.53 853.73,-25.96"/>
</a>
</g>
</g>
<!-- Node16 -->
<g id="Node000016" class="node">
<title>Node16</title>
<g id="a_Node000016"><a xlink:title=" ">
<polygon fill="#e0e0e0" stroke="#999999" points="924,-24.88 866,-24.88 866,-5.63 924,-5.63 924,-24.88"/>
<text text-anchor="middle" x="895" y="-11.38" font-family="Helvetica,sans-Serif" font-size="10.00">functional</text>
</a>
</g>
</g>
<!-- Node3&#45;&gt;Node16 -->
<g id="edge15_Node000003_Node000016" class="edge">
<title>Node3&#45;&gt;Node16</title>
<g id="a_edge15_Node000003_Node000016"><a xlink:title=" ">
<path fill="none" stroke="#63b8ff" d="M1252.51,-72.66C1178.29,-68.45 1044.3,-57.56 933,-30.5 931.12,-30.04 929.2,-29.52 927.28,-28.95"/>
<polygon fill="#63b8ff" stroke="#63b8ff" points="928.45,-25.65 917.86,-25.79 926.22,-32.29 928.45,-25.65"/>
</a>
</g>
</g>
<!-- Node17 -->
<g id="Node000017" class="node">
<title>Node17</title>
<g id="a_Node000017"><a xlink:title=" ">
<polygon fill="#e0e0e0" stroke="#999999" points="991.88,-24.88 942.12,-24.88 942.12,-5.63 991.88,-5.63 991.88,-24.88"/>
<text text-anchor="middle" x="967" y="-11.38" font-family="Helvetica,sans-Serif" font-size="10.00">iomanip</text>
</a>
</g>
</g>
<!-- Node3&#45;&gt;Node17 -->
<g id="edge16_Node000003_Node000017" class="edge">
<title>Node3&#45;&gt;Node17</title>
<g id="a_edge16_Node000003_Node000017"><a xlink:title=" ">
<path fill="none" stroke="#63b8ff" d="M1252.76,-71.27C1190.34,-66 1087.04,-54.35 1001,-30.5 999.61,-30.12 998.21,-29.69 996.79,-29.23"/>
<polygon fill="#63b8ff" stroke="#63b8ff" points="998.13,-25.99 987.54,-25.78 995.69,-32.55 998.13,-25.99"/>
</a>
</g>
</g>
<!-- Node18 -->
<g id="Node000018" class="node">
<title>Node18</title>
<g id="a_Node000018"><a xlink:title=" ">
<polygon fill="#e0e0e0" stroke="#999999" points="1058.12,-24.88 1009.88,-24.88 1009.88,-5.63 1058.12,-5.63 1058.12,-24.88"/>
<text text-anchor="middle" x="1034" y="-11.38" font-family="Helvetica,sans-Serif" font-size="10.00">istream</text>
</a>
</g>
</g>
<!-- Node3&#45;&gt;Node18 -->
<g id="edge17_Node000003_Node000018" class="edge">
<title>Node3&#45;&gt;Node18</title>
<g id="a_edge17_Node000003_Node000018"><a xlink:title=" ">
<path fill="none" stroke="#63b8ff" d="M1252.88,-68.43C1203.28,-61.65 1129.34,-49.44 1067,-30.5 1065.84,-30.15 1064.66,-29.76 1063.47,-29.36"/>
<polygon fill="#63b8ff" stroke="#63b8ff" points="1064.92,-26.17 1054.33,-25.83 1062.4,-32.7 1064.92,-26.17"/>
</a>
</g>
</g>
<!-- Node19 -->
<g id="Node000019" class="node">
<title>Node19</title>
<g id="a_Node000019"><a xlink:title=" ">
<polygon fill="#e0e0e0" stroke="#999999" points="1115.62,-24.88 1076.38,-24.88 1076.38,-5.63 1115.62,-5.63 1115.62,-24.88"/>
<text text-anchor="middle" x="1096" y="-11.38" font-family="Helvetica,sans-Serif" font-size="10.00">limits</text>
</a>
</g>
</g>
<!-- Node3&#45;&gt;Node19 -->
<g id="edge18_Node000003_Node000019" class="edge">
<title>Node3&#45;&gt;Node19</title>
<g id="a_edge18_Node000003_Node000019"><a xlink:title=" ">
<path fill="none" stroke="#63b8ff" d="M1258.93,-66.07C1221.43,-58.55 1169.2,-46.5 1125,-30.5 1124.37,-30.27 1123.74,-30.04 1123.11,-29.79"/>
<polygon fill="#63b8ff" stroke="#63b8ff" points="1124.86,-26.74 1114.29,-25.93 1122.05,-33.15 1124.86,-26.74"/>
</a>
</g>
</g>
<!-- Node20 -->
<g id="Node000020" class="node">
<title>Node20</title>
<g id="a_Node000020"><a xlink:title=" ">
<polygon fill="#e0e0e0" stroke="#999999" points="1168.38,-24.88 1133.62,-24.88 1133.62,-5.63 1168.38,-5.63 1168.38,-24.88"/>
<text text-anchor="middle" x="1151" y="-11.38" font-family="Helvetica,sans-Serif" font-size="10.00">map</text>
</a>
</g>
</g>
<!-- Node3&#45;&gt;Node20 -->
<g id="edge19_Node000003_Node000020" class="edge">
<title>Node3&#45;&gt;Node20</title>
<g id="a_edge19_Node000003_Node000020"><a xlink:title=" ">
<path fill="none" stroke="#63b8ff" d="M1277.78,-66.01C1250.91,-57.81 1211.32,-44.86 1178,-30.5 1177.77,-30.4 1177.55,-30.3 1177.32,-30.21"/>
<polygon fill="#63b8ff" stroke="#63b8ff" points="1178.97,-27.11 1168.44,-25.92 1175.92,-33.42 1178.97,-27.11"/>
</a>
</g>
</g>
<!-- Node21 -->
<g id="Node000021" class="node">
<title>Node21</title>
<g id="a_Node000021"><a xlink:title=" ">
<polygon fill="#e0e0e0" stroke="#999999" points="1237.25,-24.88 1186.75,-24.88 1186.75,-5.63 1237.25,-5.63 1237.25,-24.88"/>
<text text-anchor="middle" x="1212" y="-11.38" font-family="Helvetica,sans-Serif" font-size="10.00">memory</text>
</a>
</g>
</g>
<!-- Node3&#45;&gt;Node21 -->
<g id="edge20_Node000003_Node000021" class="edge">
<title>Node3&#45;&gt;Node21</title>
<g id="a_edge20_Node000003_Node000021"><a xlink:title=" ">
<path fill="none" stroke="#63b8ff" d="M1294.27,-66.18C1278.96,-56.89 1254.73,-42.19 1236.53,-31.14"/>
<polygon fill="#63b8ff" stroke="#63b8ff" points="1238.53,-28.26 1228.16,-26.06 1234.9,-34.24 1238.53,-28.26"/>
</a>
</g>
</g>
<!-- Node22 -->
<g id="Node000022" class="node">
<title>Node22</title>
<g id="a_Node000022"><a xlink:title=" ">
<polygon fill="#e0e0e0" stroke="#999999" points="1297.12,-24.88 1254.88,-24.88 1254.88,-5.63 1297.12,-5.63 1297.12,-24.88"/>
<text text-anchor="middle" x="1276" y="-11.38" font-family="Helvetica,sans-Serif" font-size="10.00">mutex</text>
</a>
</g>
</g>
<!-- Node3&#45;&gt;Node22 -->
<g id="edge21_Node000003_Node000022" class="edge">
<title>Node3&#45;&gt;Node22</title>
<g id="a_edge21_Node000003_Node000022"><a xlink:title=" ">
<path fill="none" stroke="#63b8ff" d="M1303.99,-66.18C1299.38,-57.97 1292.41,-45.53 1286.58,-35.12"/>
<polygon fill="#63b8ff" stroke="#63b8ff" points="1289.74,-33.61 1281.8,-26.6 1283.64,-37.03 1289.74,-33.61"/>
</a>
</g>
</g>
<!-- Node23 -->
<g id="Node000023" class="node">
<title>Node23</title>
<g id="a_Node000023"><a xlink:title=" ">
<polygon fill="#e0e0e0" stroke="#999999" points="1368.75,-24.88 1315.25,-24.88 1315.25,-5.63 1368.75,-5.63 1368.75,-24.88"/>
<text text-anchor="middle" x="1342" y="-11.38" font-family="Helvetica,sans-Serif" font-size="10.00">numbers</text>
</a>
</g>
</g>
<!-- Node3&#45;&gt;Node23 -->
<g id="edge22_Node000003_Node000023" class="edge">
<title>Node3&#45;&gt;Node23</title>
<g id="a_edge22_Node000003_Node000023"><a xlink:title=" ">
<path fill="none" stroke="#63b8ff" d="M1314.01,-66.18C1318.62,-57.97 1325.59,-45.53 1331.42,-35.12"/>
<polygon fill="#63b8ff" stroke="#63b8ff" points="1334.36,-37.03 1336.2,-26.6 1328.26,-33.61 1334.36,-37.03"/>
</a>
</g>
</g>
<!-- Node24 -->
<g id="Node000024" class="node">
<title>Node24</title>
<g id="a_Node000024"><a xlink:title=" ">
<polygon fill="#e0e0e0" stroke="#999999" points="1437.25,-24.88 1386.75,-24.88 1386.75,-5.63 1437.25,-5.63 1437.25,-24.88"/>
<text text-anchor="middle" x="1412" y="-11.38" font-family="Helvetica,sans-Serif" font-size="10.00">numeric</text>
</a>
</g>
</g>
<!-- Node3&#45;&gt;Node24 -->
<g id="edge23_Node000003_Node000024" class="edge">
<title>Node3&#45;&gt;Node24</title>
<g id="a_edge23_Node000003_Node000024"><a xlink:title=" ">
<path fill="none" stroke="#63b8ff" d="M1324.64,-66.18C1340.98,-56.85 1366.87,-42.05 1386.23,-30.98"/>
<polygon fill="#63b8ff" stroke="#63b8ff" points="1387.95,-34.03 1394.9,-26.03 1384.48,-27.95 1387.95,-34.03"/>
</a>
</g>
</g>
<!-- Node25 -->
<g id="Node000025" class="node">
<title>Node25</title>
<g id="a_Node000025"><a xlink:title=" ">
<polygon fill="#e0e0e0" stroke="#999999" points="1504.88,-24.88 1455.12,-24.88 1455.12,-5.63 1504.88,-5.63 1504.88,-24.88"/>
<text text-anchor="middle" x="1480" y="-11.38" font-family="Helvetica,sans-Serif" font-size="10.00">optional</text>
</a>
</g>
</g>
<!-- Node3&#45;&gt;Node25 -->
<g id="edge24_Node000003_Node000025" class="edge">
<title>Node3&#45;&gt;Node25</title>
<g id="a_edge24_Node000003_Node000025"><a xlink:title=" ">
<path fill="none" stroke="#63b8ff" d="M1339.18,-66.08C1367.1,-57.52 1409.66,-44.01 1446,-30.5 1446.94,-30.15 1447.9,-29.79 1448.87,-29.42"/>
<polygon fill="#63b8ff" stroke="#63b8ff" points="1449.86,-32.79 1457.84,-25.83 1447.26,-26.29 1449.86,-32.79"/>
</a>
</g>
</g>
<!-- Node26 -->
<g id="Node000026" class="node">
<title>Node26</title>
<g id="a_Node000026"><a xlink:title=" ">
<polygon fill="#e0e0e0" stroke="#999999" points="1574.62,-24.88 1523.38,-24.88 1523.38,-5.63 1574.62,-5.63 1574.62,-24.88"/>
<text text-anchor="middle" x="1549" y="-11.38" font-family="Helvetica,sans-Serif" font-size="10.00">ostream</text>
</a>
</g>
</g>
<!-- Node3&#45;&gt;Node26 -->
<g id="edge25_Node000003_Node000026" class="edge">
<title>Node3&#45;&gt;Node26</title>
<g id="a_edge25_Node000003_Node000026"><a xlink:title=" ">
<path fill="none" stroke="#63b8ff" d="M1362.75,-66.05C1404.48,-58.37 1463.55,-46.13 1514,-30.5 1515.34,-30.08 1516.7,-29.64 1518.07,-29.17"/>
<polygon fill="#63b8ff" stroke="#63b8ff" points="1518.92,-32.59 1527.07,-25.82 1516.48,-26.03 1518.92,-32.59"/>
</a>
</g>
</g>
<!-- Node27 -->
<g id="Node000027" class="node">
<title>Node27</title>
<g id="a_Node000027"><a xlink:title=" ">
<polygon fill="#e0e0e0" stroke="#999999" points="1669.38,-24.88 1592.62,-24.88 1592.62,-5.63 1669.38,-5.63 1669.38,-24.88"/>
<text text-anchor="middle" x="1631" y="-11.38" font-family="Helvetica,sans-Serif" font-size="10.00">shared_mutex</text>
</a>
</g>
</g>
<!-- Node3&#45;&gt;Node27 -->
<g id="edge26_Node000003_Node000027" class="edge">
<title>Node3&#45;&gt;Node27</title>
<g id="a_edge26_Node000003_Node000027"><a xlink:title=" ">
<path fill="none" stroke="#63b8ff" d="M1365.26,-68.23C1421.14,-60.87 1509.08,-47.85 1584,-30.5 1586.76,-29.86 1589.6,-29.15 1592.45,-28.39"/>
<polygon fill="#63b8ff" stroke="#63b8ff" points="1593.2,-31.81 1601.87,-25.72 1591.3,-25.08 1593.2,-31.81"/>
</a>
</g>
</g>
<!-- Node28 -->
<g id="Node000028" class="node">
<title>Node28</title>
<g id="a_Node000028"><a xlink:title=" ">
<polygon fill="#e0e0e0" stroke="#999999" points="1724.5,-24.88 1687.5,-24.88 1687.5,-5.63 1724.5,-5.63 1724.5,-24.88"/>
<text text-anchor="middle" x="1706" y="-11.38" font-family="Helvetica,sans-Serif" font-size="10.00">span</text>
</a>
</g>
</g>
<!-- Node3&#45;&gt;Node28 -->
<g id="edge27_Node000003_Node000028" class="edge">
<title>Node3&#45;&gt;Node28</title>
<g id="a_edge27_Node000003_Node000028"><a xlink:title=" ">
<path fill="none" stroke="#63b8ff" d="M1365.26,-74.39C1438.72,-72.07 1570.59,-63.2 1678,-30.5 1678.8,-30.26 1679.61,-29.99 1680.42,-29.7"/>
<polygon fill="#63b8ff" stroke="#63b8ff" points="1681.54,-33.03 1689.32,-25.85 1678.75,-26.61 1681.54,-33.03"/>
</a>
</g>
</g>
<!-- Node29 -->
<g id="Node000029" class="node">
<title>Node29</title>
<g id="a_Node000029"><a xlink:title=" ">
<polygon fill="#e0e0e0" stroke="#999999" points="1793.62,-24.88 1742.38,-24.88 1742.38,-5.63 1793.62,-5.63 1793.62,-24.88"/>
<text text-anchor="middle" x="1768" y="-11.38" font-family="Helvetica,sans-Serif" font-size="10.00">sstream</text>
</a>
</g>
</g>
<!-- Node3&#45;&gt;Node29 -->
<g id="edge28_Node000003_Node000029" class="edge">
<title>Node3&#45;&gt;Node29</title>
<g id="a_edge28_Node000003_Node000029"><a xlink:title=" ">
<path fill="none" stroke="#63b8ff" d="M1365.44,-74.21C1447.52,-71.76 1604.13,-62.82 1733,-30.5 1734.63,-30.09 1736.29,-29.62 1737.94,-29.11"/>
<polygon fill="#63b8ff" stroke="#63b8ff" points="1739.05,-32.43 1747.28,-25.75 1736.69,-25.84 1739.05,-32.43"/>
</a>
</g>
</g>
<!-- Node30 -->
<g id="Node000030" class="node">
<title>Node30</title>
<g id="a_Node000030"><a xlink:title=" ">
<polygon fill="#e0e0e0" stroke="#999999" points="1870,-24.88 1812,-24.88 1812,-5.63 1870,-5.63 1870,-24.88"/>
<text text-anchor="middle" x="1841" y="-11.38" font-family="Helvetica,sans-Serif" font-size="10.00">stdexcept</text>
</a>
</g>
</g>
<!-- Node3&#45;&gt;Node30 -->
<g id="edge29_Node000003_Node000030" class="edge">
<title>Node3&#45;&gt;Node30</title>
<g id="a_edge29_Node000003_Node000030"><a xlink:title=" ">
<path fill="none" stroke="#63b8ff" d="M1365.33,-74.92C1457.85,-73.51 1647.27,-66.05 1803,-30.5 1805.02,-30.04 1807.09,-29.49 1809.15,-28.89"/>
<polygon fill="#63b8ff" stroke="#63b8ff" points="1810.19,-32.23 1818.57,-25.75 1807.98,-25.59 1810.19,-32.23"/>
</a>
</g>
</g>
<!-- Node31 -->
<g id="Node000031" class="node">
<title>Node31</title>
<g id="a_Node000031"><a xlink:title=" ">
<polygon fill="#e0e0e0" stroke="#999999" points="1935.75,-24.88 1888.25,-24.88 1888.25,-5.63 1935.75,-5.63 1935.75,-24.88"/>
<text text-anchor="middle" x="1912" y="-11.38" font-family="Helvetica,sans-Serif" font-size="10.00">stdint.h</text>
</a>
</g>
</g>
<!-- Node3&#45;&gt;Node31 -->
<g id="edge30_Node000003_Node000031" class="edge">
<title>Node3&#45;&gt;Node31</title>
<g id="a_edge30_Node000003_Node000031"><a xlink:title=" ">
<path fill="none" stroke="#63b8ff" d="M1365.06,-73.08C1488.95,-68.18 1782.65,-54.37 1879,-30.5 1880.4,-30.15 1881.81,-29.75 1883.23,-29.31"/>
<polygon fill="#63b8ff" stroke="#63b8ff" points="1884.31,-32.65 1892.45,-25.87 1881.86,-26.09 1884.31,-32.65"/>
</a>
</g>
</g>
<!-- Node32 -->
<g id="Node000032" class="node">
<title>Node32</title>
<g id="a_Node000032"><a xlink:title=" ">
<polygon fill="#e0e0e0" stroke="#999999" points="1994,-24.88 1954,-24.88 1954,-5.63 1994,-5.63 1994,-24.88"/>
<text text-anchor="middle" x="1974" y="-11.38" font-family="Helvetica,sans-Serif" font-size="10.00">string</text>
</a>
</g>
</g>
<!-- Node3&#45;&gt;Node32 -->
<g id="edge31_Node000003_Node000032" class="edge">
<title>Node3&#45;&gt;Node32</title>
<g id="a_edge31_Node000003_Node000032"><a xlink:title=" ">
<path fill="none" stroke="#63b8ff" d="M1365.05,-73.95C1499.34,-70.7 1836.39,-59.79 1945,-30.5 1946,-30.23 1947,-29.93 1948,-29.6"/>
<polygon fill="#63b8ff" stroke="#63b8ff" points="1949.19,-32.89 1957.08,-25.82 1946.5,-26.43 1949.19,-32.89"/>
</a>
</g>
</g>
<!-- Node33 -->
<g id="Node000033" class="node">
<title>Node33</title>
<g id="a_Node000033"><a xlink:title=" ">
<polygon fill="#e0e0e0" stroke="#999999" points="2055.5,-24.88 2012.5,-24.88 2012.5,-5.63 2055.5,-5.63 2055.5,-24.88"/>
<text text-anchor="middle" x="2034" y="-11.38" font-family="Helvetica,sans-Serif" font-size="10.00">thread</text>
</a>
</g>
</g>
<!-- Node3&#45;&gt;Node33 -->
<g id="edge32_Node000003_Node000033" class="edge">
<title>Node3&#45;&gt;Node33</title>
<g id="a_edge32_Node000003_Node000033"><a xlink:title=" ">
<path fill="none" stroke="#63b8ff" d="M1365.32,-74.15C1508.35,-71.25 1882.73,-60.9 2003,-30.5 2004.21,-30.2 2005.42,-29.84 2006.64,-29.46"/>
<polygon fill="#63b8ff" stroke="#63b8ff" points="2007.92,-32.72 2015.95,-25.81 2005.36,-26.2 2007.92,-32.72"/>
</a>
</g>
</g>
<!-- Node34 -->
<g id="Node000034" class="node">
<title>Node34</title>
<g id="a_Node000034"><a xlink:title=" ">
<polygon fill="#e0e0e0" stroke="#999999" points="2134.5,-24.88 2073.5,-24.88 2073.5,-5.63 2134.5,-5.63 2134.5,-24.88"/>
<text text-anchor="middle" x="2104" y="-11.38" font-family="Helvetica,sans-Serif" font-size="10.00">type_traits</text>
</a>
</g>
</g>
<!-- Node3&#45;&gt;Node34 -->
<g id="edge33_Node000003_Node000034" class="edge">
<title>Node3&#45;&gt;Node34</title>
<g id="a_edge33_Node000003_Node000034"><a xlink:title=" ">
<path fill="none" stroke="#63b8ff" d="M1365.38,-73.86C1516.89,-70.12 1930.42,-57.67 2064,-30.5 2066.47,-30 2068.98,-29.38 2071.5,-28.68"/>
<polygon fill="#63b8ff" stroke="#63b8ff" points="2072.4,-32.06 2080.87,-25.69 2070.28,-25.39 2072.4,-32.06"/>
</a>
</g>
</g>
<!-- Node35 -->
<g id="Node000035" class="node">
<title>Node35</title>
<g id="a_Node000035"><a xlink:title=" ">
<polygon fill="#e0e0e0" stroke="#999999" points="2229.75,-24.88 2152.25,-24.88 2152.25,-5.63 2229.75,-5.63 2229.75,-24.88"/>
<text text-anchor="middle" x="2191" y="-11.38" font-family="Helvetica,sans-Serif" font-size="10.00">unordered_set</text>
</a>
</g>
</g>
<!-- Node3&#45;&gt;Node35 -->
<g id="edge34_Node000003_Node000035" class="edge">
<title>Node3&#45;&gt;Node35</title>
<g id="a_edge34_Node000003_Node000035"><a xlink:title=" ">
<path fill="none" stroke="#63b8ff" d="M1365.28,-73.84C1527.32,-69.86 1992.88,-56.43 2143,-30.5 2146.4,-29.91 2149.9,-29.16 2153.39,-28.32"/>
<polygon fill="#63b8ff" stroke="#63b8ff" points="2154.15,-31.74 2162.89,-25.76 2152.33,-24.98 2154.15,-31.74"/>
</a>
</g>
</g>
<!-- Node36 -->
<g id="Node000036" class="node">
<title>Node36</title>
<g id="a_Node000036"><a xlink:title=" ">
<polygon fill="#e0e0e0" stroke="#999999" points="2292.62,-24.88 2247.38,-24.88 2247.38,-5.63 2292.62,-5.63 2292.62,-24.88"/>
<text text-anchor="middle" x="2270" y="-11.38" font-family="Helvetica,sans-Serif" font-size="10.00">variant</text>
</a>
</g>
</g>
<!-- Node3&#45;&gt;Node36 -->
<g id="edge35_Node000003_Node000036" class="edge">
<title>Node3&#45;&gt;Node36</title>
<g id="a_edge35_Node000003_Node000036"><a xlink:title=" ">
<path fill="none" stroke="#63b8ff" d="M1365.36,-75.23C1540.25,-75.1 2071.96,-71.27 2239,-30.5 2240.21,-30.21 2241.43,-29.86 2242.65,-29.48"/>
<polygon fill="#63b8ff" stroke="#63b8ff" points="2243.91,-32.75 2251.96,-25.86 2241.37,-26.22 2243.91,-32.75"/>
</a>
</g>
</g>
<!-- Node37 -->
<g id="Node000037" class="node">
<title>Node37</title>
<g id="a_Node000037"><a xlink:title=" ">
<polygon fill="#e0e0e0" stroke="#999999" points="2353.5,-24.88 2310.5,-24.88 2310.5,-5.63 2353.5,-5.63 2353.5,-24.88"/>
<text text-anchor="middle" x="2332" y="-11.38" font-family="Helvetica,sans-Serif" font-size="10.00">vector</text>
</a>
</g>
</g>
<!-- Node3&#45;&gt;Node37 -->
<g id="edge36_Node000003_Node000037" class="edge">
<title>Node3&#45;&gt;Node37</title>
<g id="a_edge36_Node000003_Node000037"><a xlink:title=" ">
<path fill="none" stroke="#63b8ff" d="M1365.31,-75.52C1547.97,-76.33 2122.62,-75.19 2302,-30.5 2303.17,-30.21 2304.36,-29.87 2305.54,-29.49"/>
<polygon fill="#63b8ff" stroke="#63b8ff" points="2306.55,-32.85 2314.53,-25.88 2303.95,-26.36 2306.55,-32.85"/>
</a>
</g>
</g>
<!-- Node38 -->
<g id="Node000038" class="node">
<title>Node38</title>
<g id="a_Node000038"><a xlink:title=" ">
<polygon fill="#e0e0e0" stroke="#999999" points="2420.12,-24.88 2371.88,-24.88 2371.88,-5.63 2420.12,-5.63 2420.12,-24.88"/>
<text text-anchor="middle" x="2396" y="-11.38" font-family="Helvetica,sans-Serif" font-size="10.00">random</text>
</a>
</g>
</g>
<!-- Node3&#45;&gt;Node38 -->
<g id="edge37_Node000003_Node000038" class="edge">
<title>Node3&#45;&gt;Node38</title>
<g id="a_edge37_Node000003_Node000038"><a xlink:title=" ">
<path fill="none" stroke="#63b8ff" d="M1365.28,-75.35C1554.94,-75.71 2169.58,-73.45 2362,-30.5 2363.64,-30.13 2365.3,-29.69 2366.96,-29.2"/>
<polygon fill="#63b8ff" stroke="#63b8ff" points="2368.05,-32.53 2376.26,-25.83 2365.67,-25.94 2368.05,-32.53"/>
</a>
</g>
</g>
<!-- Node39 -->
<g id="Node000039" class="node">
<title>Node39</title>
<g id="a_Node000039"><a xlink:href="../../de/d43/common-typedefs_8hpp.html" target="_top" xlink:title=" ">
<polygon fill="white" stroke="#666666" points="2549.62,-24.88 2438.38,-24.88 2438.38,-5.63 2549.62,-5.63 2549.62,-24.88"/>
<text text-anchor="middle" x="2494" y="-11.38" font-family="Helvetica,sans-Serif" font-size="10.00">common&#45;typedefs.hpp</text>
</a>
</g>
</g>
<!-- Node3&#45;&gt;Node39 -->
<g id="edge38_Node000003_Node000039" class="edge">
<title>Node3&#45;&gt;Node39</title>
<g id="a_edge38_Node000003_Node000039"><a xlink:title=" ">
<path fill="none" stroke="#63b8ff" d="M1365.16,-74.2C1561.97,-70.73 2219.82,-57.38 2429,-30.5 2434.94,-29.74 2441.15,-28.7 2447.26,-27.52"/>
<polygon fill="#63b8ff" stroke="#63b8ff" points="2447.52,-31.04 2456.61,-25.61 2446.12,-24.19 2447.52,-31.04"/>
</a>
</g>
</g>
<!-- Node40 -->
<g id="Node000040" class="node">
<title>Node40</title>
<g id="a_Node000040"><a xlink:href="../../d4/d78/math_8hpp.html" target="_top" xlink:title=" ">
<polygon fill="white" stroke="#666666" points="2644.75,-24.88 2567.25,-24.88 2567.25,-5.63 2644.75,-5.63 2644.75,-24.88"/>
<text text-anchor="middle" x="2606" y="-11.38" font-family="Helvetica,sans-Serif" font-size="10.00">core/math.hpp</text>
</a>
</g>
</g>
<!-- Node3&#45;&gt;Node40 -->
<g id="edge39_Node000003_Node000040" class="edge">
<title>Node3&#45;&gt;Node40</title>
<g id="a_edge39_Node000003_Node000040"><a xlink:title=" ">
<path fill="none" stroke="#63b8ff" d="M1365.45,-75.04C1577.27,-74.44 2324.58,-69.54 2559,-30.5 2562.42,-29.93 2565.94,-29.18 2569.45,-28.33"/>
<polygon fill="#63b8ff" stroke="#63b8ff" points="2570.25,-31.73 2578.97,-25.71 2568.4,-24.98 2570.25,-31.73"/>
</a>
</g>
</g>
<!-- Node40&#45;&gt;Node40 -->
<g id="edge40_Node000040_Node000040" class="edge">
<title>Node40&#45;&gt;Node40</title>
<g id="a_edge40_Node000040_Node000040"><a xlink:title=" ">
<path fill="none" stroke="#63b8ff" d="M2628.73,-25.32C2645.67,-28.83 2662.75,-25.48 2662.75,-15.25 2662.75,-7.34 2652.53,-3.54 2640.06,-3.85"/>
<polygon fill="#63b8ff" stroke="#63b8ff" points="2639.75,-0.37 2630.23,-5.01 2640.57,-7.32 2639.75,-0.37"/>
</a>
</g>
</g>
<!-- Node42 -->
<g id="Node000042" class="node">
<title>Node42</title>
<g id="a_Node000042"><a xlink:href="../../d8/d2a/win-def_8hpp.html" target="_top" xlink:title=" ">
<polygon fill="white" stroke="#666666" points="2746.75,-24.88 2681.25,-24.88 2681.25,-5.63 2746.75,-5.63 2746.75,-24.88"/>
<text text-anchor="middle" x="2714" y="-11.38" font-family="Helvetica,sans-Serif" font-size="10.00">win&#45;def.hpp</text>
</a>
</g>
</g>
<!-- Node41&#45;&gt;Node42 -->
<g id="edge42_Node000041_Node000042" class="edge">
<title>Node41&#45;&gt;Node42</title>
<g id="a_edge42_Node000041_Node000042"><a xlink:title=" ">
<path fill="none" stroke="#63b8ff" d="M2932.74,-67.44C2886.89,-59.7 2816.21,-46.61 2756,-30.5 2753.88,-29.93 2751.71,-29.32 2749.53,-28.67"/>
<polygon fill="#63b8ff" stroke="#63b8ff" points="2750.74,-25.38 2740.15,-25.69 2748.63,-32.05 2750.74,-25.38"/>
</a>
</g>
</g>
<!-- Node43 -->
<g id="Node000043" class="node">
<title>Node43</title>
<g id="a_Node000043"><a xlink:title=" ">
<polygon fill="#e0e0e0" stroke="#999999" points="2845.25,-24.88 2764.75,-24.88 2764.75,-5.63 2845.25,-5.63 2845.25,-24.88"/>
<text text-anchor="middle" x="2805" y="-11.38" font-family="Helvetica,sans-Serif" font-size="10.00">spdlog/async.h</text>
</a>
</g>
</g>
<!-- Node41&#45;&gt;Node43 -->
<g id="edge43_Node000041_Node000043" class="edge">
<title>Node41&#45;&gt;Node43</title>
<g id="a_edge43_Node000041_Node000043"><a xlink:title=" ">
<path fill="none" stroke="#63b8ff" d="M2953.89,-66.05C2924.17,-56.11 2876.29,-40.1 2842.88,-28.92"/>
<polygon fill="#63b8ff" stroke="#63b8ff" points="2844.17,-25.66 2833.58,-25.81 2841.95,-32.3 2844.17,-25.66"/>
</a>
</g>
</g>
<!-- Node44 -->
<g id="Node000044" class="node">
<title>Node44</title>
<g id="a_Node000044"><a xlink:title=" ">
<polygon fill="#e0e0e0" stroke="#999999" points="2976.38,-30.5 2863.62,-30.5 2863.62,0 2976.38,0 2976.38,-30.5"/>
<text text-anchor="start" x="2871.62" y="-17" font-family="Helvetica,sans-Serif" font-size="10.00">spdlog/sinks/ansicolor</text>
<text text-anchor="middle" x="2920" y="-5.75" font-family="Helvetica,sans-Serif" font-size="10.00">_sink.h</text>
</a>
</g>
</g>
<!-- Node41&#45;&gt;Node44 -->
<g id="edge44_Node000041_Node000044" class="edge">
<title>Node41&#45;&gt;Node44</title>
<g id="a_edge44_Node000041_Node000044"><a xlink:title=" ">
<path fill="none" stroke="#63b8ff" d="M2971.74,-66.18C2964.13,-58.84 2953.03,-48.13 2943.06,-38.51"/>
<polygon fill="#63b8ff" stroke="#63b8ff" points="2945.77,-36.26 2936.15,-31.83 2940.91,-41.3 2945.77,-36.26"/>
</a>
</g>
</g>
<!-- Node45 -->
<g id="Node000045" class="node">
<title>Node45</title>
<g id="a_Node000045"><a xlink:title=" ">
<polygon fill="#e0e0e0" stroke="#999999" points="3091.5,-30.5 2994.5,-30.5 2994.5,0 3091.5,0 3091.5,-30.5"/>
<text text-anchor="start" x="3002.5" y="-17" font-family="Helvetica,sans-Serif" font-size="10.00">spdlog/sinks/basic</text>
<text text-anchor="middle" x="3043" y="-5.75" font-family="Helvetica,sans-Serif" font-size="10.00">_file_sink.h</text>
</a>
</g>
</g>
<!-- Node41&#45;&gt;Node45 -->
<g id="edge45_Node000041_Node000045" class="edge">
<title>Node41&#45;&gt;Node45</title>
<g id="a_edge45_Node000041_Node000045"><a xlink:title=" ">
<path fill="none" stroke="#63b8ff" d="M2990.42,-66.18C2998.14,-58.84 3009.42,-48.13 3019.56,-38.51"/>
<polygon fill="#63b8ff" stroke="#63b8ff" points="3021.76,-41.25 3026.6,-31.82 3016.94,-36.17 3021.76,-41.25"/>
</a>
</g>
</g>
<!-- Node46 -->
<g id="Node000046" class="node">
<title>Node46</title>
<g id="a_Node000046"><a xlink:title=" ">
<polygon fill="#e0e0e0" stroke="#999999" points="3210.38,-30.5 3109.62,-30.5 3109.62,0 3210.38,0 3210.38,-30.5"/>
<text text-anchor="start" x="3117.62" y="-17" font-family="Helvetica,sans-Serif" font-size="10.00">spdlog/sinks/stdout</text>
<text text-anchor="middle" x="3160" y="-5.75" font-family="Helvetica,sans-Serif" font-size="10.00">_color_sinks.h</text>
</a>
</g>
</g>
<!-- Node41&#45;&gt;Node46 -->
<g id="edge46_Node000041_Node000046" class="edge">
<title>Node41&#45;&gt;Node46</title>
<g id="a_edge46_Node000041_Node000046"><a xlink:title=" ">
<path fill="none" stroke="#63b8ff" d="M3008.58,-66.05C3034.13,-57.65 3072.89,-44.9 3104.79,-34.41"/>
<polygon fill="#63b8ff" stroke="#63b8ff" points="3105.48,-37.87 3113.89,-31.42 3103.29,-31.22 3105.48,-37.87"/>
</a>
</g>
</g>
<!-- Node47 -->
<g id="Node000047" class="node">
<title>Node47</title>
<g id="a_Node000047"><a xlink:title=" ">
<polygon fill="#e0e0e0" stroke="#999999" points="3311.75,-24.88 3228.25,-24.88 3228.25,-5.63 3311.75,-5.63 3311.75,-24.88"/>
<text text-anchor="middle" x="3270" y="-11.38" font-family="Helvetica,sans-Serif" font-size="10.00">spdlog/spdlog.h</text>
</a>
</g>
</g>
<!-- Node41&#45;&gt;Node47 -->
<g id="edge47_Node000041_Node000047" class="edge">
<title>Node41&#45;&gt;Node47</title>
<g id="a_edge47_Node000041_Node000047"><a xlink:title=" ">
<path fill="none" stroke="#63b8ff" d="M3029.58,-67.29C3077.86,-59.21 3153.9,-45.67 3219,-30.5 3221.96,-29.81 3225.01,-29.06 3228.07,-28.28"/>
<polygon fill="#63b8ff" stroke="#63b8ff" points="3228.87,-31.69 3237.63,-25.74 3227.07,-24.92 3228.87,-31.69"/>
</a>
</g>
</g>
<!-- Node48 -->
<g id="Node000048" class="node">
<title>Node48</title>
<g id="a_Node000048"><a xlink:href="../../d4/dfc/win-undef_8hpp.html" target="_top" xlink:title=" ">
<polygon fill="white" stroke="#666666" points="3406,-24.88 3330,-24.88 3330,-5.63 3406,-5.63 3406,-24.88"/>
<text text-anchor="middle" x="3368" y="-11.38" font-family="Helvetica,sans-Serif" font-size="10.00">win&#45;undef.hpp</text>
</a>
</g>
</g>
<!-- Node41&#45;&gt;Node48 -->
<g id="edge48_Node000041_Node000048" class="edge">
<title>Node41&#45;&gt;Node48</title>
<g id="a_edge48_Node000041_Node000048"><a xlink:title=" ">
<path fill="none" stroke="#63b8ff" d="M3029.57,-71.27C3095.93,-65.44 3218.43,-52.62 3321,-30.5 3323.95,-29.86 3326.97,-29.13 3330.01,-28.34"/>
<polygon fill="#63b8ff" stroke="#63b8ff" points="3330.72,-31.78 3339.4,-25.71 3328.83,-25.04 3330.72,-31.78"/>
</a>
</g>
</g>
</g>
</svg>

<g id="navigator" transform="translate(0 0)" fill="#404254">
  <rect fill="#f2f5e9" fill-opacity="0.5" stroke="#606060" stroke-width=".5" x="0" y="0" width="60" height="60"/>
  <use id="zoomplus" xlink:href="#zoomPlus" x="17" y="9" onmousedown="handleZoom(evt,'in')"/>
  <use id="zoomminus" xlink:href="#zoomMin" x="42" y="9" onmousedown="handleZoom(evt,'out')"/>
  <use id="reset" xlink:href="#resetDef" x="30" y="36" onmousedown="handleReset()"/>
   <use id="arrowup" xlink:href="#arrowUp" x="0" y="0" onmousedown="handlePan(0,-1)"/>
  <use id="arrowright" xlink:href="#arrowRight" x="0" y="0" onmousedown="handlePan(1,0)"/>
  <use id="arrowdown" xlink:href="#arrowDown" x="0" y="0" onmousedown="handlePan(0,1)"/>
  <use id="arrowleft" xlink:href="#arrowLeft" x="0" y="0" onmousedown="handlePan(-1,0)"/>
</g>
<svg viewBox="0 0 15 15" width="100%" height="30px" preserveAspectRatio="xMaxYMin meet">
 <g id="arrow_out" transform="scale(0.3 0.3)">
  <a xlink:href="debug__with__source__location_8hpp__incl_org.svg" target="_base">
   <rect id="button" ry="5" rx="5" y="6" x="6" height="38" width="38"
        fill="#f2f5e9" fill-opacity="0.5" stroke="#606060" stroke-width="1.0"/>
   <path id="arrow"
     d="M 11.500037,31.436501 C 11.940474,20.09759 22.043105,11.32322 32.158766,21.979434 L 37.068811,17.246167 C 37.068811,17.246167 37.088388,32 37.088388,32 L 22.160133,31.978069 C 22.160133,31.978069 26.997745,27.140456 26.997745,27.140456 C 18.528582,18.264221 13.291696,25.230495 11.500037,31.436501 z"
     style="fill:#404040;"/>
  </a>
 </g>
</svg>

<style type='text/css'>
<![CDATA[
[data-mouse-over-selected='false'] { opacity: 0.7; }
[data-mouse-over-selected='true']  { opacity: 1.0; }
]]>
</style>
<script type="application/ecmascript"><![CDATA[
document.addEventListener('DOMContentLoaded', (event) => {
  highlightEdges();
  highlightAdjacentNodes();
});
]]></script>
</svg>
