<?xml version="1.0" encoding="UTF-8" standalone="no"?>
<!DOCTYPE svg PUBLIC "-//W3C//DTD SVG 1.1//EN"
 "http://www.w3.org/Graphics/SVG/1.1/DTD/svg11.dtd">
<!-- Generated by graphviz version 9.0.0 (20230911.1827)
 -->
<!-- Title: engine/subsystems/render/skybox&#45;manager.hpp Pages: 1 -->
<!--zoomable 293 -->

<svg id="main" version="1.1" xmlns="http://www.w3.org/2000/svg" xmlns:xlink="http://www.w3.org/1999/xlink" xml:space="preserve" onload="init(evt)">
<style type="text/css"><![CDATA[
.node, .edge {opacity: 0.7;}
.node.selected, .edge.selected {opacity: 1;}
.edge:hover path { stroke: red; }
.edge:hover polygon { stroke: red; fill: red; }
]]></style>

<defs>
  <circle id="rim" cx="0" cy="0" r="7"/>
  <circle id="rim2" cx="0" cy="0" r="3.5"/>
  <g id="zoomPlus">
    <use xlink:href="#rim" fill="#404040"><set attributeName="fill" to="#808080" begin="zoomplus.mouseover" end="zoomplus.mouseout"/></use>
    <path d="M-4,0h8M0,-4v8" fill="none" stroke="white" stroke-width="1.5" pointer-events="none"/>
  </g>
  <g id="zoomMin">
    <use xlink:href="#rim" fill="#404040"><set attributeName="fill" to="#808080" begin="zoomminus.mouseover" end="zoomminus.mouseout"/></use>
    <path d="M-4,0h8" fill="none" stroke="white" stroke-width="1.5" pointer-events="none"/>
  </g>
  <g id="arrowUp" transform="translate(30 24)">
    <use xlink:href="#rim"/>
    <path pointer-events="none" fill="none" stroke="white" stroke-width="1.5" d="M0,-3.0v7 M-2.5,-0.5L0,-3.0L2.5,-0.5"/>
  </g>
  <g id="arrowRight" transform="rotate(90) translate(36 -43)">
    <use xlink:href="#rim"/>
    <path pointer-events="none" fill="none" stroke="white" stroke-width="1.5" d="M0,-3.0v7 M-2.5,-0.5L0,-3.0L2.5,-0.5"/>
  </g>
  <g id="arrowDown" transform="rotate(180) translate(-30 -48)">
    <use xlink:href="#rim"/>
    <path pointer-events="none" fill="none" stroke="white" stroke-width="1.5" d="M0,-3.0v7 M-2.5,-0.5L0,-3.0L2.5,-0.5"/>
  </g>
  <g id="arrowLeft" transform="rotate(270) translate(-36 17)">
    <use xlink:href="#rim"/>
    <path pointer-events="none" fill="none" stroke="white" stroke-width="1.5" d="M0,-3.0v7 M-2.5,-0.5L0,-3.0L2.5,-0.5"/>
  </g>
  <g id="resetDef">
    <use xlink:href="#rim2" fill="#404040"><set attributeName="fill" to="#808080" begin="reset.mouseover" end="reset.mouseout"/></use>
  </g>
</defs>
<script type="application/ecmascript">
var viewWidth = 1852;
var viewHeight = 293;
var sectionId = 'dynsection-1';
</script>
<script type="application/ecmascript" xlink:href="../../svg.min.js"/>
<svg id="graph" class="graph">
<g id="viewport">
<title>engine/subsystems/render/skybox&#45;manager.hpp</title>
<!-- Node1 -->
<g id="Node000001" class="node">
<title>Node1</title>
<g id="a_Node000001"><a xlink:title=" ">
<polygon fill="#999999" stroke="#666666" points="878.38,-285.25 748.38,-285.25 748.38,-254.75 878.38,-254.75 878.38,-285.25"/>
<text text-anchor="start" x="756.38" y="-271.75" font-family="Helvetica,sans-Serif" font-size="10.00">engine/subsystems/render</text>
<text text-anchor="middle" x="813.38" y="-260.5" font-family="Helvetica,sans-Serif" font-size="10.00">/skybox&#45;manager.hpp</text>
</a>
</g>
</g>
<!-- Node2 -->
<g id="Node000002" class="node">
<title>Node2</title>
<g id="a_Node000002"><a xlink:href="../../d1/da2/deferred-hdr-render-pipeline_8cpp.html" target="_top" xlink:title=" ">
<polygon fill="white" stroke="#666666" points="130.75,-91.38 0,-91.38 0,-60.88 130.75,-60.88 130.75,-91.38"/>
<text text-anchor="start" x="8" y="-77.88" font-family="Helvetica,sans-Serif" font-size="10.00">engine/direct3d11/deferred</text>
<text text-anchor="middle" x="65.38" y="-66.62" font-family="Helvetica,sans-Serif" font-size="10.00">&#45;hdr&#45;render&#45;pipeline.cpp</text>
</a>
</g>
</g>
<!-- Node1&#45;&gt;Node2 -->
<g id="edge1_Node000001_Node000002" class="edge">
<title>Node1&#45;&gt;Node2</title>
<g id="a_edge1_Node000001_Node000002"><a xlink:title=" ">
<path fill="none" stroke="#63b8ff" d="M743.66,-251.51C621.24,-220.74 359.72,-154.7 139.38,-97 133.07,-95.35 126.47,-93.6 119.91,-91.86"/>
<polygon fill="#63b8ff" stroke="#63b8ff" points="742.69,-254.88 753.24,-253.92 744.4,-248.09 742.69,-254.88"/>
</a>
</g>
</g>
<!-- Node3 -->
<g id="Node000003" class="node">
<title>Node3</title>
<g id="a_Node000003"><a xlink:href="../../d6/d54/renderer_8cpp.html" target="_top" xlink:title=" ">
<polygon fill="white" stroke="#666666" points="952.75,-213.12 822,-213.12 822,-193.88 952.75,-193.88 952.75,-213.12"/>
<text text-anchor="middle" x="887.38" y="-199.62" font-family="Helvetica,sans-Serif" font-size="10.00">engine/render/renderer.cpp</text>
</a>
</g>
</g>
<!-- Node1&#45;&gt;Node3 -->
<g id="edge2_Node000001_Node000003" class="edge">
<title>Node1&#45;&gt;Node3</title>
<g id="a_edge2_Node000001_Node000003"><a xlink:title=" ">
<path fill="none" stroke="#63b8ff" d="M838.48,-247.12C851.75,-235.55 867.31,-221.99 877.25,-213.32"/>
<polygon fill="#63b8ff" stroke="#63b8ff" points="836.55,-244.16 831.31,-253.37 841.15,-249.44 836.55,-244.16"/>
</a>
</g>
</g>
<!-- Node4 -->
<g id="Node000004" class="node">
<title>Node4</title>
<g id="a_Node000004"><a xlink:href="../../d6/de4/subsystems_2render_2render_8hpp.html" target="_top" xlink:title=" ">
<polygon fill="white" stroke="#666666" points="804.38,-218.75 674.38,-218.75 674.38,-188.25 804.38,-188.25 804.38,-218.75"/>
<text text-anchor="start" x="682.38" y="-205.25" font-family="Helvetica,sans-Serif" font-size="10.00">engine/subsystems/render</text>
<text text-anchor="middle" x="739.38" y="-194" font-family="Helvetica,sans-Serif" font-size="10.00">/render.hpp</text>
</a>
</g>
</g>
<!-- Node1&#45;&gt;Node4 -->
<g id="edge3_Node000001_Node000004" class="edge">
<title>Node1&#45;&gt;Node4</title>
<g id="a_edge3_Node000001_Node000004"><a xlink:title=" ">
<path fill="none" stroke="#63b8ff" d="M788.12,-246.99C777.55,-237.78 765.55,-227.31 756.1,-219.08"/>
<polygon fill="#63b8ff" stroke="#63b8ff" points="785.6,-249.44 795.44,-253.37 790.2,-244.16 785.6,-249.44"/>
</a>
</g>
</g>
<!-- Node22 -->
<g id="Node000022" class="node">
<title>Node22</title>
<g id="a_Node000022"><a xlink:href="../../d3/dd8/skybox-manager_8cpp.html" target="_top" xlink:title=" ">
<polygon fill="white" stroke="#666666" points="1100.38,-218.75 970.38,-218.75 970.38,-188.25 1100.38,-188.25 1100.38,-218.75"/>
<text text-anchor="start" x="978.38" y="-205.25" font-family="Helvetica,sans-Serif" font-size="10.00">engine/subsystems/render</text>
<text text-anchor="middle" x="1035.38" y="-194" font-family="Helvetica,sans-Serif" font-size="10.00">/skybox&#45;manager.cpp</text>
</a>
</g>
</g>
<!-- Node1&#45;&gt;Node22 -->
<g id="edge26_Node000001_Node000022" class="edge">
<title>Node1&#45;&gt;Node22</title>
<g id="a_edge26_Node000001_Node000022"><a xlink:title=" ">
<path fill="none" stroke="#63b8ff" d="M874.97,-251.1C909.6,-241.04 952.31,-228.64 984.94,-219.15"/>
<polygon fill="#63b8ff" stroke="#63b8ff" points="874.11,-247.71 865.48,-253.86 876.06,-254.43 874.11,-247.71"/>
</a>
</g>
</g>
<!-- Node5 -->
<g id="Node000005" class="node">
<title>Node5</title>
<g id="a_Node000005"><a xlink:href="../../de/d46/engine_8hpp.html" target="_top" xlink:title=" ">
<polygon fill="white" stroke="#666666" points="964.25,-152.25 848.5,-152.25 848.5,-133 964.25,-133 964.25,-152.25"/>
<text text-anchor="middle" x="906.38" y="-138.75" font-family="Helvetica,sans-Serif" font-size="10.00">engine/core/engine.hpp</text>
</a>
</g>
</g>
<!-- Node4&#45;&gt;Node5 -->
<g id="edge4_Node000004_Node000005" class="edge">
<title>Node4&#45;&gt;Node5</title>
<g id="a_edge4_Node000004_Node000005"><a xlink:title=" ">
<path fill="none" stroke="#63b8ff" d="M791.7,-184.05C821.36,-173.6 857.15,-160.98 880.76,-152.65"/>
<polygon fill="#63b8ff" stroke="#63b8ff" points="790.78,-180.67 782.51,-187.29 793.11,-187.27 790.78,-180.67"/>
</a>
</g>
</g>
<!-- Node5&#45;&gt;Node2 -->
<g id="edge19_Node000005_Node000002" class="edge">
<title>Node5&#45;&gt;Node2</title>
<g id="a_edge19_Node000005_Node000002"><a xlink:title=" ">
<path fill="none" stroke="#63b8ff" d="M836.82,-142.31C701.56,-142.6 393.99,-138.16 139.38,-97 131.23,-95.68 122.69,-93.84 114.43,-91.8"/>
<polygon fill="#63b8ff" stroke="#63b8ff" points="836.7,-145.81 846.69,-142.28 836.68,-138.81 836.7,-145.81"/>
</a>
</g>
</g>
<!-- Node6 -->
<g id="Node000006" class="node">
<title>Node6</title>
<g id="a_Node000006"><a xlink:href="../../d0/d86/camera-movement_8hpp.html" target="_top" xlink:title=" ">
<polygon fill="white" stroke="#666666" points="600.12,-85.75 444.62,-85.75 444.62,-66.5 600.12,-66.5 600.12,-85.75"/>
<text text-anchor="middle" x="522.38" y="-72.25" font-family="Helvetica,sans-Serif" font-size="10.00">d3d_test/camera&#45;movement.hpp</text>
</a>
</g>
</g>
<!-- Node5&#45;&gt;Node6 -->
<g id="edge5_Node000005_Node000006" class="edge">
<title>Node5&#45;&gt;Node6</title>
<g id="a_edge5_Node000005_Node000006"><a xlink:title=" ">
<path fill="none" stroke="#63b8ff" d="M836.82,-132.68C776.47,-124.57 686.87,-111.65 609.38,-97 592.78,-93.86 574.55,-89.79 559.08,-86.16"/>
<polygon fill="#63b8ff" stroke="#63b8ff" points="836.23,-136.14 846.61,-133.99 837.16,-129.2 836.23,-136.14"/>
</a>
</g>
</g>
<!-- Node9 -->
<g id="Node000009" class="node">
<title>Node9</title>
<g id="a_Node000009"><a xlink:href="../../dc/dfb/controller_8hpp.html" target="_top" xlink:title=" ">
<polygon fill="white" stroke="#666666" points="1813.5,-85.75 1699.25,-85.75 1699.25,-66.5 1813.5,-66.5 1813.5,-85.75"/>
<text text-anchor="middle" x="1756.38" y="-72.25" font-family="Helvetica,sans-Serif" font-size="10.00">d3d_test/controller.hpp</text>
</a>
</g>
</g>
<!-- Node5&#45;&gt;Node9 -->
<g id="edge8_Node000005_Node000009" class="edge">
<title>Node5&#45;&gt;Node9</title>
<g id="a_edge8_Node000005_Node000009"><a xlink:title=" ">
<path fill="none" stroke="#63b8ff" d="M976.04,-139.76C1141.46,-135 1554.18,-121.03 1690.38,-97 1704.16,-94.57 1719.13,-90.21 1731.33,-86.19"/>
<polygon fill="#63b8ff" stroke="#63b8ff" points="975.97,-136.26 966.08,-140.05 976.17,-143.26 975.97,-136.26"/>
</a>
</g>
</g>
<!-- Node10 -->
<g id="Node000010" class="node">
<title>Node10</title>
<g id="a_Node000010"><a xlink:href="../../d9/d0f/main_8cc.html" target="_top" xlink:title=" ">
<polygon fill="white" stroke="#666666" points="1843.5,-19.25 1753.25,-19.25 1753.25,0 1843.5,0 1843.5,-19.25"/>
<text text-anchor="middle" x="1798.38" y="-5.75" font-family="Helvetica,sans-Serif" font-size="10.00">d3d_test/main.cc</text>
</a>
</g>
</g>
<!-- Node5&#45;&gt;Node10 -->
<g id="edge11_Node000005_Node000010" class="edge">
<title>Node5&#45;&gt;Node10</title>
<g id="a_edge11_Node000005_Node000010"><a xlink:title=" ">
<path fill="none" stroke="#63b8ff" d="M976.06,-140.83C1184.94,-138.09 1793.29,-127.53 1822.38,-97 1843.2,-75.14 1818.68,-36.81 1805.58,-19.52"/>
<polygon fill="#63b8ff" stroke="#63b8ff" points="976.11,-137.32 966.16,-140.95 976.2,-144.32 976.11,-137.32"/>
</a>
</g>
</g>
<!-- Node11 -->
<g id="Node000011" class="node">
<title>Node11</title>
<g id="a_Node000011"><a xlink:href="../../da/df5/object-editor_8hpp.html" target="_top" xlink:title=" ">
<polygon fill="white" stroke="#666666" points="276.25,-85.75 148.5,-85.75 148.5,-66.5 276.25,-66.5 276.25,-85.75"/>
<text text-anchor="middle" x="212.38" y="-72.25" font-family="Helvetica,sans-Serif" font-size="10.00">d3d_test/object&#45;editor.hpp</text>
</a>
</g>
</g>
<!-- Node5&#45;&gt;Node11 -->
<g id="edge12_Node000005_Node000011" class="edge">
<title>Node5&#45;&gt;Node11</title>
<g id="a_edge12_Node000005_Node000011"><a xlink:title=" ">
<path fill="none" stroke="#63b8ff" d="M836.68,-141.01C721.24,-139.01 483.42,-130.75 285.38,-97 270.35,-94.44 253.96,-90.12 240.52,-86.16"/>
<polygon fill="#63b8ff" stroke="#63b8ff" points="836.57,-144.51 846.62,-141.17 836.68,-137.51 836.57,-144.51"/>
</a>
</g>
</g>
<!-- Node14 -->
<g id="Node000014" class="node">
<title>Node14</title>
<g id="a_Node000014"><a xlink:href="../../d9/d55/scene-viewer_8hpp.html" target="_top" xlink:title=" ">
<polygon fill="white" stroke="#666666" points="426.5,-85.75 294.25,-85.75 294.25,-66.5 426.5,-66.5 426.5,-85.75"/>
<text text-anchor="middle" x="360.38" y="-72.25" font-family="Helvetica,sans-Serif" font-size="10.00">d3d_test/scene&#45;viewer.hpp</text>
</a>
</g>
</g>
<!-- Node5&#45;&gt;Node14 -->
<g id="edge16_Node000005_Node000014" class="edge">
<title>Node5&#45;&gt;Node14</title>
<g id="a_edge16_Node000005_Node000014"><a xlink:title=" ">
<path fill="none" stroke="#63b8ff" d="M836.9,-138.62C744.58,-133.82 576.69,-122.24 435.38,-97 420.26,-94.3 403.73,-90.06 390.05,-86.19"/>
<polygon fill="#63b8ff" stroke="#63b8ff" points="836.64,-142.11 846.81,-139.12 837,-135.12 836.64,-142.11"/>
</a>
</g>
</g>
<!-- Node15 -->
<g id="Node000015" class="node">
<title>Node15</title>
<g id="a_Node000015"><a xlink:href="../../da/d5c/engine_8cpp.html" target="_top" xlink:title=" ">
<polygon fill="white" stroke="#666666" points="734.25,-85.75 618.5,-85.75 618.5,-66.5 734.25,-66.5 734.25,-85.75"/>
<text text-anchor="middle" x="676.38" y="-72.25" font-family="Helvetica,sans-Serif" font-size="10.00">engine/core/engine.cpp</text>
</a>
</g>
</g>
<!-- Node5&#45;&gt;Node15 -->
<g id="edge18_Node000005_Node000015" class="edge">
<title>Node5&#45;&gt;Node15</title>
<g id="a_edge18_Node000005_Node000015"><a xlink:title=" ">
<path fill="none" stroke="#63b8ff" d="M860.96,-129.62C827.99,-120.82 782.34,-108.45 742.38,-97 730.41,-93.57 717.28,-89.65 705.89,-86.2"/>
<polygon fill="#63b8ff" stroke="#63b8ff" points="860.04,-132.99 870.6,-132.19 861.84,-126.23 860.04,-132.99"/>
</a>
</g>
</g>
<!-- Node16 -->
<g id="Node000016" class="node">
<title>Node16</title>
<g id="a_Node000016"><a xlink:href="../../d8/d30/decal-render-system_8cpp.html" target="_top" xlink:title=" ">
<polygon fill="white" stroke="#666666" points="902.88,-91.38 751.88,-91.38 751.88,-60.88 902.88,-60.88 902.88,-91.38"/>
<text text-anchor="start" x="759.88" y="-77.88" font-family="Helvetica,sans-Serif" font-size="10.00">engine/subsystems/render</text>
<text text-anchor="middle" x="827.38" y="-66.62" font-family="Helvetica,sans-Serif" font-size="10.00">/detail/decal&#45;render&#45;system.cpp</text>
</a>
</g>
</g>
<!-- Node5&#45;&gt;Node16 -->
<g id="edge20_Node000005_Node000016" class="edge">
<title>Node5&#45;&gt;Node16</title>
<g id="a_edge20_Node000005_Node000016"><a xlink:title=" ">
<path fill="none" stroke="#63b8ff" d="M886.52,-125.42C873.84,-115.06 857.53,-101.74 845.25,-91.72"/>
<polygon fill="#63b8ff" stroke="#63b8ff" points="884.26,-128.09 894.22,-131.7 888.69,-122.66 884.26,-128.09"/>
</a>
</g>
</g>
<!-- Node17 -->
<g id="Node000017" class="node">
<title>Node17</title>
<g id="a_Node000017"><a xlink:href="../../d1/d58/dissolution-render-system_8cpp.html" target="_top" xlink:title=" ">
<polygon fill="white" stroke="#666666" points="1051.38,-97 921.38,-97 921.38,-55.25 1051.38,-55.25 1051.38,-97"/>
<text text-anchor="start" x="929.38" y="-83.5" font-family="Helvetica,sans-Serif" font-size="10.00">engine/subsystems/render</text>
<text text-anchor="start" x="929.38" y="-72.25" font-family="Helvetica,sans-Serif" font-size="10.00">/detail/dissolution&#45;render</text>
<text text-anchor="middle" x="986.38" y="-61" font-family="Helvetica,sans-Serif" font-size="10.00">&#45;system.cpp</text>
</a>
</g>
</g>
<!-- Node5&#45;&gt;Node17 -->
<g id="edge21_Node000005_Node000017" class="edge">
<title>Node5&#45;&gt;Node17</title>
<g id="a_edge21_Node000005_Node000017"><a xlink:title=" ">
<path fill="none" stroke="#63b8ff" d="M926.36,-125.51C936.91,-117.01 949.96,-106.49 961.19,-97.43"/>
<polygon fill="#63b8ff" stroke="#63b8ff" points="924.27,-122.71 918.68,-131.71 928.66,-128.15 924.27,-122.71"/>
</a>
</g>
</g>
<!-- Node18 -->
<g id="Node000018" class="node">
<title>Node18</title>
<g id="a_Node000018"><a xlink:href="../../d2/d11/emissive-particle-render-system_8cpp.html" target="_top" xlink:title=" ">
<polygon fill="white" stroke="#666666" points="1199.38,-97 1069.38,-97 1069.38,-55.25 1199.38,-55.25 1199.38,-97"/>
<text text-anchor="start" x="1077.38" y="-83.5" font-family="Helvetica,sans-Serif" font-size="10.00">engine/subsystems/render</text>
<text text-anchor="start" x="1077.38" y="-72.25" font-family="Helvetica,sans-Serif" font-size="10.00">/detail/emissive&#45;particle</text>
<text text-anchor="middle" x="1134.38" y="-61" font-family="Helvetica,sans-Serif" font-size="10.00">&#45;render&#45;system.cpp</text>
</a>
</g>
</g>
<!-- Node5&#45;&gt;Node18 -->
<g id="edge22_Node000005_Node000018" class="edge">
<title>Node5&#45;&gt;Node18</title>
<g id="a_edge22_Node000005_Node000018"><a xlink:title=" ">
<path fill="none" stroke="#63b8ff" d="M949.44,-129.44C983.16,-119.9 1030.64,-106.47 1069.05,-95.61"/>
<polygon fill="#63b8ff" stroke="#63b8ff" points="948.68,-126.02 940.01,-132.11 950.59,-132.75 948.68,-126.02"/>
</a>
</g>
</g>
<!-- Node19 -->
<g id="Node000019" class="node">
<title>Node19</title>
<g id="a_Node000019"><a xlink:href="../../df/d58/grass-render-system_8cpp.html" target="_top" xlink:title=" ">
<polygon fill="white" stroke="#666666" points="1369.25,-91.38 1217.5,-91.38 1217.5,-60.88 1369.25,-60.88 1369.25,-91.38"/>
<text text-anchor="start" x="1225.5" y="-77.88" font-family="Helvetica,sans-Serif" font-size="10.00">engine/subsystems/render</text>
<text text-anchor="middle" x="1293.38" y="-66.62" font-family="Helvetica,sans-Serif" font-size="10.00">/detail/grass&#45;render&#45;system.cpp</text>
</a>
</g>
</g>
<!-- Node5&#45;&gt;Node19 -->
<g id="edge23_Node000005_Node000019" class="edge">
<title>Node5&#45;&gt;Node19</title>
<g id="a_edge23_Node000005_Node000019"><a xlink:title=" ">
<path fill="none" stroke="#63b8ff" d="M975.61,-133.06C1037,-125.06 1128.97,-112.12 1208.38,-97 1216.41,-95.47 1224.84,-93.7 1233.14,-91.86"/>
<polygon fill="#63b8ff" stroke="#63b8ff" points="975.48,-129.54 966.01,-134.3 976.38,-136.49 975.48,-129.54"/>
</a>
</g>
</g>
<!-- Node20 -->
<g id="Node000020" class="node">
<title>Node20</title>
<g id="a_Node000020"><a xlink:href="../../d8/d9c/light-render-system_8cpp.html" target="_top" xlink:title=" ">
<polygon fill="white" stroke="#666666" points="1533.25,-91.38 1387.5,-91.38 1387.5,-60.88 1533.25,-60.88 1533.25,-91.38"/>
<text text-anchor="start" x="1395.5" y="-77.88" font-family="Helvetica,sans-Serif" font-size="10.00">engine/subsystems/render</text>
<text text-anchor="middle" x="1460.38" y="-66.62" font-family="Helvetica,sans-Serif" font-size="10.00">/detail/light&#45;render&#45;system.cpp</text>
</a>
</g>
</g>
<!-- Node5&#45;&gt;Node20 -->
<g id="edge24_Node000005_Node000020" class="edge">
<title>Node5&#45;&gt;Node20</title>
<g id="a_edge24_Node000005_Node000020"><a xlink:title=" ">
<path fill="none" stroke="#63b8ff" d="M975.92,-138.18C1068.34,-132.89 1236.5,-120.77 1378.38,-97 1386.9,-95.57 1395.85,-93.75 1404.58,-91.78"/>
<polygon fill="#63b8ff" stroke="#63b8ff" points="975.79,-134.68 966,-138.74 976.18,-141.67 975.79,-134.68"/>
</a>
</g>
</g>
<!-- Node21 -->
<g id="Node000021" class="node">
<title>Node21</title>
<g id="a_Node000021"><a xlink:href="../../d3/dfe/particle-render-system_8cpp.html" target="_top" xlink:title=" ">
<polygon fill="white" stroke="#666666" points="1681.38,-97 1551.38,-97 1551.38,-55.25 1681.38,-55.25 1681.38,-97"/>
<text text-anchor="start" x="1559.38" y="-83.5" font-family="Helvetica,sans-Serif" font-size="10.00">engine/subsystems/render</text>
<text text-anchor="start" x="1559.38" y="-72.25" font-family="Helvetica,sans-Serif" font-size="10.00">/detail/particle&#45;render</text>
<text text-anchor="middle" x="1616.38" y="-61" font-family="Helvetica,sans-Serif" font-size="10.00">&#45;system.cpp</text>
</a>
</g>
</g>
<!-- Node5&#45;&gt;Node21 -->
<g id="edge25_Node000005_Node000021" class="edge">
<title>Node5&#45;&gt;Node21</title>
<g id="a_edge25_Node000005_Node000021"><a xlink:title=" ">
<path fill="none" stroke="#63b8ff" d="M976,-141.1C1093.55,-139.25 1338.48,-131.21 1542.38,-97 1545.26,-96.52 1548.2,-95.97 1551.15,-95.37"/>
<polygon fill="#63b8ff" stroke="#63b8ff" points="976.15,-137.6 966.2,-141.25 976.25,-144.6 976.15,-137.6"/>
</a>
</g>
</g>
<!-- Node7 -->
<g id="Node000007" class="node">
<title>Node7</title>
<g id="a_Node000007"><a xlink:href="../../d5/dbb/camera-movement_8cpp.html" target="_top" xlink:title=" ">
<polygon fill="white" stroke="#666666" points="600.12,-19.25 444.62,-19.25 444.62,0 600.12,0 600.12,-19.25"/>
<text text-anchor="middle" x="522.38" y="-5.75" font-family="Helvetica,sans-Serif" font-size="10.00">d3d_test/camera&#45;movement.cpp</text>
</a>
</g>
</g>
<!-- Node6&#45;&gt;Node7 -->
<g id="edge6_Node000006_Node000007" class="edge">
<title>Node6&#45;&gt;Node7</title>
<g id="a_edge6_Node000006_Node000007"><a xlink:title=" ">
<path fill="none" stroke="#63b8ff" d="M522.38,-54.65C522.38,-42.82 522.38,-28.54 522.38,-19.52"/>
<polygon fill="#63b8ff" stroke="#63b8ff" points="518.88,-54.64 522.38,-64.64 525.88,-54.64 518.88,-54.64"/>
</a>
</g>
</g>
<!-- Node8 -->
<g id="Node000008" class="node">
<title>Node8</title>
<g id="a_Node000008"><a xlink:href="../../d1/d47/controller_8cpp.html" target="_top" xlink:title=" ">
<polygon fill="white" stroke="#666666" points="422.5,-19.25 308.25,-19.25 308.25,0 422.5,0 422.5,-19.25"/>
<text text-anchor="middle" x="365.38" y="-5.75" font-family="Helvetica,sans-Serif" font-size="10.00">d3d_test/controller.cpp</text>
</a>
</g>
</g>
<!-- Node6&#45;&gt;Node8 -->
<g id="edge7_Node000006_Node000008" class="edge">
<title>Node6&#45;&gt;Node8</title>
<g id="a_edge7_Node000006_Node000008"><a xlink:title=" ">
<path fill="none" stroke="#63b8ff" d="M489.63,-61.67C458.97,-49.08 414.02,-30.61 387.42,-19.68"/>
<polygon fill="#63b8ff" stroke="#63b8ff" points="488.23,-64.88 498.81,-65.45 490.89,-58.41 488.23,-64.88"/>
</a>
</g>
</g>
<!-- Node9&#45;&gt;Node8 -->
<g id="edge9_Node000009_Node000008" class="edge">
<title>Node9&#45;&gt;Node8</title>
<g id="a_edge9_Node000009_Node000008"><a xlink:title=" ">
<path fill="none" stroke="#63b8ff" d="M1721.31,-62.7C1711.43,-59.71 1700.59,-56.9 1690.38,-55.25 1414.96,-10.64 713.58,-40.33 435.38,-19.25 431.22,-18.94 426.94,-18.55 422.63,-18.12"/>
<polygon fill="#63b8ff" stroke="#63b8ff" points="1719.95,-65.93 1730.54,-65.64 1722.07,-59.26 1719.95,-65.93"/>
</a>
</g>
</g>
<!-- Node9&#45;&gt;Node10 -->
<g id="edge10_Node000009_Node000010" class="edge">
<title>Node9&#45;&gt;Node10</title>
<g id="a_edge10_Node000009_Node000010"><a xlink:title=" ">
<path fill="none" stroke="#63b8ff" d="M1768.5,-56.51C1776.41,-44.35 1786.4,-29.02 1792.58,-19.52"/>
<polygon fill="#63b8ff" stroke="#63b8ff" points="1765.56,-54.6 1763.04,-64.89 1771.43,-58.42 1765.56,-54.6"/>
</a>
</g>
</g>
<!-- Node11&#45;&gt;Node8 -->
<g id="edge13_Node000011_Node000008" class="edge">
<title>Node11&#45;&gt;Node8</title>
<g id="a_edge13_Node000011_Node000008"><a xlink:title=" ">
<path fill="none" stroke="#63b8ff" d="M244.29,-61.67C274.16,-49.08 317.97,-30.61 343.89,-19.68"/>
<polygon fill="#63b8ff" stroke="#63b8ff" points="243.22,-58.32 235.37,-65.43 245.94,-64.77 243.22,-58.32"/>
</a>
</g>
</g>
<!-- Node12 -->
<g id="Node000012" class="node">
<title>Node12</title>
<g id="a_Node000012"><a xlink:href="../../d4/d94/object-editor_8cpp.html" target="_top" xlink:title=" ">
<polygon fill="white" stroke="#666666" points="132.25,-19.25 4.5,-19.25 4.5,0 132.25,0 132.25,-19.25"/>
<text text-anchor="middle" x="68.38" y="-5.75" font-family="Helvetica,sans-Serif" font-size="10.00">d3d_test/object&#45;editor.cpp</text>
</a>
</g>
</g>
<!-- Node11&#45;&gt;Node12 -->
<g id="edge14_Node000011_Node000012" class="edge">
<title>Node11&#45;&gt;Node12</title>
<g id="a_edge14_Node000011_Node000012"><a xlink:title=" ">
<path fill="none" stroke="#63b8ff" d="M181.6,-61.34C153.5,-48.75 112.78,-30.51 88.6,-19.68"/>
<polygon fill="#63b8ff" stroke="#63b8ff" points="180.11,-64.51 190.67,-65.4 182.97,-58.12 180.11,-64.51"/>
</a>
</g>
</g>
<!-- Node13 -->
<g id="Node000013" class="node">
<title>Node13</title>
<g id="a_Node000013"><a xlink:href="../../d0/d38/scene-viewer_8cpp.html" target="_top" xlink:title=" ">
<polygon fill="white" stroke="#666666" points="282.5,-19.25 150.25,-19.25 150.25,0 282.5,0 282.5,-19.25"/>
<text text-anchor="middle" x="216.38" y="-5.75" font-family="Helvetica,sans-Serif" font-size="10.00">d3d_test/scene&#45;viewer.cpp</text>
</a>
</g>
</g>
<!-- Node11&#45;&gt;Node13 -->
<g id="edge15_Node000011_Node000013" class="edge">
<title>Node11&#45;&gt;Node13</title>
<g id="a_edge15_Node000011_Node000013"><a xlink:title=" ">
<path fill="none" stroke="#63b8ff" d="M213.62,-55.02C214.36,-43.12 215.26,-28.63 215.82,-19.52"/>
<polygon fill="#63b8ff" stroke="#63b8ff" points="210.15,-54.45 213.02,-64.65 217.14,-54.88 210.15,-54.45"/>
</a>
</g>
</g>
<!-- Node14&#45;&gt;Node8 -->
<g id="edge17_Node000014_Node000008" class="edge">
<title>Node14&#45;&gt;Node8</title>
<g id="a_edge17_Node000014_Node000008"><a xlink:title=" ">
<path fill="none" stroke="#63b8ff" d="M361.93,-55.02C362.86,-43.12 363.98,-28.63 364.69,-19.52"/>
<polygon fill="#63b8ff" stroke="#63b8ff" points="358.47,-54.41 361.19,-64.65 365.45,-54.95 358.47,-54.41"/>
</a>
</g>
</g>
</g>
</svg>

<g id="navigator" transform="translate(0 0)" fill="#404254">
  <rect fill="#f2f5e9" fill-opacity="0.5" stroke="#606060" stroke-width=".5" x="0" y="0" width="60" height="60"/>
  <use id="zoomplus" xlink:href="#zoomPlus" x="17" y="9" onmousedown="handleZoom(evt,'in')"/>
  <use id="zoomminus" xlink:href="#zoomMin" x="42" y="9" onmousedown="handleZoom(evt,'out')"/>
  <use id="reset" xlink:href="#resetDef" x="30" y="36" onmousedown="handleReset()"/>
   <use id="arrowup" xlink:href="#arrowUp" x="0" y="0" onmousedown="handlePan(0,-1)"/>
  <use id="arrowright" xlink:href="#arrowRight" x="0" y="0" onmousedown="handlePan(1,0)"/>
  <use id="arrowdown" xlink:href="#arrowDown" x="0" y="0" onmousedown="handlePan(0,1)"/>
  <use id="arrowleft" xlink:href="#arrowLeft" x="0" y="0" onmousedown="handlePan(-1,0)"/>
</g>
<svg viewBox="0 0 15 15" width="100%" height="30px" preserveAspectRatio="xMaxYMin meet">
 <g id="arrow_out" transform="scale(0.3 0.3)">
  <a xlink:href="skybox-manager_8hpp__dep__incl_org.svg" target="_base">
   <rect id="button" ry="5" rx="5" y="6" x="6" height="38" width="38"
        fill="#f2f5e9" fill-opacity="0.5" stroke="#606060" stroke-width="1.0"/>
   <path id="arrow"
     d="M 11.500037,31.436501 C 11.940474,20.09759 22.043105,11.32322 32.158766,21.979434 L 37.068811,17.246167 C 37.068811,17.246167 37.088388,32 37.088388,32 L 22.160133,31.978069 C 22.160133,31.978069 26.997745,27.140456 26.997745,27.140456 C 18.528582,18.264221 13.291696,25.230495 11.500037,31.436501 z"
     style="fill:#404040;"/>
  </a>
 </g>
</svg>

<style type='text/css'>
<![CDATA[
[data-mouse-over-selected='false'] { opacity: 0.7; }
[data-mouse-over-selected='true']  { opacity: 1.0; }
]]>
</style>
<script type="application/ecmascript"><![CDATA[
document.addEventListener('DOMContentLoaded', (event) => {
  highlightEdges();
  highlightAdjacentNodes();
});
]]></script>
</svg>
