<?xml version="1.0" encoding="UTF-8" standalone="no"?>
<!DOCTYPE svg PUBLIC "-//W3C//DTD SVG 1.1//EN"
 "http://www.w3.org/Graphics/SVG/1.1/DTD/svg11.dtd">
<!-- Generated by graphviz version 9.0.0 (20230911.1827)
 -->
<!-- Title: engine/subsystems/render/detail/grass&#45;render&#45;system.hpp Pages: 1 -->
<svg width="1926pt" height="482pt"
 viewBox="0.00 0.00 1925.88 481.50" xmlns="http://www.w3.org/2000/svg" xmlns:xlink="http://www.w3.org/1999/xlink">
<g id="graph0" class="graph" transform="scale(1 1) rotate(0) translate(4 477.5)">
<title>engine/subsystems/render/detail/grass&#45;render&#45;system.hpp</title>
<!-- Node1 -->
<g id="Node000001" class="node">
<title>Node1</title>
<g id="a_Node000001"><a xlink:title=" ">
<polygon fill="#999999" stroke="#666666" points="1014.88,-473.5 863.12,-473.5 863.12,-443 1014.88,-443 1014.88,-473.5"/>
<text text-anchor="start" x="871.12" y="-460" font-family="Helvetica,sans-Serif" font-size="10.00">engine/subsystems/render</text>
<text text-anchor="middle" x="939" y="-448.75" font-family="Helvetica,sans-Serif" font-size="10.00">/detail/grass&#45;render&#45;system.hpp</text>
</a>
</g>
</g>
<!-- Node2 -->
<g id="Node000002" class="node">
<title>Node2</title>
<g id="a_Node000002"><a xlink:href="../../d1/dae/renderer_8hpp.html" target="_top" xlink:title=" ">
<polygon fill="white" stroke="#666666" points="570.38,-407 439.62,-407 439.62,-387.75 570.38,-387.75 570.38,-407"/>
<text text-anchor="middle" x="505" y="-393.5" font-family="Helvetica,sans-Serif" font-size="10.00">engine/render/renderer.hpp</text>
</a>
</g>
</g>
<!-- Node1&#45;&gt;Node2 -->
<g id="edge1_Node000001_Node000002" class="edge">
<title>Node1&#45;&gt;Node2</title>
<g id="a_edge1_Node000001_Node000002"><a xlink:title=" ">
<path fill="none" stroke="#63b8ff" d="M851.72,-445.41C768.72,-434.15 645.71,-417.46 570.71,-407.29"/>
<polygon fill="#63b8ff" stroke="#63b8ff" points="851.03,-448.85 861.41,-446.72 851.97,-441.91 851.03,-448.85"/>
</a>
</g>
</g>
<!-- Node19 -->
<g id="Node000019" class="node">
<title>Node19</title>
<g id="a_Node000019"><a xlink:href="../../df/d58/grass-render-system_8cpp.html" target="_top" xlink:title=" ">
<polygon fill="white" stroke="#666666" points="1917.88,-91.38 1766.12,-91.38 1766.12,-60.88 1917.88,-60.88 1917.88,-91.38"/>
<text text-anchor="start" x="1774.12" y="-77.88" font-family="Helvetica,sans-Serif" font-size="10.00">engine/subsystems/render</text>
<text text-anchor="middle" x="1842" y="-66.62" font-family="Helvetica,sans-Serif" font-size="10.00">/detail/grass&#45;render&#45;system.cpp</text>
</a>
</g>
</g>
<!-- Node1&#45;&gt;Node19 -->
<g id="edge42_Node000001_Node000019" class="edge">
<title>Node1&#45;&gt;Node19</title>
<g id="a_edge42_Node000001_Node000019"><a xlink:title=" ">
<path fill="none" stroke="#63b8ff" d="M1026.63,-454.63C1244.64,-446.94 1794,-419.95 1794,-343.12 1794,-343.12 1794,-343.12 1794,-208.12 1794,-163.56 1818.8,-115.38 1832.75,-91.81"/>
<polygon fill="#63b8ff" stroke="#63b8ff" points="1026.64,-451.13 1016.76,-454.97 1026.88,-458.12 1026.64,-451.13"/>
</a>
</g>
</g>
<!-- Node3 -->
<g id="Node000003" class="node">
<title>Node3</title>
<g id="a_Node000003"><a xlink:href="../../d1/d47/controller_8cpp.html" target="_top" xlink:title=" ">
<polygon fill="white" stroke="#666666" points="656.12,-19.25 541.88,-19.25 541.88,0 656.12,0 656.12,-19.25"/>
<text text-anchor="middle" x="599" y="-5.75" font-family="Helvetica,sans-Serif" font-size="10.00">d3d_test/controller.cpp</text>
</a>
</g>
</g>
<!-- Node2&#45;&gt;Node3 -->
<g id="edge2_Node000002_Node000003" class="edge">
<title>Node2&#45;&gt;Node3</title>
<g id="a_edge2_Node000002_Node000003"><a xlink:title=" ">
<path fill="none" stroke="#63b8ff" d="M428.08,-393.98C286.73,-387.46 0,-363.53 0,-276.62 0,-276.62 0,-276.62 0,-147.25 0,-99.15 15.97,-80.36 57,-55.25 97.62,-30.39 410.84,-17 541.77,-12.44"/>
<polygon fill="#63b8ff" stroke="#63b8ff" points="427.58,-397.46 437.73,-394.4 427.89,-390.46 427.58,-397.46"/>
</a>
</g>
</g>
<!-- Node4 -->
<g id="Node000004" class="node">
<title>Node4</title>
<g id="a_Node000004"><a xlink:href="../../d5/d9b/scene_8hpp.html" target="_top" xlink:title=" ">
<polygon fill="white" stroke="#666666" points="902.75,-351.75 789.25,-351.75 789.25,-332.5 902.75,-332.5 902.75,-351.75"/>
<text text-anchor="middle" x="846" y="-338.25" font-family="Helvetica,sans-Serif" font-size="10.00">engine/core/scene.hpp</text>
</a>
</g>
</g>
<!-- Node2&#45;&gt;Node4 -->
<g id="edge3_Node000002_Node000004" class="edge">
<title>Node2&#45;&gt;Node4</title>
<g id="a_edge3_Node000002_Node000004"><a xlink:title=" ">
<path fill="none" stroke="#63b8ff" d="M574.29,-385.55C637.49,-375.69 729.78,-361.27 788.86,-352.05"/>
<polygon fill="#63b8ff" stroke="#63b8ff" points="574.07,-382.05 564.73,-387.05 575.15,-388.96 574.07,-382.05"/>
</a>
</g>
</g>
<!-- Node24 -->
<g id="Node000024" class="node">
<title>Node24</title>
<g id="a_Node000024"><a xlink:href="../../db/df9/deferred-hdr-render-pipeline_8hpp.html" target="_top" xlink:title=" ">
<polygon fill="white" stroke="#666666" points="337.38,-163.5 206.62,-163.5 206.62,-133 337.38,-133 337.38,-163.5"/>
<text text-anchor="start" x="214.62" y="-150" font-family="Helvetica,sans-Serif" font-size="10.00">engine/direct3d11/deferred</text>
<text text-anchor="middle" x="272" y="-138.75" font-family="Helvetica,sans-Serif" font-size="10.00">&#45;hdr&#45;render&#45;pipeline.hpp</text>
</a>
</g>
</g>
<!-- Node2&#45;&gt;Node24 -->
<g id="edge40_Node000002_Node000024" class="edge">
<title>Node2&#45;&gt;Node24</title>
<g id="a_edge40_Node000002_Node000024"><a xlink:title=" ">
<path fill="none" stroke="#63b8ff" d="M488.76,-379.15C445.14,-332.88 326,-206.52 285.6,-163.68"/>
<polygon fill="#63b8ff" stroke="#63b8ff" points="485.99,-381.31 495.39,-386.19 491.08,-376.51 485.99,-381.31"/>
</a>
</g>
</g>
<!-- Node26 -->
<g id="Node000026" class="node">
<title>Node26</title>
<g id="a_Node000026"><a xlink:href="../../d6/d54/renderer_8cpp.html" target="_top" xlink:title=" ">
<polygon fill="white" stroke="#666666" points="570.38,-285.25 439.62,-285.25 439.62,-266 570.38,-266 570.38,-285.25"/>
<text text-anchor="middle" x="505" y="-271.75" font-family="Helvetica,sans-Serif" font-size="10.00">engine/render/renderer.cpp</text>
</a>
</g>
</g>
<!-- Node2&#45;&gt;Node26 -->
<g id="edge41_Node000002_Node000026" class="edge">
<title>Node2&#45;&gt;Node26</title>
<g id="a_edge41_Node000002_Node000026"><a xlink:title=" ">
<path fill="none" stroke="#63b8ff" d="M505,-376.13C505,-349.8 505,-304.9 505,-285.73"/>
<polygon fill="#63b8ff" stroke="#63b8ff" points="501.5,-375.86 505,-385.86 508.5,-375.86 501.5,-375.86"/>
</a>
</g>
</g>
<!-- Node5 -->
<g id="Node000005" class="node">
<title>Node5</title>
<g id="a_Node000005"><a xlink:href="../../de/d46/engine_8hpp.html" target="_top" xlink:title=" ">
<polygon fill="white" stroke="#666666" points="861.88,-157.88 746.12,-157.88 746.12,-138.62 861.88,-138.62 861.88,-157.88"/>
<text text-anchor="middle" x="804" y="-144.38" font-family="Helvetica,sans-Serif" font-size="10.00">engine/core/engine.hpp</text>
</a>
</g>
</g>
<!-- Node4&#45;&gt;Node5 -->
<g id="edge4_Node000004_Node000005" class="edge">
<title>Node4&#45;&gt;Node5</title>
<g id="a_edge4_Node000004_Node000005"><a xlink:title=" ">
<path fill="none" stroke="#63b8ff" d="M834.56,-322.5C830.28,-314.73 825.78,-305.44 823,-296.5 807.2,-245.81 804.53,-181.35 804.08,-158.11"/>
<polygon fill="#63b8ff" stroke="#63b8ff" points="831.45,-324.11 839.51,-330.99 837.49,-320.58 831.45,-324.11"/>
</a>
</g>
</g>
<!-- Node16 -->
<g id="Node000016" class="node">
<title>Node16</title>
<g id="a_Node000016"><a xlink:href="../../d8/d30/decal-render-system_8cpp.html" target="_top" xlink:title=" ">
<polygon fill="white" stroke="#666666" points="1748.5,-91.38 1597.5,-91.38 1597.5,-60.88 1748.5,-60.88 1748.5,-91.38"/>
<text text-anchor="start" x="1605.5" y="-77.88" font-family="Helvetica,sans-Serif" font-size="10.00">engine/subsystems/render</text>
<text text-anchor="middle" x="1673" y="-66.62" font-family="Helvetica,sans-Serif" font-size="10.00">/detail/decal&#45;render&#45;system.cpp</text>
</a>
</g>
</g>
<!-- Node4&#45;&gt;Node16 -->
<g id="edge35_Node000004_Node000016" class="edge">
<title>Node4&#45;&gt;Node16</title>
<g id="a_edge35_Node000004_Node000016"><a xlink:title=" ">
<path fill="none" stroke="#63b8ff" d="M914.35,-338.73C1028.43,-334.06 1252.47,-321.93 1327,-296.5 1467.69,-248.5 1609.28,-132.66 1656.52,-91.74"/>
<polygon fill="#63b8ff" stroke="#63b8ff" points="914.36,-335.22 904.51,-339.12 914.64,-342.22 914.36,-335.22"/>
</a>
</g>
</g>
<!-- Node17 -->
<g id="Node000017" class="node">
<title>Node17</title>
<g id="a_Node000017"><a xlink:href="../../d1/d58/dissolution-render-system_8cpp.html" target="_top" xlink:title=" ">
<polygon fill="white" stroke="#666666" points="477,-97 347,-97 347,-55.25 477,-55.25 477,-97"/>
<text text-anchor="start" x="355" y="-83.5" font-family="Helvetica,sans-Serif" font-size="10.00">engine/subsystems/render</text>
<text text-anchor="start" x="355" y="-72.25" font-family="Helvetica,sans-Serif" font-size="10.00">/detail/dissolution&#45;render</text>
<text text-anchor="middle" x="412" y="-61" font-family="Helvetica,sans-Serif" font-size="10.00">&#45;system.cpp</text>
</a>
</g>
</g>
<!-- Node4&#45;&gt;Node17 -->
<g id="edge36_Node000004_Node000017" class="edge">
<title>Node4&#45;&gt;Node17</title>
<g id="a_edge36_Node000004_Node000017"><a xlink:title=" ">
<path fill="none" stroke="#63b8ff" d="M777.9,-332.79C741.68,-326.41 697.26,-315.35 661,-296.5 559.53,-243.74 465.71,-140.91 428.69,-97.37"/>
<polygon fill="#63b8ff" stroke="#63b8ff" points="776.92,-336.18 787.36,-334.38 778.08,-329.28 776.92,-336.18"/>
</a>
</g>
</g>
<!-- Node21 -->
<g id="Node000021" class="node">
<title>Node21</title>
<g id="a_Node000021"><a xlink:href="../../d3/dfe/particle-render-system_8cpp.html" target="_top" xlink:title=" ">
<polygon fill="white" stroke="#666666" points="1579,-97 1449,-97 1449,-55.25 1579,-55.25 1579,-97"/>
<text text-anchor="start" x="1457" y="-83.5" font-family="Helvetica,sans-Serif" font-size="10.00">engine/subsystems/render</text>
<text text-anchor="start" x="1457" y="-72.25" font-family="Helvetica,sans-Serif" font-size="10.00">/detail/particle&#45;render</text>
<text text-anchor="middle" x="1514" y="-61" font-family="Helvetica,sans-Serif" font-size="10.00">&#45;system.cpp</text>
</a>
</g>
</g>
<!-- Node4&#45;&gt;Node21 -->
<g id="edge39_Node000004_Node000021" class="edge">
<title>Node4&#45;&gt;Node21</title>
<g id="a_edge39_Node000004_Node000021"><a xlink:title=" ">
<path fill="none" stroke="#63b8ff" d="M914.3,-339.36C1019.5,-335.76 1215.68,-325.3 1279,-296.5 1380.61,-250.29 1466.89,-142.39 1499.77,-97.39"/>
<polygon fill="#63b8ff" stroke="#63b8ff" points="914.26,-335.86 904.38,-339.68 914.49,-342.85 914.26,-335.86"/>
</a>
</g>
</g>
<!-- Node22 -->
<g id="Node000022" class="node">
<title>Node22</title>
<g id="a_Node000022"><a xlink:href="../../d9/d06/render-pipeline_8hpp.html" target="_top" xlink:title=" ">
<polygon fill="white" stroke="#666666" points="770,-290.88 670,-290.88 670,-260.38 770,-260.38 770,-290.88"/>
<text text-anchor="start" x="678" y="-277.38" font-family="Helvetica,sans-Serif" font-size="10.00">engine/core/layers</text>
<text text-anchor="middle" x="720" y="-266.12" font-family="Helvetica,sans-Serif" font-size="10.00">/render&#45;pipeline.hpp</text>
</a>
</g>
</g>
<!-- Node4&#45;&gt;Node22 -->
<g id="edge26_Node000004_Node000022" class="edge">
<title>Node4&#45;&gt;Node22</title>
<g id="a_edge26_Node000004_Node000022"><a xlink:title=" ">
<path fill="none" stroke="#63b8ff" d="M818.13,-326.86C797.41,-316.25 769.22,-301.82 748.38,-291.15"/>
<polygon fill="#63b8ff" stroke="#63b8ff" points="816.37,-329.89 826.87,-331.33 819.56,-323.66 816.37,-329.89"/>
</a>
</g>
</g>
<!-- Node25 -->
<g id="Node000025" class="node">
<title>Node25</title>
<g id="a_Node000025"><a xlink:href="../../d4/d7c/deferred-resolve_8cpp.html" target="_top" xlink:title=" ">
<polygon fill="white" stroke="#666666" points="944.38,-290.88 831.62,-290.88 831.62,-260.38 944.38,-260.38 944.38,-290.88"/>
<text text-anchor="start" x="839.62" y="-277.38" font-family="Helvetica,sans-Serif" font-size="10.00">engine/render/deferred</text>
<text text-anchor="middle" x="888" y="-266.12" font-family="Helvetica,sans-Serif" font-size="10.00">&#45;resolve.cpp</text>
</a>
</g>
</g>
<!-- Node4&#45;&gt;Node25 -->
<g id="edge33_Node000004_Node000025" class="edge">
<title>Node4&#45;&gt;Node25</title>
<g id="a_edge33_Node000004_Node000025"><a xlink:title=" ">
<path fill="none" stroke="#63b8ff" d="M858.01,-322.68C864.57,-312.6 872.57,-300.32 878.66,-290.97"/>
<polygon fill="#63b8ff" stroke="#63b8ff" points="855.19,-320.6 852.67,-330.89 861.06,-324.42 855.19,-320.6"/>
</a>
</g>
</g>
<!-- Node4&#45;&gt;Node26 -->
<g id="edge34_Node000004_Node000026" class="edge">
<title>Node4&#45;&gt;Node26</title>
<g id="a_edge34_Node000004_Node000026"><a xlink:title=" ">
<path fill="none" stroke="#63b8ff" d="M777.47,-330.95C724.45,-322.71 649.3,-310.25 584,-296.5 569.05,-293.35 552.66,-289.32 538.7,-285.72"/>
<polygon fill="#63b8ff" stroke="#63b8ff" points="776.86,-334.39 787.28,-332.46 777.93,-327.48 776.86,-334.39"/>
</a>
</g>
</g>
<!-- Node27 -->
<g id="Node000027" class="node">
<title>Node27</title>
<g id="a_Node000027"><a xlink:href="../../d8/dcb/emissive-render-system_8cpp.html" target="_top" xlink:title=" ">
<polygon fill="white" stroke="#666666" points="1092,-296.5 962,-296.5 962,-254.75 1092,-254.75 1092,-296.5"/>
<text text-anchor="start" x="970" y="-283" font-family="Helvetica,sans-Serif" font-size="10.00">engine/subsystems/render</text>
<text text-anchor="start" x="970" y="-271.75" font-family="Helvetica,sans-Serif" font-size="10.00">/detail/emissive&#45;render</text>
<text text-anchor="middle" x="1027" y="-260.5" font-family="Helvetica,sans-Serif" font-size="10.00">&#45;system.cpp</text>
</a>
</g>
</g>
<!-- Node4&#45;&gt;Node27 -->
<g id="edge37_Node000004_Node000027" class="edge">
<title>Node4&#45;&gt;Node27</title>
<g id="a_edge37_Node000004_Node000027"><a xlink:title=" ">
<path fill="none" stroke="#63b8ff" d="M882.06,-328.27C907.15,-319.33 941.14,-307.22 969.89,-296.98"/>
<polygon fill="#63b8ff" stroke="#63b8ff" points="881.22,-324.86 872.97,-331.51 883.57,-331.45 881.22,-324.86"/>
</a>
</g>
</g>
<!-- Node28 -->
<g id="Node000028" class="node">
<title>Node28</title>
<g id="a_Node000028"><a xlink:href="../../d1/d62/opaque-render-system_8cpp.html" target="_top" xlink:title=" ">
<polygon fill="white" stroke="#666666" points="1269.62,-290.88 1110.38,-290.88 1110.38,-260.38 1269.62,-260.38 1269.62,-290.88"/>
<text text-anchor="start" x="1118.38" y="-277.38" font-family="Helvetica,sans-Serif" font-size="10.00">engine/subsystems/render</text>
<text text-anchor="middle" x="1190" y="-266.12" font-family="Helvetica,sans-Serif" font-size="10.00">/detail/opaque&#45;render&#45;system.cpp</text>
</a>
</g>
</g>
<!-- Node4&#45;&gt;Node28 -->
<g id="edge38_Node000004_Node000028" class="edge">
<title>Node4&#45;&gt;Node28</title>
<g id="a_edge38_Node000004_Node000028"><a xlink:title=" ">
<path fill="none" stroke="#63b8ff" d="M913.66,-330.16C965.14,-321.61 1037.69,-309.1 1101,-296.5 1109.07,-294.89 1117.54,-293.12 1125.91,-291.31"/>
<polygon fill="#63b8ff" stroke="#63b8ff" points="913.14,-326.7 903.85,-331.79 914.28,-333.61 913.14,-326.7"/>
</a>
</g>
</g>
<!-- Node6 -->
<g id="Node000006" class="node">
<title>Node6</title>
<g id="a_Node000006"><a xlink:href="../../d0/d86/camera-movement_8hpp.html" target="_top" xlink:title=" ">
<polygon fill="white" stroke="#666666" points="1002.75,-85.75 847.25,-85.75 847.25,-66.5 1002.75,-66.5 1002.75,-85.75"/>
<text text-anchor="middle" x="925" y="-72.25" font-family="Helvetica,sans-Serif" font-size="10.00">d3d_test/camera&#45;movement.hpp</text>
</a>
</g>
</g>
<!-- Node5&#45;&gt;Node6 -->
<g id="edge5_Node000005_Node000006" class="edge">
<title>Node5&#45;&gt;Node6</title>
<g id="a_edge5_Node000005_Node000006"><a xlink:title=" ">
<path fill="none" stroke="#63b8ff" d="M829.21,-132.64C853.39,-118.63 889.12,-97.92 909.42,-86.16"/>
<polygon fill="#63b8ff" stroke="#63b8ff" points="827.53,-129.57 820.63,-137.61 831.04,-135.62 827.53,-129.57"/>
</a>
</g>
</g>
<!-- Node8 -->
<g id="Node000008" class="node">
<title>Node8</title>
<g id="a_Node000008"><a xlink:href="../../dc/dfb/controller_8hpp.html" target="_top" xlink:title=" ">
<polygon fill="white" stroke="#666666" points="329.12,-85.75 214.88,-85.75 214.88,-66.5 329.12,-66.5 329.12,-85.75"/>
<text text-anchor="middle" x="272" y="-72.25" font-family="Helvetica,sans-Serif" font-size="10.00">d3d_test/controller.hpp</text>
</a>
</g>
</g>
<!-- Node5&#45;&gt;Node8 -->
<g id="edge8_Node000005_Node000008" class="edge">
<title>Node5&#45;&gt;Node8</title>
<g id="a_edge8_Node000005_Node000008"><a xlink:title=" ">
<path fill="none" stroke="#63b8ff" d="M734.37,-143.77C642.74,-138.28 477,-125.17 338,-97 324.63,-94.29 310.08,-90.05 298.05,-86.19"/>
<polygon fill="#63b8ff" stroke="#63b8ff" points="734.02,-147.26 744.21,-144.35 734.43,-140.27 734.02,-147.26"/>
</a>
</g>
</g>
<!-- Node9 -->
<g id="Node000009" class="node">
<title>Node9</title>
<g id="a_Node000009"><a xlink:href="../../d9/d0f/main_8cc.html" target="_top" xlink:title=" ">
<polygon fill="white" stroke="#666666" points="317.12,-19.25 226.88,-19.25 226.88,0 317.12,0 317.12,-19.25"/>
<text text-anchor="middle" x="272" y="-5.75" font-family="Helvetica,sans-Serif" font-size="10.00">d3d_test/main.cc</text>
</a>
</g>
</g>
<!-- Node5&#45;&gt;Node9 -->
<g id="edge11_Node000005_Node000009" class="edge">
<title>Node5&#45;&gt;Node9</title>
<g id="a_edge11_Node000005_Node000009"><a xlink:title=" ">
<path fill="none" stroke="#63b8ff" d="M734.19,-147.03C674.89,-144.07 589.24,-133.06 524,-97 502.04,-84.86 507.79,-67.69 486,-55.25 433.27,-25.13 362.86,-15.23 317.47,-12.04"/>
<polygon fill="#63b8ff" stroke="#63b8ff" points="734.04,-150.53 744.18,-147.45 734.34,-143.53 734.04,-150.53"/>
</a>
</g>
</g>
<!-- Node10 -->
<g id="Node000010" class="node">
<title>Node10</title>
<g id="a_Node000010"><a xlink:href="../../da/df5/object-editor_8hpp.html" target="_top" xlink:title=" ">
<polygon fill="white" stroke="#666666" points="1148.88,-85.75 1021.12,-85.75 1021.12,-66.5 1148.88,-66.5 1148.88,-85.75"/>
<text text-anchor="middle" x="1085" y="-72.25" font-family="Helvetica,sans-Serif" font-size="10.00">d3d_test/object&#45;editor.hpp</text>
</a>
</g>
</g>
<!-- Node5&#45;&gt;Node10 -->
<g id="edge12_Node000005_Node000010" class="edge">
<title>Node5&#45;&gt;Node10</title>
<g id="a_edge12_Node000005_Node000010"><a xlink:title=" ">
<path fill="none" stroke="#63b8ff" d="M854.27,-135.53C896.46,-125.6 958.28,-110.8 1012,-97 1025.23,-93.6 1039.76,-89.68 1052.35,-86.23"/>
<polygon fill="#63b8ff" stroke="#63b8ff" points="853.59,-132.1 844.66,-137.79 855.19,-138.91 853.59,-132.1"/>
</a>
</g>
</g>
<!-- Node13 -->
<g id="Node000013" class="node">
<title>Node13</title>
<g id="a_Node000013"><a xlink:href="../../d9/d55/scene-viewer_8hpp.html" target="_top" xlink:title=" ">
<polygon fill="white" stroke="#666666" points="665.12,-85.75 532.88,-85.75 532.88,-66.5 665.12,-66.5 665.12,-85.75"/>
<text text-anchor="middle" x="599" y="-72.25" font-family="Helvetica,sans-Serif" font-size="10.00">d3d_test/scene&#45;viewer.hpp</text>
</a>
</g>
</g>
<!-- Node5&#45;&gt;Node13 -->
<g id="edge16_Node000005_Node000013" class="edge">
<title>Node5&#45;&gt;Node13</title>
<g id="a_edge16_Node000005_Node000013"><a xlink:title=" ">
<path fill="none" stroke="#63b8ff" d="M766.79,-134.52C726,-120.57 661.6,-98.54 625.6,-86.23"/>
<polygon fill="#63b8ff" stroke="#63b8ff" points="765.59,-137.81 776.19,-137.74 767.86,-131.19 765.59,-137.81"/>
</a>
</g>
</g>
<!-- Node14 -->
<g id="Node000014" class="node">
<title>Node14</title>
<g id="a_Node000014"><a xlink:href="../../da/d5c/engine_8cpp.html" target="_top" xlink:title=" ">
<polygon fill="white" stroke="#666666" points="1282.88,-85.75 1167.12,-85.75 1167.12,-66.5 1282.88,-66.5 1282.88,-85.75"/>
<text text-anchor="middle" x="1225" y="-72.25" font-family="Helvetica,sans-Serif" font-size="10.00">engine/core/engine.cpp</text>
</a>
</g>
</g>
<!-- Node5&#45;&gt;Node14 -->
<g id="edge18_Node000005_Node000014" class="edge">
<title>Node5&#45;&gt;Node14</title>
<g id="a_edge18_Node000005_Node000014"><a xlink:title=" ">
<path fill="none" stroke="#63b8ff" d="M873.24,-140.48C944.99,-132.74 1060.13,-118.34 1158,-97 1171.28,-94.1 1185.76,-89.94 1197.85,-86.17"/>
<polygon fill="#63b8ff" stroke="#63b8ff" points="873.18,-136.96 863.61,-141.5 873.92,-143.92 873.18,-136.96"/>
</a>
</g>
</g>
<!-- Node15 -->
<g id="Node000015" class="node">
<title>Node15</title>
<g id="a_Node000015"><a xlink:href="../../d1/da2/deferred-hdr-render-pipeline_8cpp.html" target="_top" xlink:title=" ">
<polygon fill="white" stroke="#666666" points="196.38,-91.38 65.62,-91.38 65.62,-60.88 196.38,-60.88 196.38,-91.38"/>
<text text-anchor="start" x="73.62" y="-77.88" font-family="Helvetica,sans-Serif" font-size="10.00">engine/direct3d11/deferred</text>
<text text-anchor="middle" x="131" y="-66.62" font-family="Helvetica,sans-Serif" font-size="10.00">&#45;hdr&#45;render&#45;pipeline.cpp</text>
</a>
</g>
</g>
<!-- Node5&#45;&gt;Node15 -->
<g id="edge19_Node000005_Node000015" class="edge">
<title>Node5&#45;&gt;Node15</title>
<g id="a_edge19_Node000005_Node000015"><a xlink:title=" ">
<path fill="none" stroke="#63b8ff" d="M734.39,-145.35C622.34,-141.42 395.37,-129.79 206,-97 198.04,-95.62 189.69,-93.8 181.57,-91.81"/>
<polygon fill="#63b8ff" stroke="#63b8ff" points="734.22,-148.85 744.33,-145.69 734.46,-141.85 734.22,-148.85"/>
</a>
</g>
</g>
<!-- Node5&#45;&gt;Node16 -->
<g id="edge20_Node000005_Node000016" class="edge">
<title>Node5&#45;&gt;Node16</title>
<g id="a_edge20_Node000005_Node000016"><a xlink:title=" ">
<path fill="none" stroke="#63b8ff" d="M873.01,-146.66C1010.04,-144.64 1325.86,-135.77 1588,-97 1597.15,-95.65 1606.76,-93.81 1616.1,-91.8"/>
<polygon fill="#63b8ff" stroke="#63b8ff" points="873.35,-143.15 863.4,-146.79 873.45,-150.15 873.35,-143.15"/>
</a>
</g>
</g>
<!-- Node5&#45;&gt;Node17 -->
<g id="edge21_Node000005_Node000017" class="edge">
<title>Node5&#45;&gt;Node17</title>
<g id="a_edge21_Node000005_Node000017"><a xlink:title=" ">
<path fill="none" stroke="#63b8ff" d="M734.65,-137.89C671.02,-128.88 574.27,-114.13 491,-97 486.57,-96.09 482.01,-95.09 477.42,-94.05"/>
<polygon fill="#63b8ff" stroke="#63b8ff" points="733.86,-141.31 744.25,-139.24 734.83,-134.38 733.86,-141.31"/>
</a>
</g>
</g>
<!-- Node18 -->
<g id="Node000018" class="node">
<title>Node18</title>
<g id="a_Node000018"><a xlink:href="../../d2/d11/emissive-particle-render-system_8cpp.html" target="_top" xlink:title=" ">
<polygon fill="white" stroke="#666666" points="1431,-97 1301,-97 1301,-55.25 1431,-55.25 1431,-97"/>
<text text-anchor="start" x="1309" y="-83.5" font-family="Helvetica,sans-Serif" font-size="10.00">engine/subsystems/render</text>
<text text-anchor="start" x="1309" y="-72.25" font-family="Helvetica,sans-Serif" font-size="10.00">/detail/emissive&#45;particle</text>
<text text-anchor="middle" x="1366" y="-61" font-family="Helvetica,sans-Serif" font-size="10.00">&#45;render&#45;system.cpp</text>
</a>
</g>
</g>
<!-- Node5&#45;&gt;Node18 -->
<g id="edge22_Node000005_Node000018" class="edge">
<title>Node5&#45;&gt;Node18</title>
<g id="a_edge22_Node000005_Node000018"><a xlink:title=" ">
<path fill="none" stroke="#63b8ff" d="M873.75,-143.58C968.91,-137.78 1144.46,-124.23 1292,-97 1294.88,-96.47 1297.81,-95.88 1300.76,-95.25"/>
<polygon fill="#63b8ff" stroke="#63b8ff" points="873.55,-140.09 863.78,-144.18 873.97,-147.07 873.55,-140.09"/>
</a>
</g>
</g>
<!-- Node5&#45;&gt;Node19 -->
<g id="edge23_Node000005_Node000019" class="edge">
<title>Node5&#45;&gt;Node19</title>
<g id="a_edge23_Node000005_Node000019"><a xlink:title=" ">
<path fill="none" stroke="#63b8ff" d="M873.77,-147.78C1031.83,-148.07 1428.94,-143.63 1757,-97 1766.3,-95.68 1776.08,-93.83 1785.57,-91.79"/>
<polygon fill="#63b8ff" stroke="#63b8ff" points="873.88,-144.28 863.87,-147.76 873.87,-151.28 873.88,-144.28"/>
</a>
</g>
</g>
<!-- Node20 -->
<g id="Node000020" class="node">
<title>Node20</title>
<g id="a_Node000020"><a xlink:href="../../d8/d9c/light-render-system_8cpp.html" target="_top" xlink:title=" ">
<polygon fill="white" stroke="#666666" points="828.88,-91.38 683.12,-91.38 683.12,-60.88 828.88,-60.88 828.88,-91.38"/>
<text text-anchor="start" x="691.12" y="-77.88" font-family="Helvetica,sans-Serif" font-size="10.00">engine/subsystems/render</text>
<text text-anchor="middle" x="756" y="-66.62" font-family="Helvetica,sans-Serif" font-size="10.00">/detail/light&#45;render&#45;system.cpp</text>
</a>
</g>
</g>
<!-- Node5&#45;&gt;Node20 -->
<g id="edge24_Node000005_Node000020" class="edge">
<title>Node5&#45;&gt;Node20</title>
<g id="a_edge24_Node000005_Node000020"><a xlink:title=" ">
<path fill="none" stroke="#63b8ff" d="M791.64,-129.19C783.69,-117.57 773.49,-102.67 766.04,-91.79"/>
<polygon fill="#63b8ff" stroke="#63b8ff" points="788.53,-130.84 797.07,-137.12 794.31,-126.89 788.53,-130.84"/>
</a>
</g>
</g>
<!-- Node5&#45;&gt;Node21 -->
<g id="edge25_Node000005_Node000021" class="edge">
<title>Node5&#45;&gt;Node21</title>
<g id="a_edge25_Node000005_Node000021"><a xlink:title=" ">
<path fill="none" stroke="#63b8ff" d="M873.63,-145.92C991.19,-142.75 1236.12,-132.13 1440,-97 1442.88,-96.5 1445.82,-95.94 1448.77,-95.34"/>
<polygon fill="#63b8ff" stroke="#63b8ff" points="873.74,-142.42 863.83,-146.17 873.92,-149.41 873.74,-142.42"/>
</a>
</g>
</g>
<!-- Node6&#45;&gt;Node3 -->
<g id="edge7_Node000006_Node000003" class="edge">
<title>Node6&#45;&gt;Node3</title>
<g id="a_edge7_Node000006_Node000003"><a xlink:title=" ">
<path fill="none" stroke="#63b8ff" d="M875.92,-63.55C863.56,-60.74 850.31,-57.8 838,-55.25 773.73,-41.91 699.36,-28.31 650.87,-19.69"/>
<polygon fill="#63b8ff" stroke="#63b8ff" points="874.95,-66.92 885.48,-65.75 876.52,-60.1 874.95,-66.92"/>
</a>
</g>
</g>
<!-- Node7 -->
<g id="Node000007" class="node">
<title>Node7</title>
<g id="a_Node000007"><a xlink:href="../../d5/dbb/camera-movement_8cpp.html" target="_top" xlink:title=" ">
<polygon fill="white" stroke="#666666" points="1000.75,-19.25 845.25,-19.25 845.25,0 1000.75,0 1000.75,-19.25"/>
<text text-anchor="middle" x="923" y="-5.75" font-family="Helvetica,sans-Serif" font-size="10.00">d3d_test/camera&#45;movement.cpp</text>
</a>
</g>
</g>
<!-- Node6&#45;&gt;Node7 -->
<g id="edge6_Node000006_Node000007" class="edge">
<title>Node6&#45;&gt;Node7</title>
<g id="a_edge6_Node000006_Node000007"><a xlink:title=" ">
<path fill="none" stroke="#63b8ff" d="M924.38,-55.02C924.01,-43.12 923.56,-28.63 923.28,-19.52"/>
<polygon fill="#63b8ff" stroke="#63b8ff" points="920.87,-54.76 924.67,-64.64 927.86,-54.54 920.87,-54.76"/>
</a>
</g>
</g>
<!-- Node8&#45;&gt;Node3 -->
<g id="edge9_Node000008_Node000003" class="edge">
<title>Node8&#45;&gt;Node3</title>
<g id="a_edge9_Node000008_Node000003"><a xlink:title=" ">
<path fill="none" stroke="#63b8ff" d="M310.4,-62.69C319.4,-60.02 328.99,-57.37 338,-55.25 407.36,-38.94 488.41,-26.02 541.57,-18.37"/>
<polygon fill="#63b8ff" stroke="#63b8ff" points="309.4,-59.34 300.86,-65.6 311.45,-66.03 309.4,-59.34"/>
</a>
</g>
</g>
<!-- Node8&#45;&gt;Node9 -->
<g id="edge10_Node000008_Node000009" class="edge">
<title>Node8&#45;&gt;Node9</title>
<g id="a_edge10_Node000008_Node000009"><a xlink:title=" ">
<path fill="none" stroke="#63b8ff" d="M272,-54.65C272,-42.82 272,-28.54 272,-19.52"/>
<polygon fill="#63b8ff" stroke="#63b8ff" points="268.5,-54.64 272,-64.64 275.5,-54.64 268.5,-54.64"/>
</a>
</g>
</g>
<!-- Node10&#45;&gt;Node3 -->
<g id="edge13_Node000010_Node000003" class="edge">
<title>Node10&#45;&gt;Node3</title>
<g id="a_edge13_Node000010_Node000003"><a xlink:title=" ">
<path fill="none" stroke="#63b8ff" d="M1044.72,-62.93C1034.15,-60.07 1022.71,-57.27 1012,-55.25 886.39,-31.52 736.73,-19.26 656.54,-13.96"/>
<polygon fill="#63b8ff" stroke="#63b8ff" points="1043.73,-66.29 1054.31,-65.62 1045.62,-59.55 1043.73,-66.29"/>
</a>
</g>
</g>
<!-- Node11 -->
<g id="Node000011" class="node">
<title>Node11</title>
<g id="a_Node000011"><a xlink:href="../../d4/d94/object-editor_8cpp.html" target="_top" xlink:title=" ">
<polygon fill="white" stroke="#666666" points="1296.88,-19.25 1169.12,-19.25 1169.12,0 1296.88,0 1296.88,-19.25"/>
<text text-anchor="middle" x="1233" y="-5.75" font-family="Helvetica,sans-Serif" font-size="10.00">d3d_test/object&#45;editor.cpp</text>
</a>
</g>
</g>
<!-- Node10&#45;&gt;Node11 -->
<g id="edge14_Node000010_Node000011" class="edge">
<title>Node10&#45;&gt;Node11</title>
<g id="a_edge14_Node000010_Node000011"><a xlink:title=" ">
<path fill="none" stroke="#63b8ff" d="M1116.25,-61.51C1145.14,-48.92 1187.25,-30.56 1212.22,-19.68"/>
<polygon fill="#63b8ff" stroke="#63b8ff" points="1115.05,-58.21 1107.28,-65.42 1117.84,-64.63 1115.05,-58.21"/>
</a>
</g>
</g>
<!-- Node12 -->
<g id="Node000012" class="node">
<title>Node12</title>
<g id="a_Node000012"><a xlink:href="../../d0/d38/scene-viewer_8cpp.html" target="_top" xlink:title=" ">
<polygon fill="white" stroke="#666666" points="1151.12,-19.25 1018.88,-19.25 1018.88,0 1151.12,0 1151.12,-19.25"/>
<text text-anchor="middle" x="1085" y="-5.75" font-family="Helvetica,sans-Serif" font-size="10.00">d3d_test/scene&#45;viewer.cpp</text>
</a>
</g>
</g>
<!-- Node10&#45;&gt;Node12 -->
<g id="edge15_Node000010_Node000012" class="edge">
<title>Node10&#45;&gt;Node12</title>
<g id="a_edge15_Node000010_Node000012"><a xlink:title=" ">
<path fill="none" stroke="#63b8ff" d="M1085,-54.65C1085,-42.82 1085,-28.54 1085,-19.52"/>
<polygon fill="#63b8ff" stroke="#63b8ff" points="1081.5,-54.64 1085,-64.64 1088.5,-54.64 1081.5,-54.64"/>
</a>
</g>
</g>
<!-- Node13&#45;&gt;Node3 -->
<g id="edge17_Node000013_Node000003" class="edge">
<title>Node13&#45;&gt;Node3</title>
<g id="a_edge17_Node000013_Node000003"><a xlink:title=" ">
<path fill="none" stroke="#63b8ff" d="M599,-54.65C599,-42.82 599,-28.54 599,-19.52"/>
<polygon fill="#63b8ff" stroke="#63b8ff" points="595.5,-54.64 599,-64.64 602.5,-54.64 595.5,-54.64"/>
</a>
</g>
</g>
<!-- Node23 -->
<g id="Node000023" class="node">
<title>Node23</title>
<g id="a_Node000023"><a xlink:href="../../d4/d87/layers_8hpp.html" target="_top" xlink:title=" ">
<polygon fill="white" stroke="#666666" points="776.38,-218.75 663.62,-218.75 663.62,-199.5 776.38,-199.5 776.38,-218.75"/>
<text text-anchor="middle" x="720" y="-205.25" font-family="Helvetica,sans-Serif" font-size="10.00">engine/core/layers.hpp</text>
</a>
</g>
</g>
<!-- Node22&#45;&gt;Node23 -->
<g id="edge27_Node000022_Node000023" class="edge">
<title>Node22&#45;&gt;Node23</title>
<g id="a_edge27_Node000022_Node000023"><a xlink:title=" ">
<path fill="none" stroke="#63b8ff" d="M720,-248.71C720,-238.14 720,-226.62 720,-218.95"/>
<polygon fill="#63b8ff" stroke="#63b8ff" points="716.5,-248.48 720,-258.48 723.5,-248.48 716.5,-248.48"/>
</a>
</g>
</g>
<!-- Node22&#45;&gt;Node24 -->
<g id="edge29_Node000022_Node000024" class="edge">
<title>Node22&#45;&gt;Node24</title>
<g id="a_edge29_Node000022_Node000024"><a xlink:title=" ">
<path fill="none" stroke="#63b8ff" d="M658.98,-257.55C570.47,-232.78 407.99,-187.31 324.53,-163.95"/>
<polygon fill="#63b8ff" stroke="#63b8ff" points="657.88,-260.88 668.46,-260.2 659.77,-254.13 657.88,-260.88"/>
</a>
</g>
</g>
<!-- Node23&#45;&gt;Node5 -->
<g id="edge28_Node000023_Node000005" class="edge">
<title>Node23&#45;&gt;Node5</title>
<g id="a_edge28_Node000023_Node000005"><a xlink:title=" ">
<path fill="none" stroke="#63b8ff" d="M741.76,-192.88C757.41,-181.9 778,-167.47 791.12,-158.28"/>
<polygon fill="#63b8ff" stroke="#63b8ff" points="740.18,-189.71 734,-198.31 744.19,-195.44 740.18,-189.71"/>
</a>
</g>
</g>
<!-- Node24&#45;&gt;Node8 -->
<g id="edge30_Node000024_Node000008" class="edge">
<title>Node24&#45;&gt;Node8</title>
<g id="a_edge30_Node000024_Node000008"><a xlink:title=" ">
<path fill="none" stroke="#63b8ff" d="M272,-121.48C272,-108.98 272,-94.77 272,-85.88"/>
<polygon fill="#63b8ff" stroke="#63b8ff" points="268.5,-121.21 272,-131.21 275.5,-121.21 268.5,-121.21"/>
</a>
</g>
</g>
<!-- Node24&#45;&gt;Node9 -->
<g id="edge31_Node000024_Node000009" class="edge">
<title>Node24&#45;&gt;Node9</title>
<g id="a_edge31_Node000024_Node000009"><a xlink:title=" ">
<path fill="none" stroke="#63b8ff" d="M194.97,-140.49C117.3,-130.65 14.5,-107.48 57,-55.25 77.93,-29.53 169.74,-18.15 226.4,-13.51"/>
<polygon fill="#63b8ff" stroke="#63b8ff" points="194.38,-143.94 204.73,-141.66 195.22,-136.99 194.38,-143.94"/>
</a>
</g>
</g>
<!-- Node24&#45;&gt;Node15 -->
<g id="edge32_Node000024_Node000015" class="edge">
<title>Node24&#45;&gt;Node15</title>
<g id="a_edge32_Node000024_Node000015"><a xlink:title=" ">
<path fill="none" stroke="#63b8ff" d="M232.38,-127.55C209.57,-116.2 181.38,-102.18 160.52,-91.81"/>
<polygon fill="#63b8ff" stroke="#63b8ff" points="230.57,-130.56 241.09,-131.88 233.69,-124.29 230.57,-130.56"/>
</a>
</g>
</g>
</g>
</svg>
