<?xml version="1.0" encoding="UTF-8" standalone="no"?>
<!DOCTYPE svg PUBLIC "-//W3C//DTD SVG 1.1//EN"
 "http://www.w3.org/Graphics/SVG/1.1/DTD/svg11.dtd">
<!-- Generated by graphviz version 8.1.0 (20230707.0739)
 -->
<!-- Title: engine/subsystems/render/detail/grass&#45;render&#45;system.hpp Pages: 1 -->
<svg width="1926pt" height="482pt"
 viewBox="0.00 0.00 1925.88 481.50" xmlns="http://www.w3.org/2000/svg" xmlns:xlink="http://www.w3.org/1999/xlink">
<g id="graph0" class="graph" transform="scale(1 1) rotate(0) translate(4 477.5)">
<title>engine/subsystems/render/detail/grass&#45;render&#45;system.hpp</title>
<!-- Node1 -->
<g id="Node000001" class="node">
<title>Node1</title>
<g id="a_Node000001"><a xlink:title=" ">
<polygon fill="#999999" stroke="#666666" points="1014.88,-473.5 863.12,-473.5 863.12,-443 1014.88,-443 1014.88,-473.5"/>
<text text-anchor="start" x="871.12" y="-460" font-family="Helvetica,sans-Serif" font-size="10.00">engine/subsystems/render</text>
<text text-anchor="middle" x="939" y="-448.75" font-family="Helvetica,sans-Serif" font-size="10.00">/detail/grass&#45;render&#45;system.hpp</text>
</a>
</g>
</g>
<!-- Node2 -->
<g id="Node000002" class="node">
<title>Node2</title>
<g id="a_Node000002"><a xlink:href="../../d1/dae/renderer_8hpp.html" target="_top" xlink:title=" ">
<polygon fill="white" stroke="#666666" points="570.38,-407 439.62,-407 439.62,-387.75 570.38,-387.75 570.38,-407"/>
<text text-anchor="middle" x="505" y="-393.5" font-family="Helvetica,sans-Serif" font-size="10.00">engine/render/renderer.hpp</text>
</a>
</g>
</g>
<!-- Node1&#45;&gt;Node2 -->
<g id="edge1_Node000001_Node000002" class="edge">
<title>Node1&#45;&gt;Node2</title>
<g id="a_edge1_Node000001_Node000002"><a xlink:title=" ">
<path fill="none" stroke="#63b8ff" d="M852.23,-445.48C769.22,-434.22 645.86,-417.48 570.71,-407.29"/>
<polygon fill="#63b8ff" stroke="#63b8ff" points="851.53,-449.05 861.91,-446.93 852.47,-442.11 851.53,-449.05"/>
</a>
</g>
</g>
<!-- Node19 -->
<g id="Node000019" class="node">
<title>Node19</title>
<g id="a_Node000019"><a xlink:href="../../df/d58/grass-render-system_8cpp.html" target="_top" xlink:title=" ">
<polygon fill="white" stroke="#666666" points="1917.88,-91.38 1766.12,-91.38 1766.12,-60.88 1917.88,-60.88 1917.88,-91.38"/>
<text text-anchor="start" x="1774.12" y="-77.88" font-family="Helvetica,sans-Serif" font-size="10.00">engine/subsystems/render</text>
<text text-anchor="middle" x="1842" y="-66.62" font-family="Helvetica,sans-Serif" font-size="10.00">/detail/grass&#45;render&#45;system.cpp</text>
</a>
</g>
</g>
<!-- Node1&#45;&gt;Node19 -->
<g id="edge42_Node000001_Node000019" class="edge">
<title>Node1&#45;&gt;Node19</title>
<g id="a_edge42_Node000001_Node000019"><a xlink:title=" ">
<path fill="none" stroke="#63b8ff" d="M1025.98,-454.65C1243.55,-446.99 1794,-420.03 1794,-343.12 1794,-343.12 1794,-343.12 1794,-208.12 1794,-163.56 1818.8,-115.38 1832.75,-91.81"/>
<polygon fill="#63b8ff" stroke="#63b8ff" points="1026.12,-451.18 1016.25,-455.02 1026.37,-458.17 1026.12,-451.18"/>
</a>
</g>
</g>
<!-- Node3 -->
<g id="Node000003" class="node">
<title>Node3</title>
<g id="a_Node000003"><a xlink:href="../../d1/d47/controller_8cpp.html" target="_top" xlink:title=" ">
<polygon fill="white" stroke="#666666" points="656.12,-19.25 541.88,-19.25 541.88,0 656.12,0 656.12,-19.25"/>
<text text-anchor="middle" x="599" y="-5.75" font-family="Helvetica,sans-Serif" font-size="10.00">d3d_test/controller.cpp</text>
</a>
</g>
</g>
<!-- Node2&#45;&gt;Node3 -->
<g id="edge2_Node000002_Node000003" class="edge">
<title>Node2&#45;&gt;Node3</title>
<g id="a_edge2_Node000002_Node000003"><a xlink:title=" ">
<path fill="none" stroke="#63b8ff" d="M428.51,-393.99C287.31,-387.51 0,-363.62 0,-276.62 0,-276.62 0,-276.62 0,-147.25 0,-99.15 15.97,-80.36 57,-55.25 97.62,-30.39 410.84,-17 541.77,-12.44"/>
<polygon fill="#63b8ff" stroke="#63b8ff" points="428.09,-397.52 438.24,-394.47 428.4,-390.53 428.09,-397.52"/>
</a>
</g>
</g>
<!-- Node4 -->
<g id="Node000004" class="node">
<title>Node4</title>
<g id="a_Node000004"><a xlink:href="../../d5/d9b/scene_8hpp.html" target="_top" xlink:title=" ">
<polygon fill="white" stroke="#666666" points="902.75,-351.75 789.25,-351.75 789.25,-332.5 902.75,-332.5 902.75,-351.75"/>
<text text-anchor="middle" x="846" y="-338.25" font-family="Helvetica,sans-Serif" font-size="10.00">engine/core/scene.hpp</text>
</a>
</g>
</g>
<!-- Node2&#45;&gt;Node4 -->
<g id="edge3_Node000002_Node000004" class="edge">
<title>Node2&#45;&gt;Node4</title>
<g id="a_edge3_Node000002_Node000004"><a xlink:title=" ">
<path fill="none" stroke="#63b8ff" d="M573.9,-385.62C637.11,-375.74 729.66,-361.29 788.86,-352.05"/>
<polygon fill="#63b8ff" stroke="#63b8ff" points="573.57,-382.28 564.23,-387.28 574.65,-389.2 573.57,-382.28"/>
</a>
</g>
</g>
<!-- Node24 -->
<g id="Node000024" class="node">
<title>Node24</title>
<g id="a_Node000024"><a xlink:href="../../db/df9/deferred-hdr-render-pipeline_8hpp.html" target="_top" xlink:title=" ">
<polygon fill="white" stroke="#666666" points="337.38,-163.5 206.62,-163.5 206.62,-133 337.38,-133 337.38,-163.5"/>
<text text-anchor="start" x="214.62" y="-150" font-family="Helvetica,sans-Serif" font-size="10.00">engine/direct3d11/deferred</text>
<text text-anchor="middle" x="272" y="-138.75" font-family="Helvetica,sans-Serif" font-size="10.00">&#45;hdr&#45;render&#45;pipeline.hpp</text>
</a>
</g>
</g>
<!-- Node2&#45;&gt;Node24 -->
<g id="edge40_Node000002_Node000024" class="edge">
<title>Node2&#45;&gt;Node24</title>
<g id="a_edge40_Node000002_Node000024"><a xlink:title=" ">
<path fill="none" stroke="#63b8ff" d="M489.03,-379.44C445.64,-333.41 326.08,-206.61 285.6,-163.68"/>
<polygon fill="#63b8ff" stroke="#63b8ff" points="486.02,-381.41 495.43,-386.29 491.12,-376.61 486.02,-381.41"/>
</a>
</g>
</g>
<!-- Node26 -->
<g id="Node000026" class="node">
<title>Node26</title>
<g id="a_Node000026"><a xlink:href="../../d6/d54/renderer_8cpp.html" target="_top" xlink:title=" ">
<polygon fill="white" stroke="#666666" points="570.38,-285.25 439.62,-285.25 439.62,-266 570.38,-266 570.38,-285.25"/>
<text text-anchor="middle" x="505" y="-271.75" font-family="Helvetica,sans-Serif" font-size="10.00">engine/render/renderer.cpp</text>
</a>
</g>
</g>
<!-- Node2&#45;&gt;Node26 -->
<g id="edge41_Node000002_Node000026" class="edge">
<title>Node2&#45;&gt;Node26</title>
<g id="a_edge41_Node000002_Node000026"><a xlink:title=" ">
<path fill="none" stroke="#63b8ff" d="M505,-376.49C505,-350.21 505,-304.98 505,-285.73"/>
<polygon fill="#63b8ff" stroke="#63b8ff" points="501.5,-376.37 505,-386.37 508.5,-376.37 501.5,-376.37"/>
</a>
</g>
</g>
<!-- Node5 -->
<g id="Node000005" class="node">
<title>Node5</title>
<g id="a_Node000005"><a xlink:href="../../de/d46/engine_8hpp.html" target="_top" xlink:title=" ">
<polygon fill="white" stroke="#666666" points="861.88,-157.88 746.12,-157.88 746.12,-138.62 861.88,-138.62 861.88,-157.88"/>
<text text-anchor="middle" x="804" y="-144.38" font-family="Helvetica,sans-Serif" font-size="10.00">engine/core/engine.hpp</text>
</a>
</g>
</g>
<!-- Node4&#45;&gt;Node5 -->
<g id="edge4_Node000004_Node000005" class="edge">
<title>Node4&#45;&gt;Node5</title>
<g id="a_edge4_Node000004_Node000005"><a xlink:title=" ">
<path fill="none" stroke="#63b8ff" d="M834.86,-323.04C830.49,-315.16 825.85,-305.64 823,-296.5 807.2,-245.81 804.53,-181.35 804.08,-158.11"/>
<polygon fill="#63b8ff" stroke="#63b8ff" points="832.2,-324.43 840.27,-331.29 838.24,-320.89 832.2,-324.43"/>
</a>
</g>
</g>
<!-- Node16 -->
<g id="Node000016" class="node">
<title>Node16</title>
<g id="a_Node000016"><a xlink:href="../../d8/d30/decal-render-system_8cpp.html" target="_top" xlink:title=" ">
<polygon fill="white" stroke="#666666" points="1748.5,-91.38 1597.5,-91.38 1597.5,-60.88 1748.5,-60.88 1748.5,-91.38"/>
<text text-anchor="start" x="1605.5" y="-77.88" font-family="Helvetica,sans-Serif" font-size="10.00">engine/subsystems/render</text>
<text text-anchor="middle" x="1673" y="-66.62" font-family="Helvetica,sans-Serif" font-size="10.00">/detail/decal&#45;render&#45;system.cpp</text>
</a>
</g>
</g>
<!-- Node4&#45;&gt;Node16 -->
<g id="edge35_Node000004_Node000016" class="edge">
<title>Node4&#45;&gt;Node16</title>
<g id="a_edge35_Node000004_Node000016"><a xlink:title=" ">
<path fill="none" stroke="#63b8ff" d="M913.66,-338.75C1027.53,-334.11 1252.32,-321.98 1327,-296.5 1467.69,-248.5 1609.28,-132.66 1656.52,-91.74"/>
<polygon fill="#63b8ff" stroke="#63b8ff" points="913.85,-335.28 904,-339.18 914.13,-342.28 913.85,-335.28"/>
</a>
</g>
</g>
<!-- Node17 -->
<g id="Node000017" class="node">
<title>Node17</title>
<g id="a_Node000017"><a xlink:href="../../d1/d58/dissolution-render-system_8cpp.html" target="_top" xlink:title=" ">
<polygon fill="white" stroke="#666666" points="477,-97 347,-97 347,-55.25 477,-55.25 477,-97"/>
<text text-anchor="start" x="355" y="-83.5" font-family="Helvetica,sans-Serif" font-size="10.00">engine/subsystems/render</text>
<text text-anchor="start" x="355" y="-72.25" font-family="Helvetica,sans-Serif" font-size="10.00">/detail/dissolution&#45;render</text>
<text text-anchor="middle" x="412" y="-61" font-family="Helvetica,sans-Serif" font-size="10.00">&#45;system.cpp</text>
</a>
</g>
</g>
<!-- Node4&#45;&gt;Node17 -->
<g id="edge36_Node000004_Node000017" class="edge">
<title>Node4&#45;&gt;Node17</title>
<g id="a_edge36_Node000004_Node000017"><a xlink:title=" ">
<path fill="none" stroke="#63b8ff" d="M778.37,-332.88C742.06,-326.5 697.42,-315.43 661,-296.5 559.53,-243.74 465.71,-140.91 428.69,-97.37"/>
<polygon fill="#63b8ff" stroke="#63b8ff" points="777.42,-336.43 787.86,-334.63 778.57,-329.53 777.42,-336.43"/>
</a>
</g>
</g>
<!-- Node21 -->
<g id="Node000021" class="node">
<title>Node21</title>
<g id="a_Node000021"><a xlink:href="../../d3/dfe/particle-render-system_8cpp.html" target="_top" xlink:title=" ">
<polygon fill="white" stroke="#666666" points="1579,-97 1449,-97 1449,-55.25 1579,-55.25 1579,-97"/>
<text text-anchor="start" x="1457" y="-83.5" font-family="Helvetica,sans-Serif" font-size="10.00">engine/subsystems/render</text>
<text text-anchor="start" x="1457" y="-72.25" font-family="Helvetica,sans-Serif" font-size="10.00">/detail/particle&#45;render</text>
<text text-anchor="middle" x="1514" y="-61" font-family="Helvetica,sans-Serif" font-size="10.00">&#45;system.cpp</text>
</a>
</g>
</g>
<!-- Node4&#45;&gt;Node21 -->
<g id="edge39_Node000004_Node000021" class="edge">
<title>Node4&#45;&gt;Node21</title>
<g id="a_edge39_Node000004_Node000021"><a xlink:title=" ">
<path fill="none" stroke="#63b8ff" d="M913.66,-339.38C1018.71,-335.8 1215.55,-325.36 1279,-296.5 1380.61,-250.29 1466.89,-142.39 1499.77,-97.39"/>
<polygon fill="#63b8ff" stroke="#63b8ff" points="913.74,-335.91 903.86,-339.73 913.97,-342.9 913.74,-335.91"/>
</a>
</g>
</g>
<!-- Node22 -->
<g id="Node000022" class="node">
<title>Node22</title>
<g id="a_Node000022"><a xlink:href="../../d9/d06/render-pipeline_8hpp.html" target="_top" xlink:title=" ">
<polygon fill="white" stroke="#666666" points="770,-290.88 670,-290.88 670,-260.38 770,-260.38 770,-290.88"/>
<text text-anchor="start" x="678" y="-277.38" font-family="Helvetica,sans-Serif" font-size="10.00">engine/core/layers</text>
<text text-anchor="middle" x="720" y="-266.12" font-family="Helvetica,sans-Serif" font-size="10.00">/render&#45;pipeline.hpp</text>
</a>
</g>
</g>
<!-- Node4&#45;&gt;Node22 -->
<g id="edge26_Node000004_Node000022" class="edge">
<title>Node4&#45;&gt;Node22</title>
<g id="a_edge26_Node000004_Node000022"><a xlink:title=" ">
<path fill="none" stroke="#63b8ff" d="M818.7,-327.15C797.93,-316.52 769.41,-301.92 748.38,-291.15"/>
<polygon fill="#63b8ff" stroke="#63b8ff" points="816.72,-330.58 827.21,-332.02 819.91,-324.35 816.72,-330.58"/>
</a>
</g>
</g>
<!-- Node25 -->
<g id="Node000025" class="node">
<title>Node25</title>
<g id="a_Node000025"><a xlink:href="../../d4/d7c/deferred-resolve_8cpp.html" target="_top" xlink:title=" ">
<polygon fill="white" stroke="#666666" points="944.38,-290.88 831.62,-290.88 831.62,-260.38 944.38,-260.38 944.38,-290.88"/>
<text text-anchor="start" x="839.62" y="-277.38" font-family="Helvetica,sans-Serif" font-size="10.00">engine/render/deferred</text>
<text text-anchor="middle" x="888" y="-266.12" font-family="Helvetica,sans-Serif" font-size="10.00">&#45;resolve.cpp</text>
</a>
</g>
</g>
<!-- Node4&#45;&gt;Node25 -->
<g id="edge33_Node000004_Node000025" class="edge">
<title>Node4&#45;&gt;Node25</title>
<g id="a_edge33_Node000004_Node000025"><a xlink:title=" ">
<path fill="none" stroke="#63b8ff" d="M857.81,-322.99C864.4,-312.86 872.51,-300.42 878.66,-290.97"/>
<polygon fill="#63b8ff" stroke="#63b8ff" points="854.36,-320.87 851.84,-331.16 860.23,-324.69 854.36,-320.87"/>
</a>
</g>
</g>
<!-- Node4&#45;&gt;Node26 -->
<g id="edge34_Node000004_Node000026" class="edge">
<title>Node4&#45;&gt;Node26</title>
<g id="a_edge34_Node000004_Node000026"><a xlink:title=" ">
<path fill="none" stroke="#63b8ff" d="M778.14,-331.05C725.08,-322.82 649.58,-310.31 584,-296.5 569.05,-293.35 552.66,-289.32 538.7,-285.72"/>
<polygon fill="#63b8ff" stroke="#63b8ff" points="777.36,-334.63 787.77,-332.69 778.42,-327.71 777.36,-334.63"/>
</a>
</g>
</g>
<!-- Node27 -->
<g id="Node000027" class="node">
<title>Node27</title>
<g id="a_Node000027"><a xlink:href="../../d8/dcb/emissive-render-system_8cpp.html" target="_top" xlink:title=" ">
<polygon fill="white" stroke="#666666" points="1092,-296.5 962,-296.5 962,-254.75 1092,-254.75 1092,-296.5"/>
<text text-anchor="start" x="970" y="-283" font-family="Helvetica,sans-Serif" font-size="10.00">engine/subsystems/render</text>
<text text-anchor="start" x="970" y="-271.75" font-family="Helvetica,sans-Serif" font-size="10.00">/detail/emissive&#45;render</text>
<text text-anchor="middle" x="1027" y="-260.5" font-family="Helvetica,sans-Serif" font-size="10.00">&#45;system.cpp</text>
</a>
</g>
</g>
<!-- Node4&#45;&gt;Node27 -->
<g id="edge37_Node000004_Node000027" class="edge">
<title>Node4&#45;&gt;Node27</title>
<g id="a_edge37_Node000004_Node000027"><a xlink:title=" ">
<path fill="none" stroke="#63b8ff" d="M881.72,-328.4C906.85,-319.44 941.01,-307.27 969.89,-296.98"/>
<polygon fill="#63b8ff" stroke="#63b8ff" points="880.79,-325.37 872.55,-332.02 883.14,-331.96 880.79,-325.37"/>
</a>
</g>
</g>
<!-- Node28 -->
<g id="Node000028" class="node">
<title>Node28</title>
<g id="a_Node000028"><a xlink:href="../../d1/d62/opaque-render-system_8cpp.html" target="_top" xlink:title=" ">
<polygon fill="white" stroke="#666666" points="1269.62,-290.88 1110.38,-290.88 1110.38,-260.38 1269.62,-260.38 1269.62,-290.88"/>
<text text-anchor="start" x="1118.38" y="-277.38" font-family="Helvetica,sans-Serif" font-size="10.00">engine/subsystems/render</text>
<text text-anchor="middle" x="1190" y="-266.12" font-family="Helvetica,sans-Serif" font-size="10.00">/detail/opaque&#45;render&#45;system.cpp</text>
</a>
</g>
</g>
<!-- Node4&#45;&gt;Node28 -->
<g id="edge38_Node000004_Node000028" class="edge">
<title>Node4&#45;&gt;Node28</title>
<g id="a_edge38_Node000004_Node000028"><a xlink:title=" ">
<path fill="none" stroke="#63b8ff" d="M913.01,-330.27C964.53,-321.72 1037.42,-309.16 1101,-296.5 1109.07,-294.89 1117.54,-293.12 1125.91,-291.31"/>
<polygon fill="#63b8ff" stroke="#63b8ff" points="912.65,-326.95 903.35,-332.04 913.79,-333.86 912.65,-326.95"/>
</a>
</g>
</g>
<!-- Node6 -->
<g id="Node000006" class="node">
<title>Node6</title>
<g id="a_Node000006"><a xlink:href="../../d0/d86/camera-movement_8hpp.html" target="_top" xlink:title=" ">
<polygon fill="white" stroke="#666666" points="1002.75,-85.75 847.25,-85.75 847.25,-66.5 1002.75,-66.5 1002.75,-85.75"/>
<text text-anchor="middle" x="925" y="-72.25" font-family="Helvetica,sans-Serif" font-size="10.00">d3d_test/camera&#45;movement.hpp</text>
</a>
</g>
</g>
<!-- Node5&#45;&gt;Node6 -->
<g id="edge5_Node000005_Node000006" class="edge">
<title>Node5&#45;&gt;Node6</title>
<g id="a_edge5_Node000005_Node000006"><a xlink:title=" ">
<path fill="none" stroke="#63b8ff" d="M828.56,-133.01C852.74,-119 888.94,-98.02 909.42,-86.16"/>
<polygon fill="#63b8ff" stroke="#63b8ff" points="827.22,-130.33 820.32,-138.37 830.73,-136.38 827.22,-130.33"/>
</a>
</g>
</g>
<!-- Node8 -->
<g id="Node000008" class="node">
<title>Node8</title>
<g id="a_Node000008"><a xlink:href="../../dc/dfb/controller_8hpp.html" target="_top" xlink:title=" ">
<polygon fill="white" stroke="#666666" points="329.12,-85.75 214.88,-85.75 214.88,-66.5 329.12,-66.5 329.12,-85.75"/>
<text text-anchor="middle" x="272" y="-72.25" font-family="Helvetica,sans-Serif" font-size="10.00">d3d_test/controller.hpp</text>
</a>
</g>
</g>
<!-- Node5&#45;&gt;Node8 -->
<g id="edge8_Node000005_Node000008" class="edge">
<title>Node5&#45;&gt;Node8</title>
<g id="a_edge8_Node000005_Node000008"><a xlink:title=" ">
<path fill="none" stroke="#63b8ff" d="M734.93,-143.8C643.41,-138.33 477.28,-125.23 338,-97 324.63,-94.29 310.08,-90.05 298.05,-86.19"/>
<polygon fill="#63b8ff" stroke="#63b8ff" points="734.53,-147.34 744.72,-144.43 734.94,-140.36 734.53,-147.34"/>
</a>
</g>
</g>
<!-- Node9 -->
<g id="Node000009" class="node">
<title>Node9</title>
<g id="a_Node000009"><a xlink:href="../../d9/d0f/main_8cc.html" target="_top" xlink:title=" ">
<polygon fill="white" stroke="#666666" points="317.12,-19.25 226.88,-19.25 226.88,0 317.12,0 317.12,-19.25"/>
<text text-anchor="middle" x="272" y="-5.75" font-family="Helvetica,sans-Serif" font-size="10.00">d3d_test/main.cc</text>
</a>
</g>
</g>
<!-- Node5&#45;&gt;Node9 -->
<g id="edge11_Node000005_Node000009" class="edge">
<title>Node5&#45;&gt;Node9</title>
<g id="a_edge11_Node000005_Node000009"><a xlink:title=" ">
<path fill="none" stroke="#63b8ff" d="M734.93,-147.07C675.6,-144.16 589.51,-133.21 524,-97 502.04,-84.86 507.79,-67.69 486,-55.25 433.27,-25.13 362.86,-15.23 317.47,-12.04"/>
<polygon fill="#63b8ff" stroke="#63b8ff" points="734.55,-150.59 744.69,-147.52 734.85,-143.6 734.55,-150.59"/>
</a>
</g>
</g>
<!-- Node10 -->
<g id="Node000010" class="node">
<title>Node10</title>
<g id="a_Node000010"><a xlink:href="../../da/df5/object-editor_8hpp.html" target="_top" xlink:title=" ">
<polygon fill="white" stroke="#666666" points="1148.88,-85.75 1021.12,-85.75 1021.12,-66.5 1148.88,-66.5 1148.88,-85.75"/>
<text text-anchor="middle" x="1085" y="-72.25" font-family="Helvetica,sans-Serif" font-size="10.00">d3d_test/object&#45;editor.hpp</text>
</a>
</g>
</g>
<!-- Node5&#45;&gt;Node10 -->
<g id="edge12_Node000005_Node000010" class="edge">
<title>Node5&#45;&gt;Node10</title>
<g id="a_edge12_Node000005_Node000010"><a xlink:title=" ">
<path fill="none" stroke="#63b8ff" d="M853.74,-135.66C895.94,-125.72 958.05,-110.86 1012,-97 1025.23,-93.6 1039.76,-89.68 1052.35,-86.23"/>
<polygon fill="#63b8ff" stroke="#63b8ff" points="853.12,-132.44 844.19,-138.14 854.72,-139.26 853.12,-132.44"/>
</a>
</g>
</g>
<!-- Node13 -->
<g id="Node000013" class="node">
<title>Node13</title>
<g id="a_Node000013"><a xlink:href="../../d9/d55/scene-viewer_8hpp.html" target="_top" xlink:title=" ">
<polygon fill="white" stroke="#666666" points="665.12,-85.75 532.88,-85.75 532.88,-66.5 665.12,-66.5 665.12,-85.75"/>
<text text-anchor="middle" x="599" y="-72.25" font-family="Helvetica,sans-Serif" font-size="10.00">d3d_test/scene&#45;viewer.hpp</text>
</a>
</g>
</g>
<!-- Node5&#45;&gt;Node13 -->
<g id="edge16_Node000005_Node000013" class="edge">
<title>Node5&#45;&gt;Node13</title>
<g id="a_edge16_Node000005_Node000013"><a xlink:title=" ">
<path fill="none" stroke="#63b8ff" d="M767.31,-134.7C726.56,-120.76 661.76,-98.59 625.6,-86.23"/>
<polygon fill="#63b8ff" stroke="#63b8ff" points="766.02,-138.3 776.62,-138.23 768.29,-131.68 766.02,-138.3"/>
</a>
</g>
</g>
<!-- Node14 -->
<g id="Node000014" class="node">
<title>Node14</title>
<g id="a_Node000014"><a xlink:href="../../da/d5c/engine_8cpp.html" target="_top" xlink:title=" ">
<polygon fill="white" stroke="#666666" points="1282.88,-85.75 1167.12,-85.75 1167.12,-66.5 1282.88,-66.5 1282.88,-85.75"/>
<text text-anchor="middle" x="1225" y="-72.25" font-family="Helvetica,sans-Serif" font-size="10.00">engine/core/engine.cpp</text>
</a>
</g>
</g>
<!-- Node5&#45;&gt;Node14 -->
<g id="edge18_Node000005_Node000014" class="edge">
<title>Node5&#45;&gt;Node14</title>
<g id="a_edge18_Node000005_Node000014"><a xlink:title=" ">
<path fill="none" stroke="#63b8ff" d="M872.79,-140.52C944.52,-132.8 1059.93,-118.38 1158,-97 1171.28,-94.1 1185.76,-89.94 1197.85,-86.17"/>
<polygon fill="#63b8ff" stroke="#63b8ff" points="872.68,-137.12 863.1,-141.66 873.42,-144.08 872.68,-137.12"/>
</a>
</g>
</g>
<!-- Node15 -->
<g id="Node000015" class="node">
<title>Node15</title>
<g id="a_Node000015"><a xlink:href="../../d1/da2/deferred-hdr-render-pipeline_8cpp.html" target="_top" xlink:title=" ">
<polygon fill="white" stroke="#666666" points="196.38,-91.38 65.62,-91.38 65.62,-60.88 196.38,-60.88 196.38,-91.38"/>
<text text-anchor="start" x="73.62" y="-77.88" font-family="Helvetica,sans-Serif" font-size="10.00">engine/direct3d11/deferred</text>
<text text-anchor="middle" x="131" y="-66.62" font-family="Helvetica,sans-Serif" font-size="10.00">&#45;hdr&#45;render&#45;pipeline.cpp</text>
</a>
</g>
</g>
<!-- Node5&#45;&gt;Node15 -->
<g id="edge19_Node000005_Node000015" class="edge">
<title>Node5&#45;&gt;Node15</title>
<g id="a_edge19_Node000005_Node000015"><a xlink:title=" ">
<path fill="none" stroke="#63b8ff" d="M735.06,-145.38C623.26,-141.46 395.76,-129.85 206,-97 198.04,-95.62 189.69,-93.8 181.57,-91.81"/>
<polygon fill="#63b8ff" stroke="#63b8ff" points="734.73,-148.9 744.84,-145.74 734.97,-141.9 734.73,-148.9"/>
</a>
</g>
</g>
<!-- Node5&#45;&gt;Node16 -->
<g id="edge20_Node000005_Node000016" class="edge">
<title>Node5&#45;&gt;Node16</title>
<g id="a_edge20_Node000005_Node000016"><a xlink:title=" ">
<path fill="none" stroke="#63b8ff" d="M872.6,-146.66C1009.41,-144.66 1325.6,-135.81 1588,-97 1597.15,-95.65 1606.76,-93.81 1616.1,-91.8"/>
<polygon fill="#63b8ff" stroke="#63b8ff" points="872.84,-143.17 862.88,-146.81 872.93,-150.17 872.84,-143.17"/>
</a>
</g>
</g>
<!-- Node5&#45;&gt;Node17 -->
<g id="edge21_Node000005_Node000017" class="edge">
<title>Node5&#45;&gt;Node17</title>
<g id="a_edge21_Node000005_Node000017"><a xlink:title=" ">
<path fill="none" stroke="#63b8ff" d="M735.05,-137.95C671.42,-128.94 574.45,-114.16 491,-97 486.57,-96.09 482.01,-95.09 477.42,-94.05"/>
<polygon fill="#63b8ff" stroke="#63b8ff" points="734.36,-141.52 744.75,-139.45 735.33,-134.59 734.36,-141.52"/>
</a>
</g>
</g>
<!-- Node18 -->
<g id="Node000018" class="node">
<title>Node18</title>
<g id="a_Node000018"><a xlink:href="../../d2/d11/emissive-particle-render-system_8cpp.html" target="_top" xlink:title=" ">
<polygon fill="white" stroke="#666666" points="1431,-97 1301,-97 1301,-55.25 1431,-55.25 1431,-97"/>
<text text-anchor="start" x="1309" y="-83.5" font-family="Helvetica,sans-Serif" font-size="10.00">engine/subsystems/render</text>
<text text-anchor="start" x="1309" y="-72.25" font-family="Helvetica,sans-Serif" font-size="10.00">/detail/emissive&#45;particle</text>
<text text-anchor="middle" x="1366" y="-61" font-family="Helvetica,sans-Serif" font-size="10.00">&#45;render&#45;system.cpp</text>
</a>
</g>
</g>
<!-- Node5&#45;&gt;Node18 -->
<g id="edge22_Node000005_Node000018" class="edge">
<title>Node5&#45;&gt;Node18</title>
<g id="a_edge22_Node000005_Node000018"><a xlink:title=" ">
<path fill="none" stroke="#63b8ff" d="M873.17,-143.62C968.19,-137.83 1144.16,-124.28 1292,-97 1294.88,-96.47 1297.81,-95.88 1300.76,-95.25"/>
<polygon fill="#63b8ff" stroke="#63b8ff" points="873.04,-140.18 863.27,-144.27 873.46,-147.16 873.04,-140.18"/>
</a>
</g>
</g>
<!-- Node5&#45;&gt;Node19 -->
<g id="edge23_Node000005_Node000019" class="edge">
<title>Node5&#45;&gt;Node19</title>
<g id="a_edge23_Node000005_Node000019"><a xlink:title=" ">
<path fill="none" stroke="#63b8ff" d="M873.3,-147.78C1031.03,-148.08 1428.61,-143.67 1757,-97 1766.3,-95.68 1776.08,-93.83 1785.57,-91.79"/>
<polygon fill="#63b8ff" stroke="#63b8ff" points="873.37,-144.28 863.36,-147.75 873.35,-151.28 873.37,-144.28"/>
</a>
</g>
</g>
<!-- Node20 -->
<g id="Node000020" class="node">
<title>Node20</title>
<g id="a_Node000020"><a xlink:href="../../d8/d9c/light-render-system_8cpp.html" target="_top" xlink:title=" ">
<polygon fill="white" stroke="#666666" points="828.88,-91.38 683.12,-91.38 683.12,-60.88 828.88,-60.88 828.88,-91.38"/>
<text text-anchor="start" x="691.12" y="-77.88" font-family="Helvetica,sans-Serif" font-size="10.00">engine/subsystems/render</text>
<text text-anchor="middle" x="756" y="-66.62" font-family="Helvetica,sans-Serif" font-size="10.00">/detail/light&#45;render&#45;system.cpp</text>
</a>
</g>
</g>
<!-- Node5&#45;&gt;Node20 -->
<g id="edge24_Node000005_Node000020" class="edge">
<title>Node5&#45;&gt;Node20</title>
<g id="a_edge24_Node000005_Node000020"><a xlink:title=" ">
<path fill="none" stroke="#63b8ff" d="M791.88,-129.54C783.89,-117.88 773.56,-102.78 766.04,-91.79"/>
<polygon fill="#63b8ff" stroke="#63b8ff" points="789.38,-131.09 797.92,-137.37 795.16,-127.14 789.38,-131.09"/>
</a>
</g>
</g>
<!-- Node5&#45;&gt;Node21 -->
<g id="edge25_Node000005_Node000021" class="edge">
<title>Node5&#45;&gt;Node21</title>
<g id="a_edge25_Node000005_Node000021"><a xlink:title=" ">
<path fill="none" stroke="#63b8ff" d="M873.28,-145.93C990.69,-142.77 1235.92,-132.16 1440,-97 1442.88,-96.5 1445.82,-95.94 1448.77,-95.34"/>
<polygon fill="#63b8ff" stroke="#63b8ff" points="873.23,-142.46 863.32,-146.21 873.41,-149.45 873.23,-142.46"/>
</a>
</g>
</g>
<!-- Node6&#45;&gt;Node3 -->
<g id="edge7_Node000006_Node000003" class="edge">
<title>Node6&#45;&gt;Node3</title>
<g id="a_edge7_Node000006_Node000003"><a xlink:title=" ">
<path fill="none" stroke="#63b8ff" d="M876.29,-63.64C863.83,-60.8 850.44,-57.83 838,-55.25 773.73,-41.91 699.36,-28.31 650.87,-19.69"/>
<polygon fill="#63b8ff" stroke="#63b8ff" points="875.43,-67.26 885.96,-66.09 877,-60.44 875.43,-67.26"/>
</a>
</g>
</g>
<!-- Node7 -->
<g id="Node000007" class="node">
<title>Node7</title>
<g id="a_Node000007"><a xlink:href="../../d5/dbb/camera-movement_8cpp.html" target="_top" xlink:title=" ">
<polygon fill="white" stroke="#666666" points="1000.75,-19.25 845.25,-19.25 845.25,0 1000.75,0 1000.75,-19.25"/>
<text text-anchor="middle" x="923" y="-5.75" font-family="Helvetica,sans-Serif" font-size="10.00">d3d_test/camera&#45;movement.cpp</text>
</a>
</g>
</g>
<!-- Node6&#45;&gt;Node7 -->
<g id="edge6_Node000006_Node000007" class="edge">
<title>Node6&#45;&gt;Node7</title>
<g id="a_edge6_Node000006_Node000007"><a xlink:title=" ">
<path fill="none" stroke="#63b8ff" d="M924.39,-55.4C924.02,-43.43 923.56,-28.73 923.28,-19.52"/>
<polygon fill="#63b8ff" stroke="#63b8ff" points="920.91,-55.27 924.72,-65.16 927.91,-55.05 920.91,-55.27"/>
</a>
</g>
</g>
<!-- Node8&#45;&gt;Node3 -->
<g id="edge9_Node000008_Node000003" class="edge">
<title>Node8&#45;&gt;Node3</title>
<g id="a_edge9_Node000008_Node000003"><a xlink:title=" ">
<path fill="none" stroke="#63b8ff" d="M309.8,-62.87C318.97,-60.14 328.79,-57.42 338,-55.25 407.36,-38.94 488.41,-26.02 541.57,-18.37"/>
<polygon fill="#63b8ff" stroke="#63b8ff" points="308.95,-59.78 300.41,-66.04 311,-66.47 308.95,-59.78"/>
</a>
</g>
</g>
<!-- Node8&#45;&gt;Node9 -->
<g id="edge10_Node000008_Node000009" class="edge">
<title>Node8&#45;&gt;Node9</title>
<g id="a_edge10_Node000008_Node000009"><a xlink:title=" ">
<path fill="none" stroke="#63b8ff" d="M272,-55.4C272,-43.43 272,-28.73 272,-19.52"/>
<polygon fill="#63b8ff" stroke="#63b8ff" points="268.5,-55.16 272,-65.16 275.5,-55.16 268.5,-55.16"/>
</a>
</g>
</g>
<!-- Node10&#45;&gt;Node3 -->
<g id="edge13_Node000010_Node000003" class="edge">
<title>Node10&#45;&gt;Node3</title>
<g id="a_edge13_Node000010_Node000003"><a xlink:title=" ">
<path fill="none" stroke="#63b8ff" d="M1045.39,-63.12C1034.63,-60.19 1022.94,-57.32 1012,-55.25 886.39,-31.52 736.73,-19.26 656.54,-13.96"/>
<polygon fill="#63b8ff" stroke="#63b8ff" points="1044.19,-66.7 1054.77,-66.03 1046.08,-59.96 1044.19,-66.7"/>
</a>
</g>
</g>
<!-- Node11 -->
<g id="Node000011" class="node">
<title>Node11</title>
<g id="a_Node000011"><a xlink:href="../../d4/d94/object-editor_8cpp.html" target="_top" xlink:title=" ">
<polygon fill="white" stroke="#666666" points="1296.88,-19.25 1169.12,-19.25 1169.12,0 1296.88,0 1296.88,-19.25"/>
<text text-anchor="middle" x="1233" y="-5.75" font-family="Helvetica,sans-Serif" font-size="10.00">d3d_test/object&#45;editor.cpp</text>
</a>
</g>
</g>
<!-- Node10&#45;&gt;Node11 -->
<g id="edge14_Node000010_Node000011" class="edge">
<title>Node10&#45;&gt;Node11</title>
<g id="a_edge14_Node000010_Node000011"><a xlink:title=" ">
<path fill="none" stroke="#63b8ff" d="M1115.87,-61.67C1144.77,-49.08 1187.14,-30.61 1212.22,-19.68"/>
<polygon fill="#63b8ff" stroke="#63b8ff" points="1114.66,-58.82 1106.89,-66.02 1117.46,-65.23 1114.66,-58.82"/>
</a>
</g>
</g>
<!-- Node12 -->
<g id="Node000012" class="node">
<title>Node12</title>
<g id="a_Node000012"><a xlink:href="../../d0/d38/scene-viewer_8cpp.html" target="_top" xlink:title=" ">
<polygon fill="white" stroke="#666666" points="1151.12,-19.25 1018.88,-19.25 1018.88,0 1151.12,0 1151.12,-19.25"/>
<text text-anchor="middle" x="1085" y="-5.75" font-family="Helvetica,sans-Serif" font-size="10.00">d3d_test/scene&#45;viewer.cpp</text>
</a>
</g>
</g>
<!-- Node10&#45;&gt;Node12 -->
<g id="edge15_Node000010_Node000012" class="edge">
<title>Node10&#45;&gt;Node12</title>
<g id="a_edge15_Node000010_Node000012"><a xlink:title=" ">
<path fill="none" stroke="#63b8ff" d="M1085,-55.4C1085,-43.43 1085,-28.73 1085,-19.52"/>
<polygon fill="#63b8ff" stroke="#63b8ff" points="1081.5,-55.16 1085,-65.16 1088.5,-55.16 1081.5,-55.16"/>
</a>
</g>
</g>
<!-- Node13&#45;&gt;Node3 -->
<g id="edge17_Node000013_Node000003" class="edge">
<title>Node13&#45;&gt;Node3</title>
<g id="a_edge17_Node000013_Node000003"><a xlink:title=" ">
<path fill="none" stroke="#63b8ff" d="M599,-55.4C599,-43.43 599,-28.73 599,-19.52"/>
<polygon fill="#63b8ff" stroke="#63b8ff" points="595.5,-55.16 599,-65.16 602.5,-55.16 595.5,-55.16"/>
</a>
</g>
</g>
<!-- Node23 -->
<g id="Node000023" class="node">
<title>Node23</title>
<g id="a_Node000023"><a xlink:href="../../d4/d87/layers_8hpp.html" target="_top" xlink:title=" ">
<polygon fill="white" stroke="#666666" points="776.38,-218.75 663.62,-218.75 663.62,-199.5 776.38,-199.5 776.38,-218.75"/>
<text text-anchor="middle" x="720" y="-205.25" font-family="Helvetica,sans-Serif" font-size="10.00">engine/core/layers.hpp</text>
</a>
</g>
</g>
<!-- Node22&#45;&gt;Node23 -->
<g id="edge27_Node000022_Node000023" class="edge">
<title>Node22&#45;&gt;Node23</title>
<g id="a_edge27_Node000022_Node000023"><a xlink:title=" ">
<path fill="none" stroke="#63b8ff" d="M720,-249.05C720,-238.39 720,-226.7 720,-218.95"/>
<polygon fill="#63b8ff" stroke="#63b8ff" points="716.5,-248.99 720,-258.99 723.5,-248.99 716.5,-248.99"/>
</a>
</g>
</g>
<!-- Node22&#45;&gt;Node24 -->
<g id="edge29_Node000022_Node000024" class="edge">
<title>Node22&#45;&gt;Node24</title>
<g id="a_edge29_Node000022_Node000024"><a xlink:title=" ">
<path fill="none" stroke="#63b8ff" d="M659.52,-257.7C571.14,-232.96 408.16,-187.36 324.53,-163.95"/>
<polygon fill="#63b8ff" stroke="#63b8ff" points="658.34,-261.28 668.91,-260.61 660.23,-254.54 658.34,-261.28"/>
</a>
</g>
</g>
<!-- Node23&#45;&gt;Node5 -->
<g id="edge28_Node000023_Node000005" class="edge">
<title>Node23&#45;&gt;Node5</title>
<g id="a_edge28_Node000023_Node000005"><a xlink:title=" ">
<path fill="none" stroke="#63b8ff" d="M741.76,-192.88C757.41,-181.9 778,-167.47 791.12,-158.28"/>
<polygon fill="#63b8ff" stroke="#63b8ff" points="739.94,-190.58 733.76,-199.18 743.96,-196.31 739.94,-190.58"/>
</a>
</g>
</g>
<!-- Node24&#45;&gt;Node8 -->
<g id="edge30_Node000024_Node000008" class="edge">
<title>Node24&#45;&gt;Node8</title>
<g id="a_edge30_Node000024_Node000008"><a xlink:title=" ">
<path fill="none" stroke="#63b8ff" d="M272,-121.87C272,-109.27 272,-94.87 272,-85.88"/>
<polygon fill="#63b8ff" stroke="#63b8ff" points="268.5,-121.72 272,-131.72 275.5,-121.72 268.5,-121.72"/>
</a>
</g>
</g>
<!-- Node24&#45;&gt;Node9 -->
<g id="edge31_Node000024_Node000009" class="edge">
<title>Node24&#45;&gt;Node9</title>
<g id="a_edge31_Node000024_Node000009"><a xlink:title=" ">
<path fill="none" stroke="#63b8ff" d="M195.45,-140.55C117.72,-130.74 14.41,-107.58 57,-55.25 77.93,-29.53 169.74,-18.15 226.4,-13.51"/>
<polygon fill="#63b8ff" stroke="#63b8ff" points="194.88,-144.13 205.23,-141.85 195.72,-137.18 194.88,-144.13"/>
</a>
</g>
</g>
<!-- Node24&#45;&gt;Node15 -->
<g id="edge32_Node000024_Node000015" class="edge">
<title>Node24&#45;&gt;Node15</title>
<g id="a_edge32_Node000024_Node000015"><a xlink:title=" ">
<path fill="none" stroke="#63b8ff" d="M232.69,-127.7C209.82,-116.33 181.47,-102.23 160.52,-91.81"/>
<polygon fill="#63b8ff" stroke="#63b8ff" points="230.93,-131.23 241.44,-132.55 234.05,-124.96 230.93,-131.23"/>
</a>
</g>
</g>
</g>
</svg>
