<?xml version="1.0" encoding="UTF-8" standalone="no"?>
<!DOCTYPE svg PUBLIC "-//W3C//DTD SVG 1.1//EN"
 "http://www.w3.org/Graphics/SVG/1.1/DTD/svg11.dtd">
<!-- Generated by graphviz version 8.1.0 (20230707.0739)
 -->
<!-- Title: engine::render::ModelSystem Pages: 1 -->
<svg width="2051pt" height="458pt"
 viewBox="0.00 0.00 2051.25 458.00" xmlns="http://www.w3.org/2000/svg" xmlns:xlink="http://www.w3.org/1999/xlink">
<g id="graph0" class="graph" transform="scale(1 1) rotate(0) translate(4 454)">
<title>engine::render::ModelSystem</title>
<!-- Node1 -->
<g id="Node000001" class="node">
<title>Node1</title>
<g id="a_Node000001"><a xlink:title="ModelSystem class, responsible for loading and rendering models.">
<polygon fill="#999999" stroke="#666666" points="1843.5,-217.88 1703.75,-217.88 1703.75,-198.62 1843.5,-198.62 1843.5,-217.88"/>
<text text-anchor="middle" x="1773.62" y="-204.38" font-family="Helvetica,sans-Serif" font-size="10.00">engine::render::ModelSystem</text>
</a>
</g>
</g>
<!-- Node2 -->
<g id="Node000002" class="node">
<title>Node2</title>
<g id="a_Node000002"><a xlink:title=" ">
<polygon fill="white" stroke="#666666" points="2043.25,-223.5 1923.75,-223.5 1923.75,-193 2043.25,-193 2043.25,-223.5"/>
<text text-anchor="start" x="1931.75" y="-210" font-family="Helvetica,sans-Serif" font-size="10.00">std::shared_ptr&lt; engine</text>
<text text-anchor="middle" x="1983.5" y="-198.75" font-family="Helvetica,sans-Serif" font-size="10.00">::render::ModelSystem &gt;</text>
</a>
</g>
</g>
<!-- Node1&#45;&gt;Node2 -->
<g id="edge2_Node000002_Node000001" class="edge">
<title>Node1&#45;&gt;Node2</title>
<g id="a_edge2_Node000002_Node000001"><a xlink:title=" ">
<path fill="none" stroke="#9a32cd" stroke-dasharray="5,2" d="M1854.57,-208.25C1877.43,-208.25 1901.94,-208.25 1923.32,-208.25"/>
<polygon fill="#9a32cd" stroke="#9a32cd" points="1854.84,-204.75 1844.84,-208.25 1854.84,-211.75 1854.84,-204.75"/>
</a>
</g>
<text text-anchor="middle" x="1883.62" y="-210" font-family="Helvetica,sans-Serif" font-size="10.00" fill="grey"> ptr</text>
</g>
<!-- Node2&#45;&gt;Node1 -->
<g id="edge1_Node000001_Node000002" class="edge">
<title>Node2&#45;&gt;Node1</title>
<g id="a_edge1_Node000001_Node000002"><a xlink:title=" ">
<path fill="none" stroke="#9a32cd" stroke-dasharray="5,2" d="M1912.94,-192.86C1910.52,-192.54 1908.12,-192.25 1905.75,-192 1875.86,-188.87 1842.23,-193.2 1816.51,-198.17"/>
<polygon fill="#9a32cd" stroke="#9a32cd" points="1912.2,-196.44 1922.62,-194.49 1913.26,-189.52 1912.2,-196.44"/>
</a>
</g>
<text text-anchor="middle" x="1883.62" y="-193" font-family="Helvetica,sans-Serif" font-size="10.00" fill="grey"> instance_</text>
</g>
<!-- Node3 -->
<g id="Node000003" class="node">
<title>Node3</title>
<g id="a_Node000003"><a xlink:title=" ">
<polygon fill="white" stroke="#666666" points="1628.75,-229.12 1528,-229.12 1528,-187.38 1628.75,-187.38 1628.75,-229.12"/>
<text text-anchor="start" x="1536" y="-215.62" font-family="Helvetica,sans-Serif" font-size="10.00">std::unordered_map</text>
<text text-anchor="start" x="1536" y="-204.38" font-family="Helvetica,sans-Serif" font-size="10.00">&lt; uint64_t, engine::</text>
<text text-anchor="middle" x="1578.38" y="-193.12" font-family="Helvetica,sans-Serif" font-size="10.00">render::Model &gt;</text>
</a>
</g>
</g>
<!-- Node3&#45;&gt;Node1 -->
<g id="edge3_Node000001_Node000003" class="edge">
<title>Node3&#45;&gt;Node1</title>
<g id="a_edge3_Node000001_Node000003"><a xlink:title=" ">
<path fill="none" stroke="#9a32cd" stroke-dasharray="5,2" d="M1640.03,-208.25C1660.14,-208.25 1682.66,-208.25 1703.36,-208.25"/>
<polygon fill="#9a32cd" stroke="#9a32cd" points="1640.14,-204.75 1630.14,-208.25 1640.14,-211.75 1640.14,-204.75"/>
</a>
</g>
<text text-anchor="middle" x="1666.25" y="-210" font-family="Helvetica,sans-Serif" font-size="10.00" fill="grey"> models_</text>
</g>
<!-- Node4 -->
<g id="Node000004" class="node">
<title>Node4</title>
<g id="a_Node000004"><a xlink:href="../../dd/db5/structengine_1_1render_1_1_model.html" target="_top" xlink:title=" ">
<polygon fill="white" stroke="#666666" points="1450,-217.88 1343.25,-217.88 1343.25,-198.62 1450,-198.62 1450,-217.88"/>
<text text-anchor="middle" x="1396.62" y="-204.38" font-family="Helvetica,sans-Serif" font-size="10.00">engine::render::Model</text>
</a>
</g>
</g>
<!-- Node4&#45;&gt;Node3 -->
<g id="edge4_Node000003_Node000004" class="edge">
<title>Node4&#45;&gt;Node3</title>
<g id="a_edge4_Node000003_Node000004"><a xlink:title=" ">
<path fill="none" stroke="#9a32cd" stroke-dasharray="5,2" d="M1460.96,-208.25C1482.82,-208.25 1506.99,-208.25 1527.61,-208.25"/>
<polygon fill="#9a32cd" stroke="#9a32cd" points="1461.1,-204.75 1451.1,-208.25 1461.1,-211.75 1461.1,-204.75"/>
</a>
</g>
<text text-anchor="middle" x="1489" y="-210" font-family="Helvetica,sans-Serif" font-size="10.00" fill="grey"> elements</text>
</g>
<!-- Node5 -->
<g id="Node000005" class="node">
<title>Node5</title>
<g id="a_Node000005"><a xlink:title=" ">
<polygon fill="white" stroke="#666666" points="718,-296.88 660,-296.88 660,-277.62 718,-277.62 718,-296.88"/>
<text text-anchor="middle" x="689" y="-283.38" font-family="Helvetica,sans-Serif" font-size="10.00">std::string</text>
</a>
</g>
</g>
<!-- Node5&#45;&gt;Node4 -->
<g id="edge5_Node000004_Node000005" class="edge">
<title>Node5&#45;&gt;Node4</title>
<g id="a_edge5_Node000004_Node000005"><a xlink:title=" ">
<path fill="none" stroke="#9a32cd" stroke-dasharray="5,2" d="M729.37,-284.22C822.63,-276.87 1064.27,-256.91 1265.25,-232.25 1292.01,-228.97 1298.72,-228.06 1325.25,-223.25 1333.36,-221.78 1341.97,-220.07 1350.28,-218.34"/>
<polygon fill="#9a32cd" stroke="#9a32cd" points="729.19,-280.8 719.49,-285.07 729.73,-287.78 729.19,-280.8"/>
</a>
</g>
<text text-anchor="middle" x="1088.75" y="-255" font-family="Helvetica,sans-Serif" font-size="10.00" fill="grey"> name</text>
</g>
<!-- Node18 -->
<g id="Node000018" class="node">
<title>Node18</title>
<g id="a_Node000018"><a xlink:href="../../d0/d01/structengine_1_1render_1_1_material.html" target="_top" xlink:title=" ">
<polygon fill="white" stroke="#666666" points="1040.38,-319.88 925.38,-319.88 925.38,-300.62 1040.38,-300.62 1040.38,-319.88"/>
<text text-anchor="middle" x="982.88" y="-306.38" font-family="Helvetica,sans-Serif" font-size="10.00">engine::render::Material</text>
</a>
</g>
</g>
<!-- Node5&#45;&gt;Node18 -->
<g id="edge22_Node000018_Node000005" class="edge">
<title>Node5&#45;&gt;Node18</title>
<g id="a_edge22_Node000018_Node000005"><a xlink:title=" ">
<path fill="none" stroke="#9a32cd" stroke-dasharray="5,2" d="M729.1,-289.32C770.94,-291.66 839.22,-295.82 898,-301 906.76,-301.77 916.02,-302.69 925.06,-303.64"/>
<polygon fill="#9a32cd" stroke="#9a32cd" points="729.47,-285.78 719.29,-288.73 729.08,-292.77 729.47,-285.78"/>
</a>
</g>
<text text-anchor="middle" x="836.5" y="-302" font-family="Helvetica,sans-Serif" font-size="10.00" fill="grey"> name</text>
</g>
<!-- Node6 -->
<g id="Node000006" class="node">
<title>Node6</title>
<g id="a_Node000006"><a xlink:title=" ">
<polygon fill="white" stroke="#666666" points="534.75,-302.5 442.25,-302.5 442.25,-272 534.75,-272 534.75,-302.5"/>
<text text-anchor="start" x="450.25" y="-289" font-family="Helvetica,sans-Serif" font-size="10.00">std::basic_string&lt;</text>
<text text-anchor="middle" x="488.5" y="-277.75" font-family="Helvetica,sans-Serif" font-size="10.00"> Char &gt;</text>
</a>
</g>
</g>
<!-- Node6&#45;&gt;Node5 -->
<g id="edge6_Node000005_Node000006" class="edge">
<title>Node6&#45;&gt;Node5</title>
<g id="a_edge6_Node000005_Node000006"><a xlink:title=" ">
<path fill="none" stroke="#63b8ff" d="M545.72,-287.25C582.85,-287.25 629.96,-287.25 659.55,-287.25"/>
<polygon fill="#63b8ff" stroke="#63b8ff" points="546.04,-283.75 536.04,-287.25 546.04,-290.75 546.04,-283.75"/>
</a>
</g>
</g>
<!-- Node7 -->
<g id="Node000007" class="node">
<title>Node7</title>
<g id="a_Node000007"><a xlink:title=" ">
<polygon fill="white" stroke="#666666" points="1251.75,-223.5 1141.25,-223.5 1141.25,-193 1251.75,-193 1251.75,-223.5"/>
<text text-anchor="start" x="1149.25" y="-210" font-family="Helvetica,sans-Serif" font-size="10.00">std::vector&lt; engine</text>
<text text-anchor="middle" x="1196.5" y="-198.75" font-family="Helvetica,sans-Serif" font-size="10.00">::render::ModelMesh &gt;</text>
</a>
</g>
</g>
<!-- Node7&#45;&gt;Node4 -->
<g id="edge7_Node000004_Node000007" class="edge">
<title>Node7&#45;&gt;Node4</title>
<g id="a_edge7_Node000004_Node000007"><a xlink:title=" ">
<path fill="none" stroke="#9a32cd" stroke-dasharray="5,2" d="M1263.03,-208.25C1288.95,-208.25 1318.34,-208.25 1342.85,-208.25"/>
<polygon fill="#9a32cd" stroke="#9a32cd" points="1263.16,-204.75 1253.16,-208.25 1263.16,-211.75 1263.16,-204.75"/>
</a>
</g>
<text text-anchor="middle" x="1304.25" y="-210" font-family="Helvetica,sans-Serif" font-size="10.00" fill="grey"> meshes</text>
</g>
<!-- Node8 -->
<g id="Node000008" class="node">
<title>Node8</title>
<g id="a_Node000008"><a xlink:href="../../df/d91/structengine_1_1render_1_1_model_mesh.html" target="_top" xlink:title=" ">
<polygon fill="white" stroke="#666666" points="1048.25,-217.88 917.5,-217.88 917.5,-198.62 1048.25,-198.62 1048.25,-217.88"/>
<text text-anchor="middle" x="982.88" y="-204.38" font-family="Helvetica,sans-Serif" font-size="10.00">engine::render::ModelMesh</text>
</a>
</g>
</g>
<!-- Node8&#45;&gt;Node7 -->
<g id="edge8_Node000007_Node000008" class="edge">
<title>Node8&#45;&gt;Node7</title>
<g id="a_edge8_Node000007_Node000008"><a xlink:title=" ">
<path fill="none" stroke="#9a32cd" stroke-dasharray="5,2" d="M1059.45,-208.25C1086.34,-208.25 1116.08,-208.25 1140.88,-208.25"/>
<polygon fill="#9a32cd" stroke="#9a32cd" points="1059.52,-204.75 1049.52,-208.25 1059.52,-211.75 1059.52,-204.75"/>
</a>
</g>
<text text-anchor="middle" x="1088.75" y="-210" font-family="Helvetica,sans-Serif" font-size="10.00" fill="grey"> elements</text>
</g>
<!-- Node9 -->
<g id="Node000009" class="node">
<title>Node9</title>
<g id="a_Node000009"><a xlink:href="../../d1/d87/structengine_1_1render_1_1_mesh_range.html" target="_top" xlink:title=" ">
<polygon fill="white" stroke="#666666" points="755.12,-256.88 622.88,-256.88 622.88,-237.62 755.12,-237.62 755.12,-256.88"/>
<text text-anchor="middle" x="689" y="-243.38" font-family="Helvetica,sans-Serif" font-size="10.00">engine::render::MeshRange</text>
</a>
</g>
</g>
<!-- Node9&#45;&gt;Node8 -->
<g id="edge9_Node000008_Node000009" class="edge">
<title>Node9&#45;&gt;Node8</title>
<g id="a_edge9_Node000008_Node000009"><a xlink:title=" ">
<path fill="none" stroke="#9a32cd" stroke-dasharray="5,2" d="M766.21,-237.07C813.09,-230.8 872.5,-222.86 917.09,-216.91"/>
<polygon fill="#9a32cd" stroke="#9a32cd" points="765.95,-233.7 756.5,-238.5 766.88,-240.64 765.95,-233.7"/>
</a>
</g>
<text text-anchor="middle" x="836.5" y="-237" font-family="Helvetica,sans-Serif" font-size="10.00" fill="grey"> mesh_range</text>
</g>
<!-- Node10 -->
<g id="Node000010" class="node">
<title>Node10</title>
<g id="a_Node000010"><a xlink:href="../../d7/d90/structengine_1_1render_1_1_mesh.html" target="_top" xlink:title=" ">
<polygon fill="white" stroke="#666666" points="540.75,-207.88 436.25,-207.88 436.25,-188.62 540.75,-188.62 540.75,-207.88"/>
<text text-anchor="middle" x="488.5" y="-194.38" font-family="Helvetica,sans-Serif" font-size="10.00">engine::render::Mesh</text>
</a>
</g>
</g>
<!-- Node10&#45;&gt;Node8 -->
<g id="edge10_Node000008_Node000010" class="edge">
<title>Node10&#45;&gt;Node8</title>
<g id="a_edge10_Node000008_Node000010"><a xlink:title=" ">
<path fill="none" stroke="#9a32cd" stroke-dasharray="5,2" d="M551.52,-199.51C645.19,-201.41 821.88,-205 917.13,-206.94"/>
<polygon fill="#9a32cd" stroke="#9a32cd" points="551.87,-196 541.8,-199.29 551.73,-202.99 551.87,-196"/>
</a>
</g>
<text text-anchor="middle" x="689" y="-205" font-family="Helvetica,sans-Serif" font-size="10.00" fill="grey"> mesh</text>
</g>
<!-- Node14 -->
<g id="Node000014" class="node">
<title>Node14</title>
<g id="a_Node000014"><a xlink:href="../../db/df4/classengine_1_1core_1_1_triangle_octree.html" target="_top" xlink:title=" ">
<polygon fill="white" stroke="#666666" points="757,-157.88 621,-157.88 621,-138.62 757,-138.62 757,-157.88"/>
<text text-anchor="middle" x="689" y="-144.38" font-family="Helvetica,sans-Serif" font-size="10.00">engine::core::TriangleOctree</text>
</a>
</g>
</g>
<!-- Node10&#45;&gt;Node14 -->
<g id="edge15_Node000014_Node000010" class="edge">
<title>Node10&#45;&gt;Node14</title>
<g id="a_edge15_Node000014_Node000010"><a xlink:title=" ">
<path fill="none" stroke="#9a32cd" stroke-dasharray="5,2" d="M540.16,-185.49C573.61,-177.06 616.83,-166.18 647.89,-158.35"/>
<polygon fill="#9a32cd" stroke="#9a32cd" points="539.51,-182.3 530.67,-188.13 541.22,-189.08 539.51,-182.3"/>
</a>
</g>
<text text-anchor="middle" x="583.12" y="-180" font-family="Helvetica,sans-Serif" font-size="10.00" fill="grey"> m_mesh</text>
</g>
<!-- Node11 -->
<g id="Node000011" class="node">
<title>Node11</title>
<g id="a_Node000011"><a xlink:title=" ">
<polygon fill="white" stroke="#666666" points="321.5,-230.5 223.75,-230.5 223.75,-200 321.5,-200 321.5,-230.5"/>
<text text-anchor="start" x="231.75" y="-217" font-family="Helvetica,sans-Serif" font-size="10.00">std::vector&lt; engine</text>
<text text-anchor="middle" x="272.62" y="-205.75" font-family="Helvetica,sans-Serif" font-size="10.00">::render::Vertex &gt;</text>
</a>
</g>
</g>
<!-- Node11&#45;&gt;Node10 -->
<g id="edge11_Node000010_Node000011" class="edge">
<title>Node11&#45;&gt;Node10</title>
<g id="a_edge11_Node000010_Node000011"><a xlink:title=" ">
<path fill="none" stroke="#9a32cd" stroke-dasharray="5,2" d="M332.58,-210.56C365.02,-207.99 404.88,-204.82 436.05,-202.34"/>
<polygon fill="#9a32cd" stroke="#9a32cd" points="332.58,-207.13 322.89,-211.41 333.14,-214.11 332.58,-207.13"/>
</a>
</g>
<text text-anchor="middle" x="395.38" y="-208" font-family="Helvetica,sans-Serif" font-size="10.00" fill="grey"> vertices</text>
</g>
<!-- Node12 -->
<g id="Node000012" class="node">
<title>Node12</title>
<g id="a_Node000012"><a xlink:href="../../d0/dc6/structengine_1_1render_1_1_vertex.html" target="_top" xlink:title=" ">
<polygon fill="white" stroke="#666666" points="108.25,-224.88 0,-224.88 0,-205.62 108.25,-205.62 108.25,-224.88"/>
<text text-anchor="middle" x="54.12" y="-211.38" font-family="Helvetica,sans-Serif" font-size="10.00">engine::render::Vertex</text>
</a>
</g>
</g>
<!-- Node12&#45;&gt;Node11 -->
<g id="edge12_Node000011_Node000012" class="edge">
<title>Node12&#45;&gt;Node11</title>
<g id="a_edge12_Node000011_Node000012"><a xlink:title=" ">
<path fill="none" stroke="#9a32cd" stroke-dasharray="5,2" d="M119.23,-215.25C152.63,-215.25 192.81,-215.25 223.52,-215.25"/>
<polygon fill="#9a32cd" stroke="#9a32cd" points="119.64,-211.75 109.64,-215.25 119.64,-218.75 119.64,-211.75"/>
</a>
</g>
<text text-anchor="middle" x="147.25" y="-217" font-family="Helvetica,sans-Serif" font-size="10.00" fill="grey"> elements</text>
</g>
<!-- Node13 -->
<g id="Node000013" class="node">
<title>Node13</title>
<g id="a_Node000013"><a xlink:title=" ">
<polygon fill="white" stroke="#666666" points="328.62,-169.88 216.62,-169.88 216.62,-150.62 328.62,-150.62 328.62,-169.88"/>
<text text-anchor="middle" x="272.62" y="-156.38" font-family="Helvetica,sans-Serif" font-size="10.00">std::vector&lt; uint32_t &gt;</text>
</a>
</g>
</g>
<!-- Node13&#45;&gt;Node10 -->
<g id="edge13_Node000010_Node000013" class="edge">
<title>Node13&#45;&gt;Node10</title>
<g id="a_edge13_Node000010_Node000013"><a xlink:title=" ">
<path fill="none" stroke="#9a32cd" stroke-dasharray="5,2" d="M339.7,-171.99C370.72,-177.5 407.13,-183.97 436.05,-189.11"/>
<polygon fill="#9a32cd" stroke="#9a32cd" points="340.44,-168.39 329.98,-170.09 339.21,-175.28 340.44,-168.39"/>
</a>
</g>
<text text-anchor="middle" x="395.38" y="-186" font-family="Helvetica,sans-Serif" font-size="10.00" fill="grey"> indices</text>
</g>
<!-- Node13&#45;&gt;Node14 -->
<g id="edge16_Node000014_Node000013" class="edge">
<title>Node13&#45;&gt;Node14</title>
<g id="a_edge16_Node000014_Node000013"><a xlink:title=" ">
<path fill="none" stroke="#9a32cd" stroke-dasharray="5,2" d="M340.07,-158.33C417.02,-156.1 543.12,-152.45 620.51,-150.2"/>
<polygon fill="#9a32cd" stroke="#9a32cd" points="339.97,-154.86 330.08,-158.64 340.18,-161.85 339.97,-154.86"/>
</a>
</g>
<text text-anchor="middle" x="488.5" y="-157" font-family="Helvetica,sans-Serif" font-size="10.00" fill="grey"> m_triangles</text>
</g>
<!-- Node14&#45;&gt;Node8 -->
<g id="edge14_Node000008_Node000014" class="edge">
<title>Node14&#45;&gt;Node8</title>
<g id="a_edge14_Node000008_Node000014"><a xlink:title=" ">
<path fill="none" stroke="#9a32cd" stroke-dasharray="5,2" d="M766.83,-160.04C815.42,-167.71 873.51,-177.29 898,-183 916.07,-187.21 935.96,-193.14 951.84,-198.2"/>
<polygon fill="#9a32cd" stroke="#9a32cd" points="767.41,-156.44 756.99,-158.34 766.33,-163.35 767.41,-156.44"/>
</a>
</g>
<text text-anchor="middle" x="836.5" y="-184" font-family="Helvetica,sans-Serif" font-size="10.00" fill="grey"> triangle_octree</text>
</g>
<!-- Node16 -->
<g id="Node000016" class="node">
<title>Node16</title>
<g id="a_Node000016"><a xlink:title=" ">
<polygon fill="white" stroke="#666666" points="1046,-175.5 919.75,-175.5 919.75,-145 1046,-145 1046,-175.5"/>
<text text-anchor="start" x="927.75" y="-162" font-family="Helvetica,sans-Serif" font-size="10.00">std::array&lt; engine</text>
<text text-anchor="middle" x="982.88" y="-150.75" font-family="Helvetica,sans-Serif" font-size="10.00">::core::TriangleOctree, 8 &gt;</text>
</a>
</g>
</g>
<!-- Node14&#45;&gt;Node16 -->
<g id="edge19_Node000016_Node000014" class="edge">
<title>Node14&#45;&gt;Node16</title>
<g id="a_edge19_Node000016_Node000014"><a xlink:title=" ">
<path fill="none" stroke="#9a32cd" stroke-dasharray="5,2" d="M767.84,-146.14C806.94,-145.69 855.03,-146.05 898,-149 905.04,-149.48 912.38,-150.18 919.67,-150.99"/>
<polygon fill="#9a32cd" stroke="#9a32cd" points="768.01,-142.65 758.06,-146.29 768.1,-149.65 768.01,-142.65"/>
</a>
</g>
<text text-anchor="middle" x="836.5" y="-150" font-family="Helvetica,sans-Serif" font-size="10.00" fill="grey"> elements</text>
</g>
<!-- Node15 -->
<g id="Node000015" class="node">
<title>Node15</title>
<g id="a_Node000015"><a xlink:title=" ">
<polygon fill="white" stroke="#666666" points="1252.12,-174.12 1140.88,-174.12 1140.88,-132.38 1252.12,-132.38 1252.12,-174.12"/>
<text text-anchor="start" x="1148.88" y="-160.62" font-family="Helvetica,sans-Serif" font-size="10.00">std::unique_ptr&lt; std</text>
<text text-anchor="start" x="1148.88" y="-149.38" font-family="Helvetica,sans-Serif" font-size="10.00">::array&lt; engine::core</text>
<text text-anchor="middle" x="1196.5" y="-138.12" font-family="Helvetica,sans-Serif" font-size="10.00">::TriangleOctree, 8 &gt; &gt;</text>
</a>
</g>
</g>
<!-- Node15&#45;&gt;Node14 -->
<g id="edge17_Node000014_Node000015" class="edge">
<title>Node15&#45;&gt;Node14</title>
<g id="a_edge17_Node000014_Node000015"><a xlink:title=" ">
<path fill="none" stroke="#9a32cd" stroke-dasharray="5,2" d="M1130.05,-137.8C1105.07,-132.63 1076.24,-127.54 1049.75,-125 945.71,-115.01 824.32,-127.95 752.49,-138.15"/>
<polygon fill="#9a32cd" stroke="#9a32cd" points="1128.99,-141.36 1139.49,-140.01 1130.44,-134.51 1128.99,-141.36"/>
</a>
</g>
<text text-anchor="middle" x="982.88" y="-126" font-family="Helvetica,sans-Serif" font-size="10.00" fill="grey"> m_children</text>
</g>
<!-- Node16&#45;&gt;Node15 -->
<g id="edge18_Node000015_Node000016" class="edge">
<title>Node16&#45;&gt;Node15</title>
<g id="a_edge18_Node000015_Node000016"><a xlink:title=" ">
<path fill="none" stroke="#9a32cd" stroke-dasharray="5,2" d="M1056.94,-157.83C1084.32,-156.93 1114.94,-155.91 1140.42,-155.07"/>
<polygon fill="#9a32cd" stroke="#9a32cd" points="1057.1,-154.36 1047.22,-158.19 1057.34,-161.36 1057.1,-154.36"/>
</a>
</g>
<text text-anchor="middle" x="1088.75" y="-159" font-family="Helvetica,sans-Serif" font-size="10.00" fill="grey"> ptr</text>
</g>
<!-- Node17 -->
<g id="Node000017" class="node">
<title>Node17</title>
<g id="a_Node000017"><a xlink:title=" ">
<polygon fill="white" stroke="#666666" points="1245.38,-325.5 1147.62,-325.5 1147.62,-295 1245.38,-295 1245.38,-325.5"/>
<text text-anchor="start" x="1155.62" y="-312" font-family="Helvetica,sans-Serif" font-size="10.00">std::vector&lt; engine</text>
<text text-anchor="middle" x="1196.5" y="-300.75" font-family="Helvetica,sans-Serif" font-size="10.00">::render::Material &gt;</text>
</a>
</g>
</g>
<!-- Node17&#45;&gt;Node4 -->
<g id="edge20_Node000004_Node000017" class="edge">
<title>Node17&#45;&gt;Node4</title>
<g id="a_edge20_Node000004_Node000017"><a xlink:title=" ">
<path fill="none" stroke="#9a32cd" stroke-dasharray="5,2" d="M1256.52,-304.16C1279.09,-300 1304.39,-293.01 1325.25,-281.25 1353.62,-265.25 1377.74,-234.25 1388.93,-218.29"/>
<polygon fill="#9a32cd" stroke="#9a32cd" points="1255.97,-300.87 1246.69,-305.98 1257.13,-307.77 1255.97,-300.87"/>
</a>
</g>
<text text-anchor="middle" x="1304.25" y="-299" font-family="Helvetica,sans-Serif" font-size="10.00" fill="grey"> materials</text>
</g>
<!-- Node18&#45;&gt;Node17 -->
<g id="edge21_Node000017_Node000018" class="edge">
<title>Node18&#45;&gt;Node17</title>
<g id="a_edge21_Node000017_Node000018"><a xlink:title=" ">
<path fill="none" stroke="#9a32cd" stroke-dasharray="5,2" d="M1051.66,-310.25C1082.82,-310.25 1119.06,-310.25 1147.37,-310.25"/>
<polygon fill="#9a32cd" stroke="#9a32cd" points="1051.87,-306.75 1041.87,-310.25 1051.86,-313.75 1051.87,-306.75"/>
</a>
</g>
<text text-anchor="middle" x="1088.75" y="-312" font-family="Helvetica,sans-Serif" font-size="10.00" fill="grey"> elements</text>
</g>
<!-- Node19 -->
<g id="Node000019" class="node">
<title>Node19</title>
<g id="a_Node000019"><a xlink:title=" ">
<polygon fill="white" stroke="#666666" points="755.12,-349.5 622.88,-349.5 622.88,-319 755.12,-319 755.12,-349.5"/>
<text text-anchor="start" x="630.88" y="-336" font-family="Helvetica,sans-Serif" font-size="10.00">std::vector&lt; ID3D11Shader</text>
<text text-anchor="middle" x="689" y="-324.75" font-family="Helvetica,sans-Serif" font-size="10.00">ResourceView * &gt;</text>
</a>
</g>
</g>
<!-- Node19&#45;&gt;Node18 -->
<g id="edge23_Node000018_Node000019" class="edge">
<title>Node19&#45;&gt;Node18</title>
<g id="a_edge23_Node000018_Node000019"><a xlink:title=" ">
<path fill="none" stroke="#9a32cd" stroke-dasharray="5,2" d="M766.2,-327.98C815.89,-323.9 879.68,-318.65 924.97,-314.93"/>
<polygon fill="#9a32cd" stroke="#9a32cd" points="766.18,-324.56 756.5,-328.86 766.76,-331.53 766.18,-324.56"/>
</a>
</g>
<text text-anchor="middle" x="836.5" y="-440.5" font-family="Helvetica,sans-Serif" font-size="10.00" fill="grey"> ambient_occlusion_textures</text>
<text text-anchor="middle" x="836.5" y="-429.25" font-family="Helvetica,sans-Serif" font-size="10.00" fill="grey">ambient_textures</text>
<text text-anchor="middle" x="836.5" y="-418" font-family="Helvetica,sans-Serif" font-size="10.00" fill="grey">base_color_textures</text>
<text text-anchor="middle" x="836.5" y="-406.75" font-family="Helvetica,sans-Serif" font-size="10.00" fill="grey">clearcoat_textures</text>
<text text-anchor="middle" x="836.5" y="-395.5" font-family="Helvetica,sans-Serif" font-size="10.00" fill="grey">diffuse_roughness_textures</text>
<text text-anchor="middle" x="836.5" y="-384.25" font-family="Helvetica,sans-Serif" font-size="10.00" fill="grey">diffuse_textures</text>
<text text-anchor="middle" x="836.5" y="-373" font-family="Helvetica,sans-Serif" font-size="10.00" fill="grey">displacement_textures</text>
<text text-anchor="middle" x="836.5" y="-361.75" font-family="Helvetica,sans-Serif" font-size="10.00" fill="grey">emission_color_textures</text>
<text text-anchor="middle" x="836.5" y="-350.5" font-family="Helvetica,sans-Serif" font-size="10.00" fill="grey">emissive_textures</text>
<text text-anchor="middle" x="836.5" y="-339.25" font-family="Helvetica,sans-Serif" font-size="10.00" fill="grey">height_textures</text>
<text text-anchor="middle" x="836.5" y="-328" font-family="Helvetica,sans-Serif" font-size="10.00" fill="grey">...</text>
</g>
<!-- Node20 -->
<g id="Node000020" class="node">
<title>Node20</title>
<g id="a_Node000020"><a xlink:href="../../d0/dc3/classengine_1_1direct3d_1_1_immutable_vertex_buffer.html" target="_top" xlink:title=" ">
<polygon fill="white" stroke="#666666" points="1265.25,-112.12 1127.75,-112.12 1127.75,-70.38 1265.25,-70.38 1265.25,-112.12"/>
<text text-anchor="start" x="1135.75" y="-98.62" font-family="Helvetica,sans-Serif" font-size="10.00">engine::direct3d::Immutable</text>
<text text-anchor="start" x="1135.75" y="-87.38" font-family="Helvetica,sans-Serif" font-size="10.00">VertexBuffer&lt; engine::render</text>
<text text-anchor="middle" x="1196.5" y="-76.12" font-family="Helvetica,sans-Serif" font-size="10.00">::Vertex &gt;</text>
</a>
</g>
</g>
<!-- Node20&#45;&gt;Node4 -->
<g id="edge24_Node000004_Node000020" class="edge">
<title>Node20&#45;&gt;Node4</title>
<g id="a_edge24_Node000004_Node000020"><a xlink:title=" ">
<path fill="none" stroke="#9a32cd" stroke-dasharray="5,2" d="M1254.09,-117.26C1257.9,-119.23 1261.65,-121.24 1265.25,-123.25 1309.12,-147.76 1358.07,-181.53 1381.55,-198.16"/>
<polygon fill="#9a32cd" stroke="#9a32cd" points="1256.08,-113.84 1245.57,-112.46 1252.93,-120.09 1256.08,-113.84"/>
</a>
</g>
<text text-anchor="middle" x="1304.25" y="-160" font-family="Helvetica,sans-Serif" font-size="10.00" fill="grey"> vertices</text>
</g>
<!-- Node21 -->
<g id="Node000021" class="node">
<title>Node21</title>
<g id="a_Node000021"><a xlink:href="../../d3/d29/classengine_1_1direct3d_1_1_immutable_buffer.html" target="_top" xlink:title="The immutable buffer class.">
<polygon fill="white" stroke="#666666" points="1049.75,-79.5 916,-79.5 916,-49 1049.75,-49 1049.75,-79.5"/>
<text text-anchor="start" x="924" y="-66" font-family="Helvetica,sans-Serif" font-size="10.00">engine::direct3d::Immutable</text>
<text text-anchor="middle" x="982.88" y="-54.75" font-family="Helvetica,sans-Serif" font-size="10.00">Buffer&lt; T &gt;</text>
</a>
</g>
</g>
<!-- Node21&#45;&gt;Node20 -->
<g id="edge25_Node000020_Node000021" class="edge">
<title>Node21&#45;&gt;Node20</title>
<g id="a_edge25_Node000020_Node000021"><a xlink:title=" ">
<path fill="none" stroke="#63b8ff" d="M1060.83,-74.07C1082.6,-76.85 1106.14,-79.85 1127.36,-82.56"/>
<polygon fill="#63b8ff" stroke="#63b8ff" points="1061.33,-70.48 1050.96,-72.68 1060.44,-77.42 1061.33,-70.48"/>
</a>
</g>
</g>
<!-- Node22 -->
<g id="Node000022" class="node">
<title>Node22</title>
<g id="a_Node000022"><a xlink:href="../../d9/db4/classengine_1_1direct3d_1_1_buffer_base.html" target="_top" xlink:title="Buffer Base class that contains the common functions for all the buffers.">
<polygon fill="white" stroke="#666666" points="745.75,-58.5 632.25,-58.5 632.25,-28 745.75,-28 745.75,-58.5"/>
<text text-anchor="start" x="640.25" y="-45" font-family="Helvetica,sans-Serif" font-size="10.00">engine::direct3d::Buffer</text>
<text text-anchor="middle" x="689" y="-33.75" font-family="Helvetica,sans-Serif" font-size="10.00">Base&lt; T &gt;</text>
</a>
</g>
</g>
<!-- Node22&#45;&gt;Node21 -->
<g id="edge26_Node000021_Node000022" class="edge">
<title>Node22&#45;&gt;Node21</title>
<g id="a_edge26_Node000021_Node000022"><a xlink:title=" ">
<path fill="none" stroke="#8b1a1a" d="M756.75,-48.05C804.38,-51.48 868.15,-56.07 915.66,-59.49"/>
<polygon fill="#8b1a1a" stroke="#8b1a1a" points="757.16,-44.5 746.93,-47.27 756.65,-51.48 757.16,-44.5"/>
</a>
</g>
</g>
<!-- Node26 -->
<g id="Node000026" class="node">
<title>Node26</title>
<g id="a_Node000026"><a xlink:href="../../d3/d29/classengine_1_1direct3d_1_1_immutable_buffer.html" target="_top" xlink:title="The immutable buffer class.">
<polygon fill="white" stroke="#666666" points="1049.75,-30.5 916,-30.5 916,0 1049.75,0 1049.75,-30.5"/>
<text text-anchor="start" x="924" y="-17" font-family="Helvetica,sans-Serif" font-size="10.00">engine::direct3d::Immutable</text>
<text text-anchor="middle" x="982.88" y="-5.75" font-family="Helvetica,sans-Serif" font-size="10.00">Buffer&lt; T &gt;</text>
</a>
</g>
</g>
<!-- Node22&#45;&gt;Node26 -->
<g id="edge31_Node000026_Node000022" class="edge">
<title>Node22&#45;&gt;Node26</title>
<g id="a_edge31_Node000026_Node000022"><a xlink:title=" ">
<path fill="none" stroke="#8b1a1a" d="M756.75,-36.85C804.38,-32.28 868.15,-26.16 915.66,-21.6"/>
<polygon fill="#8b1a1a" stroke="#8b1a1a" points="756.55,-33.45 746.93,-37.88 757.22,-40.41 756.55,-33.45"/>
</a>
</g>
</g>
<!-- Node23 -->
<g id="Node000023" class="node">
<title>Node23</title>
<g id="a_Node000023"><a xlink:href="../../d6/de4/classengine_1_1direct3d_1_1_buffer_wrapper.html" target="_top" xlink:title="A wrapper for a D3D11 buffer.">
<polygon fill="white" stroke="#666666" points="545.25,-58.5 431.75,-58.5 431.75,-28 545.25,-28 545.25,-58.5"/>
<text text-anchor="start" x="439.75" y="-45" font-family="Helvetica,sans-Serif" font-size="10.00">engine::direct3d::Buffer</text>
<text text-anchor="middle" x="488.5" y="-33.75" font-family="Helvetica,sans-Serif" font-size="10.00">Wrapper</text>
</a>
</g>
</g>
<!-- Node23&#45;&gt;Node22 -->
<g id="edge27_Node000022_Node000023" class="edge">
<title>Node23&#45;&gt;Node22</title>
<g id="a_edge27_Node000022_Node000023"><a xlink:title=" ">
<path fill="none" stroke="#8b1a1a" d="M556.29,-43.25C580.9,-43.25 608.5,-43.25 632.05,-43.25"/>
<polygon fill="#8b1a1a" stroke="#8b1a1a" points="556.59,-39.75 546.59,-43.25 556.59,-46.75 556.59,-39.75"/>
</a>
</g>
</g>
<!-- Node24 -->
<g id="Node000024" class="node">
<title>Node24</title>
<g id="a_Node000024"><a xlink:href="../../df/d47/classengine_1_1direct3d_1_1d3d__resource__wrapper.html" target="_top" xlink:title=" ">
<polygon fill="white" stroke="#666666" points="359,-58.5 186.25,-58.5 186.25,-28 359,-28 359,-58.5"/>
<text text-anchor="start" x="194.25" y="-45" font-family="Helvetica,sans-Serif" font-size="10.00">engine::direct3d::d3d</text>
<text text-anchor="middle" x="272.62" y="-33.75" font-family="Helvetica,sans-Serif" font-size="10.00">_resource_wrapper&lt; ID3D11Buffer &gt;</text>
</a>
</g>
</g>
<!-- Node24&#45;&gt;Node23 -->
<g id="edge28_Node000023_Node000024" class="edge">
<title>Node24&#45;&gt;Node23</title>
<g id="a_edge28_Node000023_Node000024"><a xlink:title=" ">
<path fill="none" stroke="#9a32cd" stroke-dasharray="5,2" d="M370.28,-43.25C391.25,-43.25 412.75,-43.25 431.52,-43.25"/>
<polygon fill="#9a32cd" stroke="#9a32cd" points="370.38,-39.75 360.38,-43.25 370.38,-46.75 370.38,-39.75"/>
</a>
</g>
<text text-anchor="middle" x="395.38" y="-45" font-family="Helvetica,sans-Serif" font-size="10.00" fill="grey"> buffer_</text>
</g>
<!-- Node25 -->
<g id="Node000025" class="node">
<title>Node25</title>
<g id="a_Node000025"><a xlink:href="../../db/dc4/classengine_1_1direct3d_1_1_immutable_index_buffer.html" target="_top" xlink:title=" ">
<polygon fill="white" stroke="#666666" points="1263.38,-46.5 1129.62,-46.5 1129.62,-16 1263.38,-16 1263.38,-46.5"/>
<text text-anchor="start" x="1137.62" y="-33" font-family="Helvetica,sans-Serif" font-size="10.00">engine::direct3d::Immutable</text>
<text text-anchor="middle" x="1196.5" y="-21.75" font-family="Helvetica,sans-Serif" font-size="10.00">IndexBuffer&lt; uint32_t &gt;</text>
</a>
</g>
</g>
<!-- Node25&#45;&gt;Node4 -->
<g id="edge29_Node000004_Node000025" class="edge">
<title>Node25&#45;&gt;Node4</title>
<g id="a_edge29_Node000004_Node000025"><a xlink:title=" ">
<path fill="none" stroke="#9a32cd" stroke-dasharray="5,2" d="M1248.57,-51.58C1254.35,-54.54 1260.04,-57.78 1265.25,-61.25 1324.03,-100.37 1373,-172.34 1389.58,-198.45"/>
<polygon fill="#9a32cd" stroke="#9a32cd" points="1250.34,-48.06 1239.81,-46.85 1247.29,-54.36 1250.34,-48.06"/>
</a>
</g>
<text text-anchor="middle" x="1304.25" y="-112" font-family="Helvetica,sans-Serif" font-size="10.00" fill="grey"> indices</text>
</g>
<!-- Node26&#45;&gt;Node25 -->
<g id="edge30_Node000025_Node000026" class="edge">
<title>Node26&#45;&gt;Node25</title>
<g id="a_edge30_Node000025_Node000026"><a xlink:title=" ">
<path fill="none" stroke="#63b8ff" d="M1060.8,-21.07C1083.21,-22.76 1107.49,-24.6 1129.18,-26.24"/>
<polygon fill="#63b8ff" stroke="#63b8ff" points="1061.2,-17.51 1050.96,-20.25 1060.67,-24.49 1061.2,-17.51"/>
</a>
</g>
</g>
</g>
</svg>
