<?xml version="1.0" encoding="UTF-8" standalone="no"?>
<!DOCTYPE svg PUBLIC "-//W3C//DTD SVG 1.1//EN"
 "http://www.w3.org/Graphics/SVG/1.1/DTD/svg11.dtd">
<!-- Generated by graphviz version 8.1.0 (20230707.0739)
 -->
<!-- Title: engine/include/spdlog.hpp Pages: 1 -->
<svg width="733pt" height="94pt"
 viewBox="0.00 0.00 732.75 93.75" xmlns="http://www.w3.org/2000/svg" xmlns:xlink="http://www.w3.org/1999/xlink">
<g id="graph0" class="graph" transform="scale(1 1) rotate(0) translate(4 89.75)">
<title>engine/include/spdlog.hpp</title>
<!-- Node1 -->
<g id="Node000001" class="node">
<title>Node1</title>
<g id="a_Node000001"><a xlink:title=" ">
<polygon fill="#999999" stroke="#666666" points="425.62,-85.75 297.88,-85.75 297.88,-66.5 425.62,-66.5 425.62,-85.75"/>
<text text-anchor="middle" x="361.75" y="-72.25" font-family="Helvetica,sans-Serif" font-size="10.00">engine/include/spdlog.hpp</text>
</a>
</g>
</g>
<!-- Node2 -->
<g id="Node000002" class="node">
<title>Node2</title>
<g id="a_Node000002"><a xlink:href="../../d8/d2a/win-def_8hpp.html" target="_top" xlink:title=" ">
<polygon fill="white" stroke="#666666" points="65.5,-24.88 0,-24.88 0,-5.63 65.5,-5.63 65.5,-24.88"/>
<text text-anchor="middle" x="32.75" y="-11.38" font-family="Helvetica,sans-Serif" font-size="10.00">win&#45;def.hpp</text>
</a>
</g>
</g>
<!-- Node1&#45;&gt;Node2 -->
<g id="edge1_Node000001_Node000002" class="edge">
<title>Node1&#45;&gt;Node2</title>
<g id="a_edge1_Node000001_Node000002"><a xlink:title=" ">
<path fill="none" stroke="#63b8ff" d="M297.57,-68.37C238.99,-61.44 150.29,-49.04 74.75,-30.5 72.29,-29.9 69.77,-29.21 67.24,-28.48"/>
<polygon fill="#63b8ff" stroke="#63b8ff" points="68.56,-24.91 57.97,-25.26 66.47,-31.59 68.56,-24.91"/>
</a>
</g>
</g>
<!-- Node3 -->
<g id="Node000003" class="node">
<title>Node3</title>
<g id="a_Node000003"><a xlink:title=" ">
<polygon fill="#e0e0e0" stroke="#999999" points="164,-24.88 83.5,-24.88 83.5,-5.63 164,-5.63 164,-24.88"/>
<text text-anchor="middle" x="123.75" y="-11.38" font-family="Helvetica,sans-Serif" font-size="10.00">spdlog/async.h</text>
</a>
</g>
</g>
<!-- Node1&#45;&gt;Node3 -->
<g id="edge2_Node000001_Node000003" class="edge">
<title>Node1&#45;&gt;Node3</title>
<g id="a_edge2_Node000001_Node000003"><a xlink:title=" ">
<path fill="none" stroke="#63b8ff" d="M321.28,-66.07C283.12,-57.4 224.38,-43.72 173.75,-30.5 170.98,-29.78 168.13,-29.01 165.26,-28.23"/>
<polygon fill="#63b8ff" stroke="#63b8ff" points="166.47,-24.66 155.9,-25.36 164.6,-31.4 166.47,-24.66"/>
</a>
</g>
</g>
<!-- Node4 -->
<g id="Node000004" class="node">
<title>Node4</title>
<g id="a_Node000004"><a xlink:title=" ">
<polygon fill="#e0e0e0" stroke="#999999" points="295.12,-30.5 182.38,-30.5 182.38,0 295.12,0 295.12,-30.5"/>
<text text-anchor="start" x="190.38" y="-17" font-family="Helvetica,sans-Serif" font-size="10.00">spdlog/sinks/ansicolor</text>
<text text-anchor="middle" x="238.75" y="-5.75" font-family="Helvetica,sans-Serif" font-size="10.00">_sink.h</text>
</a>
</g>
</g>
<!-- Node1&#45;&gt;Node4 -->
<g id="edge3_Node000001_Node000004" class="edge">
<title>Node1&#45;&gt;Node4</title>
<g id="a_edge3_Node000001_Node000004"><a xlink:title=" ">
<path fill="none" stroke="#63b8ff" d="M342.8,-66.05C325.93,-57.98 300.68,-45.89 279.28,-35.65"/>
<polygon fill="#63b8ff" stroke="#63b8ff" points="280.98,-32.11 270.45,-30.94 277.96,-38.42 280.98,-32.11"/>
</a>
</g>
</g>
<!-- Node5 -->
<g id="Node000005" class="node">
<title>Node5</title>
<g id="a_Node000005"><a xlink:title=" ">
<polygon fill="#e0e0e0" stroke="#999999" points="410.25,-30.5 313.25,-30.5 313.25,0 410.25,0 410.25,-30.5"/>
<text text-anchor="start" x="321.25" y="-17" font-family="Helvetica,sans-Serif" font-size="10.00">spdlog/sinks/basic</text>
<text text-anchor="middle" x="361.75" y="-5.75" font-family="Helvetica,sans-Serif" font-size="10.00">_file_sink.h</text>
</a>
</g>
</g>
<!-- Node1&#45;&gt;Node5 -->
<g id="edge4_Node000001_Node000005" class="edge">
<title>Node1&#45;&gt;Node5</title>
<g id="a_edge4_Node000001_Node000005"><a xlink:title=" ">
<path fill="none" stroke="#63b8ff" d="M361.75,-66.18C361.75,-59.65 361.75,-50.45 361.75,-41.72"/>
<polygon fill="#63b8ff" stroke="#63b8ff" points="365.25,-41.78 361.75,-31.78 358.25,-41.78 365.25,-41.78"/>
</a>
</g>
</g>
<!-- Node6 -->
<g id="Node000006" class="node">
<title>Node6</title>
<g id="a_Node000006"><a xlink:title=" ">
<polygon fill="#e0e0e0" stroke="#999999" points="529.12,-30.5 428.38,-30.5 428.38,0 529.12,0 529.12,-30.5"/>
<text text-anchor="start" x="436.38" y="-17" font-family="Helvetica,sans-Serif" font-size="10.00">spdlog/sinks/stdout</text>
<text text-anchor="middle" x="478.75" y="-5.75" font-family="Helvetica,sans-Serif" font-size="10.00">_color_sinks.h</text>
</a>
</g>
</g>
<!-- Node1&#45;&gt;Node6 -->
<g id="edge5_Node000001_Node000006" class="edge">
<title>Node1&#45;&gt;Node6</title>
<g id="a_edge5_Node000001_Node000006"><a xlink:title=" ">
<path fill="none" stroke="#63b8ff" d="M379.77,-66.05C395.75,-58.02 419.62,-46 439.92,-35.79"/>
<polygon fill="#63b8ff" stroke="#63b8ff" points="441.19,-38.57 448.55,-30.94 438.04,-32.31 441.19,-38.57"/>
</a>
</g>
</g>
<!-- Node7 -->
<g id="Node000007" class="node">
<title>Node7</title>
<g id="a_Node000007"><a xlink:title=" ">
<polygon fill="#e0e0e0" stroke="#999999" points="630.5,-24.88 547,-24.88 547,-5.63 630.5,-5.63 630.5,-24.88"/>
<text text-anchor="middle" x="588.75" y="-11.38" font-family="Helvetica,sans-Serif" font-size="10.00">spdlog/spdlog.h</text>
</a>
</g>
</g>
<!-- Node1&#45;&gt;Node7 -->
<g id="edge6_Node000001_Node000007" class="edge">
<title>Node1&#45;&gt;Node7</title>
<g id="a_edge6_Node000001_Node000007"><a xlink:title=" ">
<path fill="none" stroke="#63b8ff" d="M398.56,-66.07C434.21,-57.23 489.78,-43.28 537.75,-30.5 540.53,-29.76 543.39,-28.99 546.27,-28.2"/>
<polygon fill="#63b8ff" stroke="#63b8ff" points="546.97,-31.37 555.68,-25.34 545.11,-24.62 546.97,-31.37"/>
</a>
</g>
</g>
<!-- Node8 -->
<g id="Node000008" class="node">
<title>Node8</title>
<g id="a_Node000008"><a xlink:href="../../d4/dfc/win-undef_8hpp.html" target="_top" xlink:title=" ">
<polygon fill="white" stroke="#666666" points="724.75,-24.88 648.75,-24.88 648.75,-5.63 724.75,-5.63 724.75,-24.88"/>
<text text-anchor="middle" x="686.75" y="-11.38" font-family="Helvetica,sans-Serif" font-size="10.00">win&#45;undef.hpp</text>
</a>
</g>
</g>
<!-- Node1&#45;&gt;Node8 -->
<g id="edge7_Node000001_Node000008" class="edge">
<title>Node1&#45;&gt;Node8</title>
<g id="a_edge7_Node000001_Node000008"><a xlink:title=" ">
<path fill="none" stroke="#63b8ff" d="M425.99,-67.32C482.64,-59.85 567.23,-47.23 639.75,-30.5 642.61,-29.84 645.55,-29.1 648.5,-28.31"/>
<polygon fill="#63b8ff" stroke="#63b8ff" points="649.41,-31.41 658.08,-25.32 647.51,-24.67 649.41,-31.41"/>
</a>
</g>
</g>
</g>
</svg>
