<?xml version="1.0" encoding="UTF-8" standalone="no"?>
<!DOCTYPE svg PUBLIC "-//W3C//DTD SVG 1.1//EN"
 "http://www.w3.org/Graphics/SVG/1.1/DTD/svg11.dtd">
<!-- Generated by graphviz version 8.1.0 (20230707.0739)
 -->
<!-- Title: engine/include/library&#45;pch.hpp Pages: 1 -->
<!--zoomable 96 -->

<svg id="main" version="1.1" xmlns="http://www.w3.org/2000/svg" xmlns:xlink="http://www.w3.org/1999/xlink" xml:space="preserve" onload="init(evt)">
<style type="text/css"><![CDATA[
.node, .edge {opacity: 0.7;}
.node.selected, .edge.selected {opacity: 1;}
.edge:hover path { stroke: red; }
.edge:hover polygon { stroke: red; fill: red; }
]]></style>

<defs>
  <circle id="rim" cx="0" cy="0" r="7"/>
  <circle id="rim2" cx="0" cy="0" r="3.5"/>
  <g id="zoomPlus">
    <use xlink:href="#rim" fill="#404040"><set attributeName="fill" to="#808080" begin="zoomplus.mouseover" end="zoomplus.mouseout"/></use>
    <path d="M-4,0h8M0,-4v8" fill="none" stroke="white" stroke-width="1.5" pointer-events="none"/>
  </g>
  <g id="zoomMin">
    <use xlink:href="#rim" fill="#404040"><set attributeName="fill" to="#808080" begin="zoomminus.mouseover" end="zoomminus.mouseout"/></use>
    <path d="M-4,0h8" fill="none" stroke="white" stroke-width="1.5" pointer-events="none"/>
  </g>
  <g id="arrowUp" transform="translate(30 24)">
    <use xlink:href="#rim"/>
    <path pointer-events="none" fill="none" stroke="white" stroke-width="1.5" d="M0,-3.0v7 M-2.5,-0.5L0,-3.0L2.5,-0.5"/>
  </g>
  <g id="arrowRight" transform="rotate(90) translate(36 -43)">
    <use xlink:href="#rim"/>
    <path pointer-events="none" fill="none" stroke="white" stroke-width="1.5" d="M0,-3.0v7 M-2.5,-0.5L0,-3.0L2.5,-0.5"/>
  </g>
  <g id="arrowDown" transform="rotate(180) translate(-30 -48)">
    <use xlink:href="#rim"/>
    <path pointer-events="none" fill="none" stroke="white" stroke-width="1.5" d="M0,-3.0v7 M-2.5,-0.5L0,-3.0L2.5,-0.5"/>
  </g>
  <g id="arrowLeft" transform="rotate(270) translate(-36 17)">
    <use xlink:href="#rim"/>
    <path pointer-events="none" fill="none" stroke="white" stroke-width="1.5" d="M0,-3.0v7 M-2.5,-0.5L0,-3.0L2.5,-0.5"/>
  </g>
  <g id="resetDef">
    <use xlink:href="#rim2" fill="#404040"><set attributeName="fill" to="#808080" begin="reset.mouseover" end="reset.mouseout"/></use>
  </g>
</defs>
<script type="application/ecmascript">
var viewWidth = 2671;
var viewHeight = 96;
var sectionId = 'dynsection-0';
</script>
<script type="application/ecmascript" xlink:href="../../svg.min.js"/>
<svg id="graph" class="graph">
<g id="viewport">
<title>engine/include/library&#45;pch.hpp</title>
<!-- Node1 -->
<g id="Node000001" class="node">
<title>Node1</title>
<g id="a_Node000001"><a xlink:title=" ">
<polygon fill="#999999" stroke="#666666" points="1329.38,-87.74 1222.62,-87.74 1222.62,-57.24 1329.38,-57.24 1329.38,-87.74"/>
<text text-anchor="start" x="1230.62" y="-74.24" font-family="Helvetica,sans-Serif" font-size="10.00">engine/include/library</text>
<text text-anchor="middle" x="1276" y="-62.99" font-family="Helvetica,sans-Serif" font-size="10.00">&#45;pch.hpp</text>
</a>
</g>
</g>
<!-- Node2 -->
<g id="Node000002" class="node">
<title>Node2</title>
<g id="a_Node000002"><a xlink:title=" ">
<polygon fill="#e0e0e0" stroke="#999999" points="70,-21.24 0,-21.24 0,-1.99 70,-1.99 70,-21.24"/>
<text text-anchor="middle" x="35" y="-7.74" font-family="Helvetica,sans-Serif" font-size="10.00">entt/entt.hpp</text>
</a>
</g>
</g>
<!-- Node1&#45;&gt;Node2 -->
<g id="edge1_Node000001_Node000002" class="edge">
<title>Node1&#45;&gt;Node2</title>
<g id="a_edge1_Node000001_Node000002"><a xlink:title=" ">
<path fill="none" stroke="#63b8ff" d="M1222.38,-72.13C1054.93,-73.5 526.79,-73.21 81.31,-21.32"/>
<polygon fill="#63b8ff" stroke="#63b8ff" points="81.81,-17.74 71.47,-20.05 80.99,-24.69 81.81,-17.74"/>
</a>
</g>
</g>
<!-- Node3 -->
<g id="Node000003" class="node">
<title>Node3</title>
<g id="a_Node000003"><a xlink:title=" ">
<polygon fill="#e0e0e0" stroke="#999999" points="143.88,-21.24 88.12,-21.24 88.12,-1.99 143.88,-1.99 143.88,-21.24"/>
<text text-anchor="middle" x="116" y="-7.74" font-family="Helvetica,sans-Serif" font-size="10.00">algorithm</text>
</a>
</g>
</g>
<!-- Node1&#45;&gt;Node3 -->
<g id="edge2_Node000001_Node000003" class="edge">
<title>Node1&#45;&gt;Node3</title>
<g id="a_edge2_Node000001_Node000003"><a xlink:title=" ">
<path fill="none" stroke="#63b8ff" d="M1222.32,-70.45C1031.17,-66.52 383.27,-51.38 154.76,-21.35"/>
<polygon fill="#63b8ff" stroke="#63b8ff" points="155.58,-17.79 145.2,-19.91 154.64,-24.73 155.58,-17.79"/>
</a>
</g>
</g>
<!-- Node4 -->
<g id="Node000004" class="node">
<title>Node4</title>
<g id="a_Node000004"><a xlink:title=" ">
<polygon fill="#e0e0e0" stroke="#999999" points="198.5,-21.24 161.5,-21.24 161.5,-1.99 198.5,-1.99 198.5,-21.24"/>
<text text-anchor="middle" x="180" y="-7.74" font-family="Helvetica,sans-Serif" font-size="10.00">array</text>
</a>
</g>
</g>
<!-- Node1&#45;&gt;Node4 -->
<g id="edge3_Node000001_Node000004" class="edge">
<title>Node1&#45;&gt;Node4</title>
<g id="a_edge3_Node000001_Node000004"><a xlink:title=" ">
<path fill="none" stroke="#63b8ff" d="M1222.36,-70.75C1037.5,-67.92 426.9,-56.25 209.49,-20.93"/>
<polygon fill="#63b8ff" stroke="#63b8ff" points="210.26,-17.34 199.82,-19.12 209.09,-24.24 210.26,-17.34"/>
</a>
</g>
</g>
<!-- Node5 -->
<g id="Node000005" class="node">
<title>Node5</title>
<g id="a_Node000005"><a xlink:title=" ">
<polygon fill="#e0e0e0" stroke="#999999" points="267.25,-21.24 216.75,-21.24 216.75,-1.99 267.25,-1.99 267.25,-21.24"/>
<text text-anchor="middle" x="242" y="-7.74" font-family="Helvetica,sans-Serif" font-size="10.00">assert.h</text>
</a>
</g>
</g>
<!-- Node1&#45;&gt;Node5 -->
<g id="edge4_Node000001_Node000005" class="edge">
<title>Node1&#45;&gt;Node5</title>
<g id="a_edge4_Node000001_Node000005"><a xlink:title=" ">
<path fill="none" stroke="#63b8ff" d="M1222.43,-70.2C1045.8,-65.73 481.99,-49.68 278.38,-21.25"/>
<polygon fill="#63b8ff" stroke="#63b8ff" points="278.91,-17.64 268.51,-19.66 277.9,-24.57 278.91,-17.64"/>
</a>
</g>
</g>
<!-- Node6 -->
<g id="Node000006" class="node">
<title>Node6</title>
<g id="a_Node000006"><a xlink:title=" ">
<polygon fill="#e0e0e0" stroke="#999999" points="330.62,-21.24 285.38,-21.24 285.38,-1.99 330.62,-1.99 330.62,-21.24"/>
<text text-anchor="middle" x="308" y="-7.74" font-family="Helvetica,sans-Serif" font-size="10.00">chrono</text>
</a>
</g>
</g>
<!-- Node1&#45;&gt;Node6 -->
<g id="edge5_Node000001_Node000006" class="edge">
<title>Node1&#45;&gt;Node6</title>
<g id="a_edge5_Node000001_Node000006"><a xlink:title=" ">
<path fill="none" stroke="#63b8ff" d="M1222.2,-70.15C1052.87,-65.67 531.3,-50.03 341.57,-21.28"/>
<polygon fill="#63b8ff" stroke="#63b8ff" points="342.32,-17.69 331.9,-19.59 341.23,-24.61 342.32,-17.69"/>
</a>
</g>
</g>
<!-- Node7 -->
<g id="Node000007" class="node">
<title>Node7</title>
<g id="a_Node000007"><a xlink:title=" ">
<polygon fill="#e0e0e0" stroke="#999999" points="391.5,-21.24 348.5,-21.24 348.5,-1.99 391.5,-1.99 391.5,-21.24"/>
<text text-anchor="middle" x="370" y="-7.74" font-family="Helvetica,sans-Serif" font-size="10.00">cmath</text>
</a>
</g>
</g>
<!-- Node1&#45;&gt;Node7 -->
<g id="edge6_Node000001_Node000007" class="edge">
<title>Node1&#45;&gt;Node7</title>
<g id="a_edge6_Node000001_Node000007"><a xlink:title=" ">
<path fill="none" stroke="#63b8ff" d="M1222.25,-69.98C1060.61,-65.18 579.74,-49.07 402.55,-21.26"/>
<polygon fill="#63b8ff" stroke="#63b8ff" points="403.26,-17.67 392.82,-19.5 402.13,-24.57 403.26,-17.67"/>
</a>
</g>
</g>
<!-- Node8 -->
<g id="Node000008" class="node">
<title>Node8</title>
<g id="a_Node000008"><a xlink:title=" ">
<polygon fill="#e0e0e0" stroke="#999999" points="464.88,-21.24 409.12,-21.24 409.12,-1.99 464.88,-1.99 464.88,-21.24"/>
<text text-anchor="middle" x="437" y="-7.74" font-family="Helvetica,sans-Serif" font-size="10.00">concepts</text>
</a>
</g>
</g>
<!-- Node1&#45;&gt;Node8 -->
<g id="edge7_Node000001_Node000008" class="edge">
<title>Node1&#45;&gt;Node8</title>
<g id="a_edge7_Node000001_Node000008"><a xlink:title=" ">
<path fill="none" stroke="#63b8ff" d="M1222.18,-71.2C1094.22,-69.85 761.76,-62.47 475.77,-21.24"/>
<polygon fill="#63b8ff" stroke="#63b8ff" points="476.59,-17.68 466.19,-19.7 475.58,-24.6 476.59,-17.68"/>
</a>
</g>
</g>
<!-- Node9 -->
<g id="Node000009" class="node">
<title>Node9</title>
<g id="a_Node000009"><a xlink:title=" ">
<polygon fill="#e0e0e0" stroke="#999999" points="577,-21.24 483,-21.24 483,-1.99 577,-1.99 577,-21.24"/>
<text text-anchor="middle" x="530" y="-7.74" font-family="Helvetica,sans-Serif" font-size="10.00">condition_variable</text>
</a>
</g>
</g>
<!-- Node1&#45;&gt;Node9 -->
<g id="edge8_Node000001_Node000009" class="edge">
<title>Node1&#45;&gt;Node9</title>
<g id="a_edge8_Node000001_Node000009"><a xlink:title=" ">
<path fill="none" stroke="#63b8ff" d="M1222.18,-69.04C1107.54,-63.51 830.58,-48.45 588.11,-21.39"/>
<polygon fill="#63b8ff" stroke="#63b8ff" points="588.65,-17.82 578.32,-20.18 587.87,-24.77 588.65,-17.82"/>
</a>
</g>
</g>
<!-- Node10 -->
<g id="Node000010" class="node">
<title>Node10</title>
<g id="a_Node000010"><a xlink:title=" ">
<polygon fill="#e0e0e0" stroke="#999999" points="640.62,-21.24 595.38,-21.24 595.38,-1.99 640.62,-1.99 640.62,-21.24"/>
<text text-anchor="middle" x="618" y="-7.74" font-family="Helvetica,sans-Serif" font-size="10.00">cstdint</text>
</a>
</g>
</g>
<!-- Node1&#45;&gt;Node10 -->
<g id="edge9_Node000001_Node000010" class="edge">
<title>Node1&#45;&gt;Node10</title>
<g id="a_edge9_Node000001_Node000010"><a xlink:title=" ">
<path fill="none" stroke="#63b8ff" d="M1222.41,-70.49C1115.45,-67.78 867.9,-57.93 651.56,-21.17"/>
<polygon fill="#63b8ff" stroke="#63b8ff" points="652.41,-17.59 641.96,-19.34 651.22,-24.49 652.41,-17.59"/>
</a>
</g>
</g>
<!-- Node11 -->
<g id="Node000011" class="node">
<title>Node11</title>
<g id="a_Node000011"><a xlink:title=" ">
<polygon fill="#e0e0e0" stroke="#999999" points="703.25,-21.24 658.75,-21.24 658.75,-1.99 703.25,-1.99 703.25,-21.24"/>
<text text-anchor="middle" x="681" y="-7.74" font-family="Helvetica,sans-Serif" font-size="10.00">cstdlib</text>
</a>
</g>
</g>
<!-- Node1&#45;&gt;Node11 -->
<g id="edge10_Node000001_Node000011" class="edge">
<title>Node1&#45;&gt;Node11</title>
<g id="a_edge10_Node000001_Node000011"><a xlink:title=" ">
<path fill="none" stroke="#63b8ff" d="M1222.3,-69.96C1123.38,-66.45 905.72,-55.43 714.4,-21.37"/>
<polygon fill="#63b8ff" stroke="#63b8ff" points="715.04,-17.75 704.58,-19.41 713.79,-24.63 715.04,-17.75"/>
</a>
</g>
</g>
<!-- Node12 -->
<g id="Node000012" class="node">
<title>Node12</title>
<g id="a_Node000012"><a xlink:title=" ">
<polygon fill="#e0e0e0" stroke="#999999" points="780.75,-21.24 721.25,-21.24 721.25,-1.99 780.75,-1.99 780.75,-21.24"/>
<text text-anchor="middle" x="751" y="-7.74" font-family="Helvetica,sans-Serif" font-size="10.00">filesystem</text>
</a>
</g>
</g>
<!-- Node1&#45;&gt;Node12 -->
<g id="edge11_Node000001_Node000012" class="edge">
<title>Node1&#45;&gt;Node12</title>
<g id="a_edge11_Node000001_Node000012"><a xlink:title=" ">
<path fill="none" stroke="#63b8ff" d="M1222.39,-68.08C1134.33,-62.01 953.41,-47.6 791.83,-21.55"/>
<polygon fill="#63b8ff" stroke="#63b8ff" points="792.65,-17.98 782.22,-19.82 791.52,-24.89 792.65,-17.98"/>
</a>
</g>
</g>
<!-- Node13 -->
<g id="Node000013" class="node">
<title>Node13</title>
<g id="a_Node000013"><a xlink:title=" ">
<polygon fill="#e0e0e0" stroke="#999999" points="847.5,-21.24 798.5,-21.24 798.5,-1.99 847.5,-1.99 847.5,-21.24"/>
<text text-anchor="middle" x="823" y="-7.74" font-family="Helvetica,sans-Serif" font-size="10.00">fstream</text>
</a>
</g>
</g>
<!-- Node1&#45;&gt;Node13 -->
<g id="edge12_Node000001_Node000013" class="edge">
<title>Node1&#45;&gt;Node13</title>
<g id="a_edge12_Node000001_Node000013"><a xlink:title=" ">
<path fill="none" stroke="#63b8ff" d="M1222.42,-67.29C1144.45,-60.7 995.03,-46.22 858.45,-21.27"/>
<polygon fill="#63b8ff" stroke="#63b8ff" points="859.27,-17.68 848.8,-19.3 858,-24.56 859.27,-17.68"/>
</a>
</g>
</g>
<!-- Node14 -->
<g id="Node000014" class="node">
<title>Node14</title>
<g id="a_Node000014"><a xlink:title=" ">
<polygon fill="#e0e0e0" stroke="#999999" points="924,-21.24 866,-21.24 866,-1.99 924,-1.99 924,-21.24"/>
<text text-anchor="middle" x="895" y="-7.74" font-family="Helvetica,sans-Serif" font-size="10.00">functional</text>
</a>
</g>
</g>
<!-- Node1&#45;&gt;Node14 -->
<g id="edge13_Node000001_Node000014" class="edge">
<title>Node1&#45;&gt;Node14</title>
<g id="a_edge13_Node000001_Node000014"><a xlink:title=" ">
<path fill="none" stroke="#63b8ff" d="M1222.32,-64.94C1156.8,-56.65 1042.43,-41.25 935.11,-21.51"/>
<polygon fill="#63b8ff" stroke="#63b8ff" points="935.88,-17.91 925.41,-19.53 934.6,-24.8 935.88,-17.91"/>
</a>
</g>
</g>
<!-- Node15 -->
<g id="Node000015" class="node">
<title>Node15</title>
<g id="a_Node000015"><a xlink:title=" ">
<polygon fill="#e0e0e0" stroke="#999999" points="991.88,-21.24 942.12,-21.24 942.12,-1.99 991.88,-1.99 991.88,-21.24"/>
<text text-anchor="middle" x="967" y="-7.74" font-family="Helvetica,sans-Serif" font-size="10.00">iomanip</text>
</a>
</g>
</g>
<!-- Node1&#45;&gt;Node15 -->
<g id="edge14_Node000001_Node000015" class="edge">
<title>Node1&#45;&gt;Node15</title>
<g id="a_edge14_Node000001_Node000015"><a xlink:title=" ">
<path fill="none" stroke="#63b8ff" d="M1222.3,-62.78C1168.99,-53.89 1084.73,-39.18 1002.71,-21.5"/>
<polygon fill="#63b8ff" stroke="#63b8ff" points="1003.72,-17.92 993.21,-19.21 1002.23,-24.76 1003.72,-17.92"/>
</a>
</g>
</g>
<!-- Node16 -->
<g id="Node000016" class="node">
<title>Node16</title>
<g id="a_Node000016"><a xlink:title=" ">
<polygon fill="#e0e0e0" stroke="#999999" points="1058.12,-21.24 1009.88,-21.24 1009.88,-1.99 1058.12,-1.99 1058.12,-21.24"/>
<text text-anchor="middle" x="1034" y="-7.74" font-family="Helvetica,sans-Serif" font-size="10.00">istream</text>
</a>
</g>
</g>
<!-- Node1&#45;&gt;Node16 -->
<g id="edge15_Node000001_Node000016" class="edge">
<title>Node1&#45;&gt;Node16</title>
<g id="a_edge15_Node000001_Node000016"><a xlink:title=" ">
<path fill="none" stroke="#63b8ff" d="M1222.23,-58.87C1182.37,-49.45 1126.44,-36.07 1068.88,-21.68"/>
<polygon fill="#63b8ff" stroke="#63b8ff" points="1070.05,-18.11 1059.49,-19.08 1068.34,-24.9 1070.05,-18.11"/>
</a>
</g>
</g>
<!-- Node17 -->
<g id="Node000017" class="node">
<title>Node17</title>
<g id="a_Node000017"><a xlink:title=" ">
<polygon fill="#e0e0e0" stroke="#999999" points="1115.62,-21.24 1076.38,-21.24 1076.38,-1.99 1115.62,-1.99 1115.62,-21.24"/>
<text text-anchor="middle" x="1096" y="-7.74" font-family="Helvetica,sans-Serif" font-size="10.00">limits</text>
</a>
</g>
</g>
<!-- Node1&#45;&gt;Node17 -->
<g id="edge16_Node000001_Node000017" class="edge">
<title>Node1&#45;&gt;Node17</title>
<g id="a_edge16_Node000001_Node000017"><a xlink:title=" ">
<path fill="none" stroke="#63b8ff" d="M1231.04,-56.79C1198.36,-46.09 1154.99,-31.91 1126.33,-22.53"/>
<polygon fill="#63b8ff" stroke="#63b8ff" points="1127.7,-18.98 1117.11,-19.19 1125.53,-25.63 1127.7,-18.98"/>
</a>
</g>
</g>
<!-- Node18 -->
<g id="Node000018" class="node">
<title>Node18</title>
<g id="a_Node000018"><a xlink:title=" ">
<polygon fill="#e0e0e0" stroke="#999999" points="1168.38,-21.24 1133.62,-21.24 1133.62,-1.99 1168.38,-1.99 1168.38,-21.24"/>
<text text-anchor="middle" x="1151" y="-7.74" font-family="Helvetica,sans-Serif" font-size="10.00">map</text>
</a>
</g>
</g>
<!-- Node1&#45;&gt;Node18 -->
<g id="edge17_Node000001_Node000018" class="edge">
<title>Node1&#45;&gt;Node18</title>
<g id="a_edge17_Node000001_Node000018"><a xlink:title=" ">
<path fill="none" stroke="#63b8ff" d="M1244.78,-56.79C1224.43,-47.2 1198.12,-34.81 1178.55,-25.59"/>
<polygon fill="#63b8ff" stroke="#63b8ff" points="1180.26,-22.06 1169.72,-20.96 1177.28,-28.39 1180.26,-22.06"/>
</a>
</g>
</g>
<!-- Node19 -->
<g id="Node000019" class="node">
<title>Node19</title>
<g id="a_Node000019"><a xlink:title=" ">
<polygon fill="#e0e0e0" stroke="#999999" points="1237.25,-21.24 1186.75,-21.24 1186.75,-1.99 1237.25,-1.99 1237.25,-21.24"/>
<text text-anchor="middle" x="1212" y="-7.74" font-family="Helvetica,sans-Serif" font-size="10.00">memory</text>
</a>
</g>
</g>
<!-- Node1&#45;&gt;Node19 -->
<g id="edge18_Node000001_Node000019" class="edge">
<title>Node1&#45;&gt;Node19</title>
<g id="a_edge18_Node000001_Node000019"><a xlink:title=" ">
<path fill="none" stroke="#63b8ff" d="M1260.18,-56.94C1251,-48.49 1239.4,-37.82 1229.89,-29.07"/>
<polygon fill="#63b8ff" stroke="#63b8ff" points="1232.6,-26.89 1222.87,-22.69 1227.86,-32.04 1232.6,-26.89"/>
</a>
</g>
</g>
<!-- Node20 -->
<g id="Node000020" class="node">
<title>Node20</title>
<g id="a_Node000020"><a xlink:title=" ">
<polygon fill="#e0e0e0" stroke="#999999" points="1297.12,-21.24 1254.88,-21.24 1254.88,-1.99 1297.12,-1.99 1297.12,-21.24"/>
<text text-anchor="middle" x="1276" y="-7.74" font-family="Helvetica,sans-Serif" font-size="10.00">mutex</text>
</a>
</g>
</g>
<!-- Node1&#45;&gt;Node20 -->
<g id="edge19_Node000001_Node000020" class="edge">
<title>Node1&#45;&gt;Node20</title>
<g id="a_edge19_Node000001_Node000020"><a xlink:title=" ">
<path fill="none" stroke="#63b8ff" d="M1276,-56.94C1276,-49.61 1276,-40.62 1276,-32.65"/>
<polygon fill="#63b8ff" stroke="#63b8ff" points="1279.5,-32.69 1276,-22.69 1272.5,-32.69 1279.5,-32.69"/>
</a>
</g>
</g>
<!-- Node21 -->
<g id="Node000021" class="node">
<title>Node21</title>
<g id="a_Node000021"><a xlink:title=" ">
<polygon fill="#e0e0e0" stroke="#999999" points="1368.75,-21.24 1315.25,-21.24 1315.25,-1.99 1368.75,-1.99 1368.75,-21.24"/>
<text text-anchor="middle" x="1342" y="-7.74" font-family="Helvetica,sans-Serif" font-size="10.00">numbers</text>
</a>
</g>
</g>
<!-- Node1&#45;&gt;Node21 -->
<g id="edge20_Node000001_Node000021" class="edge">
<title>Node1&#45;&gt;Node21</title>
<g id="a_edge20_Node000001_Node000021"><a xlink:title=" ">
<path fill="none" stroke="#63b8ff" d="M1292.31,-56.94C1301.88,-48.4 1313.98,-37.61 1323.85,-28.81"/>
<polygon fill="#63b8ff" stroke="#63b8ff" points="1325.69,-31.96 1330.83,-22.69 1321.03,-26.74 1325.69,-31.96"/>
</a>
</g>
</g>
<!-- Node22 -->
<g id="Node000022" class="node">
<title>Node22</title>
<g id="a_Node000022"><a xlink:title=" ">
<polygon fill="#e0e0e0" stroke="#999999" points="1437.25,-21.24 1386.75,-21.24 1386.75,-1.99 1437.25,-1.99 1437.25,-21.24"/>
<text text-anchor="middle" x="1412" y="-7.74" font-family="Helvetica,sans-Serif" font-size="10.00">numeric</text>
</a>
</g>
</g>
<!-- Node1&#45;&gt;Node22 -->
<g id="edge21_Node000001_Node000022" class="edge">
<title>Node1&#45;&gt;Node22</title>
<g id="a_edge21_Node000001_Node000022"><a xlink:title=" ">
<path fill="none" stroke="#63b8ff" d="M1309.97,-56.79C1331.77,-47.35 1359.87,-35.18 1381.06,-26.01"/>
<polygon fill="#63b8ff" stroke="#63b8ff" points="1382.36,-28.83 1390.14,-21.64 1379.58,-22.41 1382.36,-28.83"/>
</a>
</g>
</g>
<!-- Node23 -->
<g id="Node000023" class="node">
<title>Node23</title>
<g id="a_Node000023"><a xlink:title=" ">
<polygon fill="#e0e0e0" stroke="#999999" points="1504.88,-21.24 1455.12,-21.24 1455.12,-1.99 1504.88,-1.99 1504.88,-21.24"/>
<text text-anchor="middle" x="1480" y="-7.74" font-family="Helvetica,sans-Serif" font-size="10.00">optional</text>
</a>
</g>
</g>
<!-- Node1&#45;&gt;Node23 -->
<g id="edge22_Node000001_Node000023" class="edge">
<title>Node1&#45;&gt;Node23</title>
<g id="a_edge22_Node000001_Node000023"><a xlink:title=" ">
<path fill="none" stroke="#63b8ff" d="M1326.95,-56.79C1363.53,-46.23 1411.91,-32.27 1444.4,-22.89"/>
<polygon fill="#63b8ff" stroke="#63b8ff" points="1445.13,-26.03 1453.77,-19.9 1443.19,-19.31 1445.13,-26.03"/>
</a>
</g>
</g>
<!-- Node24 -->
<g id="Node000024" class="node">
<title>Node24</title>
<g id="a_Node000024"><a xlink:title=" ">
<polygon fill="#e0e0e0" stroke="#999999" points="1574.62,-21.24 1523.38,-21.24 1523.38,-1.99 1574.62,-1.99 1574.62,-21.24"/>
<text text-anchor="middle" x="1549" y="-7.74" font-family="Helvetica,sans-Serif" font-size="10.00">ostream</text>
</a>
</g>
</g>
<!-- Node1&#45;&gt;Node24 -->
<g id="edge23_Node000001_Node000024" class="edge">
<title>Node1&#45;&gt;Node24</title>
<g id="a_edge23_Node000001_Node000024"><a xlink:title=" ">
<path fill="none" stroke="#63b8ff" d="M1329.52,-60.73C1375.47,-51.36 1443.74,-37.16 1512.45,-21.54"/>
<polygon fill="#63b8ff" stroke="#63b8ff" points="1513.06,-24.76 1522.03,-19.12 1511.5,-17.93 1513.06,-24.76"/>
</a>
</g>
</g>
<!-- Node25 -->
<g id="Node000025" class="node">
<title>Node25</title>
<g id="a_Node000025"><a xlink:title=" ">
<polygon fill="#e0e0e0" stroke="#999999" points="1669.38,-21.24 1592.62,-21.24 1592.62,-1.99 1669.38,-1.99 1669.38,-21.24"/>
<text text-anchor="middle" x="1631" y="-7.74" font-family="Helvetica,sans-Serif" font-size="10.00">shared_mutex</text>
</a>
</g>
</g>
<!-- Node1&#45;&gt;Node25 -->
<g id="edge24_Node000001_Node000025" class="edge">
<title>Node1&#45;&gt;Node25</title>
<g id="a_edge24_Node000001_Node000025"><a xlink:title=" ">
<path fill="none" stroke="#63b8ff" d="M1329.75,-63.05C1389.03,-53.67 1487.54,-37.86 1581.71,-21.61"/>
<polygon fill="#63b8ff" stroke="#63b8ff" points="1582.03,-24.94 1591.28,-19.78 1580.83,-18.04 1582.03,-24.94"/>
</a>
</g>
</g>
<!-- Node26 -->
<g id="Node000026" class="node">
<title>Node26</title>
<g id="a_Node000026"><a xlink:title=" ">
<polygon fill="#e0e0e0" stroke="#999999" points="1724.5,-21.24 1687.5,-21.24 1687.5,-1.99 1724.5,-1.99 1724.5,-21.24"/>
<text text-anchor="middle" x="1706" y="-7.74" font-family="Helvetica,sans-Serif" font-size="10.00">span</text>
</a>
</g>
</g>
<!-- Node1&#45;&gt;Node26 -->
<g id="edge25_Node000001_Node000026" class="edge">
<title>Node1&#45;&gt;Node26</title>
<g id="a_edge25_Node000001_Node000026"><a xlink:title=" ">
<path fill="none" stroke="#63b8ff" d="M1329.82,-67.76C1405.37,-61.87 1547.18,-48.42 1676.65,-21.16"/>
<polygon fill="#63b8ff" stroke="#63b8ff" points="1677.09,-24.43 1686.14,-18.91 1675.63,-17.58 1677.09,-24.43"/>
</a>
</g>
</g>
<!-- Node27 -->
<g id="Node000027" class="node">
<title>Node27</title>
<g id="a_Node000027"><a xlink:title=" ">
<polygon fill="#e0e0e0" stroke="#999999" points="1793.62,-21.24 1742.38,-21.24 1742.38,-1.99 1793.62,-1.99 1793.62,-21.24"/>
<text text-anchor="middle" x="1768" y="-7.74" font-family="Helvetica,sans-Serif" font-size="10.00">sstream</text>
</a>
</g>
</g>
<!-- Node1&#45;&gt;Node27 -->
<g id="edge26_Node000001_Node000027" class="edge">
<title>Node1&#45;&gt;Node27</title>
<g id="a_edge26_Node000001_Node000027"><a xlink:title=" ">
<path fill="none" stroke="#63b8ff" d="M1329.59,-68.04C1413.44,-62.11 1580.88,-48.14 1731.29,-21.52"/>
<polygon fill="#63b8ff" stroke="#63b8ff" points="1731.87,-24.79 1741.09,-19.58 1730.63,-17.91 1731.87,-24.79"/>
</a>
</g>
</g>
<!-- Node28 -->
<g id="Node000028" class="node">
<title>Node28</title>
<g id="a_Node000028"><a xlink:title=" ">
<polygon fill="#e0e0e0" stroke="#999999" points="1870,-21.24 1812,-21.24 1812,-1.99 1870,-1.99 1870,-21.24"/>
<text text-anchor="middle" x="1841" y="-7.74" font-family="Helvetica,sans-Serif" font-size="10.00">stdexcept</text>
</a>
</g>
</g>
<!-- Node1&#45;&gt;Node28 -->
<g id="edge27_Node000001_Node000028" class="edge">
<title>Node1&#45;&gt;Node28</title>
<g id="a_edge27_Node000001_Node000028"><a xlink:title=" ">
<path fill="none" stroke="#63b8ff" d="M1329.77,-68.64C1423.52,-63.19 1623.06,-49.37 1800.75,-21.41"/>
<polygon fill="#63b8ff" stroke="#63b8ff" points="1801.29,-24.71 1810.61,-19.68 1800.19,-17.79 1801.29,-24.71"/>
</a>
</g>
</g>
<!-- Node29 -->
<g id="Node000029" class="node">
<title>Node29</title>
<g id="a_Node000029"><a xlink:title=" ">
<polygon fill="#e0e0e0" stroke="#999999" points="1935.75,-21.24 1888.25,-21.24 1888.25,-1.99 1935.75,-1.99 1935.75,-21.24"/>
<text text-anchor="middle" x="1912" y="-7.74" font-family="Helvetica,sans-Serif" font-size="10.00">stdint.h</text>
</a>
</g>
</g>
<!-- Node1&#45;&gt;Node29 -->
<g id="edge28_Node000001_Node000029" class="edge">
<title>Node1&#45;&gt;Node29</title>
<g id="a_edge28_Node000001_Node000029"><a xlink:title=" ">
<path fill="none" stroke="#63b8ff" d="M1329.63,-70.12C1433.6,-66.8 1669.86,-55.98 1877.17,-21.25"/>
<polygon fill="#63b8ff" stroke="#63b8ff" points="1877.68,-24.54 1886.95,-19.41 1876.51,-17.64 1877.68,-24.54"/>
</a>
</g>
</g>
<!-- Node30 -->
<g id="Node000030" class="node">
<title>Node30</title>
<g id="a_Node000030"><a xlink:title=" ">
<polygon fill="#e0e0e0" stroke="#999999" points="1994,-21.24 1954,-21.24 1954,-1.99 1994,-1.99 1994,-21.24"/>
<text text-anchor="middle" x="1974" y="-7.74" font-family="Helvetica,sans-Serif" font-size="10.00">string</text>
</a>
</g>
</g>
<!-- Node1&#45;&gt;Node30 -->
<g id="edge29_Node000001_Node000030" class="edge">
<title>Node1&#45;&gt;Node30</title>
<g id="a_edge29_Node000001_Node000030"><a xlink:title=" ">
<path fill="none" stroke="#63b8ff" d="M1329.83,-71.34C1442.39,-70.18 1710.77,-63.05 1942.86,-21.24"/>
<polygon fill="#63b8ff" stroke="#63b8ff" points="1943.33,-24.53 1952.54,-19.29 1942.07,-17.65 1943.33,-24.53"/>
</a>
</g>
</g>
<!-- Node31 -->
<g id="Node000031" class="node">
<title>Node31</title>
<g id="a_Node000031"><a xlink:title=" ">
<polygon fill="#e0e0e0" stroke="#999999" points="2055.5,-21.24 2012.5,-21.24 2012.5,-1.99 2055.5,-1.99 2055.5,-21.24"/>
<text text-anchor="middle" x="2034" y="-7.74" font-family="Helvetica,sans-Serif" font-size="10.00">thread</text>
</a>
</g>
</g>
<!-- Node1&#45;&gt;Node31 -->
<g id="edge30_Node000001_Node000031" class="edge">
<title>Node1&#45;&gt;Node31</title>
<g id="a_edge30_Node000001_Node000031"><a xlink:title=" ">
<path fill="none" stroke="#63b8ff" d="M1329.8,-71.48C1449.27,-70.66 1745.68,-64.22 2001.5,-21.11"/>
<polygon fill="#63b8ff" stroke="#63b8ff" points="2001.84,-24.43 2011.11,-19.3 2000.66,-17.53 2001.84,-24.43"/>
</a>
</g>
</g>
<!-- Node32 -->
<g id="Node000032" class="node">
<title>Node32</title>
<g id="a_Node000032"><a xlink:title=" ">
<polygon fill="#e0e0e0" stroke="#999999" points="2134.5,-21.24 2073.5,-21.24 2073.5,-1.99 2134.5,-1.99 2134.5,-21.24"/>
<text text-anchor="middle" x="2104" y="-7.74" font-family="Helvetica,sans-Serif" font-size="10.00">type_traits</text>
</a>
</g>
</g>
<!-- Node1&#45;&gt;Node32 -->
<g id="edge31_Node000001_Node000032" class="edge">
<title>Node1&#45;&gt;Node32</title>
<g id="a_edge31_Node000001_Node000032"><a xlink:title=" ">
<path fill="none" stroke="#63b8ff" d="M1329.86,-70.91C1456.31,-68.95 1782.07,-60.33 2062.62,-21.36"/>
<polygon fill="#63b8ff" stroke="#63b8ff" points="2063.01,-24.7 2072.42,-19.84 2062.03,-17.77 2063.01,-24.7"/>
</a>
</g>
</g>
<!-- Node33 -->
<g id="Node000033" class="node">
<title>Node33</title>
<g id="a_Node000033"><a xlink:title=" ">
<polygon fill="#e0e0e0" stroke="#999999" points="2229.75,-21.24 2152.25,-21.24 2152.25,-1.99 2229.75,-1.99 2229.75,-21.24"/>
<text text-anchor="middle" x="2191" y="-7.74" font-family="Helvetica,sans-Serif" font-size="10.00">unordered_set</text>
</a>
</g>
</g>
<!-- Node1&#45;&gt;Node33 -->
<g id="edge32_Node000001_Node000033" class="edge">
<title>Node1&#45;&gt;Node33</title>
<g id="a_edge32_Node000001_Node000033"><a xlink:title=" ">
<path fill="none" stroke="#63b8ff" d="M1329.79,-70.69C1464.81,-68.17 1829.03,-58.34 2141.2,-21.45"/>
<polygon fill="#63b8ff" stroke="#63b8ff" points="2141.3,-24.84 2150.82,-20.18 2140.47,-17.89 2141.3,-24.84"/>
</a>
</g>
</g>
<!-- Node34 -->
<g id="Node000034" class="node">
<title>Node34</title>
<g id="a_Node000034"><a xlink:title=" ">
<polygon fill="#e0e0e0" stroke="#999999" points="2292.62,-21.24 2247.38,-21.24 2247.38,-1.99 2292.62,-1.99 2292.62,-21.24"/>
<text text-anchor="middle" x="2270" y="-7.74" font-family="Helvetica,sans-Serif" font-size="10.00">variant</text>
</a>
</g>
</g>
<!-- Node1&#45;&gt;Node34 -->
<g id="edge33_Node000001_Node000034" class="edge">
<title>Node1&#45;&gt;Node34</title>
<g id="a_edge33_Node000001_Node000034"><a xlink:title=" ">
<path fill="none" stroke="#63b8ff" d="M1329.75,-70.24C1502.2,-65.97 2041.28,-50.74 2236.41,-21.28"/>
<polygon fill="#63b8ff" stroke="#63b8ff" points="2236.77,-24.6 2246.1,-19.59 2235.68,-17.69 2236.77,-24.6"/>
</a>
</g>
</g>
<!-- Node35 -->
<g id="Node000035" class="node">
<title>Node35</title>
<g id="a_Node000035"><a xlink:title=" ">
<polygon fill="#e0e0e0" stroke="#999999" points="2353.5,-21.24 2310.5,-21.24 2310.5,-1.99 2353.5,-1.99 2353.5,-21.24"/>
<text text-anchor="middle" x="2332" y="-7.74" font-family="Helvetica,sans-Serif" font-size="10.00">vector</text>
</a>
</g>
</g>
<!-- Node1&#45;&gt;Node35 -->
<g id="edge34_Node000001_Node000035" class="edge">
<title>Node1&#45;&gt;Node35</title>
<g id="a_edge34_Node000001_Node000035"><a xlink:title=" ">
<path fill="none" stroke="#63b8ff" d="M1329.72,-70.5C1509.67,-66.92 2091.17,-53.25 2299.37,-21.26"/>
<polygon fill="#63b8ff" stroke="#63b8ff" points="2299.86,-24.56 2309.18,-19.52 2298.75,-17.65 2299.86,-24.56"/>
</a>
</g>
</g>
<!-- Node36 -->
<g id="Node000036" class="node">
<title>Node36</title>
<g id="a_Node000036"><a xlink:title=" ">
<polygon fill="#e0e0e0" stroke="#999999" points="2420.12,-21.24 2371.88,-21.24 2371.88,-1.99 2420.12,-1.99 2420.12,-21.24"/>
<text text-anchor="middle" x="2396" y="-7.74" font-family="Helvetica,sans-Serif" font-size="10.00">random</text>
</a>
</g>
</g>
<!-- Node1&#45;&gt;Node36 -->
<g id="edge35_Node000001_Node000036" class="edge">
<title>Node1&#45;&gt;Node36</title>
<g id="a_edge35_Node000001_Node000036"><a xlink:title=" ">
<path fill="none" stroke="#63b8ff" d="M1329.56,-70.5C1516.33,-66.82 2139.09,-52.56 2360.73,-21.2"/>
<polygon fill="#63b8ff" stroke="#63b8ff" points="2361.23,-24.52 2370.61,-19.6 2360.21,-17.59 2361.23,-24.52"/>
</a>
</g>
</g>
<!-- Node37 -->
<g id="Node000037" class="node">
<title>Node37</title>
<g id="a_Node000037"><a xlink:href="../../de/d43/common-typedefs_8hpp.html" target="_top" xlink:title=" ">
<polygon fill="white" stroke="#666666" points="2549.62,-21.24 2438.38,-21.24 2438.38,-1.99 2549.62,-1.99 2549.62,-21.24"/>
<text text-anchor="middle" x="2494" y="-7.74" font-family="Helvetica,sans-Serif" font-size="10.00">common&#45;typedefs.hpp</text>
</a>
</g>
</g>
<!-- Node1&#45;&gt;Node37 -->
<g id="edge36_Node000001_Node000037" class="edge">
<title>Node1&#45;&gt;Node37</title>
<g id="a_edge36_Node000001_Node000037"><a xlink:title=" ">
<path fill="none" stroke="#63b8ff" d="M1329.85,-70.83C1493.28,-68.48 1998.14,-58.56 2427.26,-21.31"/>
<polygon fill="#63b8ff" stroke="#63b8ff" points="2427.36,-24.72 2437.01,-20.36 2426.75,-17.75 2427.36,-24.72"/>
</a>
</g>
</g>
<!-- Node38 -->
<g id="Node000038" class="node">
<title>Node38</title>
<g id="a_Node000038"><a xlink:href="../../d4/d78/math_8hpp.html" target="_top" xlink:title=" ">
<polygon fill="white" stroke="#666666" points="2644.75,-21.24 2567.25,-21.24 2567.25,-1.99 2644.75,-1.99 2644.75,-21.24"/>
<text text-anchor="middle" x="2606" y="-7.74" font-family="Helvetica,sans-Serif" font-size="10.00">core/math.hpp</text>
</a>
</g>
</g>
<!-- Node1&#45;&gt;Node38 -->
<g id="edge37_Node000001_Node000038" class="edge">
<title>Node1&#45;&gt;Node38</title>
<g id="a_edge37_Node000001_Node000038"><a xlink:title=" ">
<path fill="none" stroke="#63b8ff" d="M1329.8,-70.41C1538.28,-66.04 2293.95,-48.75 2556.21,-21.38"/>
<polygon fill="#63b8ff" stroke="#63b8ff" points="2556.26,-24.79 2565.82,-20.24 2555.51,-17.83 2556.26,-24.79"/>
</a>
</g>
</g>
<!-- Node38&#45;&gt;Node38 -->
<g id="edge38_Node000038_Node000038" class="edge">
<title>Node38&#45;&gt;Node38</title>
<g id="a_edge38_Node000038_Node000038"><a xlink:title=" ">
<path fill="none" stroke="#63b8ff" d="M2628.73,-21.68C2645.67,-25.2 2662.75,-21.84 2662.75,-11.62 2662.75,-3.55 2652.12,0.24 2639.31,-0.24"/>
<polygon fill="#63b8ff" stroke="#63b8ff" points="2639.22,3.15 2629.73,-1.55 2640.08,-3.8 2639.22,3.15"/>
</a>
</g>
</g>
</g>
</svg>

<g id="navigator" transform="translate(0 0)" fill="#404254">
  <rect fill="#f2f5e9" fill-opacity="0.5" stroke="#606060" stroke-width=".5" x="0" y="0" width="60" height="60"/>
  <use id="zoomplus" xlink:href="#zoomPlus" x="17" y="9" onmousedown="handleZoom(evt,'in')"/>
  <use id="zoomminus" xlink:href="#zoomMin" x="42" y="9" onmousedown="handleZoom(evt,'out')"/>
  <use id="reset" xlink:href="#resetDef" x="30" y="36" onmousedown="handleReset()"/>
   <use id="arrowup" xlink:href="#arrowUp" x="0" y="0" onmousedown="handlePan(0,-1)"/>
  <use id="arrowright" xlink:href="#arrowRight" x="0" y="0" onmousedown="handlePan(1,0)"/>
  <use id="arrowdown" xlink:href="#arrowDown" x="0" y="0" onmousedown="handlePan(0,1)"/>
  <use id="arrowleft" xlink:href="#arrowLeft" x="0" y="0" onmousedown="handlePan(-1,0)"/>
</g>
<svg viewBox="0 0 15 15" width="100%" height="30px" preserveAspectRatio="xMaxYMin meet">
 <g id="arrow_out" transform="scale(0.3 0.3)">
  <a xlink:href="library-pch_8hpp__incl_org.svg" target="_base">
   <rect id="button" ry="5" rx="5" y="6" x="6" height="38" width="38"
        fill="#f2f5e9" fill-opacity="0.5" stroke="#606060" stroke-width="1.0"/>
   <path id="arrow"
     d="M 11.500037,31.436501 C 11.940474,20.09759 22.043105,11.32322 32.158766,21.979434 L 37.068811,17.246167 C 37.068811,17.246167 37.088388,32 37.088388,32 L 22.160133,31.978069 C 22.160133,31.978069 26.997745,27.140456 26.997745,27.140456 C 18.528582,18.264221 13.291696,25.230495 11.500037,31.436501 z"
     style="fill:#404040;"/>
  </a>
 </g>
</svg>

<style type='text/css'>
<![CDATA[
[data-mouse-over-selected='false'] { opacity: 0.7; }
[data-mouse-over-selected='true']  { opacity: 1.0; }
]]>
</style>
<script type="application/ecmascript"><![CDATA[
document.addEventListener('DOMContentLoaded', (event) => {
  highlightEdges();
  highlightAdjacentNodes();
});
]]></script>
</svg>
