<?xml version="1.0" encoding="UTF-8" standalone="no"?>
<!DOCTYPE svg PUBLIC "-//W3C//DTD SVG 1.1//EN"
 "http://www.w3.org/Graphics/SVG/1.1/DTD/svg11.dtd">
<!-- Generated by graphviz version 9.0.0 (20230911.1827)
 -->
<!-- Title: engine/include/library&#45;pch.hpp Pages: 1 -->
<svg width="2671pt" height="96pt"
 viewBox="0.00 0.00 2670.75 95.68" xmlns="http://www.w3.org/2000/svg" xmlns:xlink="http://www.w3.org/1999/xlink">
<g id="graph0" class="graph" transform="scale(1 1) rotate(0) translate(4 91.68)">
<title>engine/include/library&#45;pch.hpp</title>
<!-- Node1 -->
<g id="Node000001" class="node">
<title>Node1</title>
<g id="a_Node000001"><a xlink:title=" ">
<polygon fill="#999999" stroke="#666666" points="1329.38,-87.68 1222.62,-87.68 1222.62,-57.18 1329.38,-57.18 1329.38,-87.68"/>
<text text-anchor="start" x="1230.62" y="-74.18" font-family="Helvetica,sans-Serif" font-size="10.00">engine/include/library</text>
<text text-anchor="middle" x="1276" y="-62.93" font-family="Helvetica,sans-Serif" font-size="10.00">&#45;pch.hpp</text>
</a>
</g>
</g>
<!-- Node2 -->
<g id="Node000002" class="node">
<title>Node2</title>
<g id="a_Node000002"><a xlink:title=" ">
<polygon fill="#e0e0e0" stroke="#999999" points="70,-21.18 0,-21.18 0,-1.93 70,-1.93 70,-21.18"/>
<text text-anchor="middle" x="35" y="-7.68" font-family="Helvetica,sans-Serif" font-size="10.00">entt/entt.hpp</text>
</a>
</g>
</g>
<!-- Node1&#45;&gt;Node2 -->
<g id="edge1_Node000001_Node000002" class="edge">
<title>Node1&#45;&gt;Node2</title>
<g id="a_edge1_Node000001_Node000002"><a xlink:title=" ">
<path fill="none" stroke="#63b8ff" d="M1222.38,-72.06C1054.97,-73.44 527.05,-73.14 81.64,-21.3"/>
<polygon fill="#63b8ff" stroke="#63b8ff" points="82.31,-17.85 71.97,-20.16 81.49,-24.8 82.31,-17.85"/>
</a>
</g>
</g>
<!-- Node3 -->
<g id="Node000003" class="node">
<title>Node3</title>
<g id="a_Node000003"><a xlink:title=" ">
<polygon fill="#e0e0e0" stroke="#999999" points="143.88,-21.18 88.12,-21.18 88.12,-1.93 143.88,-1.93 143.88,-21.18"/>
<text text-anchor="middle" x="116" y="-7.68" font-family="Helvetica,sans-Serif" font-size="10.00">algorithm</text>
</a>
</g>
</g>
<!-- Node1&#45;&gt;Node3 -->
<g id="edge2_Node000001_Node000003" class="edge">
<title>Node1&#45;&gt;Node3</title>
<g id="a_edge2_Node000001_Node000003"><a xlink:title=" ">
<path fill="none" stroke="#63b8ff" d="M1222.32,-70.38C1031.36,-66.46 384.56,-51.35 155.44,-21.38"/>
<polygon fill="#63b8ff" stroke="#63b8ff" points="156.08,-17.93 145.7,-20.05 155.14,-24.87 156.08,-17.93"/>
</a>
</g>
</g>
<!-- Node4 -->
<g id="Node000004" class="node">
<title>Node4</title>
<g id="a_Node000004"><a xlink:title=" ">
<polygon fill="#e0e0e0" stroke="#999999" points="198.5,-21.18 161.5,-21.18 161.5,-1.93 198.5,-1.93 198.5,-21.18"/>
<text text-anchor="middle" x="180" y="-7.68" font-family="Helvetica,sans-Serif" font-size="10.00">array</text>
</a>
</g>
</g>
<!-- Node1&#45;&gt;Node4 -->
<g id="edge3_Node000001_Node000004" class="edge">
<title>Node1&#45;&gt;Node4</title>
<g id="a_edge3_Node000001_Node000004"><a xlink:title=" ">
<path fill="none" stroke="#63b8ff" d="M1222.36,-70.69C1037.68,-67.86 428.12,-56.21 210.14,-20.97"/>
<polygon fill="#63b8ff" stroke="#63b8ff" points="210.76,-17.52 200.31,-19.31 209.59,-24.43 210.76,-17.52"/>
</a>
</g>
</g>
<!-- Node5 -->
<g id="Node000005" class="node">
<title>Node5</title>
<g id="a_Node000005"><a xlink:title=" ">
<polygon fill="#e0e0e0" stroke="#999999" points="267.25,-21.18 216.75,-21.18 216.75,-1.93 267.25,-1.93 267.25,-21.18"/>
<text text-anchor="middle" x="242" y="-7.68" font-family="Helvetica,sans-Serif" font-size="10.00">assert.h</text>
</a>
</g>
</g>
<!-- Node1&#45;&gt;Node5 -->
<g id="edge4_Node000001_Node000005" class="edge">
<title>Node1&#45;&gt;Node5</title>
<g id="a_edge4_Node000001_Node000005"><a xlink:title=" ">
<path fill="none" stroke="#63b8ff" d="M1222.43,-70.14C1045.89,-65.67 482.55,-49.64 278.68,-21.22"/>
<polygon fill="#63b8ff" stroke="#63b8ff" points="279.41,-17.79 269.01,-19.82 278.4,-24.72 279.41,-17.79"/>
</a>
</g>
</g>
<!-- Node6 -->
<g id="Node000006" class="node">
<title>Node6</title>
<g id="a_Node000006"><a xlink:title=" ">
<polygon fill="#e0e0e0" stroke="#999999" points="330.62,-21.18 285.38,-21.18 285.38,-1.93 330.62,-1.93 330.62,-21.18"/>
<text text-anchor="middle" x="308" y="-7.68" font-family="Helvetica,sans-Serif" font-size="10.00">chrono</text>
</a>
</g>
</g>
<!-- Node1&#45;&gt;Node6 -->
<g id="edge5_Node000001_Node000006" class="edge">
<title>Node1&#45;&gt;Node6</title>
<g id="a_edge5_Node000001_Node000006"><a xlink:title=" ">
<path fill="none" stroke="#63b8ff" d="M1222.2,-70.08C1053.04,-65.62 532.34,-50 342.14,-21.3"/>
<polygon fill="#63b8ff" stroke="#63b8ff" points="342.82,-17.86 332.39,-19.76 341.72,-24.78 342.82,-17.86"/>
</a>
</g>
</g>
<!-- Node7 -->
<g id="Node000007" class="node">
<title>Node7</title>
<g id="a_Node000007"><a xlink:title=" ">
<polygon fill="#e0e0e0" stroke="#999999" points="391.5,-21.18 348.5,-21.18 348.5,-1.93 391.5,-1.93 391.5,-21.18"/>
<text text-anchor="middle" x="370" y="-7.68" font-family="Helvetica,sans-Serif" font-size="10.00">cmath</text>
</a>
</g>
</g>
<!-- Node1&#45;&gt;Node7 -->
<g id="edge6_Node000001_Node000007" class="edge">
<title>Node1&#45;&gt;Node7</title>
<g id="a_edge6_Node000001_Node000007"><a xlink:title=" ">
<path fill="none" stroke="#63b8ff" d="M1222.25,-69.91C1060.77,-65.12 580.7,-49.04 403.08,-21.28"/>
<polygon fill="#63b8ff" stroke="#63b8ff" points="403.75,-17.84 393.32,-19.68 402.62,-24.75 403.75,-17.84"/>
</a>
</g>
</g>
<!-- Node8 -->
<g id="Node000008" class="node">
<title>Node8</title>
<g id="a_Node000008"><a xlink:title=" ">
<polygon fill="#e0e0e0" stroke="#999999" points="464.88,-21.18 409.12,-21.18 409.12,-1.93 464.88,-1.93 464.88,-21.18"/>
<text text-anchor="middle" x="437" y="-7.68" font-family="Helvetica,sans-Serif" font-size="10.00">concepts</text>
</a>
</g>
</g>
<!-- Node1&#45;&gt;Node8 -->
<g id="edge7_Node000001_Node000008" class="edge">
<title>Node1&#45;&gt;Node8</title>
<g id="a_edge7_Node000001_Node000008"><a xlink:title=" ">
<path fill="none" stroke="#63b8ff" d="M1222.18,-71.14C1094.29,-69.79 762.09,-62.41 476.19,-21.24"/>
<polygon fill="#63b8ff" stroke="#63b8ff" points="477.09,-17.83 466.69,-19.85 476.08,-24.76 477.09,-17.83"/>
</a>
</g>
</g>
<!-- Node9 -->
<g id="Node000009" class="node">
<title>Node9</title>
<g id="a_Node000009"><a xlink:title=" ">
<polygon fill="#e0e0e0" stroke="#999999" points="577,-21.18 483,-21.18 483,-1.93 577,-1.93 577,-21.18"/>
<text text-anchor="middle" x="530" y="-7.68" font-family="Helvetica,sans-Serif" font-size="10.00">condition_variable</text>
</a>
</g>
</g>
<!-- Node1&#45;&gt;Node9 -->
<g id="edge8_Node000001_Node000009" class="edge">
<title>Node1&#45;&gt;Node9</title>
<g id="a_edge8_Node000001_Node000009"><a xlink:title=" ">
<path fill="none" stroke="#63b8ff" d="M1222.18,-68.98C1107.6,-63.45 830.85,-48.4 588.47,-21.37"/>
<polygon fill="#63b8ff" stroke="#63b8ff" points="589.15,-17.92 578.82,-20.28 588.37,-24.88 589.15,-17.92"/>
</a>
</g>
</g>
<!-- Node10 -->
<g id="Node000010" class="node">
<title>Node10</title>
<g id="a_Node000010"><a xlink:title=" ">
<polygon fill="#e0e0e0" stroke="#999999" points="640.62,-21.18 595.38,-21.18 595.38,-1.93 640.62,-1.93 640.62,-21.18"/>
<text text-anchor="middle" x="618" y="-7.68" font-family="Helvetica,sans-Serif" font-size="10.00">cstdint</text>
</a>
</g>
</g>
<!-- Node1&#45;&gt;Node10 -->
<g id="edge9_Node000001_Node000010" class="edge">
<title>Node1&#45;&gt;Node10</title>
<g id="a_edge9_Node000001_Node000010"><a xlink:title=" ">
<path fill="none" stroke="#63b8ff" d="M1222.41,-70.42C1115.55,-67.72 868.39,-57.89 652.21,-21.22"/>
<polygon fill="#63b8ff" stroke="#63b8ff" points="652.9,-17.79 642.45,-19.54 651.71,-24.68 652.9,-17.79"/>
</a>
</g>
</g>
<!-- Node11 -->
<g id="Node000011" class="node">
<title>Node11</title>
<g id="a_Node000011"><a xlink:title=" ">
<polygon fill="#e0e0e0" stroke="#999999" points="703.25,-21.18 658.75,-21.18 658.75,-1.93 703.25,-1.93 703.25,-21.18"/>
<text text-anchor="middle" x="681" y="-7.68" font-family="Helvetica,sans-Serif" font-size="10.00">cstdlib</text>
</a>
</g>
</g>
<!-- Node1&#45;&gt;Node11 -->
<g id="edge10_Node000001_Node000011" class="edge">
<title>Node1&#45;&gt;Node11</title>
<g id="a_edge10_Node000001_Node000011"><a xlink:title=" ">
<path fill="none" stroke="#63b8ff" d="M1222.3,-69.9C1123.43,-66.39 905.94,-55.37 714.68,-21.35"/>
<polygon fill="#63b8ff" stroke="#63b8ff" points="715.53,-17.95 705.07,-19.62 714.28,-24.84 715.53,-17.95"/>
</a>
</g>
</g>
<!-- Node12 -->
<g id="Node000012" class="node">
<title>Node12</title>
<g id="a_Node000012"><a xlink:title=" ">
<polygon fill="#e0e0e0" stroke="#999999" points="780.75,-21.18 721.25,-21.18 721.25,-1.93 780.75,-1.93 780.75,-21.18"/>
<text text-anchor="middle" x="751" y="-7.68" font-family="Helvetica,sans-Serif" font-size="10.00">filesystem</text>
</a>
</g>
</g>
<!-- Node1&#45;&gt;Node12 -->
<g id="edge11_Node000001_Node000012" class="edge">
<title>Node1&#45;&gt;Node12</title>
<g id="a_edge11_Node000001_Node000012"><a xlink:title=" ">
<path fill="none" stroke="#63b8ff" d="M1222.39,-68.02C1134.42,-61.95 953.77,-47.57 792.32,-21.57"/>
<polygon fill="#63b8ff" stroke="#63b8ff" points="793.15,-18.16 782.71,-20 792.02,-25.06 793.15,-18.16"/>
</a>
</g>
</g>
<!-- Node13 -->
<g id="Node000013" class="node">
<title>Node13</title>
<g id="a_Node000013"><a xlink:title=" ">
<polygon fill="#e0e0e0" stroke="#999999" points="847.5,-21.18 798.5,-21.18 798.5,-1.93 847.5,-1.93 847.5,-21.18"/>
<text text-anchor="middle" x="823" y="-7.68" font-family="Helvetica,sans-Serif" font-size="10.00">fstream</text>
</a>
</g>
</g>
<!-- Node1&#45;&gt;Node13 -->
<g id="edge12_Node000001_Node000013" class="edge">
<title>Node1&#45;&gt;Node13</title>
<g id="a_edge12_Node000001_Node000013"><a xlink:title=" ">
<path fill="none" stroke="#63b8ff" d="M1222.42,-67.23C1144.53,-60.64 995.33,-46.18 858.86,-21.28"/>
<polygon fill="#63b8ff" stroke="#63b8ff" points="859.76,-17.89 849.29,-19.51 858.49,-24.77 859.76,-17.89"/>
</a>
</g>
</g>
<!-- Node14 -->
<g id="Node000014" class="node">
<title>Node14</title>
<g id="a_Node000014"><a xlink:title=" ">
<polygon fill="#e0e0e0" stroke="#999999" points="924,-21.18 866,-21.18 866,-1.93 924,-1.93 924,-21.18"/>
<text text-anchor="middle" x="895" y="-7.68" font-family="Helvetica,sans-Serif" font-size="10.00">functional</text>
</a>
</g>
</g>
<!-- Node1&#45;&gt;Node14 -->
<g id="edge13_Node000001_Node000014" class="edge">
<title>Node1&#45;&gt;Node14</title>
<g id="a_edge13_Node000001_Node000014"><a xlink:title=" ">
<path fill="none" stroke="#63b8ff" d="M1222.32,-64.88C1156.87,-56.6 1042.66,-41.22 935.43,-21.51"/>
<polygon fill="#63b8ff" stroke="#63b8ff" points="936.37,-18.12 925.9,-19.74 935.09,-25.01 936.37,-18.12"/>
</a>
</g>
</g>
<!-- Node15 -->
<g id="Node000015" class="node">
<title>Node15</title>
<g id="a_Node000015"><a xlink:title=" ">
<polygon fill="#e0e0e0" stroke="#999999" points="991.88,-21.18 942.12,-21.18 942.12,-1.93 991.88,-1.93 991.88,-21.18"/>
<text text-anchor="middle" x="967" y="-7.68" font-family="Helvetica,sans-Serif" font-size="10.00">iomanip</text>
</a>
</g>
</g>
<!-- Node1&#45;&gt;Node15 -->
<g id="edge14_Node000001_Node000015" class="edge">
<title>Node1&#45;&gt;Node15</title>
<g id="a_edge14_Node000001_Node000015"><a xlink:title=" ">
<path fill="none" stroke="#63b8ff" d="M1222.3,-62.72C1169.1,-53.85 1085.07,-39.17 1003.22,-21.54"/>
<polygon fill="#63b8ff" stroke="#63b8ff" points="1004.2,-18.17 993.69,-19.47 1002.71,-25.01 1004.2,-18.17"/>
</a>
</g>
</g>
<!-- Node16 -->
<g id="Node000016" class="node">
<title>Node16</title>
<g id="a_Node000016"><a xlink:title=" ">
<polygon fill="#e0e0e0" stroke="#999999" points="1058.12,-21.18 1009.88,-21.18 1009.88,-1.93 1058.12,-1.93 1058.12,-21.18"/>
<text text-anchor="middle" x="1034" y="-7.68" font-family="Helvetica,sans-Serif" font-size="10.00">istream</text>
</a>
</g>
</g>
<!-- Node1&#45;&gt;Node16 -->
<g id="edge15_Node000001_Node000016" class="edge">
<title>Node1&#45;&gt;Node16</title>
<g id="a_edge15_Node000001_Node000016"><a xlink:title=" ">
<path fill="none" stroke="#63b8ff" d="M1222.23,-58.81C1182.54,-49.42 1126.9,-36.12 1069.59,-21.79"/>
<polygon fill="#63b8ff" stroke="#63b8ff" points="1070.51,-18.42 1059.96,-19.38 1068.81,-25.21 1070.51,-18.42"/>
</a>
</g>
</g>
<!-- Node17 -->
<g id="Node000017" class="node">
<title>Node17</title>
<g id="a_Node000017"><a xlink:title=" ">
<polygon fill="#e0e0e0" stroke="#999999" points="1115.62,-21.18 1076.38,-21.18 1076.38,-1.93 1115.62,-1.93 1115.62,-21.18"/>
<text text-anchor="middle" x="1096" y="-7.68" font-family="Helvetica,sans-Serif" font-size="10.00">limits</text>
</a>
</g>
</g>
<!-- Node1&#45;&gt;Node17 -->
<g id="edge16_Node000001_Node000017" class="edge">
<title>Node1&#45;&gt;Node17</title>
<g id="a_edge16_Node000001_Node000017"><a xlink:title=" ">
<path fill="none" stroke="#63b8ff" d="M1231.04,-56.72C1198.5,-46.08 1155.37,-31.97 1126.71,-22.6"/>
<polygon fill="#63b8ff" stroke="#63b8ff" points="1128.14,-19.38 1117.55,-19.6 1125.97,-26.04 1128.14,-19.38"/>
</a>
</g>
</g>
<!-- Node18 -->
<g id="Node000018" class="node">
<title>Node18</title>
<g id="a_Node000018"><a xlink:title=" ">
<polygon fill="#e0e0e0" stroke="#999999" points="1168.38,-21.18 1133.62,-21.18 1133.62,-1.93 1168.38,-1.93 1168.38,-21.18"/>
<text text-anchor="middle" x="1151" y="-7.68" font-family="Helvetica,sans-Serif" font-size="10.00">map</text>
</a>
</g>
</g>
<!-- Node1&#45;&gt;Node18 -->
<g id="edge17_Node000001_Node000018" class="edge">
<title>Node1&#45;&gt;Node18</title>
<g id="a_edge17_Node000001_Node000018"><a xlink:title=" ">
<path fill="none" stroke="#63b8ff" d="M1244.78,-56.72C1224.62,-47.23 1198.6,-34.97 1179.09,-25.78"/>
<polygon fill="#63b8ff" stroke="#63b8ff" points="1180.63,-22.64 1170.09,-21.54 1177.65,-28.97 1180.63,-22.64"/>
</a>
</g>
</g>
<!-- Node19 -->
<g id="Node000019" class="node">
<title>Node19</title>
<g id="a_Node000019"><a xlink:title=" ">
<polygon fill="#e0e0e0" stroke="#999999" points="1237.25,-21.18 1186.75,-21.18 1186.75,-1.93 1237.25,-1.93 1237.25,-21.18"/>
<text text-anchor="middle" x="1212" y="-7.68" font-family="Helvetica,sans-Serif" font-size="10.00">memory</text>
</a>
</g>
</g>
<!-- Node1&#45;&gt;Node19 -->
<g id="edge18_Node000001_Node000019" class="edge">
<title>Node1&#45;&gt;Node19</title>
<g id="a_edge18_Node000001_Node000019"><a xlink:title=" ">
<path fill="none" stroke="#63b8ff" d="M1260.18,-56.87C1251.09,-48.51 1239.64,-37.98 1230.18,-29.28"/>
<polygon fill="#63b8ff" stroke="#63b8ff" points="1232.71,-26.85 1222.98,-22.65 1227.97,-32 1232.71,-26.85"/>
</a>
</g>
</g>
<!-- Node20 -->
<g id="Node000020" class="node">
<title>Node20</title>
<g id="a_Node000020"><a xlink:title=" ">
<polygon fill="#e0e0e0" stroke="#999999" points="1297.12,-21.18 1254.88,-21.18 1254.88,-1.93 1297.12,-1.93 1297.12,-21.18"/>
<text text-anchor="middle" x="1276" y="-7.68" font-family="Helvetica,sans-Serif" font-size="10.00">mutex</text>
</a>
</g>
</g>
<!-- Node1&#45;&gt;Node20 -->
<g id="edge19_Node000001_Node000020" class="edge">
<title>Node1&#45;&gt;Node20</title>
<g id="a_edge19_Node000001_Node000020"><a xlink:title=" ">
<path fill="none" stroke="#63b8ff" d="M1276,-56.87C1276,-49.63 1276,-40.76 1276,-32.86"/>
<polygon fill="#63b8ff" stroke="#63b8ff" points="1279.5,-33.14 1276,-23.14 1272.5,-33.14 1279.5,-33.14"/>
</a>
</g>
</g>
<!-- Node21 -->
<g id="Node000021" class="node">
<title>Node21</title>
<g id="a_Node000021"><a xlink:title=" ">
<polygon fill="#e0e0e0" stroke="#999999" points="1368.75,-21.18 1315.25,-21.18 1315.25,-1.93 1368.75,-1.93 1368.75,-21.18"/>
<text text-anchor="middle" x="1342" y="-7.68" font-family="Helvetica,sans-Serif" font-size="10.00">numbers</text>
</a>
</g>
</g>
<!-- Node1&#45;&gt;Node21 -->
<g id="edge20_Node000001_Node000021" class="edge">
<title>Node1&#45;&gt;Node21</title>
<g id="a_edge20_Node000001_Node000021"><a xlink:title=" ">
<path fill="none" stroke="#63b8ff" d="M1292.31,-56.87C1301.69,-48.51 1313.5,-37.98 1323.25,-29.28"/>
<polygon fill="#63b8ff" stroke="#63b8ff" points="1325.56,-31.9 1330.7,-22.64 1320.9,-26.68 1325.56,-31.9"/>
</a>
</g>
</g>
<!-- Node22 -->
<g id="Node000022" class="node">
<title>Node22</title>
<g id="a_Node000022"><a xlink:title=" ">
<polygon fill="#e0e0e0" stroke="#999999" points="1437.25,-21.18 1386.75,-21.18 1386.75,-1.93 1437.25,-1.93 1437.25,-21.18"/>
<text text-anchor="middle" x="1412" y="-7.68" font-family="Helvetica,sans-Serif" font-size="10.00">numeric</text>
</a>
</g>
</g>
<!-- Node1&#45;&gt;Node22 -->
<g id="edge21_Node000001_Node000022" class="edge">
<title>Node1&#45;&gt;Node22</title>
<g id="a_edge21_Node000001_Node000022"><a xlink:title=" ">
<path fill="none" stroke="#63b8ff" d="M1309.97,-56.72C1331.67,-47.32 1359.62,-35.23 1380.77,-26.07"/>
<polygon fill="#63b8ff" stroke="#63b8ff" points="1381.97,-29.37 1389.75,-22.18 1379.19,-22.94 1381.97,-29.37"/>
</a>
</g>
</g>
<!-- Node23 -->
<g id="Node000023" class="node">
<title>Node23</title>
<g id="a_Node000023"><a xlink:title=" ">
<polygon fill="#e0e0e0" stroke="#999999" points="1504.88,-21.18 1455.12,-21.18 1455.12,-1.93 1504.88,-1.93 1504.88,-21.18"/>
<text text-anchor="middle" x="1480" y="-7.68" font-family="Helvetica,sans-Serif" font-size="10.00">optional</text>
</a>
</g>
</g>
<!-- Node1&#45;&gt;Node23 -->
<g id="edge22_Node000001_Node000023" class="edge">
<title>Node1&#45;&gt;Node23</title>
<g id="a_edge22_Node000001_Node000023"><a xlink:title=" ">
<path fill="none" stroke="#63b8ff" d="M1326.95,-56.72C1363.37,-46.21 1411.49,-32.32 1443.98,-22.95"/>
<polygon fill="#63b8ff" stroke="#63b8ff" points="1444.68,-26.39 1453.31,-20.25 1442.74,-19.66 1444.68,-26.39"/>
</a>
</g>
</g>
<!-- Node24 -->
<g id="Node000024" class="node">
<title>Node24</title>
<g id="a_Node000024"><a xlink:title=" ">
<polygon fill="#e0e0e0" stroke="#999999" points="1574.62,-21.18 1523.38,-21.18 1523.38,-1.93 1574.62,-1.93 1574.62,-21.18"/>
<text text-anchor="middle" x="1549" y="-7.68" font-family="Helvetica,sans-Serif" font-size="10.00">ostream</text>
</a>
</g>
</g>
<!-- Node1&#45;&gt;Node24 -->
<g id="edge23_Node000001_Node000024" class="edge">
<title>Node1&#45;&gt;Node24</title>
<g id="a_edge23_Node000001_Node000024"><a xlink:title=" ">
<path fill="none" stroke="#63b8ff" d="M1329.52,-60.66C1375.38,-51.32 1443.46,-37.16 1512.02,-21.57"/>
<polygon fill="#63b8ff" stroke="#63b8ff" points="1512.58,-25.03 1521.55,-19.39 1511.03,-18.21 1512.58,-25.03"/>
</a>
</g>
</g>
<!-- Node25 -->
<g id="Node000025" class="node">
<title>Node25</title>
<g id="a_Node000025"><a xlink:title=" ">
<polygon fill="#e0e0e0" stroke="#999999" points="1669.38,-21.18 1592.62,-21.18 1592.62,-1.93 1669.38,-1.93 1669.38,-21.18"/>
<text text-anchor="middle" x="1631" y="-7.68" font-family="Helvetica,sans-Serif" font-size="10.00">shared_mutex</text>
</a>
</g>
</g>
<!-- Node1&#45;&gt;Node25 -->
<g id="edge24_Node000001_Node000025" class="edge">
<title>Node1&#45;&gt;Node25</title>
<g id="a_edge24_Node000001_Node000025"><a xlink:title=" ">
<path fill="none" stroke="#63b8ff" d="M1329.75,-62.99C1388.91,-53.62 1487.14,-37.86 1581.14,-21.65"/>
<polygon fill="#63b8ff" stroke="#63b8ff" points="1581.53,-25.13 1590.79,-19.98 1580.34,-18.23 1581.53,-25.13"/>
</a>
</g>
</g>
<!-- Node26 -->
<g id="Node000026" class="node">
<title>Node26</title>
<g id="a_Node000026"><a xlink:title=" ">
<polygon fill="#e0e0e0" stroke="#999999" points="1724.5,-21.18 1687.5,-21.18 1687.5,-1.93 1724.5,-1.93 1724.5,-21.18"/>
<text text-anchor="middle" x="1706" y="-7.68" font-family="Helvetica,sans-Serif" font-size="10.00">span</text>
</a>
</g>
</g>
<!-- Node1&#45;&gt;Node26 -->
<g id="edge25_Node000001_Node000026" class="edge">
<title>Node1&#45;&gt;Node26</title>
<g id="a_edge25_Node000001_Node000026"><a xlink:title=" ">
<path fill="none" stroke="#63b8ff" d="M1329.82,-67.7C1405.29,-61.82 1546.89,-48.38 1676.26,-21.18"/>
<polygon fill="#63b8ff" stroke="#63b8ff" points="1676.61,-24.68 1685.66,-19.17 1675.15,-17.84 1676.61,-24.68"/>
</a>
</g>
</g>
<!-- Node27 -->
<g id="Node000027" class="node">
<title>Node27</title>
<g id="a_Node000027"><a xlink:title=" ">
<polygon fill="#e0e0e0" stroke="#999999" points="1793.62,-21.18 1742.38,-21.18 1742.38,-1.93 1793.62,-1.93 1793.62,-21.18"/>
<text text-anchor="middle" x="1768" y="-7.68" font-family="Helvetica,sans-Serif" font-size="10.00">sstream</text>
</a>
</g>
</g>
<!-- Node1&#45;&gt;Node27 -->
<g id="edge26_Node000001_Node000027" class="edge">
<title>Node1&#45;&gt;Node27</title>
<g id="a_edge26_Node000001_Node000027"><a xlink:title=" ">
<path fill="none" stroke="#63b8ff" d="M1329.59,-67.98C1413.36,-62.05 1580.55,-48.1 1730.84,-21.54"/>
<polygon fill="#63b8ff" stroke="#63b8ff" points="1731.38,-25 1740.6,-19.79 1730.14,-18.11 1731.38,-25"/>
</a>
</g>
</g>
<!-- Node28 -->
<g id="Node000028" class="node">
<title>Node28</title>
<g id="a_Node000028"><a xlink:title=" ">
<polygon fill="#e0e0e0" stroke="#999999" points="1870,-21.18 1812,-21.18 1812,-1.93 1870,-1.93 1870,-21.18"/>
<text text-anchor="middle" x="1841" y="-7.68" font-family="Helvetica,sans-Serif" font-size="10.00">stdexcept</text>
</a>
</g>
</g>
<!-- Node1&#45;&gt;Node28 -->
<g id="edge27_Node000001_Node000028" class="edge">
<title>Node1&#45;&gt;Node28</title>
<g id="a_edge27_Node000001_Node000028"><a xlink:title=" ">
<path fill="none" stroke="#63b8ff" d="M1329.77,-68.58C1423.47,-63.13 1622.87,-49.32 1800.49,-21.39"/>
<polygon fill="#63b8ff" stroke="#63b8ff" points="1800.79,-24.88 1810.12,-19.85 1799.69,-17.97 1800.79,-24.88"/>
</a>
</g>
</g>
<!-- Node29 -->
<g id="Node000029" class="node">
<title>Node29</title>
<g id="a_Node000029"><a xlink:title=" ">
<polygon fill="#e0e0e0" stroke="#999999" points="1935.75,-21.18 1888.25,-21.18 1888.25,-1.93 1935.75,-1.93 1935.75,-21.18"/>
<text text-anchor="middle" x="1912" y="-7.68" font-family="Helvetica,sans-Serif" font-size="10.00">stdint.h</text>
</a>
</g>
</g>
<!-- Node1&#45;&gt;Node29 -->
<g id="edge28_Node000001_Node000029" class="edge">
<title>Node1&#45;&gt;Node29</title>
<g id="a_edge28_Node000001_Node000029"><a xlink:title=" ">
<path fill="none" stroke="#63b8ff" d="M1329.63,-70.06C1433.55,-66.74 1669.63,-55.92 1876.86,-21.23"/>
<polygon fill="#63b8ff" stroke="#63b8ff" points="1877.19,-24.73 1886.46,-19.6 1876.02,-17.83 1877.19,-24.73"/>
</a>
</g>
</g>
<!-- Node30 -->
<g id="Node000030" class="node">
<title>Node30</title>
<g id="a_Node000030"><a xlink:title=" ">
<polygon fill="#e0e0e0" stroke="#999999" points="1994,-21.18 1954,-21.18 1954,-1.93 1994,-1.93 1994,-21.18"/>
<text text-anchor="middle" x="1974" y="-7.68" font-family="Helvetica,sans-Serif" font-size="10.00">string</text>
</a>
</g>
</g>
<!-- Node1&#45;&gt;Node30 -->
<g id="edge29_Node000001_Node000030" class="edge">
<title>Node1&#45;&gt;Node30</title>
<g id="a_edge29_Node000001_Node000030"><a xlink:title=" ">
<path fill="none" stroke="#63b8ff" d="M1329.83,-71.27C1442.33,-70.12 1710.5,-62.99 1942.52,-21.24"/>
<polygon fill="#63b8ff" stroke="#63b8ff" points="1942.84,-24.74 1952.05,-19.5 1941.58,-17.86 1942.84,-24.74"/>
</a>
</g>
</g>
<!-- Node31 -->
<g id="Node000031" class="node">
<title>Node31</title>
<g id="a_Node000031"><a xlink:title=" ">
<polygon fill="#e0e0e0" stroke="#999999" points="2055.5,-21.18 2012.5,-21.18 2012.5,-1.93 2055.5,-1.93 2055.5,-21.18"/>
<text text-anchor="middle" x="2034" y="-7.68" font-family="Helvetica,sans-Serif" font-size="10.00">thread</text>
</a>
</g>
</g>
<!-- Node1&#45;&gt;Node31 -->
<g id="edge30_Node000001_Node000031" class="edge">
<title>Node1&#45;&gt;Node31</title>
<g id="a_edge30_Node000001_Node000031"><a xlink:title=" ">
<path fill="none" stroke="#63b8ff" d="M1329.8,-71.41C1449.22,-70.59 1745.39,-64.16 2001.12,-21.11"/>
<polygon fill="#63b8ff" stroke="#63b8ff" points="2001.35,-24.62 2010.62,-19.49 2000.17,-17.72 2001.35,-24.62"/>
</a>
</g>
</g>
<!-- Node32 -->
<g id="Node000032" class="node">
<title>Node32</title>
<g id="a_Node000032"><a xlink:title=" ">
<polygon fill="#e0e0e0" stroke="#999999" points="2134.5,-21.18 2073.5,-21.18 2073.5,-1.93 2134.5,-1.93 2134.5,-21.18"/>
<text text-anchor="middle" x="2104" y="-7.68" font-family="Helvetica,sans-Serif" font-size="10.00">type_traits</text>
</a>
</g>
</g>
<!-- Node1&#45;&gt;Node32 -->
<g id="edge31_Node000001_Node000032" class="edge">
<title>Node1&#45;&gt;Node32</title>
<g id="a_edge31_Node000001_Node000032"><a xlink:title=" ">
<path fill="none" stroke="#63b8ff" d="M1329.86,-70.85C1456.25,-68.88 1781.75,-60.27 2062.21,-21.36"/>
<polygon fill="#63b8ff" stroke="#63b8ff" points="2062.51,-24.85 2071.93,-19.99 2061.54,-17.92 2062.51,-24.85"/>
</a>
</g>
</g>
<!-- Node33 -->
<g id="Node000033" class="node">
<title>Node33</title>
<g id="a_Node000033"><a xlink:title=" ">
<polygon fill="#e0e0e0" stroke="#999999" points="2229.75,-21.18 2152.25,-21.18 2152.25,-1.93 2229.75,-1.93 2229.75,-21.18"/>
<text text-anchor="middle" x="2191" y="-7.68" font-family="Helvetica,sans-Serif" font-size="10.00">unordered_set</text>
</a>
</g>
</g>
<!-- Node1&#45;&gt;Node33 -->
<g id="edge32_Node000001_Node000033" class="edge">
<title>Node1&#45;&gt;Node33</title>
<g id="a_edge32_Node000001_Node000033"><a xlink:title=" ">
<path fill="none" stroke="#63b8ff" d="M1329.79,-70.62C1464.74,-68.11 1828.67,-58.28 2140.74,-21.44"/>
<polygon fill="#63b8ff" stroke="#63b8ff" points="2140.8,-24.96 2150.32,-20.3 2139.97,-18.01 2140.8,-24.96"/>
</a>
</g>
</g>
<!-- Node34 -->
<g id="Node000034" class="node">
<title>Node34</title>
<g id="a_Node000034"><a xlink:title=" ">
<polygon fill="#e0e0e0" stroke="#999999" points="2292.62,-21.18 2247.38,-21.18 2247.38,-1.93 2292.62,-1.93 2292.62,-21.18"/>
<text text-anchor="middle" x="2270" y="-7.68" font-family="Helvetica,sans-Serif" font-size="10.00">variant</text>
</a>
</g>
</g>
<!-- Node1&#45;&gt;Node34 -->
<g id="edge33_Node000001_Node000034" class="edge">
<title>Node1&#45;&gt;Node34</title>
<g id="a_edge33_Node000001_Node000034"><a xlink:title=" ">
<path fill="none" stroke="#63b8ff" d="M1329.75,-70.17C1502.03,-65.92 2040.2,-50.7 2235.83,-21.3"/>
<polygon fill="#63b8ff" stroke="#63b8ff" points="2236.27,-24.77 2245.61,-19.76 2235.18,-17.86 2236.27,-24.77"/>
</a>
</g>
</g>
<!-- Node35 -->
<g id="Node000035" class="node">
<title>Node35</title>
<g id="a_Node000035"><a xlink:title=" ">
<polygon fill="#e0e0e0" stroke="#999999" points="2353.5,-21.18 2310.5,-21.18 2310.5,-1.93 2353.5,-1.93 2353.5,-21.18"/>
<text text-anchor="middle" x="2332" y="-7.68" font-family="Helvetica,sans-Serif" font-size="10.00">vector</text>
</a>
</g>
</g>
<!-- Node1&#45;&gt;Node35 -->
<g id="edge34_Node000001_Node000035" class="edge">
<title>Node1&#45;&gt;Node35</title>
<g id="a_edge34_Node000001_Node000035"><a xlink:title=" ">
<path fill="none" stroke="#63b8ff" d="M1329.72,-70.43C1509.58,-66.85 2090.59,-53.19 2299.06,-21.24"/>
<polygon fill="#63b8ff" stroke="#63b8ff" points="2299.36,-24.73 2308.68,-19.7 2298.26,-17.82 2299.36,-24.73"/>
</a>
</g>
</g>
<!-- Node36 -->
<g id="Node000036" class="node">
<title>Node36</title>
<g id="a_Node000036"><a xlink:title=" ">
<polygon fill="#e0e0e0" stroke="#999999" points="2420.12,-21.18 2371.88,-21.18 2371.88,-1.93 2420.12,-1.93 2420.12,-21.18"/>
<text text-anchor="middle" x="2396" y="-7.68" font-family="Helvetica,sans-Serif" font-size="10.00">random</text>
</a>
</g>
</g>
<!-- Node1&#45;&gt;Node36 -->
<g id="edge35_Node000001_Node000036" class="edge">
<title>Node1&#45;&gt;Node36</title>
<g id="a_edge35_Node000001_Node000036"><a xlink:title=" ">
<path fill="none" stroke="#63b8ff" d="M1329.56,-70.44C1516.24,-66.75 2138.47,-52.51 2360.4,-21.18"/>
<polygon fill="#63b8ff" stroke="#63b8ff" points="2360.73,-24.67 2370.11,-19.75 2359.71,-17.75 2360.73,-24.67"/>
</a>
</g>
</g>
<!-- Node37 -->
<g id="Node000037" class="node">
<title>Node37</title>
<g id="a_Node000037"><a xlink:href="../../de/d43/common-typedefs_8hpp.html" target="_top" xlink:title=" ">
<polygon fill="white" stroke="#666666" points="2549.62,-21.18 2438.38,-21.18 2438.38,-1.93 2549.62,-1.93 2549.62,-21.18"/>
<text text-anchor="middle" x="2494" y="-7.68" font-family="Helvetica,sans-Serif" font-size="10.00">common&#45;typedefs.hpp</text>
</a>
</g>
</g>
<!-- Node1&#45;&gt;Node37 -->
<g id="edge36_Node000001_Node000037" class="edge">
<title>Node1&#45;&gt;Node37</title>
<g id="a_edge36_Node000001_Node000037"><a xlink:title=" ">
<path fill="none" stroke="#63b8ff" d="M1329.85,-70.77C1493.2,-68.42 1997.64,-58.51 2426.62,-21.3"/>
<polygon fill="#63b8ff" stroke="#63b8ff" points="2426.85,-24.79 2436.51,-20.43 2426.24,-17.82 2426.85,-24.79"/>
</a>
</g>
</g>
<!-- Node38 -->
<g id="Node000038" class="node">
<title>Node38</title>
<g id="a_Node000038"><a xlink:href="../../d4/d78/math_8hpp.html" target="_top" xlink:title=" ">
<polygon fill="white" stroke="#666666" points="2644.75,-21.18 2567.25,-21.18 2567.25,-1.93 2644.75,-1.93 2644.75,-21.18"/>
<text text-anchor="middle" x="2606" y="-7.68" font-family="Helvetica,sans-Serif" font-size="10.00">core/math.hpp</text>
</a>
</g>
</g>
<!-- Node1&#45;&gt;Node38 -->
<g id="edge37_Node000001_Node000038" class="edge">
<title>Node1&#45;&gt;Node38</title>
<g id="a_edge37_Node000001_Node000038"><a xlink:title=" ">
<path fill="none" stroke="#63b8ff" d="M1329.8,-70.34C1538.07,-65.99 2292.46,-48.72 2555.43,-21.4"/>
<polygon fill="#63b8ff" stroke="#63b8ff" points="2555.75,-24.88 2565.32,-20.33 2555,-17.92 2555.75,-24.88"/>
</a>
</g>
</g>
<!-- Node38&#45;&gt;Node38 -->
<g id="edge38_Node000038_Node000038" class="edge">
<title>Node38&#45;&gt;Node38</title>
<g id="a_edge38_Node000038_Node000038"><a xlink:title=" ">
<path fill="none" stroke="#63b8ff" d="M2628.73,-21.62C2645.67,-25.13 2662.75,-21.78 2662.75,-11.55 2662.75,-3.64 2652.53,0.16 2640.06,-0.16"/>
<polygon fill="#63b8ff" stroke="#63b8ff" points="2639.75,3.33 2630.23,-1.31 2640.57,-3.62 2639.75,3.33"/>
</a>
</g>
</g>
</g>
</svg>
