<?xml version="1.0" encoding="UTF-8" standalone="no"?>
<!DOCTYPE svg PUBLIC "-//W3C//DTD SVG 1.1//EN"
 "http://www.w3.org/Graphics/SVG/1.1/DTD/svg11.dtd">
<!-- Generated by graphviz version 9.0.0 (20230911.1827)
 -->
<!-- Title: engine::render::PostProcessingLayer::HandleFrameEnd Pages: 1 -->
<svg width="338pt" height="94pt"
 viewBox="0.00 0.00 337.88 93.75" xmlns="http://www.w3.org/2000/svg" xmlns:xlink="http://www.w3.org/1999/xlink">
<g id="graph0" class="graph" transform="scale(1 1) rotate(0) translate(4 89.75)">
<title>engine::render::PostProcessingLayer::HandleFrameEnd</title>
<!-- Node1 -->
<g id="Node000001" class="node">
<title>Node1</title>
<g id="a_Node000001"><a xlink:title=" ">
<polygon fill="#999999" stroke="#666666" points="236.5,-85.75 87,-85.75 87,-55.25 236.5,-55.25 236.5,-85.75"/>
<text text-anchor="start" x="95" y="-72.25" font-family="Helvetica,sans-Serif" font-size="10.00">engine::render::PostProcessing</text>
<text text-anchor="middle" x="161.75" y="-61" font-family="Helvetica,sans-Serif" font-size="10.00">Layer::HandleFrameEnd</text>
</a>
</g>
</g>
<!-- Node2 -->
<g id="Node000002" class="node">
<title>Node2</title>
<g id="a_Node000002"><a xlink:href="../../df/df1/classengine_1_1render_1_1_post_processing.html" target="_top" xlink:title=" ">
<polygon fill="white" stroke="#666666" points="149.5,-19.25 0,-19.25 0,0 149.5,0 149.5,-19.25"/>
<text text-anchor="middle" x="74.75" y="-5.75" font-family="Helvetica,sans-Serif" font-size="10.00">engine::render::PostProcessing</text>
</a>
</g>
</g>
<!-- Node1&#45;&gt;Node2 -->
<g id="edge1_Node000001_Node000002" class="edge">
<title>Node1&#45;&gt;Node2</title>
<g id="a_edge1_Node000001_Node000002"><a xlink:title=" ">
<path fill="none" stroke="#63b8ff" d="M130.99,-48.69C116.33,-38.76 99.55,-27.41 88.16,-19.7"/>
<polygon fill="#63b8ff" stroke="#63b8ff" points="128.75,-51.39 138.99,-54.1 132.67,-45.6 128.75,-51.39"/>
</a>
</g>
</g>
<!-- Node3 -->
<g id="Node000003" class="node">
<title>Node3</title>
<g id="a_Node000003"><a xlink:href="../../d3/df2/classengine_1_1render_1_1_present_swapchain.html" target="_top" xlink:title=" ">
<polygon fill="white" stroke="#666666" points="329.88,-19.25 167.62,-19.25 167.62,0 329.88,0 329.88,-19.25"/>
<text text-anchor="middle" x="248.75" y="-5.75" font-family="Helvetica,sans-Serif" font-size="10.00">engine::render::PresentSwapchain</text>
</a>
</g>
</g>
<!-- Node1&#45;&gt;Node3 -->
<g id="edge2_Node000001_Node000003" class="edge">
<title>Node1&#45;&gt;Node3</title>
<g id="a_edge2_Node000001_Node000003"><a xlink:title=" ">
<path fill="none" stroke="#63b8ff" d="M192.51,-48.69C207.17,-38.76 223.95,-27.41 235.34,-19.7"/>
<polygon fill="#63b8ff" stroke="#63b8ff" points="190.83,-45.6 184.51,-54.1 194.75,-51.39 190.83,-45.6"/>
</a>
</g>
</g>
</g>
</svg>
