<?xml version="1.0" encoding="UTF-8" standalone="no"?>
<!DOCTYPE svg PUBLIC "-//W3C//DTD SVG 1.1//EN"
 "http://www.w3.org/Graphics/SVG/1.1/DTD/svg11.dtd">
<!-- Generated by graphviz version 8.1.0 (20230707.0739)
 -->
<!-- Title: engine/subsystems/render/detail/decal&#45;render&#45;system.hpp Pages: 1 -->
<!--zoomable 482 -->

<svg id="main" version="1.1" xmlns="http://www.w3.org/2000/svg" xmlns:xlink="http://www.w3.org/1999/xlink" xml:space="preserve" onload="init(evt)">
<style type="text/css"><![CDATA[
.node, .edge {opacity: 0.7;}
.node.selected, .edge.selected {opacity: 1;}
.edge:hover path { stroke: red; }
.edge:hover polygon { stroke: red; fill: red; }
]]></style>

<defs>
  <circle id="rim" cx="0" cy="0" r="7"/>
  <circle id="rim2" cx="0" cy="0" r="3.5"/>
  <g id="zoomPlus">
    <use xlink:href="#rim" fill="#404040"><set attributeName="fill" to="#808080" begin="zoomplus.mouseover" end="zoomplus.mouseout"/></use>
    <path d="M-4,0h8M0,-4v8" fill="none" stroke="white" stroke-width="1.5" pointer-events="none"/>
  </g>
  <g id="zoomMin">
    <use xlink:href="#rim" fill="#404040"><set attributeName="fill" to="#808080" begin="zoomminus.mouseover" end="zoomminus.mouseout"/></use>
    <path d="M-4,0h8" fill="none" stroke="white" stroke-width="1.5" pointer-events="none"/>
  </g>
  <g id="arrowUp" transform="translate(30 24)">
    <use xlink:href="#rim"/>
    <path pointer-events="none" fill="none" stroke="white" stroke-width="1.5" d="M0,-3.0v7 M-2.5,-0.5L0,-3.0L2.5,-0.5"/>
  </g>
  <g id="arrowRight" transform="rotate(90) translate(36 -43)">
    <use xlink:href="#rim"/>
    <path pointer-events="none" fill="none" stroke="white" stroke-width="1.5" d="M0,-3.0v7 M-2.5,-0.5L0,-3.0L2.5,-0.5"/>
  </g>
  <g id="arrowDown" transform="rotate(180) translate(-30 -48)">
    <use xlink:href="#rim"/>
    <path pointer-events="none" fill="none" stroke="white" stroke-width="1.5" d="M0,-3.0v7 M-2.5,-0.5L0,-3.0L2.5,-0.5"/>
  </g>
  <g id="arrowLeft" transform="rotate(270) translate(-36 17)">
    <use xlink:href="#rim"/>
    <path pointer-events="none" fill="none" stroke="white" stroke-width="1.5" d="M0,-3.0v7 M-2.5,-0.5L0,-3.0L2.5,-0.5"/>
  </g>
  <g id="resetDef">
    <use xlink:href="#rim2" fill="#404040"><set attributeName="fill" to="#808080" begin="reset.mouseover" end="reset.mouseout"/></use>
  </g>
</defs>
<script type="application/ecmascript">
var viewWidth = 1909;
var viewHeight = 482;
var sectionId = 'dynsection-1';
</script>
<script type="application/ecmascript" xlink:href="../../svg.min.js"/>
<svg id="graph" class="graph">
<g id="viewport">
<title>engine/subsystems/render/detail/decal&#45;render&#45;system.hpp</title>
<!-- Node1 -->
<g id="Node000001" class="node">
<title>Node1</title>
<g id="a_Node000001"><a xlink:title=" ">
<polygon fill="#999999" stroke="#666666" points="1575.24,-473.5 1424.24,-473.5 1424.24,-443 1575.24,-443 1575.24,-473.5"/>
<text text-anchor="start" x="1432.24" y="-460" font-family="Helvetica,sans-Serif" font-size="10.00">engine/subsystems/render</text>
<text text-anchor="middle" x="1499.74" y="-448.75" font-family="Helvetica,sans-Serif" font-size="10.00">/detail/decal&#45;render&#45;system.hpp</text>
</a>
</g>
</g>
<!-- Node2 -->
<g id="Node000002" class="node">
<title>Node2</title>
<g id="a_Node000002"><a xlink:href="../../d1/dae/renderer_8hpp.html" target="_top" xlink:title=" ">
<polygon fill="white" stroke="#666666" points="1134.11,-407 1003.36,-407 1003.36,-387.75 1134.11,-387.75 1134.11,-407"/>
<text text-anchor="middle" x="1068.74" y="-393.5" font-family="Helvetica,sans-Serif" font-size="10.00">engine/render/renderer.hpp</text>
</a>
</g>
</g>
<!-- Node1&#45;&gt;Node2 -->
<g id="edge1_Node000001_Node000002" class="edge">
<title>Node1&#45;&gt;Node2</title>
<g id="a_edge1_Node000001_Node000002"><a xlink:title=" ">
<path fill="none" stroke="#63b8ff" d="M1413.33,-445.45C1331.03,-434.2 1208.93,-417.53 1134.33,-407.34"/>
<polygon fill="#63b8ff" stroke="#63b8ff" points="1412.79,-449.04 1423.17,-446.93 1413.74,-442.11 1412.79,-449.04"/>
</a>
</g>
</g>
<!-- Node16 -->
<g id="Node000016" class="node">
<title>Node16</title>
<g id="a_Node000016"><a xlink:href="../../d8/d30/decal-render-system_8cpp.html" target="_top" xlink:title=" ">
<polygon fill="white" stroke="#666666" points="1869.24,-91.38 1718.24,-91.38 1718.24,-60.88 1869.24,-60.88 1869.24,-91.38"/>
<text text-anchor="start" x="1726.24" y="-77.88" font-family="Helvetica,sans-Serif" font-size="10.00">engine/subsystems/render</text>
<text text-anchor="middle" x="1793.74" y="-66.62" font-family="Helvetica,sans-Serif" font-size="10.00">/detail/decal&#45;render&#45;system.cpp</text>
</a>
</g>
</g>
<!-- Node1&#45;&gt;Node16 -->
<g id="edge42_Node000001_Node000016" class="edge">
<title>Node1&#45;&gt;Node16</title>
<g id="a_edge42_Node000001_Node000016"><a xlink:title=" ">
<path fill="none" stroke="#63b8ff" d="M1586.4,-447.25C1692.92,-432.49 1859.74,-400.25 1859.74,-343.12 1859.74,-343.12 1859.74,-343.12 1859.74,-208.12 1859.74,-161.52 1826.01,-114.61 1806.78,-91.64"/>
<polygon fill="#63b8ff" stroke="#63b8ff" points="1586.08,-443.89 1576.64,-448.71 1587.02,-450.83 1586.08,-443.89"/>
</a>
</g>
</g>
<!-- Node3 -->
<g id="Node000003" class="node">
<title>Node3</title>
<g id="a_Node000003"><a xlink:href="../../d1/d47/controller_8cpp.html" target="_top" xlink:title=" ">
<polygon fill="white" stroke="#666666" points="1107.86,-19.25 993.61,-19.25 993.61,0 1107.86,0 1107.86,-19.25"/>
<text text-anchor="middle" x="1050.74" y="-5.75" font-family="Helvetica,sans-Serif" font-size="10.00">d3d_test/controller.cpp</text>
</a>
</g>
</g>
<!-- Node2&#45;&gt;Node3 -->
<g id="edge2_Node000002_Node000003" class="edge">
<title>Node2&#45;&gt;Node3</title>
<g id="a_edge2_Node000002_Node000003"><a xlink:title=" ">
<path fill="none" stroke="#63b8ff" d="M1145.47,-395.36C1350.87,-390.59 1897.74,-363.48 1897.74,-210.12 1897.74,-210.12 1897.74,-210.12 1897.74,-147.25 1897.74,-105.5 1910.47,-82.39 1878.74,-55.25 1846.95,-28.07 1168.43,-22.61 1126.74,-19.25 1120.65,-18.76 1114.29,-18.17 1107.97,-17.52"/>
<polygon fill="#63b8ff" stroke="#63b8ff" points="1145.4,-391.88 1135.48,-395.6 1145.55,-398.88 1145.4,-391.88"/>
</a>
</g>
</g>
<!-- Node4 -->
<g id="Node000004" class="node">
<title>Node4</title>
<g id="a_Node000004"><a xlink:href="../../d5/d9b/scene_8hpp.html" target="_top" xlink:title=" ">
<polygon fill="white" stroke="#666666" points="1125.49,-351.75 1011.99,-351.75 1011.99,-332.5 1125.49,-332.5 1125.49,-351.75"/>
<text text-anchor="middle" x="1068.74" y="-338.25" font-family="Helvetica,sans-Serif" font-size="10.00">engine/core/scene.hpp</text>
</a>
</g>
</g>
<!-- Node2&#45;&gt;Node4 -->
<g id="edge3_Node000002_Node000004" class="edge">
<title>Node2&#45;&gt;Node4</title>
<g id="a_edge3_Node000002_Node000004"><a xlink:title=" ">
<path fill="none" stroke="#63b8ff" d="M1068.74,-376.71C1068.74,-368.27 1068.74,-358.83 1068.74,-352.11"/>
<polygon fill="#63b8ff" stroke="#63b8ff" points="1065.24,-376.58 1068.74,-386.58 1072.24,-376.58 1065.24,-376.58"/>
</a>
</g>
</g>
<!-- Node24 -->
<g id="Node000024" class="node">
<title>Node24</title>
<g id="a_Node000024"><a xlink:href="../../db/df9/deferred-hdr-render-pipeline_8hpp.html" target="_top" xlink:title=" ">
<polygon fill="white" stroke="#666666" points="280.11,-163.5 149.36,-163.5 149.36,-133 280.11,-133 280.11,-163.5"/>
<text text-anchor="start" x="157.36" y="-150" font-family="Helvetica,sans-Serif" font-size="10.00">engine/direct3d11/deferred</text>
<text text-anchor="middle" x="214.74" y="-138.75" font-family="Helvetica,sans-Serif" font-size="10.00">&#45;hdr&#45;render&#45;pipeline.hpp</text>
</a>
</g>
</g>
<!-- Node2&#45;&gt;Node24 -->
<g id="edge40_Node000002_Node000024" class="edge">
<title>Node2&#45;&gt;Node24</title>
<g id="a_edge40_Node000002_Node000024"><a xlink:title=" ">
<path fill="none" stroke="#63b8ff" d="M1022.83,-384.64C952.29,-366.49 813.11,-330.17 695.74,-296.5 535.19,-250.45 346.07,-191.02 260.67,-163.91"/>
<polygon fill="#63b8ff" stroke="#63b8ff" points="1021.58,-388.19 1032.13,-387.29 1023.32,-381.41 1021.58,-388.19"/>
</a>
</g>
</g>
<!-- Node26 -->
<g id="Node000026" class="node">
<title>Node26</title>
<g id="a_Node000026"><a xlink:href="../../d6/d54/renderer_8cpp.html" target="_top" xlink:title=" ">
<polygon fill="white" stroke="#666666" points="835.11,-285.25 704.36,-285.25 704.36,-266 835.11,-266 835.11,-285.25"/>
<text text-anchor="middle" x="769.74" y="-271.75" font-family="Helvetica,sans-Serif" font-size="10.00">engine/render/renderer.cpp</text>
</a>
</g>
</g>
<!-- Node2&#45;&gt;Node26 -->
<g id="edge41_Node000002_Node000026" class="edge">
<title>Node2&#45;&gt;Node26</title>
<g id="a_edge41_Node000002_Node000026"><a xlink:title=" ">
<path fill="none" stroke="#63b8ff" d="M1036.42,-383.43C975.51,-359.04 845.11,-306.81 792.47,-285.73"/>
<polygon fill="#63b8ff" stroke="#63b8ff" points="1034.68,-386.91 1045.26,-387.37 1037.28,-380.41 1034.68,-386.91"/>
</a>
</g>
</g>
<!-- Node5 -->
<g id="Node000005" class="node">
<title>Node5</title>
<g id="a_Node000005"><a xlink:href="../../de/d46/engine_8hpp.html" target="_top" xlink:title=" ">
<polygon fill="white" stroke="#666666" points="1006.61,-157.88 890.86,-157.88 890.86,-138.62 1006.61,-138.62 1006.61,-157.88"/>
<text text-anchor="middle" x="948.74" y="-144.38" font-family="Helvetica,sans-Serif" font-size="10.00">engine/core/engine.hpp</text>
</a>
</g>
</g>
<!-- Node4&#45;&gt;Node5 -->
<g id="edge4_Node000004_Node000005" class="edge">
<title>Node4&#45;&gt;Node5</title>
<g id="a_edge4_Node000004_Node000005"><a xlink:title=" ">
<path fill="none" stroke="#63b8ff" d="M1062.41,-322.02C1051.01,-288.26 1026.81,-219.74 1011.74,-199.5 998.7,-181.99 978.16,-167.16 964.1,-158.25"/>
<polygon fill="#63b8ff" stroke="#63b8ff" points="1059.26,-322.64 1065.75,-331.01 1065.9,-320.42 1059.26,-322.64"/>
</a>
</g>
</g>
<!-- Node4&#45;&gt;Node16 -->
<g id="edge35_Node000004_Node000016" class="edge">
<title>Node4&#45;&gt;Node16</title>
<g id="a_edge35_Node000004_Node000016"><a xlink:title=" ">
<path fill="none" stroke="#63b8ff" d="M1067.53,-321.2C1067.49,-301.68 1070.64,-272.37 1087.74,-254.75 1099.22,-242.92 1561.41,-132.27 1731.64,-91.83"/>
<polygon fill="#63b8ff" stroke="#63b8ff" points="1064.06,-321.26 1067.89,-331.14 1071.06,-321.03 1064.06,-321.26"/>
</a>
</g>
</g>
<!-- Node17 -->
<g id="Node000017" class="node">
<title>Node17</title>
<g id="a_Node000017"><a xlink:href="../../d1/d58/dissolution-render-system_8cpp.html" target="_top" xlink:title=" ">
<polygon fill="white" stroke="#666666" points="427.74,-97 297.74,-97 297.74,-55.25 427.74,-55.25 427.74,-97"/>
<text text-anchor="start" x="305.74" y="-83.5" font-family="Helvetica,sans-Serif" font-size="10.00">engine/subsystems/render</text>
<text text-anchor="start" x="305.74" y="-72.25" font-family="Helvetica,sans-Serif" font-size="10.00">/detail/dissolution&#45;render</text>
<text text-anchor="middle" x="362.74" y="-61" font-family="Helvetica,sans-Serif" font-size="10.00">&#45;system.cpp</text>
</a>
</g>
</g>
<!-- Node4&#45;&gt;Node17 -->
<g id="edge36_Node000004_Node000017" class="edge">
<title>Node4&#45;&gt;Node17</title>
<g id="a_edge36_Node000004_Node000017"><a xlink:title=" ">
<path fill="none" stroke="#63b8ff" d="M1001.04,-332.94C965.67,-326.61 922.61,-315.57 887.74,-296.5 864.09,-283.57 866.63,-268.99 843.74,-254.75 771.83,-210.02 541.15,-133.67 427.4,-97.41"/>
<polygon fill="#63b8ff" stroke="#63b8ff" points="1000.31,-336.54 1010.76,-334.76 1001.48,-329.64 1000.31,-336.54"/>
</a>
</g>
</g>
<!-- Node21 -->
<g id="Node000021" class="node">
<title>Node21</title>
<g id="a_Node000021"><a xlink:href="../../d3/dfe/particle-render-system_8cpp.html" target="_top" xlink:title=" ">
<polygon fill="white" stroke="#666666" points="1699.74,-97 1569.74,-97 1569.74,-55.25 1699.74,-55.25 1699.74,-97"/>
<text text-anchor="start" x="1577.74" y="-83.5" font-family="Helvetica,sans-Serif" font-size="10.00">engine/subsystems/render</text>
<text text-anchor="start" x="1577.74" y="-72.25" font-family="Helvetica,sans-Serif" font-size="10.00">/detail/particle&#45;render</text>
<text text-anchor="middle" x="1634.74" y="-61" font-family="Helvetica,sans-Serif" font-size="10.00">&#45;system.cpp</text>
</a>
</g>
</g>
<!-- Node4&#45;&gt;Node21 -->
<g id="edge39_Node000004_Node000021" class="edge">
<title>Node4&#45;&gt;Node21</title>
<g id="a_edge39_Node000004_Node000021"><a xlink:title=" ">
<path fill="none" stroke="#63b8ff" d="M1136.57,-338.59C1260.03,-333.43 1511.71,-320.13 1543.74,-296.5 1609.93,-247.66 1628.22,-141.72 1633.07,-97.33"/>
<polygon fill="#63b8ff" stroke="#63b8ff" points="1136.6,-335.13 1126.75,-339.04 1136.89,-342.13 1136.6,-335.13"/>
</a>
</g>
</g>
<!-- Node22 -->
<g id="Node000022" class="node">
<title>Node22</title>
<g id="a_Node000022"><a xlink:href="../../d9/d06/render-pipeline_8hpp.html" target="_top" xlink:title=" ">
<polygon fill="white" stroke="#666666" points="996.74,-290.88 896.74,-290.88 896.74,-260.38 996.74,-260.38 996.74,-290.88"/>
<text text-anchor="start" x="904.74" y="-277.38" font-family="Helvetica,sans-Serif" font-size="10.00">engine/core/layers</text>
<text text-anchor="middle" x="946.74" y="-266.12" font-family="Helvetica,sans-Serif" font-size="10.00">/render&#45;pipeline.hpp</text>
</a>
</g>
</g>
<!-- Node4&#45;&gt;Node22 -->
<g id="edge26_Node000004_Node000022" class="edge">
<title>Node4&#45;&gt;Node22</title>
<g id="a_edge26_Node000004_Node000022"><a xlink:title=" ">
<path fill="none" stroke="#63b8ff" d="M1042.03,-327.01C1021.94,-316.38 994.49,-301.87 974.21,-291.15"/>
<polygon fill="#63b8ff" stroke="#63b8ff" points="1040.04,-330.44 1050.52,-332.02 1043.31,-324.25 1040.04,-330.44"/>
</a>
</g>
</g>
<!-- Node25 -->
<g id="Node000025" class="node">
<title>Node25</title>
<g id="a_Node000025"><a xlink:href="../../d4/d7c/deferred-resolve_8cpp.html" target="_top" xlink:title=" ">
<polygon fill="white" stroke="#666666" points="1209.11,-290.88 1096.36,-290.88 1096.36,-260.38 1209.11,-260.38 1209.11,-290.88"/>
<text text-anchor="start" x="1104.36" y="-277.38" font-family="Helvetica,sans-Serif" font-size="10.00">engine/render/deferred</text>
<text text-anchor="middle" x="1152.74" y="-266.12" font-family="Helvetica,sans-Serif" font-size="10.00">&#45;resolve.cpp</text>
</a>
</g>
</g>
<!-- Node4&#45;&gt;Node25 -->
<g id="edge33_Node000004_Node000025" class="edge">
<title>Node4&#45;&gt;Node25</title>
<g id="a_edge33_Node000004_Node000025"><a xlink:title=" ">
<path fill="none" stroke="#63b8ff" d="M1089.06,-325.52C1102.65,-315.08 1120.42,-301.44 1133.74,-291.22"/>
<polygon fill="#63b8ff" stroke="#63b8ff" points="1087.22,-323.29 1081.42,-332.16 1091.48,-328.84 1087.22,-323.29"/>
</a>
</g>
</g>
<!-- Node4&#45;&gt;Node26 -->
<g id="edge34_Node000004_Node000026" class="edge">
<title>Node4&#45;&gt;Node26</title>
<g id="a_edge34_Node000004_Node000026"><a xlink:title=" ">
<path fill="none" stroke="#63b8ff" d="M1009.93,-329.97C965.53,-321.35 903.16,-308.86 848.74,-296.5 834.12,-293.18 818.06,-289.2 804.26,-285.68"/>
<polygon fill="#63b8ff" stroke="#63b8ff" points="1009.05,-333.55 1019.53,-332.01 1010.38,-326.68 1009.05,-333.55"/>
</a>
</g>
</g>
<!-- Node27 -->
<g id="Node000027" class="node">
<title>Node27</title>
<g id="a_Node000027"><a xlink:href="../../d8/dcb/emissive-render-system_8cpp.html" target="_top" xlink:title=" ">
<polygon fill="white" stroke="#666666" points="1356.74,-296.5 1226.74,-296.5 1226.74,-254.75 1356.74,-254.75 1356.74,-296.5"/>
<text text-anchor="start" x="1234.74" y="-283" font-family="Helvetica,sans-Serif" font-size="10.00">engine/subsystems/render</text>
<text text-anchor="start" x="1234.74" y="-271.75" font-family="Helvetica,sans-Serif" font-size="10.00">/detail/emissive&#45;render</text>
<text text-anchor="middle" x="1291.74" y="-260.5" font-family="Helvetica,sans-Serif" font-size="10.00">&#45;system.cpp</text>
</a>
</g>
</g>
<!-- Node4&#45;&gt;Node27 -->
<g id="edge37_Node000004_Node000027" class="edge">
<title>Node4&#45;&gt;Node27</title>
<g id="a_edge37_Node000004_Node000027"><a xlink:title=" ">
<path fill="none" stroke="#63b8ff" d="M1110.73,-328.98C1143.33,-319.55 1189.11,-306.31 1226.47,-295.5"/>
<polygon fill="#63b8ff" stroke="#63b8ff" points="1109.85,-325.88 1101.21,-332.02 1111.79,-332.6 1109.85,-325.88"/>
</a>
</g>
</g>
<!-- Node28 -->
<g id="Node000028" class="node">
<title>Node28</title>
<g id="a_Node000028"><a xlink:href="../../d1/d62/opaque-render-system_8cpp.html" target="_top" xlink:title=" ">
<polygon fill="white" stroke="#666666" points="1534.36,-290.88 1375.11,-290.88 1375.11,-260.38 1534.36,-260.38 1534.36,-290.88"/>
<text text-anchor="start" x="1383.11" y="-277.38" font-family="Helvetica,sans-Serif" font-size="10.00">engine/subsystems/render</text>
<text text-anchor="middle" x="1454.74" y="-266.12" font-family="Helvetica,sans-Serif" font-size="10.00">/detail/opaque&#45;render&#45;system.cpp</text>
</a>
</g>
</g>
<!-- Node4&#45;&gt;Node28 -->
<g id="edge38_Node000004_Node000028" class="edge">
<title>Node4&#45;&gt;Node28</title>
<g id="a_edge38_Node000004_Node000028"><a xlink:title=" ">
<path fill="none" stroke="#63b8ff" d="M1136.41,-332.34C1196.75,-324.18 1287.4,-311.11 1365.74,-296.5 1374.14,-294.93 1382.96,-293.14 1391.64,-291.29"/>
<polygon fill="#63b8ff" stroke="#63b8ff" points="1136.32,-328.96 1126.87,-333.76 1137.25,-335.9 1136.32,-328.96"/>
</a>
</g>
</g>
<!-- Node6 -->
<g id="Node000006" class="node">
<title>Node6</title>
<g id="a_Node000006"><a xlink:href="../../d0/d86/camera-movement_8hpp.html" target="_top" xlink:title=" ">
<polygon fill="white" stroke="#666666" points="1123.49,-85.75 967.99,-85.75 967.99,-66.5 1123.49,-66.5 1123.49,-85.75"/>
<text text-anchor="middle" x="1045.74" y="-72.25" font-family="Helvetica,sans-Serif" font-size="10.00">d3d_test/camera&#45;movement.hpp</text>
</a>
</g>
</g>
<!-- Node5&#45;&gt;Node6 -->
<g id="edge5_Node000005_Node000006" class="edge">
<title>Node5&#45;&gt;Node6</title>
<g id="a_edge5_Node000005_Node000006"><a xlink:title=" ">
<path fill="none" stroke="#63b8ff" d="M969.73,-132.07C989.1,-118.07 1017.19,-97.76 1033.25,-86.16"/>
<polygon fill="#63b8ff" stroke="#63b8ff" points="968.08,-129.67 962.02,-138.37 972.18,-135.35 968.08,-129.67"/>
</a>
</g>
</g>
<!-- Node8 -->
<g id="Node000008" class="node">
<title>Node8</title>
<g id="a_Node000008"><a xlink:href="../../dc/dfb/controller_8hpp.html" target="_top" xlink:title=" ">
<polygon fill="white" stroke="#666666" points="130.86,-85.75 16.61,-85.75 16.61,-66.5 130.86,-66.5 130.86,-85.75"/>
<text text-anchor="middle" x="73.74" y="-72.25" font-family="Helvetica,sans-Serif" font-size="10.00">d3d_test/controller.hpp</text>
</a>
</g>
</g>
<!-- Node5&#45;&gt;Node8 -->
<g id="edge8_Node000005_Node000008" class="edge">
<title>Node5&#45;&gt;Node8</title>
<g id="a_edge8_Node000005_Node000008"><a xlink:title=" ">
<path fill="none" stroke="#63b8ff" d="M879.54,-144.96C710.83,-139.05 281.85,-121.98 140.74,-97 126.76,-94.53 111.56,-90.16 99.18,-86.15"/>
<polygon fill="#63b8ff" stroke="#63b8ff" points="879.39,-148.49 889.51,-145.34 879.64,-141.5 879.39,-148.49"/>
</a>
</g>
</g>
<!-- Node9 -->
<g id="Node000009" class="node">
<title>Node9</title>
<g id="a_Node000009"><a xlink:href="../../d9/d0f/main_8cc.html" target="_top" xlink:title=" ">
<polygon fill="white" stroke="#666666" points="118.86,-19.25 28.61,-19.25 28.61,0 118.86,0 118.86,-19.25"/>
<text text-anchor="middle" x="73.74" y="-5.75" font-family="Helvetica,sans-Serif" font-size="10.00">d3d_test/main.cc</text>
</a>
</g>
</g>
<!-- Node5&#45;&gt;Node9 -->
<g id="edge11_Node000005_Node000009" class="edge">
<title>Node5&#45;&gt;Node9</title>
<g id="a_edge11_Node000005_Node000009"><a xlink:title=" ">
<path fill="none" stroke="#63b8ff" d="M895.89,-136.13C889.46,-134.97 882.96,-133.89 876.74,-133 787.95,-120.28 555.07,-136.89 474.74,-97 452.26,-85.84 459.02,-66.78 436.74,-55.25 382.38,-27.14 204.09,-16.06 119.31,-12.3"/>
<polygon fill="#63b8ff" stroke="#63b8ff" points="895.13,-139.73 905.61,-138.13 896.42,-132.85 895.13,-139.73"/>
</a>
</g>
</g>
<!-- Node10 -->
<g id="Node000010" class="node">
<title>Node10</title>
<g id="a_Node000010"><a xlink:href="../../da/df5/object-editor_8hpp.html" target="_top" xlink:title=" ">
<polygon fill="white" stroke="#666666" points="1269.61,-85.75 1141.86,-85.75 1141.86,-66.5 1269.61,-66.5 1269.61,-85.75"/>
<text text-anchor="middle" x="1205.74" y="-72.25" font-family="Helvetica,sans-Serif" font-size="10.00">d3d_test/object&#45;editor.hpp</text>
</a>
</g>
</g>
<!-- Node5&#45;&gt;Node10 -->
<g id="edge12_Node000005_Node000010" class="edge">
<title>Node5&#45;&gt;Node10</title>
<g id="a_edge12_Node000005_Node000010"><a xlink:title=" ">
<path fill="none" stroke="#63b8ff" d="M992.43,-135.33C1043.38,-121.43 1126.47,-98.75 1172.46,-86.2"/>
<polygon fill="#63b8ff" stroke="#63b8ff" points="991.8,-132.15 983.07,-138.15 993.64,-138.9 991.8,-132.15"/>
</a>
</g>
</g>
<!-- Node13 -->
<g id="Node000013" class="node">
<title>Node13</title>
<g id="a_Node000013"><a xlink:href="../../d9/d55/scene-viewer_8hpp.html" target="_top" xlink:title=" ">
<polygon fill="white" stroke="#666666" points="785.86,-85.75 653.61,-85.75 653.61,-66.5 785.86,-66.5 785.86,-85.75"/>
<text text-anchor="middle" x="719.74" y="-72.25" font-family="Helvetica,sans-Serif" font-size="10.00">d3d_test/scene&#45;viewer.hpp</text>
</a>
</g>
</g>
<!-- Node5&#45;&gt;Node13 -->
<g id="edge16_Node000005_Node000013" class="edge">
<title>Node5&#45;&gt;Node13</title>
<g id="a_edge16_Node000005_Node000013"><a xlink:title=" ">
<path fill="none" stroke="#63b8ff" d="M908.91,-135.05C863.46,-121.14 790.18,-98.7 749.46,-86.23"/>
<polygon fill="#63b8ff" stroke="#63b8ff" points="907.68,-138.64 918.27,-138.23 909.73,-131.95 907.68,-138.64"/>
</a>
</g>
</g>
<!-- Node14 -->
<g id="Node000014" class="node">
<title>Node14</title>
<g id="a_Node000014"><a xlink:href="../../da/d5c/engine_8cpp.html" target="_top" xlink:title=" ">
<polygon fill="white" stroke="#666666" points="1403.61,-85.75 1287.86,-85.75 1287.86,-66.5 1403.61,-66.5 1403.61,-85.75"/>
<text text-anchor="middle" x="1345.74" y="-72.25" font-family="Helvetica,sans-Serif" font-size="10.00">engine/core/engine.cpp</text>
</a>
</g>
</g>
<!-- Node5&#45;&gt;Node14 -->
<g id="edge18_Node000005_Node000014" class="edge">
<title>Node5&#45;&gt;Node14</title>
<g id="a_edge18_Node000005_Node000014"><a xlink:title=" ">
<path fill="none" stroke="#63b8ff" d="M1017.86,-139.53C1084.99,-131.37 1189.53,-116.92 1278.74,-97 1291.88,-94.06 1306.22,-89.94 1318.25,-86.21"/>
<polygon fill="#63b8ff" stroke="#63b8ff" points="1017.52,-136.16 1008.01,-140.83 1018.35,-143.11 1017.52,-136.16"/>
</a>
</g>
</g>
<!-- Node15 -->
<g id="Node000015" class="node">
<title>Node15</title>
<g id="a_Node000015"><a xlink:href="../../d1/da2/deferred-hdr-render-pipeline_8cpp.html" target="_top" xlink:title=" ">
<polygon fill="white" stroke="#666666" points="280.11,-91.38 149.36,-91.38 149.36,-60.88 280.11,-60.88 280.11,-91.38"/>
<text text-anchor="start" x="157.36" y="-77.88" font-family="Helvetica,sans-Serif" font-size="10.00">engine/direct3d11/deferred</text>
<text text-anchor="middle" x="214.74" y="-66.62" font-family="Helvetica,sans-Serif" font-size="10.00">&#45;hdr&#45;render&#45;pipeline.cpp</text>
</a>
</g>
</g>
<!-- Node5&#45;&gt;Node15 -->
<g id="edge19_Node000005_Node000015" class="edge">
<title>Node5&#45;&gt;Node15</title>
<g id="a_edge19_Node000005_Node000015"><a xlink:title=" ">
<path fill="none" stroke="#63b8ff" d="M879.56,-146.21C758.82,-143.47 502.11,-133.45 288.74,-97 280.87,-95.66 272.63,-93.85 264.61,-91.87"/>
<polygon fill="#63b8ff" stroke="#63b8ff" points="879.39,-149.73 889.47,-146.45 879.55,-142.73 879.39,-149.73"/>
</a>
</g>
</g>
<!-- Node5&#45;&gt;Node16 -->
<g id="edge20_Node000005_Node000016" class="edge">
<title>Node5&#45;&gt;Node16</title>
<g id="a_edge20_Node000005_Node000016"><a xlink:title=" ">
<path fill="none" stroke="#63b8ff" d="M1017.65,-146.46C1151.54,-144.1 1455.9,-134.66 1708.74,-97 1717.88,-95.64 1727.49,-93.8 1736.83,-91.78"/>
<polygon fill="#63b8ff" stroke="#63b8ff" points="1017.7,-142.98 1007.76,-146.64 1017.82,-149.98 1017.7,-142.98"/>
</a>
</g>
</g>
<!-- Node5&#45;&gt;Node17 -->
<g id="edge21_Node000005_Node000017" class="edge">
<title>Node5&#45;&gt;Node17</title>
<g id="a_edge21_Node000005_Node000017"><a xlink:title=" ">
<path fill="none" stroke="#63b8ff" d="M896.63,-136.22C889.95,-135.02 883.2,-133.9 876.74,-133 684.61,-106.13 633.11,-128.77 441.74,-97 437.27,-96.26 432.69,-95.39 428.09,-94.44"/>
<polygon fill="#63b8ff" stroke="#63b8ff" points="895.52,-139.76 905.99,-138.16 896.81,-132.88 895.52,-139.76"/>
</a>
</g>
</g>
<!-- Node18 -->
<g id="Node000018" class="node">
<title>Node18</title>
<g id="a_Node000018"><a xlink:href="../../d2/d11/emissive-particle-render-system_8cpp.html" target="_top" xlink:title=" ">
<polygon fill="white" stroke="#666666" points="1551.74,-97 1421.74,-97 1421.74,-55.25 1551.74,-55.25 1551.74,-97"/>
<text text-anchor="start" x="1429.74" y="-83.5" font-family="Helvetica,sans-Serif" font-size="10.00">engine/subsystems/render</text>
<text text-anchor="start" x="1429.74" y="-72.25" font-family="Helvetica,sans-Serif" font-size="10.00">/detail/emissive&#45;particle</text>
<text text-anchor="middle" x="1486.74" y="-61" font-family="Helvetica,sans-Serif" font-size="10.00">&#45;render&#45;system.cpp</text>
</a>
</g>
</g>
<!-- Node5&#45;&gt;Node18 -->
<g id="edge22_Node000005_Node000018" class="edge">
<title>Node5&#45;&gt;Node18</title>
<g id="a_edge22_Node000005_Node000018"><a xlink:title=" ">
<path fill="none" stroke="#63b8ff" d="M1017.76,-143.12C1108.83,-136.91 1273.83,-123.01 1412.74,-97 1415.61,-96.46 1418.54,-95.87 1421.49,-95.23"/>
<polygon fill="#63b8ff" stroke="#63b8ff" points="1017.77,-139.68 1008.03,-143.84 1018.24,-146.66 1017.77,-139.68"/>
</a>
</g>
</g>
<!-- Node19 -->
<g id="Node000019" class="node">
<title>Node19</title>
<g id="a_Node000019"><a xlink:href="../../df/d58/grass-render-system_8cpp.html" target="_top" xlink:title=" ">
<polygon fill="white" stroke="#666666" points="635.61,-91.38 483.86,-91.38 483.86,-60.88 635.61,-60.88 635.61,-91.38"/>
<text text-anchor="start" x="491.86" y="-77.88" font-family="Helvetica,sans-Serif" font-size="10.00">engine/subsystems/render</text>
<text text-anchor="middle" x="559.74" y="-66.62" font-family="Helvetica,sans-Serif" font-size="10.00">/detail/grass&#45;render&#45;system.cpp</text>
</a>
</g>
</g>
<!-- Node5&#45;&gt;Node19 -->
<g id="edge23_Node000005_Node000019" class="edge">
<title>Node5&#45;&gt;Node19</title>
<g id="a_edge23_Node000005_Node000019"><a xlink:title=" ">
<path fill="none" stroke="#63b8ff" d="M893.46,-136.07C887.82,-135 882.17,-133.96 876.74,-133 773.98,-114.87 747.17,-116.89 644.74,-97 636.7,-95.44 628.28,-93.65 619.98,-91.81"/>
<polygon fill="#63b8ff" stroke="#63b8ff" points="892.76,-139.69 903.24,-138.14 894.08,-132.82 892.76,-139.69"/>
</a>
</g>
</g>
<!-- Node20 -->
<g id="Node000020" class="node">
<title>Node20</title>
<g id="a_Node000020"><a xlink:href="../../d8/d9c/light-render-system_8cpp.html" target="_top" xlink:title=" ">
<polygon fill="white" stroke="#666666" points="949.61,-91.38 803.86,-91.38 803.86,-60.88 949.61,-60.88 949.61,-91.38"/>
<text text-anchor="start" x="811.86" y="-77.88" font-family="Helvetica,sans-Serif" font-size="10.00">engine/subsystems/render</text>
<text text-anchor="middle" x="876.74" y="-66.62" font-family="Helvetica,sans-Serif" font-size="10.00">/detail/light&#45;render&#45;system.cpp</text>
</a>
</g>
</g>
<!-- Node5&#45;&gt;Node20 -->
<g id="edge24_Node000005_Node000020" class="edge">
<title>Node5&#45;&gt;Node20</title>
<g id="a_edge24_Node000005_Node000020"><a xlink:title=" ">
<path fill="none" stroke="#63b8ff" d="M931.97,-130.92C919.82,-119.09 903.53,-103.22 891.8,-91.79"/>
<polygon fill="#63b8ff" stroke="#63b8ff" points="929.01,-132.9 938.62,-137.37 933.9,-127.88 929.01,-132.9"/>
</a>
</g>
</g>
<!-- Node5&#45;&gt;Node21 -->
<g id="edge25_Node000005_Node000021" class="edge">
<title>Node5&#45;&gt;Node21</title>
<g id="a_edge25_Node000005_Node000021"><a xlink:title=" ">
<path fill="none" stroke="#63b8ff" d="M1017.96,-145.63C1131.91,-142.05 1365.83,-130.89 1560.74,-97 1563.62,-96.5 1566.55,-95.94 1569.51,-95.33"/>
<polygon fill="#63b8ff" stroke="#63b8ff" points="1017.87,-142.16 1007.98,-145.96 1018.08,-149.16 1017.87,-142.16"/>
</a>
</g>
</g>
<!-- Node6&#45;&gt;Node3 -->
<g id="edge7_Node000006_Node000003" class="edge">
<title>Node6&#45;&gt;Node3</title>
<g id="a_edge7_Node000006_Node000003"><a xlink:title=" ">
<path fill="none" stroke="#63b8ff" d="M1047.27,-55.4C1048.19,-43.43 1049.33,-28.73 1050.05,-19.52"/>
<polygon fill="#63b8ff" stroke="#63b8ff" points="1043.72,-54.92 1046.43,-65.16 1050.69,-55.46 1043.72,-54.92"/>
</a>
</g>
</g>
<!-- Node7 -->
<g id="Node000007" class="node">
<title>Node7</title>
<g id="a_Node000007"><a xlink:href="../../d5/dbb/camera-movement_8cpp.html" target="_top" xlink:title=" ">
<polygon fill="white" stroke="#666666" points="975.49,-19.25 819.99,-19.25 819.99,0 975.49,0 975.49,-19.25"/>
<text text-anchor="middle" x="897.74" y="-5.75" font-family="Helvetica,sans-Serif" font-size="10.00">d3d_test/camera&#45;movement.cpp</text>
</a>
</g>
</g>
<!-- Node6&#45;&gt;Node7 -->
<g id="edge6_Node000006_Node000007" class="edge">
<title>Node6&#45;&gt;Node7</title>
<g id="a_edge6_Node000006_Node000007"><a xlink:title=" ">
<path fill="none" stroke="#63b8ff" d="M1014.87,-61.67C985.97,-49.08 943.59,-30.61 918.52,-19.68"/>
<polygon fill="#63b8ff" stroke="#63b8ff" points="1013.28,-65.23 1023.85,-66.02 1016.08,-58.82 1013.28,-65.23"/>
</a>
</g>
</g>
<!-- Node8&#45;&gt;Node3 -->
<g id="edge9_Node000008_Node000003" class="edge">
<title>Node8&#45;&gt;Node3</title>
<g id="a_edge9_Node000008_Node000003"><a xlink:title=" ">
<path fill="none" stroke="#63b8ff" d="M109.29,-62.81C119.34,-59.82 130.37,-56.98 140.74,-55.25 511.06,6.6 610.68,-51.61 984.74,-19.25 987.5,-19.01 990.33,-18.74 993.18,-18.45"/>
<polygon fill="#63b8ff" stroke="#63b8ff" points="108.34,-59.76 99.84,-66.08 110.43,-66.44 108.34,-59.76"/>
</a>
</g>
</g>
<!-- Node8&#45;&gt;Node9 -->
<g id="edge10_Node000008_Node000009" class="edge">
<title>Node8&#45;&gt;Node9</title>
<g id="a_edge10_Node000008_Node000009"><a xlink:title=" ">
<path fill="none" stroke="#63b8ff" d="M73.74,-55.4C73.74,-43.43 73.74,-28.73 73.74,-19.52"/>
<polygon fill="#63b8ff" stroke="#63b8ff" points="70.24,-55.16 73.74,-65.16 77.24,-55.16 70.24,-55.16"/>
</a>
</g>
</g>
<!-- Node10&#45;&gt;Node3 -->
<g id="edge13_Node000010_Node000003" class="edge">
<title>Node10&#45;&gt;Node3</title>
<g id="a_edge13_Node000010_Node000003"><a xlink:title=" ">
<path fill="none" stroke="#63b8ff" d="M1173.8,-61.84C1143.53,-49.24 1098.88,-30.66 1072.5,-19.68"/>
<polygon fill="#63b8ff" stroke="#63b8ff" points="1172.28,-65.41 1182.86,-66.02 1174.97,-58.95 1172.28,-65.41"/>
</a>
</g>
</g>
<!-- Node11 -->
<g id="Node000011" class="node">
<title>Node11</title>
<g id="a_Node000011"><a xlink:href="../../d4/d94/object-editor_8cpp.html" target="_top" xlink:title=" ">
<polygon fill="white" stroke="#666666" points="1263.61,-19.25 1135.86,-19.25 1135.86,0 1263.61,0 1263.61,-19.25"/>
<text text-anchor="middle" x="1199.74" y="-5.75" font-family="Helvetica,sans-Serif" font-size="10.00">d3d_test/object&#45;editor.cpp</text>
</a>
</g>
</g>
<!-- Node10&#45;&gt;Node11 -->
<g id="edge14_Node000010_Node000011" class="edge">
<title>Node10&#45;&gt;Node11</title>
<g id="a_edge14_Node000010_Node000011"><a xlink:title=" ">
<path fill="none" stroke="#63b8ff" d="M1203.9,-55.4C1202.79,-43.43 1201.42,-28.73 1200.56,-19.52"/>
<polygon fill="#63b8ff" stroke="#63b8ff" points="1200.49,-55.52 1204.9,-65.16 1207.46,-54.88 1200.49,-55.52"/>
</a>
</g>
</g>
<!-- Node12 -->
<g id="Node000012" class="node">
<title>Node12</title>
<g id="a_Node000012"><a xlink:href="../../d0/d38/scene-viewer_8cpp.html" target="_top" xlink:title=" ">
<polygon fill="white" stroke="#666666" points="1413.86,-19.25 1281.61,-19.25 1281.61,0 1413.86,0 1413.86,-19.25"/>
<text text-anchor="middle" x="1347.74" y="-5.75" font-family="Helvetica,sans-Serif" font-size="10.00">d3d_test/scene&#45;viewer.cpp</text>
</a>
</g>
</g>
<!-- Node10&#45;&gt;Node12 -->
<g id="edge15_Node000010_Node000012" class="edge">
<title>Node10&#45;&gt;Node12</title>
<g id="a_edge15_Node000010_Node000012"><a xlink:title=" ">
<path fill="none" stroke="#63b8ff" d="M1235.72,-61.51C1263.44,-48.92 1303.84,-30.56 1327.8,-19.68"/>
<polygon fill="#63b8ff" stroke="#63b8ff" points="1234.44,-58.7 1226.78,-66.02 1237.33,-65.07 1234.44,-58.7"/>
</a>
</g>
</g>
<!-- Node13&#45;&gt;Node3 -->
<g id="edge17_Node000013_Node000003" class="edge">
<title>Node13&#45;&gt;Node3</title>
<g id="a_edge17_Node000013_Node000003"><a xlink:title=" ">
<path fill="none" stroke="#63b8ff" d="M762.02,-63.24C772.66,-60.43 784.08,-57.59 794.74,-55.25 862.49,-40.4 941.2,-27.29 993.27,-19.19"/>
<polygon fill="#63b8ff" stroke="#63b8ff" points="761.46,-60.03 752.71,-66 763.27,-66.79 761.46,-60.03"/>
</a>
</g>
</g>
<!-- Node23 -->
<g id="Node000023" class="node">
<title>Node23</title>
<g id="a_Node000023"><a xlink:href="../../d4/d87/layers_8hpp.html" target="_top" xlink:title=" ">
<polygon fill="white" stroke="#666666" points="1003.11,-218.75 890.36,-218.75 890.36,-199.5 1003.11,-199.5 1003.11,-218.75"/>
<text text-anchor="middle" x="946.74" y="-205.25" font-family="Helvetica,sans-Serif" font-size="10.00">engine/core/layers.hpp</text>
</a>
</g>
</g>
<!-- Node22&#45;&gt;Node23 -->
<g id="edge27_Node000022_Node000023" class="edge">
<title>Node22&#45;&gt;Node23</title>
<g id="a_edge27_Node000022_Node000023"><a xlink:title=" ">
<path fill="none" stroke="#63b8ff" d="M946.74,-249.05C946.74,-238.39 946.74,-226.7 946.74,-218.95"/>
<polygon fill="#63b8ff" stroke="#63b8ff" points="943.24,-248.99 946.74,-258.99 950.24,-248.99 943.24,-248.99"/>
</a>
</g>
</g>
<!-- Node22&#45;&gt;Node24 -->
<g id="edge29_Node000022_Node000024" class="edge">
<title>Node22&#45;&gt;Node24</title>
<g id="a_edge29_Node000022_Node000024"><a xlink:title=" ">
<path fill="none" stroke="#63b8ff" d="M886.06,-262.66C872.16,-259.99 857.45,-257.22 843.74,-254.75 638.6,-217.76 395.03,-178.12 280.48,-159.73"/>
<polygon fill="#63b8ff" stroke="#63b8ff" points="885.01,-266.22 895.49,-264.67 886.33,-259.34 885.01,-266.22"/>
</a>
</g>
</g>
<!-- Node23&#45;&gt;Node5 -->
<g id="edge28_Node000023_Node000005" class="edge">
<title>Node23&#45;&gt;Node5</title>
<g id="a_edge28_Node000023_Node000005"><a xlink:title=" ">
<path fill="none" stroke="#63b8ff" d="M947.41,-188.37C947.75,-178.18 948.16,-166.26 948.43,-158.28"/>
<polygon fill="#63b8ff" stroke="#63b8ff" points="943.88,-188.07 947.04,-198.18 950.88,-188.31 943.88,-188.07"/>
</a>
</g>
</g>
<!-- Node24&#45;&gt;Node8 -->
<g id="edge30_Node000024_Node000008" class="edge">
<title>Node24&#45;&gt;Node8</title>
<g id="a_edge30_Node000024_Node000008"><a xlink:title=" ">
<path fill="none" stroke="#63b8ff" d="M175.52,-127.75C148.24,-114.18 113.11,-96.71 92.06,-86.24"/>
<polygon fill="#63b8ff" stroke="#63b8ff" points="173.67,-131.23 184.18,-132.55 176.78,-124.96 173.67,-131.23"/>
</a>
</g>
</g>
<!-- Node24&#45;&gt;Node9 -->
<g id="edge31_Node000024_Node000009" class="edge">
<title>Node24&#45;&gt;Node9</title>
<g id="a_edge31_Node000024_Node000009"><a xlink:title=" ">
<path fill="none" stroke="#63b8ff" d="M138.28,-138.58C86.26,-130.92 24.02,-117.7 7.74,-97 -3.73,-82.41 -0.96,-71.64 7.74,-55.25 16.62,-38.51 34.9,-26.91 49.97,-19.74"/>
<polygon fill="#63b8ff" stroke="#63b8ff" points="137.48,-142.14 147.87,-140.08 138.46,-135.21 137.48,-142.14"/>
</a>
</g>
</g>
<!-- Node24&#45;&gt;Node15 -->
<g id="edge32_Node000024_Node000015" class="edge">
<title>Node24&#45;&gt;Node15</title>
<g id="a_edge32_Node000024_Node000015"><a xlink:title=" ">
<path fill="none" stroke="#63b8ff" d="M214.74,-121.93C214.74,-111.75 214.74,-100.38 214.74,-91.64"/>
<polygon fill="#63b8ff" stroke="#63b8ff" points="211.24,-121.72 214.74,-131.72 218.24,-121.72 211.24,-121.72"/>
</a>
</g>
</g>
</g>
</svg>

<g id="navigator" transform="translate(0 0)" fill="#404254">
  <rect fill="#f2f5e9" fill-opacity="0.5" stroke="#606060" stroke-width=".5" x="0" y="0" width="60" height="60"/>
  <use id="zoomplus" xlink:href="#zoomPlus" x="17" y="9" onmousedown="handleZoom(evt,'in')"/>
  <use id="zoomminus" xlink:href="#zoomMin" x="42" y="9" onmousedown="handleZoom(evt,'out')"/>
  <use id="reset" xlink:href="#resetDef" x="30" y="36" onmousedown="handleReset()"/>
   <use id="arrowup" xlink:href="#arrowUp" x="0" y="0" onmousedown="handlePan(0,-1)"/>
  <use id="arrowright" xlink:href="#arrowRight" x="0" y="0" onmousedown="handlePan(1,0)"/>
  <use id="arrowdown" xlink:href="#arrowDown" x="0" y="0" onmousedown="handlePan(0,1)"/>
  <use id="arrowleft" xlink:href="#arrowLeft" x="0" y="0" onmousedown="handlePan(-1,0)"/>
</g>
<svg viewBox="0 0 15 15" width="100%" height="30px" preserveAspectRatio="xMaxYMin meet">
 <g id="arrow_out" transform="scale(0.3 0.3)">
  <a xlink:href="decal-render-system_8hpp__dep__incl_org.svg" target="_base">
   <rect id="button" ry="5" rx="5" y="6" x="6" height="38" width="38"
        fill="#f2f5e9" fill-opacity="0.5" stroke="#606060" stroke-width="1.0"/>
   <path id="arrow"
     d="M 11.500037,31.436501 C 11.940474,20.09759 22.043105,11.32322 32.158766,21.979434 L 37.068811,17.246167 C 37.068811,17.246167 37.088388,32 37.088388,32 L 22.160133,31.978069 C 22.160133,31.978069 26.997745,27.140456 26.997745,27.140456 C 18.528582,18.264221 13.291696,25.230495 11.500037,31.436501 z"
     style="fill:#404040;"/>
  </a>
 </g>
</svg>

<style type='text/css'>
<![CDATA[
[data-mouse-over-selected='false'] { opacity: 0.7; }
[data-mouse-over-selected='true']  { opacity: 1.0; }
]]>
</style>
<script type="application/ecmascript"><![CDATA[
document.addEventListener('DOMContentLoaded', (event) => {
  highlightEdges();
  highlightAdjacentNodes();
});
]]></script>
</svg>
