<?xml version="1.0" encoding="UTF-8" standalone="no"?>
<!DOCTYPE svg PUBLIC "-//W3C//DTD SVG 1.1//EN"
 "http://www.w3.org/Graphics/SVG/1.1/DTD/svg11.dtd">
<!-- Generated by graphviz version 9.0.0 (20230911.1827)
 -->
<!-- Title: engine/subsystems/render/detail/decal&#45;render&#45;system.hpp Pages: 1 -->
<svg width="1909pt" height="482pt"
 viewBox="0.00 0.00 1908.92 481.50" xmlns="http://www.w3.org/2000/svg" xmlns:xlink="http://www.w3.org/1999/xlink">
<g id="graph0" class="graph" transform="scale(1 1) rotate(0) translate(4 477.5)">
<title>engine/subsystems/render/detail/decal&#45;render&#45;system.hpp</title>
<!-- Node1 -->
<g id="Node000001" class="node">
<title>Node1</title>
<g id="a_Node000001"><a xlink:title=" ">
<polygon fill="#999999" stroke="#666666" points="1575.24,-473.5 1424.24,-473.5 1424.24,-443 1575.24,-443 1575.24,-473.5"/>
<text text-anchor="start" x="1432.24" y="-460" font-family="Helvetica,sans-Serif" font-size="10.00">engine/subsystems/render</text>
<text text-anchor="middle" x="1499.74" y="-448.75" font-family="Helvetica,sans-Serif" font-size="10.00">/detail/decal&#45;render&#45;system.hpp</text>
</a>
</g>
</g>
<!-- Node2 -->
<g id="Node000002" class="node">
<title>Node2</title>
<g id="a_Node000002"><a xlink:href="../../d1/dae/renderer_8hpp.html" target="_top" xlink:title=" ">
<polygon fill="white" stroke="#666666" points="1134.11,-407 1003.36,-407 1003.36,-387.75 1134.11,-387.75 1134.11,-407"/>
<text text-anchor="middle" x="1068.74" y="-393.5" font-family="Helvetica,sans-Serif" font-size="10.00">engine/render/renderer.hpp</text>
</a>
</g>
</g>
<!-- Node1&#45;&gt;Node2 -->
<g id="edge1_Node000001_Node000002" class="edge">
<title>Node1&#45;&gt;Node2</title>
<g id="a_edge1_Node000001_Node000002"><a xlink:title=" ">
<path fill="none" stroke="#63b8ff" d="M1412.83,-445.38C1330.53,-434.14 1208.78,-417.5 1134.33,-407.34"/>
<polygon fill="#63b8ff" stroke="#63b8ff" points="1412.29,-448.84 1422.67,-446.72 1413.24,-441.9 1412.29,-448.84"/>
</a>
</g>
</g>
<!-- Node16 -->
<g id="Node000016" class="node">
<title>Node16</title>
<g id="a_Node000016"><a xlink:href="../../d8/d30/decal-render-system_8cpp.html" target="_top" xlink:title=" ">
<polygon fill="white" stroke="#666666" points="1869.24,-91.38 1718.24,-91.38 1718.24,-60.88 1869.24,-60.88 1869.24,-91.38"/>
<text text-anchor="start" x="1726.24" y="-77.88" font-family="Helvetica,sans-Serif" font-size="10.00">engine/subsystems/render</text>
<text text-anchor="middle" x="1793.74" y="-66.62" font-family="Helvetica,sans-Serif" font-size="10.00">/detail/decal&#45;render&#45;system.cpp</text>
</a>
</g>
</g>
<!-- Node1&#45;&gt;Node16 -->
<g id="edge42_Node000001_Node000016" class="edge">
<title>Node1&#45;&gt;Node16</title>
<g id="a_edge42_Node000001_Node000016"><a xlink:title=" ">
<path fill="none" stroke="#63b8ff" d="M1587.04,-447.16C1693.59,-432.36 1859.74,-400.14 1859.74,-343.12 1859.74,-343.12 1859.74,-343.12 1859.74,-208.12 1859.74,-161.52 1826.01,-114.61 1806.78,-91.64"/>
<polygon fill="#63b8ff" stroke="#63b8ff" points="1586.58,-443.69 1577.14,-448.5 1587.52,-450.63 1586.58,-443.69"/>
</a>
</g>
</g>
<!-- Node3 -->
<g id="Node000003" class="node">
<title>Node3</title>
<g id="a_Node000003"><a xlink:href="../../d1/d47/controller_8cpp.html" target="_top" xlink:title=" ">
<polygon fill="white" stroke="#666666" points="1107.86,-19.25 993.61,-19.25 993.61,0 1107.86,0 1107.86,-19.25"/>
<text text-anchor="middle" x="1050.74" y="-5.75" font-family="Helvetica,sans-Serif" font-size="10.00">d3d_test/controller.cpp</text>
</a>
</g>
</g>
<!-- Node2&#45;&gt;Node3 -->
<g id="edge2_Node000002_Node000003" class="edge">
<title>Node2&#45;&gt;Node3</title>
<g id="a_edge2_Node000002_Node000003"><a xlink:title=" ">
<path fill="none" stroke="#63b8ff" d="M1145.77,-395.35C1351.41,-390.56 1897.74,-363.4 1897.74,-210.12 1897.74,-210.12 1897.74,-210.12 1897.74,-147.25 1897.74,-105.5 1910.47,-82.39 1878.74,-55.25 1846.95,-28.07 1168.43,-22.61 1126.74,-19.25 1120.65,-18.76 1114.29,-18.17 1107.97,-17.52"/>
<polygon fill="#63b8ff" stroke="#63b8ff" points="1145.91,-391.85 1135.99,-395.57 1146.07,-398.85 1145.91,-391.85"/>
</a>
</g>
</g>
<!-- Node4 -->
<g id="Node000004" class="node">
<title>Node4</title>
<g id="a_Node000004"><a xlink:href="../../d5/d9b/scene_8hpp.html" target="_top" xlink:title=" ">
<polygon fill="white" stroke="#666666" points="1125.49,-351.75 1011.99,-351.75 1011.99,-332.5 1125.49,-332.5 1125.49,-351.75"/>
<text text-anchor="middle" x="1068.74" y="-338.25" font-family="Helvetica,sans-Serif" font-size="10.00">engine/core/scene.hpp</text>
</a>
</g>
</g>
<!-- Node2&#45;&gt;Node4 -->
<g id="edge3_Node000002_Node000004" class="edge">
<title>Node2&#45;&gt;Node4</title>
<g id="a_edge3_Node000002_Node000004"><a xlink:title=" ">
<path fill="none" stroke="#63b8ff" d="M1068.74,-376.13C1068.74,-367.84 1068.74,-358.67 1068.74,-352.11"/>
<polygon fill="#63b8ff" stroke="#63b8ff" points="1065.24,-376.07 1068.74,-386.07 1072.24,-376.07 1065.24,-376.07"/>
</a>
</g>
</g>
<!-- Node24 -->
<g id="Node000024" class="node">
<title>Node24</title>
<g id="a_Node000024"><a xlink:href="../../db/df9/deferred-hdr-render-pipeline_8hpp.html" target="_top" xlink:title=" ">
<polygon fill="white" stroke="#666666" points="280.11,-163.5 149.36,-163.5 149.36,-133 280.11,-133 280.11,-163.5"/>
<text text-anchor="start" x="157.36" y="-150" font-family="Helvetica,sans-Serif" font-size="10.00">engine/direct3d11/deferred</text>
<text text-anchor="middle" x="214.74" y="-138.75" font-family="Helvetica,sans-Serif" font-size="10.00">&#45;hdr&#45;render&#45;pipeline.hpp</text>
</a>
</g>
</g>
<!-- Node2&#45;&gt;Node24 -->
<g id="edge40_Node000002_Node000024" class="edge">
<title>Node2&#45;&gt;Node24</title>
<g id="a_edge40_Node000002_Node000024"><a xlink:title=" ">
<path fill="none" stroke="#63b8ff" d="M1022.39,-384.53C951.72,-366.34 812.87,-330.1 695.74,-296.5 535.19,-250.45 346.07,-191.02 260.67,-163.91"/>
<polygon fill="#63b8ff" stroke="#63b8ff" points="1021.11,-387.81 1031.67,-386.91 1022.86,-381.03 1021.11,-387.81"/>
</a>
</g>
</g>
<!-- Node26 -->
<g id="Node000026" class="node">
<title>Node26</title>
<g id="a_Node000026"><a xlink:href="../../d6/d54/renderer_8cpp.html" target="_top" xlink:title=" ">
<polygon fill="white" stroke="#666666" points="835.11,-285.25 704.36,-285.25 704.36,-266 835.11,-266 835.11,-285.25"/>
<text text-anchor="middle" x="769.74" y="-271.75" font-family="Helvetica,sans-Serif" font-size="10.00">engine/render/renderer.cpp</text>
</a>
</g>
</g>
<!-- Node2&#45;&gt;Node26 -->
<g id="edge41_Node000002_Node000026" class="edge">
<title>Node2&#45;&gt;Node26</title>
<g id="a_edge41_Node000002_Node000026"><a xlink:title=" ">
<path fill="none" stroke="#63b8ff" d="M1035.66,-383.13C974.43,-358.6 844.89,-306.73 792.47,-285.73"/>
<polygon fill="#63b8ff" stroke="#63b8ff" points="1034.27,-386.34 1044.86,-386.81 1036.88,-379.84 1034.27,-386.34"/>
</a>
</g>
</g>
<!-- Node5 -->
<g id="Node000005" class="node">
<title>Node5</title>
<g id="a_Node000005"><a xlink:href="../../de/d46/engine_8hpp.html" target="_top" xlink:title=" ">
<polygon fill="white" stroke="#666666" points="1006.61,-157.88 890.86,-157.88 890.86,-138.62 1006.61,-138.62 1006.61,-157.88"/>
<text text-anchor="middle" x="948.74" y="-144.38" font-family="Helvetica,sans-Serif" font-size="10.00">engine/core/engine.hpp</text>
</a>
</g>
</g>
<!-- Node4&#45;&gt;Node5 -->
<g id="edge4_Node000004_Node000005" class="edge">
<title>Node4&#45;&gt;Node5</title>
<g id="a_edge4_Node000004_Node000005"><a xlink:title=" ">
<path fill="none" stroke="#63b8ff" d="M1062.11,-321.13C1050.59,-287.08 1026.68,-219.57 1011.74,-199.5 998.7,-181.99 978.16,-167.16 964.1,-158.25"/>
<polygon fill="#63b8ff" stroke="#63b8ff" points="1058.78,-322.2 1065.27,-330.57 1065.41,-319.98 1058.78,-322.2"/>
</a>
</g>
</g>
<!-- Node4&#45;&gt;Node16 -->
<g id="edge35_Node000004_Node000016" class="edge">
<title>Node4&#45;&gt;Node16</title>
<g id="a_edge35_Node000004_Node000016"><a xlink:title=" ">
<path fill="none" stroke="#63b8ff" d="M1067.53,-320.64C1067.55,-301.12 1070.8,-272.2 1087.74,-254.75 1099.22,-242.92 1561.41,-132.27 1731.64,-91.83"/>
<polygon fill="#63b8ff" stroke="#63b8ff" points="1064.03,-320.74 1067.84,-330.63 1071.03,-320.52 1064.03,-320.74"/>
</a>
</g>
</g>
<!-- Node17 -->
<g id="Node000017" class="node">
<title>Node17</title>
<g id="a_Node000017"><a xlink:href="../../d1/d58/dissolution-render-system_8cpp.html" target="_top" xlink:title=" ">
<polygon fill="white" stroke="#666666" points="427.74,-97 297.74,-97 297.74,-55.25 427.74,-55.25 427.74,-97"/>
<text text-anchor="start" x="305.74" y="-83.5" font-family="Helvetica,sans-Serif" font-size="10.00">engine/subsystems/render</text>
<text text-anchor="start" x="305.74" y="-72.25" font-family="Helvetica,sans-Serif" font-size="10.00">/detail/dissolution&#45;render</text>
<text text-anchor="middle" x="362.74" y="-61" font-family="Helvetica,sans-Serif" font-size="10.00">&#45;system.cpp</text>
</a>
</g>
</g>
<!-- Node4&#45;&gt;Node17 -->
<g id="edge36_Node000004_Node000017" class="edge">
<title>Node4&#45;&gt;Node17</title>
<g id="a_edge36_Node000004_Node000017"><a xlink:title=" ">
<path fill="none" stroke="#63b8ff" d="M1000.59,-332.86C965.3,-326.52 922.46,-315.49 887.74,-296.5 864.09,-283.57 866.63,-268.99 843.74,-254.75 771.83,-210.02 541.15,-133.67 427.4,-97.41"/>
<polygon fill="#63b8ff" stroke="#63b8ff" points="999.82,-336.28 1010.26,-334.5 1000.99,-329.38 999.82,-336.28"/>
</a>
</g>
</g>
<!-- Node21 -->
<g id="Node000021" class="node">
<title>Node21</title>
<g id="a_Node000021"><a xlink:href="../../d3/dfe/particle-render-system_8cpp.html" target="_top" xlink:title=" ">
<polygon fill="white" stroke="#666666" points="1699.74,-97 1569.74,-97 1569.74,-55.25 1699.74,-55.25 1699.74,-97"/>
<text text-anchor="start" x="1577.74" y="-83.5" font-family="Helvetica,sans-Serif" font-size="10.00">engine/subsystems/render</text>
<text text-anchor="start" x="1577.74" y="-72.25" font-family="Helvetica,sans-Serif" font-size="10.00">/detail/particle&#45;render</text>
<text text-anchor="middle" x="1634.74" y="-61" font-family="Helvetica,sans-Serif" font-size="10.00">&#45;system.cpp</text>
</a>
</g>
</g>
<!-- Node4&#45;&gt;Node21 -->
<g id="edge39_Node000004_Node000021" class="edge">
<title>Node4&#45;&gt;Node21</title>
<g id="a_edge39_Node000004_Node000021"><a xlink:title=" ">
<path fill="none" stroke="#63b8ff" d="M1136.95,-338.58C1260.54,-333.4 1511.74,-320.1 1543.74,-296.5 1609.93,-247.66 1628.22,-141.72 1633.07,-97.33"/>
<polygon fill="#63b8ff" stroke="#63b8ff" points="1137.11,-335.07 1127.27,-338.98 1137.4,-342.06 1137.11,-335.07"/>
</a>
</g>
</g>
<!-- Node22 -->
<g id="Node000022" class="node">
<title>Node22</title>
<g id="a_Node000022"><a xlink:href="../../d9/d06/render-pipeline_8hpp.html" target="_top" xlink:title=" ">
<polygon fill="white" stroke="#666666" points="996.74,-290.88 896.74,-290.88 896.74,-260.38 996.74,-260.38 996.74,-290.88"/>
<text text-anchor="start" x="904.74" y="-277.38" font-family="Helvetica,sans-Serif" font-size="10.00">engine/core/layers</text>
<text text-anchor="middle" x="946.74" y="-266.12" font-family="Helvetica,sans-Serif" font-size="10.00">/render&#45;pipeline.hpp</text>
</a>
</g>
</g>
<!-- Node4&#45;&gt;Node22 -->
<g id="edge26_Node000004_Node000022" class="edge">
<title>Node4&#45;&gt;Node22</title>
<g id="a_edge26_Node000004_Node000022"><a xlink:title=" ">
<path fill="none" stroke="#63b8ff" d="M1041.48,-326.71C1021.44,-316.12 994.31,-301.77 974.21,-291.15"/>
<polygon fill="#63b8ff" stroke="#63b8ff" points="1039.7,-329.73 1050.18,-331.31 1042.97,-323.54 1039.7,-329.73"/>
</a>
</g>
</g>
<!-- Node25 -->
<g id="Node000025" class="node">
<title>Node25</title>
<g id="a_Node000025"><a xlink:href="../../d4/d7c/deferred-resolve_8cpp.html" target="_top" xlink:title=" ">
<polygon fill="white" stroke="#666666" points="1209.11,-290.88 1096.36,-290.88 1096.36,-260.38 1209.11,-260.38 1209.11,-290.88"/>
<text text-anchor="start" x="1104.36" y="-277.38" font-family="Helvetica,sans-Serif" font-size="10.00">engine/render/deferred</text>
<text text-anchor="middle" x="1152.74" y="-266.12" font-family="Helvetica,sans-Serif" font-size="10.00">&#45;resolve.cpp</text>
</a>
</g>
</g>
<!-- Node4&#45;&gt;Node25 -->
<g id="edge33_Node000004_Node000025" class="edge">
<title>Node4&#45;&gt;Node25</title>
<g id="a_edge33_Node000004_Node000025"><a xlink:title=" ">
<path fill="none" stroke="#63b8ff" d="M1089.45,-325.22C1102.99,-314.82 1120.55,-301.34 1133.74,-291.22"/>
<polygon fill="#63b8ff" stroke="#63b8ff" points="1087.42,-322.37 1081.62,-331.23 1091.68,-327.92 1087.42,-322.37"/>
</a>
</g>
</g>
<!-- Node4&#45;&gt;Node26 -->
<g id="edge34_Node000004_Node000026" class="edge">
<title>Node4&#45;&gt;Node26</title>
<g id="a_edge34_Node000004_Node000026"><a xlink:title=" ">
<path fill="none" stroke="#63b8ff" d="M1009.37,-329.86C965,-321.25 902.93,-308.81 848.74,-296.5 834.12,-293.18 818.06,-289.2 804.26,-285.68"/>
<polygon fill="#63b8ff" stroke="#63b8ff" points="1008.56,-333.27 1019.05,-331.73 1009.89,-326.39 1008.56,-333.27"/>
</a>
</g>
</g>
<!-- Node27 -->
<g id="Node000027" class="node">
<title>Node27</title>
<g id="a_Node000027"><a xlink:href="../../d8/dcb/emissive-render-system_8cpp.html" target="_top" xlink:title=" ">
<polygon fill="white" stroke="#666666" points="1356.74,-296.5 1226.74,-296.5 1226.74,-254.75 1356.74,-254.75 1356.74,-296.5"/>
<text text-anchor="start" x="1234.74" y="-283" font-family="Helvetica,sans-Serif" font-size="10.00">engine/subsystems/render</text>
<text text-anchor="start" x="1234.74" y="-271.75" font-family="Helvetica,sans-Serif" font-size="10.00">/detail/emissive&#45;render</text>
<text text-anchor="middle" x="1291.74" y="-260.5" font-family="Helvetica,sans-Serif" font-size="10.00">&#45;system.cpp</text>
</a>
</g>
</g>
<!-- Node4&#45;&gt;Node27 -->
<g id="edge37_Node000004_Node000027" class="edge">
<title>Node4&#45;&gt;Node27</title>
<g id="a_edge37_Node000004_Node000027"><a xlink:title=" ">
<path fill="none" stroke="#63b8ff" d="M1111.16,-328.86C1143.73,-319.44 1189.27,-306.26 1226.47,-295.5"/>
<polygon fill="#63b8ff" stroke="#63b8ff" points="1110.3,-325.46 1101.67,-331.6 1112.25,-332.18 1110.3,-325.46"/>
</a>
</g>
</g>
<!-- Node28 -->
<g id="Node000028" class="node">
<title>Node28</title>
<g id="a_Node000028"><a xlink:href="../../d1/d62/opaque-render-system_8cpp.html" target="_top" xlink:title=" ">
<polygon fill="white" stroke="#666666" points="1534.36,-290.88 1375.11,-290.88 1375.11,-260.38 1534.36,-260.38 1534.36,-290.88"/>
<text text-anchor="start" x="1383.11" y="-277.38" font-family="Helvetica,sans-Serif" font-size="10.00">engine/subsystems/render</text>
<text text-anchor="middle" x="1454.74" y="-266.12" font-family="Helvetica,sans-Serif" font-size="10.00">/detail/opaque&#45;render&#45;system.cpp</text>
</a>
</g>
</g>
<!-- Node4&#45;&gt;Node28 -->
<g id="edge38_Node000004_Node000028" class="edge">
<title>Node4&#45;&gt;Node28</title>
<g id="a_edge38_Node000004_Node000028"><a xlink:title=" ">
<path fill="none" stroke="#63b8ff" d="M1137.16,-332.24C1197.5,-324.07 1287.73,-311.05 1365.74,-296.5 1374.14,-294.93 1382.96,-293.14 1391.64,-291.29"/>
<polygon fill="#63b8ff" stroke="#63b8ff" points="1136.82,-328.76 1127.37,-333.56 1137.75,-335.69 1136.82,-328.76"/>
</a>
</g>
</g>
<!-- Node6 -->
<g id="Node000006" class="node">
<title>Node6</title>
<g id="a_Node000006"><a xlink:href="../../d0/d86/camera-movement_8hpp.html" target="_top" xlink:title=" ">
<polygon fill="white" stroke="#666666" points="1123.49,-85.75 967.99,-85.75 967.99,-66.5 1123.49,-66.5 1123.49,-85.75"/>
<text text-anchor="middle" x="1045.74" y="-72.25" font-family="Helvetica,sans-Serif" font-size="10.00">d3d_test/camera&#45;movement.hpp</text>
</a>
</g>
</g>
<!-- Node5&#45;&gt;Node6 -->
<g id="edge5_Node000005_Node000006" class="edge">
<title>Node5&#45;&gt;Node6</title>
<g id="a_edge5_Node000005_Node000006"><a xlink:title=" ">
<path fill="none" stroke="#63b8ff" d="M970.26,-131.69C989.61,-117.7 1017.34,-97.65 1033.25,-86.16"/>
<polygon fill="#63b8ff" stroke="#63b8ff" points="968.3,-128.79 962.25,-137.48 972.4,-134.46 968.3,-128.79"/>
</a>
</g>
</g>
<!-- Node8 -->
<g id="Node000008" class="node">
<title>Node8</title>
<g id="a_Node000008"><a xlink:href="../../dc/dfb/controller_8hpp.html" target="_top" xlink:title=" ">
<polygon fill="white" stroke="#666666" points="130.86,-85.75 16.61,-85.75 16.61,-66.5 130.86,-66.5 130.86,-85.75"/>
<text text-anchor="middle" x="73.74" y="-72.25" font-family="Helvetica,sans-Serif" font-size="10.00">d3d_test/controller.hpp</text>
</a>
</g>
</g>
<!-- Node5&#45;&gt;Node8 -->
<g id="edge8_Node000005_Node000008" class="edge">
<title>Node5&#45;&gt;Node8</title>
<g id="a_edge8_Node000005_Node000008"><a xlink:title=" ">
<path fill="none" stroke="#63b8ff" d="M879.03,-144.94C709.97,-139.02 281.7,-121.96 140.74,-97 126.76,-94.53 111.56,-90.16 99.18,-86.15"/>
<polygon fill="#63b8ff" stroke="#63b8ff" points="878.88,-148.44 889,-145.29 879.12,-141.44 878.88,-148.44"/>
</a>
</g>
</g>
<!-- Node9 -->
<g id="Node000009" class="node">
<title>Node9</title>
<g id="a_Node000009"><a xlink:href="../../d9/d0f/main_8cc.html" target="_top" xlink:title=" ">
<polygon fill="white" stroke="#666666" points="118.86,-19.25 28.61,-19.25 28.61,0 118.86,0 118.86,-19.25"/>
<text text-anchor="middle" x="73.74" y="-5.75" font-family="Helvetica,sans-Serif" font-size="10.00">d3d_test/main.cc</text>
</a>
</g>
</g>
<!-- Node5&#45;&gt;Node9 -->
<g id="edge11_Node000005_Node000009" class="edge">
<title>Node5&#45;&gt;Node9</title>
<g id="a_edge11_Node000005_Node000009"><a xlink:title=" ">
<path fill="none" stroke="#63b8ff" d="M895.42,-136.04C889.14,-134.92 882.81,-133.87 876.74,-133 787.95,-120.28 555.07,-136.89 474.74,-97 452.26,-85.84 459.02,-66.78 436.74,-55.25 382.38,-27.14 204.09,-16.06 119.31,-12.3"/>
<polygon fill="#63b8ff" stroke="#63b8ff" points="894.64,-139.46 905.12,-137.86 895.93,-132.58 894.64,-139.46"/>
</a>
</g>
</g>
<!-- Node10 -->
<g id="Node000010" class="node">
<title>Node10</title>
<g id="a_Node000010"><a xlink:href="../../da/df5/object-editor_8hpp.html" target="_top" xlink:title=" ">
<polygon fill="white" stroke="#666666" points="1269.61,-85.75 1141.86,-85.75 1141.86,-66.5 1269.61,-66.5 1269.61,-85.75"/>
<text text-anchor="middle" x="1205.74" y="-72.25" font-family="Helvetica,sans-Serif" font-size="10.00">d3d_test/object&#45;editor.hpp</text>
</a>
</g>
</g>
<!-- Node5&#45;&gt;Node10 -->
<g id="edge12_Node000005_Node000010" class="edge">
<title>Node5&#45;&gt;Node10</title>
<g id="a_edge12_Node000005_Node000010"><a xlink:title=" ">
<path fill="none" stroke="#63b8ff" d="M993.07,-135.15C1044.08,-121.24 1126.66,-98.7 1172.46,-86.2"/>
<polygon fill="#63b8ff" stroke="#63b8ff" points="992.26,-131.75 983.53,-137.76 994.1,-138.5 992.26,-131.75"/>
</a>
</g>
</g>
<!-- Node13 -->
<g id="Node000013" class="node">
<title>Node13</title>
<g id="a_Node000013"><a xlink:href="../../d9/d55/scene-viewer_8hpp.html" target="_top" xlink:title=" ">
<polygon fill="white" stroke="#666666" points="785.86,-85.75 653.61,-85.75 653.61,-66.5 785.86,-66.5 785.86,-85.75"/>
<text text-anchor="middle" x="719.74" y="-72.25" font-family="Helvetica,sans-Serif" font-size="10.00">d3d_test/scene&#45;viewer.hpp</text>
</a>
</g>
</g>
<!-- Node5&#45;&gt;Node13 -->
<g id="edge16_Node000005_Node000013" class="edge">
<title>Node5&#45;&gt;Node13</title>
<g id="a_edge16_Node000005_Node000013"><a xlink:title=" ">
<path fill="none" stroke="#63b8ff" d="M908.33,-134.88C862.84,-120.95 790.01,-98.65 749.46,-86.23"/>
<polygon fill="#63b8ff" stroke="#63b8ff" points="907.23,-138.2 917.82,-137.78 909.28,-131.51 907.23,-138.2"/>
</a>
</g>
</g>
<!-- Node14 -->
<g id="Node000014" class="node">
<title>Node14</title>
<g id="a_Node000014"><a xlink:href="../../da/d5c/engine_8cpp.html" target="_top" xlink:title=" ">
<polygon fill="white" stroke="#666666" points="1403.61,-85.75 1287.86,-85.75 1287.86,-66.5 1403.61,-66.5 1403.61,-85.75"/>
<text text-anchor="middle" x="1345.74" y="-72.25" font-family="Helvetica,sans-Serif" font-size="10.00">engine/core/engine.cpp</text>
</a>
</g>
</g>
<!-- Node5&#45;&gt;Node14 -->
<g id="edge18_Node000005_Node000014" class="edge">
<title>Node5&#45;&gt;Node14</title>
<g id="a_edge18_Node000005_Node000014"><a xlink:title=" ">
<path fill="none" stroke="#63b8ff" d="M1018.28,-139.48C1085.42,-131.31 1189.72,-116.88 1278.74,-97 1291.88,-94.06 1306.22,-89.94 1318.25,-86.21"/>
<polygon fill="#63b8ff" stroke="#63b8ff" points="1018.02,-135.98 1008.51,-140.65 1018.86,-142.93 1018.02,-135.98"/>
</a>
</g>
</g>
<!-- Node15 -->
<g id="Node000015" class="node">
<title>Node15</title>
<g id="a_Node000015"><a xlink:href="../../d1/da2/deferred-hdr-render-pipeline_8cpp.html" target="_top" xlink:title=" ">
<polygon fill="white" stroke="#666666" points="280.11,-91.38 149.36,-91.38 149.36,-60.88 280.11,-60.88 280.11,-91.38"/>
<text text-anchor="start" x="157.36" y="-77.88" font-family="Helvetica,sans-Serif" font-size="10.00">engine/direct3d11/deferred</text>
<text text-anchor="middle" x="214.74" y="-66.62" font-family="Helvetica,sans-Serif" font-size="10.00">&#45;hdr&#45;render&#45;pipeline.cpp</text>
</a>
</g>
</g>
<!-- Node5&#45;&gt;Node15 -->
<g id="edge19_Node000005_Node000015" class="edge">
<title>Node5&#45;&gt;Node15</title>
<g id="a_edge19_Node000005_Node000015"><a xlink:title=" ">
<path fill="none" stroke="#63b8ff" d="M879.2,-146.21C758.3,-143.44 501.9,-133.41 288.74,-97 280.87,-95.66 272.63,-93.85 264.61,-91.87"/>
<polygon fill="#63b8ff" stroke="#63b8ff" points="878.88,-149.7 888.95,-146.42 879.03,-142.7 878.88,-149.7"/>
</a>
</g>
</g>
<!-- Node5&#45;&gt;Node16 -->
<g id="edge20_Node000005_Node000016" class="edge">
<title>Node5&#45;&gt;Node16</title>
<g id="a_edge20_Node000005_Node000016"><a xlink:title=" ">
<path fill="none" stroke="#63b8ff" d="M1018.05,-146.45C1152.15,-144.08 1456.15,-134.62 1708.74,-97 1717.88,-95.64 1727.49,-93.8 1736.83,-91.78"/>
<polygon fill="#63b8ff" stroke="#63b8ff" points="1018.22,-142.95 1008.28,-146.62 1018.33,-149.95 1018.22,-142.95"/>
</a>
</g>
</g>
<!-- Node5&#45;&gt;Node17 -->
<g id="edge21_Node000005_Node000017" class="edge">
<title>Node5&#45;&gt;Node17</title>
<g id="a_edge21_Node000005_Node000017"><a xlink:title=" ">
<path fill="none" stroke="#63b8ff" d="M896.15,-136.13C889.63,-134.96 883.04,-133.88 876.74,-133 684.61,-106.13 633.11,-128.77 441.74,-97 437.27,-96.26 432.69,-95.39 428.09,-94.44"/>
<polygon fill="#63b8ff" stroke="#63b8ff" points="895.03,-139.48 905.51,-137.88 896.32,-132.6 895.03,-139.48"/>
</a>
</g>
</g>
<!-- Node18 -->
<g id="Node000018" class="node">
<title>Node18</title>
<g id="a_Node000018"><a xlink:href="../../d2/d11/emissive-particle-render-system_8cpp.html" target="_top" xlink:title=" ">
<polygon fill="white" stroke="#666666" points="1551.74,-97 1421.74,-97 1421.74,-55.25 1551.74,-55.25 1551.74,-97"/>
<text text-anchor="start" x="1429.74" y="-83.5" font-family="Helvetica,sans-Serif" font-size="10.00">engine/subsystems/render</text>
<text text-anchor="start" x="1429.74" y="-72.25" font-family="Helvetica,sans-Serif" font-size="10.00">/detail/emissive&#45;particle</text>
<text text-anchor="middle" x="1486.74" y="-61" font-family="Helvetica,sans-Serif" font-size="10.00">&#45;render&#45;system.cpp</text>
</a>
</g>
</g>
<!-- Node5&#45;&gt;Node18 -->
<g id="edge22_Node000005_Node000018" class="edge">
<title>Node5&#45;&gt;Node18</title>
<g id="a_edge22_Node000005_Node000018"><a xlink:title=" ">
<path fill="none" stroke="#63b8ff" d="M1018.32,-143.08C1109.5,-136.85 1274.12,-122.96 1412.74,-97 1415.61,-96.46 1418.54,-95.87 1421.49,-95.23"/>
<polygon fill="#63b8ff" stroke="#63b8ff" points="1018.28,-139.57 1008.54,-143.74 1018.75,-146.56 1018.28,-139.57"/>
</a>
</g>
</g>
<!-- Node19 -->
<g id="Node000019" class="node">
<title>Node19</title>
<g id="a_Node000019"><a xlink:href="../../df/d58/grass-render-system_8cpp.html" target="_top" xlink:title=" ">
<polygon fill="white" stroke="#666666" points="635.61,-91.38 483.86,-91.38 483.86,-60.88 635.61,-60.88 635.61,-91.38"/>
<text text-anchor="start" x="491.86" y="-77.88" font-family="Helvetica,sans-Serif" font-size="10.00">engine/subsystems/render</text>
<text text-anchor="middle" x="559.74" y="-66.62" font-family="Helvetica,sans-Serif" font-size="10.00">/detail/grass&#45;render&#45;system.cpp</text>
</a>
</g>
</g>
<!-- Node5&#45;&gt;Node19 -->
<g id="edge23_Node000005_Node000019" class="edge">
<title>Node5&#45;&gt;Node19</title>
<g id="a_edge23_Node000005_Node000019"><a xlink:title=" ">
<path fill="none" stroke="#63b8ff" d="M893.03,-135.99C887.53,-134.95 882.03,-133.93 876.74,-133 773.98,-114.87 747.17,-116.89 644.74,-97 636.7,-95.44 628.28,-93.65 619.98,-91.81"/>
<polygon fill="#63b8ff" stroke="#63b8ff" points="892.27,-139.41 902.75,-137.86 893.59,-132.53 892.27,-139.41"/>
</a>
</g>
</g>
<!-- Node20 -->
<g id="Node000020" class="node">
<title>Node20</title>
<g id="a_Node000020"><a xlink:href="../../d8/d9c/light-render-system_8cpp.html" target="_top" xlink:title=" ">
<polygon fill="white" stroke="#666666" points="949.61,-91.38 803.86,-91.38 803.86,-60.88 949.61,-60.88 949.61,-91.38"/>
<text text-anchor="start" x="811.86" y="-77.88" font-family="Helvetica,sans-Serif" font-size="10.00">engine/subsystems/render</text>
<text text-anchor="middle" x="876.74" y="-66.62" font-family="Helvetica,sans-Serif" font-size="10.00">/detail/light&#45;render&#45;system.cpp</text>
</a>
</g>
</g>
<!-- Node5&#45;&gt;Node20 -->
<g id="edge24_Node000005_Node000020" class="edge">
<title>Node5&#45;&gt;Node20</title>
<g id="a_edge24_Node000005_Node000020"><a xlink:title=" ">
<path fill="none" stroke="#63b8ff" d="M931.62,-130.58C919.51,-118.79 903.42,-103.11 891.8,-91.79"/>
<polygon fill="#63b8ff" stroke="#63b8ff" points="928.93,-132.84 938.53,-137.31 933.81,-127.83 928.93,-132.84"/>
</a>
</g>
</g>
<!-- Node5&#45;&gt;Node21 -->
<g id="edge25_Node000005_Node000021" class="edge">
<title>Node5&#45;&gt;Node21</title>
<g id="a_edge25_Node000005_Node000021"><a xlink:title=" ">
<path fill="none" stroke="#63b8ff" d="M1018.3,-145.62C1132.38,-142.03 1366.03,-130.86 1560.74,-97 1563.62,-96.5 1566.55,-95.94 1569.51,-95.33"/>
<polygon fill="#63b8ff" stroke="#63b8ff" points="1018.38,-142.11 1008.49,-145.91 1018.59,-149.11 1018.38,-142.11"/>
</a>
</g>
</g>
<!-- Node6&#45;&gt;Node3 -->
<g id="edge7_Node000006_Node000003" class="edge">
<title>Node6&#45;&gt;Node3</title>
<g id="a_edge7_Node000006_Node000003"><a xlink:title=" ">
<path fill="none" stroke="#63b8ff" d="M1047.3,-55.02C1048.22,-43.12 1049.34,-28.63 1050.05,-19.52"/>
<polygon fill="#63b8ff" stroke="#63b8ff" points="1043.83,-54.41 1046.55,-64.65 1050.81,-54.95 1043.83,-54.41"/>
</a>
</g>
</g>
<!-- Node7 -->
<g id="Node000007" class="node">
<title>Node7</title>
<g id="a_Node000007"><a xlink:href="../../d5/dbb/camera-movement_8cpp.html" target="_top" xlink:title=" ">
<polygon fill="white" stroke="#666666" points="975.49,-19.25 819.99,-19.25 819.99,0 975.49,0 975.49,-19.25"/>
<text text-anchor="middle" x="897.74" y="-5.75" font-family="Helvetica,sans-Serif" font-size="10.00">d3d_test/camera&#45;movement.cpp</text>
</a>
</g>
</g>
<!-- Node6&#45;&gt;Node7 -->
<g id="edge6_Node000006_Node000007" class="edge">
<title>Node6&#45;&gt;Node7</title>
<g id="a_edge6_Node000006_Node000007"><a xlink:title=" ">
<path fill="none" stroke="#63b8ff" d="M1014.49,-61.51C985.6,-48.92 943.48,-30.56 918.52,-19.68"/>
<polygon fill="#63b8ff" stroke="#63b8ff" points="1012.89,-64.63 1023.46,-65.42 1015.69,-58.21 1012.89,-64.63"/>
</a>
</g>
</g>
<!-- Node8&#45;&gt;Node3 -->
<g id="edge9_Node000008_Node000003" class="edge">
<title>Node8&#45;&gt;Node3</title>
<g id="a_edge9_Node000008_Node000003"><a xlink:title=" ">
<path fill="none" stroke="#63b8ff" d="M109.61,-62.72C119.57,-59.76 130.48,-56.96 140.74,-55.25 511.06,6.6 610.68,-51.61 984.74,-19.25 987.5,-19.01 990.33,-18.74 993.18,-18.45"/>
<polygon fill="#63b8ff" stroke="#63b8ff" points="108.79,-59.31 100.29,-65.63 110.88,-65.99 108.79,-59.31"/>
</a>
</g>
</g>
<!-- Node8&#45;&gt;Node9 -->
<g id="edge10_Node000008_Node000009" class="edge">
<title>Node8&#45;&gt;Node9</title>
<g id="a_edge10_Node000008_Node000009"><a xlink:title=" ">
<path fill="none" stroke="#63b8ff" d="M73.74,-54.65C73.74,-42.82 73.74,-28.54 73.74,-19.52"/>
<polygon fill="#63b8ff" stroke="#63b8ff" points="70.24,-54.64 73.74,-64.64 77.24,-54.64 70.24,-54.64"/>
</a>
</g>
</g>
<!-- Node10&#45;&gt;Node3 -->
<g id="edge13_Node000010_Node000003" class="edge">
<title>Node10&#45;&gt;Node3</title>
<g id="a_edge13_Node000010_Node000003"><a xlink:title=" ">
<path fill="none" stroke="#63b8ff" d="M1173.41,-61.67C1143.14,-49.08 1098.76,-30.61 1072.5,-19.68"/>
<polygon fill="#63b8ff" stroke="#63b8ff" points="1171.88,-64.83 1182.46,-65.44 1174.57,-58.37 1171.88,-64.83"/>
</a>
</g>
</g>
<!-- Node11 -->
<g id="Node000011" class="node">
<title>Node11</title>
<g id="a_Node000011"><a xlink:href="../../d4/d94/object-editor_8cpp.html" target="_top" xlink:title=" ">
<polygon fill="white" stroke="#666666" points="1263.61,-19.25 1135.86,-19.25 1135.86,0 1263.61,0 1263.61,-19.25"/>
<text text-anchor="middle" x="1199.74" y="-5.75" font-family="Helvetica,sans-Serif" font-size="10.00">d3d_test/object&#45;editor.cpp</text>
</a>
</g>
</g>
<!-- Node10&#45;&gt;Node11 -->
<g id="edge14_Node000010_Node000011" class="edge">
<title>Node10&#45;&gt;Node11</title>
<g id="a_edge14_Node000010_Node000011"><a xlink:title=" ">
<path fill="none" stroke="#63b8ff" d="M1203.87,-55.02C1202.76,-43.12 1201.41,-28.63 1200.56,-19.52"/>
<polygon fill="#63b8ff" stroke="#63b8ff" points="1200.35,-55.02 1204.76,-64.65 1207.32,-54.37 1200.35,-55.02"/>
</a>
</g>
</g>
<!-- Node12 -->
<g id="Node000012" class="node">
<title>Node12</title>
<g id="a_Node000012"><a xlink:href="../../d0/d38/scene-viewer_8cpp.html" target="_top" xlink:title=" ">
<polygon fill="white" stroke="#666666" points="1413.86,-19.25 1281.61,-19.25 1281.61,0 1413.86,0 1413.86,-19.25"/>
<text text-anchor="middle" x="1347.74" y="-5.75" font-family="Helvetica,sans-Serif" font-size="10.00">d3d_test/scene&#45;viewer.cpp</text>
</a>
</g>
</g>
<!-- Node10&#45;&gt;Node12 -->
<g id="edge15_Node000010_Node000012" class="edge">
<title>Node10&#45;&gt;Node12</title>
<g id="a_edge15_Node000010_Node000012"><a xlink:title=" ">
<path fill="none" stroke="#63b8ff" d="M1236.09,-61.34C1263.79,-48.75 1303.95,-30.51 1327.8,-19.68"/>
<polygon fill="#63b8ff" stroke="#63b8ff" points="1234.82,-58.07 1227.16,-65.39 1237.71,-64.45 1234.82,-58.07"/>
</a>
</g>
</g>
<!-- Node13&#45;&gt;Node3 -->
<g id="edge17_Node000013_Node000003" class="edge">
<title>Node13&#45;&gt;Node3</title>
<g id="a_edge17_Node000013_Node000003"><a xlink:title=" ">
<path fill="none" stroke="#63b8ff" d="M762.69,-63.06C773.13,-60.32 784.3,-57.54 794.74,-55.25 862.49,-40.4 941.2,-27.29 993.27,-19.19"/>
<polygon fill="#63b8ff" stroke="#63b8ff" points="761.92,-59.64 753.17,-65.61 763.73,-66.4 761.92,-59.64"/>
</a>
</g>
</g>
<!-- Node23 -->
<g id="Node000023" class="node">
<title>Node23</title>
<g id="a_Node000023"><a xlink:href="../../d4/d87/layers_8hpp.html" target="_top" xlink:title=" ">
<polygon fill="white" stroke="#666666" points="1003.11,-218.75 890.36,-218.75 890.36,-199.5 1003.11,-199.5 1003.11,-218.75"/>
<text text-anchor="middle" x="946.74" y="-205.25" font-family="Helvetica,sans-Serif" font-size="10.00">engine/core/layers.hpp</text>
</a>
</g>
</g>
<!-- Node22&#45;&gt;Node23 -->
<g id="edge27_Node000022_Node000023" class="edge">
<title>Node22&#45;&gt;Node23</title>
<g id="a_edge27_Node000022_Node000023"><a xlink:title=" ">
<path fill="none" stroke="#63b8ff" d="M946.74,-248.71C946.74,-238.14 946.74,-226.62 946.74,-218.95"/>
<polygon fill="#63b8ff" stroke="#63b8ff" points="943.24,-248.48 946.74,-258.48 950.24,-248.48 943.24,-248.48"/>
</a>
</g>
</g>
<!-- Node22&#45;&gt;Node24 -->
<g id="edge29_Node000022_Node000024" class="edge">
<title>Node22&#45;&gt;Node24</title>
<g id="a_edge29_Node000022_Node000024"><a xlink:title=" ">
<path fill="none" stroke="#63b8ff" d="M885.24,-262.5C871.59,-259.88 857.18,-257.17 843.74,-254.75 638.6,-217.76 395.03,-178.12 280.48,-159.73"/>
<polygon fill="#63b8ff" stroke="#63b8ff" points="884.52,-265.93 895,-264.39 885.85,-259.06 884.52,-265.93"/>
</a>
</g>
</g>
<!-- Node23&#45;&gt;Node5 -->
<g id="edge28_Node000023_Node000005" class="edge">
<title>Node23&#45;&gt;Node5</title>
<g id="a_edge28_Node000023_Node000005"><a xlink:title=" ">
<path fill="none" stroke="#63b8ff" d="M947.43,-187.7C947.77,-177.67 948.17,-166.08 948.43,-158.28"/>
<polygon fill="#63b8ff" stroke="#63b8ff" points="943.93,-187.56 947.09,-197.67 950.93,-187.8 943.93,-187.56"/>
</a>
</g>
</g>
<!-- Node24&#45;&gt;Node8 -->
<g id="edge30_Node000024_Node000008" class="edge">
<title>Node24&#45;&gt;Node8</title>
<g id="a_edge30_Node000024_Node000008"><a xlink:title=" ">
<path fill="none" stroke="#63b8ff" d="M175.16,-127.57C147.93,-114.02 113.02,-96.66 92.06,-86.24"/>
<polygon fill="#63b8ff" stroke="#63b8ff" points="173.31,-130.56 183.82,-131.88 176.43,-124.29 173.31,-130.56"/>
</a>
</g>
</g>
<!-- Node24&#45;&gt;Node9 -->
<g id="edge31_Node000024_Node000009" class="edge">
<title>Node24&#45;&gt;Node9</title>
<g id="a_edge31_Node000024_Node000009"><a xlink:title=" ">
<path fill="none" stroke="#63b8ff" d="M137.63,-138.48C85.74,-130.81 23.95,-117.62 7.74,-97 -3.73,-82.41 -0.96,-71.64 7.74,-55.25 16.62,-38.51 34.9,-26.91 49.97,-19.74"/>
<polygon fill="#63b8ff" stroke="#63b8ff" points="136.98,-141.93 147.37,-139.87 137.97,-135 136.98,-141.93"/>
</a>
</g>
</g>
<!-- Node24&#45;&gt;Node15 -->
<g id="edge32_Node000024_Node000015" class="edge">
<title>Node24&#45;&gt;Node15</title>
<g id="a_edge32_Node000024_Node000015"><a xlink:title=" ">
<path fill="none" stroke="#63b8ff" d="M214.74,-121.27C214.74,-111.26 214.74,-100.19 214.74,-91.64"/>
<polygon fill="#63b8ff" stroke="#63b8ff" points="211.24,-121.21 214.74,-131.21 218.24,-121.21 211.24,-121.21"/>
</a>
</g>
</g>
</g>
</svg>
