<?xml version="1.0" encoding="UTF-8" standalone="no"?>
<!DOCTYPE svg PUBLIC "-//W3C//DTD SVG 1.1//EN"
 "http://www.w3.org/Graphics/SVG/1.1/DTD/svg11.dtd">
<!-- Generated by graphviz version 8.1.0 (20230707.0739)
 -->
<!-- Title: engine::render::_emissive_detail::ModelInstance Pages: 1 -->
<!--zoomable 481 -->

<svg id="main" version="1.1" xmlns="http://www.w3.org/2000/svg" xmlns:xlink="http://www.w3.org/1999/xlink" xml:space="preserve" onload="init(evt)">
<style type="text/css"><![CDATA[
.node, .edge {opacity: 0.7;}
.node.selected, .edge.selected {opacity: 1;}
.edge:hover path { stroke: red; }
.edge:hover polygon { stroke: red; fill: red; }
]]></style>

<defs>
  <circle id="rim" cx="0" cy="0" r="7"/>
  <circle id="rim2" cx="0" cy="0" r="3.5"/>
  <g id="zoomPlus">
    <use xlink:href="#rim" fill="#404040"><set attributeName="fill" to="#808080" begin="zoomplus.mouseover" end="zoomplus.mouseout"/></use>
    <path d="M-4,0h8M0,-4v8" fill="none" stroke="white" stroke-width="1.5" pointer-events="none"/>
  </g>
  <g id="zoomMin">
    <use xlink:href="#rim" fill="#404040"><set attributeName="fill" to="#808080" begin="zoomminus.mouseover" end="zoomminus.mouseout"/></use>
    <path d="M-4,0h8" fill="none" stroke="white" stroke-width="1.5" pointer-events="none"/>
  </g>
  <g id="arrowUp" transform="translate(30 24)">
    <use xlink:href="#rim"/>
    <path pointer-events="none" fill="none" stroke="white" stroke-width="1.5" d="M0,-3.0v7 M-2.5,-0.5L0,-3.0L2.5,-0.5"/>
  </g>
  <g id="arrowRight" transform="rotate(90) translate(36 -43)">
    <use xlink:href="#rim"/>
    <path pointer-events="none" fill="none" stroke="white" stroke-width="1.5" d="M0,-3.0v7 M-2.5,-0.5L0,-3.0L2.5,-0.5"/>
  </g>
  <g id="arrowDown" transform="rotate(180) translate(-30 -48)">
    <use xlink:href="#rim"/>
    <path pointer-events="none" fill="none" stroke="white" stroke-width="1.5" d="M0,-3.0v7 M-2.5,-0.5L0,-3.0L2.5,-0.5"/>
  </g>
  <g id="arrowLeft" transform="rotate(270) translate(-36 17)">
    <use xlink:href="#rim"/>
    <path pointer-events="none" fill="none" stroke="white" stroke-width="1.5" d="M0,-3.0v7 M-2.5,-0.5L0,-3.0L2.5,-0.5"/>
  </g>
  <g id="resetDef">
    <use xlink:href="#rim2" fill="#404040"><set attributeName="fill" to="#808080" begin="reset.mouseover" end="reset.mouseout"/></use>
  </g>
</defs>
<script type="application/ecmascript">
var viewWidth = 1707;
var viewHeight = 481;
var sectionId = 'dynsection-0';
</script>
<script type="application/ecmascript" xlink:href="../../svg.min.js"/>
<svg id="graph" class="graph">
<g id="viewport">
<title>engine::render::_emissive_detail::ModelInstance</title>
<!-- Node1 -->
<g id="Node000001" class="node">
<title>Node1</title>
<g id="a_Node000001"><a xlink:title=" ">
<polygon fill="#999999" stroke="#666666" points="1698.5,-201.5 1573.75,-201.5 1573.75,-171 1698.5,-171 1698.5,-201.5"/>
<text text-anchor="start" x="1581.75" y="-188" font-family="Helvetica,sans-Serif" font-size="10.00">engine::render::_emissive</text>
<text text-anchor="middle" x="1636.12" y="-176.75" font-family="Helvetica,sans-Serif" font-size="10.00">_detail::ModelInstance</text>
</a>
</g>
</g>
<!-- Node2 -->
<g id="Node000002" class="node">
<title>Node2</title>
<g id="a_Node000002"><a xlink:href="../../dd/db5/structengine_1_1render_1_1_model.html" target="_top" xlink:title=" ">
<polygon fill="white" stroke="#666666" points="1458.25,-229.88 1351.5,-229.88 1351.5,-210.62 1458.25,-210.62 1458.25,-229.88"/>
<text text-anchor="middle" x="1404.88" y="-216.38" font-family="Helvetica,sans-Serif" font-size="10.00">engine::render::Model</text>
</a>
</g>
</g>
<!-- Node2&#45;&gt;Node1 -->
<g id="edge1_Node000001_Node000002" class="edge">
<title>Node2&#45;&gt;Node1</title>
<g id="a_edge1_Node000001_Node000002"><a xlink:title=" ">
<path fill="none" stroke="#9a32cd" stroke-dasharray="5,2" d="M1469.21,-210.86C1501.72,-206.04 1541.16,-200.19 1573.43,-195.4"/>
<polygon fill="#9a32cd" stroke="#9a32cd" points="1468.85,-207.52 1459.47,-212.45 1469.87,-214.44 1468.85,-207.52"/>
</a>
</g>
<text text-anchor="middle" x="1519" y="-210" font-family="Helvetica,sans-Serif" font-size="10.00" fill="grey"> model</text>
</g>
<!-- Node3 -->
<g id="Node000003" class="node">
<title>Node3</title>
<g id="a_Node000003"><a xlink:title=" ">
<polygon fill="white" stroke="#666666" points="718,-311.88 660,-311.88 660,-292.62 718,-292.62 718,-311.88"/>
<text text-anchor="middle" x="689" y="-298.38" font-family="Helvetica,sans-Serif" font-size="10.00">std::string</text>
</a>
</g>
</g>
<!-- Node3&#45;&gt;Node2 -->
<g id="edge2_Node000002_Node000003" class="edge">
<title>Node3&#45;&gt;Node2</title>
<g id="a_edge2_Node000002_Node000003"><a xlink:title=" ">
<path fill="none" stroke="#9a32cd" stroke-dasharray="5,2" d="M729.25,-303.93C823.24,-307.13 1068.23,-310.64 1267.5,-271.25 1310.4,-262.77 1357.6,-242.46 1383.69,-230.18"/>
<polygon fill="#9a32cd" stroke="#9a32cd" points="729.41,-300.4 719.29,-303.53 729.16,-307.39 729.41,-300.4"/>
</a>
</g>
<text text-anchor="middle" x="1089.88" y="-299" font-family="Helvetica,sans-Serif" font-size="10.00" fill="grey"> name</text>
</g>
<!-- Node16 -->
<g id="Node000016" class="node">
<title>Node16</title>
<g id="a_Node000016"><a xlink:href="../../d0/d01/structengine_1_1render_1_1_material.html" target="_top" xlink:title=" ">
<polygon fill="white" stroke="#666666" points="1040.38,-342.88 925.38,-342.88 925.38,-323.62 1040.38,-323.62 1040.38,-342.88"/>
<text text-anchor="middle" x="982.88" y="-329.38" font-family="Helvetica,sans-Serif" font-size="10.00">engine::render::Material</text>
</a>
</g>
</g>
<!-- Node3&#45;&gt;Node16 -->
<g id="edge19_Node000016_Node000003" class="edge">
<title>Node3&#45;&gt;Node16</title>
<g id="a_edge19_Node000016_Node000003"><a xlink:title=" ">
<path fill="none" stroke="#9a32cd" stroke-dasharray="5,2" d="M728.99,-306.39C779.28,-311.73 867.16,-321.07 924.93,-327.2"/>
<polygon fill="#9a32cd" stroke="#9a32cd" points="729.57,-302.83 719.25,-305.25 728.83,-309.79 729.57,-302.83"/>
</a>
</g>
<text text-anchor="middle" x="836.5" y="-325" font-family="Helvetica,sans-Serif" font-size="10.00" fill="grey"> name</text>
</g>
<!-- Node4 -->
<g id="Node000004" class="node">
<title>Node4</title>
<g id="a_Node000004"><a xlink:title=" ">
<polygon fill="white" stroke="#666666" points="534.75,-317.5 442.25,-317.5 442.25,-287 534.75,-287 534.75,-317.5"/>
<text text-anchor="start" x="450.25" y="-304" font-family="Helvetica,sans-Serif" font-size="10.00">std::basic_string&lt;</text>
<text text-anchor="middle" x="488.5" y="-292.75" font-family="Helvetica,sans-Serif" font-size="10.00"> Char &gt;</text>
</a>
</g>
</g>
<!-- Node4&#45;&gt;Node3 -->
<g id="edge3_Node000003_Node000004" class="edge">
<title>Node4&#45;&gt;Node3</title>
<g id="a_edge3_Node000003_Node000004"><a xlink:title=" ">
<path fill="none" stroke="#63b8ff" d="M545.72,-302.25C582.85,-302.25 629.96,-302.25 659.55,-302.25"/>
<polygon fill="#63b8ff" stroke="#63b8ff" points="546.04,-298.75 536.04,-302.25 546.04,-305.75 546.04,-298.75"/>
</a>
</g>
</g>
<!-- Node5 -->
<g id="Node000005" class="node">
<title>Node5</title>
<g id="a_Node000005"><a xlink:title=" ">
<polygon fill="white" stroke="#666666" points="1254,-88.5 1143.5,-88.5 1143.5,-58 1254,-58 1254,-88.5"/>
<text text-anchor="start" x="1151.5" y="-75" font-family="Helvetica,sans-Serif" font-size="10.00">std::vector&lt; engine</text>
<text text-anchor="middle" x="1198.75" y="-63.75" font-family="Helvetica,sans-Serif" font-size="10.00">::render::ModelMesh &gt;</text>
</a>
</g>
</g>
<!-- Node5&#45;&gt;Node2 -->
<g id="edge4_Node000002_Node000005" class="edge">
<title>Node5&#45;&gt;Node2</title>
<g id="a_edge4_Node000002_Node000005"><a xlink:title=" ">
<path fill="none" stroke="#9a32cd" stroke-dasharray="5,2" d="M1259.04,-93.86C1261.98,-95.54 1264.82,-97.34 1267.5,-99.25 1311.42,-130.58 1302.88,-159.17 1345.5,-192.25 1354.91,-199.56 1366.54,-205.61 1376.93,-210.2"/>
<polygon fill="#9a32cd" stroke="#9a32cd" points="1260.88,-90.36 1250.38,-88.89 1257.67,-96.58 1260.88,-90.36"/>
</a>
</g>
<text text-anchor="middle" x="1306.5" y="-176" font-family="Helvetica,sans-Serif" font-size="10.00" fill="grey"> meshes</text>
</g>
<!-- Node6 -->
<g id="Node000006" class="node">
<title>Node6</title>
<g id="a_Node000006"><a xlink:href="../../df/d91/structengine_1_1render_1_1_model_mesh.html" target="_top" xlink:title=" ">
<polygon fill="white" stroke="#666666" points="1048.25,-67.88 917.5,-67.88 917.5,-48.62 1048.25,-48.62 1048.25,-67.88"/>
<text text-anchor="middle" x="982.88" y="-54.38" font-family="Helvetica,sans-Serif" font-size="10.00">engine::render::ModelMesh</text>
</a>
</g>
</g>
<!-- Node6&#45;&gt;Node5 -->
<g id="edge5_Node000005_Node000006" class="edge">
<title>Node6&#45;&gt;Node5</title>
<g id="a_edge5_Node000005_Node000006"><a xlink:title=" ">
<path fill="none" stroke="#9a32cd" stroke-dasharray="5,2" d="M1059.46,-63.55C1087.12,-65.49 1117.86,-67.65 1143.31,-69.43"/>
<polygon fill="#9a32cd" stroke="#9a32cd" points="1059.85,-60 1049.62,-62.79 1059.36,-66.98 1059.85,-60"/>
</a>
</g>
<text text-anchor="middle" x="1089.88" y="-69" font-family="Helvetica,sans-Serif" font-size="10.00" fill="grey"> elements</text>
</g>
<!-- Node7 -->
<g id="Node000007" class="node">
<title>Node7</title>
<g id="a_Node000007"><a xlink:href="../../d1/d87/structengine_1_1render_1_1_mesh_range.html" target="_top" xlink:title=" ">
<polygon fill="white" stroke="#666666" points="755.12,-56.88 622.88,-56.88 622.88,-37.62 755.12,-37.62 755.12,-56.88"/>
<text text-anchor="middle" x="689" y="-43.38" font-family="Helvetica,sans-Serif" font-size="10.00">engine::render::MeshRange</text>
</a>
</g>
</g>
<!-- Node7&#45;&gt;Node6 -->
<g id="edge6_Node000006_Node000007" class="edge">
<title>Node7&#45;&gt;Node6</title>
<g id="a_edge6_Node000006_Node000007"><a xlink:title=" ">
<path fill="none" stroke="#9a32cd" stroke-dasharray="5,2" d="M766.07,-43.18C805.5,-41.9 854.4,-41.58 898,-45 907.11,-45.72 916.73,-46.86 926.07,-48.19"/>
<polygon fill="#9a32cd" stroke="#9a32cd" points="766.08,-39.72 756.21,-43.57 766.33,-46.71 766.08,-39.72"/>
</a>
</g>
<text text-anchor="middle" x="836.5" y="-47" font-family="Helvetica,sans-Serif" font-size="10.00" fill="grey"> mesh_range</text>
</g>
<!-- Node8 -->
<g id="Node000008" class="node">
<title>Node8</title>
<g id="a_Node000008"><a xlink:href="../../d7/d90/structengine_1_1render_1_1_mesh.html" target="_top" xlink:title=" ">
<polygon fill="white" stroke="#666666" points="540.75,-50.88 436.25,-50.88 436.25,-31.62 540.75,-31.62 540.75,-50.88"/>
<text text-anchor="middle" x="488.5" y="-37.38" font-family="Helvetica,sans-Serif" font-size="10.00">engine::render::Mesh</text>
</a>
</g>
</g>
<!-- Node8&#45;&gt;Node6 -->
<g id="edge7_Node000006_Node000008" class="edge">
<title>Node8&#45;&gt;Node6</title>
<g id="a_edge7_Node000006_Node000008"><a xlink:title=" ">
<path fill="none" stroke="#9a32cd" stroke-dasharray="5,2" d="M543.57,-28.98C567.21,-24.22 595.34,-19.35 621,-17 743.99,-5.75 776.71,-15.97 898,-39.25 911.64,-41.87 926.43,-45.09 939.75,-48.13"/>
<polygon fill="#9a32cd" stroke="#9a32cd" points="543.14,-25.7 534.06,-31.15 544.56,-32.56 543.14,-25.7"/>
</a>
</g>
<text text-anchor="middle" x="689" y="-19" font-family="Helvetica,sans-Serif" font-size="10.00" fill="grey"> mesh</text>
</g>
<!-- Node12 -->
<g id="Node000012" class="node">
<title>Node12</title>
<g id="a_Node000012"><a xlink:href="../../db/df4/classengine_1_1core_1_1_triangle_octree.html" target="_top" xlink:title=" ">
<polygon fill="white" stroke="#666666" points="757,-103.88 621,-103.88 621,-84.62 757,-84.62 757,-103.88"/>
<text text-anchor="middle" x="689" y="-90.38" font-family="Helvetica,sans-Serif" font-size="10.00">engine::core::TriangleOctree</text>
</a>
</g>
</g>
<!-- Node8&#45;&gt;Node12 -->
<g id="edge12_Node000012_Node000008" class="edge">
<title>Node8&#45;&gt;Node12</title>
<g id="a_edge12_Node000012_Node000008"><a xlink:title=" ">
<path fill="none" stroke="#9a32cd" stroke-dasharray="5,2" d="M543.52,-53.88C562.39,-58.45 583.68,-63.77 603,-69 620.39,-73.7 639.63,-79.38 655.41,-84.16"/>
<polygon fill="#9a32cd" stroke="#9a32cd" points="544.56,-50.29 534.01,-51.36 542.92,-57.1 544.56,-50.29"/>
</a>
</g>
<text text-anchor="middle" x="583.12" y="-71" font-family="Helvetica,sans-Serif" font-size="10.00" fill="grey"> m_mesh</text>
</g>
<!-- Node9 -->
<g id="Node000009" class="node">
<title>Node9</title>
<g id="a_Node000009"><a xlink:title=" ">
<polygon fill="white" stroke="#666666" points="321.5,-49.5 223.75,-49.5 223.75,-19 321.5,-19 321.5,-49.5"/>
<text text-anchor="start" x="231.75" y="-36" font-family="Helvetica,sans-Serif" font-size="10.00">std::vector&lt; engine</text>
<text text-anchor="middle" x="272.62" y="-24.75" font-family="Helvetica,sans-Serif" font-size="10.00">::render::Vertex &gt;</text>
</a>
</g>
</g>
<!-- Node9&#45;&gt;Node8 -->
<g id="edge8_Node000008_Node000009" class="edge">
<title>Node9&#45;&gt;Node8</title>
<g id="a_edge8_Node000008_Node000009"><a xlink:title=" ">
<path fill="none" stroke="#9a32cd" stroke-dasharray="5,2" d="M332.75,-33.53C357.75,-33.49 387.18,-33.8 413.75,-35 420.94,-35.32 428.51,-35.8 435.96,-36.36"/>
<polygon fill="#9a32cd" stroke="#9a32cd" points="332.95,-30.03 322.96,-33.57 332.97,-37.03 332.95,-30.03"/>
</a>
</g>
<text text-anchor="middle" x="395.38" y="-37" font-family="Helvetica,sans-Serif" font-size="10.00" fill="grey"> vertices</text>
</g>
<!-- Node10 -->
<g id="Node000010" class="node">
<title>Node10</title>
<g id="a_Node000010"><a xlink:href="../../d0/dc6/structengine_1_1render_1_1_vertex.html" target="_top" xlink:title=" ">
<polygon fill="white" stroke="#666666" points="108.25,-43.88 0,-43.88 0,-24.62 108.25,-24.62 108.25,-43.88"/>
<text text-anchor="middle" x="54.12" y="-30.38" font-family="Helvetica,sans-Serif" font-size="10.00">engine::render::Vertex</text>
</a>
</g>
</g>
<!-- Node10&#45;&gt;Node9 -->
<g id="edge9_Node000009_Node000010" class="edge">
<title>Node10&#45;&gt;Node9</title>
<g id="a_edge9_Node000009_Node000010"><a xlink:title=" ">
<path fill="none" stroke="#9a32cd" stroke-dasharray="5,2" d="M119.23,-34.25C152.63,-34.25 192.81,-34.25 223.52,-34.25"/>
<polygon fill="#9a32cd" stroke="#9a32cd" points="119.64,-30.75 109.64,-34.25 119.64,-37.75 119.64,-30.75"/>
</a>
</g>
<text text-anchor="middle" x="147.25" y="-36" font-family="Helvetica,sans-Serif" font-size="10.00" fill="grey"> elements</text>
</g>
<!-- Node11 -->
<g id="Node000011" class="node">
<title>Node11</title>
<g id="a_Node000011"><a xlink:title=" ">
<polygon fill="white" stroke="#666666" points="328.62,-95.88 216.62,-95.88 216.62,-76.62 328.62,-76.62 328.62,-95.88"/>
<text text-anchor="middle" x="272.62" y="-82.38" font-family="Helvetica,sans-Serif" font-size="10.00">std::vector&lt; uint32_t &gt;</text>
</a>
</g>
</g>
<!-- Node11&#45;&gt;Node8 -->
<g id="edge10_Node000008_Node000011" class="edge">
<title>Node11&#45;&gt;Node8</title>
<g id="a_edge10_Node000008_Node000011"><a xlink:title=" ">
<path fill="none" stroke="#9a32cd" stroke-dasharray="5,2" d="M332.27,-73.91C366.03,-66.81 407.91,-58 439.66,-51.32"/>
<polygon fill="#9a32cd" stroke="#9a32cd" points="331.69,-70.67 322.62,-76.15 333.13,-77.52 331.69,-70.67"/>
</a>
</g>
<text text-anchor="middle" x="395.38" y="-66" font-family="Helvetica,sans-Serif" font-size="10.00" fill="grey"> indices</text>
</g>
<!-- Node11&#45;&gt;Node12 -->
<g id="edge13_Node000012_Node000011" class="edge">
<title>Node11&#45;&gt;Node12</title>
<g id="a_edge13_Node000012_Node000011"><a xlink:title=" ">
<path fill="none" stroke="#9a32cd" stroke-dasharray="5,2" d="M340.07,-87.53C417.02,-89.02 543.12,-91.45 620.51,-92.95"/>
<polygon fill="#9a32cd" stroke="#9a32cd" points="340.15,-84.01 330.08,-87.32 340.01,-91.01 340.15,-84.01"/>
</a>
</g>
<text text-anchor="middle" x="488.5" y="-94" font-family="Helvetica,sans-Serif" font-size="10.00" fill="grey"> m_triangles</text>
</g>
<!-- Node12&#45;&gt;Node6 -->
<g id="edge11_Node000006_Node000012" class="edge">
<title>Node12&#45;&gt;Node6</title>
<g id="a_edge11_Node000006_Node000012"><a xlink:title=" ">
<path fill="none" stroke="#9a32cd" stroke-dasharray="5,2" d="M753.18,-82.36C760.52,-81.14 767.92,-79.99 775,-79 822.55,-72.36 876.53,-67.02 917.42,-63.42"/>
<polygon fill="#9a32cd" stroke="#9a32cd" points="752.77,-79.05 743.5,-84.17 753.94,-85.95 752.77,-79.05"/>
</a>
</g>
<text text-anchor="middle" x="836.5" y="-81" font-family="Helvetica,sans-Serif" font-size="10.00" fill="grey"> triangle_octree</text>
</g>
<!-- Node14 -->
<g id="Node000014" class="node">
<title>Node14</title>
<g id="a_Node000014"><a xlink:title=" ">
<polygon fill="white" stroke="#666666" points="1046,-164.5 919.75,-164.5 919.75,-134 1046,-134 1046,-164.5"/>
<text text-anchor="start" x="927.75" y="-151" font-family="Helvetica,sans-Serif" font-size="10.00">std::array&lt; engine</text>
<text text-anchor="middle" x="982.88" y="-139.75" font-family="Helvetica,sans-Serif" font-size="10.00">::core::TriangleOctree, 8 &gt;</text>
</a>
</g>
</g>
<!-- Node12&#45;&gt;Node14 -->
<g id="edge16_Node000014_Node000012" class="edge">
<title>Node12&#45;&gt;Node14</title>
<g id="a_edge16_Node000014_Node000012"><a xlink:title=" ">
<path fill="none" stroke="#9a32cd" stroke-dasharray="5,2" d="M732.49,-107.39C745.99,-111.25 761.04,-115.25 775,-118.25 823.11,-128.6 878.25,-136.68 919.49,-141.99"/>
<polygon fill="#9a32cd" stroke="#9a32cd" points="733.63,-103.78 723.05,-104.33 731.67,-110.5 733.63,-103.78"/>
</a>
</g>
<text text-anchor="middle" x="836.5" y="-141" font-family="Helvetica,sans-Serif" font-size="10.00" fill="grey"> elements</text>
</g>
<!-- Node13 -->
<g id="Node000013" class="node">
<title>Node13</title>
<g id="a_Node000013"><a xlink:title=" ">
<polygon fill="white" stroke="#666666" points="1254.38,-150.12 1143.12,-150.12 1143.12,-108.38 1254.38,-108.38 1254.38,-150.12"/>
<text text-anchor="start" x="1151.12" y="-136.62" font-family="Helvetica,sans-Serif" font-size="10.00">std::unique_ptr&lt; std</text>
<text text-anchor="start" x="1151.12" y="-125.38" font-family="Helvetica,sans-Serif" font-size="10.00">::array&lt; engine::core</text>
<text text-anchor="middle" x="1198.75" y="-114.12" font-family="Helvetica,sans-Serif" font-size="10.00">::TriangleOctree, 8 &gt; &gt;</text>
</a>
</g>
</g>
<!-- Node13&#45;&gt;Node12 -->
<g id="edge14_Node000012_Node000013" class="edge">
<title>Node13&#45;&gt;Node12</title>
<g id="a_edge14_Node000012_Node000013"><a xlink:title=" ">
<path fill="none" stroke="#9a32cd" stroke-dasharray="5,2" d="M1131.92,-121.79C1106.3,-119.06 1076.68,-116.13 1049.75,-114 947.95,-105.97 829.69,-100.15 757.36,-96.99"/>
<polygon fill="#9a32cd" stroke="#9a32cd" points="1131.32,-125.35 1141.64,-122.94 1132.07,-118.39 1131.32,-125.35"/>
</a>
</g>
<text text-anchor="middle" x="982.88" y="-116" font-family="Helvetica,sans-Serif" font-size="10.00" fill="grey"> m_children</text>
</g>
<!-- Node14&#45;&gt;Node13 -->
<g id="edge15_Node000013_Node000014" class="edge">
<title>Node14&#45;&gt;Node13</title>
<g id="a_edge15_Node000013_Node000014"><a xlink:title=" ">
<path fill="none" stroke="#9a32cd" stroke-dasharray="5,2" d="M1056.91,-142.42C1085.07,-139.79 1116.72,-136.83 1142.87,-134.38"/>
<polygon fill="#9a32cd" stroke="#9a32cd" points="1056.94,-139 1047.31,-143.41 1057.59,-145.97 1056.94,-139"/>
</a>
</g>
<text text-anchor="middle" x="1089.88" y="-143" font-family="Helvetica,sans-Serif" font-size="10.00" fill="grey"> ptr</text>
</g>
<!-- Node15 -->
<g id="Node000015" class="node">
<title>Node15</title>
<g id="a_Node000015"><a xlink:title=" ">
<polygon fill="white" stroke="#666666" points="1247.62,-348.5 1149.88,-348.5 1149.88,-318 1247.62,-318 1247.62,-348.5"/>
<text text-anchor="start" x="1157.88" y="-335" font-family="Helvetica,sans-Serif" font-size="10.00">std::vector&lt; engine</text>
<text text-anchor="middle" x="1198.75" y="-323.75" font-family="Helvetica,sans-Serif" font-size="10.00">::render::Material &gt;</text>
</a>
</g>
</g>
<!-- Node15&#45;&gt;Node2 -->
<g id="edge17_Node000002_Node000015" class="edge">
<title>Node15&#45;&gt;Node2</title>
<g id="a_edge17_Node000002_Node000015"><a xlink:title=" ">
<path fill="none" stroke="#9a32cd" stroke-dasharray="5,2" d="M1258.95,-327.47C1281.54,-323.36 1306.82,-316.31 1327.5,-304.25 1359.85,-285.38 1386.25,-248.25 1397.71,-230.36"/>
<polygon fill="#9a32cd" stroke="#9a32cd" points="1258.4,-324.18 1249.11,-329.27 1259.54,-331.09 1258.4,-324.18"/>
</a>
</g>
<text text-anchor="middle" x="1306.5" y="-322" font-family="Helvetica,sans-Serif" font-size="10.00" fill="grey"> materials</text>
</g>
<!-- Node16&#45;&gt;Node15 -->
<g id="edge18_Node000015_Node000016" class="edge">
<title>Node16&#45;&gt;Node15</title>
<g id="a_edge18_Node000015_Node000016"><a xlink:title=" ">
<path fill="none" stroke="#9a32cd" stroke-dasharray="5,2" d="M1051.63,-333.25C1083.41,-333.25 1120.56,-333.25 1149.44,-333.25"/>
<polygon fill="#9a32cd" stroke="#9a32cd" points="1051.63,-329.75 1041.63,-333.25 1051.63,-336.75 1051.63,-329.75"/>
</a>
</g>
<text text-anchor="middle" x="1089.88" y="-335" font-family="Helvetica,sans-Serif" font-size="10.00" fill="grey"> elements</text>
</g>
<!-- Node17 -->
<g id="Node000017" class="node">
<title>Node17</title>
<g id="a_Node000017"><a xlink:title=" ">
<polygon fill="white" stroke="#666666" points="755.12,-372.5 622.88,-372.5 622.88,-342 755.12,-342 755.12,-372.5"/>
<text text-anchor="start" x="630.88" y="-359" font-family="Helvetica,sans-Serif" font-size="10.00">std::vector&lt; ID3D11Shader</text>
<text text-anchor="middle" x="689" y="-347.75" font-family="Helvetica,sans-Serif" font-size="10.00">ResourceView * &gt;</text>
</a>
</g>
</g>
<!-- Node17&#45;&gt;Node16 -->
<g id="edge20_Node000016_Node000017" class="edge">
<title>Node17&#45;&gt;Node16</title>
<g id="a_edge20_Node000016_Node000017"><a xlink:title=" ">
<path fill="none" stroke="#9a32cd" stroke-dasharray="5,2" d="M766.2,-350.98C815.89,-346.9 879.68,-341.65 924.97,-337.93"/>
<polygon fill="#9a32cd" stroke="#9a32cd" points="766.18,-347.56 756.5,-351.86 766.76,-354.53 766.18,-347.56"/>
</a>
</g>
<text text-anchor="middle" x="836.5" y="-463.5" font-family="Helvetica,sans-Serif" font-size="10.00" fill="grey"> ambient_occlusion_textures</text>
<text text-anchor="middle" x="836.5" y="-452.25" font-family="Helvetica,sans-Serif" font-size="10.00" fill="grey">ambient_textures</text>
<text text-anchor="middle" x="836.5" y="-441" font-family="Helvetica,sans-Serif" font-size="10.00" fill="grey">base_color_textures</text>
<text text-anchor="middle" x="836.5" y="-429.75" font-family="Helvetica,sans-Serif" font-size="10.00" fill="grey">clearcoat_textures</text>
<text text-anchor="middle" x="836.5" y="-418.5" font-family="Helvetica,sans-Serif" font-size="10.00" fill="grey">diffuse_roughness_textures</text>
<text text-anchor="middle" x="836.5" y="-407.25" font-family="Helvetica,sans-Serif" font-size="10.00" fill="grey">diffuse_textures</text>
<text text-anchor="middle" x="836.5" y="-396" font-family="Helvetica,sans-Serif" font-size="10.00" fill="grey">displacement_textures</text>
<text text-anchor="middle" x="836.5" y="-384.75" font-family="Helvetica,sans-Serif" font-size="10.00" fill="grey">emission_color_textures</text>
<text text-anchor="middle" x="836.5" y="-373.5" font-family="Helvetica,sans-Serif" font-size="10.00" fill="grey">emissive_textures</text>
<text text-anchor="middle" x="836.5" y="-362.25" font-family="Helvetica,sans-Serif" font-size="10.00" fill="grey">height_textures</text>
<text text-anchor="middle" x="836.5" y="-351" font-family="Helvetica,sans-Serif" font-size="10.00" fill="grey">...</text>
</g>
<!-- Node18 -->
<g id="Node000018" class="node">
<title>Node18</title>
<g id="a_Node000018"><a xlink:href="../../d0/dc3/classengine_1_1direct3d_1_1_immutable_vertex_buffer.html" target="_top" xlink:title=" ">
<polygon fill="white" stroke="#666666" points="1267.5,-214.12 1130,-214.12 1130,-172.38 1267.5,-172.38 1267.5,-214.12"/>
<text text-anchor="start" x="1138" y="-200.62" font-family="Helvetica,sans-Serif" font-size="10.00">engine::direct3d::Immutable</text>
<text text-anchor="start" x="1138" y="-189.38" font-family="Helvetica,sans-Serif" font-size="10.00">VertexBuffer&lt; engine::render</text>
<text text-anchor="middle" x="1198.75" y="-178.12" font-family="Helvetica,sans-Serif" font-size="10.00">::Vertex &gt;</text>
</a>
</g>
</g>
<!-- Node18&#45;&gt;Node2 -->
<g id="edge21_Node000002_Node000018" class="edge">
<title>Node18&#45;&gt;Node2</title>
<g id="a_edge21_Node000002_Node000018"><a xlink:title=" ">
<path fill="none" stroke="#9a32cd" stroke-dasharray="5,2" d="M1278.45,-198.31C1294.71,-199.79 1311.7,-201.66 1327.5,-204 1338.5,-205.63 1350.28,-207.88 1361.23,-210.19"/>
<polygon fill="#9a32cd" stroke="#9a32cd" points="1279.16,-194.77 1268.89,-197.39 1278.55,-201.74 1279.16,-194.77"/>
</a>
</g>
<text text-anchor="middle" x="1306.5" y="-205" font-family="Helvetica,sans-Serif" font-size="10.00" fill="grey"> vertices</text>
</g>
<!-- Node19 -->
<g id="Node000019" class="node">
<title>Node19</title>
<g id="a_Node000019"><a xlink:href="../../d3/d29/classengine_1_1direct3d_1_1_immutable_buffer.html" target="_top" xlink:title="The immutable buffer class.">
<polygon fill="white" stroke="#666666" points="1049.75,-213.5 916,-213.5 916,-183 1049.75,-183 1049.75,-213.5"/>
<text text-anchor="start" x="924" y="-200" font-family="Helvetica,sans-Serif" font-size="10.00">engine::direct3d::Immutable</text>
<text text-anchor="middle" x="982.88" y="-188.75" font-family="Helvetica,sans-Serif" font-size="10.00">Buffer&lt; T &gt;</text>
</a>
</g>
</g>
<!-- Node19&#45;&gt;Node18 -->
<g id="edge22_Node000018_Node000019" class="edge">
<title>Node19&#45;&gt;Node18</title>
<g id="a_edge22_Node000018_Node000019"><a xlink:title=" ">
<path fill="none" stroke="#63b8ff" d="M1060.94,-196.45C1083.4,-195.92 1107.77,-195.35 1129.64,-194.84"/>
<polygon fill="#63b8ff" stroke="#63b8ff" points="1061,-192.97 1051.08,-196.7 1061.16,-199.97 1061,-192.97"/>
</a>
</g>
</g>
<!-- Node20 -->
<g id="Node000020" class="node">
<title>Node20</title>
<g id="a_Node000020"><a xlink:href="../../d9/db4/classengine_1_1direct3d_1_1_buffer_base.html" target="_top" xlink:title="Buffer Base class that contains the common functions for all the buffers.">
<polygon fill="white" stroke="#666666" points="745.75,-240.5 632.25,-240.5 632.25,-210 745.75,-210 745.75,-240.5"/>
<text text-anchor="start" x="640.25" y="-227" font-family="Helvetica,sans-Serif" font-size="10.00">engine::direct3d::Buffer</text>
<text text-anchor="middle" x="689" y="-215.75" font-family="Helvetica,sans-Serif" font-size="10.00">Base&lt; T &gt;</text>
</a>
</g>
</g>
<!-- Node20&#45;&gt;Node19 -->
<g id="edge23_Node000019_Node000020" class="edge">
<title>Node20&#45;&gt;Node19</title>
<g id="a_edge23_Node000019_Node000020"><a xlink:title=" ">
<path fill="none" stroke="#8b1a1a" d="M756.75,-219.08C804.38,-214.67 868.15,-208.77 915.66,-204.38"/>
<polygon fill="#8b1a1a" stroke="#8b1a1a" points="756.57,-215.67 746.93,-220.08 757.21,-222.64 756.57,-215.67"/>
</a>
</g>
</g>
<!-- Node24 -->
<g id="Node000024" class="node">
<title>Node24</title>
<g id="a_Node000024"><a xlink:href="../../d3/d29/classengine_1_1direct3d_1_1_immutable_buffer.html" target="_top" xlink:title="The immutable buffer class.">
<polygon fill="white" stroke="#666666" points="1049.75,-262.5 916,-262.5 916,-232 1049.75,-232 1049.75,-262.5"/>
<text text-anchor="start" x="924" y="-249" font-family="Helvetica,sans-Serif" font-size="10.00">engine::direct3d::Immutable</text>
<text text-anchor="middle" x="982.88" y="-237.75" font-family="Helvetica,sans-Serif" font-size="10.00">Buffer&lt; T &gt;</text>
</a>
</g>
</g>
<!-- Node20&#45;&gt;Node24 -->
<g id="edge28_Node000024_Node000020" class="edge">
<title>Node20&#45;&gt;Node24</title>
<g id="a_edge28_Node000024_Node000020"><a xlink:title=" ">
<path fill="none" stroke="#8b1a1a" d="M756.75,-230.28C804.38,-233.87 868.15,-238.68 915.66,-242.26"/>
<polygon fill="#8b1a1a" stroke="#8b1a1a" points="757.17,-226.73 746.93,-229.47 756.64,-233.71 757.17,-226.73"/>
</a>
</g>
</g>
<!-- Node21 -->
<g id="Node000021" class="node">
<title>Node21</title>
<g id="a_Node000021"><a xlink:href="../../d6/de4/classengine_1_1direct3d_1_1_buffer_wrapper.html" target="_top" xlink:title="A wrapper for a D3D11 buffer.">
<polygon fill="white" stroke="#666666" points="545.25,-240.5 431.75,-240.5 431.75,-210 545.25,-210 545.25,-240.5"/>
<text text-anchor="start" x="439.75" y="-227" font-family="Helvetica,sans-Serif" font-size="10.00">engine::direct3d::Buffer</text>
<text text-anchor="middle" x="488.5" y="-215.75" font-family="Helvetica,sans-Serif" font-size="10.00">Wrapper</text>
</a>
</g>
</g>
<!-- Node21&#45;&gt;Node20 -->
<g id="edge24_Node000020_Node000021" class="edge">
<title>Node21&#45;&gt;Node20</title>
<g id="a_edge24_Node000020_Node000021"><a xlink:title=" ">
<path fill="none" stroke="#8b1a1a" d="M556.29,-225.25C580.9,-225.25 608.5,-225.25 632.05,-225.25"/>
<polygon fill="#8b1a1a" stroke="#8b1a1a" points="556.59,-221.75 546.59,-225.25 556.59,-228.75 556.59,-221.75"/>
</a>
</g>
</g>
<!-- Node22 -->
<g id="Node000022" class="node">
<title>Node22</title>
<g id="a_Node000022"><a xlink:href="../../df/d47/classengine_1_1direct3d_1_1d3d__resource__wrapper.html" target="_top" xlink:title=" ">
<polygon fill="white" stroke="#666666" points="359,-240.5 186.25,-240.5 186.25,-210 359,-210 359,-240.5"/>
<text text-anchor="start" x="194.25" y="-227" font-family="Helvetica,sans-Serif" font-size="10.00">engine::direct3d::d3d</text>
<text text-anchor="middle" x="272.62" y="-215.75" font-family="Helvetica,sans-Serif" font-size="10.00">_resource_wrapper&lt; ID3D11Buffer &gt;</text>
</a>
</g>
</g>
<!-- Node22&#45;&gt;Node21 -->
<g id="edge25_Node000021_Node000022" class="edge">
<title>Node22&#45;&gt;Node21</title>
<g id="a_edge25_Node000021_Node000022"><a xlink:title=" ">
<path fill="none" stroke="#9a32cd" stroke-dasharray="5,2" d="M370.28,-225.25C391.25,-225.25 412.75,-225.25 431.52,-225.25"/>
<polygon fill="#9a32cd" stroke="#9a32cd" points="370.38,-221.75 360.38,-225.25 370.38,-228.75 370.38,-221.75"/>
</a>
</g>
<text text-anchor="middle" x="395.38" y="-227" font-family="Helvetica,sans-Serif" font-size="10.00" fill="grey"> buffer_</text>
</g>
<!-- Node23 -->
<g id="Node000023" class="node">
<title>Node23</title>
<g id="a_Node000023"><a xlink:href="../../db/dc4/classengine_1_1direct3d_1_1_immutable_index_buffer.html" target="_top" xlink:title=" ">
<polygon fill="white" stroke="#666666" points="1265.62,-262.5 1131.88,-262.5 1131.88,-232 1265.62,-232 1265.62,-262.5"/>
<text text-anchor="start" x="1139.88" y="-249" font-family="Helvetica,sans-Serif" font-size="10.00">engine::direct3d::Immutable</text>
<text text-anchor="middle" x="1198.75" y="-237.75" font-family="Helvetica,sans-Serif" font-size="10.00">IndexBuffer&lt; uint32_t &gt;</text>
</a>
</g>
</g>
<!-- Node23&#45;&gt;Node2 -->
<g id="edge26_Node000002_Node000023" class="edge">
<title>Node23&#45;&gt;Node2</title>
<g id="a_edge26_Node000002_Node000023"><a xlink:title=" ">
<path fill="none" stroke="#9a32cd" stroke-dasharray="5,2" d="M1276.87,-237.05C1301.66,-233.77 1328.55,-230.21 1351.17,-227.22"/>
<polygon fill="#9a32cd" stroke="#9a32cd" points="1276.48,-233.7 1267.02,-238.48 1277.4,-240.64 1276.48,-233.7"/>
</a>
</g>
<text text-anchor="middle" x="1306.5" y="-237" font-family="Helvetica,sans-Serif" font-size="10.00" fill="grey"> indices</text>
</g>
<!-- Node24&#45;&gt;Node23 -->
<g id="edge27_Node000023_Node000024" class="edge">
<title>Node24&#45;&gt;Node23</title>
<g id="a_edge27_Node000023_Node000024"><a xlink:title=" ">
<path fill="none" stroke="#63b8ff" d="M1060.89,-247.25C1084,-247.25 1109.14,-247.25 1131.49,-247.25"/>
<polygon fill="#63b8ff" stroke="#63b8ff" points="1061.08,-243.75 1051.08,-247.25 1061.08,-250.75 1061.08,-243.75"/>
</a>
</g>
</g>
<!-- Node25 -->
<g id="Node000025" class="node">
<title>Node25</title>
<g id="a_Node000025"><a xlink:title=" ">
<polygon fill="white" stroke="#666666" points="1464.25,-183.12 1345.5,-183.12 1345.5,-141.38 1464.25,-141.38 1464.25,-183.12"/>
<text text-anchor="start" x="1353.5" y="-169.62" font-family="Helvetica,sans-Serif" font-size="10.00">std::vector&lt; engine</text>
<text text-anchor="start" x="1353.5" y="-158.38" font-family="Helvetica,sans-Serif" font-size="10.00">::render::_emissive</text>
<text text-anchor="middle" x="1404.88" y="-147.12" font-family="Helvetica,sans-Serif" font-size="10.00">_detail::MeshInstance &gt;</text>
</a>
</g>
</g>
<!-- Node25&#45;&gt;Node1 -->
<g id="edge29_Node000001_Node000025" class="edge">
<title>Node25&#45;&gt;Node1</title>
<g id="a_edge29_Node000001_Node000025"><a xlink:title=" ">
<path fill="none" stroke="#9a32cd" stroke-dasharray="5,2" d="M1475.67,-166.63C1500.94,-168.51 1529.67,-170.97 1555.75,-174 1561.57,-174.68 1567.61,-175.46 1573.65,-176.3"/>
<polygon fill="#9a32cd" stroke="#9a32cd" points="1475.92,-163.07 1465.7,-165.84 1475.42,-170.05 1475.92,-163.07"/>
</a>
</g>
<text text-anchor="middle" x="1519" y="-175" font-family="Helvetica,sans-Serif" font-size="10.00" fill="grey"> mesh_instances</text>
</g>
<!-- Node26 -->
<g id="Node000026" class="node">
<title>Node26</title>
<g id="a_Node000026"><a xlink:href="../../d3/d44/structengine_1_1render_1_1__emissive__detail_1_1_mesh_instance.html" target="_top" xlink:title=" ">
<polygon fill="white" stroke="#666666" points="1261.12,-36.5 1136.38,-36.5 1136.38,-6 1261.12,-6 1261.12,-36.5"/>
<text text-anchor="start" x="1144.38" y="-23" font-family="Helvetica,sans-Serif" font-size="10.00">engine::render::_emissive</text>
<text text-anchor="middle" x="1198.75" y="-11.75" font-family="Helvetica,sans-Serif" font-size="10.00">_detail::MeshInstance</text>
</a>
</g>
</g>
<!-- Node26&#45;&gt;Node25 -->
<g id="edge30_Node000025_Node000026" class="edge">
<title>Node26&#45;&gt;Node25</title>
<g id="a_edge30_Node000025_Node000026"><a xlink:title=" ">
<path fill="none" stroke="#9a32cd" stroke-dasharray="5,2" d="M1253.01,-41.45C1258.01,-43.88 1262.92,-46.49 1267.5,-49.25 1312.02,-76.05 1357.19,-116.71 1382.75,-141.25"/>
<polygon fill="#9a32cd" stroke="#9a32cd" points="1254.89,-38 1244.34,-36.99 1251.96,-44.36 1254.89,-38"/>
</a>
</g>
<text text-anchor="middle" x="1306.5" y="-94" font-family="Helvetica,sans-Serif" font-size="10.00" fill="grey"> elements</text>
</g>
<!-- Node27 -->
<g id="Node000027" class="node">
<title>Node27</title>
<g id="a_Node000027"><a xlink:title=" ">
<polygon fill="white" stroke="#666666" points="1028,-30.5 937.75,-30.5 937.75,0 1028,0 1028,-30.5"/>
<text text-anchor="start" x="945.75" y="-17" font-family="Helvetica,sans-Serif" font-size="10.00">std::vector&lt; entt::</text>
<text text-anchor="middle" x="982.88" y="-5.75" font-family="Helvetica,sans-Serif" font-size="10.00">entity &gt;</text>
</a>
</g>
</g>
<!-- Node27&#45;&gt;Node26 -->
<g id="edge31_Node000026_Node000027" class="edge">
<title>Node27&#45;&gt;Node26</title>
<g id="a_edge31_Node000026_Node000027"><a xlink:title=" ">
<path fill="none" stroke="#9a32cd" stroke-dasharray="5,2" d="M1039.06,-16.8C1068.79,-17.63 1105.55,-18.66 1136.2,-19.52"/>
<polygon fill="#9a32cd" stroke="#9a32cd" points="1039.54,-13.28 1029.45,-16.5 1039.35,-20.28 1039.54,-13.28"/>
</a>
</g>
<text text-anchor="middle" x="1089.88" y="-21" font-family="Helvetica,sans-Serif" font-size="10.00" fill="grey"> instances</text>
</g>
</g>
</svg>

<g id="navigator" transform="translate(0 0)" fill="#404254">
  <rect fill="#f2f5e9" fill-opacity="0.5" stroke="#606060" stroke-width=".5" x="0" y="0" width="60" height="60"/>
  <use id="zoomplus" xlink:href="#zoomPlus" x="17" y="9" onmousedown="handleZoom(evt,'in')"/>
  <use id="zoomminus" xlink:href="#zoomMin" x="42" y="9" onmousedown="handleZoom(evt,'out')"/>
  <use id="reset" xlink:href="#resetDef" x="30" y="36" onmousedown="handleReset()"/>
   <use id="arrowup" xlink:href="#arrowUp" x="0" y="0" onmousedown="handlePan(0,-1)"/>
  <use id="arrowright" xlink:href="#arrowRight" x="0" y="0" onmousedown="handlePan(1,0)"/>
  <use id="arrowdown" xlink:href="#arrowDown" x="0" y="0" onmousedown="handlePan(0,1)"/>
  <use id="arrowleft" xlink:href="#arrowLeft" x="0" y="0" onmousedown="handlePan(-1,0)"/>
</g>
<svg viewBox="0 0 15 15" width="100%" height="30px" preserveAspectRatio="xMaxYMin meet">
 <g id="arrow_out" transform="scale(0.3 0.3)">
  <a xlink:href="structengine_1_1render_1_1__emissive__detail_1_1_model_instance__coll__graph_org.svg" target="_base">
   <rect id="button" ry="5" rx="5" y="6" x="6" height="38" width="38"
        fill="#f2f5e9" fill-opacity="0.5" stroke="#606060" stroke-width="1.0"/>
   <path id="arrow"
     d="M 11.500037,31.436501 C 11.940474,20.09759 22.043105,11.32322 32.158766,21.979434 L 37.068811,17.246167 C 37.068811,17.246167 37.088388,32 37.088388,32 L 22.160133,31.978069 C 22.160133,31.978069 26.997745,27.140456 26.997745,27.140456 C 18.528582,18.264221 13.291696,25.230495 11.500037,31.436501 z"
     style="fill:#404040;"/>
  </a>
 </g>
</svg>

<style type='text/css'>
<![CDATA[
[data-mouse-over-selected='false'] { opacity: 0.7; }
[data-mouse-over-selected='true']  { opacity: 1.0; }
]]>
</style>
<script type="application/ecmascript"><![CDATA[
document.addEventListener('DOMContentLoaded', (event) => {
  highlightEdges();
  highlightAdjacentNodes();
});
]]></script>
</svg>
