<?xml version="1.0" encoding="UTF-8" standalone="no"?>
<!DOCTYPE svg PUBLIC "-//W3C//DTD SVG 1.1//EN"
 "http://www.w3.org/Graphics/SVG/1.1/DTD/svg11.dtd">
<!-- Generated by graphviz version 8.1.0 (20230707.0739)
 -->
<!-- Title: engine::render::HDRtoLDRLayer Pages: 1 -->
<svg width="479pt" height="88pt"
 viewBox="0.00 0.00 479.00 87.50" xmlns="http://www.w3.org/2000/svg" xmlns:xlink="http://www.w3.org/1999/xlink">
<g id="graph0" class="graph" transform="scale(1 1) rotate(0) translate(4 83.5)">
<title>engine::render::HDRtoLDRLayer</title>
<!-- Node1 -->
<g id="Node000001" class="node">
<title>Node1</title>
<g id="a_Node000001"><a xlink:title=" ">
<polygon fill="#999999" stroke="#666666" points="471,-48.88 317.75,-48.88 317.75,-29.62 471,-29.62 471,-48.88"/>
<text text-anchor="middle" x="394.38" y="-35.38" font-family="Helvetica,sans-Serif" font-size="10.00">engine::render::HDRtoLDRLayer</text>
</a>
</g>
</g>
<!-- Node2 -->
<g id="Node000002" class="node">
<title>Node2</title>
<g id="a_Node000002"><a xlink:href="../../d9/d60/classengine_1_1render_1_1_post_processing_layer.html" target="_top" xlink:title=" ">
<polygon fill="white" stroke="#666666" points="281.75,-79.5 132.25,-79.5 132.25,-49 281.75,-49 281.75,-79.5"/>
<text text-anchor="start" x="140.25" y="-66" font-family="Helvetica,sans-Serif" font-size="10.00">engine::render::PostProcessing</text>
<text text-anchor="middle" x="207" y="-54.75" font-family="Helvetica,sans-Serif" font-size="10.00">Layer</text>
</a>
</g>
</g>
<!-- Node2&#45;&gt;Node1 -->
<g id="edge1_Node000001_Node000002" class="edge">
<title>Node2&#45;&gt;Node1</title>
<g id="a_edge1_Node000001_Node000002"><a xlink:title=" ">
<path fill="none" stroke="#63b8ff" d="M292.85,-52.81C301.41,-51.65 310.07,-50.48 318.52,-49.35"/>
<polygon fill="#63b8ff" stroke="#63b8ff" points="292.51,-49.46 283.06,-54.26 293.44,-56.39 292.51,-49.46"/>
</a>
</g>
</g>
<!-- Node3 -->
<g id="Node000003" class="node">
<title>Node3</title>
<g id="a_Node000003"><a xlink:href="../../d0/d04/classengine_1_1core_1_1_layer.html" target="_top" xlink:title=" ">
<polygon fill="white" stroke="#666666" points="96.25,-73.88 0,-73.88 0,-54.62 96.25,-54.62 96.25,-73.88"/>
<text text-anchor="middle" x="48.12" y="-60.38" font-family="Helvetica,sans-Serif" font-size="10.00">engine::core::Layer</text>
</a>
</g>
</g>
<!-- Node3&#45;&gt;Node2 -->
<g id="edge2_Node000002_Node000003" class="edge">
<title>Node3&#45;&gt;Node2</title>
<g id="a_edge2_Node000002_Node000003"><a xlink:title=" ">
<path fill="none" stroke="#63b8ff" d="M107.36,-64.25C115.4,-64.25 123.75,-64.25 132.02,-64.25"/>
<polygon fill="#63b8ff" stroke="#63b8ff" points="107.62,-60.75 97.62,-64.25 107.62,-67.75 107.62,-60.75"/>
</a>
</g>
</g>
<!-- Node4 -->
<g id="Node000004" class="node">
<title>Node4</title>
<g id="a_Node000004"><a xlink:href="../../d1/dee/classengine_1_1render_1_1_post_processing_layer_1_1_handle_process.html" target="_top" xlink:title=" ">
<polygon fill="white" stroke="#666666" points="281.75,-30.5 132.25,-30.5 132.25,0 281.75,0 281.75,-30.5"/>
<text text-anchor="start" x="140.25" y="-17" font-family="Helvetica,sans-Serif" font-size="10.00">engine::render::PostProcessing</text>
<text text-anchor="middle" x="207" y="-5.75" font-family="Helvetica,sans-Serif" font-size="10.00">Layer::HandleProcess</text>
</a>
</g>
</g>
<!-- Node4&#45;&gt;Node1 -->
<g id="edge3_Node000001_Node000004" class="edge">
<title>Node4&#45;&gt;Node1</title>
<g id="a_edge3_Node000001_Node000004"><a xlink:title=" ">
<path fill="none" stroke="#63b8ff" d="M292.76,-26.22C300.94,-27.28 309.21,-28.35 317.31,-29.4"/>
<polygon fill="#63b8ff" stroke="#63b8ff" points="293.43,-22.65 283.06,-24.84 292.53,-29.59 293.43,-22.65"/>
</a>
</g>
</g>
</g>
</svg>
