<?xml version="1.0" encoding="UTF-8" standalone="no"?>
<!DOCTYPE svg PUBLIC "-//W3C//DTD SVG 1.1//EN"
 "http://www.w3.org/Graphics/SVG/1.1/DTD/svg11.dtd">
<!-- Generated by graphviz version 9.0.0 (20230911.1827)
 -->
<!-- Title: engine/direct3d11/render&#45;target.hpp Pages: 1 -->
<svg width="3021pt" height="205pt"
 viewBox="0.00 0.00 3020.50 204.69" xmlns="http://www.w3.org/2000/svg" xmlns:xlink="http://www.w3.org/1999/xlink">
<g id="graph0" class="graph" transform="scale(1 1) rotate(0) translate(4 200.69)">
<title>engine/direct3d11/render&#45;target.hpp</title>
<!-- Node1 -->
<g id="Node000001" class="node">
<title>Node1</title>
<g id="a_Node000001"><a xlink:title=" ">
<polygon fill="#999999" stroke="#666666" points="1844,-196.69 1721.5,-196.69 1721.5,-166.19 1844,-166.19 1844,-196.69"/>
<text text-anchor="start" x="1729.5" y="-183.19" font-family="Helvetica,sans-Serif" font-size="10.00">engine/direct3d11/render</text>
<text text-anchor="middle" x="1782.75" y="-171.94" font-family="Helvetica,sans-Serif" font-size="10.00">&#45;target.hpp</text>
</a>
</g>
</g>
<!-- Node2 -->
<g id="Node000002" class="node">
<title>Node2</title>
<g id="a_Node000002"><a xlink:href="../../d0/dd5/d3d-common_8hpp.html" target="_top" xlink:title=" ">
<polygon fill="white" stroke="#666666" points="1803.88,-130.19 1665.62,-130.19 1665.62,-110.94 1803.88,-110.94 1803.88,-130.19"/>
<text text-anchor="middle" x="1734.75" y="-116.69" font-family="Helvetica,sans-Serif" font-size="10.00">direct3d11/d3d&#45;common.hpp</text>
</a>
</g>
</g>
<!-- Node1&#45;&gt;Node2 -->
<g id="edge1_Node000001_Node000002" class="edge">
<title>Node1&#45;&gt;Node2</title>
<g id="a_edge1_Node000001_Node000002"><a xlink:title=" ">
<path fill="none" stroke="#63b8ff" d="M1770.88,-165.89C1764.35,-157.87 1756.18,-147.86 1749.27,-139.37"/>
<polygon fill="#63b8ff" stroke="#63b8ff" points="1752.14,-137.35 1743.11,-131.81 1746.71,-141.78 1752.14,-137.35"/>
</a>
</g>
</g>
<!-- Node45 -->
<g id="Node000045" class="node">
<title>Node45</title>
<g id="a_Node000045"><a xlink:href="../../d4/d78/math_8hpp.html" target="_top" xlink:title=" ">
<polygon fill="white" stroke="#666666" points="2994.5,-19.69 2917,-19.69 2917,-0.44 2994.5,-0.44 2994.5,-19.69"/>
<text text-anchor="middle" x="2955.75" y="-6.19" font-family="Helvetica,sans-Serif" font-size="10.00">core/math.hpp</text>
</a>
</g>
</g>
<!-- Node1&#45;&gt;Node45 -->
<g id="edge48_Node000001_Node000045" class="edge">
<title>Node1&#45;&gt;Node45</title>
<g id="a_edge48_Node000001_Node000045"><a xlink:title=" ">
<path fill="none" stroke="#63b8ff" d="M1844.21,-172.54C2012.45,-150.72 2494.79,-86.92 2905.32,-20.21"/>
<polygon fill="#63b8ff" stroke="#63b8ff" points="2905.73,-23.69 2915.04,-18.62 2904.61,-16.78 2905.73,-23.69"/>
</a>
</g>
</g>
<!-- Node3 -->
<g id="Node000003" class="node">
<title>Node3</title>
<g id="a_Node000003"><a xlink:href="../../d1/d0a/d3d_8hpp.html" target="_top" xlink:title=" ">
<polygon fill="white" stroke="#666666" points="241.5,-74.94 158,-74.94 158,-55.69 241.5,-55.69 241.5,-74.94"/>
<text text-anchor="middle" x="199.75" y="-61.44" font-family="Helvetica,sans-Serif" font-size="10.00">include/d3d.hpp</text>
</a>
</g>
</g>
<!-- Node2&#45;&gt;Node3 -->
<g id="edge2_Node000002_Node000003" class="edge">
<title>Node2&#45;&gt;Node3</title>
<g id="a_edge2_Node000002_Node000003"><a xlink:title=" ">
<path fill="none" stroke="#63b8ff" d="M1665.31,-117.15C1404.29,-108.1 484.98,-76.21 253.15,-68.17"/>
<polygon fill="#63b8ff" stroke="#63b8ff" points="253.31,-64.67 243.2,-67.82 253.07,-71.67 253.31,-64.67"/>
</a>
</g>
</g>
<!-- Node8 -->
<g id="Node000008" class="node">
<title>Node8</title>
<g id="a_Node000008"><a xlink:href="../../db/d6e/library-pch_8hpp.html" target="_top" xlink:title=" ">
<polygon fill="white" stroke="#666666" points="1681.75,-74.94 1569.75,-74.94 1569.75,-55.69 1681.75,-55.69 1681.75,-74.94"/>
<text text-anchor="middle" x="1625.75" y="-61.44" font-family="Helvetica,sans-Serif" font-size="10.00">include/library&#45;pch.hpp</text>
</a>
</g>
</g>
<!-- Node2&#45;&gt;Node8 -->
<g id="edge7_Node000002_Node000008" class="edge">
<title>Node2&#45;&gt;Node8</title>
<g id="a_edge7_Node000002_Node000008"><a xlink:title=" ">
<path fill="none" stroke="#63b8ff" d="M1716.26,-110.53C1699.35,-102.27 1674.06,-89.92 1654.51,-80.37"/>
<polygon fill="#63b8ff" stroke="#63b8ff" points="1656.21,-77.3 1645.69,-76.06 1653.14,-83.59 1656.21,-77.3"/>
</a>
</g>
</g>
<!-- Node46 -->
<g id="Node000046" class="node">
<title>Node46</title>
<g id="a_Node000046"><a xlink:href="../../de/df7/typedefs_8hpp.html" target="_top" xlink:title=" ">
<polygon fill="white" stroke="#666666" points="1770.12,-74.94 1699.38,-74.94 1699.38,-55.69 1770.12,-55.69 1770.12,-74.94"/>
<text text-anchor="middle" x="1734.75" y="-61.44" font-family="Helvetica,sans-Serif" font-size="10.00">typedefs.hpp</text>
</a>
</g>
</g>
<!-- Node2&#45;&gt;Node46 -->
<g id="edge46_Node000002_Node000046" class="edge">
<title>Node2&#45;&gt;Node46</title>
<g id="a_edge46_Node000002_Node000046"><a xlink:title=" ">
<path fill="none" stroke="#63b8ff" d="M1729.58,-110.77C1728.17,-104.18 1727.71,-94.9 1728.18,-86.51"/>
<polygon fill="#63b8ff" stroke="#63b8ff" points="1731.63,-87.15 1729.36,-76.8 1724.68,-86.3 1731.63,-87.15"/>
</a>
</g>
</g>
<!-- Node4 -->
<g id="Node000004" class="node">
<title>Node4</title>
<g id="a_Node000004"><a xlink:href="../../d8/d2a/win-def_8hpp.html" target="_top" xlink:title=" ">
<polygon fill="white" stroke="#666666" points="65.5,-19.69 0,-19.69 0,-0.44 65.5,-0.44 65.5,-19.69"/>
<text text-anchor="middle" x="32.75" y="-6.19" font-family="Helvetica,sans-Serif" font-size="10.00">win&#45;def.hpp</text>
</a>
</g>
</g>
<!-- Node3&#45;&gt;Node4 -->
<g id="edge3_Node000003_Node000004" class="edge">
<title>Node3&#45;&gt;Node4</title>
<g id="a_edge3_Node000003_Node000004"><a xlink:title=" ">
<path fill="none" stroke="#63b8ff" d="M171.42,-55.28C144.07,-46.56 102.43,-33.28 71.91,-23.55"/>
<polygon fill="#63b8ff" stroke="#63b8ff" points="73.25,-20.3 62.66,-20.6 71.12,-26.97 73.25,-20.3"/>
</a>
</g>
</g>
<!-- Node5 -->
<g id="Node000005" class="node">
<title>Node5</title>
<g id="a_Node000005"><a xlink:title=" ">
<polygon fill="#e0e0e0" stroke="#999999" points="143.88,-19.69 83.62,-19.69 83.62,-0.44 143.88,-0.44 143.88,-19.69"/>
<text text-anchor="middle" x="113.75" y="-6.19" font-family="Helvetica,sans-Serif" font-size="10.00">d3d11_4.h</text>
</a>
</g>
</g>
<!-- Node3&#45;&gt;Node5 -->
<g id="edge4_Node000003_Node000005" class="edge">
<title>Node3&#45;&gt;Node5</title>
<g id="a_edge4_Node000003_Node000005"><a xlink:title=" ">
<path fill="none" stroke="#63b8ff" d="M185.16,-55.28C172.31,-47.32 153.34,-35.58 138.18,-26.19"/>
<polygon fill="#63b8ff" stroke="#63b8ff" points="140.04,-23.23 129.7,-20.94 136.36,-29.18 140.04,-23.23"/>
</a>
</g>
</g>
<!-- Node6 -->
<g id="Node000006" class="node">
<title>Node6</title>
<g id="a_Node000006"><a xlink:title=" ">
<polygon fill="#e0e0e0" stroke="#999999" points="237.75,-19.69 161.75,-19.69 161.75,-0.44 237.75,-0.44 237.75,-19.69"/>
<text text-anchor="middle" x="199.75" y="-6.19" font-family="Helvetica,sans-Serif" font-size="10.00">d3dcompiler.h</text>
</a>
</g>
</g>
<!-- Node3&#45;&gt;Node6 -->
<g id="edge5_Node000003_Node000006" class="edge">
<title>Node3&#45;&gt;Node6</title>
<g id="a_edge5_Node000003_Node000006"><a xlink:title=" ">
<path fill="none" stroke="#63b8ff" d="M199.75,-55.52C199.75,-49.01 199.75,-39.86 199.75,-31.56"/>
<polygon fill="#63b8ff" stroke="#63b8ff" points="203.25,-31.56 199.75,-21.56 196.25,-31.56 203.25,-31.56"/>
</a>
</g>
</g>
<!-- Node7 -->
<g id="Node000007" class="node">
<title>Node7</title>
<g id="a_Node000007"><a xlink:href="../../d4/dfc/win-undef_8hpp.html" target="_top" xlink:title=" ">
<polygon fill="white" stroke="#666666" points="331.75,-19.69 255.75,-19.69 255.75,-0.44 331.75,-0.44 331.75,-19.69"/>
<text text-anchor="middle" x="293.75" y="-6.19" font-family="Helvetica,sans-Serif" font-size="10.00">win&#45;undef.hpp</text>
</a>
</g>
</g>
<!-- Node3&#45;&gt;Node7 -->
<g id="edge6_Node000003_Node000007" class="edge">
<title>Node3&#45;&gt;Node7</title>
<g id="a_edge6_Node000003_Node000007"><a xlink:title=" ">
<path fill="none" stroke="#63b8ff" d="M215.7,-55.28C230.01,-47.17 251.28,-35.12 268,-25.65"/>
<polygon fill="#63b8ff" stroke="#63b8ff" points="269.43,-28.86 276.41,-20.89 265.98,-22.77 269.43,-28.86"/>
</a>
</g>
</g>
<!-- Node9 -->
<g id="Node000009" class="node">
<title>Node9</title>
<g id="a_Node000009"><a xlink:title=" ">
<polygon fill="#e0e0e0" stroke="#999999" points="419.75,-19.69 349.75,-19.69 349.75,-0.44 419.75,-0.44 419.75,-19.69"/>
<text text-anchor="middle" x="384.75" y="-6.19" font-family="Helvetica,sans-Serif" font-size="10.00">entt/entt.hpp</text>
</a>
</g>
</g>
<!-- Node8&#45;&gt;Node9 -->
<g id="edge8_Node000008_Node000009" class="edge">
<title>Node8&#45;&gt;Node9</title>
<g id="a_edge8_Node000008_Node000009"><a xlink:title=" ">
<path fill="none" stroke="#63b8ff" d="M1569.34,-63.38C1366.83,-59.85 675.97,-46.23 431.52,-19.78"/>
<polygon fill="#63b8ff" stroke="#63b8ff" points="432.05,-16.32 421.72,-18.68 431.27,-23.27 432.05,-16.32"/>
</a>
</g>
</g>
<!-- Node10 -->
<g id="Node000010" class="node">
<title>Node10</title>
<g id="a_Node000010"><a xlink:title=" ">
<polygon fill="#e0e0e0" stroke="#999999" points="493.62,-19.69 437.88,-19.69 437.88,-0.44 493.62,-0.44 493.62,-19.69"/>
<text text-anchor="middle" x="465.75" y="-6.19" font-family="Helvetica,sans-Serif" font-size="10.00">algorithm</text>
</a>
</g>
</g>
<!-- Node8&#45;&gt;Node10 -->
<g id="edge9_Node000008_Node000010" class="edge">
<title>Node8&#45;&gt;Node10</title>
<g id="a_edge9_Node000008_Node000010"><a xlink:title=" ">
<path fill="none" stroke="#63b8ff" d="M1569.37,-63.53C1375.08,-60.62 733.2,-49.07 505.14,-19.87"/>
<polygon fill="#63b8ff" stroke="#63b8ff" points="505.82,-16.43 495.45,-18.57 504.9,-23.36 505.82,-16.43"/>
</a>
</g>
</g>
<!-- Node11 -->
<g id="Node000011" class="node">
<title>Node11</title>
<g id="a_Node000011"><a xlink:title=" ">
<polygon fill="#e0e0e0" stroke="#999999" points="548.25,-19.69 511.25,-19.69 511.25,-0.44 548.25,-0.44 548.25,-19.69"/>
<text text-anchor="middle" x="529.75" y="-6.19" font-family="Helvetica,sans-Serif" font-size="10.00">array</text>
</a>
</g>
</g>
<!-- Node8&#45;&gt;Node11 -->
<g id="edge10_Node000008_Node000011" class="edge">
<title>Node8&#45;&gt;Node11</title>
<g id="a_edge10_Node000008_Node000011"><a xlink:title=" ">
<path fill="none" stroke="#63b8ff" d="M1569.48,-63.87C1381.72,-62.08 776.83,-53.91 559.84,-19.45"/>
<polygon fill="#63b8ff" stroke="#63b8ff" points="560.5,-16.02 550.06,-17.83 559.35,-22.92 560.5,-16.02"/>
</a>
</g>
</g>
<!-- Node12 -->
<g id="Node000012" class="node">
<title>Node12</title>
<g id="a_Node000012"><a xlink:title=" ">
<polygon fill="#e0e0e0" stroke="#999999" points="617,-19.69 566.5,-19.69 566.5,-0.44 617,-0.44 617,-19.69"/>
<text text-anchor="middle" x="591.75" y="-6.19" font-family="Helvetica,sans-Serif" font-size="10.00">assert.h</text>
</a>
</g>
</g>
<!-- Node8&#45;&gt;Node12 -->
<g id="edge11_Node000008_Node000012" class="edge">
<title>Node8&#45;&gt;Node12</title>
<g id="a_edge11_Node000008_Node000012"><a xlink:title=" ">
<path fill="none" stroke="#63b8ff" d="M1569.33,-63.31C1389.64,-59.88 831.17,-47.34 628.37,-19.71"/>
<polygon fill="#63b8ff" stroke="#63b8ff" points="629.15,-16.29 618.76,-18.34 628.16,-23.22 629.15,-16.29"/>
</a>
</g>
</g>
<!-- Node13 -->
<g id="Node000013" class="node">
<title>Node13</title>
<g id="a_Node000013"><a xlink:title=" ">
<polygon fill="#e0e0e0" stroke="#999999" points="680.38,-19.69 635.12,-19.69 635.12,-0.44 680.38,-0.44 680.38,-19.69"/>
<text text-anchor="middle" x="657.75" y="-6.19" font-family="Helvetica,sans-Serif" font-size="10.00">chrono</text>
</a>
</g>
</g>
<!-- Node8&#45;&gt;Node13 -->
<g id="edge12_Node000008_Node000013" class="edge">
<title>Node8&#45;&gt;Node13</title>
<g id="a_edge12_Node000008_Node000013"><a xlink:title=" ">
<path fill="none" stroke="#63b8ff" d="M1569.51,-63.28C1397.82,-59.89 881.15,-47.72 691.83,-19.78"/>
<polygon fill="#63b8ff" stroke="#63b8ff" points="692.56,-16.35 682.14,-18.28 691.49,-23.27 692.56,-16.35"/>
</a>
</g>
</g>
<!-- Node14 -->
<g id="Node000014" class="node">
<title>Node14</title>
<g id="a_Node000014"><a xlink:title=" ">
<polygon fill="#e0e0e0" stroke="#999999" points="741.25,-19.69 698.25,-19.69 698.25,-0.44 741.25,-0.44 741.25,-19.69"/>
<text text-anchor="middle" x="719.75" y="-6.19" font-family="Helvetica,sans-Serif" font-size="10.00">cmath</text>
</a>
</g>
</g>
<!-- Node8&#45;&gt;Node14 -->
<g id="edge13_Node000008_Node000014" class="edge">
<title>Node8&#45;&gt;Node14</title>
<g id="a_edge13_Node000008_Node000014"><a xlink:title=" ">
<path fill="none" stroke="#63b8ff" d="M1569.35,-63.13C1405.33,-59.42 929.45,-46.74 752.77,-19.76"/>
<polygon fill="#63b8ff" stroke="#63b8ff" points="753.49,-16.33 743.07,-18.2 752.39,-23.24 753.49,-16.33"/>
</a>
</g>
</g>
<!-- Node15 -->
<g id="Node000015" class="node">
<title>Node15</title>
<g id="a_Node000015"><a xlink:title=" ">
<polygon fill="#e0e0e0" stroke="#999999" points="814.62,-19.69 758.88,-19.69 758.88,-0.44 814.62,-0.44 814.62,-19.69"/>
<text text-anchor="middle" x="786.75" y="-6.19" font-family="Helvetica,sans-Serif" font-size="10.00">concepts</text>
</a>
</g>
</g>
<!-- Node8&#45;&gt;Node15 -->
<g id="edge14_Node000008_Node000015" class="edge">
<title>Node8&#45;&gt;Node15</title>
<g id="a_edge14_Node000008_Node000015"><a xlink:title=" ">
<path fill="none" stroke="#63b8ff" d="M1569.51,-64.52C1439.95,-64.29 1110.4,-59.62 826.3,-19.78"/>
<polygon fill="#63b8ff" stroke="#63b8ff" points="826.83,-16.32 816.43,-18.38 825.84,-23.25 826.83,-16.32"/>
</a>
</g>
</g>
<!-- Node16 -->
<g id="Node000016" class="node">
<title>Node16</title>
<g id="a_Node000016"><a xlink:title=" ">
<polygon fill="#e0e0e0" stroke="#999999" points="926.75,-19.69 832.75,-19.69 832.75,-0.44 926.75,-0.44 926.75,-19.69"/>
<text text-anchor="middle" x="879.75" y="-6.19" font-family="Helvetica,sans-Serif" font-size="10.00">condition_variable</text>
</a>
</g>
</g>
<!-- Node8&#45;&gt;Node16 -->
<g id="edge15_Node000008_Node000016" class="edge">
<title>Node8&#45;&gt;Node16</title>
<g id="a_edge15_Node000008_Node000016"><a xlink:title=" ">
<path fill="none" stroke="#63b8ff" d="M1569.26,-62.35C1453.13,-57.95 1178.98,-45.67 938.49,-19.89"/>
<polygon fill="#63b8ff" stroke="#63b8ff" points="938.89,-16.41 928.57,-18.81 938.14,-23.37 938.89,-16.41"/>
</a>
</g>
</g>
<!-- Node17 -->
<g id="Node000017" class="node">
<title>Node17</title>
<g id="a_Node000017"><a xlink:title=" ">
<polygon fill="#e0e0e0" stroke="#999999" points="990.38,-19.69 945.12,-19.69 945.12,-0.44 990.38,-0.44 990.38,-19.69"/>
<text text-anchor="middle" x="967.75" y="-6.19" font-family="Helvetica,sans-Serif" font-size="10.00">cstdint</text>
</a>
</g>
</g>
<!-- Node8&#45;&gt;Node17 -->
<g id="edge16_Node000008_Node000017" class="edge">
<title>Node8&#45;&gt;Node17</title>
<g id="a_edge16_Node000008_Node000017"><a xlink:title=" ">
<path fill="none" stroke="#63b8ff" d="M1569.63,-63.91C1461.44,-62.36 1216.47,-55.08 1001.87,-19.69"/>
<polygon fill="#63b8ff" stroke="#63b8ff" points="1002.64,-16.27 992.2,-18.07 1001.48,-23.17 1002.64,-16.27"/>
</a>
</g>
</g>
<!-- Node18 -->
<g id="Node000018" class="node">
<title>Node18</title>
<g id="a_Node000018"><a xlink:title=" ">
<polygon fill="#e0e0e0" stroke="#999999" points="1053,-19.69 1008.5,-19.69 1008.5,-0.44 1053,-0.44 1053,-19.69"/>
<text text-anchor="middle" x="1030.75" y="-6.19" font-family="Helvetica,sans-Serif" font-size="10.00">cstdlib</text>
</a>
</g>
</g>
<!-- Node8&#45;&gt;Node18 -->
<g id="edge17_Node000008_Node000018" class="edge">
<title>Node8&#45;&gt;Node18</title>
<g id="a_edge17_Node000008_Node000018"><a xlink:title=" ">
<path fill="none" stroke="#63b8ff" d="M1569.26,-63.43C1469.17,-61.09 1254.13,-52.55 1064.62,-19.87"/>
<polygon fill="#63b8ff" stroke="#63b8ff" points="1065.27,-16.43 1054.81,-18.15 1064.06,-23.32 1065.27,-16.43"/>
</a>
</g>
</g>
<!-- Node19 -->
<g id="Node000019" class="node">
<title>Node19</title>
<g id="a_Node000019"><a xlink:title=" ">
<polygon fill="#e0e0e0" stroke="#999999" points="1130.5,-19.69 1071,-19.69 1071,-0.44 1130.5,-0.44 1130.5,-19.69"/>
<text text-anchor="middle" x="1100.75" y="-6.19" font-family="Helvetica,sans-Serif" font-size="10.00">filesystem</text>
</a>
</g>
</g>
<!-- Node8&#45;&gt;Node19 -->
<g id="edge18_Node000008_Node000019" class="edge">
<title>Node8&#45;&gt;Node19</title>
<g id="a_edge18_Node000008_Node000019"><a xlink:title=" ">
<path fill="none" stroke="#63b8ff" d="M1569.58,-61.58C1480.67,-56.72 1301.93,-44.81 1141.96,-20.03"/>
<polygon fill="#63b8ff" stroke="#63b8ff" points="1142.88,-16.63 1132.46,-18.53 1141.79,-23.54 1142.88,-16.63"/>
</a>
</g>
</g>
<!-- Node20 -->
<g id="Node000020" class="node">
<title>Node20</title>
<g id="a_Node000020"><a xlink:title=" ">
<polygon fill="#e0e0e0" stroke="#999999" points="1197.25,-19.69 1148.25,-19.69 1148.25,-0.44 1197.25,-0.44 1197.25,-19.69"/>
<text text-anchor="middle" x="1172.75" y="-6.19" font-family="Helvetica,sans-Serif" font-size="10.00">fstream</text>
</a>
</g>
</g>
<!-- Node8&#45;&gt;Node20 -->
<g id="edge19_Node000008_Node000020" class="edge">
<title>Node8&#45;&gt;Node20</title>
<g id="a_edge19_Node000008_Node000020"><a xlink:title=" ">
<path fill="none" stroke="#63b8ff" d="M1569.48,-60.87C1490.84,-55.51 1343.5,-43.41 1208.48,-19.74"/>
<polygon fill="#63b8ff" stroke="#63b8ff" points="1209.49,-16.36 1199.03,-18.05 1208.26,-23.25 1209.49,-16.36"/>
</a>
</g>
</g>
<!-- Node21 -->
<g id="Node000021" class="node">
<title>Node21</title>
<g id="a_Node000021"><a xlink:title=" ">
<polygon fill="#e0e0e0" stroke="#999999" points="1273.75,-19.69 1215.75,-19.69 1215.75,-0.44 1273.75,-0.44 1273.75,-19.69"/>
<text text-anchor="middle" x="1244.75" y="-6.19" font-family="Helvetica,sans-Serif" font-size="10.00">functional</text>
</a>
</g>
</g>
<!-- Node8&#45;&gt;Node21 -->
<g id="edge20_Node000008_Node000021" class="edge">
<title>Node8&#45;&gt;Node21</title>
<g id="a_edge20_Node000008_Node000021"><a xlink:title=" ">
<path fill="none" stroke="#63b8ff" d="M1569.36,-58.62C1503.51,-51.6 1391.12,-38.5 1285.35,-20.01"/>
<polygon fill="#63b8ff" stroke="#63b8ff" points="1286.1,-16.59 1275.64,-18.29 1284.88,-23.48 1286.1,-16.59"/>
</a>
</g>
</g>
<!-- Node22 -->
<g id="Node000022" class="node">
<title>Node22</title>
<g id="a_Node000022"><a xlink:title=" ">
<polygon fill="#e0e0e0" stroke="#999999" points="1341.62,-19.69 1291.88,-19.69 1291.88,-0.44 1341.62,-0.44 1341.62,-19.69"/>
<text text-anchor="middle" x="1316.75" y="-6.19" font-family="Helvetica,sans-Serif" font-size="10.00">iomanip</text>
</a>
</g>
</g>
<!-- Node8&#45;&gt;Node22 -->
<g id="edge21_Node000008_Node000022" class="edge">
<title>Node8&#45;&gt;Node22</title>
<g id="a_edge21_Node000008_Node000022"><a xlink:title=" ">
<path fill="none" stroke="#63b8ff" d="M1569.39,-56.64C1516.02,-49.05 1433.41,-36.44 1352.79,-19.96"/>
<polygon fill="#63b8ff" stroke="#63b8ff" points="1353.93,-16.62 1343.43,-18.02 1352.51,-23.48 1353.93,-16.62"/>
</a>
</g>
</g>
<!-- Node23 -->
<g id="Node000023" class="node">
<title>Node23</title>
<g id="a_Node000023"><a xlink:title=" ">
<polygon fill="#e0e0e0" stroke="#999999" points="1407.88,-19.69 1359.62,-19.69 1359.62,-0.44 1407.88,-0.44 1407.88,-19.69"/>
<text text-anchor="middle" x="1383.75" y="-6.19" font-family="Helvetica,sans-Serif" font-size="10.00">istream</text>
</a>
</g>
</g>
<!-- Node8&#45;&gt;Node23 -->
<g id="edge22_Node000008_Node000023" class="edge">
<title>Node8&#45;&gt;Node23</title>
<g id="a_edge22_Node000008_Node000023"><a xlink:title=" ">
<path fill="none" stroke="#63b8ff" d="M1580.36,-55.24C1540.34,-47.1 1480.18,-34.54 1419.21,-20.19"/>
<polygon fill="#63b8ff" stroke="#63b8ff" points="1420.24,-16.84 1409.7,-17.94 1418.62,-23.65 1420.24,-16.84"/>
</a>
</g>
</g>
<!-- Node24 -->
<g id="Node000024" class="node">
<title>Node24</title>
<g id="a_Node000024"><a xlink:title=" ">
<polygon fill="#e0e0e0" stroke="#999999" points="1465.38,-19.69 1426.12,-19.69 1426.12,-0.44 1465.38,-0.44 1465.38,-19.69"/>
<text text-anchor="middle" x="1445.75" y="-6.19" font-family="Helvetica,sans-Serif" font-size="10.00">limits</text>
</a>
</g>
</g>
<!-- Node8&#45;&gt;Node24 -->
<g id="edge23_Node000008_Node000024" class="edge">
<title>Node8&#45;&gt;Node24</title>
<g id="a_edge23_Node000008_Node000024"><a xlink:title=" ">
<path fill="none" stroke="#63b8ff" d="M1595.09,-55.27C1566.78,-46.92 1523.29,-34.07 1476.66,-20.25"/>
<polygon fill="#63b8ff" stroke="#63b8ff" points="1477.75,-16.92 1467.17,-17.44 1475.76,-23.64 1477.75,-16.92"/>
</a>
</g>
</g>
<!-- Node25 -->
<g id="Node000025" class="node">
<title>Node25</title>
<g id="a_Node000025"><a xlink:title=" ">
<polygon fill="#e0e0e0" stroke="#999999" points="1518.12,-19.69 1483.38,-19.69 1483.38,-0.44 1518.12,-0.44 1518.12,-19.69"/>
<text text-anchor="middle" x="1500.75" y="-6.19" font-family="Helvetica,sans-Serif" font-size="10.00">map</text>
</a>
</g>
</g>
<!-- Node8&#45;&gt;Node25 -->
<g id="edge24_Node000008_Node000025" class="edge">
<title>Node8&#45;&gt;Node25</title>
<g id="a_edge24_Node000008_Node000025"><a xlink:title=" ">
<path fill="none" stroke="#63b8ff" d="M1604.55,-55.28C1583.71,-46.41 1551.81,-32.81 1528.87,-23.04"/>
<polygon fill="#63b8ff" stroke="#63b8ff" points="1530.38,-19.88 1519.81,-19.18 1527.64,-26.32 1530.38,-19.88"/>
</a>
</g>
</g>
<!-- Node26 -->
<g id="Node000026" class="node">
<title>Node26</title>
<g id="a_Node000026"><a xlink:title=" ">
<polygon fill="#e0e0e0" stroke="#999999" points="1587,-19.69 1536.5,-19.69 1536.5,-0.44 1587,-0.44 1587,-19.69"/>
<text text-anchor="middle" x="1561.75" y="-6.19" font-family="Helvetica,sans-Serif" font-size="10.00">memory</text>
</a>
</g>
</g>
<!-- Node8&#45;&gt;Node26 -->
<g id="edge25_Node000008_Node000026" class="edge">
<title>Node8&#45;&gt;Node26</title>
<g id="a_edge25_Node000008_Node000026"><a xlink:title=" ">
<path fill="none" stroke="#63b8ff" d="M1614.89,-55.28C1605.64,-47.58 1592.13,-36.34 1581.04,-27.11"/>
<polygon fill="#63b8ff" stroke="#63b8ff" points="1583.54,-24.64 1573.61,-20.93 1579.06,-30.02 1583.54,-24.64"/>
</a>
</g>
</g>
<!-- Node27 -->
<g id="Node000027" class="node">
<title>Node27</title>
<g id="a_Node000027"><a xlink:title=" ">
<polygon fill="#e0e0e0" stroke="#999999" points="1646.88,-19.69 1604.62,-19.69 1604.62,-0.44 1646.88,-0.44 1646.88,-19.69"/>
<text text-anchor="middle" x="1625.75" y="-6.19" font-family="Helvetica,sans-Serif" font-size="10.00">mutex</text>
</a>
</g>
</g>
<!-- Node8&#45;&gt;Node27 -->
<g id="edge26_Node000008_Node000027" class="edge">
<title>Node8&#45;&gt;Node27</title>
<g id="a_edge26_Node000008_Node000027"><a xlink:title=" ">
<path fill="none" stroke="#63b8ff" d="M1625.75,-55.52C1625.75,-49.01 1625.75,-39.86 1625.75,-31.56"/>
<polygon fill="#63b8ff" stroke="#63b8ff" points="1629.25,-31.56 1625.75,-21.56 1622.25,-31.56 1629.25,-31.56"/>
</a>
</g>
</g>
<!-- Node28 -->
<g id="Node000028" class="node">
<title>Node28</title>
<g id="a_Node000028"><a xlink:title=" ">
<polygon fill="#e0e0e0" stroke="#999999" points="1718.5,-19.69 1665,-19.69 1665,-0.44 1718.5,-0.44 1718.5,-19.69"/>
<text text-anchor="middle" x="1691.75" y="-6.19" font-family="Helvetica,sans-Serif" font-size="10.00">numbers</text>
</a>
</g>
</g>
<!-- Node8&#45;&gt;Node28 -->
<g id="edge27_Node000008_Node000028" class="edge">
<title>Node8&#45;&gt;Node28</title>
<g id="a_edge27_Node000008_Node000028"><a xlink:title=" ">
<path fill="none" stroke="#63b8ff" d="M1636.95,-55.28C1646.49,-47.58 1660.42,-36.34 1671.86,-27.11"/>
<polygon fill="#63b8ff" stroke="#63b8ff" points="1673.96,-29.92 1679.54,-20.91 1669.56,-24.47 1673.96,-29.92"/>
</a>
</g>
</g>
<!-- Node29 -->
<g id="Node000029" class="node">
<title>Node29</title>
<g id="a_Node000029"><a xlink:title=" ">
<polygon fill="#e0e0e0" stroke="#999999" points="1787,-19.69 1736.5,-19.69 1736.5,-0.44 1787,-0.44 1787,-19.69"/>
<text text-anchor="middle" x="1761.75" y="-6.19" font-family="Helvetica,sans-Serif" font-size="10.00">numeric</text>
</a>
</g>
</g>
<!-- Node8&#45;&gt;Node29 -->
<g id="edge28_Node000008_Node000029" class="edge">
<title>Node8&#45;&gt;Node29</title>
<g id="a_edge28_Node000008_Node000029"><a xlink:title=" ">
<path fill="none" stroke="#63b8ff" d="M1648.82,-55.28C1670.51,-46.79 1703.23,-33.98 1727.88,-24.33"/>
<polygon fill="#63b8ff" stroke="#63b8ff" points="1729.12,-27.6 1737.16,-20.69 1726.57,-21.08 1729.12,-27.6"/>
</a>
</g>
</g>
<!-- Node30 -->
<g id="Node000030" class="node">
<title>Node30</title>
<g id="a_Node000030"><a xlink:title=" ">
<polygon fill="#e0e0e0" stroke="#999999" points="1854.62,-19.69 1804.88,-19.69 1804.88,-0.44 1854.62,-0.44 1854.62,-19.69"/>
<text text-anchor="middle" x="1829.75" y="-6.19" font-family="Helvetica,sans-Serif" font-size="10.00">optional</text>
</a>
</g>
</g>
<!-- Node8&#45;&gt;Node30 -->
<g id="edge29_Node000008_Node000030" class="edge">
<title>Node8&#45;&gt;Node30</title>
<g id="a_edge29_Node000008_Node000030"><a xlink:title=" ">
<path fill="none" stroke="#63b8ff" d="M1660.36,-55.28C1697.44,-45.6 1756.05,-30.3 1793.68,-20.48"/>
<polygon fill="#63b8ff" stroke="#63b8ff" points="1794.39,-23.91 1803.18,-18 1792.62,-17.14 1794.39,-23.91"/>
</a>
</g>
</g>
<!-- Node31 -->
<g id="Node000031" class="node">
<title>Node31</title>
<g id="a_Node000031"><a xlink:title=" ">
<polygon fill="#e0e0e0" stroke="#999999" points="1924.38,-19.69 1873.12,-19.69 1873.12,-0.44 1924.38,-0.44 1924.38,-19.69"/>
<text text-anchor="middle" x="1898.75" y="-6.19" font-family="Helvetica,sans-Serif" font-size="10.00">ostream</text>
</a>
</g>
</g>
<!-- Node8&#45;&gt;Node31 -->
<g id="edge30_Node000008_Node000031" class="edge">
<title>Node8&#45;&gt;Node31</title>
<g id="a_edge30_Node000008_Node000031"><a xlink:title=" ">
<path fill="none" stroke="#63b8ff" d="M1678.86,-55.24C1724.75,-47.2 1793.1,-34.75 1861.77,-20.02"/>
<polygon fill="#63b8ff" stroke="#63b8ff" points="1862.28,-23.49 1871.31,-17.95 1860.8,-16.65 1862.28,-23.49"/>
</a>
</g>
</g>
<!-- Node32 -->
<g id="Node000032" class="node">
<title>Node32</title>
<g id="a_Node000032"><a xlink:title=" ">
<polygon fill="#e0e0e0" stroke="#999999" points="2019.12,-19.69 1942.38,-19.69 1942.38,-0.44 2019.12,-0.44 2019.12,-19.69"/>
<text text-anchor="middle" x="1980.75" y="-6.19" font-family="Helvetica,sans-Serif" font-size="10.00">shared_mutex</text>
</a>
</g>
</g>
<!-- Node8&#45;&gt;Node32 -->
<g id="edge31_Node000008_Node000032" class="edge">
<title>Node8&#45;&gt;Node32</title>
<g id="a_edge31_Node000008_Node000032"><a xlink:title=" ">
<path fill="none" stroke="#63b8ff" d="M1682.05,-56.8C1741.46,-48.73 1838.12,-35.19 1930.77,-20.13"/>
<polygon fill="#63b8ff" stroke="#63b8ff" points="1931.24,-23.6 1940.55,-18.53 1930.11,-16.69 1931.24,-23.6"/>
</a>
</g>
</g>
<!-- Node33 -->
<g id="Node000033" class="node">
<title>Node33</title>
<g id="a_Node000033"><a xlink:title=" ">
<polygon fill="#e0e0e0" stroke="#999999" points="2074.25,-19.69 2037.25,-19.69 2037.25,-0.44 2074.25,-0.44 2074.25,-19.69"/>
<text text-anchor="middle" x="2055.75" y="-6.19" font-family="Helvetica,sans-Serif" font-size="10.00">span</text>
</a>
</g>
</g>
<!-- Node8&#45;&gt;Node33 -->
<g id="edge32_Node000008_Node000033" class="edge">
<title>Node8&#45;&gt;Node33</title>
<g id="a_edge32_Node000008_Node000033"><a xlink:title=" ">
<path fill="none" stroke="#63b8ff" d="M1682.11,-56.75C1685.03,-56.38 1687.92,-56.03 1690.75,-55.69 1836.66,-38.22 1878.19,-49.42 2025.63,-19.72"/>
<polygon fill="#63b8ff" stroke="#63b8ff" points="2026.32,-23.15 2035.42,-17.71 2024.92,-16.29 2026.32,-23.15"/>
</a>
</g>
</g>
<!-- Node34 -->
<g id="Node000034" class="node">
<title>Node34</title>
<g id="a_Node000034"><a xlink:title=" ">
<polygon fill="#e0e0e0" stroke="#999999" points="2143.38,-19.69 2092.12,-19.69 2092.12,-0.44 2143.38,-0.44 2143.38,-19.69"/>
<text text-anchor="middle" x="2117.75" y="-6.19" font-family="Helvetica,sans-Serif" font-size="10.00">sstream</text>
</a>
</g>
</g>
<!-- Node8&#45;&gt;Node34 -->
<g id="edge33_Node000008_Node000034" class="edge">
<title>Node8&#45;&gt;Node34</title>
<g id="a_edge33_Node000008_Node000034"><a xlink:title=" ">
<path fill="none" stroke="#63b8ff" d="M1682.1,-56.69C1685.03,-56.34 1687.92,-56.01 1690.75,-55.69 1860.96,-36.59 1908.25,-48.19 2080.58,-19.79"/>
<polygon fill="#63b8ff" stroke="#63b8ff" points="2081.07,-23.26 2090.35,-18.16 2079.91,-16.35 2081.07,-23.26"/>
</a>
</g>
</g>
<!-- Node35 -->
<g id="Node000035" class="node">
<title>Node35</title>
<g id="a_Node000035"><a xlink:title=" ">
<polygon fill="#e0e0e0" stroke="#999999" points="2219.75,-19.69 2161.75,-19.69 2161.75,-0.44 2219.75,-0.44 2219.75,-19.69"/>
<text text-anchor="middle" x="2190.75" y="-6.19" font-family="Helvetica,sans-Serif" font-size="10.00">stdexcept</text>
</a>
</g>
</g>
<!-- Node8&#45;&gt;Node35 -->
<g id="edge34_Node000008_Node000035" class="edge">
<title>Node8&#45;&gt;Node35</title>
<g id="a_edge34_Node000008_Node000035"><a xlink:title=" ">
<path fill="none" stroke="#63b8ff" d="M1682.1,-56.65C1685.02,-56.31 1687.92,-55.99 1690.75,-55.69 1891.87,-34.52 1947.14,-49.98 2150.02,-19.88"/>
<polygon fill="#63b8ff" stroke="#63b8ff" points="2150.51,-23.35 2159.88,-18.4 2149.47,-16.43 2150.51,-23.35"/>
</a>
</g>
</g>
<!-- Node36 -->
<g id="Node000036" class="node">
<title>Node36</title>
<g id="a_Node000036"><a xlink:title=" ">
<polygon fill="#e0e0e0" stroke="#999999" points="2285.5,-19.69 2238,-19.69 2238,-0.44 2285.5,-0.44 2285.5,-19.69"/>
<text text-anchor="middle" x="2261.75" y="-6.19" font-family="Helvetica,sans-Serif" font-size="10.00">stdint.h</text>
</a>
</g>
</g>
<!-- Node8&#45;&gt;Node36 -->
<g id="edge35_Node000008_Node000036" class="edge">
<title>Node8&#45;&gt;Node36</title>
<g id="a_edge35_Node000008_Node000036"><a xlink:title=" ">
<path fill="none" stroke="#63b8ff" d="M1682.09,-56.61C1685.02,-56.28 1687.92,-55.97 1690.75,-55.69 1925.6,-32.27 1990.26,-57.38 2226.69,-19.69"/>
<polygon fill="#63b8ff" stroke="#63b8ff" points="2226.9,-23.2 2236.22,-18.15 2225.79,-16.29 2226.9,-23.2"/>
</a>
</g>
</g>
<!-- Node37 -->
<g id="Node000037" class="node">
<title>Node37</title>
<g id="a_Node000037"><a xlink:title=" ">
<polygon fill="#e0e0e0" stroke="#999999" points="2343.75,-19.69 2303.75,-19.69 2303.75,-0.44 2343.75,-0.44 2343.75,-19.69"/>
<text text-anchor="middle" x="2323.75" y="-6.19" font-family="Helvetica,sans-Serif" font-size="10.00">string</text>
</a>
</g>
</g>
<!-- Node8&#45;&gt;Node37 -->
<g id="edge36_Node000008_Node000037" class="edge">
<title>Node8&#45;&gt;Node37</title>
<g id="a_edge36_Node000008_Node000037"><a xlink:title=" ">
<path fill="none" stroke="#63b8ff" d="M1682.09,-56.58C1685.02,-56.26 1687.92,-55.96 1690.75,-55.69 1954.78,-30.34 2027.91,-65.34 2292.19,-19.72"/>
<polygon fill="#63b8ff" stroke="#63b8ff" points="2292.56,-23.21 2301.8,-18.04 2291.35,-16.32 2292.56,-23.21"/>
</a>
</g>
</g>
<!-- Node38 -->
<g id="Node000038" class="node">
<title>Node38</title>
<g id="a_Node000038"><a xlink:title=" ">
<polygon fill="#e0e0e0" stroke="#999999" points="2405.25,-19.69 2362.25,-19.69 2362.25,-0.44 2405.25,-0.44 2405.25,-19.69"/>
<text text-anchor="middle" x="2383.75" y="-6.19" font-family="Helvetica,sans-Serif" font-size="10.00">thread</text>
</a>
</g>
</g>
<!-- Node8&#45;&gt;Node38 -->
<g id="edge37_Node000008_Node000038" class="edge">
<title>Node8&#45;&gt;Node38</title>
<g id="a_edge37_Node000008_Node000038"><a xlink:title=" ">
<path fill="none" stroke="#63b8ff" d="M1682.09,-56.57C1685.02,-56.25 1687.92,-55.95 1690.75,-55.69 1980.41,-28.64 2059.98,-66.48 2350.55,-19.64"/>
<polygon fill="#63b8ff" stroke="#63b8ff" points="2351.07,-23.1 2360.37,-18.03 2349.94,-16.19 2351.07,-23.1"/>
</a>
</g>
</g>
<!-- Node39 -->
<g id="Node000039" class="node">
<title>Node39</title>
<g id="a_Node000039"><a xlink:title=" ">
<polygon fill="#e0e0e0" stroke="#999999" points="2484.25,-19.69 2423.25,-19.69 2423.25,-0.44 2484.25,-0.44 2484.25,-19.69"/>
<text text-anchor="middle" x="2453.75" y="-6.19" font-family="Helvetica,sans-Serif" font-size="10.00">type_traits</text>
</a>
</g>
</g>
<!-- Node8&#45;&gt;Node39 -->
<g id="edge38_Node000008_Node000039" class="edge">
<title>Node8&#45;&gt;Node39</title>
<g id="a_edge38_Node000008_Node000039"><a xlink:title=" ">
<path fill="none" stroke="#63b8ff" d="M1682.09,-56.55C1685.02,-56.24 1687.92,-55.95 1690.75,-55.69 2007.56,-26.83 2092.87,-60.95 2411.87,-19.69"/>
<polygon fill="#63b8ff" stroke="#63b8ff" points="2411.87,-23.22 2421.33,-18.45 2410.96,-16.28 2411.87,-23.22"/>
</a>
</g>
</g>
<!-- Node40 -->
<g id="Node000040" class="node">
<title>Node40</title>
<g id="a_Node000040"><a xlink:title=" ">
<polygon fill="#e0e0e0" stroke="#999999" points="2579.5,-19.69 2502,-19.69 2502,-0.44 2579.5,-0.44 2579.5,-19.69"/>
<text text-anchor="middle" x="2540.75" y="-6.19" font-family="Helvetica,sans-Serif" font-size="10.00">unordered_set</text>
</a>
</g>
</g>
<!-- Node8&#45;&gt;Node40 -->
<g id="edge39_Node000008_Node000040" class="edge">
<title>Node8&#45;&gt;Node40</title>
<g id="a_edge39_Node000008_Node000040"><a xlink:title=" ">
<path fill="none" stroke="#63b8ff" d="M1682.09,-56.53C1685.01,-56.22 1687.92,-55.94 1690.75,-55.69 2042.43,-24.52 2136.19,-58.6 2490.16,-19.81"/>
<polygon fill="#63b8ff" stroke="#63b8ff" points="2490.46,-23.3 2500.02,-18.72 2489.69,-16.34 2490.46,-23.3"/>
</a>
</g>
</g>
<!-- Node41 -->
<g id="Node000041" class="node">
<title>Node41</title>
<g id="a_Node000041"><a xlink:title=" ">
<polygon fill="#e0e0e0" stroke="#999999" points="2642.38,-19.69 2597.12,-19.69 2597.12,-0.44 2642.38,-0.44 2642.38,-19.69"/>
<text text-anchor="middle" x="2619.75" y="-6.19" font-family="Helvetica,sans-Serif" font-size="10.00">variant</text>
</a>
</g>
</g>
<!-- Node8&#45;&gt;Node41 -->
<g id="edge40_Node000008_Node000041" class="edge">
<title>Node8&#45;&gt;Node41</title>
<g id="a_edge40_Node000008_Node000041"><a xlink:title=" ">
<path fill="none" stroke="#63b8ff" d="M1682.09,-56.52C1685.01,-56.21 1687.91,-55.93 1690.75,-55.69 2085.01,-21.7 2192.17,-80.53 2585.73,-19.81"/>
<polygon fill="#63b8ff" stroke="#63b8ff" points="2586.02,-23.3 2595.36,-18.3 2584.94,-16.39 2586.02,-23.3"/>
</a>
</g>
</g>
<!-- Node42 -->
<g id="Node000042" class="node">
<title>Node42</title>
<g id="a_Node000042"><a xlink:title=" ">
<polygon fill="#e0e0e0" stroke="#999999" points="2703.25,-19.69 2660.25,-19.69 2660.25,-0.44 2703.25,-0.44 2703.25,-19.69"/>
<text text-anchor="middle" x="2681.75" y="-6.19" font-family="Helvetica,sans-Serif" font-size="10.00">vector</text>
</a>
</g>
</g>
<!-- Node8&#45;&gt;Node42 -->
<g id="edge41_Node000008_Node000042" class="edge">
<title>Node8&#45;&gt;Node42</title>
<g id="a_edge41_Node000008_Node000042"><a xlink:title=" ">
<path fill="none" stroke="#63b8ff" d="M1682.08,-56.51C1685.01,-56.21 1687.91,-55.93 1690.75,-55.69 2112.89,-19.86 2227.7,-86.05 2648.66,-19.79"/>
<polygon fill="#63b8ff" stroke="#63b8ff" points="2649.11,-23.26 2658.44,-18.24 2648.01,-16.35 2649.11,-23.26"/>
</a>
</g>
</g>
<!-- Node43 -->
<g id="Node000043" class="node">
<title>Node43</title>
<g id="a_Node000043"><a xlink:title=" ">
<polygon fill="#e0e0e0" stroke="#999999" points="2769.88,-19.69 2721.62,-19.69 2721.62,-0.44 2769.88,-0.44 2769.88,-19.69"/>
<text text-anchor="middle" x="2745.75" y="-6.19" font-family="Helvetica,sans-Serif" font-size="10.00">random</text>
</a>
</g>
</g>
<!-- Node8&#45;&gt;Node43 -->
<g id="edge42_Node000008_Node000043" class="edge">
<title>Node8&#45;&gt;Node43</title>
<g id="a_edge42_Node000008_Node000043"><a xlink:title=" ">
<path fill="none" stroke="#63b8ff" d="M1682.08,-56.5C1685.01,-56.2 1687.91,-55.93 1690.75,-55.69 2139.91,-18.07 2261.04,-84.44 2710.02,-19.73"/>
<polygon fill="#63b8ff" stroke="#63b8ff" points="2710.48,-23.2 2719.87,-18.3 2709.47,-16.27 2710.48,-23.2"/>
</a>
</g>
</g>
<!-- Node44 -->
<g id="Node000044" class="node">
<title>Node44</title>
<g id="a_Node000044"><a xlink:href="../../de/d43/common-typedefs_8hpp.html" target="_top" xlink:title=" ">
<polygon fill="white" stroke="#666666" points="2899.38,-19.69 2788.12,-19.69 2788.12,-0.44 2899.38,-0.44 2899.38,-19.69"/>
<text text-anchor="middle" x="2843.75" y="-6.19" font-family="Helvetica,sans-Serif" font-size="10.00">common&#45;typedefs.hpp</text>
</a>
</g>
</g>
<!-- Node8&#45;&gt;Node44 -->
<g id="edge43_Node000008_Node000044" class="edge">
<title>Node8&#45;&gt;Node44</title>
<g id="a_edge43_Node000008_Node000044"><a xlink:title=" ">
<path fill="none" stroke="#63b8ff" d="M1682.08,-56.49C1685.01,-56.19 1687.91,-55.92 1690.75,-55.69 2169.16,-16.13 2294.62,-58.88 2776.32,-19.79"/>
<polygon fill="#63b8ff" stroke="#63b8ff" points="2776.58,-23.28 2786.26,-18.97 2776.01,-16.3 2776.58,-23.28"/>
</a>
</g>
</g>
<!-- Node8&#45;&gt;Node45 -->
<g id="edge44_Node000008_Node000045" class="edge">
<title>Node8&#45;&gt;Node45</title>
<g id="a_edge44_Node000008_Node000045"><a xlink:title=" ">
<path fill="none" stroke="#63b8ff" d="M1682.08,-56.48C1685.01,-56.19 1687.91,-55.92 1690.75,-55.69 2226.87,-12.31 2368.26,-75.85 2905.43,-19.88"/>
<polygon fill="#63b8ff" stroke="#63b8ff" points="2905.49,-23.4 2915.07,-18.87 2904.76,-16.44 2905.49,-23.4"/>
</a>
</g>
</g>
<!-- Node45&#45;&gt;Node45 -->
<g id="edge45_Node000045_Node000045" class="edge">
<title>Node45&#45;&gt;Node45</title>
<g id="a_edge45_Node000045_Node000045"><a xlink:title=" ">
<path fill="none" stroke="#63b8ff" d="M2985.53,-20.17C2999.86,-21.42 3012.5,-18.05 3012.5,-10.06 3012.5,-4.32 3005.97,-0.97 2996.97,0"/>
<polygon fill="#63b8ff" stroke="#63b8ff" points="2997.06,3.5 2987.04,0.04 2997.03,-3.5 2997.06,3.5"/>
</a>
</g>
</g>
<!-- Node46&#45;&gt;Node2 -->
<g id="edge47_Node000046_Node000002" class="edge">
<title>Node46&#45;&gt;Node2</title>
<g id="a_edge47_Node000046_Node000002"><a xlink:title=" ">
<path fill="none" stroke="#63b8ff" d="M1739.96,-75.3C1741.35,-81.94 1741.8,-91.24 1741.31,-99.61"/>
<polygon fill="#63b8ff" stroke="#63b8ff" points="1737.87,-98.91 1740.1,-109.27 1744.81,-99.78 1737.87,-98.91"/>
</a>
</g>
</g>
</g>
</svg>
