<?xml version="1.0" encoding="UTF-8" standalone="no"?>
<!DOCTYPE svg PUBLIC "-//W3C//DTD SVG 1.1//EN"
 "http://www.w3.org/Graphics/SVG/1.1/DTD/svg11.dtd">
<!-- Generated by graphviz version 9.0.0 (20230911.1827)
 -->
<!-- Title: engine/utils/converter.hpp Pages: 1 -->
<!--zoomable 138 -->

<svg id="main" version="1.1" xmlns="http://www.w3.org/2000/svg" xmlns:xlink="http://www.w3.org/1999/xlink" xml:space="preserve" onload="init(evt)">
<style type="text/css"><![CDATA[
.node, .edge {opacity: 0.7;}
.node.selected, .edge.selected {opacity: 1;}
.edge:hover path { stroke: red; }
.edge:hover polygon { stroke: red; fill: red; }
]]></style>

<defs>
  <circle id="rim" cx="0" cy="0" r="7"/>
  <circle id="rim2" cx="0" cy="0" r="3.5"/>
  <g id="zoomPlus">
    <use xlink:href="#rim" fill="#404040"><set attributeName="fill" to="#808080" begin="zoomplus.mouseover" end="zoomplus.mouseout"/></use>
    <path d="M-4,0h8M0,-4v8" fill="none" stroke="white" stroke-width="1.5" pointer-events="none"/>
  </g>
  <g id="zoomMin">
    <use xlink:href="#rim" fill="#404040"><set attributeName="fill" to="#808080" begin="zoomminus.mouseover" end="zoomminus.mouseout"/></use>
    <path d="M-4,0h8" fill="none" stroke="white" stroke-width="1.5" pointer-events="none"/>
  </g>
  <g id="arrowUp" transform="translate(30 24)">
    <use xlink:href="#rim"/>
    <path pointer-events="none" fill="none" stroke="white" stroke-width="1.5" d="M0,-3.0v7 M-2.5,-0.5L0,-3.0L2.5,-0.5"/>
  </g>
  <g id="arrowRight" transform="rotate(90) translate(36 -43)">
    <use xlink:href="#rim"/>
    <path pointer-events="none" fill="none" stroke="white" stroke-width="1.5" d="M0,-3.0v7 M-2.5,-0.5L0,-3.0L2.5,-0.5"/>
  </g>
  <g id="arrowDown" transform="rotate(180) translate(-30 -48)">
    <use xlink:href="#rim"/>
    <path pointer-events="none" fill="none" stroke="white" stroke-width="1.5" d="M0,-3.0v7 M-2.5,-0.5L0,-3.0L2.5,-0.5"/>
  </g>
  <g id="arrowLeft" transform="rotate(270) translate(-36 17)">
    <use xlink:href="#rim"/>
    <path pointer-events="none" fill="none" stroke="white" stroke-width="1.5" d="M0,-3.0v7 M-2.5,-0.5L0,-3.0L2.5,-0.5"/>
  </g>
  <g id="resetDef">
    <use xlink:href="#rim2" fill="#404040"><set attributeName="fill" to="#808080" begin="reset.mouseover" end="reset.mouseout"/></use>
  </g>
</defs>
<script type="application/ecmascript">
var viewWidth = 2671;
var viewHeight = 138;
var sectionId = 'dynsection-0';
</script>
<script type="application/ecmascript" xlink:href="../../svg.min.js"/>
<svg id="graph" class="graph">
<g id="viewport">
<title>engine/utils/converter.hpp</title>
<!-- Node1 -->
<g id="Node000001" class="node">
<title>Node1</title>
<g id="a_Node000001"><a xlink:title=" ">
<polygon fill="#999999" stroke="#666666" points="1339.5,-130.19 1212.5,-130.19 1212.5,-110.94 1339.5,-110.94 1339.5,-130.19"/>
<text text-anchor="middle" x="1276" y="-116.69" font-family="Helvetica,sans-Serif" font-size="10.00">engine/utils/converter.hpp</text>
</a>
</g>
</g>
<!-- Node2 -->
<g id="Node000002" class="node">
<title>Node2</title>
<g id="a_Node000002"><a xlink:href="../../db/d6e/library-pch_8hpp.html" target="_top" xlink:title=" ">
<polygon fill="white" stroke="#666666" points="1332,-74.94 1220,-74.94 1220,-55.69 1332,-55.69 1332,-74.94"/>
<text text-anchor="middle" x="1276" y="-61.44" font-family="Helvetica,sans-Serif" font-size="10.00">include/library&#45;pch.hpp</text>
</a>
</g>
</g>
<!-- Node1&#45;&gt;Node2 -->
<g id="edge1_Node000001_Node000002" class="edge">
<title>Node1&#45;&gt;Node2</title>
<g id="a_edge1_Node000001_Node000002"><a xlink:title=" ">
<path fill="none" stroke="#63b8ff" d="M1276,-110.77C1276,-104.26 1276,-95.11 1276,-86.81"/>
<polygon fill="#63b8ff" stroke="#63b8ff" points="1279.5,-86.81 1276,-76.81 1272.5,-86.81 1279.5,-86.81"/>
</a>
</g>
</g>
<!-- Node3 -->
<g id="Node000003" class="node">
<title>Node3</title>
<g id="a_Node000003"><a xlink:title=" ">
<polygon fill="#e0e0e0" stroke="#999999" points="70,-19.69 0,-19.69 0,-0.44 70,-0.44 70,-19.69"/>
<text text-anchor="middle" x="35" y="-6.19" font-family="Helvetica,sans-Serif" font-size="10.00">entt/entt.hpp</text>
</a>
</g>
</g>
<!-- Node2&#45;&gt;Node3 -->
<g id="edge2_Node000002_Node000003" class="edge">
<title>Node2&#45;&gt;Node3</title>
<g id="a_edge2_Node000002_Node000003"><a xlink:title=" ">
<path fill="none" stroke="#63b8ff" d="M1219.59,-63.38C1017.08,-59.85 326.22,-46.23 81.77,-19.78"/>
<polygon fill="#63b8ff" stroke="#63b8ff" points="82.3,-16.32 71.97,-18.68 81.52,-23.27 82.3,-16.32"/>
</a>
</g>
</g>
<!-- Node4 -->
<g id="Node000004" class="node">
<title>Node4</title>
<g id="a_Node000004"><a xlink:title=" ">
<polygon fill="#e0e0e0" stroke="#999999" points="143.88,-19.69 88.12,-19.69 88.12,-0.44 143.88,-0.44 143.88,-19.69"/>
<text text-anchor="middle" x="116" y="-6.19" font-family="Helvetica,sans-Serif" font-size="10.00">algorithm</text>
</a>
</g>
</g>
<!-- Node2&#45;&gt;Node4 -->
<g id="edge3_Node000002_Node000004" class="edge">
<title>Node2&#45;&gt;Node4</title>
<g id="a_edge3_Node000002_Node000004"><a xlink:title=" ">
<path fill="none" stroke="#63b8ff" d="M1219.62,-63.53C1025.33,-60.62 383.45,-49.07 155.39,-19.87"/>
<polygon fill="#63b8ff" stroke="#63b8ff" points="156.07,-16.43 145.7,-18.57 155.15,-23.36 156.07,-16.43"/>
</a>
</g>
</g>
<!-- Node5 -->
<g id="Node000005" class="node">
<title>Node5</title>
<g id="a_Node000005"><a xlink:title=" ">
<polygon fill="#e0e0e0" stroke="#999999" points="198.5,-19.69 161.5,-19.69 161.5,-0.44 198.5,-0.44 198.5,-19.69"/>
<text text-anchor="middle" x="180" y="-6.19" font-family="Helvetica,sans-Serif" font-size="10.00">array</text>
</a>
</g>
</g>
<!-- Node2&#45;&gt;Node5 -->
<g id="edge4_Node000002_Node000005" class="edge">
<title>Node2&#45;&gt;Node5</title>
<g id="a_edge4_Node000002_Node000005"><a xlink:title=" ">
<path fill="none" stroke="#63b8ff" d="M1219.73,-63.87C1031.97,-62.08 427.08,-53.91 210.09,-19.45"/>
<polygon fill="#63b8ff" stroke="#63b8ff" points="210.75,-16.02 200.31,-17.83 209.6,-22.92 210.75,-16.02"/>
</a>
</g>
</g>
<!-- Node6 -->
<g id="Node000006" class="node">
<title>Node6</title>
<g id="a_Node000006"><a xlink:title=" ">
<polygon fill="#e0e0e0" stroke="#999999" points="267.25,-19.69 216.75,-19.69 216.75,-0.44 267.25,-0.44 267.25,-19.69"/>
<text text-anchor="middle" x="242" y="-6.19" font-family="Helvetica,sans-Serif" font-size="10.00">assert.h</text>
</a>
</g>
</g>
<!-- Node2&#45;&gt;Node6 -->
<g id="edge5_Node000002_Node000006" class="edge">
<title>Node2&#45;&gt;Node6</title>
<g id="a_edge5_Node000002_Node000006"><a xlink:title=" ">
<path fill="none" stroke="#63b8ff" d="M1219.58,-63.31C1039.89,-59.88 481.42,-47.34 278.62,-19.71"/>
<polygon fill="#63b8ff" stroke="#63b8ff" points="279.4,-16.29 269.01,-18.34 278.41,-23.22 279.4,-16.29"/>
</a>
</g>
</g>
<!-- Node7 -->
<g id="Node000007" class="node">
<title>Node7</title>
<g id="a_Node000007"><a xlink:title=" ">
<polygon fill="#e0e0e0" stroke="#999999" points="330.62,-19.69 285.38,-19.69 285.38,-0.44 330.62,-0.44 330.62,-19.69"/>
<text text-anchor="middle" x="308" y="-6.19" font-family="Helvetica,sans-Serif" font-size="10.00">chrono</text>
</a>
</g>
</g>
<!-- Node2&#45;&gt;Node7 -->
<g id="edge6_Node000002_Node000007" class="edge">
<title>Node2&#45;&gt;Node7</title>
<g id="a_edge6_Node000002_Node000007"><a xlink:title=" ">
<path fill="none" stroke="#63b8ff" d="M1219.76,-63.28C1048.07,-59.89 531.4,-47.72 342.08,-19.78"/>
<polygon fill="#63b8ff" stroke="#63b8ff" points="342.81,-16.35 332.39,-18.28 341.74,-23.27 342.81,-16.35"/>
</a>
</g>
</g>
<!-- Node8 -->
<g id="Node000008" class="node">
<title>Node8</title>
<g id="a_Node000008"><a xlink:title=" ">
<polygon fill="#e0e0e0" stroke="#999999" points="391.5,-19.69 348.5,-19.69 348.5,-0.44 391.5,-0.44 391.5,-19.69"/>
<text text-anchor="middle" x="370" y="-6.19" font-family="Helvetica,sans-Serif" font-size="10.00">cmath</text>
</a>
</g>
</g>
<!-- Node2&#45;&gt;Node8 -->
<g id="edge7_Node000002_Node000008" class="edge">
<title>Node2&#45;&gt;Node8</title>
<g id="a_edge7_Node000002_Node000008"><a xlink:title=" ">
<path fill="none" stroke="#63b8ff" d="M1219.6,-63.13C1055.58,-59.42 579.7,-46.74 403.02,-19.76"/>
<polygon fill="#63b8ff" stroke="#63b8ff" points="403.74,-16.33 393.32,-18.2 402.64,-23.24 403.74,-16.33"/>
</a>
</g>
</g>
<!-- Node9 -->
<g id="Node000009" class="node">
<title>Node9</title>
<g id="a_Node000009"><a xlink:title=" ">
<polygon fill="#e0e0e0" stroke="#999999" points="464.88,-19.69 409.12,-19.69 409.12,-0.44 464.88,-0.44 464.88,-19.69"/>
<text text-anchor="middle" x="437" y="-6.19" font-family="Helvetica,sans-Serif" font-size="10.00">concepts</text>
</a>
</g>
</g>
<!-- Node2&#45;&gt;Node9 -->
<g id="edge8_Node000002_Node000009" class="edge">
<title>Node2&#45;&gt;Node9</title>
<g id="a_edge8_Node000002_Node000009"><a xlink:title=" ">
<path fill="none" stroke="#63b8ff" d="M1219.76,-64.52C1090.2,-64.29 760.65,-59.62 476.55,-19.78"/>
<polygon fill="#63b8ff" stroke="#63b8ff" points="477.08,-16.32 466.68,-18.38 476.09,-23.25 477.08,-16.32"/>
</a>
</g>
</g>
<!-- Node10 -->
<g id="Node000010" class="node">
<title>Node10</title>
<g id="a_Node000010"><a xlink:title=" ">
<polygon fill="#e0e0e0" stroke="#999999" points="577,-19.69 483,-19.69 483,-0.44 577,-0.44 577,-19.69"/>
<text text-anchor="middle" x="530" y="-6.19" font-family="Helvetica,sans-Serif" font-size="10.00">condition_variable</text>
</a>
</g>
</g>
<!-- Node2&#45;&gt;Node10 -->
<g id="edge9_Node000002_Node000010" class="edge">
<title>Node2&#45;&gt;Node10</title>
<g id="a_edge9_Node000002_Node000010"><a xlink:title=" ">
<path fill="none" stroke="#63b8ff" d="M1219.51,-62.35C1103.38,-57.95 829.23,-45.67 588.74,-19.89"/>
<polygon fill="#63b8ff" stroke="#63b8ff" points="589.14,-16.41 578.82,-18.81 588.39,-23.37 589.14,-16.41"/>
</a>
</g>
</g>
<!-- Node11 -->
<g id="Node000011" class="node">
<title>Node11</title>
<g id="a_Node000011"><a xlink:title=" ">
<polygon fill="#e0e0e0" stroke="#999999" points="640.62,-19.69 595.38,-19.69 595.38,-0.44 640.62,-0.44 640.62,-19.69"/>
<text text-anchor="middle" x="618" y="-6.19" font-family="Helvetica,sans-Serif" font-size="10.00">cstdint</text>
</a>
</g>
</g>
<!-- Node2&#45;&gt;Node11 -->
<g id="edge10_Node000002_Node000011" class="edge">
<title>Node2&#45;&gt;Node11</title>
<g id="a_edge10_Node000002_Node000011"><a xlink:title=" ">
<path fill="none" stroke="#63b8ff" d="M1219.88,-63.91C1111.69,-62.36 866.72,-55.08 652.12,-19.69"/>
<polygon fill="#63b8ff" stroke="#63b8ff" points="652.89,-16.27 642.45,-18.07 651.73,-23.17 652.89,-16.27"/>
</a>
</g>
</g>
<!-- Node12 -->
<g id="Node000012" class="node">
<title>Node12</title>
<g id="a_Node000012"><a xlink:title=" ">
<polygon fill="#e0e0e0" stroke="#999999" points="703.25,-19.69 658.75,-19.69 658.75,-0.44 703.25,-0.44 703.25,-19.69"/>
<text text-anchor="middle" x="681" y="-6.19" font-family="Helvetica,sans-Serif" font-size="10.00">cstdlib</text>
</a>
</g>
</g>
<!-- Node2&#45;&gt;Node12 -->
<g id="edge11_Node000002_Node000012" class="edge">
<title>Node2&#45;&gt;Node12</title>
<g id="a_edge11_Node000002_Node000012"><a xlink:title=" ">
<path fill="none" stroke="#63b8ff" d="M1219.51,-63.43C1119.42,-61.09 904.38,-52.55 714.87,-19.87"/>
<polygon fill="#63b8ff" stroke="#63b8ff" points="715.52,-16.43 705.06,-18.15 714.31,-23.32 715.52,-16.43"/>
</a>
</g>
</g>
<!-- Node13 -->
<g id="Node000013" class="node">
<title>Node13</title>
<g id="a_Node000013"><a xlink:title=" ">
<polygon fill="#e0e0e0" stroke="#999999" points="780.75,-19.69 721.25,-19.69 721.25,-0.44 780.75,-0.44 780.75,-19.69"/>
<text text-anchor="middle" x="751" y="-6.19" font-family="Helvetica,sans-Serif" font-size="10.00">filesystem</text>
</a>
</g>
</g>
<!-- Node2&#45;&gt;Node13 -->
<g id="edge12_Node000002_Node000013" class="edge">
<title>Node2&#45;&gt;Node13</title>
<g id="a_edge12_Node000002_Node000013"><a xlink:title=" ">
<path fill="none" stroke="#63b8ff" d="M1219.83,-61.58C1130.92,-56.72 952.18,-44.81 792.21,-20.03"/>
<polygon fill="#63b8ff" stroke="#63b8ff" points="793.13,-16.63 782.71,-18.53 792.04,-23.54 793.13,-16.63"/>
</a>
</g>
</g>
<!-- Node14 -->
<g id="Node000014" class="node">
<title>Node14</title>
<g id="a_Node000014"><a xlink:title=" ">
<polygon fill="#e0e0e0" stroke="#999999" points="847.5,-19.69 798.5,-19.69 798.5,-0.44 847.5,-0.44 847.5,-19.69"/>
<text text-anchor="middle" x="823" y="-6.19" font-family="Helvetica,sans-Serif" font-size="10.00">fstream</text>
</a>
</g>
</g>
<!-- Node2&#45;&gt;Node14 -->
<g id="edge13_Node000002_Node000014" class="edge">
<title>Node2&#45;&gt;Node14</title>
<g id="a_edge13_Node000002_Node000014"><a xlink:title=" ">
<path fill="none" stroke="#63b8ff" d="M1219.73,-60.87C1141.09,-55.51 993.75,-43.41 858.73,-19.74"/>
<polygon fill="#63b8ff" stroke="#63b8ff" points="859.74,-16.36 849.28,-18.05 858.51,-23.25 859.74,-16.36"/>
</a>
</g>
</g>
<!-- Node15 -->
<g id="Node000015" class="node">
<title>Node15</title>
<g id="a_Node000015"><a xlink:title=" ">
<polygon fill="#e0e0e0" stroke="#999999" points="924,-19.69 866,-19.69 866,-0.44 924,-0.44 924,-19.69"/>
<text text-anchor="middle" x="895" y="-6.19" font-family="Helvetica,sans-Serif" font-size="10.00">functional</text>
</a>
</g>
</g>
<!-- Node2&#45;&gt;Node15 -->
<g id="edge14_Node000002_Node000015" class="edge">
<title>Node2&#45;&gt;Node15</title>
<g id="a_edge14_Node000002_Node000015"><a xlink:title=" ">
<path fill="none" stroke="#63b8ff" d="M1219.61,-58.62C1153.76,-51.6 1041.37,-38.5 935.6,-20.01"/>
<polygon fill="#63b8ff" stroke="#63b8ff" points="936.35,-16.59 925.89,-18.29 935.13,-23.48 936.35,-16.59"/>
</a>
</g>
</g>
<!-- Node16 -->
<g id="Node000016" class="node">
<title>Node16</title>
<g id="a_Node000016"><a xlink:title=" ">
<polygon fill="#e0e0e0" stroke="#999999" points="991.88,-19.69 942.12,-19.69 942.12,-0.44 991.88,-0.44 991.88,-19.69"/>
<text text-anchor="middle" x="967" y="-6.19" font-family="Helvetica,sans-Serif" font-size="10.00">iomanip</text>
</a>
</g>
</g>
<!-- Node2&#45;&gt;Node16 -->
<g id="edge15_Node000002_Node000016" class="edge">
<title>Node2&#45;&gt;Node16</title>
<g id="a_edge15_Node000002_Node000016"><a xlink:title=" ">
<path fill="none" stroke="#63b8ff" d="M1219.64,-56.64C1166.27,-49.05 1083.66,-36.44 1003.04,-19.96"/>
<polygon fill="#63b8ff" stroke="#63b8ff" points="1004.18,-16.62 993.68,-18.02 1002.76,-23.48 1004.18,-16.62"/>
</a>
</g>
</g>
<!-- Node17 -->
<g id="Node000017" class="node">
<title>Node17</title>
<g id="a_Node000017"><a xlink:title=" ">
<polygon fill="#e0e0e0" stroke="#999999" points="1058.12,-19.69 1009.88,-19.69 1009.88,-0.44 1058.12,-0.44 1058.12,-19.69"/>
<text text-anchor="middle" x="1034" y="-6.19" font-family="Helvetica,sans-Serif" font-size="10.00">istream</text>
</a>
</g>
</g>
<!-- Node2&#45;&gt;Node17 -->
<g id="edge16_Node000002_Node000017" class="edge">
<title>Node2&#45;&gt;Node17</title>
<g id="a_edge16_Node000002_Node000017"><a xlink:title=" ">
<path fill="none" stroke="#63b8ff" d="M1230.61,-55.24C1190.59,-47.1 1130.43,-34.54 1069.46,-20.19"/>
<polygon fill="#63b8ff" stroke="#63b8ff" points="1070.49,-16.84 1059.95,-17.94 1068.87,-23.65 1070.49,-16.84"/>
</a>
</g>
</g>
<!-- Node18 -->
<g id="Node000018" class="node">
<title>Node18</title>
<g id="a_Node000018"><a xlink:title=" ">
<polygon fill="#e0e0e0" stroke="#999999" points="1115.62,-19.69 1076.38,-19.69 1076.38,-0.44 1115.62,-0.44 1115.62,-19.69"/>
<text text-anchor="middle" x="1096" y="-6.19" font-family="Helvetica,sans-Serif" font-size="10.00">limits</text>
</a>
</g>
</g>
<!-- Node2&#45;&gt;Node18 -->
<g id="edge17_Node000002_Node000018" class="edge">
<title>Node2&#45;&gt;Node18</title>
<g id="a_edge17_Node000002_Node000018"><a xlink:title=" ">
<path fill="none" stroke="#63b8ff" d="M1245.34,-55.27C1217.03,-46.92 1173.54,-34.07 1126.91,-20.25"/>
<polygon fill="#63b8ff" stroke="#63b8ff" points="1128,-16.92 1117.42,-17.44 1126.01,-23.64 1128,-16.92"/>
</a>
</g>
</g>
<!-- Node19 -->
<g id="Node000019" class="node">
<title>Node19</title>
<g id="a_Node000019"><a xlink:title=" ">
<polygon fill="#e0e0e0" stroke="#999999" points="1168.38,-19.69 1133.62,-19.69 1133.62,-0.44 1168.38,-0.44 1168.38,-19.69"/>
<text text-anchor="middle" x="1151" y="-6.19" font-family="Helvetica,sans-Serif" font-size="10.00">map</text>
</a>
</g>
</g>
<!-- Node2&#45;&gt;Node19 -->
<g id="edge18_Node000002_Node000019" class="edge">
<title>Node2&#45;&gt;Node19</title>
<g id="a_edge18_Node000002_Node000019"><a xlink:title=" ">
<path fill="none" stroke="#63b8ff" d="M1254.8,-55.28C1233.96,-46.41 1202.06,-32.81 1179.12,-23.04"/>
<polygon fill="#63b8ff" stroke="#63b8ff" points="1180.63,-19.88 1170.06,-19.18 1177.89,-26.32 1180.63,-19.88"/>
</a>
</g>
</g>
<!-- Node20 -->
<g id="Node000020" class="node">
<title>Node20</title>
<g id="a_Node000020"><a xlink:title=" ">
<polygon fill="#e0e0e0" stroke="#999999" points="1237.25,-19.69 1186.75,-19.69 1186.75,-0.44 1237.25,-0.44 1237.25,-19.69"/>
<text text-anchor="middle" x="1212" y="-6.19" font-family="Helvetica,sans-Serif" font-size="10.00">memory</text>
</a>
</g>
</g>
<!-- Node2&#45;&gt;Node20 -->
<g id="edge19_Node000002_Node000020" class="edge">
<title>Node2&#45;&gt;Node20</title>
<g id="a_edge19_Node000002_Node000020"><a xlink:title=" ">
<path fill="none" stroke="#63b8ff" d="M1265.14,-55.28C1255.89,-47.58 1242.38,-36.34 1231.29,-27.11"/>
<polygon fill="#63b8ff" stroke="#63b8ff" points="1233.79,-24.64 1223.86,-20.93 1229.31,-30.02 1233.79,-24.64"/>
</a>
</g>
</g>
<!-- Node21 -->
<g id="Node000021" class="node">
<title>Node21</title>
<g id="a_Node000021"><a xlink:title=" ">
<polygon fill="#e0e0e0" stroke="#999999" points="1297.12,-19.69 1254.88,-19.69 1254.88,-0.44 1297.12,-0.44 1297.12,-19.69"/>
<text text-anchor="middle" x="1276" y="-6.19" font-family="Helvetica,sans-Serif" font-size="10.00">mutex</text>
</a>
</g>
</g>
<!-- Node2&#45;&gt;Node21 -->
<g id="edge20_Node000002_Node000021" class="edge">
<title>Node2&#45;&gt;Node21</title>
<g id="a_edge20_Node000002_Node000021"><a xlink:title=" ">
<path fill="none" stroke="#63b8ff" d="M1276,-55.52C1276,-49.01 1276,-39.86 1276,-31.56"/>
<polygon fill="#63b8ff" stroke="#63b8ff" points="1279.5,-31.56 1276,-21.56 1272.5,-31.56 1279.5,-31.56"/>
</a>
</g>
</g>
<!-- Node22 -->
<g id="Node000022" class="node">
<title>Node22</title>
<g id="a_Node000022"><a xlink:title=" ">
<polygon fill="#e0e0e0" stroke="#999999" points="1368.75,-19.69 1315.25,-19.69 1315.25,-0.44 1368.75,-0.44 1368.75,-19.69"/>
<text text-anchor="middle" x="1342" y="-6.19" font-family="Helvetica,sans-Serif" font-size="10.00">numbers</text>
</a>
</g>
</g>
<!-- Node2&#45;&gt;Node22 -->
<g id="edge21_Node000002_Node000022" class="edge">
<title>Node2&#45;&gt;Node22</title>
<g id="a_edge21_Node000002_Node000022"><a xlink:title=" ">
<path fill="none" stroke="#63b8ff" d="M1287.2,-55.28C1296.74,-47.58 1310.67,-36.34 1322.11,-27.11"/>
<polygon fill="#63b8ff" stroke="#63b8ff" points="1324.21,-29.92 1329.79,-20.91 1319.81,-24.47 1324.21,-29.92"/>
</a>
</g>
</g>
<!-- Node23 -->
<g id="Node000023" class="node">
<title>Node23</title>
<g id="a_Node000023"><a xlink:title=" ">
<polygon fill="#e0e0e0" stroke="#999999" points="1437.25,-19.69 1386.75,-19.69 1386.75,-0.44 1437.25,-0.44 1437.25,-19.69"/>
<text text-anchor="middle" x="1412" y="-6.19" font-family="Helvetica,sans-Serif" font-size="10.00">numeric</text>
</a>
</g>
</g>
<!-- Node2&#45;&gt;Node23 -->
<g id="edge22_Node000002_Node000023" class="edge">
<title>Node2&#45;&gt;Node23</title>
<g id="a_edge22_Node000002_Node000023"><a xlink:title=" ">
<path fill="none" stroke="#63b8ff" d="M1299.07,-55.28C1320.76,-46.79 1353.48,-33.98 1378.13,-24.33"/>
<polygon fill="#63b8ff" stroke="#63b8ff" points="1379.37,-27.6 1387.41,-20.69 1376.82,-21.08 1379.37,-27.6"/>
</a>
</g>
</g>
<!-- Node24 -->
<g id="Node000024" class="node">
<title>Node24</title>
<g id="a_Node000024"><a xlink:title=" ">
<polygon fill="#e0e0e0" stroke="#999999" points="1504.88,-19.69 1455.12,-19.69 1455.12,-0.44 1504.88,-0.44 1504.88,-19.69"/>
<text text-anchor="middle" x="1480" y="-6.19" font-family="Helvetica,sans-Serif" font-size="10.00">optional</text>
</a>
</g>
</g>
<!-- Node2&#45;&gt;Node24 -->
<g id="edge23_Node000002_Node000024" class="edge">
<title>Node2&#45;&gt;Node24</title>
<g id="a_edge23_Node000002_Node000024"><a xlink:title=" ">
<path fill="none" stroke="#63b8ff" d="M1310.61,-55.28C1347.69,-45.6 1406.3,-30.3 1443.93,-20.48"/>
<polygon fill="#63b8ff" stroke="#63b8ff" points="1444.64,-23.91 1453.43,-18 1442.87,-17.14 1444.64,-23.91"/>
</a>
</g>
</g>
<!-- Node25 -->
<g id="Node000025" class="node">
<title>Node25</title>
<g id="a_Node000025"><a xlink:title=" ">
<polygon fill="#e0e0e0" stroke="#999999" points="1574.62,-19.69 1523.38,-19.69 1523.38,-0.44 1574.62,-0.44 1574.62,-19.69"/>
<text text-anchor="middle" x="1549" y="-6.19" font-family="Helvetica,sans-Serif" font-size="10.00">ostream</text>
</a>
</g>
</g>
<!-- Node2&#45;&gt;Node25 -->
<g id="edge24_Node000002_Node000025" class="edge">
<title>Node2&#45;&gt;Node25</title>
<g id="a_edge24_Node000002_Node000025"><a xlink:title=" ">
<path fill="none" stroke="#63b8ff" d="M1329.11,-55.24C1375,-47.2 1443.35,-34.75 1512.02,-20.02"/>
<polygon fill="#63b8ff" stroke="#63b8ff" points="1512.53,-23.49 1521.56,-17.95 1511.05,-16.65 1512.53,-23.49"/>
</a>
</g>
</g>
<!-- Node26 -->
<g id="Node000026" class="node">
<title>Node26</title>
<g id="a_Node000026"><a xlink:title=" ">
<polygon fill="#e0e0e0" stroke="#999999" points="1669.38,-19.69 1592.62,-19.69 1592.62,-0.44 1669.38,-0.44 1669.38,-19.69"/>
<text text-anchor="middle" x="1631" y="-6.19" font-family="Helvetica,sans-Serif" font-size="10.00">shared_mutex</text>
</a>
</g>
</g>
<!-- Node2&#45;&gt;Node26 -->
<g id="edge25_Node000002_Node000026" class="edge">
<title>Node2&#45;&gt;Node26</title>
<g id="a_edge25_Node000002_Node000026"><a xlink:title=" ">
<path fill="none" stroke="#63b8ff" d="M1332.3,-56.8C1391.71,-48.73 1488.37,-35.19 1581.02,-20.13"/>
<polygon fill="#63b8ff" stroke="#63b8ff" points="1581.49,-23.6 1590.8,-18.53 1580.36,-16.69 1581.49,-23.6"/>
</a>
</g>
</g>
<!-- Node27 -->
<g id="Node000027" class="node">
<title>Node27</title>
<g id="a_Node000027"><a xlink:title=" ">
<polygon fill="#e0e0e0" stroke="#999999" points="1724.5,-19.69 1687.5,-19.69 1687.5,-0.44 1724.5,-0.44 1724.5,-19.69"/>
<text text-anchor="middle" x="1706" y="-6.19" font-family="Helvetica,sans-Serif" font-size="10.00">span</text>
</a>
</g>
</g>
<!-- Node2&#45;&gt;Node27 -->
<g id="edge26_Node000002_Node000027" class="edge">
<title>Node2&#45;&gt;Node27</title>
<g id="a_edge26_Node000002_Node000027"><a xlink:title=" ">
<path fill="none" stroke="#63b8ff" d="M1332.45,-61.4C1408.5,-56.75 1548.11,-45.61 1676,-19.7"/>
<polygon fill="#63b8ff" stroke="#63b8ff" points="1676.58,-23.16 1685.67,-17.7 1675.16,-16.3 1676.58,-23.16"/>
</a>
</g>
</g>
<!-- Node28 -->
<g id="Node000028" class="node">
<title>Node28</title>
<g id="a_Node000028"><a xlink:title=" ">
<polygon fill="#e0e0e0" stroke="#999999" points="1793.62,-19.69 1742.38,-19.69 1742.38,-0.44 1793.62,-0.44 1793.62,-19.69"/>
<text text-anchor="middle" x="1768" y="-6.19" font-family="Helvetica,sans-Serif" font-size="10.00">sstream</text>
</a>
</g>
</g>
<!-- Node2&#45;&gt;Node28 -->
<g id="edge27_Node000002_Node000028" class="edge">
<title>Node2&#45;&gt;Node28</title>
<g id="a_edge27_Node000002_Node000028"><a xlink:title=" ">
<path fill="none" stroke="#63b8ff" d="M1332.42,-61.57C1417.11,-56.85 1582.25,-45.3 1730.97,-19.99"/>
<polygon fill="#63b8ff" stroke="#63b8ff" points="1731.35,-23.48 1740.61,-18.32 1730.16,-16.58 1731.35,-23.48"/>
</a>
</g>
</g>
<!-- Node29 -->
<g id="Node000029" class="node">
<title>Node29</title>
<g id="a_Node000029"><a xlink:title=" ">
<polygon fill="#e0e0e0" stroke="#999999" points="1870,-19.69 1812,-19.69 1812,-0.44 1870,-0.44 1870,-19.69"/>
<text text-anchor="middle" x="1841" y="-6.19" font-family="Helvetica,sans-Serif" font-size="10.00">stdexcept</text>
</a>
</g>
</g>
<!-- Node2&#45;&gt;Node29 -->
<g id="edge28_Node000002_Node000029" class="edge">
<title>Node2&#45;&gt;Node29</title>
<g id="a_edge28_Node000002_Node000029"><a xlink:title=" ">
<path fill="none" stroke="#63b8ff" d="M1332.46,-62.1C1427.22,-57.84 1624.37,-46.56 1800.33,-19.89"/>
<polygon fill="#63b8ff" stroke="#63b8ff" points="1800.77,-23.37 1810.12,-18.39 1799.71,-16.45 1800.77,-23.37"/>
</a>
</g>
</g>
<!-- Node30 -->
<g id="Node000030" class="node">
<title>Node30</title>
<g id="a_Node000030"><a xlink:title=" ">
<polygon fill="#e0e0e0" stroke="#999999" points="1935.75,-19.69 1888.25,-19.69 1888.25,-0.44 1935.75,-0.44 1935.75,-19.69"/>
<text text-anchor="middle" x="1912" y="-6.19" font-family="Helvetica,sans-Serif" font-size="10.00">stdint.h</text>
</a>
</g>
</g>
<!-- Node2&#45;&gt;Node30 -->
<g id="edge29_Node000002_Node000030" class="edge">
<title>Node2&#45;&gt;Node30</title>
<g id="a_edge29_Node000002_Node000030"><a xlink:title=" ">
<path fill="none" stroke="#63b8ff" d="M1332.1,-63.56C1437.22,-61.4 1671.02,-53.14 1876.64,-19.76"/>
<polygon fill="#63b8ff" stroke="#63b8ff" points="1877.17,-23.22 1886.47,-18.13 1876.03,-16.31 1877.17,-23.22"/>
</a>
</g>
</g>
<!-- Node31 -->
<g id="Node000031" class="node">
<title>Node31</title>
<g id="a_Node000031"><a xlink:title=" ">
<polygon fill="#e0e0e0" stroke="#999999" points="1994,-19.69 1954,-19.69 1954,-0.44 1994,-0.44 1994,-19.69"/>
<text text-anchor="middle" x="1974" y="-6.19" font-family="Helvetica,sans-Serif" font-size="10.00">string</text>
</a>
</g>
</g>
<!-- Node2&#45;&gt;Node31 -->
<g id="edge30_Node000002_Node000031" class="edge">
<title>Node2&#45;&gt;Node31</title>
<g id="a_edge30_Node000002_Node000031"><a xlink:title=" ">
<path fill="none" stroke="#63b8ff" d="M1332.46,-64.76C1446.41,-64.75 1711.99,-60.15 1942.26,-19.77"/>
<polygon fill="#63b8ff" stroke="#63b8ff" points="1942.82,-23.23 1952.05,-18.03 1941.59,-16.34 1942.82,-23.23"/>
</a>
</g>
</g>
<!-- Node32 -->
<g id="Node000032" class="node">
<title>Node32</title>
<g id="a_Node000032"><a xlink:title=" ">
<polygon fill="#e0e0e0" stroke="#999999" points="2055.5,-19.69 2012.5,-19.69 2012.5,-0.44 2055.5,-0.44 2055.5,-19.69"/>
<text text-anchor="middle" x="2034" y="-6.19" font-family="Helvetica,sans-Serif" font-size="10.00">thread</text>
</a>
</g>
</g>
<!-- Node2&#45;&gt;Node32 -->
<g id="edge31_Node000002_Node000032" class="edge">
<title>Node2&#45;&gt;Node32</title>
<g id="a_edge31_Node000002_Node000032"><a xlink:title=" ">
<path fill="none" stroke="#63b8ff" d="M1332.09,-64.86C1452.91,-65.18 1746.68,-61.36 2000.81,-19.65"/>
<polygon fill="#63b8ff" stroke="#63b8ff" points="2001.33,-23.11 2010.62,-18.02 2000.18,-16.21 2001.33,-23.11"/>
</a>
</g>
</g>
<!-- Node33 -->
<g id="Node000033" class="node">
<title>Node33</title>
<g id="a_Node000033"><a xlink:title=" ">
<polygon fill="#e0e0e0" stroke="#999999" points="2134.5,-19.69 2073.5,-19.69 2073.5,-0.44 2134.5,-0.44 2134.5,-19.69"/>
<text text-anchor="middle" x="2104" y="-6.19" font-family="Helvetica,sans-Serif" font-size="10.00">type_traits</text>
</a>
</g>
</g>
<!-- Node2&#45;&gt;Node33 -->
<g id="edge32_Node000002_Node000033" class="edge">
<title>Node2&#45;&gt;Node33</title>
<g id="a_edge32_Node000002_Node000033"><a xlink:title=" ">
<path fill="none" stroke="#63b8ff" d="M1332.26,-64.23C1460.33,-63.39 1783.49,-57.48 2061.87,-19.91"/>
<polygon fill="#63b8ff" stroke="#63b8ff" points="2062.07,-23.42 2071.5,-18.6 2061.12,-16.48 2062.07,-23.42"/>
</a>
</g>
</g>
<!-- Node34 -->
<g id="Node000034" class="node">
<title>Node34</title>
<g id="a_Node000034"><a xlink:title=" ">
<polygon fill="#e0e0e0" stroke="#999999" points="2229.75,-19.69 2152.25,-19.69 2152.25,-0.44 2229.75,-0.44 2229.75,-19.69"/>
<text text-anchor="middle" x="2191" y="-6.19" font-family="Helvetica,sans-Serif" font-size="10.00">unordered_set</text>
</a>
</g>
</g>
<!-- Node2&#45;&gt;Node34 -->
<g id="edge33_Node000002_Node000034" class="edge">
<title>Node2&#45;&gt;Node34</title>
<g id="a_edge33_Node000002_Node000034"><a xlink:title=" ">
<path fill="none" stroke="#63b8ff" d="M1332.32,-63.95C1469.25,-62.53 1830.6,-55.5 2140.81,-19.93"/>
<polygon fill="#63b8ff" stroke="#63b8ff" points="2140.79,-23.45 2150.32,-18.82 2139.98,-16.5 2140.79,-23.45"/>
</a>
</g>
</g>
<!-- Node35 -->
<g id="Node000035" class="node">
<title>Node35</title>
<g id="a_Node000035"><a xlink:title=" ">
<polygon fill="#e0e0e0" stroke="#999999" points="2292.62,-19.69 2247.38,-19.69 2247.38,-0.44 2292.62,-0.44 2292.62,-19.69"/>
<text text-anchor="middle" x="2270" y="-6.19" font-family="Helvetica,sans-Serif" font-size="10.00">variant</text>
</a>
</g>
</g>
<!-- Node2&#45;&gt;Node35 -->
<g id="edge34_Node000002_Node000035" class="edge">
<title>Node2&#45;&gt;Node35</title>
<g id="a_edge34_Node000002_Node000035"><a xlink:title=" ">
<path fill="none" stroke="#63b8ff" d="M1332.23,-63.37C1507.14,-60.17 2041.17,-48.42 2235.88,-19.78"/>
<polygon fill="#63b8ff" stroke="#63b8ff" points="2236.26,-23.27 2245.61,-18.28 2235.19,-16.35 2236.26,-23.27"/>
</a>
</g>
</g>
<!-- Node36 -->
<g id="Node000036" class="node">
<title>Node36</title>
<g id="a_Node000036"><a xlink:title=" ">
<polygon fill="#e0e0e0" stroke="#999999" points="2353.5,-19.69 2310.5,-19.69 2310.5,-0.44 2353.5,-0.44 2353.5,-19.69"/>
<text text-anchor="middle" x="2332" y="-6.19" font-family="Helvetica,sans-Serif" font-size="10.00">vector</text>
</a>
</g>
</g>
<!-- Node2&#45;&gt;Node36 -->
<g id="edge35_Node000002_Node000036" class="edge">
<title>Node2&#45;&gt;Node36</title>
<g id="a_edge35_Node000002_Node000036"><a xlink:title=" ">
<path fill="none" stroke="#63b8ff" d="M1332.29,-63.62C1515.06,-61.08 2091.6,-50.91 2299.11,-19.73"/>
<polygon fill="#63b8ff" stroke="#63b8ff" points="2299.35,-23.23 2308.69,-18.22 2298.26,-16.31 2299.35,-23.23"/>
</a>
</g>
</g>
<!-- Node37 -->
<g id="Node000037" class="node">
<title>Node37</title>
<g id="a_Node000037"><a xlink:title=" ">
<polygon fill="#e0e0e0" stroke="#999999" points="2420.12,-19.69 2371.88,-19.69 2371.88,-0.44 2420.12,-0.44 2420.12,-19.69"/>
<text text-anchor="middle" x="2396" y="-6.19" font-family="Helvetica,sans-Serif" font-size="10.00">random</text>
</a>
</g>
</g>
<!-- Node2&#45;&gt;Node37 -->
<g id="edge36_Node000002_Node000037" class="edge">
<title>Node2&#45;&gt;Node37</title>
<g id="a_edge36_Node000002_Node000037"><a xlink:title=" ">
<path fill="none" stroke="#63b8ff" d="M1332.21,-63.6C1522.07,-60.94 2139.54,-50.23 2360.45,-19.67"/>
<polygon fill="#63b8ff" stroke="#63b8ff" points="2360.72,-23.17 2370.11,-18.28 2359.72,-16.24 2360.72,-23.17"/>
</a>
</g>
</g>
<!-- Node38 -->
<g id="Node000038" class="node">
<title>Node38</title>
<g id="a_Node000038"><a xlink:href="../../de/d43/common-typedefs_8hpp.html" target="_top" xlink:title=" ">
<polygon fill="white" stroke="#666666" points="2549.62,-19.69 2438.38,-19.69 2438.38,-0.44 2549.62,-0.44 2549.62,-19.69"/>
<text text-anchor="middle" x="2494" y="-6.19" font-family="Helvetica,sans-Serif" font-size="10.00">common&#45;typedefs.hpp</text>
</a>
</g>
</g>
<!-- Node2&#45;&gt;Node38 -->
<g id="edge37_Node000002_Node000038" class="edge">
<title>Node2&#45;&gt;Node38</title>
<g id="a_edge37_Node000002_Node000038"><a xlink:title=" ">
<path fill="none" stroke="#63b8ff" d="M1332.21,-63.99C1498.01,-62.65 1999.68,-55.76 2426.68,-19.79"/>
<polygon fill="#63b8ff" stroke="#63b8ff" points="2426.84,-23.29 2436.51,-18.96 2426.25,-16.32 2426.84,-23.29"/>
</a>
</g>
</g>
<!-- Node39 -->
<g id="Node000039" class="node">
<title>Node39</title>
<g id="a_Node000039"><a xlink:href="../../d4/d78/math_8hpp.html" target="_top" xlink:title=" ">
<polygon fill="white" stroke="#666666" points="2644.75,-19.69 2567.25,-19.69 2567.25,-0.44 2644.75,-0.44 2644.75,-19.69"/>
<text text-anchor="middle" x="2606" y="-6.19" font-family="Helvetica,sans-Serif" font-size="10.00">core/math.hpp</text>
</a>
</g>
</g>
<!-- Node2&#45;&gt;Node39 -->
<g id="edge38_Node000002_Node000039" class="edge">
<title>Node2&#45;&gt;Node39</title>
<g id="a_edge38_Node000002_Node000039"><a xlink:title=" ">
<path fill="none" stroke="#63b8ff" d="M1332.34,-63.45C1544.16,-60.06 2293.56,-46.48 2555.47,-19.89"/>
<polygon fill="#63b8ff" stroke="#63b8ff" points="2555.74,-23.38 2565.32,-18.86 2555.01,-16.42 2555.74,-23.38"/>
</a>
</g>
</g>
<!-- Node39&#45;&gt;Node39 -->
<g id="edge39_Node000039_Node000039" class="edge">
<title>Node39&#45;&gt;Node39</title>
<g id="a_edge39_Node000039_Node000039"><a xlink:title=" ">
<path fill="none" stroke="#63b8ff" d="M2635.78,-20.17C2650.11,-21.42 2662.75,-18.05 2662.75,-10.06 2662.75,-4.32 2656.22,-0.97 2647.22,0"/>
<polygon fill="#63b8ff" stroke="#63b8ff" points="2647.31,3.5 2637.29,0.04 2647.28,-3.5 2647.31,3.5"/>
</a>
</g>
</g>
</g>
</svg>

<g id="navigator" transform="translate(0 0)" fill="#404254">
  <rect fill="#f2f5e9" fill-opacity="0.5" stroke="#606060" stroke-width=".5" x="0" y="0" width="60" height="60"/>
  <use id="zoomplus" xlink:href="#zoomPlus" x="17" y="9" onmousedown="handleZoom(evt,'in')"/>
  <use id="zoomminus" xlink:href="#zoomMin" x="42" y="9" onmousedown="handleZoom(evt,'out')"/>
  <use id="reset" xlink:href="#resetDef" x="30" y="36" onmousedown="handleReset()"/>
   <use id="arrowup" xlink:href="#arrowUp" x="0" y="0" onmousedown="handlePan(0,-1)"/>
  <use id="arrowright" xlink:href="#arrowRight" x="0" y="0" onmousedown="handlePan(1,0)"/>
  <use id="arrowdown" xlink:href="#arrowDown" x="0" y="0" onmousedown="handlePan(0,1)"/>
  <use id="arrowleft" xlink:href="#arrowLeft" x="0" y="0" onmousedown="handlePan(-1,0)"/>
</g>
<svg viewBox="0 0 15 15" width="100%" height="30px" preserveAspectRatio="xMaxYMin meet">
 <g id="arrow_out" transform="scale(0.3 0.3)">
  <a xlink:href="converter_8hpp__incl_org.svg" target="_base">
   <rect id="button" ry="5" rx="5" y="6" x="6" height="38" width="38"
        fill="#f2f5e9" fill-opacity="0.5" stroke="#606060" stroke-width="1.0"/>
   <path id="arrow"
     d="M 11.500037,31.436501 C 11.940474,20.09759 22.043105,11.32322 32.158766,21.979434 L 37.068811,17.246167 C 37.068811,17.246167 37.088388,32 37.088388,32 L 22.160133,31.978069 C 22.160133,31.978069 26.997745,27.140456 26.997745,27.140456 C 18.528582,18.264221 13.291696,25.230495 11.500037,31.436501 z"
     style="fill:#404040;"/>
  </a>
 </g>
</svg>

<style type='text/css'>
<![CDATA[
[data-mouse-over-selected='false'] { opacity: 0.7; }
[data-mouse-over-selected='true']  { opacity: 1.0; }
]]>
</style>
<script type="application/ecmascript"><![CDATA[
document.addEventListener('DOMContentLoaded', (event) => {
  highlightEdges();
  highlightAdjacentNodes();
});
]]></script>
</svg>
