<?xml version="1.0" encoding="UTF-8" standalone="no"?>
<!DOCTYPE svg PUBLIC "-//W3C//DTD SVG 1.1//EN"
 "http://www.w3.org/Graphics/SVG/1.1/DTD/svg11.dtd">
<!-- Generated by graphviz version 9.0.0 (20230911.1827)
 -->
<!-- Title: engine::SkyboxManager Pages: 1 -->
<!--zoomable 214 -->

<svg id="main" version="1.1" xmlns="http://www.w3.org/2000/svg" xmlns:xlink="http://www.w3.org/1999/xlink" xml:space="preserve" onload="init(evt)">
<style type="text/css"><![CDATA[
.node, .edge {opacity: 0.7;}
.node.selected, .edge.selected {opacity: 1;}
.edge:hover path { stroke: red; }
.edge:hover polygon { stroke: red; fill: red; }
]]></style>

<defs>
  <circle id="rim" cx="0" cy="0" r="7"/>
  <circle id="rim2" cx="0" cy="0" r="3.5"/>
  <g id="zoomPlus">
    <use xlink:href="#rim" fill="#404040"><set attributeName="fill" to="#808080" begin="zoomplus.mouseover" end="zoomplus.mouseout"/></use>
    <path d="M-4,0h8M0,-4v8" fill="none" stroke="white" stroke-width="1.5" pointer-events="none"/>
  </g>
  <g id="zoomMin">
    <use xlink:href="#rim" fill="#404040"><set attributeName="fill" to="#808080" begin="zoomminus.mouseover" end="zoomminus.mouseout"/></use>
    <path d="M-4,0h8" fill="none" stroke="white" stroke-width="1.5" pointer-events="none"/>
  </g>
  <g id="arrowUp" transform="translate(30 24)">
    <use xlink:href="#rim"/>
    <path pointer-events="none" fill="none" stroke="white" stroke-width="1.5" d="M0,-3.0v7 M-2.5,-0.5L0,-3.0L2.5,-0.5"/>
  </g>
  <g id="arrowRight" transform="rotate(90) translate(36 -43)">
    <use xlink:href="#rim"/>
    <path pointer-events="none" fill="none" stroke="white" stroke-width="1.5" d="M0,-3.0v7 M-2.5,-0.5L0,-3.0L2.5,-0.5"/>
  </g>
  <g id="arrowDown" transform="rotate(180) translate(-30 -48)">
    <use xlink:href="#rim"/>
    <path pointer-events="none" fill="none" stroke="white" stroke-width="1.5" d="M0,-3.0v7 M-2.5,-0.5L0,-3.0L2.5,-0.5"/>
  </g>
  <g id="arrowLeft" transform="rotate(270) translate(-36 17)">
    <use xlink:href="#rim"/>
    <path pointer-events="none" fill="none" stroke="white" stroke-width="1.5" d="M0,-3.0v7 M-2.5,-0.5L0,-3.0L2.5,-0.5"/>
  </g>
  <g id="resetDef">
    <use xlink:href="#rim2" fill="#404040"><set attributeName="fill" to="#808080" begin="reset.mouseover" end="reset.mouseout"/></use>
  </g>
</defs>
<script type="application/ecmascript">
var viewWidth = 1455;
var viewHeight = 214;
var sectionId = 'dynsection-0';
</script>
<script type="application/ecmascript" xlink:href="../../svg.min.js"/>
<svg id="graph" class="graph">
<g id="viewport">
<title>engine::SkyboxManager</title>
<!-- Node1 -->
<g id="Node000001" class="node">
<title>Node1</title>
<g id="a_Node000001"><a xlink:title=" ">
<polygon fill="#999999" stroke="#666666" points="1447,-78.88 1329,-78.88 1329,-59.62 1447,-59.62 1447,-78.88"/>
<text text-anchor="middle" x="1388" y="-65.38" font-family="Helvetica,sans-Serif" font-size="10.00">engine::SkyboxManager</text>
</a>
</g>
</g>
<!-- Node2 -->
<g id="Node000002" class="node">
<title>Node2</title>
<g id="a_Node000002"><a xlink:href="../../dd/d36/classengine_1_1render_1_1_graphics_shader_program.html" target="_top" xlink:title=" ">
<polygon fill="white" stroke="#666666" points="1185.75,-152.5 1066.25,-152.5 1066.25,-122 1185.75,-122 1185.75,-152.5"/>
<text text-anchor="start" x="1074.25" y="-139" font-family="Helvetica,sans-Serif" font-size="10.00">engine::render::Graphics</text>
<text text-anchor="middle" x="1126" y="-127.75" font-family="Helvetica,sans-Serif" font-size="10.00">ShaderProgram</text>
</a>
</g>
</g>
<!-- Node2&#45;&gt;Node1 -->
<g id="edge1_Node000001_Node000002" class="edge">
<title>Node2&#45;&gt;Node1</title>
<g id="a_edge1_Node000001_Node000002"><a xlink:title=" ">
<path fill="none" stroke="#9a32cd" stroke-dasharray="5,2" d="M1197.08,-118.92C1245.68,-106.21 1308.59,-89.76 1348.38,-79.35"/>
<polygon fill="#9a32cd" stroke="#9a32cd" points="1196.25,-115.52 1187.46,-121.44 1198.02,-122.29 1196.25,-115.52"/>
</a>
</g>
<text text-anchor="middle" x="1266.75" y="-113" font-family="Helvetica,sans-Serif" font-size="10.00" fill="grey"> skybox_shader_</text>
</g>
<!-- Node3 -->
<g id="Node000003" class="node">
<title>Node3</title>
<g id="a_Node000003"><a xlink:href="../../db/db6/structengine_1_1render_1_1_shader_program.html" target="_top" xlink:title=" ">
<polygon fill="white" stroke="#666666" points="952.25,-205.88 804.25,-205.88 804.25,-186.62 952.25,-186.62 952.25,-205.88"/>
<text text-anchor="middle" x="878.25" y="-192.38" font-family="Helvetica,sans-Serif" font-size="10.00">engine::render::ShaderProgram</text>
</a>
</g>
</g>
<!-- Node3&#45;&gt;Node2 -->
<g id="edge2_Node000002_Node000003" class="edge">
<title>Node3&#45;&gt;Node2</title>
<g id="a_edge2_Node000002_Node000003"><a xlink:title=" ">
<path fill="none" stroke="#63b8ff" d="M934.29,-183.67C962.74,-177.1 998.02,-168.87 1029.5,-161.25 1041.3,-158.39 1053.9,-155.28 1065.95,-152.26"/>
<polygon fill="#63b8ff" stroke="#63b8ff" points="933.78,-180.2 924.82,-185.85 935.35,-187.02 933.78,-180.2"/>
</a>
</g>
</g>
<!-- Node4 -->
<g id="Node000004" class="node">
<title>Node4</title>
<g id="a_Node000004"><a xlink:title=" ">
<polygon fill="white" stroke="#666666" points="936.5,-168.5 820,-168.5 820,-138 936.5,-138 936.5,-168.5"/>
<text text-anchor="start" x="828" y="-155" font-family="Helvetica,sans-Serif" font-size="10.00">std::shared_ptr&lt; engine</text>
<text text-anchor="middle" x="878.25" y="-143.75" font-family="Helvetica,sans-Serif" font-size="10.00">::render::Shader &gt;</text>
</a>
</g>
</g>
<!-- Node4&#45;&gt;Node2 -->
<g id="edge3_Node000002_Node000004" class="edge">
<title>Node4&#45;&gt;Node2</title>
<g id="a_edge3_Node000002_Node000004"><a xlink:title=" ">
<path fill="none" stroke="#9a32cd" stroke-dasharray="5,2" d="M948.1,-148.77C985.22,-146.35 1030.56,-143.4 1066.04,-141.09"/>
<polygon fill="#9a32cd" stroke="#9a32cd" points="948.13,-145.26 938.38,-149.4 948.58,-152.24 948.13,-145.26"/>
</a>
</g>
<text text-anchor="middle" x="999.88" y="-148" font-family="Helvetica,sans-Serif" font-size="10.00" fill="grey"> shaders_</text>
</g>
<!-- Node5 -->
<g id="Node000005" class="node">
<title>Node5</title>
<g id="a_Node000005"><a xlink:href="../../d0/dc5/classengine_1_1render_1_1_shader.html" target="_top" xlink:title=" ">
<polygon fill="white" stroke="#666666" points="744.62,-162.88 633.38,-162.88 633.38,-143.62 744.62,-143.62 744.62,-162.88"/>
<text text-anchor="middle" x="689" y="-149.38" font-family="Helvetica,sans-Serif" font-size="10.00">engine::render::Shader</text>
</a>
</g>
</g>
<!-- Node5&#45;&gt;Node4 -->
<g id="edge4_Node000004_Node000005" class="edge">
<title>Node5&#45;&gt;Node4</title>
<g id="a_edge4_Node000004_Node000005"><a xlink:title=" ">
<path fill="none" stroke="#9a32cd" stroke-dasharray="5,2" d="M756.2,-153.25C776.94,-153.25 799.64,-153.25 819.73,-153.25"/>
<polygon fill="#9a32cd" stroke="#9a32cd" points="756.43,-149.75 746.43,-153.25 756.43,-156.75 756.43,-149.75"/>
</a>
</g>
<text text-anchor="middle" x="779.5" y="-155" font-family="Helvetica,sans-Serif" font-size="10.00" fill="grey"> ptr</text>
</g>
<!-- Node6 -->
<g id="Node000006" class="node">
<title>Node6</title>
<g id="a_Node000006"><a xlink:href="../../d3/de6/structengine_1_1render_1_1_shader_blob.html" target="_top" xlink:title=" ">
<polygon fill="white" stroke="#666666" points="561.75,-162.88 431,-162.88 431,-143.62 561.75,-143.62 561.75,-162.88"/>
<text text-anchor="middle" x="496.38" y="-149.38" font-family="Helvetica,sans-Serif" font-size="10.00">engine::render::ShaderBlob</text>
</a>
</g>
</g>
<!-- Node6&#45;&gt;Node5 -->
<g id="edge5_Node000005_Node000006" class="edge">
<title>Node6&#45;&gt;Node5</title>
<g id="a_edge5_Node000005_Node000006"><a xlink:title=" ">
<path fill="none" stroke="#9a32cd" stroke-dasharray="5,2" d="M573.68,-153.25C593.49,-153.25 614.43,-153.25 632.91,-153.25"/>
<polygon fill="#9a32cd" stroke="#9a32cd" points="573.69,-149.75 563.69,-153.25 573.69,-156.75 573.69,-149.75"/>
</a>
</g>
<text text-anchor="middle" x="592.5" y="-155" font-family="Helvetica,sans-Serif" font-size="10.00" fill="grey"> blob_</text>
</g>
<!-- Node7 -->
<g id="Node000007" class="node">
<title>Node7</title>
<g id="a_Node000007"><a xlink:title=" ">
<polygon fill="white" stroke="#666666" points="350.38,-162.88 243.62,-162.88 243.62,-143.62 350.38,-143.62 350.38,-162.88"/>
<text text-anchor="middle" x="297" y="-149.38" font-family="Helvetica,sans-Serif" font-size="10.00">std::vector&lt; uint8_t &gt;</text>
</a>
</g>
</g>
<!-- Node7&#45;&gt;Node6 -->
<g id="edge6_Node000006_Node000007" class="edge">
<title>Node7&#45;&gt;Node6</title>
<g id="a_edge6_Node000006_Node000007"><a xlink:title=" ">
<path fill="none" stroke="#9a32cd" stroke-dasharray="5,2" d="M361.86,-153.25C383.85,-153.25 408.49,-153.25 430.55,-153.25"/>
<polygon fill="#9a32cd" stroke="#9a32cd" points="362.15,-149.75 352.15,-153.25 362.15,-156.75 362.15,-149.75"/>
</a>
</g>
<text text-anchor="middle" x="392.38" y="-155" font-family="Helvetica,sans-Serif" font-size="10.00" fill="grey"> bytecode</text>
</g>
<!-- Node8 -->
<g id="Node000008" class="node">
<title>Node8</title>
<g id="a_Node000008"><a xlink:title=" ">
<polygon fill="white" stroke="#666666" points="936.5,-119.5 820,-119.5 820,-89 936.5,-89 936.5,-119.5"/>
<text text-anchor="start" x="828" y="-106" font-family="Helvetica,sans-Serif" font-size="10.00">std::shared_ptr&lt; engine</text>
<text text-anchor="middle" x="878.25" y="-94.75" font-family="Helvetica,sans-Serif" font-size="10.00">::render::InputLayout &gt;</text>
</a>
</g>
</g>
<!-- Node8&#45;&gt;Node2 -->
<g id="edge7_Node000002_Node000008" class="edge">
<title>Node8&#45;&gt;Node2</title>
<g id="a_edge7_Node000002_Node000008"><a xlink:title=" ">
<path fill="none" stroke="#9a32cd" stroke-dasharray="5,2" d="M948.1,-113.5C985.22,-118.48 1030.56,-124.57 1066.04,-129.33"/>
<polygon fill="#9a32cd" stroke="#9a32cd" points="948.74,-110.05 938.37,-112.19 947.81,-116.99 948.74,-110.05"/>
</a>
</g>
<text text-anchor="middle" x="999.88" y="-125" font-family="Helvetica,sans-Serif" font-size="10.00" fill="grey"> input_layout_</text>
</g>
<!-- Node9 -->
<g id="Node000009" class="node">
<title>Node9</title>
<g id="a_Node000009"><a xlink:href="../../d2/d6c/classengine_1_1render_1_1_input_layout.html" target="_top" xlink:title=" ">
<polygon fill="white" stroke="#666666" points="754.75,-113.88 623.25,-113.88 623.25,-94.62 754.75,-94.62 754.75,-113.88"/>
<text text-anchor="middle" x="689" y="-100.38" font-family="Helvetica,sans-Serif" font-size="10.00">engine::render::InputLayout</text>
</a>
</g>
</g>
<!-- Node9&#45;&gt;Node8 -->
<g id="edge8_Node000008_Node000009" class="edge">
<title>Node9&#45;&gt;Node8</title>
<g id="a_edge8_Node000008_Node000009"><a xlink:title=" ">
<path fill="none" stroke="#9a32cd" stroke-dasharray="5,2" d="M766.73,-104.25C784.45,-104.25 803.01,-104.25 819.75,-104.25"/>
<polygon fill="#9a32cd" stroke="#9a32cd" points="766.74,-100.75 756.74,-104.25 766.74,-107.75 766.74,-100.75"/>
</a>
</g>
<text text-anchor="middle" x="779.5" y="-106" font-family="Helvetica,sans-Serif" font-size="10.00" fill="grey"> ptr</text>
</g>
<!-- Node10 -->
<g id="Node000010" class="node">
<title>Node10</title>
<g id="a_Node000010"><a xlink:title=" ">
<polygon fill="white" stroke="#666666" points="1204.5,-90.12 1047.5,-90.12 1047.5,-48.38 1204.5,-48.38 1204.5,-90.12"/>
<text text-anchor="start" x="1055.5" y="-76.62" font-family="Helvetica,sans-Serif" font-size="10.00">std::unique_ptr&lt; engine</text>
<text text-anchor="start" x="1055.5" y="-65.38" font-family="Helvetica,sans-Serif" font-size="10.00">::direct3d::DynamicUniformBuffer</text>
<text text-anchor="middle" x="1126" y="-54.12" font-family="Helvetica,sans-Serif" font-size="10.00">&lt; core::math::mat4x3 &gt; &gt;</text>
</a>
</g>
</g>
<!-- Node10&#45;&gt;Node1 -->
<g id="edge9_Node000001_Node000010" class="edge">
<title>Node10&#45;&gt;Node1</title>
<g id="a_edge9_Node000001_Node000010"><a xlink:title=" ">
<path fill="none" stroke="#9a32cd" stroke-dasharray="5,2" d="M1216.04,-69.25C1253.3,-69.25 1295.55,-69.25 1328.73,-69.25"/>
<polygon fill="#9a32cd" stroke="#9a32cd" points="1216.17,-65.75 1206.17,-69.25 1216.17,-72.75 1216.17,-65.75"/>
</a>
</g>
<text text-anchor="middle" x="1266.75" y="-71" font-family="Helvetica,sans-Serif" font-size="10.00" fill="grey"> skybox_buffer_</text>
</g>
<!-- Node11 -->
<g id="Node000011" class="node">
<title>Node11</title>
<g id="a_Node000011"><a xlink:href="../../d2/db0/classengine_1_1direct3d_1_1_dynamic_uniform_buffer.html" target="_top" xlink:title=" ">
<polygon fill="white" stroke="#666666" points="942.88,-71.12 813.62,-71.12 813.62,-29.38 942.88,-29.38 942.88,-71.12"/>
<text text-anchor="start" x="821.62" y="-57.62" font-family="Helvetica,sans-Serif" font-size="10.00">engine::direct3d::Dynamic</text>
<text text-anchor="start" x="821.62" y="-46.38" font-family="Helvetica,sans-Serif" font-size="10.00">UniformBuffer&lt; core::math</text>
<text text-anchor="middle" x="878.25" y="-35.12" font-family="Helvetica,sans-Serif" font-size="10.00">::mat4x3 &gt;</text>
</a>
</g>
</g>
<!-- Node11&#45;&gt;Node10 -->
<g id="edge10_Node000010_Node000011" class="edge">
<title>Node11&#45;&gt;Node10</title>
<g id="a_edge10_Node000010_Node000011"><a xlink:title=" ">
<path fill="none" stroke="#9a32cd" stroke-dasharray="5,2" d="M954.64,-56.08C984.05,-58.35 1017.75,-60.96 1047.37,-63.25"/>
<polygon fill="#9a32cd" stroke="#9a32cd" points="954.93,-52.59 944.69,-55.31 954.39,-59.57 954.93,-52.59"/>
</a>
</g>
<text text-anchor="middle" x="999.88" y="-63" font-family="Helvetica,sans-Serif" font-size="10.00" fill="grey"> ptr</text>
</g>
<!-- Node12 -->
<g id="Node000012" class="node">
<title>Node12</title>
<g id="a_Node000012"><a xlink:href="../../df/d0e/classengine_1_1direct3d_1_1_dynamic_buffer.html" target="_top" xlink:title="The dynamic buffer class.">
<polygon fill="white" stroke="#666666" points="751.75,-65.5 626.25,-65.5 626.25,-35 751.75,-35 751.75,-65.5"/>
<text text-anchor="start" x="634.25" y="-52" font-family="Helvetica,sans-Serif" font-size="10.00">engine::direct3d::Dynamic</text>
<text text-anchor="middle" x="689" y="-40.75" font-family="Helvetica,sans-Serif" font-size="10.00">Buffer&lt; T &gt;</text>
</a>
</g>
</g>
<!-- Node12&#45;&gt;Node11 -->
<g id="edge11_Node000011_Node000012" class="edge">
<title>Node12&#45;&gt;Node11</title>
<g id="a_edge11_Node000011_Node000012"><a xlink:title=" ">
<path fill="none" stroke="#8b1a1a" d="M763.37,-50.25C779.89,-50.25 797.3,-50.25 813.4,-50.25"/>
<polygon fill="#8b1a1a" stroke="#8b1a1a" points="763.61,-46.75 753.6,-50.25 763.6,-53.75 763.61,-46.75"/>
</a>
</g>
</g>
<!-- Node13 -->
<g id="Node000013" class="node">
<title>Node13</title>
<g id="a_Node000013"><a xlink:href="../../d9/db4/classengine_1_1direct3d_1_1_buffer_base.html" target="_top" xlink:title="Buffer Base class that contains the common functions for all the buffers.">
<polygon fill="white" stroke="#666666" points="553.12,-65.5 439.62,-65.5 439.62,-35 553.12,-35 553.12,-65.5"/>
<text text-anchor="start" x="447.62" y="-52" font-family="Helvetica,sans-Serif" font-size="10.00">engine::direct3d::Buffer</text>
<text text-anchor="middle" x="496.38" y="-40.75" font-family="Helvetica,sans-Serif" font-size="10.00">Base&lt; T &gt;</text>
</a>
</g>
</g>
<!-- Node13&#45;&gt;Node12 -->
<g id="edge12_Node000012_Node000013" class="edge">
<title>Node13&#45;&gt;Node12</title>
<g id="a_edge12_Node000012_Node000013"><a xlink:title=" ">
<path fill="none" stroke="#63b8ff" d="M564.99,-50.25C584.83,-50.25 606.42,-50.25 625.9,-50.25"/>
<polygon fill="#63b8ff" stroke="#63b8ff" points="565.05,-46.75 555.05,-50.25 565.05,-53.75 565.05,-46.75"/>
</a>
</g>
</g>
<!-- Node14 -->
<g id="Node000014" class="node">
<title>Node14</title>
<g id="a_Node000014"><a xlink:href="../../d6/de4/classengine_1_1direct3d_1_1_buffer_wrapper.html" target="_top" xlink:title="A wrapper for a D3D11 buffer.">
<polygon fill="white" stroke="#666666" points="353.75,-65.5 240.25,-65.5 240.25,-35 353.75,-35 353.75,-65.5"/>
<text text-anchor="start" x="248.25" y="-52" font-family="Helvetica,sans-Serif" font-size="10.00">engine::direct3d::Buffer</text>
<text text-anchor="middle" x="297" y="-40.75" font-family="Helvetica,sans-Serif" font-size="10.00">Wrapper</text>
</a>
</g>
</g>
<!-- Node14&#45;&gt;Node13 -->
<g id="edge13_Node000013_Node000014" class="edge">
<title>Node14&#45;&gt;Node13</title>
<g id="a_edge13_Node000013_Node000014"><a xlink:title=" ">
<path fill="none" stroke="#8b1a1a" d="M365.23,-50.25C389.3,-50.25 416.16,-50.25 439.2,-50.25"/>
<polygon fill="#8b1a1a" stroke="#8b1a1a" points="365.55,-46.75 355.55,-50.25 365.55,-53.75 365.55,-46.75"/>
</a>
</g>
</g>
<!-- Node15 -->
<g id="Node000015" class="node">
<title>Node15</title>
<g id="a_Node000015"><a xlink:href="../../df/d47/classengine_1_1direct3d_1_1d3d__resource__wrapper.html" target="_top" xlink:title=" ">
<polygon fill="white" stroke="#666666" points="172.75,-65.5 0,-65.5 0,-35 172.75,-35 172.75,-65.5"/>
<text text-anchor="start" x="8" y="-52" font-family="Helvetica,sans-Serif" font-size="10.00">engine::direct3d::d3d</text>
<text text-anchor="middle" x="86.38" y="-40.75" font-family="Helvetica,sans-Serif" font-size="10.00">_resource_wrapper&lt; ID3D11Buffer &gt;</text>
</a>
</g>
</g>
<!-- Node15&#45;&gt;Node14 -->
<g id="edge14_Node000014_Node000015" class="edge">
<title>Node15&#45;&gt;Node14</title>
<g id="a_edge14_Node000014_Node000015"><a xlink:title=" ">
<path fill="none" stroke="#9a32cd" stroke-dasharray="5,2" d="M184.54,-50.25C203.47,-50.25 222.72,-50.25 239.77,-50.25"/>
<polygon fill="#9a32cd" stroke="#9a32cd" points="184.65,-46.75 174.65,-50.25 184.65,-53.75 184.65,-46.75"/>
</a>
</g>
<text text-anchor="middle" x="206.5" y="-52" font-family="Helvetica,sans-Serif" font-size="10.00" fill="grey"> buffer_</text>
</g>
<!-- Node16 -->
<g id="Node000016" class="node">
<title>Node16</title>
<g id="a_Node000016"><a xlink:href="../../df/d47/classengine_1_1direct3d_1_1d3d__resource__wrapper.html" target="_top" xlink:title="The d3d resource wrapper class.">
<polygon fill="white" stroke="#666666" points="1186.5,-30.5 1065.5,-30.5 1065.5,0 1186.5,0 1186.5,-30.5"/>
<text text-anchor="start" x="1073.5" y="-17" font-family="Helvetica,sans-Serif" font-size="10.00">engine::direct3d::d3d</text>
<text text-anchor="middle" x="1126" y="-5.75" font-family="Helvetica,sans-Serif" font-size="10.00">_resource_wrapper&lt; T &gt;</text>
</a>
</g>
</g>
<!-- Node16&#45;&gt;Node1 -->
<g id="edge15_Node000001_Node000016" class="edge">
<title>Node16&#45;&gt;Node1</title>
<g id="a_edge15_Node000001_Node000016"><a xlink:title=" ">
<path fill="none" stroke="#9a32cd" stroke-dasharray="5,2" d="M1198.05,-30.01C1242.7,-39.28 1299.11,-51 1338.62,-59.2"/>
<polygon fill="#9a32cd" stroke="#9a32cd" points="1198.96,-26.62 1188.46,-28.01 1197.54,-33.47 1198.96,-26.62"/>
</a>
</g>
<text text-anchor="middle" x="1266.75" y="-55" font-family="Helvetica,sans-Serif" font-size="10.00" fill="grey"> skybox_depth_state</text>
</g>
</g>
</svg>

<g id="navigator" transform="translate(0 0)" fill="#404254">
  <rect fill="#f2f5e9" fill-opacity="0.5" stroke="#606060" stroke-width=".5" x="0" y="0" width="60" height="60"/>
  <use id="zoomplus" xlink:href="#zoomPlus" x="17" y="9" onmousedown="handleZoom(evt,'in')"/>
  <use id="zoomminus" xlink:href="#zoomMin" x="42" y="9" onmousedown="handleZoom(evt,'out')"/>
  <use id="reset" xlink:href="#resetDef" x="30" y="36" onmousedown="handleReset()"/>
   <use id="arrowup" xlink:href="#arrowUp" x="0" y="0" onmousedown="handlePan(0,-1)"/>
  <use id="arrowright" xlink:href="#arrowRight" x="0" y="0" onmousedown="handlePan(1,0)"/>
  <use id="arrowdown" xlink:href="#arrowDown" x="0" y="0" onmousedown="handlePan(0,1)"/>
  <use id="arrowleft" xlink:href="#arrowLeft" x="0" y="0" onmousedown="handlePan(-1,0)"/>
</g>
<svg viewBox="0 0 15 15" width="100%" height="30px" preserveAspectRatio="xMaxYMin meet">
 <g id="arrow_out" transform="scale(0.3 0.3)">
  <a xlink:href="classengine_1_1_skybox_manager__coll__graph_org.svg" target="_base">
   <rect id="button" ry="5" rx="5" y="6" x="6" height="38" width="38"
        fill="#f2f5e9" fill-opacity="0.5" stroke="#606060" stroke-width="1.0"/>
   <path id="arrow"
     d="M 11.500037,31.436501 C 11.940474,20.09759 22.043105,11.32322 32.158766,21.979434 L 37.068811,17.246167 C 37.068811,17.246167 37.088388,32 37.088388,32 L 22.160133,31.978069 C 22.160133,31.978069 26.997745,27.140456 26.997745,27.140456 C 18.528582,18.264221 13.291696,25.230495 11.500037,31.436501 z"
     style="fill:#404040;"/>
  </a>
 </g>
</svg>

<style type='text/css'>
<![CDATA[
[data-mouse-over-selected='false'] { opacity: 0.7; }
[data-mouse-over-selected='true']  { opacity: 1.0; }
]]>
</style>
<script type="application/ecmascript"><![CDATA[
document.addEventListener('DOMContentLoaded', (event) => {
  highlightEdges();
  highlightAdjacentNodes();
});
]]></script>
</svg>
