<?xml version="1.0" encoding="UTF-8" standalone="no"?>
<!DOCTYPE svg PUBLIC "-//W3C//DTD SVG 1.1//EN"
 "http://www.w3.org/Graphics/SVG/1.1/DTD/svg11.dtd">
<!-- Generated by graphviz version 9.0.0 (20230911.1827)
 -->
<!-- Title: engine::utils::Measurer&lt; clock &gt; Pages: 1 -->
<svg width="230pt" height="194pt"
 viewBox="0.00 0.00 230.25 194.00" xmlns="http://www.w3.org/2000/svg" xmlns:xlink="http://www.w3.org/1999/xlink">
<g id="graph0" class="graph" transform="scale(1 1) rotate(0) translate(4 190)">
<title>engine::utils::Measurer&lt; clock &gt;</title>
<!-- Node1 -->
<g id="Node000001" class="node">
<title>Node1</title>
<g id="a_Node000001"><a xlink:title=" ">
<polygon fill="#999999" stroke="#666666" points="159.25,-30.5 47.25,-30.5 47.25,0 159.25,0 159.25,-30.5"/>
<text text-anchor="start" x="55.25" y="-17" font-family="Helvetica,sans-Serif" font-size="10.00">engine::utils::Measurer</text>
<text text-anchor="middle" x="103.25" y="-5.75" font-family="Helvetica,sans-Serif" font-size="10.00">&lt; clock &gt;</text>
</a>
</g>
</g>
<!-- Node2 -->
<g id="Node000002" class="node">
<title>Node2</title>
<g id="a_Node000002"><a xlink:title=" ">
<polygon fill="white" stroke="#666666" points="79.25,-102.62 21.25,-102.62 21.25,-83.38 79.25,-83.38 79.25,-102.62"/>
<text text-anchor="middle" x="50.25" y="-89.12" font-family="Helvetica,sans-Serif" font-size="10.00">std::string</text>
</a>
</g>
</g>
<!-- Node2&#45;&gt;Node1 -->
<g id="edge1_Node000001_Node000002" class="edge">
<title>Node2&#45;&gt;Node1</title>
<g id="a_edge1_Node000001_Node000002"><a xlink:title=" ">
<path fill="none" stroke="#9a32cd" stroke-dasharray="5,2" d="M63.12,-73.6C72.29,-60.5 84.45,-43.12 92.97,-30.94"/>
<polygon fill="#9a32cd" stroke="#9a32cd" points="60.27,-71.57 57.41,-81.77 66.01,-75.59 60.27,-71.57"/>
</a>
</g>
<text text-anchor="middle" x="94.88" y="-50.25" font-family="Helvetica,sans-Serif" font-size="10.00" fill="grey"> output</text>
</g>
<!-- Node3 -->
<g id="Node000003" class="node">
<title>Node3</title>
<g id="a_Node000003"><a xlink:title=" ">
<polygon fill="white" stroke="#666666" points="92.5,-186 0,-186 0,-155.5 92.5,-155.5 92.5,-186"/>
<text text-anchor="start" x="8" y="-172.5" font-family="Helvetica,sans-Serif" font-size="10.00">std::basic_string&lt;</text>
<text text-anchor="middle" x="46.25" y="-161.25" font-family="Helvetica,sans-Serif" font-size="10.00"> Char &gt;</text>
</a>
</g>
</g>
<!-- Node3&#45;&gt;Node2 -->
<g id="edge2_Node000002_Node000003" class="edge">
<title>Node3&#45;&gt;Node2</title>
<g id="a_edge2_Node000002_Node000003"><a xlink:title=" ">
<path fill="none" stroke="#63b8ff" d="M47.61,-143.98C48.36,-129.72 49.25,-112.91 49.78,-102.87"/>
<polygon fill="#63b8ff" stroke="#63b8ff" points="44.13,-143.46 47.1,-153.63 51.12,-143.83 44.13,-143.46"/>
</a>
</g>
</g>
<!-- Node4 -->
<g id="Node000004" class="node">
<title>Node4</title>
<g id="a_Node000004"><a xlink:title=" ">
<polygon fill="white" stroke="#666666" points="222.25,-108.25 104.25,-108.25 104.25,-77.75 222.25,-77.75 222.25,-108.25"/>
<text text-anchor="start" x="112.25" y="-94.75" font-family="Helvetica,sans-Serif" font-size="10.00">std::vector&lt; engine</text>
<text text-anchor="middle" x="163.25" y="-83.5" font-family="Helvetica,sans-Serif" font-size="10.00">::utils::Measurer::Entry &gt;</text>
</a>
</g>
</g>
<!-- Node4&#45;&gt;Node1 -->
<g id="edge3_Node000001_Node000004" class="edge">
<title>Node4&#45;&gt;Node1</title>
<g id="a_edge3_Node000001_Node000004"><a xlink:title=" ">
<path fill="none" stroke="#9a32cd" stroke-dasharray="5,2" d="M144.67,-68.54C134.9,-56.21 123.24,-41.49 114.78,-30.81"/>
<polygon fill="#9a32cd" stroke="#9a32cd" points="141.79,-70.54 150.74,-76.21 147.28,-66.2 141.79,-70.54"/>
</a>
</g>
<text text-anchor="middle" x="152" y="-50.25" font-family="Helvetica,sans-Serif" font-size="10.00" fill="grey"> entries</text>
</g>
<!-- Node5 -->
<g id="Node000005" class="node">
<title>Node5</title>
<g id="a_Node000005"><a xlink:href="../../df/d28/structengine_1_1utils_1_1_measurer_1_1_entry.html" target="_top" xlink:title=" ">
<polygon fill="white" stroke="#666666" points="222.25,-186 110.25,-186 110.25,-155.5 222.25,-155.5 222.25,-186"/>
<text text-anchor="start" x="118.25" y="-172.5" font-family="Helvetica,sans-Serif" font-size="10.00">engine::utils::Measurer</text>
<text text-anchor="middle" x="166.25" y="-161.25" font-family="Helvetica,sans-Serif" font-size="10.00">&lt; clock &gt;::Entry</text>
</a>
</g>
</g>
<!-- Node5&#45;&gt;Node4 -->
<g id="edge4_Node000004_Node000005" class="edge">
<title>Node5&#45;&gt;Node4</title>
<g id="a_edge4_Node000004_Node000005"><a xlink:title=" ">
<path fill="none" stroke="#9a32cd" stroke-dasharray="5,2" d="M165.22,-143.72C164.75,-131.96 164.22,-118.51 163.83,-108.56"/>
<polygon fill="#9a32cd" stroke="#9a32cd" points="161.72,-143.78 165.61,-153.63 168.71,-143.5 161.72,-143.78"/>
</a>
</g>
<text text-anchor="middle" x="185.25" y="-128" font-family="Helvetica,sans-Serif" font-size="10.00" fill="grey"> elements</text>
</g>
</g>
</svg>
