<?xml version="1.0" encoding="UTF-8" standalone="no"?>
<!DOCTYPE svg PUBLIC "-//W3C//DTD SVG 1.1//EN"
 "http://www.w3.org/Graphics/SVG/1.1/DTD/svg11.dtd">
<!-- Generated by graphviz version 9.0.0 (20230911.1827)
 -->
<!-- Title: engine::direct3d::DynamicBuffer&lt; T &gt; Pages: 1 -->
<svg width="668pt" height="1753pt"
 viewBox="0.00 0.00 667.50 1753.12" xmlns="http://www.w3.org/2000/svg" xmlns:xlink="http://www.w3.org/1999/xlink">
<g id="graph0" class="graph" transform="scale(1 1) rotate(0) translate(4 1749.12)">
<title>engine::direct3d::DynamicBuffer&lt; T &gt;</title>
<!-- Node1 -->
<g id="Node000001" class="node">
<title>Node1</title>
<g id="a_Node000001"><a xlink:title="The dynamic buffer class.">
<polygon fill="#999999" stroke="#666666" points="424.5,-830.5 299,-830.5 299,-800 424.5,-800 424.5,-830.5"/>
<text text-anchor="start" x="307" y="-817" font-family="Helvetica,sans-Serif" font-size="10.00">engine::direct3d::Dynamic</text>
<text text-anchor="middle" x="361.75" y="-805.75" font-family="Helvetica,sans-Serif" font-size="10.00">Buffer&lt; T &gt;</text>
</a>
</g>
</g>
<!-- Node4 -->
<g id="Node000004" class="node">
<title>Node4</title>
<g id="a_Node000004"><a xlink:href="../../d2/db0/classengine_1_1direct3d_1_1_dynamic_uniform_buffer.html" target="_top" xlink:title=" ">
<polygon fill="white" stroke="#666666" points="624.62,-1745.12 495.38,-1745.12 495.38,-1703.38 624.62,-1703.38 624.62,-1745.12"/>
<text text-anchor="start" x="503.38" y="-1731.62" font-family="Helvetica,sans-Serif" font-size="10.00">engine::direct3d::Dynamic</text>
<text text-anchor="start" x="503.38" y="-1720.38" font-family="Helvetica,sans-Serif" font-size="10.00">UniformBuffer&lt; core::math</text>
<text text-anchor="middle" x="560" y="-1709.12" font-family="Helvetica,sans-Serif" font-size="10.00">::mat4x3 &gt;</text>
</a>
</g>
</g>
<!-- Node1&#45;&gt;Node4 -->
<g id="edge3_Node000001_Node000004" class="edge">
<title>Node1&#45;&gt;Node4</title>
<g id="a_edge3_Node000001_Node000004"><a xlink:title=" ">
<path fill="none" stroke="#8b1a1a" d="M364.01,-842.31C370.77,-983.01 404.62,-1626.95 460.5,-1694.25 469.35,-1704.91 481.87,-1711.86 495.02,-1716.38"/>
<polygon fill="#8b1a1a" stroke="#8b1a1a" points="367.51,-842.32 363.54,-832.49 360.52,-842.65 367.51,-842.32"/>
</a>
</g>
</g>
<!-- Node5 -->
<g id="Node000005" class="node">
<title>Node5</title>
<g id="a_Node000005"><a xlink:href="../../d2/db0/classengine_1_1direct3d_1_1_dynamic_uniform_buffer.html" target="_top" xlink:title=" ">
<polygon fill="white" stroke="#666666" points="622.75,-1685.12 497.25,-1685.12 497.25,-1643.38 622.75,-1643.38 622.75,-1685.12"/>
<text text-anchor="start" x="505.25" y="-1671.62" font-family="Helvetica,sans-Serif" font-size="10.00">engine::direct3d::Dynamic</text>
<text text-anchor="start" x="505.25" y="-1660.38" font-family="Helvetica,sans-Serif" font-size="10.00">UniformBuffer&lt; engine::</text>
<text text-anchor="middle" x="560" y="-1649.12" font-family="Helvetica,sans-Serif" font-size="10.00">render::PerFrame &gt;</text>
</a>
</g>
</g>
<!-- Node1&#45;&gt;Node5 -->
<g id="edge4_Node000001_Node000005" class="edge">
<title>Node1&#45;&gt;Node5</title>
<g id="a_edge4_Node000001_Node000005"><a xlink:title=" ">
<path fill="none" stroke="#8b1a1a" d="M364.22,-842.19C371.77,-976.87 408.01,-1573.13 460.5,-1635.25 469.82,-1646.28 483.1,-1653.23 496.91,-1657.58"/>
<polygon fill="#8b1a1a" stroke="#8b1a1a" points="367.73,-842.26 363.68,-832.47 360.74,-842.65 367.73,-842.26"/>
</a>
</g>
</g>
<!-- Node6 -->
<g id="Node000006" class="node">
<title>Node6</title>
<g id="a_Node000006"><a xlink:href="../../d2/db0/classengine_1_1direct3d_1_1_dynamic_uniform_buffer.html" target="_top" xlink:title=" ">
<polygon fill="white" stroke="#666666" points="622.75,-1625.75 497.25,-1625.75 497.25,-1572.75 622.75,-1572.75 622.75,-1625.75"/>
<text text-anchor="start" x="505.25" y="-1612.25" font-family="Helvetica,sans-Serif" font-size="10.00">engine::direct3d::Dynamic</text>
<text text-anchor="start" x="505.25" y="-1601" font-family="Helvetica,sans-Serif" font-size="10.00">UniformBuffer&lt; engine::</text>
<text text-anchor="start" x="505.25" y="-1589.75" font-family="Helvetica,sans-Serif" font-size="10.00">render::DeferredResolve</text>
<text text-anchor="middle" x="560" y="-1578.5" font-family="Helvetica,sans-Serif" font-size="10.00">::DeferredPerFrame &gt;</text>
</a>
</g>
</g>
<!-- Node1&#45;&gt;Node6 -->
<g id="edge5_Node000001_Node000006" class="edge">
<title>Node1&#45;&gt;Node6</title>
<g id="a_edge5_Node000001_Node000006"><a xlink:title=" ">
<path fill="none" stroke="#8b1a1a" d="M362.62,-842.35C362.59,-962.98 368.27,-1450.09 460.5,-1564.25 469.74,-1575.68 482.99,-1583.39 496.79,-1588.57"/>
<polygon fill="#8b1a1a" stroke="#8b1a1a" points="366.12,-842.48 362.64,-832.47 359.12,-842.46 366.12,-842.48"/>
</a>
</g>
</g>
<!-- Node7 -->
<g id="Node000007" class="node">
<title>Node7</title>
<g id="a_Node000007"><a xlink:href="../../d2/db0/classengine_1_1direct3d_1_1_dynamic_uniform_buffer.html" target="_top" xlink:title=" ">
<polygon fill="white" stroke="#666666" points="639.25,-1555.12 480.75,-1555.12 480.75,-1513.38 639.25,-1513.38 639.25,-1555.12"/>
<text text-anchor="start" x="488.75" y="-1541.62" font-family="Helvetica,sans-Serif" font-size="10.00">engine::direct3d::Dynamic</text>
<text text-anchor="start" x="488.75" y="-1530.38" font-family="Helvetica,sans-Serif" font-size="10.00">UniformBuffer&lt; engine::</text>
<text text-anchor="middle" x="560" y="-1519.12" font-family="Helvetica,sans-Serif" font-size="10.00">render::HDRtoLDRLayer::Buffer &gt;</text>
</a>
</g>
</g>
<!-- Node1&#45;&gt;Node7 -->
<g id="edge6_Node000001_Node000007" class="edge">
<title>Node1&#45;&gt;Node7</title>
<g id="a_edge6_Node000001_Node000007"><a xlink:title=" ">
<path fill="none" stroke="#8b1a1a" d="M362.81,-842.16C363.62,-956.81 372.44,-1403.34 460.5,-1505.25 466.09,-1511.72 473.05,-1516.79 480.67,-1520.75"/>
<polygon fill="#8b1a1a" stroke="#8b1a1a" points="366.31,-842.48 362.76,-832.49 359.31,-842.51 366.31,-842.48"/>
</a>
</g>
</g>
<!-- Node8 -->
<g id="Node000008" class="node">
<title>Node8</title>
<g id="a_Node000008"><a xlink:href="../../d2/db0/classengine_1_1direct3d_1_1_dynamic_uniform_buffer.html" target="_top" xlink:title=" ">
<polygon fill="white" stroke="#666666" points="629.88,-1495.75 490.12,-1495.75 490.12,-1442.75 629.88,-1442.75 629.88,-1495.75"/>
<text text-anchor="start" x="498.12" y="-1482.25" font-family="Helvetica,sans-Serif" font-size="10.00">engine::direct3d::Dynamic</text>
<text text-anchor="start" x="498.12" y="-1471" font-family="Helvetica,sans-Serif" font-size="10.00">UniformBuffer&lt; engine::</text>
<text text-anchor="start" x="498.12" y="-1459.75" font-family="Helvetica,sans-Serif" font-size="10.00">render::_opaque_detail::</text>
<text text-anchor="middle" x="560" y="-1448.5" font-family="Helvetica,sans-Serif" font-size="10.00">OpaquePerDepthCubemap &gt;</text>
</a>
</g>
</g>
<!-- Node1&#45;&gt;Node8 -->
<g id="edge7_Node000001_Node000008" class="edge">
<title>Node1&#45;&gt;Node8</title>
<g id="a_edge7_Node000001_Node000008"><a xlink:title=" ">
<path fill="none" stroke="#8b1a1a" d="M363.45,-842.31C366.73,-949.36 383.86,-1341.96 460.5,-1434.25 468.21,-1443.53 478.56,-1450.36 489.66,-1455.37"/>
<polygon fill="#8b1a1a" stroke="#8b1a1a" points="366.95,-842.38 363.16,-832.48 359.95,-842.58 366.95,-842.38"/>
</a>
</g>
</g>
<!-- Node9 -->
<g id="Node000009" class="node">
<title>Node9</title>
<g id="a_Node000009"><a xlink:href="../../d2/db0/classengine_1_1direct3d_1_1_dynamic_uniform_buffer.html" target="_top" xlink:title=" ">
<polygon fill="white" stroke="#666666" points="625.38,-1424.75 494.62,-1424.75 494.62,-1371.75 625.38,-1371.75 625.38,-1424.75"/>
<text text-anchor="start" x="502.62" y="-1411.25" font-family="Helvetica,sans-Serif" font-size="10.00">engine::direct3d::Dynamic</text>
<text text-anchor="start" x="502.62" y="-1400" font-family="Helvetica,sans-Serif" font-size="10.00">UniformBuffer&lt; engine::</text>
<text text-anchor="start" x="502.62" y="-1388.75" font-family="Helvetica,sans-Serif" font-size="10.00">render::_opaque_detail::</text>
<text text-anchor="middle" x="560" y="-1377.5" font-family="Helvetica,sans-Serif" font-size="10.00">OpaquePerDepthTexture &gt;</text>
</a>
</g>
</g>
<!-- Node1&#45;&gt;Node9 -->
<g id="edge8_Node000001_Node000009" class="edge">
<title>Node1&#45;&gt;Node9</title>
<g id="a_edge8_Node000001_Node000009"><a xlink:title=" ">
<path fill="none" stroke="#8b1a1a" d="M364.06,-842.35C369.36,-941.48 392.35,-1282.82 460.5,-1363.25 469.36,-1373.7 481.56,-1381.04 494.36,-1386.18"/>
<polygon fill="#8b1a1a" stroke="#8b1a1a" points="367.56,-842.31 363.55,-832.51 360.57,-842.67 367.56,-842.31"/>
</a>
</g>
</g>
<!-- Node10 -->
<g id="Node000010" class="node">
<title>Node10</title>
<g id="a_Node000010"><a xlink:href="../../d2/db0/classengine_1_1direct3d_1_1_dynamic_uniform_buffer.html" target="_top" xlink:title=" ">
<polygon fill="white" stroke="#666666" points="623.88,-1353.75 496.12,-1353.75 496.12,-1300.75 623.88,-1300.75 623.88,-1353.75"/>
<text text-anchor="start" x="504.12" y="-1340.25" font-family="Helvetica,sans-Serif" font-size="10.00">engine::direct3d::Dynamic</text>
<text text-anchor="start" x="504.12" y="-1329" font-family="Helvetica,sans-Serif" font-size="10.00">UniformBuffer&lt; engine::</text>
<text text-anchor="start" x="504.12" y="-1317.75" font-family="Helvetica,sans-Serif" font-size="10.00">render::_dissolution_detail</text>
<text text-anchor="middle" x="560" y="-1306.5" font-family="Helvetica,sans-Serif" font-size="10.00">::DissolutionPerMaterial &gt;</text>
</a>
</g>
</g>
<!-- Node1&#45;&gt;Node10 -->
<g id="edge9_Node000001_Node000010" class="edge">
<title>Node1&#45;&gt;Node10</title>
<g id="a_edge9_Node000001_Node000010"><a xlink:title=" ">
<path fill="none" stroke="#8b1a1a" d="M364.84,-842.29C372.36,-932.84 400.77,-1223.56 460.5,-1292.25 469.79,-1302.93 482.56,-1310.35 495.83,-1315.51"/>
<polygon fill="#8b1a1a" stroke="#8b1a1a" points="368.34,-842.08 364.04,-832.39 361.36,-842.64 368.34,-842.08"/>
</a>
</g>
</g>
<!-- Node11 -->
<g id="Node000011" class="node">
<title>Node11</title>
<g id="a_Node000011"><a xlink:href="../../d2/db0/classengine_1_1direct3d_1_1_dynamic_uniform_buffer.html" target="_top" xlink:title=" ">
<polygon fill="white" stroke="#666666" points="624.62,-1283.12 495.38,-1283.12 495.38,-1241.38 624.62,-1241.38 624.62,-1283.12"/>
<text text-anchor="start" x="503.38" y="-1269.62" font-family="Helvetica,sans-Serif" font-size="10.00">engine::direct3d::Dynamic</text>
<text text-anchor="start" x="503.38" y="-1258.38" font-family="Helvetica,sans-Serif" font-size="10.00">UniformBuffer&lt; core::math</text>
<text text-anchor="middle" x="560" y="-1247.12" font-family="Helvetica,sans-Serif" font-size="10.00">::mat4 &gt;</text>
</a>
</g>
</g>
<!-- Node1&#45;&gt;Node11 -->
<g id="edge10_Node000001_Node000011" class="edge">
<title>Node1&#45;&gt;Node11</title>
<g id="a_edge10_Node000001_Node000011"><a xlink:title=" ">
<path fill="none" stroke="#8b1a1a" d="M365.54,-842.27C374.64,-925.47 406.09,-1175.67 460.5,-1233.25 469.74,-1243.03 482.1,-1249.57 494.94,-1253.92"/>
<polygon fill="#8b1a1a" stroke="#8b1a1a" points="369.02,-841.9 364.47,-832.33 362.06,-842.64 369.02,-841.9"/>
</a>
</g>
</g>
<!-- Node12 -->
<g id="Node000012" class="node">
<title>Node12</title>
<g id="a_Node000012"><a xlink:href="../../d2/db0/classengine_1_1direct3d_1_1_dynamic_uniform_buffer.html" target="_top" xlink:title=" ">
<polygon fill="white" stroke="#666666" points="622.75,-1223.75 497.25,-1223.75 497.25,-1170.75 622.75,-1170.75 622.75,-1223.75"/>
<text text-anchor="start" x="505.25" y="-1210.25" font-family="Helvetica,sans-Serif" font-size="10.00">engine::direct3d::Dynamic</text>
<text text-anchor="start" x="505.25" y="-1199" font-family="Helvetica,sans-Serif" font-size="10.00">UniformBuffer&lt; engine::</text>
<text text-anchor="start" x="505.25" y="-1187.75" font-family="Helvetica,sans-Serif" font-size="10.00">render::_emissive_detail</text>
<text text-anchor="middle" x="560" y="-1176.5" font-family="Helvetica,sans-Serif" font-size="10.00">::EmissiveShaderBuffer &gt;</text>
</a>
</g>
</g>
<!-- Node1&#45;&gt;Node12 -->
<g id="edge11_Node000001_Node000012" class="edge">
<title>Node1&#45;&gt;Node12</title>
<g id="a_edge11_Node000001_Node000012"><a xlink:title=" ">
<path fill="none" stroke="#8b1a1a" d="M362.43,-842.25C363.15,-906.44 373.93,-1069.69 460.5,-1162.25 470.29,-1172.72 483.42,-1180.06 496.9,-1185.21"/>
<polygon fill="#8b1a1a" stroke="#8b1a1a" points="365.93,-842.29 362.4,-832.3 358.93,-842.31 365.93,-842.29"/>
</a>
</g>
</g>
<!-- Node13 -->
<g id="Node000013" class="node">
<title>Node13</title>
<g id="a_Node000013"><a xlink:href="../../d2/db0/classengine_1_1direct3d_1_1_dynamic_uniform_buffer.html" target="_top" xlink:title=" ">
<polygon fill="white" stroke="#666666" points="624.25,-1152.75 495.75,-1152.75 495.75,-1099.75 624.25,-1099.75 624.25,-1152.75"/>
<text text-anchor="start" x="503.75" y="-1139.25" font-family="Helvetica,sans-Serif" font-size="10.00">engine::direct3d::Dynamic</text>
<text text-anchor="start" x="503.75" y="-1128" font-family="Helvetica,sans-Serif" font-size="10.00">UniformBuffer&lt; engine::</text>
<text text-anchor="start" x="503.75" y="-1116.75" font-family="Helvetica,sans-Serif" font-size="10.00">render::_emissive_particle</text>
<text text-anchor="middle" x="560" y="-1105.5" font-family="Helvetica,sans-Serif" font-size="10.00">_detail::PerFrame &gt;</text>
</a>
</g>
</g>
<!-- Node1&#45;&gt;Node13 -->
<g id="edge12_Node000001_Node000013" class="edge">
<title>Node1&#45;&gt;Node13</title>
<g id="a_edge12_Node000001_Node000013"><a xlink:title=" ">
<path fill="none" stroke="#8b1a1a" d="M364.76,-842.22C370.24,-896.74 390.17,-1020.85 460.5,-1091.25 470.12,-1100.88 482.56,-1107.87 495.34,-1112.94"/>
<polygon fill="#8b1a1a" stroke="#8b1a1a" points="368.25,-841.95 363.86,-832.31 361.28,-842.58 368.25,-841.95"/>
</a>
</g>
</g>
<!-- Node14 -->
<g id="Node000014" class="node">
<title>Node14</title>
<g id="a_Node000014"><a xlink:href="../../d2/db0/classengine_1_1direct3d_1_1_dynamic_uniform_buffer.html" target="_top" xlink:title=" ">
<polygon fill="white" stroke="#666666" points="624.25,-1081.75 495.75,-1081.75 495.75,-1028.75 624.25,-1028.75 624.25,-1081.75"/>
<text text-anchor="start" x="503.75" y="-1068.25" font-family="Helvetica,sans-Serif" font-size="10.00">engine::direct3d::Dynamic</text>
<text text-anchor="start" x="503.75" y="-1057" font-family="Helvetica,sans-Serif" font-size="10.00">UniformBuffer&lt; engine::</text>
<text text-anchor="start" x="503.75" y="-1045.75" font-family="Helvetica,sans-Serif" font-size="10.00">render::_emissive_particle</text>
<text text-anchor="middle" x="560" y="-1034.5" font-family="Helvetica,sans-Serif" font-size="10.00">_detail::PerMesh &gt;</text>
</a>
</g>
</g>
<!-- Node1&#45;&gt;Node14 -->
<g id="edge13_Node000001_Node000014" class="edge">
<title>Node1&#45;&gt;Node14</title>
<g id="a_edge13_Node000001_Node000014"><a xlink:title=" ">
<path fill="none" stroke="#8b1a1a" d="M368.46,-841.83C379.11,-885.17 406.02,-971.14 460.5,-1020.25 470.41,-1029.18 482.75,-1035.87 495.3,-1040.87"/>
<polygon fill="#8b1a1a" stroke="#8b1a1a" points="371.91,-841.21 366.22,-832.27 365.09,-842.81 371.91,-841.21"/>
</a>
</g>
</g>
<!-- Node15 -->
<g id="Node000015" class="node">
<title>Node15</title>
<g id="a_Node000015"><a xlink:href="../../d2/db0/classengine_1_1direct3d_1_1_dynamic_uniform_buffer.html" target="_top" xlink:title=" ">
<polygon fill="white" stroke="#666666" points="643.38,-1010.75 476.62,-1010.75 476.62,-957.75 643.38,-957.75 643.38,-1010.75"/>
<text text-anchor="start" x="484.62" y="-997.25" font-family="Helvetica,sans-Serif" font-size="10.00">engine::direct3d::Dynamic</text>
<text text-anchor="start" x="484.62" y="-986" font-family="Helvetica,sans-Serif" font-size="10.00">UniformBuffer&lt; engine::</text>
<text text-anchor="start" x="484.62" y="-974.75" font-family="Helvetica,sans-Serif" font-size="10.00">render::_grass_detail::GrassRender</text>
<text text-anchor="middle" x="560" y="-963.5" font-family="Helvetica,sans-Serif" font-size="10.00">System::GPUTransformInfo &gt;</text>
</a>
</g>
</g>
<!-- Node1&#45;&gt;Node15 -->
<g id="edge14_Node000001_Node000015" class="edge">
<title>Node1&#45;&gt;Node15</title>
<g id="a_edge14_Node000001_Node000015"><a xlink:title=" ">
<path fill="none" stroke="#8b1a1a" d="M375.37,-840.96C391.31,-870.95 421.44,-920.11 460.5,-949.25 465.45,-952.94 470.81,-956.27 476.41,-959.26"/>
<polygon fill="#8b1a1a" stroke="#8b1a1a" points="378.54,-839.48 370.84,-832.2 372.32,-842.69 378.54,-839.48"/>
</a>
</g>
</g>
<!-- Node16 -->
<g id="Node000016" class="node">
<title>Node16</title>
<g id="a_Node000016"><a xlink:href="../../d2/db0/classengine_1_1direct3d_1_1_dynamic_uniform_buffer.html" target="_top" xlink:title=" ">
<polygon fill="white" stroke="#666666" points="635.5,-939.75 484.5,-939.75 484.5,-886.75 635.5,-886.75 635.5,-939.75"/>
<text text-anchor="start" x="492.5" y="-926.25" font-family="Helvetica,sans-Serif" font-size="10.00">engine::direct3d::Dynamic</text>
<text text-anchor="start" x="492.5" y="-915" font-family="Helvetica,sans-Serif" font-size="10.00">UniformBuffer&lt; engine::</text>
<text text-anchor="start" x="492.5" y="-903.75" font-family="Helvetica,sans-Serif" font-size="10.00">render::_grass_detail::GrassPer</text>
<text text-anchor="middle" x="560" y="-892.5" font-family="Helvetica,sans-Serif" font-size="10.00">Material &gt;</text>
</a>
</g>
</g>
<!-- Node1&#45;&gt;Node16 -->
<g id="edge15_Node000001_Node000016" class="edge">
<title>Node1&#45;&gt;Node16</title>
<g id="a_edge15_Node000001_Node000016"><a xlink:title=" ">
<path fill="none" stroke="#8b1a1a" d="M392.87,-837.25C411.67,-850.32 436.74,-866.57 460.5,-878.25 467.99,-881.93 475.97,-885.42 484.02,-888.67"/>
<polygon fill="#8b1a1a" stroke="#8b1a1a" points="395.08,-834.53 384.89,-831.62 391.04,-840.25 395.08,-834.53"/>
</a>
</g>
</g>
<!-- Node17 -->
<g id="Node000017" class="node">
<title>Node17</title>
<g id="a_Node000017"><a xlink:href="../../d2/db0/classengine_1_1direct3d_1_1_dynamic_uniform_buffer.html" target="_top" xlink:title=" ">
<polygon fill="white" stroke="#666666" points="622.75,-869.12 497.25,-869.12 497.25,-827.38 622.75,-827.38 622.75,-869.12"/>
<text text-anchor="start" x="505.25" y="-855.62" font-family="Helvetica,sans-Serif" font-size="10.00">engine::direct3d::Dynamic</text>
<text text-anchor="start" x="505.25" y="-844.38" font-family="Helvetica,sans-Serif" font-size="10.00">UniformBuffer&lt; engine::</text>
<text text-anchor="middle" x="560" y="-833.12" font-family="Helvetica,sans-Serif" font-size="10.00">render::LightsPerFrame &gt;</text>
</a>
</g>
</g>
<!-- Node1&#45;&gt;Node17 -->
<g id="edge16_Node000001_Node000017" class="edge">
<title>Node1&#45;&gt;Node17</title>
<g id="a_edge16_Node000001_Node000017"><a xlink:title=" ">
<path fill="none" stroke="#8b1a1a" d="M436.12,-827.59C456.14,-830.95 477.64,-834.57 496.97,-837.82"/>
<polygon fill="#8b1a1a" stroke="#8b1a1a" points="436.78,-824.15 426.34,-825.94 435.62,-831.05 436.78,-824.15"/>
</a>
</g>
</g>
<!-- Node18 -->
<g id="Node000018" class="node">
<title>Node18</title>
<g id="a_Node000018"><a xlink:href="../../d2/db0/classengine_1_1direct3d_1_1_dynamic_uniform_buffer.html" target="_top" xlink:title=" ">
<polygon fill="white" stroke="#666666" points="622.75,-809.75 497.25,-809.75 497.25,-756.75 622.75,-756.75 622.75,-809.75"/>
<text text-anchor="start" x="505.25" y="-796.25" font-family="Helvetica,sans-Serif" font-size="10.00">engine::direct3d::Dynamic</text>
<text text-anchor="start" x="505.25" y="-785" font-family="Helvetica,sans-Serif" font-size="10.00">UniformBuffer&lt; engine::</text>
<text text-anchor="start" x="505.25" y="-773.75" font-family="Helvetica,sans-Serif" font-size="10.00">render::_opaque_detail::</text>
<text text-anchor="middle" x="560" y="-762.5" font-family="Helvetica,sans-Serif" font-size="10.00">OpaquePerMaterial &gt;</text>
</a>
</g>
</g>
<!-- Node1&#45;&gt;Node18 -->
<g id="edge17_Node000001_Node000018" class="edge">
<title>Node1&#45;&gt;Node18</title>
<g id="a_edge17_Node000001_Node000018"><a xlink:title=" ">
<path fill="none" stroke="#8b1a1a" d="M436.12,-803.29C456.14,-800.02 477.64,-796.52 496.97,-793.36"/>
<polygon fill="#8b1a1a" stroke="#8b1a1a" points="435.64,-799.82 426.34,-804.88 436.77,-806.73 435.64,-799.82"/>
</a>
</g>
</g>
<!-- Node19 -->
<g id="Node000019" class="node">
<title>Node19</title>
<g id="a_Node000019"><a xlink:href="../../d2/db0/classengine_1_1direct3d_1_1_dynamic_uniform_buffer.html" target="_top" xlink:title=" ">
<polygon fill="white" stroke="#666666" points="622.75,-738.75 497.25,-738.75 497.25,-685.75 622.75,-685.75 622.75,-738.75"/>
<text text-anchor="start" x="505.25" y="-725.25" font-family="Helvetica,sans-Serif" font-size="10.00">engine::direct3d::Dynamic</text>
<text text-anchor="start" x="505.25" y="-714" font-family="Helvetica,sans-Serif" font-size="10.00">UniformBuffer&lt; engine::</text>
<text text-anchor="start" x="505.25" y="-702.75" font-family="Helvetica,sans-Serif" font-size="10.00">render::_particle_detail</text>
<text text-anchor="middle" x="560" y="-691.5" font-family="Helvetica,sans-Serif" font-size="10.00">::ParticlePerFrame &gt;</text>
</a>
</g>
</g>
<!-- Node1&#45;&gt;Node19 -->
<g id="edge18_Node000001_Node000019" class="edge">
<title>Node1&#45;&gt;Node19</title>
<g id="a_edge18_Node000001_Node000019"><a xlink:title=" ">
<path fill="none" stroke="#8b1a1a" d="M390.91,-792.64C409.79,-778.26 435.65,-760.02 460.5,-747.25 471.96,-741.36 484.64,-736.05 496.98,-731.44"/>
<polygon fill="#8b1a1a" stroke="#8b1a1a" points="388.95,-789.73 383.18,-798.62 393.23,-795.27 388.95,-789.73"/>
</a>
</g>
</g>
<!-- Node20 -->
<g id="Node000020" class="node">
<title>Node20</title>
<g id="a_Node000020"><a xlink:href="../../d2/db0/classengine_1_1direct3d_1_1_dynamic_uniform_buffer.html" target="_top" xlink:title=" ">
<polygon fill="white" stroke="#666666" points="624.62,-668.12 495.38,-668.12 495.38,-626.38 624.62,-626.38 624.62,-668.12"/>
<text text-anchor="start" x="503.38" y="-654.62" font-family="Helvetica,sans-Serif" font-size="10.00">engine::direct3d::Dynamic</text>
<text text-anchor="start" x="503.38" y="-643.38" font-family="Helvetica,sans-Serif" font-size="10.00">UniformBuffer&lt; core::math</text>
<text text-anchor="middle" x="560" y="-632.12" font-family="Helvetica,sans-Serif" font-size="10.00">::ivec4 &gt;</text>
</a>
</g>
</g>
<!-- Node1&#45;&gt;Node20 -->
<g id="edge19_Node000001_Node000020" class="edge">
<title>Node1&#45;&gt;Node20</title>
<g id="a_edge19_Node000001_Node000020"><a xlink:title=" ">
<path fill="none" stroke="#8b1a1a" d="M374.16,-789.59C389.4,-758.25 419.32,-705.78 460.5,-676.25 470.71,-668.93 482.77,-663.44 494.88,-659.33"/>
<polygon fill="#8b1a1a" stroke="#8b1a1a" points="371.13,-787.81 370.04,-798.35 377.46,-790.8 371.13,-787.81"/>
</a>
</g>
</g>
<!-- Node21 -->
<g id="Node000021" class="node">
<title>Node21</title>
<g id="a_Node000021"><a xlink:href="../../d5/dbb/classengine_1_1direct3d_1_1_dynamic_vertex_buffer.html" target="_top" xlink:title=" ">
<polygon fill="white" stroke="#666666" points="653.5,-608.12 466.5,-608.12 466.5,-566.38 653.5,-566.38 653.5,-608.12"/>
<text text-anchor="start" x="474.5" y="-594.62" font-family="Helvetica,sans-Serif" font-size="10.00">engine::direct3d::Dynamic</text>
<text text-anchor="start" x="474.5" y="-583.38" font-family="Helvetica,sans-Serif" font-size="10.00">VertexBuffer&lt; engine::render</text>
<text text-anchor="middle" x="560" y="-572.12" font-family="Helvetica,sans-Serif" font-size="10.00">::DeferredResolve::PointLightInstance &gt;</text>
</a>
</g>
</g>
<!-- Node1&#45;&gt;Node21 -->
<g id="edge20_Node000001_Node000021" class="edge">
<title>Node1&#45;&gt;Node21</title>
<g id="a_edge20_Node000001_Node000021"><a xlink:title=" ">
<path fill="none" stroke="#63b8ff" d="M368.71,-788.39C379.55,-745.85 406.52,-663.08 460.5,-617.25 464.32,-614.01 468.47,-611.12 472.86,-608.54"/>
<polygon fill="#63b8ff" stroke="#63b8ff" points="365.33,-787.49 366.38,-798.03 372.13,-789.14 365.33,-787.49"/>
</a>
</g>
</g>
<!-- Node22 -->
<g id="Node000022" class="node">
<title>Node22</title>
<g id="a_Node000022"><a xlink:href="../../d5/dbb/classengine_1_1direct3d_1_1_dynamic_vertex_buffer.html" target="_top" xlink:title=" ">
<polygon fill="white" stroke="#666666" points="652.38,-548.12 467.62,-548.12 467.62,-506.38 652.38,-506.38 652.38,-548.12"/>
<text text-anchor="start" x="475.62" y="-534.62" font-family="Helvetica,sans-Serif" font-size="10.00">engine::direct3d::Dynamic</text>
<text text-anchor="start" x="475.62" y="-523.38" font-family="Helvetica,sans-Serif" font-size="10.00">VertexBuffer&lt; engine::render</text>
<text text-anchor="middle" x="560" y="-512.12" font-family="Helvetica,sans-Serif" font-size="10.00">::DeferredResolve::SpotLightInstance &gt;</text>
</a>
</g>
</g>
<!-- Node1&#45;&gt;Node22 -->
<g id="edge21_Node000001_Node000022" class="edge">
<title>Node1&#45;&gt;Node22</title>
<g id="a_edge21_Node000001_Node000022"><a xlink:title=" ">
<path fill="none" stroke="#63b8ff" d="M365.24,-788.31C371.51,-736.11 392.66,-620.72 460.5,-557.25 464.02,-553.95 467.9,-551.02 472.02,-548.4"/>
<polygon fill="#63b8ff" stroke="#63b8ff" points="361.78,-787.76 364.17,-798.09 368.74,-788.53 361.78,-787.76"/>
</a>
</g>
</g>
<!-- Node23 -->
<g id="Node000023" class="node">
<title>Node23</title>
<g id="a_Node000023"><a xlink:href="../../d5/dbb/classengine_1_1direct3d_1_1_dynamic_vertex_buffer.html" target="_top" xlink:title=" ">
<polygon fill="white" stroke="#666666" points="636.25,-488.12 483.75,-488.12 483.75,-446.38 636.25,-446.38 636.25,-488.12"/>
<text text-anchor="start" x="491.75" y="-474.62" font-family="Helvetica,sans-Serif" font-size="10.00">engine::direct3d::Dynamic</text>
<text text-anchor="start" x="491.75" y="-463.38" font-family="Helvetica,sans-Serif" font-size="10.00">VertexBuffer&lt; engine::render</text>
<text text-anchor="middle" x="560" y="-452.12" font-family="Helvetica,sans-Serif" font-size="10.00">::_decal_detail::DecalInstance &gt;</text>
</a>
</g>
</g>
<!-- Node1&#45;&gt;Node23 -->
<g id="edge22_Node000001_Node000023" class="edge">
<title>Node1&#45;&gt;Node23</title>
<g id="a_edge22_Node000001_Node000023"><a xlink:title=" ">
<path fill="none" stroke="#63b8ff" d="M362.97,-788.58C364.96,-728.03 378.44,-579.1 460.5,-497.25 467.08,-490.69 475.05,-485.55 483.58,-481.53"/>
<polygon fill="#63b8ff" stroke="#63b8ff" points="359.48,-788.19 362.74,-798.27 366.48,-788.36 359.48,-788.19"/>
</a>
</g>
</g>
<!-- Node24 -->
<g id="Node000024" class="node">
<title>Node24</title>
<g id="a_Node000024"><a xlink:href="../../d5/dbb/classengine_1_1direct3d_1_1_dynamic_vertex_buffer.html" target="_top" xlink:title=" ">
<polygon fill="white" stroke="#666666" points="659.5,-428.12 460.5,-428.12 460.5,-386.38 659.5,-386.38 659.5,-428.12"/>
<text text-anchor="start" x="468.5" y="-414.62" font-family="Helvetica,sans-Serif" font-size="10.00">engine::direct3d::Dynamic</text>
<text text-anchor="start" x="468.5" y="-403.38" font-family="Helvetica,sans-Serif" font-size="10.00">VertexBuffer&lt; engine::render</text>
<text text-anchor="middle" x="560" y="-392.12" font-family="Helvetica,sans-Serif" font-size="10.00">::_dissolution_detail::DissolutionInstance &gt;</text>
</a>
</g>
</g>
<!-- Node1&#45;&gt;Node24 -->
<g id="edge23_Node000001_Node000024" class="edge">
<title>Node1&#45;&gt;Node24</title>
<g id="a_edge23_Node000001_Node000024"><a xlink:title=" ">
<path fill="none" stroke="#63b8ff" d="M366.2,-788.8C376.79,-711.61 411.09,-488.81 460.5,-437.25 463.59,-434.02 467.02,-431.14 470.69,-428.57"/>
<polygon fill="#63b8ff" stroke="#63b8ff" points="362.78,-788.02 364.91,-798.39 369.72,-788.95 362.78,-788.02"/>
</a>
</g>
</g>
<!-- Node25 -->
<g id="Node000025" class="node">
<title>Node25</title>
<g id="a_Node000025"><a xlink:href="../../d5/dbb/classengine_1_1direct3d_1_1_dynamic_vertex_buffer.html" target="_top" xlink:title=" ">
<polygon fill="white" stroke="#666666" points="651.62,-368.12 468.38,-368.12 468.38,-326.38 651.62,-326.38 651.62,-368.12"/>
<text text-anchor="start" x="476.38" y="-354.62" font-family="Helvetica,sans-Serif" font-size="10.00">engine::direct3d::Dynamic</text>
<text text-anchor="start" x="476.38" y="-343.38" font-family="Helvetica,sans-Serif" font-size="10.00">VertexBuffer&lt; engine::render</text>
<text text-anchor="middle" x="560" y="-332.12" font-family="Helvetica,sans-Serif" font-size="10.00">::_emissive_detail::EmissiveInstance &gt;</text>
</a>
</g>
</g>
<!-- Node1&#45;&gt;Node25 -->
<g id="edge24_Node000001_Node000025" class="edge">
<title>Node1&#45;&gt;Node25</title>
<g id="a_edge24_Node000001_Node000025"><a xlink:title=" ">
<path fill="none" stroke="#63b8ff" d="M365.21,-788.66C373.61,-703.33 403.84,-438.39 460.5,-377.25 463.54,-373.97 466.92,-371.05 470.55,-368.44"/>
<polygon fill="#63b8ff" stroke="#63b8ff" points="361.74,-788.11 364.27,-798.39 368.71,-788.78 361.74,-788.11"/>
</a>
</g>
</g>
<!-- Node26 -->
<g id="Node000026" class="node">
<title>Node26</title>
<g id="a_Node000026"><a xlink:href="../../d5/dbb/classengine_1_1direct3d_1_1_dynamic_vertex_buffer.html" target="_top" xlink:title=" ">
<polygon fill="white" stroke="#666666" points="648.25,-308.12 471.75,-308.12 471.75,-266.38 648.25,-266.38 648.25,-308.12"/>
<text text-anchor="start" x="479.75" y="-294.62" font-family="Helvetica,sans-Serif" font-size="10.00">engine::direct3d::Dynamic</text>
<text text-anchor="start" x="479.75" y="-283.38" font-family="Helvetica,sans-Serif" font-size="10.00">VertexBuffer&lt; engine::render</text>
<text text-anchor="middle" x="560" y="-272.12" font-family="Helvetica,sans-Serif" font-size="10.00">::_grass_detail::GPUGrassInstance &gt;</text>
</a>
</g>
</g>
<!-- Node1&#45;&gt;Node26 -->
<g id="edge25_Node000001_Node000026" class="edge">
<title>Node1&#45;&gt;Node26</title>
<g id="a_edge25_Node000001_Node000026"><a xlink:title=" ">
<path fill="none" stroke="#63b8ff" d="M364.44,-788.46C370.85,-695.4 396.56,-388.05 460.5,-317.25 463.73,-313.67 467.38,-310.51 471.32,-307.72"/>
<polygon fill="#63b8ff" stroke="#63b8ff" points="360.96,-788.16 363.78,-798.38 367.94,-788.63 360.96,-788.16"/>
</a>
</g>
</g>
<!-- Node27 -->
<g id="Node000027" class="node">
<title>Node27</title>
<g id="a_Node000027"><a xlink:href="../../d5/dbb/classengine_1_1direct3d_1_1_dynamic_vertex_buffer.html" target="_top" xlink:title=" ">
<polygon fill="white" stroke="#666666" points="644.88,-248.12 475.12,-248.12 475.12,-206.38 644.88,-206.38 644.88,-248.12"/>
<text text-anchor="start" x="483.12" y="-234.62" font-family="Helvetica,sans-Serif" font-size="10.00">engine::direct3d::Dynamic</text>
<text text-anchor="start" x="483.12" y="-223.38" font-family="Helvetica,sans-Serif" font-size="10.00">VertexBuffer&lt; engine::render</text>
<text text-anchor="middle" x="560" y="-212.12" font-family="Helvetica,sans-Serif" font-size="10.00">::_opaque_detail::OpaqueInstance &gt;</text>
</a>
</g>
</g>
<!-- Node1&#45;&gt;Node27 -->
<g id="edge26_Node000001_Node000027" class="edge">
<title>Node1&#45;&gt;Node27</title>
<g id="a_edge26_Node000001_Node000027"><a xlink:title=" ">
<path fill="none" stroke="#63b8ff" d="M363.84,-788.22C368.4,-687.8 389.26,-337.78 460.5,-257.25 464.65,-252.56 469.5,-248.6 474.79,-245.24"/>
<polygon fill="#63b8ff" stroke="#63b8ff" points="360.34,-788.04 363.4,-798.19 367.33,-788.35 360.34,-788.04"/>
</a>
</g>
</g>
<!-- Node28 -->
<g id="Node000028" class="node">
<title>Node28</title>
<g id="a_Node000028"><a xlink:href="../../d5/dbb/classengine_1_1direct3d_1_1_dynamic_vertex_buffer.html" target="_top" xlink:title=" ">
<polygon fill="white" stroke="#666666" points="636.62,-188.12 483.38,-188.12 483.38,-146.38 636.62,-146.38 636.62,-188.12"/>
<text text-anchor="start" x="491.38" y="-174.62" font-family="Helvetica,sans-Serif" font-size="10.00">engine::direct3d::Dynamic</text>
<text text-anchor="start" x="491.38" y="-163.38" font-family="Helvetica,sans-Serif" font-size="10.00">VertexBuffer&lt; engine::render</text>
<text text-anchor="middle" x="560" y="-152.12" font-family="Helvetica,sans-Serif" font-size="10.00">::_particle_detail::GPUParticle &gt;</text>
</a>
</g>
</g>
<!-- Node1&#45;&gt;Node28 -->
<g id="edge27_Node000001_Node000028" class="edge">
<title>Node1&#45;&gt;Node28</title>
<g id="a_edge27_Node000001_Node000028"><a xlink:title=" ">
<path fill="none" stroke="#63b8ff" d="M363.32,-788.48C366.14,-681.72 381.8,-287.71 460.5,-197.25 466.72,-190.1 474.58,-184.63 483.15,-180.44"/>
<polygon fill="#63b8ff" stroke="#63b8ff" points="359.83,-788.18 363.08,-798.26 366.83,-788.35 359.83,-788.18"/>
</a>
</g>
</g>
<!-- Node29 -->
<g id="Node000029" class="node">
<title>Node29</title>
<g id="a_Node000029"><a xlink:href="../../de/da1/classengine_1_1direct3d_1_1_dynamic_index_buffer.html" target="_top" xlink:title="The dynamic index buffer class.">
<polygon fill="white" stroke="#666666" points="622.75,-128.5 497.25,-128.5 497.25,-98 622.75,-98 622.75,-128.5"/>
<text text-anchor="start" x="505.25" y="-115" font-family="Helvetica,sans-Serif" font-size="10.00">engine::direct3d::Dynamic</text>
<text text-anchor="middle" x="560" y="-103.75" font-family="Helvetica,sans-Serif" font-size="10.00">IndexBuffer&lt; T &gt;</text>
</a>
</g>
</g>
<!-- Node1&#45;&gt;Node29 -->
<g id="edge28_Node000001_Node000029" class="edge">
<title>Node1&#45;&gt;Node29</title>
<g id="a_edge28_Node000001_Node000029"><a xlink:title=" ">
<path fill="none" stroke="#63b8ff" d="M362.76,-788.35C363.38,-674.7 371.57,-235.14 460.5,-137.25 469.97,-126.83 483.14,-120.58 496.77,-116.91"/>
<polygon fill="#63b8ff" stroke="#63b8ff" points="359.26,-788.2 362.73,-798.21 366.26,-788.23 359.26,-788.2"/>
</a>
</g>
</g>
<!-- Node30 -->
<g id="Node000030" class="node">
<title>Node30</title>
<g id="a_Node000030"><a xlink:href="../../d2/db0/classengine_1_1direct3d_1_1_dynamic_uniform_buffer.html" target="_top" xlink:title="Dynamic uniform buffer class.">
<polygon fill="white" stroke="#666666" points="622.75,-79.5 497.25,-79.5 497.25,-49 622.75,-49 622.75,-79.5"/>
<text text-anchor="start" x="505.25" y="-66" font-family="Helvetica,sans-Serif" font-size="10.00">engine::direct3d::Dynamic</text>
<text text-anchor="middle" x="560" y="-54.75" font-family="Helvetica,sans-Serif" font-size="10.00">UniformBuffer&lt; T &gt;</text>
</a>
</g>
</g>
<!-- Node1&#45;&gt;Node30 -->
<g id="edge29_Node000001_Node000030" class="edge">
<title>Node1&#45;&gt;Node30</title>
<g id="a_edge29_Node000001_Node000030"><a xlink:title=" ">
<path fill="none" stroke="#8b1a1a" d="M362.5,-788.39C361.98,-669.92 365.89,-195.38 460.5,-89.25 469.95,-78.65 483.2,-72.24 496.92,-68.44"/>
<polygon fill="#8b1a1a" stroke="#8b1a1a" points="359,-788.1 362.56,-798.08 366,-788.06 359,-788.1"/>
</a>
</g>
</g>
<!-- Node31 -->
<g id="Node000031" class="node">
<title>Node31</title>
<g id="a_Node000031"><a xlink:href="../../d5/dbb/classengine_1_1direct3d_1_1_dynamic_vertex_buffer.html" target="_top" xlink:title="The dynamic vertex buffer class.">
<polygon fill="white" stroke="#666666" points="622.75,-30.5 497.25,-30.5 497.25,0 622.75,0 622.75,-30.5"/>
<text text-anchor="start" x="505.25" y="-17" font-family="Helvetica,sans-Serif" font-size="10.00">engine::direct3d::Dynamic</text>
<text text-anchor="middle" x="560" y="-5.75" font-family="Helvetica,sans-Serif" font-size="10.00">VertexBuffer&lt; T &gt;</text>
</a>
</g>
</g>
<!-- Node1&#45;&gt;Node31 -->
<g id="edge30_Node000001_Node000031" class="edge">
<title>Node1&#45;&gt;Node31</title>
<g id="a_edge30_Node000001_Node000031"><a xlink:title=" ">
<path fill="none" stroke="#63b8ff" d="M362.25,-788.18C360.52,-664.51 359.67,-154.33 460.5,-40.25 469.91,-29.61 483.14,-23.19 496.86,-19.39"/>
<polygon fill="#63b8ff" stroke="#63b8ff" points="358.75,-788.07 362.4,-798.01 365.74,-787.96 358.75,-788.07"/>
</a>
</g>
</g>
<!-- Node2 -->
<g id="Node000002" class="node">
<title>Node2</title>
<g id="a_Node000002"><a xlink:href="../../d9/db4/classengine_1_1direct3d_1_1_buffer_base.html" target="_top" xlink:title="Buffer Base class that contains the common functions for all the buffers.">
<polygon fill="white" stroke="#666666" points="263,-830.5 149.5,-830.5 149.5,-800 263,-800 263,-830.5"/>
<text text-anchor="start" x="157.5" y="-817" font-family="Helvetica,sans-Serif" font-size="10.00">engine::direct3d::Buffer</text>
<text text-anchor="middle" x="206.25" y="-805.75" font-family="Helvetica,sans-Serif" font-size="10.00">Base&lt; T &gt;</text>
</a>
</g>
</g>
<!-- Node2&#45;&gt;Node1 -->
<g id="edge1_Node000001_Node000002" class="edge">
<title>Node2&#45;&gt;Node1</title>
<g id="a_edge1_Node000001_Node000002"><a xlink:title=" ">
<path fill="none" stroke="#63b8ff" d="M274.39,-815.25C282.48,-815.25 290.71,-815.25 298.71,-815.25"/>
<polygon fill="#63b8ff" stroke="#63b8ff" points="274.61,-811.75 264.61,-815.25 274.61,-818.75 274.61,-811.75"/>
</a>
</g>
</g>
<!-- Node3 -->
<g id="Node000003" class="node">
<title>Node3</title>
<g id="a_Node000003"><a xlink:href="../../d6/de4/classengine_1_1direct3d_1_1_buffer_wrapper.html" target="_top" xlink:title="A wrapper for a D3D11 buffer.">
<polygon fill="white" stroke="#666666" points="113.5,-830.5 0,-830.5 0,-800 113.5,-800 113.5,-830.5"/>
<text text-anchor="start" x="8" y="-817" font-family="Helvetica,sans-Serif" font-size="10.00">engine::direct3d::Buffer</text>
<text text-anchor="middle" x="56.75" y="-805.75" font-family="Helvetica,sans-Serif" font-size="10.00">Wrapper</text>
</a>
</g>
</g>
<!-- Node3&#45;&gt;Node2 -->
<g id="edge2_Node000002_Node000003" class="edge">
<title>Node3&#45;&gt;Node2</title>
<g id="a_edge2_Node000002_Node000003"><a xlink:title=" ">
<path fill="none" stroke="#8b1a1a" d="M125.19,-815.25C133.23,-815.25 141.37,-815.25 149.22,-815.25"/>
<polygon fill="#8b1a1a" stroke="#8b1a1a" points="125.45,-811.75 115.45,-815.25 125.45,-818.75 125.45,-811.75"/>
</a>
</g>
</g>
</g>
</svg>
