<?xml version="1.0" encoding="UTF-8" standalone="no"?>
<!DOCTYPE svg PUBLIC "-//W3C//DTD SVG 1.1//EN"
 "http://www.w3.org/Graphics/SVG/1.1/DTD/svg11.dtd">
<!-- Generated by graphviz version 8.1.0 (20230707.0739)
 -->
<!-- Title: engine/subsystems/render/detail/particle&#45;render&#45;system.hpp Pages: 1 -->
<!--zoomable 493 -->

<svg id="main" version="1.1" xmlns="http://www.w3.org/2000/svg" xmlns:xlink="http://www.w3.org/1999/xlink" xml:space="preserve" onload="init(evt)">
<style type="text/css"><![CDATA[
.node, .edge {opacity: 0.7;}
.node.selected, .edge.selected {opacity: 1;}
.edge:hover path { stroke: red; }
.edge:hover polygon { stroke: red; fill: red; }
]]></style>

<defs>
  <circle id="rim" cx="0" cy="0" r="7"/>
  <circle id="rim2" cx="0" cy="0" r="3.5"/>
  <g id="zoomPlus">
    <use xlink:href="#rim" fill="#404040"><set attributeName="fill" to="#808080" begin="zoomplus.mouseover" end="zoomplus.mouseout"/></use>
    <path d="M-4,0h8M0,-4v8" fill="none" stroke="white" stroke-width="1.5" pointer-events="none"/>
  </g>
  <g id="zoomMin">
    <use xlink:href="#rim" fill="#404040"><set attributeName="fill" to="#808080" begin="zoomminus.mouseover" end="zoomminus.mouseout"/></use>
    <path d="M-4,0h8" fill="none" stroke="white" stroke-width="1.5" pointer-events="none"/>
  </g>
  <g id="arrowUp" transform="translate(30 24)">
    <use xlink:href="#rim"/>
    <path pointer-events="none" fill="none" stroke="white" stroke-width="1.5" d="M0,-3.0v7 M-2.5,-0.5L0,-3.0L2.5,-0.5"/>
  </g>
  <g id="arrowRight" transform="rotate(90) translate(36 -43)">
    <use xlink:href="#rim"/>
    <path pointer-events="none" fill="none" stroke="white" stroke-width="1.5" d="M0,-3.0v7 M-2.5,-0.5L0,-3.0L2.5,-0.5"/>
  </g>
  <g id="arrowDown" transform="rotate(180) translate(-30 -48)">
    <use xlink:href="#rim"/>
    <path pointer-events="none" fill="none" stroke="white" stroke-width="1.5" d="M0,-3.0v7 M-2.5,-0.5L0,-3.0L2.5,-0.5"/>
  </g>
  <g id="arrowLeft" transform="rotate(270) translate(-36 17)">
    <use xlink:href="#rim"/>
    <path pointer-events="none" fill="none" stroke="white" stroke-width="1.5" d="M0,-3.0v7 M-2.5,-0.5L0,-3.0L2.5,-0.5"/>
  </g>
  <g id="resetDef">
    <use xlink:href="#rim2" fill="#404040"><set attributeName="fill" to="#808080" begin="reset.mouseover" end="reset.mouseout"/></use>
  </g>
</defs>
<script type="application/ecmascript">
var viewWidth = 1934;
var viewHeight = 493;
var sectionId = 'dynsection-1';
</script>
<script type="application/ecmascript" xlink:href="../../svg.min.js"/>
<svg id="graph" class="graph">
<g id="viewport">
<title>engine/subsystems/render/detail/particle&#45;render&#45;system.hpp</title>
<!-- Node1 -->
<g id="Node000001" class="node">
<title>Node1</title>
<g id="a_Node000001"><a xlink:title=" ">
<polygon fill="#999999" stroke="#666666" points="1843,-484.75 1713,-484.75 1713,-443 1843,-443 1843,-484.75"/>
<text text-anchor="start" x="1721" y="-471.25" font-family="Helvetica,sans-Serif" font-size="10.00">engine/subsystems/render</text>
<text text-anchor="start" x="1721" y="-460" font-family="Helvetica,sans-Serif" font-size="10.00">/detail/particle&#45;render</text>
<text text-anchor="middle" x="1778" y="-448.75" font-family="Helvetica,sans-Serif" font-size="10.00">&#45;system.hpp</text>
</a>
</g>
</g>
<!-- Node2 -->
<g id="Node000002" class="node">
<title>Node2</title>
<g id="a_Node000002"><a xlink:href="../../d1/dae/renderer_8hpp.html" target="_top" xlink:title=" ">
<polygon fill="white" stroke="#666666" points="1778.38,-407 1647.62,-407 1647.62,-387.75 1778.38,-387.75 1778.38,-407"/>
<text text-anchor="middle" x="1713" y="-393.5" font-family="Helvetica,sans-Serif" font-size="10.00">engine/render/renderer.hpp</text>
</a>
</g>
</g>
<!-- Node1&#45;&gt;Node2 -->
<g id="edge1_Node000001_Node000002" class="edge">
<title>Node1&#45;&gt;Node2</title>
<g id="a_edge1_Node000001_Node000002"><a xlink:title=" ">
<path fill="none" stroke="#63b8ff" d="M1750.27,-435.36C1740.19,-425.35 1729.48,-414.73 1722.14,-407.45"/>
<polygon fill="#63b8ff" stroke="#63b8ff" points="1747.23,-437.26 1756.79,-441.82 1752.16,-432.29 1747.23,-437.26"/>
</a>
</g>
</g>
<!-- Node21 -->
<g id="Node000021" class="node">
<title>Node21</title>
<g id="a_Node000021"><a xlink:href="../../d3/dfe/particle-render-system_8cpp.html" target="_top" xlink:title=" ">
<polygon fill="white" stroke="#666666" points="1890,-97 1760,-97 1760,-55.25 1890,-55.25 1890,-97"/>
<text text-anchor="start" x="1768" y="-83.5" font-family="Helvetica,sans-Serif" font-size="10.00">engine/subsystems/render</text>
<text text-anchor="start" x="1768" y="-72.25" font-family="Helvetica,sans-Serif" font-size="10.00">/detail/particle&#45;render</text>
<text text-anchor="middle" x="1825" y="-61" font-family="Helvetica,sans-Serif" font-size="10.00">&#45;system.cpp</text>
</a>
</g>
</g>
<!-- Node1&#45;&gt;Node21 -->
<g id="edge42_Node000001_Node000021" class="edge">
<title>Node1&#45;&gt;Node21</title>
<g id="a_edge42_Node000001_Node000021"><a xlink:title=" ">
<path fill="none" stroke="#63b8ff" d="M1819.97,-436.39C1848.09,-415.05 1880,-382.23 1880,-343.12 1880,-343.12 1880,-343.12 1880,-208.12 1880,-166.19 1855.75,-122.18 1839.45,-97.35"/>
<polygon fill="#63b8ff" stroke="#63b8ff" points="1818.42,-433.91 1812.4,-442.63 1822.54,-439.57 1818.42,-433.91"/>
</a>
</g>
</g>
<!-- Node3 -->
<g id="Node000003" class="node">
<title>Node3</title>
<g id="a_Node000003"><a xlink:href="../../d1/d47/controller_8cpp.html" target="_top" xlink:title=" ">
<polygon fill="white" stroke="#666666" points="1284.12,-19.25 1169.88,-19.25 1169.88,0 1284.12,0 1284.12,-19.25"/>
<text text-anchor="middle" x="1227" y="-5.75" font-family="Helvetica,sans-Serif" font-size="10.00">d3d_test/controller.cpp</text>
</a>
</g>
</g>
<!-- Node2&#45;&gt;Node3 -->
<g id="edge2_Node000002_Node000003" class="edge">
<title>Node2&#45;&gt;Node3</title>
<g id="a_edge2_Node000002_Node000003"><a xlink:title=" ">
<path fill="none" stroke="#63b8ff" d="M1733.51,-381C1799.75,-329.61 1998.04,-161.09 1899,-55.25 1897.69,-53.85 1446.87,-24.75 1284.46,-14.31"/>
<polygon fill="#63b8ff" stroke="#63b8ff" points="1731.89,-378.59 1726.08,-387.46 1736.15,-384.15 1731.89,-378.59"/>
</a>
</g>
</g>
<!-- Node4 -->
<g id="Node000004" class="node">
<title>Node4</title>
<g id="a_Node000004"><a xlink:href="../../d5/d9b/scene_8hpp.html" target="_top" xlink:title=" ">
<polygon fill="white" stroke="#666666" points="1448.75,-351.75 1335.25,-351.75 1335.25,-332.5 1448.75,-332.5 1448.75,-351.75"/>
<text text-anchor="middle" x="1392" y="-338.25" font-family="Helvetica,sans-Serif" font-size="10.00">engine/core/scene.hpp</text>
</a>
</g>
</g>
<!-- Node2&#45;&gt;Node4 -->
<g id="edge3_Node000002_Node000004" class="edge">
<title>Node2&#45;&gt;Node4</title>
<g id="a_edge3_Node000002_Node000004"><a xlink:title=" ">
<path fill="none" stroke="#63b8ff" d="M1647.47,-385.5C1588.36,-375.7 1502.42,-361.44 1446.86,-352.23"/>
<polygon fill="#63b8ff" stroke="#63b8ff" points="1646.74,-389.1 1657.18,-387.28 1647.89,-382.19 1646.74,-389.1"/>
</a>
</g>
</g>
<!-- Node24 -->
<g id="Node000024" class="node">
<title>Node24</title>
<g id="a_Node000024"><a xlink:href="../../db/df9/deferred-hdr-render-pipeline_8hpp.html" target="_top" xlink:title=" ">
<polygon fill="white" stroke="#666666" points="449.38,-163.5 318.62,-163.5 318.62,-133 449.38,-133 449.38,-163.5"/>
<text text-anchor="start" x="326.62" y="-150" font-family="Helvetica,sans-Serif" font-size="10.00">engine/direct3d11/deferred</text>
<text text-anchor="middle" x="384" y="-138.75" font-family="Helvetica,sans-Serif" font-size="10.00">&#45;hdr&#45;render&#45;pipeline.hpp</text>
</a>
</g>
</g>
<!-- Node2&#45;&gt;Node24 -->
<g id="edge40_Node000002_Node000024" class="edge">
<title>Node2&#45;&gt;Node24</title>
<g id="a_edge40_Node000002_Node000024"><a xlink:title=" ">
<path fill="none" stroke="#63b8ff" d="M1636.56,-387.61C1558.49,-378.64 1433.79,-364.29 1326,-351.75 1116.64,-327.4 1061.34,-339.46 855,-296.5 738.17,-272.18 711.87,-254.46 598,-218.75 539.11,-200.28 471.39,-178.14 428.18,-163.89"/>
<polygon fill="#63b8ff" stroke="#63b8ff" points="1635.93,-391.17 1646.26,-388.83 1636.72,-384.22 1635.93,-391.17"/>
</a>
</g>
</g>
<!-- Node26 -->
<g id="Node000026" class="node">
<title>Node26</title>
<g id="a_Node000026"><a xlink:href="../../d6/d54/renderer_8cpp.html" target="_top" xlink:title=" ">
<polygon fill="white" stroke="#666666" points="1778.38,-285.25 1647.62,-285.25 1647.62,-266 1778.38,-266 1778.38,-285.25"/>
<text text-anchor="middle" x="1713" y="-271.75" font-family="Helvetica,sans-Serif" font-size="10.00">engine/render/renderer.cpp</text>
</a>
</g>
</g>
<!-- Node2&#45;&gt;Node26 -->
<g id="edge41_Node000002_Node000026" class="edge">
<title>Node2&#45;&gt;Node26</title>
<g id="a_edge41_Node000002_Node000026"><a xlink:title=" ">
<path fill="none" stroke="#63b8ff" d="M1713,-376.49C1713,-350.21 1713,-304.98 1713,-285.73"/>
<polygon fill="#63b8ff" stroke="#63b8ff" points="1709.5,-376.37 1713,-386.37 1716.5,-376.37 1709.5,-376.37"/>
</a>
</g>
</g>
<!-- Node5 -->
<g id="Node000005" class="node">
<title>Node5</title>
<g id="a_Node000005"><a xlink:href="../../de/d46/engine_8hpp.html" target="_top" xlink:title=" ">
<polygon fill="white" stroke="#666666" points="971.88,-157.88 856.12,-157.88 856.12,-138.62 971.88,-138.62 971.88,-157.88"/>
<text text-anchor="middle" x="914" y="-144.38" font-family="Helvetica,sans-Serif" font-size="10.00">engine/core/engine.hpp</text>
</a>
</g>
</g>
<!-- Node4&#45;&gt;Node5 -->
<g id="edge4_Node000004_Node000005" class="edge">
<title>Node4&#45;&gt;Node5</title>
<g id="a_edge4_Node000004_Node000005"><a xlink:title=" ">
<path fill="none" stroke="#63b8ff" d="M1324.09,-339.83C1264.67,-336.56 1177.14,-326.45 1107,-296.5 1101.74,-294.26 966.72,-190.01 925.71,-158.3"/>
<polygon fill="#63b8ff" stroke="#63b8ff" points="1323.69,-343.37 1333.85,-340.37 1324.03,-336.37 1323.69,-343.37"/>
</a>
</g>
</g>
<!-- Node16 -->
<g id="Node000016" class="node">
<title>Node16</title>
<g id="a_Node000016"><a xlink:href="../../d8/d30/decal-render-system_8cpp.html" target="_top" xlink:title=" ">
<polygon fill="white" stroke="#666666" points="1741.5,-91.38 1590.5,-91.38 1590.5,-60.88 1741.5,-60.88 1741.5,-91.38"/>
<text text-anchor="start" x="1598.5" y="-77.88" font-family="Helvetica,sans-Serif" font-size="10.00">engine/subsystems/render</text>
<text text-anchor="middle" x="1666" y="-66.62" font-family="Helvetica,sans-Serif" font-size="10.00">/detail/decal&#45;render&#45;system.cpp</text>
</a>
</g>
</g>
<!-- Node4&#45;&gt;Node16 -->
<g id="edge35_Node000004_Node000016" class="edge">
<title>Node4&#45;&gt;Node16</title>
<g id="a_edge35_Node000004_Node000016"><a xlink:title=" ">
<path fill="none" stroke="#63b8ff" d="M1459.9,-339.22C1495.01,-334.71 1536.04,-323.41 1563,-296.5 1616.18,-243.42 1567.43,-197.48 1606,-133 1615.86,-116.51 1632.01,-101.87 1645.07,-91.72"/>
<polygon fill="#63b8ff" stroke="#63b8ff" points="1459.76,-335.83 1450.21,-340.41 1460.54,-342.78 1459.76,-335.83"/>
</a>
</g>
</g>
<!-- Node17 -->
<g id="Node000017" class="node">
<title>Node17</title>
<g id="a_Node000017"><a xlink:href="../../d1/d58/dissolution-render-system_8cpp.html" target="_top" xlink:title=" ">
<polygon fill="white" stroke="#666666" points="130,-97 0,-97 0,-55.25 130,-55.25 130,-97"/>
<text text-anchor="start" x="8" y="-83.5" font-family="Helvetica,sans-Serif" font-size="10.00">engine/subsystems/render</text>
<text text-anchor="start" x="8" y="-72.25" font-family="Helvetica,sans-Serif" font-size="10.00">/detail/dissolution&#45;render</text>
<text text-anchor="middle" x="65" y="-61" font-family="Helvetica,sans-Serif" font-size="10.00">&#45;system.cpp</text>
</a>
</g>
</g>
<!-- Node4&#45;&gt;Node17 -->
<g id="edge36_Node000004_Node000017" class="edge">
<title>Node4&#45;&gt;Node17</title>
<g id="a_edge36_Node000004_Node000017"><a xlink:title=" ">
<path fill="none" stroke="#63b8ff" d="M1324.02,-338.88C1221.7,-334.74 1022.27,-323.69 855,-296.5 608.9,-256.5 548.98,-234.59 310,-163.5 242.78,-143.5 166.83,-115.93 117.55,-97.36"/>
<polygon fill="#63b8ff" stroke="#63b8ff" points="1323.68,-342.41 1333.81,-339.31 1323.96,-335.42 1323.68,-342.41"/>
</a>
</g>
</g>
<!-- Node4&#45;&gt;Node21 -->
<g id="edge39_Node000004_Node000021" class="edge">
<title>Node4&#45;&gt;Node21</title>
<g id="a_edge39_Node000004_Node000021"><a xlink:title=" ">
<path fill="none" stroke="#63b8ff" d="M1459.92,-334.65C1499.38,-328.77 1549.03,-317.6 1589,-296.5 1601.8,-289.74 1748.2,-150.48 1803.78,-97.42"/>
<polygon fill="#63b8ff" stroke="#63b8ff" points="1459.49,-331.32 1450.08,-336.18 1460.47,-338.25 1459.49,-331.32"/>
</a>
</g>
</g>
<!-- Node22 -->
<g id="Node000022" class="node">
<title>Node22</title>
<g id="a_Node000022"><a xlink:href="../../d9/d06/render-pipeline_8hpp.html" target="_top" xlink:title=" ">
<polygon fill="white" stroke="#666666" points="964,-290.88 864,-290.88 864,-260.38 964,-260.38 964,-290.88"/>
<text text-anchor="start" x="872" y="-277.38" font-family="Helvetica,sans-Serif" font-size="10.00">engine/core/layers</text>
<text text-anchor="middle" x="914" y="-266.12" font-family="Helvetica,sans-Serif" font-size="10.00">/render&#45;pipeline.hpp</text>
</a>
</g>
</g>
<!-- Node4&#45;&gt;Node22 -->
<g id="edge26_Node000004_Node000022" class="edge">
<title>Node4&#45;&gt;Node22</title>
<g id="a_edge26_Node000004_Node000022"><a xlink:title=" ">
<path fill="none" stroke="#63b8ff" d="M1324.24,-335.61C1246.2,-328.75 1114.3,-315.55 1002,-296.5 989.65,-294.4 976.42,-291.68 964.07,-288.92"/>
<polygon fill="#63b8ff" stroke="#63b8ff" points="1323.62,-339.16 1333.89,-336.54 1324.23,-332.19 1323.62,-339.16"/>
</a>
</g>
</g>
<!-- Node25 -->
<g id="Node000025" class="node">
<title>Node25</title>
<g id="a_Node000025"><a xlink:href="../../d4/d7c/deferred-resolve_8cpp.html" target="_top" xlink:title=" ">
<polygon fill="white" stroke="#666666" points="1228.38,-290.88 1115.62,-290.88 1115.62,-260.38 1228.38,-260.38 1228.38,-290.88"/>
<text text-anchor="start" x="1123.62" y="-277.38" font-family="Helvetica,sans-Serif" font-size="10.00">engine/render/deferred</text>
<text text-anchor="middle" x="1172" y="-266.12" font-family="Helvetica,sans-Serif" font-size="10.00">&#45;resolve.cpp</text>
</a>
</g>
</g>
<!-- Node4&#45;&gt;Node25 -->
<g id="edge33_Node000004_Node000025" class="edge">
<title>Node4&#45;&gt;Node25</title>
<g id="a_edge33_Node000004_Node000025"><a xlink:title=" ">
<path fill="none" stroke="#63b8ff" d="M1349.4,-329.06C1318.23,-320.19 1274.94,-307.76 1237,-296.5 1231.46,-294.85 1225.65,-293.11 1219.89,-291.37"/>
<polygon fill="#63b8ff" stroke="#63b8ff" points="1348.32,-332.68 1358.89,-332.05 1350.23,-325.95 1348.32,-332.68"/>
</a>
</g>
</g>
<!-- Node4&#45;&gt;Node26 -->
<g id="edge34_Node000004_Node000026" class="edge">
<title>Node4&#45;&gt;Node26</title>
<g id="a_edge34_Node000004_Node000026"><a xlink:title=" ">
<path fill="none" stroke="#63b8ff" d="M1457.71,-330.18C1506.52,-321.77 1574.62,-309.43 1634,-296.5 1648.79,-293.28 1665.01,-289.28 1678.89,-285.71"/>
<polygon fill="#63b8ff" stroke="#63b8ff" points="1457.25,-326.88 1447.98,-332.02 1458.43,-333.78 1457.25,-326.88"/>
</a>
</g>
</g>
<!-- Node27 -->
<g id="Node000027" class="node">
<title>Node27</title>
<g id="a_Node000027"><a xlink:href="../../d8/dcb/emissive-render-system_8cpp.html" target="_top" xlink:title=" ">
<polygon fill="white" stroke="#666666" points="1376,-296.5 1246,-296.5 1246,-254.75 1376,-254.75 1376,-296.5"/>
<text text-anchor="start" x="1254" y="-283" font-family="Helvetica,sans-Serif" font-size="10.00">engine/subsystems/render</text>
<text text-anchor="start" x="1254" y="-271.75" font-family="Helvetica,sans-Serif" font-size="10.00">/detail/emissive&#45;render</text>
<text text-anchor="middle" x="1311" y="-260.5" font-family="Helvetica,sans-Serif" font-size="10.00">&#45;system.cpp</text>
</a>
</g>
</g>
<!-- Node4&#45;&gt;Node27 -->
<g id="edge37_Node000004_Node000027" class="edge">
<title>Node4&#45;&gt;Node27</title>
<g id="a_edge37_Node000004_Node000027"><a xlink:title=" ">
<path fill="none" stroke="#63b8ff" d="M1372.42,-325.53C1361.63,-316.94 1348.1,-306.17 1336.5,-296.93"/>
<polygon fill="#63b8ff" stroke="#63b8ff" points="1369.73,-328.67 1379.74,-332.16 1374.09,-323.19 1369.73,-328.67"/>
</a>
</g>
</g>
<!-- Node28 -->
<g id="Node000028" class="node">
<title>Node28</title>
<g id="a_Node000028"><a xlink:href="../../d1/d62/opaque-render-system_8cpp.html" target="_top" xlink:title=" ">
<polygon fill="white" stroke="#666666" points="1553.62,-290.88 1394.38,-290.88 1394.38,-260.38 1553.62,-260.38 1553.62,-290.88"/>
<text text-anchor="start" x="1402.38" y="-277.38" font-family="Helvetica,sans-Serif" font-size="10.00">engine/subsystems/render</text>
<text text-anchor="middle" x="1474" y="-266.12" font-family="Helvetica,sans-Serif" font-size="10.00">/detail/opaque&#45;render&#45;system.cpp</text>
</a>
</g>
</g>
<!-- Node4&#45;&gt;Node28 -->
<g id="edge38_Node000004_Node000028" class="edge">
<title>Node4&#45;&gt;Node28</title>
<g id="a_edge38_Node000004_Node000028"><a xlink:title=" ">
<path fill="none" stroke="#63b8ff" d="M1411.83,-325.52C1425.11,-315.08 1442.45,-301.44 1455.45,-291.22"/>
<polygon fill="#63b8ff" stroke="#63b8ff" points="1410.1,-323.22 1404.4,-332.16 1414.43,-328.73 1410.1,-323.22"/>
</a>
</g>
</g>
<!-- Node6 -->
<g id="Node000006" class="node">
<title>Node6</title>
<g id="a_Node000006"><a xlink:href="../../d0/d86/camera-movement_8hpp.html" target="_top" xlink:title=" ">
<polygon fill="white" stroke="#666666" points="1142.75,-85.75 987.25,-85.75 987.25,-66.5 1142.75,-66.5 1142.75,-85.75"/>
<text text-anchor="middle" x="1065" y="-72.25" font-family="Helvetica,sans-Serif" font-size="10.00">d3d_test/camera&#45;movement.hpp</text>
</a>
</g>
</g>
<!-- Node5&#45;&gt;Node6 -->
<g id="edge5_Node000005_Node000006" class="edge">
<title>Node5&#45;&gt;Node6</title>
<g id="a_edge5_Node000005_Node000006"><a xlink:title=" ">
<path fill="none" stroke="#63b8ff" d="M943.39,-133.6C973.59,-119.58 1019.75,-98.14 1045.64,-86.11"/>
<polygon fill="#63b8ff" stroke="#63b8ff" points="942.03,-130.84 934.43,-138.23 944.98,-137.19 942.03,-130.84"/>
</a>
</g>
</g>
<!-- Node8 -->
<g id="Node000008" class="node">
<title>Node8</title>
<g id="a_Node000008"><a xlink:href="../../dc/dfb/controller_8hpp.html" target="_top" xlink:title=" ">
<polygon fill="white" stroke="#666666" points="300.12,-85.75 185.88,-85.75 185.88,-66.5 300.12,-66.5 300.12,-85.75"/>
<text text-anchor="middle" x="243" y="-72.25" font-family="Helvetica,sans-Serif" font-size="10.00">d3d_test/controller.hpp</text>
</a>
</g>
</g>
<!-- Node5&#45;&gt;Node8 -->
<g id="edge8_Node000005_Node000008" class="edge">
<title>Node5&#45;&gt;Node8</title>
<g id="a_edge8_Node000005_Node000008"><a xlink:title=" ">
<path fill="none" stroke="#63b8ff" d="M845.14,-146.11C732.37,-143.21 501.66,-133 310,-97 296.29,-94.42 281.37,-90.15 269.11,-86.23"/>
<polygon fill="#63b8ff" stroke="#63b8ff" points="844.93,-149.63 855.01,-146.37 845.1,-142.63 844.93,-149.63"/>
</a>
</g>
</g>
<!-- Node9 -->
<g id="Node000009" class="node">
<title>Node9</title>
<g id="a_Node000009"><a xlink:href="../../d9/d0f/main_8cc.html" target="_top" xlink:title=" ">
<polygon fill="white" stroke="#666666" points="288.12,-19.25 197.88,-19.25 197.88,0 288.12,0 288.12,-19.25"/>
<text text-anchor="middle" x="243" y="-5.75" font-family="Helvetica,sans-Serif" font-size="10.00">d3d_test/main.cc</text>
</a>
</g>
</g>
<!-- Node5&#45;&gt;Node9 -->
<g id="edge11_Node000005_Node000009" class="edge">
<title>Node5&#45;&gt;Node9</title>
<g id="a_edge11_Node000005_Node000009"><a xlink:title=" ">
<path fill="none" stroke="#63b8ff" d="M844.83,-144.75C742.18,-140.07 555.23,-127.54 496,-97 473.7,-85.5 479.79,-67.68 458,-55.25 404.86,-24.93 333.84,-15.09 288.25,-11.96"/>
<polygon fill="#63b8ff" stroke="#63b8ff" points="844.56,-148.28 854.71,-145.23 844.87,-141.29 844.56,-148.28"/>
</a>
</g>
</g>
<!-- Node10 -->
<g id="Node000010" class="node">
<title>Node10</title>
<g id="a_Node000010"><a xlink:href="../../da/df5/object-editor_8hpp.html" target="_top" xlink:title=" ">
<polygon fill="white" stroke="#666666" points="1572.88,-85.75 1445.12,-85.75 1445.12,-66.5 1572.88,-66.5 1572.88,-85.75"/>
<text text-anchor="middle" x="1509" y="-72.25" font-family="Helvetica,sans-Serif" font-size="10.00">d3d_test/object&#45;editor.hpp</text>
</a>
</g>
</g>
<!-- Node5&#45;&gt;Node10 -->
<g id="edge12_Node000005_Node000010" class="edge">
<title>Node5&#45;&gt;Node10</title>
<g id="a_edge12_Node000005_Node000010"><a xlink:title=" ">
<path fill="none" stroke="#63b8ff" d="M982.88,-144.35C1083.24,-139.28 1275.22,-126.4 1436,-97 1450.73,-94.31 1466.82,-90.07 1480.13,-86.2"/>
<polygon fill="#63b8ff" stroke="#63b8ff" points="982.8,-140.9 972.99,-144.89 983.15,-147.89 982.8,-140.9"/>
</a>
</g>
</g>
<!-- Node13 -->
<g id="Node000013" class="node">
<title>Node13</title>
<g id="a_Node000013"><a xlink:href="../../d9/d55/scene-viewer_8hpp.html" target="_top" xlink:title=" ">
<polygon fill="white" stroke="#666666" points="1293.12,-85.75 1160.88,-85.75 1160.88,-66.5 1293.12,-66.5 1293.12,-85.75"/>
<text text-anchor="middle" x="1227" y="-72.25" font-family="Helvetica,sans-Serif" font-size="10.00">d3d_test/scene&#45;viewer.hpp</text>
</a>
</g>
</g>
<!-- Node5&#45;&gt;Node13 -->
<g id="edge16_Node000005_Node000013" class="edge">
<title>Node5&#45;&gt;Node13</title>
<g id="a_edge16_Node000005_Node000013"><a xlink:title=" ">
<path fill="none" stroke="#63b8ff" d="M971.24,-136.02C1019.56,-126.33 1090.51,-111.63 1152,-97 1165.89,-93.7 1181.14,-89.72 1194.23,-86.2"/>
<polygon fill="#63b8ff" stroke="#63b8ff" points="970.79,-132.74 961.67,-138.13 972.17,-139.6 970.79,-132.74"/>
</a>
</g>
</g>
<!-- Node14 -->
<g id="Node000014" class="node">
<title>Node14</title>
<g id="a_Node000014"><a xlink:href="../../da/d5c/engine_8cpp.html" target="_top" xlink:title=" ">
<polygon fill="white" stroke="#666666" points="1426.88,-85.75 1311.12,-85.75 1311.12,-66.5 1426.88,-66.5 1426.88,-85.75"/>
<text text-anchor="middle" x="1369" y="-72.25" font-family="Helvetica,sans-Serif" font-size="10.00">engine/core/engine.cpp</text>
</a>
</g>
</g>
<!-- Node5&#45;&gt;Node14 -->
<g id="edge18_Node000005_Node000014" class="edge">
<title>Node5&#45;&gt;Node14</title>
<g id="a_edge18_Node000005_Node000014"><a xlink:title=" ">
<path fill="none" stroke="#63b8ff" d="M982.99,-141.67C1061.01,-134.58 1191.57,-120.37 1302,-97 1315.29,-94.19 1329.78,-90.03 1341.87,-86.25"/>
<polygon fill="#63b8ff" stroke="#63b8ff" points="982.98,-138.24 973.33,-142.62 983.61,-145.21 982.98,-138.24"/>
</a>
</g>
</g>
<!-- Node15 -->
<g id="Node000015" class="node">
<title>Node15</title>
<g id="a_Node000015"><a xlink:href="../../d1/da2/deferred-hdr-render-pipeline_8cpp.html" target="_top" xlink:title=" ">
<polygon fill="white" stroke="#666666" points="449.38,-91.38 318.62,-91.38 318.62,-60.88 449.38,-60.88 449.38,-91.38"/>
<text text-anchor="start" x="326.62" y="-77.88" font-family="Helvetica,sans-Serif" font-size="10.00">engine/direct3d11/deferred</text>
<text text-anchor="middle" x="384" y="-66.62" font-family="Helvetica,sans-Serif" font-size="10.00">&#45;hdr&#45;render&#45;pipeline.cpp</text>
</a>
</g>
</g>
<!-- Node5&#45;&gt;Node15 -->
<g id="edge19_Node000005_Node000015" class="edge">
<title>Node5&#45;&gt;Node15</title>
<g id="a_edge19_Node000005_Node000015"><a xlink:title=" ">
<path fill="none" stroke="#63b8ff" d="M845.23,-142.5C756.44,-135.7 597.34,-121.27 463,-97 454.93,-95.54 446.46,-93.72 438.19,-91.78"/>
<polygon fill="#63b8ff" stroke="#63b8ff" points="844.74,-146.05 854.97,-143.31 845.26,-139.07 844.74,-146.05"/>
</a>
</g>
</g>
<!-- Node5&#45;&gt;Node16 -->
<g id="edge20_Node000005_Node000016" class="edge">
<title>Node5&#45;&gt;Node16</title>
<g id="a_edge20_Node000005_Node000016"><a xlink:title=" ">
<path fill="none" stroke="#63b8ff" d="M982.96,-145.63C1104.6,-141.99 1364.95,-130.63 1582,-97 1590.89,-95.62 1600.22,-93.8 1609.31,-91.82"/>
<polygon fill="#63b8ff" stroke="#63b8ff" points="982.88,-142.16 972.98,-145.95 983.08,-149.16 982.88,-142.16"/>
</a>
</g>
</g>
<!-- Node5&#45;&gt;Node17 -->
<g id="edge21_Node000005_Node000017" class="edge">
<title>Node5&#45;&gt;Node17</title>
<g id="a_edge21_Node000005_Node000017"><a xlink:title=" ">
<path fill="none" stroke="#63b8ff" d="M845.37,-145.04C714.81,-140.28 421.85,-126.98 177,-97 161.81,-95.14 145.55,-92.58 130.26,-89.93"/>
<polygon fill="#63b8ff" stroke="#63b8ff" points="844.87,-148.56 854.99,-145.42 845.12,-141.56 844.87,-148.56"/>
</a>
</g>
</g>
<!-- Node18 -->
<g id="Node000018" class="node">
<title>Node18</title>
<g id="a_Node000018"><a xlink:href="../../d2/d11/emissive-particle-render-system_8cpp.html" target="_top" xlink:title=" ">
<polygon fill="white" stroke="#666666" points="635,-97 505,-97 505,-55.25 635,-55.25 635,-97"/>
<text text-anchor="start" x="513" y="-83.5" font-family="Helvetica,sans-Serif" font-size="10.00">engine/subsystems/render</text>
<text text-anchor="start" x="513" y="-72.25" font-family="Helvetica,sans-Serif" font-size="10.00">/detail/emissive&#45;particle</text>
<text text-anchor="middle" x="570" y="-61" font-family="Helvetica,sans-Serif" font-size="10.00">&#45;render&#45;system.cpp</text>
</a>
</g>
</g>
<!-- Node5&#45;&gt;Node18 -->
<g id="edge22_Node000005_Node000018" class="edge">
<title>Node5&#45;&gt;Node18</title>
<g id="a_edge22_Node000005_Node000018"><a xlink:title=" ">
<path fill="none" stroke="#63b8ff" d="M847.27,-136.33C792.44,-127 712.87,-112.63 644,-97 641.15,-96.35 638.24,-95.67 635.3,-94.96"/>
<polygon fill="#63b8ff" stroke="#63b8ff" points="846.45,-139.91 856.89,-138.13 847.61,-133.01 846.45,-139.91"/>
</a>
</g>
</g>
<!-- Node19 -->
<g id="Node000019" class="node">
<title>Node19</title>
<g id="a_Node000019"><a xlink:href="../../df/d58/grass-render-system_8cpp.html" target="_top" xlink:title=" ">
<polygon fill="white" stroke="#666666" points="804.88,-91.38 653.12,-91.38 653.12,-60.88 804.88,-60.88 804.88,-91.38"/>
<text text-anchor="start" x="661.12" y="-77.88" font-family="Helvetica,sans-Serif" font-size="10.00">engine/subsystems/render</text>
<text text-anchor="middle" x="729" y="-66.62" font-family="Helvetica,sans-Serif" font-size="10.00">/detail/grass&#45;render&#45;system.cpp</text>
</a>
</g>
</g>
<!-- Node5&#45;&gt;Node19 -->
<g id="edge23_Node000005_Node000019" class="edge">
<title>Node5&#45;&gt;Node19</title>
<g id="a_edge23_Node000005_Node000019"><a xlink:title=" ">
<path fill="none" stroke="#63b8ff" d="M880.08,-134.39C848.38,-122.38 801.08,-104.45 767.87,-91.86"/>
<polygon fill="#63b8ff" stroke="#63b8ff" points="878.6,-137.95 889.19,-138.23 881.08,-131.41 878.6,-137.95"/>
</a>
</g>
</g>
<!-- Node20 -->
<g id="Node000020" class="node">
<title>Node20</title>
<g id="a_Node000020"><a xlink:href="../../d8/d9c/light-render-system_8cpp.html" target="_top" xlink:title=" ">
<polygon fill="white" stroke="#666666" points="968.88,-91.38 823.12,-91.38 823.12,-60.88 968.88,-60.88 968.88,-91.38"/>
<text text-anchor="start" x="831.12" y="-77.88" font-family="Helvetica,sans-Serif" font-size="10.00">engine/subsystems/render</text>
<text text-anchor="middle" x="896" y="-66.62" font-family="Helvetica,sans-Serif" font-size="10.00">/detail/light&#45;render&#45;system.cpp</text>
</a>
</g>
</g>
<!-- Node5&#45;&gt;Node20 -->
<g id="edge24_Node000005_Node000020" class="edge">
<title>Node5&#45;&gt;Node20</title>
<g id="a_edge24_Node000005_Node000020"><a xlink:title=" ">
<path fill="none" stroke="#63b8ff" d="M909,-127.77C906.08,-116.38 902.45,-102.23 899.76,-91.79"/>
<polygon fill="#63b8ff" stroke="#63b8ff" points="905.84,-128.55 911.72,-137.37 912.62,-126.81 905.84,-128.55"/>
</a>
</g>
</g>
<!-- Node5&#45;&gt;Node21 -->
<g id="edge25_Node000005_Node000021" class="edge">
<title>Node5&#45;&gt;Node21</title>
<g id="a_edge25_Node000005_Node000021"><a xlink:title=" ">
<path fill="none" stroke="#63b8ff" d="M983.12,-147.81C1127.02,-147.94 1468.82,-142.88 1751,-97 1753.89,-96.53 1756.83,-95.99 1759.79,-95.41"/>
<polygon fill="#63b8ff" stroke="#63b8ff" points="983.29,-144.31 973.29,-147.79 983.28,-151.31 983.29,-144.31"/>
</a>
</g>
</g>
<!-- Node6&#45;&gt;Node3 -->
<g id="edge7_Node000006_Node000003" class="edge">
<title>Node6&#45;&gt;Node3</title>
<g id="a_edge7_Node000006_Node000003"><a xlink:title=" ">
<path fill="none" stroke="#63b8ff" d="M1097.96,-62C1129.61,-49.4 1176.56,-30.71 1204.25,-19.68"/>
<polygon fill="#63b8ff" stroke="#63b8ff" points="1096.86,-59.07 1088.87,-66.02 1099.45,-65.57 1096.86,-59.07"/>
</a>
</g>
</g>
<!-- Node7 -->
<g id="Node000007" class="node">
<title>Node7</title>
<g id="a_Node000007"><a xlink:href="../../d5/dbb/camera-movement_8cpp.html" target="_top" xlink:title=" ">
<polygon fill="white" stroke="#666666" points="1142.75,-19.25 987.25,-19.25 987.25,0 1142.75,0 1142.75,-19.25"/>
<text text-anchor="middle" x="1065" y="-5.75" font-family="Helvetica,sans-Serif" font-size="10.00">d3d_test/camera&#45;movement.cpp</text>
</a>
</g>
</g>
<!-- Node6&#45;&gt;Node7 -->
<g id="edge6_Node000006_Node000007" class="edge">
<title>Node6&#45;&gt;Node7</title>
<g id="a_edge6_Node000006_Node000007"><a xlink:title=" ">
<path fill="none" stroke="#63b8ff" d="M1065,-55.4C1065,-43.43 1065,-28.73 1065,-19.52"/>
<polygon fill="#63b8ff" stroke="#63b8ff" points="1061.5,-55.16 1065,-65.16 1068.5,-55.16 1061.5,-55.16"/>
</a>
</g>
</g>
<!-- Node8&#45;&gt;Node3 -->
<g id="edge9_Node000008_Node000003" class="edge">
<title>Node8&#45;&gt;Node3</title>
<g id="a_edge9_Node000008_Node000003"><a xlink:title=" ">
<path fill="none" stroke="#63b8ff" d="M278.55,-62.81C288.6,-59.82 299.63,-56.98 310,-55.25 679.44,6.48 778.59,-48.67 1152,-19.25 1157.75,-18.8 1163.74,-18.25 1169.71,-17.64"/>
<polygon fill="#63b8ff" stroke="#63b8ff" points="277.61,-59.76 269.11,-66.08 279.7,-66.44 277.61,-59.76"/>
</a>
</g>
</g>
<!-- Node8&#45;&gt;Node9 -->
<g id="edge10_Node000008_Node000009" class="edge">
<title>Node8&#45;&gt;Node9</title>
<g id="a_edge10_Node000008_Node000009"><a xlink:title=" ">
<path fill="none" stroke="#63b8ff" d="M243,-55.4C243,-43.43 243,-28.73 243,-19.52"/>
<polygon fill="#63b8ff" stroke="#63b8ff" points="239.5,-55.16 243,-65.16 246.5,-55.16 239.5,-55.16"/>
</a>
</g>
</g>
<!-- Node10&#45;&gt;Node3 -->
<g id="edge13_Node000010_Node000003" class="edge">
<title>Node10&#45;&gt;Node3</title>
<g id="a_edge13_Node000010_Node000003"><a xlink:title=" ">
<path fill="none" stroke="#63b8ff" d="M1466.58,-63.15C1456.58,-60.44 1445.94,-57.66 1436,-55.25 1380.29,-41.73 1315.7,-28.28 1273.24,-19.73"/>
<polygon fill="#63b8ff" stroke="#63b8ff" points="1465.55,-66.77 1476.12,-66.03 1467.4,-60.02 1465.55,-66.77"/>
</a>
</g>
</g>
<!-- Node11 -->
<g id="Node000011" class="node">
<title>Node11</title>
<g id="a_Node000011"><a xlink:href="../../d4/d94/object-editor_8cpp.html" target="_top" xlink:title=" ">
<polygon fill="white" stroke="#666666" points="1649.88,-19.25 1522.12,-19.25 1522.12,0 1649.88,0 1649.88,-19.25"/>
<text text-anchor="middle" x="1586" y="-5.75" font-family="Helvetica,sans-Serif" font-size="10.00">d3d_test/object&#45;editor.cpp</text>
</a>
</g>
</g>
<!-- Node10&#45;&gt;Node11 -->
<g id="edge14_Node000010_Node000011" class="edge">
<title>Node10&#45;&gt;Node11</title>
<g id="a_edge14_Node000010_Node000011"><a xlink:title=" ">
<path fill="none" stroke="#63b8ff" d="M1527.78,-59.39C1542.74,-46.87 1563.13,-29.78 1575.38,-19.52"/>
<polygon fill="#63b8ff" stroke="#63b8ff" points="1526.12,-57.05 1520.71,-66.16 1530.62,-62.42 1526.12,-57.05"/>
</a>
</g>
</g>
<!-- Node12 -->
<g id="Node000012" class="node">
<title>Node12</title>
<g id="a_Node000012"><a xlink:href="../../d0/d38/scene-viewer_8cpp.html" target="_top" xlink:title=" ">
<polygon fill="white" stroke="#666666" points="1504.12,-19.25 1371.88,-19.25 1371.88,0 1504.12,0 1504.12,-19.25"/>
<text text-anchor="middle" x="1438" y="-5.75" font-family="Helvetica,sans-Serif" font-size="10.00">d3d_test/scene&#45;viewer.cpp</text>
</a>
</g>
</g>
<!-- Node10&#45;&gt;Node12 -->
<g id="edge15_Node000010_Node000012" class="edge">
<title>Node10&#45;&gt;Node12</title>
<g id="a_edge15_Node000010_Node000012"><a xlink:title=" ">
<path fill="none" stroke="#63b8ff" d="M1491.29,-59.04C1477.54,-46.55 1458.99,-29.69 1447.79,-19.52"/>
<polygon fill="#63b8ff" stroke="#63b8ff" points="1488.37,-61.02 1498.13,-65.16 1493.08,-55.84 1488.37,-61.02"/>
</a>
</g>
</g>
<!-- Node13&#45;&gt;Node3 -->
<g id="edge17_Node000013_Node000003" class="edge">
<title>Node13&#45;&gt;Node3</title>
<g id="a_edge17_Node000013_Node000003"><a xlink:title=" ">
<path fill="none" stroke="#63b8ff" d="M1227,-55.4C1227,-43.43 1227,-28.73 1227,-19.52"/>
<polygon fill="#63b8ff" stroke="#63b8ff" points="1223.5,-55.16 1227,-65.16 1230.5,-55.16 1223.5,-55.16"/>
</a>
</g>
</g>
<!-- Node23 -->
<g id="Node000023" class="node">
<title>Node23</title>
<g id="a_Node000023"><a xlink:href="../../d4/d87/layers_8hpp.html" target="_top" xlink:title=" ">
<polygon fill="white" stroke="#666666" points="970.38,-218.75 857.62,-218.75 857.62,-199.5 970.38,-199.5 970.38,-218.75"/>
<text text-anchor="middle" x="914" y="-205.25" font-family="Helvetica,sans-Serif" font-size="10.00">engine/core/layers.hpp</text>
</a>
</g>
</g>
<!-- Node22&#45;&gt;Node23 -->
<g id="edge27_Node000022_Node000023" class="edge">
<title>Node22&#45;&gt;Node23</title>
<g id="a_edge27_Node000022_Node000023"><a xlink:title=" ">
<path fill="none" stroke="#63b8ff" d="M914,-249.05C914,-238.39 914,-226.7 914,-218.95"/>
<polygon fill="#63b8ff" stroke="#63b8ff" points="910.5,-248.99 914,-258.99 917.5,-248.99 910.5,-248.99"/>
</a>
</g>
</g>
<!-- Node22&#45;&gt;Node24 -->
<g id="edge29_Node000022_Node000024" class="edge">
<title>Node22&#45;&gt;Node24</title>
<g id="a_edge29_Node000022_Node000024"><a xlink:title=" ">
<path fill="none" stroke="#63b8ff" d="M852.96,-260.19C751.33,-236.14 548.5,-188.16 446.14,-163.95"/>
<polygon fill="#63b8ff" stroke="#63b8ff" points="852.12,-263.82 862.66,-262.72 853.74,-257.01 852.12,-263.82"/>
</a>
</g>
</g>
<!-- Node23&#45;&gt;Node5 -->
<g id="edge28_Node000023_Node000005" class="edge">
<title>Node23&#45;&gt;Node5</title>
<g id="a_edge28_Node000023_Node000005"><a xlink:title=" ">
<path fill="none" stroke="#63b8ff" d="M914,-188.37C914,-178.18 914,-166.26 914,-158.28"/>
<polygon fill="#63b8ff" stroke="#63b8ff" points="910.5,-188.18 914,-198.18 917.5,-188.18 910.5,-188.18"/>
</a>
</g>
</g>
<!-- Node24&#45;&gt;Node8 -->
<g id="edge30_Node000024_Node000008" class="edge">
<title>Node24&#45;&gt;Node8</title>
<g id="a_edge30_Node000024_Node000008"><a xlink:title=" ">
<path fill="none" stroke="#63b8ff" d="M344.78,-127.75C317.5,-114.18 282.37,-96.71 261.33,-86.24"/>
<polygon fill="#63b8ff" stroke="#63b8ff" points="342.93,-131.23 353.44,-132.55 346.05,-124.96 342.93,-131.23"/>
</a>
</g>
</g>
<!-- Node24&#45;&gt;Node9 -->
<g id="edge31_Node000024_Node000009" class="edge">
<title>Node24&#45;&gt;Node9</title>
<g id="a_edge31_Node000024_Node000009"><a xlink:title=" ">
<path fill="none" stroke="#63b8ff" d="M307.71,-133.44C252.22,-122.62 185.39,-107.67 177,-97 165.53,-82.41 168.3,-71.64 177,-55.25 185.89,-38.51 204.16,-26.91 219.24,-19.74"/>
<polygon fill="#63b8ff" stroke="#63b8ff" points="306.79,-137.02 317.27,-135.48 308.12,-130.15 306.79,-137.02"/>
</a>
</g>
</g>
<!-- Node24&#45;&gt;Node15 -->
<g id="edge32_Node000024_Node000015" class="edge">
<title>Node24&#45;&gt;Node15</title>
<g id="a_edge32_Node000024_Node000015"><a xlink:title=" ">
<path fill="none" stroke="#63b8ff" d="M384,-121.93C384,-111.75 384,-100.38 384,-91.64"/>
<polygon fill="#63b8ff" stroke="#63b8ff" points="380.5,-121.72 384,-131.72 387.5,-121.72 380.5,-121.72"/>
</a>
</g>
</g>
</g>
</svg>

<g id="navigator" transform="translate(0 0)" fill="#404254">
  <rect fill="#f2f5e9" fill-opacity="0.5" stroke="#606060" stroke-width=".5" x="0" y="0" width="60" height="60"/>
  <use id="zoomplus" xlink:href="#zoomPlus" x="17" y="9" onmousedown="handleZoom(evt,'in')"/>
  <use id="zoomminus" xlink:href="#zoomMin" x="42" y="9" onmousedown="handleZoom(evt,'out')"/>
  <use id="reset" xlink:href="#resetDef" x="30" y="36" onmousedown="handleReset()"/>
   <use id="arrowup" xlink:href="#arrowUp" x="0" y="0" onmousedown="handlePan(0,-1)"/>
  <use id="arrowright" xlink:href="#arrowRight" x="0" y="0" onmousedown="handlePan(1,0)"/>
  <use id="arrowdown" xlink:href="#arrowDown" x="0" y="0" onmousedown="handlePan(0,1)"/>
  <use id="arrowleft" xlink:href="#arrowLeft" x="0" y="0" onmousedown="handlePan(-1,0)"/>
</g>
<svg viewBox="0 0 15 15" width="100%" height="30px" preserveAspectRatio="xMaxYMin meet">
 <g id="arrow_out" transform="scale(0.3 0.3)">
  <a xlink:href="particle-render-system_8hpp__dep__incl_org.svg" target="_base">
   <rect id="button" ry="5" rx="5" y="6" x="6" height="38" width="38"
        fill="#f2f5e9" fill-opacity="0.5" stroke="#606060" stroke-width="1.0"/>
   <path id="arrow"
     d="M 11.500037,31.436501 C 11.940474,20.09759 22.043105,11.32322 32.158766,21.979434 L 37.068811,17.246167 C 37.068811,17.246167 37.088388,32 37.088388,32 L 22.160133,31.978069 C 22.160133,31.978069 26.997745,27.140456 26.997745,27.140456 C 18.528582,18.264221 13.291696,25.230495 11.500037,31.436501 z"
     style="fill:#404040;"/>
  </a>
 </g>
</svg>

<style type='text/css'>
<![CDATA[
[data-mouse-over-selected='false'] { opacity: 0.7; }
[data-mouse-over-selected='true']  { opacity: 1.0; }
]]>
</style>
<script type="application/ecmascript"><![CDATA[
document.addEventListener('DOMContentLoaded', (event) => {
  highlightEdges();
  highlightAdjacentNodes();
});
]]></script>
</svg>
