<?xml version="1.0" encoding="UTF-8" standalone="no"?>
<!DOCTYPE svg PUBLIC "-//W3C//DTD SVG 1.1//EN"
 "http://www.w3.org/Graphics/SVG/1.1/DTD/svg11.dtd">
<!-- Generated by graphviz version 9.0.0 (20230911.1827)
 -->
<!-- Title: engine/subsystems/render/detail/particle&#45;render&#45;system.hpp Pages: 1 -->
<!--zoomable 493 -->

<svg id="main" version="1.1" xmlns="http://www.w3.org/2000/svg" xmlns:xlink="http://www.w3.org/1999/xlink" xml:space="preserve" onload="init(evt)">
<style type="text/css"><![CDATA[
.node, .edge {opacity: 0.7;}
.node.selected, .edge.selected {opacity: 1;}
.edge:hover path { stroke: red; }
.edge:hover polygon { stroke: red; fill: red; }
]]></style>

<defs>
  <circle id="rim" cx="0" cy="0" r="7"/>
  <circle id="rim2" cx="0" cy="0" r="3.5"/>
  <g id="zoomPlus">
    <use xlink:href="#rim" fill="#404040"><set attributeName="fill" to="#808080" begin="zoomplus.mouseover" end="zoomplus.mouseout"/></use>
    <path d="M-4,0h8M0,-4v8" fill="none" stroke="white" stroke-width="1.5" pointer-events="none"/>
  </g>
  <g id="zoomMin">
    <use xlink:href="#rim" fill="#404040"><set attributeName="fill" to="#808080" begin="zoomminus.mouseover" end="zoomminus.mouseout"/></use>
    <path d="M-4,0h8" fill="none" stroke="white" stroke-width="1.5" pointer-events="none"/>
  </g>
  <g id="arrowUp" transform="translate(30 24)">
    <use xlink:href="#rim"/>
    <path pointer-events="none" fill="none" stroke="white" stroke-width="1.5" d="M0,-3.0v7 M-2.5,-0.5L0,-3.0L2.5,-0.5"/>
  </g>
  <g id="arrowRight" transform="rotate(90) translate(36 -43)">
    <use xlink:href="#rim"/>
    <path pointer-events="none" fill="none" stroke="white" stroke-width="1.5" d="M0,-3.0v7 M-2.5,-0.5L0,-3.0L2.5,-0.5"/>
  </g>
  <g id="arrowDown" transform="rotate(180) translate(-30 -48)">
    <use xlink:href="#rim"/>
    <path pointer-events="none" fill="none" stroke="white" stroke-width="1.5" d="M0,-3.0v7 M-2.5,-0.5L0,-3.0L2.5,-0.5"/>
  </g>
  <g id="arrowLeft" transform="rotate(270) translate(-36 17)">
    <use xlink:href="#rim"/>
    <path pointer-events="none" fill="none" stroke="white" stroke-width="1.5" d="M0,-3.0v7 M-2.5,-0.5L0,-3.0L2.5,-0.5"/>
  </g>
  <g id="resetDef">
    <use xlink:href="#rim2" fill="#404040"><set attributeName="fill" to="#808080" begin="reset.mouseover" end="reset.mouseout"/></use>
  </g>
</defs>
<script type="application/ecmascript">
var viewWidth = 1934;
var viewHeight = 493;
var sectionId = 'dynsection-1';
</script>
<script type="application/ecmascript" xlink:href="../../svg.min.js"/>
<svg id="graph" class="graph">
<g id="viewport">
<title>engine/subsystems/render/detail/particle&#45;render&#45;system.hpp</title>
<!-- Node1 -->
<g id="Node000001" class="node">
<title>Node1</title>
<g id="a_Node000001"><a xlink:title=" ">
<polygon fill="#999999" stroke="#666666" points="1843,-484.75 1713,-484.75 1713,-443 1843,-443 1843,-484.75"/>
<text text-anchor="start" x="1721" y="-471.25" font-family="Helvetica,sans-Serif" font-size="10.00">engine/subsystems/render</text>
<text text-anchor="start" x="1721" y="-460" font-family="Helvetica,sans-Serif" font-size="10.00">/detail/particle&#45;render</text>
<text text-anchor="middle" x="1778" y="-448.75" font-family="Helvetica,sans-Serif" font-size="10.00">&#45;system.hpp</text>
</a>
</g>
</g>
<!-- Node2 -->
<g id="Node000002" class="node">
<title>Node2</title>
<g id="a_Node000002"><a xlink:href="../../d1/dae/renderer_8hpp.html" target="_top" xlink:title=" ">
<polygon fill="white" stroke="#666666" points="1778.38,-407 1647.62,-407 1647.62,-387.75 1778.38,-387.75 1778.38,-407"/>
<text text-anchor="middle" x="1713" y="-393.5" font-family="Helvetica,sans-Serif" font-size="10.00">engine/render/renderer.hpp</text>
</a>
</g>
</g>
<!-- Node1&#45;&gt;Node2 -->
<g id="edge1_Node000001_Node000002" class="edge">
<title>Node1&#45;&gt;Node2</title>
<g id="a_edge1_Node000001_Node000002"><a xlink:title=" ">
<path fill="none" stroke="#63b8ff" d="M1749.67,-434.77C1739.77,-424.94 1729.34,-414.58 1722.14,-407.45"/>
<polygon fill="#63b8ff" stroke="#63b8ff" points="1747.15,-437.19 1756.72,-441.75 1752.08,-432.23 1747.15,-437.19"/>
</a>
</g>
</g>
<!-- Node21 -->
<g id="Node000021" class="node">
<title>Node21</title>
<g id="a_Node000021"><a xlink:href="../../d3/dfe/particle-render-system_8cpp.html" target="_top" xlink:title=" ">
<polygon fill="white" stroke="#666666" points="1890,-97 1760,-97 1760,-55.25 1890,-55.25 1890,-97"/>
<text text-anchor="start" x="1768" y="-83.5" font-family="Helvetica,sans-Serif" font-size="10.00">engine/subsystems/render</text>
<text text-anchor="start" x="1768" y="-72.25" font-family="Helvetica,sans-Serif" font-size="10.00">/detail/particle&#45;render</text>
<text text-anchor="middle" x="1825" y="-61" font-family="Helvetica,sans-Serif" font-size="10.00">&#45;system.cpp</text>
</a>
</g>
</g>
<!-- Node1&#45;&gt;Node21 -->
<g id="edge42_Node000001_Node000021" class="edge">
<title>Node1&#45;&gt;Node21</title>
<g id="a_edge42_Node000001_Node000021"><a xlink:title=" ">
<path fill="none" stroke="#63b8ff" d="M1820.33,-436.11C1848.36,-414.77 1880,-382.06 1880,-343.12 1880,-343.12 1880,-343.12 1880,-208.12 1880,-166.19 1855.75,-122.18 1839.45,-97.35"/>
<polygon fill="#63b8ff" stroke="#63b8ff" points="1818.63,-433.02 1812.62,-441.74 1822.76,-438.67 1818.63,-433.02"/>
</a>
</g>
</g>
<!-- Node3 -->
<g id="Node000003" class="node">
<title>Node3</title>
<g id="a_Node000003"><a xlink:href="../../d1/d47/controller_8cpp.html" target="_top" xlink:title=" ">
<polygon fill="white" stroke="#666666" points="1284.12,-19.25 1169.88,-19.25 1169.88,0 1284.12,0 1284.12,-19.25"/>
<text text-anchor="middle" x="1227" y="-5.75" font-family="Helvetica,sans-Serif" font-size="10.00">d3d_test/controller.cpp</text>
</a>
</g>
</g>
<!-- Node2&#45;&gt;Node3 -->
<g id="edge2_Node000002_Node000003" class="edge">
<title>Node2&#45;&gt;Node3</title>
<g id="a_edge2_Node000002_Node000003"><a xlink:title=" ">
<path fill="none" stroke="#63b8ff" d="M1733.92,-380.68C1800.56,-328.92 1997.84,-160.87 1899,-55.25 1897.69,-53.85 1446.87,-24.75 1284.46,-14.31"/>
<polygon fill="#63b8ff" stroke="#63b8ff" points="1732.09,-377.67 1726.28,-386.53 1736.35,-383.23 1732.09,-377.67"/>
</a>
</g>
</g>
<!-- Node4 -->
<g id="Node000004" class="node">
<title>Node4</title>
<g id="a_Node000004"><a xlink:href="../../d5/d9b/scene_8hpp.html" target="_top" xlink:title=" ">
<polygon fill="white" stroke="#666666" points="1448.75,-351.75 1335.25,-351.75 1335.25,-332.5 1448.75,-332.5 1448.75,-351.75"/>
<text text-anchor="middle" x="1392" y="-338.25" font-family="Helvetica,sans-Serif" font-size="10.00">engine/core/scene.hpp</text>
</a>
</g>
</g>
<!-- Node2&#45;&gt;Node4 -->
<g id="edge3_Node000002_Node000004" class="edge">
<title>Node2&#45;&gt;Node4</title>
<g id="a_edge3_Node000002_Node000004"><a xlink:title=" ">
<path fill="none" stroke="#63b8ff" d="M1647.1,-385.44C1588.01,-375.64 1502.3,-361.42 1446.86,-352.23"/>
<polygon fill="#63b8ff" stroke="#63b8ff" points="1646.25,-388.85 1656.69,-387.03 1647.4,-381.94 1646.25,-388.85"/>
</a>
</g>
</g>
<!-- Node24 -->
<g id="Node000024" class="node">
<title>Node24</title>
<g id="a_Node000024"><a xlink:href="../../db/df9/deferred-hdr-render-pipeline_8hpp.html" target="_top" xlink:title=" ">
<polygon fill="white" stroke="#666666" points="449.38,-163.5 318.62,-163.5 318.62,-133 449.38,-133 449.38,-163.5"/>
<text text-anchor="start" x="326.62" y="-150" font-family="Helvetica,sans-Serif" font-size="10.00">engine/direct3d11/deferred</text>
<text text-anchor="middle" x="384" y="-138.75" font-family="Helvetica,sans-Serif" font-size="10.00">&#45;hdr&#45;render&#45;pipeline.hpp</text>
</a>
</g>
</g>
<!-- Node2&#45;&gt;Node24 -->
<g id="edge40_Node000002_Node000024" class="edge">
<title>Node2&#45;&gt;Node24</title>
<g id="a_edge40_Node000002_Node000024"><a xlink:title=" ">
<path fill="none" stroke="#63b8ff" d="M1636.08,-387.55C1557.98,-378.58 1433.57,-364.26 1326,-351.75 1116.64,-327.4 1061.34,-339.46 855,-296.5 738.17,-272.18 711.87,-254.46 598,-218.75 539.11,-200.28 471.39,-178.14 428.18,-163.89"/>
<polygon fill="#63b8ff" stroke="#63b8ff" points="1635.42,-391 1645.76,-388.66 1636.22,-384.04 1635.42,-391"/>
</a>
</g>
</g>
<!-- Node26 -->
<g id="Node000026" class="node">
<title>Node26</title>
<g id="a_Node000026"><a xlink:href="../../d6/d54/renderer_8cpp.html" target="_top" xlink:title=" ">
<polygon fill="white" stroke="#666666" points="1778.38,-285.25 1647.62,-285.25 1647.62,-266 1778.38,-266 1778.38,-285.25"/>
<text text-anchor="middle" x="1713" y="-271.75" font-family="Helvetica,sans-Serif" font-size="10.00">engine/render/renderer.cpp</text>
</a>
</g>
</g>
<!-- Node2&#45;&gt;Node26 -->
<g id="edge41_Node000002_Node000026" class="edge">
<title>Node2&#45;&gt;Node26</title>
<g id="a_edge41_Node000002_Node000026"><a xlink:title=" ">
<path fill="none" stroke="#63b8ff" d="M1713,-376.13C1713,-349.8 1713,-304.9 1713,-285.73"/>
<polygon fill="#63b8ff" stroke="#63b8ff" points="1709.5,-375.86 1713,-385.86 1716.5,-375.86 1709.5,-375.86"/>
</a>
</g>
</g>
<!-- Node5 -->
<g id="Node000005" class="node">
<title>Node5</title>
<g id="a_Node000005"><a xlink:href="../../de/d46/engine_8hpp.html" target="_top" xlink:title=" ">
<polygon fill="white" stroke="#666666" points="971.88,-157.88 856.12,-157.88 856.12,-138.62 971.88,-138.62 971.88,-157.88"/>
<text text-anchor="middle" x="914" y="-144.38" font-family="Helvetica,sans-Serif" font-size="10.00">engine/core/engine.hpp</text>
</a>
</g>
</g>
<!-- Node4&#45;&gt;Node5 -->
<g id="edge4_Node000004_Node000005" class="edge">
<title>Node4&#45;&gt;Node5</title>
<g id="a_edge4_Node000004_Node000005"><a xlink:title=" ">
<path fill="none" stroke="#63b8ff" d="M1323.35,-339.79C1263.94,-336.47 1176.84,-326.32 1107,-296.5 1101.74,-294.26 966.72,-190.01 925.71,-158.3"/>
<polygon fill="#63b8ff" stroke="#63b8ff" points="1323.17,-343.29 1333.34,-340.29 1323.52,-336.29 1323.17,-343.29"/>
</a>
</g>
</g>
<!-- Node16 -->
<g id="Node000016" class="node">
<title>Node16</title>
<g id="a_Node000016"><a xlink:href="../../d8/d30/decal-render-system_8cpp.html" target="_top" xlink:title=" ">
<polygon fill="white" stroke="#666666" points="1741.5,-91.38 1590.5,-91.38 1590.5,-60.88 1741.5,-60.88 1741.5,-91.38"/>
<text text-anchor="start" x="1598.5" y="-77.88" font-family="Helvetica,sans-Serif" font-size="10.00">engine/subsystems/render</text>
<text text-anchor="middle" x="1666" y="-66.62" font-family="Helvetica,sans-Serif" font-size="10.00">/detail/decal&#45;render&#45;system.cpp</text>
</a>
</g>
</g>
<!-- Node4&#45;&gt;Node16 -->
<g id="edge35_Node000004_Node000016" class="edge">
<title>Node4&#45;&gt;Node16</title>
<g id="a_edge35_Node000004_Node000016"><a xlink:title=" ">
<path fill="none" stroke="#63b8ff" d="M1460.35,-339.16C1495.36,-334.62 1536.15,-323.29 1563,-296.5 1616.18,-243.42 1567.43,-197.48 1606,-133 1615.86,-116.51 1632.01,-101.87 1645.07,-91.72"/>
<polygon fill="#63b8ff" stroke="#63b8ff" points="1460.26,-335.65 1450.72,-340.24 1461.04,-342.61 1460.26,-335.65"/>
</a>
</g>
</g>
<!-- Node17 -->
<g id="Node000017" class="node">
<title>Node17</title>
<g id="a_Node000017"><a xlink:href="../../d1/d58/dissolution-render-system_8cpp.html" target="_top" xlink:title=" ">
<polygon fill="white" stroke="#666666" points="130,-97 0,-97 0,-55.25 130,-55.25 130,-97"/>
<text text-anchor="start" x="8" y="-83.5" font-family="Helvetica,sans-Serif" font-size="10.00">engine/subsystems/render</text>
<text text-anchor="start" x="8" y="-72.25" font-family="Helvetica,sans-Serif" font-size="10.00">/detail/dissolution&#45;render</text>
<text text-anchor="middle" x="65" y="-61" font-family="Helvetica,sans-Serif" font-size="10.00">&#45;system.cpp</text>
</a>
</g>
</g>
<!-- Node4&#45;&gt;Node17 -->
<g id="edge36_Node000004_Node000017" class="edge">
<title>Node4&#45;&gt;Node17</title>
<g id="a_edge36_Node000004_Node000017"><a xlink:title=" ">
<path fill="none" stroke="#63b8ff" d="M1323.4,-338.86C1220.89,-334.7 1021.93,-323.63 855,-296.5 608.9,-256.5 548.98,-234.59 310,-163.5 242.78,-143.5 166.83,-115.93 117.55,-97.36"/>
<polygon fill="#63b8ff" stroke="#63b8ff" points="1323.17,-342.35 1333.3,-339.25 1323.45,-335.36 1323.17,-342.35"/>
</a>
</g>
</g>
<!-- Node4&#45;&gt;Node21 -->
<g id="edge39_Node000004_Node000021" class="edge">
<title>Node4&#45;&gt;Node21</title>
<g id="a_edge39_Node000004_Node000021"><a xlink:title=" ">
<path fill="none" stroke="#63b8ff" d="M1460.42,-334.58C1499.8,-328.67 1549.2,-317.51 1589,-296.5 1601.8,-289.74 1748.2,-150.48 1803.78,-97.42"/>
<polygon fill="#63b8ff" stroke="#63b8ff" points="1459.99,-331.11 1450.57,-335.97 1460.96,-338.04 1459.99,-331.11"/>
</a>
</g>
</g>
<!-- Node22 -->
<g id="Node000022" class="node">
<title>Node22</title>
<g id="a_Node000022"><a xlink:href="../../d9/d06/render-pipeline_8hpp.html" target="_top" xlink:title=" ">
<polygon fill="white" stroke="#666666" points="964,-290.88 864,-290.88 864,-260.38 964,-260.38 964,-290.88"/>
<text text-anchor="start" x="872" y="-277.38" font-family="Helvetica,sans-Serif" font-size="10.00">engine/core/layers</text>
<text text-anchor="middle" x="914" y="-266.12" font-family="Helvetica,sans-Serif" font-size="10.00">/render&#45;pipeline.hpp</text>
</a>
</g>
</g>
<!-- Node4&#45;&gt;Node22 -->
<g id="edge26_Node000004_Node000022" class="edge">
<title>Node4&#45;&gt;Node22</title>
<g id="a_edge26_Node000004_Node000022"><a xlink:title=" ">
<path fill="none" stroke="#63b8ff" d="M1323.76,-335.57C1245.66,-328.69 1114.07,-315.51 1002,-296.5 989.65,-294.4 976.42,-291.68 964.07,-288.92"/>
<polygon fill="#63b8ff" stroke="#63b8ff" points="1323.12,-339.03 1333.38,-336.41 1323.72,-332.05 1323.12,-339.03"/>
</a>
</g>
</g>
<!-- Node25 -->
<g id="Node000025" class="node">
<title>Node25</title>
<g id="a_Node000025"><a xlink:href="../../d4/d7c/deferred-resolve_8cpp.html" target="_top" xlink:title=" ">
<polygon fill="white" stroke="#666666" points="1228.38,-290.88 1115.62,-290.88 1115.62,-260.38 1228.38,-260.38 1228.38,-290.88"/>
<text text-anchor="start" x="1123.62" y="-277.38" font-family="Helvetica,sans-Serif" font-size="10.00">engine/render/deferred</text>
<text text-anchor="middle" x="1172" y="-266.12" font-family="Helvetica,sans-Serif" font-size="10.00">&#45;resolve.cpp</text>
</a>
</g>
</g>
<!-- Node4&#45;&gt;Node25 -->
<g id="edge33_Node000004_Node000025" class="edge">
<title>Node4&#45;&gt;Node25</title>
<g id="a_edge33_Node000004_Node000025"><a xlink:title=" ">
<path fill="none" stroke="#63b8ff" d="M1348.99,-328.95C1317.86,-320.08 1274.78,-307.71 1237,-296.5 1231.46,-294.85 1225.65,-293.11 1219.89,-291.37"/>
<polygon fill="#63b8ff" stroke="#63b8ff" points="1347.86,-332.27 1358.44,-331.63 1349.78,-325.53 1347.86,-332.27"/>
</a>
</g>
</g>
<!-- Node4&#45;&gt;Node26 -->
<g id="edge34_Node000004_Node000026" class="edge">
<title>Node4&#45;&gt;Node26</title>
<g id="a_edge34_Node000004_Node000026"><a xlink:title=" ">
<path fill="none" stroke="#63b8ff" d="M1458.33,-330.07C1507.09,-321.66 1574.87,-309.38 1634,-296.5 1648.79,-293.28 1665.01,-289.28 1678.89,-285.71"/>
<polygon fill="#63b8ff" stroke="#63b8ff" points="1457.74,-326.62 1448.48,-331.76 1458.92,-333.52 1457.74,-326.62"/>
</a>
</g>
</g>
<!-- Node27 -->
<g id="Node000027" class="node">
<title>Node27</title>
<g id="a_Node000027"><a xlink:href="../../d8/dcb/emissive-render-system_8cpp.html" target="_top" xlink:title=" ">
<polygon fill="white" stroke="#666666" points="1376,-296.5 1246,-296.5 1246,-254.75 1376,-254.75 1376,-296.5"/>
<text text-anchor="start" x="1254" y="-283" font-family="Helvetica,sans-Serif" font-size="10.00">engine/subsystems/render</text>
<text text-anchor="start" x="1254" y="-271.75" font-family="Helvetica,sans-Serif" font-size="10.00">/detail/emissive&#45;render</text>
<text text-anchor="middle" x="1311" y="-260.5" font-family="Helvetica,sans-Serif" font-size="10.00">&#45;system.cpp</text>
</a>
</g>
</g>
<!-- Node4&#45;&gt;Node27 -->
<g id="edge37_Node000004_Node000027" class="edge">
<title>Node4&#45;&gt;Node27</title>
<g id="a_edge37_Node000004_Node000027"><a xlink:title=" ">
<path fill="none" stroke="#63b8ff" d="M1371.77,-325.01C1361.09,-316.51 1347.87,-305.99 1336.5,-296.93"/>
<polygon fill="#63b8ff" stroke="#63b8ff" points="1369.55,-327.72 1379.55,-331.21 1373.91,-322.25 1369.55,-327.72"/>
</a>
</g>
</g>
<!-- Node28 -->
<g id="Node000028" class="node">
<title>Node28</title>
<g id="a_Node000028"><a xlink:href="../../d1/d62/opaque-render-system_8cpp.html" target="_top" xlink:title=" ">
<polygon fill="white" stroke="#666666" points="1553.62,-290.88 1394.38,-290.88 1394.38,-260.38 1553.62,-260.38 1553.62,-290.88"/>
<text text-anchor="start" x="1402.38" y="-277.38" font-family="Helvetica,sans-Serif" font-size="10.00">engine/subsystems/render</text>
<text text-anchor="middle" x="1474" y="-266.12" font-family="Helvetica,sans-Serif" font-size="10.00">/detail/opaque&#45;render&#45;system.cpp</text>
</a>
</g>
</g>
<!-- Node4&#45;&gt;Node28 -->
<g id="edge38_Node000004_Node000028" class="edge">
<title>Node4&#45;&gt;Node28</title>
<g id="a_edge38_Node000004_Node000028"><a xlink:title=" ">
<path fill="none" stroke="#63b8ff" d="M1412.22,-325.22C1425.44,-314.82 1442.58,-301.34 1455.45,-291.22"/>
<polygon fill="#63b8ff" stroke="#63b8ff" points="1410.29,-322.29 1404.59,-331.22 1414.62,-327.79 1410.29,-322.29"/>
</a>
</g>
</g>
<!-- Node6 -->
<g id="Node000006" class="node">
<title>Node6</title>
<g id="a_Node000006"><a xlink:href="../../d0/d86/camera-movement_8hpp.html" target="_top" xlink:title=" ">
<polygon fill="white" stroke="#666666" points="1142.75,-85.75 987.25,-85.75 987.25,-66.5 1142.75,-66.5 1142.75,-85.75"/>
<text text-anchor="middle" x="1065" y="-72.25" font-family="Helvetica,sans-Serif" font-size="10.00">d3d_test/camera&#45;movement.hpp</text>
</a>
</g>
</g>
<!-- Node5&#45;&gt;Node6 -->
<g id="edge5_Node000005_Node000006" class="edge">
<title>Node5&#45;&gt;Node6</title>
<g id="a_edge5_Node000005_Node000006"><a xlink:title=" ">
<path fill="none" stroke="#63b8ff" d="M943.79,-133.42C973.99,-119.39 1019.86,-98.09 1045.64,-86.11"/>
<polygon fill="#63b8ff" stroke="#63b8ff" points="942.4,-130.2 934.8,-137.59 945.35,-136.55 942.4,-130.2"/>
</a>
</g>
</g>
<!-- Node8 -->
<g id="Node000008" class="node">
<title>Node8</title>
<g id="a_Node000008"><a xlink:href="../../dc/dfb/controller_8hpp.html" target="_top" xlink:title=" ">
<polygon fill="white" stroke="#666666" points="300.12,-85.75 185.88,-85.75 185.88,-66.5 300.12,-66.5 300.12,-85.75"/>
<text text-anchor="middle" x="243" y="-72.25" font-family="Helvetica,sans-Serif" font-size="10.00">d3d_test/controller.hpp</text>
</a>
</g>
</g>
<!-- Node5&#45;&gt;Node8 -->
<g id="edge8_Node000005_Node000008" class="edge">
<title>Node5&#45;&gt;Node8</title>
<g id="a_edge8_Node000005_Node000008"><a xlink:title=" ">
<path fill="none" stroke="#63b8ff" d="M844.8,-146.1C731.9,-143.19 501.46,-132.97 310,-97 296.29,-94.42 281.37,-90.15 269.11,-86.23"/>
<polygon fill="#63b8ff" stroke="#63b8ff" points="844.41,-149.59 854.5,-146.34 844.58,-142.59 844.41,-149.59"/>
</a>
</g>
</g>
<!-- Node9 -->
<g id="Node000009" class="node">
<title>Node9</title>
<g id="a_Node000009"><a xlink:href="../../d9/d0f/main_8cc.html" target="_top" xlink:title=" ">
<polygon fill="white" stroke="#666666" points="288.12,-19.25 197.88,-19.25 197.88,0 288.12,0 288.12,-19.25"/>
<text text-anchor="middle" x="243" y="-5.75" font-family="Helvetica,sans-Serif" font-size="10.00">d3d_test/main.cc</text>
</a>
</g>
</g>
<!-- Node5&#45;&gt;Node9 -->
<g id="edge11_Node000005_Node000009" class="edge">
<title>Node5&#45;&gt;Node9</title>
<g id="a_edge11_Node000005_Node000009"><a xlink:title=" ">
<path fill="none" stroke="#63b8ff" d="M844.21,-144.72C741.42,-140.02 555.11,-127.48 496,-97 473.7,-85.5 479.79,-67.68 458,-55.25 404.86,-24.93 333.84,-15.09 288.25,-11.96"/>
<polygon fill="#63b8ff" stroke="#63b8ff" points="844.05,-148.22 854.2,-145.16 844.36,-141.22 844.05,-148.22"/>
</a>
</g>
</g>
<!-- Node10 -->
<g id="Node000010" class="node">
<title>Node10</title>
<g id="a_Node000010"><a xlink:href="../../da/df5/object-editor_8hpp.html" target="_top" xlink:title=" ">
<polygon fill="white" stroke="#666666" points="1572.88,-85.75 1445.12,-85.75 1445.12,-66.5 1572.88,-66.5 1572.88,-85.75"/>
<text text-anchor="middle" x="1509" y="-72.25" font-family="Helvetica,sans-Serif" font-size="10.00">d3d_test/object&#45;editor.hpp</text>
</a>
</g>
</g>
<!-- Node5&#45;&gt;Node10 -->
<g id="edge12_Node000005_Node000010" class="edge">
<title>Node5&#45;&gt;Node10</title>
<g id="a_edge12_Node000005_Node000010"><a xlink:title=" ">
<path fill="none" stroke="#63b8ff" d="M983.19,-144.33C1083.63,-139.25 1275.39,-126.37 1436,-97 1450.73,-94.31 1466.82,-90.07 1480.13,-86.2"/>
<polygon fill="#63b8ff" stroke="#63b8ff" points="983.32,-140.82 973.5,-144.81 983.66,-147.81 983.32,-140.82"/>
</a>
</g>
</g>
<!-- Node13 -->
<g id="Node000013" class="node">
<title>Node13</title>
<g id="a_Node000013"><a xlink:href="../../d9/d55/scene-viewer_8hpp.html" target="_top" xlink:title=" ">
<polygon fill="white" stroke="#666666" points="1293.12,-85.75 1160.88,-85.75 1160.88,-66.5 1293.12,-66.5 1293.12,-85.75"/>
<text text-anchor="middle" x="1227" y="-72.25" font-family="Helvetica,sans-Serif" font-size="10.00">d3d_test/scene&#45;viewer.hpp</text>
</a>
</g>
</g>
<!-- Node5&#45;&gt;Node13 -->
<g id="edge16_Node000005_Node000013" class="edge">
<title>Node5&#45;&gt;Node13</title>
<g id="a_edge16_Node000005_Node000013"><a xlink:title=" ">
<path fill="none" stroke="#63b8ff" d="M971.85,-135.9C1020.16,-126.21 1090.76,-111.57 1152,-97 1165.89,-93.7 1181.14,-89.72 1194.23,-86.2"/>
<polygon fill="#63b8ff" stroke="#63b8ff" points="971.28,-132.44 962.16,-137.83 972.65,-139.3 971.28,-132.44"/>
</a>
</g>
</g>
<!-- Node14 -->
<g id="Node000014" class="node">
<title>Node14</title>
<g id="a_Node000014"><a xlink:href="../../da/d5c/engine_8cpp.html" target="_top" xlink:title=" ">
<polygon fill="white" stroke="#666666" points="1426.88,-85.75 1311.12,-85.75 1311.12,-66.5 1426.88,-66.5 1426.88,-85.75"/>
<text text-anchor="middle" x="1369" y="-72.25" font-family="Helvetica,sans-Serif" font-size="10.00">engine/core/engine.cpp</text>
</a>
</g>
</g>
<!-- Node5&#45;&gt;Node14 -->
<g id="edge18_Node000005_Node000014" class="edge">
<title>Node5&#45;&gt;Node14</title>
<g id="a_edge18_Node000005_Node000014"><a xlink:title=" ">
<path fill="none" stroke="#63b8ff" d="M983.47,-141.62C1061.54,-134.52 1191.79,-120.33 1302,-97 1315.29,-94.19 1329.78,-90.03 1341.87,-86.25"/>
<polygon fill="#63b8ff" stroke="#63b8ff" points="983.49,-138.11 973.84,-142.48 984.11,-145.08 983.49,-138.11"/>
</a>
</g>
</g>
<!-- Node15 -->
<g id="Node000015" class="node">
<title>Node15</title>
<g id="a_Node000015"><a xlink:href="../../d1/da2/deferred-hdr-render-pipeline_8cpp.html" target="_top" xlink:title=" ">
<polygon fill="white" stroke="#666666" points="449.38,-91.38 318.62,-91.38 318.62,-60.88 449.38,-60.88 449.38,-91.38"/>
<text text-anchor="start" x="326.62" y="-77.88" font-family="Helvetica,sans-Serif" font-size="10.00">engine/direct3d11/deferred</text>
<text text-anchor="middle" x="384" y="-66.62" font-family="Helvetica,sans-Serif" font-size="10.00">&#45;hdr&#45;render&#45;pipeline.cpp</text>
</a>
</g>
</g>
<!-- Node5&#45;&gt;Node15 -->
<g id="edge19_Node000005_Node000015" class="edge">
<title>Node5&#45;&gt;Node15</title>
<g id="a_edge19_Node000005_Node000015"><a xlink:title=" ">
<path fill="none" stroke="#63b8ff" d="M844.69,-142.46C755.79,-135.65 597.06,-121.22 463,-97 454.93,-95.54 446.46,-93.72 438.19,-91.78"/>
<polygon fill="#63b8ff" stroke="#63b8ff" points="844.23,-145.93 854.46,-143.2 844.75,-138.95 844.23,-145.93"/>
</a>
</g>
</g>
<!-- Node5&#45;&gt;Node16 -->
<g id="edge20_Node000005_Node000016" class="edge">
<title>Node5&#45;&gt;Node16</title>
<g id="a_edge20_Node000005_Node000016"><a xlink:title=" ">
<path fill="none" stroke="#63b8ff" d="M983.33,-145.62C1105.13,-141.96 1365.17,-130.59 1582,-97 1590.89,-95.62 1600.22,-93.8 1609.31,-91.82"/>
<polygon fill="#63b8ff" stroke="#63b8ff" points="983.39,-142.12 973.49,-145.91 983.59,-149.12 983.39,-142.12"/>
</a>
</g>
</g>
<!-- Node5&#45;&gt;Node17 -->
<g id="edge21_Node000005_Node000017" class="edge">
<title>Node5&#45;&gt;Node17</title>
<g id="a_edge21_Node000005_Node000017"><a xlink:title=" ">
<path fill="none" stroke="#63b8ff" d="M844.58,-145.01C713.64,-140.22 421.36,-126.92 177,-97 161.81,-95.14 145.55,-92.58 130.26,-89.93"/>
<polygon fill="#63b8ff" stroke="#63b8ff" points="844.36,-148.5 854.48,-145.36 844.61,-141.51 844.36,-148.5"/>
</a>
</g>
</g>
<!-- Node18 -->
<g id="Node000018" class="node">
<title>Node18</title>
<g id="a_Node000018"><a xlink:href="../../d2/d11/emissive-particle-render-system_8cpp.html" target="_top" xlink:title=" ">
<polygon fill="white" stroke="#666666" points="635,-97 505,-97 505,-55.25 635,-55.25 635,-97"/>
<text text-anchor="start" x="513" y="-83.5" font-family="Helvetica,sans-Serif" font-size="10.00">engine/subsystems/render</text>
<text text-anchor="start" x="513" y="-72.25" font-family="Helvetica,sans-Serif" font-size="10.00">/detail/emissive&#45;particle</text>
<text text-anchor="middle" x="570" y="-61" font-family="Helvetica,sans-Serif" font-size="10.00">&#45;render&#45;system.cpp</text>
</a>
</g>
</g>
<!-- Node5&#45;&gt;Node18 -->
<g id="edge22_Node000005_Node000018" class="edge">
<title>Node5&#45;&gt;Node18</title>
<g id="a_edge22_Node000005_Node000018"><a xlink:title=" ">
<path fill="none" stroke="#63b8ff" d="M846.58,-136.21C791.78,-126.88 712.59,-112.57 644,-97 641.15,-96.35 638.24,-95.67 635.3,-94.96"/>
<polygon fill="#63b8ff" stroke="#63b8ff" points="845.95,-139.66 856.4,-137.87 847.12,-132.75 845.95,-139.66"/>
</a>
</g>
</g>
<!-- Node19 -->
<g id="Node000019" class="node">
<title>Node19</title>
<g id="a_Node000019"><a xlink:href="../../df/d58/grass-render-system_8cpp.html" target="_top" xlink:title=" ">
<polygon fill="white" stroke="#666666" points="804.88,-91.38 653.12,-91.38 653.12,-60.88 804.88,-60.88 804.88,-91.38"/>
<text text-anchor="start" x="661.12" y="-77.88" font-family="Helvetica,sans-Serif" font-size="10.00">engine/subsystems/render</text>
<text text-anchor="middle" x="729" y="-66.62" font-family="Helvetica,sans-Serif" font-size="10.00">/detail/grass&#45;render&#45;system.cpp</text>
</a>
</g>
</g>
<!-- Node5&#45;&gt;Node19 -->
<g id="edge23_Node000005_Node000019" class="edge">
<title>Node5&#45;&gt;Node19</title>
<g id="a_edge23_Node000005_Node000019"><a xlink:title=" ">
<path fill="none" stroke="#63b8ff" d="M879.67,-134.24C847.97,-122.22 800.94,-104.39 767.87,-91.86"/>
<polygon fill="#63b8ff" stroke="#63b8ff" points="878.19,-137.42 888.78,-137.69 880.67,-130.87 878.19,-137.42"/>
</a>
</g>
</g>
<!-- Node20 -->
<g id="Node000020" class="node">
<title>Node20</title>
<g id="a_Node000020"><a xlink:href="../../d8/d9c/light-render-system_8cpp.html" target="_top" xlink:title=" ">
<polygon fill="white" stroke="#666666" points="968.88,-91.38 823.12,-91.38 823.12,-60.88 968.88,-60.88 968.88,-91.38"/>
<text text-anchor="start" x="831.12" y="-77.88" font-family="Helvetica,sans-Serif" font-size="10.00">engine/subsystems/render</text>
<text text-anchor="middle" x="896" y="-66.62" font-family="Helvetica,sans-Serif" font-size="10.00">/detail/light&#45;render&#45;system.cpp</text>
</a>
</g>
</g>
<!-- Node5&#45;&gt;Node20 -->
<g id="edge24_Node000005_Node000020" class="edge">
<title>Node5&#45;&gt;Node20</title>
<g id="a_edge24_Node000005_Node000020"><a xlink:title=" ">
<path fill="none" stroke="#63b8ff" d="M908.91,-127.41C906,-116.08 902.42,-102.12 899.76,-91.79"/>
<polygon fill="#63b8ff" stroke="#63b8ff" points="905.47,-128.09 911.34,-136.9 912.25,-126.35 905.47,-128.09"/>
</a>
</g>
</g>
<!-- Node5&#45;&gt;Node21 -->
<g id="edge25_Node000005_Node000021" class="edge">
<title>Node5&#45;&gt;Node21</title>
<g id="a_edge25_Node000005_Node000021"><a xlink:title=" ">
<path fill="none" stroke="#63b8ff" d="M983.56,-147.81C1127.7,-147.93 1469.1,-142.83 1751,-97 1753.89,-96.53 1756.83,-95.99 1759.79,-95.41"/>
<polygon fill="#63b8ff" stroke="#63b8ff" points="983.81,-144.31 973.8,-147.79 983.79,-151.31 983.81,-144.31"/>
</a>
</g>
</g>
<!-- Node6&#45;&gt;Node3 -->
<g id="edge7_Node000006_Node000003" class="edge">
<title>Node6&#45;&gt;Node3</title>
<g id="a_edge7_Node000006_Node000003"><a xlink:title=" ">
<path fill="none" stroke="#63b8ff" d="M1098.37,-61.84C1130.01,-49.24 1176.68,-30.66 1204.25,-19.68"/>
<polygon fill="#63b8ff" stroke="#63b8ff" points="1097.27,-58.51 1089.27,-65.46 1099.86,-65.01 1097.27,-58.51"/>
</a>
</g>
</g>
<!-- Node7 -->
<g id="Node000007" class="node">
<title>Node7</title>
<g id="a_Node000007"><a xlink:href="../../d5/dbb/camera-movement_8cpp.html" target="_top" xlink:title=" ">
<polygon fill="white" stroke="#666666" points="1142.75,-19.25 987.25,-19.25 987.25,0 1142.75,0 1142.75,-19.25"/>
<text text-anchor="middle" x="1065" y="-5.75" font-family="Helvetica,sans-Serif" font-size="10.00">d3d_test/camera&#45;movement.cpp</text>
</a>
</g>
</g>
<!-- Node6&#45;&gt;Node7 -->
<g id="edge6_Node000006_Node000007" class="edge">
<title>Node6&#45;&gt;Node7</title>
<g id="a_edge6_Node000006_Node000007"><a xlink:title=" ">
<path fill="none" stroke="#63b8ff" d="M1065,-54.65C1065,-42.82 1065,-28.54 1065,-19.52"/>
<polygon fill="#63b8ff" stroke="#63b8ff" points="1061.5,-54.64 1065,-64.64 1068.5,-54.64 1061.5,-54.64"/>
</a>
</g>
</g>
<!-- Node8&#45;&gt;Node3 -->
<g id="edge9_Node000008_Node000003" class="edge">
<title>Node8&#45;&gt;Node3</title>
<g id="a_edge9_Node000008_Node000003"><a xlink:title=" ">
<path fill="none" stroke="#63b8ff" d="M278.87,-62.72C288.84,-59.76 299.74,-56.96 310,-55.25 679.44,6.48 778.59,-48.67 1152,-19.25 1157.75,-18.8 1163.74,-18.25 1169.71,-17.64"/>
<polygon fill="#63b8ff" stroke="#63b8ff" points="278.05,-59.31 269.55,-65.63 280.14,-65.99 278.05,-59.31"/>
</a>
</g>
</g>
<!-- Node8&#45;&gt;Node9 -->
<g id="edge10_Node000008_Node000009" class="edge">
<title>Node8&#45;&gt;Node9</title>
<g id="a_edge10_Node000008_Node000009"><a xlink:title=" ">
<path fill="none" stroke="#63b8ff" d="M243,-54.65C243,-42.82 243,-28.54 243,-19.52"/>
<polygon fill="#63b8ff" stroke="#63b8ff" points="239.5,-54.64 243,-64.64 246.5,-54.64 239.5,-54.64"/>
</a>
</g>
</g>
<!-- Node10&#45;&gt;Node3 -->
<g id="edge13_Node000010_Node000003" class="edge">
<title>Node10&#45;&gt;Node3</title>
<g id="a_edge13_Node000010_Node000003"><a xlink:title=" ">
<path fill="none" stroke="#63b8ff" d="M1466.26,-63.06C1456.35,-60.38 1445.83,-57.64 1436,-55.25 1380.29,-41.73 1315.7,-28.28 1273.24,-19.73"/>
<polygon fill="#63b8ff" stroke="#63b8ff" points="1465.09,-66.37 1475.66,-65.63 1466.94,-59.62 1465.09,-66.37"/>
</a>
</g>
</g>
<!-- Node11 -->
<g id="Node000011" class="node">
<title>Node11</title>
<g id="a_Node000011"><a xlink:href="../../d4/d94/object-editor_8cpp.html" target="_top" xlink:title=" ">
<polygon fill="white" stroke="#666666" points="1649.88,-19.25 1522.12,-19.25 1522.12,0 1649.88,0 1649.88,-19.25"/>
<text text-anchor="middle" x="1586" y="-5.75" font-family="Helvetica,sans-Serif" font-size="10.00">d3d_test/object&#45;editor.cpp</text>
</a>
</g>
</g>
<!-- Node10&#45;&gt;Node11 -->
<g id="edge14_Node000010_Node000011" class="edge">
<title>Node10&#45;&gt;Node11</title>
<g id="a_edge14_Node000010_Node000011"><a xlink:title=" ">
<path fill="none" stroke="#63b8ff" d="M1528.2,-59.04C1543.12,-46.55 1563.24,-29.69 1575.38,-19.52"/>
<polygon fill="#63b8ff" stroke="#63b8ff" points="1526.29,-56.08 1520.87,-65.18 1530.78,-61.45 1526.29,-56.08"/>
</a>
</g>
</g>
<!-- Node12 -->
<g id="Node000012" class="node">
<title>Node12</title>
<g id="a_Node000012"><a xlink:href="../../d0/d38/scene-viewer_8cpp.html" target="_top" xlink:title=" ">
<polygon fill="white" stroke="#666666" points="1504.12,-19.25 1371.88,-19.25 1371.88,0 1504.12,0 1504.12,-19.25"/>
<text text-anchor="middle" x="1438" y="-5.75" font-family="Helvetica,sans-Serif" font-size="10.00">d3d_test/scene&#45;viewer.cpp</text>
</a>
</g>
</g>
<!-- Node10&#45;&gt;Node12 -->
<g id="edge15_Node000010_Node000012" class="edge">
<title>Node10&#45;&gt;Node12</title>
<g id="a_edge15_Node000010_Node000012"><a xlink:title=" ">
<path fill="none" stroke="#63b8ff" d="M1490.9,-58.69C1477.19,-46.23 1458.88,-29.59 1447.79,-19.52"/>
<polygon fill="#63b8ff" stroke="#63b8ff" points="1488.25,-61.01 1498.01,-65.14 1492.96,-55.82 1488.25,-61.01"/>
</a>
</g>
</g>
<!-- Node13&#45;&gt;Node3 -->
<g id="edge17_Node000013_Node000003" class="edge">
<title>Node13&#45;&gt;Node3</title>
<g id="a_edge17_Node000013_Node000003"><a xlink:title=" ">
<path fill="none" stroke="#63b8ff" d="M1227,-54.65C1227,-42.82 1227,-28.54 1227,-19.52"/>
<polygon fill="#63b8ff" stroke="#63b8ff" points="1223.5,-54.64 1227,-64.64 1230.5,-54.64 1223.5,-54.64"/>
</a>
</g>
</g>
<!-- Node23 -->
<g id="Node000023" class="node">
<title>Node23</title>
<g id="a_Node000023"><a xlink:href="../../d4/d87/layers_8hpp.html" target="_top" xlink:title=" ">
<polygon fill="white" stroke="#666666" points="970.38,-218.75 857.62,-218.75 857.62,-199.5 970.38,-199.5 970.38,-218.75"/>
<text text-anchor="middle" x="914" y="-205.25" font-family="Helvetica,sans-Serif" font-size="10.00">engine/core/layers.hpp</text>
</a>
</g>
</g>
<!-- Node22&#45;&gt;Node23 -->
<g id="edge27_Node000022_Node000023" class="edge">
<title>Node22&#45;&gt;Node23</title>
<g id="a_edge27_Node000022_Node000023"><a xlink:title=" ">
<path fill="none" stroke="#63b8ff" d="M914,-248.71C914,-238.14 914,-226.62 914,-218.95"/>
<polygon fill="#63b8ff" stroke="#63b8ff" points="910.5,-248.48 914,-258.48 917.5,-248.48 910.5,-248.48"/>
</a>
</g>
</g>
<!-- Node22&#45;&gt;Node24 -->
<g id="edge29_Node000022_Node000024" class="edge">
<title>Node22&#45;&gt;Node24</title>
<g id="a_edge29_Node000022_Node000024"><a xlink:title=" ">
<path fill="none" stroke="#63b8ff" d="M852.66,-260.11C750.92,-236.05 548.39,-188.14 446.14,-163.95"/>
<polygon fill="#63b8ff" stroke="#63b8ff" points="851.65,-263.47 862.19,-262.37 853.26,-256.66 851.65,-263.47"/>
</a>
</g>
</g>
<!-- Node23&#45;&gt;Node5 -->
<g id="edge28_Node000023_Node000005" class="edge">
<title>Node23&#45;&gt;Node5</title>
<g id="a_edge28_Node000023_Node000005"><a xlink:title=" ">
<path fill="none" stroke="#63b8ff" d="M914,-187.7C914,-177.67 914,-166.08 914,-158.28"/>
<polygon fill="#63b8ff" stroke="#63b8ff" points="910.5,-187.67 914,-197.67 917.5,-187.67 910.5,-187.67"/>
</a>
</g>
</g>
<!-- Node24&#45;&gt;Node8 -->
<g id="edge30_Node000024_Node000008" class="edge">
<title>Node24&#45;&gt;Node8</title>
<g id="a_edge30_Node000024_Node000008"><a xlink:title=" ">
<path fill="none" stroke="#63b8ff" d="M344.43,-127.57C317.19,-114.02 282.28,-96.66 261.33,-86.24"/>
<polygon fill="#63b8ff" stroke="#63b8ff" points="342.57,-130.56 353.09,-131.88 345.69,-124.29 342.57,-130.56"/>
</a>
</g>
</g>
<!-- Node24&#45;&gt;Node9 -->
<g id="edge31_Node000024_Node000009" class="edge">
<title>Node24&#45;&gt;Node9</title>
<g id="a_edge31_Node000024_Node000009"><a xlink:title=" ">
<path fill="none" stroke="#63b8ff" d="M307.01,-133.31C251.66,-122.5 185.35,-107.62 177,-97 165.53,-82.41 168.3,-71.64 177,-55.25 185.89,-38.51 204.16,-26.91 219.24,-19.74"/>
<polygon fill="#63b8ff" stroke="#63b8ff" points="306.31,-136.74 316.79,-135.19 307.63,-129.86 306.31,-136.74"/>
</a>
</g>
</g>
<!-- Node24&#45;&gt;Node15 -->
<g id="edge32_Node000024_Node000015" class="edge">
<title>Node24&#45;&gt;Node15</title>
<g id="a_edge32_Node000024_Node000015"><a xlink:title=" ">
<path fill="none" stroke="#63b8ff" d="M384,-121.27C384,-111.26 384,-100.19 384,-91.64"/>
<polygon fill="#63b8ff" stroke="#63b8ff" points="380.5,-121.21 384,-131.21 387.5,-121.21 380.5,-121.21"/>
</a>
</g>
</g>
</g>
</svg>

<g id="navigator" transform="translate(0 0)" fill="#404254">
  <rect fill="#f2f5e9" fill-opacity="0.5" stroke="#606060" stroke-width=".5" x="0" y="0" width="60" height="60"/>
  <use id="zoomplus" xlink:href="#zoomPlus" x="17" y="9" onmousedown="handleZoom(evt,'in')"/>
  <use id="zoomminus" xlink:href="#zoomMin" x="42" y="9" onmousedown="handleZoom(evt,'out')"/>
  <use id="reset" xlink:href="#resetDef" x="30" y="36" onmousedown="handleReset()"/>
   <use id="arrowup" xlink:href="#arrowUp" x="0" y="0" onmousedown="handlePan(0,-1)"/>
  <use id="arrowright" xlink:href="#arrowRight" x="0" y="0" onmousedown="handlePan(1,0)"/>
  <use id="arrowdown" xlink:href="#arrowDown" x="0" y="0" onmousedown="handlePan(0,1)"/>
  <use id="arrowleft" xlink:href="#arrowLeft" x="0" y="0" onmousedown="handlePan(-1,0)"/>
</g>
<svg viewBox="0 0 15 15" width="100%" height="30px" preserveAspectRatio="xMaxYMin meet">
 <g id="arrow_out" transform="scale(0.3 0.3)">
  <a xlink:href="particle-render-system_8hpp__dep__incl_org.svg" target="_base">
   <rect id="button" ry="5" rx="5" y="6" x="6" height="38" width="38"
        fill="#f2f5e9" fill-opacity="0.5" stroke="#606060" stroke-width="1.0"/>
   <path id="arrow"
     d="M 11.500037,31.436501 C 11.940474,20.09759 22.043105,11.32322 32.158766,21.979434 L 37.068811,17.246167 C 37.068811,17.246167 37.088388,32 37.088388,32 L 22.160133,31.978069 C 22.160133,31.978069 26.997745,27.140456 26.997745,27.140456 C 18.528582,18.264221 13.291696,25.230495 11.500037,31.436501 z"
     style="fill:#404040;"/>
  </a>
 </g>
</svg>

<style type='text/css'>
<![CDATA[
[data-mouse-over-selected='false'] { opacity: 0.7; }
[data-mouse-over-selected='true']  { opacity: 1.0; }
]]>
</style>
<script type="application/ecmascript"><![CDATA[
document.addEventListener('DOMContentLoaded', (event) => {
  highlightEdges();
  highlightAdjacentNodes();
});
]]></script>
</svg>
