<?xml version="1.0" encoding="UTF-8" standalone="no"?>
<!DOCTYPE svg PUBLIC "-//W3C//DTD SVG 1.1//EN"
 "http://www.w3.org/Graphics/SVG/1.1/DTD/svg11.dtd">
<!-- Generated by graphviz version 8.1.0 (20230707.0739)
 -->
<!-- Title: engine::core::Layer::HandleEvent Pages: 1 -->
<svg width="624pt" height="212pt"
 viewBox="0.00 0.00 624.00 212.25" xmlns="http://www.w3.org/2000/svg" xmlns:xlink="http://www.w3.org/1999/xlink">
<g id="graph0" class="graph" transform="scale(1 1) rotate(0) translate(4 208.25)">
<title>engine::core::Layer::HandleEvent</title>
<!-- Node1 -->
<g id="Node000001" class="node">
<title>Node1</title>
<g id="a_Node000001"><a xlink:title=" ">
<polygon fill="#999999" stroke="#666666" points="96.25,-116.88 0,-116.88 0,-86.38 96.25,-86.38 96.25,-116.88"/>
<text text-anchor="start" x="8" y="-103.38" font-family="Helvetica,sans-Serif" font-size="10.00">engine::core::Layer</text>
<text text-anchor="middle" x="48.12" y="-92.12" font-family="Helvetica,sans-Serif" font-size="10.00">::HandleEvent</text>
</a>
</g>
</g>
<!-- Node2 -->
<g id="Node000002" class="node">
<title>Node2</title>
<g id="a_Node000002"><a xlink:href="../../d8/d87/class_controller.html" target="_top" xlink:title=" ">
<polygon fill="white" stroke="#666666" points="235.62,-204.25 178.38,-204.25 178.38,-185 235.62,-185 235.62,-204.25"/>
<text text-anchor="middle" x="207" y="-190.75" font-family="Helvetica,sans-Serif" font-size="10.00">Controller</text>
</a>
</g>
</g>
<!-- Node1&#45;&gt;Node2 -->
<g id="edge1_Node000001_Node000002" class="edge">
<title>Node1&#45;&gt;Node2</title>
<g id="a_edge1_Node000001_Node000002"><a xlink:title=" ">
<path fill="none" stroke="#63b8ff" d="M69.17,-125.09C84.74,-141.85 107.74,-163.66 132.25,-176.62 146.46,-184.15 163.88,-188.59 178.22,-191.17"/>
<polygon fill="#63b8ff" stroke="#63b8ff" points="72.45,-123.39 63.15,-118.32 67.26,-128.09 72.45,-123.39"/>
</a>
</g>
</g>
<!-- Node3 -->
<g id="Node000003" class="node">
<title>Node3</title>
<g id="a_Node000003"><a xlink:href="../../da/d3d/classengine_1_1core_1_1_im_gui_layer.html" target="_top" xlink:title=" ">
<polygon fill="white" stroke="#666666" points="268.25,-167.25 145.75,-167.25 145.75,-148 268.25,-148 268.25,-167.25"/>
<text text-anchor="middle" x="207" y="-153.75" font-family="Helvetica,sans-Serif" font-size="10.00">engine::core::ImGuiLayer</text>
</a>
</g>
</g>
<!-- Node1&#45;&gt;Node3 -->
<g id="edge2_Node000001_Node000003" class="edge">
<title>Node1&#45;&gt;Node3</title>
<g id="a_edge2_Node000001_Node000003"><a xlink:title=" ">
<path fill="none" stroke="#63b8ff" d="M89.58,-121.98C102.94,-128.2 118.03,-134.69 132.25,-139.62 140.72,-142.56 149.89,-145.21 158.79,-147.51"/>
<polygon fill="#63b8ff" stroke="#63b8ff" points="91.27,-118.43 80.74,-117.31 88.27,-124.76 91.27,-118.43"/>
</a>
</g>
</g>
<!-- Node4 -->
<g id="Node000004" class="node">
<title>Node4</title>
<g id="a_Node000004"><a xlink:href="../../da/df3/classengine_1_1core_1_1_input_layer.html" target="_top" xlink:title=" ">
<polygon fill="white" stroke="#666666" points="266,-130.25 148,-130.25 148,-111 266,-111 266,-130.25"/>
<text text-anchor="middle" x="207" y="-116.75" font-family="Helvetica,sans-Serif" font-size="10.00">engine::core::InputLayer</text>
</a>
</g>
</g>
<!-- Node1&#45;&gt;Node4 -->
<g id="edge3_Node000001_Node000004" class="edge">
<title>Node1&#45;&gt;Node4</title>
<g id="a_edge3_Node000001_Node000004"><a xlink:title=" ">
<path fill="none" stroke="#63b8ff" d="M107.41,-108.68C120.53,-110.27 134.46,-111.96 147.58,-113.55"/>
<polygon fill="#63b8ff" stroke="#63b8ff" points="107.97,-105.11 97.62,-107.38 107.12,-112.05 107.97,-105.11"/>
</a>
</g>
</g>
<!-- Node5 -->
<g id="Node000005" class="node">
<title>Node5</title>
<g id="a_Node000005"><a xlink:href="../../d6/d88/classengine_1_1core_1_1_layer_stack.html" target="_top" xlink:title=" ">
<polygon fill="white" stroke="#666666" points="267.88,-93.25 146.12,-93.25 146.12,-74 267.88,-74 267.88,-93.25"/>
<text text-anchor="middle" x="207" y="-79.75" font-family="Helvetica,sans-Serif" font-size="10.00">engine::core::LayerStack</text>
</a>
</g>
</g>
<!-- Node1&#45;&gt;Node5 -->
<g id="edge4_Node000001_Node000005" class="edge">
<title>Node1&#45;&gt;Node5</title>
<g id="a_edge4_Node000001_Node000005"><a xlink:title=" ">
<path fill="none" stroke="#63b8ff" d="M107.42,-94.94C119.97,-93.5 133.26,-91.97 145.88,-90.52"/>
<polygon fill="#63b8ff" stroke="#63b8ff" points="107.15,-91.56 97.62,-96.18 107.95,-98.51 107.15,-91.56"/>
</a>
</g>
</g>
<!-- Node10 -->
<g id="Node000010" class="node">
<title>Node10</title>
<g id="a_Node000010"><a xlink:href="../../d1/d8a/classengine_1_1core_1_1_shader_manager.html" target="_top" xlink:title=" ">
<polygon fill="white" stroke="#666666" points="277.25,-56.25 136.75,-56.25 136.75,-37 277.25,-37 277.25,-56.25"/>
<text text-anchor="middle" x="207" y="-42.75" font-family="Helvetica,sans-Serif" font-size="10.00">engine::core::ShaderManager</text>
</a>
</g>
</g>
<!-- Node1&#45;&gt;Node10 -->
<g id="edge9_Node000001_Node000010" class="edge">
<title>Node1&#45;&gt;Node10</title>
<g id="a_edge9_Node000001_Node000010"><a xlink:title=" ">
<path fill="none" stroke="#63b8ff" d="M90.3,-81.55C103.5,-75.59 118.31,-69.38 132.25,-64.62 140.86,-61.69 150.18,-59.02 159.21,-56.7"/>
<polygon fill="#63b8ff" stroke="#63b8ff" points="89.18,-78.67 81.56,-86.03 92.11,-85.03 89.18,-78.67"/>
</a>
</g>
</g>
<!-- Node11 -->
<g id="Node000011" class="node">
<title>Node11</title>
<g id="a_Node000011"><a xlink:href="../../df/df1/classengine_1_1render_1_1_post_processing.html" target="_top" xlink:title=" ">
<polygon fill="white" stroke="#666666" points="281.75,-19.25 132.25,-19.25 132.25,0 281.75,0 281.75,-19.25"/>
<text text-anchor="middle" x="207" y="-5.75" font-family="Helvetica,sans-Serif" font-size="10.00">engine::render::PostProcessing</text>
</a>
</g>
</g>
<!-- Node1&#45;&gt;Node11 -->
<g id="edge10_Node000001_Node000011" class="edge">
<title>Node1&#45;&gt;Node11</title>
<g id="a_edge10_Node000001_Node000011"><a xlink:title=" ">
<path fill="none" stroke="#63b8ff" d="M69.23,-78.49C84.83,-61.95 107.84,-40.44 132.25,-27.62 138.32,-24.44 144.96,-21.81 151.7,-19.63"/>
<polygon fill="#63b8ff" stroke="#63b8ff" points="67.38,-75.41 63.19,-85.14 72.54,-80.15 67.38,-75.41"/>
</a>
</g>
</g>
<!-- Node6 -->
<g id="Node000006" class="node">
<title>Node6</title>
<g id="a_Node000006"><a xlink:href="../../d2/d5c/classengine_1_1core_1_1_layer_stack_threadsafe.html" target="_top" xlink:title=" ">
<polygon fill="white" stroke="#666666" points="447.38,-119.88 325.62,-119.88 325.62,-89.38 447.38,-89.38 447.38,-119.88"/>
<text text-anchor="start" x="333.62" y="-106.38" font-family="Helvetica,sans-Serif" font-size="10.00">engine::core::LayerStack</text>
<text text-anchor="middle" x="386.5" y="-95.12" font-family="Helvetica,sans-Serif" font-size="10.00">Threadsafe</text>
</a>
</g>
</g>
<!-- Node5&#45;&gt;Node6 -->
<g id="edge5_Node000005_Node000006" class="edge">
<title>Node5&#45;&gt;Node6</title>
<g id="a_edge5_Node000005_Node000006"><a xlink:title=" ">
<path fill="none" stroke="#8b1a1a" d="M278.62,-91.98C294.03,-93.8 310.2,-95.72 325.17,-97.49"/>
<polygon fill="#8b1a1a" stroke="#8b1a1a" points="279.44,-88.43 269.09,-90.73 278.61,-95.39 279.44,-88.43"/>
</a>
</g>
</g>
<!-- Node8 -->
<g id="Node000008" class="node">
<title>Node8</title>
<g id="a_Node000008"><a xlink:href="../../d9/d15/classengine_1_1core_1_1_render_pipeline.html" target="_top" xlink:title=" ">
<polygon fill="white" stroke="#666666" points="455.25,-71.25 317.75,-71.25 317.75,-52 455.25,-52 455.25,-71.25"/>
<text text-anchor="middle" x="386.5" y="-57.75" font-family="Helvetica,sans-Serif" font-size="10.00">engine::core::RenderPipeline</text>
</a>
</g>
</g>
<!-- Node5&#45;&gt;Node8 -->
<g id="edge7_Node000005_Node000008" class="edge">
<title>Node5&#45;&gt;Node8</title>
<g id="a_edge7_Node000005_Node000008"><a xlink:title=" ">
<path fill="none" stroke="#63b8ff" d="M278.69,-74.86C291.49,-73.28 304.81,-71.63 317.52,-70.05"/>
<polygon fill="#63b8ff" stroke="#63b8ff" points="278.59,-71.47 269.09,-76.18 279.45,-78.42 278.59,-71.47"/>
</a>
</g>
</g>
<!-- Node7 -->
<g id="Node000007" class="node">
<title>Node7</title>
<g id="a_Node000007"><a xlink:href="../../da/d33/classengine_1_1core_1_1_engine.html" target="_top" xlink:title="Represents the core of the engine.">
<polygon fill="white" stroke="#666666" points="604.38,-114.25 502.88,-114.25 502.88,-95 604.38,-95 604.38,-114.25"/>
<text text-anchor="middle" x="553.62" y="-100.75" font-family="Helvetica,sans-Serif" font-size="10.00">engine::core::Engine</text>
</a>
</g>
</g>
<!-- Node6&#45;&gt;Node7 -->
<g id="edge6_Node000006_Node000007" class="edge">
<title>Node6&#45;&gt;Node7</title>
<g id="a_edge6_Node000006_Node000007"><a xlink:title=" ">
<path fill="none" stroke="#8b1a1a" d="M458.32,-104.62C473.24,-104.62 488.67,-104.62 502.63,-104.62"/>
<polygon fill="#8b1a1a" stroke="#8b1a1a" points="458.58,-101.13 448.58,-104.62 458.58,-108.13 458.58,-101.13"/>
</a>
</g>
</g>
<!-- Node9 -->
<g id="Node000009" class="node">
<title>Node9</title>
<g id="a_Node000009"><a xlink:href="../../d9/d04/classengine_1_1direct3d_1_1_deferred_h_d_r_render_pipeline.html" target="_top" xlink:title=" ">
<polygon fill="white" stroke="#666666" points="616,-76.88 491.25,-76.88 491.25,-46.38 616,-46.38 616,-76.88"/>
<text text-anchor="start" x="499.25" y="-63.38" font-family="Helvetica,sans-Serif" font-size="10.00">engine::direct3d::Deferred</text>
<text text-anchor="middle" x="553.62" y="-52.12" font-family="Helvetica,sans-Serif" font-size="10.00">HDRRenderPipeline</text>
</a>
</g>
</g>
<!-- Node8&#45;&gt;Node9 -->
<g id="edge8_Node000008_Node000009" class="edge">
<title>Node8&#45;&gt;Node9</title>
<g id="a_edge8_Node000008_Node000009"><a xlink:title=" ">
<path fill="none" stroke="#63b8ff" d="M466.61,-61.62C474.72,-61.62 482.87,-61.62 490.75,-61.62"/>
<polygon fill="#63b8ff" stroke="#63b8ff" points="466.62,-58.13 456.62,-61.62 466.62,-65.13 466.62,-58.13"/>
</a>
</g>
</g>
</g>
</svg>
