<?xml version="1.0" encoding="UTF-8" standalone="no"?>
<!DOCTYPE svg PUBLIC "-//W3C//DTD SVG 1.1//EN"
 "http://www.w3.org/Graphics/SVG/1.1/DTD/svg11.dtd">
<!-- Generated by graphviz version 8.1.0 (20230707.0739)
 -->
<!-- Title: engine::core::Layer::HandleUpdate Pages: 1 -->
<svg width="624pt" height="249pt"
 viewBox="0.00 0.00 624.00 249.25" xmlns="http://www.w3.org/2000/svg" xmlns:xlink="http://www.w3.org/1999/xlink">
<g id="graph0" class="graph" transform="scale(1 1) rotate(0) translate(4 245.25)">
<title>engine::core::Layer::HandleUpdate</title>
<!-- Node1 -->
<g id="Node000001" class="node">
<title>Node1</title>
<g id="a_Node000001"><a xlink:title=" ">
<polygon fill="#999999" stroke="#666666" points="96.25,-135.88 0,-135.88 0,-105.38 96.25,-105.38 96.25,-135.88"/>
<text text-anchor="start" x="8" y="-122.38" font-family="Helvetica,sans-Serif" font-size="10.00">engine::core::Layer</text>
<text text-anchor="middle" x="48.12" y="-111.12" font-family="Helvetica,sans-Serif" font-size="10.00">::HandleUpdate</text>
</a>
</g>
</g>
<!-- Node2 -->
<g id="Node000002" class="node">
<title>Node2</title>
<g id="a_Node000002"><a xlink:href="../../d8/d87/class_controller.html" target="_top" xlink:title=" ">
<polygon fill="white" stroke="#666666" points="235.62,-241.25 178.38,-241.25 178.38,-222 235.62,-222 235.62,-241.25"/>
<text text-anchor="middle" x="207" y="-227.75" font-family="Helvetica,sans-Serif" font-size="10.00">Controller</text>
</a>
</g>
</g>
<!-- Node1&#45;&gt;Node2 -->
<g id="edge1_Node000001_Node000002" class="edge">
<title>Node1&#45;&gt;Node2</title>
<g id="a_edge1_Node000001_Node000002"><a xlink:title=" ">
<path fill="none" stroke="#63b8ff" d="M64.73,-145.19C79.54,-166.5 103.75,-196.52 132.25,-213.62 146.15,-221.97 163.72,-226.45 178.22,-228.85"/>
<polygon fill="#63b8ff" stroke="#63b8ff" points="67.09,-143.43 58.6,-137.09 61.28,-147.34 67.09,-143.43"/>
</a>
</g>
</g>
<!-- Node3 -->
<g id="Node000003" class="node">
<title>Node3</title>
<g id="a_Node000003"><a xlink:href="../../da/df3/classengine_1_1core_1_1_input_layer.html" target="_top" xlink:title=" ">
<polygon fill="white" stroke="#666666" points="266,-204.25 148,-204.25 148,-185 266,-185 266,-204.25"/>
<text text-anchor="middle" x="207" y="-190.75" font-family="Helvetica,sans-Serif" font-size="10.00">engine::core::InputLayer</text>
</a>
</g>
</g>
<!-- Node1&#45;&gt;Node3 -->
<g id="edge2_Node000001_Node000003" class="edge">
<title>Node1&#45;&gt;Node3</title>
<g id="a_edge2_Node000001_Node000003"><a xlink:title=" ">
<path fill="none" stroke="#63b8ff" d="M76.69,-142.83C92.21,-154.37 112.43,-167.86 132.25,-176.62 139.24,-179.71 146.85,-182.33 154.44,-184.52"/>
<polygon fill="#63b8ff" stroke="#63b8ff" points="79.2,-139.58 69.12,-136.3 74.96,-145.15 79.2,-139.58"/>
</a>
</g>
</g>
<!-- Node4 -->
<g id="Node000004" class="node">
<title>Node4</title>
<g id="a_Node000004"><a xlink:href="../../d6/d88/classengine_1_1core_1_1_layer_stack.html" target="_top" xlink:title=" ">
<polygon fill="white" stroke="#666666" points="267.88,-167.25 146.12,-167.25 146.12,-148 267.88,-148 267.88,-167.25"/>
<text text-anchor="middle" x="207" y="-153.75" font-family="Helvetica,sans-Serif" font-size="10.00">engine::core::LayerStack</text>
</a>
</g>
</g>
<!-- Node1&#45;&gt;Node4 -->
<g id="edge3_Node000001_Node000004" class="edge">
<title>Node1&#45;&gt;Node4</title>
<g id="a_edge3_Node000001_Node000004"><a xlink:title=" ">
<path fill="none" stroke="#63b8ff" d="M107.3,-134.35C125.83,-138.72 145.97,-143.47 163.2,-147.53"/>
<polygon fill="#63b8ff" stroke="#63b8ff" points="108.15,-130.72 97.62,-131.83 106.55,-137.53 108.15,-130.72"/>
</a>
</g>
</g>
<!-- Node9 -->
<g id="Node000009" class="node">
<title>Node9</title>
<g id="a_Node000009"><a xlink:href="../../d1/d8a/classengine_1_1core_1_1_shader_manager.html" target="_top" xlink:title=" ">
<polygon fill="white" stroke="#666666" points="277.25,-130.25 136.75,-130.25 136.75,-111 277.25,-111 277.25,-130.25"/>
<text text-anchor="middle" x="207" y="-116.75" font-family="Helvetica,sans-Serif" font-size="10.00">engine::core::ShaderManager</text>
</a>
</g>
</g>
<!-- Node1&#45;&gt;Node9 -->
<g id="edge8_Node000001_Node000009" class="edge">
<title>Node1&#45;&gt;Node9</title>
<g id="a_edge8_Node000001_Node000009"><a xlink:title=" ">
<path fill="none" stroke="#63b8ff" d="M107.46,-120.62C116.88,-120.62 126.72,-120.62 136.38,-120.62"/>
<polygon fill="#63b8ff" stroke="#63b8ff" points="107.62,-117.13 97.62,-120.62 107.62,-124.13 107.62,-117.13"/>
</a>
</g>
</g>
<!-- Node10 -->
<g id="Node000010" class="node">
<title>Node10</title>
<g id="a_Node000010"><a xlink:href="../../dd/d52/classengine_1_1core_1_1_window.html" target="_top" xlink:title=" ">
<polygon fill="white" stroke="#666666" points="260.38,-93.25 153.62,-93.25 153.62,-74 260.38,-74 260.38,-93.25"/>
<text text-anchor="middle" x="207" y="-79.75" font-family="Helvetica,sans-Serif" font-size="10.00">engine::core::Window</text>
</a>
</g>
</g>
<!-- Node1&#45;&gt;Node10 -->
<g id="edge9_Node000001_Node000010" class="edge">
<title>Node1&#45;&gt;Node10</title>
<g id="a_edge9_Node000001_Node000010"><a xlink:title=" ">
<path fill="none" stroke="#63b8ff" d="M107.3,-106.9C125.83,-102.53 145.97,-97.78 163.2,-93.72"/>
<polygon fill="#63b8ff" stroke="#63b8ff" points="106.55,-103.72 97.62,-109.42 108.15,-110.53 106.55,-103.72"/>
</a>
</g>
</g>
<!-- Node12 -->
<g id="Node000012" class="node">
<title>Node12</title>
<g id="a_Node000012"><a xlink:href="../../df/df1/classengine_1_1render_1_1_post_processing.html" target="_top" xlink:title=" ">
<polygon fill="white" stroke="#666666" points="281.75,-56.25 132.25,-56.25 132.25,-37 281.75,-37 281.75,-56.25"/>
<text text-anchor="middle" x="207" y="-42.75" font-family="Helvetica,sans-Serif" font-size="10.00">engine::render::PostProcessing</text>
</a>
</g>
</g>
<!-- Node1&#45;&gt;Node12 -->
<g id="edge11_Node000001_Node000012" class="edge">
<title>Node1&#45;&gt;Node12</title>
<g id="a_edge11_Node000001_Node000012"><a xlink:title=" ">
<path fill="none" stroke="#63b8ff" d="M76.69,-98.42C92.21,-86.88 112.43,-73.39 132.25,-64.62 139.24,-61.54 146.85,-58.92 154.44,-56.73"/>
<polygon fill="#63b8ff" stroke="#63b8ff" points="74.96,-96.1 69.12,-104.95 79.2,-101.67 74.96,-96.1"/>
</a>
</g>
</g>
<!-- Node13 -->
<g id="Node000013" class="node">
<title>Node13</title>
<g id="a_Node000013"><a xlink:href="../../d9/d64/classengine_1_1utils_1_1_file_watcher.html" target="_top" xlink:title=" ">
<polygon fill="white" stroke="#666666" points="268.62,-19.25 145.38,-19.25 145.38,0 268.62,0 268.62,-19.25"/>
<text text-anchor="middle" x="207" y="-5.75" font-family="Helvetica,sans-Serif" font-size="10.00">engine::utils::FileWatcher</text>
</a>
</g>
</g>
<!-- Node1&#45;&gt;Node13 -->
<g id="edge12_Node000001_Node000013" class="edge">
<title>Node1&#45;&gt;Node13</title>
<g id="a_edge12_Node000001_Node000013"><a xlink:title=" ">
<path fill="none" stroke="#63b8ff" d="M64.73,-96.06C79.54,-74.75 103.75,-44.73 132.25,-27.62 137.56,-24.44 143.41,-21.81 149.42,-19.66"/>
<polygon fill="#63b8ff" stroke="#63b8ff" points="61.28,-93.91 58.6,-104.16 67.09,-97.82 61.28,-93.91"/>
</a>
</g>
</g>
<!-- Node5 -->
<g id="Node000005" class="node">
<title>Node5</title>
<g id="a_Node000005"><a xlink:href="../../d2/d5c/classengine_1_1core_1_1_layer_stack_threadsafe.html" target="_top" xlink:title=" ">
<polygon fill="white" stroke="#666666" points="447.38,-199.88 325.62,-199.88 325.62,-169.38 447.38,-169.38 447.38,-199.88"/>
<text text-anchor="start" x="333.62" y="-186.38" font-family="Helvetica,sans-Serif" font-size="10.00">engine::core::LayerStack</text>
<text text-anchor="middle" x="386.5" y="-175.12" font-family="Helvetica,sans-Serif" font-size="10.00">Threadsafe</text>
</a>
</g>
</g>
<!-- Node4&#45;&gt;Node5 -->
<g id="edge4_Node000004_Node000005" class="edge">
<title>Node4&#45;&gt;Node5</title>
<g id="a_edge4_Node000004_Node000005"><a xlink:title=" ">
<path fill="none" stroke="#8b1a1a" d="M278.62,-168.37C294.03,-170.71 310.2,-173.17 325.17,-175.45"/>
<polygon fill="#8b1a1a" stroke="#8b1a1a" points="279.51,-164.81 269.09,-166.77 278.45,-171.73 279.51,-164.81"/>
</a>
</g>
</g>
<!-- Node7 -->
<g id="Node000007" class="node">
<title>Node7</title>
<g id="a_Node000007"><a xlink:href="../../d9/d15/classengine_1_1core_1_1_render_pipeline.html" target="_top" xlink:title=" ">
<polygon fill="white" stroke="#666666" points="455.25,-151.25 317.75,-151.25 317.75,-132 455.25,-132 455.25,-151.25"/>
<text text-anchor="middle" x="386.5" y="-137.75" font-family="Helvetica,sans-Serif" font-size="10.00">engine::core::RenderPipeline</text>
</a>
</g>
</g>
<!-- Node4&#45;&gt;Node7 -->
<g id="edge6_Node000004_Node000007" class="edge">
<title>Node4&#45;&gt;Node7</title>
<g id="a_edge6_Node000004_Node000007"><a xlink:title=" ">
<path fill="none" stroke="#63b8ff" d="M278.69,-151.25C291.49,-150.1 304.81,-148.9 317.52,-147.75"/>
<polygon fill="#63b8ff" stroke="#63b8ff" points="278.74,-147.82 269.09,-152.21 279.37,-154.8 278.74,-147.82"/>
</a>
</g>
</g>
<!-- Node6 -->
<g id="Node000006" class="node">
<title>Node6</title>
<g id="a_Node000006"><a xlink:href="../../da/d33/classengine_1_1core_1_1_engine.html" target="_top" xlink:title="Represents the core of the engine.">
<polygon fill="white" stroke="#666666" points="604.38,-194.25 502.88,-194.25 502.88,-175 604.38,-175 604.38,-194.25"/>
<text text-anchor="middle" x="553.62" y="-180.75" font-family="Helvetica,sans-Serif" font-size="10.00">engine::core::Engine</text>
</a>
</g>
</g>
<!-- Node5&#45;&gt;Node6 -->
<g id="edge5_Node000005_Node000006" class="edge">
<title>Node5&#45;&gt;Node6</title>
<g id="a_edge5_Node000005_Node000006"><a xlink:title=" ">
<path fill="none" stroke="#8b1a1a" d="M458.32,-184.62C473.24,-184.62 488.67,-184.62 502.63,-184.62"/>
<polygon fill="#8b1a1a" stroke="#8b1a1a" points="458.58,-181.13 448.58,-184.62 458.58,-188.13 458.58,-181.13"/>
</a>
</g>
</g>
<!-- Node8 -->
<g id="Node000008" class="node">
<title>Node8</title>
<g id="a_Node000008"><a xlink:href="../../d9/d04/classengine_1_1direct3d_1_1_deferred_h_d_r_render_pipeline.html" target="_top" xlink:title=" ">
<polygon fill="white" stroke="#666666" points="616,-156.88 491.25,-156.88 491.25,-126.38 616,-126.38 616,-156.88"/>
<text text-anchor="start" x="499.25" y="-143.38" font-family="Helvetica,sans-Serif" font-size="10.00">engine::direct3d::Deferred</text>
<text text-anchor="middle" x="553.62" y="-132.12" font-family="Helvetica,sans-Serif" font-size="10.00">HDRRenderPipeline</text>
</a>
</g>
</g>
<!-- Node7&#45;&gt;Node8 -->
<g id="edge7_Node000007_Node000008" class="edge">
<title>Node7&#45;&gt;Node8</title>
<g id="a_edge7_Node000007_Node000008"><a xlink:title=" ">
<path fill="none" stroke="#63b8ff" d="M466.61,-141.62C474.72,-141.62 482.87,-141.62 490.75,-141.62"/>
<polygon fill="#63b8ff" stroke="#63b8ff" points="466.62,-138.13 456.62,-141.62 466.62,-145.13 466.62,-138.13"/>
</a>
</g>
</g>
<!-- Node11 -->
<g id="Node000011" class="node">
<title>Node11</title>
<g id="a_Node000011"><a xlink:href="../../d0/de6/classengine_1_1platform_1_1windows_1_1_window.html" target="_top" xlink:title=" ">
<polygon fill="white" stroke="#666666" points="450,-98.88 323,-98.88 323,-68.38 450,-68.38 450,-98.88"/>
<text text-anchor="start" x="331" y="-85.38" font-family="Helvetica,sans-Serif" font-size="10.00">engine::platform::windows</text>
<text text-anchor="middle" x="386.5" y="-74.12" font-family="Helvetica,sans-Serif" font-size="10.00">::Window</text>
</a>
</g>
</g>
<!-- Node10&#45;&gt;Node11 -->
<g id="edge10_Node000010_Node000011" class="edge">
<title>Node10&#45;&gt;Node11</title>
<g id="a_edge10_Node000010_Node000011"><a xlink:title=" ">
<path fill="none" stroke="#63b8ff" d="M271.48,-83.62C288.1,-83.62 306.01,-83.62 322.59,-83.62"/>
<polygon fill="#63b8ff" stroke="#63b8ff" points="271.78,-80.13 261.78,-83.62 271.78,-87.13 271.78,-80.13"/>
</a>
</g>
</g>
</g>
</svg>
