<?xml version="1.0" encoding="UTF-8" standalone="no"?>
<!DOCTYPE svg PUBLIC "-//W3C//DTD SVG 1.1//EN"
 "http://www.w3.org/Graphics/SVG/1.1/DTD/svg11.dtd">
<!-- Generated by graphviz version 8.1.0 (20230707.0739)
 -->
<!-- Title: engine::direct3d::DynamicBuffer&lt; T &gt; Pages: 1 -->
<svg width="181pt" height="251pt"
 viewBox="0.00 0.00 180.75 251.25" xmlns="http://www.w3.org/2000/svg" xmlns:xlink="http://www.w3.org/1999/xlink">
<g id="graph0" class="graph" transform="scale(1 1) rotate(0) translate(4 247.25)">
<title>engine::direct3d::DynamicBuffer&lt; T &gt;</title>
<!-- Node1 -->
<g id="Node000001" class="node">
<title>Node1</title>
<g id="a_Node000001"><a xlink:title="The dynamic buffer class.">
<polygon fill="#999999" stroke="#666666" points="149.12,-30.5 23.62,-30.5 23.62,0 149.12,0 149.12,-30.5"/>
<text text-anchor="start" x="31.62" y="-17" font-family="Helvetica,sans-Serif" font-size="10.00">engine::direct3d::Dynamic</text>
<text text-anchor="middle" x="86.38" y="-5.75" font-family="Helvetica,sans-Serif" font-size="10.00">Buffer&lt; T &gt;</text>
</a>
</g>
</g>
<!-- Node2 -->
<g id="Node000002" class="node">
<title>Node2</title>
<g id="a_Node000002"><a xlink:href="../../d9/db4/classengine_1_1direct3d_1_1_buffer_base.html" target="_top" xlink:title="Buffer Base class that contains the common functions for all the buffers.">
<polygon fill="white" stroke="#666666" points="143.12,-98 29.62,-98 29.62,-67.5 143.12,-67.5 143.12,-98"/>
<text text-anchor="start" x="37.62" y="-84.5" font-family="Helvetica,sans-Serif" font-size="10.00">engine::direct3d::Buffer</text>
<text text-anchor="middle" x="86.38" y="-73.25" font-family="Helvetica,sans-Serif" font-size="10.00">Base&lt; T &gt;</text>
</a>
</g>
</g>
<!-- Node2&#45;&gt;Node1 -->
<g id="edge1_Node000001_Node000002" class="edge">
<title>Node2&#45;&gt;Node1</title>
<g id="a_edge1_Node000001_Node000002"><a xlink:title=" ">
<path fill="none" stroke="#63b8ff" d="M86.38,-56.42C86.38,-47.72 86.38,-38.29 86.38,-30.75"/>
<polygon fill="#63b8ff" stroke="#63b8ff" points="82.88,-56.21 86.38,-66.21 89.88,-56.21 82.88,-56.21"/>
</a>
</g>
</g>
<!-- Node3 -->
<g id="Node000003" class="node">
<title>Node3</title>
<g id="a_Node000003"><a xlink:href="../../d6/de4/classengine_1_1direct3d_1_1_buffer_wrapper.html" target="_top" xlink:title="A wrapper for a D3D11 buffer.">
<polygon fill="white" stroke="#666666" points="143.12,-165.5 29.62,-165.5 29.62,-135 143.12,-135 143.12,-165.5"/>
<text text-anchor="start" x="37.62" y="-152" font-family="Helvetica,sans-Serif" font-size="10.00">engine::direct3d::Buffer</text>
<text text-anchor="middle" x="86.38" y="-140.75" font-family="Helvetica,sans-Serif" font-size="10.00">Wrapper</text>
</a>
</g>
</g>
<!-- Node3&#45;&gt;Node2 -->
<g id="edge2_Node000002_Node000003" class="edge">
<title>Node3&#45;&gt;Node2</title>
<g id="a_edge2_Node000002_Node000003"><a xlink:title=" ">
<path fill="none" stroke="#8b1a1a" d="M86.38,-123.92C86.38,-115.22 86.38,-105.79 86.38,-98.25"/>
<polygon fill="#8b1a1a" stroke="#8b1a1a" points="82.88,-123.71 86.38,-133.71 89.88,-123.71 82.88,-123.71"/>
</a>
</g>
</g>
<!-- Node4 -->
<g id="Node000004" class="node">
<title>Node4</title>
<g id="a_Node000004"><a xlink:href="../../df/d47/classengine_1_1direct3d_1_1d3d__resource__wrapper.html" target="_top" xlink:title=" ">
<polygon fill="white" stroke="#666666" points="172.75,-243.25 0,-243.25 0,-212.75 172.75,-212.75 172.75,-243.25"/>
<text text-anchor="start" x="8" y="-229.75" font-family="Helvetica,sans-Serif" font-size="10.00">engine::direct3d::d3d</text>
<text text-anchor="middle" x="86.38" y="-218.5" font-family="Helvetica,sans-Serif" font-size="10.00">_resource_wrapper&lt; ID3D11Buffer &gt;</text>
</a>
</g>
</g>
<!-- Node4&#45;&gt;Node3 -->
<g id="edge3_Node000003_Node000004" class="edge">
<title>Node4&#45;&gt;Node3</title>
<g id="a_edge3_Node000003_Node000004"><a xlink:title=" ">
<path fill="none" stroke="#9a32cd" stroke-dasharray="5,2" d="M86.38,-201.71C86.38,-189.78 86.38,-175.96 86.38,-165.81"/>
<polygon fill="#9a32cd" stroke="#9a32cd" points="82.88,-201.39 86.38,-211.39 89.88,-201.39 82.88,-201.39"/>
</a>
</g>
<text text-anchor="middle" x="102.12" y="-185.25" font-family="Helvetica,sans-Serif" font-size="10.00" fill="grey"> buffer_</text>
</g>
</g>
</svg>
