<?xml version="1.0" encoding="UTF-8" standalone="no"?>
<!DOCTYPE svg PUBLIC "-//W3C//DTD SVG 1.1//EN"
 "http://www.w3.org/Graphics/SVG/1.1/DTD/svg11.dtd">
<!-- Generated by graphviz version 9.0.0 (20230911.1827)
 -->
<!-- Title: engine/subsystems/render/detail/dissolution&#45;render&#45;system.hpp Pages: 1 -->
<svg width="1916pt" height="593pt"
 viewBox="0.00 0.00 1915.74 593.00" xmlns="http://www.w3.org/2000/svg" xmlns:xlink="http://www.w3.org/1999/xlink">
<g id="graph0" class="graph" transform="scale(1 1) rotate(0) translate(4 589)">
<title>engine/subsystems/render/detail/dissolution&#45;render&#45;system.hpp</title>
<!-- Node1 -->
<g id="Node000001" class="node">
<title>Node1</title>
<g id="a_Node000001"><a xlink:title=" ">
<polygon fill="#999999" stroke="#666666" points="1322.74,-585 1192.74,-585 1192.74,-543.25 1322.74,-543.25 1322.74,-585"/>
<text text-anchor="start" x="1200.74" y="-571.5" font-family="Helvetica,sans-Serif" font-size="10.00">engine/subsystems/render</text>
<text text-anchor="start" x="1200.74" y="-560.25" font-family="Helvetica,sans-Serif" font-size="10.00">/detail/dissolution&#45;render</text>
<text text-anchor="middle" x="1257.74" y="-549" font-family="Helvetica,sans-Serif" font-size="10.00">&#45;system.hpp</text>
</a>
</g>
</g>
<!-- Node2 -->
<g id="Node000002" class="node">
<title>Node2</title>
<g id="a_Node000002"><a xlink:href="../../d1/dae/renderer_8hpp.html" target="_top" xlink:title=" ">
<polygon fill="white" stroke="#666666" points="1031.11,-423.88 900.36,-423.88 900.36,-404.62 1031.11,-404.62 1031.11,-423.88"/>
<text text-anchor="middle" x="965.74" y="-410.38" font-family="Helvetica,sans-Serif" font-size="10.00">engine/render/renderer.hpp</text>
</a>
</g>
</g>
<!-- Node1&#45;&gt;Node2 -->
<g id="edge1_Node000001_Node000002" class="edge">
<title>Node1&#45;&gt;Node2</title>
<g id="a_edge1_Node000001_Node000002"><a xlink:title=" ">
<path fill="none" stroke="#63b8ff" d="M1183.33,-539.04C1158.77,-530.14 1131.64,-519.26 1107.74,-507.25 1056.82,-481.66 1001.53,-442.02 977.73,-424.32"/>
<polygon fill="#63b8ff" stroke="#63b8ff" points="1182.02,-542.29 1192.62,-542.35 1184.37,-535.7 1182.02,-542.29"/>
</a>
</g>
</g>
<!-- Node17 -->
<g id="Node000017" class="node">
<title>Node17</title>
<g id="a_Node000017"><a xlink:href="../../d1/d58/dissolution-render-system_8cpp.html" target="_top" xlink:title=" ">
<polygon fill="white" stroke="#666666" points="1907.74,-97 1777.74,-97 1777.74,-55.25 1907.74,-55.25 1907.74,-97"/>
<text text-anchor="start" x="1785.74" y="-83.5" font-family="Helvetica,sans-Serif" font-size="10.00">engine/subsystems/render</text>
<text text-anchor="start" x="1785.74" y="-72.25" font-family="Helvetica,sans-Serif" font-size="10.00">/detail/dissolution&#45;render</text>
<text text-anchor="middle" x="1842.74" y="-61" font-family="Helvetica,sans-Serif" font-size="10.00">&#45;system.cpp</text>
</a>
</g>
</g>
<!-- Node1&#45;&gt;Node17 -->
<g id="edge42_Node000001_Node000017" class="edge">
<title>Node1&#45;&gt;Node17</title>
<g id="a_edge42_Node000001_Node000017"><a xlink:title=" ">
<path fill="none" stroke="#63b8ff" d="M1334.38,-559.45C1491.14,-549.84 1833.74,-517.17 1833.74,-415.25 1833.74,-415.25 1833.74,-415.25 1833.74,-208.12 1833.74,-168.69 1837.85,-122.73 1840.51,-97.07"/>
<polygon fill="#63b8ff" stroke="#63b8ff" points="1334.26,-555.95 1324.48,-560.04 1334.67,-562.94 1334.26,-555.95"/>
</a>
</g>
</g>
<!-- Node29 -->
<g id="Node000029" class="node">
<title>Node29</title>
<g id="a_Node000029"><a xlink:href="../../df/d79/emissive-particle-render-system_8hpp.html" target="_top" xlink:title=" ">
<polygon fill="white" stroke="#666666" points="1246.74,-507.25 1116.74,-507.25 1116.74,-465.5 1246.74,-465.5 1246.74,-507.25"/>
<text text-anchor="start" x="1124.74" y="-493.75" font-family="Helvetica,sans-Serif" font-size="10.00">engine/subsystems/render</text>
<text text-anchor="start" x="1124.74" y="-482.5" font-family="Helvetica,sans-Serif" font-size="10.00">/detail/emissive&#45;particle</text>
<text text-anchor="middle" x="1181.74" y="-471.25" font-family="Helvetica,sans-Serif" font-size="10.00">&#45;render&#45;system.hpp</text>
</a>
</g>
</g>
<!-- Node1&#45;&gt;Node29 -->
<g id="edge43_Node000001_Node000029" class="edge">
<title>Node1&#45;&gt;Node29</title>
<g id="a_edge43_Node000001_Node000029"><a xlink:title=" ">
<path fill="none" stroke="#63b8ff" d="M1229.36,-534.84C1220.32,-525.84 1210.52,-516.06 1202.16,-507.73"/>
<polygon fill="#63b8ff" stroke="#63b8ff" points="1226.75,-537.18 1236.3,-541.76 1231.69,-532.22 1226.75,-537.18"/>
</a>
</g>
</g>
<!-- Node30 -->
<g id="Node000030" class="node">
<title>Node30</title>
<g id="a_Node000030"><a xlink:href="../../db/d67/model-system_8hpp.html" target="_top" xlink:title=" ">
<polygon fill="white" stroke="#666666" points="1407.74,-501.62 1277.74,-501.62 1277.74,-471.12 1407.74,-471.12 1407.74,-501.62"/>
<text text-anchor="start" x="1285.74" y="-488.12" font-family="Helvetica,sans-Serif" font-size="10.00">engine/subsystems/render</text>
<text text-anchor="middle" x="1342.74" y="-476.88" font-family="Helvetica,sans-Serif" font-size="10.00">/model&#45;system.hpp</text>
</a>
</g>
</g>
<!-- Node1&#45;&gt;Node30 -->
<g id="edge46_Node000001_Node000030" class="edge">
<title>Node1&#45;&gt;Node30</title>
<g id="a_edge46_Node000001_Node000030"><a xlink:title=" ">
<path fill="none" stroke="#63b8ff" d="M1289,-535.26C1301.67,-523.97 1315.79,-511.39 1326.37,-501.96"/>
<polygon fill="#63b8ff" stroke="#63b8ff" points="1286.78,-532.55 1281.65,-541.82 1291.44,-537.78 1286.78,-532.55"/>
</a>
</g>
</g>
<!-- Node3 -->
<g id="Node000003" class="node">
<title>Node3</title>
<g id="a_Node000003"><a xlink:href="../../d1/d47/controller_8cpp.html" target="_top" xlink:title=" ">
<polygon fill="white" stroke="#666666" points="496.86,-19.25 382.61,-19.25 382.61,0 496.86,0 496.86,-19.25"/>
<text text-anchor="middle" x="439.74" y="-5.75" font-family="Helvetica,sans-Serif" font-size="10.00">d3d_test/controller.cpp</text>
</a>
</g>
</g>
<!-- Node2&#45;&gt;Node3 -->
<g id="edge2_Node000002_Node000003" class="edge">
<title>Node2&#45;&gt;Node3</title>
<g id="a_edge2_Node000002_Node000003"><a xlink:title=" ">
<path fill="none" stroke="#63b8ff" d="M888.87,-412.3C722.88,-408.16 345.74,-386.66 345.74,-276.62 345.74,-276.62 345.74,-276.62 345.74,-147.25 345.74,-105.5 340.52,-89.26 364.74,-55.25 376.78,-38.34 397.41,-26.75 413.99,-19.63"/>
<polygon fill="#63b8ff" stroke="#63b8ff" points="888.38,-415.79 898.46,-412.52 888.54,-408.79 888.38,-415.79"/>
</a>
</g>
</g>
<!-- Node4 -->
<g id="Node000004" class="node">
<title>Node4</title>
<g id="a_Node000004"><a xlink:href="../../d5/d9b/scene_8hpp.html" target="_top" xlink:title=" ">
<polygon fill="white" stroke="#666666" points="1022.49,-357.38 908.99,-357.38 908.99,-338.12 1022.49,-338.12 1022.49,-357.38"/>
<text text-anchor="middle" x="965.74" y="-343.88" font-family="Helvetica,sans-Serif" font-size="10.00">engine/core/scene.hpp</text>
</a>
</g>
</g>
<!-- Node2&#45;&gt;Node4 -->
<g id="edge3_Node000002_Node000004" class="edge">
<title>Node2&#45;&gt;Node4</title>
<g id="a_edge3_Node000002_Node000004"><a xlink:title=" ">
<path fill="none" stroke="#63b8ff" d="M965.74,-392.77C965.74,-380.94 965.74,-366.66 965.74,-357.64"/>
<polygon fill="#63b8ff" stroke="#63b8ff" points="962.24,-392.77 965.74,-402.77 969.24,-392.77 962.24,-392.77"/>
</a>
</g>
</g>
<!-- Node24 -->
<g id="Node000024" class="node">
<title>Node24</title>
<g id="a_Node000024"><a xlink:href="../../db/df9/deferred-hdr-render-pipeline_8hpp.html" target="_top" xlink:title=" ">
<polygon fill="white" stroke="#666666" points="280.11,-163.5 149.36,-163.5 149.36,-133 280.11,-133 280.11,-163.5"/>
<text text-anchor="start" x="157.36" y="-150" font-family="Helvetica,sans-Serif" font-size="10.00">engine/direct3d11/deferred</text>
<text text-anchor="middle" x="214.74" y="-138.75" font-family="Helvetica,sans-Serif" font-size="10.00">&#45;hdr&#45;render&#45;pipeline.hpp</text>
</a>
</g>
</g>
<!-- Node2&#45;&gt;Node24 -->
<g id="edge40_Node000002_Node000024" class="edge">
<title>Node2&#45;&gt;Node24</title>
<g id="a_edge40_Node000002_Node000024"><a xlink:title=" ">
<path fill="none" stroke="#63b8ff" d="M889.03,-411.23C730.47,-406.47 377.53,-392.65 331.74,-363 257.87,-315.18 226.8,-203.96 217.74,-163.93"/>
<polygon fill="#63b8ff" stroke="#63b8ff" points="888.5,-414.71 898.59,-411.51 888.7,-407.72 888.5,-414.71"/>
</a>
</g>
</g>
<!-- Node26 -->
<g id="Node000026" class="node">
<title>Node26</title>
<g id="a_Node000026"><a xlink:href="../../d6/d54/renderer_8cpp.html" target="_top" xlink:title=" ">
<polygon fill="white" stroke="#666666" points="652.11,-285.25 521.36,-285.25 521.36,-266 652.11,-266 652.11,-285.25"/>
<text text-anchor="middle" x="586.74" y="-271.75" font-family="Helvetica,sans-Serif" font-size="10.00">engine/render/renderer.cpp</text>
</a>
</g>
</g>
<!-- Node2&#45;&gt;Node26 -->
<g id="edge41_Node000002_Node000026" class="edge">
<title>Node2&#45;&gt;Node26</title>
<g id="a_edge41_Node000002_Node000026"><a xlink:title=" ">
<path fill="none" stroke="#63b8ff" d="M930.1,-400.4C853.96,-372.96 677.06,-309.19 611.64,-285.6"/>
<polygon fill="#63b8ff" stroke="#63b8ff" points="928.56,-403.57 939.15,-403.67 930.93,-396.98 928.56,-403.57"/>
</a>
</g>
</g>
<!-- Node5 -->
<g id="Node000005" class="node">
<title>Node5</title>
<g id="a_Node000005"><a xlink:href="../../de/d46/engine_8hpp.html" target="_top" xlink:title=" ">
<polygon fill="white" stroke="#666666" points="937.61,-157.88 821.86,-157.88 821.86,-138.62 937.61,-138.62 937.61,-157.88"/>
<text text-anchor="middle" x="879.74" y="-144.38" font-family="Helvetica,sans-Serif" font-size="10.00">engine/core/engine.hpp</text>
</a>
</g>
</g>
<!-- Node4&#45;&gt;Node5 -->
<g id="edge4_Node000004_Node000005" class="edge">
<title>Node4&#45;&gt;Node5</title>
<g id="a_edge4_Node000004_Node000005"><a xlink:title=" ">
<path fill="none" stroke="#63b8ff" d="M957.27,-327.32C939.07,-285.51 896.78,-188.39 883.68,-158.3"/>
<polygon fill="#63b8ff" stroke="#63b8ff" points="954.01,-328.59 961.21,-336.36 960.43,-325.8 954.01,-328.59"/>
</a>
</g>
</g>
<!-- Node16 -->
<g id="Node000016" class="node">
<title>Node16</title>
<g id="a_Node000016"><a xlink:href="../../d8/d30/decal-render-system_8cpp.html" target="_top" xlink:title=" ">
<polygon fill="white" stroke="#666666" points="1447.24,-91.38 1296.24,-91.38 1296.24,-60.88 1447.24,-60.88 1447.24,-91.38"/>
<text text-anchor="start" x="1304.24" y="-77.88" font-family="Helvetica,sans-Serif" font-size="10.00">engine/subsystems/render</text>
<text text-anchor="middle" x="1371.74" y="-66.62" font-family="Helvetica,sans-Serif" font-size="10.00">/detail/decal&#45;render&#45;system.cpp</text>
</a>
</g>
</g>
<!-- Node4&#45;&gt;Node16 -->
<g id="edge35_Node000004_Node000016" class="edge">
<title>Node4&#45;&gt;Node16</title>
<g id="a_edge35_Node000004_Node000016"><a xlink:title=" ">
<path fill="none" stroke="#63b8ff" d="M974.91,-327.7C985.39,-307.51 1004.17,-275.72 1027.74,-254.75 1120.12,-172.53 1257.42,-116.74 1327.33,-91.86"/>
<polygon fill="#63b8ff" stroke="#63b8ff" points="971.86,-325.96 970.52,-336.47 978.12,-329.09 971.86,-325.96"/>
</a>
</g>
</g>
<!-- Node4&#45;&gt;Node17 -->
<g id="edge36_Node000004_Node000017" class="edge">
<title>Node4&#45;&gt;Node17</title>
<g id="a_edge36_Node000004_Node000017"><a xlink:title=" ">
<path fill="none" stroke="#63b8ff" d="M985.61,-330.65C997.08,-321.08 1011.6,-308.5 1023.74,-296.5 1041.37,-279.07 1039.38,-267.34 1060.74,-254.75 1338.49,-91.1 1455.66,-173.88 1768.74,-97 1771.58,-96.3 1774.48,-95.58 1777.41,-94.84"/>
<polygon fill="#63b8ff" stroke="#63b8ff" points="983.47,-327.88 977.97,-336.94 987.92,-333.28 983.47,-327.88"/>
</a>
</g>
</g>
<!-- Node21 -->
<g id="Node000021" class="node">
<title>Node21</title>
<g id="a_Node000021"><a xlink:href="../../d3/dfe/particle-render-system_8cpp.html" target="_top" xlink:title=" ">
<polygon fill="white" stroke="#666666" points="1277.74,-97 1147.74,-97 1147.74,-55.25 1277.74,-55.25 1277.74,-97"/>
<text text-anchor="start" x="1155.74" y="-83.5" font-family="Helvetica,sans-Serif" font-size="10.00">engine/subsystems/render</text>
<text text-anchor="start" x="1155.74" y="-72.25" font-family="Helvetica,sans-Serif" font-size="10.00">/detail/particle&#45;render</text>
<text text-anchor="middle" x="1212.74" y="-61" font-family="Helvetica,sans-Serif" font-size="10.00">&#45;system.cpp</text>
</a>
</g>
</g>
<!-- Node4&#45;&gt;Node21 -->
<g id="edge39_Node000004_Node000021" class="edge">
<title>Node4&#45;&gt;Node21</title>
<g id="a_edge39_Node000004_Node000021"><a xlink:title=" ">
<path fill="none" stroke="#63b8ff" d="M967.33,-326.36C969.68,-306.65 975.49,-276.66 989.74,-254.75 1036.96,-182.14 1123.83,-125.8 1174.07,-97.41"/>
<polygon fill="#63b8ff" stroke="#63b8ff" points="963.86,-325.83 966.37,-336.12 970.83,-326.51 963.86,-325.83"/>
</a>
</g>
</g>
<!-- Node22 -->
<g id="Node000022" class="node">
<title>Node22</title>
<g id="a_Node000022"><a xlink:href="../../d9/d06/render-pipeline_8hpp.html" target="_top" xlink:title=" ">
<polygon fill="white" stroke="#666666" points="769.74,-290.88 669.74,-290.88 669.74,-260.38 769.74,-260.38 769.74,-290.88"/>
<text text-anchor="start" x="677.74" y="-277.38" font-family="Helvetica,sans-Serif" font-size="10.00">engine/core/layers</text>
<text text-anchor="middle" x="719.74" y="-266.12" font-family="Helvetica,sans-Serif" font-size="10.00">/render&#45;pipeline.hpp</text>
</a>
</g>
</g>
<!-- Node4&#45;&gt;Node22 -->
<g id="edge26_Node000004_Node000022" class="edge">
<title>Node4&#45;&gt;Node22</title>
<g id="a_edge26_Node000004_Node000022"><a xlink:title=" ">
<path fill="none" stroke="#63b8ff" d="M918.62,-334.96C880.67,-325.25 826.03,-310.81 778.74,-296.5 773.36,-294.87 767.73,-293.09 762.17,-291.27"/>
<polygon fill="#63b8ff" stroke="#63b8ff" points="917.33,-338.24 927.88,-337.32 919.05,-331.46 917.33,-338.24"/>
</a>
</g>
</g>
<!-- Node25 -->
<g id="Node000025" class="node">
<title>Node25</title>
<g id="a_Node000025"><a xlink:href="../../d4/d7c/deferred-resolve_8cpp.html" target="_top" xlink:title=" ">
<polygon fill="white" stroke="#666666" points="900.11,-290.88 787.36,-290.88 787.36,-260.38 900.11,-260.38 900.11,-290.88"/>
<text text-anchor="start" x="795.36" y="-277.38" font-family="Helvetica,sans-Serif" font-size="10.00">engine/render/deferred</text>
<text text-anchor="middle" x="843.74" y="-266.12" font-family="Helvetica,sans-Serif" font-size="10.00">&#45;resolve.cpp</text>
</a>
</g>
</g>
<!-- Node4&#45;&gt;Node25 -->
<g id="edge33_Node000004_Node000025" class="edge">
<title>Node4&#45;&gt;Node25</title>
<g id="a_edge33_Node000004_Node000025"><a xlink:title=" ">
<path fill="none" stroke="#63b8ff" d="M940.54,-332.27C919.69,-320.28 890.19,-303.33 869.25,-291.29"/>
<polygon fill="#63b8ff" stroke="#63b8ff" points="938.56,-335.17 948.97,-337.11 942.05,-329.1 938.56,-335.17"/>
</a>
</g>
</g>
<!-- Node4&#45;&gt;Node26 -->
<g id="edge34_Node000004_Node000026" class="edge">
<title>Node4&#45;&gt;Node26</title>
<g id="a_edge34_Node000004_Node000026"><a xlink:title=" ">
<path fill="none" stroke="#63b8ff" d="M897.44,-337.48C835.38,-328.58 741.47,-313.95 660.74,-296.5 646.56,-293.44 631.05,-289.38 617.9,-285.73"/>
<polygon fill="#63b8ff" stroke="#63b8ff" points="896.75,-340.91 907.15,-338.86 897.74,-333.98 896.75,-340.91"/>
</a>
</g>
</g>
<!-- Node27 -->
<g id="Node000027" class="node">
<title>Node27</title>
<g id="a_Node000027"><a xlink:href="../../d8/dcb/emissive-render-system_8cpp.html" target="_top" xlink:title=" ">
<polygon fill="white" stroke="#666666" points="1199.74,-296.5 1069.74,-296.5 1069.74,-254.75 1199.74,-254.75 1199.74,-296.5"/>
<text text-anchor="start" x="1077.74" y="-283" font-family="Helvetica,sans-Serif" font-size="10.00">engine/subsystems/render</text>
<text text-anchor="start" x="1077.74" y="-271.75" font-family="Helvetica,sans-Serif" font-size="10.00">/detail/emissive&#45;render</text>
<text text-anchor="middle" x="1134.74" y="-260.5" font-family="Helvetica,sans-Serif" font-size="10.00">&#45;system.cpp</text>
</a>
</g>
</g>
<!-- Node4&#45;&gt;Node27 -->
<g id="edge37_Node000004_Node000027" class="edge">
<title>Node4&#45;&gt;Node27</title>
<g id="a_edge37_Node000004_Node000027"><a xlink:title=" ">
<path fill="none" stroke="#63b8ff" d="M997.8,-333.45C1022.63,-323.14 1057.44,-308.7 1085.76,-296.95"/>
<polygon fill="#63b8ff" stroke="#63b8ff" points="996.78,-330.08 988.88,-337.15 999.46,-336.55 996.78,-330.08"/>
</a>
</g>
</g>
<!-- Node28 -->
<g id="Node000028" class="node">
<title>Node28</title>
<g id="a_Node000028"><a xlink:href="../../d1/d62/opaque-render-system_8cpp.html" target="_top" xlink:title=" ">
<polygon fill="white" stroke="#666666" points="1377.36,-290.88 1218.11,-290.88 1218.11,-260.38 1377.36,-260.38 1377.36,-290.88"/>
<text text-anchor="start" x="1226.11" y="-277.38" font-family="Helvetica,sans-Serif" font-size="10.00">engine/subsystems/render</text>
<text text-anchor="middle" x="1297.74" y="-266.12" font-family="Helvetica,sans-Serif" font-size="10.00">/detail/opaque&#45;render&#45;system.cpp</text>
</a>
</g>
</g>
<!-- Node4&#45;&gt;Node28 -->
<g id="edge38_Node000004_Node000028" class="edge">
<title>Node4&#45;&gt;Node28</title>
<g id="a_edge38_Node000004_Node000028"><a xlink:title=" ">
<path fill="none" stroke="#63b8ff" d="M1021.62,-335.45C1070.91,-325.43 1144.66,-310.28 1208.74,-296.5 1216.48,-294.84 1224.59,-293.06 1232.63,-291.29"/>
<polygon fill="#63b8ff" stroke="#63b8ff" points="1021.15,-331.98 1012.05,-337.4 1022.55,-338.84 1021.15,-331.98"/>
</a>
</g>
</g>
<!-- Node6 -->
<g id="Node000006" class="node">
<title>Node6</title>
<g id="a_Node000006"><a xlink:href="../../d0/d86/camera-movement_8hpp.html" target="_top" xlink:title=" ">
<polygon fill="white" stroke="#666666" points="1129.49,-85.75 973.99,-85.75 973.99,-66.5 1129.49,-66.5 1129.49,-85.75"/>
<text text-anchor="middle" x="1051.74" y="-72.25" font-family="Helvetica,sans-Serif" font-size="10.00">d3d_test/camera&#45;movement.hpp</text>
</a>
</g>
</g>
<!-- Node5&#45;&gt;Node6 -->
<g id="edge5_Node000005_Node000006" class="edge">
<title>Node5&#45;&gt;Node6</title>
<g id="a_edge5_Node000005_Node000006"><a xlink:title=" ">
<path fill="none" stroke="#63b8ff" d="M912.29,-133.98C946.56,-120.01 999.6,-98.38 1029.42,-86.23"/>
<polygon fill="#63b8ff" stroke="#63b8ff" points="911.21,-130.64 903.27,-137.65 913.85,-137.12 911.21,-130.64"/>
</a>
</g>
</g>
<!-- Node8 -->
<g id="Node000008" class="node">
<title>Node8</title>
<g id="a_Node000008"><a xlink:href="../../dc/dfb/controller_8hpp.html" target="_top" xlink:title=" ">
<polygon fill="white" stroke="#666666" points="130.86,-85.75 16.61,-85.75 16.61,-66.5 130.86,-66.5 130.86,-85.75"/>
<text text-anchor="middle" x="73.74" y="-72.25" font-family="Helvetica,sans-Serif" font-size="10.00">d3d_test/controller.hpp</text>
</a>
</g>
</g>
<!-- Node5&#45;&gt;Node8 -->
<g id="edge8_Node000005_Node000008" class="edge">
<title>Node5&#45;&gt;Node8</title>
<g id="a_edge8_Node000005_Node000008"><a xlink:title=" ">
<path fill="none" stroke="#63b8ff" d="M810.24,-147.6C678.53,-147.15 383.98,-140.79 140.74,-97 126.89,-94.51 111.83,-90.19 99.51,-86.22"/>
<polygon fill="#63b8ff" stroke="#63b8ff" points="810.19,-151.1 820.2,-147.62 810.21,-144.1 810.19,-151.1"/>
</a>
</g>
</g>
<!-- Node9 -->
<g id="Node000009" class="node">
<title>Node9</title>
<g id="a_Node000009"><a xlink:href="../../d9/d0f/main_8cc.html" target="_top" xlink:title=" ">
<polygon fill="white" stroke="#666666" points="118.86,-19.25 28.61,-19.25 28.61,0 118.86,0 118.86,-19.25"/>
<text text-anchor="middle" x="73.74" y="-5.75" font-family="Helvetica,sans-Serif" font-size="10.00">d3d_test/main.cc</text>
</a>
</g>
</g>
<!-- Node5&#45;&gt;Node9 -->
<g id="edge11_Node000005_Node000009" class="edge">
<title>Node5&#45;&gt;Node9</title>
<g id="a_edge11_Node000005_Node000009"><a xlink:title=" ">
<path fill="none" stroke="#63b8ff" d="M810.25,-143.94C689.52,-137.62 446.12,-122.16 364.74,-97 327.92,-85.62 324.89,-68.59 288.74,-55.25 232.23,-34.4 163.58,-22.29 119.29,-16.07"/>
<polygon fill="#63b8ff" stroke="#63b8ff" points="809.87,-147.43 820.03,-144.45 810.23,-140.44 809.87,-147.43"/>
</a>
</g>
</g>
<!-- Node10 -->
<g id="Node000010" class="node">
<title>Node10</title>
<g id="a_Node000010"><a xlink:href="../../da/df5/object-editor_8hpp.html" target="_top" xlink:title=" ">
<polygon fill="white" stroke="#666666" points="651.61,-85.75 523.86,-85.75 523.86,-66.5 651.61,-66.5 651.61,-85.75"/>
<text text-anchor="middle" x="587.74" y="-72.25" font-family="Helvetica,sans-Serif" font-size="10.00">d3d_test/object&#45;editor.hpp</text>
</a>
</g>
</g>
<!-- Node5&#45;&gt;Node10 -->
<g id="edge12_Node000005_Node000010" class="edge">
<title>Node5&#45;&gt;Node10</title>
<g id="a_edge12_Node000005_Node000010"><a xlink:title=" ">
<path fill="none" stroke="#63b8ff" d="M826.93,-135.76C782.48,-125.94 717.3,-111.18 660.74,-97 647.36,-93.65 632.68,-89.7 620.01,-86.21"/>
<polygon fill="#63b8ff" stroke="#63b8ff" points="826.04,-139.15 836.56,-137.88 827.55,-132.31 826.04,-139.15"/>
</a>
</g>
</g>
<!-- Node13 -->
<g id="Node000013" class="node">
<title>Node13</title>
<g id="a_Node000013"><a xlink:href="../../d9/d55/scene-viewer_8hpp.html" target="_top" xlink:title=" ">
<polygon fill="white" stroke="#666666" points="505.86,-85.75 373.61,-85.75 373.61,-66.5 505.86,-66.5 505.86,-85.75"/>
<text text-anchor="middle" x="439.74" y="-72.25" font-family="Helvetica,sans-Serif" font-size="10.00">d3d_test/scene&#45;viewer.hpp</text>
</a>
</g>
</g>
<!-- Node5&#45;&gt;Node13 -->
<g id="edge16_Node000005_Node000013" class="edge">
<title>Node5&#45;&gt;Node13</title>
<g id="a_edge16_Node000005_Node000013"><a xlink:title=" ">
<path fill="none" stroke="#63b8ff" d="M810.09,-140.22C736.33,-132.19 616.69,-117.45 514.74,-97 500.08,-94.06 484.03,-89.93 470.55,-86.2"/>
<polygon fill="#63b8ff" stroke="#63b8ff" points="809.71,-143.7 820.02,-141.29 810.46,-136.74 809.71,-143.7"/>
</a>
</g>
</g>
<!-- Node14 -->
<g id="Node000014" class="node">
<title>Node14</title>
<g id="a_Node000014"><a xlink:href="../../da/d5c/engine_8cpp.html" target="_top" xlink:title=" ">
<polygon fill="white" stroke="#666666" points="785.61,-85.75 669.86,-85.75 669.86,-66.5 785.61,-66.5 785.61,-85.75"/>
<text text-anchor="middle" x="727.74" y="-72.25" font-family="Helvetica,sans-Serif" font-size="10.00">engine/core/engine.cpp</text>
</a>
</g>
</g>
<!-- Node5&#45;&gt;Node14 -->
<g id="edge18_Node000005_Node000014" class="edge">
<title>Node5&#45;&gt;Node14</title>
<g id="a_edge18_Node000005_Node000014"><a xlink:title=" ">
<path fill="none" stroke="#63b8ff" d="M849.75,-133.42C819.35,-119.39 773.18,-98.09 747.22,-86.11"/>
<polygon fill="#63b8ff" stroke="#63b8ff" points="848.26,-136.58 858.8,-137.59 851.19,-130.22 848.26,-136.58"/>
</a>
</g>
</g>
<!-- Node15 -->
<g id="Node000015" class="node">
<title>Node15</title>
<g id="a_Node000015"><a xlink:href="../../d1/da2/deferred-hdr-render-pipeline_8cpp.html" target="_top" xlink:title=" ">
<polygon fill="white" stroke="#666666" points="280.11,-91.38 149.36,-91.38 149.36,-60.88 280.11,-60.88 280.11,-91.38"/>
<text text-anchor="start" x="157.36" y="-77.88" font-family="Helvetica,sans-Serif" font-size="10.00">engine/direct3d11/deferred</text>
<text text-anchor="middle" x="214.74" y="-66.62" font-family="Helvetica,sans-Serif" font-size="10.00">&#45;hdr&#45;render&#45;pipeline.cpp</text>
</a>
</g>
</g>
<!-- Node5&#45;&gt;Node15 -->
<g id="edge19_Node000005_Node000015" class="edge">
<title>Node5&#45;&gt;Node15</title>
<g id="a_edge19_Node000005_Node000015"><a xlink:title=" ">
<path fill="none" stroke="#63b8ff" d="M810.27,-144.91C700.09,-140.39 478.78,-128 293.74,-97 285.51,-95.62 276.88,-93.82 268.46,-91.87"/>
<polygon fill="#63b8ff" stroke="#63b8ff" points="809.9,-148.4 820.03,-145.3 810.18,-141.4 809.9,-148.4"/>
</a>
</g>
</g>
<!-- Node5&#45;&gt;Node16 -->
<g id="edge20_Node000005_Node000016" class="edge">
<title>Node5&#45;&gt;Node16</title>
<g id="a_edge20_Node000005_Node000016"><a xlink:title=" ">
<path fill="none" stroke="#63b8ff" d="M949.07,-140.97C1030.34,-133.08 1168.92,-117.99 1286.74,-97 1295.09,-95.51 1303.86,-93.72 1312.46,-91.84"/>
<polygon fill="#63b8ff" stroke="#63b8ff" points="949.12,-137.45 939.5,-141.89 949.79,-144.41 949.12,-137.45"/>
</a>
</g>
</g>
<!-- Node5&#45;&gt;Node17 -->
<g id="edge21_Node000005_Node000017" class="edge">
<title>Node5&#45;&gt;Node17</title>
<g id="a_edge21_Node000005_Node000017"><a xlink:title=" ">
<path fill="none" stroke="#63b8ff" d="M949.33,-145.17C1130.08,-139.47 1611.27,-122.32 1768.74,-97 1771.63,-96.54 1774.57,-96 1777.53,-95.42"/>
<polygon fill="#63b8ff" stroke="#63b8ff" points="949.26,-141.67 939.38,-145.48 949.48,-148.67 949.26,-141.67"/>
</a>
</g>
</g>
<!-- Node18 -->
<g id="Node000018" class="node">
<title>Node18</title>
<g id="a_Node000018"><a xlink:href="../../d2/d11/emissive-particle-render-system_8cpp.html" target="_top" xlink:title=" ">
<polygon fill="white" stroke="#666666" points="1595.74,-97 1465.74,-97 1465.74,-55.25 1595.74,-55.25 1595.74,-97"/>
<text text-anchor="start" x="1473.74" y="-83.5" font-family="Helvetica,sans-Serif" font-size="10.00">engine/subsystems/render</text>
<text text-anchor="start" x="1473.74" y="-72.25" font-family="Helvetica,sans-Serif" font-size="10.00">/detail/emissive&#45;particle</text>
<text text-anchor="middle" x="1530.74" y="-61" font-family="Helvetica,sans-Serif" font-size="10.00">&#45;render&#45;system.cpp</text>
</a>
</g>
</g>
<!-- Node5&#45;&gt;Node18 -->
<g id="edge22_Node000005_Node000018" class="edge">
<title>Node5&#45;&gt;Node18</title>
<g id="a_edge22_Node000005_Node000018"><a xlink:title=" ">
<path fill="none" stroke="#63b8ff" d="M949.39,-145.13C1058.35,-140.92 1275.45,-128.98 1456.74,-97 1459.62,-96.49 1462.55,-95.92 1465.51,-95.31"/>
<polygon fill="#63b8ff" stroke="#63b8ff" points="949.29,-141.63 939.43,-145.5 949.55,-148.62 949.29,-141.63"/>
</a>
</g>
</g>
<!-- Node19 -->
<g id="Node000019" class="node">
<title>Node19</title>
<g id="a_Node000019"><a xlink:href="../../df/d58/grass-render-system_8cpp.html" target="_top" xlink:title=" ">
<polygon fill="white" stroke="#666666" points="955.61,-91.38 803.86,-91.38 803.86,-60.88 955.61,-60.88 955.61,-91.38"/>
<text text-anchor="start" x="811.86" y="-77.88" font-family="Helvetica,sans-Serif" font-size="10.00">engine/subsystems/render</text>
<text text-anchor="middle" x="879.74" y="-66.62" font-family="Helvetica,sans-Serif" font-size="10.00">/detail/grass&#45;render&#45;system.cpp</text>
</a>
</g>
</g>
<!-- Node5&#45;&gt;Node19 -->
<g id="edge23_Node000005_Node000019" class="edge">
<title>Node5&#45;&gt;Node19</title>
<g id="a_edge23_Node000005_Node000019"><a xlink:title=" ">
<path fill="none" stroke="#63b8ff" d="M879.74,-127.04C879.74,-115.78 879.74,-102.01 879.74,-91.79"/>
<polygon fill="#63b8ff" stroke="#63b8ff" points="876.24,-126.86 879.74,-136.86 883.24,-126.86 876.24,-126.86"/>
</a>
</g>
</g>
<!-- Node20 -->
<g id="Node000020" class="node">
<title>Node20</title>
<g id="a_Node000020"><a xlink:href="../../d8/d9c/light-render-system_8cpp.html" target="_top" xlink:title=" ">
<polygon fill="white" stroke="#666666" points="1759.61,-91.38 1613.86,-91.38 1613.86,-60.88 1759.61,-60.88 1759.61,-91.38"/>
<text text-anchor="start" x="1621.86" y="-77.88" font-family="Helvetica,sans-Serif" font-size="10.00">engine/subsystems/render</text>
<text text-anchor="middle" x="1686.74" y="-66.62" font-family="Helvetica,sans-Serif" font-size="10.00">/detail/light&#45;render&#45;system.cpp</text>
</a>
</g>
</g>
<!-- Node5&#45;&gt;Node20 -->
<g id="edge24_Node000005_Node000020" class="edge">
<title>Node5&#45;&gt;Node20</title>
<g id="a_edge24_Node000005_Node000020"><a xlink:title=" ">
<path fill="none" stroke="#63b8ff" d="M949.2,-146.32C1078.81,-143.73 1366,-133.94 1604.74,-97 1613.42,-95.66 1622.54,-93.85 1631.41,-91.87"/>
<polygon fill="#63b8ff" stroke="#63b8ff" points="949.35,-142.82 939.42,-146.51 949.48,-149.82 949.35,-142.82"/>
</a>
</g>
</g>
<!-- Node5&#45;&gt;Node21 -->
<g id="edge25_Node000005_Node000021" class="edge">
<title>Node5&#45;&gt;Node21</title>
<g id="a_edge25_Node000005_Node000021"><a xlink:title=" ">
<path fill="none" stroke="#63b8ff" d="M936.6,-135.97C941.72,-134.96 946.82,-133.96 951.74,-133 1034.81,-116.78 1056.26,-115.99 1138.74,-97 1141.59,-96.34 1144.5,-95.65 1147.43,-94.94"/>
<polygon fill="#63b8ff" stroke="#63b8ff" points="936.06,-132.51 926.92,-137.88 937.41,-139.38 936.06,-132.51"/>
</a>
</g>
</g>
<!-- Node6&#45;&gt;Node3 -->
<g id="edge7_Node000006_Node000003" class="edge">
<title>Node6&#45;&gt;Node3</title>
<g id="a_edge7_Node000006_Node000003"><a xlink:title=" ">
<path fill="none" stroke="#63b8ff" d="M1006.4,-63.46C993.06,-60.38 978.38,-57.34 964.74,-55.25 764.66,-24.63 712.14,-39.46 510.74,-19.25 506.29,-18.8 501.69,-18.31 497.07,-17.8"/>
<polygon fill="#63b8ff" stroke="#63b8ff" points="1005.23,-66.78 1015.77,-65.68 1006.85,-59.97 1005.23,-66.78"/>
</a>
</g>
</g>
<!-- Node7 -->
<g id="Node000007" class="node">
<title>Node7</title>
<g id="a_Node000007"><a xlink:href="../../d5/dbb/camera-movement_8cpp.html" target="_top" xlink:title=" ">
<polygon fill="white" stroke="#666666" points="1129.49,-19.25 973.99,-19.25 973.99,0 1129.49,0 1129.49,-19.25"/>
<text text-anchor="middle" x="1051.74" y="-5.75" font-family="Helvetica,sans-Serif" font-size="10.00">d3d_test/camera&#45;movement.cpp</text>
</a>
</g>
</g>
<!-- Node6&#45;&gt;Node7 -->
<g id="edge6_Node000006_Node000007" class="edge">
<title>Node6&#45;&gt;Node7</title>
<g id="a_edge6_Node000006_Node000007"><a xlink:title=" ">
<path fill="none" stroke="#63b8ff" d="M1051.74,-54.65C1051.74,-42.82 1051.74,-28.54 1051.74,-19.52"/>
<polygon fill="#63b8ff" stroke="#63b8ff" points="1048.24,-54.64 1051.74,-64.64 1055.24,-54.64 1048.24,-54.64"/>
</a>
</g>
</g>
<!-- Node8&#45;&gt;Node3 -->
<g id="edge9_Node000008_Node000003" class="edge">
<title>Node8&#45;&gt;Node3</title>
<g id="a_edge9_Node000008_Node000003"><a xlink:title=" ">
<path fill="none" stroke="#63b8ff" d="M112.14,-62.73C121.44,-60.01 131.39,-57.32 140.74,-55.25 223.87,-36.81 321.73,-23.82 382.26,-16.78"/>
<polygon fill="#63b8ff" stroke="#63b8ff" points="111.23,-59.35 102.67,-65.59 113.25,-66.05 111.23,-59.35"/>
</a>
</g>
</g>
<!-- Node8&#45;&gt;Node9 -->
<g id="edge10_Node000008_Node000009" class="edge">
<title>Node8&#45;&gt;Node9</title>
<g id="a_edge10_Node000008_Node000009"><a xlink:title=" ">
<path fill="none" stroke="#63b8ff" d="M73.74,-54.65C73.74,-42.82 73.74,-28.54 73.74,-19.52"/>
<polygon fill="#63b8ff" stroke="#63b8ff" points="70.24,-54.64 73.74,-64.64 77.24,-54.64 70.24,-54.64"/>
</a>
</g>
</g>
<!-- Node10&#45;&gt;Node3 -->
<g id="edge13_Node000010_Node000003" class="edge">
<title>Node10&#45;&gt;Node3</title>
<g id="a_edge13_Node000010_Node000003"><a xlink:title=" ">
<path fill="none" stroke="#63b8ff" d="M556.49,-61.51C527.6,-48.92 485.48,-30.56 460.52,-19.68"/>
<polygon fill="#63b8ff" stroke="#63b8ff" points="554.89,-64.63 565.46,-65.42 557.69,-58.21 554.89,-64.63"/>
</a>
</g>
</g>
<!-- Node11 -->
<g id="Node000011" class="node">
<title>Node11</title>
<g id="a_Node000011"><a xlink:href="../../d4/d94/object-editor_8cpp.html" target="_top" xlink:title=" ">
<polygon fill="white" stroke="#666666" points="647.61,-19.25 519.86,-19.25 519.86,0 647.61,0 647.61,-19.25"/>
<text text-anchor="middle" x="583.74" y="-5.75" font-family="Helvetica,sans-Serif" font-size="10.00">d3d_test/object&#45;editor.cpp</text>
</a>
</g>
</g>
<!-- Node10&#45;&gt;Node11 -->
<g id="edge14_Node000010_Node000011" class="edge">
<title>Node10&#45;&gt;Node11</title>
<g id="a_edge14_Node000010_Node000011"><a xlink:title=" ">
<path fill="none" stroke="#63b8ff" d="M586.49,-55.02C585.75,-43.12 584.85,-28.63 584.29,-19.52"/>
<polygon fill="#63b8ff" stroke="#63b8ff" points="582.97,-54.88 587.09,-64.65 589.96,-54.45 582.97,-54.88"/>
</a>
</g>
</g>
<!-- Node12 -->
<g id="Node000012" class="node">
<title>Node12</title>
<g id="a_Node000012"><a xlink:href="../../d0/d38/scene-viewer_8cpp.html" target="_top" xlink:title=" ">
<polygon fill="white" stroke="#666666" points="797.86,-19.25 665.61,-19.25 665.61,0 797.86,0 797.86,-19.25"/>
<text text-anchor="middle" x="731.74" y="-5.75" font-family="Helvetica,sans-Serif" font-size="10.00">d3d_test/scene&#45;viewer.cpp</text>
</a>
</g>
</g>
<!-- Node10&#45;&gt;Node12 -->
<g id="edge15_Node000010_Node000012" class="edge">
<title>Node10&#45;&gt;Node12</title>
<g id="a_edge15_Node000010_Node000012"><a xlink:title=" ">
<path fill="none" stroke="#63b8ff" d="M618.52,-61.34C646.61,-48.75 687.33,-30.51 711.51,-19.68"/>
<polygon fill="#63b8ff" stroke="#63b8ff" points="617.14,-58.12 609.44,-65.4 620,-64.51 617.14,-58.12"/>
</a>
</g>
</g>
<!-- Node13&#45;&gt;Node3 -->
<g id="edge17_Node000013_Node000003" class="edge">
<title>Node13&#45;&gt;Node3</title>
<g id="a_edge17_Node000013_Node000003"><a xlink:title=" ">
<path fill="none" stroke="#63b8ff" d="M439.74,-54.65C439.74,-42.82 439.74,-28.54 439.74,-19.52"/>
<polygon fill="#63b8ff" stroke="#63b8ff" points="436.24,-54.64 439.74,-64.64 443.24,-54.64 436.24,-54.64"/>
</a>
</g>
</g>
<!-- Node23 -->
<g id="Node000023" class="node">
<title>Node23</title>
<g id="a_Node000023"><a xlink:href="../../d4/d87/layers_8hpp.html" target="_top" xlink:title=" ">
<polygon fill="white" stroke="#666666" points="880.11,-218.75 767.36,-218.75 767.36,-199.5 880.11,-199.5 880.11,-218.75"/>
<text text-anchor="middle" x="823.74" y="-205.25" font-family="Helvetica,sans-Serif" font-size="10.00">engine/core/layers.hpp</text>
</a>
</g>
</g>
<!-- Node22&#45;&gt;Node23 -->
<g id="edge27_Node000022_Node000023" class="edge">
<title>Node22&#45;&gt;Node23</title>
<g id="a_edge27_Node000022_Node000023"><a xlink:title=" ">
<path fill="none" stroke="#63b8ff" d="M753.1,-253.93C772.03,-242.2 794.74,-228.11 809.21,-219.13"/>
<polygon fill="#63b8ff" stroke="#63b8ff" points="751.28,-250.95 744.62,-259.19 754.97,-256.9 751.28,-250.95"/>
</a>
</g>
</g>
<!-- Node22&#45;&gt;Node24 -->
<g id="edge29_Node000022_Node000024" class="edge">
<title>Node22&#45;&gt;Node24</title>
<g id="a_edge29_Node000022_Node000024"><a xlink:title=" ">
<path fill="none" stroke="#63b8ff" d="M666.76,-256.52C664.73,-255.91 662.72,-255.32 660.74,-254.75 527.05,-216.51 368.06,-181.32 280.6,-162.83"/>
<polygon fill="#63b8ff" stroke="#63b8ff" points="665.63,-259.83 676.22,-259.47 667.72,-253.15 665.63,-259.83"/>
</a>
</g>
</g>
<!-- Node23&#45;&gt;Node5 -->
<g id="edge28_Node000023_Node000005" class="edge">
<title>Node23&#45;&gt;Node5</title>
<g id="a_edge28_Node000023_Node000005"><a xlink:title=" ">
<path fill="none" stroke="#63b8ff" d="M840.04,-190.98C850.22,-180.29 862.9,-166.95 871.15,-158.28"/>
<polygon fill="#63b8ff" stroke="#63b8ff" points="837.64,-188.43 833.29,-198.09 842.71,-193.25 837.64,-188.43"/>
</a>
</g>
</g>
<!-- Node24&#45;&gt;Node8 -->
<g id="edge30_Node000024_Node000008" class="edge">
<title>Node24&#45;&gt;Node8</title>
<g id="a_edge30_Node000024_Node000008"><a xlink:title=" ">
<path fill="none" stroke="#63b8ff" d="M175.16,-127.57C147.93,-114.02 113.02,-96.66 92.06,-86.24"/>
<polygon fill="#63b8ff" stroke="#63b8ff" points="173.31,-130.56 183.82,-131.88 176.43,-124.29 173.31,-130.56"/>
</a>
</g>
</g>
<!-- Node24&#45;&gt;Node9 -->
<g id="edge31_Node000024_Node000009" class="edge">
<title>Node24&#45;&gt;Node9</title>
<g id="a_edge31_Node000024_Node000009"><a xlink:title=" ">
<path fill="none" stroke="#63b8ff" d="M137.63,-138.48C85.74,-130.81 23.95,-117.62 7.74,-97 -3.73,-82.41 -0.96,-71.64 7.74,-55.25 16.62,-38.51 34.9,-26.91 49.97,-19.74"/>
<polygon fill="#63b8ff" stroke="#63b8ff" points="136.98,-141.93 147.37,-139.87 137.97,-135 136.98,-141.93"/>
</a>
</g>
</g>
<!-- Node24&#45;&gt;Node15 -->
<g id="edge32_Node000024_Node000015" class="edge">
<title>Node24&#45;&gt;Node15</title>
<g id="a_edge32_Node000024_Node000015"><a xlink:title=" ">
<path fill="none" stroke="#63b8ff" d="M214.74,-121.27C214.74,-111.26 214.74,-100.19 214.74,-91.64"/>
<polygon fill="#63b8ff" stroke="#63b8ff" points="211.24,-121.21 214.74,-131.21 218.24,-121.21 211.24,-121.21"/>
</a>
</g>
</g>
<!-- Node29&#45;&gt;Node2 -->
<g id="edge44_Node000029_Node000002" class="edge">
<title>Node29&#45;&gt;Node2</title>
<g id="a_edge44_Node000029_Node000002"><a xlink:title=" ">
<path fill="none" stroke="#63b8ff" d="M1108.34,-461.55C1068.91,-448.74 1022.59,-433.71 993.7,-424.33"/>
<polygon fill="#63b8ff" stroke="#63b8ff" points="1107.23,-464.87 1117.82,-464.62 1109.39,-458.21 1107.23,-464.87"/>
</a>
</g>
</g>
<!-- Node29&#45;&gt;Node18 -->
<g id="edge45_Node000029_Node000018" class="edge">
<title>Node29&#45;&gt;Node18</title>
<g id="a_edge45_Node000029_Node000018"><a xlink:title=" ">
<path fill="none" stroke="#63b8ff" d="M1193.22,-454.71C1207.64,-420.22 1235.6,-364.8 1276.74,-332.5 1317.2,-300.74 1345.88,-327.76 1386.74,-296.5 1458.38,-241.69 1505.34,-140.43 1522.94,-97.36"/>
<polygon fill="#63b8ff" stroke="#63b8ff" points="1190.08,-453.14 1189.58,-463.72 1196.57,-455.76 1190.08,-453.14"/>
</a>
</g>
</g>
<!-- Node30&#45;&gt;Node2 -->
<g id="edge47_Node000030_Node000002" class="edge">
<title>Node30&#45;&gt;Node2</title>
<g id="a_edge47_Node000030_Node000002"><a xlink:title=" ">
<path fill="none" stroke="#63b8ff" d="M1268.96,-468.24C1264.49,-467.29 1260.06,-466.37 1255.74,-465.5 1175.58,-449.41 1082.34,-433.8 1023.68,-424.36"/>
<polygon fill="#63b8ff" stroke="#63b8ff" points="1268.1,-471.63 1278.62,-470.33 1269.58,-464.79 1268.1,-471.63"/>
</a>
</g>
</g>
<!-- Node30&#45;&gt;Node16 -->
<g id="edge49_Node000030_Node000016" class="edge">
<title>Node30&#45;&gt;Node16</title>
<g id="a_edge49_Node000030_Node000016"><a xlink:title=" ">
<path fill="none" stroke="#63b8ff" d="M1343.02,-459.4C1344.43,-440.95 1348.89,-416.47 1361.74,-399 1380.84,-373.02 1405.63,-388.98 1424.74,-363 1448.02,-331.33 1443.74,-315.93 1443.74,-276.62 1443.74,-276.62 1443.74,-276.62 1443.74,-208.12 1443.74,-160.89 1407.35,-114.61 1386.31,-91.8"/>
<polygon fill="#63b8ff" stroke="#63b8ff" points="1339.53,-459.1 1342.54,-469.26 1346.52,-459.44 1339.53,-459.1"/>
</a>
</g>
</g>
<!-- Node30&#45;&gt;Node17 -->
<g id="edge50_Node000030_Node000017" class="edge">
<title>Node30&#45;&gt;Node17</title>
<g id="a_edge50_Node000030_Node000017"><a xlink:title=" ">
<path fill="none" stroke="#63b8ff" d="M1419.38,-479.07C1509.29,-470.69 1652.14,-454.03 1699.74,-429.5 1744.37,-406.5 1778.74,-398.96 1778.74,-348.75 1778.74,-348.75 1778.74,-348.75 1778.74,-208.12 1778.74,-165.35 1806.63,-121.96 1825.59,-97.41"/>
<polygon fill="#63b8ff" stroke="#63b8ff" points="1419.29,-475.56 1409.65,-479.96 1419.93,-482.53 1419.29,-475.56"/>
</a>
</g>
</g>
<!-- Node30&#45;&gt;Node18 -->
<g id="edge51_Node000030_Node000018" class="edge">
<title>Node30&#45;&gt;Node18</title>
<g id="a_edge51_Node000030_Node000018"><a xlink:title=" ">
<path fill="none" stroke="#63b8ff" d="M1418.92,-480.91C1498.84,-474.64 1617.29,-460.33 1649.74,-429.5 1676.46,-404.1 1668.74,-385.62 1668.74,-348.75 1668.74,-348.75 1668.74,-348.75 1668.74,-208.12 1668.74,-156.26 1616.83,-118.74 1576.69,-97.48"/>
<polygon fill="#63b8ff" stroke="#63b8ff" points="1419.13,-477.38 1409.42,-481.63 1419.66,-484.36 1419.13,-477.38"/>
</a>
</g>
</g>
<!-- Node30&#45;&gt;Node20 -->
<g id="edge53_Node000030_Node000020" class="edge">
<title>Node30&#45;&gt;Node20</title>
<g id="a_edge53_Node000030_Node000020"><a xlink:title=" ">
<path fill="none" stroke="#63b8ff" d="M1419.31,-480.85C1504.27,-474.41 1634.47,-459.82 1672.74,-429.5 1703.26,-405.32 1706.74,-387.69 1706.74,-348.75 1706.74,-348.75 1706.74,-348.75 1706.74,-208.12 1706.74,-165.33 1696.18,-115.57 1690.41,-91.55"/>
<polygon fill="#63b8ff" stroke="#63b8ff" points="1419.12,-477.36 1409.4,-481.58 1419.63,-484.34 1419.12,-477.36"/>
</a>
</g>
</g>
<!-- Node30&#45;&gt;Node27 -->
<g id="edge52_Node000030_Node000027" class="edge">
<title>Node30&#45;&gt;Node27</title>
<g id="a_edge52_Node000030_Node000027"><a xlink:title=" ">
<path fill="none" stroke="#63b8ff" d="M1319.5,-462.76C1309.13,-452.63 1296.78,-440.5 1285.74,-429.5 1238.17,-382.11 1182.84,-325.78 1154.18,-296.52"/>
<polygon fill="#63b8ff" stroke="#63b8ff" points="1316.99,-465.2 1326.59,-469.68 1321.87,-460.19 1316.99,-465.2"/>
</a>
</g>
</g>
<!-- Node30&#45;&gt;Node28 -->
<g id="edge54_Node000030_Node000028" class="edge">
<title>Node30&#45;&gt;Node28</title>
<g id="a_edge54_Node000030_Node000028"><a xlink:title=" ">
<path fill="none" stroke="#63b8ff" d="M1325.35,-461.73C1309.13,-438.11 1286.1,-400.07 1276.74,-363 1270.39,-337.86 1281.42,-308.52 1289.75,-291.32"/>
<polygon fill="#63b8ff" stroke="#63b8ff" points="1322.33,-463.52 1330.95,-469.69 1328.05,-459.5 1322.33,-463.52"/>
</a>
</g>
</g>
<!-- Node31 -->
<g id="Node000031" class="node">
<title>Node31</title>
<g id="a_Node000031"><a xlink:href="../../d6/dab/model-loader_8cpp.html" target="_top" xlink:title=" ">
<polygon fill="white" stroke="#666666" points="1492.61,-429.5 1370.86,-429.5 1370.86,-399 1492.61,-399 1492.61,-429.5"/>
<text text-anchor="start" x="1378.86" y="-416" font-family="Helvetica,sans-Serif" font-size="10.00">engine/subsystems/core</text>
<text text-anchor="middle" x="1431.74" y="-404.75" font-family="Helvetica,sans-Serif" font-size="10.00">/model&#45;loader.cpp</text>
</a>
</g>
</g>
<!-- Node30&#45;&gt;Node31 -->
<g id="edge48_Node000030_Node000031" class="edge">
<title>Node30&#45;&gt;Node31</title>
<g id="a_edge48_Node000030_Node000031"><a xlink:title=" ">
<path fill="none" stroke="#63b8ff" d="M1369.95,-463.93C1384.01,-452.85 1400.8,-439.63 1413.32,-429.76"/>
<polygon fill="#63b8ff" stroke="#63b8ff" points="1368.06,-460.97 1362.37,-469.91 1372.39,-466.47 1368.06,-460.97"/>
</a>
</g>
</g>
<!-- Node32 -->
<g id="Node000032" class="node">
<title>Node32</title>
<g id="a_Node000032"><a xlink:href="../../d3/d4f/model-system_8cpp.html" target="_top" xlink:title=" ">
<polygon fill="white" stroke="#666666" points="1640.74,-429.5 1510.74,-429.5 1510.74,-399 1640.74,-399 1640.74,-429.5"/>
<text text-anchor="start" x="1518.74" y="-416" font-family="Helvetica,sans-Serif" font-size="10.00">engine/subsystems/render</text>
<text text-anchor="middle" x="1575.74" y="-404.75" font-family="Helvetica,sans-Serif" font-size="10.00">/model&#45;system.cpp</text>
</a>
</g>
</g>
<!-- Node30&#45;&gt;Node32 -->
<g id="edge55_Node000030_Node000032" class="edge">
<title>Node30&#45;&gt;Node32</title>
<g id="a_edge55_Node000030_Node000032"><a xlink:title=" ">
<path fill="none" stroke="#63b8ff" d="M1402.17,-467.49C1440.83,-455.85 1490.62,-440.87 1526.96,-429.93"/>
<polygon fill="#63b8ff" stroke="#63b8ff" points="1401.6,-464 1393.03,-470.24 1403.62,-470.71 1401.6,-464"/>
</a>
</g>
</g>
<!-- Node33 -->
<g id="Node000033" class="node">
<title>Node33</title>
<g id="a_Node000033"><a xlink:href="../../d6/de4/subsystems_2render_2render_8hpp.html" target="_top" xlink:title=" ">
<polygon fill="white" stroke="#666666" points="1415.74,-363 1285.74,-363 1285.74,-332.5 1415.74,-332.5 1415.74,-363"/>
<text text-anchor="start" x="1293.74" y="-349.5" font-family="Helvetica,sans-Serif" font-size="10.00">engine/subsystems/render</text>
<text text-anchor="middle" x="1350.74" y="-338.25" font-family="Helvetica,sans-Serif" font-size="10.00">/render.hpp</text>
</a>
</g>
</g>
<!-- Node30&#45;&gt;Node33 -->
<g id="edge56_Node000030_Node000033" class="edge">
<title>Node30&#45;&gt;Node33</title>
<g id="a_edge56_Node000030_Node000033"><a xlink:title=" ">
<path fill="none" stroke="#63b8ff" d="M1333.66,-459.75C1328.75,-442.51 1324.49,-419.3 1328.74,-399 1331.39,-386.32 1337.43,-372.93 1342.52,-363.17"/>
<polygon fill="#63b8ff" stroke="#63b8ff" points="1330.28,-460.68 1336.61,-469.18 1336.96,-458.59 1330.28,-460.68"/>
</a>
</g>
</g>
<!-- Node33&#45;&gt;Node5 -->
<g id="edge57_Node000033_Node000005" class="edge">
<title>Node33&#45;&gt;Node5</title>
<g id="a_edge57_Node000033_Node000005"><a xlink:title=" ">
<path fill="none" stroke="#63b8ff" d="M1371.9,-323.53C1387.42,-303.59 1403.18,-274.97 1386.74,-254.75 1330.65,-185.79 1058.69,-160.41 937.83,-152.44"/>
<polygon fill="#63b8ff" stroke="#63b8ff" points="1369.3,-321.17 1365.63,-331.11 1374.7,-325.63 1369.3,-321.17"/>
</a>
</g>
</g>
</g>
</svg>
