<?xml version="1.0" encoding="UTF-8" standalone="no"?>
<!DOCTYPE svg PUBLIC "-//W3C//DTD SVG 1.1//EN"
 "http://www.w3.org/Graphics/SVG/1.1/DTD/svg11.dtd">
<!-- Generated by graphviz version 8.1.0 (20230707.0739)
 -->
<!-- Title: engine/subsystems/render/detail/dissolution&#45;render&#45;system.hpp Pages: 1 -->
<svg width="1916pt" height="593pt"
 viewBox="0.00 0.00 1915.74 593.00" xmlns="http://www.w3.org/2000/svg" xmlns:xlink="http://www.w3.org/1999/xlink">
<g id="graph0" class="graph" transform="scale(1 1) rotate(0) translate(4 589)">
<title>engine/subsystems/render/detail/dissolution&#45;render&#45;system.hpp</title>
<!-- Node1 -->
<g id="Node000001" class="node">
<title>Node1</title>
<g id="a_Node000001"><a xlink:title=" ">
<polygon fill="#999999" stroke="#666666" points="1322.74,-585 1192.74,-585 1192.74,-543.25 1322.74,-543.25 1322.74,-585"/>
<text text-anchor="start" x="1200.74" y="-571.5" font-family="Helvetica,sans-Serif" font-size="10.00">engine/subsystems/render</text>
<text text-anchor="start" x="1200.74" y="-560.25" font-family="Helvetica,sans-Serif" font-size="10.00">/detail/dissolution&#45;render</text>
<text text-anchor="middle" x="1257.74" y="-549" font-family="Helvetica,sans-Serif" font-size="10.00">&#45;system.hpp</text>
</a>
</g>
</g>
<!-- Node2 -->
<g id="Node000002" class="node">
<title>Node2</title>
<g id="a_Node000002"><a xlink:href="../../d1/dae/renderer_8hpp.html" target="_top" xlink:title=" ">
<polygon fill="white" stroke="#666666" points="1031.11,-423.88 900.36,-423.88 900.36,-404.62 1031.11,-404.62 1031.11,-423.88"/>
<text text-anchor="middle" x="965.74" y="-410.38" font-family="Helvetica,sans-Serif" font-size="10.00">engine/render/renderer.hpp</text>
</a>
</g>
</g>
<!-- Node1&#45;&gt;Node2 -->
<g id="edge1_Node000001_Node000002" class="edge">
<title>Node1&#45;&gt;Node2</title>
<g id="a_edge1_Node000001_Node000002"><a xlink:title=" ">
<path fill="none" stroke="#63b8ff" d="M1183.99,-539.28C1159.26,-530.34 1131.85,-519.37 1107.74,-507.25 1056.82,-481.66 1001.53,-442.02 977.73,-424.32"/>
<polygon fill="#63b8ff" stroke="#63b8ff" points="1182.45,-542.8 1193.04,-542.86 1184.79,-536.21 1182.45,-542.8"/>
</a>
</g>
</g>
<!-- Node17 -->
<g id="Node000017" class="node">
<title>Node17</title>
<g id="a_Node000017"><a xlink:href="../../d1/d58/dissolution-render-system_8cpp.html" target="_top" xlink:title=" ">
<polygon fill="white" stroke="#666666" points="1907.74,-97 1777.74,-97 1777.74,-55.25 1907.74,-55.25 1907.74,-97"/>
<text text-anchor="start" x="1785.74" y="-83.5" font-family="Helvetica,sans-Serif" font-size="10.00">engine/subsystems/render</text>
<text text-anchor="start" x="1785.74" y="-72.25" font-family="Helvetica,sans-Serif" font-size="10.00">/detail/dissolution&#45;render</text>
<text text-anchor="middle" x="1842.74" y="-61" font-family="Helvetica,sans-Serif" font-size="10.00">&#45;system.cpp</text>
</a>
</g>
</g>
<!-- Node1&#45;&gt;Node17 -->
<g id="edge42_Node000001_Node000017" class="edge">
<title>Node1&#45;&gt;Node17</title>
<g id="a_edge42_Node000001_Node000017"><a xlink:title=" ">
<path fill="none" stroke="#63b8ff" d="M1333.91,-559.48C1490.45,-549.9 1833.74,-517.27 1833.74,-415.25 1833.74,-415.25 1833.74,-415.25 1833.74,-208.12 1833.74,-168.69 1837.85,-122.73 1840.51,-97.07"/>
<polygon fill="#63b8ff" stroke="#63b8ff" points="1333.75,-556.04 1323.97,-560.13 1334.16,-563.03 1333.75,-556.04"/>
</a>
</g>
</g>
<!-- Node29 -->
<g id="Node000029" class="node">
<title>Node29</title>
<g id="a_Node000029"><a xlink:href="../../df/d79/emissive-particle-render-system_8hpp.html" target="_top" xlink:title=" ">
<polygon fill="white" stroke="#666666" points="1246.74,-507.25 1116.74,-507.25 1116.74,-465.5 1246.74,-465.5 1246.74,-507.25"/>
<text text-anchor="start" x="1124.74" y="-493.75" font-family="Helvetica,sans-Serif" font-size="10.00">engine/subsystems/render</text>
<text text-anchor="start" x="1124.74" y="-482.5" font-family="Helvetica,sans-Serif" font-size="10.00">/detail/emissive&#45;particle</text>
<text text-anchor="middle" x="1181.74" y="-471.25" font-family="Helvetica,sans-Serif" font-size="10.00">&#45;render&#45;system.hpp</text>
</a>
</g>
</g>
<!-- Node1&#45;&gt;Node29 -->
<g id="edge43_Node000001_Node000029" class="edge">
<title>Node1&#45;&gt;Node29</title>
<g id="a_edge43_Node000001_Node000029"><a xlink:title=" ">
<path fill="none" stroke="#63b8ff" d="M1229.63,-535.11C1220.52,-526.03 1210.6,-516.14 1202.16,-507.73"/>
<polygon fill="#63b8ff" stroke="#63b8ff" points="1226.82,-537.24 1236.37,-541.83 1231.76,-532.29 1226.82,-537.24"/>
</a>
</g>
</g>
<!-- Node30 -->
<g id="Node000030" class="node">
<title>Node30</title>
<g id="a_Node000030"><a xlink:href="../../db/d67/model-system_8hpp.html" target="_top" xlink:title=" ">
<polygon fill="white" stroke="#666666" points="1407.74,-501.62 1277.74,-501.62 1277.74,-471.12 1407.74,-471.12 1407.74,-501.62"/>
<text text-anchor="start" x="1285.74" y="-488.12" font-family="Helvetica,sans-Serif" font-size="10.00">engine/subsystems/render</text>
<text text-anchor="middle" x="1342.74" y="-476.88" font-family="Helvetica,sans-Serif" font-size="10.00">/model&#45;system.hpp</text>
</a>
</g>
</g>
<!-- Node1&#45;&gt;Node30 -->
<g id="edge46_Node000001_Node000030" class="edge">
<title>Node1&#45;&gt;Node30</title>
<g id="a_edge46_Node000001_Node000030"><a xlink:title=" ">
<path fill="none" stroke="#63b8ff" d="M1288.63,-535.59C1301.4,-524.21 1315.68,-511.48 1326.37,-501.96"/>
<polygon fill="#63b8ff" stroke="#63b8ff" points="1286.65,-532.56 1281.52,-541.83 1291.31,-537.79 1286.65,-532.56"/>
</a>
</g>
</g>
<!-- Node3 -->
<g id="Node000003" class="node">
<title>Node3</title>
<g id="a_Node000003"><a xlink:href="../../d1/d47/controller_8cpp.html" target="_top" xlink:title=" ">
<polygon fill="white" stroke="#666666" points="496.86,-19.25 382.61,-19.25 382.61,0 496.86,0 496.86,-19.25"/>
<text text-anchor="middle" x="439.74" y="-5.75" font-family="Helvetica,sans-Serif" font-size="10.00">d3d_test/controller.cpp</text>
</a>
</g>
</g>
<!-- Node2&#45;&gt;Node3 -->
<g id="edge2_Node000002_Node000003" class="edge">
<title>Node2&#45;&gt;Node3</title>
<g id="a_edge2_Node000002_Node000003"><a xlink:title=" ">
<path fill="none" stroke="#63b8ff" d="M889.37,-412.31C723.63,-408.21 345.74,-386.77 345.74,-276.62 345.74,-276.62 345.74,-276.62 345.74,-147.25 345.74,-105.5 340.52,-89.26 364.74,-55.25 376.78,-38.34 397.41,-26.75 413.99,-19.63"/>
<polygon fill="#63b8ff" stroke="#63b8ff" points="888.89,-415.82 898.97,-412.56 889.06,-408.83 888.89,-415.82"/>
</a>
</g>
</g>
<!-- Node4 -->
<g id="Node000004" class="node">
<title>Node4</title>
<g id="a_Node000004"><a xlink:href="../../d5/d9b/scene_8hpp.html" target="_top" xlink:title=" ">
<polygon fill="white" stroke="#666666" points="1022.49,-357.38 908.99,-357.38 908.99,-338.12 1022.49,-338.12 1022.49,-357.38"/>
<text text-anchor="middle" x="965.74" y="-343.88" font-family="Helvetica,sans-Serif" font-size="10.00">engine/core/scene.hpp</text>
</a>
</g>
</g>
<!-- Node2&#45;&gt;Node4 -->
<g id="edge3_Node000002_Node000004" class="edge">
<title>Node2&#45;&gt;Node4</title>
<g id="a_edge3_Node000002_Node000004"><a xlink:title=" ">
<path fill="none" stroke="#63b8ff" d="M965.74,-393.52C965.74,-381.55 965.74,-366.85 965.74,-357.64"/>
<polygon fill="#63b8ff" stroke="#63b8ff" points="962.24,-393.28 965.74,-403.28 969.24,-393.28 962.24,-393.28"/>
</a>
</g>
</g>
<!-- Node24 -->
<g id="Node000024" class="node">
<title>Node24</title>
<g id="a_Node000024"><a xlink:href="../../db/df9/deferred-hdr-render-pipeline_8hpp.html" target="_top" xlink:title=" ">
<polygon fill="white" stroke="#666666" points="280.11,-163.5 149.36,-163.5 149.36,-133 280.11,-133 280.11,-163.5"/>
<text text-anchor="start" x="157.36" y="-150" font-family="Helvetica,sans-Serif" font-size="10.00">engine/direct3d11/deferred</text>
<text text-anchor="middle" x="214.74" y="-138.75" font-family="Helvetica,sans-Serif" font-size="10.00">&#45;hdr&#45;render&#45;pipeline.hpp</text>
</a>
</g>
</g>
<!-- Node2&#45;&gt;Node24 -->
<g id="edge40_Node000002_Node000024" class="edge">
<title>Node2&#45;&gt;Node24</title>
<g id="a_edge40_Node000002_Node000024"><a xlink:title=" ">
<path fill="none" stroke="#63b8ff" d="M889.51,-411.24C731.18,-406.49 377.58,-392.68 331.74,-363 257.87,-315.18 226.8,-203.96 217.74,-163.93"/>
<polygon fill="#63b8ff" stroke="#63b8ff" points="889.01,-414.76 899.11,-411.56 889.22,-407.76 889.01,-414.76"/>
</a>
</g>
</g>
<!-- Node26 -->
<g id="Node000026" class="node">
<title>Node26</title>
<g id="a_Node000026"><a xlink:href="../../d6/d54/renderer_8cpp.html" target="_top" xlink:title=" ">
<polygon fill="white" stroke="#666666" points="652.11,-285.25 521.36,-285.25 521.36,-266 652.11,-266 652.11,-285.25"/>
<text text-anchor="middle" x="586.74" y="-271.75" font-family="Helvetica,sans-Serif" font-size="10.00">engine/render/renderer.cpp</text>
</a>
</g>
</g>
<!-- Node2&#45;&gt;Node26 -->
<g id="edge41_Node000002_Node000026" class="edge">
<title>Node2&#45;&gt;Node26</title>
<g id="a_edge41_Node000002_Node000026"><a xlink:title=" ">
<path fill="none" stroke="#63b8ff" d="M930.57,-400.57C854.69,-373.22 677.2,-309.23 611.64,-285.6"/>
<polygon fill="#63b8ff" stroke="#63b8ff" points="928.98,-404.08 939.58,-404.18 931.36,-397.5 928.98,-404.08"/>
</a>
</g>
</g>
<!-- Node5 -->
<g id="Node000005" class="node">
<title>Node5</title>
<g id="a_Node000005"><a xlink:href="../../de/d46/engine_8hpp.html" target="_top" xlink:title=" ">
<polygon fill="white" stroke="#666666" points="937.61,-157.88 821.86,-157.88 821.86,-138.62 937.61,-138.62 937.61,-157.88"/>
<text text-anchor="middle" x="879.74" y="-144.38" font-family="Helvetica,sans-Serif" font-size="10.00">engine/core/engine.hpp</text>
</a>
</g>
</g>
<!-- Node4&#45;&gt;Node5 -->
<g id="edge4_Node000004_Node000005" class="edge">
<title>Node4&#45;&gt;Node5</title>
<g id="a_edge4_Node000004_Node000005"><a xlink:title=" ">
<path fill="none" stroke="#63b8ff" d="M957.51,-327.85C939.43,-286.34 896.84,-188.52 883.68,-158.3"/>
<polygon fill="#63b8ff" stroke="#63b8ff" points="954.62,-328.98 961.82,-336.75 961.04,-326.18 954.62,-328.98"/>
</a>
</g>
</g>
<!-- Node16 -->
<g id="Node000016" class="node">
<title>Node16</title>
<g id="a_Node000016"><a xlink:href="../../d8/d30/decal-render-system_8cpp.html" target="_top" xlink:title=" ">
<polygon fill="white" stroke="#666666" points="1447.24,-91.38 1296.24,-91.38 1296.24,-60.88 1447.24,-60.88 1447.24,-91.38"/>
<text text-anchor="start" x="1304.24" y="-77.88" font-family="Helvetica,sans-Serif" font-size="10.00">engine/subsystems/render</text>
<text text-anchor="middle" x="1371.74" y="-66.62" font-family="Helvetica,sans-Serif" font-size="10.00">/detail/decal&#45;render&#45;system.cpp</text>
</a>
</g>
</g>
<!-- Node4&#45;&gt;Node16 -->
<g id="edge35_Node000004_Node000016" class="edge">
<title>Node4&#45;&gt;Node16</title>
<g id="a_edge35_Node000004_Node000016"><a xlink:title=" ">
<path fill="none" stroke="#63b8ff" d="M974.62,-328.26C985.04,-308.1 1003.95,-275.91 1027.74,-254.75 1120.12,-172.53 1257.42,-116.74 1327.33,-91.86"/>
<polygon fill="#63b8ff" stroke="#63b8ff" points="971.18,-326.31 969.84,-336.82 977.44,-329.44 971.18,-326.31"/>
</a>
</g>
</g>
<!-- Node4&#45;&gt;Node17 -->
<g id="edge36_Node000004_Node000017" class="edge">
<title>Node4&#45;&gt;Node17</title>
<g id="a_edge36_Node000004_Node000017"><a xlink:title=" ">
<path fill="none" stroke="#63b8ff" d="M985.27,-330.93C996.79,-321.33 1011.48,-308.62 1023.74,-296.5 1041.37,-279.07 1039.38,-267.34 1060.74,-254.75 1338.49,-91.1 1455.66,-173.88 1768.74,-97 1771.58,-96.3 1774.48,-95.58 1777.41,-94.84"/>
<polygon fill="#63b8ff" stroke="#63b8ff" points="983.3,-328.84 977.81,-337.9 987.75,-334.24 983.3,-328.84"/>
</a>
</g>
</g>
<!-- Node21 -->
<g id="Node000021" class="node">
<title>Node21</title>
<g id="a_Node000021"><a xlink:href="../../d3/dfe/particle-render-system_8cpp.html" target="_top" xlink:title=" ">
<polygon fill="white" stroke="#666666" points="1277.74,-97 1147.74,-97 1147.74,-55.25 1277.74,-55.25 1277.74,-97"/>
<text text-anchor="start" x="1155.74" y="-83.5" font-family="Helvetica,sans-Serif" font-size="10.00">engine/subsystems/render</text>
<text text-anchor="start" x="1155.74" y="-72.25" font-family="Helvetica,sans-Serif" font-size="10.00">/detail/particle&#45;render</text>
<text text-anchor="middle" x="1212.74" y="-61" font-family="Helvetica,sans-Serif" font-size="10.00">&#45;system.cpp</text>
</a>
</g>
</g>
<!-- Node4&#45;&gt;Node21 -->
<g id="edge39_Node000004_Node000021" class="edge">
<title>Node4&#45;&gt;Node21</title>
<g id="a_edge39_Node000004_Node000021"><a xlink:title=" ">
<path fill="none" stroke="#63b8ff" d="M967.26,-326.92C969.57,-307.23 975.35,-276.87 989.74,-254.75 1036.96,-182.14 1123.83,-125.8 1174.07,-97.41"/>
<polygon fill="#63b8ff" stroke="#63b8ff" points="963.71,-326.34 966.23,-336.63 970.67,-327.01 963.71,-326.34"/>
</a>
</g>
</g>
<!-- Node22 -->
<g id="Node000022" class="node">
<title>Node22</title>
<g id="a_Node000022"><a xlink:href="../../d9/d06/render-pipeline_8hpp.html" target="_top" xlink:title=" ">
<polygon fill="white" stroke="#666666" points="769.74,-290.88 669.74,-290.88 669.74,-260.38 769.74,-260.38 769.74,-290.88"/>
<text text-anchor="start" x="677.74" y="-277.38" font-family="Helvetica,sans-Serif" font-size="10.00">engine/core/layers</text>
<text text-anchor="middle" x="719.74" y="-266.12" font-family="Helvetica,sans-Serif" font-size="10.00">/render&#45;pipeline.hpp</text>
</a>
</g>
</g>
<!-- Node4&#45;&gt;Node22 -->
<g id="edge26_Node000004_Node000022" class="edge">
<title>Node4&#45;&gt;Node22</title>
<g id="a_edge26_Node000004_Node000022"><a xlink:title=" ">
<path fill="none" stroke="#63b8ff" d="M919.11,-335.08C881.14,-325.37 826.24,-310.87 778.74,-296.5 773.36,-294.87 767.73,-293.09 762.17,-291.27"/>
<polygon fill="#63b8ff" stroke="#63b8ff" points="917.79,-338.61 928.35,-337.69 919.52,-331.83 917.79,-338.61"/>
</a>
</g>
</g>
<!-- Node25 -->
<g id="Node000025" class="node">
<title>Node25</title>
<g id="a_Node000025"><a xlink:href="../../d4/d7c/deferred-resolve_8cpp.html" target="_top" xlink:title=" ">
<polygon fill="white" stroke="#666666" points="900.11,-290.88 787.36,-290.88 787.36,-260.38 900.11,-260.38 900.11,-290.88"/>
<text text-anchor="start" x="795.36" y="-277.38" font-family="Helvetica,sans-Serif" font-size="10.00">engine/render/deferred</text>
<text text-anchor="middle" x="843.74" y="-266.12" font-family="Helvetica,sans-Serif" font-size="10.00">&#45;resolve.cpp</text>
</a>
</g>
</g>
<!-- Node4&#45;&gt;Node25 -->
<g id="edge33_Node000004_Node000025" class="edge">
<title>Node4&#45;&gt;Node25</title>
<g id="a_edge33_Node000004_Node000025"><a xlink:title=" ">
<path fill="none" stroke="#63b8ff" d="M940.82,-332.43C919.96,-320.44 890.29,-303.38 869.25,-291.29"/>
<polygon fill="#63b8ff" stroke="#63b8ff" points="938.87,-335.92 949.29,-337.87 942.36,-329.85 938.87,-335.92"/>
</a>
</g>
</g>
<!-- Node4&#45;&gt;Node26 -->
<g id="edge34_Node000004_Node000026" class="edge">
<title>Node4&#45;&gt;Node26</title>
<g id="a_edge34_Node000004_Node000026"><a xlink:title=" ">
<path fill="none" stroke="#63b8ff" d="M897.82,-337.53C835.77,-328.64 741.64,-313.98 660.74,-296.5 646.56,-293.44 631.05,-289.38 617.9,-285.73"/>
<polygon fill="#63b8ff" stroke="#63b8ff" points="897.25,-341.13 907.64,-339.07 898.24,-334.2 897.25,-341.13"/>
</a>
</g>
</g>
<!-- Node27 -->
<g id="Node000027" class="node">
<title>Node27</title>
<g id="a_Node000027"><a xlink:href="../../d8/dcb/emissive-render-system_8cpp.html" target="_top" xlink:title=" ">
<polygon fill="white" stroke="#666666" points="1199.74,-296.5 1069.74,-296.5 1069.74,-254.75 1199.74,-254.75 1199.74,-296.5"/>
<text text-anchor="start" x="1077.74" y="-283" font-family="Helvetica,sans-Serif" font-size="10.00">engine/subsystems/render</text>
<text text-anchor="start" x="1077.74" y="-271.75" font-family="Helvetica,sans-Serif" font-size="10.00">/detail/emissive&#45;render</text>
<text text-anchor="middle" x="1134.74" y="-260.5" font-family="Helvetica,sans-Serif" font-size="10.00">&#45;system.cpp</text>
</a>
</g>
</g>
<!-- Node4&#45;&gt;Node27 -->
<g id="edge37_Node000004_Node000027" class="edge">
<title>Node4&#45;&gt;Node27</title>
<g id="a_edge37_Node000004_Node000027"><a xlink:title=" ">
<path fill="none" stroke="#63b8ff" d="M997.46,-333.59C1022.31,-323.27 1057.32,-308.75 1085.76,-296.95"/>
<polygon fill="#63b8ff" stroke="#63b8ff" points="996.38,-330.66 988.49,-337.73 999.06,-337.13 996.38,-330.66"/>
</a>
</g>
</g>
<!-- Node28 -->
<g id="Node000028" class="node">
<title>Node28</title>
<g id="a_Node000028"><a xlink:href="../../d1/d62/opaque-render-system_8cpp.html" target="_top" xlink:title=" ">
<polygon fill="white" stroke="#666666" points="1377.36,-290.88 1218.11,-290.88 1218.11,-260.38 1377.36,-260.38 1377.36,-290.88"/>
<text text-anchor="start" x="1226.11" y="-277.38" font-family="Helvetica,sans-Serif" font-size="10.00">engine/subsystems/render</text>
<text text-anchor="middle" x="1297.74" y="-266.12" font-family="Helvetica,sans-Serif" font-size="10.00">/detail/opaque&#45;render&#45;system.cpp</text>
</a>
</g>
</g>
<!-- Node4&#45;&gt;Node28 -->
<g id="edge38_Node000004_Node000028" class="edge">
<title>Node4&#45;&gt;Node28</title>
<g id="a_edge38_Node000004_Node000028"><a xlink:title=" ">
<path fill="none" stroke="#63b8ff" d="M1021.31,-335.52C1070.6,-325.49 1144.52,-310.31 1208.74,-296.5 1216.48,-294.84 1224.59,-293.06 1232.63,-291.29"/>
<polygon fill="#63b8ff" stroke="#63b8ff" points="1020.67,-332.28 1011.57,-337.7 1022.07,-339.14 1020.67,-332.28"/>
</a>
</g>
</g>
<!-- Node6 -->
<g id="Node000006" class="node">
<title>Node6</title>
<g id="a_Node000006"><a xlink:href="../../d0/d86/camera-movement_8hpp.html" target="_top" xlink:title=" ">
<polygon fill="white" stroke="#666666" points="1129.49,-85.75 973.99,-85.75 973.99,-66.5 1129.49,-66.5 1129.49,-85.75"/>
<text text-anchor="middle" x="1051.74" y="-72.25" font-family="Helvetica,sans-Serif" font-size="10.00">d3d_test/camera&#45;movement.hpp</text>
</a>
</g>
</g>
<!-- Node5&#45;&gt;Node6 -->
<g id="edge5_Node000005_Node000006" class="edge">
<title>Node5&#45;&gt;Node6</title>
<g id="a_edge5_Node000005_Node000006"><a xlink:title=" ">
<path fill="none" stroke="#63b8ff" d="M911.84,-134.16C946.1,-120.19 999.47,-98.43 1029.42,-86.23"/>
<polygon fill="#63b8ff" stroke="#63b8ff" points="910.81,-131.21 902.87,-138.23 913.45,-137.69 910.81,-131.21"/>
</a>
</g>
</g>
<!-- Node8 -->
<g id="Node000008" class="node">
<title>Node8</title>
<g id="a_Node000008"><a xlink:href="../../dc/dfb/controller_8hpp.html" target="_top" xlink:title=" ">
<polygon fill="white" stroke="#666666" points="130.86,-85.75 16.61,-85.75 16.61,-66.5 130.86,-66.5 130.86,-85.75"/>
<text text-anchor="middle" x="73.74" y="-72.25" font-family="Helvetica,sans-Serif" font-size="10.00">d3d_test/controller.hpp</text>
</a>
</g>
</g>
<!-- Node5&#45;&gt;Node8 -->
<g id="edge8_Node000005_Node000008" class="edge">
<title>Node5&#45;&gt;Node8</title>
<g id="a_edge8_Node000005_Node000008"><a xlink:title=" ">
<path fill="none" stroke="#63b8ff" d="M811.03,-147.61C679.72,-147.18 384.47,-140.88 140.74,-97 126.89,-94.51 111.83,-90.19 99.51,-86.22"/>
<polygon fill="#63b8ff" stroke="#63b8ff" points="810.71,-151.11 820.71,-147.63 810.72,-144.11 810.71,-151.11"/>
</a>
</g>
</g>
<!-- Node9 -->
<g id="Node000009" class="node">
<title>Node9</title>
<g id="a_Node000009"><a xlink:href="../../d9/d0f/main_8cc.html" target="_top" xlink:title=" ">
<polygon fill="white" stroke="#666666" points="118.86,-19.25 28.61,-19.25 28.61,0 118.86,0 118.86,-19.25"/>
<text text-anchor="middle" x="73.74" y="-5.75" font-family="Helvetica,sans-Serif" font-size="10.00">d3d_test/main.cc</text>
</a>
</g>
</g>
<!-- Node5&#45;&gt;Node9 -->
<g id="edge11_Node000005_Node000009" class="edge">
<title>Node5&#45;&gt;Node9</title>
<g id="a_edge11_Node000005_Node000009"><a xlink:title=" ">
<path fill="none" stroke="#63b8ff" d="M810.62,-143.96C690.01,-137.65 446.2,-122.18 364.74,-97 327.92,-85.62 324.89,-68.59 288.74,-55.25 232.23,-34.4 163.58,-22.29 119.29,-16.07"/>
<polygon fill="#63b8ff" stroke="#63b8ff" points="810.38,-147.5 820.55,-144.53 810.74,-140.51 810.38,-147.5"/>
</a>
</g>
</g>
<!-- Node10 -->
<g id="Node000010" class="node">
<title>Node10</title>
<g id="a_Node000010"><a xlink:href="../../da/df5/object-editor_8hpp.html" target="_top" xlink:title=" ">
<polygon fill="white" stroke="#666666" points="651.61,-85.75 523.86,-85.75 523.86,-66.5 651.61,-66.5 651.61,-85.75"/>
<text text-anchor="middle" x="587.74" y="-72.25" font-family="Helvetica,sans-Serif" font-size="10.00">d3d_test/object&#45;editor.hpp</text>
</a>
</g>
</g>
<!-- Node5&#45;&gt;Node10 -->
<g id="edge12_Node000005_Node000010" class="edge">
<title>Node5&#45;&gt;Node10</title>
<g id="a_edge12_Node000005_Node000010"><a xlink:title=" ">
<path fill="none" stroke="#63b8ff" d="M827.49,-135.88C783.03,-126.06 717.54,-111.24 660.74,-97 647.36,-93.65 632.68,-89.7 620.01,-86.21"/>
<polygon fill="#63b8ff" stroke="#63b8ff" points="826.52,-139.47 837.04,-138.21 828.03,-132.64 826.52,-139.47"/>
</a>
</g>
</g>
<!-- Node13 -->
<g id="Node000013" class="node">
<title>Node13</title>
<g id="a_Node000013"><a xlink:href="../../d9/d55/scene-viewer_8hpp.html" target="_top" xlink:title=" ">
<polygon fill="white" stroke="#666666" points="505.86,-85.75 373.61,-85.75 373.61,-66.5 505.86,-66.5 505.86,-85.75"/>
<text text-anchor="middle" x="439.74" y="-72.25" font-family="Helvetica,sans-Serif" font-size="10.00">d3d_test/scene&#45;viewer.hpp</text>
</a>
</g>
</g>
<!-- Node5&#45;&gt;Node13 -->
<g id="edge16_Node000005_Node000013" class="edge">
<title>Node5&#45;&gt;Node13</title>
<g id="a_edge16_Node000005_Node000013"><a xlink:title=" ">
<path fill="none" stroke="#63b8ff" d="M811,-140.32C737.32,-132.31 617.11,-117.53 514.74,-97 500.08,-94.06 484.03,-89.93 470.55,-86.2"/>
<polygon fill="#63b8ff" stroke="#63b8ff" points="810.21,-143.87 820.53,-141.46 810.96,-136.91 810.21,-143.87"/>
</a>
</g>
</g>
<!-- Node14 -->
<g id="Node000014" class="node">
<title>Node14</title>
<g id="a_Node000014"><a xlink:href="../../da/d5c/engine_8cpp.html" target="_top" xlink:title=" ">
<polygon fill="white" stroke="#666666" points="785.61,-85.75 669.86,-85.75 669.86,-66.5 785.61,-66.5 785.61,-85.75"/>
<text text-anchor="middle" x="727.74" y="-72.25" font-family="Helvetica,sans-Serif" font-size="10.00">engine/core/engine.cpp</text>
</a>
</g>
</g>
<!-- Node5&#45;&gt;Node14 -->
<g id="edge18_Node000005_Node000014" class="edge">
<title>Node5&#45;&gt;Node14</title>
<g id="a_edge18_Node000005_Node000014"><a xlink:title=" ">
<path fill="none" stroke="#63b8ff" d="M850.55,-133.78C820.16,-119.76 773.4,-98.19 747.22,-86.11"/>
<polygon fill="#63b8ff" stroke="#63b8ff" points="848.63,-137.21 859.18,-138.23 851.56,-130.86 848.63,-137.21"/>
</a>
</g>
</g>
<!-- Node15 -->
<g id="Node000015" class="node">
<title>Node15</title>
<g id="a_Node000015"><a xlink:href="../../d1/da2/deferred-hdr-render-pipeline_8cpp.html" target="_top" xlink:title=" ">
<polygon fill="white" stroke="#666666" points="280.11,-91.38 149.36,-91.38 149.36,-60.88 280.11,-60.88 280.11,-91.38"/>
<text text-anchor="start" x="157.36" y="-77.88" font-family="Helvetica,sans-Serif" font-size="10.00">engine/direct3d11/deferred</text>
<text text-anchor="middle" x="214.74" y="-66.62" font-family="Helvetica,sans-Serif" font-size="10.00">&#45;hdr&#45;render&#45;pipeline.cpp</text>
</a>
</g>
</g>
<!-- Node5&#45;&gt;Node15 -->
<g id="edge19_Node000005_Node000015" class="edge">
<title>Node5&#45;&gt;Node15</title>
<g id="a_edge19_Node000005_Node000015"><a xlink:title=" ">
<path fill="none" stroke="#63b8ff" d="M810.6,-144.92C700.54,-140.41 478.97,-128.03 293.74,-97 285.51,-95.62 276.88,-93.82 268.46,-91.87"/>
<polygon fill="#63b8ff" stroke="#63b8ff" points="810.41,-148.46 820.54,-145.36 810.69,-141.46 810.41,-148.46"/>
</a>
</g>
</g>
<!-- Node5&#45;&gt;Node16 -->
<g id="edge20_Node000005_Node000016" class="edge">
<title>Node5&#45;&gt;Node16</title>
<g id="a_edge20_Node000005_Node000016"><a xlink:title=" ">
<path fill="none" stroke="#63b8ff" d="M948.57,-141.02C1029.78,-133.14 1168.67,-118.03 1286.74,-97 1295.09,-95.51 1303.86,-93.72 1312.46,-91.84"/>
<polygon fill="#63b8ff" stroke="#63b8ff" points="948.61,-137.59 938.99,-142.03 949.28,-144.56 948.61,-137.59"/>
</a>
</g>
</g>
<!-- Node5&#45;&gt;Node17 -->
<g id="edge21_Node000005_Node000017" class="edge">
<title>Node5&#45;&gt;Node17</title>
<g id="a_edge21_Node000005_Node000017"><a xlink:title=" ">
<path fill="none" stroke="#63b8ff" d="M948.79,-145.19C1129.12,-139.5 1611.11,-122.34 1768.74,-97 1771.63,-96.54 1774.57,-96 1777.53,-95.42"/>
<polygon fill="#63b8ff" stroke="#63b8ff" points="948.75,-141.72 938.87,-145.53 948.97,-148.71 948.75,-141.72"/>
</a>
</g>
</g>
<!-- Node18 -->
<g id="Node000018" class="node">
<title>Node18</title>
<g id="a_Node000018"><a xlink:href="../../d2/d11/emissive-particle-render-system_8cpp.html" target="_top" xlink:title=" ">
<polygon fill="white" stroke="#666666" points="1595.74,-97 1465.74,-97 1465.74,-55.25 1595.74,-55.25 1595.74,-97"/>
<text text-anchor="start" x="1473.74" y="-83.5" font-family="Helvetica,sans-Serif" font-size="10.00">engine/subsystems/render</text>
<text text-anchor="start" x="1473.74" y="-72.25" font-family="Helvetica,sans-Serif" font-size="10.00">/detail/emissive&#45;particle</text>
<text text-anchor="middle" x="1530.74" y="-61" font-family="Helvetica,sans-Serif" font-size="10.00">&#45;render&#45;system.cpp</text>
</a>
</g>
</g>
<!-- Node5&#45;&gt;Node18 -->
<g id="edge22_Node000005_Node000018" class="edge">
<title>Node5&#45;&gt;Node18</title>
<g id="a_edge22_Node000005_Node000018"><a xlink:title=" ">
<path fill="none" stroke="#63b8ff" d="M948.73,-145.15C1057.47,-140.97 1275.08,-129.05 1456.74,-97 1459.62,-96.49 1462.55,-95.92 1465.51,-95.31"/>
<polygon fill="#63b8ff" stroke="#63b8ff" points="948.78,-141.69 938.91,-145.56 949.04,-148.68 948.78,-141.69"/>
</a>
</g>
</g>
<!-- Node19 -->
<g id="Node000019" class="node">
<title>Node19</title>
<g id="a_Node000019"><a xlink:href="../../df/d58/grass-render-system_8cpp.html" target="_top" xlink:title=" ">
<polygon fill="white" stroke="#666666" points="955.61,-91.38 803.86,-91.38 803.86,-60.88 955.61,-60.88 955.61,-91.38"/>
<text text-anchor="start" x="811.86" y="-77.88" font-family="Helvetica,sans-Serif" font-size="10.00">engine/subsystems/render</text>
<text text-anchor="middle" x="879.74" y="-66.62" font-family="Helvetica,sans-Serif" font-size="10.00">/detail/grass&#45;render&#45;system.cpp</text>
</a>
</g>
</g>
<!-- Node5&#45;&gt;Node19 -->
<g id="edge23_Node000005_Node000019" class="edge">
<title>Node5&#45;&gt;Node19</title>
<g id="a_edge23_Node000005_Node000019"><a xlink:title=" ">
<path fill="none" stroke="#63b8ff" d="M879.74,-127.41C879.74,-116.08 879.74,-102.12 879.74,-91.79"/>
<polygon fill="#63b8ff" stroke="#63b8ff" points="876.24,-127.37 879.74,-137.37 883.24,-127.37 876.24,-127.37"/>
</a>
</g>
</g>
<!-- Node20 -->
<g id="Node000020" class="node">
<title>Node20</title>
<g id="a_Node000020"><a xlink:href="../../d8/d9c/light-render-system_8cpp.html" target="_top" xlink:title=" ">
<polygon fill="white" stroke="#666666" points="1759.61,-91.38 1613.86,-91.38 1613.86,-60.88 1759.61,-60.88 1759.61,-91.38"/>
<text text-anchor="start" x="1621.86" y="-77.88" font-family="Helvetica,sans-Serif" font-size="10.00">engine/subsystems/render</text>
<text text-anchor="middle" x="1686.74" y="-66.62" font-family="Helvetica,sans-Serif" font-size="10.00">/detail/light&#45;render&#45;system.cpp</text>
</a>
</g>
</g>
<!-- Node5&#45;&gt;Node20 -->
<g id="edge24_Node000005_Node000020" class="edge">
<title>Node5&#45;&gt;Node20</title>
<g id="a_edge24_Node000005_Node000020"><a xlink:title=" ">
<path fill="none" stroke="#63b8ff" d="M948.81,-146.33C1078.23,-143.75 1365.76,-133.97 1604.74,-97 1613.42,-95.66 1622.54,-93.85 1631.41,-91.87"/>
<polygon fill="#63b8ff" stroke="#63b8ff" points="948.83,-142.85 938.9,-146.54 948.97,-149.85 948.83,-142.85"/>
</a>
</g>
</g>
<!-- Node5&#45;&gt;Node21 -->
<g id="edge25_Node000005_Node000021" class="edge">
<title>Node5&#45;&gt;Node21</title>
<g id="a_edge25_Node000005_Node000021"><a xlink:title=" ">
<path fill="none" stroke="#63b8ff" d="M936.18,-136.05C941.44,-135.01 946.69,-133.99 951.74,-133 1034.81,-116.78 1056.26,-115.99 1138.74,-97 1141.59,-96.34 1144.5,-95.65 1147.43,-94.94"/>
<polygon fill="#63b8ff" stroke="#63b8ff" points="935.57,-132.8 926.44,-138.17 936.92,-139.67 935.57,-132.8"/>
</a>
</g>
</g>
<!-- Node6&#45;&gt;Node3 -->
<g id="edge7_Node000006_Node000003" class="edge">
<title>Node6&#45;&gt;Node3</title>
<g id="a_edge7_Node000006_Node000003"><a xlink:title=" ">
<path fill="none" stroke="#63b8ff" d="M1006.8,-63.55C993.35,-60.44 978.51,-57.36 964.74,-55.25 764.66,-24.63 712.14,-39.46 510.74,-19.25 506.29,-18.8 501.69,-18.31 497.07,-17.8"/>
<polygon fill="#63b8ff" stroke="#63b8ff" points="1005.71,-67.12 1016.24,-66.03 1007.32,-60.31 1005.71,-67.12"/>
</a>
</g>
</g>
<!-- Node7 -->
<g id="Node000007" class="node">
<title>Node7</title>
<g id="a_Node000007"><a xlink:href="../../d5/dbb/camera-movement_8cpp.html" target="_top" xlink:title=" ">
<polygon fill="white" stroke="#666666" points="1129.49,-19.25 973.99,-19.25 973.99,0 1129.49,0 1129.49,-19.25"/>
<text text-anchor="middle" x="1051.74" y="-5.75" font-family="Helvetica,sans-Serif" font-size="10.00">d3d_test/camera&#45;movement.cpp</text>
</a>
</g>
</g>
<!-- Node6&#45;&gt;Node7 -->
<g id="edge6_Node000006_Node000007" class="edge">
<title>Node6&#45;&gt;Node7</title>
<g id="a_edge6_Node000006_Node000007"><a xlink:title=" ">
<path fill="none" stroke="#63b8ff" d="M1051.74,-55.4C1051.74,-43.43 1051.74,-28.73 1051.74,-19.52"/>
<polygon fill="#63b8ff" stroke="#63b8ff" points="1048.24,-55.16 1051.74,-65.16 1055.24,-55.16 1048.24,-55.16"/>
</a>
</g>
</g>
<!-- Node8&#45;&gt;Node3 -->
<g id="edge9_Node000008_Node000003" class="edge">
<title>Node8&#45;&gt;Node3</title>
<g id="a_edge9_Node000008_Node000003"><a xlink:title=" ">
<path fill="none" stroke="#63b8ff" d="M111.53,-62.91C121,-60.13 131.18,-57.37 140.74,-55.25 223.87,-36.81 321.73,-23.82 382.26,-16.78"/>
<polygon fill="#63b8ff" stroke="#63b8ff" points="110.78,-59.78 102.22,-66.03 112.8,-66.48 110.78,-59.78"/>
</a>
</g>
</g>
<!-- Node8&#45;&gt;Node9 -->
<g id="edge10_Node000008_Node000009" class="edge">
<title>Node8&#45;&gt;Node9</title>
<g id="a_edge10_Node000008_Node000009"><a xlink:title=" ">
<path fill="none" stroke="#63b8ff" d="M73.74,-55.4C73.74,-43.43 73.74,-28.73 73.74,-19.52"/>
<polygon fill="#63b8ff" stroke="#63b8ff" points="70.24,-55.16 73.74,-65.16 77.24,-55.16 70.24,-55.16"/>
</a>
</g>
</g>
<!-- Node10&#45;&gt;Node3 -->
<g id="edge13_Node000010_Node000003" class="edge">
<title>Node10&#45;&gt;Node3</title>
<g id="a_edge13_Node000010_Node000003"><a xlink:title=" ">
<path fill="none" stroke="#63b8ff" d="M556.87,-61.67C527.97,-49.08 485.59,-30.61 460.52,-19.68"/>
<polygon fill="#63b8ff" stroke="#63b8ff" points="555.28,-65.23 565.85,-66.02 558.08,-58.82 555.28,-65.23"/>
</a>
</g>
</g>
<!-- Node11 -->
<g id="Node000011" class="node">
<title>Node11</title>
<g id="a_Node000011"><a xlink:href="../../d4/d94/object-editor_8cpp.html" target="_top" xlink:title=" ">
<polygon fill="white" stroke="#666666" points="647.61,-19.25 519.86,-19.25 519.86,0 647.61,0 647.61,-19.25"/>
<text text-anchor="middle" x="583.74" y="-5.75" font-family="Helvetica,sans-Serif" font-size="10.00">d3d_test/object&#45;editor.cpp</text>
</a>
</g>
</g>
<!-- Node10&#45;&gt;Node11 -->
<g id="edge14_Node000010_Node000011" class="edge">
<title>Node10&#45;&gt;Node11</title>
<g id="a_edge14_Node000010_Node000011"><a xlink:title=" ">
<path fill="none" stroke="#63b8ff" d="M586.51,-55.4C585.77,-43.43 584.86,-28.73 584.29,-19.52"/>
<polygon fill="#63b8ff" stroke="#63b8ff" points="583.07,-55.39 587.18,-65.16 590.06,-54.96 583.07,-55.39"/>
</a>
</g>
</g>
<!-- Node12 -->
<g id="Node000012" class="node">
<title>Node12</title>
<g id="a_Node000012"><a xlink:href="../../d0/d38/scene-viewer_8cpp.html" target="_top" xlink:title=" ">
<polygon fill="white" stroke="#666666" points="797.86,-19.25 665.61,-19.25 665.61,0 797.86,0 797.86,-19.25"/>
<text text-anchor="middle" x="731.74" y="-5.75" font-family="Helvetica,sans-Serif" font-size="10.00">d3d_test/scene&#45;viewer.cpp</text>
</a>
</g>
</g>
<!-- Node10&#45;&gt;Node12 -->
<g id="edge15_Node000010_Node000012" class="edge">
<title>Node10&#45;&gt;Node12</title>
<g id="a_edge15_Node000010_Node000012"><a xlink:title=" ">
<path fill="none" stroke="#63b8ff" d="M617.77,-61.67C645.89,-49.08 687.12,-30.61 711.51,-19.68"/>
<polygon fill="#63b8ff" stroke="#63b8ff" points="616.76,-58.74 609.06,-66.02 619.62,-65.13 616.76,-58.74"/>
</a>
</g>
</g>
<!-- Node13&#45;&gt;Node3 -->
<g id="edge17_Node000013_Node000003" class="edge">
<title>Node13&#45;&gt;Node3</title>
<g id="a_edge17_Node000013_Node000003"><a xlink:title=" ">
<path fill="none" stroke="#63b8ff" d="M439.74,-55.4C439.74,-43.43 439.74,-28.73 439.74,-19.52"/>
<polygon fill="#63b8ff" stroke="#63b8ff" points="436.24,-55.16 439.74,-65.16 443.24,-55.16 436.24,-55.16"/>
</a>
</g>
</g>
<!-- Node23 -->
<g id="Node000023" class="node">
<title>Node23</title>
<g id="a_Node000023"><a xlink:href="../../d4/d87/layers_8hpp.html" target="_top" xlink:title=" ">
<polygon fill="white" stroke="#666666" points="880.11,-218.75 767.36,-218.75 767.36,-199.5 880.11,-199.5 880.11,-218.75"/>
<text text-anchor="middle" x="823.74" y="-205.25" font-family="Helvetica,sans-Serif" font-size="10.00">engine/core/layers.hpp</text>
</a>
</g>
</g>
<!-- Node22&#45;&gt;Node23 -->
<g id="edge27_Node000022_Node000023" class="edge">
<title>Node22&#45;&gt;Node23</title>
<g id="a_edge27_Node000022_Node000023"><a xlink:title=" ">
<path fill="none" stroke="#63b8ff" d="M752.58,-254.26C771.61,-242.46 794.61,-228.19 809.21,-219.13"/>
<polygon fill="#63b8ff" stroke="#63b8ff" points="750.99,-251.74 744.34,-259.99 754.68,-257.69 750.99,-251.74"/>
</a>
</g>
</g>
<!-- Node22&#45;&gt;Node24 -->
<g id="edge29_Node000022_Node000024" class="edge">
<title>Node22&#45;&gt;Node24</title>
<g id="a_edge29_Node000022_Node000024"><a xlink:title=" ">
<path fill="none" stroke="#63b8ff" d="M667.28,-256.68C665.08,-256.01 662.89,-255.37 660.74,-254.75 527.05,-216.51 368.06,-181.32 280.6,-162.83"/>
<polygon fill="#63b8ff" stroke="#63b8ff" points="666.08,-260.28 676.67,-259.92 668.17,-253.6 666.08,-260.28"/>
</a>
</g>
</g>
<!-- Node23&#45;&gt;Node5 -->
<g id="edge28_Node000023_Node000005" class="edge">
<title>Node23&#45;&gt;Node5</title>
<g id="a_edge28_Node000023_Node000005"><a xlink:title=" ">
<path fill="none" stroke="#63b8ff" d="M839.74,-191.3C849.96,-180.55 862.82,-167.04 871.15,-158.28"/>
<polygon fill="#63b8ff" stroke="#63b8ff" points="837.6,-188.53 833.24,-198.18 842.67,-193.35 837.6,-188.53"/>
</a>
</g>
</g>
<!-- Node24&#45;&gt;Node8 -->
<g id="edge30_Node000024_Node000008" class="edge">
<title>Node24&#45;&gt;Node8</title>
<g id="a_edge30_Node000024_Node000008"><a xlink:title=" ">
<path fill="none" stroke="#63b8ff" d="M175.52,-127.75C148.24,-114.18 113.11,-96.71 92.06,-86.24"/>
<polygon fill="#63b8ff" stroke="#63b8ff" points="173.67,-131.23 184.18,-132.55 176.78,-124.96 173.67,-131.23"/>
</a>
</g>
</g>
<!-- Node24&#45;&gt;Node9 -->
<g id="edge31_Node000024_Node000009" class="edge">
<title>Node24&#45;&gt;Node9</title>
<g id="a_edge31_Node000024_Node000009"><a xlink:title=" ">
<path fill="none" stroke="#63b8ff" d="M138.28,-138.58C86.26,-130.92 24.02,-117.7 7.74,-97 -3.73,-82.41 -0.96,-71.64 7.74,-55.25 16.62,-38.51 34.9,-26.91 49.97,-19.74"/>
<polygon fill="#63b8ff" stroke="#63b8ff" points="137.48,-142.14 147.87,-140.08 138.46,-135.21 137.48,-142.14"/>
</a>
</g>
</g>
<!-- Node24&#45;&gt;Node15 -->
<g id="edge32_Node000024_Node000015" class="edge">
<title>Node24&#45;&gt;Node15</title>
<g id="a_edge32_Node000024_Node000015"><a xlink:title=" ">
<path fill="none" stroke="#63b8ff" d="M214.74,-121.93C214.74,-111.75 214.74,-100.38 214.74,-91.64"/>
<polygon fill="#63b8ff" stroke="#63b8ff" points="211.24,-121.72 214.74,-131.72 218.24,-121.72 211.24,-121.72"/>
</a>
</g>
</g>
<!-- Node29&#45;&gt;Node2 -->
<g id="edge44_Node000029_Node000002" class="edge">
<title>Node29&#45;&gt;Node2</title>
<g id="a_edge44_Node000029_Node000002"><a xlink:title=" ">
<path fill="none" stroke="#63b8ff" d="M1108.85,-461.71C1069.3,-448.87 1022.72,-433.75 993.7,-424.33"/>
<polygon fill="#63b8ff" stroke="#63b8ff" points="1107.67,-465.33 1118.26,-465.09 1109.83,-458.68 1107.67,-465.33"/>
</a>
</g>
</g>
<!-- Node29&#45;&gt;Node18 -->
<g id="edge45_Node000029_Node000018" class="edge">
<title>Node29&#45;&gt;Node18</title>
<g id="a_edge45_Node000029_Node000018"><a xlink:title=" ">
<path fill="none" stroke="#63b8ff" d="M1193.03,-455.16C1207.4,-420.7 1235.42,-364.94 1276.74,-332.5 1317.2,-300.74 1345.88,-327.76 1386.74,-296.5 1458.38,-241.69 1505.34,-140.43 1522.94,-97.36"/>
<polygon fill="#63b8ff" stroke="#63b8ff" points="1189.51,-453.54 1189.01,-464.12 1196,-456.16 1189.51,-453.54"/>
</a>
</g>
</g>
<!-- Node30&#45;&gt;Node2 -->
<g id="edge47_Node000030_Node000002" class="edge">
<title>Node30&#45;&gt;Node2</title>
<g id="a_edge47_Node000030_Node000002"><a xlink:title=" ">
<path fill="none" stroke="#63b8ff" d="M1269.73,-468.4C1265,-467.39 1260.3,-466.42 1255.74,-465.5 1175.58,-449.41 1082.34,-433.8 1023.68,-424.36"/>
<polygon fill="#63b8ff" stroke="#63b8ff" points="1268.58,-471.95 1279.1,-470.65 1270.06,-465.11 1268.58,-471.95"/>
</a>
</g>
</g>
<!-- Node30&#45;&gt;Node16 -->
<g id="edge49_Node000030_Node000016" class="edge">
<title>Node30&#45;&gt;Node16</title>
<g id="a_edge49_Node000030_Node000016"><a xlink:title=" ">
<path fill="none" stroke="#63b8ff" d="M1342.98,-459.92C1344.35,-441.42 1348.77,-416.64 1361.74,-399 1380.84,-373.02 1405.63,-388.98 1424.74,-363 1448.02,-331.33 1443.74,-315.93 1443.74,-276.62 1443.74,-276.62 1443.74,-276.62 1443.74,-208.12 1443.74,-160.89 1407.35,-114.61 1386.31,-91.8"/>
<polygon fill="#63b8ff" stroke="#63b8ff" points="1339.45,-459.62 1342.47,-469.77 1346.44,-459.95 1339.45,-459.62"/>
</a>
</g>
</g>
<!-- Node30&#45;&gt;Node17 -->
<g id="edge50_Node000030_Node000017" class="edge">
<title>Node30&#45;&gt;Node17</title>
<g id="a_edge50_Node000030_Node000017"><a xlink:title=" ">
<path fill="none" stroke="#63b8ff" d="M1418.83,-479.12C1508.71,-470.75 1652.04,-454.08 1699.74,-429.5 1744.37,-406.5 1778.74,-398.96 1778.74,-348.75 1778.74,-348.75 1778.74,-348.75 1778.74,-208.12 1778.74,-165.35 1806.63,-121.96 1825.59,-97.41"/>
<polygon fill="#63b8ff" stroke="#63b8ff" points="1418.78,-475.7 1409.14,-480.1 1419.42,-482.67 1418.78,-475.7"/>
</a>
</g>
</g>
<!-- Node30&#45;&gt;Node18 -->
<g id="edge51_Node000030_Node000018" class="edge">
<title>Node30&#45;&gt;Node18</title>
<g id="a_edge51_Node000030_Node000018"><a xlink:title=" ">
<path fill="none" stroke="#63b8ff" d="M1418.43,-480.95C1498.36,-474.7 1617.23,-460.39 1649.74,-429.5 1676.46,-404.1 1668.74,-385.62 1668.74,-348.75 1668.74,-348.75 1668.74,-348.75 1668.74,-208.12 1668.74,-156.26 1616.83,-118.74 1576.69,-97.48"/>
<polygon fill="#63b8ff" stroke="#63b8ff" points="1418.62,-477.5 1408.91,-481.74 1419.15,-484.48 1418.62,-477.5"/>
</a>
</g>
</g>
<!-- Node30&#45;&gt;Node20 -->
<g id="edge53_Node000030_Node000020" class="edge">
<title>Node30&#45;&gt;Node20</title>
<g id="a_edge53_Node000030_Node000020"><a xlink:title=" ">
<path fill="none" stroke="#63b8ff" d="M1418.79,-480.89C1503.74,-474.47 1634.39,-459.88 1672.74,-429.5 1703.26,-405.32 1706.74,-387.69 1706.74,-348.75 1706.74,-348.75 1706.74,-348.75 1706.74,-208.12 1706.74,-165.33 1696.18,-115.57 1690.41,-91.55"/>
<polygon fill="#63b8ff" stroke="#63b8ff" points="1418.61,-477.47 1408.89,-481.69 1419.12,-484.45 1418.61,-477.47"/>
</a>
</g>
</g>
<!-- Node30&#45;&gt;Node27 -->
<g id="edge52_Node000030_Node000027" class="edge">
<title>Node30&#45;&gt;Node27</title>
<g id="a_edge52_Node000030_Node000027"><a xlink:title=" ">
<path fill="none" stroke="#63b8ff" d="M1319.81,-463.06C1309.37,-452.87 1296.89,-440.61 1285.74,-429.5 1238.17,-382.11 1182.84,-325.78 1154.18,-296.52"/>
<polygon fill="#63b8ff" stroke="#63b8ff" points="1317.07,-465.26 1326.67,-469.74 1321.96,-460.25 1317.07,-465.26"/>
</a>
</g>
</g>
<!-- Node30&#45;&gt;Node28 -->
<g id="edge54_Node000030_Node000028" class="edge">
<title>Node30&#45;&gt;Node28</title>
<g id="a_edge54_Node000030_Node000028"><a xlink:title=" ">
<path fill="none" stroke="#63b8ff" d="M1325.56,-462.05C1309.34,-438.45 1286.14,-400.23 1276.74,-363 1270.39,-337.86 1281.42,-308.52 1289.75,-291.32"/>
<polygon fill="#63b8ff" stroke="#63b8ff" points="1323.2,-463.76 1331.82,-469.93 1328.92,-459.74 1323.2,-463.76"/>
</a>
</g>
</g>
<!-- Node31 -->
<g id="Node000031" class="node">
<title>Node31</title>
<g id="a_Node000031"><a xlink:href="../../d6/dab/model-loader_8cpp.html" target="_top" xlink:title=" ">
<polygon fill="white" stroke="#666666" points="1492.61,-429.5 1370.86,-429.5 1370.86,-399 1492.61,-399 1492.61,-429.5"/>
<text text-anchor="start" x="1378.86" y="-416" font-family="Helvetica,sans-Serif" font-size="10.00">engine/subsystems/core</text>
<text text-anchor="middle" x="1431.74" y="-404.75" font-family="Helvetica,sans-Serif" font-size="10.00">/model&#45;loader.cpp</text>
</a>
</g>
</g>
<!-- Node30&#45;&gt;Node31 -->
<g id="edge48_Node000030_Node000031" class="edge">
<title>Node30&#45;&gt;Node31</title>
<g id="a_edge48_Node000030_Node000031"><a xlink:title=" ">
<path fill="none" stroke="#63b8ff" d="M1369.55,-464.25C1383.69,-453.11 1400.68,-439.72 1413.32,-429.76"/>
<polygon fill="#63b8ff" stroke="#63b8ff" points="1367.87,-461.91 1362.18,-470.85 1372.2,-467.41 1367.87,-461.91"/>
</a>
</g>
</g>
<!-- Node32 -->
<g id="Node000032" class="node">
<title>Node32</title>
<g id="a_Node000032"><a xlink:href="../../d3/d4f/model-system_8cpp.html" target="_top" xlink:title=" ">
<polygon fill="white" stroke="#666666" points="1640.74,-429.5 1510.74,-429.5 1510.74,-399 1640.74,-399 1640.74,-429.5"/>
<text text-anchor="start" x="1518.74" y="-416" font-family="Helvetica,sans-Serif" font-size="10.00">engine/subsystems/render</text>
<text text-anchor="middle" x="1575.74" y="-404.75" font-family="Helvetica,sans-Serif" font-size="10.00">/model&#45;system.cpp</text>
</a>
</g>
</g>
<!-- Node30&#45;&gt;Node32 -->
<g id="edge55_Node000030_Node000032" class="edge">
<title>Node30&#45;&gt;Node32</title>
<g id="a_edge55_Node000030_Node000032"><a xlink:title=" ">
<path fill="none" stroke="#63b8ff" d="M1401.67,-467.64C1440.4,-455.98 1490.47,-440.91 1526.96,-429.93"/>
<polygon fill="#63b8ff" stroke="#63b8ff" points="1401.15,-464.44 1392.58,-470.67 1403.17,-471.14 1401.15,-464.44"/>
</a>
</g>
</g>
<!-- Node33 -->
<g id="Node000033" class="node">
<title>Node33</title>
<g id="a_Node000033"><a xlink:href="../../d6/de4/subsystems_2render_2render_8hpp.html" target="_top" xlink:title=" ">
<polygon fill="white" stroke="#666666" points="1415.74,-363 1285.74,-363 1285.74,-332.5 1415.74,-332.5 1415.74,-363"/>
<text text-anchor="start" x="1293.74" y="-349.5" font-family="Helvetica,sans-Serif" font-size="10.00">engine/subsystems/render</text>
<text text-anchor="middle" x="1350.74" y="-338.25" font-family="Helvetica,sans-Serif" font-size="10.00">/render.hpp</text>
</a>
</g>
</g>
<!-- Node30&#45;&gt;Node33 -->
<g id="edge56_Node000030_Node000033" class="edge">
<title>Node30&#45;&gt;Node33</title>
<g id="a_edge56_Node000030_Node000033"><a xlink:title=" ">
<path fill="none" stroke="#63b8ff" d="M1333.8,-460.25C1328.83,-442.95 1324.45,-419.49 1328.74,-399 1331.39,-386.32 1337.43,-372.93 1342.52,-363.17"/>
<polygon fill="#63b8ff" stroke="#63b8ff" points="1330.72,-461.14 1337.06,-469.63 1337.4,-459.04 1330.72,-461.14"/>
</a>
</g>
</g>
<!-- Node33&#45;&gt;Node5 -->
<g id="edge57_Node000033_Node000005" class="edge">
<title>Node33&#45;&gt;Node5</title>
<g id="a_edge57_Node000033_Node000005"><a xlink:title=" ">
<path fill="none" stroke="#63b8ff" d="M1371.48,-324.06C1387.14,-304.11 1403.33,-275.15 1386.74,-254.75 1330.65,-185.79 1058.69,-160.41 937.83,-152.44"/>
<polygon fill="#63b8ff" stroke="#63b8ff" points="1368.36,-321.34 1364.67,-331.27 1373.75,-325.81 1368.36,-321.34"/>
</a>
</g>
</g>
</g>
</svg>
