<?xml version="1.0" encoding="UTF-8" standalone="no"?>
<!DOCTYPE svg PUBLIC "-//W3C//DTD SVG 1.1//EN"
 "http://www.w3.org/Graphics/SVG/1.1/DTD/svg11.dtd">
<!-- Generated by graphviz version 9.0.0 (20230911.1827)
 -->
<!-- Title: engine::render::DeferredResolve Pages: 1 -->
<svg width="1462pt" height="403pt"
 viewBox="0.00 0.00 1461.50 402.50" xmlns="http://www.w3.org/2000/svg" xmlns:xlink="http://www.w3.org/1999/xlink">
<g id="graph0" class="graph" transform="scale(1 1) rotate(0) translate(4 398.5)">
<title>engine::render::DeferredResolve</title>
<!-- Node1 -->
<g id="Node000001" class="node">
<title>Node1</title>
<g id="a_Node000001"><a xlink:title=" ">
<polygon fill="#999999" stroke="#666666" points="1453.5,-161.12 1336.25,-161.12 1336.25,-130.62 1453.5,-130.62 1453.5,-161.12"/>
<text text-anchor="start" x="1344.25" y="-147.62" font-family="Helvetica,sans-Serif" font-size="10.00">engine::render::Deferred</text>
<text text-anchor="middle" x="1394.88" y="-136.38" font-family="Helvetica,sans-Serif" font-size="10.00">Resolve</text>
</a>
</g>
</g>
<!-- Node2 -->
<g id="Node000002" class="node">
<title>Node2</title>
<g id="a_Node000002"><a xlink:href="../../dd/d36/classengine_1_1render_1_1_graphics_shader_program.html" target="_top" xlink:title=" ">
<polygon fill="white" stroke="#666666" points="1171.25,-329.12 1051.75,-329.12 1051.75,-298.62 1171.25,-298.62 1171.25,-329.12"/>
<text text-anchor="start" x="1059.75" y="-315.62" font-family="Helvetica,sans-Serif" font-size="10.00">engine::render::Graphics</text>
<text text-anchor="middle" x="1111.5" y="-304.38" font-family="Helvetica,sans-Serif" font-size="10.00">ShaderProgram</text>
</a>
</g>
</g>
<!-- Node2&#45;&gt;Node1 -->
<g id="edge1_Node000001_Node000002" class="edge">
<title>Node2&#45;&gt;Node1</title>
<g id="a_edge1_Node000001_Node000002"><a xlink:title=" ">
<path fill="none" stroke="#9a32cd" stroke-dasharray="5,2" d="M1151.13,-292.69C1192.8,-269.6 1260.89,-231.23 1318.25,-195.88 1336.2,-184.81 1356.08,-171.63 1370.95,-161.58"/>
<polygon fill="#9a32cd" stroke="#9a32cd" points="1149.51,-289.58 1142.45,-297.48 1152.89,-295.71 1149.51,-289.58"/>
</a>
</g>
<text text-anchor="start" x="1223" y="-298.62" font-family="Helvetica,sans-Serif" font-size="10.00" fill="grey"> environment_shader</text>
<text text-anchor="middle" x="1270.62" y="-287.38" font-family="Helvetica,sans-Serif" font-size="10.00" fill="grey">_</text>
<text text-anchor="start" x="1223" y="-276.12" font-family="Helvetica,sans-Serif" font-size="10.00" fill="grey">volume_point_shader</text>
<text text-anchor="middle" x="1270.62" y="-264.88" font-family="Helvetica,sans-Serif" font-size="10.00" fill="grey">_</text>
<text text-anchor="middle" x="1270.62" y="-253.62" font-family="Helvetica,sans-Serif" font-size="10.00" fill="grey">volume_spot_shader_</text>
</g>
<!-- Node3 -->
<g id="Node000003" class="node">
<title>Node3</title>
<g id="a_Node000003"><a xlink:href="../../db/db6/structengine_1_1render_1_1_shader_program.html" target="_top" xlink:title=" ">
<polygon fill="white" stroke="#666666" points="922.75,-394.5 774.75,-394.5 774.75,-375.25 922.75,-375.25 922.75,-394.5"/>
<text text-anchor="middle" x="848.75" y="-381" font-family="Helvetica,sans-Serif" font-size="10.00">engine::render::ShaderProgram</text>
</a>
</g>
</g>
<!-- Node3&#45;&gt;Node2 -->
<g id="edge2_Node000002_Node000003" class="edge">
<title>Node3&#45;&gt;Node2</title>
<g id="a_edge2_Node000002_Node000003"><a xlink:title=" ">
<path fill="none" stroke="#63b8ff" d="M902.72,-372.06C931.56,-364.94 967.83,-355.74 1000,-346.88 1019.49,-341.5 1040.81,-335.23 1059.47,-329.61"/>
<polygon fill="#63b8ff" stroke="#63b8ff" points="901.99,-368.64 893.12,-374.42 903.67,-375.43 901.99,-368.64"/>
</a>
</g>
</g>
<!-- Node4 -->
<g id="Node000004" class="node">
<title>Node4</title>
<g id="a_Node000004"><a xlink:title=" ">
<polygon fill="white" stroke="#666666" points="907,-357.12 790.5,-357.12 790.5,-326.62 907,-326.62 907,-357.12"/>
<text text-anchor="start" x="798.5" y="-343.62" font-family="Helvetica,sans-Serif" font-size="10.00">std::shared_ptr&lt; engine</text>
<text text-anchor="middle" x="848.75" y="-332.38" font-family="Helvetica,sans-Serif" font-size="10.00">::render::Shader &gt;</text>
</a>
</g>
</g>
<!-- Node4&#45;&gt;Node2 -->
<g id="edge3_Node000002_Node000004" class="edge">
<title>Node4&#45;&gt;Node2</title>
<g id="a_edge3_Node000002_Node000004"><a xlink:title=" ">
<path fill="none" stroke="#9a32cd" stroke-dasharray="5,2" d="M918.64,-334.48C959.92,-330.04 1011.87,-324.47 1051.29,-320.23"/>
<polygon fill="#9a32cd" stroke="#9a32cd" points="918.37,-330.99 908.8,-335.53 919.12,-337.95 918.37,-330.99"/>
</a>
</g>
<text text-anchor="middle" x="970.38" y="-333.62" font-family="Helvetica,sans-Serif" font-size="10.00" fill="grey"> shaders_</text>
</g>
<!-- Node5 -->
<g id="Node000005" class="node">
<title>Node5</title>
<g id="a_Node000005"><a xlink:href="../../d0/dc5/classengine_1_1render_1_1_shader.html" target="_top" xlink:title=" ">
<polygon fill="white" stroke="#666666" points="593.62,-351.5 482.38,-351.5 482.38,-332.25 593.62,-332.25 593.62,-351.5"/>
<text text-anchor="middle" x="538" y="-338" font-family="Helvetica,sans-Serif" font-size="10.00">engine::render::Shader</text>
</a>
</g>
</g>
<!-- Node5&#45;&gt;Node4 -->
<g id="edge4_Node000004_Node000005" class="edge">
<title>Node5&#45;&gt;Node4</title>
<g id="a_edge4_Node000004_Node000005"><a xlink:title=" ">
<path fill="none" stroke="#9a32cd" stroke-dasharray="5,2" d="M605.21,-341.88C660.17,-341.88 737.55,-341.88 790.01,-341.88"/>
<polygon fill="#9a32cd" stroke="#9a32cd" points="605.36,-338.38 595.36,-341.88 605.36,-345.38 605.36,-338.38"/>
</a>
</g>
<text text-anchor="middle" x="704.25" y="-343.62" font-family="Helvetica,sans-Serif" font-size="10.00" fill="grey"> ptr</text>
</g>
<!-- Node6 -->
<g id="Node000006" class="node">
<title>Node6</title>
<g id="a_Node000006"><a xlink:href="../../d3/de6/structengine_1_1render_1_1_shader_blob.html" target="_top" xlink:title=" ">
<polygon fill="white" stroke="#666666" points="380.75,-351.5 250,-351.5 250,-332.25 380.75,-332.25 380.75,-351.5"/>
<text text-anchor="middle" x="315.38" y="-338" font-family="Helvetica,sans-Serif" font-size="10.00">engine::render::ShaderBlob</text>
</a>
</g>
</g>
<!-- Node6&#45;&gt;Node5 -->
<g id="edge5_Node000005_Node000006" class="edge">
<title>Node6&#45;&gt;Node5</title>
<g id="a_edge5_Node000005_Node000006"><a xlink:title=" ">
<path fill="none" stroke="#9a32cd" stroke-dasharray="5,2" d="M392.58,-341.88C421.99,-341.88 454.98,-341.88 482,-341.88"/>
<polygon fill="#9a32cd" stroke="#9a32cd" points="392.59,-338.38 382.59,-341.88 392.59,-345.38 392.59,-338.38"/>
</a>
</g>
<text text-anchor="middle" x="411.5" y="-343.62" font-family="Helvetica,sans-Serif" font-size="10.00" fill="grey"> blob_</text>
</g>
<!-- Node7 -->
<g id="Node000007" class="node">
<title>Node7</title>
<g id="a_Node000007"><a xlink:title=" ">
<polygon fill="white" stroke="#666666" points="139.75,-351.5 33,-351.5 33,-332.25 139.75,-332.25 139.75,-351.5"/>
<text text-anchor="middle" x="86.38" y="-338" font-family="Helvetica,sans-Serif" font-size="10.00">std::vector&lt; uint8_t &gt;</text>
</a>
</g>
</g>
<!-- Node7&#45;&gt;Node6 -->
<g id="edge6_Node000006_Node000007" class="edge">
<title>Node7&#45;&gt;Node6</title>
<g id="a_edge6_Node000006_Node000007"><a xlink:title=" ">
<path fill="none" stroke="#9a32cd" stroke-dasharray="5,2" d="M151.5,-341.88C182.26,-341.88 219.04,-341.88 249.86,-341.88"/>
<polygon fill="#9a32cd" stroke="#9a32cd" points="151.54,-338.38 141.54,-341.88 151.54,-345.38 151.54,-338.38"/>
</a>
</g>
<text text-anchor="middle" x="211.38" y="-343.62" font-family="Helvetica,sans-Serif" font-size="10.00" fill="grey"> bytecode</text>
</g>
<!-- Node8 -->
<g id="Node000008" class="node">
<title>Node8</title>
<g id="a_Node000008"><a xlink:title=" ">
<polygon fill="white" stroke="#666666" points="907,-308.12 790.5,-308.12 790.5,-277.62 907,-277.62 907,-308.12"/>
<text text-anchor="start" x="798.5" y="-294.62" font-family="Helvetica,sans-Serif" font-size="10.00">std::shared_ptr&lt; engine</text>
<text text-anchor="middle" x="848.75" y="-283.38" font-family="Helvetica,sans-Serif" font-size="10.00">::render::InputLayout &gt;</text>
</a>
</g>
</g>
<!-- Node8&#45;&gt;Node2 -->
<g id="edge7_Node000002_Node000008" class="edge">
<title>Node8&#45;&gt;Node2</title>
<g id="a_edge7_Node000002_Node000008"><a xlink:title=" ">
<path fill="none" stroke="#9a32cd" stroke-dasharray="5,2" d="M918.7,-296.13C944.26,-297.54 973.47,-299.38 1000,-301.62 1016.73,-303.04 1034.85,-304.91 1051.49,-306.76"/>
<polygon fill="#9a32cd" stroke="#9a32cd" points="918.92,-292.64 908.75,-295.6 918.54,-299.63 918.92,-292.64"/>
</a>
</g>
<text text-anchor="middle" x="970.38" y="-302.62" font-family="Helvetica,sans-Serif" font-size="10.00" fill="grey"> input_layout_</text>
</g>
<!-- Node9 -->
<g id="Node000009" class="node">
<title>Node9</title>
<g id="a_Node000009"><a xlink:href="../../d2/d6c/classengine_1_1render_1_1_input_layout.html" target="_top" xlink:title=" ">
<polygon fill="white" stroke="#666666" points="603.75,-308.5 472.25,-308.5 472.25,-289.25 603.75,-289.25 603.75,-308.5"/>
<text text-anchor="middle" x="538" y="-295" font-family="Helvetica,sans-Serif" font-size="10.00">engine::render::InputLayout</text>
</a>
</g>
</g>
<!-- Node9&#45;&gt;Node8 -->
<g id="edge8_Node000008_Node000009" class="edge">
<title>Node9&#45;&gt;Node8</title>
<g id="a_edge8_Node000008_Node000009"><a xlink:title=" ">
<path fill="none" stroke="#9a32cd" stroke-dasharray="5,2" d="M615.35,-297.39C669.38,-296.34 740.71,-294.96 790.02,-294"/>
<polygon fill="#9a32cd" stroke="#9a32cd" points="615.54,-293.89 605.61,-297.58 615.68,-300.89 615.54,-293.89"/>
</a>
</g>
<text text-anchor="middle" x="704.25" y="-297.62" font-family="Helvetica,sans-Serif" font-size="10.00" fill="grey"> ptr</text>
</g>
<!-- Node10 -->
<g id="Node000010" class="node">
<title>Node10</title>
<g id="a_Node000010"><a xlink:href="../../d5/d17/classengine_1_1direct3d_1_1_render_target.html" target="_top" xlink:title="The render target class.">
<polygon fill="white" stroke="#666666" points="1170.88,-221.12 1052.12,-221.12 1052.12,-190.62 1170.88,-190.62 1170.88,-221.12"/>
<text text-anchor="start" x="1060.12" y="-207.62" font-family="Helvetica,sans-Serif" font-size="10.00">engine::direct3d::Render</text>
<text text-anchor="middle" x="1111.5" y="-196.38" font-family="Helvetica,sans-Serif" font-size="10.00">Target</text>
</a>
</g>
</g>
<!-- Node10&#45;&gt;Node1 -->
<g id="edge9_Node000001_Node000010" class="edge">
<title>Node10&#45;&gt;Node1</title>
<g id="a_edge9_Node000001_Node000010"><a xlink:title=" ">
<path fill="none" stroke="#9a32cd" stroke-dasharray="5,2" d="M1182.21,-191.01C1229.47,-180.93 1291.2,-167.77 1335.79,-158.26"/>
<polygon fill="#9a32cd" stroke="#9a32cd" points="1181.67,-187.55 1172.62,-193.05 1183.13,-194.39 1181.67,-187.55"/>
</a>
</g>
<text text-anchor="middle" x="1270.62" y="-182.62" font-family="Helvetica,sans-Serif" font-size="10.00" fill="grey"> hdr_render_target_</text>
</g>
<!-- Node11 -->
<g id="Node000011" class="node">
<title>Node11</title>
<g id="a_Node000011"><a xlink:href="../../df/de1/classengine_1_1direct3d_1_1_render_target_base.html" target="_top" xlink:title="The render target base class.">
<polygon fill="white" stroke="#666666" points="908.12,-218.12 789.38,-218.12 789.38,-187.62 908.12,-187.62 908.12,-218.12"/>
<text text-anchor="start" x="797.38" y="-204.62" font-family="Helvetica,sans-Serif" font-size="10.00">engine::direct3d::Render</text>
<text text-anchor="middle" x="848.75" y="-193.38" font-family="Helvetica,sans-Serif" font-size="10.00">TargetBase</text>
</a>
</g>
</g>
<!-- Node11&#45;&gt;Node10 -->
<g id="edge10_Node000010_Node000011" class="edge">
<title>Node11&#45;&gt;Node10</title>
<g id="a_edge10_Node000010_Node000011"><a xlink:title=" ">
<path fill="none" stroke="#63b8ff" d="M919.94,-203.68C961.21,-204.16 1012.79,-204.75 1051.87,-205.2"/>
<polygon fill="#63b8ff" stroke="#63b8ff" points="920.15,-200.18 910.11,-203.57 920.06,-207.18 920.15,-200.18"/>
</a>
</g>
</g>
<!-- Node12 -->
<g id="Node000012" class="node">
<title>Node12</title>
<g id="a_Node000012"><a xlink:href="../../df/d47/classengine_1_1direct3d_1_1d3d__resource__wrapper.html" target="_top" xlink:title=" ">
<polygon fill="white" stroke="#666666" points="633.75,-271.12 442.25,-271.12 442.25,-240.62 633.75,-240.62 633.75,-271.12"/>
<text text-anchor="start" x="450.25" y="-257.62" font-family="Helvetica,sans-Serif" font-size="10.00">engine::direct3d::d3d</text>
<text text-anchor="middle" x="538" y="-246.38" font-family="Helvetica,sans-Serif" font-size="10.00">_resource_wrapper&lt; ID3D11Texture2D &gt;</text>
</a>
</g>
</g>
<!-- Node12&#45;&gt;Node11 -->
<g id="edge11_Node000011_Node000012" class="edge">
<title>Node12&#45;&gt;Node11</title>
<g id="a_edge11_Node000011_Node000012"><a xlink:title=" ">
<path fill="none" stroke="#9a32cd" stroke-dasharray="5,2" d="M641.69,-238.25C690.73,-229.83 747.64,-220.06 789.21,-212.92"/>
<polygon fill="#9a32cd" stroke="#9a32cd" points="641.14,-234.79 631.87,-239.93 642.32,-241.69 641.14,-234.79"/>
</a>
</g>
<text text-anchor="middle" x="704.25" y="-236.62" font-family="Helvetica,sans-Serif" font-size="10.00" fill="grey"> render_target_</text>
</g>
<!-- Node13 -->
<g id="Node000013" class="node">
<title>Node13</title>
<g id="a_Node000013"><a xlink:href="../../df/d47/classengine_1_1direct3d_1_1d3d__resource__wrapper.html" target="_top" xlink:title=" ">
<polygon fill="white" stroke="#666666" points="622.88,-222.75 453.12,-222.75 453.12,-181 622.88,-181 622.88,-222.75"/>
<text text-anchor="start" x="461.12" y="-209.25" font-family="Helvetica,sans-Serif" font-size="10.00">engine::direct3d::d3d</text>
<text text-anchor="start" x="461.12" y="-198" font-family="Helvetica,sans-Serif" font-size="10.00">_resource_wrapper&lt; ID3D11Render</text>
<text text-anchor="middle" x="538" y="-186.75" font-family="Helvetica,sans-Serif" font-size="10.00">TargetView &gt;</text>
</a>
</g>
</g>
<!-- Node13&#45;&gt;Node11 -->
<g id="edge12_Node000011_Node000013" class="edge">
<title>Node13&#45;&gt;Node11</title>
<g id="a_edge12_Node000011_Node000013"><a xlink:title=" ">
<path fill="none" stroke="#9a32cd" stroke-dasharray="5,2" d="M634.63,-202.18C685.07,-202.35 745.35,-202.54 788.9,-202.68"/>
<polygon fill="#9a32cd" stroke="#9a32cd" points="634.89,-198.69 624.88,-202.15 634.87,-205.69 634.89,-198.69"/>
</a>
</g>
<text text-anchor="middle" x="704.25" y="-203.62" font-family="Helvetica,sans-Serif" font-size="10.00" fill="grey"> render_target_view_</text>
</g>
<!-- Node14 -->
<g id="Node000014" class="node">
<title>Node14</title>
<g id="a_Node000014"><a xlink:href="../../df/d47/classengine_1_1direct3d_1_1d3d__resource__wrapper.html" target="_top" xlink:title=" ">
<polygon fill="white" stroke="#666666" points="622.88,-162.75 453.12,-162.75 453.12,-121 622.88,-121 622.88,-162.75"/>
<text text-anchor="start" x="461.12" y="-149.25" font-family="Helvetica,sans-Serif" font-size="10.00">engine::direct3d::d3d</text>
<text text-anchor="start" x="461.12" y="-138" font-family="Helvetica,sans-Serif" font-size="10.00">_resource_wrapper&lt; ID3D11Shader</text>
<text text-anchor="middle" x="538" y="-126.75" font-family="Helvetica,sans-Serif" font-size="10.00">ResourceView &gt;</text>
</a>
</g>
</g>
<!-- Node14&#45;&gt;Node11 -->
<g id="edge13_Node000011_Node000014" class="edge">
<title>Node14&#45;&gt;Node11</title>
<g id="a_edge13_Node000011_Node000014"><a xlink:title=" ">
<path fill="none" stroke="#9a32cd" stroke-dasharray="5,2" d="M634.63,-160.77C685.07,-170.73 745.35,-182.64 788.9,-191.25"/>
<polygon fill="#9a32cd" stroke="#9a32cd" points="635.34,-157.34 624.85,-158.84 633.98,-164.21 635.34,-157.34"/>
</a>
</g>
<text text-anchor="middle" x="704.25" y="-185.62" font-family="Helvetica,sans-Serif" font-size="10.00" fill="grey"> shader_resource_view_</text>
</g>
<!-- Node15 -->
<g id="Node000015" class="node">
<title>Node15</title>
<g id="a_Node000015"><a xlink:href="../../d2/db0/classengine_1_1direct3d_1_1_dynamic_uniform_buffer.html" target="_top" xlink:title=" ">
<polygon fill="white" stroke="#666666" points="1174.25,-172.38 1048.75,-172.38 1048.75,-119.38 1174.25,-119.38 1174.25,-172.38"/>
<text text-anchor="start" x="1056.75" y="-158.88" font-family="Helvetica,sans-Serif" font-size="10.00">engine::direct3d::Dynamic</text>
<text text-anchor="start" x="1056.75" y="-147.62" font-family="Helvetica,sans-Serif" font-size="10.00">UniformBuffer&lt; engine::</text>
<text text-anchor="start" x="1056.75" y="-136.38" font-family="Helvetica,sans-Serif" font-size="10.00">render::DeferredResolve</text>
<text text-anchor="middle" x="1111.5" y="-125.12" font-family="Helvetica,sans-Serif" font-size="10.00">::DeferredPerFrame &gt;</text>
</a>
</g>
</g>
<!-- Node15&#45;&gt;Node1 -->
<g id="edge14_Node000001_Node000015" class="edge">
<title>Node15&#45;&gt;Node1</title>
<g id="a_edge14_Node000001_Node000015"><a xlink:title=" ">
<path fill="none" stroke="#9a32cd" stroke-dasharray="5,2" d="M1185.88,-145.88C1232.62,-145.88 1292.33,-145.88 1335.78,-145.88"/>
<polygon fill="#9a32cd" stroke="#9a32cd" points="1186.11,-142.38 1176.11,-145.88 1186.11,-149.38 1186.11,-142.38"/>
</a>
</g>
<text text-anchor="middle" x="1270.62" y="-147.62" font-family="Helvetica,sans-Serif" font-size="10.00" fill="grey"> per_frame_buffer_</text>
</g>
<!-- Node16 -->
<g id="Node000016" class="node">
<title>Node16</title>
<g id="a_Node000016"><a xlink:href="../../df/d0e/classengine_1_1direct3d_1_1_dynamic_buffer.html" target="_top" xlink:title="The dynamic buffer class.">
<polygon fill="white" stroke="#666666" points="911.5,-149.12 786,-149.12 786,-118.62 911.5,-118.62 911.5,-149.12"/>
<text text-anchor="start" x="794" y="-135.62" font-family="Helvetica,sans-Serif" font-size="10.00">engine::direct3d::Dynamic</text>
<text text-anchor="middle" x="848.75" y="-124.38" font-family="Helvetica,sans-Serif" font-size="10.00">Buffer&lt; T &gt;</text>
</a>
</g>
</g>
<!-- Node16&#45;&gt;Node15 -->
<g id="edge15_Node000015_Node000016" class="edge">
<title>Node16&#45;&gt;Node15</title>
<g id="a_edge15_Node000015_Node000016"><a xlink:title=" ">
<path fill="none" stroke="#8b1a1a" d="M923.29,-137.26C962.75,-139.08 1010.84,-141.29 1048.4,-143.02"/>
<polygon fill="#8b1a1a" stroke="#8b1a1a" points="923.54,-133.77 913.39,-136.8 923.22,-140.76 923.54,-133.77"/>
</a>
</g>
</g>
<!-- Node17 -->
<g id="Node000017" class="node">
<title>Node17</title>
<g id="a_Node000017"><a xlink:href="../../d9/db4/classengine_1_1direct3d_1_1_buffer_base.html" target="_top" xlink:title="Buffer Base class that contains the common functions for all the buffers.">
<polygon fill="white" stroke="#666666" points="594.75,-96.12 481.25,-96.12 481.25,-65.62 594.75,-65.62 594.75,-96.12"/>
<text text-anchor="start" x="489.25" y="-82.62" font-family="Helvetica,sans-Serif" font-size="10.00">engine::direct3d::Buffer</text>
<text text-anchor="middle" x="538" y="-71.38" font-family="Helvetica,sans-Serif" font-size="10.00">Base&lt; T &gt;</text>
</a>
</g>
</g>
<!-- Node17&#45;&gt;Node16 -->
<g id="edge16_Node000016_Node000017" class="edge">
<title>Node17&#45;&gt;Node16</title>
<g id="a_edge16_Node000016_Node000017"><a xlink:title=" ">
<path fill="none" stroke="#63b8ff" d="M605.97,-92.37C659.36,-101.54 733.55,-114.27 785.62,-123.21"/>
<polygon fill="#63b8ff" stroke="#63b8ff" points="606.85,-88.97 596.4,-90.73 605.67,-95.87 606.85,-88.97"/>
</a>
</g>
</g>
<!-- Node21 -->
<g id="Node000021" class="node">
<title>Node21</title>
<g id="a_Node000021"><a xlink:href="../../df/d0e/classengine_1_1direct3d_1_1_dynamic_buffer.html" target="_top" xlink:title="The dynamic buffer class.">
<polygon fill="white" stroke="#666666" points="911.5,-96.12 786,-96.12 786,-65.62 911.5,-65.62 911.5,-96.12"/>
<text text-anchor="start" x="794" y="-82.62" font-family="Helvetica,sans-Serif" font-size="10.00">engine::direct3d::Dynamic</text>
<text text-anchor="middle" x="848.75" y="-71.38" font-family="Helvetica,sans-Serif" font-size="10.00">Buffer&lt; T &gt;</text>
</a>
</g>
</g>
<!-- Node17&#45;&gt;Node21 -->
<g id="edge21_Node000021_Node000017" class="edge">
<title>Node17&#45;&gt;Node21</title>
<g id="a_edge21_Node000021_Node000017"><a xlink:title=" ">
<path fill="none" stroke="#63b8ff" d="M606.31,-80.88C659.67,-80.88 733.66,-80.88 785.62,-80.88"/>
<polygon fill="#63b8ff" stroke="#63b8ff" points="606.43,-77.38 596.43,-80.88 606.43,-84.38 606.43,-77.38"/>
</a>
</g>
</g>
<!-- Node23 -->
<g id="Node000023" class="node">
<title>Node23</title>
<g id="a_Node000023"><a xlink:href="../../df/d0e/classengine_1_1direct3d_1_1_dynamic_buffer.html" target="_top" xlink:title="The dynamic buffer class.">
<polygon fill="white" stroke="#666666" points="911.5,-44.12 786,-44.12 786,-13.62 911.5,-13.62 911.5,-44.12"/>
<text text-anchor="start" x="794" y="-30.62" font-family="Helvetica,sans-Serif" font-size="10.00">engine::direct3d::Dynamic</text>
<text text-anchor="middle" x="848.75" y="-19.38" font-family="Helvetica,sans-Serif" font-size="10.00">Buffer&lt; T &gt;</text>
</a>
</g>
</g>
<!-- Node17&#45;&gt;Node23 -->
<g id="edge24_Node000023_Node000017" class="edge">
<title>Node17&#45;&gt;Node23</title>
<g id="a_edge24_Node000023_Node000017"><a xlink:title=" ">
<path fill="none" stroke="#63b8ff" d="M605.97,-69.6C659.36,-60.6 733.55,-48.11 785.62,-39.34"/>
<polygon fill="#63b8ff" stroke="#63b8ff" points="605.68,-66.09 596.4,-71.21 606.85,-73 605.68,-66.09"/>
</a>
</g>
</g>
<!-- Node18 -->
<g id="Node000018" class="node">
<title>Node18</title>
<g id="a_Node000018"><a xlink:href="../../d6/de4/classengine_1_1direct3d_1_1_buffer_wrapper.html" target="_top" xlink:title="A wrapper for a D3D11 buffer.">
<polygon fill="white" stroke="#666666" points="372.12,-96.12 258.62,-96.12 258.62,-65.62 372.12,-65.62 372.12,-96.12"/>
<text text-anchor="start" x="266.62" y="-82.62" font-family="Helvetica,sans-Serif" font-size="10.00">engine::direct3d::Buffer</text>
<text text-anchor="middle" x="315.38" y="-71.38" font-family="Helvetica,sans-Serif" font-size="10.00">Wrapper</text>
</a>
</g>
</g>
<!-- Node18&#45;&gt;Node17 -->
<g id="edge17_Node000017_Node000018" class="edge">
<title>Node18&#45;&gt;Node17</title>
<g id="a_edge17_Node000017_Node000018"><a xlink:title=" ">
<path fill="none" stroke="#8b1a1a" d="M383.8,-80.88C414.87,-80.88 451.31,-80.88 480.86,-80.88"/>
<polygon fill="#8b1a1a" stroke="#8b1a1a" points="384.13,-77.38 374.13,-80.88 384.13,-84.38 384.13,-77.38"/>
</a>
</g>
</g>
<!-- Node19 -->
<g id="Node000019" class="node">
<title>Node19</title>
<g id="a_Node000019"><a xlink:href="../../df/d47/classengine_1_1direct3d_1_1d3d__resource__wrapper.html" target="_top" xlink:title=" ">
<polygon fill="white" stroke="#666666" points="172.75,-96.12 0,-96.12 0,-65.62 172.75,-65.62 172.75,-96.12"/>
<text text-anchor="start" x="8" y="-82.62" font-family="Helvetica,sans-Serif" font-size="10.00">engine::direct3d::d3d</text>
<text text-anchor="middle" x="86.38" y="-71.38" font-family="Helvetica,sans-Serif" font-size="10.00">_resource_wrapper&lt; ID3D11Buffer &gt;</text>
</a>
</g>
</g>
<!-- Node19&#45;&gt;Node18 -->
<g id="edge18_Node000018_Node000019" class="edge">
<title>Node19&#45;&gt;Node18</title>
<g id="a_edge18_Node000018_Node000019"><a xlink:title=" ">
<path fill="none" stroke="#9a32cd" stroke-dasharray="5,2" d="M184.66,-80.88C209.83,-80.88 236.08,-80.88 258.33,-80.88"/>
<polygon fill="#9a32cd" stroke="#9a32cd" points="184.71,-77.38 174.71,-80.88 184.71,-84.38 184.71,-77.38"/>
</a>
</g>
<text text-anchor="middle" x="211.38" y="-82.62" font-family="Helvetica,sans-Serif" font-size="10.00" fill="grey"> buffer_</text>
</g>
<!-- Node20 -->
<g id="Node000020" class="node">
<title>Node20</title>
<g id="a_Node000020"><a xlink:href="../../d5/dbb/classengine_1_1direct3d_1_1_dynamic_vertex_buffer.html" target="_top" xlink:title=" ">
<polygon fill="white" stroke="#666666" points="1205,-101.75 1018,-101.75 1018,-60 1205,-60 1205,-101.75"/>
<text text-anchor="start" x="1026" y="-88.25" font-family="Helvetica,sans-Serif" font-size="10.00">engine::direct3d::Dynamic</text>
<text text-anchor="start" x="1026" y="-77" font-family="Helvetica,sans-Serif" font-size="10.00">VertexBuffer&lt; engine::render</text>
<text text-anchor="middle" x="1111.5" y="-65.75" font-family="Helvetica,sans-Serif" font-size="10.00">::DeferredResolve::PointLightInstance &gt;</text>
</a>
</g>
</g>
<!-- Node20&#45;&gt;Node1 -->
<g id="edge19_Node000001_Node000020" class="edge">
<title>Node20&#45;&gt;Node1</title>
<g id="a_edge19_Node000001_Node000020"><a xlink:title=" ">
<path fill="none" stroke="#9a32cd" stroke-dasharray="5,2" d="M1216.34,-97.13C1249.18,-103.12 1285.44,-110.61 1318.25,-119.38 1329.54,-122.39 1341.56,-126.28 1352.62,-130.15"/>
<polygon fill="#9a32cd" stroke="#9a32cd" points="1217.3,-93.75 1206.84,-95.43 1216.07,-100.64 1217.3,-93.75"/>
</a>
</g>
<text text-anchor="start" x="1226.38" y="-132.88" font-family="Helvetica,sans-Serif" font-size="10.00" fill="grey"> point_light_instance</text>
<text text-anchor="middle" x="1270.62" y="-121.62" font-family="Helvetica,sans-Serif" font-size="10.00" fill="grey">_buffer_</text>
</g>
<!-- Node21&#45;&gt;Node20 -->
<g id="edge20_Node000020_Node000021" class="edge">
<title>Node21&#45;&gt;Node20</title>
<g id="a_edge20_Node000020_Node000021"><a xlink:title=" ">
<path fill="none" stroke="#63b8ff" d="M923.28,-80.88C952.62,-80.88 986.72,-80.88 1017.72,-80.88"/>
<polygon fill="#63b8ff" stroke="#63b8ff" points="923.39,-77.38 913.39,-80.88 923.39,-84.38 923.39,-77.38"/>
</a>
</g>
</g>
<!-- Node22 -->
<g id="Node000022" class="node">
<title>Node22</title>
<g id="a_Node000022"><a xlink:href="../../d5/dbb/classengine_1_1direct3d_1_1_dynamic_vertex_buffer.html" target="_top" xlink:title=" ">
<polygon fill="white" stroke="#666666" points="1203.88,-41.75 1019.12,-41.75 1019.12,0 1203.88,0 1203.88,-41.75"/>
<text text-anchor="start" x="1027.12" y="-28.25" font-family="Helvetica,sans-Serif" font-size="10.00">engine::direct3d::Dynamic</text>
<text text-anchor="start" x="1027.12" y="-17" font-family="Helvetica,sans-Serif" font-size="10.00">VertexBuffer&lt; engine::render</text>
<text text-anchor="middle" x="1111.5" y="-5.75" font-family="Helvetica,sans-Serif" font-size="10.00">::DeferredResolve::SpotLightInstance &gt;</text>
</a>
</g>
</g>
<!-- Node22&#45;&gt;Node1 -->
<g id="edge22_Node000001_Node000022" class="edge">
<title>Node22&#45;&gt;Node1</title>
<g id="a_edge22_Node000001_Node000022"><a xlink:title=" ">
<path fill="none" stroke="#9a32cd" stroke-dasharray="5,2" d="M1215.19,-35.52C1249.43,-43.23 1286.83,-54.87 1318.25,-72.38 1344.64,-87.08 1368.43,-113.36 1382.01,-130.19"/>
<polygon fill="#9a32cd" stroke="#9a32cd" points="1216.19,-32.16 1205.68,-33.47 1214.72,-39 1216.19,-32.16"/>
</a>
</g>
<text text-anchor="start" x="1227.5" y="-85.88" font-family="Helvetica,sans-Serif" font-size="10.00" fill="grey"> spot_light_instance</text>
<text text-anchor="middle" x="1270.62" y="-74.62" font-family="Helvetica,sans-Serif" font-size="10.00" fill="grey">_buffer_</text>
</g>
<!-- Node23&#45;&gt;Node22 -->
<g id="edge23_Node000022_Node000023" class="edge">
<title>Node23&#45;&gt;Node22</title>
<g id="a_edge23_Node000022_Node000023"><a xlink:title=" ">
<path fill="none" stroke="#63b8ff" d="M923,-26.63C952.71,-25.72 987.36,-24.65 1018.73,-23.69"/>
<polygon fill="#63b8ff" stroke="#63b8ff" points="923.28,-23.12 913.39,-26.92 923.49,-30.11 923.28,-23.12"/>
</a>
</g>
</g>
</g>
</svg>
