<?xml version="1.0" encoding="UTF-8" standalone="no"?>
<!DOCTYPE svg PUBLIC "-//W3C//DTD SVG 1.1//EN"
 "http://www.w3.org/Graphics/SVG/1.1/DTD/svg11.dtd">
<!-- Generated by graphviz version 8.1.0 (20230707.0739)
 -->
<!-- Title: engine/core/window.hpp Pages: 1 -->
<svg width="2000pt" height="415pt"
 viewBox="0.00 0.00 2000.00 415.00" xmlns="http://www.w3.org/2000/svg" xmlns:xlink="http://www.w3.org/1999/xlink">
<g id="graph0" class="graph" transform="scale(1 1) rotate(0) translate(4 411)">
<title>engine/core/window.hpp</title>
<!-- Node1 -->
<g id="Node000001" class="node">
<title>Node1</title>
<g id="a_Node000001"><a xlink:title=" ">
<polygon fill="#999999" stroke="#666666" points="1840,-407 1719.75,-407 1719.75,-387.75 1840,-387.75 1840,-407"/>
<text text-anchor="middle" x="1779.88" y="-393.5" font-family="Helvetica,sans-Serif" font-size="10.00">engine/core/window.hpp</text>
</a>
</g>
</g>
<!-- Node2 -->
<g id="Node000002" class="node">
<title>Node2</title>
<g id="a_Node000002"><a xlink:href="../../d7/dfb/imgui-layer_8hpp.html" target="_top" xlink:title=" ">
<polygon fill="white" stroke="#666666" points="1762.25,-351.75 1667.5,-351.75 1667.5,-321.25 1762.25,-321.25 1762.25,-351.75"/>
<text text-anchor="start" x="1675.5" y="-338.25" font-family="Helvetica,sans-Serif" font-size="10.00">engine/core/layers</text>
<text text-anchor="middle" x="1714.88" y="-327" font-family="Helvetica,sans-Serif" font-size="10.00">/imgui&#45;layer.hpp</text>
</a>
</g>
</g>
<!-- Node1&#45;&gt;Node2 -->
<g id="edge1_Node000001_Node000002" class="edge">
<title>Node1&#45;&gt;Node2</title>
<g id="a_edge1_Node000001_Node000002"><a xlink:title=" ">
<path fill="none" stroke="#63b8ff" d="M1762.13,-380.31C1752.39,-371.48 1740.39,-360.61 1730.92,-352.03"/>
<polygon fill="#63b8ff" stroke="#63b8ff" points="1759.24,-382.31 1769,-386.43 1763.94,-377.13 1759.24,-382.31"/>
</a>
</g>
</g>
<!-- Node25 -->
<g id="Node000025" class="node">
<title>Node25</title>
<g id="a_Node000025"><a xlink:href="../../d6/dd5/windows-window_8hpp.html" target="_top" xlink:title=" ">
<polygon fill="white" stroke="#666666" points="1963.88,-351.75 1839.88,-351.75 1839.88,-321.25 1963.88,-321.25 1963.88,-351.75"/>
<text text-anchor="start" x="1847.88" y="-338.25" font-family="Helvetica,sans-Serif" font-size="10.00">engine/platform/windows</text>
<text text-anchor="middle" x="1901.88" y="-327" font-family="Helvetica,sans-Serif" font-size="10.00">/windows&#45;window.hpp</text>
</a>
</g>
</g>
<!-- Node1&#45;&gt;Node25 -->
<g id="edge32_Node000001_Node000025" class="edge">
<title>Node1&#45;&gt;Node25</title>
<g id="a_edge32_Node000001_Node000025"><a xlink:title=" ">
<path fill="none" stroke="#63b8ff" d="M1808.5,-382.56C1827.41,-373.44 1852.16,-361.49 1871.42,-352.19"/>
<polygon fill="#63b8ff" stroke="#63b8ff" points="1807.16,-379.81 1799.67,-387.3 1810.2,-386.11 1807.16,-379.81"/>
</a>
</g>
</g>
<!-- Node3 -->
<g id="Node000003" class="node">
<title>Node3</title>
<g id="a_Node000003"><a xlink:href="../../d4/d87/layers_8hpp.html" target="_top" xlink:title=" ">
<polygon fill="white" stroke="#666666" points="1638.25,-218.75 1525.5,-218.75 1525.5,-199.5 1638.25,-199.5 1638.25,-218.75"/>
<text text-anchor="middle" x="1581.88" y="-205.25" font-family="Helvetica,sans-Serif" font-size="10.00">engine/core/layers.hpp</text>
</a>
</g>
</g>
<!-- Node2&#45;&gt;Node3 -->
<g id="edge2_Node000002_Node000003" class="edge">
<title>Node2&#45;&gt;Node3</title>
<g id="a_edge2_Node000002_Node000003"><a xlink:title=" ">
<path fill="none" stroke="#63b8ff" d="M1656.85,-321.36C1636.55,-313.74 1615.27,-302.28 1600.88,-285.25 1584.55,-265.93 1581.96,-234.47 1581.73,-219.12"/>
<polygon fill="#63b8ff" stroke="#63b8ff" points="1655.42,-324.92 1666.01,-324.9 1657.72,-318.3 1655.42,-324.92"/>
</a>
</g>
</g>
<!-- Node22 -->
<g id="Node000022" class="node">
<title>Node22</title>
<g id="a_Node000022"><a xlink:href="../../db/ded/imgui-layer_8cpp.html" target="_top" xlink:title=" ">
<polygon fill="white" stroke="#666666" points="1704.25,-285.25 1609.5,-285.25 1609.5,-254.75 1704.25,-254.75 1704.25,-285.25"/>
<text text-anchor="start" x="1617.5" y="-271.75" font-family="Helvetica,sans-Serif" font-size="10.00">engine/core/layers</text>
<text text-anchor="middle" x="1656.88" y="-260.5" font-family="Helvetica,sans-Serif" font-size="10.00">/imgui&#45;layer.cpp</text>
</a>
</g>
</g>
<!-- Node2&#45;&gt;Node22 -->
<g id="edge25_Node000002_Node000022" class="edge">
<title>Node2&#45;&gt;Node22</title>
<g id="a_edge25_Node000002_Node000022"><a xlink:title=" ">
<path fill="none" stroke="#63b8ff" d="M1694.59,-312.94C1686.42,-303.86 1677.24,-293.65 1669.98,-285.58"/>
<polygon fill="#63b8ff" stroke="#63b8ff" points="1691.42,-314.77 1700.71,-319.86 1696.63,-310.09 1691.42,-314.77"/>
</a>
</g>
</g>
<!-- Node23 -->
<g id="Node000023" class="node">
<title>Node23</title>
<g id="a_Node000023"><a xlink:href="../../d9/d06/render-pipeline_8hpp.html" target="_top" xlink:title=" ">
<polygon fill="white" stroke="#666666" points="1821.88,-285.25 1721.88,-285.25 1721.88,-254.75 1821.88,-254.75 1821.88,-285.25"/>
<text text-anchor="start" x="1729.88" y="-271.75" font-family="Helvetica,sans-Serif" font-size="10.00">engine/core/layers</text>
<text text-anchor="middle" x="1771.88" y="-260.5" font-family="Helvetica,sans-Serif" font-size="10.00">/render&#45;pipeline.hpp</text>
</a>
</g>
</g>
<!-- Node2&#45;&gt;Node23 -->
<g id="edge26_Node000002_Node000023" class="edge">
<title>Node2&#45;&gt;Node23</title>
<g id="a_edge26_Node000002_Node000023"><a xlink:title=" ">
<path fill="none" stroke="#63b8ff" d="M1735.06,-312.66C1743.02,-303.65 1751.93,-293.57 1758.99,-285.58"/>
<polygon fill="#63b8ff" stroke="#63b8ff" points="1732.81,-310.05 1728.81,-319.86 1738.05,-314.69 1732.81,-310.05"/>
</a>
</g>
</g>
<!-- Node4 -->
<g id="Node000004" class="node">
<title>Node4</title>
<g id="a_Node000004"><a xlink:href="../../de/d46/engine_8hpp.html" target="_top" xlink:title=" ">
<polygon fill="white" stroke="#666666" points="1214.75,-157.88 1099,-157.88 1099,-138.62 1214.75,-138.62 1214.75,-157.88"/>
<text text-anchor="middle" x="1156.88" y="-144.38" font-family="Helvetica,sans-Serif" font-size="10.00">engine/core/engine.hpp</text>
</a>
</g>
</g>
<!-- Node3&#45;&gt;Node4 -->
<g id="edge3_Node000003_Node000004" class="edge">
<title>Node3&#45;&gt;Node4</title>
<g id="a_edge3_Node000003_Node000004"><a xlink:title=" ">
<path fill="none" stroke="#63b8ff" d="M1514.66,-198.81C1432.01,-187.36 1293.11,-168.12 1214.91,-157.29"/>
<polygon fill="#63b8ff" stroke="#63b8ff" points="1514.05,-202.4 1524.44,-200.31 1515.01,-195.47 1514.05,-202.4"/>
</a>
</g>
</g>
<!-- Node5 -->
<g id="Node000005" class="node">
<title>Node5</title>
<g id="a_Node000005"><a xlink:href="../../d0/d86/camera-movement_8hpp.html" target="_top" xlink:title=" ">
<polygon fill="white" stroke="#666666" points="1153.62,-85.75 998.12,-85.75 998.12,-66.5 1153.62,-66.5 1153.62,-85.75"/>
<text text-anchor="middle" x="1075.88" y="-72.25" font-family="Helvetica,sans-Serif" font-size="10.00">d3d_test/camera&#45;movement.hpp</text>
</a>
</g>
</g>
<!-- Node4&#45;&gt;Node5 -->
<g id="edge4_Node000004_Node000005" class="edge">
<title>Node4&#45;&gt;Node5</title>
<g id="a_edge4_Node000004_Node000005"><a xlink:title=" ">
<path fill="none" stroke="#63b8ff" d="M1138.45,-131.3C1122.32,-117.34 1099.47,-97.55 1086.31,-86.16"/>
<polygon fill="#63b8ff" stroke="#63b8ff" points="1135.77,-134.47 1145.62,-138.37 1140.35,-129.18 1135.77,-134.47"/>
</a>
</g>
</g>
<!-- Node8 -->
<g id="Node000008" class="node">
<title>Node8</title>
<g id="a_Node000008"><a xlink:href="../../dc/dfb/controller_8hpp.html" target="_top" xlink:title=" ">
<polygon fill="white" stroke="#666666" points="1926,-85.75 1811.75,-85.75 1811.75,-66.5 1926,-66.5 1926,-85.75"/>
<text text-anchor="middle" x="1868.88" y="-72.25" font-family="Helvetica,sans-Serif" font-size="10.00">d3d_test/controller.hpp</text>
</a>
</g>
</g>
<!-- Node4&#45;&gt;Node8 -->
<g id="edge7_Node000004_Node000008" class="edge">
<title>Node4&#45;&gt;Node8</title>
<g id="a_edge7_Node000004_Node000008"><a xlink:title=" ">
<path fill="none" stroke="#63b8ff" d="M1225.95,-146.62C1344.67,-144.49 1594.64,-135.37 1801.88,-97 1815.71,-94.44 1830.77,-90.12 1843.09,-86.16"/>
<polygon fill="#63b8ff" stroke="#63b8ff" points="1226.16,-143.13 1216.22,-146.8 1226.28,-150.13 1226.16,-143.13"/>
</a>
</g>
</g>
<!-- Node9 -->
<g id="Node000009" class="node">
<title>Node9</title>
<g id="a_Node000009"><a xlink:href="../../d9/d0f/main_8cc.html" target="_top" xlink:title=" ">
<polygon fill="white" stroke="#666666" points="1956,-19.25 1865.75,-19.25 1865.75,0 1956,0 1956,-19.25"/>
<text text-anchor="middle" x="1910.88" y="-5.75" font-family="Helvetica,sans-Serif" font-size="10.00">d3d_test/main.cc</text>
</a>
</g>
</g>
<!-- Node4&#45;&gt;Node9 -->
<g id="edge10_Node000004_Node000009" class="edge">
<title>Node4&#45;&gt;Node9</title>
<g id="a_edge10_Node000004_Node000009"><a xlink:title=" ">
<path fill="none" stroke="#63b8ff" d="M1225.63,-145.63C1336.56,-142.05 1549.32,-130.86 1615.88,-97 1638.24,-85.62 1631.88,-67.33 1653.88,-55.25 1721.16,-18.3 1812.01,-10.72 1865.72,-9.81"/>
<polygon fill="#63b8ff" stroke="#63b8ff" points="1225.78,-142.16 1215.89,-145.97 1226,-149.16 1225.78,-142.16"/>
</a>
</g>
</g>
<!-- Node10 -->
<g id="Node000010" class="node">
<title>Node10</title>
<g id="a_Node000010"><a xlink:href="../../da/df5/object-editor_8hpp.html" target="_top" xlink:title=" ">
<polygon fill="white" stroke="#666666" points="201.75,-85.75 74,-85.75 74,-66.5 201.75,-66.5 201.75,-85.75"/>
<text text-anchor="middle" x="137.88" y="-72.25" font-family="Helvetica,sans-Serif" font-size="10.00">d3d_test/object&#45;editor.hpp</text>
</a>
</g>
</g>
<!-- Node4&#45;&gt;Node10 -->
<g id="edge11_Node000004_Node000010" class="edge">
<title>Node4&#45;&gt;Node10</title>
<g id="a_edge11_Node000004_Node000010"><a xlink:title=" ">
<path fill="none" stroke="#63b8ff" d="M1087.67,-145.48C899.23,-140.37 379.84,-124.17 210.88,-97 195.7,-94.56 179.15,-90.2 165.65,-86.18"/>
<polygon fill="#63b8ff" stroke="#63b8ff" points="1087.44,-149.01 1097.53,-145.78 1087.63,-142.01 1087.44,-149.01"/>
</a>
</g>
</g>
<!-- Node13 -->
<g id="Node000013" class="node">
<title>Node13</title>
<g id="a_Node000013"><a xlink:href="../../d9/d55/scene-viewer_8hpp.html" target="_top" xlink:title=" ">
<polygon fill="white" stroke="#666666" points="1304,-85.75 1171.75,-85.75 1171.75,-66.5 1304,-66.5 1304,-85.75"/>
<text text-anchor="middle" x="1237.88" y="-72.25" font-family="Helvetica,sans-Serif" font-size="10.00">d3d_test/scene&#45;viewer.hpp</text>
</a>
</g>
</g>
<!-- Node4&#45;&gt;Node13 -->
<g id="edge15_Node000004_Node000013" class="edge">
<title>Node4&#45;&gt;Node13</title>
<g id="a_edge15_Node000004_Node000013"><a xlink:title=" ">
<path fill="none" stroke="#63b8ff" d="M1175.3,-131.3C1191.43,-117.34 1214.28,-97.55 1227.44,-86.16"/>
<polygon fill="#63b8ff" stroke="#63b8ff" points="1173.4,-129.18 1168.13,-138.37 1177.98,-134.47 1173.4,-129.18"/>
</a>
</g>
</g>
<!-- Node14 -->
<g id="Node000014" class="node">
<title>Node14</title>
<g id="a_Node000014"><a xlink:href="../../da/d5c/engine_8cpp.html" target="_top" xlink:title=" ">
<polygon fill="white" stroke="#666666" points="1437.75,-85.75 1322,-85.75 1322,-66.5 1437.75,-66.5 1437.75,-85.75"/>
<text text-anchor="middle" x="1379.88" y="-72.25" font-family="Helvetica,sans-Serif" font-size="10.00">engine/core/engine.cpp</text>
</a>
</g>
</g>
<!-- Node4&#45;&gt;Node14 -->
<g id="edge17_Node000004_Node000014" class="edge">
<title>Node4&#45;&gt;Node14</title>
<g id="a_edge17_Node000004_Node000014"><a xlink:title=" ">
<path fill="none" stroke="#63b8ff" d="M1195.94,-134.96C1240.22,-121.04 1311.36,-98.67 1350.94,-86.23"/>
<polygon fill="#63b8ff" stroke="#63b8ff" points="1195.06,-131.89 1186.57,-138.23 1197.16,-138.56 1195.06,-131.89"/>
</a>
</g>
</g>
<!-- Node15 -->
<g id="Node000015" class="node">
<title>Node15</title>
<g id="a_Node000015"><a xlink:href="../../d1/da2/deferred-hdr-render-pipeline_8cpp.html" target="_top" xlink:title=" ">
<polygon fill="white" stroke="#666666" points="1793.25,-91.38 1662.5,-91.38 1662.5,-60.88 1793.25,-60.88 1793.25,-91.38"/>
<text text-anchor="start" x="1670.5" y="-77.88" font-family="Helvetica,sans-Serif" font-size="10.00">engine/direct3d11/deferred</text>
<text text-anchor="middle" x="1727.88" y="-66.62" font-family="Helvetica,sans-Serif" font-size="10.00">&#45;hdr&#45;render&#45;pipeline.cpp</text>
</a>
</g>
</g>
<!-- Node4&#45;&gt;Node15 -->
<g id="edge18_Node000004_Node000015" class="edge">
<title>Node4&#45;&gt;Node15</title>
<g id="a_edge18_Node000004_Node000015"><a xlink:title=" ">
<path fill="none" stroke="#63b8ff" d="M1226.16,-143.34C1321.8,-137.23 1499.41,-123.29 1648.88,-97 1656.95,-95.58 1665.43,-93.78 1673.7,-91.85"/>
<polygon fill="#63b8ff" stroke="#63b8ff" points="1225.95,-139.91 1216.19,-144.03 1226.39,-146.9 1225.95,-139.91"/>
</a>
</g>
</g>
<!-- Node16 -->
<g id="Node000016" class="node">
<title>Node16</title>
<g id="a_Node000016"><a xlink:href="../../d8/d30/decal-render-system_8cpp.html" target="_top" xlink:title=" ">
<polygon fill="white" stroke="#666666" points="1606.38,-91.38 1455.38,-91.38 1455.38,-60.88 1606.38,-60.88 1606.38,-91.38"/>
<text text-anchor="start" x="1463.38" y="-77.88" font-family="Helvetica,sans-Serif" font-size="10.00">engine/subsystems/render</text>
<text text-anchor="middle" x="1530.88" y="-66.62" font-family="Helvetica,sans-Serif" font-size="10.00">/detail/decal&#45;render&#45;system.cpp</text>
</a>
</g>
</g>
<!-- Node4&#45;&gt;Node16 -->
<g id="edge19_Node000004_Node000016" class="edge">
<title>Node4&#45;&gt;Node16</title>
<g id="a_edge19_Node000004_Node000016"><a xlink:title=" ">
<path fill="none" stroke="#63b8ff" d="M1225.78,-136.52C1284.68,-127.06 1371.59,-112.41 1446.88,-97 1454.66,-95.41 1462.82,-93.62 1470.86,-91.79"/>
<polygon fill="#63b8ff" stroke="#63b8ff" points="1225.44,-133.19 1216.12,-138.23 1226.55,-140.1 1225.44,-133.19"/>
</a>
</g>
</g>
<!-- Node17 -->
<g id="Node000017" class="node">
<title>Node17</title>
<g id="a_Node000017"><a xlink:href="../../d1/d58/dissolution-render-system_8cpp.html" target="_top" xlink:title=" ">
<polygon fill="white" stroke="#666666" points="349.88,-97 219.88,-97 219.88,-55.25 349.88,-55.25 349.88,-97"/>
<text text-anchor="start" x="227.88" y="-83.5" font-family="Helvetica,sans-Serif" font-size="10.00">engine/subsystems/render</text>
<text text-anchor="start" x="227.88" y="-72.25" font-family="Helvetica,sans-Serif" font-size="10.00">/detail/dissolution&#45;render</text>
<text text-anchor="middle" x="284.88" y="-61" font-family="Helvetica,sans-Serif" font-size="10.00">&#45;system.cpp</text>
</a>
</g>
</g>
<!-- Node4&#45;&gt;Node17 -->
<g id="edge20_Node000004_Node000017" class="edge">
<title>Node4&#45;&gt;Node17</title>
<g id="a_edge20_Node000004_Node000017"><a xlink:title=" ">
<path fill="none" stroke="#63b8ff" d="M1087.98,-147.52C949.09,-147.04 625.95,-140.82 358.88,-97 355.99,-96.53 353.05,-95.99 350.09,-95.4"/>
<polygon fill="#63b8ff" stroke="#63b8ff" points="1087.84,-151.02 1097.85,-147.54 1087.86,-144.02 1087.84,-151.02"/>
</a>
</g>
</g>
<!-- Node18 -->
<g id="Node000018" class="node">
<title>Node18</title>
<g id="a_Node000018"><a xlink:href="../../d2/d11/emissive-particle-render-system_8cpp.html" target="_top" xlink:title=" ">
<polygon fill="white" stroke="#666666" points="497.88,-97 367.88,-97 367.88,-55.25 497.88,-55.25 497.88,-97"/>
<text text-anchor="start" x="375.88" y="-83.5" font-family="Helvetica,sans-Serif" font-size="10.00">engine/subsystems/render</text>
<text text-anchor="start" x="375.88" y="-72.25" font-family="Helvetica,sans-Serif" font-size="10.00">/detail/emissive&#45;particle</text>
<text text-anchor="middle" x="432.88" y="-61" font-family="Helvetica,sans-Serif" font-size="10.00">&#45;render&#45;system.cpp</text>
</a>
</g>
</g>
<!-- Node4&#45;&gt;Node18 -->
<g id="edge21_Node000004_Node000018" class="edge">
<title>Node4&#45;&gt;Node18</title>
<g id="a_edge21_Node000004_Node000018"><a xlink:title=" ">
<path fill="none" stroke="#63b8ff" d="M1087.83,-146.1C968.53,-143.19 716.47,-132.93 506.88,-97 503.99,-96.51 501.06,-95.95 498.1,-95.35"/>
<polygon fill="#63b8ff" stroke="#63b8ff" points="1087.53,-149.62 1097.61,-146.35 1087.69,-142.62 1087.53,-149.62"/>
</a>
</g>
</g>
<!-- Node19 -->
<g id="Node000019" class="node">
<title>Node19</title>
<g id="a_Node000019"><a xlink:href="../../df/d58/grass-render-system_8cpp.html" target="_top" xlink:title=" ">
<polygon fill="white" stroke="#666666" points="667.75,-91.38 516,-91.38 516,-60.88 667.75,-60.88 667.75,-91.38"/>
<text text-anchor="start" x="524" y="-77.88" font-family="Helvetica,sans-Serif" font-size="10.00">engine/subsystems/render</text>
<text text-anchor="middle" x="591.88" y="-66.62" font-family="Helvetica,sans-Serif" font-size="10.00">/detail/grass&#45;render&#45;system.cpp</text>
</a>
</g>
</g>
<!-- Node4&#45;&gt;Node19 -->
<g id="edge22_Node000004_Node000019" class="edge">
<title>Node4&#45;&gt;Node19</title>
<g id="a_edge22_Node000004_Node000019"><a xlink:title=" ">
<path fill="none" stroke="#63b8ff" d="M1087.81,-142.75C994.22,-136.04 822.12,-121.48 676.88,-97 668.21,-95.54 659.1,-93.72 650.21,-91.78"/>
<polygon fill="#63b8ff" stroke="#63b8ff" points="1087.33,-146.3 1097.55,-143.51 1087.83,-139.32 1087.33,-146.3"/>
</a>
</g>
</g>
<!-- Node20 -->
<g id="Node000020" class="node">
<title>Node20</title>
<g id="a_Node000020"><a xlink:href="../../d8/d9c/light-render-system_8cpp.html" target="_top" xlink:title=" ">
<polygon fill="white" stroke="#666666" points="831.75,-91.38 686,-91.38 686,-60.88 831.75,-60.88 831.75,-91.38"/>
<text text-anchor="start" x="694" y="-77.88" font-family="Helvetica,sans-Serif" font-size="10.00">engine/subsystems/render</text>
<text text-anchor="middle" x="758.88" y="-66.62" font-family="Helvetica,sans-Serif" font-size="10.00">/detail/light&#45;render&#45;system.cpp</text>
</a>
</g>
</g>
<!-- Node4&#45;&gt;Node20 -->
<g id="edge23_Node000004_Node000020" class="edge">
<title>Node4&#45;&gt;Node20</title>
<g id="a_edge23_Node000004_Node000020"><a xlink:title=" ">
<path fill="none" stroke="#63b8ff" d="M1087.88,-137.9C1023.67,-128.82 925.45,-113.94 840.88,-97 833.12,-95.45 824.99,-93.66 816.98,-91.82"/>
<polygon fill="#63b8ff" stroke="#63b8ff" points="1087.28,-141.49 1097.67,-139.42 1088.26,-134.56 1087.28,-141.49"/>
</a>
</g>
</g>
<!-- Node21 -->
<g id="Node000021" class="node">
<title>Node21</title>
<g id="a_Node000021"><a xlink:href="../../d3/dfe/particle-render-system_8cpp.html" target="_top" xlink:title=" ">
<polygon fill="white" stroke="#666666" points="979.88,-97 849.88,-97 849.88,-55.25 979.88,-55.25 979.88,-97"/>
<text text-anchor="start" x="857.88" y="-83.5" font-family="Helvetica,sans-Serif" font-size="10.00">engine/subsystems/render</text>
<text text-anchor="start" x="857.88" y="-72.25" font-family="Helvetica,sans-Serif" font-size="10.00">/detail/particle&#45;render</text>
<text text-anchor="middle" x="914.88" y="-61" font-family="Helvetica,sans-Serif" font-size="10.00">&#45;system.cpp</text>
</a>
</g>
</g>
<!-- Node4&#45;&gt;Node21 -->
<g id="edge24_Node000004_Node000021" class="edge">
<title>Node4&#45;&gt;Node21</title>
<g id="a_edge24_Node000004_Node000021"><a xlink:title=" ">
<path fill="none" stroke="#63b8ff" d="M1115.28,-135.2C1078.11,-124.42 1023.03,-108.47 980.02,-96"/>
<polygon fill="#63b8ff" stroke="#63b8ff" points="1114.15,-138.8 1124.73,-138.23 1116.1,-132.08 1114.15,-138.8"/>
</a>
</g>
</g>
<!-- Node6 -->
<g id="Node000006" class="node">
<title>Node6</title>
<g id="a_Node000006"><a xlink:href="../../d5/dbb/camera-movement_8cpp.html" target="_top" xlink:title=" ">
<polygon fill="white" stroke="#666666" points="1153.62,-19.25 998.12,-19.25 998.12,0 1153.62,0 1153.62,-19.25"/>
<text text-anchor="middle" x="1075.88" y="-5.75" font-family="Helvetica,sans-Serif" font-size="10.00">d3d_test/camera&#45;movement.cpp</text>
</a>
</g>
</g>
<!-- Node5&#45;&gt;Node6 -->
<g id="edge5_Node000005_Node000006" class="edge">
<title>Node5&#45;&gt;Node6</title>
<g id="a_edge5_Node000005_Node000006"><a xlink:title=" ">
<path fill="none" stroke="#63b8ff" d="M1075.88,-55.4C1075.88,-43.43 1075.88,-28.73 1075.88,-19.52"/>
<polygon fill="#63b8ff" stroke="#63b8ff" points="1072.38,-55.16 1075.88,-65.16 1079.38,-55.16 1072.38,-55.16"/>
</a>
</g>
</g>
<!-- Node7 -->
<g id="Node000007" class="node">
<title>Node7</title>
<g id="a_Node000007"><a xlink:href="../../d1/d47/controller_8cpp.html" target="_top" xlink:title=" ">
<polygon fill="white" stroke="#666666" points="1291,-19.25 1176.75,-19.25 1176.75,0 1291,0 1291,-19.25"/>
<text text-anchor="middle" x="1233.88" y="-5.75" font-family="Helvetica,sans-Serif" font-size="10.00">d3d_test/controller.cpp</text>
</a>
</g>
</g>
<!-- Node5&#45;&gt;Node7 -->
<g id="edge6_Node000005_Node000007" class="edge">
<title>Node5&#45;&gt;Node7</title>
<g id="a_edge6_Node000005_Node000007"><a xlink:title=" ">
<path fill="none" stroke="#63b8ff" d="M1108.02,-62C1138.88,-49.4 1184.68,-30.71 1211.69,-19.68"/>
<polygon fill="#63b8ff" stroke="#63b8ff" points="1107.11,-59 1099.18,-66.02 1109.76,-65.48 1107.11,-59"/>
</a>
</g>
</g>
<!-- Node8&#45;&gt;Node7 -->
<g id="edge8_Node000008_Node000007" class="edge">
<title>Node8&#45;&gt;Node7</title>
<g id="a_edge8_Node000008_Node000007"><a xlink:title=" ">
<path fill="none" stroke="#63b8ff" d="M1832.77,-62.91C1822.86,-59.97 1812.04,-57.13 1801.88,-55.25 1617.33,-21.02 1394.3,-13.02 1291.23,-11.17"/>
<polygon fill="#63b8ff" stroke="#63b8ff" points="1831.51,-66.49 1842.09,-66.1 1833.57,-59.8 1831.51,-66.49"/>
</a>
</g>
</g>
<!-- Node8&#45;&gt;Node9 -->
<g id="edge9_Node000008_Node000009" class="edge">
<title>Node8&#45;&gt;Node9</title>
<g id="a_edge9_Node000008_Node000009"><a xlink:title=" ">
<path fill="none" stroke="#63b8ff" d="M1880.52,-57.24C1888.51,-44.97 1898.77,-29.21 1905.08,-19.52"/>
<polygon fill="#63b8ff" stroke="#63b8ff" points="1877.24,-54.87 1874.71,-65.16 1883.1,-58.69 1877.24,-54.87"/>
</a>
</g>
</g>
<!-- Node10&#45;&gt;Node7 -->
<g id="edge12_Node000010_Node000007" class="edge">
<title>Node10&#45;&gt;Node7</title>
<g id="a_edge12_Node000010_Node000007"><a xlink:title=" ">
<path fill="none" stroke="#63b8ff" d="M175.63,-63.09C186.86,-59.99 199.26,-57.03 210.88,-55.25 629.42,8.78 740.79,-52.81 1162.88,-19.25 1167.33,-18.9 1171.94,-18.47 1176.57,-18"/>
<polygon fill="#63b8ff" stroke="#63b8ff" points="174.93,-59.94 166.29,-66.07 176.87,-66.66 174.93,-59.94"/>
</a>
</g>
</g>
<!-- Node11 -->
<g id="Node000011" class="node">
<title>Node11</title>
<g id="a_Node000011"><a xlink:href="../../d4/d94/object-editor_8cpp.html" target="_top" xlink:title=" ">
<polygon fill="white" stroke="#666666" points="127.75,-19.25 0,-19.25 0,0 127.75,0 127.75,-19.25"/>
<text text-anchor="middle" x="63.88" y="-5.75" font-family="Helvetica,sans-Serif" font-size="10.00">d3d_test/object&#45;editor.cpp</text>
</a>
</g>
</g>
<!-- Node10&#45;&gt;Node11 -->
<g id="edge13_Node000010_Node000011" class="edge">
<title>Node10&#45;&gt;Node11</title>
<g id="a_edge13_Node000010_Node000011"><a xlink:title=" ">
<path fill="none" stroke="#63b8ff" d="M119.42,-59.04C105.09,-46.55 85.75,-29.69 74.08,-19.52"/>
<polygon fill="#63b8ff" stroke="#63b8ff" points="116.75,-62.22 126.59,-66.16 121.35,-56.95 116.75,-62.22"/>
</a>
</g>
</g>
<!-- Node12 -->
<g id="Node000012" class="node">
<title>Node12</title>
<g id="a_Node000012"><a xlink:href="../../d0/d38/scene-viewer_8cpp.html" target="_top" xlink:title=" ">
<polygon fill="white" stroke="#666666" points="278,-19.25 145.75,-19.25 145.75,0 278,0 278,-19.25"/>
<text text-anchor="middle" x="211.88" y="-5.75" font-family="Helvetica,sans-Serif" font-size="10.00">d3d_test/scene&#45;viewer.cpp</text>
</a>
</g>
</g>
<!-- Node10&#45;&gt;Node12 -->
<g id="edge14_Node000010_Node000012" class="edge">
<title>Node10&#45;&gt;Node12</title>
<g id="a_edge14_Node000010_Node000012"><a xlink:title=" ">
<path fill="none" stroke="#63b8ff" d="M156.33,-59.04C170.66,-46.55 190,-29.69 201.67,-19.52"/>
<polygon fill="#63b8ff" stroke="#63b8ff" points="154.4,-56.95 149.16,-66.16 159,-62.22 154.4,-56.95"/>
</a>
</g>
</g>
<!-- Node13&#45;&gt;Node7 -->
<g id="edge16_Node000013_Node000007" class="edge">
<title>Node13&#45;&gt;Node7</title>
<g id="a_edge16_Node000013_Node000007"><a xlink:title=" ">
<path fill="none" stroke="#63b8ff" d="M1236.65,-55.4C1235.91,-43.43 1235,-28.73 1234.43,-19.52"/>
<polygon fill="#63b8ff" stroke="#63b8ff" points="1233.21,-55.39 1237.32,-65.16 1240.19,-54.96 1233.21,-55.39"/>
</a>
</g>
</g>
<!-- Node23&#45;&gt;Node3 -->
<g id="edge27_Node000023_Node000003" class="edge">
<title>Node23&#45;&gt;Node3</title>
<g id="a_edge27_Node000023_Node000003"><a xlink:title=" ">
<path fill="none" stroke="#63b8ff" d="M1714.14,-251.11C1680.17,-240.58 1638.65,-227.72 1611.29,-219.24"/>
<polygon fill="#63b8ff" stroke="#63b8ff" points="1712.83,-254.68 1723.42,-254.3 1714.9,-247.99 1712.83,-254.68"/>
</a>
</g>
</g>
<!-- Node24 -->
<g id="Node000024" class="node">
<title>Node24</title>
<g id="a_Node000024"><a xlink:href="../../db/df9/deferred-hdr-render-pipeline_8hpp.html" target="_top" xlink:title=" ">
<polygon fill="white" stroke="#666666" points="1909.25,-163.5 1778.5,-163.5 1778.5,-133 1909.25,-133 1909.25,-163.5"/>
<text text-anchor="start" x="1786.5" y="-150" font-family="Helvetica,sans-Serif" font-size="10.00">engine/direct3d11/deferred</text>
<text text-anchor="middle" x="1843.88" y="-138.75" font-family="Helvetica,sans-Serif" font-size="10.00">&#45;hdr&#45;render&#45;pipeline.hpp</text>
</a>
</g>
</g>
<!-- Node23&#45;&gt;Node24 -->
<g id="edge28_Node000023_Node000024" class="edge">
<title>Node23&#45;&gt;Node24</title>
<g id="a_edge28_Node000023_Node000024"><a xlink:title=" ">
<path fill="none" stroke="#63b8ff" d="M1786.27,-245.05C1800.9,-220.73 1823.07,-183.85 1835.2,-163.68"/>
<polygon fill="#63b8ff" stroke="#63b8ff" points="1782.86,-242.94 1780.7,-253.32 1788.86,-246.55 1782.86,-242.94"/>
</a>
</g>
</g>
<!-- Node24&#45;&gt;Node8 -->
<g id="edge29_Node000024_Node000008" class="edge">
<title>Node24&#45;&gt;Node8</title>
<g id="a_edge29_Node000024_Node000008"><a xlink:title=" ">
<path fill="none" stroke="#63b8ff" d="M1852.65,-122.64C1857.2,-109.86 1862.48,-95.05 1865.75,-85.88"/>
<polygon fill="#63b8ff" stroke="#63b8ff" points="1849.12,-121.13 1849.06,-131.72 1855.71,-123.48 1849.12,-121.13"/>
</a>
</g>
</g>
<!-- Node24&#45;&gt;Node9 -->
<g id="edge30_Node000024_Node000009" class="edge">
<title>Node24&#45;&gt;Node9</title>
<g id="a_edge30_Node000024_Node000009"><a xlink:title=" ">
<path fill="none" stroke="#63b8ff" d="M1900.47,-127.92C1914.09,-120.45 1926.98,-110.39 1934.88,-97 1949.98,-71.4 1929.19,-35.92 1917.65,-19.55"/>
<polygon fill="#63b8ff" stroke="#63b8ff" points="1899.35,-125.07 1891.98,-132.68 1902.48,-131.33 1899.35,-125.07"/>
</a>
</g>
</g>
<!-- Node24&#45;&gt;Node15 -->
<g id="edge31_Node000024_Node000015" class="edge">
<title>Node24&#45;&gt;Node15</title>
<g id="a_edge31_Node000024_Node000015"><a xlink:title=" ">
<path fill="none" stroke="#63b8ff" d="M1810.26,-126.93C1791.68,-115.7 1769.01,-101.99 1752.16,-91.81"/>
<polygon fill="#63b8ff" stroke="#63b8ff" points="1808.19,-130.37 1818.56,-132.55 1811.81,-124.38 1808.19,-130.37"/>
</a>
</g>
</g>
<!-- Node25&#45;&gt;Node9 -->
<g id="edge33_Node000025_Node000009" class="edge">
<title>Node25&#45;&gt;Node9</title>
<g id="a_edge33_Node000025_Node000009"><a xlink:title=" ">
<path fill="none" stroke="#63b8ff" d="M1940.64,-315.26C1952.53,-307.35 1964.64,-297.26 1972.88,-285.25 1992.36,-256.85 1991.88,-244.57 1991.88,-210.12 1991.88,-210.12 1991.88,-210.12 1991.88,-147.25 1991.88,-92.1 1942.44,-39.73 1920.81,-19.46"/>
<polygon fill="#63b8ff" stroke="#63b8ff" points="1939.28,-312.61 1932.66,-320.89 1942.99,-318.55 1939.28,-312.61"/>
</a>
</g>
</g>
<!-- Node26 -->
<g id="Node000026" class="node">
<title>Node26</title>
<g id="a_Node000026"><a xlink:href="../../d7/dc7/windows-window_8cpp.html" target="_top" xlink:title=" ">
<polygon fill="white" stroke="#666666" points="1963.88,-285.25 1839.88,-285.25 1839.88,-254.75 1963.88,-254.75 1963.88,-285.25"/>
<text text-anchor="start" x="1847.88" y="-271.75" font-family="Helvetica,sans-Serif" font-size="10.00">engine/platform/windows</text>
<text text-anchor="middle" x="1901.88" y="-260.5" font-family="Helvetica,sans-Serif" font-size="10.00">/windows&#45;window.cpp</text>
</a>
</g>
</g>
<!-- Node25&#45;&gt;Node26 -->
<g id="edge34_Node000025_Node000026" class="edge">
<title>Node25&#45;&gt;Node26</title>
<g id="a_edge34_Node000025_Node000026"><a xlink:title=" ">
<path fill="none" stroke="#63b8ff" d="M1901.88,-310.13C1901.88,-301.8 1901.88,-292.83 1901.88,-285.58"/>
<polygon fill="#63b8ff" stroke="#63b8ff" points="1898.38,-309.86 1901.88,-319.86 1905.38,-309.86 1898.38,-309.86"/>
</a>
</g>
</g>
</g>
</svg>
