<?xml version="1.0" encoding="UTF-8" standalone="no"?>
<!DOCTYPE svg PUBLIC "-//W3C//DTD SVG 1.1//EN"
 "http://www.w3.org/Graphics/SVG/1.1/DTD/svg11.dtd">
<!-- Generated by graphviz version 9.0.0 (20230911.1827)
 -->
<!-- Title: engine/core/window.hpp Pages: 1 -->
<svg width="2000pt" height="415pt"
 viewBox="0.00 0.00 2000.00 415.00" xmlns="http://www.w3.org/2000/svg" xmlns:xlink="http://www.w3.org/1999/xlink">
<g id="graph0" class="graph" transform="scale(1 1) rotate(0) translate(4 411)">
<title>engine/core/window.hpp</title>
<!-- Node1 -->
<g id="Node000001" class="node">
<title>Node1</title>
<g id="a_Node000001"><a xlink:title=" ">
<polygon fill="#999999" stroke="#666666" points="1840,-407 1719.75,-407 1719.75,-387.75 1840,-387.75 1840,-407"/>
<text text-anchor="middle" x="1779.88" y="-393.5" font-family="Helvetica,sans-Serif" font-size="10.00">engine/core/window.hpp</text>
</a>
</g>
</g>
<!-- Node2 -->
<g id="Node000002" class="node">
<title>Node2</title>
<g id="a_Node000002"><a xlink:href="../../d7/dfb/imgui-layer_8hpp.html" target="_top" xlink:title=" ">
<polygon fill="white" stroke="#666666" points="1762.25,-351.75 1667.5,-351.75 1667.5,-321.25 1762.25,-321.25 1762.25,-351.75"/>
<text text-anchor="start" x="1675.5" y="-338.25" font-family="Helvetica,sans-Serif" font-size="10.00">engine/core/layers</text>
<text text-anchor="middle" x="1714.88" y="-327" font-family="Helvetica,sans-Serif" font-size="10.00">/imgui&#45;layer.hpp</text>
</a>
</g>
</g>
<!-- Node1&#45;&gt;Node2 -->
<g id="edge1_Node000001_Node000002" class="edge">
<title>Node1&#45;&gt;Node2</title>
<g id="a_edge1_Node000001_Node000002"><a xlink:title=" ">
<path fill="none" stroke="#63b8ff" d="M1761.54,-379.77C1751.9,-371.04 1740.2,-360.43 1730.92,-352.03"/>
<polygon fill="#63b8ff" stroke="#63b8ff" points="1759.12,-382.3 1768.88,-386.42 1763.82,-377.11 1759.12,-382.3"/>
</a>
</g>
</g>
<!-- Node25 -->
<g id="Node000025" class="node">
<title>Node25</title>
<g id="a_Node000025"><a xlink:href="../../d6/dd5/windows-window_8hpp.html" target="_top" xlink:title=" ">
<polygon fill="white" stroke="#666666" points="1963.88,-351.75 1839.88,-351.75 1839.88,-321.25 1963.88,-321.25 1963.88,-351.75"/>
<text text-anchor="start" x="1847.88" y="-338.25" font-family="Helvetica,sans-Serif" font-size="10.00">engine/platform/windows</text>
<text text-anchor="middle" x="1901.88" y="-327" font-family="Helvetica,sans-Serif" font-size="10.00">/windows&#45;window.hpp</text>
</a>
</g>
</g>
<!-- Node1&#45;&gt;Node25 -->
<g id="edge32_Node000001_Node000025" class="edge">
<title>Node1&#45;&gt;Node25</title>
<g id="a_edge32_Node000001_Node000025"><a xlink:title=" ">
<path fill="none" stroke="#63b8ff" d="M1809.03,-382.31C1827.87,-373.22 1852.34,-361.41 1871.42,-352.19"/>
<polygon fill="#63b8ff" stroke="#63b8ff" points="1807.52,-379.15 1800.03,-386.65 1810.56,-385.45 1807.52,-379.15"/>
</a>
</g>
</g>
<!-- Node3 -->
<g id="Node000003" class="node">
<title>Node3</title>
<g id="a_Node000003"><a xlink:href="../../d4/d87/layers_8hpp.html" target="_top" xlink:title=" ">
<polygon fill="white" stroke="#666666" points="1638.25,-218.75 1525.5,-218.75 1525.5,-199.5 1638.25,-199.5 1638.25,-218.75"/>
<text text-anchor="middle" x="1581.88" y="-205.25" font-family="Helvetica,sans-Serif" font-size="10.00">engine/core/layers.hpp</text>
</a>
</g>
</g>
<!-- Node2&#45;&gt;Node3 -->
<g id="edge2_Node000002_Node000003" class="edge">
<title>Node2&#45;&gt;Node3</title>
<g id="a_edge2_Node000002_Node000003"><a xlink:title=" ">
<path fill="none" stroke="#63b8ff" d="M1656.29,-321.15C1636.16,-313.53 1615.14,-302.12 1600.88,-285.25 1584.55,-265.93 1581.96,-234.47 1581.73,-219.12"/>
<polygon fill="#63b8ff" stroke="#63b8ff" points="1654.99,-324.4 1665.58,-324.4 1657.3,-317.79 1654.99,-324.4"/>
</a>
</g>
</g>
<!-- Node22 -->
<g id="Node000022" class="node">
<title>Node22</title>
<g id="a_Node000022"><a xlink:href="../../db/ded/imgui-layer_8cpp.html" target="_top" xlink:title=" ">
<polygon fill="white" stroke="#666666" points="1704.25,-285.25 1609.5,-285.25 1609.5,-254.75 1704.25,-254.75 1704.25,-285.25"/>
<text text-anchor="start" x="1617.5" y="-271.75" font-family="Helvetica,sans-Serif" font-size="10.00">engine/core/layers</text>
<text text-anchor="middle" x="1656.88" y="-260.5" font-family="Helvetica,sans-Serif" font-size="10.00">/imgui&#45;layer.cpp</text>
</a>
</g>
</g>
<!-- Node2&#45;&gt;Node22 -->
<g id="edge25_Node000002_Node000022" class="edge">
<title>Node2&#45;&gt;Node22</title>
<g id="a_edge25_Node000002_Node000022"><a xlink:title=" ">
<path fill="none" stroke="#63b8ff" d="M1694.08,-312.38C1686.05,-303.44 1677.09,-293.49 1669.98,-285.58"/>
<polygon fill="#63b8ff" stroke="#63b8ff" points="1691.41,-314.64 1700.7,-319.74 1696.62,-309.96 1691.41,-314.64"/>
</a>
</g>
</g>
<!-- Node23 -->
<g id="Node000023" class="node">
<title>Node23</title>
<g id="a_Node000023"><a xlink:href="../../d9/d06/render-pipeline_8hpp.html" target="_top" xlink:title=" ">
<polygon fill="white" stroke="#666666" points="1821.88,-285.25 1721.88,-285.25 1721.88,-254.75 1821.88,-254.75 1821.88,-285.25"/>
<text text-anchor="start" x="1729.88" y="-271.75" font-family="Helvetica,sans-Serif" font-size="10.00">engine/core/layers</text>
<text text-anchor="middle" x="1771.88" y="-260.5" font-family="Helvetica,sans-Serif" font-size="10.00">/render&#45;pipeline.hpp</text>
</a>
</g>
</g>
<!-- Node2&#45;&gt;Node23 -->
<g id="edge26_Node000002_Node000023" class="edge">
<title>Node2&#45;&gt;Node23</title>
<g id="a_edge26_Node000002_Node000023"><a xlink:title=" ">
<path fill="none" stroke="#63b8ff" d="M1735.31,-312.38C1743.21,-303.44 1752,-293.49 1758.99,-285.58"/>
<polygon fill="#63b8ff" stroke="#63b8ff" points="1732.81,-309.92 1728.81,-319.73 1738.06,-314.55 1732.81,-309.92"/>
</a>
</g>
</g>
<!-- Node4 -->
<g id="Node000004" class="node">
<title>Node4</title>
<g id="a_Node000004"><a xlink:href="../../de/d46/engine_8hpp.html" target="_top" xlink:title=" ">
<polygon fill="white" stroke="#666666" points="1214.75,-157.88 1099,-157.88 1099,-138.62 1214.75,-138.62 1214.75,-157.88"/>
<text text-anchor="middle" x="1156.88" y="-144.38" font-family="Helvetica,sans-Serif" font-size="10.00">engine/core/engine.hpp</text>
</a>
</g>
</g>
<!-- Node3&#45;&gt;Node4 -->
<g id="edge3_Node000003_Node000004" class="edge">
<title>Node3&#45;&gt;Node4</title>
<g id="a_edge3_Node000003_Node000004"><a xlink:title=" ">
<path fill="none" stroke="#63b8ff" d="M1514.15,-198.74C1431.44,-187.29 1292.95,-168.1 1214.91,-157.29"/>
<polygon fill="#63b8ff" stroke="#63b8ff" points="1513.55,-202.19 1523.94,-200.1 1514.51,-195.26 1513.55,-202.19"/>
</a>
</g>
</g>
<!-- Node5 -->
<g id="Node000005" class="node">
<title>Node5</title>
<g id="a_Node000005"><a xlink:href="../../d0/d86/camera-movement_8hpp.html" target="_top" xlink:title=" ">
<polygon fill="white" stroke="#666666" points="1153.62,-85.75 998.12,-85.75 998.12,-66.5 1153.62,-66.5 1153.62,-85.75"/>
<text text-anchor="middle" x="1075.88" y="-72.25" font-family="Helvetica,sans-Serif" font-size="10.00">d3d_test/camera&#45;movement.hpp</text>
</a>
</g>
</g>
<!-- Node4&#45;&gt;Node5 -->
<g id="edge4_Node000004_Node000005" class="edge">
<title>Node4&#45;&gt;Node5</title>
<g id="a_edge4_Node000004_Node000005"><a xlink:title=" ">
<path fill="none" stroke="#63b8ff" d="M1138,-130.91C1121.9,-116.97 1099.34,-97.44 1086.31,-86.16"/>
<polygon fill="#63b8ff" stroke="#63b8ff" points="1135.62,-133.48 1145.47,-137.38 1140.2,-128.19 1135.62,-133.48"/>
</a>
</g>
</g>
<!-- Node8 -->
<g id="Node000008" class="node">
<title>Node8</title>
<g id="a_Node000008"><a xlink:href="../../dc/dfb/controller_8hpp.html" target="_top" xlink:title=" ">
<polygon fill="white" stroke="#666666" points="1926,-85.75 1811.75,-85.75 1811.75,-66.5 1926,-66.5 1926,-85.75"/>
<text text-anchor="middle" x="1868.88" y="-72.25" font-family="Helvetica,sans-Serif" font-size="10.00">d3d_test/controller.hpp</text>
</a>
</g>
</g>
<!-- Node4&#45;&gt;Node8 -->
<g id="edge7_Node000004_Node000008" class="edge">
<title>Node4&#45;&gt;Node8</title>
<g id="a_edge7_Node000004_Node000008"><a xlink:title=" ">
<path fill="none" stroke="#63b8ff" d="M1226.67,-146.61C1345.68,-144.45 1595.06,-135.29 1801.88,-97 1815.71,-94.44 1830.77,-90.12 1843.09,-86.16"/>
<polygon fill="#63b8ff" stroke="#63b8ff" points="1226.68,-143.11 1216.74,-146.78 1226.8,-150.11 1226.68,-143.11"/>
</a>
</g>
</g>
<!-- Node9 -->
<g id="Node000009" class="node">
<title>Node9</title>
<g id="a_Node000009"><a xlink:href="../../d9/d0f/main_8cc.html" target="_top" xlink:title=" ">
<polygon fill="white" stroke="#666666" points="1956,-19.25 1865.75,-19.25 1865.75,0 1956,0 1956,-19.25"/>
<text text-anchor="middle" x="1910.88" y="-5.75" font-family="Helvetica,sans-Serif" font-size="10.00">d3d_test/main.cc</text>
</a>
</g>
</g>
<!-- Node4&#45;&gt;Node9 -->
<g id="edge10_Node000004_Node000009" class="edge">
<title>Node4&#45;&gt;Node9</title>
<g id="a_edge10_Node000004_Node000009"><a xlink:title=" ">
<path fill="none" stroke="#63b8ff" d="M1226.3,-145.61C1337.42,-142.01 1549.46,-130.8 1615.88,-97 1638.24,-85.62 1631.88,-67.33 1653.88,-55.25 1721.16,-18.3 1812.01,-10.72 1865.72,-9.81"/>
<polygon fill="#63b8ff" stroke="#63b8ff" points="1226.29,-142.11 1216.41,-145.92 1226.51,-149.11 1226.29,-142.11"/>
</a>
</g>
</g>
<!-- Node10 -->
<g id="Node000010" class="node">
<title>Node10</title>
<g id="a_Node000010"><a xlink:href="../../da/df5/object-editor_8hpp.html" target="_top" xlink:title=" ">
<polygon fill="white" stroke="#666666" points="201.75,-85.75 74,-85.75 74,-66.5 201.75,-66.5 201.75,-85.75"/>
<text text-anchor="middle" x="137.88" y="-72.25" font-family="Helvetica,sans-Serif" font-size="10.00">d3d_test/object&#45;editor.hpp</text>
</a>
</g>
</g>
<!-- Node4&#45;&gt;Node10 -->
<g id="edge11_Node000004_Node000010" class="edge">
<title>Node4&#45;&gt;Node10</title>
<g id="a_edge11_Node000004_Node000010"><a xlink:title=" ">
<path fill="none" stroke="#63b8ff" d="M1087.1,-145.47C898.2,-140.34 379.67,-124.14 210.88,-97 195.7,-94.56 179.15,-90.2 165.65,-86.18"/>
<polygon fill="#63b8ff" stroke="#63b8ff" points="1086.93,-148.97 1097.02,-145.74 1087.12,-141.97 1086.93,-148.97"/>
</a>
</g>
</g>
<!-- Node13 -->
<g id="Node000013" class="node">
<title>Node13</title>
<g id="a_Node000013"><a xlink:href="../../d9/d55/scene-viewer_8hpp.html" target="_top" xlink:title=" ">
<polygon fill="white" stroke="#666666" points="1304,-85.75 1171.75,-85.75 1171.75,-66.5 1304,-66.5 1304,-85.75"/>
<text text-anchor="middle" x="1237.88" y="-72.25" font-family="Helvetica,sans-Serif" font-size="10.00">d3d_test/scene&#45;viewer.hpp</text>
</a>
</g>
</g>
<!-- Node4&#45;&gt;Node13 -->
<g id="edge15_Node000004_Node000013" class="edge">
<title>Node4&#45;&gt;Node13</title>
<g id="a_edge15_Node000004_Node000013"><a xlink:title=" ">
<path fill="none" stroke="#63b8ff" d="M1175.75,-130.91C1191.85,-116.97 1214.41,-97.44 1227.44,-86.16"/>
<polygon fill="#63b8ff" stroke="#63b8ff" points="1173.55,-128.19 1168.28,-137.38 1178.13,-133.48 1173.55,-128.19"/>
</a>
</g>
</g>
<!-- Node14 -->
<g id="Node000014" class="node">
<title>Node14</title>
<g id="a_Node000014"><a xlink:href="../../da/d5c/engine_8cpp.html" target="_top" xlink:title=" ">
<polygon fill="white" stroke="#666666" points="1437.75,-85.75 1322,-85.75 1322,-66.5 1437.75,-66.5 1437.75,-85.75"/>
<text text-anchor="middle" x="1379.88" y="-72.25" font-family="Helvetica,sans-Serif" font-size="10.00">engine/core/engine.cpp</text>
</a>
</g>
</g>
<!-- Node4&#45;&gt;Node14 -->
<g id="edge17_Node000004_Node000014" class="edge">
<title>Node4&#45;&gt;Node14</title>
<g id="a_edge17_Node000004_Node000014"><a xlink:title=" ">
<path fill="none" stroke="#63b8ff" d="M1196.51,-134.79C1240.82,-120.85 1311.52,-98.62 1350.94,-86.23"/>
<polygon fill="#63b8ff" stroke="#63b8ff" points="1195.51,-131.43 1187.02,-137.77 1197.61,-138.11 1195.51,-131.43"/>
</a>
</g>
</g>
<!-- Node15 -->
<g id="Node000015" class="node">
<title>Node15</title>
<g id="a_Node000015"><a xlink:href="../../d1/da2/deferred-hdr-render-pipeline_8cpp.html" target="_top" xlink:title=" ">
<polygon fill="white" stroke="#666666" points="1793.25,-91.38 1662.5,-91.38 1662.5,-60.88 1793.25,-60.88 1793.25,-91.38"/>
<text text-anchor="start" x="1670.5" y="-77.88" font-family="Helvetica,sans-Serif" font-size="10.00">engine/direct3d11/deferred</text>
<text text-anchor="middle" x="1727.88" y="-66.62" font-family="Helvetica,sans-Serif" font-size="10.00">&#45;hdr&#45;render&#45;pipeline.cpp</text>
</a>
</g>
</g>
<!-- Node4&#45;&gt;Node15 -->
<g id="edge18_Node000004_Node000015" class="edge">
<title>Node4&#45;&gt;Node15</title>
<g id="a_edge18_Node000004_Node000015"><a xlink:title=" ">
<path fill="none" stroke="#63b8ff" d="M1226.45,-143.33C1322.16,-137.2 1499.56,-123.27 1648.88,-97 1656.95,-95.58 1665.43,-93.78 1673.7,-91.85"/>
<polygon fill="#63b8ff" stroke="#63b8ff" points="1226.46,-139.82 1216.7,-143.94 1226.9,-146.8 1226.46,-139.82"/>
</a>
</g>
</g>
<!-- Node16 -->
<g id="Node000016" class="node">
<title>Node16</title>
<g id="a_Node000016"><a xlink:href="../../d8/d30/decal-render-system_8cpp.html" target="_top" xlink:title=" ">
<polygon fill="white" stroke="#666666" points="1606.38,-91.38 1455.38,-91.38 1455.38,-60.88 1606.38,-60.88 1606.38,-91.38"/>
<text text-anchor="start" x="1463.38" y="-77.88" font-family="Helvetica,sans-Serif" font-size="10.00">engine/subsystems/render</text>
<text text-anchor="middle" x="1530.88" y="-66.62" font-family="Helvetica,sans-Serif" font-size="10.00">/detail/decal&#45;render&#45;system.cpp</text>
</a>
</g>
</g>
<!-- Node4&#45;&gt;Node16 -->
<g id="edge19_Node000004_Node000016" class="edge">
<title>Node4&#45;&gt;Node16</title>
<g id="a_edge19_Node000004_Node000016"><a xlink:title=" ">
<path fill="none" stroke="#63b8ff" d="M1226.15,-136.46C1285.04,-127 1371.75,-112.38 1446.88,-97 1454.66,-95.41 1462.82,-93.62 1470.86,-91.79"/>
<polygon fill="#63b8ff" stroke="#63b8ff" points="1225.93,-132.95 1216.61,-137.99 1227.04,-139.86 1225.93,-132.95"/>
</a>
</g>
</g>
<!-- Node17 -->
<g id="Node000017" class="node">
<title>Node17</title>
<g id="a_Node000017"><a xlink:href="../../d1/d58/dissolution-render-system_8cpp.html" target="_top" xlink:title=" ">
<polygon fill="white" stroke="#666666" points="349.88,-97 219.88,-97 219.88,-55.25 349.88,-55.25 349.88,-97"/>
<text text-anchor="start" x="227.88" y="-83.5" font-family="Helvetica,sans-Serif" font-size="10.00">engine/subsystems/render</text>
<text text-anchor="start" x="227.88" y="-72.25" font-family="Helvetica,sans-Serif" font-size="10.00">/detail/dissolution&#45;render</text>
<text text-anchor="middle" x="284.88" y="-61" font-family="Helvetica,sans-Serif" font-size="10.00">&#45;system.cpp</text>
</a>
</g>
</g>
<!-- Node4&#45;&gt;Node17 -->
<g id="edge20_Node000004_Node000017" class="edge">
<title>Node4&#45;&gt;Node17</title>
<g id="a_edge20_Node000004_Node000017"><a xlink:title=" ">
<path fill="none" stroke="#63b8ff" d="M1087.56,-147.51C948.44,-147.03 625.69,-140.78 358.88,-97 355.99,-96.53 353.05,-95.99 350.09,-95.4"/>
<polygon fill="#63b8ff" stroke="#63b8ff" points="1087.33,-151.01 1097.34,-147.54 1087.35,-144.01 1087.33,-151.01"/>
</a>
</g>
</g>
<!-- Node18 -->
<g id="Node000018" class="node">
<title>Node18</title>
<g id="a_Node000018"><a xlink:href="../../d2/d11/emissive-particle-render-system_8cpp.html" target="_top" xlink:title=" ">
<polygon fill="white" stroke="#666666" points="497.88,-97 367.88,-97 367.88,-55.25 497.88,-55.25 497.88,-97"/>
<text text-anchor="start" x="375.88" y="-83.5" font-family="Helvetica,sans-Serif" font-size="10.00">engine/subsystems/render</text>
<text text-anchor="start" x="375.88" y="-72.25" font-family="Helvetica,sans-Serif" font-size="10.00">/detail/emissive&#45;particle</text>
<text text-anchor="middle" x="432.88" y="-61" font-family="Helvetica,sans-Serif" font-size="10.00">&#45;render&#45;system.cpp</text>
</a>
</g>
</g>
<!-- Node4&#45;&gt;Node18 -->
<g id="edge21_Node000004_Node000018" class="edge">
<title>Node4&#45;&gt;Node18</title>
<g id="a_edge21_Node000004_Node000018"><a xlink:title=" ">
<path fill="none" stroke="#63b8ff" d="M1087.1,-146.08C967.52,-143.15 716.05,-132.86 506.88,-97 503.99,-96.51 501.06,-95.95 498.1,-95.35"/>
<polygon fill="#63b8ff" stroke="#63b8ff" points="1087.01,-149.58 1097.09,-146.32 1087.18,-142.58 1087.01,-149.58"/>
</a>
</g>
</g>
<!-- Node19 -->
<g id="Node000019" class="node">
<title>Node19</title>
<g id="a_Node000019"><a xlink:href="../../df/d58/grass-render-system_8cpp.html" target="_top" xlink:title=" ">
<polygon fill="white" stroke="#666666" points="667.75,-91.38 516,-91.38 516,-60.88 667.75,-60.88 667.75,-91.38"/>
<text text-anchor="start" x="524" y="-77.88" font-family="Helvetica,sans-Serif" font-size="10.00">engine/subsystems/render</text>
<text text-anchor="middle" x="591.88" y="-66.62" font-family="Helvetica,sans-Serif" font-size="10.00">/detail/grass&#45;render&#45;system.cpp</text>
</a>
</g>
</g>
<!-- Node4&#45;&gt;Node19 -->
<g id="edge22_Node000004_Node000019" class="edge">
<title>Node4&#45;&gt;Node19</title>
<g id="a_edge22_Node000004_Node000019"><a xlink:title=" ">
<path fill="none" stroke="#63b8ff" d="M1087.24,-142.71C993.52,-135.98 821.82,-121.43 676.88,-97 668.21,-95.54 659.1,-93.72 650.21,-91.78"/>
<polygon fill="#63b8ff" stroke="#63b8ff" points="1086.82,-146.19 1097.05,-143.41 1087.32,-139.21 1086.82,-146.19"/>
</a>
</g>
</g>
<!-- Node20 -->
<g id="Node000020" class="node">
<title>Node20</title>
<g id="a_Node000020"><a xlink:href="../../d8/d9c/light-render-system_8cpp.html" target="_top" xlink:title=" ">
<polygon fill="white" stroke="#666666" points="831.75,-91.38 686,-91.38 686,-60.88 831.75,-60.88 831.75,-91.38"/>
<text text-anchor="start" x="694" y="-77.88" font-family="Helvetica,sans-Serif" font-size="10.00">engine/subsystems/render</text>
<text text-anchor="middle" x="758.88" y="-66.62" font-family="Helvetica,sans-Serif" font-size="10.00">/detail/light&#45;render&#45;system.cpp</text>
</a>
</g>
</g>
<!-- Node4&#45;&gt;Node20 -->
<g id="edge23_Node000004_Node000020" class="edge">
<title>Node4&#45;&gt;Node20</title>
<g id="a_edge23_Node000004_Node000020"><a xlink:title=" ">
<path fill="none" stroke="#63b8ff" d="M1087.48,-137.85C1023.27,-128.76 925.27,-113.91 840.88,-97 833.12,-95.45 824.99,-93.66 816.98,-91.82"/>
<polygon fill="#63b8ff" stroke="#63b8ff" points="1086.79,-141.28 1097.18,-139.21 1087.76,-134.35 1086.79,-141.28"/>
</a>
</g>
</g>
<!-- Node21 -->
<g id="Node000021" class="node">
<title>Node21</title>
<g id="a_Node000021"><a xlink:href="../../d3/dfe/particle-render-system_8cpp.html" target="_top" xlink:title=" ">
<polygon fill="white" stroke="#666666" points="979.88,-97 849.88,-97 849.88,-55.25 979.88,-55.25 979.88,-97"/>
<text text-anchor="start" x="857.88" y="-83.5" font-family="Helvetica,sans-Serif" font-size="10.00">engine/subsystems/render</text>
<text text-anchor="start" x="857.88" y="-72.25" font-family="Helvetica,sans-Serif" font-size="10.00">/detail/particle&#45;render</text>
<text text-anchor="middle" x="914.88" y="-61" font-family="Helvetica,sans-Serif" font-size="10.00">&#45;system.cpp</text>
</a>
</g>
</g>
<!-- Node4&#45;&gt;Node21 -->
<g id="edge24_Node000004_Node000021" class="edge">
<title>Node4&#45;&gt;Node21</title>
<g id="a_edge24_Node000004_Node000021"><a xlink:title=" ">
<path fill="none" stroke="#63b8ff" d="M1114.8,-135.06C1077.63,-124.29 1022.85,-108.41 980.02,-96"/>
<polygon fill="#63b8ff" stroke="#63b8ff" points="1113.7,-138.38 1124.28,-137.8 1115.65,-131.66 1113.7,-138.38"/>
</a>
</g>
</g>
<!-- Node6 -->
<g id="Node000006" class="node">
<title>Node6</title>
<g id="a_Node000006"><a xlink:href="../../d5/dbb/camera-movement_8cpp.html" target="_top" xlink:title=" ">
<polygon fill="white" stroke="#666666" points="1153.62,-19.25 998.12,-19.25 998.12,0 1153.62,0 1153.62,-19.25"/>
<text text-anchor="middle" x="1075.88" y="-5.75" font-family="Helvetica,sans-Serif" font-size="10.00">d3d_test/camera&#45;movement.cpp</text>
</a>
</g>
</g>
<!-- Node5&#45;&gt;Node6 -->
<g id="edge5_Node000005_Node000006" class="edge">
<title>Node5&#45;&gt;Node6</title>
<g id="a_edge5_Node000005_Node000006"><a xlink:title=" ">
<path fill="none" stroke="#63b8ff" d="M1075.88,-54.65C1075.88,-42.82 1075.88,-28.54 1075.88,-19.52"/>
<polygon fill="#63b8ff" stroke="#63b8ff" points="1072.38,-54.64 1075.88,-64.64 1079.38,-54.64 1072.38,-54.64"/>
</a>
</g>
</g>
<!-- Node7 -->
<g id="Node000007" class="node">
<title>Node7</title>
<g id="a_Node000007"><a xlink:href="../../d1/d47/controller_8cpp.html" target="_top" xlink:title=" ">
<polygon fill="white" stroke="#666666" points="1291,-19.25 1176.75,-19.25 1176.75,0 1291,0 1291,-19.25"/>
<text text-anchor="middle" x="1233.88" y="-5.75" font-family="Helvetica,sans-Serif" font-size="10.00">d3d_test/controller.cpp</text>
</a>
</g>
</g>
<!-- Node5&#45;&gt;Node7 -->
<g id="edge6_Node000005_Node000007" class="edge">
<title>Node5&#45;&gt;Node7</title>
<g id="a_edge6_Node000005_Node000007"><a xlink:title=" ">
<path fill="none" stroke="#63b8ff" d="M1108.83,-61.67C1139.68,-49.08 1184.92,-30.61 1211.69,-19.68"/>
<polygon fill="#63b8ff" stroke="#63b8ff" points="1107.51,-58.43 1099.58,-65.45 1110.16,-64.91 1107.51,-58.43"/>
</a>
</g>
</g>
<!-- Node8&#45;&gt;Node7 -->
<g id="edge8_Node000008_Node000007" class="edge">
<title>Node8&#45;&gt;Node7</title>
<g id="a_edge8_Node000008_Node000007"><a xlink:title=" ">
<path fill="none" stroke="#63b8ff" d="M1832.13,-62.72C1822.4,-59.85 1811.82,-57.09 1801.88,-55.25 1617.33,-21.02 1394.3,-13.02 1291.23,-11.17"/>
<polygon fill="#63b8ff" stroke="#63b8ff" points="1831.06,-66.05 1841.65,-65.65 1833.12,-59.36 1831.06,-66.05"/>
</a>
</g>
</g>
<!-- Node8&#45;&gt;Node9 -->
<g id="edge9_Node000008_Node000009" class="edge">
<title>Node8&#45;&gt;Node9</title>
<g id="a_edge9_Node000008_Node000009"><a xlink:title=" ">
<path fill="none" stroke="#63b8ff" d="M1881,-56.51C1888.91,-44.35 1898.9,-29.02 1905.08,-19.52"/>
<polygon fill="#63b8ff" stroke="#63b8ff" points="1878.06,-54.6 1875.54,-64.89 1883.93,-58.42 1878.06,-54.6"/>
</a>
</g>
</g>
<!-- Node10&#45;&gt;Node7 -->
<g id="edge12_Node000010_Node000007" class="edge">
<title>Node10&#45;&gt;Node7</title>
<g id="a_edge12_Node000010_Node000007"><a xlink:title=" ">
<path fill="none" stroke="#63b8ff" d="M176.32,-62.9C187.37,-59.86 199.5,-56.99 210.88,-55.25 629.42,8.78 740.79,-52.81 1162.88,-19.25 1167.33,-18.9 1171.94,-18.47 1176.57,-18"/>
<polygon fill="#63b8ff" stroke="#63b8ff" points="175.39,-59.52 166.74,-65.65 177.32,-66.25 175.39,-59.52"/>
</a>
</g>
</g>
<!-- Node11 -->
<g id="Node000011" class="node">
<title>Node11</title>
<g id="a_Node000011"><a xlink:href="../../d4/d94/object-editor_8cpp.html" target="_top" xlink:title=" ">
<polygon fill="white" stroke="#666666" points="127.75,-19.25 0,-19.25 0,0 127.75,0 127.75,-19.25"/>
<text text-anchor="middle" x="63.88" y="-5.75" font-family="Helvetica,sans-Serif" font-size="10.00">d3d_test/object&#45;editor.cpp</text>
</a>
</g>
</g>
<!-- Node10&#45;&gt;Node11 -->
<g id="edge13_Node000010_Node000011" class="edge">
<title>Node10&#45;&gt;Node11</title>
<g id="a_edge13_Node000010_Node000011"><a xlink:title=" ">
<path fill="none" stroke="#63b8ff" d="M119.01,-58.69C104.72,-46.23 85.64,-29.59 74.08,-19.52"/>
<polygon fill="#63b8ff" stroke="#63b8ff" points="116.61,-61.23 126.44,-65.16 121.21,-55.95 116.61,-61.23"/>
</a>
</g>
</g>
<!-- Node12 -->
<g id="Node000012" class="node">
<title>Node12</title>
<g id="a_Node000012"><a xlink:href="../../d0/d38/scene-viewer_8cpp.html" target="_top" xlink:title=" ">
<polygon fill="white" stroke="#666666" points="278,-19.25 145.75,-19.25 145.75,0 278,0 278,-19.25"/>
<text text-anchor="middle" x="211.88" y="-5.75" font-family="Helvetica,sans-Serif" font-size="10.00">d3d_test/scene&#45;viewer.cpp</text>
</a>
</g>
</g>
<!-- Node10&#45;&gt;Node12 -->
<g id="edge14_Node000010_Node000012" class="edge">
<title>Node10&#45;&gt;Node12</title>
<g id="a_edge14_Node000010_Node000012"><a xlink:title=" ">
<path fill="none" stroke="#63b8ff" d="M156.74,-58.69C171.03,-46.23 190.11,-29.59 201.67,-19.52"/>
<polygon fill="#63b8ff" stroke="#63b8ff" points="154.54,-55.95 149.31,-65.16 159.14,-61.23 154.54,-55.95"/>
</a>
</g>
</g>
<!-- Node13&#45;&gt;Node7 -->
<g id="edge16_Node000013_Node000007" class="edge">
<title>Node13&#45;&gt;Node7</title>
<g id="a_edge16_Node000013_Node000007"><a xlink:title=" ">
<path fill="none" stroke="#63b8ff" d="M1236.63,-55.02C1235.89,-43.12 1234.99,-28.63 1234.43,-19.52"/>
<polygon fill="#63b8ff" stroke="#63b8ff" points="1233.11,-54.88 1237.23,-64.65 1240.1,-54.45 1233.11,-54.88"/>
</a>
</g>
</g>
<!-- Node23&#45;&gt;Node3 -->
<g id="edge27_Node000023_Node000003" class="edge">
<title>Node23&#45;&gt;Node3</title>
<g id="a_edge27_Node000023_Node000003"><a xlink:title=" ">
<path fill="none" stroke="#63b8ff" d="M1713.7,-250.97C1679.82,-240.47 1638.53,-227.68 1611.29,-219.24"/>
<polygon fill="#63b8ff" stroke="#63b8ff" points="1712.39,-254.23 1722.97,-253.85 1714.46,-247.54 1712.39,-254.23"/>
</a>
</g>
</g>
<!-- Node24 -->
<g id="Node000024" class="node">
<title>Node24</title>
<g id="a_Node000024"><a xlink:href="../../db/df9/deferred-hdr-render-pipeline_8hpp.html" target="_top" xlink:title=" ">
<polygon fill="white" stroke="#666666" points="1909.25,-163.5 1778.5,-163.5 1778.5,-133 1909.25,-133 1909.25,-163.5"/>
<text text-anchor="start" x="1786.5" y="-150" font-family="Helvetica,sans-Serif" font-size="10.00">engine/direct3d11/deferred</text>
<text text-anchor="middle" x="1843.88" y="-138.75" font-family="Helvetica,sans-Serif" font-size="10.00">&#45;hdr&#45;render&#45;pipeline.hpp</text>
</a>
</g>
</g>
<!-- Node23&#45;&gt;Node24 -->
<g id="edge28_Node000023_Node000024" class="edge">
<title>Node23&#45;&gt;Node24</title>
<g id="a_edge28_Node000023_Node000024"><a xlink:title=" ">
<path fill="none" stroke="#63b8ff" d="M1786.47,-244.73C1801.1,-220.4 1823.13,-183.76 1835.2,-163.68"/>
<polygon fill="#63b8ff" stroke="#63b8ff" points="1783.64,-242.65 1781.48,-253.02 1789.64,-246.25 1783.64,-242.65"/>
</a>
</g>
</g>
<!-- Node24&#45;&gt;Node8 -->
<g id="edge29_Node000024_Node000008" class="edge">
<title>Node24&#45;&gt;Node8</title>
<g id="a_edge29_Node000024_Node000008"><a xlink:title=" ">
<path fill="none" stroke="#63b8ff" d="M1852.79,-122.25C1857.31,-109.57 1862.52,-94.96 1865.75,-85.88"/>
<polygon fill="#63b8ff" stroke="#63b8ff" points="1849.62,-120.7 1849.56,-131.29 1856.22,-123.05 1849.62,-120.7"/>
</a>
</g>
</g>
<!-- Node24&#45;&gt;Node9 -->
<g id="edge30_Node000024_Node000009" class="edge">
<title>Node24&#45;&gt;Node9</title>
<g id="a_edge30_Node000024_Node000009"><a xlink:title=" ">
<path fill="none" stroke="#63b8ff" d="M1900.86,-127.7C1914.34,-120.26 1927.05,-110.26 1934.88,-97 1949.98,-71.4 1929.19,-35.92 1917.65,-19.55"/>
<polygon fill="#63b8ff" stroke="#63b8ff" points="1899.69,-124.38 1892.33,-132 1902.83,-130.63 1899.69,-124.38"/>
</a>
</g>
</g>
<!-- Node24&#45;&gt;Node15 -->
<g id="edge31_Node000024_Node000015" class="edge">
<title>Node24&#45;&gt;Node15</title>
<g id="a_edge31_Node000024_Node000015"><a xlink:title=" ">
<path fill="none" stroke="#63b8ff" d="M1809.75,-126.62C1791.26,-115.45 1768.86,-101.9 1752.16,-91.81"/>
<polygon fill="#63b8ff" stroke="#63b8ff" points="1807.89,-129.59 1818.26,-131.77 1811.52,-123.6 1807.89,-129.59"/>
</a>
</g>
</g>
<!-- Node25&#45;&gt;Node9 -->
<g id="edge33_Node000025_Node000009" class="edge">
<title>Node25&#45;&gt;Node9</title>
<g id="a_edge33_Node000025_Node000009"><a xlink:title=" ">
<path fill="none" stroke="#63b8ff" d="M1941.34,-314.79C1953.01,-306.95 1964.8,-297.02 1972.88,-285.25 1992.36,-256.85 1991.88,-244.57 1991.88,-210.12 1991.88,-210.12 1991.88,-210.12 1991.88,-147.25 1991.88,-92.1 1942.44,-39.73 1920.81,-19.46"/>
<polygon fill="#63b8ff" stroke="#63b8ff" points="1939.54,-311.79 1932.94,-320.08 1943.27,-317.72 1939.54,-311.79"/>
</a>
</g>
</g>
<!-- Node26 -->
<g id="Node000026" class="node">
<title>Node26</title>
<g id="a_Node000026"><a xlink:href="../../d7/dc7/windows-window_8cpp.html" target="_top" xlink:title=" ">
<polygon fill="white" stroke="#666666" points="1963.88,-285.25 1839.88,-285.25 1839.88,-254.75 1963.88,-254.75 1963.88,-285.25"/>
<text text-anchor="start" x="1847.88" y="-271.75" font-family="Helvetica,sans-Serif" font-size="10.00">engine/platform/windows</text>
<text text-anchor="middle" x="1901.88" y="-260.5" font-family="Helvetica,sans-Serif" font-size="10.00">/windows&#45;window.cpp</text>
</a>
</g>
</g>
<!-- Node25&#45;&gt;Node26 -->
<g id="edge34_Node000025_Node000026" class="edge">
<title>Node25&#45;&gt;Node26</title>
<g id="a_edge34_Node000025_Node000026"><a xlink:title=" ">
<path fill="none" stroke="#63b8ff" d="M1901.88,-309.56C1901.88,-301.39 1901.88,-292.66 1901.88,-285.58"/>
<polygon fill="#63b8ff" stroke="#63b8ff" points="1898.38,-309.35 1901.88,-319.35 1905.38,-309.35 1898.38,-309.35"/>
</a>
</g>
</g>
</g>
</svg>
