<?xml version="1.0" encoding="UTF-8" standalone="no"?>
<!DOCTYPE svg PUBLIC "-//W3C//DTD SVG 1.1//EN"
 "http://www.w3.org/Graphics/SVG/1.1/DTD/svg11.dtd">
<!-- Generated by graphviz version 9.0.0 (20230911.1827)
 -->
<!-- Title: engine/core/events/mouse&#45;events.hpp Pages: 1 -->
<svg width="180pt" height="149pt"
 viewBox="0.00 0.00 179.75 149.00" xmlns="http://www.w3.org/2000/svg" xmlns:xlink="http://www.w3.org/1999/xlink">
<g id="graph0" class="graph" transform="scale(1 1) rotate(0) translate(4 145)">
<title>engine/core/events/mouse&#45;events.hpp</title>
<!-- Node1 -->
<g id="Node000001" class="node">
<title>Node1</title>
<g id="a_Node000001"><a xlink:title=" ">
<polygon fill="#999999" stroke="#666666" points="140,-141 41.5,-141 41.5,-110.5 140,-110.5 140,-141"/>
<text text-anchor="start" x="49.5" y="-127.5" font-family="Helvetica,sans-Serif" font-size="10.00">engine/core/events</text>
<text text-anchor="middle" x="90.75" y="-116.25" font-family="Helvetica,sans-Serif" font-size="10.00">/mouse&#45;events.hpp</text>
</a>
</g>
</g>
<!-- Node2 -->
<g id="Node000002" class="node">
<title>Node2</title>
<g id="a_Node000002"><a xlink:href="../../d4/d78/math_8hpp.html" target="_top" xlink:title=" ">
<polygon fill="white" stroke="#666666" points="77.5,-74.5 0,-74.5 0,-55.25 77.5,-55.25 77.5,-74.5"/>
<text text-anchor="middle" x="38.75" y="-61" font-family="Helvetica,sans-Serif" font-size="10.00">core/math.hpp</text>
</a>
</g>
</g>
<!-- Node1&#45;&gt;Node2 -->
<g id="edge1_Node000001_Node000002" class="edge">
<title>Node1&#45;&gt;Node2</title>
<g id="a_edge1_Node000001_Node000002"><a xlink:title=" ">
<path fill="none" stroke="#63b8ff" d="M77.9,-110.2C70.74,-102.09 61.78,-91.95 54.24,-83.41"/>
<polygon fill="#63b8ff" stroke="#63b8ff" points="57.01,-81.26 47.77,-76.09 51.76,-85.9 57.01,-81.26"/>
</a>
</g>
</g>
<!-- Node3 -->
<g id="Node000003" class="node">
<title>Node3</title>
<g id="a_Node000003"><a xlink:href="../../dc/d94/event_8hpp.html" target="_top" xlink:title=" ">
<polygon fill="white" stroke="#666666" points="171.75,-74.5 113.75,-74.5 113.75,-55.25 171.75,-55.25 171.75,-74.5"/>
<text text-anchor="middle" x="142.75" y="-61" font-family="Helvetica,sans-Serif" font-size="10.00">event.hpp</text>
</a>
</g>
</g>
<!-- Node1&#45;&gt;Node3 -->
<g id="edge3_Node000001_Node000003" class="edge">
<title>Node1&#45;&gt;Node3</title>
<g id="a_edge3_Node000001_Node000003"><a xlink:title=" ">
<path fill="none" stroke="#63b8ff" d="M103.6,-110.2C110.76,-102.09 119.72,-91.95 127.26,-83.41"/>
<polygon fill="#63b8ff" stroke="#63b8ff" points="129.74,-85.9 133.73,-76.09 124.49,-81.26 129.74,-85.9"/>
</a>
</g>
</g>
<!-- Node2&#45;&gt;Node2 -->
<g id="edge2_Node000002_Node000002" class="edge">
<title>Node2&#45;&gt;Node2</title>
<g id="a_edge2_Node000002_Node000002"><a xlink:title=" ">
<path fill="none" stroke="#63b8ff" d="M68.53,-74.98C82.86,-76.23 95.5,-72.86 95.5,-64.88 95.5,-59.14 88.97,-55.78 79.97,-54.81"/>
<polygon fill="#63b8ff" stroke="#63b8ff" points="80.06,-51.31 70.04,-54.77 80.03,-58.31 80.06,-51.31"/>
</a>
</g>
</g>
<!-- Node4 -->
<g id="Node000004" class="node">
<title>Node4</title>
<g id="a_Node000004"><a xlink:title=" ">
<polygon fill="#e0e0e0" stroke="#999999" points="162.75,-19.25 122.75,-19.25 122.75,0 162.75,0 162.75,-19.25"/>
<text text-anchor="middle" x="142.75" y="-5.75" font-family="Helvetica,sans-Serif" font-size="10.00">string</text>
</a>
</g>
</g>
<!-- Node3&#45;&gt;Node4 -->
<g id="edge4_Node000003_Node000004" class="edge">
<title>Node3&#45;&gt;Node4</title>
<g id="a_edge4_Node000003_Node000004"><a xlink:title=" ">
<path fill="none" stroke="#63b8ff" d="M142.75,-55.08C142.75,-48.57 142.75,-39.42 142.75,-31.12"/>
<polygon fill="#63b8ff" stroke="#63b8ff" points="146.25,-31.12 142.75,-21.12 139.25,-31.12 146.25,-31.12"/>
</a>
</g>
</g>
</g>
</svg>
