<?xml version="1.0" encoding="UTF-8" standalone="no"?>
<!DOCTYPE svg PUBLIC "-//W3C//DTD SVG 1.1//EN"
 "http://www.w3.org/Graphics/SVG/1.1/DTD/svg11.dtd">
<!-- Generated by graphviz version 9.0.0 (20230911.1827)
 -->
<!-- Title: engine/subsystems/render/post&#45;processing.inl Pages: 1 -->
<svg width="658pt" height="360pt"
 viewBox="0.00 0.00 658.12 359.75" xmlns="http://www.w3.org/2000/svg" xmlns:xlink="http://www.w3.org/1999/xlink">
<g id="graph0" class="graph" transform="scale(1 1) rotate(0) translate(4 355.75)">
<title>engine/subsystems/render/post&#45;processing.inl</title>
<!-- Node1 -->
<g id="Node000001" class="node">
<title>Node1</title>
<g id="a_Node000001"><a xlink:title=" ">
<polygon fill="#999999" stroke="#666666" points="382.12,-351.75 252.12,-351.75 252.12,-321.25 382.12,-321.25 382.12,-351.75"/>
<text text-anchor="start" x="260.12" y="-338.25" font-family="Helvetica,sans-Serif" font-size="10.00">engine/subsystems/render</text>
<text text-anchor="middle" x="317.12" y="-327" font-family="Helvetica,sans-Serif" font-size="10.00">/post&#45;processing.inl</text>
</a>
</g>
</g>
<!-- Node2 -->
<g id="Node000002" class="node">
<title>Node2</title>
<g id="a_Node000002"><a xlink:href="../../d2/d42/post-processing_8hpp.html" target="_top" xlink:title=" ">
<polygon fill="white" stroke="#666666" points="382.12,-285.25 252.12,-285.25 252.12,-254.75 382.12,-254.75 382.12,-285.25"/>
<text text-anchor="start" x="260.12" y="-271.75" font-family="Helvetica,sans-Serif" font-size="10.00">engine/subsystems/render</text>
<text text-anchor="middle" x="317.12" y="-260.5" font-family="Helvetica,sans-Serif" font-size="10.00">/post&#45;processing.hpp</text>
</a>
</g>
</g>
<!-- Node1&#45;&gt;Node2 -->
<g id="edge1_Node000001_Node000002" class="edge">
<title>Node1&#45;&gt;Node2</title>
<g id="a_edge1_Node000001_Node000002"><a xlink:title=" ">
<path fill="none" stroke="#63b8ff" d="M310.49,-309.56C310.19,-301.39 310.48,-292.66 311.37,-285.58"/>
<polygon fill="#63b8ff" stroke="#63b8ff" points="306.99,-309.65 311.25,-319.35 313.97,-309.12 306.99,-309.65"/>
</a>
</g>
</g>
<!-- Node2&#45;&gt;Node1 -->
<g id="edge17_Node000002_Node000001" class="edge">
<title>Node2&#45;&gt;Node1</title>
<g id="a_edge17_Node000002_Node000001"><a xlink:title=" ">
<path fill="none" stroke="#63b8ff" d="M323.76,-296.88C324.06,-305.04 323.77,-313.77 322.89,-320.86"/>
<polygon fill="#63b8ff" stroke="#63b8ff" points="327.26,-296.79 323,-287.09 320.28,-297.33 327.26,-296.79"/>
</a>
</g>
</g>
<!-- Node3 -->
<g id="Node000003" class="node">
<title>Node3</title>
<g id="a_Node000003"><a xlink:href="../../db/df9/deferred-hdr-render-pipeline_8hpp.html" target="_top" xlink:title=" ">
<polygon fill="white" stroke="#666666" points="299.5,-152.25 168.75,-152.25 168.75,-121.75 299.5,-121.75 299.5,-152.25"/>
<text text-anchor="start" x="176.75" y="-138.75" font-family="Helvetica,sans-Serif" font-size="10.00">engine/direct3d11/deferred</text>
<text text-anchor="middle" x="234.12" y="-127.5" font-family="Helvetica,sans-Serif" font-size="10.00">&#45;hdr&#45;render&#45;pipeline.hpp</text>
</a>
</g>
</g>
<!-- Node2&#45;&gt;Node3 -->
<g id="edge2_Node000002_Node000003" class="edge">
<title>Node2&#45;&gt;Node3</title>
<g id="a_edge2_Node000002_Node000003"><a xlink:title=" ">
<path fill="none" stroke="#63b8ff" d="M281.64,-247.83C271.05,-239.93 260.36,-230.08 253.12,-218.75 240.03,-198.23 235.94,-169.61 234.68,-152.53"/>
<polygon fill="#63b8ff" stroke="#63b8ff" points="279.38,-250.52 289.58,-253.39 283.4,-244.79 279.38,-250.52"/>
</a>
</g>
</g>
<!-- Node8 -->
<g id="Node000008" class="node">
<title>Node8</title>
<g id="a_Node000008"><a xlink:href="../../de/d8e/deferred-resolve_8hpp.html" target="_top" xlink:title=" ">
<polygon fill="white" stroke="#666666" points="502.5,-218.75 389.75,-218.75 389.75,-188.25 502.5,-188.25 502.5,-218.75"/>
<text text-anchor="start" x="397.75" y="-205.25" font-family="Helvetica,sans-Serif" font-size="10.00">engine/render/deferred</text>
<text text-anchor="middle" x="446.12" y="-194" font-family="Helvetica,sans-Serif" font-size="10.00">&#45;resolve.hpp</text>
</a>
</g>
</g>
<!-- Node2&#45;&gt;Node8 -->
<g id="edge8_Node000002_Node000008" class="edge">
<title>Node2&#45;&gt;Node8</title>
<g id="a_edge8_Node000002_Node000008"><a xlink:title=" ">
<path fill="none" stroke="#63b8ff" d="M356.5,-249.31C375.99,-239.57 399.1,-228.01 416.97,-219.08"/>
<polygon fill="#63b8ff" stroke="#63b8ff" points="355.13,-246.08 347.75,-253.69 358.26,-252.35 355.13,-246.08"/>
</a>
</g>
</g>
<!-- Node10 -->
<g id="Node000010" class="node">
<title>Node10</title>
<g id="a_Node000010"><a xlink:href="../../d2/deb/hdr-to-ldr-layer_8hpp.html" target="_top" xlink:title=" ">
<polygon fill="white" stroke="#666666" points="206.25,-218.75 104,-218.75 104,-188.25 206.25,-188.25 206.25,-218.75"/>
<text text-anchor="start" x="112" y="-205.25" font-family="Helvetica,sans-Serif" font-size="10.00">engine/render/hdr&#45;to</text>
<text text-anchor="middle" x="155.12" y="-194" font-family="Helvetica,sans-Serif" font-size="10.00">&#45;ldr&#45;layer.hpp</text>
</a>
</g>
</g>
<!-- Node2&#45;&gt;Node10 -->
<g id="edge11_Node000002_Node000010" class="edge">
<title>Node2&#45;&gt;Node10</title>
<g id="a_edge11_Node000002_Node000010"><a xlink:title=" ">
<path fill="none" stroke="#63b8ff" d="M269.74,-250.13C244.95,-240.26 215.06,-228.36 192.02,-219.19"/>
<polygon fill="#63b8ff" stroke="#63b8ff" points="268.37,-253.36 278.96,-253.8 270.96,-246.85 268.37,-253.36"/>
</a>
</g>
</g>
<!-- Node11 -->
<g id="Node000011" class="node">
<title>Node11</title>
<g id="a_Node000011"><a xlink:href="../../da/d7b/present-swapchain_8hpp.html" target="_top" xlink:title=" ">
<polygon fill="white" stroke="#666666" points="372,-218.75 262.25,-218.75 262.25,-188.25 372,-188.25 372,-218.75"/>
<text text-anchor="start" x="270.25" y="-205.25" font-family="Helvetica,sans-Serif" font-size="10.00">engine/render/present</text>
<text text-anchor="middle" x="317.12" y="-194" font-family="Helvetica,sans-Serif" font-size="10.00">&#45;swapchain.hpp</text>
</a>
</g>
</g>
<!-- Node2&#45;&gt;Node11 -->
<g id="edge13_Node000002_Node000011" class="edge">
<title>Node2&#45;&gt;Node11</title>
<g id="a_edge13_Node000002_Node000011"><a xlink:title=" ">
<path fill="none" stroke="#63b8ff" d="M317.12,-243.06C317.12,-234.89 317.12,-226.16 317.12,-219.08"/>
<polygon fill="#63b8ff" stroke="#63b8ff" points="313.63,-242.85 317.13,-252.85 320.63,-242.85 313.63,-242.85"/>
</a>
</g>
</g>
<!-- Node12 -->
<g id="Node000012" class="node">
<title>Node12</title>
<g id="a_Node000012"><a xlink:href="../../d1/d3c/post-processing_8cpp.html" target="_top" xlink:title=" ">
<polygon fill="white" stroke="#666666" points="650.12,-218.75 520.12,-218.75 520.12,-188.25 650.12,-188.25 650.12,-218.75"/>
<text text-anchor="start" x="528.12" y="-205.25" font-family="Helvetica,sans-Serif" font-size="10.00">engine/subsystems/render</text>
<text text-anchor="middle" x="585.12" y="-194" font-family="Helvetica,sans-Serif" font-size="10.00">/post&#45;processing.cpp</text>
</a>
</g>
</g>
<!-- Node2&#45;&gt;Node12 -->
<g id="edge16_Node000002_Node000012" class="edge">
<title>Node2&#45;&gt;Node12</title>
<g id="a_edge16_Node000002_Node000012"><a xlink:title=" ">
<path fill="none" stroke="#63b8ff" d="M389.32,-251.63C431.5,-241.47 484.16,-228.8 524.24,-219.15"/>
<polygon fill="#63b8ff" stroke="#63b8ff" points="388.65,-248.19 379.75,-253.93 390.29,-254.99 388.65,-248.19"/>
</a>
</g>
</g>
<!-- Node4 -->
<g id="Node000004" class="node">
<title>Node4</title>
<g id="a_Node000004"><a xlink:href="../../dc/dfb/controller_8hpp.html" target="_top" xlink:title=" ">
<polygon fill="white" stroke="#666666" points="131.25,-80.12 17,-80.12 17,-60.88 131.25,-60.88 131.25,-80.12"/>
<text text-anchor="middle" x="74.12" y="-66.62" font-family="Helvetica,sans-Serif" font-size="10.00">d3d_test/controller.hpp</text>
</a>
</g>
</g>
<!-- Node3&#45;&gt;Node4 -->
<g id="edge3_Node000003_Node000004" class="edge">
<title>Node3&#45;&gt;Node4</title>
<g id="a_edge3_Node000003_Node000004"><a xlink:title=" ">
<path fill="none" stroke="#63b8ff" d="M187.17,-117.07C157.26,-105.01 119.86,-89.94 96.47,-80.51"/>
<polygon fill="#63b8ff" stroke="#63b8ff" points="185.83,-120.31 196.41,-120.8 188.45,-113.81 185.83,-120.31"/>
</a>
</g>
</g>
<!-- Node6 -->
<g id="Node000006" class="node">
<title>Node6</title>
<g id="a_Node000006"><a xlink:href="../../d9/d0f/main_8cc.html" target="_top" xlink:title=" ">
<polygon fill="white" stroke="#666666" points="222.25,-19.25 132,-19.25 132,0 222.25,0 222.25,-19.25"/>
<text text-anchor="middle" x="177.12" y="-5.75" font-family="Helvetica,sans-Serif" font-size="10.00">d3d_test/main.cc</text>
</a>
</g>
</g>
<!-- Node3&#45;&gt;Node6 -->
<g id="edge6_Node000003_Node000006" class="edge">
<title>Node3&#45;&gt;Node6</title>
<g id="a_edge6_Node000003_Node000006"><a xlink:title=" ">
<path fill="none" stroke="#63b8ff" d="M201.32,-114.52C192.1,-106.67 183.2,-96.93 178.12,-85.75 168.09,-63.66 172.11,-34.01 175.06,-19.45"/>
<polygon fill="#63b8ff" stroke="#63b8ff" points="198.94,-117.1 208.97,-120.53 203.26,-111.6 198.94,-117.1"/>
</a>
</g>
</g>
<!-- Node7 -->
<g id="Node000007" class="node">
<title>Node7</title>
<g id="a_Node000007"><a xlink:href="../../d1/da2/deferred-hdr-render-pipeline_8cpp.html" target="_top" xlink:title=" ">
<polygon fill="white" stroke="#666666" points="317.5,-85.75 186.75,-85.75 186.75,-55.25 317.5,-55.25 317.5,-85.75"/>
<text text-anchor="start" x="194.75" y="-72.25" font-family="Helvetica,sans-Serif" font-size="10.00">engine/direct3d11/deferred</text>
<text text-anchor="middle" x="252.12" y="-61" font-family="Helvetica,sans-Serif" font-size="10.00">&#45;hdr&#45;render&#45;pipeline.cpp</text>
</a>
</g>
</g>
<!-- Node3&#45;&gt;Node7 -->
<g id="edge7_Node000003_Node000007" class="edge">
<title>Node3&#45;&gt;Node7</title>
<g id="a_edge7_Node000003_Node000007"><a xlink:title=" ">
<path fill="none" stroke="#63b8ff" d="M241.29,-110.34C243.59,-102.09 246.06,-93.24 248.06,-86.08"/>
<polygon fill="#63b8ff" stroke="#63b8ff" points="237.93,-109.33 238.62,-119.91 244.68,-111.21 237.93,-109.33"/>
</a>
</g>
</g>
<!-- Node5 -->
<g id="Node000005" class="node">
<title>Node5</title>
<g id="a_Node000005"><a xlink:href="../../d1/d47/controller_8cpp.html" target="_top" xlink:title=" ">
<polygon fill="white" stroke="#666666" points="114.25,-19.25 0,-19.25 0,0 114.25,0 114.25,-19.25"/>
<text text-anchor="middle" x="57.12" y="-5.75" font-family="Helvetica,sans-Serif" font-size="10.00">d3d_test/controller.cpp</text>
</a>
</g>
</g>
<!-- Node4&#45;&gt;Node5 -->
<g id="edge4_Node000004_Node000005" class="edge">
<title>Node4&#45;&gt;Node5</title>
<g id="a_edge4_Node000004_Node000005"><a xlink:title=" ">
<path fill="none" stroke="#63b8ff" d="M68.42,-49.74C65.48,-39.56 62.04,-27.63 59.73,-19.65"/>
<polygon fill="#63b8ff" stroke="#63b8ff" points="64.99,-50.47 71.12,-59.1 71.71,-48.53 64.99,-50.47"/>
</a>
</g>
</g>
<!-- Node4&#45;&gt;Node6 -->
<g id="edge5_Node000004_Node000006" class="edge">
<title>Node4&#45;&gt;Node6</title>
<g id="a_edge5_Node000004_Node000006"><a xlink:title=" ">
<path fill="none" stroke="#63b8ff" d="M99.72,-54.87C119.05,-43.82 144.94,-29.02 161.33,-19.65"/>
<polygon fill="#63b8ff" stroke="#63b8ff" points="98.03,-51.81 91.08,-59.81 101.5,-57.88 98.03,-51.81"/>
</a>
</g>
</g>
<!-- Node8&#45;&gt;Node3 -->
<g id="edge9_Node000008_Node000003" class="edge">
<title>Node8&#45;&gt;Node3</title>
<g id="a_edge9_Node000008_Node000003"><a xlink:title=" ">
<path fill="none" stroke="#63b8ff" d="M386.88,-184.47C353.88,-174.43 313.32,-162.09 282.29,-152.65"/>
<polygon fill="#63b8ff" stroke="#63b8ff" points="385.72,-187.78 396.31,-187.34 387.76,-181.08 385.72,-187.78"/>
</a>
</g>
</g>
<!-- Node9 -->
<g id="Node000009" class="node">
<title>Node9</title>
<g id="a_Node000009"><a xlink:href="../../d4/d7c/deferred-resolve_8cpp.html" target="_top" xlink:title=" ">
<polygon fill="white" stroke="#666666" points="502.5,-152.25 389.75,-152.25 389.75,-121.75 502.5,-121.75 502.5,-152.25"/>
<text text-anchor="start" x="397.75" y="-138.75" font-family="Helvetica,sans-Serif" font-size="10.00">engine/render/deferred</text>
<text text-anchor="middle" x="446.12" y="-127.5" font-family="Helvetica,sans-Serif" font-size="10.00">&#45;resolve.cpp</text>
</a>
</g>
</g>
<!-- Node8&#45;&gt;Node9 -->
<g id="edge10_Node000008_Node000009" class="edge">
<title>Node8&#45;&gt;Node9</title>
<g id="a_edge10_Node000008_Node000009"><a xlink:title=" ">
<path fill="none" stroke="#63b8ff" d="M446.12,-176.56C446.12,-168.39 446.12,-159.66 446.12,-152.58"/>
<polygon fill="#63b8ff" stroke="#63b8ff" points="442.63,-176.35 446.13,-186.35 449.63,-176.35 442.63,-176.35"/>
</a>
</g>
</g>
<!-- Node10&#45;&gt;Node3 -->
<g id="edge12_Node000010_Node000003" class="edge">
<title>Node10&#45;&gt;Node3</title>
<g id="a_edge12_Node000010_Node000003"><a xlink:title=" ">
<path fill="none" stroke="#63b8ff" d="M181.74,-180.77C193.11,-171.48 206.08,-160.9 216.27,-152.58"/>
<polygon fill="#63b8ff" stroke="#63b8ff" points="179.76,-177.87 174.22,-186.91 184.18,-183.29 179.76,-177.87"/>
</a>
</g>
</g>
<!-- Node11&#45;&gt;Node3 -->
<g id="edge15_Node000011_Node000003" class="edge">
<title>Node11&#45;&gt;Node3</title>
<g id="a_edge15_Node000011_Node000003"><a xlink:title=" ">
<path fill="none" stroke="#63b8ff" d="M289.51,-181.04C277.48,-171.69 263.7,-160.98 252.88,-152.58"/>
<polygon fill="#63b8ff" stroke="#63b8ff" points="287.05,-183.56 297.1,-186.94 291.35,-178.04 287.05,-183.56"/>
</a>
</g>
</g>
<!-- Node11&#45;&gt;Node6 -->
<g id="edge14_Node000011_Node000006" class="edge">
<title>Node11&#45;&gt;Node6</title>
<g id="a_edge14_Node000011_Node000006"><a xlink:title=" ">
<path fill="none" stroke="#63b8ff" d="M327.74,-177.19C339.2,-145.4 352.55,-90.75 326.12,-55.25 302.5,-23.52 257.12,-13.49 222.62,-10.72"/>
<polygon fill="#63b8ff" stroke="#63b8ff" points="324.53,-175.78 324.22,-186.37 331.06,-178.29 324.53,-175.78"/>
</a>
</g>
</g>
</g>
</svg>
