<?xml version="1.0" encoding="UTF-8" standalone="no"?>
<!DOCTYPE svg PUBLIC "-//W3C//DTD SVG 1.1//EN"
 "http://www.w3.org/Graphics/SVG/1.1/DTD/svg11.dtd">
<!-- Generated by graphviz version 9.0.0 (20230911.1827)
 -->
<!-- Title: engine::ini::Section Pages: 1 -->
<svg width="171pt" height="317pt"
 viewBox="0.00 0.00 170.50 316.75" xmlns="http://www.w3.org/2000/svg" xmlns:xlink="http://www.w3.org/1999/xlink">
<g id="graph0" class="graph" transform="scale(1 1) rotate(0) translate(4 312.75)">
<title>engine::ini::Section</title>
<!-- Node1 -->
<g id="Node000001" class="node">
<title>Node1</title>
<g id="a_Node000001"><a xlink:title="The section of the ini file.">
<polygon fill="#999999" stroke="#666666" points="101.12,-19.25 4.88,-19.25 4.88,0 101.12,0 101.12,-19.25"/>
<text text-anchor="middle" x="53" y="-5.75" font-family="Helvetica,sans-Serif" font-size="10.00">engine::ini::Section</text>
</a>
</g>
</g>
<!-- Node2 -->
<g id="Node000002" class="node">
<title>Node2</title>
<g id="a_Node000002"><a xlink:title=" ">
<polygon fill="white" stroke="#666666" points="106,-108.25 0,-108.25 0,-66.5 106,-66.5 106,-108.25"/>
<text text-anchor="start" x="8" y="-94.75" font-family="Helvetica,sans-Serif" font-size="10.00">std::map&lt; std::string,</text>
<text text-anchor="start" x="8" y="-83.5" font-family="Helvetica,sans-Serif" font-size="10.00"> engine::ini::Entry,</text>
<text text-anchor="middle" x="53" y="-72.25" font-family="Helvetica,sans-Serif" font-size="10.00"> std::less&lt;&gt; &gt;</text>
</a>
</g>
</g>
<!-- Node2&#45;&gt;Node1 -->
<g id="edge1_Node000001_Node000002" class="edge">
<title>Node2&#45;&gt;Node1</title>
<g id="a_edge1_Node000001_Node000002"><a xlink:title=" ">
<path fill="none" stroke="#9a32cd" stroke-dasharray="5,2" d="M53,-54.86C53,-42.16 53,-28.48 53,-19.75"/>
<polygon fill="#9a32cd" stroke="#9a32cd" points="49.5,-54.56 53,-64.56 56.5,-54.56 49.5,-54.56"/>
</a>
</g>
<text text-anchor="middle" x="64.62" y="-39" font-family="Helvetica,sans-Serif" font-size="10.00" fill="grey"> dict_</text>
</g>
<!-- Node3 -->
<g id="Node000003" class="node">
<title>Node3</title>
<g id="a_Node000003"><a xlink:title=" ">
<polygon fill="white" stroke="#666666" points="82,-241.25 24,-241.25 24,-222 82,-222 82,-241.25"/>
<text text-anchor="middle" x="53" y="-227.75" font-family="Helvetica,sans-Serif" font-size="10.00">std::string</text>
</a>
</g>
</g>
<!-- Node3&#45;&gt;Node2 -->
<g id="edge2_Node000002_Node000003" class="edge">
<title>Node3&#45;&gt;Node2</title>
<g id="a_edge2_Node000002_Node000003"><a xlink:title=" ">
<path fill="none" stroke="#9a32cd" stroke-dasharray="5,2" d="M50.05,-210.2C48.67,-199.64 47.18,-186.53 46.5,-174.75 45.19,-152.08 47.68,-126.1 49.95,-108.61"/>
<polygon fill="#9a32cd" stroke="#9a32cd" points="46.57,-210.63 51.41,-220.06 53.51,-209.67 46.57,-210.63"/>
</a>
</g>
<text text-anchor="middle" x="58.25" y="-161.25" font-family="Helvetica,sans-Serif" font-size="10.00" fill="grey"> keys</text>
</g>
<!-- Node5 -->
<g id="Node000005" class="node">
<title>Node5</title>
<g id="a_Node000005"><a xlink:href="../../df/da4/classengine_1_1ini_1_1_entry.html" target="_top" xlink:title="Class representing an entry in the ini file.">
<polygon fill="white" stroke="#666666" points="162.5,-174.75 77.5,-174.75 77.5,-155.5 162.5,-155.5 162.5,-174.75"/>
<text text-anchor="middle" x="120" y="-161.25" font-family="Helvetica,sans-Serif" font-size="10.00">engine::ini::Entry</text>
</a>
</g>
</g>
<!-- Node3&#45;&gt;Node5 -->
<g id="edge5_Node000005_Node000003" class="edge">
<title>Node3&#45;&gt;Node5</title>
<g id="a_edge5_Node000005_Node000003"><a xlink:title=" ">
<path fill="none" stroke="#9a32cd" stroke-dasharray="5,2" d="M70.45,-213.83C83.34,-201.41 100.4,-185 110.76,-175.02"/>
<polygon fill="#9a32cd" stroke="#9a32cd" points="68.18,-211.15 63.41,-220.61 73.04,-216.19 68.18,-211.15"/>
</a>
</g>
<text text-anchor="middle" x="105.38" y="-194.5" font-family="Helvetica,sans-Serif" font-size="10.00" fill="grey"> value_</text>
</g>
<!-- Node4 -->
<g id="Node000004" class="node">
<title>Node4</title>
<g id="a_Node000004"><a xlink:title=" ">
<polygon fill="white" stroke="#666666" points="99.25,-308.75 6.75,-308.75 6.75,-278.25 99.25,-278.25 99.25,-308.75"/>
<text text-anchor="start" x="14.75" y="-295.25" font-family="Helvetica,sans-Serif" font-size="10.00">std::basic_string&lt;</text>
<text text-anchor="middle" x="53" y="-284" font-family="Helvetica,sans-Serif" font-size="10.00"> Char &gt;</text>
</a>
</g>
</g>
<!-- Node4&#45;&gt;Node3 -->
<g id="edge3_Node000003_Node000004" class="edge">
<title>Node4&#45;&gt;Node3</title>
<g id="a_edge3_Node000003_Node000004"><a xlink:title=" ">
<path fill="none" stroke="#63b8ff" d="M53,-266.77C53,-257.79 53,-248.29 53,-241.6"/>
<polygon fill="#63b8ff" stroke="#63b8ff" points="49.5,-266.49 53,-276.49 56.5,-266.49 49.5,-266.49"/>
</a>
</g>
</g>
<!-- Node5&#45;&gt;Node2 -->
<g id="edge4_Node000002_Node000005" class="edge">
<title>Node5&#45;&gt;Node2</title>
<g id="a_edge4_Node000002_Node000005"><a xlink:title=" ">
<path fill="none" stroke="#9a32cd" stroke-dasharray="5,2" d="M104.49,-146.59C94.5,-135.29 81.46,-120.55 71.01,-108.74"/>
<polygon fill="#9a32cd" stroke="#9a32cd" points="101.8,-148.83 111.05,-154 107.04,-144.2 101.8,-148.83"/>
</a>
</g>
<text text-anchor="middle" x="117" y="-128" font-family="Helvetica,sans-Serif" font-size="10.00" fill="grey"> elements</text>
</g>
</g>
</svg>
