<?xml version="1.0" encoding="UTF-8" standalone="no"?>
<!DOCTYPE svg PUBLIC "-//W3C//DTD SVG 1.1//EN"
 "http://www.w3.org/Graphics/SVG/1.1/DTD/svg11.dtd">
<!-- Generated by graphviz version 9.0.0 (20230911.1827)
 -->
<!-- Title: engine::render::ShaderProgram Pages: 1 -->
<svg width="296pt" height="94pt"
 viewBox="0.00 0.00 295.88 93.75" xmlns="http://www.w3.org/2000/svg" xmlns:xlink="http://www.w3.org/1999/xlink">
<g id="graph0" class="graph" transform="scale(1 1) rotate(0) translate(4 89.75)">
<title>engine::render::ShaderProgram</title>
<!-- Node1 -->
<g id="Node000001" class="node">
<title>Node1</title>
<g id="a_Node000001"><a xlink:title=" ">
<polygon fill="#999999" stroke="#666666" points="225.12,-85.75 77.12,-85.75 77.12,-66.5 225.12,-66.5 225.12,-85.75"/>
<text text-anchor="middle" x="151.12" y="-72.25" font-family="Helvetica,sans-Serif" font-size="10.00">engine::render::ShaderProgram</text>
</a>
</g>
</g>
<!-- Node2 -->
<g id="Node000002" class="node">
<title>Node2</title>
<g id="a_Node000002"><a xlink:href="../../d4/d40/classengine_1_1render_1_1_compute_shader_program.html" target="_top" xlink:title=" ">
<polygon fill="white" stroke="#666666" points="150.25,-30.5 0,-30.5 0,0 150.25,0 150.25,-30.5"/>
<text text-anchor="start" x="8" y="-17" font-family="Helvetica,sans-Serif" font-size="10.00">engine::render::ComputeShader</text>
<text text-anchor="middle" x="75.12" y="-5.75" font-family="Helvetica,sans-Serif" font-size="10.00">Program</text>
</a>
</g>
</g>
<!-- Node1&#45;&gt;Node2 -->
<g id="edge1_Node000001_Node000002" class="edge">
<title>Node1&#45;&gt;Node2</title>
<g id="a_edge1_Node000001_Node000002"><a xlink:title=" ">
<path fill="none" stroke="#63b8ff" d="M130.73,-59.32C119.27,-50.45 105.07,-39.44 93.88,-30.78"/>
<polygon fill="#63b8ff" stroke="#63b8ff" points="128.34,-61.9 138.39,-65.26 132.62,-56.37 128.34,-61.9"/>
</a>
</g>
</g>
<!-- Node3 -->
<g id="Node000003" class="node">
<title>Node3</title>
<g id="a_Node000003"><a xlink:href="../../dd/d36/classengine_1_1render_1_1_graphics_shader_program.html" target="_top" xlink:title=" ">
<polygon fill="white" stroke="#666666" points="287.88,-30.5 168.38,-30.5 168.38,0 287.88,0 287.88,-30.5"/>
<text text-anchor="start" x="176.38" y="-17" font-family="Helvetica,sans-Serif" font-size="10.00">engine::render::Graphics</text>
<text text-anchor="middle" x="228.12" y="-5.75" font-family="Helvetica,sans-Serif" font-size="10.00">ShaderProgram</text>
</a>
</g>
</g>
<!-- Node1&#45;&gt;Node3 -->
<g id="edge2_Node000001_Node000003" class="edge">
<title>Node1&#45;&gt;Node3</title>
<g id="a_edge2_Node000001_Node000003"><a xlink:title=" ">
<path fill="none" stroke="#63b8ff" d="M171.79,-59.32C183.4,-50.45 197.79,-39.44 209.12,-30.78"/>
<polygon fill="#63b8ff" stroke="#63b8ff" points="169.84,-56.41 164.02,-65.26 174.09,-61.97 169.84,-56.41"/>
</a>
</g>
</g>
</g>
</svg>
