<?xml version="1.0" encoding="UTF-8" standalone="no"?>
<!DOCTYPE svg PUBLIC "-//W3C//DTD SVG 1.1//EN"
 "http://www.w3.org/Graphics/SVG/1.1/DTD/svg11.dtd">
<!-- Generated by graphviz version 8.1.0 (20230707.0739)
 -->
<!-- Title: engine::render::LightsPerFrame Pages: 1 -->
<!--zoomable 350 -->

<svg id="main" version="1.1" xmlns="http://www.w3.org/2000/svg" xmlns:xlink="http://www.w3.org/1999/xlink" xml:space="preserve" onload="init(evt)">
<style type="text/css"><![CDATA[
.node, .edge {opacity: 0.7;}
.node.selected, .edge.selected {opacity: 1;}
.edge:hover path { stroke: red; }
.edge:hover polygon { stroke: red; fill: red; }
]]></style>

<defs>
  <circle id="rim" cx="0" cy="0" r="7"/>
  <circle id="rim2" cx="0" cy="0" r="3.5"/>
  <g id="zoomPlus">
    <use xlink:href="#rim" fill="#404040"><set attributeName="fill" to="#808080" begin="zoomplus.mouseover" end="zoomplus.mouseout"/></use>
    <path d="M-4,0h8M0,-4v8" fill="none" stroke="white" stroke-width="1.5" pointer-events="none"/>
  </g>
  <g id="zoomMin">
    <use xlink:href="#rim" fill="#404040"><set attributeName="fill" to="#808080" begin="zoomminus.mouseover" end="zoomminus.mouseout"/></use>
    <path d="M-4,0h8" fill="none" stroke="white" stroke-width="1.5" pointer-events="none"/>
  </g>
  <g id="arrowUp" transform="translate(30 24)">
    <use xlink:href="#rim"/>
    <path pointer-events="none" fill="none" stroke="white" stroke-width="1.5" d="M0,-3.0v7 M-2.5,-0.5L0,-3.0L2.5,-0.5"/>
  </g>
  <g id="arrowRight" transform="rotate(90) translate(36 -43)">
    <use xlink:href="#rim"/>
    <path pointer-events="none" fill="none" stroke="white" stroke-width="1.5" d="M0,-3.0v7 M-2.5,-0.5L0,-3.0L2.5,-0.5"/>
  </g>
  <g id="arrowDown" transform="rotate(180) translate(-30 -48)">
    <use xlink:href="#rim"/>
    <path pointer-events="none" fill="none" stroke="white" stroke-width="1.5" d="M0,-3.0v7 M-2.5,-0.5L0,-3.0L2.5,-0.5"/>
  </g>
  <g id="arrowLeft" transform="rotate(270) translate(-36 17)">
    <use xlink:href="#rim"/>
    <path pointer-events="none" fill="none" stroke="white" stroke-width="1.5" d="M0,-3.0v7 M-2.5,-0.5L0,-3.0L2.5,-0.5"/>
  </g>
  <g id="resetDef">
    <use xlink:href="#rim2" fill="#404040"><set attributeName="fill" to="#808080" begin="reset.mouseover" end="reset.mouseout"/></use>
  </g>
</defs>
<script type="application/ecmascript">
var viewWidth = 880;
var viewHeight = 350;
var sectionId = 'dynsection-0';
</script>
<script type="application/ecmascript" xlink:href="../../svg.min.js"/>
<svg id="graph" class="graph">
<g id="viewport">
<title>engine::render::LightsPerFrame</title>
<!-- Node1 -->
<g id="Node000001" class="node">
<title>Node1</title>
<g id="a_Node000001"><a xlink:title=" ">
<polygon fill="#999999" stroke="#666666" points="871.75,-179.12 749.25,-179.12 749.25,-148.62 871.75,-148.62 871.75,-179.12"/>
<text text-anchor="start" x="757.25" y="-165.62" font-family="Helvetica,sans-Serif" font-size="10.00">engine::render::LightsPer</text>
<text text-anchor="middle" x="810.5" y="-154.38" font-family="Helvetica,sans-Serif" font-size="10.00">Frame</text>
</a>
</g>
</g>
<!-- Node2 -->
<g id="Node000002" class="node">
<title>Node2</title>
<g id="a_Node000002"><a xlink:title=" ">
<polygon fill="white" stroke="#666666" points="609.38,-341.75 453.12,-341.75 453.12,-300 609.38,-300 609.38,-341.75"/>
<text text-anchor="start" x="461.12" y="-328.25" font-family="Helvetica,sans-Serif" font-size="10.00">std::array&lt; engine</text>
<text text-anchor="start" x="461.12" y="-317" font-family="Helvetica,sans-Serif" font-size="10.00">::render::GPUShadowPointLight,</text>
<text text-anchor="middle" x="531.25" y="-305.75" font-family="Helvetica,sans-Serif" font-size="10.00"> kMaxShadowPointLights &gt;</text>
</a>
</g>
</g>
<!-- Node2&#45;&gt;Node1 -->
<g id="edge1_Node000001_Node000002" class="edge">
<title>Node2&#45;&gt;Node1</title>
<g id="a_edge1_Node000001_Node000002"><a xlink:title=" ">
<path fill="none" stroke="#9a32cd" stroke-dasharray="5,2" d="M620.47,-302.62C656.82,-292.39 698.09,-277.1 731.25,-254.88 761.54,-234.58 786.98,-199.5 800.05,-179.34"/>
<polygon fill="#9a32cd" stroke="#9a32cd" points="619.59,-299.5 610.86,-305.5 621.43,-306.26 619.59,-299.5"/>
</a>
</g>
<text text-anchor="middle" x="685.88" y="-296.62" font-family="Helvetica,sans-Serif" font-size="10.00" fill="grey"> shadow_point_lights</text>
</g>
<!-- Node3 -->
<g id="Node000003" class="node">
<title>Node3</title>
<g id="a_Node000003"><a xlink:href="../../de/dff/structengine_1_1render_1_1_g_p_u_shadow_point_light.html" target="_top" xlink:title=" ">
<polygon fill="white" stroke="#666666" points="356.75,-336.12 219.25,-336.12 219.25,-305.62 356.75,-305.62 356.75,-336.12"/>
<text text-anchor="start" x="227.25" y="-322.62" font-family="Helvetica,sans-Serif" font-size="10.00">engine::render::GPUShadow</text>
<text text-anchor="middle" x="288" y="-311.38" font-family="Helvetica,sans-Serif" font-size="10.00">PointLight</text>
</a>
</g>
</g>
<!-- Node3&#45;&gt;Node2 -->
<g id="edge2_Node000002_Node000003" class="edge">
<title>Node3&#45;&gt;Node2</title>
<g id="a_edge2_Node000002_Node000003"><a xlink:title=" ">
<path fill="none" stroke="#9a32cd" stroke-dasharray="5,2" d="M367.85,-320.88C395.16,-320.88 425.72,-320.88 452.9,-320.88"/>
<polygon fill="#9a32cd" stroke="#9a32cd" points="368.17,-317.38 358.17,-320.88 368.17,-324.38 368.17,-317.38"/>
</a>
</g>
<text text-anchor="middle" x="401" y="-322.62" font-family="Helvetica,sans-Serif" font-size="10.00" fill="grey"> elements</text>
</g>
<!-- Node4 -->
<g id="Node000004" class="node">
<title>Node4</title>
<g id="a_Node000004"><a xlink:title=" ">
<polygon fill="white" stroke="#666666" points="108.25,-336.12 0,-336.12 0,-305.62 108.25,-305.62 108.25,-336.12"/>
<text text-anchor="start" x="8" y="-322.62" font-family="Helvetica,sans-Serif" font-size="10.00">std::array&lt; core::math</text>
<text text-anchor="middle" x="54.12" y="-311.38" font-family="Helvetica,sans-Serif" font-size="10.00">::mat4, 6 &gt;</text>
</a>
</g>
</g>
<!-- Node4&#45;&gt;Node3 -->
<g id="edge3_Node000003_Node000004" class="edge">
<title>Node4&#45;&gt;Node3</title>
<g id="a_edge3_Node000003_Node000004"><a xlink:title=" ">
<path fill="none" stroke="#9a32cd" stroke-dasharray="5,2" d="M119.28,-320.88C150.22,-320.88 187.34,-320.88 218.79,-320.88"/>
<polygon fill="#9a32cd" stroke="#9a32cd" points="119.61,-317.38 109.61,-320.88 119.61,-324.38 119.61,-317.38"/>
</a>
</g>
<text text-anchor="middle" x="161.12" y="-322.62" font-family="Helvetica,sans-Serif" font-size="10.00" fill="grey"> view_projection</text>
</g>
<!-- Node5 -->
<g id="Node000005" class="node">
<title>Node5</title>
<g id="a_Node000005"><a xlink:title=" ">
<polygon fill="white" stroke="#666666" points="608.25,-281.75 454.25,-281.75 454.25,-240 608.25,-240 608.25,-281.75"/>
<text text-anchor="start" x="462.25" y="-268.25" font-family="Helvetica,sans-Serif" font-size="10.00">std::array&lt; engine</text>
<text text-anchor="start" x="462.25" y="-257" font-family="Helvetica,sans-Serif" font-size="10.00">::render::GPUShadowSpotLight,</text>
<text text-anchor="middle" x="531.25" y="-245.75" font-family="Helvetica,sans-Serif" font-size="10.00"> kMaxShadowSpotLights &gt;</text>
</a>
</g>
</g>
<!-- Node5&#45;&gt;Node1 -->
<g id="edge4_Node000001_Node000005" class="edge">
<title>Node5&#45;&gt;Node1</title>
<g id="a_edge4_Node000001_Node000005"><a xlink:title=" ">
<path fill="none" stroke="#9a32cd" stroke-dasharray="5,2" d="M619.03,-245.6C654.6,-237.79 695.69,-226.73 731.25,-211.88 751.69,-203.33 773,-189.92 788.21,-179.44"/>
<polygon fill="#9a32cd" stroke="#9a32cd" points="618.71,-242.31 609.66,-247.82 620.17,-249.15 618.71,-242.31"/>
</a>
</g>
<text text-anchor="middle" x="685.88" y="-241.62" font-family="Helvetica,sans-Serif" font-size="10.00" fill="grey"> shadow_spot_lights</text>
</g>
<!-- Node6 -->
<g id="Node000006" class="node">
<title>Node6</title>
<g id="a_Node000006"><a xlink:href="../../df/d3f/structengine_1_1render_1_1_g_p_u_shadow_spot_light.html" target="_top" xlink:title=" ">
<polygon fill="white" stroke="#666666" points="356.75,-276.12 219.25,-276.12 219.25,-245.62 356.75,-245.62 356.75,-276.12"/>
<text text-anchor="start" x="227.25" y="-262.62" font-family="Helvetica,sans-Serif" font-size="10.00">engine::render::GPUShadow</text>
<text text-anchor="middle" x="288" y="-251.38" font-family="Helvetica,sans-Serif" font-size="10.00">SpotLight</text>
</a>
</g>
</g>
<!-- Node6&#45;&gt;Node5 -->
<g id="edge5_Node000005_Node000006" class="edge">
<title>Node6&#45;&gt;Node5</title>
<g id="a_edge5_Node000005_Node000006"><a xlink:title=" ">
<path fill="none" stroke="#9a32cd" stroke-dasharray="5,2" d="M367.95,-260.88C395.52,-260.88 426.4,-260.88 453.77,-260.88"/>
<polygon fill="#9a32cd" stroke="#9a32cd" points="368.17,-257.38 358.17,-260.88 368.17,-264.38 368.17,-257.38"/>
</a>
</g>
<text text-anchor="middle" x="401" y="-262.62" font-family="Helvetica,sans-Serif" font-size="10.00" fill="grey"> elements</text>
</g>
<!-- Node7 -->
<g id="Node000007" class="node">
<title>Node7</title>
<g id="a_Node000007"><a xlink:title=" ">
<polygon fill="white" stroke="#666666" points="622.5,-221.75 440,-221.75 440,-180 622.5,-180 622.5,-221.75"/>
<text text-anchor="start" x="448" y="-208.25" font-family="Helvetica,sans-Serif" font-size="10.00">std::array&lt; engine</text>
<text text-anchor="start" x="448" y="-197" font-family="Helvetica,sans-Serif" font-size="10.00">::render::GPUShadowDirectional</text>
<text text-anchor="middle" x="531.25" y="-185.75" font-family="Helvetica,sans-Serif" font-size="10.00">Light, kMaxShadowDirectionalLights &gt;</text>
</a>
</g>
</g>
<!-- Node7&#45;&gt;Node1 -->
<g id="edge6_Node000001_Node000007" class="edge">
<title>Node7&#45;&gt;Node1</title>
<g id="a_edge6_Node000001_Node000007"><a xlink:title=" ">
<path fill="none" stroke="#9a32cd" stroke-dasharray="5,2" d="M633.46,-187.37C672.21,-182.2 715.18,-176.46 748.97,-171.95"/>
<polygon fill="#9a32cd" stroke="#9a32cd" points="633.1,-184.02 623.65,-188.81 634.02,-190.96 633.1,-184.02"/>
</a>
</g>
<text text-anchor="start" x="643.12" y="-197.88" font-family="Helvetica,sans-Serif" font-size="10.00" fill="grey"> shadow_directional</text>
<text text-anchor="middle" x="685.88" y="-186.62" font-family="Helvetica,sans-Serif" font-size="10.00" fill="grey">_lights</text>
</g>
<!-- Node8 -->
<g id="Node000008" class="node">
<title>Node8</title>
<g id="a_Node000008"><a xlink:href="../../db/da6/structengine_1_1render_1_1_g_p_u_shadow_directional_light.html" target="_top" xlink:title=" ">
<polygon fill="white" stroke="#666666" points="356.75,-216.12 219.25,-216.12 219.25,-185.62 356.75,-185.62 356.75,-216.12"/>
<text text-anchor="start" x="227.25" y="-202.62" font-family="Helvetica,sans-Serif" font-size="10.00">engine::render::GPUShadow</text>
<text text-anchor="middle" x="288" y="-191.38" font-family="Helvetica,sans-Serif" font-size="10.00">DirectionalLight</text>
</a>
</g>
</g>
<!-- Node8&#45;&gt;Node7 -->
<g id="edge7_Node000007_Node000008" class="edge">
<title>Node8&#45;&gt;Node7</title>
<g id="a_edge7_Node000007_Node000008"><a xlink:title=" ">
<path fill="none" stroke="#9a32cd" stroke-dasharray="5,2" d="M367.89,-200.88C390.85,-200.88 416.11,-200.88 439.73,-200.88"/>
<polygon fill="#9a32cd" stroke="#9a32cd" points="368.17,-197.38 358.17,-200.88 368.17,-204.38 368.17,-197.38"/>
</a>
</g>
<text text-anchor="middle" x="401" y="-202.62" font-family="Helvetica,sans-Serif" font-size="10.00" fill="grey"> elements</text>
</g>
<!-- Node9 -->
<g id="Node000009" class="node">
<title>Node9</title>
<g id="a_Node000009"><a xlink:title=" ">
<polygon fill="white" stroke="#666666" points="591.75,-161.75 470.75,-161.75 470.75,-120 591.75,-120 591.75,-161.75"/>
<text text-anchor="start" x="478.75" y="-148.25" font-family="Helvetica,sans-Serif" font-size="10.00">std::array&lt; engine</text>
<text text-anchor="start" x="478.75" y="-137" font-family="Helvetica,sans-Serif" font-size="10.00">::render::GPUPointLight,</text>
<text text-anchor="middle" x="531.25" y="-125.75" font-family="Helvetica,sans-Serif" font-size="10.00"> kMaxPointLights &gt;</text>
</a>
</g>
</g>
<!-- Node9&#45;&gt;Node1 -->
<g id="edge8_Node000001_Node000009" class="edge">
<title>Node9&#45;&gt;Node1</title>
<g id="a_edge8_Node000001_Node000009"><a xlink:title=" ">
<path fill="none" stroke="#9a32cd" stroke-dasharray="5,2" d="M602.94,-146.74C648.03,-150.48 705.84,-155.28 748.83,-158.84"/>
<polygon fill="#9a32cd" stroke="#9a32cd" points="603.32,-143.18 593.07,-145.84 602.74,-150.15 603.32,-143.18"/>
</a>
</g>
<text text-anchor="middle" x="685.88" y="-158.62" font-family="Helvetica,sans-Serif" font-size="10.00" fill="grey"> point_lights</text>
</g>
<!-- Node10 -->
<g id="Node000010" class="node">
<title>Node10</title>
<g id="a_Node000010"><a xlink:href="../../d1/d85/structengine_1_1render_1_1_g_p_u_point_light.html" target="_top" xlink:title=" ">
<polygon fill="white" stroke="#666666" points="350.38,-156.12 225.62,-156.12 225.62,-125.62 350.38,-125.62 350.38,-156.12"/>
<text text-anchor="start" x="233.62" y="-142.62" font-family="Helvetica,sans-Serif" font-size="10.00">engine::render::GPUPoint</text>
<text text-anchor="middle" x="288" y="-131.38" font-family="Helvetica,sans-Serif" font-size="10.00">Light</text>
</a>
</g>
</g>
<!-- Node10&#45;&gt;Node9 -->
<g id="edge9_Node000009_Node000010" class="edge">
<title>Node10&#45;&gt;Node9</title>
<g id="a_edge9_Node000009_Node000010"><a xlink:title=" ">
<path fill="none" stroke="#9a32cd" stroke-dasharray="5,2" d="M361.38,-140.88C396.13,-140.88 437.28,-140.88 470.26,-140.88"/>
<polygon fill="#9a32cd" stroke="#9a32cd" points="361.81,-137.38 351.81,-140.88 361.81,-144.38 361.81,-137.38"/>
</a>
</g>
<text text-anchor="middle" x="401" y="-142.62" font-family="Helvetica,sans-Serif" font-size="10.00" fill="grey"> elements</text>
</g>
<!-- Node11 -->
<g id="Node000011" class="node">
<title>Node11</title>
<g id="a_Node000011"><a xlink:title=" ">
<polygon fill="white" stroke="#666666" points="590.62,-101.75 471.88,-101.75 471.88,-60 590.62,-60 590.62,-101.75"/>
<text text-anchor="start" x="479.88" y="-88.25" font-family="Helvetica,sans-Serif" font-size="10.00">std::array&lt; engine</text>
<text text-anchor="start" x="479.88" y="-77" font-family="Helvetica,sans-Serif" font-size="10.00">::render::GPUSpotLight,</text>
<text text-anchor="middle" x="531.25" y="-65.75" font-family="Helvetica,sans-Serif" font-size="10.00"> kMaxSpotLights &gt;</text>
</a>
</g>
</g>
<!-- Node11&#45;&gt;Node1 -->
<g id="edge10_Node000001_Node000011" class="edge">
<title>Node11&#45;&gt;Node1</title>
<g id="a_edge10_Node000001_Node000011"><a xlink:title=" ">
<path fill="none" stroke="#9a32cd" stroke-dasharray="5,2" d="M601.58,-97.9C640.04,-107.76 688.58,-120.92 731.25,-134.62 743.95,-138.71 757.63,-143.63 769.95,-148.27"/>
<polygon fill="#9a32cd" stroke="#9a32cd" points="602.57,-94.28 592.01,-95.2 600.84,-101.06 602.57,-94.28"/>
</a>
</g>
<text text-anchor="middle" x="685.88" y="-135.62" font-family="Helvetica,sans-Serif" font-size="10.00" fill="grey"> spot_lights</text>
</g>
<!-- Node12 -->
<g id="Node000012" class="node">
<title>Node12</title>
<g id="a_Node000012"><a xlink:href="../../d2/d91/structengine_1_1render_1_1_g_p_u_spot_light.html" target="_top" xlink:title=" ">
<polygon fill="white" stroke="#666666" points="360.12,-90.5 215.88,-90.5 215.88,-71.25 360.12,-71.25 360.12,-90.5"/>
<text text-anchor="middle" x="288" y="-77" font-family="Helvetica,sans-Serif" font-size="10.00">engine::render::GPUSpotLight</text>
</a>
</g>
</g>
<!-- Node12&#45;&gt;Node11 -->
<g id="edge11_Node000011_Node000012" class="edge">
<title>Node12&#45;&gt;Node11</title>
<g id="a_edge11_Node000011_Node000012"><a xlink:title=" ">
<path fill="none" stroke="#9a32cd" stroke-dasharray="5,2" d="M371.39,-80.88C404.33,-80.88 441.51,-80.88 471.61,-80.88"/>
<polygon fill="#9a32cd" stroke="#9a32cd" points="371.4,-77.38 361.4,-80.88 371.4,-84.38 371.4,-77.38"/>
</a>
</g>
<text text-anchor="middle" x="401" y="-82.62" font-family="Helvetica,sans-Serif" font-size="10.00" fill="grey"> elements</text>
</g>
<!-- Node13 -->
<g id="Node000013" class="node">
<title>Node13</title>
<g id="a_Node000013"><a xlink:title=" ">
<polygon fill="white" stroke="#666666" points="603.38,-41.75 459.12,-41.75 459.12,0 603.38,0 603.38,-41.75"/>
<text text-anchor="start" x="467.12" y="-28.25" font-family="Helvetica,sans-Serif" font-size="10.00">std::array&lt; engine</text>
<text text-anchor="start" x="467.12" y="-17" font-family="Helvetica,sans-Serif" font-size="10.00">::render::GPUDirectionalLight,</text>
<text text-anchor="middle" x="531.25" y="-5.75" font-family="Helvetica,sans-Serif" font-size="10.00"> kMaxDirectionalLights &gt;</text>
</a>
</g>
</g>
<!-- Node13&#45;&gt;Node1 -->
<g id="edge12_Node000001_Node000013" class="edge">
<title>Node13&#45;&gt;Node1</title>
<g id="a_edge12_Node000001_Node000013"><a xlink:title=" ">
<path fill="none" stroke="#9a32cd" stroke-dasharray="5,2" d="M613.93,-42.5C651.31,-54.42 695.2,-71.37 731.25,-93.62 756.26,-109.07 780.76,-132.87 795.5,-148.41"/>
<polygon fill="#9a32cd" stroke="#9a32cd" points="615.16,-38.9 604.57,-39.27 613.08,-45.58 615.16,-38.9"/>
</a>
</g>
<text text-anchor="middle" x="685.88" y="-94.62" font-family="Helvetica,sans-Serif" font-size="10.00" fill="grey"> directional_lights</text>
</g>
<!-- Node14 -->
<g id="Node000014" class="node">
<title>Node14</title>
<g id="a_Node000014"><a xlink:href="../../d8/dd5/structengine_1_1render_1_1_g_p_u_directional_light.html" target="_top" xlink:title=" ">
<polygon fill="white" stroke="#666666" points="362,-36.12 214,-36.12 214,-5.62 362,-5.62 362,-36.12"/>
<text text-anchor="start" x="222" y="-22.62" font-family="Helvetica,sans-Serif" font-size="10.00">engine::render::GPUDirectional</text>
<text text-anchor="middle" x="288" y="-11.38" font-family="Helvetica,sans-Serif" font-size="10.00">Light</text>
</a>
</g>
</g>
<!-- Node14&#45;&gt;Node13 -->
<g id="edge13_Node000013_Node000014" class="edge">
<title>Node14&#45;&gt;Node13</title>
<g id="a_edge13_Node000013_Node000014"><a xlink:title=" ">
<path fill="none" stroke="#9a32cd" stroke-dasharray="5,2" d="M373.32,-20.88C401.25,-20.88 432.03,-20.88 458.89,-20.88"/>
<polygon fill="#9a32cd" stroke="#9a32cd" points="373.37,-17.38 363.37,-20.88 373.37,-24.38 373.37,-17.38"/>
</a>
</g>
<text text-anchor="middle" x="401" y="-22.62" font-family="Helvetica,sans-Serif" font-size="10.00" fill="grey"> elements</text>
</g>
</g>
</svg>

<g id="navigator" transform="translate(0 0)" fill="#404254">
  <rect fill="#f2f5e9" fill-opacity="0.5" stroke="#606060" stroke-width=".5" x="0" y="0" width="60" height="60"/>
  <use id="zoomplus" xlink:href="#zoomPlus" x="17" y="9" onmousedown="handleZoom(evt,'in')"/>
  <use id="zoomminus" xlink:href="#zoomMin" x="42" y="9" onmousedown="handleZoom(evt,'out')"/>
  <use id="reset" xlink:href="#resetDef" x="30" y="36" onmousedown="handleReset()"/>
   <use id="arrowup" xlink:href="#arrowUp" x="0" y="0" onmousedown="handlePan(0,-1)"/>
  <use id="arrowright" xlink:href="#arrowRight" x="0" y="0" onmousedown="handlePan(1,0)"/>
  <use id="arrowdown" xlink:href="#arrowDown" x="0" y="0" onmousedown="handlePan(0,1)"/>
  <use id="arrowleft" xlink:href="#arrowLeft" x="0" y="0" onmousedown="handlePan(-1,0)"/>
</g>
<svg viewBox="0 0 15 15" width="100%" height="30px" preserveAspectRatio="xMaxYMin meet">
 <g id="arrow_out" transform="scale(0.3 0.3)">
  <a xlink:href="structengine_1_1render_1_1_lights_per_frame__coll__graph_org.svg" target="_base">
   <rect id="button" ry="5" rx="5" y="6" x="6" height="38" width="38"
        fill="#f2f5e9" fill-opacity="0.5" stroke="#606060" stroke-width="1.0"/>
   <path id="arrow"
     d="M 11.500037,31.436501 C 11.940474,20.09759 22.043105,11.32322 32.158766,21.979434 L 37.068811,17.246167 C 37.068811,17.246167 37.088388,32 37.088388,32 L 22.160133,31.978069 C 22.160133,31.978069 26.997745,27.140456 26.997745,27.140456 C 18.528582,18.264221 13.291696,25.230495 11.500037,31.436501 z"
     style="fill:#404040;"/>
  </a>
 </g>
</svg>

<style type='text/css'>
<![CDATA[
[data-mouse-over-selected='false'] { opacity: 0.7; }
[data-mouse-over-selected='true']  { opacity: 1.0; }
]]>
</style>
<script type="application/ecmascript"><![CDATA[
document.addEventListener('DOMContentLoaded', (event) => {
  highlightEdges();
  highlightAdjacentNodes();
});
]]></script>
</svg>
