<?xml version="1.0" encoding="UTF-8" standalone="no"?>
<!DOCTYPE svg PUBLIC "-//W3C//DTD SVG 1.1//EN"
 "http://www.w3.org/Graphics/SVG/1.1/DTD/svg11.dtd">
<!-- Generated by graphviz version 8.1.0 (20230707.0739)
 -->
<!-- Title: engine::render::PostProcessingLayer Pages: 1 -->
<svg width="488pt" height="101pt"
 viewBox="0.00 0.00 488.00 101.25" xmlns="http://www.w3.org/2000/svg" xmlns:xlink="http://www.w3.org/1999/xlink">

<svg id="main" version="1.1" xmlns="http://www.w3.org/2000/svg" xmlns:xlink="http://www.w3.org/1999/xlink" xml:space="preserve" onload="init(evt)">
<style type="text/css"><![CDATA[
.node, .edge {opacity: 0.7;}
.node.selected, .edge.selected {opacity: 1;}
.edge:hover path { stroke: red; }
.edge:hover polygon { stroke: red; fill: red; }
]]></style>
<script type="application/ecmascript" xlink:href="../../svg.min.js"/>
<svg id="graph" class="graph">
<g id="graph0" class="graph" transform="scale(1 1) rotate(0) translate(4 97.25)">
<title>engine::render::PostProcessingLayer</title>
<!-- Node1 -->
<g id="Node000001" class="node">
<title>Node1</title>
<g id="a_Node000001"><a xlink:title=" ">
<polygon fill="#999999" stroke="#666666" points="281.75,-61.88 132.25,-61.88 132.25,-31.38 281.75,-31.38 281.75,-61.88"/>
<text text-anchor="start" x="140.25" y="-48.38" font-family="Helvetica,sans-Serif" font-size="10.00">engine::render::PostProcessing</text>
<text text-anchor="middle" x="207" y="-37.12" font-family="Helvetica,sans-Serif" font-size="10.00">Layer</text>
</a>
</g>
</g>
<!-- Node3 -->
<g id="Node000003" class="node">
<title>Node3</title>
<g id="a_Node000003"><a xlink:href="../../dd/d52/classengine_1_1render_1_1_h_d_rto_l_d_r_layer.html" target="_top" xlink:title=" ">
<polygon fill="white" stroke="#666666" points="475.5,-93.25 322.25,-93.25 322.25,-74 475.5,-74 475.5,-93.25"/>
<text text-anchor="middle" x="398.88" y="-79.75" font-family="Helvetica,sans-Serif" font-size="10.00">engine::render::HDRtoLDRLayer</text>
</a>
</g>
</g>
<!-- Node1&#45;&gt;Node3 -->
<g id="edge2_Node000001_Node000003" class="edge">
<title>Node1&#45;&gt;Node3</title>
<g id="a_edge2_Node000001_Node000003"><a xlink:title=" ">
<path fill="none" stroke="#63b8ff" d="M292.82,-63.15C310.94,-66.68 329.56,-70.31 346,-73.52"/>
<polygon fill="#63b8ff" stroke="#63b8ff" points="293.71,-59.57 283.23,-61.09 292.37,-66.44 293.71,-59.57"/>
</a>
</g>
</g>
<!-- Node4 -->
<g id="Node000004" class="node">
<title>Node4</title>
<g id="a_Node000004"><a xlink:href="../../df/df1/classengine_1_1render_1_1_post_processing.html" target="_top" xlink:title=" ">
<polygon fill="white" stroke="#666666" points="473.62,-56.25 324.12,-56.25 324.12,-37 473.62,-37 473.62,-56.25"/>
<text text-anchor="middle" x="398.88" y="-42.75" font-family="Helvetica,sans-Serif" font-size="10.00">engine::render::PostProcessing</text>
</a>
</g>
</g>
<!-- Node1&#45;&gt;Node4 -->
<g id="edge3_Node000001_Node000004" class="edge">
<title>Node1&#45;&gt;Node4</title>
<g id="a_edge3_Node000001_Node000004"><a xlink:title=" ">
<path fill="none" stroke="#63b8ff" d="M293.19,-46.62C303.37,-46.62 313.69,-46.62 323.7,-46.62"/>
<polygon fill="#63b8ff" stroke="#63b8ff" points="293.23,-43.13 283.23,-46.62 293.23,-50.13 293.23,-43.13"/>
</a>
</g>
</g>
<!-- Node5 -->
<g id="Node000005" class="node">
<title>Node5</title>
<g id="a_Node000005"><a xlink:href="../../d3/df2/classengine_1_1render_1_1_present_swapchain.html" target="_top" xlink:title=" ">
<polygon fill="white" stroke="#666666" points="480,-19.25 317.75,-19.25 317.75,0 480,0 480,-19.25"/>
<text text-anchor="middle" x="398.88" y="-5.75" font-family="Helvetica,sans-Serif" font-size="10.00">engine::render::PresentSwapchain</text>
</a>
</g>
</g>
<!-- Node1&#45;&gt;Node5 -->
<g id="edge4_Node000001_Node000005" class="edge">
<title>Node1&#45;&gt;Node5</title>
<g id="a_edge4_Node000001_Node000005"><a xlink:title=" ">
<path fill="none" stroke="#63b8ff" d="M292.82,-30.1C310.94,-26.57 329.56,-22.94 346,-19.73"/>
<polygon fill="#63b8ff" stroke="#63b8ff" points="292.37,-26.81 283.23,-32.16 293.71,-33.68 292.37,-26.81"/>
</a>
</g>
</g>
<!-- Node2 -->
<g id="Node000002" class="node">
<title>Node2</title>
<g id="a_Node000002"><a xlink:href="../../d0/d04/classengine_1_1core_1_1_layer.html" target="_top" xlink:title=" ">
<polygon fill="white" stroke="#666666" points="96.25,-56.25 0,-56.25 0,-37 96.25,-37 96.25,-56.25"/>
<text text-anchor="middle" x="48.12" y="-42.75" font-family="Helvetica,sans-Serif" font-size="10.00">engine::core::Layer</text>
</a>
</g>
</g>
<!-- Node2&#45;&gt;Node1 -->
<g id="edge1_Node000001_Node000002" class="edge">
<title>Node2&#45;&gt;Node1</title>
<g id="a_edge1_Node000001_Node000002"><a xlink:title=" ">
<path fill="none" stroke="#63b8ff" d="M107.36,-46.62C115.4,-46.62 123.75,-46.62 132.02,-46.62"/>
<polygon fill="#63b8ff" stroke="#63b8ff" points="107.62,-43.13 97.62,-46.62 107.62,-50.13 107.62,-43.13"/>
</a>
</g>
</g>
</g>
</svg>
</svg>

<style type='text/css'>
<![CDATA[
[data-mouse-over-selected='false'] { opacity: 0.7; }
[data-mouse-over-selected='true']  { opacity: 1.0; }
]]>
</style>
<script type="application/ecmascript"><![CDATA[
document.addEventListener('DOMContentLoaded', (event) => {
  highlightEdges();
  highlightAdjacentNodes();
});
]]></script>
</svg>
