<?xml version="1.0" encoding="UTF-8" standalone="no"?>
<!DOCTYPE svg PUBLIC "-//W3C//DTD SVG 1.1//EN"
 "http://www.w3.org/Graphics/SVG/1.1/DTD/svg11.dtd">
<!-- Generated by graphviz version 8.1.0 (20230707.0739)
 -->
<!-- Title: engine::render::ShadowMap Pages: 1 -->
<svg width="758pt" height="126pt"
 viewBox="0.00 0.00 758.00 125.75" xmlns="http://www.w3.org/2000/svg" xmlns:xlink="http://www.w3.org/1999/xlink">
<g id="graph0" class="graph" transform="scale(1 1) rotate(0) translate(4 121.75)">
<title>engine::render::ShadowMap</title>
<!-- Node1 -->
<g id="Node000001" class="node">
<title>Node1</title>
<g id="a_Node000001"><a xlink:title=" ">
<polygon fill="#999999" stroke="#666666" points="750,-82.5 615.5,-82.5 615.5,-63.25 750,-63.25 750,-82.5"/>
<text text-anchor="middle" x="682.75" y="-69" font-family="Helvetica,sans-Serif" font-size="10.00">engine::render::ShadowMap</text>
</a>
</g>
</g>
<!-- Node2 -->
<g id="Node000002" class="node">
<title>Node2</title>
<g id="a_Node000002"><a xlink:href="../../df/d47/classengine_1_1direct3d_1_1d3d__resource__wrapper.html" target="_top" xlink:title=" ">
<polygon fill="white" stroke="#666666" points="488,-117.75 318.25,-117.75 318.25,-76 488,-76 488,-117.75"/>
<text text-anchor="start" x="326.25" y="-104.25" font-family="Helvetica,sans-Serif" font-size="10.00">engine::direct3d::d3d</text>
<text text-anchor="start" x="326.25" y="-93" font-family="Helvetica,sans-Serif" font-size="10.00">_resource_wrapper&lt; ID3D11Shader</text>
<text text-anchor="middle" x="403.12" y="-81.75" font-family="Helvetica,sans-Serif" font-size="10.00">ResourceView &gt;</text>
</a>
</g>
</g>
<!-- Node2&#45;&gt;Node1 -->
<g id="edge1_Node000001_Node000002" class="edge">
<title>Node2&#45;&gt;Node1</title>
<g id="a_edge1_Node000001_Node000002"><a xlink:title=" ">
<path fill="none" stroke="#9a32cd" stroke-dasharray="5,2" d="M498.82,-88.69C537.08,-85.38 580.32,-81.64 615.16,-78.63"/>
<polygon fill="#9a32cd" stroke="#9a32cd" points="498.84,-85.26 489.18,-89.61 499.44,-92.23 498.84,-85.26"/>
</a>
</g>
<text text-anchor="middle" x="551.75" y="-88.62" font-family="Helvetica,sans-Serif" font-size="10.00" fill="grey"> depth_texture_view_</text>
</g>
<!-- Node3 -->
<g id="Node000003" class="node">
<title>Node3</title>
<g id="a_Node000003"><a xlink:href="../../d9/d3c/classengine_1_1direct3d_1_1_depth_stencil.html" target="_top" xlink:title=" ">
<polygon fill="white" stroke="#666666" points="474.88,-57.5 331.38,-57.5 331.38,-38.25 474.88,-38.25 474.88,-57.5"/>
<text text-anchor="middle" x="403.12" y="-44" font-family="Helvetica,sans-Serif" font-size="10.00">engine::direct3d::DepthStencil</text>
</a>
</g>
</g>
<!-- Node3&#45;&gt;Node1 -->
<g id="edge2_Node000001_Node000003" class="edge">
<title>Node3&#45;&gt;Node1</title>
<g id="a_edge2_Node000001_Node000003"><a xlink:title=" ">
<path fill="none" stroke="#9a32cd" stroke-dasharray="5,2" d="M486.26,-54.78C520.64,-57.73 561.01,-61.26 597.5,-64.62 603.21,-65.15 609.13,-65.71 615.07,-66.28"/>
<polygon fill="#9a32cd" stroke="#9a32cd" points="486.58,-51.21 476.32,-53.85 485.98,-58.19 486.58,-51.21"/>
</a>
</g>
<text text-anchor="middle" x="551.75" y="-65.62" font-family="Helvetica,sans-Serif" font-size="10.00" fill="grey"> depth_stencil_</text>
</g>
<!-- Node4 -->
<g id="Node000004" class="node">
<title>Node4</title>
<g id="a_Node000004"><a xlink:href="../../df/d47/classengine_1_1direct3d_1_1d3d__resource__wrapper.html" target="_top" xlink:title=" ">
<polygon fill="white" stroke="#666666" points="191.5,-90.12 0,-90.12 0,-59.62 191.5,-59.62 191.5,-90.12"/>
<text text-anchor="start" x="8" y="-76.62" font-family="Helvetica,sans-Serif" font-size="10.00">engine::direct3d::d3d</text>
<text text-anchor="middle" x="95.75" y="-65.38" font-family="Helvetica,sans-Serif" font-size="10.00">_resource_wrapper&lt; ID3D11Texture2D &gt;</text>
</a>
</g>
</g>
<!-- Node4&#45;&gt;Node3 -->
<g id="edge3_Node000003_Node000004" class="edge">
<title>Node4&#45;&gt;Node3</title>
<g id="a_edge3_Node000003_Node000004"><a xlink:title=" ">
<path fill="none" stroke="#9a32cd" stroke-dasharray="5,2" d="M202.65,-65.51C245.09,-61.76 292.86,-57.54 331.01,-54.16"/>
<polygon fill="#9a32cd" stroke="#9a32cd" points="202.35,-62.11 192.7,-66.48 202.97,-69.09 202.35,-62.11"/>
</a>
</g>
<text text-anchor="middle" x="254.88" y="-65.62" font-family="Helvetica,sans-Serif" font-size="10.00" fill="grey"> depth_buffer_</text>
</g>
<!-- Node5 -->
<g id="Node000005" class="node">
<title>Node5</title>
<g id="a_Node000005"><a xlink:href="../../df/d47/classengine_1_1direct3d_1_1d3d__resource__wrapper.html" target="_top" xlink:title=" ">
<polygon fill="white" stroke="#666666" points="178,-41.75 13.5,-41.75 13.5,0 178,0 178,-41.75"/>
<text text-anchor="start" x="21.5" y="-28.25" font-family="Helvetica,sans-Serif" font-size="10.00">engine::direct3d::d3d</text>
<text text-anchor="start" x="21.5" y="-17" font-family="Helvetica,sans-Serif" font-size="10.00">_resource_wrapper&lt; ID3D11Depth</text>
<text text-anchor="middle" x="95.75" y="-5.75" font-family="Helvetica,sans-Serif" font-size="10.00">StencilView &gt;</text>
</a>
</g>
</g>
<!-- Node5&#45;&gt;Node3 -->
<g id="edge4_Node000003_Node000005" class="edge">
<title>Node5&#45;&gt;Node3</title>
<g id="a_edge4_Node000003_Node000005"><a xlink:title=" ">
<path fill="none" stroke="#9a32cd" stroke-dasharray="5,2" d="M188.97,-29.03C234.56,-33.06 288.73,-37.85 331.05,-41.59"/>
<polygon fill="#9a32cd" stroke="#9a32cd" points="189.45,-25.47 179.18,-28.08 188.84,-32.44 189.45,-25.47"/>
</a>
</g>
<text text-anchor="middle" x="254.88" y="-40.62" font-family="Helvetica,sans-Serif" font-size="10.00" fill="grey"> depth_stencil_view_</text>
</g>
</g>
</svg>
