<?xml version="1.0" encoding="UTF-8" standalone="no"?>
<!DOCTYPE svg PUBLIC "-//W3C//DTD SVG 1.1//EN"
 "http://www.w3.org/Graphics/SVG/1.1/DTD/svg11.dtd">
<!-- Generated by graphviz version 9.0.0 (20230911.1827)
 -->
<!-- Title: engine::render::ShadowMap Pages: 1 -->
<svg width="758pt" height="126pt"
 viewBox="0.00 0.00 758.00 125.75" xmlns="http://www.w3.org/2000/svg" xmlns:xlink="http://www.w3.org/1999/xlink">
<g id="graph0" class="graph" transform="scale(1 1) rotate(0) translate(4 121.75)">
<title>engine::render::ShadowMap</title>
<!-- Node1 -->
<g id="Node000001" class="node">
<title>Node1</title>
<g id="a_Node000001"><a xlink:title=" ">
<polygon fill="#999999" stroke="#666666" points="750,-82.5 615.5,-82.5 615.5,-63.25 750,-63.25 750,-82.5"/>
<text text-anchor="middle" x="682.75" y="-69" font-family="Helvetica,sans-Serif" font-size="10.00">engine::render::ShadowMap</text>
</a>
</g>
</g>
<!-- Node2 -->
<g id="Node000002" class="node">
<title>Node2</title>
<g id="a_Node000002"><a xlink:href="../../df/d47/classengine_1_1direct3d_1_1d3d__resource__wrapper.html" target="_top" xlink:title=" ">
<polygon fill="white" stroke="#666666" points="488,-117.75 318.25,-117.75 318.25,-76 488,-76 488,-117.75"/>
<text text-anchor="start" x="326.25" y="-104.25" font-family="Helvetica,sans-Serif" font-size="10.00">engine::direct3d::d3d</text>
<text text-anchor="start" x="326.25" y="-93" font-family="Helvetica,sans-Serif" font-size="10.00">_resource_wrapper&lt; ID3D11Shader</text>
<text text-anchor="middle" x="403.12" y="-81.75" font-family="Helvetica,sans-Serif" font-size="10.00">ResourceView &gt;</text>
</a>
</g>
</g>
<!-- Node2&#45;&gt;Node1 -->
<g id="edge1_Node000001_Node000002" class="edge">
<title>Node2&#45;&gt;Node1</title>
<g id="a_edge1_Node000001_Node000002"><a xlink:title=" ">
<path fill="none" stroke="#9a32cd" stroke-dasharray="5,2" d="M499.31,-88.65C537.45,-85.35 580.47,-81.63 615.16,-78.63"/>
<polygon fill="#9a32cd" stroke="#9a32cd" points="499.34,-85.13 489.68,-89.48 499.95,-92.1 499.34,-85.13"/>
</a>
</g>
<text text-anchor="middle" x="551.75" y="-88.62" font-family="Helvetica,sans-Serif" font-size="10.00" fill="grey"> depth_texture_view_</text>
</g>
<!-- Node3 -->
<g id="Node000003" class="node">
<title>Node3</title>
<g id="a_Node000003"><a xlink:href="../../d9/d3c/classengine_1_1direct3d_1_1_depth_stencil.html" target="_top" xlink:title=" ">
<polygon fill="white" stroke="#666666" points="474.88,-57.5 331.38,-57.5 331.38,-38.25 474.88,-38.25 474.88,-57.5"/>
<text text-anchor="middle" x="403.12" y="-44" font-family="Helvetica,sans-Serif" font-size="10.00">engine::direct3d::DepthStencil</text>
</a>
</g>
</g>
<!-- Node3&#45;&gt;Node1 -->
<g id="edge2_Node000001_Node000003" class="edge">
<title>Node3&#45;&gt;Node1</title>
<g id="a_edge2_Node000001_Node000003"><a xlink:title=" ">
<path fill="none" stroke="#9a32cd" stroke-dasharray="5,2" d="M486.7,-54.82C520.99,-57.76 561.17,-61.27 597.5,-64.62 603.21,-65.15 609.13,-65.71 615.07,-66.28"/>
<polygon fill="#9a32cd" stroke="#9a32cd" points="487.09,-51.34 476.83,-53.98 486.49,-58.32 487.09,-51.34"/>
</a>
</g>
<text text-anchor="middle" x="551.75" y="-65.62" font-family="Helvetica,sans-Serif" font-size="10.00" fill="grey"> depth_stencil_</text>
</g>
<!-- Node4 -->
<g id="Node000004" class="node">
<title>Node4</title>
<g id="a_Node000004"><a xlink:href="../../df/d47/classengine_1_1direct3d_1_1d3d__resource__wrapper.html" target="_top" xlink:title=" ">
<polygon fill="white" stroke="#666666" points="191.5,-90.12 0,-90.12 0,-59.62 191.5,-59.62 191.5,-90.12"/>
<text text-anchor="start" x="8" y="-76.62" font-family="Helvetica,sans-Serif" font-size="10.00">engine::direct3d::d3d</text>
<text text-anchor="middle" x="95.75" y="-65.38" font-family="Helvetica,sans-Serif" font-size="10.00">_resource_wrapper&lt; ID3D11Texture2D &gt;</text>
</a>
</g>
</g>
<!-- Node4&#45;&gt;Node3 -->
<g id="edge3_Node000003_Node000004" class="edge">
<title>Node4&#45;&gt;Node3</title>
<g id="a_edge3_Node000003_Node000004"><a xlink:title=" ">
<path fill="none" stroke="#9a32cd" stroke-dasharray="5,2" d="M202.92,-65.49C245.29,-61.74 292.94,-57.53 331.01,-54.16"/>
<polygon fill="#9a32cd" stroke="#9a32cd" points="202.86,-61.98 193.21,-66.35 203.48,-68.95 202.86,-61.98"/>
</a>
</g>
<text text-anchor="middle" x="254.88" y="-65.62" font-family="Helvetica,sans-Serif" font-size="10.00" fill="grey"> depth_buffer_</text>
</g>
<!-- Node5 -->
<g id="Node000005" class="node">
<title>Node5</title>
<g id="a_Node000005"><a xlink:href="../../df/d47/classengine_1_1direct3d_1_1d3d__resource__wrapper.html" target="_top" xlink:title=" ">
<polygon fill="white" stroke="#666666" points="178,-41.75 13.5,-41.75 13.5,0 178,0 178,-41.75"/>
<text text-anchor="start" x="21.5" y="-28.25" font-family="Helvetica,sans-Serif" font-size="10.00">engine::direct3d::d3d</text>
<text text-anchor="start" x="21.5" y="-17" font-family="Helvetica,sans-Serif" font-size="10.00">_resource_wrapper&lt; ID3D11Depth</text>
<text text-anchor="middle" x="95.75" y="-5.75" font-family="Helvetica,sans-Serif" font-size="10.00">StencilView &gt;</text>
</a>
</g>
</g>
<!-- Node5&#45;&gt;Node3 -->
<g id="edge4_Node000003_Node000005" class="edge">
<title>Node5&#45;&gt;Node3</title>
<g id="a_edge4_Node000003_Node000005"><a xlink:title=" ">
<path fill="none" stroke="#9a32cd" stroke-dasharray="5,2" d="M189.55,-29.08C235.02,-33.1 288.91,-37.86 331.05,-41.59"/>
<polygon fill="#9a32cd" stroke="#9a32cd" points="189.96,-25.6 179.69,-28.21 189.34,-32.58 189.96,-25.6"/>
</a>
</g>
<text text-anchor="middle" x="254.88" y="-40.62" font-family="Helvetica,sans-Serif" font-size="10.00" fill="grey"> depth_stencil_view_</text>
</g>
</g>
</svg>
