<?xml version="1.0" encoding="UTF-8" standalone="no"?>
<!DOCTYPE svg PUBLIC "-//W3C//DTD SVG 1.1//EN"
 "http://www.w3.org/Graphics/SVG/1.1/DTD/svg11.dtd">
<!-- Generated by graphviz version 9.0.0 (20230911.1827)
 -->
<!-- Title: engine::direct3d::Api Pages: 1 -->
<svg width="891pt" height="350pt"
 viewBox="0.00 0.00 891.00 349.75" xmlns="http://www.w3.org/2000/svg" xmlns:xlink="http://www.w3.org/1999/xlink">
<g id="graph0" class="graph" transform="scale(1 1) rotate(0) translate(4 345.75)">
<title>engine::direct3d::Api</title>
<!-- Node1 -->
<g id="Node000001" class="node">
<title>Node1</title>
<g id="a_Node000001"><a xlink:title="The Api class is the main class for the Direct3D11 API.">
<polygon fill="#999999" stroke="#666666" points="687,-179.5 584.75,-179.5 584.75,-160.25 687,-160.25 687,-179.5"/>
<text text-anchor="middle" x="635.88" y="-166" font-family="Helvetica,sans-Serif" font-size="10.00">engine::direct3d::Api</text>
</a>
</g>
</g>
<!-- Node15 -->
<g id="Node000015" class="node">
<title>Node15</title>
<g id="a_Node000015"><a xlink:title=" ">
<polygon fill="white" stroke="#666666" points="883,-185.12 767.25,-185.12 767.25,-154.62 883,-154.62 883,-185.12"/>
<text text-anchor="start" x="775.25" y="-171.62" font-family="Helvetica,sans-Serif" font-size="10.00">std::unique_ptr&lt; engine</text>
<text text-anchor="middle" x="825.12" y="-160.38" font-family="Helvetica,sans-Serif" font-size="10.00">::direct3d::Api &gt;</text>
</a>
</g>
</g>
<!-- Node1&#45;&gt;Node15 -->
<g id="edge20_Node000015_Node000001" class="edge">
<title>Node1&#45;&gt;Node15</title>
<g id="a_edge20_Node000015_Node000001"><a xlink:title=" ">
<path fill="none" stroke="#9a32cd" stroke-dasharray="5,2" d="M698.31,-169.88C720.38,-169.88 745.16,-169.88 766.85,-169.88"/>
<polygon fill="#9a32cd" stroke="#9a32cd" points="698.57,-166.38 688.57,-169.88 698.57,-173.38 698.57,-166.38"/>
</a>
</g>
<text text-anchor="middle" x="727.12" y="-171.62" font-family="Helvetica,sans-Serif" font-size="10.00" fill="grey"> ptr</text>
</g>
<!-- Node2 -->
<g id="Node000002" class="node">
<title>Node2</title>
<g id="a_Node000002"><a xlink:href="../../df/da2/classengine_1_1direct3d_1_1__api__detail_1_1api__readonly__wrapper.html" target="_top" xlink:title=" ">
<polygon fill="white" stroke="#666666" points="489.12,-341.75 357.62,-341.75 357.62,-300 489.12,-300 489.12,-341.75"/>
<text text-anchor="start" x="365.62" y="-328.25" font-family="Helvetica,sans-Serif" font-size="10.00">engine::direct3d::</text>
<text text-anchor="start" x="365.62" y="-317" font-family="Helvetica,sans-Serif" font-size="10.00">_api_detail::api_readonly</text>
<text text-anchor="middle" x="423.38" y="-305.75" font-family="Helvetica,sans-Serif" font-size="10.00">_wrapper&lt; IDXGIFactory &gt;</text>
</a>
</g>
</g>
<!-- Node2&#45;&gt;Node1 -->
<g id="edge1_Node000001_Node000002" class="edge">
<title>Node2&#45;&gt;Node1</title>
<g id="a_edge1_Node000001_Node000002"><a xlink:title=" ">
<path fill="none" stroke="#9a32cd" stroke-dasharray="5,2" d="M499.95,-296.38C503.32,-294.65 506.61,-292.81 509.75,-290.88 561.45,-258.99 609.1,-202.58 627.19,-179.81"/>
<polygon fill="#9a32cd" stroke="#9a32cd" points="498.51,-293.19 490.97,-300.64 501.51,-299.52 498.51,-293.19"/>
</a>
</g>
<text text-anchor="middle" x="547.25" y="-278.62" font-family="Helvetica,sans-Serif" font-size="10.00" fill="grey"> factory</text>
</g>
<!-- Node3 -->
<g id="Node000003" class="node">
<title>Node3</title>
<g id="a_Node000003"><a xlink:href="../../de/d9d/classengine_1_1direct3d_1_1readonly__d3d__resource__wrapper.html" target="_top" xlink:title="The readonly d3d resource wrapper class.">
<polygon fill="white" stroke="#666666" points="300,-330.12 158,-330.12 158,-299.62 300,-299.62 300,-330.12"/>
<text text-anchor="start" x="166" y="-316.62" font-family="Helvetica,sans-Serif" font-size="10.00">engine::direct3d::readonly</text>
<text text-anchor="middle" x="229" y="-305.38" font-family="Helvetica,sans-Serif" font-size="10.00">_d3d_resource_wrapper&lt; T &gt;</text>
</a>
</g>
</g>
<!-- Node3&#45;&gt;Node2 -->
<g id="edge2_Node000002_Node000003" class="edge">
<title>Node3&#45;&gt;Node2</title>
<g id="a_edge2_Node000002_Node000003"><a xlink:title=" ">
<path fill="none" stroke="#63b8ff" d="M311.35,-317.41C326.72,-317.89 342.62,-318.39 357.41,-318.85"/>
<polygon fill="#63b8ff" stroke="#63b8ff" points="311.89,-313.93 301.78,-317.11 311.67,-320.92 311.89,-313.93"/>
</a>
</g>
</g>
<!-- Node4 -->
<g id="Node000004" class="node">
<title>Node4</title>
<g id="a_Node000004"><a xlink:href="../../df/d47/classengine_1_1direct3d_1_1d3d__resource__wrapper.html" target="_top" xlink:title="The d3d resource wrapper class.">
<polygon fill="white" stroke="#666666" points="121,-180.12 0,-180.12 0,-149.62 121,-149.62 121,-180.12"/>
<text text-anchor="start" x="8" y="-166.62" font-family="Helvetica,sans-Serif" font-size="10.00">engine::direct3d::d3d</text>
<text text-anchor="middle" x="60.5" y="-155.38" font-family="Helvetica,sans-Serif" font-size="10.00">_resource_wrapper&lt; T &gt;</text>
</a>
</g>
</g>
<!-- Node4&#45;&gt;Node3 -->
<g id="edge3_Node000003_Node000004" class="edge">
<title>Node4&#45;&gt;Node3</title>
<g id="a_edge3_Node000003_Node000004"><a xlink:title=" ">
<path fill="none" stroke="darkgreen" d="M77.72,-189.63C95.18,-214.83 124.95,-253.79 158,-279.88 167.49,-287.37 178.85,-293.88 189.62,-299.19"/>
<polygon fill="darkgreen" stroke="darkgreen" points="80.8,-187.94 72.28,-181.64 75.01,-191.88 80.8,-187.94"/>
</a>
</g>
</g>
<!-- Node6 -->
<g id="Node000006" class="node">
<title>Node6</title>
<g id="a_Node000006"><a xlink:href="../../de/d9d/classengine_1_1direct3d_1_1readonly__d3d__resource__wrapper.html" target="_top" xlink:title="The readonly d3d resource wrapper class.">
<polygon fill="white" stroke="#666666" points="300,-271.12 158,-271.12 158,-240.62 300,-240.62 300,-271.12"/>
<text text-anchor="start" x="166" y="-257.62" font-family="Helvetica,sans-Serif" font-size="10.00">engine::direct3d::readonly</text>
<text text-anchor="middle" x="229" y="-246.38" font-family="Helvetica,sans-Serif" font-size="10.00">_d3d_resource_wrapper&lt; T &gt;</text>
</a>
</g>
</g>
<!-- Node4&#45;&gt;Node6 -->
<g id="edge6_Node000006_Node000004" class="edge">
<title>Node4&#45;&gt;Node6</title>
<g id="a_edge6_Node000006_Node000004"><a xlink:title=" ">
<path fill="none" stroke="darkgreen" d="M95.7,-186.58C113.94,-197.86 136.91,-211.6 158,-222.88 169.26,-228.89 181.8,-234.99 193.12,-240.27"/>
<polygon fill="darkgreen" stroke="darkgreen" points="97.72,-183.71 87.38,-181.4 94.02,-189.65 97.72,-183.71"/>
</a>
</g>
</g>
<!-- Node8 -->
<g id="Node000008" class="node">
<title>Node8</title>
<g id="a_Node000008"><a xlink:href="../../de/d9d/classengine_1_1direct3d_1_1readonly__d3d__resource__wrapper.html" target="_top" xlink:title="The readonly d3d resource wrapper class.">
<polygon fill="white" stroke="#666666" points="300,-214.12 158,-214.12 158,-183.62 300,-183.62 300,-214.12"/>
<text text-anchor="start" x="166" y="-200.62" font-family="Helvetica,sans-Serif" font-size="10.00">engine::direct3d::readonly</text>
<text text-anchor="middle" x="229" y="-189.38" font-family="Helvetica,sans-Serif" font-size="10.00">_d3d_resource_wrapper&lt; T &gt;</text>
</a>
</g>
</g>
<!-- Node4&#45;&gt;Node8 -->
<g id="edge9_Node000008_Node000004" class="edge">
<title>Node4&#45;&gt;Node8</title>
<g id="a_edge9_Node000008_Node000004"><a xlink:title=" ">
<path fill="none" stroke="darkgreen" d="M132.14,-179.3C140.6,-181.03 149.24,-182.79 157.7,-184.52"/>
<polygon fill="darkgreen" stroke="darkgreen" points="133.12,-175.93 122.62,-177.36 131.72,-182.79 133.12,-175.93"/>
</a>
</g>
</g>
<!-- Node10 -->
<g id="Node000010" class="node">
<title>Node10</title>
<g id="a_Node000010"><a xlink:href="../../de/d9d/classengine_1_1direct3d_1_1readonly__d3d__resource__wrapper.html" target="_top" xlink:title="The readonly d3d resource wrapper class.">
<polygon fill="white" stroke="#666666" points="300,-160.12 158,-160.12 158,-129.62 300,-129.62 300,-160.12"/>
<text text-anchor="start" x="166" y="-146.62" font-family="Helvetica,sans-Serif" font-size="10.00">engine::direct3d::readonly</text>
<text text-anchor="middle" x="229" y="-135.38" font-family="Helvetica,sans-Serif" font-size="10.00">_d3d_resource_wrapper&lt; T &gt;</text>
</a>
</g>
</g>
<!-- Node4&#45;&gt;Node10 -->
<g id="edge12_Node000010_Node000004" class="edge">
<title>Node4&#45;&gt;Node10</title>
<g id="a_edge12_Node000010_Node000004"><a xlink:title=" ">
<path fill="none" stroke="darkgreen" d="M132.42,-156.36C140.8,-155.35 149.34,-154.32 157.7,-153.32"/>
<polygon fill="darkgreen" stroke="darkgreen" points="132.15,-152.86 122.64,-157.53 132.99,-159.81 132.15,-152.86"/>
</a>
</g>
</g>
<!-- Node12 -->
<g id="Node000012" class="node">
<title>Node12</title>
<g id="a_Node000012"><a xlink:href="../../de/d9d/classengine_1_1direct3d_1_1readonly__d3d__resource__wrapper.html" target="_top" xlink:title="The readonly d3d resource wrapper class.">
<polygon fill="white" stroke="#666666" points="300,-106.12 158,-106.12 158,-75.62 300,-75.62 300,-106.12"/>
<text text-anchor="start" x="166" y="-92.62" font-family="Helvetica,sans-Serif" font-size="10.00">engine::direct3d::readonly</text>
<text text-anchor="middle" x="229" y="-81.38" font-family="Helvetica,sans-Serif" font-size="10.00">_d3d_resource_wrapper&lt; T &gt;</text>
</a>
</g>
</g>
<!-- Node4&#45;&gt;Node12 -->
<g id="edge15_Node000012_Node000004" class="edge">
<title>Node4&#45;&gt;Node12</title>
<g id="a_edge15_Node000012_Node000004"><a xlink:title=" ">
<path fill="none" stroke="darkgreen" d="M105.74,-144.45C122.12,-136.95 140.87,-128.45 158,-120.88 168.64,-116.17 180.24,-111.15 190.88,-106.6"/>
<polygon fill="darkgreen" stroke="darkgreen" points="104.36,-141.23 96.73,-148.58 107.28,-147.59 104.36,-141.23"/>
</a>
</g>
</g>
<!-- Node14 -->
<g id="Node000014" class="node">
<title>Node14</title>
<g id="a_Node000014"><a xlink:href="../../de/d9d/classengine_1_1direct3d_1_1readonly__d3d__resource__wrapper.html" target="_top" xlink:title="The readonly d3d resource wrapper class.">
<polygon fill="white" stroke="#666666" points="300,-54.12 158,-54.12 158,-23.62 300,-23.62 300,-54.12"/>
<text text-anchor="start" x="166" y="-40.62" font-family="Helvetica,sans-Serif" font-size="10.00">engine::direct3d::readonly</text>
<text text-anchor="middle" x="229" y="-29.38" font-family="Helvetica,sans-Serif" font-size="10.00">_d3d_resource_wrapper&lt; T &gt;</text>
</a>
</g>
</g>
<!-- Node4&#45;&gt;Node14 -->
<g id="edge18_Node000014_Node000004" class="edge">
<title>Node4&#45;&gt;Node14</title>
<g id="a_edge18_Node000014_Node000004"><a xlink:title=" ">
<path fill="none" stroke="darkgreen" d="M80.36,-140.67C98.35,-118.92 127.21,-87.35 158,-66.88 165.08,-62.16 173.08,-58.04 181.08,-54.51"/>
<polygon fill="darkgreen" stroke="darkgreen" points="77.88,-138.18 74.3,-148.15 83.31,-142.58 77.88,-138.18"/>
</a>
</g>
</g>
<!-- Node5 -->
<g id="Node000005" class="node">
<title>Node5</title>
<g id="a_Node000005"><a xlink:href="../../df/da2/classengine_1_1direct3d_1_1__api__detail_1_1api__readonly__wrapper.html" target="_top" xlink:title=" ">
<polygon fill="white" stroke="#666666" points="491.75,-281.75 355,-281.75 355,-240 491.75,-240 491.75,-281.75"/>
<text text-anchor="start" x="363" y="-268.25" font-family="Helvetica,sans-Serif" font-size="10.00">engine::direct3d::</text>
<text text-anchor="start" x="363" y="-257" font-family="Helvetica,sans-Serif" font-size="10.00">_api_detail::api_readonly</text>
<text text-anchor="middle" x="423.38" y="-245.75" font-family="Helvetica,sans-Serif" font-size="10.00">_wrapper&lt; IDXGIFactory5 &gt;</text>
</a>
</g>
</g>
<!-- Node5&#45;&gt;Node1 -->
<g id="edge4_Node000001_Node000005" class="edge">
<title>Node5&#45;&gt;Node1</title>
<g id="a_edge4_Node000001_Node000005"><a xlink:title=" ">
<path fill="none" stroke="#9a32cd" stroke-dasharray="5,2" d="M498.15,-235.56C502.09,-234.02 505.98,-232.45 509.75,-230.88 548.33,-214.76 591.91,-192.57 616.11,-179.87"/>
<polygon fill="#9a32cd" stroke="#9a32cd" points="497.14,-232.2 489.05,-239.03 499.64,-238.74 497.14,-232.2"/>
</a>
</g>
<text text-anchor="middle" x="547.25" y="-222.62" font-family="Helvetica,sans-Serif" font-size="10.00" fill="grey"> factory5</text>
</g>
<!-- Node6&#45;&gt;Node5 -->
<g id="edge5_Node000005_Node000006" class="edge">
<title>Node6&#45;&gt;Node5</title>
<g id="a_edge5_Node000005_Node000006"><a xlink:title=" ">
<path fill="none" stroke="#63b8ff" d="M311.62,-258C325.92,-258.37 340.66,-258.75 354.54,-259.11"/>
<polygon fill="#63b8ff" stroke="#63b8ff" points="311.87,-254.5 301.78,-257.74 311.69,-261.5 311.87,-254.5"/>
</a>
</g>
</g>
<!-- Node7 -->
<g id="Node000007" class="node">
<title>Node7</title>
<g id="a_Node000007"><a xlink:href="../../df/da2/classengine_1_1direct3d_1_1__api__detail_1_1api__readonly__wrapper.html" target="_top" xlink:title=" ">
<polygon fill="white" stroke="#666666" points="490.62,-221.75 356.12,-221.75 356.12,-180 490.62,-180 490.62,-221.75"/>
<text text-anchor="start" x="364.12" y="-208.25" font-family="Helvetica,sans-Serif" font-size="10.00">engine::direct3d::</text>
<text text-anchor="start" x="364.12" y="-197" font-family="Helvetica,sans-Serif" font-size="10.00">_api_detail::api_readonly</text>
<text text-anchor="middle" x="423.38" y="-185.75" font-family="Helvetica,sans-Serif" font-size="10.00">_wrapper&lt; ID3D11Device &gt;</text>
</a>
</g>
</g>
<!-- Node7&#45;&gt;Node1 -->
<g id="edge7_Node000001_Node000007" class="edge">
<title>Node7&#45;&gt;Node1</title>
<g id="a_edge7_Node000001_Node000007"><a xlink:title=" ">
<path fill="none" stroke="#9a32cd" stroke-dasharray="5,2" d="M502.16,-189.42C529.62,-185.38 559.78,-180.93 584.39,-177.31"/>
<polygon fill="#9a32cd" stroke="#9a32cd" points="501.86,-185.93 492.48,-190.85 502.88,-192.85 501.86,-185.93"/>
</a>
</g>
<text text-anchor="middle" x="547.25" y="-186.62" font-family="Helvetica,sans-Serif" font-size="10.00" fill="grey"> device</text>
</g>
<!-- Node8&#45;&gt;Node7 -->
<g id="edge8_Node000007_Node000008" class="edge">
<title>Node8&#45;&gt;Node7</title>
<g id="a_edge8_Node000007_Node000008"><a xlink:title=" ">
<path fill="none" stroke="#63b8ff" d="M311.46,-199.72C326.25,-199.88 341.52,-200.03 355.82,-200.18"/>
<polygon fill="#63b8ff" stroke="#63b8ff" points="311.82,-196.23 301.78,-199.62 311.74,-203.23 311.82,-196.23"/>
</a>
</g>
</g>
<!-- Node9 -->
<g id="Node000009" class="node">
<title>Node9</title>
<g id="a_Node000009"><a xlink:href="../../df/da2/classengine_1_1direct3d_1_1__api__detail_1_1api__readonly__wrapper.html" target="_top" xlink:title=" ">
<polygon fill="white" stroke="#666666" points="493.25,-161.75 353.5,-161.75 353.5,-120 493.25,-120 493.25,-161.75"/>
<text text-anchor="start" x="361.5" y="-148.25" font-family="Helvetica,sans-Serif" font-size="10.00">engine::direct3d::</text>
<text text-anchor="start" x="361.5" y="-137" font-family="Helvetica,sans-Serif" font-size="10.00">_api_detail::api_readonly</text>
<text text-anchor="middle" x="423.38" y="-125.75" font-family="Helvetica,sans-Serif" font-size="10.00">_wrapper&lt; ID3D11Device5 &gt;</text>
</a>
</g>
</g>
<!-- Node9&#45;&gt;Node1 -->
<g id="edge10_Node000001_Node000009" class="edge">
<title>Node9&#45;&gt;Node1</title>
<g id="a_edge10_Node000001_Node000009"><a xlink:title=" ">
<path fill="none" stroke="#9a32cd" stroke-dasharray="5,2" d="M504.87,-151.96C531.57,-155.64 560.51,-159.63 584.3,-162.91"/>
<polygon fill="#9a32cd" stroke="#9a32cd" points="505.48,-148.52 495.09,-150.62 504.52,-155.45 505.48,-148.52"/>
</a>
</g>
<text text-anchor="middle" x="547.25" y="-160.62" font-family="Helvetica,sans-Serif" font-size="10.00" fill="grey"> device5</text>
</g>
<!-- Node10&#45;&gt;Node9 -->
<g id="edge11_Node000009_Node000010" class="edge">
<title>Node10&#45;&gt;Node9</title>
<g id="a_edge11_Node000009_Node000010"><a xlink:title=" ">
<path fill="none" stroke="#63b8ff" d="M311.76,-143.18C325.58,-142.89 339.8,-142.59 353.26,-142.31"/>
<polygon fill="#63b8ff" stroke="#63b8ff" points="311.71,-139.68 301.78,-143.38 311.85,-146.67 311.71,-139.68"/>
</a>
</g>
</g>
<!-- Node11 -->
<g id="Node000011" class="node">
<title>Node11</title>
<g id="a_Node000011"><a xlink:href="../../df/da2/classengine_1_1direct3d_1_1__api__detail_1_1api__readonly__wrapper.html" target="_top" xlink:title=" ">
<polygon fill="white" stroke="#666666" points="507.12,-101.75 339.62,-101.75 339.62,-60 507.12,-60 507.12,-101.75"/>
<text text-anchor="start" x="347.62" y="-88.25" font-family="Helvetica,sans-Serif" font-size="10.00">engine::direct3d::</text>
<text text-anchor="start" x="347.62" y="-77" font-family="Helvetica,sans-Serif" font-size="10.00">_api_detail::api_readonly</text>
<text text-anchor="middle" x="423.38" y="-65.75" font-family="Helvetica,sans-Serif" font-size="10.00">_wrapper&lt; ID3D11DeviceContext &gt;</text>
</a>
</g>
</g>
<!-- Node11&#45;&gt;Node1 -->
<g id="edge13_Node000001_Node000011" class="edge">
<title>Node11&#45;&gt;Node1</title>
<g id="a_edge13_Node000001_Node000011"><a xlink:title=" ">
<path fill="none" stroke="#9a32cd" stroke-dasharray="5,2" d="M497.88,-106.16C501.91,-107.71 505.89,-109.29 509.75,-110.88 547.75,-126.46 590.81,-147.55 615.22,-159.84"/>
<polygon fill="#9a32cd" stroke="#9a32cd" points="499.14,-102.89 488.55,-102.63 496.67,-109.44 499.14,-102.89"/>
</a>
</g>
<text text-anchor="middle" x="547.25" y="-136.62" font-family="Helvetica,sans-Serif" font-size="10.00" fill="grey"> devcon</text>
</g>
<!-- Node12&#45;&gt;Node11 -->
<g id="edge14_Node000011_Node000012" class="edge">
<title>Node12&#45;&gt;Node11</title>
<g id="a_edge14_Node000011_Node000012"><a xlink:title=" ">
<path fill="none" stroke="#63b8ff" d="M311.69,-86.63C320.81,-86.15 330.1,-85.67 339.24,-85.2"/>
<polygon fill="#63b8ff" stroke="#63b8ff" points="311.58,-83.13 301.78,-87.14 311.95,-90.12 311.58,-83.13"/>
</a>
</g>
</g>
<!-- Node13 -->
<g id="Node000013" class="node">
<title>Node13</title>
<g id="a_Node000013"><a xlink:href="../../df/da2/classengine_1_1direct3d_1_1__api__detail_1_1api__readonly__wrapper.html" target="_top" xlink:title=" ">
<polygon fill="white" stroke="#666666" points="509.75,-41.75 337,-41.75 337,0 509.75,0 509.75,-41.75"/>
<text text-anchor="start" x="345" y="-28.25" font-family="Helvetica,sans-Serif" font-size="10.00">engine::direct3d::</text>
<text text-anchor="start" x="345" y="-17" font-family="Helvetica,sans-Serif" font-size="10.00">_api_detail::api_readonly</text>
<text text-anchor="middle" x="423.38" y="-5.75" font-family="Helvetica,sans-Serif" font-size="10.00">_wrapper&lt; ID3D11DeviceContext4 &gt;</text>
</a>
</g>
</g>
<!-- Node13&#45;&gt;Node1 -->
<g id="edge16_Node000001_Node000013" class="edge">
<title>Node13&#45;&gt;Node1</title>
<g id="a_edge16_Node000001_Node000013"><a xlink:title=" ">
<path fill="none" stroke="#9a32cd" stroke-dasharray="5,2" d="M503.18,-47.15C505.42,-48.35 507.62,-49.59 509.75,-50.88 561.36,-81.97 609.06,-137.6 627.18,-160.06"/>
<polygon fill="#9a32cd" stroke="#9a32cd" points="504.97,-44.13 494.45,-42.85 501.88,-50.41 504.97,-44.13"/>
</a>
</g>
<text text-anchor="middle" x="547.25" y="-95.62" font-family="Helvetica,sans-Serif" font-size="10.00" fill="grey"> devcon4</text>
</g>
<!-- Node14&#45;&gt;Node13 -->
<g id="edge17_Node000013_Node000014" class="edge">
<title>Node14&#45;&gt;Node13</title>
<g id="a_edge17_Node000013_Node000014"><a xlink:title=" ">
<path fill="none" stroke="#63b8ff" d="M311.48,-31.25C319.78,-30.47 328.24,-29.68 336.59,-28.9"/>
<polygon fill="#63b8ff" stroke="#63b8ff" points="311.41,-27.74 301.78,-32.16 312.06,-34.71 311.41,-27.74"/>
</a>
</g>
</g>
<!-- Node15&#45;&gt;Node1 -->
<g id="edge19_Node000001_Node000015" class="edge">
<title>Node15&#45;&gt;Node1</title>
<g id="a_edge19_Node000001_Node000015"><a xlink:title=" ">
<path fill="none" stroke="#9a32cd" stroke-dasharray="5,2" d="M755.87,-154.43C753.64,-154.13 751.43,-153.86 749.25,-153.62 729.7,-151.53 724.53,-151.33 705,-153.62 694.25,-154.89 682.74,-157.24 672.3,-159.77"/>
<polygon fill="#9a32cd" stroke="#9a32cd" points="755.18,-157.87 765.6,-155.95 756.26,-150.95 755.18,-157.87"/>
</a>
</g>
<text text-anchor="middle" x="727.12" y="-154.62" font-family="Helvetica,sans-Serif" font-size="10.00" fill="grey"> instance_</text>
</g>
</g>
</svg>
