<?xml version="1.0" encoding="UTF-8" standalone="no"?>
<!DOCTYPE svg PUBLIC "-//W3C//DTD SVG 1.1//EN"
 "http://www.w3.org/Graphics/SVG/1.1/DTD/svg11.dtd">
<!-- Generated by graphviz version 9.0.0 (20230911.1827)
 -->
<!-- Title: engine/render/renderer.hpp Pages: 1 -->
<!--zoomable 415 -->

<svg id="main" version="1.1" xmlns="http://www.w3.org/2000/svg" xmlns:xlink="http://www.w3.org/1999/xlink" xml:space="preserve" onload="init(evt)">
<style type="text/css"><![CDATA[
.node, .edge {opacity: 0.7;}
.node.selected, .edge.selected {opacity: 1;}
.edge:hover path { stroke: red; }
.edge:hover polygon { stroke: red; fill: red; }
]]></style>

<defs>
  <circle id="rim" cx="0" cy="0" r="7"/>
  <circle id="rim2" cx="0" cy="0" r="3.5"/>
  <g id="zoomPlus">
    <use xlink:href="#rim" fill="#404040"><set attributeName="fill" to="#808080" begin="zoomplus.mouseover" end="zoomplus.mouseout"/></use>
    <path d="M-4,0h8M0,-4v8" fill="none" stroke="white" stroke-width="1.5" pointer-events="none"/>
  </g>
  <g id="zoomMin">
    <use xlink:href="#rim" fill="#404040"><set attributeName="fill" to="#808080" begin="zoomminus.mouseover" end="zoomminus.mouseout"/></use>
    <path d="M-4,0h8" fill="none" stroke="white" stroke-width="1.5" pointer-events="none"/>
  </g>
  <g id="arrowUp" transform="translate(30 24)">
    <use xlink:href="#rim"/>
    <path pointer-events="none" fill="none" stroke="white" stroke-width="1.5" d="M0,-3.0v7 M-2.5,-0.5L0,-3.0L2.5,-0.5"/>
  </g>
  <g id="arrowRight" transform="rotate(90) translate(36 -43)">
    <use xlink:href="#rim"/>
    <path pointer-events="none" fill="none" stroke="white" stroke-width="1.5" d="M0,-3.0v7 M-2.5,-0.5L0,-3.0L2.5,-0.5"/>
  </g>
  <g id="arrowDown" transform="rotate(180) translate(-30 -48)">
    <use xlink:href="#rim"/>
    <path pointer-events="none" fill="none" stroke="white" stroke-width="1.5" d="M0,-3.0v7 M-2.5,-0.5L0,-3.0L2.5,-0.5"/>
  </g>
  <g id="arrowLeft" transform="rotate(270) translate(-36 17)">
    <use xlink:href="#rim"/>
    <path pointer-events="none" fill="none" stroke="white" stroke-width="1.5" d="M0,-3.0v7 M-2.5,-0.5L0,-3.0L2.5,-0.5"/>
  </g>
  <g id="resetDef">
    <use xlink:href="#rim2" fill="#404040"><set attributeName="fill" to="#808080" begin="reset.mouseover" end="reset.mouseout"/></use>
  </g>
</defs>
<script type="application/ecmascript">
var viewWidth = 1918;
var viewHeight = 415;
var sectionId = 'dynsection-1';
</script>
<script type="application/ecmascript" xlink:href="../../svg.min.js"/>
<svg id="graph" class="graph">
<g id="viewport">
<title>engine/render/renderer.hpp</title>
<!-- Node1 -->
<g id="Node000001" class="node">
<title>Node1</title>
<g id="a_Node000001"><a xlink:title=" ">
<polygon fill="#999999" stroke="#666666" points="724.94,-407 594.19,-407 594.19,-387.75 724.94,-387.75 724.94,-407"/>
<text text-anchor="middle" x="659.56" y="-393.5" font-family="Helvetica,sans-Serif" font-size="10.00">engine/render/renderer.hpp</text>
</a>
</g>
</g>
<!-- Node2 -->
<g id="Node000002" class="node">
<title>Node2</title>
<g id="a_Node000002"><a xlink:href="../../d1/d47/controller_8cpp.html" target="_top" xlink:title=" ">
<polygon fill="white" stroke="#666666" points="633.69,-19.25 519.44,-19.25 519.44,0 633.69,0 633.69,-19.25"/>
<text text-anchor="middle" x="576.56" y="-5.75" font-family="Helvetica,sans-Serif" font-size="10.00">d3d_test/controller.cpp</text>
</a>
</g>
</g>
<!-- Node1&#45;&gt;Node2 -->
<g id="edge1_Node000001_Node000002" class="edge">
<title>Node1&#45;&gt;Node2</title>
<g id="a_edge1_Node000001_Node000002"><a xlink:title=" ">
<path fill="none" stroke="#63b8ff" d="M595.78,-385.17C504.77,-367.35 348.56,-329.11 348.56,-276.62 348.56,-276.62 348.56,-276.62 348.56,-147.25 348.56,-105.5 338.14,-84.87 367.56,-55.25 388.45,-34.22 464.65,-22.06 519,-15.89"/>
<polygon fill="#63b8ff" stroke="#63b8ff" points="594.84,-388.56 605.32,-387.01 596.16,-381.68 594.84,-388.56"/>
</a>
</g>
</g>
<!-- Node3 -->
<g id="Node000003" class="node">
<title>Node3</title>
<g id="a_Node000003"><a xlink:href="../../d5/d9b/scene_8hpp.html" target="_top" xlink:title=" ">
<polygon fill="white" stroke="#666666" points="1064.31,-351.75 950.81,-351.75 950.81,-332.5 1064.31,-332.5 1064.31,-351.75"/>
<text text-anchor="middle" x="1007.56" y="-338.25" font-family="Helvetica,sans-Serif" font-size="10.00">engine/core/scene.hpp</text>
</a>
</g>
</g>
<!-- Node1&#45;&gt;Node3 -->
<g id="edge2_Node000001_Node000003" class="edge">
<title>Node1&#45;&gt;Node3</title>
<g id="a_edge2_Node000001_Node000003"><a xlink:title=" ">
<path fill="none" stroke="#63b8ff" d="M730.35,-385.54C795.26,-375.61 890.18,-361.09 950.4,-351.87"/>
<polygon fill="#63b8ff" stroke="#63b8ff" points="729.84,-382.08 720.49,-387.05 730.9,-389 729.84,-382.08"/>
</a>
</g>
</g>
<!-- Node23 -->
<g id="Node000023" class="node">
<title>Node23</title>
<g id="a_Node000023"><a xlink:href="../../db/df9/deferred-hdr-render-pipeline_8hpp.html" target="_top" xlink:title=" ">
<polygon fill="white" stroke="#666666" points="290.94,-163.5 160.19,-163.5 160.19,-133 290.94,-133 290.94,-163.5"/>
<text text-anchor="start" x="168.19" y="-150" font-family="Helvetica,sans-Serif" font-size="10.00">engine/direct3d11/deferred</text>
<text text-anchor="middle" x="225.56" y="-138.75" font-family="Helvetica,sans-Serif" font-size="10.00">&#45;hdr&#45;render&#45;pipeline.hpp</text>
</a>
</g>
</g>
<!-- Node1&#45;&gt;Node23 -->
<g id="edge39_Node000001_Node000023" class="edge">
<title>Node1&#45;&gt;Node23</title>
<g id="a_edge39_Node000001_Node000023"><a xlink:title=" ">
<path fill="none" stroke="#63b8ff" d="M582.33,-393.73C499.16,-389.52 373.5,-378.77 334.56,-351.75 266.83,-304.74 237.45,-201.81 228.62,-163.76"/>
<polygon fill="#63b8ff" stroke="#63b8ff" points="582.11,-397.23 592.26,-394.21 582.44,-390.23 582.11,-397.23"/>
</a>
</g>
</g>
<!-- Node25 -->
<g id="Node000025" class="node">
<title>Node25</title>
<g id="a_Node000025"><a xlink:href="../../d6/d54/renderer_8cpp.html" target="_top" xlink:title=" ">
<polygon fill="white" stroke="#666666" points="1500.94,-285.25 1370.19,-285.25 1370.19,-266 1500.94,-266 1500.94,-285.25"/>
<text text-anchor="middle" x="1435.56" y="-271.75" font-family="Helvetica,sans-Serif" font-size="10.00">engine/render/renderer.cpp</text>
</a>
</g>
</g>
<!-- Node1&#45;&gt;Node25 -->
<g id="edge40_Node000001_Node000025" class="edge">
<title>Node1&#45;&gt;Node25</title>
<g id="a_edge40_Node000001_Node000025"><a xlink:title=" ">
<path fill="none" stroke="#63b8ff" d="M736.8,-390.04C820.14,-382.73 956.66,-369.43 1073.56,-351.75 1200.28,-332.59 1231.49,-324.42 1356.56,-296.5 1371.2,-293.23 1387.25,-289.26 1401.05,-285.74"/>
<polygon fill="#63b8ff" stroke="#63b8ff" points="736.56,-386.54 726.9,-390.9 737.17,-393.52 736.56,-386.54"/>
</a>
</g>
</g>
<!-- Node4 -->
<g id="Node000004" class="node">
<title>Node4</title>
<g id="a_Node000004"><a xlink:href="../../de/d46/engine_8hpp.html" target="_top" xlink:title=" ">
<polygon fill="white" stroke="#666666" points="942.44,-157.88 826.69,-157.88 826.69,-138.62 942.44,-138.62 942.44,-157.88"/>
<text text-anchor="middle" x="884.56" y="-144.38" font-family="Helvetica,sans-Serif" font-size="10.00">engine/core/engine.hpp</text>
</a>
</g>
</g>
<!-- Node3&#45;&gt;Node4 -->
<g id="edge3_Node000003_Node000004" class="edge">
<title>Node3&#45;&gt;Node4</title>
<g id="a_edge3_Node000003_Node000004"><a xlink:title=" ">
<path fill="none" stroke="#63b8ff" d="M992.99,-323.31C986.87,-315.38 979.95,-305.75 974.56,-296.5 950.85,-255.74 957.59,-238.83 931.56,-199.5 920.88,-183.36 904.9,-167.53 894.6,-158.07"/>
<polygon fill="#63b8ff" stroke="#63b8ff" points="990.22,-325.46 999.18,-331.11 995.71,-321.1 990.22,-325.46"/>
</a>
</g>
</g>
<!-- Node15 -->
<g id="Node000015" class="node">
<title>Node15</title>
<g id="a_Node000015"><a xlink:href="../../d8/d30/decal-render-system_8cpp.html" target="_top" xlink:title=" ">
<polygon fill="white" stroke="#666666" points="1910.06,-91.38 1759.06,-91.38 1759.06,-60.88 1910.06,-60.88 1910.06,-91.38"/>
<text text-anchor="start" x="1767.06" y="-77.88" font-family="Helvetica,sans-Serif" font-size="10.00">engine/subsystems/render</text>
<text text-anchor="middle" x="1834.56" y="-66.62" font-family="Helvetica,sans-Serif" font-size="10.00">/detail/decal&#45;render&#45;system.cpp</text>
</a>
</g>
</g>
<!-- Node3&#45;&gt;Node15 -->
<g id="edge34_Node000003_Node000015" class="edge">
<title>Node3&#45;&gt;Node15</title>
<g id="a_edge34_Node000003_Node000015"><a xlink:title=" ">
<path fill="none" stroke="#63b8ff" d="M1075.71,-331.65C1168.19,-318.76 1322.19,-297.22 1323.56,-296.5 1345.75,-284.77 1340.8,-268.83 1361.56,-254.75 1434.17,-205.52 1682.02,-124.8 1786.99,-91.84"/>
<polygon fill="#63b8ff" stroke="#63b8ff" points="1075.39,-328.16 1065.97,-333 1076.36,-335.09 1075.39,-328.16"/>
</a>
</g>
</g>
<!-- Node16 -->
<g id="Node000016" class="node">
<title>Node16</title>
<g id="a_Node000016"><a xlink:href="../../d1/d58/dissolution-render-system_8cpp.html" target="_top" xlink:title=" ">
<polygon fill="white" stroke="#666666" points="1592.56,-97 1462.56,-97 1462.56,-55.25 1592.56,-55.25 1592.56,-97"/>
<text text-anchor="start" x="1470.56" y="-83.5" font-family="Helvetica,sans-Serif" font-size="10.00">engine/subsystems/render</text>
<text text-anchor="start" x="1470.56" y="-72.25" font-family="Helvetica,sans-Serif" font-size="10.00">/detail/dissolution&#45;render</text>
<text text-anchor="middle" x="1527.56" y="-61" font-family="Helvetica,sans-Serif" font-size="10.00">&#45;system.cpp</text>
</a>
</g>
</g>
<!-- Node3&#45;&gt;Node16 -->
<g id="edge35_Node000003_Node000016" class="edge">
<title>Node3&#45;&gt;Node16</title>
<g id="a_edge35_Node000003_Node000016"><a xlink:title=" ">
<path fill="none" stroke="#63b8ff" d="M1000.47,-321.36C987.09,-280.19 963.66,-184.79 1012.56,-133 1046.32,-97.25 1405.13,-105.41 1453.56,-97 1456.45,-96.5 1459.38,-95.94 1462.34,-95.33"/>
<polygon fill="#63b8ff" stroke="#63b8ff" points="997.09,-322.31 1003.64,-330.64 1003.72,-320.05 997.09,-322.31"/>
</a>
</g>
</g>
<!-- Node20 -->
<g id="Node000020" class="node">
<title>Node20</title>
<g id="a_Node000020"><a xlink:href="../../d3/dfe/particle-render-system_8cpp.html" target="_top" xlink:title=" ">
<polygon fill="white" stroke="#666666" points="1740.56,-97 1610.56,-97 1610.56,-55.25 1740.56,-55.25 1740.56,-97"/>
<text text-anchor="start" x="1618.56" y="-83.5" font-family="Helvetica,sans-Serif" font-size="10.00">engine/subsystems/render</text>
<text text-anchor="start" x="1618.56" y="-72.25" font-family="Helvetica,sans-Serif" font-size="10.00">/detail/particle&#45;render</text>
<text text-anchor="middle" x="1675.56" y="-61" font-family="Helvetica,sans-Serif" font-size="10.00">&#45;system.cpp</text>
</a>
</g>
</g>
<!-- Node3&#45;&gt;Node20 -->
<g id="edge38_Node000003_Node000020" class="edge">
<title>Node3&#45;&gt;Node20</title>
<g id="a_edge38_Node000003_Node000020"><a xlink:title=" ">
<path fill="none" stroke="#63b8ff" d="M1011.9,-320.97C1016.98,-301.72 1027.15,-273.02 1045.56,-254.75 1142.78,-158.33 1196.55,-169.35 1328.56,-133 1446.56,-100.51 1481.54,-120.92 1601.56,-97 1604.43,-96.43 1607.36,-95.81 1610.3,-95.15"/>
<polygon fill="#63b8ff" stroke="#63b8ff" points="1008.52,-320.04 1009.61,-330.58 1015.33,-321.66 1008.52,-320.04"/>
</a>
</g>
</g>
<!-- Node21 -->
<g id="Node000021" class="node">
<title>Node21</title>
<g id="a_Node000021"><a xlink:href="../../d9/d06/render-pipeline_8hpp.html" target="_top" xlink:title=" ">
<polygon fill="white" stroke="#666666" points="919.56,-290.88 819.56,-290.88 819.56,-260.38 919.56,-260.38 919.56,-290.88"/>
<text text-anchor="start" x="827.56" y="-277.38" font-family="Helvetica,sans-Serif" font-size="10.00">engine/core/layers</text>
<text text-anchor="middle" x="869.56" y="-266.12" font-family="Helvetica,sans-Serif" font-size="10.00">/render&#45;pipeline.hpp</text>
</a>
</g>
</g>
<!-- Node3&#45;&gt;Node21 -->
<g id="edge25_Node000003_Node000021" class="edge">
<title>Node3&#45;&gt;Node21</title>
<g id="a_edge25_Node000003_Node000021"><a xlink:title=" ">
<path fill="none" stroke="#63b8ff" d="M977.7,-327.17C955.03,-316.57 923.93,-302.04 900.91,-291.27"/>
<polygon fill="#63b8ff" stroke="#63b8ff" points="976.17,-330.32 986.71,-331.38 979.14,-323.97 976.17,-330.32"/>
</a>
</g>
</g>
<!-- Node24 -->
<g id="Node000024" class="node">
<title>Node24</title>
<g id="a_Node000024"><a xlink:href="../../d4/d7c/deferred-resolve_8cpp.html" target="_top" xlink:title=" ">
<polygon fill="white" stroke="#666666" points="1166.94,-290.88 1054.19,-290.88 1054.19,-260.38 1166.94,-260.38 1166.94,-290.88"/>
<text text-anchor="start" x="1062.19" y="-277.38" font-family="Helvetica,sans-Serif" font-size="10.00">engine/render/deferred</text>
<text text-anchor="middle" x="1110.56" y="-266.12" font-family="Helvetica,sans-Serif" font-size="10.00">&#45;resolve.cpp</text>
</a>
</g>
</g>
<!-- Node3&#45;&gt;Node24 -->
<g id="edge32_Node000003_Node000024" class="edge">
<title>Node3&#45;&gt;Node24</title>
<g id="a_edge32_Node000003_Node000024"><a xlink:title=" ">
<path fill="none" stroke="#63b8ff" d="M1031.52,-326.12C1048.31,-315.61 1070.63,-301.64 1087.26,-291.22"/>
<polygon fill="#63b8ff" stroke="#63b8ff" points="1029.79,-323.08 1023.17,-331.35 1033.5,-329.01 1029.79,-323.08"/>
</a>
</g>
</g>
<!-- Node3&#45;&gt;Node25 -->
<g id="edge33_Node000003_Node000025" class="edge">
<title>Node3&#45;&gt;Node25</title>
<g id="a_edge33_Node000003_Node000025"><a xlink:title=" ">
<path fill="none" stroke="#63b8ff" d="M1076.11,-334.8C1146.76,-327.71 1259.91,-314.77 1356.56,-296.5 1371.99,-293.58 1388.89,-289.46 1403.09,-285.72"/>
<polygon fill="#63b8ff" stroke="#63b8ff" points="1075.83,-331.31 1066.22,-335.78 1076.52,-338.28 1075.83,-331.31"/>
</a>
</g>
</g>
<!-- Node26 -->
<g id="Node000026" class="node">
<title>Node26</title>
<g id="a_Node000026"><a xlink:href="../../d8/dcb/emissive-render-system_8cpp.html" target="_top" xlink:title=" ">
<polygon fill="white" stroke="#666666" points="1314.56,-296.5 1184.56,-296.5 1184.56,-254.75 1314.56,-254.75 1314.56,-296.5"/>
<text text-anchor="start" x="1192.56" y="-283" font-family="Helvetica,sans-Serif" font-size="10.00">engine/subsystems/render</text>
<text text-anchor="start" x="1192.56" y="-271.75" font-family="Helvetica,sans-Serif" font-size="10.00">/detail/emissive&#45;render</text>
<text text-anchor="middle" x="1249.56" y="-260.5" font-family="Helvetica,sans-Serif" font-size="10.00">&#45;system.cpp</text>
</a>
</g>
</g>
<!-- Node3&#45;&gt;Node26 -->
<g id="edge36_Node000003_Node000026" class="edge">
<title>Node3&#45;&gt;Node26</title>
<g id="a_edge36_Node000003_Node000026"><a xlink:title=" ">
<path fill="none" stroke="#63b8ff" d="M1052.92,-329.11C1086.73,-320.15 1134.05,-307.59 1175.56,-296.5 1178.39,-295.74 1181.28,-294.97 1184.2,-294.19"/>
<polygon fill="#63b8ff" stroke="#63b8ff" points="1052.23,-325.68 1043.46,-331.62 1054.03,-332.44 1052.23,-325.68"/>
</a>
</g>
</g>
<!-- Node27 -->
<g id="Node000027" class="node">
<title>Node27</title>
<g id="a_Node000027"><a xlink:href="../../d1/d62/opaque-render-system_8cpp.html" target="_top" xlink:title=" ">
<polygon fill="white" stroke="#666666" points="801.19,-290.88 641.94,-290.88 641.94,-260.38 801.19,-260.38 801.19,-290.88"/>
<text text-anchor="start" x="649.94" y="-277.38" font-family="Helvetica,sans-Serif" font-size="10.00">engine/subsystems/render</text>
<text text-anchor="middle" x="721.56" y="-266.12" font-family="Helvetica,sans-Serif" font-size="10.00">/detail/opaque&#45;render&#45;system.cpp</text>
</a>
</g>
</g>
<!-- Node3&#45;&gt;Node27 -->
<g id="edge37_Node000003_Node000027" class="edge">
<title>Node3&#45;&gt;Node27</title>
<g id="a_edge37_Node000003_Node000027"><a xlink:title=" ">
<path fill="none" stroke="#63b8ff" d="M956.26,-329.56C908.85,-318.86 838.19,-302.93 786.79,-291.34"/>
<polygon fill="#63b8ff" stroke="#63b8ff" points="955.19,-332.9 965.72,-331.69 956.73,-326.07 955.19,-332.9"/>
</a>
</g>
</g>
<!-- Node5 -->
<g id="Node000005" class="node">
<title>Node5</title>
<g id="a_Node000005"><a xlink:href="../../d0/d86/camera-movement_8hpp.html" target="_top" xlink:title=" ">
<polygon fill="white" stroke="#666666" points="1134.31,-85.75 978.81,-85.75 978.81,-66.5 1134.31,-66.5 1134.31,-85.75"/>
<text text-anchor="middle" x="1056.56" y="-72.25" font-family="Helvetica,sans-Serif" font-size="10.00">d3d_test/camera&#45;movement.hpp</text>
</a>
</g>
</g>
<!-- Node4&#45;&gt;Node5 -->
<g id="edge4_Node000004_Node000005" class="edge">
<title>Node4&#45;&gt;Node5</title>
<g id="a_edge4_Node000004_Node000005"><a xlink:title=" ">
<path fill="none" stroke="#63b8ff" d="M917.11,-133.98C951.39,-120.01 1004.43,-98.38 1034.24,-86.23"/>
<polygon fill="#63b8ff" stroke="#63b8ff" points="916.04,-130.64 908.1,-137.65 918.68,-137.12 916.04,-130.64"/>
</a>
</g>
</g>
<!-- Node7 -->
<g id="Node000007" class="node">
<title>Node7</title>
<g id="a_Node000007"><a xlink:href="../../dc/dfb/controller_8hpp.html" target="_top" xlink:title=" ">
<polygon fill="white" stroke="#666666" points="282.69,-85.75 168.44,-85.75 168.44,-66.5 282.69,-66.5 282.69,-85.75"/>
<text text-anchor="middle" x="225.56" y="-72.25" font-family="Helvetica,sans-Serif" font-size="10.00">d3d_test/controller.hpp</text>
</a>
</g>
</g>
<!-- Node4&#45;&gt;Node7 -->
<g id="edge7_Node000004_Node000007" class="edge">
<title>Node4&#45;&gt;Node7</title>
<g id="a_edge7_Node000004_Node000007"><a xlink:title=" ">
<path fill="none" stroke="#63b8ff" d="M815.19,-145.53C704.64,-141.85 482.06,-130.58 296.56,-97 282.08,-94.38 266.28,-90.1 253.27,-86.18"/>
<polygon fill="#63b8ff" stroke="#63b8ff" points="814.88,-149.02 824.99,-145.84 815.11,-142.03 814.88,-149.02"/>
</a>
</g>
</g>
<!-- Node8 -->
<g id="Node000008" class="node">
<title>Node8</title>
<g id="a_Node000008"><a xlink:href="../../d9/d0f/main_8cc.html" target="_top" xlink:title=" ">
<polygon fill="white" stroke="#666666" points="270.69,-19.25 180.44,-19.25 180.44,0 270.69,0 270.69,-19.25"/>
<text text-anchor="middle" x="225.56" y="-5.75" font-family="Helvetica,sans-Serif" font-size="10.00">d3d_test/main.cc</text>
</a>
</g>
</g>
<!-- Node4&#45;&gt;Node8 -->
<g id="edge10_Node000004_Node000008" class="edge">
<title>Node4&#45;&gt;Node8</title>
<g id="a_edge10_Node000004_Node000008"><a xlink:title=" ">
<path fill="none" stroke="#63b8ff" d="M815.16,-144.34C693.93,-138.63 448.79,-124.07 367.56,-97 340.05,-87.83 268.2,-39.81 238.6,-19.6"/>
<polygon fill="#63b8ff" stroke="#63b8ff" points="814.83,-147.83 824.98,-144.8 815.16,-140.84 814.83,-147.83"/>
</a>
</g>
</g>
<!-- Node9 -->
<g id="Node000009" class="node">
<title>Node9</title>
<g id="a_Node000009"><a xlink:href="../../da/df5/object-editor_8hpp.html" target="_top" xlink:title=" ">
<polygon fill="white" stroke="#666666" points="1444.44,-85.75 1316.69,-85.75 1316.69,-66.5 1444.44,-66.5 1444.44,-85.75"/>
<text text-anchor="middle" x="1380.56" y="-72.25" font-family="Helvetica,sans-Serif" font-size="10.00">d3d_test/object&#45;editor.hpp</text>
</a>
</g>
</g>
<!-- Node4&#45;&gt;Node9 -->
<g id="edge11_Node000004_Node000009" class="edge">
<title>Node4&#45;&gt;Node9</title>
<g id="a_edge11_Node000004_Node000009"><a xlink:title=" ">
<path fill="none" stroke="#63b8ff" d="M950.56,-136.42C958.64,-135.21 966.78,-134.04 974.56,-133 1122.12,-113.35 1161.29,-124.64 1307.56,-97 1322.15,-94.24 1338.08,-90.05 1351.33,-86.22"/>
<polygon fill="#63b8ff" stroke="#63b8ff" points="950.09,-132.95 940.73,-137.92 951.14,-139.87 950.09,-132.95"/>
</a>
</g>
</g>
<!-- Node12 -->
<g id="Node000012" class="node">
<title>Node12</title>
<g id="a_Node000012"><a xlink:href="../../d9/d55/scene-viewer_8hpp.html" target="_top" xlink:title=" ">
<polygon fill="white" stroke="#666666" points="642.69,-85.75 510.44,-85.75 510.44,-66.5 642.69,-66.5 642.69,-85.75"/>
<text text-anchor="middle" x="576.56" y="-72.25" font-family="Helvetica,sans-Serif" font-size="10.00">d3d_test/scene&#45;viewer.hpp</text>
</a>
</g>
</g>
<!-- Node4&#45;&gt;Node12 -->
<g id="edge15_Node000004_Node000012" class="edge">
<title>Node4&#45;&gt;Node12</title>
<g id="a_edge15_Node000004_Node000012"><a xlink:title=" ">
<path fill="none" stroke="#63b8ff" d="M828.09,-135.84C780.8,-126.1 711.6,-111.42 651.56,-97 637.68,-93.67 622.44,-89.68 609.34,-86.16"/>
<polygon fill="#63b8ff" stroke="#63b8ff" points="827.34,-139.26 837.84,-137.84 828.74,-132.4 827.34,-139.26"/>
</a>
</g>
</g>
<!-- Node13 -->
<g id="Node000013" class="node">
<title>Node13</title>
<g id="a_Node000013"><a xlink:href="../../da/d5c/engine_8cpp.html" target="_top" xlink:title=" ">
<polygon fill="white" stroke="#666666" points="492.44,-85.75 376.69,-85.75 376.69,-66.5 492.44,-66.5 492.44,-85.75"/>
<text text-anchor="middle" x="434.56" y="-72.25" font-family="Helvetica,sans-Serif" font-size="10.00">engine/core/engine.cpp</text>
</a>
</g>
</g>
<!-- Node4&#45;&gt;Node13 -->
<g id="edge17_Node000004_Node000013" class="edge">
<title>Node4&#45;&gt;Node13</title>
<g id="a_edge17_Node000004_Node000013"><a xlink:title=" ">
<path fill="none" stroke="#63b8ff" d="M815.33,-141.48C738.19,-134.29 610.04,-120.05 501.56,-97 488.27,-94.18 473.79,-90.02 461.7,-86.23"/>
<polygon fill="#63b8ff" stroke="#63b8ff" points="814.55,-144.93 824.82,-142.36 815.19,-137.96 814.55,-144.93"/>
</a>
</g>
</g>
<!-- Node14 -->
<g id="Node000014" class="node">
<title>Node14</title>
<g id="a_Node000014"><a xlink:href="../../d1/da2/deferred-hdr-render-pipeline_8cpp.html" target="_top" xlink:title=" ">
<polygon fill="white" stroke="#666666" points="149.94,-91.38 19.19,-91.38 19.19,-60.88 149.94,-60.88 149.94,-91.38"/>
<text text-anchor="start" x="27.19" y="-77.88" font-family="Helvetica,sans-Serif" font-size="10.00">engine/direct3d11/deferred</text>
<text text-anchor="middle" x="84.56" y="-66.62" font-family="Helvetica,sans-Serif" font-size="10.00">&#45;hdr&#45;render&#45;pipeline.cpp</text>
</a>
</g>
</g>
<!-- Node4&#45;&gt;Node14 -->
<g id="edge18_Node000004_Node000014" class="edge">
<title>Node4&#45;&gt;Node14</title>
<g id="a_edge18_Node000004_Node000014"><a xlink:title=" ">
<path fill="none" stroke="#63b8ff" d="M815.02,-146.8C685.28,-145.01 397.9,-136.47 159.56,-97 151.46,-95.66 142.96,-93.83 134.71,-91.82"/>
<polygon fill="#63b8ff" stroke="#63b8ff" points="814.78,-150.3 824.82,-146.93 814.86,-143.3 814.78,-150.3"/>
</a>
</g>
</g>
<!-- Node4&#45;&gt;Node15 -->
<g id="edge19_Node000004_Node000015" class="edge">
<title>Node4&#45;&gt;Node15</title>
<g id="a_edge19_Node000004_Node000015"><a xlink:title=" ">
<path fill="none" stroke="#63b8ff" d="M954.12,-144.75C1131.32,-138.14 1596.51,-119.17 1749.56,-97 1758.71,-95.67 1768.33,-93.85 1777.67,-91.85"/>
<polygon fill="#63b8ff" stroke="#63b8ff" points="954.25,-141.25 944.38,-145.11 954.51,-148.24 954.25,-141.25"/>
</a>
</g>
</g>
<!-- Node4&#45;&gt;Node16 -->
<g id="edge20_Node000004_Node000016" class="edge">
<title>Node4&#45;&gt;Node16</title>
<g id="a_edge20_Node000004_Node000016"><a xlink:title=" ">
<path fill="none" stroke="#63b8ff" d="M948.62,-136.45C957.32,-135.17 966.15,-133.98 974.56,-133 1186.62,-108.29 1243.11,-132.85 1453.56,-97 1456.45,-96.51 1459.38,-95.95 1462.34,-95.35"/>
<polygon fill="#63b8ff" stroke="#63b8ff" points="948.15,-132.98 938.79,-137.93 949.2,-139.9 948.15,-132.98"/>
</a>
</g>
</g>
<!-- Node17 -->
<g id="Node000017" class="node">
<title>Node17</title>
<g id="a_Node000017"><a xlink:href="../../d2/d11/emissive-particle-render-system_8cpp.html" target="_top" xlink:title=" ">
<polygon fill="white" stroke="#666666" points="790.56,-97 660.56,-97 660.56,-55.25 790.56,-55.25 790.56,-97"/>
<text text-anchor="start" x="668.56" y="-83.5" font-family="Helvetica,sans-Serif" font-size="10.00">engine/subsystems/render</text>
<text text-anchor="start" x="668.56" y="-72.25" font-family="Helvetica,sans-Serif" font-size="10.00">/detail/emissive&#45;particle</text>
<text text-anchor="middle" x="725.56" y="-61" font-family="Helvetica,sans-Serif" font-size="10.00">&#45;render&#45;system.cpp</text>
</a>
</g>
</g>
<!-- Node4&#45;&gt;Node17 -->
<g id="edge21_Node000004_Node000017" class="edge">
<title>Node4&#45;&gt;Node17</title>
<g id="a_edge21_Node000004_Node000017"><a xlink:title=" ">
<path fill="none" stroke="#63b8ff" d="M853.77,-133.67C830.45,-123.39 798.04,-109.09 771.65,-97.45"/>
<polygon fill="#63b8ff" stroke="#63b8ff" points="852.16,-136.78 862.72,-137.62 854.98,-130.38 852.16,-136.78"/>
</a>
</g>
</g>
<!-- Node18 -->
<g id="Node000018" class="node">
<title>Node18</title>
<g id="a_Node000018"><a xlink:href="../../df/d58/grass-render-system_8cpp.html" target="_top" xlink:title=" ">
<polygon fill="white" stroke="#666666" points="960.44,-91.38 808.69,-91.38 808.69,-60.88 960.44,-60.88 960.44,-91.38"/>
<text text-anchor="start" x="816.69" y="-77.88" font-family="Helvetica,sans-Serif" font-size="10.00">engine/subsystems/render</text>
<text text-anchor="middle" x="884.56" y="-66.62" font-family="Helvetica,sans-Serif" font-size="10.00">/detail/grass&#45;render&#45;system.cpp</text>
</a>
</g>
</g>
<!-- Node4&#45;&gt;Node18 -->
<g id="edge22_Node000004_Node000018" class="edge">
<title>Node4&#45;&gt;Node18</title>
<g id="a_edge22_Node000004_Node000018"><a xlink:title=" ">
<path fill="none" stroke="#63b8ff" d="M884.56,-127.04C884.56,-115.78 884.56,-102.01 884.56,-91.79"/>
<polygon fill="#63b8ff" stroke="#63b8ff" points="881.06,-126.86 884.56,-136.86 888.06,-126.86 881.06,-126.86"/>
</a>
</g>
</g>
<!-- Node19 -->
<g id="Node000019" class="node">
<title>Node19</title>
<g id="a_Node000019"><a xlink:href="../../d8/d9c/light-render-system_8cpp.html" target="_top" xlink:title=" ">
<polygon fill="white" stroke="#666666" points="1298.44,-91.38 1152.69,-91.38 1152.69,-60.88 1298.44,-60.88 1298.44,-91.38"/>
<text text-anchor="start" x="1160.69" y="-77.88" font-family="Helvetica,sans-Serif" font-size="10.00">engine/subsystems/render</text>
<text text-anchor="middle" x="1225.56" y="-66.62" font-family="Helvetica,sans-Serif" font-size="10.00">/detail/light&#45;render&#45;system.cpp</text>
</a>
</g>
</g>
<!-- Node4&#45;&gt;Node19 -->
<g id="edge23_Node000004_Node000019" class="edge">
<title>Node4&#45;&gt;Node19</title>
<g id="a_edge23_Node000004_Node000019"><a xlink:title=" ">
<path fill="none" stroke="#63b8ff" d="M946,-136.16C998.58,-126.47 1076.23,-111.68 1143.56,-97 1151.01,-95.38 1158.81,-93.59 1166.52,-91.78"/>
<polygon fill="#63b8ff" stroke="#63b8ff" points="945.53,-132.68 936.33,-137.93 946.8,-139.57 945.53,-132.68"/>
</a>
</g>
</g>
<!-- Node4&#45;&gt;Node20 -->
<g id="edge24_Node000004_Node000020" class="edge">
<title>Node4&#45;&gt;Node20</title>
<g id="a_edge24_Node000004_Node000020"><a xlink:title=" ">
<path fill="none" stroke="#63b8ff" d="M954.07,-138.87C973.02,-136.76 993.57,-134.64 1012.56,-133 1273.86,-110.48 1342.72,-139.23 1601.56,-97 1604.45,-96.53 1607.39,-95.99 1610.35,-95.4"/>
<polygon fill="#63b8ff" stroke="#63b8ff" points="953.86,-135.38 944.31,-139.98 954.64,-142.33 953.86,-135.38"/>
</a>
</g>
</g>
<!-- Node5&#45;&gt;Node2 -->
<g id="edge6_Node000005_Node000002" class="edge">
<title>Node5&#45;&gt;Node2</title>
<g id="a_edge6_Node000005_Node000002"><a xlink:title=" ">
<path fill="none" stroke="#63b8ff" d="M1009.73,-63.42C996.78,-60.46 982.68,-57.48 969.56,-55.25 851.1,-35.06 710.95,-21.62 634.12,-15.14"/>
<polygon fill="#63b8ff" stroke="#63b8ff" points="1008.76,-66.78 1019.29,-65.66 1010.35,-59.97 1008.76,-66.78"/>
</a>
</g>
</g>
<!-- Node6 -->
<g id="Node000006" class="node">
<title>Node6</title>
<g id="a_Node000006"><a xlink:href="../../d5/dbb/camera-movement_8cpp.html" target="_top" xlink:title=" ">
<polygon fill="white" stroke="#666666" points="1134.31,-19.25 978.81,-19.25 978.81,0 1134.31,0 1134.31,-19.25"/>
<text text-anchor="middle" x="1056.56" y="-5.75" font-family="Helvetica,sans-Serif" font-size="10.00">d3d_test/camera&#45;movement.cpp</text>
</a>
</g>
</g>
<!-- Node5&#45;&gt;Node6 -->
<g id="edge5_Node000005_Node000006" class="edge">
<title>Node5&#45;&gt;Node6</title>
<g id="a_edge5_Node000005_Node000006"><a xlink:title=" ">
<path fill="none" stroke="#63b8ff" d="M1056.56,-54.65C1056.56,-42.82 1056.56,-28.54 1056.56,-19.52"/>
<polygon fill="#63b8ff" stroke="#63b8ff" points="1053.06,-54.64 1056.56,-64.64 1060.06,-54.64 1053.06,-54.64"/>
</a>
</g>
</g>
<!-- Node7&#45;&gt;Node2 -->
<g id="edge8_Node000007_Node000002" class="edge">
<title>Node7&#45;&gt;Node2</title>
<g id="a_edge8_Node000007_Node000002"><a xlink:title=" ">
<path fill="none" stroke="#63b8ff" d="M286.09,-64C354.24,-51.48 463.69,-31.37 526.99,-19.74"/>
<polygon fill="#63b8ff" stroke="#63b8ff" points="285.8,-60.5 276.6,-65.75 287.07,-67.38 285.8,-60.5"/>
</a>
</g>
</g>
<!-- Node7&#45;&gt;Node8 -->
<g id="edge9_Node000007_Node000008" class="edge">
<title>Node7&#45;&gt;Node8</title>
<g id="a_edge9_Node000007_Node000008"><a xlink:title=" ">
<path fill="none" stroke="#63b8ff" d="M225.56,-54.65C225.56,-42.82 225.56,-28.54 225.56,-19.52"/>
<polygon fill="#63b8ff" stroke="#63b8ff" points="222.06,-54.64 225.56,-64.64 229.06,-54.64 222.06,-54.64"/>
</a>
</g>
</g>
<!-- Node9&#45;&gt;Node2 -->
<g id="edge12_Node000009_Node000002" class="edge">
<title>Node9&#45;&gt;Node2</title>
<g id="a_edge12_Node000009_Node000002"><a xlink:title=" ">
<path fill="none" stroke="#63b8ff" d="M1341.52,-62.91C1330.63,-59.94 1318.72,-57.09 1307.56,-55.25 1059.17,-14.3 757.72,-10 633.88,-10.15"/>
<polygon fill="#63b8ff" stroke="#63b8ff" points="1340.4,-66.23 1350.98,-65.6 1342.32,-59.5 1340.4,-66.23"/>
</a>
</g>
</g>
<!-- Node10 -->
<g id="Node000010" class="node">
<title>Node10</title>
<g id="a_Node000010"><a xlink:href="../../d4/d94/object-editor_8cpp.html" target="_top" xlink:title=" ">
<polygon fill="white" stroke="#666666" points="1370.44,-19.25 1242.69,-19.25 1242.69,0 1370.44,0 1370.44,-19.25"/>
<text text-anchor="middle" x="1306.56" y="-5.75" font-family="Helvetica,sans-Serif" font-size="10.00">d3d_test/object&#45;editor.cpp</text>
</a>
</g>
</g>
<!-- Node9&#45;&gt;Node10 -->
<g id="edge13_Node000009_Node000010" class="edge">
<title>Node9&#45;&gt;Node10</title>
<g id="a_edge13_Node000009_Node000010"><a xlink:title=" ">
<path fill="none" stroke="#63b8ff" d="M1361.7,-58.69C1347.41,-46.23 1328.33,-29.59 1316.77,-19.52"/>
<polygon fill="#63b8ff" stroke="#63b8ff" points="1359.3,-61.23 1369.13,-65.16 1363.89,-55.95 1359.3,-61.23"/>
</a>
</g>
</g>
<!-- Node11 -->
<g id="Node000011" class="node">
<title>Node11</title>
<g id="a_Node000011"><a xlink:href="../../d0/d38/scene-viewer_8cpp.html" target="_top" xlink:title=" ">
<polygon fill="white" stroke="#666666" points="1520.69,-19.25 1388.44,-19.25 1388.44,0 1520.69,0 1520.69,-19.25"/>
<text text-anchor="middle" x="1454.56" y="-5.75" font-family="Helvetica,sans-Serif" font-size="10.00">d3d_test/scene&#45;viewer.cpp</text>
</a>
</g>
</g>
<!-- Node9&#45;&gt;Node11 -->
<g id="edge14_Node000009_Node000011" class="edge">
<title>Node9&#45;&gt;Node11</title>
<g id="a_edge14_Node000009_Node000011"><a xlink:title=" ">
<path fill="none" stroke="#63b8ff" d="M1399.42,-58.69C1413.71,-46.23 1432.8,-29.59 1444.36,-19.52"/>
<polygon fill="#63b8ff" stroke="#63b8ff" points="1397.23,-55.95 1391.99,-65.16 1401.83,-61.23 1397.23,-55.95"/>
</a>
</g>
</g>
<!-- Node12&#45;&gt;Node2 -->
<g id="edge16_Node000012_Node000002" class="edge">
<title>Node12&#45;&gt;Node2</title>
<g id="a_edge16_Node000012_Node000002"><a xlink:title=" ">
<path fill="none" stroke="#63b8ff" d="M576.56,-54.65C576.56,-42.82 576.56,-28.54 576.56,-19.52"/>
<polygon fill="#63b8ff" stroke="#63b8ff" points="573.06,-54.64 576.56,-64.64 580.06,-54.64 573.06,-54.64"/>
</a>
</g>
</g>
<!-- Node22 -->
<g id="Node000022" class="node">
<title>Node22</title>
<g id="a_Node000022"><a xlink:href="../../d4/d87/layers_8hpp.html" target="_top" xlink:title=" ">
<polygon fill="white" stroke="#666666" points="922.94,-218.75 810.19,-218.75 810.19,-199.5 922.94,-199.5 922.94,-218.75"/>
<text text-anchor="middle" x="866.56" y="-205.25" font-family="Helvetica,sans-Serif" font-size="10.00">engine/core/layers.hpp</text>
</a>
</g>
</g>
<!-- Node21&#45;&gt;Node22 -->
<g id="edge26_Node000021_Node000022" class="edge">
<title>Node21&#45;&gt;Node22</title>
<g id="a_edge26_Node000021_Node000022"><a xlink:title=" ">
<path fill="none" stroke="#63b8ff" d="M868.36,-248.71C867.87,-238.14 867.33,-226.62 866.97,-218.95"/>
<polygon fill="#63b8ff" stroke="#63b8ff" points="864.85,-248.65 868.81,-258.48 871.84,-248.33 864.85,-248.65"/>
</a>
</g>
</g>
<!-- Node21&#45;&gt;Node23 -->
<g id="edge28_Node000021_Node000023" class="edge">
<title>Node21&#45;&gt;Node23</title>
<g id="a_edge28_Node000021_Node000023"><a xlink:title=" ">
<path fill="none" stroke="#63b8ff" d="M817.53,-256.64C815.18,-255.97 812.85,-255.34 810.56,-254.75 624.66,-206.95 400.08,-172.92 291.16,-157.88"/>
<polygon fill="#63b8ff" stroke="#63b8ff" points="816.5,-259.98 827.08,-259.51 818.51,-253.28 816.5,-259.98"/>
</a>
</g>
</g>
<!-- Node22&#45;&gt;Node4 -->
<g id="edge27_Node000022_Node000004" class="edge">
<title>Node22&#45;&gt;Node4</title>
<g id="a_edge27_Node000022_Node000004"><a xlink:title=" ">
<path fill="none" stroke="#63b8ff" d="M872.6,-188.37C875.72,-178.18 879.36,-166.26 881.8,-158.28"/>
<polygon fill="#63b8ff" stroke="#63b8ff" points="869.32,-187.15 869.74,-197.74 876.01,-189.2 869.32,-187.15"/>
</a>
</g>
</g>
<!-- Node23&#45;&gt;Node7 -->
<g id="edge29_Node000023_Node000007" class="edge">
<title>Node23&#45;&gt;Node7</title>
<g id="a_edge29_Node000023_Node000007"><a xlink:title=" ">
<path fill="none" stroke="#63b8ff" d="M225.56,-121.48C225.56,-108.98 225.56,-94.77 225.56,-85.88"/>
<polygon fill="#63b8ff" stroke="#63b8ff" points="222.06,-121.21 225.56,-131.21 229.06,-121.21 222.06,-121.21"/>
</a>
</g>
</g>
<!-- Node23&#45;&gt;Node8 -->
<g id="edge30_Node000023_Node000008" class="edge">
<title>Node23&#45;&gt;Node8</title>
<g id="a_edge30_Node000023_Node000008"><a xlink:title=" ">
<path fill="none" stroke="#63b8ff" d="M148.54,-140.49C70.86,-130.65 -31.94,-107.48 10.56,-55.25 31.5,-29.53 123.3,-18.15 179.96,-13.51"/>
<polygon fill="#63b8ff" stroke="#63b8ff" points="147.94,-143.94 158.29,-141.66 148.78,-136.99 147.94,-143.94"/>
</a>
</g>
</g>
<!-- Node23&#45;&gt;Node14 -->
<g id="edge31_Node000023_Node000014" class="edge">
<title>Node23&#45;&gt;Node14</title>
<g id="a_edge31_Node000023_Node000014"><a xlink:title=" ">
<path fill="none" stroke="#63b8ff" d="M185.95,-127.55C163.13,-116.2 134.94,-102.18 114.08,-91.81"/>
<polygon fill="#63b8ff" stroke="#63b8ff" points="184.14,-130.56 194.65,-131.88 187.26,-124.29 184.14,-130.56"/>
</a>
</g>
</g>
</g>
</svg>

<g id="navigator" transform="translate(0 0)" fill="#404254">
  <rect fill="#f2f5e9" fill-opacity="0.5" stroke="#606060" stroke-width=".5" x="0" y="0" width="60" height="60"/>
  <use id="zoomplus" xlink:href="#zoomPlus" x="17" y="9" onmousedown="handleZoom(evt,'in')"/>
  <use id="zoomminus" xlink:href="#zoomMin" x="42" y="9" onmousedown="handleZoom(evt,'out')"/>
  <use id="reset" xlink:href="#resetDef" x="30" y="36" onmousedown="handleReset()"/>
   <use id="arrowup" xlink:href="#arrowUp" x="0" y="0" onmousedown="handlePan(0,-1)"/>
  <use id="arrowright" xlink:href="#arrowRight" x="0" y="0" onmousedown="handlePan(1,0)"/>
  <use id="arrowdown" xlink:href="#arrowDown" x="0" y="0" onmousedown="handlePan(0,1)"/>
  <use id="arrowleft" xlink:href="#arrowLeft" x="0" y="0" onmousedown="handlePan(-1,0)"/>
</g>
<svg viewBox="0 0 15 15" width="100%" height="30px" preserveAspectRatio="xMaxYMin meet">
 <g id="arrow_out" transform="scale(0.3 0.3)">
  <a xlink:href="renderer_8hpp__dep__incl_org.svg" target="_base">
   <rect id="button" ry="5" rx="5" y="6" x="6" height="38" width="38"
        fill="#f2f5e9" fill-opacity="0.5" stroke="#606060" stroke-width="1.0"/>
   <path id="arrow"
     d="M 11.500037,31.436501 C 11.940474,20.09759 22.043105,11.32322 32.158766,21.979434 L 37.068811,17.246167 C 37.068811,17.246167 37.088388,32 37.088388,32 L 22.160133,31.978069 C 22.160133,31.978069 26.997745,27.140456 26.997745,27.140456 C 18.528582,18.264221 13.291696,25.230495 11.500037,31.436501 z"
     style="fill:#404040;"/>
  </a>
 </g>
</svg>

<style type='text/css'>
<![CDATA[
[data-mouse-over-selected='false'] { opacity: 0.7; }
[data-mouse-over-selected='true']  { opacity: 1.0; }
]]>
</style>
<script type="application/ecmascript"><![CDATA[
document.addEventListener('DOMContentLoaded', (event) => {
  highlightEdges();
  highlightAdjacentNodes();
});
]]></script>
</svg>
