<?xml version="1.0" encoding="UTF-8" standalone="no"?>
<!DOCTYPE svg PUBLIC "-//W3C//DTD SVG 1.1//EN"
 "http://www.w3.org/Graphics/SVG/1.1/DTD/svg11.dtd">
<!-- Generated by graphviz version 8.1.0 (20230707.0739)
 -->
<!-- Title: engine/render/renderer.hpp Pages: 1 -->
<!--zoomable 415 -->

<svg id="main" version="1.1" xmlns="http://www.w3.org/2000/svg" xmlns:xlink="http://www.w3.org/1999/xlink" xml:space="preserve" onload="init(evt)">
<style type="text/css"><![CDATA[
.node, .edge {opacity: 0.7;}
.node.selected, .edge.selected {opacity: 1;}
.edge:hover path { stroke: red; }
.edge:hover polygon { stroke: red; fill: red; }
]]></style>

<defs>
  <circle id="rim" cx="0" cy="0" r="7"/>
  <circle id="rim2" cx="0" cy="0" r="3.5"/>
  <g id="zoomPlus">
    <use xlink:href="#rim" fill="#404040"><set attributeName="fill" to="#808080" begin="zoomplus.mouseover" end="zoomplus.mouseout"/></use>
    <path d="M-4,0h8M0,-4v8" fill="none" stroke="white" stroke-width="1.5" pointer-events="none"/>
  </g>
  <g id="zoomMin">
    <use xlink:href="#rim" fill="#404040"><set attributeName="fill" to="#808080" begin="zoomminus.mouseover" end="zoomminus.mouseout"/></use>
    <path d="M-4,0h8" fill="none" stroke="white" stroke-width="1.5" pointer-events="none"/>
  </g>
  <g id="arrowUp" transform="translate(30 24)">
    <use xlink:href="#rim"/>
    <path pointer-events="none" fill="none" stroke="white" stroke-width="1.5" d="M0,-3.0v7 M-2.5,-0.5L0,-3.0L2.5,-0.5"/>
  </g>
  <g id="arrowRight" transform="rotate(90) translate(36 -43)">
    <use xlink:href="#rim"/>
    <path pointer-events="none" fill="none" stroke="white" stroke-width="1.5" d="M0,-3.0v7 M-2.5,-0.5L0,-3.0L2.5,-0.5"/>
  </g>
  <g id="arrowDown" transform="rotate(180) translate(-30 -48)">
    <use xlink:href="#rim"/>
    <path pointer-events="none" fill="none" stroke="white" stroke-width="1.5" d="M0,-3.0v7 M-2.5,-0.5L0,-3.0L2.5,-0.5"/>
  </g>
  <g id="arrowLeft" transform="rotate(270) translate(-36 17)">
    <use xlink:href="#rim"/>
    <path pointer-events="none" fill="none" stroke="white" stroke-width="1.5" d="M0,-3.0v7 M-2.5,-0.5L0,-3.0L2.5,-0.5"/>
  </g>
  <g id="resetDef">
    <use xlink:href="#rim2" fill="#404040"><set attributeName="fill" to="#808080" begin="reset.mouseover" end="reset.mouseout"/></use>
  </g>
</defs>
<script type="application/ecmascript">
var viewWidth = 1918;
var viewHeight = 415;
var sectionId = 'dynsection-1';
</script>
<script type="application/ecmascript" xlink:href="../../svg.min.js"/>
<svg id="graph" class="graph">
<g id="viewport">
<title>engine/render/renderer.hpp</title>
<!-- Node1 -->
<g id="Node000001" class="node">
<title>Node1</title>
<g id="a_Node000001"><a xlink:title=" ">
<polygon fill="#999999" stroke="#666666" points="724.94,-407 594.19,-407 594.19,-387.75 724.94,-387.75 724.94,-407"/>
<text text-anchor="middle" x="659.57" y="-393.5" font-family="Helvetica,sans-Serif" font-size="10.00">engine/render/renderer.hpp</text>
</a>
</g>
</g>
<!-- Node2 -->
<g id="Node000002" class="node">
<title>Node2</title>
<g id="a_Node000002"><a xlink:href="../../d1/d47/controller_8cpp.html" target="_top" xlink:title=" ">
<polygon fill="white" stroke="#666666" points="633.69,-19.25 519.44,-19.25 519.44,0 633.69,0 633.69,-19.25"/>
<text text-anchor="middle" x="576.57" y="-5.75" font-family="Helvetica,sans-Serif" font-size="10.00">d3d_test/controller.cpp</text>
</a>
</g>
</g>
<!-- Node1&#45;&gt;Node2 -->
<g id="edge1_Node000001_Node000002" class="edge">
<title>Node1&#45;&gt;Node2</title>
<g id="a_edge1_Node000001_Node000002"><a xlink:title=" ">
<path fill="none" stroke="#63b8ff" d="M596.06,-385.23C505.09,-367.43 348.57,-329.16 348.57,-276.62 348.57,-276.62 348.57,-276.62 348.57,-147.25 348.57,-105.5 338.14,-84.87 367.57,-55.25 388.45,-34.22 464.66,-22.06 519.01,-15.89"/>
<polygon fill="#63b8ff" stroke="#63b8ff" points="595.33,-388.84 605.81,-387.3 596.65,-381.97 595.33,-388.84"/>
</a>
</g>
</g>
<!-- Node3 -->
<g id="Node000003" class="node">
<title>Node3</title>
<g id="a_Node000003"><a xlink:href="../../d5/d9b/scene_8hpp.html" target="_top" xlink:title=" ">
<polygon fill="white" stroke="#666666" points="1064.32,-351.75 950.82,-351.75 950.82,-332.5 1064.32,-332.5 1064.32,-351.75"/>
<text text-anchor="middle" x="1007.57" y="-338.25" font-family="Helvetica,sans-Serif" font-size="10.00">engine/core/scene.hpp</text>
</a>
</g>
</g>
<!-- Node1&#45;&gt;Node3 -->
<g id="edge2_Node000001_Node000003" class="edge">
<title>Node1&#45;&gt;Node3</title>
<g id="a_edge2_Node000001_Node000003"><a xlink:title=" ">
<path fill="none" stroke="#63b8ff" d="M729.54,-385.67C794.47,-375.73 889.94,-361.12 950.4,-351.87"/>
<polygon fill="#63b8ff" stroke="#63b8ff" points="729.35,-382.31 719.99,-387.28 730.41,-389.23 729.35,-382.31"/>
</a>
</g>
</g>
<!-- Node23 -->
<g id="Node000023" class="node">
<title>Node23</title>
<g id="a_Node000023"><a xlink:href="../../db/df9/deferred-hdr-render-pipeline_8hpp.html" target="_top" xlink:title=" ">
<polygon fill="white" stroke="#666666" points="290.94,-163.5 160.19,-163.5 160.19,-133 290.94,-133 290.94,-163.5"/>
<text text-anchor="start" x="168.19" y="-150" font-family="Helvetica,sans-Serif" font-size="10.00">engine/direct3d11/deferred</text>
<text text-anchor="middle" x="225.57" y="-138.75" font-family="Helvetica,sans-Serif" font-size="10.00">&#45;hdr&#45;render&#45;pipeline.hpp</text>
</a>
</g>
</g>
<!-- Node1&#45;&gt;Node23 -->
<g id="edge39_Node000001_Node000023" class="edge">
<title>Node1&#45;&gt;Node23</title>
<g id="a_edge39_Node000001_Node000023"><a xlink:title=" ">
<path fill="none" stroke="#63b8ff" d="M582.85,-393.76C499.67,-389.56 373.58,-378.83 334.57,-351.75 266.83,-304.74 237.45,-201.81 228.62,-163.76"/>
<polygon fill="#63b8ff" stroke="#63b8ff" points="582.62,-397.3 592.78,-394.28 582.96,-390.31 582.62,-397.3"/>
</a>
</g>
</g>
<!-- Node25 -->
<g id="Node000025" class="node">
<title>Node25</title>
<g id="a_Node000025"><a xlink:href="../../d6/d54/renderer_8cpp.html" target="_top" xlink:title=" ">
<polygon fill="white" stroke="#666666" points="1500.94,-285.25 1370.19,-285.25 1370.19,-266 1500.94,-266 1500.94,-285.25"/>
<text text-anchor="middle" x="1435.57" y="-271.75" font-family="Helvetica,sans-Serif" font-size="10.00">engine/render/renderer.cpp</text>
</a>
</g>
</g>
<!-- Node1&#45;&gt;Node25 -->
<g id="edge40_Node000001_Node000025" class="edge">
<title>Node1&#45;&gt;Node25</title>
<g id="a_edge40_Node000001_Node000025"><a xlink:title=" ">
<path fill="none" stroke="#63b8ff" d="M736.29,-390.08C819.58,-382.79 956.42,-369.47 1073.57,-351.75 1200.28,-332.59 1231.49,-324.42 1356.57,-296.5 1371.2,-293.23 1387.26,-289.26 1401.05,-285.74"/>
<polygon fill="#63b8ff" stroke="#63b8ff" points="736.06,-386.68 726.4,-391.03 736.66,-393.65 736.06,-386.68"/>
</a>
</g>
</g>
<!-- Node4 -->
<g id="Node000004" class="node">
<title>Node4</title>
<g id="a_Node000004"><a xlink:href="../../de/d46/engine_8hpp.html" target="_top" xlink:title=" ">
<polygon fill="white" stroke="#666666" points="942.44,-157.88 826.69,-157.88 826.69,-138.62 942.44,-138.62 942.44,-157.88"/>
<text text-anchor="middle" x="884.57" y="-144.38" font-family="Helvetica,sans-Serif" font-size="10.00">engine/core/engine.hpp</text>
</a>
</g>
</g>
<!-- Node3&#45;&gt;Node4 -->
<g id="edge3_Node000003_Node000004" class="edge">
<title>Node3&#45;&gt;Node4</title>
<g id="a_edge3_Node000003_Node000004"><a xlink:title=" ">
<path fill="none" stroke="#63b8ff" d="M993.4,-323.84C987.18,-315.81 980.07,-305.96 974.57,-296.5 950.85,-255.74 957.59,-238.83 931.57,-199.5 920.89,-183.36 904.9,-167.53 894.6,-158.07"/>
<polygon fill="#63b8ff" stroke="#63b8ff" points="991.16,-325.65 1000.13,-331.3 996.64,-321.29 991.16,-325.65"/>
</a>
</g>
</g>
<!-- Node15 -->
<g id="Node000015" class="node">
<title>Node15</title>
<g id="a_Node000015"><a xlink:href="../../d8/d30/decal-render-system_8cpp.html" target="_top" xlink:title=" ">
<polygon fill="white" stroke="#666666" points="1910.07,-91.38 1759.07,-91.38 1759.07,-60.88 1910.07,-60.88 1910.07,-91.38"/>
<text text-anchor="start" x="1767.07" y="-77.88" font-family="Helvetica,sans-Serif" font-size="10.00">engine/subsystems/render</text>
<text text-anchor="middle" x="1834.57" y="-66.62" font-family="Helvetica,sans-Serif" font-size="10.00">/detail/decal&#45;render&#45;system.cpp</text>
</a>
</g>
</g>
<!-- Node3&#45;&gt;Node15 -->
<g id="edge34_Node000003_Node000015" class="edge">
<title>Node3&#45;&gt;Node15</title>
<g id="a_edge34_Node000003_Node000015"><a xlink:title=" ">
<path fill="none" stroke="#63b8ff" d="M1075.15,-331.72C1167.56,-318.85 1322.19,-297.23 1323.57,-296.5 1345.75,-284.77 1340.8,-268.83 1361.57,-254.75 1434.17,-205.52 1682.03,-124.8 1786.99,-91.84"/>
<polygon fill="#63b8ff" stroke="#63b8ff" points="1074.9,-328.36 1065.47,-333.21 1075.86,-335.3 1074.9,-328.36"/>
</a>
</g>
</g>
<!-- Node16 -->
<g id="Node000016" class="node">
<title>Node16</title>
<g id="a_Node000016"><a xlink:href="../../d1/d58/dissolution-render-system_8cpp.html" target="_top" xlink:title=" ">
<polygon fill="white" stroke="#666666" points="1592.57,-97 1462.57,-97 1462.57,-55.25 1592.57,-55.25 1592.57,-97"/>
<text text-anchor="start" x="1470.57" y="-83.5" font-family="Helvetica,sans-Serif" font-size="10.00">engine/subsystems/render</text>
<text text-anchor="start" x="1470.57" y="-72.25" font-family="Helvetica,sans-Serif" font-size="10.00">/detail/dissolution&#45;render</text>
<text text-anchor="middle" x="1527.57" y="-61" font-family="Helvetica,sans-Serif" font-size="10.00">&#45;system.cpp</text>
</a>
</g>
</g>
<!-- Node3&#45;&gt;Node16 -->
<g id="edge35_Node000003_Node000016" class="edge">
<title>Node3&#45;&gt;Node16</title>
<g id="a_edge35_Node000003_Node000016"><a xlink:title=" ">
<path fill="none" stroke="#63b8ff" d="M1000.64,-321.88C987.29,-281.01 963.45,-185.02 1012.57,-133 1046.32,-97.25 1405.13,-105.41 1453.57,-97 1456.45,-96.5 1459.38,-95.94 1462.34,-95.33"/>
<polygon fill="#63b8ff" stroke="#63b8ff" points="997.58,-322.75 1004.13,-331.08 1004.2,-320.48 997.58,-322.75"/>
</a>
</g>
</g>
<!-- Node20 -->
<g id="Node000020" class="node">
<title>Node20</title>
<g id="a_Node000020"><a xlink:href="../../d3/dfe/particle-render-system_8cpp.html" target="_top" xlink:title=" ">
<polygon fill="white" stroke="#666666" points="1740.57,-97 1610.57,-97 1610.57,-55.25 1740.57,-55.25 1740.57,-97"/>
<text text-anchor="start" x="1618.57" y="-83.5" font-family="Helvetica,sans-Serif" font-size="10.00">engine/subsystems/render</text>
<text text-anchor="start" x="1618.57" y="-72.25" font-family="Helvetica,sans-Serif" font-size="10.00">/detail/particle&#45;render</text>
<text text-anchor="middle" x="1675.57" y="-61" font-family="Helvetica,sans-Serif" font-size="10.00">&#45;system.cpp</text>
</a>
</g>
</g>
<!-- Node3&#45;&gt;Node20 -->
<g id="edge38_Node000003_Node000020" class="edge">
<title>Node3&#45;&gt;Node20</title>
<g id="a_edge38_Node000003_Node000020"><a xlink:title=" ">
<path fill="none" stroke="#63b8ff" d="M1011.75,-321.52C1016.79,-302.27 1026.97,-273.19 1045.57,-254.75 1142.78,-158.33 1196.55,-169.35 1328.57,-133 1446.56,-100.51 1481.54,-120.92 1601.57,-97 1604.44,-96.43 1607.36,-95.81 1610.3,-95.15"/>
<polygon fill="#63b8ff" stroke="#63b8ff" points="1008.16,-320.51 1009.26,-331.05 1014.97,-322.13 1008.16,-320.51"/>
</a>
</g>
</g>
<!-- Node21 -->
<g id="Node000021" class="node">
<title>Node21</title>
<g id="a_Node000021"><a xlink:href="../../d9/d06/render-pipeline_8hpp.html" target="_top" xlink:title=" ">
<polygon fill="white" stroke="#666666" points="919.57,-290.88 819.57,-290.88 819.57,-260.38 919.57,-260.38 919.57,-290.88"/>
<text text-anchor="start" x="827.57" y="-277.38" font-family="Helvetica,sans-Serif" font-size="10.00">engine/core/layers</text>
<text text-anchor="middle" x="869.57" y="-266.12" font-family="Helvetica,sans-Serif" font-size="10.00">/render&#45;pipeline.hpp</text>
</a>
</g>
</g>
<!-- Node3&#45;&gt;Node21 -->
<g id="edge25_Node000003_Node000021" class="edge">
<title>Node3&#45;&gt;Node21</title>
<g id="a_edge25_Node000003_Node000021"><a xlink:title=" ">
<path fill="none" stroke="#63b8ff" d="M978.32,-327.46C955.6,-316.84 924.15,-302.14 900.91,-291.27"/>
<polygon fill="#63b8ff" stroke="#63b8ff" points="976.54,-330.96 987.09,-332.02 979.51,-324.62 976.54,-330.96"/>
</a>
</g>
</g>
<!-- Node24 -->
<g id="Node000024" class="node">
<title>Node24</title>
<g id="a_Node000024"><a xlink:href="../../d4/d7c/deferred-resolve_8cpp.html" target="_top" xlink:title=" ">
<polygon fill="white" stroke="#666666" points="1166.94,-290.88 1054.19,-290.88 1054.19,-260.38 1166.94,-260.38 1166.94,-290.88"/>
<text text-anchor="start" x="1062.19" y="-277.38" font-family="Helvetica,sans-Serif" font-size="10.00">engine/render/deferred</text>
<text text-anchor="middle" x="1110.57" y="-266.12" font-family="Helvetica,sans-Serif" font-size="10.00">&#45;resolve.cpp</text>
</a>
</g>
</g>
<!-- Node3&#45;&gt;Node24 -->
<g id="edge32_Node000003_Node000024" class="edge">
<title>Node3&#45;&gt;Node24</title>
<g id="a_edge32_Node000003_Node000024"><a xlink:title=" ">
<path fill="none" stroke="#63b8ff" d="M1031.05,-326.42C1047.89,-315.87 1070.47,-301.73 1087.27,-291.22"/>
<polygon fill="#63b8ff" stroke="#63b8ff" points="1029.5,-323.88 1022.89,-332.16 1033.22,-329.82 1029.5,-323.88"/>
</a>
</g>
</g>
<!-- Node3&#45;&gt;Node25 -->
<g id="edge33_Node000003_Node000025" class="edge">
<title>Node3&#45;&gt;Node25</title>
<g id="a_edge33_Node000003_Node000025"><a xlink:title=" ">
<path fill="none" stroke="#63b8ff" d="M1075.24,-334.89C1145.82,-327.82 1259.51,-314.85 1356.57,-296.5 1371.99,-293.58 1388.89,-289.46 1403.09,-285.72"/>
<polygon fill="#63b8ff" stroke="#63b8ff" points="1075.32,-331.46 1065.72,-335.93 1076.01,-338.43 1075.32,-331.46"/>
</a>
</g>
</g>
<!-- Node26 -->
<g id="Node000026" class="node">
<title>Node26</title>
<g id="a_Node000026"><a xlink:href="../../d8/dcb/emissive-render-system_8cpp.html" target="_top" xlink:title=" ">
<polygon fill="white" stroke="#666666" points="1314.57,-296.5 1184.57,-296.5 1184.57,-254.75 1314.57,-254.75 1314.57,-296.5"/>
<text text-anchor="start" x="1192.57" y="-283" font-family="Helvetica,sans-Serif" font-size="10.00">engine/subsystems/render</text>
<text text-anchor="start" x="1192.57" y="-271.75" font-family="Helvetica,sans-Serif" font-size="10.00">/detail/emissive&#45;render</text>
<text text-anchor="middle" x="1249.57" y="-260.5" font-family="Helvetica,sans-Serif" font-size="10.00">&#45;system.cpp</text>
</a>
</g>
</g>
<!-- Node3&#45;&gt;Node26 -->
<g id="edge36_Node000003_Node000026" class="edge">
<title>Node3&#45;&gt;Node26</title>
<g id="a_edge36_Node000003_Node000026"><a xlink:title=" ">
<path fill="none" stroke="#63b8ff" d="M1052.48,-329.23C1086.32,-320.26 1133.87,-307.64 1175.57,-296.5 1178.39,-295.74 1181.28,-294.97 1184.2,-294.19"/>
<polygon fill="#63b8ff" stroke="#63b8ff" points="1051.77,-326.06 1043,-332.01 1053.56,-332.83 1051.77,-326.06"/>
</a>
</g>
</g>
<!-- Node27 -->
<g id="Node000027" class="node">
<title>Node27</title>
<g id="a_Node000027"><a xlink:href="../../d1/d62/opaque-render-system_8cpp.html" target="_top" xlink:title=" ">
<polygon fill="white" stroke="#666666" points="801.19,-290.88 641.94,-290.88 641.94,-260.38 801.19,-260.38 801.19,-290.88"/>
<text text-anchor="start" x="649.94" y="-277.38" font-family="Helvetica,sans-Serif" font-size="10.00">engine/subsystems/render</text>
<text text-anchor="middle" x="721.57" y="-266.12" font-family="Helvetica,sans-Serif" font-size="10.00">/detail/opaque&#45;render&#45;system.cpp</text>
</a>
</g>
</g>
<!-- Node3&#45;&gt;Node27 -->
<g id="edge37_Node000003_Node000027" class="edge">
<title>Node3&#45;&gt;Node27</title>
<g id="a_edge37_Node000003_Node000027"><a xlink:title=" ">
<path fill="none" stroke="#63b8ff" d="M956.56,-329.62C909.15,-318.93 838.3,-302.95 786.79,-291.34"/>
<polygon fill="#63b8ff" stroke="#63b8ff" points="955.67,-333.23 966.19,-332.02 957.21,-326.41 955.67,-333.23"/>
</a>
</g>
</g>
<!-- Node5 -->
<g id="Node000005" class="node">
<title>Node5</title>
<g id="a_Node000005"><a xlink:href="../../d0/d86/camera-movement_8hpp.html" target="_top" xlink:title=" ">
<polygon fill="white" stroke="#666666" points="1134.32,-85.75 978.82,-85.75 978.82,-66.5 1134.32,-66.5 1134.32,-85.75"/>
<text text-anchor="middle" x="1056.57" y="-72.25" font-family="Helvetica,sans-Serif" font-size="10.00">d3d_test/camera&#45;movement.hpp</text>
</a>
</g>
</g>
<!-- Node4&#45;&gt;Node5 -->
<g id="edge4_Node000004_Node000005" class="edge">
<title>Node4&#45;&gt;Node5</title>
<g id="a_edge4_Node000004_Node000005"><a xlink:title=" ">
<path fill="none" stroke="#63b8ff" d="M916.67,-134.16C950.93,-120.19 1004.3,-98.43 1034.24,-86.23"/>
<polygon fill="#63b8ff" stroke="#63b8ff" points="915.64,-131.21 907.7,-138.23 918.28,-137.69 915.64,-131.21"/>
</a>
</g>
</g>
<!-- Node7 -->
<g id="Node000007" class="node">
<title>Node7</title>
<g id="a_Node000007"><a xlink:href="../../dc/dfb/controller_8hpp.html" target="_top" xlink:title=" ">
<polygon fill="white" stroke="#666666" points="282.69,-85.75 168.44,-85.75 168.44,-66.5 282.69,-66.5 282.69,-85.75"/>
<text text-anchor="middle" x="225.57" y="-72.25" font-family="Helvetica,sans-Serif" font-size="10.00">d3d_test/controller.hpp</text>
</a>
</g>
</g>
<!-- Node4&#45;&gt;Node7 -->
<g id="edge7_Node000004_Node000007" class="edge">
<title>Node4&#45;&gt;Node7</title>
<g id="a_edge7_Node000004_Node000007"><a xlink:title=" ">
<path fill="none" stroke="#63b8ff" d="M815.53,-145.54C705.1,-141.87 482.24,-130.61 296.57,-97 282.08,-94.38 266.28,-90.1 253.27,-86.18"/>
<polygon fill="#63b8ff" stroke="#63b8ff" points="815.4,-149.07 825.5,-145.89 815.62,-142.07 815.4,-149.07"/>
</a>
</g>
</g>
<!-- Node8 -->
<g id="Node000008" class="node">
<title>Node8</title>
<g id="a_Node000008"><a xlink:href="../../d9/d0f/main_8cc.html" target="_top" xlink:title=" ">
<polygon fill="white" stroke="#666666" points="270.69,-19.25 180.44,-19.25 180.44,0 270.69,0 270.69,-19.25"/>
<text text-anchor="middle" x="225.57" y="-5.75" font-family="Helvetica,sans-Serif" font-size="10.00">d3d_test/main.cc</text>
</a>
</g>
</g>
<!-- Node4&#45;&gt;Node8 -->
<g id="edge10_Node000004_Node000008" class="edge">
<title>Node4&#45;&gt;Node8</title>
<g id="a_edge10_Node000004_Node000008"><a xlink:title=" ">
<path fill="none" stroke="#63b8ff" d="M815.53,-144.36C694.43,-138.66 448.87,-124.1 367.57,-97 340.05,-87.83 268.2,-39.81 238.6,-19.6"/>
<polygon fill="#63b8ff" stroke="#63b8ff" points="815.34,-147.9 825.5,-144.87 815.67,-140.91 815.34,-147.9"/>
</a>
</g>
</g>
<!-- Node9 -->
<g id="Node000009" class="node">
<title>Node9</title>
<g id="a_Node000009"><a xlink:href="../../da/df5/object-editor_8hpp.html" target="_top" xlink:title=" ">
<polygon fill="white" stroke="#666666" points="1444.44,-85.75 1316.69,-85.75 1316.69,-66.5 1444.44,-66.5 1444.44,-85.75"/>
<text text-anchor="middle" x="1380.57" y="-72.25" font-family="Helvetica,sans-Serif" font-size="10.00">d3d_test/object&#45;editor.hpp</text>
</a>
</g>
</g>
<!-- Node4&#45;&gt;Node9 -->
<g id="edge11_Node000004_Node000009" class="edge">
<title>Node4&#45;&gt;Node9</title>
<g id="a_edge11_Node000004_Node000009"><a xlink:title=" ">
<path fill="none" stroke="#63b8ff" d="M950.01,-136.5C958.26,-135.26 966.61,-134.06 974.57,-133 1122.13,-113.35 1161.29,-124.64 1307.57,-97 1322.15,-94.24 1338.08,-90.05 1351.33,-86.22"/>
<polygon fill="#63b8ff" stroke="#63b8ff" points="949.59,-133.18 940.24,-138.15 950.65,-140.1 949.59,-133.18"/>
</a>
</g>
</g>
<!-- Node12 -->
<g id="Node000012" class="node">
<title>Node12</title>
<g id="a_Node000012"><a xlink:href="../../d9/d55/scene-viewer_8hpp.html" target="_top" xlink:title=" ">
<polygon fill="white" stroke="#666666" points="642.69,-85.75 510.44,-85.75 510.44,-66.5 642.69,-66.5 642.69,-85.75"/>
<text text-anchor="middle" x="576.57" y="-72.25" font-family="Helvetica,sans-Serif" font-size="10.00">d3d_test/scene&#45;viewer.hpp</text>
</a>
</g>
</g>
<!-- Node4&#45;&gt;Node12 -->
<g id="edge15_Node000004_Node000012" class="edge">
<title>Node4&#45;&gt;Node12</title>
<g id="a_edge15_Node000004_Node000012"><a xlink:title=" ">
<path fill="none" stroke="#63b8ff" d="M828.69,-135.96C781.38,-126.22 711.85,-111.48 651.57,-97 637.68,-93.67 622.44,-89.68 609.34,-86.16"/>
<polygon fill="#63b8ff" stroke="#63b8ff" points="827.82,-139.56 838.32,-138.14 829.23,-132.71 827.82,-139.56"/>
</a>
</g>
</g>
<!-- Node13 -->
<g id="Node000013" class="node">
<title>Node13</title>
<g id="a_Node000013"><a xlink:href="../../da/d5c/engine_8cpp.html" target="_top" xlink:title=" ">
<polygon fill="white" stroke="#666666" points="492.44,-85.75 376.69,-85.75 376.69,-66.5 492.44,-66.5 492.44,-85.75"/>
<text text-anchor="middle" x="434.57" y="-72.25" font-family="Helvetica,sans-Serif" font-size="10.00">engine/core/engine.cpp</text>
</a>
</g>
</g>
<!-- Node4&#45;&gt;Node13 -->
<g id="edge17_Node000004_Node000013" class="edge">
<title>Node4&#45;&gt;Node13</title>
<g id="a_edge17_Node000004_Node000013"><a xlink:title=" ">
<path fill="none" stroke="#63b8ff" d="M815.8,-141.53C738.71,-134.35 610.26,-120.1 501.57,-97 488.27,-94.18 473.79,-90.02 461.7,-86.23"/>
<polygon fill="#63b8ff" stroke="#63b8ff" points="815.05,-145.07 825.33,-142.49 815.69,-138.09 815.05,-145.07"/>
</a>
</g>
</g>
<!-- Node14 -->
<g id="Node000014" class="node">
<title>Node14</title>
<g id="a_Node000014"><a xlink:href="../../d1/da2/deferred-hdr-render-pipeline_8cpp.html" target="_top" xlink:title=" ">
<polygon fill="white" stroke="#666666" points="149.94,-91.38 19.19,-91.38 19.19,-60.88 149.94,-60.88 149.94,-91.38"/>
<text text-anchor="start" x="27.19" y="-77.88" font-family="Helvetica,sans-Serif" font-size="10.00">engine/direct3d11/deferred</text>
<text text-anchor="middle" x="84.57" y="-66.62" font-family="Helvetica,sans-Serif" font-size="10.00">&#45;hdr&#45;render&#45;pipeline.cpp</text>
</a>
</g>
</g>
<!-- Node4&#45;&gt;Node14 -->
<g id="edge18_Node000004_Node000014" class="edge">
<title>Node4&#45;&gt;Node14</title>
<g id="a_edge18_Node000004_Node000014"><a xlink:title=" ">
<path fill="none" stroke="#63b8ff" d="M815.41,-146.81C685.86,-145.03 398.14,-136.51 159.57,-97 151.46,-95.66 142.96,-93.83 134.71,-91.82"/>
<polygon fill="#63b8ff" stroke="#63b8ff" points="815.29,-150.32 825.33,-146.95 815.38,-143.32 815.29,-150.32"/>
</a>
</g>
</g>
<!-- Node4&#45;&gt;Node15 -->
<g id="edge19_Node000004_Node000015" class="edge">
<title>Node4&#45;&gt;Node15</title>
<g id="a_edge19_Node000004_Node000015"><a xlink:title=" ">
<path fill="none" stroke="#63b8ff" d="M953.86,-144.76C1130.86,-138.16 1596.44,-119.18 1749.57,-97 1758.71,-95.67 1768.33,-93.85 1777.67,-91.85"/>
<polygon fill="#63b8ff" stroke="#63b8ff" points="953.74,-141.3 943.87,-145.17 954,-148.3 953.74,-141.3"/>
</a>
</g>
</g>
<!-- Node4&#45;&gt;Node16 -->
<g id="edge20_Node000004_Node000016" class="edge">
<title>Node4&#45;&gt;Node16</title>
<g id="a_edge20_Node000004_Node000016"><a xlink:title=" ">
<path fill="none" stroke="#63b8ff" d="M948.03,-136.53C956.92,-135.23 965.96,-134 974.57,-133 1186.62,-108.29 1243.11,-132.85 1453.57,-97 1456.45,-96.51 1459.39,-95.95 1462.34,-95.35"/>
<polygon fill="#63b8ff" stroke="#63b8ff" points="947.65,-133.2 938.29,-138.16 948.7,-140.12 947.65,-133.2"/>
</a>
</g>
</g>
<!-- Node17 -->
<g id="Node000017" class="node">
<title>Node17</title>
<g id="a_Node000017"><a xlink:href="../../d2/d11/emissive-particle-render-system_8cpp.html" target="_top" xlink:title=" ">
<polygon fill="white" stroke="#666666" points="790.57,-97 660.57,-97 660.57,-55.25 790.57,-55.25 790.57,-97"/>
<text text-anchor="start" x="668.57" y="-83.5" font-family="Helvetica,sans-Serif" font-size="10.00">engine/subsystems/render</text>
<text text-anchor="start" x="668.57" y="-72.25" font-family="Helvetica,sans-Serif" font-size="10.00">/detail/emissive&#45;particle</text>
<text text-anchor="middle" x="725.57" y="-61" font-family="Helvetica,sans-Serif" font-size="10.00">&#45;render&#45;system.cpp</text>
</a>
</g>
</g>
<!-- Node4&#45;&gt;Node17 -->
<g id="edge21_Node000004_Node000017" class="edge">
<title>Node4&#45;&gt;Node17</title>
<g id="a_edge21_Node000004_Node000017"><a xlink:title=" ">
<path fill="none" stroke="#63b8ff" d="M854.09,-133.81C830.75,-123.51 798.17,-109.14 771.65,-97.45"/>
<polygon fill="#63b8ff" stroke="#63b8ff" points="852.54,-137.39 863.1,-138.23 855.37,-130.99 852.54,-137.39"/>
</a>
</g>
</g>
<!-- Node18 -->
<g id="Node000018" class="node">
<title>Node18</title>
<g id="a_Node000018"><a xlink:href="../../df/d58/grass-render-system_8cpp.html" target="_top" xlink:title=" ">
<polygon fill="white" stroke="#666666" points="960.44,-91.38 808.69,-91.38 808.69,-60.88 960.44,-60.88 960.44,-91.38"/>
<text text-anchor="start" x="816.69" y="-77.88" font-family="Helvetica,sans-Serif" font-size="10.00">engine/subsystems/render</text>
<text text-anchor="middle" x="884.57" y="-66.62" font-family="Helvetica,sans-Serif" font-size="10.00">/detail/grass&#45;render&#45;system.cpp</text>
</a>
</g>
</g>
<!-- Node4&#45;&gt;Node18 -->
<g id="edge22_Node000004_Node000018" class="edge">
<title>Node4&#45;&gt;Node18</title>
<g id="a_edge22_Node000004_Node000018"><a xlink:title=" ">
<path fill="none" stroke="#63b8ff" d="M884.57,-127.41C884.57,-116.08 884.57,-102.12 884.57,-91.79"/>
<polygon fill="#63b8ff" stroke="#63b8ff" points="881.07,-127.37 884.57,-137.37 888.07,-127.37 881.07,-127.37"/>
</a>
</g>
</g>
<!-- Node19 -->
<g id="Node000019" class="node">
<title>Node19</title>
<g id="a_Node000019"><a xlink:href="../../d8/d9c/light-render-system_8cpp.html" target="_top" xlink:title=" ">
<polygon fill="white" stroke="#666666" points="1298.44,-91.38 1152.69,-91.38 1152.69,-60.88 1298.44,-60.88 1298.44,-91.38"/>
<text text-anchor="start" x="1160.69" y="-77.88" font-family="Helvetica,sans-Serif" font-size="10.00">engine/subsystems/render</text>
<text text-anchor="middle" x="1225.57" y="-66.62" font-family="Helvetica,sans-Serif" font-size="10.00">/detail/light&#45;render&#45;system.cpp</text>
</a>
</g>
</g>
<!-- Node4&#45;&gt;Node19 -->
<g id="edge23_Node000004_Node000019" class="edge">
<title>Node4&#45;&gt;Node19</title>
<g id="a_edge23_Node000004_Node000019"><a xlink:title=" ">
<path fill="none" stroke="#63b8ff" d="M945.34,-136.28C997.93,-126.59 1075.95,-111.75 1143.57,-97 1151.01,-95.38 1158.81,-93.59 1166.52,-91.78"/>
<polygon fill="#63b8ff" stroke="#63b8ff" points="945.04,-132.96 935.84,-138.21 946.31,-139.84 945.04,-132.96"/>
</a>
</g>
</g>
<!-- Node4&#45;&gt;Node20 -->
<g id="edge24_Node000004_Node000020" class="edge">
<title>Node4&#45;&gt;Node20</title>
<g id="a_edge24_Node000004_Node000020"><a xlink:title=" ">
<path fill="none" stroke="#63b8ff" d="M953.53,-138.93C972.63,-136.8 993.39,-134.65 1012.57,-133 1273.86,-110.48 1342.72,-139.23 1601.57,-97 1604.45,-96.53 1607.39,-95.99 1610.35,-95.4"/>
<polygon fill="#63b8ff" stroke="#63b8ff" points="953.35,-135.55 943.81,-140.15 954.14,-142.5 953.35,-135.55"/>
</a>
</g>
</g>
<!-- Node5&#45;&gt;Node2 -->
<g id="edge6_Node000005_Node000002" class="edge">
<title>Node5&#45;&gt;Node2</title>
<g id="a_edge6_Node000005_Node000002"><a xlink:title=" ">
<path fill="none" stroke="#63b8ff" d="M1010.12,-63.51C997.06,-60.52 982.81,-57.51 969.57,-55.25 851.11,-35.06 710.95,-21.62 634.12,-15.14"/>
<polygon fill="#63b8ff" stroke="#63b8ff" points="1009.23,-67.13 1019.77,-66 1010.83,-60.31 1009.23,-67.13"/>
</a>
</g>
</g>
<!-- Node6 -->
<g id="Node000006" class="node">
<title>Node6</title>
<g id="a_Node000006"><a xlink:href="../../d5/dbb/camera-movement_8cpp.html" target="_top" xlink:title=" ">
<polygon fill="white" stroke="#666666" points="1134.32,-19.25 978.82,-19.25 978.82,0 1134.32,0 1134.32,-19.25"/>
<text text-anchor="middle" x="1056.57" y="-5.75" font-family="Helvetica,sans-Serif" font-size="10.00">d3d_test/camera&#45;movement.cpp</text>
</a>
</g>
</g>
<!-- Node5&#45;&gt;Node6 -->
<g id="edge5_Node000005_Node000006" class="edge">
<title>Node5&#45;&gt;Node6</title>
<g id="a_edge5_Node000005_Node000006"><a xlink:title=" ">
<path fill="none" stroke="#63b8ff" d="M1056.57,-55.4C1056.57,-43.43 1056.57,-28.73 1056.57,-19.52"/>
<polygon fill="#63b8ff" stroke="#63b8ff" points="1053.07,-55.16 1056.57,-65.16 1060.07,-55.16 1053.07,-55.16"/>
</a>
</g>
</g>
<!-- Node7&#45;&gt;Node2 -->
<g id="edge8_Node000007_Node000002" class="edge">
<title>Node7&#45;&gt;Node2</title>
<g id="a_edge8_Node000007_Node000002"><a xlink:title=" ">
<path fill="none" stroke="#63b8ff" d="M285.67,-64.08C353.79,-51.56 463.56,-31.39 526.99,-19.74"/>
<polygon fill="#63b8ff" stroke="#63b8ff" points="285.31,-60.77 276.11,-66.02 286.58,-67.66 285.31,-60.77"/>
</a>
</g>
</g>
<!-- Node7&#45;&gt;Node8 -->
<g id="edge9_Node000007_Node000008" class="edge">
<title>Node7&#45;&gt;Node8</title>
<g id="a_edge9_Node000007_Node000008"><a xlink:title=" ">
<path fill="none" stroke="#63b8ff" d="M225.57,-55.4C225.57,-43.43 225.57,-28.73 225.57,-19.52"/>
<polygon fill="#63b8ff" stroke="#63b8ff" points="222.07,-55.16 225.57,-65.16 229.07,-55.16 222.07,-55.16"/>
</a>
</g>
</g>
<!-- Node9&#45;&gt;Node2 -->
<g id="edge12_Node000009_Node000002" class="edge">
<title>Node9&#45;&gt;Node2</title>
<g id="a_edge12_Node000009_Node000002"><a xlink:title=" ">
<path fill="none" stroke="#63b8ff" d="M1341.87,-63.01C1330.88,-60 1318.84,-57.11 1307.57,-55.25 1059.17,-14.3 757.72,-10 633.88,-10.15"/>
<polygon fill="#63b8ff" stroke="#63b8ff" points="1340.86,-66.64 1351.44,-66.02 1342.78,-59.91 1340.86,-66.64"/>
</a>
</g>
</g>
<!-- Node10 -->
<g id="Node000010" class="node">
<title>Node10</title>
<g id="a_Node000010"><a xlink:href="../../d4/d94/object-editor_8cpp.html" target="_top" xlink:title=" ">
<polygon fill="white" stroke="#666666" points="1370.44,-19.25 1242.69,-19.25 1242.69,0 1370.44,0 1370.44,-19.25"/>
<text text-anchor="middle" x="1306.57" y="-5.75" font-family="Helvetica,sans-Serif" font-size="10.00">d3d_test/object&#45;editor.cpp</text>
</a>
</g>
</g>
<!-- Node9&#45;&gt;Node10 -->
<g id="edge13_Node000009_Node000010" class="edge">
<title>Node9&#45;&gt;Node10</title>
<g id="a_edge13_Node000009_Node000010"><a xlink:title=" ">
<path fill="none" stroke="#63b8ff" d="M1362.11,-59.04C1347.78,-46.55 1328.44,-29.69 1316.77,-19.52"/>
<polygon fill="#63b8ff" stroke="#63b8ff" points="1359.44,-62.22 1369.28,-66.16 1364.04,-56.95 1359.44,-62.22"/>
</a>
</g>
</g>
<!-- Node11 -->
<g id="Node000011" class="node">
<title>Node11</title>
<g id="a_Node000011"><a xlink:href="../../d0/d38/scene-viewer_8cpp.html" target="_top" xlink:title=" ">
<polygon fill="white" stroke="#666666" points="1520.69,-19.25 1388.44,-19.25 1388.44,0 1520.69,0 1520.69,-19.25"/>
<text text-anchor="middle" x="1454.57" y="-5.75" font-family="Helvetica,sans-Serif" font-size="10.00">d3d_test/scene&#45;viewer.cpp</text>
</a>
</g>
</g>
<!-- Node9&#45;&gt;Node11 -->
<g id="edge14_Node000009_Node000011" class="edge">
<title>Node9&#45;&gt;Node11</title>
<g id="a_edge14_Node000009_Node000011"><a xlink:title=" ">
<path fill="none" stroke="#63b8ff" d="M1399.02,-59.04C1413.35,-46.55 1432.69,-29.69 1444.36,-19.52"/>
<polygon fill="#63b8ff" stroke="#63b8ff" points="1397.09,-56.95 1391.85,-66.16 1401.69,-62.22 1397.09,-56.95"/>
</a>
</g>
</g>
<!-- Node12&#45;&gt;Node2 -->
<g id="edge16_Node000012_Node000002" class="edge">
<title>Node12&#45;&gt;Node2</title>
<g id="a_edge16_Node000012_Node000002"><a xlink:title=" ">
<path fill="none" stroke="#63b8ff" d="M576.57,-55.4C576.57,-43.43 576.57,-28.73 576.57,-19.52"/>
<polygon fill="#63b8ff" stroke="#63b8ff" points="573.07,-55.16 576.57,-65.16 580.07,-55.16 573.07,-55.16"/>
</a>
</g>
</g>
<!-- Node22 -->
<g id="Node000022" class="node">
<title>Node22</title>
<g id="a_Node000022"><a xlink:href="../../d4/d87/layers_8hpp.html" target="_top" xlink:title=" ">
<polygon fill="white" stroke="#666666" points="922.94,-218.75 810.19,-218.75 810.19,-199.5 922.94,-199.5 922.94,-218.75"/>
<text text-anchor="middle" x="866.57" y="-205.25" font-family="Helvetica,sans-Serif" font-size="10.00">engine/core/layers.hpp</text>
</a>
</g>
</g>
<!-- Node21&#45;&gt;Node22 -->
<g id="edge26_Node000021_Node000022" class="edge">
<title>Node21&#45;&gt;Node22</title>
<g id="a_edge26_Node000021_Node000022"><a xlink:title=" ">
<path fill="none" stroke="#63b8ff" d="M868.38,-249.05C867.88,-238.39 867.34,-226.7 866.98,-218.95"/>
<polygon fill="#63b8ff" stroke="#63b8ff" points="864.92,-249.16 868.88,-258.99 871.92,-248.84 864.92,-249.16"/>
</a>
</g>
</g>
<!-- Node21&#45;&gt;Node23 -->
<g id="edge28_Node000021_Node000023" class="edge">
<title>Node21&#45;&gt;Node23</title>
<g id="a_edge28_Node000021_Node000023"><a xlink:title=" ">
<path fill="none" stroke="#63b8ff" d="M818.09,-256.8C815.56,-256.07 813.04,-255.39 810.57,-254.75 624.66,-206.95 400.08,-172.92 291.16,-157.88"/>
<polygon fill="#63b8ff" stroke="#63b8ff" points="816.95,-260.41 827.53,-259.95 818.97,-253.71 816.95,-260.41"/>
</a>
</g>
</g>
<!-- Node22&#45;&gt;Node4 -->
<g id="edge27_Node000022_Node000004" class="edge">
<title>Node22&#45;&gt;Node4</title>
<g id="a_edge27_Node000022_Node000004"><a xlink:title=" ">
<path fill="none" stroke="#63b8ff" d="M872.5,-188.7C875.64,-178.44 879.34,-166.34 881.81,-158.28"/>
<polygon fill="#63b8ff" stroke="#63b8ff" points="868.88,-187.6 869.3,-198.18 875.57,-189.64 868.88,-187.6"/>
</a>
</g>
</g>
<!-- Node23&#45;&gt;Node7 -->
<g id="edge29_Node000023_Node000007" class="edge">
<title>Node23&#45;&gt;Node7</title>
<g id="a_edge29_Node000023_Node000007"><a xlink:title=" ">
<path fill="none" stroke="#63b8ff" d="M225.57,-121.87C225.57,-109.27 225.57,-94.87 225.57,-85.88"/>
<polygon fill="#63b8ff" stroke="#63b8ff" points="222.07,-121.72 225.57,-131.72 229.07,-121.72 222.07,-121.72"/>
</a>
</g>
</g>
<!-- Node23&#45;&gt;Node8 -->
<g id="edge30_Node000023_Node000008" class="edge">
<title>Node23&#45;&gt;Node8</title>
<g id="a_edge30_Node000023_Node000008"><a xlink:title=" ">
<path fill="none" stroke="#63b8ff" d="M149.01,-140.55C71.28,-130.74 -32.02,-107.58 10.57,-55.25 31.5,-29.53 123.3,-18.15 179.96,-13.51"/>
<polygon fill="#63b8ff" stroke="#63b8ff" points="148.45,-144.13 158.8,-141.85 149.28,-137.18 148.45,-144.13"/>
</a>
</g>
</g>
<!-- Node23&#45;&gt;Node14 -->
<g id="edge31_Node000023_Node000014" class="edge">
<title>Node23&#45;&gt;Node14</title>
<g id="a_edge31_Node000023_Node000014"><a xlink:title=" ">
<path fill="none" stroke="#63b8ff" d="M186.26,-127.7C163.39,-116.33 135.04,-102.23 114.08,-91.81"/>
<polygon fill="#63b8ff" stroke="#63b8ff" points="184.49,-131.23 195.01,-132.55 187.61,-124.96 184.49,-131.23"/>
</a>
</g>
</g>
</g>
</svg>

<g id="navigator" transform="translate(0 0)" fill="#404254">
  <rect fill="#f2f5e9" fill-opacity="0.5" stroke="#606060" stroke-width=".5" x="0" y="0" width="60" height="60"/>
  <use id="zoomplus" xlink:href="#zoomPlus" x="17" y="9" onmousedown="handleZoom(evt,'in')"/>
  <use id="zoomminus" xlink:href="#zoomMin" x="42" y="9" onmousedown="handleZoom(evt,'out')"/>
  <use id="reset" xlink:href="#resetDef" x="30" y="36" onmousedown="handleReset()"/>
   <use id="arrowup" xlink:href="#arrowUp" x="0" y="0" onmousedown="handlePan(0,-1)"/>
  <use id="arrowright" xlink:href="#arrowRight" x="0" y="0" onmousedown="handlePan(1,0)"/>
  <use id="arrowdown" xlink:href="#arrowDown" x="0" y="0" onmousedown="handlePan(0,1)"/>
  <use id="arrowleft" xlink:href="#arrowLeft" x="0" y="0" onmousedown="handlePan(-1,0)"/>
</g>
<svg viewBox="0 0 15 15" width="100%" height="30px" preserveAspectRatio="xMaxYMin meet">
 <g id="arrow_out" transform="scale(0.3 0.3)">
  <a xlink:href="renderer_8hpp__dep__incl_org.svg" target="_base">
   <rect id="button" ry="5" rx="5" y="6" x="6" height="38" width="38"
        fill="#f2f5e9" fill-opacity="0.5" stroke="#606060" stroke-width="1.0"/>
   <path id="arrow"
     d="M 11.500037,31.436501 C 11.940474,20.09759 22.043105,11.32322 32.158766,21.979434 L 37.068811,17.246167 C 37.068811,17.246167 37.088388,32 37.088388,32 L 22.160133,31.978069 C 22.160133,31.978069 26.997745,27.140456 26.997745,27.140456 C 18.528582,18.264221 13.291696,25.230495 11.500037,31.436501 z"
     style="fill:#404040;"/>
  </a>
 </g>
</svg>

<style type='text/css'>
<![CDATA[
[data-mouse-over-selected='false'] { opacity: 0.7; }
[data-mouse-over-selected='true']  { opacity: 1.0; }
]]>
</style>
<script type="application/ecmascript"><![CDATA[
document.addEventListener('DOMContentLoaded', (event) => {
  highlightEdges();
  highlightAdjacentNodes();
});
]]></script>
</svg>
