<?xml version="1.0" encoding="UTF-8" standalone="no"?>
<!DOCTYPE svg PUBLIC "-//W3C//DTD SVG 1.1//EN"
 "http://www.w3.org/Graphics/SVG/1.1/DTD/svg11.dtd">
<!-- Generated by graphviz version 8.1.0 (20230707.0739)
 -->
<!-- Title: engine::core::TextureManager Pages: 1 -->
<svg width="794pt" height="169pt"
 viewBox="0.00 0.00 794.25 168.75" xmlns="http://www.w3.org/2000/svg" xmlns:xlink="http://www.w3.org/1999/xlink">
<g id="graph0" class="graph" transform="scale(1 1) rotate(0) translate(4 164.75)">
<title>engine::core::TextureManager</title>
<!-- Node1 -->
<g id="Node000001" class="node">
<title>Node1</title>
<g id="a_Node000001"><a xlink:title=" ">
<polygon fill="#999999" stroke="#666666" points="584.25,-78.88 442.25,-78.88 442.25,-59.62 584.25,-59.62 584.25,-78.88"/>
<text text-anchor="middle" x="513.25" y="-65.38" font-family="Helvetica,sans-Serif" font-size="10.00">engine::core::TextureManager</text>
</a>
</g>
</g>
<!-- Node2 -->
<g id="Node000002" class="node">
<title>Node2</title>
<g id="a_Node000002"><a xlink:title=" ">
<polygon fill="white" stroke="#666666" points="786.25,-84.5 664.5,-84.5 664.5,-54 786.25,-54 786.25,-84.5"/>
<text text-anchor="start" x="672.5" y="-71" font-family="Helvetica,sans-Serif" font-size="10.00">std::unique_ptr&lt; engine</text>
<text text-anchor="middle" x="725.38" y="-59.75" font-family="Helvetica,sans-Serif" font-size="10.00">::core::TextureManager &gt;</text>
</a>
</g>
</g>
<!-- Node1&#45;&gt;Node2 -->
<g id="edge2_Node000002_Node000001" class="edge">
<title>Node1&#45;&gt;Node2</title>
<g id="a_edge2_Node000002_Node000001"><a xlink:title=" ">
<path fill="none" stroke="#9a32cd" stroke-dasharray="5,2" d="M595.24,-69.25C618.11,-69.25 642.59,-69.25 664.03,-69.25"/>
<polygon fill="#9a32cd" stroke="#9a32cd" points="595.51,-65.75 585.51,-69.25 595.51,-72.75 595.51,-65.75"/>
</a>
</g>
<text text-anchor="middle" x="624.38" y="-71" font-family="Helvetica,sans-Serif" font-size="10.00" fill="grey"> ptr</text>
</g>
<!-- Node2&#45;&gt;Node1 -->
<g id="edge1_Node000001_Node000002" class="edge">
<title>Node2&#45;&gt;Node1</title>
<g id="a_edge1_Node000001_Node000002"><a xlink:title=" ">
<path fill="none" stroke="#9a32cd" stroke-dasharray="5,2" d="M653.34,-53.8C651.04,-53.5 648.75,-53.23 646.5,-53 616.47,-49.9 582.69,-54.18 556.79,-59.13"/>
<polygon fill="#9a32cd" stroke="#9a32cd" points="652.79,-57.41 663.2,-55.42 653.82,-50.48 652.79,-57.41"/>
</a>
</g>
<text text-anchor="middle" x="624.38" y="-55" font-family="Helvetica,sans-Serif" font-size="10.00" fill="grey"> instance_</text>
</g>
<!-- Node3 -->
<g id="Node000003" class="node">
<title>Node3</title>
<g id="a_Node000003"><a xlink:title=" ">
<polygon fill="white" stroke="#666666" points="324.88,-160.75 206.88,-160.75 206.88,-107.75 324.88,-107.75 324.88,-160.75"/>
<text text-anchor="start" x="214.88" y="-147.25" font-family="Helvetica,sans-Serif" font-size="10.00">std::unordered_map</text>
<text text-anchor="start" x="214.88" y="-136" font-family="Helvetica,sans-Serif" font-size="10.00">&lt; TextureId, engine</text>
<text text-anchor="start" x="214.88" y="-124.75" font-family="Helvetica,sans-Serif" font-size="10.00">::direct3d::d3d_resource</text>
<text text-anchor="middle" x="265.88" y="-113.5" font-family="Helvetica,sans-Serif" font-size="10.00">_wrapper &gt;</text>
</a>
</g>
</g>
<!-- Node3&#45;&gt;Node1 -->
<g id="edge3_Node000001_Node000003" class="edge">
<title>Node3&#45;&gt;Node1</title>
<g id="a_edge3_Node000001_Node000003"><a xlink:title=" ">
<path fill="none" stroke="#9a32cd" stroke-dasharray="5,2" d="M335.86,-115.98C380.61,-104.12 437.26,-89.12 474.1,-79.36"/>
<polygon fill="#9a32cd" stroke="#9a32cd" points="335.11,-112.82 326.34,-118.76 336.9,-119.59 335.11,-112.82"/>
</a>
</g>
<text text-anchor="middle" x="387.5" y="-114" font-family="Helvetica,sans-Serif" font-size="10.00" fill="grey"> textures_</text>
</g>
<!-- Node4 -->
<g id="Node000004" class="node">
<title>Node4</title>
<g id="a_Node000004"><a xlink:href="../../df/d47/classengine_1_1direct3d_1_1d3d__resource__wrapper.html" target="_top" xlink:title="The d3d resource wrapper class.">
<polygon fill="white" stroke="#666666" points="121,-149.5 0,-149.5 0,-119 121,-119 121,-149.5"/>
<text text-anchor="start" x="8" y="-136" font-family="Helvetica,sans-Serif" font-size="10.00">engine::direct3d::d3d</text>
<text text-anchor="middle" x="60.5" y="-124.75" font-family="Helvetica,sans-Serif" font-size="10.00">_resource_wrapper&lt; T &gt;</text>
</a>
</g>
</g>
<!-- Node4&#45;&gt;Node3 -->
<g id="edge4_Node000003_Node000004" class="edge">
<title>Node4&#45;&gt;Node3</title>
<g id="a_edge4_Node000003_Node000004"><a xlink:title=" ">
<path fill="none" stroke="#9a32cd" stroke-dasharray="5,2" d="M132.34,-134.25C156.54,-134.25 183.32,-134.25 206.43,-134.25"/>
<polygon fill="#9a32cd" stroke="#9a32cd" points="132.42,-130.75 122.42,-134.25 132.42,-137.75 132.42,-130.75"/>
</a>
</g>
<text text-anchor="middle" x="160" y="-136" font-family="Helvetica,sans-Serif" font-size="10.00" fill="grey"> elements</text>
</g>
<!-- Node5 -->
<g id="Node000005" class="node">
<title>Node5</title>
<g id="a_Node000005"><a xlink:title=" ">
<polygon fill="white" stroke="#666666" points="331.62,-90.12 200.12,-90.12 200.12,-48.38 331.62,-48.38 331.62,-90.12"/>
<text text-anchor="start" x="208.12" y="-76.62" font-family="Helvetica,sans-Serif" font-size="10.00">std::unordered_map</text>
<text text-anchor="start" x="208.12" y="-65.38" font-family="Helvetica,sans-Serif" font-size="10.00">&lt; TextureId, std::filesystem</text>
<text text-anchor="middle" x="265.88" y="-54.12" font-family="Helvetica,sans-Serif" font-size="10.00">::path &gt;</text>
</a>
</g>
</g>
<!-- Node5&#45;&gt;Node1 -->
<g id="edge5_Node000001_Node000005" class="edge">
<title>Node5&#45;&gt;Node1</title>
<g id="a_edge5_Node000001_Node000005"><a xlink:title=" ">
<path fill="none" stroke="#9a32cd" stroke-dasharray="5,2" d="M342.96,-69.25C374.6,-69.25 411.11,-69.25 442.1,-69.25"/>
<polygon fill="#9a32cd" stroke="#9a32cd" points="342.99,-65.75 332.99,-69.25 342.99,-72.75 342.99,-65.75"/>
</a>
</g>
<text text-anchor="middle" x="387.5" y="-71" font-family="Helvetica,sans-Serif" font-size="10.00" fill="grey"> texture_paths_</text>
</g>
<!-- Node6 -->
<g id="Node000006" class="node">
<title>Node6</title>
<g id="a_Node000006"><a xlink:title=" ">
<polygon fill="white" stroke="#666666" points="332.75,-30.5 199,-30.5 199,0 332.75,0 332.75,-30.5"/>
<text text-anchor="start" x="207" y="-17" font-family="Helvetica,sans-Serif" font-size="10.00">std::unordered_map</text>
<text text-anchor="middle" x="265.88" y="-5.75" font-family="Helvetica,sans-Serif" font-size="10.00">&lt; TextureHash, TextureId &gt;</text>
</a>
</g>
</g>
<!-- Node6&#45;&gt;Node1 -->
<g id="edge6_Node000001_Node000006" class="edge">
<title>Node6&#45;&gt;Node1</title>
<g id="a_edge6_Node000001_Node000006"><a xlink:title=" ">
<path fill="none" stroke="#9a32cd" stroke-dasharray="5,2" d="M343.54,-32.12C383.79,-40.98 431.77,-51.54 466.26,-59.13"/>
<polygon fill="#9a32cd" stroke="#9a32cd" points="344.47,-28.52 333.95,-29.79 342.97,-35.36 344.47,-28.52"/>
</a>
</g>
<text text-anchor="middle" x="387.5" y="-51" font-family="Helvetica,sans-Serif" font-size="10.00" fill="grey"> texture_hashes_</text>
</g>
</g>
</svg>
