<?xml version="1.0" encoding="UTF-8" standalone="no"?>
<!DOCTYPE svg PUBLIC "-//W3C//DTD SVG 1.1//EN"
 "http://www.w3.org/Graphics/SVG/1.1/DTD/svg11.dtd">
<!-- Generated by graphviz version 8.1.0 (20230707.0739)
 -->
<!-- Title: engine::components::Component Pages: 1 -->
<svg width="261pt" height="431pt"
 viewBox="0.00 0.00 260.50 430.50" xmlns="http://www.w3.org/2000/svg" xmlns:xlink="http://www.w3.org/1999/xlink">

<svg id="main" version="1.1" xmlns="http://www.w3.org/2000/svg" xmlns:xlink="http://www.w3.org/1999/xlink" xml:space="preserve" onload="init(evt)">
<style type="text/css"><![CDATA[
.node, .edge {opacity: 0.7;}
.node.selected, .edge.selected {opacity: 1;}
.edge:hover path { stroke: red; }
.edge:hover polygon { stroke: red; fill: red; }
]]></style>
<script type="application/ecmascript" xlink:href="../../svg.min.js"/>
<svg id="graph" class="graph">
<g id="graph0" class="graph" transform="scale(1 1) rotate(0) translate(4 426.5)">
<title>engine::components::Component</title>
<!-- Node1 -->
<g id="Node000001" class="node">
<title>Node1</title>
<g id="a_Node000001"><a xlink:title="Base class for all components.">
<polygon fill="#999999" stroke="#666666" points="102.25,-226.5 0,-226.5 0,-196 102.25,-196 102.25,-226.5"/>
<text text-anchor="start" x="8" y="-213" font-family="Helvetica,sans-Serif" font-size="10.00">engine::components</text>
<text text-anchor="middle" x="51.12" y="-201.75" font-family="Helvetica,sans-Serif" font-size="10.00">::Component</text>
</a>
</g>
</g>
<!-- Node2 -->
<g id="Node000002" class="node">
<title>Node2</title>
<g id="a_Node000002"><a xlink:href="../../d5/d0f/structengine_1_1components_1_1_camera_component.html" target="_top" xlink:title="Component that contains the camera of the object.">
<polygon fill="white" stroke="#666666" points="247.25,-422.5 143.5,-422.5 143.5,-392 247.25,-392 247.25,-422.5"/>
<text text-anchor="start" x="151.5" y="-409" font-family="Helvetica,sans-Serif" font-size="10.00">engine::components</text>
<text text-anchor="middle" x="195.38" y="-397.75" font-family="Helvetica,sans-Serif" font-size="10.00">::CameraComponent</text>
</a>
</g>
</g>
<!-- Node1&#45;&gt;Node2 -->
<g id="edge1_Node000001_Node000002" class="edge">
<title>Node1&#45;&gt;Node2</title>
<g id="a_edge1_Node000001_Node000002"><a xlink:title=" ">
<path fill="none" stroke="#63b8ff" d="M59.04,-236.94C70.12,-273.62 95.08,-341.09 138.25,-382.25 141.96,-385.78 146.24,-388.87 150.77,-391.55"/>
<polygon fill="#63b8ff" stroke="#63b8ff" points="62.2,-236.24 56.05,-227.61 55.47,-238.19 62.2,-236.24"/>
</a>
</g>
</g>
<!-- Node3 -->
<g id="Node000003" class="node">
<title>Node3</title>
<g id="a_Node000003"><a xlink:href="../../d8/d10/structengine_1_1components_1_1_collider.html" target="_top" xlink:title="Collider component.">
<polygon fill="white" stroke="#666666" points="246.5,-373.5 144.25,-373.5 144.25,-343 246.5,-343 246.5,-373.5"/>
<text text-anchor="start" x="152.25" y="-360" font-family="Helvetica,sans-Serif" font-size="10.00">engine::components</text>
<text text-anchor="middle" x="195.38" y="-348.75" font-family="Helvetica,sans-Serif" font-size="10.00">::Collider</text>
</a>
</g>
</g>
<!-- Node1&#45;&gt;Node3 -->
<g id="edge2_Node000001_Node000003" class="edge">
<title>Node1&#45;&gt;Node3</title>
<g id="a_edge2_Node000001_Node000003"><a xlink:title=" ">
<path fill="none" stroke="#63b8ff" d="M64.52,-236.28C78.99,-263.3 105.21,-306.11 138.25,-333.25 142.54,-336.77 147.4,-339.89 152.42,-342.63"/>
<polygon fill="#63b8ff" stroke="#63b8ff" points="67.29,-235.01 59.56,-227.76 61.08,-238.25 67.29,-235.01"/>
</a>
</g>
</g>
<!-- Node4 -->
<g id="Node000004" class="node">
<title>Node4</title>
<g id="a_Node000004"><a xlink:href="../../de/db2/structengine_1_1components_1_1_directional_light.html" target="_top" xlink:title="Directional light component.">
<polygon fill="white" stroke="#666666" points="246.5,-324.5 144.25,-324.5 144.25,-294 246.5,-294 246.5,-324.5"/>
<text text-anchor="start" x="152.25" y="-311" font-family="Helvetica,sans-Serif" font-size="10.00">engine::components</text>
<text text-anchor="middle" x="195.38" y="-299.75" font-family="Helvetica,sans-Serif" font-size="10.00">::DirectionalLight</text>
</a>
</g>
</g>
<!-- Node1&#45;&gt;Node4 -->
<g id="edge3_Node000001_Node000004" class="edge">
<title>Node1&#45;&gt;Node4</title>
<g id="a_edge3_Node000001_Node000004"><a xlink:title=" ">
<path fill="none" stroke="#63b8ff" d="M75.12,-233.9C91.7,-249.41 115.15,-269.73 138.25,-284.25 143.58,-287.6 149.43,-290.73 155.29,-293.57"/>
<polygon fill="#63b8ff" stroke="#63b8ff" points="78.22,-232.07 68.56,-227.72 73.4,-237.14 78.22,-232.07"/>
</a>
</g>
</g>
<!-- Node5 -->
<g id="Node000005" class="node">
<title>Node5</title>
<g id="a_Node000005"><a xlink:href="../../dc/d34/structengine_1_1components_1_1_force_field.html" target="_top" xlink:title="Force field type.">
<polygon fill="white" stroke="#666666" points="246.5,-275.5 144.25,-275.5 144.25,-245 246.5,-245 246.5,-275.5"/>
<text text-anchor="start" x="152.25" y="-262" font-family="Helvetica,sans-Serif" font-size="10.00">engine::components</text>
<text text-anchor="middle" x="195.38" y="-250.75" font-family="Helvetica,sans-Serif" font-size="10.00">::ForceField</text>
</a>
</g>
</g>
<!-- Node1&#45;&gt;Node5 -->
<g id="edge4_Node000001_Node000005" class="edge">
<title>Node1&#45;&gt;Node5</title>
<g id="a_edge4_Node000001_Node000005"><a xlink:title=" ">
<path fill="none" stroke="#63b8ff" d="M107.76,-230.41C121.39,-235.11 135.83,-240.08 148.92,-244.59"/>
<polygon fill="#63b8ff" stroke="#63b8ff" points="109.12,-226.84 98.52,-226.89 106.84,-233.45 109.12,-226.84"/>
</a>
</g>
</g>
<!-- Node6 -->
<g id="Node000006" class="node">
<title>Node6</title>
<g id="a_Node000006"><a xlink:href="../../d6/df1/structengine_1_1components_1_1_game_object.html" target="_top" xlink:title="Component that contains the name of the object and its tag.">
<polygon fill="white" stroke="#666666" points="246.5,-226.5 144.25,-226.5 144.25,-196 246.5,-196 246.5,-226.5"/>
<text text-anchor="start" x="152.25" y="-213" font-family="Helvetica,sans-Serif" font-size="10.00">engine::components</text>
<text text-anchor="middle" x="195.38" y="-201.75" font-family="Helvetica,sans-Serif" font-size="10.00">::GameObject</text>
</a>
</g>
</g>
<!-- Node1&#45;&gt;Node6 -->
<g id="edge5_Node000001_Node000006" class="edge">
<title>Node1&#45;&gt;Node6</title>
<g id="a_edge5_Node000001_Node000006"><a xlink:title=" ">
<path fill="none" stroke="#63b8ff" d="M113.55,-211.25C123.71,-211.25 134.14,-211.25 143.99,-211.25"/>
<polygon fill="#63b8ff" stroke="#63b8ff" points="113.68,-207.75 103.68,-211.25 113.68,-214.75 113.68,-207.75"/>
</a>
</g>
</g>
<!-- Node7 -->
<g id="Node000007" class="node">
<title>Node7</title>
<g id="a_Node000007"><a xlink:href="../../d1/dd4/structengine_1_1components_1_1_particle_emitter.html" target="_top" xlink:title="Particle emitter component.">
<polygon fill="white" stroke="#666666" points="246.5,-177.5 144.25,-177.5 144.25,-147 246.5,-147 246.5,-177.5"/>
<text text-anchor="start" x="152.25" y="-164" font-family="Helvetica,sans-Serif" font-size="10.00">engine::components</text>
<text text-anchor="middle" x="195.38" y="-152.75" font-family="Helvetica,sans-Serif" font-size="10.00">::ParticleEmitter</text>
</a>
</g>
</g>
<!-- Node1&#45;&gt;Node7 -->
<g id="edge6_Node000001_Node000007" class="edge">
<title>Node1&#45;&gt;Node7</title>
<g id="a_edge6_Node000001_Node000007"><a xlink:title=" ">
<path fill="none" stroke="#63b8ff" d="M107.76,-192.09C121.39,-187.39 135.83,-182.42 148.92,-177.91"/>
<polygon fill="#63b8ff" stroke="#63b8ff" points="106.84,-189.05 98.52,-195.61 109.12,-195.66 106.84,-189.05"/>
</a>
</g>
</g>
<!-- Node8 -->
<g id="Node000008" class="node">
<title>Node8</title>
<g id="a_Node000008"><a xlink:href="../../d0/d04/structengine_1_1components_1_1_point_light.html" target="_top" xlink:title="Point light component TODO: Add these features:">
<polygon fill="white" stroke="#666666" points="246.5,-128.5 144.25,-128.5 144.25,-98 246.5,-98 246.5,-128.5"/>
<text text-anchor="start" x="152.25" y="-115" font-family="Helvetica,sans-Serif" font-size="10.00">engine::components</text>
<text text-anchor="middle" x="195.38" y="-103.75" font-family="Helvetica,sans-Serif" font-size="10.00">::PointLight</text>
</a>
</g>
</g>
<!-- Node1&#45;&gt;Node8 -->
<g id="edge7_Node000001_Node000008" class="edge">
<title>Node1&#45;&gt;Node8</title>
<g id="a_edge7_Node000001_Node000008"><a xlink:title=" ">
<path fill="none" stroke="#63b8ff" d="M75.12,-188.6C91.7,-173.09 115.15,-152.77 138.25,-138.25 143.58,-134.9 149.43,-131.77 155.29,-128.93"/>
<polygon fill="#63b8ff" stroke="#63b8ff" points="73.4,-185.36 68.56,-194.78 78.22,-190.43 73.4,-185.36"/>
</a>
</g>
</g>
<!-- Node9 -->
<g id="Node000009" class="node">
<title>Node9</title>
<g id="a_Node000009"><a xlink:href="../../d9/dfc/structengine_1_1components_1_1_spot_light.html" target="_top" xlink:title="Spot light component.">
<polygon fill="white" stroke="#666666" points="246.5,-79.5 144.25,-79.5 144.25,-49 246.5,-49 246.5,-79.5"/>
<text text-anchor="start" x="152.25" y="-66" font-family="Helvetica,sans-Serif" font-size="10.00">engine::components</text>
<text text-anchor="middle" x="195.38" y="-54.75" font-family="Helvetica,sans-Serif" font-size="10.00">::SpotLight</text>
</a>
</g>
</g>
<!-- Node1&#45;&gt;Node9 -->
<g id="edge8_Node000001_Node000009" class="edge">
<title>Node1&#45;&gt;Node9</title>
<g id="a_edge8_Node000001_Node000009"><a xlink:title=" ">
<path fill="none" stroke="#63b8ff" d="M64.52,-186.22C78.99,-159.2 105.21,-116.39 138.25,-89.25 142.54,-85.73 147.4,-82.61 152.42,-79.87"/>
<polygon fill="#63b8ff" stroke="#63b8ff" points="61.08,-184.25 59.56,-194.74 67.29,-187.49 61.08,-184.25"/>
</a>
</g>
</g>
<!-- Node10 -->
<g id="Node000010" class="node">
<title>Node10</title>
<g id="a_Node000010"><a xlink:href="../../d1/d6e/structengine_1_1components_1_1_transform_component.html" target="_top" xlink:title="Component that contains the transform of the object.">
<polygon fill="white" stroke="#666666" points="252.5,-30.5 138.25,-30.5 138.25,0 252.5,0 252.5,-30.5"/>
<text text-anchor="start" x="146.25" y="-17" font-family="Helvetica,sans-Serif" font-size="10.00">engine::components</text>
<text text-anchor="middle" x="195.38" y="-5.75" font-family="Helvetica,sans-Serif" font-size="10.00">::TransformComponent</text>
</a>
</g>
</g>
<!-- Node1&#45;&gt;Node10 -->
<g id="edge9_Node000001_Node000010" class="edge">
<title>Node1&#45;&gt;Node10</title>
<g id="a_edge9_Node000001_Node000010"><a xlink:title=" ">
<path fill="none" stroke="#63b8ff" d="M59.04,-185.56C70.12,-148.88 95.08,-81.41 138.25,-40.25 141.96,-36.72 146.24,-33.63 150.77,-30.95"/>
<polygon fill="#63b8ff" stroke="#63b8ff" points="55.47,-184.31 56.05,-194.89 62.2,-186.26 55.47,-184.31"/>
</a>
</g>
</g>
</g>
</svg>
</svg>

<style type='text/css'>
<![CDATA[
[data-mouse-over-selected='false'] { opacity: 0.7; }
[data-mouse-over-selected='true']  { opacity: 1.0; }
]]>
</style>
<script type="application/ecmascript"><![CDATA[
document.addEventListener('DOMContentLoaded', (event) => {
  highlightEdges();
  highlightAdjacentNodes();
});
]]></script>
</svg>
