<?xml version="1.0" encoding="UTF-8" standalone="no"?>
<!DOCTYPE svg PUBLIC "-//W3C//DTD SVG 1.1//EN"
 "http://www.w3.org/Graphics/SVG/1.1/DTD/svg11.dtd">
<!-- Generated by graphviz version 9.0.0 (20230911.1827)
 -->
<!-- Title: engine::components::Component Pages: 1 -->
<svg width="261pt" height="431pt"
 viewBox="0.00 0.00 260.50 430.50" xmlns="http://www.w3.org/2000/svg" xmlns:xlink="http://www.w3.org/1999/xlink">
<g id="graph0" class="graph" transform="scale(1 1) rotate(0) translate(4 426.5)">
<title>engine::components::Component</title>
<!-- Node1 -->
<g id="Node000001" class="node">
<title>Node1</title>
<g id="a_Node000001"><a xlink:title="Base class for all components.">
<polygon fill="#999999" stroke="#666666" points="102.25,-226.5 0,-226.5 0,-196 102.25,-196 102.25,-226.5"/>
<text text-anchor="start" x="8" y="-213" font-family="Helvetica,sans-Serif" font-size="10.00">engine::components</text>
<text text-anchor="middle" x="51.12" y="-201.75" font-family="Helvetica,sans-Serif" font-size="10.00">::Component</text>
</a>
</g>
</g>
<!-- Node2 -->
<g id="Node000002" class="node">
<title>Node2</title>
<g id="a_Node000002"><a xlink:href="../../d5/d0f/structengine_1_1components_1_1_camera_component.html" target="_top" xlink:title="Component that contains the camera of the object.">
<polygon fill="white" stroke="#666666" points="247.25,-422.5 143.5,-422.5 143.5,-392 247.25,-392 247.25,-422.5"/>
<text text-anchor="start" x="151.5" y="-409" font-family="Helvetica,sans-Serif" font-size="10.00">engine::components</text>
<text text-anchor="middle" x="195.38" y="-397.75" font-family="Helvetica,sans-Serif" font-size="10.00">::CameraComponent</text>
</a>
</g>
</g>
<!-- Node1&#45;&gt;Node2 -->
<g id="edge1_Node000001_Node000002" class="edge">
<title>Node1&#45;&gt;Node2</title>
<g id="a_edge1_Node000001_Node000002"><a xlink:title=" ">
<path fill="none" stroke="#63b8ff" d="M59.19,-237.42C70.33,-274.2 95.27,-341.27 138.25,-382.25 141.96,-385.78 146.24,-388.87 150.77,-391.55"/>
<polygon fill="#63b8ff" stroke="#63b8ff" points="62.62,-236.69 56.47,-228.06 55.9,-238.64 62.62,-236.69"/>
</a>
</g>
</g>
<!-- Node3 -->
<g id="Node000003" class="node">
<title>Node3</title>
<g id="a_Node000003"><a xlink:href="../../d8/d10/structengine_1_1components_1_1_collider.html" target="_top" xlink:title="Collider component.">
<polygon fill="white" stroke="#666666" points="246.5,-373.5 144.25,-373.5 144.25,-343 246.5,-343 246.5,-373.5"/>
<text text-anchor="start" x="152.25" y="-360" font-family="Helvetica,sans-Serif" font-size="10.00">engine::components</text>
<text text-anchor="middle" x="195.38" y="-348.75" font-family="Helvetica,sans-Serif" font-size="10.00">::Collider</text>
</a>
</g>
</g>
<!-- Node1&#45;&gt;Node3 -->
<g id="edge2_Node000001_Node000003" class="edge">
<title>Node1&#45;&gt;Node3</title>
<g id="a_edge2_Node000001_Node000003"><a xlink:title=" ">
<path fill="none" stroke="#63b8ff" d="M64.71,-236.64C79.22,-263.68 105.35,-306.23 138.25,-333.25 142.54,-336.77 147.4,-339.89 152.42,-342.63"/>
<polygon fill="#63b8ff" stroke="#63b8ff" points="67.99,-235.35 60.26,-228.1 61.78,-238.59 67.99,-235.35"/>
</a>
</g>
</g>
<!-- Node4 -->
<g id="Node000004" class="node">
<title>Node4</title>
<g id="a_Node000004"><a xlink:href="../../de/db2/structengine_1_1components_1_1_directional_light.html" target="_top" xlink:title="Directional light component.">
<polygon fill="white" stroke="#666666" points="246.5,-324.5 144.25,-324.5 144.25,-294 246.5,-294 246.5,-324.5"/>
<text text-anchor="start" x="152.25" y="-311" font-family="Helvetica,sans-Serif" font-size="10.00">engine::components</text>
<text text-anchor="middle" x="195.38" y="-299.75" font-family="Helvetica,sans-Serif" font-size="10.00">::DirectionalLight</text>
</a>
</g>
</g>
<!-- Node1&#45;&gt;Node4 -->
<g id="edge3_Node000001_Node000004" class="edge">
<title>Node1&#45;&gt;Node4</title>
<g id="a_edge3_Node000001_Node000004"><a xlink:title=" ">
<path fill="none" stroke="#63b8ff" d="M75.57,-234.32C92.13,-249.78 115.36,-269.86 138.25,-284.25 143.58,-287.6 149.43,-290.73 155.29,-293.57"/>
<polygon fill="#63b8ff" stroke="#63b8ff" points="78.32,-232.11 68.66,-227.76 73.5,-237.18 78.32,-232.11"/>
</a>
</g>
</g>
<!-- Node5 -->
<g id="Node000005" class="node">
<title>Node5</title>
<g id="a_Node000005"><a xlink:href="../../dc/d34/structengine_1_1components_1_1_force_field.html" target="_top" xlink:title="Force field type.">
<polygon fill="white" stroke="#666666" points="246.5,-275.5 144.25,-275.5 144.25,-245 246.5,-245 246.5,-275.5"/>
<text text-anchor="start" x="152.25" y="-262" font-family="Helvetica,sans-Serif" font-size="10.00">engine::components</text>
<text text-anchor="middle" x="195.38" y="-250.75" font-family="Helvetica,sans-Serif" font-size="10.00">::ForceField</text>
</a>
</g>
</g>
<!-- Node1&#45;&gt;Node5 -->
<g id="edge4_Node000001_Node000005" class="edge">
<title>Node1&#45;&gt;Node5</title>
<g id="a_edge4_Node000001_Node000005"><a xlink:title=" ">
<path fill="none" stroke="#63b8ff" d="M108.16,-230.55C121.68,-235.21 135.95,-240.13 148.92,-244.59"/>
<polygon fill="#63b8ff" stroke="#63b8ff" points="109.55,-227.33 98.96,-227.38 107.27,-233.95 109.55,-227.33"/>
</a>
</g>
</g>
<!-- Node6 -->
<g id="Node000006" class="node">
<title>Node6</title>
<g id="a_Node000006"><a xlink:href="../../d6/df1/structengine_1_1components_1_1_game_object.html" target="_top" xlink:title="Component that contains the name of the object and its tag.">
<polygon fill="white" stroke="#666666" points="246.5,-226.5 144.25,-226.5 144.25,-196 246.5,-196 246.5,-226.5"/>
<text text-anchor="start" x="152.25" y="-213" font-family="Helvetica,sans-Serif" font-size="10.00">engine::components</text>
<text text-anchor="middle" x="195.38" y="-201.75" font-family="Helvetica,sans-Serif" font-size="10.00">::GameObject</text>
</a>
</g>
</g>
<!-- Node1&#45;&gt;Node6 -->
<g id="edge5_Node000001_Node000006" class="edge">
<title>Node1&#45;&gt;Node6</title>
<g id="a_edge5_Node000001_Node000006"><a xlink:title=" ">
<path fill="none" stroke="#63b8ff" d="M113.88,-211.25C123.93,-211.25 134.24,-211.25 143.99,-211.25"/>
<polygon fill="#63b8ff" stroke="#63b8ff" points="114.19,-207.75 104.19,-211.25 114.19,-214.75 114.19,-207.75"/>
</a>
</g>
</g>
<!-- Node7 -->
<g id="Node000007" class="node">
<title>Node7</title>
<g id="a_Node000007"><a xlink:href="../../d1/dd4/structengine_1_1components_1_1_particle_emitter.html" target="_top" xlink:title="Particle emitter component.">
<polygon fill="white" stroke="#666666" points="246.5,-177.5 144.25,-177.5 144.25,-147 246.5,-147 246.5,-177.5"/>
<text text-anchor="start" x="152.25" y="-164" font-family="Helvetica,sans-Serif" font-size="10.00">engine::components</text>
<text text-anchor="middle" x="195.38" y="-152.75" font-family="Helvetica,sans-Serif" font-size="10.00">::ParticleEmitter</text>
</a>
</g>
</g>
<!-- Node1&#45;&gt;Node7 -->
<g id="edge6_Node000001_Node000007" class="edge">
<title>Node1&#45;&gt;Node7</title>
<g id="a_edge6_Node000001_Node000007"><a xlink:title=" ">
<path fill="none" stroke="#63b8ff" d="M108.16,-191.95C121.68,-187.29 135.95,-182.37 148.92,-177.91"/>
<polygon fill="#63b8ff" stroke="#63b8ff" points="107.27,-188.55 98.96,-195.12 109.55,-195.17 107.27,-188.55"/>
</a>
</g>
</g>
<!-- Node8 -->
<g id="Node000008" class="node">
<title>Node8</title>
<g id="a_Node000008"><a xlink:href="../../d0/d04/structengine_1_1components_1_1_point_light.html" target="_top" xlink:title="Point light component TODO: Add these features:">
<polygon fill="white" stroke="#666666" points="246.5,-128.5 144.25,-128.5 144.25,-98 246.5,-98 246.5,-128.5"/>
<text text-anchor="start" x="152.25" y="-115" font-family="Helvetica,sans-Serif" font-size="10.00">engine::components</text>
<text text-anchor="middle" x="195.38" y="-103.75" font-family="Helvetica,sans-Serif" font-size="10.00">::PointLight</text>
</a>
</g>
</g>
<!-- Node1&#45;&gt;Node8 -->
<g id="edge7_Node000001_Node000008" class="edge">
<title>Node1&#45;&gt;Node8</title>
<g id="a_edge7_Node000001_Node000008"><a xlink:title=" ">
<path fill="none" stroke="#63b8ff" d="M75.57,-188.18C92.13,-172.72 115.36,-152.64 138.25,-138.25 143.58,-134.9 149.43,-131.77 155.29,-128.93"/>
<polygon fill="#63b8ff" stroke="#63b8ff" points="73.5,-185.32 68.66,-194.74 78.32,-190.39 73.5,-185.32"/>
</a>
</g>
</g>
<!-- Node9 -->
<g id="Node000009" class="node">
<title>Node9</title>
<g id="a_Node000009"><a xlink:href="../../d9/dfc/structengine_1_1components_1_1_spot_light.html" target="_top" xlink:title="Spot light component.">
<polygon fill="white" stroke="#666666" points="246.5,-79.5 144.25,-79.5 144.25,-49 246.5,-49 246.5,-79.5"/>
<text text-anchor="start" x="152.25" y="-66" font-family="Helvetica,sans-Serif" font-size="10.00">engine::components</text>
<text text-anchor="middle" x="195.38" y="-54.75" font-family="Helvetica,sans-Serif" font-size="10.00">::SpotLight</text>
</a>
</g>
</g>
<!-- Node1&#45;&gt;Node9 -->
<g id="edge8_Node000001_Node000009" class="edge">
<title>Node1&#45;&gt;Node9</title>
<g id="a_edge8_Node000001_Node000009"><a xlink:title=" ">
<path fill="none" stroke="#63b8ff" d="M64.71,-185.86C79.22,-158.82 105.35,-116.27 138.25,-89.25 142.54,-85.73 147.4,-82.61 152.42,-79.87"/>
<polygon fill="#63b8ff" stroke="#63b8ff" points="61.78,-183.91 60.26,-194.4 67.99,-187.15 61.78,-183.91"/>
</a>
</g>
</g>
<!-- Node10 -->
<g id="Node000010" class="node">
<title>Node10</title>
<g id="a_Node000010"><a xlink:href="../../d1/d6e/structengine_1_1components_1_1_transform_component.html" target="_top" xlink:title="Component that contains the transform of the object.">
<polygon fill="white" stroke="#666666" points="252.5,-30.5 138.25,-30.5 138.25,0 252.5,0 252.5,-30.5"/>
<text text-anchor="start" x="146.25" y="-17" font-family="Helvetica,sans-Serif" font-size="10.00">engine::components</text>
<text text-anchor="middle" x="195.38" y="-5.75" font-family="Helvetica,sans-Serif" font-size="10.00">::TransformComponent</text>
</a>
</g>
</g>
<!-- Node1&#45;&gt;Node10 -->
<g id="edge9_Node000001_Node000010" class="edge">
<title>Node1&#45;&gt;Node10</title>
<g id="a_edge9_Node000001_Node000010"><a xlink:title=" ">
<path fill="none" stroke="#63b8ff" d="M59.19,-185.08C70.33,-148.3 95.27,-81.23 138.25,-40.25 141.96,-36.72 146.24,-33.63 150.77,-30.95"/>
<polygon fill="#63b8ff" stroke="#63b8ff" points="55.9,-183.86 56.47,-194.44 62.62,-185.81 55.9,-183.86"/>
</a>
</g>
</g>
</g>
</svg>
