<?xml version="1.0" encoding="UTF-8" standalone="no"?>
<!DOCTYPE svg PUBLIC "-//W3C//DTD SVG 1.1//EN"
 "http://www.w3.org/Graphics/SVG/1.1/DTD/svg11.dtd">
<!-- Generated by graphviz version 8.1.0 (20230707.0739)
 -->
<!-- Title: engine::render::_dissolution_detail::MeshInstance Pages: 1 -->
<svg width="244pt" height="283pt"
 viewBox="0.00 0.00 244.38 283.00" xmlns="http://www.w3.org/2000/svg" xmlns:xlink="http://www.w3.org/1999/xlink">
<g id="graph0" class="graph" transform="scale(1 1) rotate(0) translate(4 279)">
<title>engine::render::_dissolution_detail::MeshInstance</title>
<!-- Node1 -->
<g id="Node000001" class="node">
<title>Node1</title>
<g id="a_Node000001"><a xlink:title=" ">
<polygon fill="#999999" stroke="#666666" points="193.38,-30.5 61.12,-30.5 61.12,0 193.38,0 193.38,-30.5"/>
<text text-anchor="start" x="69.12" y="-17" font-family="Helvetica,sans-Serif" font-size="10.00">engine::render::_dissolution</text>
<text text-anchor="middle" x="127.25" y="-5.75" font-family="Helvetica,sans-Serif" font-size="10.00">_detail::MeshInstance</text>
</a>
</g>
</g>
<!-- Node2 -->
<g id="Node000002" class="node">
<title>Node2</title>
<g id="a_Node000002"><a xlink:title=" ">
<polygon fill="white" stroke="#666666" points="191.88,-119.5 62.62,-119.5 62.62,-77.75 191.88,-77.75 191.88,-119.5"/>
<text text-anchor="start" x="70.62" y="-106" font-family="Helvetica,sans-Serif" font-size="10.00">std::vector&lt; engine</text>
<text text-anchor="start" x="70.62" y="-94.75" font-family="Helvetica,sans-Serif" font-size="10.00">::render::_dissolution</text>
<text text-anchor="middle" x="127.25" y="-83.5" font-family="Helvetica,sans-Serif" font-size="10.00">_detail::MaterialInstance &gt;</text>
</a>
</g>
</g>
<!-- Node2&#45;&gt;Node1 -->
<g id="edge1_Node000001_Node000002" class="edge">
<title>Node2&#45;&gt;Node1</title>
<g id="a_edge1_Node000001_Node000002"><a xlink:title=" ">
<path fill="none" stroke="#9a32cd" stroke-dasharray="5,2" d="M127.25,-66.68C127.25,-54.34 127.25,-40.74 127.25,-30.77"/>
<polygon fill="#9a32cd" stroke="#9a32cd" points="123.75,-66.51 127.25,-76.51 130.75,-66.51 123.75,-66.51"/>
</a>
</g>
<text text-anchor="middle" x="169.25" y="-50.25" font-family="Helvetica,sans-Serif" font-size="10.00" fill="grey"> material_instances</text>
</g>
<!-- Node3 -->
<g id="Node000003" class="node">
<title>Node3</title>
<g id="a_Node000003"><a xlink:href="../../d3/dec/structengine_1_1render_1_1__dissolution__detail_1_1_material_instance.html" target="_top" xlink:title=" ">
<polygon fill="white" stroke="#666666" points="193.38,-197.25 61.12,-197.25 61.12,-166.75 193.38,-166.75 193.38,-197.25"/>
<text text-anchor="start" x="69.12" y="-183.75" font-family="Helvetica,sans-Serif" font-size="10.00">engine::render::_dissolution</text>
<text text-anchor="middle" x="127.25" y="-172.5" font-family="Helvetica,sans-Serif" font-size="10.00">_detail::MaterialInstance</text>
</a>
</g>
</g>
<!-- Node3&#45;&gt;Node2 -->
<g id="edge2_Node000002_Node000003" class="edge">
<title>Node3&#45;&gt;Node2</title>
<g id="a_edge2_Node000002_Node000003"><a xlink:title=" ">
<path fill="none" stroke="#9a32cd" stroke-dasharray="5,2" d="M127.25,-155.73C127.25,-144.19 127.25,-130.71 127.25,-119.85"/>
<polygon fill="#9a32cd" stroke="#9a32cd" points="123.75,-155.45 127.25,-165.45 130.75,-155.45 123.75,-155.45"/>
</a>
</g>
<text text-anchor="middle" x="148.25" y="-139.25" font-family="Helvetica,sans-Serif" font-size="10.00" fill="grey"> elements</text>
</g>
<!-- Node4 -->
<g id="Node000004" class="node">
<title>Node4</title>
<g id="a_Node000004"><a xlink:href="../../d6/df2/structengine_1_1render_1_1_dissolution_material.html" target="_top" xlink:title=" ">
<polygon fill="white" stroke="#666666" points="128.5,-275 0,-275 0,-244.5 128.5,-244.5 128.5,-275"/>
<text text-anchor="start" x="8" y="-261.5" font-family="Helvetica,sans-Serif" font-size="10.00">engine::render::Dissolution</text>
<text text-anchor="middle" x="64.25" y="-250.25" font-family="Helvetica,sans-Serif" font-size="10.00">Material</text>
</a>
</g>
</g>
<!-- Node4&#45;&gt;Node3 -->
<g id="edge3_Node000003_Node000004" class="edge">
<title>Node4&#45;&gt;Node3</title>
<g id="a_edge3_Node000003_Node000004"><a xlink:title=" ">
<path fill="none" stroke="#9a32cd" stroke-dasharray="5,2" d="M83.16,-236.01C93.53,-223.54 106.09,-208.45 115.14,-197.56"/>
<polygon fill="#9a32cd" stroke="#9a32cd" points="80.1,-233.22 76.4,-243.14 85.48,-237.69 80.1,-233.22"/>
</a>
</g>
<text text-anchor="middle" x="118.62" y="-217" font-family="Helvetica,sans-Serif" font-size="10.00" fill="grey"> material</text>
</g>
<!-- Node5 -->
<g id="Node000005" class="node">
<title>Node5</title>
<g id="a_Node000005"><a xlink:title=" ">
<polygon fill="white" stroke="#666666" points="236.38,-275 146.12,-275 146.12,-244.5 236.38,-244.5 236.38,-275"/>
<text text-anchor="start" x="154.12" y="-261.5" font-family="Helvetica,sans-Serif" font-size="10.00">std::vector&lt; entt::</text>
<text text-anchor="middle" x="191.25" y="-250.25" font-family="Helvetica,sans-Serif" font-size="10.00">entity &gt;</text>
</a>
</g>
</g>
<!-- Node5&#45;&gt;Node3 -->
<g id="edge4_Node000003_Node000005" class="edge">
<title>Node5&#45;&gt;Node3</title>
<g id="a_edge4_Node000003_Node000005"><a xlink:title=" ">
<path fill="none" stroke="#9a32cd" stroke-dasharray="5,2" d="M172.04,-236.01C161.5,-223.54 148.75,-208.45 139.55,-197.56"/>
<polygon fill="#9a32cd" stroke="#9a32cd" points="169.78,-237.76 178.91,-243.14 175.13,-233.25 169.78,-237.76"/>
</a>
</g>
<text text-anchor="middle" x="184.38" y="-217" font-family="Helvetica,sans-Serif" font-size="10.00" fill="grey"> instances</text>
</g>
</g>
</svg>
