<?xml version="1.0" encoding="UTF-8" standalone="no"?>
<!DOCTYPE svg PUBLIC "-//W3C//DTD SVG 1.1//EN"
 "http://www.w3.org/Graphics/SVG/1.1/DTD/svg11.dtd">
<!-- Generated by graphviz version 8.1.0 (20230707.0739)
 -->
<!-- Title: engine/subsystems/core/shader&#45;manager.hpp Pages: 1 -->
<svg width="1993pt" height="316pt"
 viewBox="0.00 0.00 1992.51 315.75" xmlns="http://www.w3.org/2000/svg" xmlns:xlink="http://www.w3.org/1999/xlink">
<g id="graph0" class="graph" transform="scale(1 1) rotate(0) translate(4 311.75)">
<title>engine/subsystems/core/shader&#45;manager.hpp</title>
<!-- Node1 -->
<g id="Node000001" class="node">
<title>Node1</title>
<g id="a_Node000001"><a xlink:title=" ">
<polygon fill="#999999" stroke="#666666" points="1177.38,-307.75 1055.63,-307.75 1055.63,-277.25 1177.38,-277.25 1177.38,-307.75"/>
<text text-anchor="start" x="1063.63" y="-294.25" font-family="Helvetica,sans-Serif" font-size="10.00">engine/subsystems/core</text>
<text text-anchor="middle" x="1116.51" y="-283" font-family="Helvetica,sans-Serif" font-size="10.00">/shader&#45;manager.hpp</text>
</a>
</g>
</g>
<!-- Node2 -->
<g id="Node000002" class="node">
<title>Node2</title>
<g id="a_Node000002"><a xlink:href="../../de/d8e/deferred-resolve_8hpp.html" target="_top" xlink:title=" ">
<polygon fill="white" stroke="#666666" points="756.88,-235.62 644.13,-235.62 644.13,-205.12 756.88,-205.12 756.88,-235.62"/>
<text text-anchor="start" x="652.13" y="-222.12" font-family="Helvetica,sans-Serif" font-size="10.00">engine/render/deferred</text>
<text text-anchor="middle" x="700.51" y="-210.88" font-family="Helvetica,sans-Serif" font-size="10.00">&#45;resolve.hpp</text>
</a>
</g>
</g>
<!-- Node1&#45;&gt;Node2 -->
<g id="edge1_Node000001_Node000002" class="edge">
<title>Node1&#45;&gt;Node2</title>
<g id="a_edge1_Node000001_Node000002"><a xlink:title=" ">
<path fill="none" stroke="#63b8ff" d="M1044.91,-279.43C963.43,-265.7 831.99,-243.54 757.26,-230.94"/>
<polygon fill="#63b8ff" stroke="#63b8ff" points="1044.13,-283.02 1054.57,-281.23 1045.29,-276.11 1044.13,-283.02"/>
</a>
</g>
</g>
<!-- Node9 -->
<g id="Node000009" class="node">
<title>Node9</title>
<g id="a_Node000009"><a xlink:href="../../d2/deb/hdr-to-ldr-layer_8hpp.html" target="_top" xlink:title=" ">
<polygon fill="white" stroke="#666666" points="481.63,-235.62 379.38,-235.62 379.38,-205.12 481.63,-205.12 481.63,-235.62"/>
<text text-anchor="start" x="387.38" y="-222.12" font-family="Helvetica,sans-Serif" font-size="10.00">engine/render/hdr&#45;to</text>
<text text-anchor="middle" x="430.51" y="-210.88" font-family="Helvetica,sans-Serif" font-size="10.00">&#45;ldr&#45;layer.hpp</text>
</a>
</g>
</g>
<!-- Node1&#45;&gt;Node9 -->
<g id="edge9_Node000001_Node000009" class="edge">
<title>Node1&#45;&gt;Node9</title>
<g id="a_edge9_Node000001_Node000009"><a xlink:title=" ">
<path fill="none" stroke="#63b8ff" d="M1044.8,-284.17C905.75,-269.96 602.54,-238.96 481.7,-226.61"/>
<polygon fill="#63b8ff" stroke="#63b8ff" points="1044.02,-287.71 1054.33,-285.25 1044.74,-280.75 1044.02,-287.71"/>
</a>
</g>
</g>
<!-- Node10 -->
<g id="Node000010" class="node">
<title>Node10</title>
<g id="a_Node000010"><a xlink:href="../../da/d7b/present-swapchain_8hpp.html" target="_top" xlink:title=" ">
<polygon fill="white" stroke="#666666" points="289.38,-235.62 179.63,-235.62 179.63,-205.12 289.38,-205.12 289.38,-235.62"/>
<text text-anchor="start" x="187.63" y="-222.12" font-family="Helvetica,sans-Serif" font-size="10.00">engine/render/present</text>
<text text-anchor="middle" x="234.51" y="-210.88" font-family="Helvetica,sans-Serif" font-size="10.00">&#45;swapchain.hpp</text>
</a>
</g>
</g>
<!-- Node1&#45;&gt;Node10 -->
<g id="edge11_Node000001_Node000010" class="edge">
<title>Node1&#45;&gt;Node10</title>
<g id="a_edge11_Node000001_Node000010"><a xlink:title=" ">
<path fill="none" stroke="#63b8ff" d="M1044.6,-288.52C911.36,-282.59 617.21,-267.54 370.51,-241.25 343.81,-238.4 314.32,-234.22 289.64,-230.43"/>
<polygon fill="#63b8ff" stroke="#63b8ff" points="1044.3,-292.05 1054.45,-289 1044.61,-285.06 1044.3,-292.05"/>
</a>
</g>
</g>
<!-- Node11 -->
<g id="Node000011" class="node">
<title>Node11</title>
<g id="a_Node000011"><a xlink:href="../../da/d47/core_8hpp.html" target="_top" xlink:title=" ">
<polygon fill="white" stroke="#666666" points="968.38,-235.62 846.63,-235.62 846.63,-205.12 968.38,-205.12 968.38,-235.62"/>
<text text-anchor="start" x="854.63" y="-222.12" font-family="Helvetica,sans-Serif" font-size="10.00">engine/subsystems/core</text>
<text text-anchor="middle" x="907.51" y="-210.88" font-family="Helvetica,sans-Serif" font-size="10.00">/core.hpp</text>
</a>
</g>
</g>
<!-- Node1&#45;&gt;Node11 -->
<g id="edge14_Node000001_Node000011" class="edge">
<title>Node1&#45;&gt;Node11</title>
<g id="a_edge14_Node000001_Node000011"><a xlink:title=" ">
<path fill="none" stroke="#63b8ff" d="M1062.3,-273.31C1027.76,-261.72 983.57,-246.9 951.26,-236.06"/>
<polygon fill="#63b8ff" stroke="#63b8ff" points="1061.1,-276.94 1071.69,-276.8 1063.33,-270.3 1061.1,-276.94"/>
</a>
</g>
</g>
<!-- Node20 -->
<g id="Node000020" class="node">
<title>Node20</title>
<g id="a_Node000020"><a xlink:href="../../d8/d30/decal-render-system_8cpp.html" target="_top" xlink:title=" ">
<polygon fill="white" stroke="#666666" points="1584.01,-91.38 1433.01,-91.38 1433.01,-60.88 1584.01,-60.88 1584.01,-91.38"/>
<text text-anchor="start" x="1441.01" y="-77.88" font-family="Helvetica,sans-Serif" font-size="10.00">engine/subsystems/render</text>
<text text-anchor="middle" x="1508.51" y="-66.62" font-family="Helvetica,sans-Serif" font-size="10.00">/detail/decal&#45;render&#45;system.cpp</text>
</a>
</g>
</g>
<!-- Node1&#45;&gt;Node20 -->
<g id="edge38_Node000001_Node000020" class="edge">
<title>Node1&#45;&gt;Node20</title>
<g id="a_edge38_Node000001_Node000020"><a xlink:title=" ">
<path fill="none" stroke="#63b8ff" d="M1055.45,-272.05C1041.61,-264.65 1028.62,-254.65 1020.51,-241.25 995.59,-200.09 988.03,-168.5 1020.51,-133 1050.93,-99.75 1380.02,-104.21 1424.51,-97 1433.23,-95.59 1442.4,-93.77 1451.34,-91.81"/>
<polygon fill="#63b8ff" stroke="#63b8ff" points="1053.6,-275.52 1064.12,-276.76 1056.67,-269.23 1053.6,-275.52"/>
</a>
</g>
</g>
<!-- Node21 -->
<g id="Node000021" class="node">
<title>Node21</title>
<g id="a_Node000021"><a xlink:href="../../d1/d58/dissolution-render-system_8cpp.html" target="_top" xlink:title=" ">
<polygon fill="white" stroke="#666666" points="1732.51,-97 1602.51,-97 1602.51,-55.25 1732.51,-55.25 1732.51,-97"/>
<text text-anchor="start" x="1610.51" y="-83.5" font-family="Helvetica,sans-Serif" font-size="10.00">engine/subsystems/render</text>
<text text-anchor="start" x="1610.51" y="-72.25" font-family="Helvetica,sans-Serif" font-size="10.00">/detail/dissolution&#45;render</text>
<text text-anchor="middle" x="1667.51" y="-61" font-family="Helvetica,sans-Serif" font-size="10.00">&#45;system.cpp</text>
</a>
</g>
</g>
<!-- Node1&#45;&gt;Node21 -->
<g id="edge39_Node000001_Node000021" class="edge">
<title>Node1&#45;&gt;Node21</title>
<g id="a_edge39_Node000001_Node000021"><a xlink:title=" ">
<path fill="none" stroke="#63b8ff" d="M1082.29,-270.14C1072.8,-262.32 1063.68,-252.57 1058.51,-241.25 1038.52,-197.49 1025.65,-168.14 1058.51,-133 1099.2,-89.48 1534.74,-106.77 1593.51,-97 1596.39,-96.52 1599.33,-95.98 1602.29,-95.38"/>
<polygon fill="#63b8ff" stroke="#63b8ff" points="1079.94,-273.5 1090.02,-276.76 1084.17,-267.93 1079.94,-273.5"/>
</a>
</g>
</g>
<!-- Node22 -->
<g id="Node000022" class="node">
<title>Node22</title>
<g id="a_Node000022"><a xlink:href="../../d2/d11/emissive-particle-render-system_8cpp.html" target="_top" xlink:title=" ">
<polygon fill="white" stroke="#666666" points="1880.51,-97 1750.51,-97 1750.51,-55.25 1880.51,-55.25 1880.51,-97"/>
<text text-anchor="start" x="1758.51" y="-83.5" font-family="Helvetica,sans-Serif" font-size="10.00">engine/subsystems/render</text>
<text text-anchor="start" x="1758.51" y="-72.25" font-family="Helvetica,sans-Serif" font-size="10.00">/detail/emissive&#45;particle</text>
<text text-anchor="middle" x="1815.51" y="-61" font-family="Helvetica,sans-Serif" font-size="10.00">&#45;render&#45;system.cpp</text>
</a>
</g>
</g>
<!-- Node1&#45;&gt;Node22 -->
<g id="edge40_Node000001_Node000022" class="edge">
<title>Node1&#45;&gt;Node22</title>
<g id="a_edge40_Node000001_Node000022"><a xlink:title=" ">
<path fill="none" stroke="#63b8ff" d="M1099.42,-267.8C1087.06,-247.51 1075.15,-218.64 1091.51,-199.5 1186.51,-88.34 1598.47,-127.4 1741.51,-97 1744.37,-96.39 1747.29,-95.74 1750.23,-95.06"/>
<polygon fill="#63b8ff" stroke="#63b8ff" points="1097.01,-269.52 1105.4,-275.99 1102.87,-265.7 1097.01,-269.52"/>
</a>
</g>
</g>
<!-- Node26 -->
<g id="Node000026" class="node">
<title>Node26</title>
<g id="a_Node000026"><a xlink:href="../../d9/d30/shader-manager_8cpp.html" target="_top" xlink:title=" ">
<polygon fill="white" stroke="#666666" points="1222.38,-235.62 1100.63,-235.62 1100.63,-205.12 1222.38,-205.12 1222.38,-235.62"/>
<text text-anchor="start" x="1108.63" y="-222.12" font-family="Helvetica,sans-Serif" font-size="10.00">engine/subsystems/core</text>
<text text-anchor="middle" x="1161.51" y="-210.88" font-family="Helvetica,sans-Serif" font-size="10.00">/shader&#45;manager.cpp</text>
</a>
</g>
</g>
<!-- Node1&#45;&gt;Node26 -->
<g id="edge35_Node000001_Node000026" class="edge">
<title>Node1&#45;&gt;Node26</title>
<g id="a_edge35_Node000001_Node000026"><a xlink:title=" ">
<path fill="none" stroke="#63b8ff" d="M1131.71,-267.81C1138.5,-257.23 1146.28,-245.1 1152.19,-235.89"/>
<polygon fill="#63b8ff" stroke="#63b8ff" points="1128.29,-265.66 1125.83,-275.97 1134.18,-269.44 1128.29,-265.66"/>
</a>
</g>
</g>
<!-- Node27 -->
<g id="Node000027" class="node">
<title>Node27</title>
<g id="a_Node000027"><a xlink:href="../../d5/d8f/shader-manager_8inl.html" target="_top" xlink:title=" ">
<polygon fill="white" stroke="#666666" points="1362.38,-235.62 1240.63,-235.62 1240.63,-205.12 1362.38,-205.12 1362.38,-235.62"/>
<text text-anchor="start" x="1248.63" y="-222.12" font-family="Helvetica,sans-Serif" font-size="10.00">engine/subsystems/core</text>
<text text-anchor="middle" x="1301.51" y="-210.88" font-family="Helvetica,sans-Serif" font-size="10.00">/shader&#45;manager.inl</text>
</a>
</g>
</g>
<!-- Node1&#45;&gt;Node27 -->
<g id="edge36_Node000001_Node000027" class="edge">
<title>Node1&#45;&gt;Node27</title>
<g id="a_edge36_Node000001_Node000027"><a xlink:title=" ">
<path fill="none" stroke="#63b8ff" d="M1159.63,-272.86C1188.96,-261.34 1227.58,-246.76 1257.16,-236.06"/>
<polygon fill="#63b8ff" stroke="#63b8ff" points="1158.69,-269.87 1150.67,-276.8 1161.26,-276.38 1158.69,-269.87"/>
</a>
</g>
</g>
<!-- Node28 -->
<g id="Node000028" class="node">
<title>Node28</title>
<g id="a_Node000028"><a xlink:href="../../d8/dcb/emissive-render-system_8cpp.html" target="_top" xlink:title=" ">
<polygon fill="white" stroke="#666666" points="1510.51,-241.25 1380.51,-241.25 1380.51,-199.5 1510.51,-199.5 1510.51,-241.25"/>
<text text-anchor="start" x="1388.51" y="-227.75" font-family="Helvetica,sans-Serif" font-size="10.00">engine/subsystems/render</text>
<text text-anchor="start" x="1388.51" y="-216.5" font-family="Helvetica,sans-Serif" font-size="10.00">/detail/emissive&#45;render</text>
<text text-anchor="middle" x="1445.51" y="-205.25" font-family="Helvetica,sans-Serif" font-size="10.00">&#45;system.cpp</text>
</a>
</g>
</g>
<!-- Node1&#45;&gt;Node28 -->
<g id="edge41_Node000001_Node000028" class="edge">
<title>Node1&#45;&gt;Node28</title>
<g id="a_edge41_Node000001_Node000028"><a xlink:title=" ">
<path fill="none" stroke="#63b8ff" d="M1188.44,-278.67C1239.68,-269.21 1310.06,-255.54 1371.51,-241.25 1374.36,-240.59 1377.26,-239.89 1380.2,-239.17"/>
<polygon fill="#63b8ff" stroke="#63b8ff" points="1188.01,-275.38 1178.81,-280.63 1189.28,-282.26 1188.01,-275.38"/>
</a>
</g>
</g>
<!-- Node29 -->
<g id="Node000029" class="node">
<title>Node29</title>
<g id="a_Node000029"><a xlink:href="../../d9/d5a/sort-lib_8cpp.html" target="_top" xlink:title=" ">
<polygon fill="white" stroke="#666666" points="1658.51,-235.62 1528.51,-235.62 1528.51,-205.12 1658.51,-205.12 1658.51,-235.62"/>
<text text-anchor="start" x="1536.51" y="-222.12" font-family="Helvetica,sans-Serif" font-size="10.00">engine/subsystems/render</text>
<text text-anchor="middle" x="1593.51" y="-210.88" font-family="Helvetica,sans-Serif" font-size="10.00">/detail/misc/sort&#45;lib.cpp</text>
</a>
</g>
</g>
<!-- Node1&#45;&gt;Node29 -->
<g id="edge42_Node000001_Node000029" class="edge">
<title>Node1&#45;&gt;Node29</title>
<g id="a_edge42_Node000001_Node000029"><a xlink:title=" ">
<path fill="none" stroke="#63b8ff" d="M1188.26,-285.57C1269.22,-278.19 1404.61,-263.73 1519.51,-241.25 1526.95,-239.79 1534.74,-238 1542.37,-236.09"/>
<polygon fill="#63b8ff" stroke="#63b8ff" points="1188.33,-282.14 1178.69,-286.53 1188.96,-289.11 1188.33,-282.14"/>
</a>
</g>
</g>
<!-- Node30 -->
<g id="Node000030" class="node">
<title>Node30</title>
<g id="a_Node000030"><a xlink:href="../../d1/d62/opaque-render-system_8cpp.html" target="_top" xlink:title=" ">
<polygon fill="white" stroke="#666666" points="1836.13,-235.62 1676.88,-235.62 1676.88,-205.12 1836.13,-205.12 1836.13,-235.62"/>
<text text-anchor="start" x="1684.88" y="-222.12" font-family="Helvetica,sans-Serif" font-size="10.00">engine/subsystems/render</text>
<text text-anchor="middle" x="1756.51" y="-210.88" font-family="Helvetica,sans-Serif" font-size="10.00">/detail/opaque&#45;render&#45;system.cpp</text>
</a>
</g>
</g>
<!-- Node1&#45;&gt;Node30 -->
<g id="edge43_Node000001_Node000030" class="edge">
<title>Node1&#45;&gt;Node30</title>
<g id="a_edge43_Node000001_Node000030"><a xlink:title=" ">
<path fill="none" stroke="#63b8ff" d="M1188.4,-287.9C1293.94,-281.96 1496.8,-267.98 1667.51,-241.25 1676.58,-239.83 1686.11,-238.03 1695.42,-236.1"/>
<polygon fill="#63b8ff" stroke="#63b8ff" points="1188.36,-284.46 1178.56,-288.51 1188.74,-291.45 1188.36,-284.46"/>
</a>
</g>
</g>
<!-- Node31 -->
<g id="Node000031" class="node">
<title>Node31</title>
<g id="a_Node000031"><a xlink:href="../../d3/dd8/skybox-manager_8cpp.html" target="_top" xlink:title=" ">
<polygon fill="white" stroke="#666666" points="1984.51,-235.62 1854.51,-235.62 1854.51,-205.12 1984.51,-205.12 1984.51,-235.62"/>
<text text-anchor="start" x="1862.51" y="-222.12" font-family="Helvetica,sans-Serif" font-size="10.00">engine/subsystems/render</text>
<text text-anchor="middle" x="1919.51" y="-210.88" font-family="Helvetica,sans-Serif" font-size="10.00">/skybox&#45;manager.cpp</text>
</a>
</g>
</g>
<!-- Node1&#45;&gt;Node31 -->
<g id="edge44_Node000001_Node000031" class="edge">
<title>Node1&#45;&gt;Node31</title>
<g id="a_edge44_Node000001_Node000031"><a xlink:title=" ">
<path fill="none" stroke="#63b8ff" d="M1188.15,-291.14C1319.43,-289.47 1606.96,-281.12 1845.51,-241.25 1853.51,-239.91 1861.9,-238.08 1870.04,-236.07"/>
<polygon fill="#63b8ff" stroke="#63b8ff" points="1188.41,-287.65 1178.46,-291.27 1188.5,-294.65 1188.41,-287.65"/>
</a>
</g>
</g>
<!-- Node3 -->
<g id="Node000003" class="node">
<title>Node3</title>
<g id="a_Node000003"><a xlink:href="../../db/df9/deferred-hdr-render-pipeline_8hpp.html" target="_top" xlink:title=" ">
<polygon fill="white" stroke="#666666" points="299.88,-163.5 169.13,-163.5 169.13,-133 299.88,-133 299.88,-163.5"/>
<text text-anchor="start" x="177.13" y="-150" font-family="Helvetica,sans-Serif" font-size="10.00">engine/direct3d11/deferred</text>
<text text-anchor="middle" x="234.51" y="-138.75" font-family="Helvetica,sans-Serif" font-size="10.00">&#45;hdr&#45;render&#45;pipeline.hpp</text>
</a>
</g>
</g>
<!-- Node2&#45;&gt;Node3 -->
<g id="edge2_Node000002_Node000003" class="edge">
<title>Node2&#45;&gt;Node3</title>
<g id="a_edge2_Node000002_Node000003"><a xlink:title=" ">
<path fill="none" stroke="#63b8ff" d="M633.05,-209.22C544.01,-195.82 388.26,-172.39 300.14,-159.13"/>
<polygon fill="#63b8ff" stroke="#63b8ff" points="632.42,-212.82 642.83,-210.85 633.46,-205.9 632.42,-212.82"/>
</a>
</g>
</g>
<!-- Node8 -->
<g id="Node000008" class="node">
<title>Node8</title>
<g id="a_Node000008"><a xlink:href="../../d4/d7c/deferred-resolve_8cpp.html" target="_top" xlink:title=" ">
<polygon fill="white" stroke="#666666" points="756.88,-163.5 644.13,-163.5 644.13,-133 756.88,-133 756.88,-163.5"/>
<text text-anchor="start" x="652.13" y="-150" font-family="Helvetica,sans-Serif" font-size="10.00">engine/render/deferred</text>
<text text-anchor="middle" x="700.51" y="-138.75" font-family="Helvetica,sans-Serif" font-size="10.00">&#45;resolve.cpp</text>
</a>
</g>
</g>
<!-- Node2&#45;&gt;Node8 -->
<g id="edge8_Node000002_Node000008" class="edge">
<title>Node2&#45;&gt;Node8</title>
<g id="a_edge8_Node000002_Node000008"><a xlink:title=" ">
<path fill="none" stroke="#63b8ff" d="M700.51,-194.06C700.51,-183.88 700.51,-172.5 700.51,-163.76"/>
<polygon fill="#63b8ff" stroke="#63b8ff" points="697.01,-193.85 700.51,-203.85 704.01,-193.85 697.01,-193.85"/>
</a>
</g>
</g>
<!-- Node4 -->
<g id="Node000004" class="node">
<title>Node4</title>
<g id="a_Node000004"><a xlink:href="../../dc/dfb/controller_8hpp.html" target="_top" xlink:title=" ">
<polygon fill="white" stroke="#666666" points="291.63,-85.75 177.38,-85.75 177.38,-66.5 291.63,-66.5 291.63,-85.75"/>
<text text-anchor="middle" x="234.51" y="-72.25" font-family="Helvetica,sans-Serif" font-size="10.00">d3d_test/controller.hpp</text>
</a>
</g>
</g>
<!-- Node3&#45;&gt;Node4 -->
<g id="edge3_Node000003_Node000004" class="edge">
<title>Node3&#45;&gt;Node4</title>
<g id="a_edge3_Node000003_Node000004"><a xlink:title=" ">
<path fill="none" stroke="#63b8ff" d="M234.51,-121.87C234.51,-109.27 234.51,-94.87 234.51,-85.88"/>
<polygon fill="#63b8ff" stroke="#63b8ff" points="231.01,-121.72 234.51,-131.72 238.01,-121.72 231.01,-121.72"/>
</a>
</g>
</g>
<!-- Node6 -->
<g id="Node000006" class="node">
<title>Node6</title>
<g id="a_Node000006"><a xlink:href="../../d9/d0f/main_8cc.html" target="_top" xlink:title=" ">
<polygon fill="white" stroke="#666666" points="162.63,-19.25 72.38,-19.25 72.38,0 162.63,0 162.63,-19.25"/>
<text text-anchor="middle" x="117.51" y="-5.75" font-family="Helvetica,sans-Serif" font-size="10.00">d3d_test/main.cc</text>
</a>
</g>
</g>
<!-- Node3&#45;&gt;Node6 -->
<g id="edge6_Node000003_Node000006" class="edge">
<title>Node3&#45;&gt;Node6</title>
<g id="a_edge6_Node000003_Node000006"><a xlink:title=" ">
<path fill="none" stroke="#63b8ff" d="M158.13,-139.39C103.53,-132.02 36.79,-118.78 19.51,-97 7.98,-82.46 9.47,-70.85 19.51,-55.25 31.24,-37.01 52.46,-26.14 72.16,-19.7"/>
<polygon fill="#63b8ff" stroke="#63b8ff" points="157.5,-142.97 167.86,-140.79 158.4,-136.03 157.5,-142.97"/>
</a>
</g>
</g>
<!-- Node7 -->
<g id="Node000007" class="node">
<title>Node7</title>
<g id="a_Node000007"><a xlink:href="../../d1/da2/deferred-hdr-render-pipeline_8cpp.html" target="_top" xlink:title=" ">
<polygon fill="white" stroke="#666666" points="158.88,-91.38 28.13,-91.38 28.13,-60.88 158.88,-60.88 158.88,-91.38"/>
<text text-anchor="start" x="36.13" y="-77.88" font-family="Helvetica,sans-Serif" font-size="10.00">engine/direct3d11/deferred</text>
<text text-anchor="middle" x="93.51" y="-66.62" font-family="Helvetica,sans-Serif" font-size="10.00">&#45;hdr&#45;render&#45;pipeline.cpp</text>
</a>
</g>
</g>
<!-- Node3&#45;&gt;Node7 -->
<g id="edge7_Node000003_Node000007" class="edge">
<title>Node3&#45;&gt;Node7</title>
<g id="a_edge7_Node000003_Node000007"><a xlink:title=" ">
<path fill="none" stroke="#63b8ff" d="M195.2,-127.7C172.33,-116.33 143.98,-102.23 123.03,-91.81"/>
<polygon fill="#63b8ff" stroke="#63b8ff" points="193.44,-131.23 203.95,-132.55 196.55,-124.96 193.44,-131.23"/>
</a>
</g>
</g>
<!-- Node5 -->
<g id="Node000005" class="node">
<title>Node5</title>
<g id="a_Node000005"><a xlink:href="../../d1/d47/controller_8cpp.html" target="_top" xlink:title=" ">
<polygon fill="white" stroke="#666666" points="1121.63,-19.25 1007.38,-19.25 1007.38,0 1121.63,0 1121.63,-19.25"/>
<text text-anchor="middle" x="1064.51" y="-5.75" font-family="Helvetica,sans-Serif" font-size="10.00">d3d_test/controller.cpp</text>
</a>
</g>
</g>
<!-- Node4&#45;&gt;Node5 -->
<g id="edge4_Node000004_Node000005" class="edge">
<title>Node4&#45;&gt;Node5</title>
<g id="a_edge4_Node000004_Node000005"><a xlink:title=" ">
<path fill="none" stroke="#63b8ff" d="M285.96,-63.88C302.65,-60.61 321.29,-57.36 338.51,-55.25 628.34,-19.77 703.66,-45.12 994.51,-19.25 998.65,-18.88 1002.93,-18.46 1007.24,-18"/>
<polygon fill="#63b8ff" stroke="#63b8ff" points="285.42,-60.62 276.31,-66.02 286.8,-67.48 285.42,-60.62"/>
</a>
</g>
</g>
<!-- Node4&#45;&gt;Node6 -->
<g id="edge5_Node000004_Node000006" class="edge">
<title>Node4&#45;&gt;Node6</title>
<g id="a_edge5_Node000004_Node000006"><a xlink:title=" ">
<path fill="none" stroke="#63b8ff" d="M208.58,-60.83C185.8,-48.27 153.32,-30.37 133.94,-19.68"/>
<polygon fill="#63b8ff" stroke="#63b8ff" points="206.54,-64.26 216.99,-66.02 209.92,-58.13 206.54,-64.26"/>
</a>
</g>
</g>
<!-- Node9&#45;&gt;Node3 -->
<g id="edge10_Node000009_Node000003" class="edge">
<title>Node9&#45;&gt;Node3</title>
<g id="a_edge10_Node000009_Node000003"><a xlink:title=" ">
<path fill="none" stroke="#63b8ff" d="M379.26,-201.04C346.92,-189.47 305.71,-174.73 275.54,-163.93"/>
<polygon fill="#63b8ff" stroke="#63b8ff" points="377.82,-204.6 388.42,-204.67 380.18,-198.01 377.82,-204.6"/>
</a>
</g>
</g>
<!-- Node10&#45;&gt;Node3 -->
<g id="edge13_Node000010_Node000003" class="edge">
<title>Node10&#45;&gt;Node3</title>
<g id="a_edge13_Node000010_Node000003"><a xlink:title=" ">
<path fill="none" stroke="#63b8ff" d="M234.51,-194.06C234.51,-183.88 234.51,-172.5 234.51,-163.76"/>
<polygon fill="#63b8ff" stroke="#63b8ff" points="231.01,-193.85 234.51,-203.85 238.01,-193.85 231.01,-193.85"/>
</a>
</g>
</g>
<!-- Node10&#45;&gt;Node6 -->
<g id="edge12_Node000010_Node000006" class="edge">
<title>Node10&#45;&gt;Node6</title>
<g id="a_edge12_Node000010_Node000006"><a xlink:title=" ">
<path fill="none" stroke="#63b8ff" d="M168.69,-203.78C114.85,-187.17 42.15,-155.02 7.51,-97 -2,-81.07 -2.86,-70.64 7.51,-55.25 21.95,-33.8 48.67,-22.65 72.16,-16.87"/>
<polygon fill="#63b8ff" stroke="#63b8ff" points="167.61,-207.4 178.19,-206.9 169.6,-200.69 167.61,-207.4"/>
</a>
</g>
</g>
<!-- Node12 -->
<g id="Node000012" class="node">
<title>Node12</title>
<g id="a_Node000012"><a xlink:href="../../de/d46/engine_8hpp.html" target="_top" xlink:title=" ">
<polygon fill="white" stroke="#666666" points="965.38,-157.88 849.63,-157.88 849.63,-138.62 965.38,-138.62 965.38,-157.88"/>
<text text-anchor="middle" x="907.51" y="-144.38" font-family="Helvetica,sans-Serif" font-size="10.00">engine/core/engine.hpp</text>
</a>
</g>
</g>
<!-- Node11&#45;&gt;Node12 -->
<g id="edge15_Node000011_Node000012" class="edge">
<title>Node11&#45;&gt;Node12</title>
<g id="a_edge15_Node000011_Node000012"><a xlink:title=" ">
<path fill="none" stroke="#63b8ff" d="M907.51,-193.99C907.51,-181.4 907.51,-166.99 907.51,-158.01"/>
<polygon fill="#63b8ff" stroke="#63b8ff" points="904.01,-193.85 907.51,-203.85 911.01,-193.85 904.01,-193.85"/>
</a>
</g>
</g>
<!-- Node12&#45;&gt;Node4 -->
<g id="edge19_Node000012_Node000004" class="edge">
<title>Node12&#45;&gt;Node4</title>
<g id="a_edge19_Node000012_Node000004"><a xlink:title=" ">
<path fill="none" stroke="#63b8ff" d="M838.38,-140.01C815.23,-137.66 789.26,-135.12 765.51,-133 561.25,-114.76 507.43,-132.81 305.51,-97 291.01,-94.43 275.21,-90.16 262.21,-86.23"/>
<polygon fill="#63b8ff" stroke="#63b8ff" points="837.85,-143.57 848.16,-141.1 838.56,-136.61 837.85,-143.57"/>
</a>
</g>
</g>
<!-- Node12&#45;&gt;Node6 -->
<g id="edge20_Node000012_Node000006" class="edge">
<title>Node12&#45;&gt;Node6</title>
<g id="a_edge20_Node000012_Node000006"><a xlink:title=" ">
<path fill="none" stroke="#63b8ff" d="M838.38,-140.09C815.22,-137.75 789.25,-135.19 765.51,-133 670.68,-124.25 423.91,-139.13 338.51,-97 316,-85.9 322.08,-68.06 300.51,-55.25 257.91,-29.96 201.64,-18.97 162.8,-14.22"/>
<polygon fill="#63b8ff" stroke="#63b8ff" points="837.85,-143.66 848.15,-141.18 838.55,-136.69 837.85,-143.66"/>
</a>
</g>
</g>
<!-- Node12&#45;&gt;Node7 -->
<g id="edge28_Node000012_Node000007" class="edge">
<title>Node12&#45;&gt;Node7</title>
<g id="a_edge28_Node000012_Node000007"><a xlink:title=" ">
<path fill="none" stroke="#63b8ff" d="M838.41,-139.76C815.25,-137.4 789.28,-134.91 765.51,-133 500.54,-111.72 430.94,-139.25 168.51,-97 160.26,-95.67 151.61,-93.82 143.24,-91.78"/>
<polygon fill="#63b8ff" stroke="#63b8ff" points="837.87,-143.32 848.18,-140.87 838.59,-136.36 837.87,-143.32"/>
</a>
</g>
</g>
<!-- Node13 -->
<g id="Node000013" class="node">
<title>Node13</title>
<g id="a_Node000013"><a xlink:href="../../d0/d86/camera-movement_8hpp.html" target="_top" xlink:title=" ">
<polygon fill="white" stroke="#666666" points="985.26,-85.75 829.76,-85.75 829.76,-66.5 985.26,-66.5 985.26,-85.75"/>
<text text-anchor="middle" x="907.51" y="-72.25" font-family="Helvetica,sans-Serif" font-size="10.00">d3d_test/camera&#45;movement.hpp</text>
</a>
</g>
</g>
<!-- Node12&#45;&gt;Node13 -->
<g id="edge16_Node000012_Node000013" class="edge">
<title>Node12&#45;&gt;Node13</title>
<g id="a_edge16_Node000012_Node000013"><a xlink:title=" ">
<path fill="none" stroke="#63b8ff" d="M907.51,-127.7C907.51,-114.1 907.51,-96.6 907.51,-86.16"/>
<polygon fill="#63b8ff" stroke="#63b8ff" points="904.01,-127.37 907.51,-137.37 911.01,-127.37 904.01,-127.37"/>
</a>
</g>
</g>
<!-- Node15 -->
<g id="Node000015" class="node">
<title>Node15</title>
<g id="a_Node000015"><a xlink:href="../../da/df5/object-editor_8hpp.html" target="_top" xlink:title=" ">
<polygon fill="white" stroke="#666666" points="1281.38,-85.75 1153.63,-85.75 1153.63,-66.5 1281.38,-66.5 1281.38,-85.75"/>
<text text-anchor="middle" x="1217.51" y="-72.25" font-family="Helvetica,sans-Serif" font-size="10.00">d3d_test/object&#45;editor.hpp</text>
</a>
</g>
</g>
<!-- Node12&#45;&gt;Node15 -->
<g id="edge21_Node000012_Node000015" class="edge">
<title>Node12&#45;&gt;Node15</title>
<g id="a_edge21_Node000012_Node000015"><a xlink:title=" ">
<path fill="none" stroke="#63b8ff" d="M964.53,-136.11C1012.66,-126.48 1083.32,-111.8 1144.51,-97 1158.04,-93.73 1172.88,-89.76 1185.63,-86.23"/>
<polygon fill="#63b8ff" stroke="#63b8ff" points="964.13,-132.82 955,-138.2 965.5,-139.68 964.13,-132.82"/>
</a>
</g>
</g>
<!-- Node18 -->
<g id="Node000018" class="node">
<title>Node18</title>
<g id="a_Node000018"><a xlink:href="../../d9/d55/scene-viewer_8hpp.html" target="_top" xlink:title=" ">
<polygon fill="white" stroke="#666666" points="1135.63,-85.75 1003.38,-85.75 1003.38,-66.5 1135.63,-66.5 1135.63,-85.75"/>
<text text-anchor="middle" x="1069.51" y="-72.25" font-family="Helvetica,sans-Serif" font-size="10.00">d3d_test/scene&#45;viewer.hpp</text>
</a>
</g>
</g>
<!-- Node12&#45;&gt;Node18 -->
<g id="edge25_Node000012_Node000018" class="edge">
<title>Node12&#45;&gt;Node18</title>
<g id="a_edge25_Node000012_Node000018"><a xlink:title=" ">
<path fill="none" stroke="#63b8ff" d="M938.16,-133.98C970.44,-120.01 1020.4,-98.38 1048.48,-86.23"/>
<polygon fill="#63b8ff" stroke="#63b8ff" points="937.14,-131.04 929.35,-138.23 939.92,-137.47 937.14,-131.04"/>
</a>
</g>
</g>
<!-- Node19 -->
<g id="Node000019" class="node">
<title>Node19</title>
<g id="a_Node000019"><a xlink:href="../../da/d5c/engine_8cpp.html" target="_top" xlink:title=" ">
<polygon fill="white" stroke="#666666" points="1415.38,-85.75 1299.63,-85.75 1299.63,-66.5 1415.38,-66.5 1415.38,-85.75"/>
<text text-anchor="middle" x="1357.51" y="-72.25" font-family="Helvetica,sans-Serif" font-size="10.00">engine/core/engine.cpp</text>
</a>
</g>
</g>
<!-- Node12&#45;&gt;Node19 -->
<g id="edge27_Node000012_Node000019" class="edge">
<title>Node12&#45;&gt;Node19</title>
<g id="a_edge27_Node000012_Node000019"><a xlink:title=" ">
<path fill="none" stroke="#63b8ff" d="M963.37,-136.18C969.81,-135.04 976.3,-133.95 982.51,-133 1118.74,-112.12 1155.5,-124.7 1290.51,-97 1303.94,-94.24 1318.57,-90.05 1330.72,-86.22"/>
<polygon fill="#63b8ff" stroke="#63b8ff" points="962.84,-132.9 953.63,-138.14 964.09,-139.79 962.84,-132.9"/>
</a>
</g>
</g>
<!-- Node12&#45;&gt;Node20 -->
<g id="edge29_Node000012_Node000020" class="edge">
<title>Node12&#45;&gt;Node20</title>
<g id="a_edge29_Node000012_Node000020"><a xlink:title=" ">
<path fill="none" stroke="#63b8ff" d="M961.8,-136.23C968.75,-135.03 975.78,-133.91 982.51,-133 1177.82,-106.57 1229.83,-127.78 1424.51,-97 1433.24,-95.62 1442.41,-93.82 1451.35,-91.87"/>
<polygon fill="#63b8ff" stroke="#63b8ff" points="961.22,-132.96 952,-138.17 962.47,-139.85 961.22,-132.96"/>
</a>
</g>
</g>
<!-- Node12&#45;&gt;Node21 -->
<g id="edge30_Node000012_Node000021" class="edge">
<title>Node12&#45;&gt;Node21</title>
<g id="a_edge30_Node000012_Node000021"><a xlink:title=" ">
<path fill="none" stroke="#63b8ff" d="M976.68,-137.83C991.14,-136.06 1006.31,-134.34 1020.51,-133 1274.55,-109.03 1341.7,-138.3 1593.51,-97 1596.39,-96.53 1599.33,-95.99 1602.29,-95.4"/>
<polygon fill="#63b8ff" stroke="#63b8ff" points="976.28,-134.48 966.79,-139.19 977.14,-141.42 976.28,-134.48"/>
</a>
</g>
</g>
<!-- Node12&#45;&gt;Node22 -->
<g id="edge31_Node000012_Node000022" class="edge">
<title>Node12&#45;&gt;Node22</title>
<g id="a_edge31_Node000012_Node000022"><a xlink:title=" ">
<path fill="none" stroke="#63b8ff" d="M976.33,-140.15C1002.09,-137.65 1031.62,-134.98 1058.51,-133 1361.67,-110.72 1441.29,-144.69 1741.51,-97 1744.4,-96.54 1747.34,-96.01 1750.3,-95.43"/>
<polygon fill="#63b8ff" stroke="#63b8ff" points="976.15,-136.75 966.54,-141.21 976.83,-143.71 976.15,-136.75"/>
</a>
</g>
</g>
<!-- Node23 -->
<g id="Node000023" class="node">
<title>Node23</title>
<g id="a_Node000023"><a xlink:href="../../df/d58/grass-render-system_8cpp.html" target="_top" xlink:title=" ">
<polygon fill="white" stroke="#666666" points="499.38,-91.38 347.63,-91.38 347.63,-60.88 499.38,-60.88 499.38,-91.38"/>
<text text-anchor="start" x="355.63" y="-77.88" font-family="Helvetica,sans-Serif" font-size="10.00">engine/subsystems/render</text>
<text text-anchor="middle" x="423.51" y="-66.62" font-family="Helvetica,sans-Serif" font-size="10.00">/detail/grass&#45;render&#45;system.cpp</text>
</a>
</g>
</g>
<!-- Node12&#45;&gt;Node23 -->
<g id="edge32_Node000012_Node000023" class="edge">
<title>Node12&#45;&gt;Node23</title>
<g id="a_edge32_Node000012_Node000023"><a xlink:title=" ">
<path fill="none" stroke="#63b8ff" d="M838.56,-139.45C741.69,-128.33 570.21,-108.07 508.51,-97 500.15,-95.5 491.39,-93.71 482.79,-91.82"/>
<polygon fill="#63b8ff" stroke="#63b8ff" points="838.09,-143.03 848.42,-140.69 838.88,-136.08 838.09,-143.03"/>
</a>
</g>
</g>
<!-- Node24 -->
<g id="Node000024" class="node">
<title>Node24</title>
<g id="a_Node000024"><a xlink:href="../../d8/d9c/light-render-system_8cpp.html" target="_top" xlink:title=" ">
<polygon fill="white" stroke="#666666" points="663.38,-91.38 517.63,-91.38 517.63,-60.88 663.38,-60.88 663.38,-91.38"/>
<text text-anchor="start" x="525.63" y="-77.88" font-family="Helvetica,sans-Serif" font-size="10.00">engine/subsystems/render</text>
<text text-anchor="middle" x="590.51" y="-66.62" font-family="Helvetica,sans-Serif" font-size="10.00">/detail/light&#45;render&#45;system.cpp</text>
</a>
</g>
</g>
<!-- Node12&#45;&gt;Node24 -->
<g id="edge33_Node000012_Node000024" class="edge">
<title>Node12&#45;&gt;Node24</title>
<g id="a_edge33_Node000012_Node000024"><a xlink:title=" ">
<path fill="none" stroke="#63b8ff" d="M852.54,-135.94C804.86,-126.02 734.02,-111.03 672.51,-97 665.37,-95.37 657.89,-93.62 650.47,-91.86"/>
<polygon fill="#63b8ff" stroke="#63b8ff" points="851.75,-139.55 862.25,-138.16 853.17,-132.7 851.75,-139.55"/>
</a>
</g>
</g>
<!-- Node25 -->
<g id="Node000025" class="node">
<title>Node25</title>
<g id="a_Node000025"><a xlink:href="../../d3/dfe/particle-render-system_8cpp.html" target="_top" xlink:title=" ">
<polygon fill="white" stroke="#666666" points="811.51,-97 681.51,-97 681.51,-55.25 811.51,-55.25 811.51,-97"/>
<text text-anchor="start" x="689.51" y="-83.5" font-family="Helvetica,sans-Serif" font-size="10.00">engine/subsystems/render</text>
<text text-anchor="start" x="689.51" y="-72.25" font-family="Helvetica,sans-Serif" font-size="10.00">/detail/particle&#45;render</text>
<text text-anchor="middle" x="746.51" y="-61" font-family="Helvetica,sans-Serif" font-size="10.00">&#45;system.cpp</text>
</a>
</g>
</g>
<!-- Node12&#45;&gt;Node25 -->
<g id="edge34_Node000012_Node000025" class="edge">
<title>Node12&#45;&gt;Node25</title>
<g id="a_edge34_Node000012_Node000025"><a xlink:title=" ">
<path fill="none" stroke="#63b8ff" d="M876.96,-133.95C853.31,-123.64 820.14,-109.2 793.17,-97.45"/>
<polygon fill="#63b8ff" stroke="#63b8ff" points="875.22,-137.44 885.79,-138.23 878.02,-131.02 875.22,-137.44"/>
</a>
</g>
</g>
<!-- Node13&#45;&gt;Node5 -->
<g id="edge18_Node000013_Node000005" class="edge">
<title>Node13&#45;&gt;Node5</title>
<g id="a_edge18_Node000013_Node000005"><a xlink:title=" ">
<path fill="none" stroke="#63b8ff" d="M939.45,-62C970.12,-49.4 1015.63,-30.71 1042.46,-19.68"/>
<polygon fill="#63b8ff" stroke="#63b8ff" points="938.59,-58.98 930.67,-66.02 941.25,-65.46 938.59,-58.98"/>
</a>
</g>
</g>
<!-- Node14 -->
<g id="Node000014" class="node">
<title>Node14</title>
<g id="a_Node000014"><a xlink:href="../../d5/dbb/camera-movement_8cpp.html" target="_top" xlink:title=" ">
<polygon fill="white" stroke="#666666" points="985.26,-19.25 829.76,-19.25 829.76,0 985.26,0 985.26,-19.25"/>
<text text-anchor="middle" x="907.51" y="-5.75" font-family="Helvetica,sans-Serif" font-size="10.00">d3d_test/camera&#45;movement.cpp</text>
</a>
</g>
</g>
<!-- Node13&#45;&gt;Node14 -->
<g id="edge17_Node000013_Node000014" class="edge">
<title>Node13&#45;&gt;Node14</title>
<g id="a_edge17_Node000013_Node000014"><a xlink:title=" ">
<path fill="none" stroke="#63b8ff" d="M907.51,-55.4C907.51,-43.43 907.51,-28.73 907.51,-19.52"/>
<polygon fill="#63b8ff" stroke="#63b8ff" points="904.01,-55.16 907.51,-65.16 911.01,-55.16 904.01,-55.16"/>
</a>
</g>
</g>
<!-- Node15&#45;&gt;Node5 -->
<g id="edge22_Node000015_Node000005" class="edge">
<title>Node15&#45;&gt;Node5</title>
<g id="a_edge22_Node000015_Node000005"><a xlink:title=" ">
<path fill="none" stroke="#63b8ff" d="M1185.99,-61.84C1156.11,-49.24 1112.03,-30.66 1085.99,-19.68"/>
<polygon fill="#63b8ff" stroke="#63b8ff" points="1184.34,-65.36 1194.91,-66.02 1187.06,-58.91 1184.34,-65.36"/>
</a>
</g>
</g>
<!-- Node16 -->
<g id="Node000016" class="node">
<title>Node16</title>
<g id="a_Node000016"><a xlink:href="../../d4/d94/object-editor_8cpp.html" target="_top" xlink:title=" ">
<polygon fill="white" stroke="#666666" points="1423.38,-19.25 1295.63,-19.25 1295.63,0 1423.38,0 1423.38,-19.25"/>
<text text-anchor="middle" x="1359.51" y="-5.75" font-family="Helvetica,sans-Serif" font-size="10.00">d3d_test/object&#45;editor.cpp</text>
</a>
</g>
</g>
<!-- Node15&#45;&gt;Node16 -->
<g id="edge23_Node000015_Node000016" class="edge">
<title>Node15&#45;&gt;Node16</title>
<g id="a_edge23_Node000015_Node000016"><a xlink:title=" ">
<path fill="none" stroke="#63b8ff" d="M1247.49,-61.51C1275.21,-48.92 1315.61,-30.56 1339.57,-19.68"/>
<polygon fill="#63b8ff" stroke="#63b8ff" points="1246.21,-58.7 1238.55,-66.02 1249.1,-65.07 1246.21,-58.7"/>
</a>
</g>
</g>
<!-- Node17 -->
<g id="Node000017" class="node">
<title>Node17</title>
<g id="a_Node000017"><a xlink:href="../../d0/d38/scene-viewer_8cpp.html" target="_top" xlink:title=" ">
<polygon fill="white" stroke="#666666" points="1277.63,-19.25 1145.38,-19.25 1145.38,0 1277.63,0 1277.63,-19.25"/>
<text text-anchor="middle" x="1211.51" y="-5.75" font-family="Helvetica,sans-Serif" font-size="10.00">d3d_test/scene&#45;viewer.cpp</text>
</a>
</g>
</g>
<!-- Node15&#45;&gt;Node17 -->
<g id="edge24_Node000015_Node000017" class="edge">
<title>Node15&#45;&gt;Node17</title>
<g id="a_edge24_Node000015_Node000017"><a xlink:title=" ">
<path fill="none" stroke="#63b8ff" d="M1215.67,-55.4C1214.56,-43.43 1213.19,-28.73 1212.33,-19.52"/>
<polygon fill="#63b8ff" stroke="#63b8ff" points="1212.26,-55.52 1216.67,-65.16 1219.23,-54.88 1212.26,-55.52"/>
</a>
</g>
</g>
<!-- Node18&#45;&gt;Node5 -->
<g id="edge26_Node000018_Node000005" class="edge">
<title>Node18&#45;&gt;Node5</title>
<g id="a_edge26_Node000018_Node000005"><a xlink:title=" ">
<path fill="none" stroke="#63b8ff" d="M1067.98,-55.4C1067.05,-43.43 1065.91,-28.73 1065.2,-19.52"/>
<polygon fill="#63b8ff" stroke="#63b8ff" points="1064.55,-55.46 1068.81,-65.16 1071.53,-54.92 1064.55,-55.46"/>
</a>
</g>
</g>
<!-- Node27&#45;&gt;Node1 -->
<g id="edge37_Node000027_Node000001" class="edge">
<title>Node27&#45;&gt;Node1</title>
<g id="a_edge37_Node000027_Node000001"><a xlink:title=" ">
<path fill="none" stroke="#63b8ff" d="M1258.43,-239.99C1229.11,-251.51 1190.5,-266.09 1160.9,-276.8"/>
<polygon fill="#63b8ff" stroke="#63b8ff" points="1259.38,-242.99 1267.39,-236.06 1256.8,-236.48 1259.38,-242.99"/>
</a>
</g>
</g>
</g>
</svg>
