<?xml version="1.0" encoding="UTF-8" standalone="no"?>
<!DOCTYPE svg PUBLIC "-//W3C//DTD SVG 1.1//EN"
 "http://www.w3.org/Graphics/SVG/1.1/DTD/svg11.dtd">
<!-- Generated by graphviz version 9.0.0 (20230911.1827)
 -->
<!-- Title: engine::core::MeshIntersection Pages: 1 -->
<svg width="285pt" height="238pt"
 viewBox="0.00 0.00 284.62 238.00" xmlns="http://www.w3.org/2000/svg" xmlns:xlink="http://www.w3.org/1999/xlink">

<svg id="main" version="1.1" xmlns="http://www.w3.org/2000/svg" xmlns:xlink="http://www.w3.org/1999/xlink" xml:space="preserve" onload="init(evt)">
<style type="text/css"><![CDATA[
.node, .edge {opacity: 0.7;}
.node.selected, .edge.selected {opacity: 1;}
.edge:hover path { stroke: red; }
.edge:hover polygon { stroke: red; fill: red; }
]]></style>
<script type="application/ecmascript" xlink:href="../../svg.min.js"/>
<svg id="graph" class="graph">
<g id="graph0" class="graph" transform="scale(1 1) rotate(0) translate(4 234)">
<title>engine::core::MeshIntersection</title>
<!-- Node1 -->
<g id="Node000001" class="node">
<title>Node1</title>
<g id="a_Node000001"><a xlink:title=" ">
<polygon fill="#999999" stroke="#666666" points="147.25,-19.25 0,-19.25 0,0 147.25,0 147.25,-19.25"/>
<text text-anchor="middle" x="73.62" y="-5.75" font-family="Helvetica,sans-Serif" font-size="10.00">engine::core::MeshIntersection</text>
</a>
</g>
</g>
<!-- Node2 -->
<g id="Node000002" class="node">
<title>Node2</title>
<g id="a_Node000002"><a xlink:title=" ">
<polygon fill="white" stroke="#666666" points="104.25,-85.75 11,-85.75 11,-66.5 104.25,-66.5 104.25,-85.75"/>
<text text-anchor="middle" x="57.62" y="-72.25" font-family="Helvetica,sans-Serif" font-size="10.00">math::Intersection</text>
</a>
</g>
</g>
<!-- Node2&#45;&gt;Node1 -->
<g id="edge1_Node000001_Node000002" class="edge">
<title>Node2&#45;&gt;Node1</title>
<g id="a_edge1_Node000001_Node000002"><a xlink:title=" ">
<path fill="none" stroke="#63b8ff" d="M62.61,-55.02C65.56,-43.12 69.16,-28.63 71.42,-19.52"/>
<polygon fill="#63b8ff" stroke="#63b8ff" points="59.22,-54.14 60.21,-64.69 66.02,-55.82 59.22,-54.14"/>
</a>
</g>
</g>
<!-- Node3 -->
<g id="Node000003" class="node">
<title>Node3</title>
<g id="a_Node000003"><a xlink:href="../../d7/d90/structengine_1_1render_1_1_mesh.html" target="_top" xlink:title=" ">
<polygon fill="white" stroke="#666666" points="226.88,-85.75 122.38,-85.75 122.38,-66.5 226.88,-66.5 226.88,-85.75"/>
<text text-anchor="middle" x="174.62" y="-72.25" font-family="Helvetica,sans-Serif" font-size="10.00">engine::render::Mesh</text>
</a>
</g>
</g>
<!-- Node3&#45;&gt;Node1 -->
<g id="edge2_Node000001_Node000003" class="edge">
<title>Node3&#45;&gt;Node1</title>
<g id="a_edge2_Node000001_Node000003"><a xlink:title=" ">
<path fill="none" stroke="#9a32cd" stroke-dasharray="5,2" d="M151.14,-60.13C131.56,-47.62 104.31,-30.22 87.87,-19.73"/>
<polygon fill="#9a32cd" stroke="#9a32cd" points="148.99,-62.91 159.31,-65.34 152.76,-57.01 148.99,-62.91"/>
</a>
</g>
<text text-anchor="middle" x="152" y="-39" font-family="Helvetica,sans-Serif" font-size="10.00" fill="grey"> mesh_ptr</text>
</g>
<!-- Node4 -->
<g id="Node000004" class="node">
<title>Node4</title>
<g id="a_Node000004"><a xlink:title=" ">
<polygon fill="white" stroke="#666666" points="146.5,-163.5 48.75,-163.5 48.75,-133 146.5,-133 146.5,-163.5"/>
<text text-anchor="start" x="56.75" y="-150" font-family="Helvetica,sans-Serif" font-size="10.00">std::vector&lt; engine</text>
<text text-anchor="middle" x="97.62" y="-138.75" font-family="Helvetica,sans-Serif" font-size="10.00">::render::Vertex &gt;</text>
</a>
</g>
</g>
<!-- Node4&#45;&gt;Node3 -->
<g id="edge3_Node000003_Node000004" class="edge">
<title>Node4&#45;&gt;Node3</title>
<g id="a_edge3_Node000003_Node000004"><a xlink:title=" ">
<path fill="none" stroke="#9a32cd" stroke-dasharray="5,2" d="M121.74,-125.29C136.37,-111.96 154.24,-95.69 165.01,-85.88"/>
<polygon fill="#9a32cd" stroke="#9a32cd" points="119.74,-122.38 114.7,-131.7 124.45,-127.56 119.74,-122.38"/>
</a>
</g>
<text text-anchor="middle" x="164" y="-105.5" font-family="Helvetica,sans-Serif" font-size="10.00" fill="grey"> vertices</text>
</g>
<!-- Node5 -->
<g id="Node000005" class="node">
<title>Node5</title>
<g id="a_Node000005"><a xlink:href="../../d0/dc6/structengine_1_1render_1_1_vertex.html" target="_top" xlink:title=" ">
<polygon fill="white" stroke="#666666" points="151.75,-230 43.5,-230 43.5,-210.75 151.75,-210.75 151.75,-230"/>
<text text-anchor="middle" x="97.62" y="-216.5" font-family="Helvetica,sans-Serif" font-size="10.00">engine::render::Vertex</text>
</a>
</g>
</g>
<!-- Node5&#45;&gt;Node4 -->
<g id="edge4_Node000004_Node000005" class="edge">
<title>Node5&#45;&gt;Node4</title>
<g id="a_edge4_Node000004_Node000005"><a xlink:title=" ">
<path fill="none" stroke="#9a32cd" stroke-dasharray="5,2" d="M97.62,-199.17C97.62,-187.91 97.62,-174.14 97.62,-163.92"/>
<polygon fill="#9a32cd" stroke="#9a32cd" points="94.13,-198.98 97.63,-208.98 101.13,-198.98 94.13,-198.98"/>
</a>
</g>
<text text-anchor="middle" x="118.62" y="-183.25" font-family="Helvetica,sans-Serif" font-size="10.00" fill="grey"> elements</text>
</g>
<!-- Node6 -->
<g id="Node000006" class="node">
<title>Node6</title>
<g id="a_Node000006"><a xlink:title=" ">
<polygon fill="white" stroke="#666666" points="276.62,-157.88 164.62,-157.88 164.62,-138.62 276.62,-138.62 276.62,-157.88"/>
<text text-anchor="middle" x="220.62" y="-144.38" font-family="Helvetica,sans-Serif" font-size="10.00">std::vector&lt; uint32_t &gt;</text>
</a>
</g>
</g>
<!-- Node6&#45;&gt;Node3 -->
<g id="edge5_Node000003_Node000006" class="edge">
<title>Node6&#45;&gt;Node3</title>
<g id="a_edge5_Node000003_Node000006"><a xlink:title=" ">
<path fill="none" stroke="#9a32cd" stroke-dasharray="5,2" d="M208.6,-128.92C199.58,-115.16 187.61,-96.92 180.55,-86.16"/>
<polygon fill="#9a32cd" stroke="#9a32cd" points="205.56,-130.66 213.97,-137.1 211.41,-126.82 205.56,-130.66"/>
</a>
</g>
<text text-anchor="middle" x="215.12" y="-105.5" font-family="Helvetica,sans-Serif" font-size="10.00" fill="grey"> indices</text>
</g>
</g>
</svg>
</svg>

<style type='text/css'>
<![CDATA[
[data-mouse-over-selected='false'] { opacity: 0.7; }
[data-mouse-over-selected='true']  { opacity: 1.0; }
]]>
</style>
<script type="application/ecmascript"><![CDATA[
document.addEventListener('DOMContentLoaded', (event) => {
  highlightEdges();
  highlightAdjacentNodes();
});
]]></script>
</svg>
