<?xml version="1.0" encoding="UTF-8" standalone="no"?>
<!DOCTYPE svg PUBLIC "-//W3C//DTD SVG 1.1//EN"
 "http://www.w3.org/Graphics/SVG/1.1/DTD/svg11.dtd">
<!-- Generated by graphviz version 8.1.0 (20230707.0739)
 -->
<!-- Title: engine/subsystems/core/shader&#45;compiler.hpp Pages: 1 -->
<!--zoomable 382 -->

<svg id="main" version="1.1" xmlns="http://www.w3.org/2000/svg" xmlns:xlink="http://www.w3.org/1999/xlink" xml:space="preserve" onload="init(evt)">
<style type="text/css"><![CDATA[
.node, .edge {opacity: 0.7;}
.node.selected, .edge.selected {opacity: 1;}
.edge:hover path { stroke: red; }
.edge:hover polygon { stroke: red; fill: red; }
]]></style>

<defs>
  <circle id="rim" cx="0" cy="0" r="7"/>
  <circle id="rim2" cx="0" cy="0" r="3.5"/>
  <g id="zoomPlus">
    <use xlink:href="#rim" fill="#404040"><set attributeName="fill" to="#808080" begin="zoomplus.mouseover" end="zoomplus.mouseout"/></use>
    <path d="M-4,0h8M0,-4v8" fill="none" stroke="white" stroke-width="1.5" pointer-events="none"/>
  </g>
  <g id="zoomMin">
    <use xlink:href="#rim" fill="#404040"><set attributeName="fill" to="#808080" begin="zoomminus.mouseover" end="zoomminus.mouseout"/></use>
    <path d="M-4,0h8" fill="none" stroke="white" stroke-width="1.5" pointer-events="none"/>
  </g>
  <g id="arrowUp" transform="translate(30 24)">
    <use xlink:href="#rim"/>
    <path pointer-events="none" fill="none" stroke="white" stroke-width="1.5" d="M0,-3.0v7 M-2.5,-0.5L0,-3.0L2.5,-0.5"/>
  </g>
  <g id="arrowRight" transform="rotate(90) translate(36 -43)">
    <use xlink:href="#rim"/>
    <path pointer-events="none" fill="none" stroke="white" stroke-width="1.5" d="M0,-3.0v7 M-2.5,-0.5L0,-3.0L2.5,-0.5"/>
  </g>
  <g id="arrowDown" transform="rotate(180) translate(-30 -48)">
    <use xlink:href="#rim"/>
    <path pointer-events="none" fill="none" stroke="white" stroke-width="1.5" d="M0,-3.0v7 M-2.5,-0.5L0,-3.0L2.5,-0.5"/>
  </g>
  <g id="arrowLeft" transform="rotate(270) translate(-36 17)">
    <use xlink:href="#rim"/>
    <path pointer-events="none" fill="none" stroke="white" stroke-width="1.5" d="M0,-3.0v7 M-2.5,-0.5L0,-3.0L2.5,-0.5"/>
  </g>
  <g id="resetDef">
    <use xlink:href="#rim2" fill="#404040"><set attributeName="fill" to="#808080" begin="reset.mouseover" end="reset.mouseout"/></use>
  </g>
</defs>
<script type="application/ecmascript">
var viewWidth = 2578;
var viewHeight = 382;
var sectionId = 'dynsection-1';
</script>
<script type="application/ecmascript" xlink:href="../../svg.min.js"/>
<svg id="graph" class="graph">
<g id="viewport">
<title>engine/subsystems/core/shader&#45;compiler.hpp</title>
<!-- Node1 -->
<g id="Node000001" class="node">
<title>Node1</title>
<g id="a_Node000001"><a xlink:title=" ">
<polygon fill="#999999" stroke="#666666" points="1556.75,-374.25 1435,-374.25 1435,-343.75 1556.75,-343.75 1556.75,-374.25"/>
<text text-anchor="start" x="1443" y="-360.75" font-family="Helvetica,sans-Serif" font-size="10.00">engine/subsystems/core</text>
<text text-anchor="middle" x="1495.88" y="-349.5" font-family="Helvetica,sans-Serif" font-size="10.00">/shader&#45;compiler.hpp</text>
</a>
</g>
</g>
<!-- Node2 -->
<g id="Node000002" class="node">
<title>Node2</title>
<g id="a_Node000002"><a xlink:href="../../da/d47/core_8hpp.html" target="_top" xlink:title=" ">
<polygon fill="white" stroke="#666666" points="1192.75,-235.62 1071,-235.62 1071,-205.12 1192.75,-205.12 1192.75,-235.62"/>
<text text-anchor="start" x="1079" y="-222.12" font-family="Helvetica,sans-Serif" font-size="10.00">engine/subsystems/core</text>
<text text-anchor="middle" x="1131.88" y="-210.88" font-family="Helvetica,sans-Serif" font-size="10.00">/core.hpp</text>
</a>
</g>
</g>
<!-- Node1&#45;&gt;Node2 -->
<g id="edge1_Node000001_Node000002" class="edge">
<title>Node1&#45;&gt;Node2</title>
<g id="a_edge1_Node000001_Node000002"><a xlink:title=" ">
<path fill="none" stroke="#63b8ff" d="M1447.06,-339.68C1374.09,-312.29 1238.02,-261.22 1171.1,-236.1"/>
<polygon fill="#63b8ff" stroke="#63b8ff" points="1445.33,-343.14 1455.92,-343.38 1447.79,-336.59 1445.33,-343.14"/>
</a>
</g>
</g>
<!-- Node21 -->
<g id="Node000021" class="node">
<title>Node21</title>
<g id="a_Node000021"><a xlink:href="../../d1/de7/shader-compiler_8cpp.html" target="_top" xlink:title=" ">
<polygon fill="white" stroke="#666666" points="1556.75,-307.75 1435,-307.75 1435,-277.25 1556.75,-277.25 1556.75,-307.75"/>
<text text-anchor="start" x="1443" y="-294.25" font-family="Helvetica,sans-Serif" font-size="10.00">engine/subsystems/core</text>
<text text-anchor="middle" x="1495.88" y="-283" font-family="Helvetica,sans-Serif" font-size="10.00">/shader&#45;compiler.cpp</text>
</a>
</g>
</g>
<!-- Node1&#45;&gt;Node21 -->
<g id="edge24_Node000001_Node000021" class="edge">
<title>Node1&#45;&gt;Node21</title>
<g id="a_edge24_Node000001_Node000021"><a xlink:title=" ">
<path fill="none" stroke="#63b8ff" d="M1495.88,-332.63C1495.88,-324.3 1495.88,-315.33 1495.88,-308.08"/>
<polygon fill="#63b8ff" stroke="#63b8ff" points="1492.38,-332.36 1495.88,-342.36 1499.38,-332.36 1492.38,-332.36"/>
</a>
</g>
</g>
<!-- Node22 -->
<g id="Node000022" class="node">
<title>Node22</title>
<g id="a_Node000022"><a xlink:href="../../d4/d92/shader-manager_8hpp.html" target="_top" xlink:title=" ">
<polygon fill="white" stroke="#666666" points="1787.75,-307.75 1666,-307.75 1666,-277.25 1787.75,-277.25 1787.75,-307.75"/>
<text text-anchor="start" x="1674" y="-294.25" font-family="Helvetica,sans-Serif" font-size="10.00">engine/subsystems/core</text>
<text text-anchor="middle" x="1726.88" y="-283" font-family="Helvetica,sans-Serif" font-size="10.00">/shader&#45;manager.hpp</text>
</a>
</g>
</g>
<!-- Node1&#45;&gt;Node22 -->
<g id="edge25_Node000001_Node000022" class="edge">
<title>Node1&#45;&gt;Node22</title>
<g id="a_edge25_Node000001_Node000022"><a xlink:title=" ">
<path fill="none" stroke="#63b8ff" d="M1559.03,-340.37C1595.24,-330.26 1640.14,-317.72 1674.39,-308.15"/>
<polygon fill="#63b8ff" stroke="#63b8ff" points="1558.27,-337.22 1549.58,-343.28 1560.15,-343.96 1558.27,-337.22"/>
</a>
</g>
</g>
<!-- Node3 -->
<g id="Node000003" class="node">
<title>Node3</title>
<g id="a_Node000003"><a xlink:href="../../de/d46/engine_8hpp.html" target="_top" xlink:title=" ">
<polygon fill="white" stroke="#666666" points="1101.75,-157.88 986,-157.88 986,-138.62 1101.75,-138.62 1101.75,-157.88"/>
<text text-anchor="middle" x="1043.88" y="-144.38" font-family="Helvetica,sans-Serif" font-size="10.00">engine/core/engine.hpp</text>
</a>
</g>
</g>
<!-- Node2&#45;&gt;Node3 -->
<g id="edge2_Node000002_Node000003" class="edge">
<title>Node2&#45;&gt;Node3</title>
<g id="a_edge2_Node000002_Node000003"><a xlink:title=" ">
<path fill="none" stroke="#63b8ff" d="M1105.3,-198.2C1088.51,-184.82 1067.7,-168.23 1055.12,-158.21"/>
<polygon fill="#63b8ff" stroke="#63b8ff" points="1102.64,-201.35 1112.64,-204.85 1107,-195.88 1102.64,-201.35"/>
</a>
</g>
</g>
<!-- Node4 -->
<g id="Node000004" class="node">
<title>Node4</title>
<g id="a_Node000004"><a xlink:href="../../d0/d86/camera-movement_8hpp.html" target="_top" xlink:title=" ">
<polygon fill="white" stroke="#666666" points="467.62,-85.75 312.12,-85.75 312.12,-66.5 467.62,-66.5 467.62,-85.75"/>
<text text-anchor="middle" x="389.88" y="-72.25" font-family="Helvetica,sans-Serif" font-size="10.00">d3d_test/camera&#45;movement.hpp</text>
</a>
</g>
</g>
<!-- Node3&#45;&gt;Node4 -->
<g id="edge3_Node000003_Node000004" class="edge">
<title>Node3&#45;&gt;Node4</title>
<g id="a_edge3_Node000003_Node000004"><a xlink:title=" ">
<path fill="none" stroke="#63b8ff" d="M974.62,-144.16C867.42,-138.68 655.06,-125.12 476.88,-97 459.58,-94.27 440.6,-90.08 424.8,-86.25"/>
<polygon fill="#63b8ff" stroke="#63b8ff" points="974.44,-147.7 984.6,-144.71 974.79,-140.71 974.44,-147.7"/>
</a>
</g>
</g>
<!-- Node7 -->
<g id="Node000007" class="node">
<title>Node7</title>
<g id="a_Node000007"><a xlink:href="../../dc/dfb/controller_8hpp.html" target="_top" xlink:title=" ">
<polygon fill="white" stroke="#666666" points="1683,-85.75 1568.75,-85.75 1568.75,-66.5 1683,-66.5 1683,-85.75"/>
<text text-anchor="middle" x="1625.88" y="-72.25" font-family="Helvetica,sans-Serif" font-size="10.00">d3d_test/controller.hpp</text>
</a>
</g>
</g>
<!-- Node3&#45;&gt;Node7 -->
<g id="edge6_Node000003_Node000007" class="edge">
<title>Node3&#45;&gt;Node7</title>
<g id="a_edge6_Node000003_Node000007"><a xlink:title=" ">
<path fill="none" stroke="#63b8ff" d="M1113.01,-142.15C1233.07,-133.03 1475.3,-113.32 1558.88,-97 1572.45,-94.35 1587.22,-90.12 1599.43,-86.24"/>
<polygon fill="#63b8ff" stroke="#63b8ff" points="1112.84,-138.73 1103.13,-142.98 1113.36,-145.71 1112.84,-138.73"/>
</a>
</g>
</g>
<!-- Node8 -->
<g id="Node000008" class="node">
<title>Node8</title>
<g id="a_Node000008"><a xlink:href="../../d9/d0f/main_8cc.html" target="_top" xlink:title=" ">
<polygon fill="white" stroke="#666666" points="1713,-19.25 1622.75,-19.25 1622.75,0 1713,0 1713,-19.25"/>
<text text-anchor="middle" x="1667.88" y="-5.75" font-family="Helvetica,sans-Serif" font-size="10.00">d3d_test/main.cc</text>
</a>
</g>
</g>
<!-- Node3&#45;&gt;Node8 -->
<g id="edge9_Node000003_Node000008" class="edge">
<title>Node3&#45;&gt;Node8</title>
<g id="a_edge9_Node000003_Node000008"><a xlink:title=" ">
<path fill="none" stroke="#63b8ff" d="M1055.34,-129.06C1071.05,-104.77 1099.12,-63.79 1114.88,-55.25 1159.01,-31.31 1498.08,-16.77 1622.38,-12.19"/>
<polygon fill="#63b8ff" stroke="#63b8ff" points="1051.86,-127 1049.43,-137.31 1057.76,-130.77 1051.86,-127"/>
</a>
</g>
</g>
<!-- Node9 -->
<g id="Node000009" class="node">
<title>Node9</title>
<g id="a_Node000009"><a xlink:href="../../da/df5/object-editor_8hpp.html" target="_top" xlink:title=" ">
<polygon fill="white" stroke="#666666" points="763.75,-85.75 636,-85.75 636,-66.5 763.75,-66.5 763.75,-85.75"/>
<text text-anchor="middle" x="699.88" y="-72.25" font-family="Helvetica,sans-Serif" font-size="10.00">d3d_test/object&#45;editor.hpp</text>
</a>
</g>
</g>
<!-- Node3&#45;&gt;Node9 -->
<g id="edge10_Node000003_Node000009" class="edge">
<title>Node3&#45;&gt;Node9</title>
<g id="a_edge10_Node000003_Node000009"><a xlink:title=" ">
<path fill="none" stroke="#63b8ff" d="M976.62,-136.37C921.59,-127.08 841.86,-112.76 772.88,-97 759.05,-93.84 743.89,-89.81 730.99,-86.21"/>
<polygon fill="#63b8ff" stroke="#63b8ff" points="975.84,-139.95 986.28,-138.15 977,-133.05 975.84,-139.95"/>
</a>
</g>
</g>
<!-- Node12 -->
<g id="Node000012" class="node">
<title>Node12</title>
<g id="a_Node000012"><a xlink:href="../../d9/d55/scene-viewer_8hpp.html" target="_top" xlink:title=" ">
<polygon fill="white" stroke="#666666" points="618,-85.75 485.75,-85.75 485.75,-66.5 618,-66.5 618,-85.75"/>
<text text-anchor="middle" x="551.88" y="-72.25" font-family="Helvetica,sans-Serif" font-size="10.00">d3d_test/scene&#45;viewer.hpp</text>
</a>
</g>
</g>
<!-- Node3&#45;&gt;Node12 -->
<g id="edge14_Node000003_Node000012" class="edge">
<title>Node3&#45;&gt;Node12</title>
<g id="a_edge14_Node000003_Node000012"><a xlink:title=" ">
<path fill="none" stroke="#63b8ff" d="M974.99,-141.91C891.94,-134.78 748.36,-120.3 626.88,-97 612.06,-94.16 595.85,-90 582.31,-86.22"/>
<polygon fill="#63b8ff" stroke="#63b8ff" points="974.55,-145.47 984.81,-142.82 975.14,-138.49 974.55,-145.47"/>
</a>
</g>
</g>
<!-- Node13 -->
<g id="Node000013" class="node">
<title>Node13</title>
<g id="a_Node000013"><a xlink:href="../../da/d5c/engine_8cpp.html" target="_top" xlink:title=" ">
<polygon fill="white" stroke="#666666" points="897.75,-85.75 782,-85.75 782,-66.5 897.75,-66.5 897.75,-85.75"/>
<text text-anchor="middle" x="839.88" y="-72.25" font-family="Helvetica,sans-Serif" font-size="10.00">engine/core/engine.cpp</text>
</a>
</g>
</g>
<!-- Node3&#45;&gt;Node13 -->
<g id="edge16_Node000003_Node000013" class="edge">
<title>Node3&#45;&gt;Node13</title>
<g id="a_edge16_Node000003_Node000013"><a xlink:title=" ">
<path fill="none" stroke="#63b8ff" d="M1007.36,-134.7C966.81,-120.76 902.33,-98.59 866.35,-86.23"/>
<polygon fill="#63b8ff" stroke="#63b8ff" points="1006.03,-138.28 1016.62,-138.23 1008.3,-131.67 1006.03,-138.28"/>
</a>
</g>
</g>
<!-- Node14 -->
<g id="Node000014" class="node">
<title>Node14</title>
<g id="a_Node000014"><a xlink:href="../../d1/da2/deferred-hdr-render-pipeline_8cpp.html" target="_top" xlink:title=" ">
<polygon fill="white" stroke="#666666" points="1550.25,-91.38 1419.5,-91.38 1419.5,-60.88 1550.25,-60.88 1550.25,-91.38"/>
<text text-anchor="start" x="1427.5" y="-77.88" font-family="Helvetica,sans-Serif" font-size="10.00">engine/direct3d11/deferred</text>
<text text-anchor="middle" x="1484.88" y="-66.62" font-family="Helvetica,sans-Serif" font-size="10.00">&#45;hdr&#45;render&#45;pipeline.cpp</text>
</a>
</g>
</g>
<!-- Node3&#45;&gt;Node14 -->
<g id="edge17_Node000003_Node000014" class="edge">
<title>Node3&#45;&gt;Node14</title>
<g id="a_edge17_Node000003_Node000014"><a xlink:title=" ">
<path fill="none" stroke="#63b8ff" d="M1112.68,-140.45C1186.75,-132.53 1307.83,-117.81 1410.88,-97 1418.18,-95.53 1425.83,-93.75 1433.32,-91.86"/>
<polygon fill="#63b8ff" stroke="#63b8ff" points="1112.67,-137.04 1103.1,-141.57 1113.41,-144 1112.67,-137.04"/>
</a>
</g>
</g>
<!-- Node15 -->
<g id="Node000015" class="node">
<title>Node15</title>
<g id="a_Node000015"><a xlink:href="../../d8/d30/decal-render-system_8cpp.html" target="_top" xlink:title=" ">
<polygon fill="white" stroke="#666666" points="1890.38,-91.38 1739.38,-91.38 1739.38,-60.88 1890.38,-60.88 1890.38,-91.38"/>
<text text-anchor="start" x="1747.38" y="-77.88" font-family="Helvetica,sans-Serif" font-size="10.00">engine/subsystems/render</text>
<text text-anchor="middle" x="1814.88" y="-66.62" font-family="Helvetica,sans-Serif" font-size="10.00">/detail/decal&#45;render&#45;system.cpp</text>
</a>
</g>
</g>
<!-- Node3&#45;&gt;Node15 -->
<g id="edge18_Node000003_Node000015" class="edge">
<title>Node3&#45;&gt;Node15</title>
<g id="a_edge18_Node000003_Node000015"><a xlink:title=" ">
<path fill="none" stroke="#63b8ff" d="M1112.9,-142.63C1256.09,-132.91 1581.31,-110.2 1691.88,-97 1707.12,-95.18 1723.38,-92.84 1738.9,-90.41"/>
<polygon fill="#63b8ff" stroke="#63b8ff" points="1112.83,-139.19 1103.09,-143.36 1113.3,-146.17 1112.83,-139.19"/>
</a>
</g>
</g>
<!-- Node16 -->
<g id="Node000016" class="node">
<title>Node16</title>
<g id="a_Node000016"><a xlink:href="../../d1/d58/dissolution-render-system_8cpp.html" target="_top" xlink:title=" ">
<polygon fill="white" stroke="#666666" points="1253.88,-97 1123.88,-97 1123.88,-55.25 1253.88,-55.25 1253.88,-97"/>
<text text-anchor="start" x="1131.88" y="-83.5" font-family="Helvetica,sans-Serif" font-size="10.00">engine/subsystems/render</text>
<text text-anchor="start" x="1131.88" y="-72.25" font-family="Helvetica,sans-Serif" font-size="10.00">/detail/dissolution&#45;render</text>
<text text-anchor="middle" x="1188.88" y="-61" font-family="Helvetica,sans-Serif" font-size="10.00">&#45;system.cpp</text>
</a>
</g>
</g>
<!-- Node3&#45;&gt;Node16 -->
<g id="edge19_Node000003_Node000016" class="edge">
<title>Node3&#45;&gt;Node16</title>
<g id="a_edge19_Node000003_Node000016"><a xlink:title=" ">
<path fill="none" stroke="#63b8ff" d="M1072.25,-133.53C1093.49,-123.26 1122.88,-109.04 1146.85,-97.45"/>
<polygon fill="#63b8ff" stroke="#63b8ff" points="1071.01,-130.72 1063.53,-138.23 1074.06,-137.02 1071.01,-130.72"/>
</a>
</g>
</g>
<!-- Node17 -->
<g id="Node000017" class="node">
<title>Node17</title>
<g id="a_Node000017"><a xlink:href="../../d2/d11/emissive-particle-render-system_8cpp.html" target="_top" xlink:title=" ">
<polygon fill="white" stroke="#666666" points="1401.88,-97 1271.88,-97 1271.88,-55.25 1401.88,-55.25 1401.88,-97"/>
<text text-anchor="start" x="1279.88" y="-83.5" font-family="Helvetica,sans-Serif" font-size="10.00">engine/subsystems/render</text>
<text text-anchor="start" x="1279.88" y="-72.25" font-family="Helvetica,sans-Serif" font-size="10.00">/detail/emissive&#45;particle</text>
<text text-anchor="middle" x="1336.88" y="-61" font-family="Helvetica,sans-Serif" font-size="10.00">&#45;render&#45;system.cpp</text>
</a>
</g>
</g>
<!-- Node3&#45;&gt;Node17 -->
<g id="edge20_Node000003_Node000017" class="edge">
<title>Node3&#45;&gt;Node17</title>
<g id="a_edge20_Node000003_Node000017"><a xlink:title=" ">
<path fill="none" stroke="#63b8ff" d="M1096.11,-135.83C1140.56,-125.98 1206.05,-111.15 1262.88,-97 1265.71,-96.29 1268.61,-95.56 1271.54,-94.81"/>
<polygon fill="#63b8ff" stroke="#63b8ff" points="1095.57,-132.59 1086.56,-138.16 1097.08,-139.42 1095.57,-132.59"/>
</a>
</g>
</g>
<!-- Node18 -->
<g id="Node000018" class="node">
<title>Node18</title>
<g id="a_Node000018"><a xlink:href="../../df/d58/grass-render-system_8cpp.html" target="_top" xlink:title=" ">
<polygon fill="white" stroke="#666666" points="1067.75,-91.38 916,-91.38 916,-60.88 1067.75,-60.88 1067.75,-91.38"/>
<text text-anchor="start" x="924" y="-77.88" font-family="Helvetica,sans-Serif" font-size="10.00">engine/subsystems/render</text>
<text text-anchor="middle" x="991.88" y="-66.62" font-family="Helvetica,sans-Serif" font-size="10.00">/detail/grass&#45;render&#45;system.cpp</text>
</a>
</g>
</g>
<!-- Node3&#45;&gt;Node18 -->
<g id="edge21_Node000003_Node000018" class="edge">
<title>Node3&#45;&gt;Node18</title>
<g id="a_edge21_Node000003_Node000018"><a xlink:title=" ">
<path fill="none" stroke="#63b8ff" d="M1030.74,-129.54C1022.09,-117.88 1010.9,-102.78 1002.75,-91.79"/>
<polygon fill="#63b8ff" stroke="#63b8ff" points="1028.52,-131.42 1037.29,-137.37 1034.14,-127.25 1028.52,-131.42"/>
</a>
</g>
</g>
<!-- Node19 -->
<g id="Node000019" class="node">
<title>Node19</title>
<g id="a_Node000019"><a xlink:href="../../d8/d9c/light-render-system_8cpp.html" target="_top" xlink:title=" ">
<polygon fill="white" stroke="#666666" points="145.75,-91.38 0,-91.38 0,-60.88 145.75,-60.88 145.75,-91.38"/>
<text text-anchor="start" x="8" y="-77.88" font-family="Helvetica,sans-Serif" font-size="10.00">engine/subsystems/render</text>
<text text-anchor="middle" x="72.88" y="-66.62" font-family="Helvetica,sans-Serif" font-size="10.00">/detail/light&#45;render&#45;system.cpp</text>
</a>
</g>
</g>
<!-- Node3&#45;&gt;Node19 -->
<g id="edge22_Node000003_Node000019" class="edge">
<title>Node3&#45;&gt;Node19</title>
<g id="a_edge22_Node000003_Node000019"><a xlink:title=" ">
<path fill="none" stroke="#63b8ff" d="M974.66,-147.59C824.49,-147.4 457.9,-141.91 154.88,-97 146.04,-95.69 136.75,-93.88 127.74,-91.87"/>
<polygon fill="#63b8ff" stroke="#63b8ff" points="974.52,-151.09 984.52,-147.6 974.52,-144.09 974.52,-151.09"/>
</a>
</g>
</g>
<!-- Node20 -->
<g id="Node000020" class="node">
<title>Node20</title>
<g id="a_Node000020"><a xlink:href="../../d3/dfe/particle-render-system_8cpp.html" target="_top" xlink:title=" ">
<polygon fill="white" stroke="#666666" points="293.88,-97 163.88,-97 163.88,-55.25 293.88,-55.25 293.88,-97"/>
<text text-anchor="start" x="171.88" y="-83.5" font-family="Helvetica,sans-Serif" font-size="10.00">engine/subsystems/render</text>
<text text-anchor="start" x="171.88" y="-72.25" font-family="Helvetica,sans-Serif" font-size="10.00">/detail/particle&#45;render</text>
<text text-anchor="middle" x="228.88" y="-61" font-family="Helvetica,sans-Serif" font-size="10.00">&#45;system.cpp</text>
</a>
</g>
</g>
<!-- Node3&#45;&gt;Node20 -->
<g id="edge23_Node000003_Node000020" class="edge">
<title>Node3&#45;&gt;Node20</title>
<g id="a_edge23_Node000003_Node000020"><a xlink:title=" ">
<path fill="none" stroke="#63b8ff" d="M975.09,-147.04C843.59,-145.65 547.82,-137.8 302.88,-97 299.99,-96.52 297.05,-95.97 294.09,-95.38"/>
<polygon fill="#63b8ff" stroke="#63b8ff" points="974.75,-150.54 984.78,-147.14 974.82,-143.54 974.75,-150.54"/>
</a>
</g>
</g>
<!-- Node5 -->
<g id="Node000005" class="node">
<title>Node5</title>
<g id="a_Node000005"><a xlink:href="../../d5/dbb/camera-movement_8cpp.html" target="_top" xlink:title=" ">
<polygon fill="white" stroke="#666666" points="467.62,-19.25 312.12,-19.25 312.12,0 467.62,0 467.62,-19.25"/>
<text text-anchor="middle" x="389.88" y="-5.75" font-family="Helvetica,sans-Serif" font-size="10.00">d3d_test/camera&#45;movement.cpp</text>
</a>
</g>
</g>
<!-- Node4&#45;&gt;Node5 -->
<g id="edge4_Node000004_Node000005" class="edge">
<title>Node4&#45;&gt;Node5</title>
<g id="a_edge4_Node000004_Node000005"><a xlink:title=" ">
<path fill="none" stroke="#63b8ff" d="M389.88,-55.4C389.88,-43.43 389.88,-28.73 389.88,-19.52"/>
<polygon fill="#63b8ff" stroke="#63b8ff" points="386.38,-55.16 389.88,-65.16 393.38,-55.16 386.38,-55.16"/>
</a>
</g>
</g>
<!-- Node6 -->
<g id="Node000006" class="node">
<title>Node6</title>
<g id="a_Node000006"><a xlink:href="../../d1/d47/controller_8cpp.html" target="_top" xlink:title=" ">
<polygon fill="white" stroke="#666666" points="611,-19.25 496.75,-19.25 496.75,0 611,0 611,-19.25"/>
<text text-anchor="middle" x="553.88" y="-5.75" font-family="Helvetica,sans-Serif" font-size="10.00">d3d_test/controller.cpp</text>
</a>
</g>
</g>
<!-- Node4&#45;&gt;Node6 -->
<g id="edge5_Node000004_Node000006" class="edge">
<title>Node4&#45;&gt;Node6</title>
<g id="a_edge5_Node000004_Node000006"><a xlink:title=" ">
<path fill="none" stroke="#63b8ff" d="M423.24,-62C455.28,-49.4 502.82,-30.71 530.84,-19.68"/>
<polygon fill="#63b8ff" stroke="#63b8ff" points="422.05,-59.1 414.02,-66.02 424.61,-65.62 422.05,-59.1"/>
</a>
</g>
</g>
<!-- Node7&#45;&gt;Node6 -->
<g id="edge7_Node000007_Node000006" class="edge">
<title>Node7&#45;&gt;Node6</title>
<g id="a_edge7_Node000007_Node000006"><a xlink:title=" ">
<path fill="none" stroke="#63b8ff" d="M1590.33,-62.79C1580.28,-59.79 1569.25,-56.96 1558.88,-55.25 1148.11,12.48 1037.8,-53.1 622.88,-19.25 619.14,-18.95 615.31,-18.59 611.44,-18.2"/>
<polygon fill="#63b8ff" stroke="#63b8ff" points="1589.18,-66.41 1599.77,-66.06 1591.27,-59.73 1589.18,-66.41"/>
</a>
</g>
</g>
<!-- Node7&#45;&gt;Node8 -->
<g id="edge8_Node000007_Node000008" class="edge">
<title>Node7&#45;&gt;Node8</title>
<g id="a_edge8_Node000007_Node000008"><a xlink:title=" ">
<path fill="none" stroke="#63b8ff" d="M1637.52,-57.24C1645.51,-44.97 1655.77,-29.21 1662.08,-19.52"/>
<polygon fill="#63b8ff" stroke="#63b8ff" points="1634.24,-54.87 1631.71,-65.16 1640.1,-58.69 1634.24,-54.87"/>
</a>
</g>
</g>
<!-- Node9&#45;&gt;Node6 -->
<g id="edge11_Node000009_Node000006" class="edge">
<title>Node9&#45;&gt;Node6</title>
<g id="a_edge11_Node000009_Node000006"><a xlink:title=" ">
<path fill="none" stroke="#63b8ff" d="M669.42,-61.67C640.92,-49.08 599.11,-30.61 574.38,-19.68"/>
<polygon fill="#63b8ff" stroke="#63b8ff" points="667.7,-65.18 678.27,-66.02 670.53,-58.78 667.7,-65.18"/>
</a>
</g>
</g>
<!-- Node10 -->
<g id="Node000010" class="node">
<title>Node10</title>
<g id="a_Node000010"><a xlink:href="../../d4/d94/object-editor_8cpp.html" target="_top" xlink:title=" ">
<polygon fill="white" stroke="#666666" points="759.75,-19.25 632,-19.25 632,0 759.75,0 759.75,-19.25"/>
<text text-anchor="middle" x="695.88" y="-5.75" font-family="Helvetica,sans-Serif" font-size="10.00">d3d_test/object&#45;editor.cpp</text>
</a>
</g>
</g>
<!-- Node9&#45;&gt;Node10 -->
<g id="edge12_Node000009_Node000010" class="edge">
<title>Node9&#45;&gt;Node10</title>
<g id="a_edge12_Node000009_Node000010"><a xlink:title=" ">
<path fill="none" stroke="#63b8ff" d="M698.65,-55.4C697.91,-43.43 697,-28.73 696.43,-19.52"/>
<polygon fill="#63b8ff" stroke="#63b8ff" points="695.21,-55.39 699.32,-65.16 702.19,-54.96 695.21,-55.39"/>
</a>
</g>
</g>
<!-- Node11 -->
<g id="Node000011" class="node">
<title>Node11</title>
<g id="a_Node000011"><a xlink:href="../../d0/d38/scene-viewer_8cpp.html" target="_top" xlink:title=" ">
<polygon fill="white" stroke="#666666" points="910,-19.25 777.75,-19.25 777.75,0 910,0 910,-19.25"/>
<text text-anchor="middle" x="843.88" y="-5.75" font-family="Helvetica,sans-Serif" font-size="10.00">d3d_test/scene&#45;viewer.cpp</text>
</a>
</g>
</g>
<!-- Node9&#45;&gt;Node11 -->
<g id="edge13_Node000009_Node000011" class="edge">
<title>Node9&#45;&gt;Node11</title>
<g id="a_edge13_Node000009_Node000011"><a xlink:title=" ">
<path fill="none" stroke="#63b8ff" d="M729.91,-61.67C758.03,-49.08 799.26,-30.61 823.65,-19.68"/>
<polygon fill="#63b8ff" stroke="#63b8ff" points="728.9,-58.74 721.2,-66.02 731.76,-65.13 728.9,-58.74"/>
</a>
</g>
</g>
<!-- Node12&#45;&gt;Node6 -->
<g id="edge15_Node000012_Node000006" class="edge">
<title>Node12&#45;&gt;Node6</title>
<g id="a_edge15_Node000012_Node000006"><a xlink:title=" ">
<path fill="none" stroke="#63b8ff" d="M552.49,-55.4C552.86,-43.43 553.31,-28.73 553.6,-19.52"/>
<polygon fill="#63b8ff" stroke="#63b8ff" points="548.96,-55.05 552.15,-65.16 555.96,-55.27 548.96,-55.05"/>
</a>
</g>
</g>
<!-- Node22&#45;&gt;Node2 -->
<g id="edge37_Node000022_Node000002" class="edge">
<title>Node22&#45;&gt;Node2</title>
<g id="a_edge37_Node000022_Node000002"><a xlink:title=" ">
<path fill="none" stroke="#63b8ff" d="M1654.98,-284.86C1517.42,-272.12 1228.58,-245.15 1206.88,-241.25 1199.05,-239.85 1190.85,-238.03 1182.86,-236.07"/>
<polygon fill="#63b8ff" stroke="#63b8ff" points="1654.54,-288.43 1664.82,-285.87 1655.18,-281.46 1654.54,-288.43"/>
</a>
</g>
</g>
<!-- Node22&#45;&gt;Node15 -->
<g id="edge41_Node000022_Node000015" class="edge">
<title>Node22&#45;&gt;Node15</title>
<g id="a_edge41_Node000022_Node000015"><a xlink:title=" ">
<path fill="none" stroke="#63b8ff" d="M1799,-289.8C1996.46,-284.8 2533,-268.73 2558.88,-241.25 2653.57,-140.67 2098.44,-94.96 1890.85,-81.54"/>
<polygon fill="#63b8ff" stroke="#63b8ff" points="1799.07,-286.32 1789.17,-290.07 1799.25,-293.32 1799.07,-286.32"/>
</a>
</g>
</g>
<!-- Node22&#45;&gt;Node16 -->
<g id="edge42_Node000022_Node000016" class="edge">
<title>Node22&#45;&gt;Node16</title>
<g id="a_edge42_Node000022_Node000016"><a xlink:title=" ">
<path fill="none" stroke="#63b8ff" d="M1655.15,-284.84C1524.82,-272.6 1261.78,-247.26 1253.88,-241.25 1207.63,-206.11 1194.23,-133.06 1190.39,-97.48"/>
<polygon fill="#63b8ff" stroke="#63b8ff" points="1654.53,-288.39 1664.81,-285.84 1655.18,-281.42 1654.53,-288.39"/>
</a>
</g>
</g>
<!-- Node22&#45;&gt;Node17 -->
<g id="edge43_Node000022_Node000017" class="edge">
<title>Node22&#45;&gt;Node17</title>
<g id="a_edge43_Node000022_Node000017"><a xlink:title=" ">
<path fill="none" stroke="#63b8ff" d="M1655.34,-284.72C1530.19,-272.69 1284.11,-248.22 1277.88,-241.25 1245.8,-205.39 1258.86,-177.19 1277.88,-133 1283.95,-118.87 1295.55,-106.65 1306.87,-97.26"/>
<polygon fill="#63b8ff" stroke="#63b8ff" points="1654.67,-288.27 1664.96,-285.74 1655.34,-281.3 1654.67,-288.27"/>
</a>
</g>
</g>
<!-- Node23 -->
<g id="Node000023" class="node">
<title>Node23</title>
<g id="a_Node000023"><a xlink:href="../../de/d8e/deferred-resolve_8hpp.html" target="_top" xlink:title=" ">
<polygon fill="white" stroke="#666666" points="1399.25,-235.62 1286.5,-235.62 1286.5,-205.12 1399.25,-205.12 1399.25,-235.62"/>
<text text-anchor="start" x="1294.5" y="-222.12" font-family="Helvetica,sans-Serif" font-size="10.00">engine/render/deferred</text>
<text text-anchor="middle" x="1342.88" y="-210.88" font-family="Helvetica,sans-Serif" font-size="10.00">&#45;resolve.hpp</text>
</a>
</g>
</g>
<!-- Node22&#45;&gt;Node23 -->
<g id="edge26_Node000022_Node000023" class="edge">
<title>Node22&#45;&gt;Node23</title>
<g id="a_edge26_Node000022_Node000023"><a xlink:title=" ">
<path fill="none" stroke="#63b8ff" d="M1654.83,-282.95C1590.03,-274.6 1492.45,-260.34 1408.88,-241.25 1402.34,-239.76 1395.51,-237.97 1388.82,-236.08"/>
<polygon fill="#63b8ff" stroke="#63b8ff" points="1654.38,-286.55 1664.74,-284.35 1655.26,-279.61 1654.38,-286.55"/>
</a>
</g>
</g>
<!-- Node26 -->
<g id="Node000026" class="node">
<title>Node26</title>
<g id="a_Node000026"><a xlink:href="../../d2/deb/hdr-to-ldr-layer_8hpp.html" target="_top" xlink:title=" ">
<polygon fill="white" stroke="#666666" points="1520,-235.62 1417.75,-235.62 1417.75,-205.12 1520,-205.12 1520,-235.62"/>
<text text-anchor="start" x="1425.75" y="-222.12" font-family="Helvetica,sans-Serif" font-size="10.00">engine/render/hdr&#45;to</text>
<text text-anchor="middle" x="1468.88" y="-210.88" font-family="Helvetica,sans-Serif" font-size="10.00">&#45;ldr&#45;layer.hpp</text>
</a>
</g>
</g>
<!-- Node22&#45;&gt;Node26 -->
<g id="edge32_Node000022_Node000026" class="edge">
<title>Node22&#45;&gt;Node26</title>
<g id="a_edge32_Node000022_Node000026"><a xlink:title=" ">
<path fill="none" stroke="#63b8ff" d="M1655.51,-274.69C1617.69,-265.46 1570.57,-253.43 1528.88,-241.25 1523.4,-239.65 1517.67,-237.88 1512.02,-236.08"/>
<polygon fill="#63b8ff" stroke="#63b8ff" points="1654.37,-278.26 1664.91,-277.22 1656.02,-271.46 1654.37,-278.26"/>
</a>
</g>
</g>
<!-- Node27 -->
<g id="Node000027" class="node">
<title>Node27</title>
<g id="a_Node000027"><a xlink:href="../../da/d7b/present-swapchain_8hpp.html" target="_top" xlink:title=" ">
<polygon fill="white" stroke="#666666" points="1647.75,-235.62 1538,-235.62 1538,-205.12 1647.75,-205.12 1647.75,-235.62"/>
<text text-anchor="start" x="1546" y="-222.12" font-family="Helvetica,sans-Serif" font-size="10.00">engine/render/present</text>
<text text-anchor="middle" x="1592.88" y="-210.88" font-family="Helvetica,sans-Serif" font-size="10.00">&#45;swapchain.hpp</text>
</a>
</g>
</g>
<!-- Node22&#45;&gt;Node27 -->
<g id="edge34_Node000022_Node000027" class="edge">
<title>Node22&#45;&gt;Node27</title>
<g id="a_edge34_Node000022_Node000027"><a xlink:title=" ">
<path fill="none" stroke="#63b8ff" d="M1689.23,-271.8C1667.54,-260.45 1640.75,-246.43 1620.93,-236.06"/>
<polygon fill="#63b8ff" stroke="#63b8ff" points="1687.3,-275.26 1697.78,-276.8 1690.55,-269.06 1687.3,-275.26"/>
</a>
</g>
</g>
<!-- Node28 -->
<g id="Node000028" class="node">
<title>Node28</title>
<g id="a_Node000028"><a xlink:href="../../d9/d30/shader-manager_8cpp.html" target="_top" xlink:title=" ">
<polygon fill="white" stroke="#666666" points="1787.75,-235.62 1666,-235.62 1666,-205.12 1787.75,-205.12 1787.75,-235.62"/>
<text text-anchor="start" x="1674" y="-222.12" font-family="Helvetica,sans-Serif" font-size="10.00">engine/subsystems/core</text>
<text text-anchor="middle" x="1726.88" y="-210.88" font-family="Helvetica,sans-Serif" font-size="10.00">/shader&#45;manager.cpp</text>
</a>
</g>
</g>
<!-- Node22&#45;&gt;Node28 -->
<g id="edge38_Node000022_Node000028" class="edge">
<title>Node22&#45;&gt;Node28</title>
<g id="a_edge38_Node000022_Node000028"><a xlink:title=" ">
<path fill="none" stroke="#63b8ff" d="M1726.88,-266.18C1726.88,-256 1726.88,-244.63 1726.88,-235.89"/>
<polygon fill="#63b8ff" stroke="#63b8ff" points="1723.38,-265.97 1726.88,-275.97 1730.38,-265.97 1723.38,-265.97"/>
</a>
</g>
</g>
<!-- Node29 -->
<g id="Node000029" class="node">
<title>Node29</title>
<g id="a_Node000029"><a xlink:href="../../d5/d8f/shader-manager_8inl.html" target="_top" xlink:title=" ">
<polygon fill="white" stroke="#666666" points="1927.75,-235.62 1806,-235.62 1806,-205.12 1927.75,-205.12 1927.75,-235.62"/>
<text text-anchor="start" x="1814" y="-222.12" font-family="Helvetica,sans-Serif" font-size="10.00">engine/subsystems/core</text>
<text text-anchor="middle" x="1866.88" y="-210.88" font-family="Helvetica,sans-Serif" font-size="10.00">/shader&#45;manager.inl</text>
</a>
</g>
</g>
<!-- Node22&#45;&gt;Node29 -->
<g id="edge39_Node000022_Node000029" class="edge">
<title>Node22&#45;&gt;Node29</title>
<g id="a_edge39_Node000022_Node000029"><a xlink:title=" ">
<path fill="none" stroke="#63b8ff" d="M1760.07,-271.8C1781.76,-260.45 1809.93,-246.43 1831.95,-236.06"/>
<polygon fill="#63b8ff" stroke="#63b8ff" points="1758.81,-269.03 1751.61,-276.8 1762.09,-275.22 1758.81,-269.03"/>
</a>
</g>
</g>
<!-- Node30 -->
<g id="Node000030" class="node">
<title>Node30</title>
<g id="a_Node000030"><a xlink:href="../../d8/dcb/emissive-render-system_8cpp.html" target="_top" xlink:title=" ">
<polygon fill="white" stroke="#666666" points="2075.88,-241.25 1945.88,-241.25 1945.88,-199.5 2075.88,-199.5 2075.88,-241.25"/>
<text text-anchor="start" x="1953.88" y="-227.75" font-family="Helvetica,sans-Serif" font-size="10.00">engine/subsystems/render</text>
<text text-anchor="start" x="1953.88" y="-216.5" font-family="Helvetica,sans-Serif" font-size="10.00">/detail/emissive&#45;render</text>
<text text-anchor="middle" x="2010.88" y="-205.25" font-family="Helvetica,sans-Serif" font-size="10.00">&#45;system.cpp</text>
</a>
</g>
</g>
<!-- Node22&#45;&gt;Node30 -->
<g id="edge44_Node000022_Node000030" class="edge">
<title>Node22&#45;&gt;Node30</title>
<g id="a_edge44_Node000022_Node000030"><a xlink:title=" ">
<path fill="none" stroke="#63b8ff" d="M1798.7,-274.83C1839.32,-265.27 1891.01,-252.89 1936.88,-241.25 1939.71,-240.53 1942.61,-239.79 1945.53,-239.03"/>
<polygon fill="#63b8ff" stroke="#63b8ff" points="1798.03,-271.63 1789.09,-277.32 1799.63,-278.44 1798.03,-271.63"/>
</a>
</g>
</g>
<!-- Node31 -->
<g id="Node000031" class="node">
<title>Node31</title>
<g id="a_Node000031"><a xlink:href="../../d9/d5a/sort-lib_8cpp.html" target="_top" xlink:title=" ">
<polygon fill="white" stroke="#666666" points="2223.88,-235.62 2093.88,-235.62 2093.88,-205.12 2223.88,-205.12 2223.88,-235.62"/>
<text text-anchor="start" x="2101.88" y="-222.12" font-family="Helvetica,sans-Serif" font-size="10.00">engine/subsystems/render</text>
<text text-anchor="middle" x="2158.88" y="-210.88" font-family="Helvetica,sans-Serif" font-size="10.00">/detail/misc/sort&#45;lib.cpp</text>
</a>
</g>
</g>
<!-- Node22&#45;&gt;Node31 -->
<g id="edge45_Node000022_Node000031" class="edge">
<title>Node22&#45;&gt;Node31</title>
<g id="a_edge45_Node000022_Node000031"><a xlink:title=" ">
<path fill="none" stroke="#63b8ff" d="M1798.91,-284.02C1871.52,-275.87 1986.6,-261.27 2084.88,-241.25 2092.17,-239.76 2099.82,-237.98 2107.31,-236.09"/>
<polygon fill="#63b8ff" stroke="#63b8ff" points="1798.63,-280.65 1789.07,-285.23 1799.4,-287.6 1798.63,-280.65"/>
</a>
</g>
</g>
<!-- Node32 -->
<g id="Node000032" class="node">
<title>Node32</title>
<g id="a_Node000032"><a xlink:href="../../d1/d62/opaque-render-system_8cpp.html" target="_top" xlink:title=" ">
<polygon fill="white" stroke="#666666" points="2401.5,-235.62 2242.25,-235.62 2242.25,-205.12 2401.5,-205.12 2401.5,-235.62"/>
<text text-anchor="start" x="2250.25" y="-222.12" font-family="Helvetica,sans-Serif" font-size="10.00">engine/subsystems/render</text>
<text text-anchor="middle" x="2321.88" y="-210.88" font-family="Helvetica,sans-Serif" font-size="10.00">/detail/opaque&#45;render&#45;system.cpp</text>
</a>
</g>
</g>
<!-- Node22&#45;&gt;Node32 -->
<g id="edge46_Node000022_Node000032" class="edge">
<title>Node22&#45;&gt;Node32</title>
<g id="a_edge46_Node000022_Node000032"><a xlink:title=" ">
<path fill="none" stroke="#63b8ff" d="M1798.64,-287.11C1897.03,-280.47 2079.13,-265.96 2232.88,-241.25 2241.94,-239.79 2251.47,-237.98 2260.78,-236.04"/>
<polygon fill="#63b8ff" stroke="#63b8ff" points="1798.68,-283.67 1788.93,-287.83 1799.15,-290.65 1798.68,-283.67"/>
</a>
</g>
</g>
<!-- Node33 -->
<g id="Node000033" class="node">
<title>Node33</title>
<g id="a_Node000033"><a xlink:href="../../d3/dd8/skybox-manager_8cpp.html" target="_top" xlink:title=" ">
<polygon fill="white" stroke="#666666" points="2549.88,-235.62 2419.88,-235.62 2419.88,-205.12 2549.88,-205.12 2549.88,-235.62"/>
<text text-anchor="start" x="2427.88" y="-222.12" font-family="Helvetica,sans-Serif" font-size="10.00">engine/subsystems/render</text>
<text text-anchor="middle" x="2484.88" y="-210.88" font-family="Helvetica,sans-Serif" font-size="10.00">/skybox&#45;manager.cpp</text>
</a>
</g>
</g>
<!-- Node22&#45;&gt;Node33 -->
<g id="edge47_Node000022_Node000033" class="edge">
<title>Node22&#45;&gt;Node33</title>
<g id="a_edge47_Node000022_Node000033"><a xlink:title=" ">
<path fill="none" stroke="#63b8ff" d="M1799.15,-290.67C1924.53,-288.23 2190.08,-278.66 2410.88,-241.25 2418.88,-239.89 2427.26,-238.06 2435.4,-236.04"/>
<polygon fill="#63b8ff" stroke="#63b8ff" points="1799.12,-287.18 1789.19,-290.87 1799.25,-294.18 1799.12,-287.18"/>
</a>
</g>
</g>
<!-- Node24 -->
<g id="Node000024" class="node">
<title>Node24</title>
<g id="a_Node000024"><a xlink:href="../../db/df9/deferred-hdr-render-pipeline_8hpp.html" target="_top" xlink:title=" ">
<polygon fill="white" stroke="#666666" points="1604.25,-163.5 1473.5,-163.5 1473.5,-133 1604.25,-133 1604.25,-163.5"/>
<text text-anchor="start" x="1481.5" y="-150" font-family="Helvetica,sans-Serif" font-size="10.00">engine/direct3d11/deferred</text>
<text text-anchor="middle" x="1538.88" y="-138.75" font-family="Helvetica,sans-Serif" font-size="10.00">&#45;hdr&#45;render&#45;pipeline.hpp</text>
</a>
</g>
</g>
<!-- Node23&#45;&gt;Node24 -->
<g id="edge27_Node000023_Node000024" class="edge">
<title>Node23&#45;&gt;Node24</title>
<g id="a_edge27_Node000023_Node000024"><a xlink:title=" ">
<path fill="none" stroke="#63b8ff" d="M1394.13,-201.04C1426.46,-189.47 1467.67,-174.73 1497.84,-163.93"/>
<polygon fill="#63b8ff" stroke="#63b8ff" points="1393.2,-198.01 1384.96,-204.67 1395.56,-204.6 1393.2,-198.01"/>
</a>
</g>
</g>
<!-- Node25 -->
<g id="Node000025" class="node">
<title>Node25</title>
<g id="a_Node000025"><a xlink:href="../../d4/d7c/deferred-resolve_8cpp.html" target="_top" xlink:title=" ">
<polygon fill="white" stroke="#666666" points="1399.25,-163.5 1286.5,-163.5 1286.5,-133 1399.25,-133 1399.25,-163.5"/>
<text text-anchor="start" x="1294.5" y="-150" font-family="Helvetica,sans-Serif" font-size="10.00">engine/render/deferred</text>
<text text-anchor="middle" x="1342.88" y="-138.75" font-family="Helvetica,sans-Serif" font-size="10.00">&#45;resolve.cpp</text>
</a>
</g>
</g>
<!-- Node23&#45;&gt;Node25 -->
<g id="edge31_Node000023_Node000025" class="edge">
<title>Node23&#45;&gt;Node25</title>
<g id="a_edge31_Node000023_Node000025"><a xlink:title=" ">
<path fill="none" stroke="#63b8ff" d="M1342.88,-194.06C1342.88,-183.88 1342.88,-172.5 1342.88,-163.76"/>
<polygon fill="#63b8ff" stroke="#63b8ff" points="1339.38,-193.85 1342.88,-203.85 1346.38,-193.85 1339.38,-193.85"/>
</a>
</g>
</g>
<!-- Node24&#45;&gt;Node7 -->
<g id="edge28_Node000024_Node000007" class="edge">
<title>Node24&#45;&gt;Node7</title>
<g id="a_edge28_Node000024_Node000007"><a xlink:title=" ">
<path fill="none" stroke="#63b8ff" d="M1565.15,-126.07C1581.74,-112.7 1602.32,-96.11 1614.76,-86.08"/>
<polygon fill="#63b8ff" stroke="#63b8ff" points="1563.49,-123.72 1557.9,-132.72 1567.88,-129.17 1563.49,-123.72"/>
</a>
</g>
</g>
<!-- Node24&#45;&gt;Node8 -->
<g id="edge29_Node000024_Node000008" class="edge">
<title>Node24&#45;&gt;Node8</title>
<g id="a_edge29_Node000024_Node000008"><a xlink:title=" ">
<path fill="none" stroke="#63b8ff" d="M1615.23,-140.84C1644.05,-134.27 1674.13,-121.5 1691.88,-97 1709.4,-72.8 1687.14,-36.31 1674.91,-19.58"/>
<polygon fill="#63b8ff" stroke="#63b8ff" points="1614.8,-137.57 1605.7,-143 1616.2,-144.42 1614.8,-137.57"/>
</a>
</g>
</g>
<!-- Node24&#45;&gt;Node14 -->
<g id="edge30_Node000024_Node000014" class="edge">
<title>Node24&#45;&gt;Node14</title>
<g id="a_edge30_Node000024_Node000014"><a xlink:title=" ">
<path fill="none" stroke="#63b8ff" d="M1521.13,-124.21C1512.87,-113.48 1503.29,-101.03 1496.05,-91.64"/>
<polygon fill="#63b8ff" stroke="#63b8ff" points="1518.81,-125.93 1527.69,-131.72 1524.36,-121.66 1518.81,-125.93"/>
</a>
</g>
</g>
<!-- Node26&#45;&gt;Node24 -->
<g id="edge33_Node000026_Node000024" class="edge">
<title>Node26&#45;&gt;Node24</title>
<g id="a_edge33_Node000026_Node000024"><a xlink:title=" ">
<path fill="none" stroke="#63b8ff" d="M1490.91,-197.3C1501.84,-186.35 1514.73,-173.44 1524.39,-163.76"/>
<polygon fill="#63b8ff" stroke="#63b8ff" points="1488.97,-194.29 1484.38,-203.85 1493.92,-199.24 1488.97,-194.29"/>
</a>
</g>
</g>
<!-- Node27&#45;&gt;Node8 -->
<g id="edge35_Node000027_Node000008" class="edge">
<title>Node27&#45;&gt;Node8</title>
<g id="a_edge35_Node000027_Node000008"><a xlink:title=" ">
<path fill="none" stroke="#63b8ff" d="M1648.05,-201.13C1732.34,-172.72 1885.04,-118.89 1899.88,-97 1946.06,-28.87 1793.33,-14.34 1713.43,-11.34"/>
<polygon fill="#63b8ff" stroke="#63b8ff" points="1646.99,-198.13 1638.63,-204.63 1649.22,-204.77 1646.99,-198.13"/>
</a>
</g>
</g>
<!-- Node27&#45;&gt;Node24 -->
<g id="edge36_Node000027_Node000024" class="edge">
<title>Node27&#45;&gt;Node24</title>
<g id="a_edge36_Node000027_Node000024"><a xlink:title=" ">
<path fill="none" stroke="#63b8ff" d="M1575.13,-196.34C1566.87,-185.6 1557.29,-173.16 1550.05,-163.76"/>
<polygon fill="#63b8ff" stroke="#63b8ff" points="1572.81,-198.06 1581.69,-203.85 1578.36,-193.79 1572.81,-198.06"/>
</a>
</g>
</g>
<!-- Node29&#45;&gt;Node22 -->
<g id="edge40_Node000029_Node000022" class="edge">
<title>Node29&#45;&gt;Node22</title>
<g id="a_edge40_Node000029_Node000022"><a xlink:title=" ">
<path fill="none" stroke="#63b8ff" d="M1833.72,-241.06C1812.04,-252.4 1783.87,-266.42 1761.84,-276.8"/>
<polygon fill="#63b8ff" stroke="#63b8ff" points="1834.97,-243.82 1842.18,-236.06 1831.7,-237.64 1834.97,-243.82"/>
</a>
</g>
</g>
</g>
</svg>

<g id="navigator" transform="translate(0 0)" fill="#404254">
  <rect fill="#f2f5e9" fill-opacity="0.5" stroke="#606060" stroke-width=".5" x="0" y="0" width="60" height="60"/>
  <use id="zoomplus" xlink:href="#zoomPlus" x="17" y="9" onmousedown="handleZoom(evt,'in')"/>
  <use id="zoomminus" xlink:href="#zoomMin" x="42" y="9" onmousedown="handleZoom(evt,'out')"/>
  <use id="reset" xlink:href="#resetDef" x="30" y="36" onmousedown="handleReset()"/>
   <use id="arrowup" xlink:href="#arrowUp" x="0" y="0" onmousedown="handlePan(0,-1)"/>
  <use id="arrowright" xlink:href="#arrowRight" x="0" y="0" onmousedown="handlePan(1,0)"/>
  <use id="arrowdown" xlink:href="#arrowDown" x="0" y="0" onmousedown="handlePan(0,1)"/>
  <use id="arrowleft" xlink:href="#arrowLeft" x="0" y="0" onmousedown="handlePan(-1,0)"/>
</g>
<svg viewBox="0 0 15 15" width="100%" height="30px" preserveAspectRatio="xMaxYMin meet">
 <g id="arrow_out" transform="scale(0.3 0.3)">
  <a xlink:href="shader-compiler_8hpp__dep__incl_org.svg" target="_base">
   <rect id="button" ry="5" rx="5" y="6" x="6" height="38" width="38"
        fill="#f2f5e9" fill-opacity="0.5" stroke="#606060" stroke-width="1.0"/>
   <path id="arrow"
     d="M 11.500037,31.436501 C 11.940474,20.09759 22.043105,11.32322 32.158766,21.979434 L 37.068811,17.246167 C 37.068811,17.246167 37.088388,32 37.088388,32 L 22.160133,31.978069 C 22.160133,31.978069 26.997745,27.140456 26.997745,27.140456 C 18.528582,18.264221 13.291696,25.230495 11.500037,31.436501 z"
     style="fill:#404040;"/>
  </a>
 </g>
</svg>

<style type='text/css'>
<![CDATA[
[data-mouse-over-selected='false'] { opacity: 0.7; }
[data-mouse-over-selected='true']  { opacity: 1.0; }
]]>
</style>
<script type="application/ecmascript"><![CDATA[
document.addEventListener('DOMContentLoaded', (event) => {
  highlightEdges();
  highlightAdjacentNodes();
});
]]></script>
</svg>
