<?xml version="1.0" encoding="UTF-8" standalone="no"?>
<!DOCTYPE svg PUBLIC "-//W3C//DTD SVG 1.1//EN"
 "http://www.w3.org/Graphics/SVG/1.1/DTD/svg11.dtd">
<!-- Generated by graphviz version 9.0.0 (20230911.1827)
 -->
<!-- Title: engine/subsystems/core/shader&#45;compiler.hpp Pages: 1 -->
<svg width="2578pt" height="382pt"
 viewBox="0.00 0.00 2577.80 382.25" xmlns="http://www.w3.org/2000/svg" xmlns:xlink="http://www.w3.org/1999/xlink">
<g id="graph0" class="graph" transform="scale(1 1) rotate(0) translate(4 378.25)">
<title>engine/subsystems/core/shader&#45;compiler.hpp</title>
<!-- Node1 -->
<g id="Node000001" class="node">
<title>Node1</title>
<g id="a_Node000001"><a xlink:title=" ">
<polygon fill="#999999" stroke="#666666" points="1556.75,-374.25 1435,-374.25 1435,-343.75 1556.75,-343.75 1556.75,-374.25"/>
<text text-anchor="start" x="1443" y="-360.75" font-family="Helvetica,sans-Serif" font-size="10.00">engine/subsystems/core</text>
<text text-anchor="middle" x="1495.88" y="-349.5" font-family="Helvetica,sans-Serif" font-size="10.00">/shader&#45;compiler.hpp</text>
</a>
</g>
</g>
<!-- Node2 -->
<g id="Node000002" class="node">
<title>Node2</title>
<g id="a_Node000002"><a xlink:href="../../da/d47/core_8hpp.html" target="_top" xlink:title=" ">
<polygon fill="white" stroke="#666666" points="1192.75,-235.62 1071,-235.62 1071,-205.12 1192.75,-205.12 1192.75,-235.62"/>
<text text-anchor="start" x="1079" y="-222.12" font-family="Helvetica,sans-Serif" font-size="10.00">engine/subsystems/core</text>
<text text-anchor="middle" x="1131.88" y="-210.88" font-family="Helvetica,sans-Serif" font-size="10.00">/core.hpp</text>
</a>
</g>
</g>
<!-- Node1&#45;&gt;Node2 -->
<g id="edge1_Node000001_Node000002" class="edge">
<title>Node1&#45;&gt;Node2</title>
<g id="a_edge1_Node000001_Node000002"><a xlink:title=" ">
<path fill="none" stroke="#63b8ff" d="M1446.16,-339.34C1372.98,-311.87 1237.75,-261.11 1171.1,-236.1"/>
<polygon fill="#63b8ff" stroke="#63b8ff" points="1444.91,-342.61 1455.5,-342.85 1447.37,-336.06 1444.91,-342.61"/>
</a>
</g>
</g>
<!-- Node21 -->
<g id="Node000021" class="node">
<title>Node21</title>
<g id="a_Node000021"><a xlink:href="../../d1/de7/shader-compiler_8cpp.html" target="_top" xlink:title=" ">
<polygon fill="white" stroke="#666666" points="1556.75,-307.75 1435,-307.75 1435,-277.25 1556.75,-277.25 1556.75,-307.75"/>
<text text-anchor="start" x="1443" y="-294.25" font-family="Helvetica,sans-Serif" font-size="10.00">engine/subsystems/core</text>
<text text-anchor="middle" x="1495.88" y="-283" font-family="Helvetica,sans-Serif" font-size="10.00">/shader&#45;compiler.cpp</text>
</a>
</g>
</g>
<!-- Node1&#45;&gt;Node21 -->
<g id="edge24_Node000001_Node000021" class="edge">
<title>Node1&#45;&gt;Node21</title>
<g id="a_edge24_Node000001_Node000021"><a xlink:title=" ">
<path fill="none" stroke="#63b8ff" d="M1495.88,-332.06C1495.88,-323.89 1495.88,-315.16 1495.88,-308.08"/>
<polygon fill="#63b8ff" stroke="#63b8ff" points="1492.38,-331.85 1495.88,-341.85 1499.38,-331.85 1492.38,-331.85"/>
</a>
</g>
</g>
<!-- Node22 -->
<g id="Node000022" class="node">
<title>Node22</title>
<g id="a_Node000022"><a xlink:href="../../d4/d92/shader-manager_8hpp.html" target="_top" xlink:title=" ">
<polygon fill="white" stroke="#666666" points="1787.75,-307.75 1666,-307.75 1666,-277.25 1787.75,-277.25 1787.75,-307.75"/>
<text text-anchor="start" x="1674" y="-294.25" font-family="Helvetica,sans-Serif" font-size="10.00">engine/subsystems/core</text>
<text text-anchor="middle" x="1726.88" y="-283" font-family="Helvetica,sans-Serif" font-size="10.00">/shader&#45;manager.hpp</text>
</a>
</g>
</g>
<!-- Node1&#45;&gt;Node22 -->
<g id="edge25_Node000001_Node000022" class="edge">
<title>Node1&#45;&gt;Node22</title>
<g id="a_edge25_Node000001_Node000022"><a xlink:title=" ">
<path fill="none" stroke="#63b8ff" d="M1559.5,-340.24C1595.62,-330.15 1640.29,-317.68 1674.39,-308.15"/>
<polygon fill="#63b8ff" stroke="#63b8ff" points="1558.73,-336.82 1550.04,-342.88 1560.61,-343.56 1558.73,-336.82"/>
</a>
</g>
</g>
<!-- Node3 -->
<g id="Node000003" class="node">
<title>Node3</title>
<g id="a_Node000003"><a xlink:href="../../de/d46/engine_8hpp.html" target="_top" xlink:title=" ">
<polygon fill="white" stroke="#666666" points="1101.75,-157.88 986,-157.88 986,-138.62 1101.75,-138.62 1101.75,-157.88"/>
<text text-anchor="middle" x="1043.88" y="-144.38" font-family="Helvetica,sans-Serif" font-size="10.00">engine/core/engine.hpp</text>
</a>
</g>
</g>
<!-- Node2&#45;&gt;Node3 -->
<g id="edge2_Node000002_Node000003" class="edge">
<title>Node2&#45;&gt;Node3</title>
<g id="a_edge2_Node000002_Node000003"><a xlink:title=" ">
<path fill="none" stroke="#63b8ff" d="M1104.83,-197.83C1088.13,-184.52 1067.58,-168.14 1055.12,-158.21"/>
<polygon fill="#63b8ff" stroke="#63b8ff" points="1102.46,-200.41 1112.46,-203.9 1106.82,-194.93 1102.46,-200.41"/>
</a>
</g>
</g>
<!-- Node4 -->
<g id="Node000004" class="node">
<title>Node4</title>
<g id="a_Node000004"><a xlink:href="../../d0/d86/camera-movement_8hpp.html" target="_top" xlink:title=" ">
<polygon fill="white" stroke="#666666" points="467.62,-85.75 312.12,-85.75 312.12,-66.5 467.62,-66.5 467.62,-85.75"/>
<text text-anchor="middle" x="389.88" y="-72.25" font-family="Helvetica,sans-Serif" font-size="10.00">d3d_test/camera&#45;movement.hpp</text>
</a>
</g>
</g>
<!-- Node3&#45;&gt;Node4 -->
<g id="edge3_Node000003_Node000004" class="edge">
<title>Node3&#45;&gt;Node4</title>
<g id="a_edge3_Node000003_Node000004"><a xlink:title=" ">
<path fill="none" stroke="#63b8ff" d="M974.3,-144.14C866.99,-138.66 654.88,-125.09 476.88,-97 459.58,-94.27 440.6,-90.08 424.8,-86.25"/>
<polygon fill="#63b8ff" stroke="#63b8ff" points="973.93,-147.63 984.09,-144.63 974.28,-140.63 973.93,-147.63"/>
</a>
</g>
</g>
<!-- Node7 -->
<g id="Node000007" class="node">
<title>Node7</title>
<g id="a_Node000007"><a xlink:href="../../dc/dfb/controller_8hpp.html" target="_top" xlink:title=" ">
<polygon fill="white" stroke="#666666" points="1683,-85.75 1568.75,-85.75 1568.75,-66.5 1683,-66.5 1683,-85.75"/>
<text text-anchor="middle" x="1625.88" y="-72.25" font-family="Helvetica,sans-Serif" font-size="10.00">d3d_test/controller.hpp</text>
</a>
</g>
</g>
<!-- Node3&#45;&gt;Node7 -->
<g id="edge6_Node000003_Node000007" class="edge">
<title>Node3&#45;&gt;Node7</title>
<g id="a_edge6_Node000003_Node000007"><a xlink:title=" ">
<path fill="none" stroke="#63b8ff" d="M1113.37,-142.13C1233.56,-132.99 1475.38,-113.3 1558.88,-97 1572.45,-94.35 1587.22,-90.12 1599.43,-86.24"/>
<polygon fill="#63b8ff" stroke="#63b8ff" points="1113.35,-138.62 1103.64,-142.86 1113.87,-145.6 1113.35,-138.62"/>
</a>
</g>
</g>
<!-- Node8 -->
<g id="Node000008" class="node">
<title>Node8</title>
<g id="a_Node000008"><a xlink:href="../../d9/d0f/main_8cc.html" target="_top" xlink:title=" ">
<polygon fill="white" stroke="#666666" points="1713,-19.25 1622.75,-19.25 1622.75,0 1713,0 1713,-19.25"/>
<text text-anchor="middle" x="1667.88" y="-5.75" font-family="Helvetica,sans-Serif" font-size="10.00">d3d_test/main.cc</text>
</a>
</g>
</g>
<!-- Node3&#45;&gt;Node8 -->
<g id="edge9_Node000003_Node000008" class="edge">
<title>Node3&#45;&gt;Node8</title>
<g id="a_edge9_Node000003_Node000008"><a xlink:title=" ">
<path fill="none" stroke="#63b8ff" d="M1055.55,-128.74C1071.3,-104.41 1099.19,-63.76 1114.88,-55.25 1159.01,-31.31 1498.08,-16.77 1622.38,-12.19"/>
<polygon fill="#63b8ff" stroke="#63b8ff" points="1052.68,-126.72 1050.24,-137.03 1058.58,-130.49 1052.68,-126.72"/>
</a>
</g>
</g>
<!-- Node9 -->
<g id="Node000009" class="node">
<title>Node9</title>
<g id="a_Node000009"><a xlink:href="../../da/df5/object-editor_8hpp.html" target="_top" xlink:title=" ">
<polygon fill="white" stroke="#666666" points="763.75,-85.75 636,-85.75 636,-66.5 763.75,-66.5 763.75,-85.75"/>
<text text-anchor="middle" x="699.88" y="-72.25" font-family="Helvetica,sans-Serif" font-size="10.00">d3d_test/object&#45;editor.hpp</text>
</a>
</g>
</g>
<!-- Node3&#45;&gt;Node9 -->
<g id="edge10_Node000003_Node000009" class="edge">
<title>Node3&#45;&gt;Node9</title>
<g id="a_edge10_Node000003_Node000009"><a xlink:title=" ">
<path fill="none" stroke="#63b8ff" d="M976.27,-136.31C921.25,-127.02 841.72,-112.73 772.88,-97 759.05,-93.84 743.89,-89.81 730.99,-86.21"/>
<polygon fill="#63b8ff" stroke="#63b8ff" points="975.35,-139.7 985.79,-137.9 976.51,-132.8 975.35,-139.7"/>
</a>
</g>
</g>
<!-- Node12 -->
<g id="Node000012" class="node">
<title>Node12</title>
<g id="a_Node000012"><a xlink:href="../../d9/d55/scene-viewer_8hpp.html" target="_top" xlink:title=" ">
<polygon fill="white" stroke="#666666" points="618,-85.75 485.75,-85.75 485.75,-66.5 618,-66.5 618,-85.75"/>
<text text-anchor="middle" x="551.88" y="-72.25" font-family="Helvetica,sans-Serif" font-size="10.00">d3d_test/scene&#45;viewer.hpp</text>
</a>
</g>
</g>
<!-- Node3&#45;&gt;Node12 -->
<g id="edge14_Node000003_Node000012" class="edge">
<title>Node3&#45;&gt;Node12</title>
<g id="a_edge14_Node000003_Node000012"><a xlink:title=" ">
<path fill="none" stroke="#63b8ff" d="M974.48,-141.86C891.35,-134.73 748.11,-120.25 626.88,-97 612.06,-94.16 595.85,-90 582.31,-86.22"/>
<polygon fill="#63b8ff" stroke="#63b8ff" points="974.04,-145.34 984.3,-142.69 974.63,-138.36 974.04,-145.34"/>
</a>
</g>
</g>
<!-- Node13 -->
<g id="Node000013" class="node">
<title>Node13</title>
<g id="a_Node000013"><a xlink:href="../../da/d5c/engine_8cpp.html" target="_top" xlink:title=" ">
<polygon fill="white" stroke="#666666" points="897.75,-85.75 782,-85.75 782,-66.5 897.75,-66.5 897.75,-85.75"/>
<text text-anchor="middle" x="839.88" y="-72.25" font-family="Helvetica,sans-Serif" font-size="10.00">engine/core/engine.cpp</text>
</a>
</g>
</g>
<!-- Node3&#45;&gt;Node13 -->
<g id="edge16_Node000003_Node000013" class="edge">
<title>Node3&#45;&gt;Node13</title>
<g id="a_edge16_Node000003_Node000013"><a xlink:title=" ">
<path fill="none" stroke="#63b8ff" d="M1006.84,-134.52C966.26,-120.57 902.17,-98.54 866.35,-86.23"/>
<polygon fill="#63b8ff" stroke="#63b8ff" points="1005.6,-137.79 1016.19,-137.73 1007.87,-131.17 1005.6,-137.79"/>
</a>
</g>
</g>
<!-- Node14 -->
<g id="Node000014" class="node">
<title>Node14</title>
<g id="a_Node000014"><a xlink:href="../../d1/da2/deferred-hdr-render-pipeline_8cpp.html" target="_top" xlink:title=" ">
<polygon fill="white" stroke="#666666" points="1550.25,-91.38 1419.5,-91.38 1419.5,-60.88 1550.25,-60.88 1550.25,-91.38"/>
<text text-anchor="start" x="1427.5" y="-77.88" font-family="Helvetica,sans-Serif" font-size="10.00">engine/direct3d11/deferred</text>
<text text-anchor="middle" x="1484.88" y="-66.62" font-family="Helvetica,sans-Serif" font-size="10.00">&#45;hdr&#45;render&#45;pipeline.cpp</text>
</a>
</g>
</g>
<!-- Node3&#45;&gt;Node14 -->
<g id="edge17_Node000003_Node000014" class="edge">
<title>Node3&#45;&gt;Node14</title>
<g id="a_edge17_Node000003_Node000014"><a xlink:title=" ">
<path fill="none" stroke="#63b8ff" d="M1113.13,-140.41C1187.25,-132.47 1308.04,-117.76 1410.88,-97 1418.18,-95.53 1425.83,-93.75 1433.32,-91.86"/>
<polygon fill="#63b8ff" stroke="#63b8ff" points="1113.18,-136.88 1103.6,-141.42 1113.92,-143.84 1113.18,-136.88"/>
</a>
</g>
</g>
<!-- Node15 -->
<g id="Node000015" class="node">
<title>Node15</title>
<g id="a_Node000015"><a xlink:href="../../d8/d30/decal-render-system_8cpp.html" target="_top" xlink:title=" ">
<polygon fill="white" stroke="#666666" points="1890.38,-91.38 1739.38,-91.38 1739.38,-60.88 1890.38,-60.88 1890.38,-91.38"/>
<text text-anchor="start" x="1747.38" y="-77.88" font-family="Helvetica,sans-Serif" font-size="10.00">engine/subsystems/render</text>
<text text-anchor="middle" x="1814.88" y="-66.62" font-family="Helvetica,sans-Serif" font-size="10.00">/detail/decal&#45;render&#45;system.cpp</text>
</a>
</g>
</g>
<!-- Node3&#45;&gt;Node15 -->
<g id="edge18_Node000003_Node000015" class="edge">
<title>Node3&#45;&gt;Node15</title>
<g id="a_edge18_Node000003_Node000015"><a xlink:title=" ">
<path fill="none" stroke="#63b8ff" d="M1113.33,-142.6C1256.74,-132.87 1581.42,-110.18 1691.88,-97 1707.12,-95.18 1723.38,-92.84 1738.9,-90.41"/>
<polygon fill="#63b8ff" stroke="#63b8ff" points="1113.34,-139.09 1103.6,-143.26 1113.81,-146.07 1113.34,-139.09"/>
</a>
</g>
</g>
<!-- Node16 -->
<g id="Node000016" class="node">
<title>Node16</title>
<g id="a_Node000016"><a xlink:href="../../d1/d58/dissolution-render-system_8cpp.html" target="_top" xlink:title=" ">
<polygon fill="white" stroke="#666666" points="1253.88,-97 1123.88,-97 1123.88,-55.25 1253.88,-55.25 1253.88,-97"/>
<text text-anchor="start" x="1131.88" y="-83.5" font-family="Helvetica,sans-Serif" font-size="10.00">engine/subsystems/render</text>
<text text-anchor="start" x="1131.88" y="-72.25" font-family="Helvetica,sans-Serif" font-size="10.00">/detail/dissolution&#45;render</text>
<text text-anchor="middle" x="1188.88" y="-61" font-family="Helvetica,sans-Serif" font-size="10.00">&#45;system.cpp</text>
</a>
</g>
</g>
<!-- Node3&#45;&gt;Node16 -->
<g id="edge19_Node000003_Node000016" class="edge">
<title>Node3&#45;&gt;Node16</title>
<g id="a_edge19_Node000003_Node000016"><a xlink:title=" ">
<path fill="none" stroke="#63b8ff" d="M1072.83,-133.25C1094.02,-123 1123.1,-108.93 1146.85,-97.45"/>
<polygon fill="#63b8ff" stroke="#63b8ff" points="1071.38,-130.06 1063.9,-137.57 1074.42,-136.36 1071.38,-130.06"/>
</a>
</g>
</g>
<!-- Node17 -->
<g id="Node000017" class="node">
<title>Node17</title>
<g id="a_Node000017"><a xlink:href="../../d2/d11/emissive-particle-render-system_8cpp.html" target="_top" xlink:title=" ">
<polygon fill="white" stroke="#666666" points="1401.88,-97 1271.88,-97 1271.88,-55.25 1401.88,-55.25 1401.88,-97"/>
<text text-anchor="start" x="1279.88" y="-83.5" font-family="Helvetica,sans-Serif" font-size="10.00">engine/subsystems/render</text>
<text text-anchor="start" x="1279.88" y="-72.25" font-family="Helvetica,sans-Serif" font-size="10.00">/detail/emissive&#45;particle</text>
<text text-anchor="middle" x="1336.88" y="-61" font-family="Helvetica,sans-Serif" font-size="10.00">&#45;render&#45;system.cpp</text>
</a>
</g>
</g>
<!-- Node3&#45;&gt;Node17 -->
<g id="edge20_Node000003_Node000017" class="edge">
<title>Node3&#45;&gt;Node17</title>
<g id="a_edge20_Node000003_Node000017"><a xlink:title=" ">
<path fill="none" stroke="#63b8ff" d="M1096.67,-135.71C1141.11,-125.86 1206.29,-111.09 1262.88,-97 1265.71,-96.29 1268.61,-95.56 1271.54,-94.81"/>
<polygon fill="#63b8ff" stroke="#63b8ff" points="1096.05,-132.26 1087.04,-137.84 1097.56,-139.1 1096.05,-132.26"/>
</a>
</g>
</g>
<!-- Node18 -->
<g id="Node000018" class="node">
<title>Node18</title>
<g id="a_Node000018"><a xlink:href="../../df/d58/grass-render-system_8cpp.html" target="_top" xlink:title=" ">
<polygon fill="white" stroke="#666666" points="1067.75,-91.38 916,-91.38 916,-60.88 1067.75,-60.88 1067.75,-91.38"/>
<text text-anchor="start" x="924" y="-77.88" font-family="Helvetica,sans-Serif" font-size="10.00">engine/subsystems/render</text>
<text text-anchor="middle" x="991.88" y="-66.62" font-family="Helvetica,sans-Serif" font-size="10.00">/detail/grass&#45;render&#45;system.cpp</text>
</a>
</g>
</g>
<!-- Node3&#45;&gt;Node18 -->
<g id="edge21_Node000003_Node000018" class="edge">
<title>Node3&#45;&gt;Node18</title>
<g id="a_edge21_Node000003_Node000018"><a xlink:title=" ">
<path fill="none" stroke="#63b8ff" d="M1030.48,-129.19C1021.87,-117.57 1010.82,-102.67 1002.75,-91.79"/>
<polygon fill="#63b8ff" stroke="#63b8ff" points="1027.62,-131.21 1036.39,-137.15 1033.24,-127.04 1027.62,-131.21"/>
</a>
</g>
</g>
<!-- Node19 -->
<g id="Node000019" class="node">
<title>Node19</title>
<g id="a_Node000019"><a xlink:href="../../d8/d9c/light-render-system_8cpp.html" target="_top" xlink:title=" ">
<polygon fill="white" stroke="#666666" points="145.75,-91.38 0,-91.38 0,-60.88 145.75,-60.88 145.75,-91.38"/>
<text text-anchor="start" x="8" y="-77.88" font-family="Helvetica,sans-Serif" font-size="10.00">engine/subsystems/render</text>
<text text-anchor="middle" x="72.88" y="-66.62" font-family="Helvetica,sans-Serif" font-size="10.00">/detail/light&#45;render&#45;system.cpp</text>
</a>
</g>
</g>
<!-- Node3&#45;&gt;Node19 -->
<g id="edge22_Node000003_Node000019" class="edge">
<title>Node3&#45;&gt;Node19</title>
<g id="a_edge22_Node000003_Node000019"><a xlink:title=" ">
<path fill="none" stroke="#63b8ff" d="M974.2,-147.59C823.75,-147.39 457.6,-141.86 154.88,-97 146.04,-95.69 136.75,-93.88 127.74,-91.87"/>
<polygon fill="#63b8ff" stroke="#63b8ff" points="974,-151.09 984.01,-147.6 974.01,-144.09 974,-151.09"/>
</a>
</g>
</g>
<!-- Node20 -->
<g id="Node000020" class="node">
<title>Node20</title>
<g id="a_Node000020"><a xlink:href="../../d3/dfe/particle-render-system_8cpp.html" target="_top" xlink:title=" ">
<polygon fill="white" stroke="#666666" points="293.88,-97 163.88,-97 163.88,-55.25 293.88,-55.25 293.88,-97"/>
<text text-anchor="start" x="171.88" y="-83.5" font-family="Helvetica,sans-Serif" font-size="10.00">engine/subsystems/render</text>
<text text-anchor="start" x="171.88" y="-72.25" font-family="Helvetica,sans-Serif" font-size="10.00">/detail/particle&#45;render</text>
<text text-anchor="middle" x="228.88" y="-61" font-family="Helvetica,sans-Serif" font-size="10.00">&#45;system.cpp</text>
</a>
</g>
</g>
<!-- Node3&#45;&gt;Node20 -->
<g id="edge23_Node000003_Node000020" class="edge">
<title>Node3&#45;&gt;Node20</title>
<g id="a_edge23_Node000003_Node000020"><a xlink:title=" ">
<path fill="none" stroke="#63b8ff" d="M974.29,-147.03C842.4,-145.62 547.33,-137.72 302.88,-97 299.99,-96.52 297.05,-95.97 294.09,-95.38"/>
<polygon fill="#63b8ff" stroke="#63b8ff" points="974.24,-150.53 984.27,-147.13 974.3,-143.53 974.24,-150.53"/>
</a>
</g>
</g>
<!-- Node5 -->
<g id="Node000005" class="node">
<title>Node5</title>
<g id="a_Node000005"><a xlink:href="../../d5/dbb/camera-movement_8cpp.html" target="_top" xlink:title=" ">
<polygon fill="white" stroke="#666666" points="467.62,-19.25 312.12,-19.25 312.12,0 467.62,0 467.62,-19.25"/>
<text text-anchor="middle" x="389.88" y="-5.75" font-family="Helvetica,sans-Serif" font-size="10.00">d3d_test/camera&#45;movement.cpp</text>
</a>
</g>
</g>
<!-- Node4&#45;&gt;Node5 -->
<g id="edge4_Node000004_Node000005" class="edge">
<title>Node4&#45;&gt;Node5</title>
<g id="a_edge4_Node000004_Node000005"><a xlink:title=" ">
<path fill="none" stroke="#63b8ff" d="M389.88,-54.65C389.88,-42.82 389.88,-28.54 389.88,-19.52"/>
<polygon fill="#63b8ff" stroke="#63b8ff" points="386.38,-54.64 389.88,-64.64 393.38,-54.64 386.38,-54.64"/>
</a>
</g>
</g>
<!-- Node6 -->
<g id="Node000006" class="node">
<title>Node6</title>
<g id="a_Node000006"><a xlink:href="../../d1/d47/controller_8cpp.html" target="_top" xlink:title=" ">
<polygon fill="white" stroke="#666666" points="611,-19.25 496.75,-19.25 496.75,0 611,0 611,-19.25"/>
<text text-anchor="middle" x="553.88" y="-5.75" font-family="Helvetica,sans-Serif" font-size="10.00">d3d_test/controller.cpp</text>
</a>
</g>
</g>
<!-- Node4&#45;&gt;Node6 -->
<g id="edge5_Node000004_Node000006" class="edge">
<title>Node4&#45;&gt;Node6</title>
<g id="a_edge5_Node000004_Node000006"><a xlink:title=" ">
<path fill="none" stroke="#63b8ff" d="M423.66,-61.84C455.69,-49.24 502.94,-30.66 530.84,-19.68"/>
<polygon fill="#63b8ff" stroke="#63b8ff" points="422.46,-58.55 414.43,-65.47 425.02,-65.06 422.46,-58.55"/>
</a>
</g>
</g>
<!-- Node7&#45;&gt;Node6 -->
<g id="edge7_Node000007_Node000006" class="edge">
<title>Node7&#45;&gt;Node6</title>
<g id="a_edge7_Node000007_Node000006"><a xlink:title=" ">
<path fill="none" stroke="#63b8ff" d="M1590.01,-62.69C1580.04,-59.73 1569.14,-56.94 1558.88,-55.25 1148.11,12.48 1037.8,-53.1 622.88,-19.25 619.14,-18.95 615.31,-18.59 611.44,-18.2"/>
<polygon fill="#63b8ff" stroke="#63b8ff" points="1588.74,-65.96 1599.33,-65.6 1590.83,-59.28 1588.74,-65.96"/>
</a>
</g>
</g>
<!-- Node7&#45;&gt;Node8 -->
<g id="edge8_Node000007_Node000008" class="edge">
<title>Node7&#45;&gt;Node8</title>
<g id="a_edge8_Node000007_Node000008"><a xlink:title=" ">
<path fill="none" stroke="#63b8ff" d="M1638,-56.51C1645.91,-44.35 1655.9,-29.02 1662.08,-19.52"/>
<polygon fill="#63b8ff" stroke="#63b8ff" points="1635.06,-54.6 1632.54,-64.89 1640.93,-58.42 1635.06,-54.6"/>
</a>
</g>
</g>
<!-- Node9&#45;&gt;Node6 -->
<g id="edge11_Node000009_Node000006" class="edge">
<title>Node9&#45;&gt;Node6</title>
<g id="a_edge11_Node000009_Node000006"><a xlink:title=" ">
<path fill="none" stroke="#63b8ff" d="M669.05,-61.51C640.55,-48.92 599,-30.56 574.38,-19.68"/>
<polygon fill="#63b8ff" stroke="#63b8ff" points="667.32,-64.57 677.88,-65.41 670.15,-58.17 667.32,-64.57"/>
</a>
</g>
</g>
<!-- Node10 -->
<g id="Node000010" class="node">
<title>Node10</title>
<g id="a_Node000010"><a xlink:href="../../d4/d94/object-editor_8cpp.html" target="_top" xlink:title=" ">
<polygon fill="white" stroke="#666666" points="759.75,-19.25 632,-19.25 632,0 759.75,0 759.75,-19.25"/>
<text text-anchor="middle" x="695.88" y="-5.75" font-family="Helvetica,sans-Serif" font-size="10.00">d3d_test/object&#45;editor.cpp</text>
</a>
</g>
</g>
<!-- Node9&#45;&gt;Node10 -->
<g id="edge12_Node000009_Node000010" class="edge">
<title>Node9&#45;&gt;Node10</title>
<g id="a_edge12_Node000009_Node000010"><a xlink:title=" ">
<path fill="none" stroke="#63b8ff" d="M698.63,-55.02C697.89,-43.12 696.99,-28.63 696.43,-19.52"/>
<polygon fill="#63b8ff" stroke="#63b8ff" points="695.11,-54.88 699.23,-64.65 702.1,-54.45 695.11,-54.88"/>
</a>
</g>
</g>
<!-- Node11 -->
<g id="Node000011" class="node">
<title>Node11</title>
<g id="a_Node000011"><a xlink:href="../../d0/d38/scene-viewer_8cpp.html" target="_top" xlink:title=" ">
<polygon fill="white" stroke="#666666" points="910,-19.25 777.75,-19.25 777.75,0 910,0 910,-19.25"/>
<text text-anchor="middle" x="843.88" y="-5.75" font-family="Helvetica,sans-Serif" font-size="10.00">d3d_test/scene&#45;viewer.cpp</text>
</a>
</g>
</g>
<!-- Node9&#45;&gt;Node11 -->
<g id="edge13_Node000009_Node000011" class="edge">
<title>Node9&#45;&gt;Node11</title>
<g id="a_edge13_Node000009_Node000011"><a xlink:title=" ">
<path fill="none" stroke="#63b8ff" d="M730.65,-61.34C758.75,-48.75 799.47,-30.51 823.65,-19.68"/>
<polygon fill="#63b8ff" stroke="#63b8ff" points="729.28,-58.12 721.58,-65.4 732.14,-64.51 729.28,-58.12"/>
</a>
</g>
</g>
<!-- Node12&#45;&gt;Node6 -->
<g id="edge15_Node000012_Node000006" class="edge">
<title>Node12&#45;&gt;Node6</title>
<g id="a_edge15_Node000012_Node000006"><a xlink:title=" ">
<path fill="none" stroke="#63b8ff" d="M552.5,-55.02C552.87,-43.12 553.32,-28.63 553.6,-19.52"/>
<polygon fill="#63b8ff" stroke="#63b8ff" points="549.01,-54.54 552.2,-64.64 556.01,-54.76 549.01,-54.54"/>
</a>
</g>
</g>
<!-- Node22&#45;&gt;Node2 -->
<g id="edge37_Node000022_Node000002" class="edge">
<title>Node22&#45;&gt;Node2</title>
<g id="a_edge37_Node000022_Node000002"><a xlink:title=" ">
<path fill="none" stroke="#63b8ff" d="M1654.57,-284.83C1516.84,-272.07 1228.56,-245.14 1206.88,-241.25 1199.05,-239.85 1190.85,-238.03 1182.86,-236.07"/>
<polygon fill="#63b8ff" stroke="#63b8ff" points="1654.03,-288.29 1664.31,-285.73 1654.68,-281.32 1654.03,-288.29"/>
</a>
</g>
</g>
<!-- Node22&#45;&gt;Node15 -->
<g id="edge41_Node000022_Node000015" class="edge">
<title>Node22&#45;&gt;Node15</title>
<g id="a_edge41_Node000022_Node000015"><a xlink:title=" ">
<path fill="none" stroke="#63b8ff" d="M1799.59,-289.79C1997.53,-284.77 2533.03,-268.71 2558.88,-241.25 2653.57,-140.67 2098.44,-94.96 1890.85,-81.54"/>
<polygon fill="#63b8ff" stroke="#63b8ff" points="1799.59,-286.28 1789.68,-290.03 1799.76,-293.28 1799.59,-286.28"/>
</a>
</g>
</g>
<!-- Node22&#45;&gt;Node16 -->
<g id="edge42_Node000022_Node000016" class="edge">
<title>Node22&#45;&gt;Node16</title>
<g id="a_edge42_Node000022_Node000016"><a xlink:title=" ">
<path fill="none" stroke="#63b8ff" d="M1654.36,-284.76C1523.76,-272.5 1261.76,-247.24 1253.88,-241.25 1207.63,-206.11 1194.23,-133.06 1190.39,-97.48"/>
<polygon fill="#63b8ff" stroke="#63b8ff" points="1654.02,-288.25 1664.31,-285.7 1654.68,-281.28 1654.02,-288.25"/>
</a>
</g>
</g>
<!-- Node22&#45;&gt;Node17 -->
<g id="edge43_Node000022_Node000017" class="edge">
<title>Node22&#45;&gt;Node17</title>
<g id="a_edge43_Node000022_Node000017"><a xlink:title=" ">
<path fill="none" stroke="#63b8ff" d="M1654.58,-284.65C1529.2,-272.59 1284.09,-248.2 1277.88,-241.25 1245.8,-205.39 1258.86,-177.19 1277.88,-133 1283.95,-118.87 1295.55,-106.65 1306.87,-97.26"/>
<polygon fill="#63b8ff" stroke="#63b8ff" points="1654.17,-288.12 1664.46,-285.59 1654.84,-281.15 1654.17,-288.12"/>
</a>
</g>
</g>
<!-- Node23 -->
<g id="Node000023" class="node">
<title>Node23</title>
<g id="a_Node000023"><a xlink:href="../../de/d8e/deferred-resolve_8hpp.html" target="_top" xlink:title=" ">
<polygon fill="white" stroke="#666666" points="1399.25,-235.62 1286.5,-235.62 1286.5,-205.12 1399.25,-205.12 1399.25,-235.62"/>
<text text-anchor="start" x="1294.5" y="-222.12" font-family="Helvetica,sans-Serif" font-size="10.00">engine/render/deferred</text>
<text text-anchor="middle" x="1342.88" y="-210.88" font-family="Helvetica,sans-Serif" font-size="10.00">&#45;resolve.hpp</text>
</a>
</g>
</g>
<!-- Node22&#45;&gt;Node23 -->
<g id="edge26_Node000022_Node000023" class="edge">
<title>Node22&#45;&gt;Node23</title>
<g id="a_edge26_Node000022_Node000023"><a xlink:title=" ">
<path fill="none" stroke="#63b8ff" d="M1654.43,-282.9C1589.62,-274.54 1492.28,-260.3 1408.88,-241.25 1402.34,-239.76 1395.51,-237.97 1388.82,-236.08"/>
<polygon fill="#63b8ff" stroke="#63b8ff" points="1653.88,-286.36 1664.24,-284.15 1654.76,-279.42 1653.88,-286.36"/>
</a>
</g>
</g>
<!-- Node26 -->
<g id="Node000026" class="node">
<title>Node26</title>
<g id="a_Node000026"><a xlink:href="../../d2/deb/hdr-to-ldr-layer_8hpp.html" target="_top" xlink:title=" ">
<polygon fill="white" stroke="#666666" points="1520,-235.62 1417.75,-235.62 1417.75,-205.12 1520,-205.12 1520,-235.62"/>
<text text-anchor="start" x="1425.75" y="-222.12" font-family="Helvetica,sans-Serif" font-size="10.00">engine/render/hdr&#45;to</text>
<text text-anchor="middle" x="1468.88" y="-210.88" font-family="Helvetica,sans-Serif" font-size="10.00">&#45;ldr&#45;layer.hpp</text>
</a>
</g>
</g>
<!-- Node22&#45;&gt;Node26 -->
<g id="edge32_Node000022_Node000026" class="edge">
<title>Node22&#45;&gt;Node26</title>
<g id="a_edge32_Node000022_Node000026"><a xlink:title=" ">
<path fill="none" stroke="#63b8ff" d="M1655.02,-274.57C1617.29,-265.36 1570.39,-253.38 1528.88,-241.25 1523.4,-239.65 1517.67,-237.88 1512.02,-236.08"/>
<polygon fill="#63b8ff" stroke="#63b8ff" points="1653.9,-277.9 1664.44,-276.86 1655.55,-271.1 1653.9,-277.9"/>
</a>
</g>
</g>
<!-- Node27 -->
<g id="Node000027" class="node">
<title>Node27</title>
<g id="a_Node000027"><a xlink:href="../../da/d7b/present-swapchain_8hpp.html" target="_top" xlink:title=" ">
<polygon fill="white" stroke="#666666" points="1647.75,-235.62 1538,-235.62 1538,-205.12 1647.75,-205.12 1647.75,-235.62"/>
<text text-anchor="start" x="1546" y="-222.12" font-family="Helvetica,sans-Serif" font-size="10.00">engine/render/present</text>
<text text-anchor="middle" x="1592.88" y="-210.88" font-family="Helvetica,sans-Serif" font-size="10.00">&#45;swapchain.hpp</text>
</a>
</g>
</g>
<!-- Node22&#45;&gt;Node27 -->
<g id="edge34_Node000022_Node000027" class="edge">
<title>Node22&#45;&gt;Node27</title>
<g id="a_edge34_Node000022_Node000027"><a xlink:title=" ">
<path fill="none" stroke="#63b8ff" d="M1688.64,-271.49C1667.06,-260.2 1640.57,-246.34 1620.93,-236.06"/>
<polygon fill="#63b8ff" stroke="#63b8ff" points="1686.96,-274.56 1697.44,-276.1 1690.21,-268.36 1686.96,-274.56"/>
</a>
</g>
</g>
<!-- Node28 -->
<g id="Node000028" class="node">
<title>Node28</title>
<g id="a_Node000028"><a xlink:href="../../d9/d30/shader-manager_8cpp.html" target="_top" xlink:title=" ">
<polygon fill="white" stroke="#666666" points="1787.75,-235.62 1666,-235.62 1666,-205.12 1787.75,-205.12 1787.75,-235.62"/>
<text text-anchor="start" x="1674" y="-222.12" font-family="Helvetica,sans-Serif" font-size="10.00">engine/subsystems/core</text>
<text text-anchor="middle" x="1726.88" y="-210.88" font-family="Helvetica,sans-Serif" font-size="10.00">/shader&#45;manager.cpp</text>
</a>
</g>
</g>
<!-- Node22&#45;&gt;Node28 -->
<g id="edge38_Node000022_Node000028" class="edge">
<title>Node22&#45;&gt;Node28</title>
<g id="a_edge38_Node000022_Node000028"><a xlink:title=" ">
<path fill="none" stroke="#63b8ff" d="M1726.88,-265.52C1726.88,-255.51 1726.88,-244.44 1726.88,-235.89"/>
<polygon fill="#63b8ff" stroke="#63b8ff" points="1723.38,-265.46 1726.88,-275.46 1730.38,-265.46 1723.38,-265.46"/>
</a>
</g>
</g>
<!-- Node29 -->
<g id="Node000029" class="node">
<title>Node29</title>
<g id="a_Node000029"><a xlink:href="../../d5/d8f/shader-manager_8inl.html" target="_top" xlink:title=" ">
<polygon fill="white" stroke="#666666" points="1927.75,-235.62 1806,-235.62 1806,-205.12 1927.75,-205.12 1927.75,-235.62"/>
<text text-anchor="start" x="1814" y="-222.12" font-family="Helvetica,sans-Serif" font-size="10.00">engine/subsystems/core</text>
<text text-anchor="middle" x="1866.88" y="-210.88" font-family="Helvetica,sans-Serif" font-size="10.00">/shader&#45;manager.inl</text>
</a>
</g>
</g>
<!-- Node22&#45;&gt;Node29 -->
<g id="edge39_Node000022_Node000029" class="edge">
<title>Node22&#45;&gt;Node29</title>
<g id="a_edge39_Node000022_Node000029"><a xlink:title=" ">
<path fill="none" stroke="#63b8ff" d="M1760.66,-271.49C1782.27,-260.2 1810.13,-246.34 1831.95,-236.06"/>
<polygon fill="#63b8ff" stroke="#63b8ff" points="1759.15,-268.33 1751.95,-276.09 1762.42,-274.52 1759.15,-268.33"/>
</a>
</g>
</g>
<!-- Node30 -->
<g id="Node000030" class="node">
<title>Node30</title>
<g id="a_Node000030"><a xlink:href="../../d8/dcb/emissive-render-system_8cpp.html" target="_top" xlink:title=" ">
<polygon fill="white" stroke="#666666" points="2075.88,-241.25 1945.88,-241.25 1945.88,-199.5 2075.88,-199.5 2075.88,-241.25"/>
<text text-anchor="start" x="1953.88" y="-227.75" font-family="Helvetica,sans-Serif" font-size="10.00">engine/subsystems/render</text>
<text text-anchor="start" x="1953.88" y="-216.5" font-family="Helvetica,sans-Serif" font-size="10.00">/detail/emissive&#45;render</text>
<text text-anchor="middle" x="2010.88" y="-205.25" font-family="Helvetica,sans-Serif" font-size="10.00">&#45;system.cpp</text>
</a>
</g>
</g>
<!-- Node22&#45;&gt;Node30 -->
<g id="edge44_Node000022_Node000030" class="edge">
<title>Node22&#45;&gt;Node30</title>
<g id="a_edge44_Node000022_Node000030"><a xlink:title=" ">
<path fill="none" stroke="#63b8ff" d="M1799.22,-274.71C1839.76,-265.17 1891.21,-252.84 1936.88,-241.25 1939.71,-240.53 1942.61,-239.79 1945.53,-239.03"/>
<polygon fill="#63b8ff" stroke="#63b8ff" points="1798.5,-271.28 1789.57,-276.97 1800.1,-278.1 1798.5,-271.28"/>
</a>
</g>
</g>
<!-- Node31 -->
<g id="Node000031" class="node">
<title>Node31</title>
<g id="a_Node000031"><a xlink:href="../../d9/d5a/sort-lib_8cpp.html" target="_top" xlink:title=" ">
<polygon fill="white" stroke="#666666" points="2223.88,-235.62 2093.88,-235.62 2093.88,-205.12 2223.88,-205.12 2223.88,-235.62"/>
<text text-anchor="start" x="2101.88" y="-222.12" font-family="Helvetica,sans-Serif" font-size="10.00">engine/subsystems/render</text>
<text text-anchor="middle" x="2158.88" y="-210.88" font-family="Helvetica,sans-Serif" font-size="10.00">/detail/misc/sort&#45;lib.cpp</text>
</a>
</g>
</g>
<!-- Node22&#45;&gt;Node31 -->
<g id="edge45_Node000022_Node000031" class="edge">
<title>Node22&#45;&gt;Node31</title>
<g id="a_edge45_Node000022_Node000031"><a xlink:title=" ">
<path fill="none" stroke="#63b8ff" d="M1799.36,-283.97C1872,-275.81 1986.8,-261.22 2084.88,-241.25 2092.17,-239.76 2099.82,-237.98 2107.31,-236.09"/>
<polygon fill="#63b8ff" stroke="#63b8ff" points="1799.13,-280.48 1789.58,-285.06 1799.9,-287.44 1799.13,-280.48"/>
</a>
</g>
</g>
<!-- Node32 -->
<g id="Node000032" class="node">
<title>Node32</title>
<g id="a_Node000032"><a xlink:href="../../d1/d62/opaque-render-system_8cpp.html" target="_top" xlink:title=" ">
<polygon fill="white" stroke="#666666" points="2401.5,-235.62 2242.25,-235.62 2242.25,-205.12 2401.5,-205.12 2401.5,-235.62"/>
<text text-anchor="start" x="2250.25" y="-222.12" font-family="Helvetica,sans-Serif" font-size="10.00">engine/subsystems/render</text>
<text text-anchor="middle" x="2321.88" y="-210.88" font-family="Helvetica,sans-Serif" font-size="10.00">/detail/opaque&#45;render&#45;system.cpp</text>
</a>
</g>
</g>
<!-- Node22&#45;&gt;Node32 -->
<g id="edge46_Node000022_Node000032" class="edge">
<title>Node22&#45;&gt;Node32</title>
<g id="a_edge46_Node000022_Node000032"><a xlink:title=" ">
<path fill="none" stroke="#63b8ff" d="M1799.24,-287.07C1897.77,-280.41 2079.45,-265.91 2232.88,-241.25 2241.94,-239.79 2251.47,-237.98 2260.78,-236.04"/>
<polygon fill="#63b8ff" stroke="#63b8ff" points="1799.19,-283.57 1789.44,-287.72 1799.66,-290.55 1799.19,-283.57"/>
</a>
</g>
</g>
<!-- Node33 -->
<g id="Node000033" class="node">
<title>Node33</title>
<g id="a_Node000033"><a xlink:href="../../d3/dd8/skybox-manager_8cpp.html" target="_top" xlink:title=" ">
<polygon fill="white" stroke="#666666" points="2549.88,-235.62 2419.88,-235.62 2419.88,-205.12 2549.88,-205.12 2549.88,-235.62"/>
<text text-anchor="start" x="2427.88" y="-222.12" font-family="Helvetica,sans-Serif" font-size="10.00">engine/subsystems/render</text>
<text text-anchor="middle" x="2484.88" y="-210.88" font-family="Helvetica,sans-Serif" font-size="10.00">/skybox&#45;manager.cpp</text>
</a>
</g>
</g>
<!-- Node22&#45;&gt;Node33 -->
<g id="edge47_Node000022_Node000033" class="edge">
<title>Node22&#45;&gt;Node33</title>
<g id="a_edge47_Node000022_Node000033"><a xlink:title=" ">
<path fill="none" stroke="#63b8ff" d="M1799.53,-290.66C1925.07,-288.21 2190.31,-278.63 2410.88,-241.25 2418.88,-239.89 2427.26,-238.06 2435.4,-236.04"/>
<polygon fill="#63b8ff" stroke="#63b8ff" points="1799.64,-287.16 1789.7,-290.84 1799.77,-294.16 1799.64,-287.16"/>
</a>
</g>
</g>
<!-- Node24 -->
<g id="Node000024" class="node">
<title>Node24</title>
<g id="a_Node000024"><a xlink:href="../../db/df9/deferred-hdr-render-pipeline_8hpp.html" target="_top" xlink:title=" ">
<polygon fill="white" stroke="#666666" points="1604.25,-163.5 1473.5,-163.5 1473.5,-133 1604.25,-133 1604.25,-163.5"/>
<text text-anchor="start" x="1481.5" y="-150" font-family="Helvetica,sans-Serif" font-size="10.00">engine/direct3d11/deferred</text>
<text text-anchor="middle" x="1538.88" y="-138.75" font-family="Helvetica,sans-Serif" font-size="10.00">&#45;hdr&#45;render&#45;pipeline.hpp</text>
</a>
</g>
</g>
<!-- Node23&#45;&gt;Node24 -->
<g id="edge27_Node000023_Node000024" class="edge">
<title>Node23&#45;&gt;Node24</title>
<g id="a_edge27_Node000023_Node000024"><a xlink:title=" ">
<path fill="none" stroke="#63b8ff" d="M1394.55,-200.89C1426.82,-189.34 1467.8,-174.68 1497.84,-163.93"/>
<polygon fill="#63b8ff" stroke="#63b8ff" points="1393.62,-197.5 1385.39,-204.16 1395.98,-204.09 1393.62,-197.5"/>
</a>
</g>
</g>
<!-- Node25 -->
<g id="Node000025" class="node">
<title>Node25</title>
<g id="a_Node000025"><a xlink:href="../../d4/d7c/deferred-resolve_8cpp.html" target="_top" xlink:title=" ">
<polygon fill="white" stroke="#666666" points="1399.25,-163.5 1286.5,-163.5 1286.5,-133 1399.25,-133 1399.25,-163.5"/>
<text text-anchor="start" x="1294.5" y="-150" font-family="Helvetica,sans-Serif" font-size="10.00">engine/render/deferred</text>
<text text-anchor="middle" x="1342.88" y="-138.75" font-family="Helvetica,sans-Serif" font-size="10.00">&#45;resolve.cpp</text>
</a>
</g>
</g>
<!-- Node23&#45;&gt;Node25 -->
<g id="edge31_Node000023_Node000025" class="edge">
<title>Node23&#45;&gt;Node25</title>
<g id="a_edge31_Node000023_Node000025"><a xlink:title=" ">
<path fill="none" stroke="#63b8ff" d="M1342.88,-193.4C1342.88,-183.39 1342.88,-172.31 1342.88,-163.76"/>
<polygon fill="#63b8ff" stroke="#63b8ff" points="1339.38,-193.33 1342.88,-203.33 1346.38,-193.33 1339.38,-193.33"/>
</a>
</g>
</g>
<!-- Node24&#45;&gt;Node7 -->
<g id="edge28_Node000024_Node000007" class="edge">
<title>Node24&#45;&gt;Node7</title>
<g id="a_edge28_Node000024_Node000007"><a xlink:title=" ">
<path fill="none" stroke="#63b8ff" d="M1565.61,-125.7C1582.12,-112.39 1602.44,-96.02 1614.76,-86.08"/>
<polygon fill="#63b8ff" stroke="#63b8ff" points="1563.67,-122.77 1558.08,-131.77 1568.06,-128.22 1563.67,-122.77"/>
</a>
</g>
</g>
<!-- Node24&#45;&gt;Node8 -->
<g id="edge29_Node000024_Node000008" class="edge">
<title>Node24&#45;&gt;Node8</title>
<g id="a_edge29_Node000024_Node000008"><a xlink:title=" ">
<path fill="none" stroke="#63b8ff" d="M1615.61,-140.76C1644.31,-134.16 1674.21,-121.4 1691.88,-97 1709.4,-72.8 1687.14,-36.31 1674.91,-19.58"/>
<polygon fill="#63b8ff" stroke="#63b8ff" points="1615.27,-137.25 1606.18,-142.69 1616.68,-144.11 1615.27,-137.25"/>
</a>
</g>
</g>
<!-- Node24&#45;&gt;Node14 -->
<g id="edge30_Node000024_Node000014" class="edge">
<title>Node24&#45;&gt;Node14</title>
<g id="a_edge30_Node000024_Node000014"><a xlink:title=" ">
<path fill="none" stroke="#63b8ff" d="M1520.89,-123.89C1512.68,-113.23 1503.21,-100.94 1496.05,-91.64"/>
<polygon fill="#63b8ff" stroke="#63b8ff" points="1517.89,-125.73 1526.76,-131.52 1523.43,-121.46 1517.89,-125.73"/>
</a>
</g>
</g>
<!-- Node26&#45;&gt;Node24 -->
<g id="edge33_Node000026_Node000024" class="edge">
<title>Node26&#45;&gt;Node24</title>
<g id="a_edge33_Node000026_Node000024"><a xlink:title=" ">
<path fill="none" stroke="#63b8ff" d="M1491.23,-196.98C1502.09,-186.1 1514.82,-173.35 1524.39,-163.76"/>
<polygon fill="#63b8ff" stroke="#63b8ff" points="1489.04,-194.22 1484.45,-203.77 1493.99,-199.17 1489.04,-194.22"/>
</a>
</g>
</g>
<!-- Node27&#45;&gt;Node8 -->
<g id="edge35_Node000027_Node000008" class="edge">
<title>Node27&#45;&gt;Node8</title>
<g id="a_edge35_Node000027_Node000008"><a xlink:title=" ">
<path fill="none" stroke="#63b8ff" d="M1648.31,-201.05C1732.65,-172.61 1885.05,-118.87 1899.88,-97 1946.06,-28.87 1793.33,-14.34 1713.43,-11.34"/>
<polygon fill="#63b8ff" stroke="#63b8ff" points="1647.43,-197.65 1639.06,-204.15 1649.66,-204.29 1647.43,-197.65"/>
</a>
</g>
</g>
<!-- Node27&#45;&gt;Node24 -->
<g id="edge36_Node000027_Node000024" class="edge">
<title>Node27&#45;&gt;Node24</title>
<g id="a_edge36_Node000027_Node000024"><a xlink:title=" ">
<path fill="none" stroke="#63b8ff" d="M1574.89,-196.01C1566.68,-185.35 1557.21,-173.07 1550.05,-163.76"/>
<polygon fill="#63b8ff" stroke="#63b8ff" points="1571.89,-197.86 1580.76,-203.65 1577.43,-193.59 1571.89,-197.86"/>
</a>
</g>
</g>
<!-- Node29&#45;&gt;Node22 -->
<g id="edge40_Node000029_Node000022" class="edge">
<title>Node29&#45;&gt;Node22</title>
<g id="a_edge40_Node000029_Node000022"><a xlink:title=" ">
<path fill="none" stroke="#63b8ff" d="M1833.13,-241.36C1811.53,-252.65 1783.67,-266.51 1761.84,-276.8"/>
<polygon fill="#63b8ff" stroke="#63b8ff" points="1834.63,-244.53 1841.84,-236.76 1831.36,-238.34 1834.63,-244.53"/>
</a>
</g>
</g>
</g>
</svg>
