<?xml version="1.0" encoding="UTF-8" standalone="no"?>
<!DOCTYPE svg PUBLIC "-//W3C//DTD SVG 1.1//EN"
 "http://www.w3.org/Graphics/SVG/1.1/DTD/svg11.dtd">
<!-- Generated by graphviz version 8.1.0 (20230707.0739)
 -->
<!-- Title: engine/subsystems/render/post&#45;processing.hpp Pages: 1 -->
<svg width="811pt" height="293pt"
 viewBox="0.00 0.00 811.12 293.25" xmlns="http://www.w3.org/2000/svg" xmlns:xlink="http://www.w3.org/1999/xlink">
<g id="graph0" class="graph" transform="scale(1 1) rotate(0) translate(4 289.25)">
<title>engine/subsystems/render/post&#45;processing.hpp</title>
<!-- Node1 -->
<g id="Node000001" class="node">
<title>Node1</title>
<g id="a_Node000001"><a xlink:title=" ">
<polygon fill="#999999" stroke="#666666" points="516.12,-285.25 386.12,-285.25 386.12,-254.75 516.12,-254.75 516.12,-285.25"/>
<text text-anchor="start" x="394.12" y="-271.75" font-family="Helvetica,sans-Serif" font-size="10.00">engine/subsystems/render</text>
<text text-anchor="middle" x="451.12" y="-260.5" font-family="Helvetica,sans-Serif" font-size="10.00">/post&#45;processing.hpp</text>
</a>
</g>
</g>
<!-- Node2 -->
<g id="Node000002" class="node">
<title>Node2</title>
<g id="a_Node000002"><a xlink:href="../../db/df9/deferred-hdr-render-pipeline_8hpp.html" target="_top" xlink:title=" ">
<polygon fill="white" stroke="#666666" points="263.5,-152.25 132.75,-152.25 132.75,-121.75 263.5,-121.75 263.5,-152.25"/>
<text text-anchor="start" x="140.75" y="-138.75" font-family="Helvetica,sans-Serif" font-size="10.00">engine/direct3d11/deferred</text>
<text text-anchor="middle" x="198.12" y="-127.5" font-family="Helvetica,sans-Serif" font-size="10.00">&#45;hdr&#45;render&#45;pipeline.hpp</text>
</a>
</g>
</g>
<!-- Node1&#45;&gt;Node2 -->
<g id="edge1_Node000001_Node000002" class="edge">
<title>Node1&#45;&gt;Node2</title>
<g id="a_edge1_Node000001_Node000002"><a xlink:title=" ">
<path fill="none" stroke="#63b8ff" d="M375.1,-267.7C292.41,-264.48 167.98,-253.78 138.12,-218.75 119.32,-196.68 150.13,-169.28 174.12,-152.74"/>
<polygon fill="#63b8ff" stroke="#63b8ff" points="374.86,-271.23 384.98,-268.09 375.11,-264.23 374.86,-271.23"/>
</a>
</g>
</g>
<!-- Node7 -->
<g id="Node000007" class="node">
<title>Node7</title>
<g id="a_Node000007"><a xlink:href="../../de/d8e/deferred-resolve_8hpp.html" target="_top" xlink:title=" ">
<polygon fill="white" stroke="#666666" points="507.5,-218.75 394.75,-218.75 394.75,-188.25 507.5,-188.25 507.5,-218.75"/>
<text text-anchor="start" x="402.75" y="-205.25" font-family="Helvetica,sans-Serif" font-size="10.00">engine/render/deferred</text>
<text text-anchor="middle" x="451.12" y="-194" font-family="Helvetica,sans-Serif" font-size="10.00">&#45;resolve.hpp</text>
</a>
</g>
</g>
<!-- Node1&#45;&gt;Node7 -->
<g id="edge7_Node000001_Node000007" class="edge">
<title>Node1&#45;&gt;Node7</title>
<g id="a_edge7_Node000001_Node000007"><a xlink:title=" ">
<path fill="none" stroke="#63b8ff" d="M451.12,-243.63C451.12,-235.3 451.12,-226.33 451.12,-219.08"/>
<polygon fill="#63b8ff" stroke="#63b8ff" points="447.63,-243.36 451.12,-253.36 454.63,-243.36 447.63,-243.36"/>
</a>
</g>
</g>
<!-- Node9 -->
<g id="Node000009" class="node">
<title>Node9</title>
<g id="a_Node000009"><a xlink:href="../../d2/deb/hdr-to-ldr-layer_8hpp.html" target="_top" xlink:title=" ">
<polygon fill="white" stroke="#666666" points="249.25,-218.75 147,-218.75 147,-188.25 249.25,-188.25 249.25,-218.75"/>
<text text-anchor="start" x="155" y="-205.25" font-family="Helvetica,sans-Serif" font-size="10.00">engine/render/hdr&#45;to</text>
<text text-anchor="middle" x="198.12" y="-194" font-family="Helvetica,sans-Serif" font-size="10.00">&#45;ldr&#45;layer.hpp</text>
</a>
</g>
</g>
<!-- Node1&#45;&gt;Node9 -->
<g id="edge10_Node000001_Node000009" class="edge">
<title>Node1&#45;&gt;Node9</title>
<g id="a_edge10_Node000001_Node000009"><a xlink:title=" ">
<path fill="none" stroke="#63b8ff" d="M382.98,-251.63C341.01,-240.93 288.05,-227.43 249.59,-217.62"/>
<polygon fill="#63b8ff" stroke="#63b8ff" points="381.84,-255.2 392.4,-254.28 383.57,-248.42 381.84,-255.2"/>
</a>
</g>
</g>
<!-- Node10 -->
<g id="Node000010" class="node">
<title>Node10</title>
<g id="a_Node000010"><a xlink:href="../../da/d7b/present-swapchain_8hpp.html" target="_top" xlink:title=" ">
<polygon fill="white" stroke="#666666" points="377,-218.75 267.25,-218.75 267.25,-188.25 377,-188.25 377,-218.75"/>
<text text-anchor="start" x="275.25" y="-205.25" font-family="Helvetica,sans-Serif" font-size="10.00">engine/render/present</text>
<text text-anchor="middle" x="322.12" y="-194" font-family="Helvetica,sans-Serif" font-size="10.00">&#45;swapchain.hpp</text>
</a>
</g>
</g>
<!-- Node1&#45;&gt;Node10 -->
<g id="edge12_Node000001_Node000010" class="edge">
<title>Node1&#45;&gt;Node10</title>
<g id="a_edge12_Node000001_Node000010"><a xlink:title=" ">
<path fill="none" stroke="#63b8ff" d="M412.02,-249.45C392.48,-239.68 369.24,-228.06 351.28,-219.08"/>
<polygon fill="#63b8ff" stroke="#63b8ff" points="410.34,-253.02 420.85,-254.36 413.47,-246.76 410.34,-253.02"/>
</a>
</g>
</g>
<!-- Node11 -->
<g id="Node000011" class="node">
<title>Node11</title>
<g id="a_Node000011"><a xlink:href="../../d1/d3c/post-processing_8cpp.html" target="_top" xlink:title=" ">
<polygon fill="white" stroke="#666666" points="655.12,-218.75 525.12,-218.75 525.12,-188.25 655.12,-188.25 655.12,-218.75"/>
<text text-anchor="start" x="533.12" y="-205.25" font-family="Helvetica,sans-Serif" font-size="10.00">engine/subsystems/render</text>
<text text-anchor="middle" x="590.12" y="-194" font-family="Helvetica,sans-Serif" font-size="10.00">/post&#45;processing.cpp</text>
</a>
</g>
</g>
<!-- Node1&#45;&gt;Node11 -->
<g id="edge15_Node000001_Node000011" class="edge">
<title>Node1&#45;&gt;Node11</title>
<g id="a_edge15_Node000001_Node000011"><a xlink:title=" ">
<path fill="none" stroke="#63b8ff" d="M492.4,-249.85C513.63,-240 539.1,-228.18 558.71,-219.08"/>
<polygon fill="#63b8ff" stroke="#63b8ff" points="491.26,-246.98 483.67,-254.36 494.21,-253.33 491.26,-246.98"/>
</a>
</g>
</g>
<!-- Node12 -->
<g id="Node000012" class="node">
<title>Node12</title>
<g id="a_Node000012"><a xlink:href="../../d3/de4/post-processing_8inl.html" target="_top" xlink:title=" ">
<polygon fill="white" stroke="#666666" points="803.12,-218.75 673.12,-218.75 673.12,-188.25 803.12,-188.25 803.12,-218.75"/>
<text text-anchor="start" x="681.12" y="-205.25" font-family="Helvetica,sans-Serif" font-size="10.00">engine/subsystems/render</text>
<text text-anchor="middle" x="738.12" y="-194" font-family="Helvetica,sans-Serif" font-size="10.00">/post&#45;processing.inl</text>
</a>
</g>
</g>
<!-- Node1&#45;&gt;Node12 -->
<g id="edge16_Node000001_Node000012" class="edge">
<title>Node1&#45;&gt;Node12</title>
<g id="a_edge16_Node000001_Node000012"><a xlink:title=" ">
<path fill="none" stroke="#63b8ff" d="M521.37,-251.86C567.55,-241.24 627.51,-227.79 672.7,-217.94"/>
<polygon fill="#63b8ff" stroke="#63b8ff" points="520.8,-248.63 511.84,-254.28 522.37,-255.45 520.8,-248.63"/>
</a>
</g>
</g>
<!-- Node3 -->
<g id="Node000003" class="node">
<title>Node3</title>
<g id="a_Node000003"><a xlink:href="../../dc/dfb/controller_8hpp.html" target="_top" xlink:title=" ">
<polygon fill="white" stroke="#666666" points="131.25,-80.12 17,-80.12 17,-60.88 131.25,-60.88 131.25,-80.12"/>
<text text-anchor="middle" x="74.12" y="-66.62" font-family="Helvetica,sans-Serif" font-size="10.00">d3d_test/controller.hpp</text>
</a>
</g>
</g>
<!-- Node2&#45;&gt;Node3 -->
<g id="edge2_Node000002_Node000003" class="edge">
<title>Node2&#45;&gt;Node3</title>
<g id="a_edge2_Node000002_Node000003"><a xlink:title=" ">
<path fill="none" stroke="#63b8ff" d="M160.51,-116.44C137.54,-104.49 109.25,-89.77 91.45,-80.51"/>
<polygon fill="#63b8ff" stroke="#63b8ff" points="158.5,-119.85 168.99,-121.36 161.73,-113.64 158.5,-119.85"/>
</a>
</g>
</g>
<!-- Node5 -->
<g id="Node000005" class="node">
<title>Node5</title>
<g id="a_Node000005"><a xlink:href="../../d9/d0f/main_8cc.html" target="_top" xlink:title=" ">
<polygon fill="white" stroke="#666666" points="222.25,-19.25 132,-19.25 132,0 222.25,0 222.25,-19.25"/>
<text text-anchor="middle" x="177.12" y="-5.75" font-family="Helvetica,sans-Serif" font-size="10.00">d3d_test/main.cc</text>
</a>
</g>
</g>
<!-- Node2&#45;&gt;Node5 -->
<g id="edge5_Node000002_Node000005" class="edge">
<title>Node2&#45;&gt;Node5</title>
<g id="a_edge5_Node000002_Node000005"><a xlink:title=" ">
<path fill="none" stroke="#63b8ff" d="M186.36,-111.64C183.04,-103.59 179.85,-94.46 178.12,-85.75 173.45,-62.21 174.98,-33.7 176.21,-19.52"/>
<polygon fill="#63b8ff" stroke="#63b8ff" points="183.46,-112.75 190.7,-120.48 189.87,-109.92 183.46,-112.75"/>
</a>
</g>
</g>
<!-- Node6 -->
<g id="Node000006" class="node">
<title>Node6</title>
<g id="a_Node000006"><a xlink:href="../../d1/da2/deferred-hdr-render-pipeline_8cpp.html" target="_top" xlink:title=" ">
<polygon fill="white" stroke="#666666" points="317.5,-85.75 186.75,-85.75 186.75,-55.25 317.5,-55.25 317.5,-85.75"/>
<text text-anchor="start" x="194.75" y="-72.25" font-family="Helvetica,sans-Serif" font-size="10.00">engine/direct3d11/deferred</text>
<text text-anchor="middle" x="252.12" y="-61" font-family="Helvetica,sans-Serif" font-size="10.00">&#45;hdr&#45;render&#45;pipeline.cpp</text>
</a>
</g>
</g>
<!-- Node2&#45;&gt;Node6 -->
<g id="edge6_Node000002_Node000006" class="edge">
<title>Node2&#45;&gt;Node6</title>
<g id="a_edge6_Node000002_Node000006"><a xlink:title=" ">
<path fill="none" stroke="#63b8ff" d="M217.25,-113.16C224.79,-104.15 233.23,-94.07 239.92,-86.08"/>
<polygon fill="#63b8ff" stroke="#63b8ff" points="214.11,-110.45 210.38,-120.36 219.48,-114.94 214.11,-110.45"/>
</a>
</g>
</g>
<!-- Node4 -->
<g id="Node000004" class="node">
<title>Node4</title>
<g id="a_Node000004"><a xlink:href="../../d1/d47/controller_8cpp.html" target="_top" xlink:title=" ">
<polygon fill="white" stroke="#666666" points="114.25,-19.25 0,-19.25 0,0 114.25,0 114.25,-19.25"/>
<text text-anchor="middle" x="57.12" y="-5.75" font-family="Helvetica,sans-Serif" font-size="10.00">d3d_test/controller.cpp</text>
</a>
</g>
</g>
<!-- Node3&#45;&gt;Node4 -->
<g id="edge3_Node000003_Node000004" class="edge">
<title>Node3&#45;&gt;Node4</title>
<g id="a_edge3_Node000003_Node000004"><a xlink:title=" ">
<path fill="none" stroke="#63b8ff" d="M68.52,-50.07C65.55,-39.82 62.06,-27.72 59.73,-19.65"/>
<polygon fill="#63b8ff" stroke="#63b8ff" points="65.41,-50.92 71.54,-59.56 72.13,-48.98 65.41,-50.92"/>
</a>
</g>
</g>
<!-- Node3&#45;&gt;Node5 -->
<g id="edge4_Node000003_Node000005" class="edge">
<title>Node3&#45;&gt;Node5</title>
<g id="a_edge4_Node000003_Node000005"><a xlink:title=" ">
<path fill="none" stroke="#63b8ff" d="M99.19,-55.17C118.57,-44.1 144.79,-29.11 161.33,-19.65"/>
<polygon fill="#63b8ff" stroke="#63b8ff" points="97.71,-52.56 90.77,-60.56 101.19,-58.63 97.71,-52.56"/>
</a>
</g>
</g>
<!-- Node7&#45;&gt;Node2 -->
<g id="edge8_Node000007_Node000002" class="edge">
<title>Node7&#45;&gt;Node2</title>
<g id="a_edge8_Node000007_Node000002"><a xlink:title=" ">
<path fill="none" stroke="#63b8ff" d="M383.89,-185.36C343.9,-175.17 293.72,-162.37 255.59,-152.65"/>
<polygon fill="#63b8ff" stroke="#63b8ff" points="382.79,-188.95 393.35,-188.02 384.52,-182.16 382.79,-188.95"/>
</a>
</g>
</g>
<!-- Node8 -->
<g id="Node000008" class="node">
<title>Node8</title>
<g id="a_Node000008"><a xlink:href="../../d4/d7c/deferred-resolve_8cpp.html" target="_top" xlink:title=" ">
<polygon fill="white" stroke="#666666" points="507.5,-152.25 394.75,-152.25 394.75,-121.75 507.5,-121.75 507.5,-152.25"/>
<text text-anchor="start" x="402.75" y="-138.75" font-family="Helvetica,sans-Serif" font-size="10.00">engine/render/deferred</text>
<text text-anchor="middle" x="451.12" y="-127.5" font-family="Helvetica,sans-Serif" font-size="10.00">&#45;resolve.cpp</text>
</a>
</g>
</g>
<!-- Node7&#45;&gt;Node8 -->
<g id="edge9_Node000007_Node000008" class="edge">
<title>Node7&#45;&gt;Node8</title>
<g id="a_edge9_Node000007_Node000008"><a xlink:title=" ">
<path fill="none" stroke="#63b8ff" d="M451.12,-177.13C451.12,-168.8 451.12,-159.83 451.12,-152.58"/>
<polygon fill="#63b8ff" stroke="#63b8ff" points="447.63,-176.86 451.12,-186.86 454.63,-176.86 447.63,-176.86"/>
</a>
</g>
</g>
<!-- Node9&#45;&gt;Node2 -->
<g id="edge11_Node000009_Node000002" class="edge">
<title>Node9&#45;&gt;Node2</title>
<g id="a_edge11_Node000009_Node000002"><a xlink:title=" ">
<path fill="none" stroke="#63b8ff" d="M198.12,-177.13C198.12,-168.8 198.12,-159.83 198.12,-152.58"/>
<polygon fill="#63b8ff" stroke="#63b8ff" points="194.63,-176.86 198.12,-186.86 201.63,-176.86 194.63,-176.86"/>
</a>
</g>
</g>
<!-- Node10&#45;&gt;Node2 -->
<g id="edge14_Node000010_Node000002" class="edge">
<title>Node10&#45;&gt;Node2</title>
<g id="a_edge14_Node000010_Node000002"><a xlink:title=" ">
<path fill="none" stroke="#63b8ff" d="M284.28,-182.81C265.55,-173.07 243.33,-161.51 226.15,-152.58"/>
<polygon fill="#63b8ff" stroke="#63b8ff" points="282.5,-186.35 292.99,-187.86 285.73,-180.14 282.5,-186.35"/>
</a>
</g>
</g>
<!-- Node10&#45;&gt;Node5 -->
<g id="edge13_Node000010_Node000005" class="edge">
<title>Node10&#45;&gt;Node5</title>
<g id="a_edge13_Node000010_Node000005"><a xlink:title=" ">
<path fill="none" stroke="#63b8ff" d="M331.35,-177.59C341.36,-145.85 352.63,-90.85 326.12,-55.25 302.5,-23.52 257.12,-13.49 222.62,-10.72"/>
<polygon fill="#63b8ff" stroke="#63b8ff" points="327.8,-176.18 327.93,-186.78 334.43,-178.41 327.8,-176.18"/>
</a>
</g>
</g>
<!-- Node12&#45;&gt;Node1 -->
<g id="edge17_Node000012_Node000001" class="edge">
<title>Node12&#45;&gt;Node1</title>
<g id="a_edge17_Node000012_Node000001"><a xlink:title=" ">
<path fill="none" stroke="#63b8ff" d="M668.12,-221.59C621.9,-232.22 561.8,-245.69 516.54,-255.56"/>
<polygon fill="#63b8ff" stroke="#63b8ff" points="668.69,-224.82 677.65,-219.16 667.12,-218 668.69,-224.82"/>
</a>
</g>
</g>
</g>
</svg>
