<?xml version="1.0" encoding="UTF-8" standalone="no"?>
<!DOCTYPE svg PUBLIC "-//W3C//DTD SVG 1.1//EN"
 "http://www.w3.org/Graphics/SVG/1.1/DTD/svg11.dtd">
<!-- Generated by graphviz version 9.0.0 (20230911.1827)
 -->
<!-- Title: engine/subsystems/render/post&#45;processing.hpp Pages: 1 -->
<!--zoomable 293 -->

<svg id="main" version="1.1" xmlns="http://www.w3.org/2000/svg" xmlns:xlink="http://www.w3.org/1999/xlink" xml:space="preserve" onload="init(evt)">
<style type="text/css"><![CDATA[
.node, .edge {opacity: 0.7;}
.node.selected, .edge.selected {opacity: 1;}
.edge:hover path { stroke: red; }
.edge:hover polygon { stroke: red; fill: red; }
]]></style>

<defs>
  <circle id="rim" cx="0" cy="0" r="7"/>
  <circle id="rim2" cx="0" cy="0" r="3.5"/>
  <g id="zoomPlus">
    <use xlink:href="#rim" fill="#404040"><set attributeName="fill" to="#808080" begin="zoomplus.mouseover" end="zoomplus.mouseout"/></use>
    <path d="M-4,0h8M0,-4v8" fill="none" stroke="white" stroke-width="1.5" pointer-events="none"/>
  </g>
  <g id="zoomMin">
    <use xlink:href="#rim" fill="#404040"><set attributeName="fill" to="#808080" begin="zoomminus.mouseover" end="zoomminus.mouseout"/></use>
    <path d="M-4,0h8" fill="none" stroke="white" stroke-width="1.5" pointer-events="none"/>
  </g>
  <g id="arrowUp" transform="translate(30 24)">
    <use xlink:href="#rim"/>
    <path pointer-events="none" fill="none" stroke="white" stroke-width="1.5" d="M0,-3.0v7 M-2.5,-0.5L0,-3.0L2.5,-0.5"/>
  </g>
  <g id="arrowRight" transform="rotate(90) translate(36 -43)">
    <use xlink:href="#rim"/>
    <path pointer-events="none" fill="none" stroke="white" stroke-width="1.5" d="M0,-3.0v7 M-2.5,-0.5L0,-3.0L2.5,-0.5"/>
  </g>
  <g id="arrowDown" transform="rotate(180) translate(-30 -48)">
    <use xlink:href="#rim"/>
    <path pointer-events="none" fill="none" stroke="white" stroke-width="1.5" d="M0,-3.0v7 M-2.5,-0.5L0,-3.0L2.5,-0.5"/>
  </g>
  <g id="arrowLeft" transform="rotate(270) translate(-36 17)">
    <use xlink:href="#rim"/>
    <path pointer-events="none" fill="none" stroke="white" stroke-width="1.5" d="M0,-3.0v7 M-2.5,-0.5L0,-3.0L2.5,-0.5"/>
  </g>
  <g id="resetDef">
    <use xlink:href="#rim2" fill="#404040"><set attributeName="fill" to="#808080" begin="reset.mouseover" end="reset.mouseout"/></use>
  </g>
</defs>
<script type="application/ecmascript">
var viewWidth = 811;
var viewHeight = 293;
var sectionId = 'dynsection-1';
</script>
<script type="application/ecmascript" xlink:href="../../svg.min.js"/>
<svg id="graph" class="graph">
<g id="viewport">
<title>engine/subsystems/render/post&#45;processing.hpp</title>
<!-- Node1 -->
<g id="Node000001" class="node">
<title>Node1</title>
<g id="a_Node000001"><a xlink:title=" ">
<polygon fill="#999999" stroke="#666666" points="516.12,-285.25 386.12,-285.25 386.12,-254.75 516.12,-254.75 516.12,-285.25"/>
<text text-anchor="start" x="394.12" y="-271.75" font-family="Helvetica,sans-Serif" font-size="10.00">engine/subsystems/render</text>
<text text-anchor="middle" x="451.12" y="-260.5" font-family="Helvetica,sans-Serif" font-size="10.00">/post&#45;processing.hpp</text>
</a>
</g>
</g>
<!-- Node2 -->
<g id="Node000002" class="node">
<title>Node2</title>
<g id="a_Node000002"><a xlink:href="../../db/df9/deferred-hdr-render-pipeline_8hpp.html" target="_top" xlink:title=" ">
<polygon fill="white" stroke="#666666" points="263.5,-152.25 132.75,-152.25 132.75,-121.75 263.5,-121.75 263.5,-152.25"/>
<text text-anchor="start" x="140.75" y="-138.75" font-family="Helvetica,sans-Serif" font-size="10.00">engine/direct3d11/deferred</text>
<text text-anchor="middle" x="198.12" y="-127.5" font-family="Helvetica,sans-Serif" font-size="10.00">&#45;hdr&#45;render&#45;pipeline.hpp</text>
</a>
</g>
</g>
<!-- Node1&#45;&gt;Node2 -->
<g id="edge1_Node000001_Node000002" class="edge">
<title>Node1&#45;&gt;Node2</title>
<g id="a_edge1_Node000001_Node000002"><a xlink:title=" ">
<path fill="none" stroke="#63b8ff" d="M374.6,-267.68C291.9,-264.44 167.92,-253.71 138.12,-218.75 119.32,-196.68 150.13,-169.28 174.12,-152.74"/>
<polygon fill="#63b8ff" stroke="#63b8ff" points="374.35,-271.17 384.46,-268.03 374.6,-264.18 374.35,-271.17"/>
</a>
</g>
</g>
<!-- Node7 -->
<g id="Node000007" class="node">
<title>Node7</title>
<g id="a_Node000007"><a xlink:href="../../de/d8e/deferred-resolve_8hpp.html" target="_top" xlink:title=" ">
<polygon fill="white" stroke="#666666" points="507.5,-218.75 394.75,-218.75 394.75,-188.25 507.5,-188.25 507.5,-218.75"/>
<text text-anchor="start" x="402.75" y="-205.25" font-family="Helvetica,sans-Serif" font-size="10.00">engine/render/deferred</text>
<text text-anchor="middle" x="451.12" y="-194" font-family="Helvetica,sans-Serif" font-size="10.00">&#45;resolve.hpp</text>
</a>
</g>
</g>
<!-- Node1&#45;&gt;Node7 -->
<g id="edge7_Node000001_Node000007" class="edge">
<title>Node1&#45;&gt;Node7</title>
<g id="a_edge7_Node000001_Node000007"><a xlink:title=" ">
<path fill="none" stroke="#63b8ff" d="M451.12,-243.06C451.12,-234.89 451.12,-226.16 451.12,-219.08"/>
<polygon fill="#63b8ff" stroke="#63b8ff" points="447.63,-242.85 451.13,-252.85 454.63,-242.85 447.63,-242.85"/>
</a>
</g>
</g>
<!-- Node9 -->
<g id="Node000009" class="node">
<title>Node9</title>
<g id="a_Node000009"><a xlink:href="../../d2/deb/hdr-to-ldr-layer_8hpp.html" target="_top" xlink:title=" ">
<polygon fill="white" stroke="#666666" points="249.25,-218.75 147,-218.75 147,-188.25 249.25,-188.25 249.25,-218.75"/>
<text text-anchor="start" x="155" y="-205.25" font-family="Helvetica,sans-Serif" font-size="10.00">engine/render/hdr&#45;to</text>
<text text-anchor="middle" x="198.12" y="-194" font-family="Helvetica,sans-Serif" font-size="10.00">&#45;ldr&#45;layer.hpp</text>
</a>
</g>
</g>
<!-- Node1&#45;&gt;Node9 -->
<g id="edge10_Node000001_Node000009" class="edge">
<title>Node1&#45;&gt;Node9</title>
<g id="a_edge10_Node000001_Node000009"><a xlink:title=" ">
<path fill="none" stroke="#63b8ff" d="M382.45,-251.49C340.56,-240.81 287.89,-227.39 249.59,-217.62"/>
<polygon fill="#63b8ff" stroke="#63b8ff" points="381.38,-254.83 391.93,-253.91 383.11,-248.05 381.38,-254.83"/>
</a>
</g>
</g>
<!-- Node10 -->
<g id="Node000010" class="node">
<title>Node10</title>
<g id="a_Node000010"><a xlink:href="../../da/d7b/present-swapchain_8hpp.html" target="_top" xlink:title=" ">
<polygon fill="white" stroke="#666666" points="377,-218.75 267.25,-218.75 267.25,-188.25 377,-188.25 377,-218.75"/>
<text text-anchor="start" x="275.25" y="-205.25" font-family="Helvetica,sans-Serif" font-size="10.00">engine/render/present</text>
<text text-anchor="middle" x="322.12" y="-194" font-family="Helvetica,sans-Serif" font-size="10.00">&#45;swapchain.hpp</text>
</a>
</g>
</g>
<!-- Node1&#45;&gt;Node10 -->
<g id="edge12_Node000001_Node000010" class="edge">
<title>Node1&#45;&gt;Node10</title>
<g id="a_edge12_Node000001_Node000010"><a xlink:title=" ">
<path fill="none" stroke="#63b8ff" d="M411.75,-249.31C392.26,-239.57 369.15,-228.01 351.28,-219.08"/>
<polygon fill="#63b8ff" stroke="#63b8ff" points="409.99,-252.35 420.5,-253.69 413.12,-246.08 409.99,-252.35"/>
</a>
</g>
</g>
<!-- Node11 -->
<g id="Node000011" class="node">
<title>Node11</title>
<g id="a_Node000011"><a xlink:href="../../d1/d3c/post-processing_8cpp.html" target="_top" xlink:title=" ">
<polygon fill="white" stroke="#666666" points="655.12,-218.75 525.12,-218.75 525.12,-188.25 655.12,-188.25 655.12,-218.75"/>
<text text-anchor="start" x="533.12" y="-205.25" font-family="Helvetica,sans-Serif" font-size="10.00">engine/subsystems/render</text>
<text text-anchor="middle" x="590.12" y="-194" font-family="Helvetica,sans-Serif" font-size="10.00">/post&#45;processing.cpp</text>
</a>
</g>
</g>
<!-- Node1&#45;&gt;Node11 -->
<g id="edge15_Node000001_Node000011" class="edge">
<title>Node1&#45;&gt;Node11</title>
<g id="a_edge15_Node000001_Node000011"><a xlink:title=" ">
<path fill="none" stroke="#63b8ff" d="M492.97,-249.58C514.09,-239.78 539.27,-228.1 558.71,-219.08"/>
<polygon fill="#63b8ff" stroke="#63b8ff" points="491.64,-246.34 484.04,-253.73 494.58,-252.69 491.64,-246.34"/>
</a>
</g>
</g>
<!-- Node12 -->
<g id="Node000012" class="node">
<title>Node12</title>
<g id="a_Node000012"><a xlink:href="../../d3/de4/post-processing_8inl.html" target="_top" xlink:title=" ">
<polygon fill="white" stroke="#666666" points="803.12,-218.75 673.12,-218.75 673.12,-188.25 803.12,-188.25 803.12,-218.75"/>
<text text-anchor="start" x="681.12" y="-205.25" font-family="Helvetica,sans-Serif" font-size="10.00">engine/subsystems/render</text>
<text text-anchor="middle" x="738.12" y="-194" font-family="Helvetica,sans-Serif" font-size="10.00">/post&#45;processing.inl</text>
</a>
</g>
</g>
<!-- Node1&#45;&gt;Node12 -->
<g id="edge16_Node000001_Node000012" class="edge">
<title>Node1&#45;&gt;Node12</title>
<g id="a_edge16_Node000001_Node000012"><a xlink:title=" ">
<path fill="none" stroke="#63b8ff" d="M521.95,-251.72C568.05,-241.12 627.7,-227.75 672.7,-217.94"/>
<polygon fill="#63b8ff" stroke="#63b8ff" points="521.27,-248.29 512.31,-253.94 522.84,-255.11 521.27,-248.29"/>
</a>
</g>
</g>
<!-- Node3 -->
<g id="Node000003" class="node">
<title>Node3</title>
<g id="a_Node000003"><a xlink:href="../../dc/dfb/controller_8hpp.html" target="_top" xlink:title=" ">
<polygon fill="white" stroke="#666666" points="131.25,-80.12 17,-80.12 17,-60.88 131.25,-60.88 131.25,-80.12"/>
<text text-anchor="middle" x="74.12" y="-66.62" font-family="Helvetica,sans-Serif" font-size="10.00">d3d_test/controller.hpp</text>
</a>
</g>
</g>
<!-- Node2&#45;&gt;Node3 -->
<g id="edge2_Node000002_Node000003" class="edge">
<title>Node2&#45;&gt;Node3</title>
<g id="a_edge2_Node000002_Node000003"><a xlink:title=" ">
<path fill="none" stroke="#63b8ff" d="M159.9,-116.11C137.03,-104.22 109.09,-89.69 91.45,-80.51"/>
<polygon fill="#63b8ff" stroke="#63b8ff" points="158.16,-119.16 168.64,-120.67 161.39,-112.95 158.16,-119.16"/>
</a>
</g>
</g>
<!-- Node5 -->
<g id="Node000005" class="node">
<title>Node5</title>
<g id="a_Node000005"><a xlink:href="../../d9/d0f/main_8cc.html" target="_top" xlink:title=" ">
<polygon fill="white" stroke="#666666" points="222.25,-19.25 132,-19.25 132,0 222.25,0 222.25,-19.25"/>
<text text-anchor="middle" x="177.12" y="-5.75" font-family="Helvetica,sans-Serif" font-size="10.00">d3d_test/main.cc</text>
</a>
</g>
</g>
<!-- Node2&#45;&gt;Node5 -->
<g id="edge5_Node000002_Node000005" class="edge">
<title>Node2&#45;&gt;Node5</title>
<g id="a_edge5_Node000002_Node000005"><a xlink:title=" ">
<path fill="none" stroke="#63b8ff" d="M186.14,-111.1C182.89,-103.18 179.82,-94.26 178.12,-85.75 173.45,-62.21 174.98,-33.7 176.21,-19.52"/>
<polygon fill="#63b8ff" stroke="#63b8ff" points="182.86,-112.35 190.09,-120.1 189.27,-109.54 182.86,-112.35"/>
</a>
</g>
</g>
<!-- Node6 -->
<g id="Node000006" class="node">
<title>Node6</title>
<g id="a_Node000006"><a xlink:href="../../d1/da2/deferred-hdr-render-pipeline_8cpp.html" target="_top" xlink:title=" ">
<polygon fill="white" stroke="#666666" points="317.5,-85.75 186.75,-85.75 186.75,-55.25 317.5,-55.25 317.5,-85.75"/>
<text text-anchor="start" x="194.75" y="-72.25" font-family="Helvetica,sans-Serif" font-size="10.00">engine/direct3d11/deferred</text>
<text text-anchor="middle" x="252.12" y="-61" font-family="Helvetica,sans-Serif" font-size="10.00">&#45;hdr&#45;render&#45;pipeline.cpp</text>
</a>
</g>
</g>
<!-- Node2&#45;&gt;Node6 -->
<g id="edge6_Node000002_Node000006" class="edge">
<title>Node2&#45;&gt;Node6</title>
<g id="a_edge6_Node000002_Node000006"><a xlink:title=" ">
<path fill="none" stroke="#63b8ff" d="M217.72,-112.6C225.14,-103.73 233.37,-93.9 239.92,-86.08"/>
<polygon fill="#63b8ff" stroke="#63b8ff" points="215.09,-110.29 211.35,-120.2 220.45,-114.78 215.09,-110.29"/>
</a>
</g>
</g>
<!-- Node4 -->
<g id="Node000004" class="node">
<title>Node4</title>
<g id="a_Node000004"><a xlink:href="../../d1/d47/controller_8cpp.html" target="_top" xlink:title=" ">
<polygon fill="white" stroke="#666666" points="114.25,-19.25 0,-19.25 0,0 114.25,0 114.25,-19.25"/>
<text text-anchor="middle" x="57.12" y="-5.75" font-family="Helvetica,sans-Serif" font-size="10.00">d3d_test/controller.cpp</text>
</a>
</g>
</g>
<!-- Node3&#45;&gt;Node4 -->
<g id="edge3_Node000003_Node000004" class="edge">
<title>Node3&#45;&gt;Node4</title>
<g id="a_edge3_Node000003_Node000004"><a xlink:title=" ">
<path fill="none" stroke="#63b8ff" d="M68.42,-49.74C65.48,-39.56 62.04,-27.63 59.73,-19.65"/>
<polygon fill="#63b8ff" stroke="#63b8ff" points="64.99,-50.47 71.12,-59.1 71.71,-48.53 64.99,-50.47"/>
</a>
</g>
</g>
<!-- Node3&#45;&gt;Node5 -->
<g id="edge4_Node000003_Node000005" class="edge">
<title>Node3&#45;&gt;Node5</title>
<g id="a_edge4_Node000003_Node000005"><a xlink:title=" ">
<path fill="none" stroke="#63b8ff" d="M99.72,-54.87C119.05,-43.82 144.94,-29.02 161.33,-19.65"/>
<polygon fill="#63b8ff" stroke="#63b8ff" points="98.03,-51.81 91.08,-59.81 101.5,-57.88 98.03,-51.81"/>
</a>
</g>
</g>
<!-- Node7&#45;&gt;Node2 -->
<g id="edge8_Node000007_Node000002" class="edge">
<title>Node7&#45;&gt;Node2</title>
<g id="a_edge8_Node000007_Node000002"><a xlink:title=" ">
<path fill="none" stroke="#63b8ff" d="M383.38,-185.23C343.48,-175.06 293.55,-162.33 255.59,-152.65"/>
<polygon fill="#63b8ff" stroke="#63b8ff" points="382.33,-188.57 392.88,-187.65 384.05,-181.79 382.33,-188.57"/>
</a>
</g>
</g>
<!-- Node8 -->
<g id="Node000008" class="node">
<title>Node8</title>
<g id="a_Node000008"><a xlink:href="../../d4/d7c/deferred-resolve_8cpp.html" target="_top" xlink:title=" ">
<polygon fill="white" stroke="#666666" points="507.5,-152.25 394.75,-152.25 394.75,-121.75 507.5,-121.75 507.5,-152.25"/>
<text text-anchor="start" x="402.75" y="-138.75" font-family="Helvetica,sans-Serif" font-size="10.00">engine/render/deferred</text>
<text text-anchor="middle" x="451.12" y="-127.5" font-family="Helvetica,sans-Serif" font-size="10.00">&#45;resolve.cpp</text>
</a>
</g>
</g>
<!-- Node7&#45;&gt;Node8 -->
<g id="edge9_Node000007_Node000008" class="edge">
<title>Node7&#45;&gt;Node8</title>
<g id="a_edge9_Node000007_Node000008"><a xlink:title=" ">
<path fill="none" stroke="#63b8ff" d="M451.12,-176.56C451.12,-168.39 451.12,-159.66 451.12,-152.58"/>
<polygon fill="#63b8ff" stroke="#63b8ff" points="447.63,-176.35 451.13,-186.35 454.63,-176.35 447.63,-176.35"/>
</a>
</g>
</g>
<!-- Node9&#45;&gt;Node2 -->
<g id="edge11_Node000009_Node000002" class="edge">
<title>Node9&#45;&gt;Node2</title>
<g id="a_edge11_Node000009_Node000002"><a xlink:title=" ">
<path fill="none" stroke="#63b8ff" d="M198.12,-176.56C198.12,-168.39 198.12,-159.66 198.12,-152.58"/>
<polygon fill="#63b8ff" stroke="#63b8ff" points="194.63,-176.35 198.13,-186.35 201.63,-176.35 194.63,-176.35"/>
</a>
</g>
</g>
<!-- Node10&#45;&gt;Node2 -->
<g id="edge14_Node000010_Node000002" class="edge">
<title>Node10&#45;&gt;Node2</title>
<g id="a_edge14_Node000010_Node000002"><a xlink:title=" ">
<path fill="none" stroke="#63b8ff" d="M284.02,-182.68C265.34,-172.96 243.25,-161.47 226.15,-152.58"/>
<polygon fill="#63b8ff" stroke="#63b8ff" points="282.16,-185.66 292.64,-187.17 285.39,-179.45 282.16,-185.66"/>
</a>
</g>
</g>
<!-- Node10&#45;&gt;Node5 -->
<g id="edge13_Node000010_Node000005" class="edge">
<title>Node10&#45;&gt;Node5</title>
<g id="a_edge13_Node000010_Node000005"><a xlink:title=" ">
<path fill="none" stroke="#63b8ff" d="M331.48,-177.17C341.46,-145.37 352.51,-90.69 326.12,-55.25 302.5,-23.52 257.12,-13.49 222.62,-10.72"/>
<polygon fill="#63b8ff" stroke="#63b8ff" points="328.27,-175.75 328.41,-186.34 334.91,-177.97 328.27,-175.75"/>
</a>
</g>
</g>
<!-- Node12&#45;&gt;Node1 -->
<g id="edge17_Node000012_Node000001" class="edge">
<title>Node12&#45;&gt;Node1</title>
<g id="a_edge17_Node000012_Node000001"><a xlink:title=" ">
<path fill="none" stroke="#63b8ff" d="M667.53,-221.72C621.39,-232.33 561.61,-245.73 516.54,-255.56"/>
<polygon fill="#63b8ff" stroke="#63b8ff" points="668.22,-225.16 677.18,-219.5 666.65,-218.34 668.22,-225.16"/>
</a>
</g>
</g>
</g>
</svg>

<g id="navigator" transform="translate(0 0)" fill="#404254">
  <rect fill="#f2f5e9" fill-opacity="0.5" stroke="#606060" stroke-width=".5" x="0" y="0" width="60" height="60"/>
  <use id="zoomplus" xlink:href="#zoomPlus" x="17" y="9" onmousedown="handleZoom(evt,'in')"/>
  <use id="zoomminus" xlink:href="#zoomMin" x="42" y="9" onmousedown="handleZoom(evt,'out')"/>
  <use id="reset" xlink:href="#resetDef" x="30" y="36" onmousedown="handleReset()"/>
   <use id="arrowup" xlink:href="#arrowUp" x="0" y="0" onmousedown="handlePan(0,-1)"/>
  <use id="arrowright" xlink:href="#arrowRight" x="0" y="0" onmousedown="handlePan(1,0)"/>
  <use id="arrowdown" xlink:href="#arrowDown" x="0" y="0" onmousedown="handlePan(0,1)"/>
  <use id="arrowleft" xlink:href="#arrowLeft" x="0" y="0" onmousedown="handlePan(-1,0)"/>
</g>
<svg viewBox="0 0 15 15" width="100%" height="30px" preserveAspectRatio="xMaxYMin meet">
 <g id="arrow_out" transform="scale(0.3 0.3)">
  <a xlink:href="post-processing_8hpp__dep__incl_org.svg" target="_base">
   <rect id="button" ry="5" rx="5" y="6" x="6" height="38" width="38"
        fill="#f2f5e9" fill-opacity="0.5" stroke="#606060" stroke-width="1.0"/>
   <path id="arrow"
     d="M 11.500037,31.436501 C 11.940474,20.09759 22.043105,11.32322 32.158766,21.979434 L 37.068811,17.246167 C 37.068811,17.246167 37.088388,32 37.088388,32 L 22.160133,31.978069 C 22.160133,31.978069 26.997745,27.140456 26.997745,27.140456 C 18.528582,18.264221 13.291696,25.230495 11.500037,31.436501 z"
     style="fill:#404040;"/>
  </a>
 </g>
</svg>

<style type='text/css'>
<![CDATA[
[data-mouse-over-selected='false'] { opacity: 0.7; }
[data-mouse-over-selected='true']  { opacity: 1.0; }
]]>
</style>
<script type="application/ecmascript"><![CDATA[
document.addEventListener('DOMContentLoaded', (event) => {
  highlightEdges();
  highlightAdjacentNodes();
});
]]></script>
</svg>
