<?xml version="1.0" encoding="UTF-8" standalone="no"?>
<!DOCTYPE svg PUBLIC "-//W3C//DTD SVG 1.1//EN"
 "http://www.w3.org/Graphics/SVG/1.1/DTD/svg11.dtd">
<!-- Generated by graphviz version 8.1.0 (20230707.0739)
 -->
<!-- Title: engine::core::ImGuiLayer Pages: 1 -->
<svg width="218pt" height="94pt"
 viewBox="0.00 0.00 218.25 93.75" xmlns="http://www.w3.org/2000/svg" xmlns:xlink="http://www.w3.org/1999/xlink">
<g id="graph0" class="graph" transform="scale(1 1) rotate(0) translate(4 89.75)">
<title>engine::core::ImGuiLayer</title>
<!-- Node1 -->
<g id="Node000001" class="node">
<title>Node1</title>
<g id="a_Node000001"><a xlink:title=" ">
<polygon fill="#999999" stroke="#666666" points="166.38,-19.25 43.88,-19.25 43.88,0 166.38,0 166.38,-19.25"/>
<text text-anchor="middle" x="105.12" y="-5.75" font-family="Helvetica,sans-Serif" font-size="10.00">engine::core::ImGuiLayer</text>
</a>
</g>
</g>
<!-- Node2 -->
<g id="Node000002" class="node">
<title>Node2</title>
<g id="a_Node000002"><a xlink:href="../../d0/d04/classengine_1_1core_1_1_layer.html" target="_top" xlink:title=" ">
<polygon fill="white" stroke="#666666" points="96.25,-80.12 0,-80.12 0,-60.88 96.25,-60.88 96.25,-80.12"/>
<text text-anchor="middle" x="48.12" y="-66.62" font-family="Helvetica,sans-Serif" font-size="10.00">engine::core::Layer</text>
</a>
</g>
</g>
<!-- Node2&#45;&gt;Node1 -->
<g id="edge1_Node000001_Node000002" class="edge">
<title>Node2&#45;&gt;Node1</title>
<g id="a_edge1_Node000001_Node000002"><a xlink:title=" ">
<path fill="none" stroke="#63b8ff" d="M64.41,-52.68C74.82,-41.93 87.9,-28.41 96.39,-19.65"/>
<polygon fill="#63b8ff" stroke="#63b8ff" points="62.22,-49.94 57.78,-59.56 67.25,-54.81 62.22,-49.94"/>
</a>
</g>
</g>
<!-- Node3 -->
<g id="Node000003" class="node">
<title>Node3</title>
<g id="a_Node000003"><a xlink:href="../../dd/dd4/structengine_1_1core_1_1_layer_1_1_handle_event.html" target="_top" xlink:title=" ">
<polygon fill="white" stroke="#666666" points="210.25,-85.75 114,-85.75 114,-55.25 210.25,-55.25 210.25,-85.75"/>
<text text-anchor="start" x="122" y="-72.25" font-family="Helvetica,sans-Serif" font-size="10.00">engine::core::Layer</text>
<text text-anchor="middle" x="162.12" y="-61" font-family="Helvetica,sans-Serif" font-size="10.00">::HandleEvent</text>
</a>
</g>
</g>
<!-- Node3&#45;&gt;Node1 -->
<g id="edge2_Node000001_Node000003" class="edge">
<title>Node3&#45;&gt;Node1</title>
<g id="a_edge2_Node000001_Node000003"><a xlink:title=" ">
<path fill="none" stroke="#63b8ff" d="M140.59,-47.26C131.33,-37.69 121.02,-27.04 113.91,-19.7"/>
<polygon fill="#63b8ff" stroke="#63b8ff" points="137.56,-49.2 147.04,-53.95 142.59,-44.33 137.56,-49.2"/>
</a>
</g>
</g>
</g>
</svg>
