<?xml version="1.0" encoding="UTF-8" standalone="no"?>
<!DOCTYPE svg PUBLIC "-//W3C//DTD SVG 1.1//EN"
 "http://www.w3.org/Graphics/SVG/1.1/DTD/svg11.dtd">
<!-- Generated by graphviz version 8.1.0 (20230707.0739)
 -->
<!-- Title: engine/direct3d11/d3d&#45;common.hpp Pages: 1 -->
<!--zoomable 149 -->

<svg id="main" version="1.1" xmlns="http://www.w3.org/2000/svg" xmlns:xlink="http://www.w3.org/1999/xlink" xml:space="preserve" onload="init(evt)">
<style type="text/css"><![CDATA[
.node, .edge {opacity: 0.7;}
.node.selected, .edge.selected {opacity: 1;}
.edge:hover path { stroke: red; }
.edge:hover polygon { stroke: red; fill: red; }
]]></style>

<defs>
  <circle id="rim" cx="0" cy="0" r="7"/>
  <circle id="rim2" cx="0" cy="0" r="3.5"/>
  <g id="zoomPlus">
    <use xlink:href="#rim" fill="#404040"><set attributeName="fill" to="#808080" begin="zoomplus.mouseover" end="zoomplus.mouseout"/></use>
    <path d="M-4,0h8M0,-4v8" fill="none" stroke="white" stroke-width="1.5" pointer-events="none"/>
  </g>
  <g id="zoomMin">
    <use xlink:href="#rim" fill="#404040"><set attributeName="fill" to="#808080" begin="zoomminus.mouseover" end="zoomminus.mouseout"/></use>
    <path d="M-4,0h8" fill="none" stroke="white" stroke-width="1.5" pointer-events="none"/>
  </g>
  <g id="arrowUp" transform="translate(30 24)">
    <use xlink:href="#rim"/>
    <path pointer-events="none" fill="none" stroke="white" stroke-width="1.5" d="M0,-3.0v7 M-2.5,-0.5L0,-3.0L2.5,-0.5"/>
  </g>
  <g id="arrowRight" transform="rotate(90) translate(36 -43)">
    <use xlink:href="#rim"/>
    <path pointer-events="none" fill="none" stroke="white" stroke-width="1.5" d="M0,-3.0v7 M-2.5,-0.5L0,-3.0L2.5,-0.5"/>
  </g>
  <g id="arrowDown" transform="rotate(180) translate(-30 -48)">
    <use xlink:href="#rim"/>
    <path pointer-events="none" fill="none" stroke="white" stroke-width="1.5" d="M0,-3.0v7 M-2.5,-0.5L0,-3.0L2.5,-0.5"/>
  </g>
  <g id="arrowLeft" transform="rotate(270) translate(-36 17)">
    <use xlink:href="#rim"/>
    <path pointer-events="none" fill="none" stroke="white" stroke-width="1.5" d="M0,-3.0v7 M-2.5,-0.5L0,-3.0L2.5,-0.5"/>
  </g>
  <g id="resetDef">
    <use xlink:href="#rim2" fill="#404040"><set attributeName="fill" to="#808080" begin="reset.mouseover" end="reset.mouseout"/></use>
  </g>
</defs>
<script type="application/ecmascript">
var viewWidth = 3021;
var viewHeight = 149;
var sectionId = 'dynsection-0';
</script>
<script type="application/ecmascript" xlink:href="../../svg.min.js"/>
<svg id="graph" class="graph">
<g id="viewport">
<title>engine/direct3d11/d3d&#45;common.hpp</title>
<!-- Node1 -->
<g id="Node000001" class="node">
<title>Node1</title>
<g id="a_Node000001"><a xlink:title=" ">
<polygon fill="#999999" stroke="#666666" points="1703.38,-141.5 1592.12,-141.5 1592.12,-111 1703.38,-111 1703.38,-141.5"/>
<text text-anchor="start" x="1600.12" y="-128" font-family="Helvetica,sans-Serif" font-size="10.00">engine/direct3d11/d3d</text>
<text text-anchor="middle" x="1647.75" y="-116.75" font-family="Helvetica,sans-Serif" font-size="10.00">&#45;common.hpp</text>
</a>
</g>
</g>
<!-- Node2 -->
<g id="Node000002" class="node">
<title>Node2</title>
<g id="a_Node000002"><a xlink:href="../../d1/d0a/d3d_8hpp.html" target="_top" xlink:title=" ">
<polygon fill="white" stroke="#666666" points="241.5,-75 158,-75 158,-55.75 241.5,-55.75 241.5,-75"/>
<text text-anchor="middle" x="199.75" y="-61.5" font-family="Helvetica,sans-Serif" font-size="10.00">include/d3d.hpp</text>
</a>
</g>
</g>
<!-- Node1&#45;&gt;Node2 -->
<g id="edge1_Node000001_Node000002" class="edge">
<title>Node1&#45;&gt;Node2</title>
<g id="a_edge1_Node000001_Node000002"><a xlink:title=" ">
<path fill="none" stroke="#63b8ff" d="M1591.87,-122.98C1360.47,-113.57 478.8,-77.72 252.79,-68.53"/>
<polygon fill="#63b8ff" stroke="#63b8ff" points="253.04,-65 242.91,-68.09 252.76,-71.99 253.04,-65"/>
</a>
</g>
</g>
<!-- Node7 -->
<g id="Node000007" class="node">
<title>Node7</title>
<g id="a_Node000007"><a xlink:href="../../db/d6e/library-pch_8hpp.html" target="_top" xlink:title=" ">
<polygon fill="white" stroke="#666666" points="1649.75,-75 1537.75,-75 1537.75,-55.75 1649.75,-55.75 1649.75,-75"/>
<text text-anchor="middle" x="1593.75" y="-61.5" font-family="Helvetica,sans-Serif" font-size="10.00">include/library&#45;pch.hpp</text>
</a>
</g>
</g>
<!-- Node1&#45;&gt;Node7 -->
<g id="edge6_Node000001_Node000007" class="edge">
<title>Node1&#45;&gt;Node7</title>
<g id="a_edge6_Node000001_Node000007"><a xlink:title=" ">
<path fill="none" stroke="#63b8ff" d="M1634.4,-110.7C1626.81,-102.42 1617.27,-92.02 1609.34,-83.37"/>
<polygon fill="#63b8ff" stroke="#63b8ff" points="1612.41,-81.45 1603.07,-76.45 1607.25,-86.19 1612.41,-81.45"/>
</a>
</g>
</g>
<!-- Node45 -->
<g id="Node000045" class="node">
<title>Node45</title>
<g id="a_Node000045"><a xlink:href="../../de/df7/typedefs_8hpp.html" target="_top" xlink:title=" ">
<polygon fill="white" stroke="#666666" points="1738.12,-75 1667.38,-75 1667.38,-55.75 1738.12,-55.75 1738.12,-75"/>
<text text-anchor="middle" x="1702.75" y="-61.5" font-family="Helvetica,sans-Serif" font-size="10.00">typedefs.hpp</text>
</a>
</g>
</g>
<!-- Node1&#45;&gt;Node45 -->
<g id="edge45_Node000001_Node000045" class="edge">
<title>Node1&#45;&gt;Node45</title>
<g id="a_edge45_Node000001_Node000045"><a xlink:title=" ">
<path fill="none" stroke="#63b8ff" d="M1655.43,-110.7C1662.28,-102.25 1672.18,-91.58 1681.25,-82.83"/>
<polygon fill="#63b8ff" stroke="#63b8ff" points="1683.27,-85.81 1688.23,-76.45 1678.51,-80.67 1683.27,-85.81"/>
</a>
</g>
</g>
<!-- Node3 -->
<g id="Node000003" class="node">
<title>Node3</title>
<g id="a_Node000003"><a xlink:href="../../d8/d2a/win-def_8hpp.html" target="_top" xlink:title=" ">
<polygon fill="white" stroke="#666666" points="65.5,-19.75 0,-19.75 0,-0.5 65.5,-0.5 65.5,-19.75"/>
<text text-anchor="middle" x="32.75" y="-6.25" font-family="Helvetica,sans-Serif" font-size="10.00">win&#45;def.hpp</text>
</a>
</g>
</g>
<!-- Node2&#45;&gt;Node3 -->
<g id="edge2_Node000002_Node000003" class="edge">
<title>Node2&#45;&gt;Node3</title>
<g id="a_edge2_Node000002_Node000003"><a xlink:title=" ">
<path fill="none" stroke="#63b8ff" d="M171.42,-55.34C143.95,-46.58 102.06,-33.22 71.51,-23.48"/>
<polygon fill="#63b8ff" stroke="#63b8ff" points="72.81,-19.9 62.22,-20.2 70.68,-26.57 72.81,-19.9"/>
</a>
</g>
</g>
<!-- Node4 -->
<g id="Node000004" class="node">
<title>Node4</title>
<g id="a_Node000004"><a xlink:title=" ">
<polygon fill="#e0e0e0" stroke="#999999" points="143.88,-19.75 83.62,-19.75 83.62,-0.5 143.88,-0.5 143.88,-19.75"/>
<text text-anchor="middle" x="113.75" y="-6.25" font-family="Helvetica,sans-Serif" font-size="10.00">d3d11_4.h</text>
</a>
</g>
</g>
<!-- Node2&#45;&gt;Node4 -->
<g id="edge3_Node000002_Node000004" class="edge">
<title>Node2&#45;&gt;Node4</title>
<g id="a_edge3_Node000002_Node000004"><a xlink:title=" ">
<path fill="none" stroke="#63b8ff" d="M185.16,-55.34C172.19,-47.31 152.97,-35.41 137.74,-25.98"/>
<polygon fill="#63b8ff" stroke="#63b8ff" points="139.75,-22.49 129.41,-20.2 136.07,-28.44 139.75,-22.49"/>
</a>
</g>
</g>
<!-- Node5 -->
<g id="Node000005" class="node">
<title>Node5</title>
<g id="a_Node000005"><a xlink:title=" ">
<polygon fill="#e0e0e0" stroke="#999999" points="237.75,-19.75 161.75,-19.75 161.75,-0.5 237.75,-0.5 237.75,-19.75"/>
<text text-anchor="middle" x="199.75" y="-6.25" font-family="Helvetica,sans-Serif" font-size="10.00">d3dcompiler.h</text>
</a>
</g>
</g>
<!-- Node2&#45;&gt;Node5 -->
<g id="edge4_Node000002_Node000005" class="edge">
<title>Node2&#45;&gt;Node5</title>
<g id="a_edge4_Node000002_Node000005"><a xlink:title=" ">
<path fill="none" stroke="#63b8ff" d="M199.75,-55.58C199.75,-48.91 199.75,-39.49 199.75,-31.03"/>
<polygon fill="#63b8ff" stroke="#63b8ff" points="203.25,-31.11 199.75,-21.11 196.25,-31.11 203.25,-31.11"/>
</a>
</g>
</g>
<!-- Node6 -->
<g id="Node000006" class="node">
<title>Node6</title>
<g id="a_Node000006"><a xlink:href="../../d4/dfc/win-undef_8hpp.html" target="_top" xlink:title=" ">
<polygon fill="white" stroke="#666666" points="331.75,-19.75 255.75,-19.75 255.75,-0.5 331.75,-0.5 331.75,-19.75"/>
<text text-anchor="middle" x="293.75" y="-6.25" font-family="Helvetica,sans-Serif" font-size="10.00">win&#45;undef.hpp</text>
</a>
</g>
</g>
<!-- Node2&#45;&gt;Node6 -->
<g id="edge5_Node000002_Node000006" class="edge">
<title>Node2&#45;&gt;Node6</title>
<g id="a_edge5_Node000002_Node000006"><a xlink:title=" ">
<path fill="none" stroke="#63b8ff" d="M215.7,-55.34C230.15,-47.15 251.68,-34.95 268.48,-25.44"/>
<polygon fill="#63b8ff" stroke="#63b8ff" points="269.75,-28.18 276.73,-20.2 266.3,-22.08 269.75,-28.18"/>
</a>
</g>
</g>
<!-- Node8 -->
<g id="Node000008" class="node">
<title>Node8</title>
<g id="a_Node000008"><a xlink:title=" ">
<polygon fill="#e0e0e0" stroke="#999999" points="419.75,-19.75 349.75,-19.75 349.75,-0.5 419.75,-0.5 419.75,-19.75"/>
<text text-anchor="middle" x="384.75" y="-6.25" font-family="Helvetica,sans-Serif" font-size="10.00">entt/entt.hpp</text>
</a>
</g>
</g>
<!-- Node7&#45;&gt;Node8 -->
<g id="edge7_Node000007_Node000008" class="edge">
<title>Node7&#45;&gt;Node8</title>
<g id="a_edge7_Node000007_Node000008"><a xlink:title=" ">
<path fill="none" stroke="#63b8ff" d="M1537.46,-63.38C1338.51,-59.68 668.11,-45.64 430.85,-19.77"/>
<polygon fill="#63b8ff" stroke="#63b8ff" points="431.55,-16.21 421.22,-18.57 430.76,-23.17 431.55,-16.21"/>
</a>
</g>
</g>
<!-- Node9 -->
<g id="Node000009" class="node">
<title>Node9</title>
<g id="a_Node000009"><a xlink:title=" ">
<polygon fill="#e0e0e0" stroke="#999999" points="493.62,-19.75 437.88,-19.75 437.88,-0.5 493.62,-0.5 493.62,-19.75"/>
<text text-anchor="middle" x="465.75" y="-6.25" font-family="Helvetica,sans-Serif" font-size="10.00">algorithm</text>
</a>
</g>
</g>
<!-- Node7&#45;&gt;Node9 -->
<g id="edge8_Node000007_Node000009" class="edge">
<title>Node7&#45;&gt;Node9</title>
<g id="a_edge8_Node000007_Node000009"><a xlink:title=" ">
<path fill="none" stroke="#63b8ff" d="M1537.3,-63.52C1346.55,-60.39 725.92,-48.36 504.8,-19.88"/>
<polygon fill="#63b8ff" stroke="#63b8ff" points="505.33,-16.29 494.95,-18.43 504.4,-23.23 505.33,-16.29"/>
</a>
</g>
</g>
<!-- Node10 -->
<g id="Node000010" class="node">
<title>Node10</title>
<g id="a_Node000010"><a xlink:title=" ">
<polygon fill="#e0e0e0" stroke="#999999" points="548.25,-19.75 511.25,-19.75 511.25,-0.5 548.25,-0.5 548.25,-19.75"/>
<text text-anchor="middle" x="529.75" y="-6.25" font-family="Helvetica,sans-Serif" font-size="10.00">array</text>
</a>
</g>
</g>
<!-- Node7&#45;&gt;Node10 -->
<g id="edge9_Node000007_Node000010" class="edge">
<title>Node7&#45;&gt;Node10</title>
<g id="a_edge9_Node000007_Node000010"><a xlink:title=" ">
<path fill="none" stroke="#63b8ff" d="M1537.54,-63.84C1353.47,-61.81 769.02,-53 559.17,-19.41"/>
<polygon fill="#63b8ff" stroke="#63b8ff" points="560.01,-15.84 549.57,-17.64 558.85,-22.74 560.01,-15.84"/>
</a>
</g>
</g>
<!-- Node11 -->
<g id="Node000011" class="node">
<title>Node11</title>
<g id="a_Node000011"><a xlink:title=" ">
<polygon fill="#e0e0e0" stroke="#999999" points="617,-19.75 566.5,-19.75 566.5,-0.5 617,-0.5 617,-19.75"/>
<text text-anchor="middle" x="591.75" y="-6.25" font-family="Helvetica,sans-Serif" font-size="10.00">assert.h</text>
</a>
</g>
</g>
<!-- Node7&#45;&gt;Node11 -->
<g id="edge10_Node000007_Node000011" class="edge">
<title>Node7&#45;&gt;Node11</title>
<g id="a_edge10_Node000007_Node000011"><a xlink:title=" ">
<path fill="none" stroke="#63b8ff" d="M1537.26,-63.27C1361.33,-59.6 823.85,-46.59 627.99,-19.72"/>
<polygon fill="#63b8ff" stroke="#63b8ff" points="628.65,-16.14 618.26,-18.18 627.66,-23.07 628.65,-16.14"/>
</a>
</g>
</g>
<!-- Node12 -->
<g id="Node000012" class="node">
<title>Node12</title>
<g id="a_Node000012"><a xlink:title=" ">
<polygon fill="#e0e0e0" stroke="#999999" points="680.38,-19.75 635.12,-19.75 635.12,-0.5 680.38,-0.5 680.38,-19.75"/>
<text text-anchor="middle" x="657.75" y="-6.25" font-family="Helvetica,sans-Serif" font-size="10.00">chrono</text>
</a>
</g>
</g>
<!-- Node7&#45;&gt;Node12 -->
<g id="edge11_Node000007_Node000012" class="edge">
<title>Node7&#45;&gt;Node12</title>
<g id="a_edge11_Node000007_Node000012"><a xlink:title=" ">
<path fill="none" stroke="#63b8ff" d="M1537.32,-63.23C1369.41,-59.58 873.75,-46.89 691.42,-19.78"/>
<polygon fill="#63b8ff" stroke="#63b8ff" points="692.07,-16.19 681.65,-18.1 690.99,-23.1 692.07,-16.19"/>
</a>
</g>
</g>
<!-- Node13 -->
<g id="Node000013" class="node">
<title>Node13</title>
<g id="a_Node000013"><a xlink:title=" ">
<polygon fill="#e0e0e0" stroke="#999999" points="741.25,-19.75 698.25,-19.75 698.25,-0.5 741.25,-0.5 741.25,-19.75"/>
<text text-anchor="middle" x="719.75" y="-6.25" font-family="Helvetica,sans-Serif" font-size="10.00">cmath</text>
</a>
</g>
</g>
<!-- Node7&#45;&gt;Node13 -->
<g id="edge12_Node000007_Node000013" class="edge">
<title>Node7&#45;&gt;Node13</title>
<g id="a_edge12_Node000007_Node000013"><a xlink:title=" ">
<path fill="none" stroke="#63b8ff" d="M1537.39,-63.06C1377.48,-59.08 922.1,-45.89 752.34,-19.76"/>
<polygon fill="#63b8ff" stroke="#63b8ff" points="753,-16.16 742.57,-18.02 751.89,-23.07 753,-16.16"/>
</a>
</g>
</g>
<!-- Node14 -->
<g id="Node000014" class="node">
<title>Node14</title>
<g id="a_Node000014"><a xlink:title=" ">
<polygon fill="#e0e0e0" stroke="#999999" points="814.62,-19.75 758.88,-19.75 758.88,-0.5 814.62,-0.5 814.62,-19.75"/>
<text text-anchor="middle" x="786.75" y="-6.25" font-family="Helvetica,sans-Serif" font-size="10.00">concepts</text>
</a>
</g>
</g>
<!-- Node7&#45;&gt;Node14 -->
<g id="edge13_Node000007_Node000014" class="edge">
<title>Node7&#45;&gt;Node14</title>
<g id="a_edge13_Node000007_Node000014"><a xlink:title=" ">
<path fill="none" stroke="#63b8ff" d="M1537.38,-64.4C1411.37,-63.74 1097.24,-58.18 825.79,-19.78"/>
<polygon fill="#63b8ff" stroke="#63b8ff" points="826.33,-16.17 815.94,-18.22 825.34,-23.1 826.33,-16.17"/>
</a>
</g>
</g>
<!-- Node15 -->
<g id="Node000015" class="node">
<title>Node15</title>
<g id="a_Node000015"><a xlink:title=" ">
<polygon fill="#e0e0e0" stroke="#999999" points="926.75,-19.75 832.75,-19.75 832.75,-0.5 926.75,-0.5 926.75,-19.75"/>
<text text-anchor="middle" x="879.75" y="-6.25" font-family="Helvetica,sans-Serif" font-size="10.00">condition_variable</text>
</a>
</g>
</g>
<!-- Node7&#45;&gt;Node15 -->
<g id="edge14_Node000007_Node000015" class="edge">
<title>Node7&#45;&gt;Node15</title>
<g id="a_edge14_Node000007_Node000015"><a xlink:title=" ">
<path fill="none" stroke="#63b8ff" d="M1537.27,-62.16C1425.07,-57.42 1165.93,-44.72 937.9,-19.89"/>
<polygon fill="#63b8ff" stroke="#63b8ff" points="938.39,-16.32 928.07,-18.7 937.63,-23.27 938.39,-16.32"/>
</a>
</g>
</g>
<!-- Node16 -->
<g id="Node000016" class="node">
<title>Node16</title>
<g id="a_Node000016"><a xlink:title=" ">
<polygon fill="#e0e0e0" stroke="#999999" points="990.38,-19.75 945.12,-19.75 945.12,-0.5 990.38,-0.5 990.38,-19.75"/>
<text text-anchor="middle" x="967.75" y="-6.25" font-family="Helvetica,sans-Serif" font-size="10.00">cstdint</text>
</a>
</g>
</g>
<!-- Node7&#45;&gt;Node16 -->
<g id="edge15_Node000007_Node000016" class="edge">
<title>Node7&#45;&gt;Node16</title>
<g id="a_edge15_Node000007_Node000016"><a xlink:title=" ">
<path fill="none" stroke="#63b8ff" d="M1537.64,-63.67C1433.6,-61.6 1203.74,-53.46 1001.53,-19.7"/>
<polygon fill="#63b8ff" stroke="#63b8ff" points="1002.15,-16.09 991.71,-17.87 1000.98,-22.99 1002.15,-16.09"/>
</a>
</g>
</g>
<!-- Node17 -->
<g id="Node000017" class="node">
<title>Node17</title>
<g id="a_Node000017"><a xlink:title=" ">
<polygon fill="#e0e0e0" stroke="#999999" points="1053,-19.75 1008.5,-19.75 1008.5,-0.5 1053,-0.5 1053,-19.75"/>
<text text-anchor="middle" x="1030.75" y="-6.25" font-family="Helvetica,sans-Serif" font-size="10.00">cstdlib</text>
</a>
</g>
</g>
<!-- Node7&#45;&gt;Node17 -->
<g id="edge16_Node000007_Node000017" class="edge">
<title>Node7&#45;&gt;Node17</title>
<g id="a_edge16_Node000007_Node000017"><a xlink:title=" ">
<path fill="none" stroke="#63b8ff" d="M1537.39,-63.11C1441.68,-60.22 1241.29,-50.89 1063.9,-19.82"/>
<polygon fill="#63b8ff" stroke="#63b8ff" points="1064.78,-16.24 1054.32,-17.93 1063.55,-23.13 1064.78,-16.24"/>
</a>
</g>
</g>
<!-- Node18 -->
<g id="Node000018" class="node">
<title>Node18</title>
<g id="a_Node000018"><a xlink:title=" ">
<polygon fill="#e0e0e0" stroke="#999999" points="1130.5,-19.75 1071,-19.75 1071,-0.5 1130.5,-0.5 1130.5,-19.75"/>
<text text-anchor="middle" x="1100.75" y="-6.25" font-family="Helvetica,sans-Serif" font-size="10.00">filesystem</text>
</a>
</g>
</g>
<!-- Node7&#45;&gt;Node18 -->
<g id="edge17_Node000007_Node000018" class="edge">
<title>Node7&#45;&gt;Node18</title>
<g id="a_edge17_Node000007_Node000018"><a xlink:title=" ">
<path fill="none" stroke="#63b8ff" d="M1537.42,-61.13C1453.18,-55.78 1289.27,-43.43 1141.57,-20.04"/>
<polygon fill="#63b8ff" stroke="#63b8ff" points="1142.39,-16.47 1131.97,-18.34 1141.28,-23.38 1142.39,-16.47"/>
</a>
</g>
</g>
<!-- Node19 -->
<g id="Node000019" class="node">
<title>Node19</title>
<g id="a_Node000019"><a xlink:title=" ">
<polygon fill="#e0e0e0" stroke="#999999" points="1197.25,-19.75 1148.25,-19.75 1148.25,-0.5 1197.25,-0.5 1197.25,-19.75"/>
<text text-anchor="middle" x="1172.75" y="-6.25" font-family="Helvetica,sans-Serif" font-size="10.00">fstream</text>
</a>
</g>
</g>
<!-- Node7&#45;&gt;Node19 -->
<g id="edge18_Node000007_Node000019" class="edge">
<title>Node7&#45;&gt;Node19</title>
<g id="a_edge18_Node000007_Node000019"><a xlink:title=" ">
<path fill="none" stroke="#63b8ff" d="M1537.32,-60.24C1463.8,-54.34 1331.11,-41.89 1208.26,-19.78"/>
<polygon fill="#63b8ff" stroke="#63b8ff" points="1209.01,-16.18 1198.55,-17.82 1207.76,-23.06 1209.01,-16.18"/>
</a>
</g>
</g>
<!-- Node20 -->
<g id="Node000020" class="node">
<title>Node20</title>
<g id="a_Node000020"><a xlink:title=" ">
<polygon fill="#e0e0e0" stroke="#999999" points="1273.75,-19.75 1215.75,-19.75 1215.75,-0.5 1273.75,-0.5 1273.75,-19.75"/>
<text text-anchor="middle" x="1244.75" y="-6.25" font-family="Helvetica,sans-Serif" font-size="10.00">functional</text>
</a>
</g>
</g>
<!-- Node7&#45;&gt;Node20 -->
<g id="edge19_Node000007_Node000020" class="edge">
<title>Node7&#45;&gt;Node20</title>
<g id="a_edge19_Node000007_Node000020"><a xlink:title=" ">
<path fill="none" stroke="#63b8ff" d="M1537.34,-57.67C1477.12,-50.2 1378.68,-37.1 1284.71,-19.99"/>
<polygon fill="#63b8ff" stroke="#63b8ff" points="1285.63,-16.41 1275.16,-18.05 1284.36,-23.3 1285.63,-16.41"/>
</a>
</g>
</g>
<!-- Node21 -->
<g id="Node000021" class="node">
<title>Node21</title>
<g id="a_Node000021"><a xlink:title=" ">
<polygon fill="#e0e0e0" stroke="#999999" points="1341.62,-19.75 1291.88,-19.75 1291.88,-0.5 1341.62,-0.5 1341.62,-19.75"/>
<text text-anchor="middle" x="1316.75" y="-6.25" font-family="Helvetica,sans-Serif" font-size="10.00">iomanip</text>
</a>
</g>
</g>
<!-- Node7&#45;&gt;Node21 -->
<g id="edge20_Node000007_Node000021" class="edge">
<title>Node7&#45;&gt;Node21</title>
<g id="a_edge20_Node000007_Node000021"><a xlink:title=" ">
<path fill="none" stroke="#63b8ff" d="M1538.53,-55.32C1491.55,-47.36 1422.06,-35.03 1352.64,-20.05"/>
<polygon fill="#63b8ff" stroke="#63b8ff" points="1353.47,-16.43 1342.96,-17.72 1351.98,-23.27 1353.47,-16.43"/>
</a>
</g>
</g>
<!-- Node22 -->
<g id="Node000022" class="node">
<title>Node22</title>
<g id="a_Node000022"><a xlink:title=" ">
<polygon fill="#e0e0e0" stroke="#999999" points="1407.88,-19.75 1359.62,-19.75 1359.62,-0.5 1407.88,-0.5 1407.88,-19.75"/>
<text text-anchor="middle" x="1383.75" y="-6.25" font-family="Helvetica,sans-Serif" font-size="10.00">istream</text>
</a>
</g>
</g>
<!-- Node7&#45;&gt;Node22 -->
<g id="edge21_Node000007_Node000022" class="edge">
<title>Node7&#45;&gt;Node22</title>
<g id="a_edge21_Node000007_Node000022"><a xlink:title=" ">
<path fill="none" stroke="#63b8ff" d="M1557.45,-55.32C1523.83,-46.91 1472.14,-33.93 1418.62,-20.21"/>
<polygon fill="#63b8ff" stroke="#63b8ff" points="1419.81,-16.65 1409.25,-17.55 1418.07,-23.43 1419.81,-16.65"/>
</a>
</g>
</g>
<!-- Node23 -->
<g id="Node000023" class="node">
<title>Node23</title>
<g id="a_Node000023"><a xlink:title=" ">
<polygon fill="#e0e0e0" stroke="#999999" points="1465.38,-19.75 1426.12,-19.75 1426.12,-0.5 1465.38,-0.5 1465.38,-19.75"/>
<text text-anchor="middle" x="1445.75" y="-6.25" font-family="Helvetica,sans-Serif" font-size="10.00">limits</text>
</a>
</g>
</g>
<!-- Node7&#45;&gt;Node23 -->
<g id="edge22_Node000007_Node000023" class="edge">
<title>Node7&#45;&gt;Node23</title>
<g id="a_edge22_Node000007_Node000023"><a xlink:title=" ">
<path fill="none" stroke="#63b8ff" d="M1568.64,-55.34C1543.02,-46.12 1503.23,-31.8 1475.91,-21.97"/>
<polygon fill="#63b8ff" stroke="#63b8ff" points="1477.34,-18.41 1466.75,-18.32 1474.97,-25 1477.34,-18.41"/>
</a>
</g>
</g>
<!-- Node24 -->
<g id="Node000024" class="node">
<title>Node24</title>
<g id="a_Node000024"><a xlink:title=" ">
<polygon fill="#e0e0e0" stroke="#999999" points="1518.12,-19.75 1483.38,-19.75 1483.38,-0.5 1518.12,-0.5 1518.12,-19.75"/>
<text text-anchor="middle" x="1500.75" y="-6.25" font-family="Helvetica,sans-Serif" font-size="10.00">map</text>
</a>
</g>
</g>
<!-- Node7&#45;&gt;Node24 -->
<g id="edge23_Node000007_Node000024" class="edge">
<title>Node7&#45;&gt;Node24</title>
<g id="a_edge23_Node000007_Node000024"><a xlink:title=" ">
<path fill="none" stroke="#63b8ff" d="M1577.97,-55.34C1563.68,-47.15 1542.37,-34.95 1525.76,-25.44"/>
<polygon fill="#63b8ff" stroke="#63b8ff" points="1528.02,-22.13 1517.6,-20.2 1524.54,-28.21 1528.02,-22.13"/>
</a>
</g>
</g>
<!-- Node25 -->
<g id="Node000025" class="node">
<title>Node25</title>
<g id="a_Node000025"><a xlink:title=" ">
<polygon fill="#e0e0e0" stroke="#999999" points="1587,-19.75 1536.5,-19.75 1536.5,-0.5 1587,-0.5 1587,-19.75"/>
<text text-anchor="middle" x="1561.75" y="-6.25" font-family="Helvetica,sans-Serif" font-size="10.00">memory</text>
</a>
</g>
</g>
<!-- Node7&#45;&gt;Node25 -->
<g id="edge24_Node000007_Node000025" class="edge">
<title>Node7&#45;&gt;Node25</title>
<g id="a_edge24_Node000007_Node000025"><a xlink:title=" ">
<path fill="none" stroke="#63b8ff" d="M1588.47,-55.58C1584.18,-48.45 1578.01,-38.18 1572.67,-29.3"/>
<polygon fill="#63b8ff" stroke="#63b8ff" points="1575.3,-27.88 1567.15,-21.11 1569.3,-31.48 1575.3,-27.88"/>
</a>
</g>
</g>
<!-- Node26 -->
<g id="Node000026" class="node">
<title>Node26</title>
<g id="a_Node000026"><a xlink:title=" ">
<polygon fill="#e0e0e0" stroke="#999999" points="1646.88,-19.75 1604.62,-19.75 1604.62,-0.5 1646.88,-0.5 1646.88,-19.75"/>
<text text-anchor="middle" x="1625.75" y="-6.25" font-family="Helvetica,sans-Serif" font-size="10.00">mutex</text>
</a>
</g>
</g>
<!-- Node7&#45;&gt;Node26 -->
<g id="edge25_Node000007_Node000026" class="edge">
<title>Node7&#45;&gt;Node26</title>
<g id="a_edge25_Node000007_Node000026"><a xlink:title=" ">
<path fill="none" stroke="#63b8ff" d="M1599.03,-55.58C1603.32,-48.45 1609.49,-38.18 1614.83,-29.3"/>
<polygon fill="#63b8ff" stroke="#63b8ff" points="1618.2,-31.48 1620.35,-21.11 1612.2,-27.88 1618.2,-31.48"/>
</a>
</g>
</g>
<!-- Node27 -->
<g id="Node000027" class="node">
<title>Node27</title>
<g id="a_Node000027"><a xlink:title=" ">
<polygon fill="#e0e0e0" stroke="#999999" points="1718.5,-19.75 1665,-19.75 1665,-0.5 1718.5,-0.5 1718.5,-19.75"/>
<text text-anchor="middle" x="1691.75" y="-6.25" font-family="Helvetica,sans-Serif" font-size="10.00">numbers</text>
</a>
</g>
</g>
<!-- Node7&#45;&gt;Node27 -->
<g id="edge26_Node000007_Node000027" class="edge">
<title>Node7&#45;&gt;Node27</title>
<g id="a_edge26_Node000007_Node000027"><a xlink:title=" ">
<path fill="none" stroke="#63b8ff" d="M1610.37,-55.34C1625.44,-47.15 1647.89,-34.95 1665.4,-25.44"/>
<polygon fill="#63b8ff" stroke="#63b8ff" points="1666.93,-28.05 1674.04,-20.2 1663.59,-21.9 1666.93,-28.05"/>
</a>
</g>
</g>
<!-- Node28 -->
<g id="Node000028" class="node">
<title>Node28</title>
<g id="a_Node000028"><a xlink:title=" ">
<polygon fill="#e0e0e0" stroke="#999999" points="1787,-19.75 1736.5,-19.75 1736.5,-0.5 1787,-0.5 1787,-19.75"/>
<text text-anchor="middle" x="1761.75" y="-6.25" font-family="Helvetica,sans-Serif" font-size="10.00">numeric</text>
</a>
</g>
</g>
<!-- Node7&#45;&gt;Node28 -->
<g id="edge27_Node000007_Node000028" class="edge">
<title>Node7&#45;&gt;Node28</title>
<g id="a_edge27_Node000007_Node000028"><a xlink:title=" ">
<path fill="none" stroke="#63b8ff" d="M1622.25,-55.34C1650.8,-46.29 1694.85,-32.33 1725.79,-22.52"/>
<polygon fill="#63b8ff" stroke="#63b8ff" points="1726.67,-25.6 1735.14,-19.24 1724.55,-18.92 1726.67,-25.6"/>
</a>
</g>
</g>
<!-- Node29 -->
<g id="Node000029" class="node">
<title>Node29</title>
<g id="a_Node000029"><a xlink:title=" ">
<polygon fill="#e0e0e0" stroke="#999999" points="1854.62,-19.75 1804.88,-19.75 1804.88,-0.5 1854.62,-0.5 1854.62,-19.75"/>
<text text-anchor="middle" x="1829.75" y="-6.25" font-family="Helvetica,sans-Serif" font-size="10.00">optional</text>
</a>
</g>
</g>
<!-- Node7&#45;&gt;Node29 -->
<g id="edge28_Node000007_Node000029" class="edge">
<title>Node7&#45;&gt;Node29</title>
<g id="a_edge28_Node000007_Node000029"><a xlink:title=" ">
<path fill="none" stroke="#63b8ff" d="M1636.79,-55.27C1675.51,-46.99 1734.2,-34.22 1794.11,-20.08"/>
<polygon fill="#63b8ff" stroke="#63b8ff" points="1794.6,-23.33 1803.52,-17.62 1792.98,-16.52 1794.6,-23.33"/>
</a>
</g>
</g>
<!-- Node30 -->
<g id="Node000030" class="node">
<title>Node30</title>
<g id="a_Node000030"><a xlink:title=" ">
<polygon fill="#e0e0e0" stroke="#999999" points="1924.38,-19.75 1873.12,-19.75 1873.12,-0.5 1924.38,-0.5 1924.38,-19.75"/>
<text text-anchor="middle" x="1898.75" y="-6.25" font-family="Helvetica,sans-Serif" font-size="10.00">ostream</text>
</a>
</g>
</g>
<!-- Node7&#45;&gt;Node30 -->
<g id="edge29_Node000007_Node000030" class="edge">
<title>Node7&#45;&gt;Node30</title>
<g id="a_edge29_Node000007_Node000030"><a xlink:title=" ">
<path fill="none" stroke="#63b8ff" d="M1650.09,-56.37C1702.52,-48.62 1783.05,-35.98 1862.16,-19.94"/>
<polygon fill="#63b8ff" stroke="#63b8ff" points="1862.71,-23.19 1871.81,-17.75 1861.31,-16.33 1862.71,-23.19"/>
</a>
</g>
</g>
<!-- Node31 -->
<g id="Node000031" class="node">
<title>Node31</title>
<g id="a_Node000031"><a xlink:title=" ">
<polygon fill="#e0e0e0" stroke="#999999" points="2019.12,-19.75 1942.38,-19.75 1942.38,-0.5 2019.12,-0.5 2019.12,-19.75"/>
<text text-anchor="middle" x="1980.75" y="-6.25" font-family="Helvetica,sans-Serif" font-size="10.00">shared_mutex</text>
</a>
</g>
</g>
<!-- Node7&#45;&gt;Node31 -->
<g id="edge30_Node000007_Node000031" class="edge">
<title>Node7&#45;&gt;Node31</title>
<g id="a_edge30_Node000007_Node000031"><a xlink:title=" ">
<path fill="none" stroke="#63b8ff" d="M1650.12,-56.89C1653.04,-56.5 1655.93,-56.12 1658.75,-55.75 1777.5,-40.1 1810.15,-38.93 1931.23,-20.08"/>
<polygon fill="#63b8ff" stroke="#63b8ff" points="1931.71,-23.39 1941.05,-18.39 1930.63,-16.48 1931.71,-23.39"/>
</a>
</g>
</g>
<!-- Node32 -->
<g id="Node000032" class="node">
<title>Node32</title>
<g id="a_Node000032"><a xlink:title=" ">
<polygon fill="#e0e0e0" stroke="#999999" points="2074.25,-19.75 2037.25,-19.75 2037.25,-0.5 2074.25,-0.5 2074.25,-19.75"/>
<text text-anchor="middle" x="2055.75" y="-6.25" font-family="Helvetica,sans-Serif" font-size="10.00">span</text>
</a>
</g>
</g>
<!-- Node7&#45;&gt;Node32 -->
<g id="edge31_Node000007_Node000032" class="edge">
<title>Node7&#45;&gt;Node32</title>
<g id="a_edge31_Node000007_Node000032"><a xlink:title=" ">
<path fill="none" stroke="#63b8ff" d="M1650.11,-56.77C1653.03,-56.42 1655.92,-56.07 1658.75,-55.75 1819.09,-37.29 1864.35,-51.56 2026.56,-19.56"/>
<polygon fill="#63b8ff" stroke="#63b8ff" points="2026.79,-22.89 2035.91,-17.49 2025.41,-16.02 2026.79,-22.89"/>
</a>
</g>
</g>
<!-- Node33 -->
<g id="Node000033" class="node">
<title>Node33</title>
<g id="a_Node000033"><a xlink:title=" ">
<polygon fill="#e0e0e0" stroke="#999999" points="2143.38,-19.75 2092.12,-19.75 2092.12,-0.5 2143.38,-0.5 2143.38,-19.75"/>
<text text-anchor="middle" x="2117.75" y="-6.25" font-family="Helvetica,sans-Serif" font-size="10.00">sstream</text>
</a>
</g>
</g>
<!-- Node7&#45;&gt;Node33 -->
<g id="edge32_Node000007_Node000033" class="edge">
<title>Node7&#45;&gt;Node33</title>
<g id="a_edge32_Node000007_Node000033"><a xlink:title=" ">
<path fill="none" stroke="#63b8ff" d="M1650.1,-56.73C1653.02,-56.39 1655.92,-56.06 1658.75,-55.75 1843.71,-35.66 1894.92,-50.58 2081.15,-19.95"/>
<polygon fill="#63b8ff" stroke="#63b8ff" points="2081.57,-23.26 2090.85,-18.16 2080.41,-16.35 2081.57,-23.26"/>
</a>
</g>
</g>
<!-- Node34 -->
<g id="Node000034" class="node">
<title>Node34</title>
<g id="a_Node000034"><a xlink:title=" ">
<polygon fill="#e0e0e0" stroke="#999999" points="2219.75,-19.75 2161.75,-19.75 2161.75,-0.5 2219.75,-0.5 2219.75,-19.75"/>
<text text-anchor="middle" x="2190.75" y="-6.25" font-family="Helvetica,sans-Serif" font-size="10.00">stdexcept</text>
</a>
</g>
</g>
<!-- Node7&#45;&gt;Node34 -->
<g id="edge33_Node000007_Node000034" class="edge">
<title>Node7&#45;&gt;Node34</title>
<g id="a_edge33_Node000007_Node000034"><a xlink:title=" ">
<path fill="none" stroke="#63b8ff" d="M1650.1,-56.69C1653.02,-56.36 1655.92,-56.04 1658.75,-55.75 1874.21,-33.62 1933.13,-51.6 2150.56,-19.85"/>
<polygon fill="#63b8ff" stroke="#63b8ff" points="2150.99,-23.18 2160.37,-18.25 2149.97,-16.25 2150.99,-23.18"/>
</a>
</g>
</g>
<!-- Node35 -->
<g id="Node000035" class="node">
<title>Node35</title>
<g id="a_Node000035"><a xlink:title=" ">
<polygon fill="#e0e0e0" stroke="#999999" points="2285.5,-19.75 2238,-19.75 2238,-0.5 2285.5,-0.5 2285.5,-19.75"/>
<text text-anchor="middle" x="2261.75" y="-6.25" font-family="Helvetica,sans-Serif" font-size="10.00">stdint.h</text>
</a>
</g>
</g>
<!-- Node7&#45;&gt;Node35 -->
<g id="edge34_Node000007_Node000035" class="edge">
<title>Node7&#45;&gt;Node35</title>
<g id="a_edge34_Node000007_Node000035"><a xlink:title=" ">
<path fill="none" stroke="#63b8ff" d="M1650.09,-56.66C1653.02,-56.33 1655.92,-56.03 1658.75,-55.75 1907.93,-31.38 1976.27,-59.25 2227.17,-19.66"/>
<polygon fill="#63b8ff" stroke="#63b8ff" points="2227.39,-23.01 2236.71,-17.98 2226.29,-16.1 2227.39,-23.01"/>
</a>
</g>
</g>
<!-- Node36 -->
<g id="Node000036" class="node">
<title>Node36</title>
<g id="a_Node000036"><a xlink:title=" ">
<polygon fill="#e0e0e0" stroke="#999999" points="2343.75,-19.75 2303.75,-19.75 2303.75,-0.5 2343.75,-0.5 2343.75,-19.75"/>
<text text-anchor="middle" x="2323.75" y="-6.25" font-family="Helvetica,sans-Serif" font-size="10.00">string</text>
</a>
</g>
</g>
<!-- Node7&#45;&gt;Node36 -->
<g id="edge35_Node000007_Node000036" class="edge">
<title>Node7&#45;&gt;Node36</title>
<g id="a_edge35_Node000007_Node000036"><a xlink:title=" ">
<path fill="none" stroke="#63b8ff" d="M1650.09,-56.63C1653.02,-56.31 1655.92,-56.02 1658.75,-55.75 1937.17,-29.43 2013.98,-67.48 2292.86,-19.66"/>
<polygon fill="#63b8ff" stroke="#63b8ff" points="2293.04,-23.01 2302.3,-17.85 2291.84,-16.11 2293.04,-23.01"/>
</a>
</g>
</g>
<!-- Node37 -->
<g id="Node000037" class="node">
<title>Node37</title>
<g id="a_Node000037"><a xlink:title=" ">
<polygon fill="#e0e0e0" stroke="#999999" points="2405.25,-19.75 2362.25,-19.75 2362.25,-0.5 2405.25,-0.5 2405.25,-19.75"/>
<text text-anchor="middle" x="2383.75" y="-6.25" font-family="Helvetica,sans-Serif" font-size="10.00">thread</text>
</a>
</g>
</g>
<!-- Node7&#45;&gt;Node37 -->
<g id="edge36_Node000007_Node000037" class="edge">
<title>Node7&#45;&gt;Node37</title>
<g id="a_edge36_Node000007_Node000037"><a xlink:title=" ">
<path fill="none" stroke="#63b8ff" d="M1650.09,-56.62C1653.02,-56.3 1655.92,-56.01 1658.75,-55.75 1962.85,-27.73 2046.05,-68.51 2351.38,-19.56"/>
<polygon fill="#63b8ff" stroke="#63b8ff" points="2351.56,-22.91 2360.87,-17.85 2350.44,-16 2351.56,-22.91"/>
</a>
</g>
</g>
<!-- Node38 -->
<g id="Node000038" class="node">
<title>Node38</title>
<g id="a_Node000038"><a xlink:title=" ">
<polygon fill="#e0e0e0" stroke="#999999" points="2484.25,-19.75 2423.25,-19.75 2423.25,-0.5 2484.25,-0.5 2484.25,-19.75"/>
<text text-anchor="middle" x="2453.75" y="-6.25" font-family="Helvetica,sans-Serif" font-size="10.00">type_traits</text>
</a>
</g>
</g>
<!-- Node7&#45;&gt;Node38 -->
<g id="edge37_Node000007_Node000038" class="edge">
<title>Node7&#45;&gt;Node38</title>
<g id="a_edge37_Node000007_Node000038"><a xlink:title=" ">
<path fill="none" stroke="#63b8ff" d="M1650.09,-56.6C1653.01,-56.29 1655.92,-56 1658.75,-55.75 1990.34,-25.91 2079.5,-63.44 2412.33,-19.86"/>
<polygon fill="#63b8ff" stroke="#63b8ff" points="2412.3,-23.26 2421.76,-18.48 2411.38,-16.32 2412.3,-23.26"/>
</a>
</g>
</g>
<!-- Node39 -->
<g id="Node000039" class="node">
<title>Node39</title>
<g id="a_Node000039"><a xlink:title=" ">
<polygon fill="#e0e0e0" stroke="#999999" points="2579.5,-19.75 2502,-19.75 2502,-0.5 2579.5,-0.5 2579.5,-19.75"/>
<text text-anchor="middle" x="2540.75" y="-6.25" font-family="Helvetica,sans-Serif" font-size="10.00">unordered_set</text>
</a>
</g>
</g>
<!-- Node7&#45;&gt;Node39 -->
<g id="edge38_Node000007_Node000039" class="edge">
<title>Node7&#45;&gt;Node39</title>
<g id="a_edge38_Node000007_Node000039"><a xlink:title=" ">
<path fill="none" stroke="#63b8ff" d="M1650.09,-56.59C1653.01,-56.28 1655.91,-56 1658.75,-55.75 2025.26,-23.6 2122.78,-60.65 2490.88,-19.93"/>
<polygon fill="#63b8ff" stroke="#63b8ff" points="2491.02,-23.32 2500.57,-18.73 2490.25,-16.37 2491.02,-23.32"/>
</a>
</g>
</g>
<!-- Node40 -->
<g id="Node000040" class="node">
<title>Node40</title>
<g id="a_Node000040"><a xlink:title=" ">
<polygon fill="#e0e0e0" stroke="#999999" points="2642.38,-19.75 2597.12,-19.75 2597.12,-0.5 2642.38,-0.5 2642.38,-19.75"/>
<text text-anchor="middle" x="2619.75" y="-6.25" font-family="Helvetica,sans-Serif" font-size="10.00">variant</text>
</a>
</g>
</g>
<!-- Node7&#45;&gt;Node40 -->
<g id="edge39_Node000007_Node000040" class="edge">
<title>Node7&#45;&gt;Node40</title>
<g id="a_edge39_Node000007_Node000040"><a xlink:title=" ">
<path fill="none" stroke="#63b8ff" d="M1650.09,-56.57C1653.01,-56.27 1655.91,-55.99 1658.75,-55.75 2067.37,-20.81 2178.18,-82.55 2586.24,-19.78"/>
<polygon fill="#63b8ff" stroke="#63b8ff" points="2586.51,-23.13 2595.86,-18.13 2585.44,-16.21 2586.51,-23.13"/>
</a>
</g>
</g>
<!-- Node41 -->
<g id="Node000041" class="node">
<title>Node41</title>
<g id="a_Node000041"><a xlink:title=" ">
<polygon fill="#e0e0e0" stroke="#999999" points="2703.25,-19.75 2660.25,-19.75 2660.25,-0.5 2703.25,-0.5 2703.25,-19.75"/>
<text text-anchor="middle" x="2681.75" y="-6.25" font-family="Helvetica,sans-Serif" font-size="10.00">vector</text>
</a>
</g>
</g>
<!-- Node7&#45;&gt;Node41 -->
<g id="edge40_Node000007_Node000041" class="edge">
<title>Node7&#45;&gt;Node41</title>
<g id="a_edge40_Node000007_Node000041"><a xlink:title=" ">
<path fill="none" stroke="#63b8ff" d="M1650.08,-56.56C1653.01,-56.26 1655.91,-55.99 1658.75,-55.75 2095.27,-18.96 2213.73,-88.15 2649.26,-19.76"/>
<polygon fill="#63b8ff" stroke="#63b8ff" points="2649.61,-23.09 2658.93,-18.06 2648.51,-16.17 2649.61,-23.09"/>
</a>
</g>
</g>
<!-- Node42 -->
<g id="Node000042" class="node">
<title>Node42</title>
<g id="a_Node000042"><a xlink:title=" ">
<polygon fill="#e0e0e0" stroke="#999999" points="2769.88,-19.75 2721.62,-19.75 2721.62,-0.5 2769.88,-0.5 2769.88,-19.75"/>
<text text-anchor="middle" x="2745.75" y="-6.25" font-family="Helvetica,sans-Serif" font-size="10.00">random</text>
</a>
</g>
</g>
<!-- Node7&#45;&gt;Node42 -->
<g id="edge41_Node000007_Node000042" class="edge">
<title>Node7&#45;&gt;Node42</title>
<g id="a_edge41_Node000007_Node000042"><a xlink:title=" ">
<path fill="none" stroke="#63b8ff" d="M1650.08,-56.56C1653.01,-56.26 1655.91,-55.98 1658.75,-55.75 2122.32,-17.17 2247.06,-86.36 2710.7,-19.69"/>
<polygon fill="#63b8ff" stroke="#63b8ff" points="2710.97,-23.04 2720.37,-18.14 2709.97,-16.11 2710.97,-23.04"/>
</a>
</g>
</g>
<!-- Node43 -->
<g id="Node000043" class="node">
<title>Node43</title>
<g id="a_Node000043"><a xlink:href="../../de/d43/common-typedefs_8hpp.html" target="_top" xlink:title=" ">
<polygon fill="white" stroke="#666666" points="2899.38,-19.75 2788.12,-19.75 2788.12,-0.5 2899.38,-0.5 2899.38,-19.75"/>
<text text-anchor="middle" x="2843.75" y="-6.25" font-family="Helvetica,sans-Serif" font-size="10.00">common&#45;typedefs.hpp</text>
</a>
</g>
</g>
<!-- Node7&#45;&gt;Node43 -->
<g id="edge42_Node000007_Node000043" class="edge">
<title>Node7&#45;&gt;Node43</title>
<g id="a_edge42_Node000007_Node000043"><a xlink:title=" ">
<path fill="none" stroke="#63b8ff" d="M1650.08,-56.55C1653.01,-56.25 1655.91,-55.98 1658.75,-55.75 2151.6,-15.23 2280.57,-59.91 2777.09,-19.78"/>
<polygon fill="#63b8ff" stroke="#63b8ff" points="2777.09,-23.21 2786.77,-18.91 2776.52,-16.24 2777.09,-23.21"/>
</a>
</g>
</g>
<!-- Node44 -->
<g id="Node000044" class="node">
<title>Node44</title>
<g id="a_Node000044"><a xlink:href="../../d4/d78/math_8hpp.html" target="_top" xlink:title=" ">
<polygon fill="white" stroke="#666666" points="2994.5,-19.75 2917,-19.75 2917,-0.5 2994.5,-0.5 2994.5,-19.75"/>
<text text-anchor="middle" x="2955.75" y="-6.25" font-family="Helvetica,sans-Serif" font-size="10.00">core/math.hpp</text>
</a>
</g>
</g>
<!-- Node7&#45;&gt;Node44 -->
<g id="edge43_Node000007_Node000044" class="edge">
<title>Node7&#45;&gt;Node44</title>
<g id="a_edge43_Node000007_Node000044"><a xlink:title=" ">
<path fill="none" stroke="#63b8ff" d="M1650.08,-56.54C1653.01,-56.24 1655.91,-55.98 1658.75,-55.75 2209.23,-11.42 2354.2,-77.23 2905.95,-19.89"/>
<polygon fill="#63b8ff" stroke="#63b8ff" points="2906,-23.3 2915.58,-18.77 2905.27,-16.34 2906,-23.3"/>
</a>
</g>
</g>
<!-- Node44&#45;&gt;Node44 -->
<g id="edge44_Node000044_Node000044" class="edge">
<title>Node44&#45;&gt;Node44</title>
<g id="a_edge44_Node000044_Node000044"><a xlink:title=" ">
<path fill="none" stroke="#63b8ff" d="M2985.53,-20.23C2999.86,-21.48 3012.5,-18.11 3012.5,-10.12 3012.5,-4.26 3005.68,-0.88 2996.38,0"/>
<polygon fill="#63b8ff" stroke="#63b8ff" points="2996.53,3.5 2986.53,-0.02 2996.54,-3.5 2996.53,3.5"/>
</a>
</g>
</g>
<!-- Node45&#45;&gt;Node1 -->
<g id="edge46_Node000045_Node000001" class="edge">
<title>Node45&#45;&gt;Node1</title>
<g id="a_edge46_Node000045_Node000001"><a xlink:title=" ">
<path fill="none" stroke="#63b8ff" d="M1699.31,-75.45C1693.97,-82.79 1684.53,-93.44 1675.09,-103.01"/>
<polygon fill="#63b8ff" stroke="#63b8ff" points="1672.95,-100.19 1668.26,-109.7 1677.85,-105.19 1672.95,-100.19"/>
</a>
</g>
</g>
</g>
</svg>

<g id="navigator" transform="translate(0 0)" fill="#404254">
  <rect fill="#f2f5e9" fill-opacity="0.5" stroke="#606060" stroke-width=".5" x="0" y="0" width="60" height="60"/>
  <use id="zoomplus" xlink:href="#zoomPlus" x="17" y="9" onmousedown="handleZoom(evt,'in')"/>
  <use id="zoomminus" xlink:href="#zoomMin" x="42" y="9" onmousedown="handleZoom(evt,'out')"/>
  <use id="reset" xlink:href="#resetDef" x="30" y="36" onmousedown="handleReset()"/>
   <use id="arrowup" xlink:href="#arrowUp" x="0" y="0" onmousedown="handlePan(0,-1)"/>
  <use id="arrowright" xlink:href="#arrowRight" x="0" y="0" onmousedown="handlePan(1,0)"/>
  <use id="arrowdown" xlink:href="#arrowDown" x="0" y="0" onmousedown="handlePan(0,1)"/>
  <use id="arrowleft" xlink:href="#arrowLeft" x="0" y="0" onmousedown="handlePan(-1,0)"/>
</g>
<svg viewBox="0 0 15 15" width="100%" height="30px" preserveAspectRatio="xMaxYMin meet">
 <g id="arrow_out" transform="scale(0.3 0.3)">
  <a xlink:href="d3d-common_8hpp__incl_org.svg" target="_base">
   <rect id="button" ry="5" rx="5" y="6" x="6" height="38" width="38"
        fill="#f2f5e9" fill-opacity="0.5" stroke="#606060" stroke-width="1.0"/>
   <path id="arrow"
     d="M 11.500037,31.436501 C 11.940474,20.09759 22.043105,11.32322 32.158766,21.979434 L 37.068811,17.246167 C 37.068811,17.246167 37.088388,32 37.088388,32 L 22.160133,31.978069 C 22.160133,31.978069 26.997745,27.140456 26.997745,27.140456 C 18.528582,18.264221 13.291696,25.230495 11.500037,31.436501 z"
     style="fill:#404040;"/>
  </a>
 </g>
</svg>

<style type='text/css'>
<![CDATA[
[data-mouse-over-selected='false'] { opacity: 0.7; }
[data-mouse-over-selected='true']  { opacity: 1.0; }
]]>
</style>
<script type="application/ecmascript"><![CDATA[
document.addEventListener('DOMContentLoaded', (event) => {
  highlightEdges();
  highlightAdjacentNodes();
});
]]></script>
</svg>
