<?xml version="1.0" encoding="UTF-8" standalone="no"?>
<!DOCTYPE svg PUBLIC "-//W3C//DTD SVG 1.1//EN"
 "http://www.w3.org/Graphics/SVG/1.1/DTD/svg11.dtd">
<!-- Generated by graphviz version 9.0.0 (20230911.1827)
 -->
<!-- Title: engine/direct3d11/d3d&#45;common.hpp Pages: 1 -->
<svg width="3021pt" height="149pt"
 viewBox="0.00 0.00 3020.50 149.44" xmlns="http://www.w3.org/2000/svg" xmlns:xlink="http://www.w3.org/1999/xlink">
<g id="graph0" class="graph" transform="scale(1 1) rotate(0) translate(4 145.44)">
<title>engine/direct3d11/d3d&#45;common.hpp</title>
<!-- Node1 -->
<g id="Node000001" class="node">
<title>Node1</title>
<g id="a_Node000001"><a xlink:title=" ">
<polygon fill="#999999" stroke="#666666" points="1703.38,-141.44 1592.12,-141.44 1592.12,-110.94 1703.38,-110.94 1703.38,-141.44"/>
<text text-anchor="start" x="1600.12" y="-127.94" font-family="Helvetica,sans-Serif" font-size="10.00">engine/direct3d11/d3d</text>
<text text-anchor="middle" x="1647.75" y="-116.69" font-family="Helvetica,sans-Serif" font-size="10.00">&#45;common.hpp</text>
</a>
</g>
</g>
<!-- Node2 -->
<g id="Node000002" class="node">
<title>Node2</title>
<g id="a_Node000002"><a xlink:href="../../d1/d0a/d3d_8hpp.html" target="_top" xlink:title=" ">
<polygon fill="white" stroke="#666666" points="241.5,-74.94 158,-74.94 158,-55.69 241.5,-55.69 241.5,-74.94"/>
<text text-anchor="middle" x="199.75" y="-61.44" font-family="Helvetica,sans-Serif" font-size="10.00">include/d3d.hpp</text>
</a>
</g>
</g>
<!-- Node1&#45;&gt;Node2 -->
<g id="edge1_Node000001_Node000002" class="edge">
<title>Node1&#45;&gt;Node2</title>
<g id="a_edge1_Node000001_Node000002"><a xlink:title=" ">
<path fill="none" stroke="#63b8ff" d="M1591.87,-122.92C1360.58,-113.51 479.67,-77.7 253.13,-68.48"/>
<polygon fill="#63b8ff" stroke="#63b8ff" points="253.56,-65 243.42,-68.09 253.27,-71.99 253.56,-65"/>
</a>
</g>
</g>
<!-- Node7 -->
<g id="Node000007" class="node">
<title>Node7</title>
<g id="a_Node000007"><a xlink:href="../../db/d6e/library-pch_8hpp.html" target="_top" xlink:title=" ">
<polygon fill="white" stroke="#666666" points="1649.75,-74.94 1537.75,-74.94 1537.75,-55.69 1649.75,-55.69 1649.75,-74.94"/>
<text text-anchor="middle" x="1593.75" y="-61.44" font-family="Helvetica,sans-Serif" font-size="10.00">include/library&#45;pch.hpp</text>
</a>
</g>
</g>
<!-- Node1&#45;&gt;Node7 -->
<g id="edge6_Node000001_Node000007" class="edge">
<title>Node1&#45;&gt;Node7</title>
<g id="a_edge6_Node000001_Node000007"><a xlink:title=" ">
<path fill="none" stroke="#63b8ff" d="M1634.4,-110.64C1626.97,-102.53 1617.67,-92.39 1609.84,-83.85"/>
<polygon fill="#63b8ff" stroke="#63b8ff" points="1612.44,-81.51 1603.1,-76.51 1607.28,-86.24 1612.44,-81.51"/>
</a>
</g>
</g>
<!-- Node45 -->
<g id="Node000045" class="node">
<title>Node45</title>
<g id="a_Node000045"><a xlink:href="../../de/df7/typedefs_8hpp.html" target="_top" xlink:title=" ">
<polygon fill="white" stroke="#666666" points="1738.12,-74.94 1667.38,-74.94 1667.38,-55.69 1738.12,-55.69 1738.12,-74.94"/>
<text text-anchor="middle" x="1702.75" y="-61.44" font-family="Helvetica,sans-Serif" font-size="10.00">typedefs.hpp</text>
</a>
</g>
</g>
<!-- Node1&#45;&gt;Node45 -->
<g id="edge45_Node000001_Node000045" class="edge">
<title>Node1&#45;&gt;Node45</title>
<g id="a_edge45_Node000001_Node000045"><a xlink:title=" ">
<path fill="none" stroke="#63b8ff" d="M1655.43,-110.64C1662.21,-102.27 1671.98,-91.74 1680.97,-83.04"/>
<polygon fill="#63b8ff" stroke="#63b8ff" points="1683.16,-85.78 1688.12,-76.42 1678.41,-80.64 1683.16,-85.78"/>
</a>
</g>
</g>
<!-- Node3 -->
<g id="Node000003" class="node">
<title>Node3</title>
<g id="a_Node000003"><a xlink:href="../../d8/d2a/win-def_8hpp.html" target="_top" xlink:title=" ">
<polygon fill="white" stroke="#666666" points="65.5,-19.69 0,-19.69 0,-0.44 65.5,-0.44 65.5,-19.69"/>
<text text-anchor="middle" x="32.75" y="-6.19" font-family="Helvetica,sans-Serif" font-size="10.00">win&#45;def.hpp</text>
</a>
</g>
</g>
<!-- Node2&#45;&gt;Node3 -->
<g id="edge2_Node000002_Node000003" class="edge">
<title>Node2&#45;&gt;Node3</title>
<g id="a_edge2_Node000002_Node000003"><a xlink:title=" ">
<path fill="none" stroke="#63b8ff" d="M171.42,-55.28C144.07,-46.56 102.43,-33.28 71.91,-23.55"/>
<polygon fill="#63b8ff" stroke="#63b8ff" points="73.25,-20.3 62.66,-20.6 71.12,-26.97 73.25,-20.3"/>
</a>
</g>
</g>
<!-- Node4 -->
<g id="Node000004" class="node">
<title>Node4</title>
<g id="a_Node000004"><a xlink:title=" ">
<polygon fill="#e0e0e0" stroke="#999999" points="143.88,-19.69 83.62,-19.69 83.62,-0.44 143.88,-0.44 143.88,-19.69"/>
<text text-anchor="middle" x="113.75" y="-6.19" font-family="Helvetica,sans-Serif" font-size="10.00">d3d11_4.h</text>
</a>
</g>
</g>
<!-- Node2&#45;&gt;Node4 -->
<g id="edge3_Node000002_Node000004" class="edge">
<title>Node2&#45;&gt;Node4</title>
<g id="a_edge3_Node000002_Node000004"><a xlink:title=" ">
<path fill="none" stroke="#63b8ff" d="M185.16,-55.28C172.31,-47.32 153.34,-35.58 138.18,-26.19"/>
<polygon fill="#63b8ff" stroke="#63b8ff" points="140.04,-23.23 129.7,-20.94 136.36,-29.18 140.04,-23.23"/>
</a>
</g>
</g>
<!-- Node5 -->
<g id="Node000005" class="node">
<title>Node5</title>
<g id="a_Node000005"><a xlink:title=" ">
<polygon fill="#e0e0e0" stroke="#999999" points="237.75,-19.69 161.75,-19.69 161.75,-0.44 237.75,-0.44 237.75,-19.69"/>
<text text-anchor="middle" x="199.75" y="-6.19" font-family="Helvetica,sans-Serif" font-size="10.00">d3dcompiler.h</text>
</a>
</g>
</g>
<!-- Node2&#45;&gt;Node5 -->
<g id="edge4_Node000002_Node000005" class="edge">
<title>Node2&#45;&gt;Node5</title>
<g id="a_edge4_Node000002_Node000005"><a xlink:title=" ">
<path fill="none" stroke="#63b8ff" d="M199.75,-55.52C199.75,-49.01 199.75,-39.86 199.75,-31.56"/>
<polygon fill="#63b8ff" stroke="#63b8ff" points="203.25,-31.56 199.75,-21.56 196.25,-31.56 203.25,-31.56"/>
</a>
</g>
</g>
<!-- Node6 -->
<g id="Node000006" class="node">
<title>Node6</title>
<g id="a_Node000006"><a xlink:href="../../d4/dfc/win-undef_8hpp.html" target="_top" xlink:title=" ">
<polygon fill="white" stroke="#666666" points="331.75,-19.69 255.75,-19.69 255.75,-0.44 331.75,-0.44 331.75,-19.69"/>
<text text-anchor="middle" x="293.75" y="-6.19" font-family="Helvetica,sans-Serif" font-size="10.00">win&#45;undef.hpp</text>
</a>
</g>
</g>
<!-- Node2&#45;&gt;Node6 -->
<g id="edge5_Node000002_Node000006" class="edge">
<title>Node2&#45;&gt;Node6</title>
<g id="a_edge5_Node000002_Node000006"><a xlink:title=" ">
<path fill="none" stroke="#63b8ff" d="M215.7,-55.28C230.01,-47.17 251.28,-35.12 268,-25.65"/>
<polygon fill="#63b8ff" stroke="#63b8ff" points="269.43,-28.86 276.41,-20.89 265.98,-22.77 269.43,-28.86"/>
</a>
</g>
</g>
<!-- Node8 -->
<g id="Node000008" class="node">
<title>Node8</title>
<g id="a_Node000008"><a xlink:title=" ">
<polygon fill="#e0e0e0" stroke="#999999" points="419.75,-19.69 349.75,-19.69 349.75,-0.44 419.75,-0.44 419.75,-19.69"/>
<text text-anchor="middle" x="384.75" y="-6.19" font-family="Helvetica,sans-Serif" font-size="10.00">entt/entt.hpp</text>
</a>
</g>
</g>
<!-- Node7&#45;&gt;Node8 -->
<g id="edge7_Node000007_Node000008" class="edge">
<title>Node7&#45;&gt;Node8</title>
<g id="a_edge7_Node000007_Node000008"><a xlink:title=" ">
<path fill="none" stroke="#63b8ff" d="M1537.46,-63.32C1338.71,-59.62 669.44,-45.61 431.55,-19.79"/>
<polygon fill="#63b8ff" stroke="#63b8ff" points="432.05,-16.32 421.72,-18.68 431.27,-23.28 432.05,-16.32"/>
</a>
</g>
</g>
<!-- Node9 -->
<g id="Node000009" class="node">
<title>Node9</title>
<g id="a_Node000009"><a xlink:title=" ">
<polygon fill="#e0e0e0" stroke="#999999" points="493.62,-19.69 437.88,-19.69 437.88,-0.44 493.62,-0.44 493.62,-19.69"/>
<text text-anchor="middle" x="465.75" y="-6.19" font-family="Helvetica,sans-Serif" font-size="10.00">algorithm</text>
</a>
</g>
</g>
<!-- Node7&#45;&gt;Node9 -->
<g id="edge8_Node000007_Node000009" class="edge">
<title>Node7&#45;&gt;Node9</title>
<g id="a_edge8_Node000007_Node000009"><a xlink:title=" ">
<path fill="none" stroke="#63b8ff" d="M1537.3,-63.46C1346.64,-60.34 726.53,-48.31 505.13,-19.87"/>
<polygon fill="#63b8ff" stroke="#63b8ff" points="505.83,-16.43 495.45,-18.57 504.9,-23.37 505.83,-16.43"/>
</a>
</g>
</g>
<!-- Node10 -->
<g id="Node000010" class="node">
<title>Node10</title>
<g id="a_Node000010"><a xlink:title=" ">
<polygon fill="#e0e0e0" stroke="#999999" points="548.25,-19.69 511.25,-19.69 511.25,-0.44 548.25,-0.44 548.25,-19.69"/>
<text text-anchor="middle" x="529.75" y="-6.19" font-family="Helvetica,sans-Serif" font-size="10.00">array</text>
</a>
</g>
</g>
<!-- Node7&#45;&gt;Node10 -->
<g id="edge9_Node000007_Node000010" class="edge">
<title>Node7&#45;&gt;Node10</title>
<g id="a_edge9_Node000007_Node000010"><a xlink:title=" ">
<path fill="none" stroke="#63b8ff" d="M1537.54,-63.78C1353.65,-61.76 770.18,-52.95 559.8,-19.45"/>
<polygon fill="#63b8ff" stroke="#63b8ff" points="560.5,-16.02 550.06,-17.83 559.35,-22.92 560.5,-16.02"/>
</a>
</g>
</g>
<!-- Node11 -->
<g id="Node000011" class="node">
<title>Node11</title>
<g id="a_Node000011"><a xlink:title=" ">
<polygon fill="#e0e0e0" stroke="#999999" points="617,-19.69 566.5,-19.69 566.5,-0.44 617,-0.44 617,-19.69"/>
<text text-anchor="middle" x="591.75" y="-6.19" font-family="Helvetica,sans-Serif" font-size="10.00">assert.h</text>
</a>
</g>
</g>
<!-- Node7&#45;&gt;Node11 -->
<g id="edge10_Node000007_Node000011" class="edge">
<title>Node7&#45;&gt;Node11</title>
<g id="a_edge10_Node000007_Node000011"><a xlink:title=" ">
<path fill="none" stroke="#63b8ff" d="M1537.26,-63.21C1361.51,-59.55 824.92,-46.56 628.58,-19.74"/>
<polygon fill="#63b8ff" stroke="#63b8ff" points="629.15,-16.29 618.76,-18.34 628.16,-23.22 629.15,-16.29"/>
</a>
</g>
</g>
<!-- Node12 -->
<g id="Node000012" class="node">
<title>Node12</title>
<g id="a_Node000012"><a xlink:title=" ">
<polygon fill="#e0e0e0" stroke="#999999" points="680.38,-19.69 635.12,-19.69 635.12,-0.44 680.38,-0.44 680.38,-19.69"/>
<text text-anchor="middle" x="657.75" y="-6.19" font-family="Helvetica,sans-Serif" font-size="10.00">chrono</text>
</a>
</g>
</g>
<!-- Node7&#45;&gt;Node12 -->
<g id="edge11_Node000007_Node000012" class="edge">
<title>Node7&#45;&gt;Node12</title>
<g id="a_edge11_Node000007_Node000012"><a xlink:title=" ">
<path fill="none" stroke="#63b8ff" d="M1537.32,-63.17C1369.57,-59.52 874.73,-46.85 691.97,-19.81"/>
<polygon fill="#63b8ff" stroke="#63b8ff" points="692.56,-16.36 682.14,-18.28 691.49,-23.27 692.56,-16.36"/>
</a>
</g>
</g>
<!-- Node13 -->
<g id="Node000013" class="node">
<title>Node13</title>
<g id="a_Node000013"><a xlink:title=" ">
<polygon fill="#e0e0e0" stroke="#999999" points="741.25,-19.69 698.25,-19.69 698.25,-0.44 741.25,-0.44 741.25,-19.69"/>
<text text-anchor="middle" x="719.75" y="-6.19" font-family="Helvetica,sans-Serif" font-size="10.00">cmath</text>
</a>
</g>
</g>
<!-- Node7&#45;&gt;Node13 -->
<g id="edge12_Node000007_Node000013" class="edge">
<title>Node7&#45;&gt;Node13</title>
<g id="a_edge12_Node000007_Node000013"><a xlink:title=" ">
<path fill="none" stroke="#63b8ff" d="M1537.39,-63C1377.64,-59.03 923.01,-45.86 752.84,-19.78"/>
<polygon fill="#63b8ff" stroke="#63b8ff" points="753.5,-16.34 743.07,-18.2 752.38,-23.25 753.5,-16.34"/>
</a>
</g>
</g>
<!-- Node14 -->
<g id="Node000014" class="node">
<title>Node14</title>
<g id="a_Node000014"><a xlink:title=" ">
<polygon fill="#e0e0e0" stroke="#999999" points="814.62,-19.69 758.88,-19.69 758.88,-0.44 814.62,-0.44 814.62,-19.69"/>
<text text-anchor="middle" x="786.75" y="-6.19" font-family="Helvetica,sans-Serif" font-size="10.00">concepts</text>
</a>
</g>
</g>
<!-- Node7&#45;&gt;Node14 -->
<g id="edge13_Node000007_Node000014" class="edge">
<title>Node7&#45;&gt;Node14</title>
<g id="a_edge13_Node000007_Node000014"><a xlink:title=" ">
<path fill="none" stroke="#63b8ff" d="M1537.38,-64.34C1411.43,-63.69 1097.55,-58.13 826.2,-19.77"/>
<polygon fill="#63b8ff" stroke="#63b8ff" points="826.83,-16.33 816.44,-18.37 825.84,-23.26 826.83,-16.33"/>
</a>
</g>
</g>
<!-- Node15 -->
<g id="Node000015" class="node">
<title>Node15</title>
<g id="a_Node000015"><a xlink:title=" ">
<polygon fill="#e0e0e0" stroke="#999999" points="926.75,-19.69 832.75,-19.69 832.75,-0.44 926.75,-0.44 926.75,-19.69"/>
<text text-anchor="middle" x="879.75" y="-6.19" font-family="Helvetica,sans-Serif" font-size="10.00">condition_variable</text>
</a>
</g>
</g>
<!-- Node7&#45;&gt;Node15 -->
<g id="edge14_Node000007_Node000015" class="edge">
<title>Node7&#45;&gt;Node15</title>
<g id="a_edge14_Node000007_Node000015"><a xlink:title=" ">
<path fill="none" stroke="#63b8ff" d="M1537.27,-62.11C1425.13,-57.37 1166.19,-44.68 938.24,-19.87"/>
<polygon fill="#63b8ff" stroke="#63b8ff" points="938.9,-16.42 928.57,-18.81 938.13,-23.38 938.9,-16.42"/>
</a>
</g>
</g>
<!-- Node16 -->
<g id="Node000016" class="node">
<title>Node16</title>
<g id="a_Node000016"><a xlink:title=" ">
<polygon fill="#e0e0e0" stroke="#999999" points="990.38,-19.69 945.12,-19.69 945.12,-0.44 990.38,-0.44 990.38,-19.69"/>
<text text-anchor="middle" x="967.75" y="-6.19" font-family="Helvetica,sans-Serif" font-size="10.00">cstdint</text>
</a>
</g>
</g>
<!-- Node7&#45;&gt;Node16 -->
<g id="edge15_Node000007_Node000016" class="edge">
<title>Node7&#45;&gt;Node16</title>
<g id="a_edge15_Node000007_Node000016"><a xlink:title=" ">
<path fill="none" stroke="#63b8ff" d="M1537.64,-63.61C1433.65,-61.54 1203.97,-53.41 1001.84,-19.69"/>
<polygon fill="#63b8ff" stroke="#63b8ff" points="1002.64,-16.28 992.2,-18.06 1001.47,-23.18 1002.64,-16.28"/>
</a>
</g>
</g>
<!-- Node17 -->
<g id="Node000017" class="node">
<title>Node17</title>
<g id="a_Node000017"><a xlink:title=" ">
<polygon fill="#e0e0e0" stroke="#999999" points="1053,-19.69 1008.5,-19.69 1008.5,-0.44 1053,-0.44 1053,-19.69"/>
<text text-anchor="middle" x="1030.75" y="-6.19" font-family="Helvetica,sans-Serif" font-size="10.00">cstdlib</text>
</a>
</g>
</g>
<!-- Node7&#45;&gt;Node17 -->
<g id="edge16_Node000007_Node000017" class="edge">
<title>Node7&#45;&gt;Node17</title>
<g id="a_edge16_Node000007_Node000017"><a xlink:title=" ">
<path fill="none" stroke="#63b8ff" d="M1537.39,-63.05C1441.78,-60.16 1241.68,-50.85 1064.43,-19.85"/>
<polygon fill="#63b8ff" stroke="#63b8ff" points="1065.27,-16.44 1054.81,-18.14 1064.05,-23.34 1065.27,-16.44"/>
</a>
</g>
</g>
<!-- Node18 -->
<g id="Node000018" class="node">
<title>Node18</title>
<g id="a_Node000018"><a xlink:title=" ">
<polygon fill="#e0e0e0" stroke="#999999" points="1130.5,-19.69 1071,-19.69 1071,-0.44 1130.5,-0.44 1130.5,-19.69"/>
<text text-anchor="middle" x="1100.75" y="-6.19" font-family="Helvetica,sans-Serif" font-size="10.00">filesystem</text>
</a>
</g>
</g>
<!-- Node7&#45;&gt;Node18 -->
<g id="edge17_Node000007_Node000018" class="edge">
<title>Node7&#45;&gt;Node18</title>
<g id="a_edge17_Node000007_Node000018"><a xlink:title=" ">
<path fill="none" stroke="#63b8ff" d="M1537.42,-61.07C1453.27,-55.72 1289.59,-43.39 1142.01,-20.05"/>
<polygon fill="#63b8ff" stroke="#63b8ff" points="1142.89,-16.65 1132.46,-18.52 1141.78,-23.56 1142.89,-16.65"/>
</a>
</g>
</g>
<!-- Node19 -->
<g id="Node000019" class="node">
<title>Node19</title>
<g id="a_Node000019"><a xlink:title=" ">
<polygon fill="#e0e0e0" stroke="#999999" points="1197.25,-19.69 1148.25,-19.69 1148.25,-0.44 1197.25,-0.44 1197.25,-19.69"/>
<text text-anchor="middle" x="1172.75" y="-6.19" font-family="Helvetica,sans-Serif" font-size="10.00">fstream</text>
</a>
</g>
</g>
<!-- Node7&#45;&gt;Node19 -->
<g id="edge18_Node000007_Node000019" class="edge">
<title>Node7&#45;&gt;Node19</title>
<g id="a_edge18_Node000007_Node000019"><a xlink:title=" ">
<path fill="none" stroke="#63b8ff" d="M1537.32,-60.18C1463.87,-54.29 1331.38,-41.85 1208.63,-19.79"/>
<polygon fill="#63b8ff" stroke="#63b8ff" points="1209.5,-16.39 1199.04,-18.03 1208.25,-23.27 1209.5,-16.39"/>
</a>
</g>
</g>
<!-- Node20 -->
<g id="Node000020" class="node">
<title>Node20</title>
<g id="a_Node000020"><a xlink:title=" ">
<polygon fill="#e0e0e0" stroke="#999999" points="1273.75,-19.69 1215.75,-19.69 1215.75,-0.44 1273.75,-0.44 1273.75,-19.69"/>
<text text-anchor="middle" x="1244.75" y="-6.19" font-family="Helvetica,sans-Serif" font-size="10.00">functional</text>
</a>
</g>
</g>
<!-- Node7&#45;&gt;Node20 -->
<g id="edge19_Node000007_Node000020" class="edge">
<title>Node7&#45;&gt;Node20</title>
<g id="a_edge19_Node000007_Node000020"><a xlink:title=" ">
<path fill="none" stroke="#63b8ff" d="M1537.34,-57.61C1477.24,-50.16 1379.08,-37.1 1285.28,-20.03"/>
<polygon fill="#63b8ff" stroke="#63b8ff" points="1286.12,-16.63 1275.65,-18.26 1284.85,-23.51 1286.12,-16.63"/>
</a>
</g>
</g>
<!-- Node21 -->
<g id="Node000021" class="node">
<title>Node21</title>
<g id="a_Node000021"><a xlink:title=" ">
<polygon fill="#e0e0e0" stroke="#999999" points="1341.62,-19.69 1291.88,-19.69 1291.88,-0.44 1341.62,-0.44 1341.62,-19.69"/>
<text text-anchor="middle" x="1316.75" y="-6.19" font-family="Helvetica,sans-Serif" font-size="10.00">iomanip</text>
</a>
</g>
</g>
<!-- Node7&#45;&gt;Node21 -->
<g id="edge20_Node000007_Node000021" class="edge">
<title>Node7&#45;&gt;Node21</title>
<g id="a_edge20_Node000007_Node000021"><a xlink:title=" ">
<path fill="none" stroke="#63b8ff" d="M1538.53,-55.26C1491.65,-47.32 1422.34,-35.02 1353.07,-20.08"/>
<polygon fill="#63b8ff" stroke="#63b8ff" points="1353.95,-16.69 1343.44,-17.98 1352.46,-23.53 1353.95,-16.69"/>
</a>
</g>
</g>
<!-- Node22 -->
<g id="Node000022" class="node">
<title>Node22</title>
<g id="a_Node000022"><a xlink:title=" ">
<polygon fill="#e0e0e0" stroke="#999999" points="1407.88,-19.69 1359.62,-19.69 1359.62,-0.44 1407.88,-0.44 1407.88,-19.69"/>
<text text-anchor="middle" x="1383.75" y="-6.19" font-family="Helvetica,sans-Serif" font-size="10.00">istream</text>
</a>
</g>
</g>
<!-- Node7&#45;&gt;Node22 -->
<g id="edge21_Node000007_Node000022" class="edge">
<title>Node7&#45;&gt;Node22</title>
<g id="a_edge21_Node000007_Node000022"><a xlink:title=" ">
<path fill="none" stroke="#63b8ff" d="M1557.45,-55.26C1523.97,-46.89 1472.57,-33.98 1419.29,-20.32"/>
<polygon fill="#63b8ff" stroke="#63b8ff" points="1420.27,-16.96 1409.72,-17.87 1418.53,-23.75 1420.27,-16.96"/>
</a>
</g>
</g>
<!-- Node23 -->
<g id="Node000023" class="node">
<title>Node23</title>
<g id="a_Node000023"><a xlink:title=" ">
<polygon fill="#e0e0e0" stroke="#999999" points="1465.38,-19.69 1426.12,-19.69 1426.12,-0.44 1465.38,-0.44 1465.38,-19.69"/>
<text text-anchor="middle" x="1445.75" y="-6.19" font-family="Helvetica,sans-Serif" font-size="10.00">limits</text>
</a>
</g>
</g>
<!-- Node7&#45;&gt;Node23 -->
<g id="edge22_Node000007_Node000023" class="edge">
<title>Node7&#45;&gt;Node23</title>
<g id="a_edge22_Node000007_Node000023"><a xlink:title=" ">
<path fill="none" stroke="#63b8ff" d="M1568.64,-55.28C1543.13,-46.1 1503.58,-31.87 1476.27,-22.04"/>
<polygon fill="#63b8ff" stroke="#63b8ff" points="1477.77,-18.86 1467.17,-18.77 1475.4,-25.45 1477.77,-18.86"/>
</a>
</g>
</g>
<!-- Node24 -->
<g id="Node000024" class="node">
<title>Node24</title>
<g id="a_Node000024"><a xlink:title=" ">
<polygon fill="#e0e0e0" stroke="#999999" points="1518.12,-19.69 1483.38,-19.69 1483.38,-0.44 1518.12,-0.44 1518.12,-19.69"/>
<text text-anchor="middle" x="1500.75" y="-6.19" font-family="Helvetica,sans-Serif" font-size="10.00">map</text>
</a>
</g>
</g>
<!-- Node7&#45;&gt;Node24 -->
<g id="edge23_Node000007_Node000024" class="edge">
<title>Node7&#45;&gt;Node24</title>
<g id="a_edge23_Node000007_Node000024"><a xlink:title=" ">
<path fill="none" stroke="#63b8ff" d="M1577.97,-55.28C1563.81,-47.17 1542.77,-35.12 1526.22,-25.65"/>
<polygon fill="#63b8ff" stroke="#63b8ff" points="1528.33,-22.82 1517.92,-20.89 1524.86,-28.9 1528.33,-22.82"/>
</a>
</g>
</g>
<!-- Node25 -->
<g id="Node000025" class="node">
<title>Node25</title>
<g id="a_Node000025"><a xlink:title=" ">
<polygon fill="#e0e0e0" stroke="#999999" points="1587,-19.69 1536.5,-19.69 1536.5,-0.44 1587,-0.44 1587,-19.69"/>
<text text-anchor="middle" x="1561.75" y="-6.19" font-family="Helvetica,sans-Serif" font-size="10.00">memory</text>
</a>
</g>
</g>
<!-- Node7&#45;&gt;Node25 -->
<g id="edge24_Node000007_Node000025" class="edge">
<title>Node7&#45;&gt;Node25</title>
<g id="a_edge24_Node000007_Node000025"><a xlink:title=" ">
<path fill="none" stroke="#63b8ff" d="M1588.47,-55.52C1584.28,-48.55 1578.27,-38.56 1573.02,-29.81"/>
<polygon fill="#63b8ff" stroke="#63b8ff" points="1576.08,-28.11 1567.93,-21.35 1570.08,-31.72 1576.08,-28.11"/>
</a>
</g>
</g>
<!-- Node26 -->
<g id="Node000026" class="node">
<title>Node26</title>
<g id="a_Node000026"><a xlink:title=" ">
<polygon fill="#e0e0e0" stroke="#999999" points="1646.88,-19.69 1604.62,-19.69 1604.62,-0.44 1646.88,-0.44 1646.88,-19.69"/>
<text text-anchor="middle" x="1625.75" y="-6.19" font-family="Helvetica,sans-Serif" font-size="10.00">mutex</text>
</a>
</g>
</g>
<!-- Node7&#45;&gt;Node26 -->
<g id="edge25_Node000007_Node000026" class="edge">
<title>Node7&#45;&gt;Node26</title>
<g id="a_edge25_Node000007_Node000026"><a xlink:title=" ">
<path fill="none" stroke="#63b8ff" d="M1599.03,-55.52C1603.22,-48.55 1609.23,-38.56 1614.48,-29.81"/>
<polygon fill="#63b8ff" stroke="#63b8ff" points="1617.42,-31.72 1619.57,-21.35 1611.42,-28.11 1617.42,-31.72"/>
</a>
</g>
</g>
<!-- Node27 -->
<g id="Node000027" class="node">
<title>Node27</title>
<g id="a_Node000027"><a xlink:title=" ">
<polygon fill="#e0e0e0" stroke="#999999" points="1718.5,-19.69 1665,-19.69 1665,-0.44 1718.5,-0.44 1718.5,-19.69"/>
<text text-anchor="middle" x="1691.75" y="-6.19" font-family="Helvetica,sans-Serif" font-size="10.00">numbers</text>
</a>
</g>
</g>
<!-- Node7&#45;&gt;Node27 -->
<g id="edge26_Node000007_Node000027" class="edge">
<title>Node7&#45;&gt;Node27</title>
<g id="a_edge26_Node000007_Node000027"><a xlink:title=" ">
<path fill="none" stroke="#63b8ff" d="M1610.37,-55.28C1625.44,-47.1 1647.89,-34.89 1665.4,-25.38"/>
<polygon fill="#63b8ff" stroke="#63b8ff" points="1666.6,-28.71 1673.71,-20.86 1663.26,-22.56 1666.6,-28.71"/>
</a>
</g>
</g>
<!-- Node28 -->
<g id="Node000028" class="node">
<title>Node28</title>
<g id="a_Node000028"><a xlink:title=" ">
<polygon fill="#e0e0e0" stroke="#999999" points="1787,-19.69 1736.5,-19.69 1736.5,-0.44 1787,-0.44 1787,-19.69"/>
<text text-anchor="middle" x="1761.75" y="-6.19" font-family="Helvetica,sans-Serif" font-size="10.00">numeric</text>
</a>
</g>
</g>
<!-- Node7&#45;&gt;Node28 -->
<g id="edge27_Node000007_Node000028" class="edge">
<title>Node7&#45;&gt;Node28</title>
<g id="a_edge27_Node000007_Node000028"><a xlink:title=" ">
<path fill="none" stroke="#63b8ff" d="M1622.25,-55.28C1650.68,-46.27 1694.47,-32.39 1725.39,-22.59"/>
<polygon fill="#63b8ff" stroke="#63b8ff" points="1726.23,-26 1734.7,-19.64 1724.11,-19.32 1726.23,-26"/>
</a>
</g>
</g>
<!-- Node29 -->
<g id="Node000029" class="node">
<title>Node29</title>
<g id="a_Node000029"><a xlink:title=" ">
<polygon fill="#e0e0e0" stroke="#999999" points="1854.62,-19.69 1804.88,-19.69 1804.88,-0.44 1854.62,-0.44 1854.62,-19.69"/>
<text text-anchor="middle" x="1829.75" y="-6.19" font-family="Helvetica,sans-Serif" font-size="10.00">optional</text>
</a>
</g>
</g>
<!-- Node7&#45;&gt;Node29 -->
<g id="edge28_Node000007_Node000029" class="edge">
<title>Node7&#45;&gt;Node29</title>
<g id="a_edge28_Node000007_Node000029"><a xlink:title=" ">
<path fill="none" stroke="#63b8ff" d="M1636.79,-55.21C1675.35,-46.96 1733.72,-34.26 1793.37,-20.2"/>
<polygon fill="#63b8ff" stroke="#63b8ff" points="1794.12,-23.62 1803.05,-17.91 1792.51,-16.8 1794.12,-23.62"/>
</a>
</g>
</g>
<!-- Node30 -->
<g id="Node000030" class="node">
<title>Node30</title>
<g id="a_Node000030"><a xlink:title=" ">
<polygon fill="#e0e0e0" stroke="#999999" points="1924.38,-19.69 1873.12,-19.69 1873.12,-0.44 1924.38,-0.44 1924.38,-19.69"/>
<text text-anchor="middle" x="1898.75" y="-6.19" font-family="Helvetica,sans-Serif" font-size="10.00">ostream</text>
</a>
</g>
</g>
<!-- Node7&#45;&gt;Node30 -->
<g id="edge29_Node000007_Node000030" class="edge">
<title>Node7&#45;&gt;Node30</title>
<g id="a_edge29_Node000007_Node000030"><a xlink:title=" ">
<path fill="none" stroke="#63b8ff" d="M1650.09,-56.31C1702.41,-48.58 1782.72,-35.97 1861.68,-19.97"/>
<polygon fill="#63b8ff" stroke="#63b8ff" points="1862.23,-23.43 1871.32,-18 1860.83,-16.58 1862.23,-23.43"/>
</a>
</g>
</g>
<!-- Node31 -->
<g id="Node000031" class="node">
<title>Node31</title>
<g id="a_Node000031"><a xlink:title=" ">
<polygon fill="#e0e0e0" stroke="#999999" points="2019.12,-19.69 1942.38,-19.69 1942.38,-0.44 2019.12,-0.44 2019.12,-19.69"/>
<text text-anchor="middle" x="1980.75" y="-6.19" font-family="Helvetica,sans-Serif" font-size="10.00">shared_mutex</text>
</a>
</g>
</g>
<!-- Node7&#45;&gt;Node31 -->
<g id="edge30_Node000007_Node000031" class="edge">
<title>Node7&#45;&gt;Node31</title>
<g id="a_edge30_Node000007_Node000031"><a xlink:title=" ">
<path fill="none" stroke="#63b8ff" d="M1650.12,-56.83C1653.04,-56.44 1655.93,-56.06 1658.75,-55.69 1777.38,-40.05 1810.08,-38.88 1930.87,-20.08"/>
<polygon fill="#63b8ff" stroke="#63b8ff" points="1931.21,-23.57 1940.55,-18.56 1930.13,-16.65 1931.21,-23.57"/>
</a>
</g>
</g>
<!-- Node32 -->
<g id="Node000032" class="node">
<title>Node32</title>
<g id="a_Node000032"><a xlink:title=" ">
<polygon fill="#e0e0e0" stroke="#999999" points="2074.25,-19.69 2037.25,-19.69 2037.25,-0.44 2074.25,-0.44 2074.25,-19.69"/>
<text text-anchor="middle" x="2055.75" y="-6.19" font-family="Helvetica,sans-Serif" font-size="10.00">span</text>
</a>
</g>
</g>
<!-- Node7&#45;&gt;Node32 -->
<g id="edge31_Node000007_Node000032" class="edge">
<title>Node7&#45;&gt;Node32</title>
<g id="a_edge31_Node000007_Node000032"><a xlink:title=" ">
<path fill="none" stroke="#63b8ff" d="M1650.11,-56.71C1653.03,-56.36 1655.92,-56.01 1658.75,-55.69 1818.93,-37.25 1864.26,-51.47 2026.08,-19.6"/>
<polygon fill="#63b8ff" stroke="#63b8ff" points="2026.3,-23.12 2035.42,-17.73 2024.93,-16.26 2026.3,-23.12"/>
</a>
</g>
</g>
<!-- Node33 -->
<g id="Node000033" class="node">
<title>Node33</title>
<g id="a_Node000033"><a xlink:title=" ">
<polygon fill="#e0e0e0" stroke="#999999" points="2143.38,-19.69 2092.12,-19.69 2092.12,-0.44 2143.38,-0.44 2143.38,-19.69"/>
<text text-anchor="middle" x="2117.75" y="-6.19" font-family="Helvetica,sans-Serif" font-size="10.00">sstream</text>
</a>
</g>
</g>
<!-- Node7&#45;&gt;Node33 -->
<g id="edge32_Node000007_Node000033" class="edge">
<title>Node7&#45;&gt;Node33</title>
<g id="a_edge32_Node000007_Node000033"><a xlink:title=" ">
<path fill="none" stroke="#63b8ff" d="M1650.1,-56.67C1653.02,-56.33 1655.92,-56 1658.75,-55.69 1843.53,-35.62 1894.81,-50.49 2080.59,-19.98"/>
<polygon fill="#63b8ff" stroke="#63b8ff" points="2081.07,-23.44 2090.36,-18.35 2079.92,-16.54 2081.07,-23.44"/>
</a>
</g>
</g>
<!-- Node34 -->
<g id="Node000034" class="node">
<title>Node34</title>
<g id="a_Node000034"><a xlink:title=" ">
<polygon fill="#e0e0e0" stroke="#999999" points="2219.75,-19.69 2161.75,-19.69 2161.75,-0.44 2219.75,-0.44 2219.75,-19.69"/>
<text text-anchor="middle" x="2190.75" y="-6.19" font-family="Helvetica,sans-Serif" font-size="10.00">stdexcept</text>
</a>
</g>
</g>
<!-- Node7&#45;&gt;Node34 -->
<g id="edge33_Node000007_Node000034" class="edge">
<title>Node7&#45;&gt;Node34</title>
<g id="a_edge33_Node000007_Node000034"><a xlink:title=" ">
<path fill="none" stroke="#63b8ff" d="M1650.1,-56.63C1653.02,-56.3 1655.92,-55.98 1658.75,-55.69 1874.1,-33.57 1933.07,-51.53 2150.24,-19.84"/>
<polygon fill="#63b8ff" stroke="#63b8ff" points="2150.5,-23.34 2159.88,-18.41 2149.47,-16.41 2150.5,-23.34"/>
</a>
</g>
</g>
<!-- Node35 -->
<g id="Node000035" class="node">
<title>Node35</title>
<g id="a_Node000035"><a xlink:title=" ">
<polygon fill="#e0e0e0" stroke="#999999" points="2285.5,-19.69 2238,-19.69 2238,-0.44 2285.5,-0.44 2285.5,-19.69"/>
<text text-anchor="middle" x="2261.75" y="-6.19" font-family="Helvetica,sans-Serif" font-size="10.00">stdint.h</text>
</a>
</g>
</g>
<!-- Node7&#45;&gt;Node35 -->
<g id="edge34_Node000007_Node000035" class="edge">
<title>Node7&#45;&gt;Node35</title>
<g id="a_edge34_Node000007_Node000035"><a xlink:title=" ">
<path fill="none" stroke="#63b8ff" d="M1650.09,-56.6C1653.02,-56.27 1655.92,-55.97 1658.75,-55.69 1907.68,-31.34 1976.13,-59.13 2226.43,-19.72"/>
<polygon fill="#63b8ff" stroke="#63b8ff" points="2226.9,-23.19 2236.22,-18.16 2225.79,-16.28 2226.9,-23.19"/>
</a>
</g>
</g>
<!-- Node36 -->
<g id="Node000036" class="node">
<title>Node36</title>
<g id="a_Node000036"><a xlink:title=" ">
<polygon fill="#e0e0e0" stroke="#999999" points="2343.75,-19.69 2303.75,-19.69 2303.75,-0.44 2343.75,-0.44 2343.75,-19.69"/>
<text text-anchor="middle" x="2323.75" y="-6.19" font-family="Helvetica,sans-Serif" font-size="10.00">string</text>
</a>
</g>
</g>
<!-- Node7&#45;&gt;Node36 -->
<g id="edge35_Node000007_Node000036" class="edge">
<title>Node7&#45;&gt;Node36</title>
<g id="a_edge35_Node000007_Node000036"><a xlink:title=" ">
<path fill="none" stroke="#63b8ff" d="M1650.09,-56.57C1653.02,-56.25 1655.92,-55.96 1658.75,-55.69 1936.9,-29.4 2013.83,-67.35 2292.04,-19.74"/>
<polygon fill="#63b8ff" stroke="#63b8ff" points="2292.55,-23.21 2301.8,-18.05 2291.35,-16.31 2292.55,-23.21"/>
</a>
</g>
</g>
<!-- Node37 -->
<g id="Node000037" class="node">
<title>Node37</title>
<g id="a_Node000037"><a xlink:title=" ">
<polygon fill="#e0e0e0" stroke="#999999" points="2405.25,-19.69 2362.25,-19.69 2362.25,-0.44 2405.25,-0.44 2405.25,-19.69"/>
<text text-anchor="middle" x="2383.75" y="-6.19" font-family="Helvetica,sans-Serif" font-size="10.00">thread</text>
</a>
</g>
</g>
<!-- Node7&#45;&gt;Node37 -->
<g id="edge36_Node000007_Node000037" class="edge">
<title>Node7&#45;&gt;Node37</title>
<g id="a_edge36_Node000007_Node000037"><a xlink:title=" ">
<path fill="none" stroke="#63b8ff" d="M1650.09,-56.56C1653.02,-56.24 1655.92,-55.95 1658.75,-55.69 1962.7,-27.68 2045.97,-68.41 2350.92,-19.57"/>
<polygon fill="#63b8ff" stroke="#63b8ff" points="2351.06,-23.09 2360.37,-18.04 2349.94,-16.18 2351.06,-23.09"/>
</a>
</g>
</g>
<!-- Node38 -->
<g id="Node000038" class="node">
<title>Node38</title>
<g id="a_Node000038"><a xlink:title=" ">
<polygon fill="#e0e0e0" stroke="#999999" points="2484.25,-19.69 2423.25,-19.69 2423.25,-0.44 2484.25,-0.44 2484.25,-19.69"/>
<text text-anchor="middle" x="2453.75" y="-6.19" font-family="Helvetica,sans-Serif" font-size="10.00">type_traits</text>
</a>
</g>
</g>
<!-- Node7&#45;&gt;Node38 -->
<g id="edge37_Node000007_Node000038" class="edge">
<title>Node7&#45;&gt;Node38</title>
<g id="a_edge37_Node000007_Node000038"><a xlink:title=" ">
<path fill="none" stroke="#63b8ff" d="M1650.09,-56.54C1653.01,-56.23 1655.92,-55.94 1658.75,-55.69 1990.01,-25.88 2079.33,-63.31 2411.35,-19.93"/>
<polygon fill="#63b8ff" stroke="#63b8ff" points="2411.8,-23.4 2421.25,-18.62 2410.88,-16.46 2411.8,-23.4"/>
</a>
</g>
</g>
<!-- Node39 -->
<g id="Node000039" class="node">
<title>Node39</title>
<g id="a_Node000039"><a xlink:title=" ">
<polygon fill="#e0e0e0" stroke="#999999" points="2579.5,-19.69 2502,-19.69 2502,-0.44 2579.5,-0.44 2579.5,-19.69"/>
<text text-anchor="middle" x="2540.75" y="-6.19" font-family="Helvetica,sans-Serif" font-size="10.00">unordered_set</text>
</a>
</g>
</g>
<!-- Node7&#45;&gt;Node39 -->
<g id="edge38_Node000007_Node000039" class="edge">
<title>Node7&#45;&gt;Node39</title>
<g id="a_edge38_Node000007_Node000039"><a xlink:title=" ">
<path fill="none" stroke="#63b8ff" d="M1650.09,-56.53C1653.01,-56.22 1655.91,-55.94 1658.75,-55.69 2025.08,-23.55 2122.69,-60.56 2490.34,-19.93"/>
<polygon fill="#63b8ff" stroke="#63b8ff" points="2490.52,-23.43 2500.07,-18.84 2489.74,-16.47 2490.52,-23.43"/>
</a>
</g>
</g>
<!-- Node40 -->
<g id="Node000040" class="node">
<title>Node40</title>
<g id="a_Node000040"><a xlink:title=" ">
<polygon fill="#e0e0e0" stroke="#999999" points="2642.38,-19.69 2597.12,-19.69 2597.12,-0.44 2642.38,-0.44 2642.38,-19.69"/>
<text text-anchor="middle" x="2619.75" y="-6.19" font-family="Helvetica,sans-Serif" font-size="10.00">variant</text>
</a>
</g>
</g>
<!-- Node7&#45;&gt;Node40 -->
<g id="edge39_Node000007_Node000040" class="edge">
<title>Node7&#45;&gt;Node40</title>
<g id="a_edge39_Node000007_Node000040"><a xlink:title=" ">
<path fill="none" stroke="#63b8ff" d="M1650.09,-56.51C1653.01,-56.21 1655.91,-55.93 1658.75,-55.69 2067.17,-20.76 2178.07,-82.43 2585.64,-19.82"/>
<polygon fill="#63b8ff" stroke="#63b8ff" points="2586.02,-23.3 2595.36,-18.31 2584.94,-16.38 2586.02,-23.3"/>
</a>
</g>
</g>
<!-- Node41 -->
<g id="Node000041" class="node">
<title>Node41</title>
<g id="a_Node000041"><a xlink:title=" ">
<polygon fill="#e0e0e0" stroke="#999999" points="2703.25,-19.69 2660.25,-19.69 2660.25,-0.44 2703.25,-0.44 2703.25,-19.69"/>
<text text-anchor="middle" x="2681.75" y="-6.19" font-family="Helvetica,sans-Serif" font-size="10.00">vector</text>
</a>
</g>
</g>
<!-- Node7&#45;&gt;Node41 -->
<g id="edge40_Node000007_Node000041" class="edge">
<title>Node7&#45;&gt;Node41</title>
<g id="a_edge40_Node000007_Node000041"><a xlink:title=" ">
<path fill="none" stroke="#63b8ff" d="M1650.08,-56.5C1653.01,-56.2 1655.91,-55.93 1658.75,-55.69 2095.05,-18.92 2213.61,-88.02 2648.62,-19.8"/>
<polygon fill="#63b8ff" stroke="#63b8ff" points="2649.11,-23.26 2658.44,-18.24 2648.01,-16.35 2649.11,-23.26"/>
</a>
</g>
</g>
<!-- Node42 -->
<g id="Node000042" class="node">
<title>Node42</title>
<g id="a_Node000042"><a xlink:title=" ">
<polygon fill="#e0e0e0" stroke="#999999" points="2769.88,-19.69 2721.62,-19.69 2721.62,-0.44 2769.88,-0.44 2769.88,-19.69"/>
<text text-anchor="middle" x="2745.75" y="-6.19" font-family="Helvetica,sans-Serif" font-size="10.00">random</text>
</a>
</g>
</g>
<!-- Node7&#45;&gt;Node42 -->
<g id="edge41_Node000007_Node000042" class="edge">
<title>Node7&#45;&gt;Node42</title>
<g id="a_edge41_Node000007_Node000042"><a xlink:title=" ">
<path fill="none" stroke="#63b8ff" d="M1650.08,-56.5C1653.01,-56.2 1655.91,-55.92 1658.75,-55.69 2122.09,-17.13 2246.94,-86.24 2710.01,-19.73"/>
<polygon fill="#63b8ff" stroke="#63b8ff" points="2710.47,-23.2 2719.87,-18.3 2709.47,-16.27 2710.47,-23.2"/>
</a>
</g>
</g>
<!-- Node43 -->
<g id="Node000043" class="node">
<title>Node43</title>
<g id="a_Node000043"><a xlink:href="../../de/d43/common-typedefs_8hpp.html" target="_top" xlink:title=" ">
<polygon fill="white" stroke="#666666" points="2899.38,-19.69 2788.12,-19.69 2788.12,-0.44 2899.38,-0.44 2899.38,-19.69"/>
<text text-anchor="middle" x="2843.75" y="-6.19" font-family="Helvetica,sans-Serif" font-size="10.00">common&#45;typedefs.hpp</text>
</a>
</g>
</g>
<!-- Node7&#45;&gt;Node43 -->
<g id="edge42_Node000007_Node000043" class="edge">
<title>Node7&#45;&gt;Node43</title>
<g id="a_edge42_Node000007_Node000043"><a xlink:title=" ">
<path fill="none" stroke="#63b8ff" d="M1650.08,-56.49C1653.01,-56.19 1655.91,-55.92 1658.75,-55.69 2151.35,-15.19 2280.44,-59.81 2776.36,-19.78"/>
<polygon fill="#63b8ff" stroke="#63b8ff" points="2776.58,-23.28 2786.26,-18.98 2776.01,-16.3 2776.58,-23.28"/>
</a>
</g>
</g>
<!-- Node44 -->
<g id="Node000044" class="node">
<title>Node44</title>
<g id="a_Node000044"><a xlink:href="../../d4/d78/math_8hpp.html" target="_top" xlink:title=" ">
<polygon fill="white" stroke="#666666" points="2994.5,-19.69 2917,-19.69 2917,-0.44 2994.5,-0.44 2994.5,-19.69"/>
<text text-anchor="middle" x="2955.75" y="-6.19" font-family="Helvetica,sans-Serif" font-size="10.00">core/math.hpp</text>
</a>
</g>
</g>
<!-- Node7&#45;&gt;Node44 -->
<g id="edge43_Node000007_Node000044" class="edge">
<title>Node7&#45;&gt;Node44</title>
<g id="a_edge43_Node000007_Node000044"><a xlink:title=" ">
<path fill="none" stroke="#63b8ff" d="M1650.08,-56.48C1653.01,-56.18 1655.91,-55.92 1658.75,-55.69 2208.96,-11.38 2354.06,-77.11 2905.14,-19.91"/>
<polygon fill="#63b8ff" stroke="#63b8ff" points="2905.49,-23.4 2915.07,-18.87 2904.76,-16.43 2905.49,-23.4"/>
</a>
</g>
</g>
<!-- Node44&#45;&gt;Node44 -->
<g id="edge44_Node000044_Node000044" class="edge">
<title>Node44&#45;&gt;Node44</title>
<g id="a_edge44_Node000044_Node000044"><a xlink:title=" ">
<path fill="none" stroke="#63b8ff" d="M2985.53,-20.17C2999.86,-21.42 3012.5,-18.05 3012.5,-10.06 3012.5,-4.32 3005.97,-0.97 2996.97,0"/>
<polygon fill="#63b8ff" stroke="#63b8ff" points="2997.06,3.5 2987.04,0.04 2997.03,-3.5 2997.06,3.5"/>
</a>
</g>
</g>
<!-- Node45&#45;&gt;Node1 -->
<g id="edge46_Node000045_Node000001" class="edge">
<title>Node45&#45;&gt;Node1</title>
<g id="a_edge46_Node000045_Node000001"><a xlink:title=" ">
<path fill="none" stroke="#63b8ff" d="M1699.31,-75.39C1694.02,-82.66 1684.72,-93.17 1675.38,-102.66"/>
<polygon fill="#63b8ff" stroke="#63b8ff" points="1673.02,-100.07 1668.34,-109.57 1677.93,-105.06 1673.02,-100.07"/>
</a>
</g>
</g>
</g>
</svg>
