<?xml version="1.0" encoding="UTF-8" standalone="no"?>
<!DOCTYPE svg PUBLIC "-//W3C//DTD SVG 1.1//EN"
 "http://www.w3.org/Graphics/SVG/1.1/DTD/svg11.dtd">
<!-- Generated by graphviz version 8.1.0 (20230707.0739)
 -->
<!-- Title: engine::core::ShaderManager Pages: 1 -->
<!--zoomable 294 -->

<svg id="main" version="1.1" xmlns="http://www.w3.org/2000/svg" xmlns:xlink="http://www.w3.org/1999/xlink" xml:space="preserve" onload="init(evt)">
<style type="text/css"><![CDATA[
.node, .edge {opacity: 0.7;}
.node.selected, .edge.selected {opacity: 1;}
.edge:hover path { stroke: red; }
.edge:hover polygon { stroke: red; fill: red; }
]]></style>

<defs>
  <circle id="rim" cx="0" cy="0" r="7"/>
  <circle id="rim2" cx="0" cy="0" r="3.5"/>
  <g id="zoomPlus">
    <use xlink:href="#rim" fill="#404040"><set attributeName="fill" to="#808080" begin="zoomplus.mouseover" end="zoomplus.mouseout"/></use>
    <path d="M-4,0h8M0,-4v8" fill="none" stroke="white" stroke-width="1.5" pointer-events="none"/>
  </g>
  <g id="zoomMin">
    <use xlink:href="#rim" fill="#404040"><set attributeName="fill" to="#808080" begin="zoomminus.mouseover" end="zoomminus.mouseout"/></use>
    <path d="M-4,0h8" fill="none" stroke="white" stroke-width="1.5" pointer-events="none"/>
  </g>
  <g id="arrowUp" transform="translate(30 24)">
    <use xlink:href="#rim"/>
    <path pointer-events="none" fill="none" stroke="white" stroke-width="1.5" d="M0,-3.0v7 M-2.5,-0.5L0,-3.0L2.5,-0.5"/>
  </g>
  <g id="arrowRight" transform="rotate(90) translate(36 -43)">
    <use xlink:href="#rim"/>
    <path pointer-events="none" fill="none" stroke="white" stroke-width="1.5" d="M0,-3.0v7 M-2.5,-0.5L0,-3.0L2.5,-0.5"/>
  </g>
  <g id="arrowDown" transform="rotate(180) translate(-30 -48)">
    <use xlink:href="#rim"/>
    <path pointer-events="none" fill="none" stroke="white" stroke-width="1.5" d="M0,-3.0v7 M-2.5,-0.5L0,-3.0L2.5,-0.5"/>
  </g>
  <g id="arrowLeft" transform="rotate(270) translate(-36 17)">
    <use xlink:href="#rim"/>
    <path pointer-events="none" fill="none" stroke="white" stroke-width="1.5" d="M0,-3.0v7 M-2.5,-0.5L0,-3.0L2.5,-0.5"/>
  </g>
  <g id="resetDef">
    <use xlink:href="#rim2" fill="#404040"><set attributeName="fill" to="#808080" begin="reset.mouseover" end="reset.mouseout"/></use>
  </g>
</defs>
<script type="application/ecmascript">
var viewWidth = 1666;
var viewHeight = 294;
var sectionId = 'dynsection-1';
</script>
<script type="application/ecmascript" xlink:href="../../svg.min.js"/>
<svg id="graph" class="graph">
<g id="viewport">
<title>engine::core::ShaderManager</title>
<!-- Node1 -->
<g id="Node000001" class="node">
<title>Node1</title>
<g id="a_Node000001"><a xlink:title=" ">
<polygon fill="#999999" stroke="#666666" points="1457.5,-189.12 1317,-189.12 1317,-169.88 1457.5,-169.88 1457.5,-189.12"/>
<text text-anchor="middle" x="1387.25" y="-175.62" font-family="Helvetica,sans-Serif" font-size="10.00">engine::core::ShaderManager</text>
</a>
</g>
</g>
<!-- Node7 -->
<g id="Node000007" class="node">
<title>Node7</title>
<g id="a_Node000007"><a xlink:title=" ">
<polygon fill="white" stroke="#666666" points="1658,-194.75 1537.75,-194.75 1537.75,-164.25 1658,-164.25 1658,-194.75"/>
<text text-anchor="start" x="1545.75" y="-181.25" font-family="Helvetica,sans-Serif" font-size="10.00">std::shared_ptr&lt; engine</text>
<text text-anchor="middle" x="1597.88" y="-170" font-family="Helvetica,sans-Serif" font-size="10.00">::core::ShaderManager &gt;</text>
</a>
</g>
</g>
<!-- Node1&#45;&gt;Node7 -->
<g id="edge7_Node000007_Node000001" class="edge">
<title>Node1&#45;&gt;Node7</title>
<g id="a_edge7_Node000007_Node000001"><a xlink:title=" ">
<path fill="none" stroke="#9a32cd" stroke-dasharray="5,2" d="M1468.48,-179.5C1491.43,-179.5 1516.02,-179.5 1537.48,-179.5"/>
<polygon fill="#9a32cd" stroke="#9a32cd" points="1468.72,-176 1458.72,-179.5 1468.72,-183 1468.72,-176"/>
</a>
</g>
<text text-anchor="middle" x="1497.62" y="-181.25" font-family="Helvetica,sans-Serif" font-size="10.00" fill="grey"> ptr</text>
</g>
<!-- Node2 -->
<g id="Node000002" class="node">
<title>Node2</title>
<g id="a_Node000002"><a xlink:href="../../d0/d04/classengine_1_1core_1_1_layer.html" target="_top" xlink:title=" ">
<polygon fill="white" stroke="#666666" points="924.5,-286.12 828.25,-286.12 828.25,-266.88 924.5,-266.88 924.5,-286.12"/>
<text text-anchor="middle" x="876.38" y="-272.62" font-family="Helvetica,sans-Serif" font-size="10.00">engine::core::Layer</text>
</a>
</g>
</g>
<!-- Node2&#45;&gt;Node1 -->
<g id="edge1_Node000001_Node000002" class="edge">
<title>Node2&#45;&gt;Node1</title>
<g id="a_edge1_Node000001_Node000002"><a xlink:title=" ">
<path fill="none" stroke="#63b8ff" d="M935.53,-280.41C1019.27,-283.84 1177.12,-281.99 1299,-231.5 1326.53,-220.09 1355.74,-201.09 1372.41,-189.48"/>
<polygon fill="#63b8ff" stroke="#63b8ff" points="935.86,-276.88 925.71,-279.92 935.55,-283.87 935.86,-276.88"/>
</a>
</g>
</g>
<!-- Node18 -->
<g id="Node000018" class="node">
<title>Node18</title>
<g id="a_Node000018"><a xlink:href="../../d9/d64/classengine_1_1utils_1_1_file_watcher.html" target="_top" xlink:title=" ">
<polygon fill="white" stroke="#666666" points="1156.5,-208.12 1033.25,-208.12 1033.25,-188.88 1156.5,-188.88 1156.5,-208.12"/>
<text text-anchor="middle" x="1094.88" y="-194.62" font-family="Helvetica,sans-Serif" font-size="10.00">engine::utils::FileWatcher</text>
</a>
</g>
</g>
<!-- Node2&#45;&gt;Node18 -->
<g id="edge22_Node000018_Node000002" class="edge">
<title>Node2&#45;&gt;Node18</title>
<g id="a_edge22_Node000018_Node000002"><a xlink:title=" ">
<path fill="none" stroke="#63b8ff" d="M927.5,-263.4C933.6,-261.54 939.72,-259.56 945.5,-257.5 973.61,-247.47 981.09,-245.32 1007,-230.5 1015.57,-225.6 1016.1,-221.77 1025,-217.5 1032.27,-214.01 1040.29,-211.07 1048.21,-208.62"/>
<polygon fill="#63b8ff" stroke="#63b8ff" points="926.91,-260.21 918.3,-266.39 928.88,-266.93 926.91,-260.21"/>
</a>
</g>
</g>
<!-- Node3 -->
<g id="Node000003" class="node">
<title>Node3</title>
<g id="a_Node000003"><a xlink:title=" ">
<polygon fill="white" stroke="#666666" points="278.38,-177.12 220.38,-177.12 220.38,-157.88 278.38,-157.88 278.38,-177.12"/>
<text text-anchor="middle" x="249.38" y="-163.62" font-family="Helvetica,sans-Serif" font-size="10.00">std::string</text>
</a>
</g>
</g>
<!-- Node3&#45;&gt;Node2 -->
<g id="edge2_Node000002_Node000003" class="edge">
<title>Node3&#45;&gt;Node2</title>
<g id="a_edge2_Node000002_Node000003"><a xlink:title=" ">
<path fill="none" stroke="#9a32cd" stroke-dasharray="5,2" d="M289.42,-174.31C399.01,-193.42 709.22,-247.52 828.15,-268.26"/>
<polygon fill="#9a32cd" stroke="#9a32cd" points="290.31,-170.74 279.85,-172.47 289.1,-177.63 290.31,-170.74"/>
</a>
</g>
<text text-anchor="middle" x="570.75" y="-229.25" font-family="Helvetica,sans-Serif" font-size="10.00" fill="grey"> debug_name_</text>
</g>
<!-- Node15 -->
<g id="Node000015" class="node">
<title>Node15</title>
<g id="a_Node000015"><a xlink:href="../../df/d17/structengine_1_1core_1_1_shader_compile_input.html" target="_top" xlink:title=" ">
<polygon fill="white" stroke="#666666" points="945.5,-139.75 807.25,-139.75 807.25,-109.25 945.5,-109.25 945.5,-139.75"/>
<text text-anchor="start" x="815.25" y="-126.25" font-family="Helvetica,sans-Serif" font-size="10.00">engine::core::ShaderCompile</text>
<text text-anchor="middle" x="876.38" y="-115" font-family="Helvetica,sans-Serif" font-size="10.00">Input</text>
</a>
</g>
</g>
<!-- Node3&#45;&gt;Node15 -->
<g id="edge17_Node000015_Node000003" class="edge">
<title>Node3&#45;&gt;Node15</title>
<g id="a_edge17_Node000015_Node000003"><a xlink:title=" ">
<path fill="none" stroke="#9a32cd" stroke-dasharray="5,2" d="M289.61,-167.7C372.44,-167.75 571.2,-165.85 736.75,-148.5 759.71,-146.09 784.6,-142.19 806.88,-138.23"/>
<polygon fill="#9a32cd" stroke="#9a32cd" points="289.71,-164.2 279.7,-167.68 289.7,-171.2 289.71,-164.2"/>
</a>
</g>
<text text-anchor="middle" x="570.75" y="-163.25" font-family="Helvetica,sans-Serif" font-size="10.00" fill="grey"> entrypoint</text>
</g>
<!-- Node17 -->
<g id="Node000017" class="node">
<title>Node17</title>
<g id="a_Node000017"><a xlink:href="../../d7/d7d/structengine_1_1core_1_1_shader_macro.html" target="_top" xlink:title=" ">
<polygon fill="white" stroke="#666666" points="521.25,-136.12 391.25,-136.12 391.25,-116.88 521.25,-116.88 521.25,-136.12"/>
<text text-anchor="middle" x="456.25" y="-122.62" font-family="Helvetica,sans-Serif" font-size="10.00">engine::core::ShaderMacro</text>
</a>
</g>
</g>
<!-- Node3&#45;&gt;Node17 -->
<g id="edge20_Node000017_Node000003" class="edge">
<title>Node3&#45;&gt;Node17</title>
<g id="a_edge20_Node000017_Node000003"><a xlink:title=" ">
<path fill="none" stroke="#9a32cd" stroke-dasharray="5,2" d="M277.25,-152.47C292.92,-144.51 313.37,-135.47 332.75,-131 351.31,-126.72 371.86,-124.88 390.75,-124.3"/>
<polygon fill="#9a32cd" stroke="#9a32cd" points="275.92,-149.74 268.69,-157.49 279.17,-155.93 275.92,-149.74"/>
</a>
</g>
<text text-anchor="middle" x="353" y="-143.5" font-family="Helvetica,sans-Serif" font-size="10.00" fill="grey"> definition</text>
<text text-anchor="middle" x="353" y="-132.25" font-family="Helvetica,sans-Serif" font-size="10.00" fill="grey">name</text>
</g>
<!-- Node4 -->
<g id="Node000004" class="node">
<title>Node4</title>
<g id="a_Node000004"><a xlink:title=" ">
<polygon fill="white" stroke="#666666" points="99.62,-182.75 7.12,-182.75 7.12,-152.25 99.62,-152.25 99.62,-182.75"/>
<text text-anchor="start" x="15.12" y="-169.25" font-family="Helvetica,sans-Serif" font-size="10.00">std::basic_string&lt;</text>
<text text-anchor="middle" x="53.38" y="-158" font-family="Helvetica,sans-Serif" font-size="10.00"> Char &gt;</text>
</a>
</g>
</g>
<!-- Node4&#45;&gt;Node3 -->
<g id="edge3_Node000003_Node000004" class="edge">
<title>Node4&#45;&gt;Node3</title>
<g id="a_edge3_Node000003_Node000004"><a xlink:title=" ">
<path fill="none" stroke="#63b8ff" d="M110.66,-167.5C146.51,-167.5 191.41,-167.5 220,-167.5"/>
<polygon fill="#63b8ff" stroke="#63b8ff" points="110.86,-164 100.86,-167.5 110.86,-171 110.86,-164"/>
</a>
</g>
</g>
<!-- Node5 -->
<g id="Node000005" class="node">
<title>Node5</title>
<g id="a_Node000005"><a xlink:href="../../dd/dd4/structengine_1_1core_1_1_layer_1_1_handle_event.html" target="_top" xlink:title=" ">
<polygon fill="white" stroke="#666666" points="1143,-256.75 1046.75,-256.75 1046.75,-226.25 1143,-226.25 1143,-256.75"/>
<text text-anchor="start" x="1054.75" y="-243.25" font-family="Helvetica,sans-Serif" font-size="10.00">engine::core::Layer</text>
<text text-anchor="middle" x="1094.88" y="-232" font-family="Helvetica,sans-Serif" font-size="10.00">::HandleEvent</text>
</a>
</g>
</g>
<!-- Node5&#45;&gt;Node1 -->
<g id="edge4_Node000001_Node000005" class="edge">
<title>Node5&#45;&gt;Node1</title>
<g id="a_edge4_Node000001_Node000005"><a xlink:title=" ">
<path fill="none" stroke="#63b8ff" d="M1154.27,-233.49C1195.08,-227.39 1250.71,-218.08 1299,-206.5 1318.58,-201.8 1340.21,-195.12 1357.03,-189.58"/>
<polygon fill="#63b8ff" stroke="#63b8ff" points="1153.81,-230.17 1144.43,-235.09 1154.83,-237.09 1153.81,-230.17"/>
</a>
</g>
</g>
<!-- Node6 -->
<g id="Node000006" class="node">
<title>Node6</title>
<g id="a_Node000006"><a xlink:href="../../d5/d41/structengine_1_1core_1_1_layer_1_1_handle_update.html" target="_top" xlink:title=" ">
<polygon fill="white" stroke="#666666" points="924.5,-188.75 828.25,-188.75 828.25,-158.25 924.5,-158.25 924.5,-188.75"/>
<text text-anchor="start" x="836.25" y="-175.25" font-family="Helvetica,sans-Serif" font-size="10.00">engine::core::Layer</text>
<text text-anchor="middle" x="876.38" y="-164" font-family="Helvetica,sans-Serif" font-size="10.00">::HandleUpdate</text>
</a>
</g>
</g>
<!-- Node6&#45;&gt;Node1 -->
<g id="edge5_Node000001_Node000006" class="edge">
<title>Node6&#45;&gt;Node1</title>
<g id="a_edge5_Node000001_Node000006"><a xlink:title=" ">
<path fill="none" stroke="#63b8ff" d="M935.55,-174.19C1029.82,-175.3 1215.57,-177.49 1316.68,-178.68"/>
<polygon fill="#63b8ff" stroke="#63b8ff" points="935.83,-170.68 925.79,-174.06 935.75,-177.68 935.83,-170.68"/>
</a>
</g>
</g>
<!-- Node6&#45;&gt;Node18 -->
<g id="edge23_Node000018_Node000006" class="edge">
<title>Node6&#45;&gt;Node18</title>
<g id="a_edge23_Node000018_Node000006"><a xlink:title=" ">
<path fill="none" stroke="#63b8ff" d="M935.65,-180.23C965.73,-183.7 1002.41,-187.94 1032.88,-191.46"/>
<polygon fill="#63b8ff" stroke="#63b8ff" points="936.22,-176.66 925.89,-178.99 935.42,-183.61 936.22,-176.66"/>
</a>
</g>
</g>
<!-- Node7&#45;&gt;Node1 -->
<g id="edge6_Node000001_Node000007" class="edge">
<title>Node7&#45;&gt;Node1</title>
<g id="a_edge6_Node000001_Node000007"><a xlink:title=" ">
<path fill="none" stroke="#9a32cd" stroke-dasharray="5,2" d="M1526.53,-164.05C1524.25,-163.75 1521.98,-163.48 1519.75,-163.25 1489.78,-160.13 1456.05,-164.46 1430.25,-169.43"/>
<polygon fill="#9a32cd" stroke="#9a32cd" points="1525.87,-167.64 1536.28,-165.67 1526.91,-160.72 1525.87,-167.64"/>
</a>
</g>
<text text-anchor="middle" x="1497.62" y="-164.25" font-family="Helvetica,sans-Serif" font-size="10.00" fill="grey"> instance_</text>
</g>
<!-- Node8 -->
<g id="Node000008" class="node">
<title>Node8</title>
<g id="a_Node000008"><a xlink:title=" ">
<polygon fill="white" stroke="#666666" points="1164,-53 1025.75,-53 1025.75,0 1164,0 1164,-53"/>
<text text-anchor="start" x="1033.75" y="-39.5" font-family="Helvetica,sans-Serif" font-size="10.00">std::unordered_map</text>
<text text-anchor="start" x="1033.75" y="-28.25" font-family="Helvetica,sans-Serif" font-size="10.00">&lt; size_t, std::unordered</text>
<text text-anchor="start" x="1033.75" y="-17" font-family="Helvetica,sans-Serif" font-size="10.00">_set&lt; std::shared_ptr&lt;</text>
<text text-anchor="middle" x="1094.88" y="-5.75" font-family="Helvetica,sans-Serif" font-size="10.00"> engine::render::Shader &gt; &gt; &gt;</text>
</a>
</g>
</g>
<!-- Node8&#45;&gt;Node1 -->
<g id="edge8_Node000001_Node000008" class="edge">
<title>Node8&#45;&gt;Node1</title>
<g id="a_edge8_Node000001_Node000008"><a xlink:title=" ">
<path fill="none" stroke="#9a32cd" stroke-dasharray="5,2" d="M1174.71,-45.56C1213.83,-57.06 1260.76,-74.04 1299,-97.25 1332.46,-117.56 1363.83,-152.4 1378.13,-169.47"/>
<polygon fill="#9a32cd" stroke="#9a32cd" points="1176,-42 1165.43,-42.61 1174.07,-48.73 1176,-42"/>
</a>
</g>
<text text-anchor="middle" x="1240.88" y="-99.25" font-family="Helvetica,sans-Serif" font-size="10.00" fill="grey"> dependent_shaders_map_</text>
</g>
<!-- Node9 -->
<g id="Node000009" class="node">
<title>Node9</title>
<g id="a_Node000009"><a xlink:title=" ">
<polygon fill="white" stroke="#666666" points="938.75,-43.38 814,-43.38 814,-1.62 938.75,-1.62 938.75,-43.38"/>
<text text-anchor="start" x="822" y="-29.88" font-family="Helvetica,sans-Serif" font-size="10.00">std::unordered_set</text>
<text text-anchor="start" x="822" y="-18.62" font-family="Helvetica,sans-Serif" font-size="10.00">&lt; std::shared_ptr&lt; engine</text>
<text text-anchor="middle" x="876.38" y="-7.38" font-family="Helvetica,sans-Serif" font-size="10.00">::render::Shader &gt; &gt;</text>
</a>
</g>
</g>
<!-- Node9&#45;&gt;Node8 -->
<g id="edge9_Node000008_Node000009" class="edge">
<title>Node9&#45;&gt;Node8</title>
<g id="a_edge9_Node000008_Node000009"><a xlink:title=" ">
<path fill="none" stroke="#9a32cd" stroke-dasharray="5,2" d="M950.11,-23.84C974.49,-24.29 1001.56,-24.79 1025.58,-25.24"/>
<polygon fill="#9a32cd" stroke="#9a32cd" points="950.19,-20.33 940.13,-23.64 950.06,-27.33 950.19,-20.33"/>
</a>
</g>
<text text-anchor="middle" x="985.25" y="-27.25" font-family="Helvetica,sans-Serif" font-size="10.00" fill="grey"> elements</text>
</g>
<!-- Node10 -->
<g id="Node000010" class="node">
<title>Node10</title>
<g id="a_Node000010"><a xlink:title=" ">
<polygon fill="white" stroke="#666666" points="736.75,-79.75 620.25,-79.75 620.25,-49.25 736.75,-49.25 736.75,-79.75"/>
<text text-anchor="start" x="628.25" y="-66.25" font-family="Helvetica,sans-Serif" font-size="10.00">std::shared_ptr&lt; engine</text>
<text text-anchor="middle" x="678.5" y="-55" font-family="Helvetica,sans-Serif" font-size="10.00">::render::Shader &gt;</text>
</a>
</g>
</g>
<!-- Node10&#45;&gt;Node9 -->
<g id="edge10_Node000009_Node000010" class="edge">
<title>Node10&#45;&gt;Node9</title>
<g id="a_edge10_Node000009_Node000010"><a xlink:title=" ">
<path fill="none" stroke="#9a32cd" stroke-dasharray="5,2" d="M747.85,-49.84C769.25,-45.26 792.73,-40.22 813.64,-35.74"/>
<polygon fill="#9a32cd" stroke="#9a32cd" points="747.25,-46.61 738.21,-52.13 748.72,-53.45 747.25,-46.61"/>
</a>
</g>
<text text-anchor="middle" x="772" y="-49.25" font-family="Helvetica,sans-Serif" font-size="10.00" fill="grey"> keys</text>
</g>
<!-- Node14 -->
<g id="Node000014" class="node">
<title>Node14</title>
<g id="a_Node000014"><a xlink:title=" ">
<polygon fill="white" stroke="#666666" points="1164.75,-132 1025,-132 1025,-79 1164.75,-79 1164.75,-132"/>
<text text-anchor="start" x="1033" y="-118.5" font-family="Helvetica,sans-Serif" font-size="10.00">std::unordered_map</text>
<text text-anchor="start" x="1033" y="-107.25" font-family="Helvetica,sans-Serif" font-size="10.00">&lt; std::shared_ptr&lt; engine</text>
<text text-anchor="start" x="1033" y="-96" font-family="Helvetica,sans-Serif" font-size="10.00">::render::Shader &gt;, engine</text>
<text text-anchor="middle" x="1094.88" y="-84.75" font-family="Helvetica,sans-Serif" font-size="10.00">::core::ShaderCompileInput &gt;</text>
</a>
</g>
</g>
<!-- Node10&#45;&gt;Node14 -->
<g id="edge15_Node000014_Node000010" class="edge">
<title>Node10&#45;&gt;Node14</title>
<g id="a_edge15_Node000014_Node000010"><a xlink:title=" ">
<path fill="none" stroke="#9a32cd" stroke-dasharray="5,2" d="M747.89,-70.55C801.64,-75.39 878.37,-82.45 945.5,-89.25 971.41,-91.87 999.84,-94.94 1024.83,-97.7"/>
<polygon fill="#9a32cd" stroke="#9a32cd" points="748.4,-67 738.12,-69.59 747.77,-73.97 748.4,-67"/>
</a>
</g>
<text text-anchor="middle" x="876.38" y="-91.25" font-family="Helvetica,sans-Serif" font-size="10.00" fill="grey"> keys</text>
</g>
<!-- Node11 -->
<g id="Node000011" class="node">
<title>Node11</title>
<g id="a_Node000011"><a xlink:href="../../d0/dc5/classengine_1_1render_1_1_shader.html" target="_top" xlink:title=" ">
<polygon fill="white" stroke="#666666" points="511.88,-74.12 400.62,-74.12 400.62,-54.88 511.88,-54.88 511.88,-74.12"/>
<text text-anchor="middle" x="456.25" y="-60.62" font-family="Helvetica,sans-Serif" font-size="10.00">engine::render::Shader</text>
</a>
</g>
</g>
<!-- Node11&#45;&gt;Node10 -->
<g id="edge11_Node000010_Node000011" class="edge">
<title>Node11&#45;&gt;Node10</title>
<g id="a_edge11_Node000010_Node000011"><a xlink:title=" ">
<path fill="none" stroke="#9a32cd" stroke-dasharray="5,2" d="M522.94,-64.5C553.84,-64.5 590.34,-64.5 620.12,-64.5"/>
<polygon fill="#9a32cd" stroke="#9a32cd" points="523.26,-61 513.26,-64.5 523.26,-68 523.26,-61"/>
</a>
</g>
<text text-anchor="middle" x="570.75" y="-66.25" font-family="Helvetica,sans-Serif" font-size="10.00" fill="grey"> ptr</text>
</g>
<!-- Node12 -->
<g id="Node000012" class="node">
<title>Node12</title>
<g id="a_Node000012"><a xlink:href="../../d3/de6/structengine_1_1render_1_1_shader_blob.html" target="_top" xlink:title=" ">
<polygon fill="white" stroke="#666666" points="314.75,-74.12 184,-74.12 184,-54.88 314.75,-54.88 314.75,-74.12"/>
<text text-anchor="middle" x="249.38" y="-60.62" font-family="Helvetica,sans-Serif" font-size="10.00">engine::render::ShaderBlob</text>
</a>
</g>
</g>
<!-- Node12&#45;&gt;Node11 -->
<g id="edge12_Node000011_Node000012" class="edge">
<title>Node12&#45;&gt;Node11</title>
<g id="a_edge12_Node000011_Node000012"><a xlink:title=" ">
<path fill="none" stroke="#9a32cd" stroke-dasharray="5,2" d="M325.95,-64.5C350.54,-64.5 377.35,-64.5 400.15,-64.5"/>
<polygon fill="#9a32cd" stroke="#9a32cd" points="326.2,-61 316.2,-64.5 326.2,-68 326.2,-61"/>
</a>
</g>
<text text-anchor="middle" x="353" y="-66.25" font-family="Helvetica,sans-Serif" font-size="10.00" fill="grey"> blob_</text>
</g>
<!-- Node13 -->
<g id="Node000013" class="node">
<title>Node13</title>
<g id="a_Node000013"><a xlink:title=" ">
<polygon fill="white" stroke="#666666" points="106.75,-74.12 0,-74.12 0,-54.88 106.75,-54.88 106.75,-74.12"/>
<text text-anchor="middle" x="53.38" y="-60.62" font-family="Helvetica,sans-Serif" font-size="10.00">std::vector&lt; uint8_t &gt;</text>
</a>
</g>
</g>
<!-- Node13&#45;&gt;Node12 -->
<g id="edge13_Node000012_Node000013" class="edge">
<title>Node13&#45;&gt;Node12</title>
<g id="a_edge13_Node000012_Node000013"><a xlink:title=" ">
<path fill="none" stroke="#9a32cd" stroke-dasharray="5,2" d="M117.89,-64.5C138.93,-64.5 162.37,-64.5 183.52,-64.5"/>
<polygon fill="#9a32cd" stroke="#9a32cd" points="118.13,-61 108.13,-64.5 118.13,-68 118.13,-61"/>
</a>
</g>
<text text-anchor="middle" x="145.38" y="-66.25" font-family="Helvetica,sans-Serif" font-size="10.00" fill="grey"> bytecode</text>
</g>
<!-- Node14&#45;&gt;Node1 -->
<g id="edge14_Node000001_Node000014" class="edge">
<title>Node14&#45;&gt;Node1</title>
<g id="a_edge14_Node000001_Node000014"><a xlink:title=" ">
<path fill="none" stroke="#9a32cd" stroke-dasharray="5,2" d="M1175.34,-111.13C1213.41,-115.33 1259.25,-122.63 1299,-135.25 1325.39,-143.63 1353.54,-159.28 1370.52,-169.54"/>
<polygon fill="#9a32cd" stroke="#9a32cd" points="1176.14,-107.59 1165.83,-110.02 1175.41,-114.55 1176.14,-107.59"/>
</a>
</g>
<text text-anchor="middle" x="1240.88" y="-136.25" font-family="Helvetica,sans-Serif" font-size="10.00" fill="grey"> shader_inputs_</text>
</g>
<!-- Node15&#45;&gt;Node14 -->
<g id="edge16_Node000014_Node000015" class="edge">
<title>Node15&#45;&gt;Node14</title>
<g id="a_edge16_Node000014_Node000015"><a xlink:title=" ">
<path fill="none" stroke="#9a32cd" stroke-dasharray="5,2" d="M956.67,-117.54C978.97,-115.58 1003.04,-113.47 1024.7,-111.57"/>
<polygon fill="#9a32cd" stroke="#9a32cd" points="956.53,-114.13 946.88,-118.49 957.14,-121.1 956.53,-114.13"/>
</a>
</g>
<text text-anchor="middle" x="985.25" y="-119.25" font-family="Helvetica,sans-Serif" font-size="10.00" fill="grey"> elements</text>
</g>
<!-- Node16 -->
<g id="Node000016" class="node">
<title>Node16</title>
<g id="a_Node000016"><a xlink:title=" ">
<polygon fill="white" stroke="#666666" points="733.38,-139.75 623.62,-139.75 623.62,-109.25 733.38,-109.25 733.38,-139.75"/>
<text text-anchor="start" x="631.62" y="-126.25" font-family="Helvetica,sans-Serif" font-size="10.00">std::vector&lt; engine</text>
<text text-anchor="middle" x="678.5" y="-115" font-family="Helvetica,sans-Serif" font-size="10.00">::core::ShaderMacro &gt;</text>
</a>
</g>
</g>
<!-- Node16&#45;&gt;Node15 -->
<g id="edge18_Node000015_Node000016" class="edge">
<title>Node16&#45;&gt;Node15</title>
<g id="a_edge18_Node000015_Node000016"><a xlink:title=" ">
<path fill="none" stroke="#9a32cd" stroke-dasharray="5,2" d="M744.68,-124.5C764.68,-124.5 786.74,-124.5 806.96,-124.5"/>
<polygon fill="#9a32cd" stroke="#9a32cd" points="744.8,-121 734.8,-124.5 744.8,-128 744.8,-121"/>
</a>
</g>
<text text-anchor="middle" x="772" y="-126.25" font-family="Helvetica,sans-Serif" font-size="10.00" fill="grey"> macros</text>
</g>
<!-- Node17&#45;&gt;Node16 -->
<g id="edge19_Node000016_Node000017" class="edge">
<title>Node17&#45;&gt;Node16</title>
<g id="a_edge19_Node000016_Node000017"><a xlink:title=" ">
<path fill="none" stroke="#9a32cd" stroke-dasharray="5,2" d="M532.34,-125.82C562.16,-125.55 595.79,-125.24 623.18,-124.99"/>
<polygon fill="#9a32cd" stroke="#9a32cd" points="532.52,-122.33 522.55,-125.92 532.58,-129.33 532.52,-122.33"/>
</a>
</g>
<text text-anchor="middle" x="570.75" y="-127.25" font-family="Helvetica,sans-Serif" font-size="10.00" fill="grey"> elements</text>
</g>
<!-- Node18&#45;&gt;Node1 -->
<g id="edge21_Node000001_Node000018" class="edge">
<title>Node18&#45;&gt;Node1</title>
<g id="a_edge21_Node000001_Node000018"><a xlink:title=" ">
<path fill="none" stroke="#9a32cd" stroke-dasharray="5,2" d="M1167.7,-193.8C1213.12,-190.83 1271.52,-187.01 1316.53,-184.06"/>
<polygon fill="#9a32cd" stroke="#9a32cd" points="1167.5,-190.37 1157.75,-194.52 1167.95,-197.36 1167.5,-190.37"/>
</a>
</g>
<text text-anchor="middle" x="1240.88" y="-193.25" font-family="Helvetica,sans-Serif" font-size="10.00" fill="grey"> watcher_</text>
</g>
<!-- Node19 -->
<g id="Node000019" class="node">
<title>Node19</title>
<g id="a_Node000019"><a xlink:title=" ">
<polygon fill="white" stroke="#666666" points="937.62,-248.38 815.12,-248.38 815.12,-206.62 937.62,-206.62 937.62,-248.38"/>
<text text-anchor="start" x="823.12" y="-234.88" font-family="Helvetica,sans-Serif" font-size="10.00">std::map&lt; std::filesystem</text>
<text text-anchor="start" x="823.12" y="-223.62" font-family="Helvetica,sans-Serif" font-size="10.00">::path, std::filesystem</text>
<text text-anchor="middle" x="876.38" y="-212.38" font-family="Helvetica,sans-Serif" font-size="10.00">::file_time_type &gt;</text>
</a>
</g>
</g>
<!-- Node19&#45;&gt;Node18 -->
<g id="edge24_Node000018_Node000019" class="edge">
<title>Node19&#45;&gt;Node18</title>
<g id="a_edge24_Node000018_Node000019"><a xlink:title=" ">
<path fill="none" stroke="#9a32cd" stroke-dasharray="5,2" d="M948.62,-217.96C975.88,-214.31 1006.7,-210.18 1032.92,-206.67"/>
<polygon fill="#9a32cd" stroke="#9a32cd" points="948.42,-214.59 938.97,-219.38 949.35,-221.52 948.42,-214.59"/>
</a>
</g>
<text text-anchor="middle" x="985.25" y="-217.25" font-family="Helvetica,sans-Serif" font-size="10.00" fill="grey"> file_map_</text>
</g>
</g>
</svg>

<g id="navigator" transform="translate(0 0)" fill="#404254">
  <rect fill="#f2f5e9" fill-opacity="0.5" stroke="#606060" stroke-width=".5" x="0" y="0" width="60" height="60"/>
  <use id="zoomplus" xlink:href="#zoomPlus" x="17" y="9" onmousedown="handleZoom(evt,'in')"/>
  <use id="zoomminus" xlink:href="#zoomMin" x="42" y="9" onmousedown="handleZoom(evt,'out')"/>
  <use id="reset" xlink:href="#resetDef" x="30" y="36" onmousedown="handleReset()"/>
   <use id="arrowup" xlink:href="#arrowUp" x="0" y="0" onmousedown="handlePan(0,-1)"/>
  <use id="arrowright" xlink:href="#arrowRight" x="0" y="0" onmousedown="handlePan(1,0)"/>
  <use id="arrowdown" xlink:href="#arrowDown" x="0" y="0" onmousedown="handlePan(0,1)"/>
  <use id="arrowleft" xlink:href="#arrowLeft" x="0" y="0" onmousedown="handlePan(-1,0)"/>
</g>
<svg viewBox="0 0 15 15" width="100%" height="30px" preserveAspectRatio="xMaxYMin meet">
 <g id="arrow_out" transform="scale(0.3 0.3)">
  <a xlink:href="classengine_1_1core_1_1_shader_manager__coll__graph_org.svg" target="_base">
   <rect id="button" ry="5" rx="5" y="6" x="6" height="38" width="38"
        fill="#f2f5e9" fill-opacity="0.5" stroke="#606060" stroke-width="1.0"/>
   <path id="arrow"
     d="M 11.500037,31.436501 C 11.940474,20.09759 22.043105,11.32322 32.158766,21.979434 L 37.068811,17.246167 C 37.068811,17.246167 37.088388,32 37.088388,32 L 22.160133,31.978069 C 22.160133,31.978069 26.997745,27.140456 26.997745,27.140456 C 18.528582,18.264221 13.291696,25.230495 11.500037,31.436501 z"
     style="fill:#404040;"/>
  </a>
 </g>
</svg>

<style type='text/css'>
<![CDATA[
[data-mouse-over-selected='false'] { opacity: 0.7; }
[data-mouse-over-selected='true']  { opacity: 1.0; }
]]>
</style>
<script type="application/ecmascript"><![CDATA[
document.addEventListener('DOMContentLoaded', (event) => {
  highlightEdges();
  highlightAdjacentNodes();
});
]]></script>
</svg>
