<?xml version="1.0" encoding="UTF-8" standalone="no"?>
<!DOCTYPE svg PUBLIC "-//W3C//DTD SVG 1.1//EN"
 "http://www.w3.org/Graphics/SVG/1.1/DTD/svg11.dtd">
<!-- Generated by graphviz version 8.1.0 (20230707.0739)
 -->
<!-- Title: engine::ini::InvalidSyntaxException Pages: 1 -->
<svg width="129pt" height="204pt"
 viewBox="0.00 0.00 129.00 204.25" xmlns="http://www.w3.org/2000/svg" xmlns:xlink="http://www.w3.org/1999/xlink">
<g id="graph0" class="graph" transform="scale(1 1) rotate(0) translate(4 200.25)">
<title>engine::ini::InvalidSyntaxException</title>
<!-- Node1 -->
<g id="Node000001" class="node">
<title>Node1</title>
<g id="a_Node000001"><a xlink:title="Exception thrown when the syntax of the ini file is invalid.">
<polygon fill="#999999" stroke="#666666" points="121,-30.5 0,-30.5 0,0 121,0 121,-30.5"/>
<text text-anchor="start" x="8" y="-17" font-family="Helvetica,sans-Serif" font-size="10.00">engine::ini::InvalidSyntax</text>
<text text-anchor="middle" x="60.5" y="-5.75" font-family="Helvetica,sans-Serif" font-size="10.00">Exception</text>
</a>
</g>
</g>
<!-- Node2 -->
<g id="Node000002" class="node">
<title>Node2</title>
<g id="a_Node000002"><a xlink:title=" ">
<polygon fill="white" stroke="#666666" points="114.25,-85.75 6.75,-85.75 6.75,-66.5 114.25,-66.5 114.25,-85.75"/>
<text text-anchor="middle" x="60.5" y="-72.25" font-family="Helvetica,sans-Serif" font-size="10.00">std::invalid_argument</text>
</a>
</g>
</g>
<!-- Node2&#45;&gt;Node1 -->
<g id="edge1_Node000001_Node000002" class="edge">
<title>Node2&#45;&gt;Node1</title>
<g id="a_edge1_Node000001_Node000002"><a xlink:title=" ">
<path fill="none" stroke="#63b8ff" d="M60.5,-55.2C60.5,-47.2 60.5,-38.15 60.5,-30.78"/>
<polygon fill="#63b8ff" stroke="#63b8ff" points="57,-55.18 60.5,-65.18 64,-55.18 57,-55.18"/>
</a>
</g>
</g>
<!-- Node3 -->
<g id="Node000003" class="node">
<title>Node3</title>
<g id="a_Node000003"><a xlink:title=" ">
<polygon fill="white" stroke="#666666" points="100,-141 21,-141 21,-121.75 100,-121.75 100,-141"/>
<text text-anchor="middle" x="60.5" y="-127.5" font-family="Helvetica,sans-Serif" font-size="10.00">std::logic_error</text>
</a>
</g>
</g>
<!-- Node3&#45;&gt;Node2 -->
<g id="edge2_Node000002_Node000003" class="edge">
<title>Node3&#45;&gt;Node2</title>
<g id="a_edge2_Node000002_Node000003"><a xlink:title=" ">
<path fill="none" stroke="#63b8ff" d="M60.5,-110.71C60.5,-102.27 60.5,-92.83 60.5,-86.11"/>
<polygon fill="#63b8ff" stroke="#63b8ff" points="57,-110.58 60.5,-120.58 64,-110.58 57,-110.58"/>
</a>
</g>
</g>
<!-- Node4 -->
<g id="Node000004" class="node">
<title>Node4</title>
<g id="a_Node000004"><a xlink:title=" ">
<polygon fill="white" stroke="#666666" points="98.12,-196.25 22.88,-196.25 22.88,-177 98.12,-177 98.12,-196.25"/>
<text text-anchor="middle" x="60.5" y="-182.75" font-family="Helvetica,sans-Serif" font-size="10.00">std::exception</text>
</a>
</g>
</g>
<!-- Node4&#45;&gt;Node3 -->
<g id="edge3_Node000003_Node000004" class="edge">
<title>Node4&#45;&gt;Node3</title>
<g id="a_edge3_Node000003_Node000004"><a xlink:title=" ">
<path fill="none" stroke="#63b8ff" d="M60.5,-165.96C60.5,-157.52 60.5,-148.08 60.5,-141.36"/>
<polygon fill="#63b8ff" stroke="#63b8ff" points="57,-165.83 60.5,-175.83 64,-165.83 57,-165.83"/>
</a>
</g>
</g>
</g>
</svg>
