<?xml version="1.0" encoding="UTF-8" standalone="no"?>
<!DOCTYPE svg PUBLIC "-//W3C//DTD SVG 1.1//EN"
 "http://www.w3.org/Graphics/SVG/1.1/DTD/svg11.dtd">
<!-- Generated by graphviz version 9.0.0 (20230911.1827)
 -->
<!-- Title: engine::direct3d::ImmutableVertexBuffer&lt; T &gt; Pages: 1 -->
<svg width="142pt" height="238pt"
 viewBox="0.00 0.00 141.75 238.00" xmlns="http://www.w3.org/2000/svg" xmlns:xlink="http://www.w3.org/1999/xlink">
<g id="graph0" class="graph" transform="scale(1 1) rotate(0) translate(4 234)">
<title>engine::direct3d::ImmutableVertexBuffer&lt; T &gt;</title>
<!-- Node1 -->
<g id="Node000001" class="node">
<title>Node1</title>
<g id="a_Node000001"><a xlink:title="The immutable vertex buffer class.">
<polygon fill="#999999" stroke="#666666" points="133.75,-30.5 0,-30.5 0,0 133.75,0 133.75,-30.5"/>
<text text-anchor="start" x="8" y="-17" font-family="Helvetica,sans-Serif" font-size="10.00">engine::direct3d::Immutable</text>
<text text-anchor="middle" x="66.88" y="-5.75" font-family="Helvetica,sans-Serif" font-size="10.00">VertexBuffer&lt; T &gt;</text>
</a>
</g>
</g>
<!-- Node2 -->
<g id="Node000002" class="node">
<title>Node2</title>
<g id="a_Node000002"><a xlink:href="../../d3/d29/classengine_1_1direct3d_1_1_immutable_buffer.html" target="_top" xlink:title="The immutable buffer class.">
<polygon fill="white" stroke="#666666" points="133.75,-97 0,-97 0,-66.5 133.75,-66.5 133.75,-97"/>
<text text-anchor="start" x="8" y="-83.5" font-family="Helvetica,sans-Serif" font-size="10.00">engine::direct3d::Immutable</text>
<text text-anchor="middle" x="66.88" y="-72.25" font-family="Helvetica,sans-Serif" font-size="10.00">Buffer&lt; T &gt;</text>
</a>
</g>
</g>
<!-- Node2&#45;&gt;Node1 -->
<g id="edge1_Node000001_Node000002" class="edge">
<title>Node2&#45;&gt;Node1</title>
<g id="a_edge1_Node000001_Node000002"><a xlink:title=" ">
<path fill="none" stroke="#63b8ff" d="M66.88,-54.81C66.88,-46.64 66.88,-37.91 66.88,-30.83"/>
<polygon fill="#63b8ff" stroke="#63b8ff" points="63.38,-54.6 66.88,-64.6 70.38,-54.6 63.38,-54.6"/>
</a>
</g>
</g>
<!-- Node3 -->
<g id="Node000003" class="node">
<title>Node3</title>
<g id="a_Node000003"><a xlink:href="../../d9/db4/classengine_1_1direct3d_1_1_buffer_base.html" target="_top" xlink:title="Buffer Base class that contains the common functions for all the buffers.">
<polygon fill="white" stroke="#666666" points="123.62,-163.5 10.12,-163.5 10.12,-133 123.62,-133 123.62,-163.5"/>
<text text-anchor="start" x="18.12" y="-150" font-family="Helvetica,sans-Serif" font-size="10.00">engine::direct3d::Buffer</text>
<text text-anchor="middle" x="66.88" y="-138.75" font-family="Helvetica,sans-Serif" font-size="10.00">Base&lt; T &gt;</text>
</a>
</g>
</g>
<!-- Node3&#45;&gt;Node2 -->
<g id="edge2_Node000002_Node000003" class="edge">
<title>Node3&#45;&gt;Node2</title>
<g id="a_edge2_Node000002_Node000003"><a xlink:title=" ">
<path fill="none" stroke="#8b1a1a" d="M66.88,-121.31C66.88,-113.14 66.88,-104.41 66.88,-97.33"/>
<polygon fill="#8b1a1a" stroke="#8b1a1a" points="63.38,-121.1 66.88,-131.1 70.38,-121.1 63.38,-121.1"/>
</a>
</g>
</g>
<!-- Node4 -->
<g id="Node000004" class="node">
<title>Node4</title>
<g id="a_Node000004"><a xlink:href="../../d6/de4/classengine_1_1direct3d_1_1_buffer_wrapper.html" target="_top" xlink:title="A wrapper for a D3D11 buffer.">
<polygon fill="white" stroke="#666666" points="123.62,-230 10.12,-230 10.12,-199.5 123.62,-199.5 123.62,-230"/>
<text text-anchor="start" x="18.12" y="-216.5" font-family="Helvetica,sans-Serif" font-size="10.00">engine::direct3d::Buffer</text>
<text text-anchor="middle" x="66.88" y="-205.25" font-family="Helvetica,sans-Serif" font-size="10.00">Wrapper</text>
</a>
</g>
</g>
<!-- Node4&#45;&gt;Node3 -->
<g id="edge3_Node000003_Node000004" class="edge">
<title>Node4&#45;&gt;Node3</title>
<g id="a_edge3_Node000003_Node000004"><a xlink:title=" ">
<path fill="none" stroke="#8b1a1a" d="M66.88,-187.81C66.88,-179.64 66.88,-170.91 66.88,-163.83"/>
<polygon fill="#8b1a1a" stroke="#8b1a1a" points="63.38,-187.6 66.88,-197.6 70.38,-187.6 63.38,-187.6"/>
</a>
</g>
</g>
</g>
</svg>
