<?xml version="1.0" encoding="UTF-8" standalone="no"?>
<!DOCTYPE svg PUBLIC "-//W3C//DTD SVG 1.1//EN"
 "http://www.w3.org/Graphics/SVG/1.1/DTD/svg11.dtd">
<!-- Generated by graphviz version 9.0.0 (20230911.1827)
 -->
<!-- Title: engine/render/deferred&#45;resolve.hpp Pages: 1 -->
<svg width="382pt" height="227pt"
 viewBox="0.00 0.00 381.50 226.75" xmlns="http://www.w3.org/2000/svg" xmlns:xlink="http://www.w3.org/1999/xlink">
<g id="graph0" class="graph" transform="scale(1 1) rotate(0) translate(4 222.75)">
<title>engine/render/deferred&#45;resolve.hpp</title>
<!-- Node1 -->
<g id="Node000001" class="node">
<title>Node1</title>
<g id="a_Node000001"><a xlink:title=" ">
<polygon fill="#999999" stroke="#666666" points="303.5,-218.75 190.75,-218.75 190.75,-188.25 303.5,-188.25 303.5,-218.75"/>
<text text-anchor="start" x="198.75" y="-205.25" font-family="Helvetica,sans-Serif" font-size="10.00">engine/render/deferred</text>
<text text-anchor="middle" x="247.12" y="-194" font-family="Helvetica,sans-Serif" font-size="10.00">&#45;resolve.hpp</text>
</a>
</g>
</g>
<!-- Node2 -->
<g id="Node000002" class="node">
<title>Node2</title>
<g id="a_Node000002"><a xlink:href="../../db/df9/deferred-hdr-render-pipeline_8hpp.html" target="_top" xlink:title=" ">
<polygon fill="white" stroke="#666666" points="242.5,-152.25 111.75,-152.25 111.75,-121.75 242.5,-121.75 242.5,-152.25"/>
<text text-anchor="start" x="119.75" y="-138.75" font-family="Helvetica,sans-Serif" font-size="10.00">engine/direct3d11/deferred</text>
<text text-anchor="middle" x="177.12" y="-127.5" font-family="Helvetica,sans-Serif" font-size="10.00">&#45;hdr&#45;render&#45;pipeline.hpp</text>
</a>
</g>
</g>
<!-- Node1&#45;&gt;Node2 -->
<g id="edge1_Node000001_Node000002" class="edge">
<title>Node1&#45;&gt;Node2</title>
<g id="a_edge1_Node000001_Node000002"><a xlink:title=" ">
<path fill="none" stroke="#63b8ff" d="M222.94,-180.21C213.01,-171.07 201.8,-160.73 192.95,-152.58"/>
<polygon fill="#63b8ff" stroke="#63b8ff" points="220.4,-182.64 230.13,-186.84 225.15,-177.49 220.4,-182.64"/>
</a>
</g>
</g>
<!-- Node7 -->
<g id="Node000007" class="node">
<title>Node7</title>
<g id="a_Node000007"><a xlink:href="../../d4/d7c/deferred-resolve_8cpp.html" target="_top" xlink:title=" ">
<polygon fill="white" stroke="#666666" points="373.5,-152.25 260.75,-152.25 260.75,-121.75 373.5,-121.75 373.5,-152.25"/>
<text text-anchor="start" x="268.75" y="-138.75" font-family="Helvetica,sans-Serif" font-size="10.00">engine/render/deferred</text>
<text text-anchor="middle" x="317.12" y="-127.5" font-family="Helvetica,sans-Serif" font-size="10.00">&#45;resolve.cpp</text>
</a>
</g>
</g>
<!-- Node1&#45;&gt;Node7 -->
<g id="edge7_Node000001_Node000007" class="edge">
<title>Node1&#45;&gt;Node7</title>
<g id="a_edge7_Node000001_Node000007"><a xlink:title=" ">
<path fill="none" stroke="#63b8ff" d="M271.31,-180.21C281.24,-171.07 292.45,-160.73 301.3,-152.58"/>
<polygon fill="#63b8ff" stroke="#63b8ff" points="269.1,-177.49 264.12,-186.84 273.85,-182.64 269.1,-177.49"/>
</a>
</g>
</g>
<!-- Node3 -->
<g id="Node000003" class="node">
<title>Node3</title>
<g id="a_Node000003"><a xlink:href="../../dc/dfb/controller_8hpp.html" target="_top" xlink:title=" ">
<polygon fill="white" stroke="#666666" points="149.25,-80.12 35,-80.12 35,-60.88 149.25,-60.88 149.25,-80.12"/>
<text text-anchor="middle" x="92.12" y="-66.62" font-family="Helvetica,sans-Serif" font-size="10.00">d3d_test/controller.hpp</text>
</a>
</g>
</g>
<!-- Node2&#45;&gt;Node3 -->
<g id="edge2_Node000002_Node000003" class="edge">
<title>Node2&#45;&gt;Node3</title>
<g id="a_edge2_Node000002_Node000003"><a xlink:title=" ">
<path fill="none" stroke="#63b8ff" d="M148.73,-114.45C133.38,-102.81 115.28,-89.07 103.75,-80.32"/>
<polygon fill="#63b8ff" stroke="#63b8ff" points="146.55,-117.19 156.63,-120.45 150.78,-111.62 146.55,-117.19"/>
</a>
</g>
</g>
<!-- Node5 -->
<g id="Node000005" class="node">
<title>Node5</title>
<g id="a_Node000005"><a xlink:href="../../d9/d0f/main_8cc.html" target="_top" xlink:title=" ">
<polygon fill="white" stroke="#666666" points="222.25,-19.25 132,-19.25 132,0 222.25,0 222.25,-19.25"/>
<text text-anchor="middle" x="177.12" y="-5.75" font-family="Helvetica,sans-Serif" font-size="10.00">d3d_test/main.cc</text>
</a>
</g>
</g>
<!-- Node2&#45;&gt;Node5 -->
<g id="edge5_Node000002_Node000005" class="edge">
<title>Node2&#45;&gt;Node5</title>
<g id="a_edge5_Node000002_Node000005"><a xlink:title=" ">
<path fill="none" stroke="#63b8ff" d="M177.12,-110.24C177.12,-82 177.12,-38.25 177.12,-19.57"/>
<polygon fill="#63b8ff" stroke="#63b8ff" points="173.63,-110.1 177.13,-120.1 180.63,-110.1 173.63,-110.1"/>
</a>
</g>
</g>
<!-- Node6 -->
<g id="Node000006" class="node">
<title>Node6</title>
<g id="a_Node000006"><a xlink:href="../../d1/da2/deferred-hdr-render-pipeline_8cpp.html" target="_top" xlink:title=" ">
<polygon fill="white" stroke="#666666" points="335.5,-85.75 204.75,-85.75 204.75,-55.25 335.5,-55.25 335.5,-85.75"/>
<text text-anchor="start" x="212.75" y="-72.25" font-family="Helvetica,sans-Serif" font-size="10.00">engine/direct3d11/deferred</text>
<text text-anchor="middle" x="270.12" y="-61" font-family="Helvetica,sans-Serif" font-size="10.00">&#45;hdr&#45;render&#45;pipeline.cpp</text>
</a>
</g>
</g>
<!-- Node2&#45;&gt;Node6 -->
<g id="edge6_Node000002_Node000006" class="edge">
<title>Node2&#45;&gt;Node6</title>
<g id="a_edge6_Node000002_Node000006"><a xlink:title=" ">
<path fill="none" stroke="#63b8ff" d="M207.67,-114.82C221.24,-105.41 236.87,-94.56 249.11,-86.08"/>
<polygon fill="#63b8ff" stroke="#63b8ff" points="205.69,-111.93 199.47,-120.5 209.68,-117.68 205.69,-111.93"/>
</a>
</g>
</g>
<!-- Node4 -->
<g id="Node000004" class="node">
<title>Node4</title>
<g id="a_Node000004"><a xlink:href="../../d1/d47/controller_8cpp.html" target="_top" xlink:title=" ">
<polygon fill="white" stroke="#666666" points="114.25,-19.25 0,-19.25 0,0 114.25,0 114.25,-19.25"/>
<text text-anchor="middle" x="57.12" y="-5.75" font-family="Helvetica,sans-Serif" font-size="10.00">d3d_test/controller.cpp</text>
</a>
</g>
</g>
<!-- Node3&#45;&gt;Node4 -->
<g id="edge3_Node000003_Node000004" class="edge">
<title>Node3&#45;&gt;Node4</title>
<g id="a_edge3_Node000003_Node000004"><a xlink:title=" ">
<path fill="none" stroke="#63b8ff" d="M80.97,-50.73C74.79,-40.34 67.39,-27.89 62.49,-19.65"/>
<polygon fill="#63b8ff" stroke="#63b8ff" points="77.92,-52.45 86.04,-59.26 83.93,-48.87 77.92,-52.45"/>
</a>
</g>
</g>
<!-- Node3&#45;&gt;Node5 -->
<g id="edge4_Node000003_Node000005" class="edge">
<title>Node3&#45;&gt;Node5</title>
<g id="a_edge4_Node000003_Node000005"><a xlink:title=" ">
<path fill="none" stroke="#63b8ff" d="M114.14,-54.25C129.98,-43.28 150.82,-28.85 164.09,-19.65"/>
<polygon fill="#63b8ff" stroke="#63b8ff" points="112.51,-51.13 106.28,-59.7 116.49,-56.88 112.51,-51.13"/>
</a>
</g>
</g>
</g>
</svg>
