<?xml version="1.0" encoding="UTF-8" standalone="no"?>
<!DOCTYPE svg PUBLIC "-//W3C//DTD SVG 1.1//EN"
 "http://www.w3.org/Graphics/SVG/1.1/DTD/svg11.dtd">
<!-- Generated by graphviz version 9.0.0 (20230911.1827)
 -->
<!-- Title: engine/core/layers/layer&#45;stack.hpp Pages: 1 -->
<!--zoomable 371 -->

<svg id="main" version="1.1" xmlns="http://www.w3.org/2000/svg" xmlns:xlink="http://www.w3.org/1999/xlink" xml:space="preserve" onload="init(evt)">
<style type="text/css"><![CDATA[
.node, .edge {opacity: 0.7;}
.node.selected, .edge.selected {opacity: 1;}
.edge:hover path { stroke: red; }
.edge:hover polygon { stroke: red; fill: red; }
]]></style>

<defs>
  <circle id="rim" cx="0" cy="0" r="7"/>
  <circle id="rim2" cx="0" cy="0" r="3.5"/>
  <g id="zoomPlus">
    <use xlink:href="#rim" fill="#404040"><set attributeName="fill" to="#808080" begin="zoomplus.mouseover" end="zoomplus.mouseout"/></use>
    <path d="M-4,0h8M0,-4v8" fill="none" stroke="white" stroke-width="1.5" pointer-events="none"/>
  </g>
  <g id="zoomMin">
    <use xlink:href="#rim" fill="#404040"><set attributeName="fill" to="#808080" begin="zoomminus.mouseover" end="zoomminus.mouseout"/></use>
    <path d="M-4,0h8" fill="none" stroke="white" stroke-width="1.5" pointer-events="none"/>
  </g>
  <g id="arrowUp" transform="translate(30 24)">
    <use xlink:href="#rim"/>
    <path pointer-events="none" fill="none" stroke="white" stroke-width="1.5" d="M0,-3.0v7 M-2.5,-0.5L0,-3.0L2.5,-0.5"/>
  </g>
  <g id="arrowRight" transform="rotate(90) translate(36 -43)">
    <use xlink:href="#rim"/>
    <path pointer-events="none" fill="none" stroke="white" stroke-width="1.5" d="M0,-3.0v7 M-2.5,-0.5L0,-3.0L2.5,-0.5"/>
  </g>
  <g id="arrowDown" transform="rotate(180) translate(-30 -48)">
    <use xlink:href="#rim"/>
    <path pointer-events="none" fill="none" stroke="white" stroke-width="1.5" d="M0,-3.0v7 M-2.5,-0.5L0,-3.0L2.5,-0.5"/>
  </g>
  <g id="arrowLeft" transform="rotate(270) translate(-36 17)">
    <use xlink:href="#rim"/>
    <path pointer-events="none" fill="none" stroke="white" stroke-width="1.5" d="M0,-3.0v7 M-2.5,-0.5L0,-3.0L2.5,-0.5"/>
  </g>
  <g id="resetDef">
    <use xlink:href="#rim2" fill="#404040"><set attributeName="fill" to="#808080" begin="reset.mouseover" end="reset.mouseout"/></use>
  </g>
</defs>
<script type="application/ecmascript">
var viewWidth = 2055;
var viewHeight = 371;
var sectionId = 'dynsection-1';
</script>
<script type="application/ecmascript" xlink:href="../../svg.min.js"/>
<svg id="graph" class="graph">
<g id="viewport">
<title>engine/core/layers/layer&#45;stack.hpp</title>
<!-- Node1 -->
<g id="Node000001" class="node">
<title>Node1</title>
<g id="a_Node000001"><a xlink:title=" ">
<polygon fill="#999999" stroke="#666666" points="1256.25,-363 1161.5,-363 1161.5,-332.5 1256.25,-332.5 1256.25,-363"/>
<text text-anchor="start" x="1169.5" y="-349.5" font-family="Helvetica,sans-Serif" font-size="10.00">engine/core/layers</text>
<text text-anchor="middle" x="1208.88" y="-338.25" font-family="Helvetica,sans-Serif" font-size="10.00">/layer&#45;stack.hpp</text>
</a>
</g>
</g>
<!-- Node2 -->
<g id="Node000002" class="node">
<title>Node2</title>
<g id="a_Node000002"><a xlink:href="../../d4/da0/layer-stack-threadsafe_8hpp.html" target="_top" xlink:title=" ">
<polygon fill="white" stroke="#666666" points="1030.38,-296.5 897.38,-296.5 897.38,-266 1030.38,-266 1030.38,-296.5"/>
<text text-anchor="start" x="905.38" y="-283" font-family="Helvetica,sans-Serif" font-size="10.00">engine/core/layers</text>
<text text-anchor="middle" x="963.88" y="-271.75" font-family="Helvetica,sans-Serif" font-size="10.00">/layer&#45;stack&#45;threadsafe.hpp</text>
</a>
</g>
</g>
<!-- Node1&#45;&gt;Node2 -->
<g id="edge1_Node000001_Node000002" class="edge">
<title>Node1&#45;&gt;Node2</title>
<g id="a_edge1_Node000001_Node000002"><a xlink:title=" ">
<path fill="none" stroke="#63b8ff" d="M1149.98,-331.25C1110.43,-320.83 1058.63,-307.19 1019.72,-296.95"/>
<polygon fill="#63b8ff" stroke="#63b8ff" points="1149.03,-334.61 1159.59,-333.78 1150.81,-327.84 1149.03,-334.61"/>
</a>
</g>
</g>
<!-- Node24 -->
<g id="Node000024" class="node">
<title>Node24</title>
<g id="a_Node000024"><a xlink:href="../../d4/d93/layer-stack_8cpp.html" target="_top" xlink:title=" ">
<polygon fill="white" stroke="#666666" points="1143.25,-296.5 1048.5,-296.5 1048.5,-266 1143.25,-266 1143.25,-296.5"/>
<text text-anchor="start" x="1056.5" y="-283" font-family="Helvetica,sans-Serif" font-size="10.00">engine/core/layers</text>
<text text-anchor="middle" x="1095.88" y="-271.75" font-family="Helvetica,sans-Serif" font-size="10.00">/layer&#45;stack.cpp</text>
</a>
</g>
</g>
<!-- Node1&#45;&gt;Node24 -->
<g id="edge28_Node000001_Node000024" class="edge">
<title>Node1&#45;&gt;Node24</title>
<g id="a_edge28_Node000001_Node000024"><a xlink:title=" ">
<path fill="none" stroke="#63b8ff" d="M1173.67,-326.66C1156.76,-317 1136.85,-305.64 1121.41,-296.83"/>
<polygon fill="#63b8ff" stroke="#63b8ff" points="1171.5,-329.45 1181.92,-331.36 1174.97,-323.37 1171.5,-329.45"/>
</a>
</g>
</g>
<!-- Node25 -->
<g id="Node000025" class="node">
<title>Node25</title>
<g id="a_Node000025"><a xlink:href="../../d1/ddb/layer-stack_8inl.html" target="_top" xlink:title=" ">
<polygon fill="white" stroke="#666666" points="1256.25,-296.5 1161.5,-296.5 1161.5,-266 1256.25,-266 1256.25,-296.5"/>
<text text-anchor="start" x="1169.5" y="-283" font-family="Helvetica,sans-Serif" font-size="10.00">engine/core/layers</text>
<text text-anchor="middle" x="1208.88" y="-271.75" font-family="Helvetica,sans-Serif" font-size="10.00">/layer&#45;stack.inl</text>
</a>
</g>
</g>
<!-- Node1&#45;&gt;Node25 -->
<g id="edge29_Node000001_Node000025" class="edge">
<title>Node1&#45;&gt;Node25</title>
<g id="a_edge29_Node000001_Node000025"><a xlink:title=" ">
<path fill="none" stroke="#63b8ff" d="M1202.24,-320.81C1201.94,-312.64 1202.23,-303.91 1203.12,-296.83"/>
<polygon fill="#63b8ff" stroke="#63b8ff" points="1198.74,-320.9 1203,-330.6 1205.72,-320.37 1198.74,-320.9"/>
</a>
</g>
</g>
<!-- Node26 -->
<g id="Node000026" class="node">
<title>Node26</title>
<g id="a_Node000026"><a xlink:href="../../d9/d06/render-pipeline_8hpp.html" target="_top" xlink:title=" ">
<polygon fill="white" stroke="#666666" points="1373.88,-296.5 1273.88,-296.5 1273.88,-266 1373.88,-266 1373.88,-296.5"/>
<text text-anchor="start" x="1281.88" y="-283" font-family="Helvetica,sans-Serif" font-size="10.00">engine/core/layers</text>
<text text-anchor="middle" x="1323.88" y="-271.75" font-family="Helvetica,sans-Serif" font-size="10.00">/render&#45;pipeline.hpp</text>
</a>
</g>
</g>
<!-- Node1&#45;&gt;Node26 -->
<g id="edge31_Node000001_Node000026" class="edge">
<title>Node1&#45;&gt;Node26</title>
<g id="a_edge31_Node000001_Node000026"><a xlink:title=" ">
<path fill="none" stroke="#63b8ff" d="M1244.7,-326.66C1261.92,-317 1282.17,-305.64 1297.88,-296.83"/>
<polygon fill="#63b8ff" stroke="#63b8ff" points="1243.3,-323.43 1236.29,-331.37 1246.72,-329.53 1243.3,-323.43"/>
</a>
</g>
</g>
<!-- Node28 -->
<g id="Node000028" class="node">
<title>Node28</title>
<g id="a_Node000028"><a xlink:href="../../d2/d42/post-processing_8hpp.html" target="_top" xlink:title=" ">
<polygon fill="white" stroke="#666666" points="1667.88,-296.5 1537.88,-296.5 1537.88,-266 1667.88,-266 1667.88,-296.5"/>
<text text-anchor="start" x="1545.88" y="-283" font-family="Helvetica,sans-Serif" font-size="10.00">engine/subsystems/render</text>
<text text-anchor="middle" x="1602.88" y="-271.75" font-family="Helvetica,sans-Serif" font-size="10.00">/post&#45;processing.hpp</text>
</a>
</g>
</g>
<!-- Node1&#45;&gt;Node28 -->
<g id="edge37_Node000001_Node000028" class="edge">
<title>Node1&#45;&gt;Node28</title>
<g id="a_edge37_Node000001_Node000028"><a xlink:title=" ">
<path fill="none" stroke="#63b8ff" d="M1267.56,-337.14C1339.84,-325.31 1462.27,-305.27 1537.49,-292.95"/>
<polygon fill="#63b8ff" stroke="#63b8ff" points="1267.2,-333.66 1257.89,-338.73 1268.33,-340.56 1267.2,-333.66"/>
</a>
</g>
</g>
<!-- Node3 -->
<g id="Node000003" class="node">
<title>Node3</title>
<g id="a_Node000003"><a xlink:href="../../d4/d87/layers_8hpp.html" target="_top" xlink:title=" ">
<polygon fill="white" stroke="#666666" points="1158.25,-224.38 1045.5,-224.38 1045.5,-205.12 1158.25,-205.12 1158.25,-224.38"/>
<text text-anchor="middle" x="1101.88" y="-210.88" font-family="Helvetica,sans-Serif" font-size="10.00">engine/core/layers.hpp</text>
</a>
</g>
</g>
<!-- Node2&#45;&gt;Node3 -->
<g id="edge2_Node000002_Node000003" class="edge">
<title>Node2&#45;&gt;Node3</title>
<g id="a_edge2_Node000002_Node000003"><a xlink:title=" ">
<path fill="none" stroke="#63b8ff" d="M1005.39,-260.85C1031.02,-248.87 1062.7,-234.06 1082.6,-224.76"/>
<polygon fill="#63b8ff" stroke="#63b8ff" points="1004.14,-257.57 996.56,-264.97 1007.1,-263.91 1004.14,-257.57"/>
</a>
</g>
</g>
<!-- Node22 -->
<g id="Node000022" class="node">
<title>Node22</title>
<g id="a_Node000022"><a xlink:href="../../d8/df2/layer-stack-threadsafe_8cpp.html" target="_top" xlink:title=" ">
<polygon fill="white" stroke="#666666" points="882.38,-230 749.38,-230 749.38,-199.5 882.38,-199.5 882.38,-230"/>
<text text-anchor="start" x="757.38" y="-216.5" font-family="Helvetica,sans-Serif" font-size="10.00">engine/core/layers</text>
<text text-anchor="middle" x="815.88" y="-205.25" font-family="Helvetica,sans-Serif" font-size="10.00">/layer&#45;stack&#45;threadsafe.cpp</text>
</a>
</g>
</g>
<!-- Node2&#45;&gt;Node22 -->
<g id="edge25_Node000002_Node000022" class="edge">
<title>Node2&#45;&gt;Node22</title>
<g id="a_edge25_Node000002_Node000022"><a xlink:title=" ">
<path fill="none" stroke="#63b8ff" d="M919.97,-261.12C897.45,-251.3 870.44,-239.53 849.58,-230.44"/>
<polygon fill="#63b8ff" stroke="#63b8ff" points="918.34,-264.22 928.9,-265.01 921.14,-257.81 918.34,-264.22"/>
</a>
</g>
</g>
<!-- Node23 -->
<g id="Node000023" class="node">
<title>Node23</title>
<g id="a_Node000023"><a xlink:href="../../d9/de3/layer-stack-threadsafe_8inl.html" target="_top" xlink:title=" ">
<polygon fill="white" stroke="#666666" points="1027.38,-230 900.38,-230 900.38,-199.5 1027.38,-199.5 1027.38,-230"/>
<text text-anchor="start" x="908.38" y="-216.5" font-family="Helvetica,sans-Serif" font-size="10.00">engine/core/layers</text>
<text text-anchor="middle" x="963.88" y="-205.25" font-family="Helvetica,sans-Serif" font-size="10.00">/layer&#45;stack&#45;threadsafe.inl</text>
</a>
</g>
</g>
<!-- Node2&#45;&gt;Node23 -->
<g id="edge26_Node000002_Node000023" class="edge">
<title>Node2&#45;&gt;Node23</title>
<g id="a_edge26_Node000002_Node000023"><a xlink:title=" ">
<path fill="none" stroke="#63b8ff" d="M957.24,-254.31C956.94,-246.14 957.23,-237.41 958.12,-230.33"/>
<polygon fill="#63b8ff" stroke="#63b8ff" points="953.74,-254.4 958,-264.1 960.72,-253.87 953.74,-254.4"/>
</a>
</g>
</g>
<!-- Node4 -->
<g id="Node000004" class="node">
<title>Node4</title>
<g id="a_Node000004"><a xlink:href="../../de/d46/engine_8hpp.html" target="_top" xlink:title=" ">
<polygon fill="white" stroke="#666666" points="1139.75,-157.88 1024,-157.88 1024,-138.62 1139.75,-138.62 1139.75,-157.88"/>
<text text-anchor="middle" x="1081.88" y="-144.38" font-family="Helvetica,sans-Serif" font-size="10.00">engine/core/engine.hpp</text>
</a>
</g>
</g>
<!-- Node3&#45;&gt;Node4 -->
<g id="edge3_Node000003_Node000004" class="edge">
<title>Node3&#45;&gt;Node4</title>
<g id="a_edge3_Node000003_Node000004"><a xlink:title=" ">
<path fill="none" stroke="#63b8ff" d="M1095.76,-194.02C1092.05,-182.05 1087.49,-167.35 1084.63,-158.14"/>
<polygon fill="#63b8ff" stroke="#63b8ff" points="1092.34,-194.82 1098.65,-203.34 1099.03,-192.75 1092.34,-194.82"/>
</a>
</g>
</g>
<!-- Node5 -->
<g id="Node000005" class="node">
<title>Node5</title>
<g id="a_Node000005"><a xlink:href="../../d0/d86/camera-movement_8hpp.html" target="_top" xlink:title=" ">
<polygon fill="white" stroke="#666666" points="1606.62,-85.75 1451.12,-85.75 1451.12,-66.5 1606.62,-66.5 1606.62,-85.75"/>
<text text-anchor="middle" x="1528.88" y="-72.25" font-family="Helvetica,sans-Serif" font-size="10.00">d3d_test/camera&#45;movement.hpp</text>
</a>
</g>
</g>
<!-- Node4&#45;&gt;Node5 -->
<g id="edge4_Node000004_Node000005" class="edge">
<title>Node4&#45;&gt;Node5</title>
<g id="a_edge4_Node000004_Node000005"><a xlink:title=" ">
<path fill="none" stroke="#63b8ff" d="M1151.39,-139.34C1224.1,-130.66 1341.42,-115.45 1441.88,-97 1458.48,-93.95 1476.72,-89.89 1492.19,-86.24"/>
<polygon fill="#63b8ff" stroke="#63b8ff" points="1151.13,-135.85 1141.61,-140.5 1151.95,-142.8 1151.13,-135.85"/>
</a>
</g>
</g>
<!-- Node8 -->
<g id="Node000008" class="node">
<title>Node8</title>
<g id="a_Node000008"><a xlink:href="../../dc/dfb/controller_8hpp.html" target="_top" xlink:title=" ">
<polygon fill="white" stroke="#666666" points="1926,-85.75 1811.75,-85.75 1811.75,-66.5 1926,-66.5 1926,-85.75"/>
<text text-anchor="middle" x="1868.88" y="-72.25" font-family="Helvetica,sans-Serif" font-size="10.00">d3d_test/controller.hpp</text>
</a>
</g>
</g>
<!-- Node4&#45;&gt;Node8 -->
<g id="edge7_Node000004_Node000008" class="edge">
<title>Node4&#45;&gt;Node8</title>
<g id="a_edge7_Node000004_Node000008"><a xlink:title=" ">
<path fill="none" stroke="#63b8ff" d="M1151.05,-147.42C1280.08,-146.65 1565.79,-139.72 1801.88,-97 1815.72,-94.49 1830.78,-90.18 1843.1,-86.21"/>
<polygon fill="#63b8ff" stroke="#63b8ff" points="1151.3,-143.92 1141.32,-147.47 1151.33,-150.92 1151.3,-143.92"/>
</a>
</g>
</g>
<!-- Node9 -->
<g id="Node000009" class="node">
<title>Node9</title>
<g id="a_Node000009"><a xlink:href="../../d9/d0f/main_8cc.html" target="_top" xlink:title=" ">
<polygon fill="white" stroke="#666666" points="1956,-19.25 1865.75,-19.25 1865.75,0 1956,0 1956,-19.25"/>
<text text-anchor="middle" x="1910.88" y="-5.75" font-family="Helvetica,sans-Serif" font-size="10.00">d3d_test/main.cc</text>
</a>
</g>
</g>
<!-- Node4&#45;&gt;Node9 -->
<g id="edge10_Node000004_Node000009" class="edge">
<title>Node4&#45;&gt;Node9</title>
<g id="a_edge10_Node000004_Node000009"><a xlink:title=" ">
<path fill="none" stroke="#63b8ff" d="M1151.26,-146.87C1276.81,-145.19 1536.1,-136.83 1615.88,-97 1638.32,-85.79 1631.88,-67.33 1653.88,-55.25 1721.16,-18.3 1812.01,-10.72 1865.72,-9.81"/>
<polygon fill="#63b8ff" stroke="#63b8ff" points="1151.37,-143.37 1141.41,-146.99 1151.45,-150.37 1151.37,-143.37"/>
</a>
</g>
</g>
<!-- Node10 -->
<g id="Node000010" class="node">
<title>Node10</title>
<g id="a_Node000010"><a xlink:href="../../da/df5/object-editor_8hpp.html" target="_top" xlink:title=" ">
<polygon fill="white" stroke="#666666" points="201.75,-85.75 74,-85.75 74,-66.5 201.75,-66.5 201.75,-85.75"/>
<text text-anchor="middle" x="137.88" y="-72.25" font-family="Helvetica,sans-Serif" font-size="10.00">d3d_test/object&#45;editor.hpp</text>
</a>
</g>
</g>
<!-- Node4&#45;&gt;Node10 -->
<g id="edge11_Node000004_Node000010" class="edge">
<title>Node4&#45;&gt;Node10</title>
<g id="a_edge11_Node000004_Node000010"><a xlink:title=" ">
<path fill="none" stroke="#63b8ff" d="M1012.42,-148.12C864.15,-148.92 506.09,-145.16 210.88,-97 195.71,-94.53 179.16,-90.16 165.65,-86.15"/>
<polygon fill="#63b8ff" stroke="#63b8ff" points="1012.09,-151.63 1022.06,-148.06 1012.04,-144.63 1012.09,-151.63"/>
</a>
</g>
</g>
<!-- Node13 -->
<g id="Node000013" class="node">
<title>Node13</title>
<g id="a_Node000013"><a xlink:href="../../d9/d55/scene-viewer_8hpp.html" target="_top" xlink:title=" ">
<polygon fill="white" stroke="#666666" points="1433,-85.75 1300.75,-85.75 1300.75,-66.5 1433,-66.5 1433,-85.75"/>
<text text-anchor="middle" x="1366.88" y="-72.25" font-family="Helvetica,sans-Serif" font-size="10.00">d3d_test/scene&#45;viewer.hpp</text>
</a>
</g>
</g>
<!-- Node4&#45;&gt;Node13 -->
<g id="edge15_Node000004_Node000013" class="edge">
<title>Node4&#45;&gt;Node13</title>
<g id="a_edge15_Node000004_Node000013"><a xlink:title=" ">
<path fill="none" stroke="#63b8ff" d="M1132.22,-135.56C1174.82,-125.59 1237.43,-110.72 1291.88,-97 1305.46,-93.58 1320.38,-89.65 1333.32,-86.2"/>
<polygon fill="#63b8ff" stroke="#63b8ff" points="1131.45,-132.15 1122.51,-137.83 1133.04,-138.97 1131.45,-132.15"/>
</a>
</g>
</g>
<!-- Node14 -->
<g id="Node000014" class="node">
<title>Node14</title>
<g id="a_Node000014"><a xlink:href="../../da/d5c/engine_8cpp.html" target="_top" xlink:title=" ">
<polygon fill="white" stroke="#666666" points="335.75,-85.75 220,-85.75 220,-66.5 335.75,-66.5 335.75,-85.75"/>
<text text-anchor="middle" x="277.88" y="-72.25" font-family="Helvetica,sans-Serif" font-size="10.00">engine/core/engine.cpp</text>
</a>
</g>
</g>
<!-- Node4&#45;&gt;Node14 -->
<g id="edge17_Node000004_Node000014" class="edge">
<title>Node4&#45;&gt;Node14</title>
<g id="a_edge17_Node000004_Node000014"><a xlink:title=" ">
<path fill="none" stroke="#63b8ff" d="M1012.45,-147.69C880.9,-147.38 586.7,-141.25 343.88,-97 330.22,-94.51 315.39,-90.2 303.25,-86.22"/>
<polygon fill="#63b8ff" stroke="#63b8ff" points="1012.4,-151.19 1022.4,-147.7 1012.41,-144.19 1012.4,-151.19"/>
</a>
</g>
</g>
<!-- Node15 -->
<g id="Node000015" class="node">
<title>Node15</title>
<g id="a_Node000015"><a xlink:href="../../d1/da2/deferred-hdr-render-pipeline_8cpp.html" target="_top" xlink:title=" ">
<polygon fill="white" stroke="#666666" points="1793.25,-91.38 1662.5,-91.38 1662.5,-60.88 1793.25,-60.88 1793.25,-91.38"/>
<text text-anchor="start" x="1670.5" y="-77.88" font-family="Helvetica,sans-Serif" font-size="10.00">engine/direct3d11/deferred</text>
<text text-anchor="middle" x="1727.88" y="-66.62" font-family="Helvetica,sans-Serif" font-size="10.00">&#45;hdr&#45;render&#45;pipeline.cpp</text>
</a>
</g>
</g>
<!-- Node4&#45;&gt;Node15 -->
<g id="edge18_Node000004_Node000015" class="edge">
<title>Node4&#45;&gt;Node15</title>
<g id="a_edge18_Node000004_Node000015"><a xlink:title=" ">
<path fill="none" stroke="#63b8ff" d="M1151.53,-144.62C1258.94,-139.78 1471.19,-127.03 1648.88,-97 1657.1,-95.61 1665.73,-93.8 1674.15,-91.85"/>
<polygon fill="#63b8ff" stroke="#63b8ff" points="1151.56,-141.12 1141.73,-145.06 1151.87,-148.11 1151.56,-141.12"/>
</a>
</g>
</g>
<!-- Node16 -->
<g id="Node000016" class="node">
<title>Node16</title>
<g id="a_Node000016"><a xlink:href="../../d8/d30/decal-render-system_8cpp.html" target="_top" xlink:title=" ">
<polygon fill="white" stroke="#666666" points="504.38,-91.38 353.38,-91.38 353.38,-60.88 504.38,-60.88 504.38,-91.38"/>
<text text-anchor="start" x="361.38" y="-77.88" font-family="Helvetica,sans-Serif" font-size="10.00">engine/subsystems/render</text>
<text text-anchor="middle" x="428.88" y="-66.62" font-family="Helvetica,sans-Serif" font-size="10.00">/detail/decal&#45;render&#45;system.cpp</text>
</a>
</g>
</g>
<!-- Node4&#45;&gt;Node16 -->
<g id="edge19_Node000004_Node000016" class="edge">
<title>Node4&#45;&gt;Node16</title>
<g id="a_edge19_Node000004_Node000016"><a xlink:title=" ">
<path fill="none" stroke="#63b8ff" d="M1012.58,-144.28C905.2,-138.97 692.36,-125.61 513.88,-97 505.05,-95.58 495.77,-93.77 486.73,-91.81"/>
<polygon fill="#63b8ff" stroke="#63b8ff" points="1012.22,-147.77 1022.38,-144.76 1012.56,-140.78 1012.22,-147.77"/>
</a>
</g>
</g>
<!-- Node17 -->
<g id="Node000017" class="node">
<title>Node17</title>
<g id="a_Node000017"><a xlink:href="../../d1/d58/dissolution-render-system_8cpp.html" target="_top" xlink:title=" ">
<polygon fill="white" stroke="#666666" points="652.88,-97 522.88,-97 522.88,-55.25 652.88,-55.25 652.88,-97"/>
<text text-anchor="start" x="530.88" y="-83.5" font-family="Helvetica,sans-Serif" font-size="10.00">engine/subsystems/render</text>
<text text-anchor="start" x="530.88" y="-72.25" font-family="Helvetica,sans-Serif" font-size="10.00">/detail/dissolution&#45;render</text>
<text text-anchor="middle" x="587.88" y="-61" font-family="Helvetica,sans-Serif" font-size="10.00">&#45;system.cpp</text>
</a>
</g>
</g>
<!-- Node4&#45;&gt;Node17 -->
<g id="edge20_Node000004_Node000017" class="edge">
<title>Node4&#45;&gt;Node17</title>
<g id="a_edge20_Node000004_Node000017"><a xlink:title=" ">
<path fill="none" stroke="#63b8ff" d="M1012.33,-142C928.64,-134.98 784.11,-120.6 661.88,-97 659,-96.45 656.08,-95.84 653.13,-95.19"/>
<polygon fill="#63b8ff" stroke="#63b8ff" points="1011.96,-145.48 1022.21,-142.82 1012.54,-138.51 1011.96,-145.48"/>
</a>
</g>
</g>
<!-- Node18 -->
<g id="Node000018" class="node">
<title>Node18</title>
<g id="a_Node000018"><a xlink:href="../../d2/d11/emissive-particle-render-system_8cpp.html" target="_top" xlink:title=" ">
<polygon fill="white" stroke="#666666" points="800.88,-97 670.88,-97 670.88,-55.25 800.88,-55.25 800.88,-97"/>
<text text-anchor="start" x="678.88" y="-83.5" font-family="Helvetica,sans-Serif" font-size="10.00">engine/subsystems/render</text>
<text text-anchor="start" x="678.88" y="-72.25" font-family="Helvetica,sans-Serif" font-size="10.00">/detail/emissive&#45;particle</text>
<text text-anchor="middle" x="735.88" y="-61" font-family="Helvetica,sans-Serif" font-size="10.00">&#45;render&#45;system.cpp</text>
</a>
</g>
</g>
<!-- Node4&#45;&gt;Node18 -->
<g id="edge21_Node000004_Node000018" class="edge">
<title>Node4&#45;&gt;Node18</title>
<g id="a_edge21_Node000004_Node000018"><a xlink:title=" ">
<path fill="none" stroke="#63b8ff" d="M1014.3,-136.31C959.07,-126.99 879.11,-112.67 809.88,-97 807.02,-96.35 804.11,-95.67 801.17,-94.97"/>
<polygon fill="#63b8ff" stroke="#63b8ff" points="1013.41,-139.71 1023.85,-137.91 1014.57,-132.8 1013.41,-139.71"/>
</a>
</g>
</g>
<!-- Node19 -->
<g id="Node000019" class="node">
<title>Node19</title>
<g id="a_Node000019"><a xlink:href="../../df/d58/grass-render-system_8cpp.html" target="_top" xlink:title=" ">
<polygon fill="white" stroke="#666666" points="970.75,-91.38 819,-91.38 819,-60.88 970.75,-60.88 970.75,-91.38"/>
<text text-anchor="start" x="827" y="-77.88" font-family="Helvetica,sans-Serif" font-size="10.00">engine/subsystems/render</text>
<text text-anchor="middle" x="894.88" y="-66.62" font-family="Helvetica,sans-Serif" font-size="10.00">/detail/grass&#45;render&#45;system.cpp</text>
</a>
</g>
</g>
<!-- Node4&#45;&gt;Node19 -->
<g id="edge22_Node000004_Node000019" class="edge">
<title>Node4&#45;&gt;Node19</title>
<g id="a_edge22_Node000004_Node000019"><a xlink:title=" ">
<path fill="none" stroke="#63b8ff" d="M1047.17,-134.24C1015.13,-122.22 967.59,-104.39 934.17,-91.86"/>
<polygon fill="#63b8ff" stroke="#63b8ff" points="1045.8,-137.46 1056.39,-137.69 1048.26,-130.91 1045.8,-137.46"/>
</a>
</g>
</g>
<!-- Node20 -->
<g id="Node000020" class="node">
<title>Node20</title>
<g id="a_Node000020"><a xlink:href="../../d8/d9c/light-render-system_8cpp.html" target="_top" xlink:title=" ">
<polygon fill="white" stroke="#666666" points="1134.75,-91.38 989,-91.38 989,-60.88 1134.75,-60.88 1134.75,-91.38"/>
<text text-anchor="start" x="997" y="-77.88" font-family="Helvetica,sans-Serif" font-size="10.00">engine/subsystems/render</text>
<text text-anchor="middle" x="1061.88" y="-66.62" font-family="Helvetica,sans-Serif" font-size="10.00">/detail/light&#45;render&#45;system.cpp</text>
</a>
</g>
</g>
<!-- Node4&#45;&gt;Node20 -->
<g id="edge23_Node000004_Node000020" class="edge">
<title>Node4&#45;&gt;Node20</title>
<g id="a_edge23_Node000004_Node000020"><a xlink:title=" ">
<path fill="none" stroke="#63b8ff" d="M1076.22,-127.41C1072.99,-116.08 1069.01,-102.12 1066.06,-91.79"/>
<polygon fill="#63b8ff" stroke="#63b8ff" points="1072.82,-128.26 1078.93,-136.91 1079.55,-126.34 1072.82,-128.26"/>
</a>
</g>
</g>
<!-- Node21 -->
<g id="Node000021" class="node">
<title>Node21</title>
<g id="a_Node000021"><a xlink:href="../../d3/dfe/particle-render-system_8cpp.html" target="_top" xlink:title=" ">
<polygon fill="white" stroke="#666666" points="1282.88,-97 1152.88,-97 1152.88,-55.25 1282.88,-55.25 1282.88,-97"/>
<text text-anchor="start" x="1160.88" y="-83.5" font-family="Helvetica,sans-Serif" font-size="10.00">engine/subsystems/render</text>
<text text-anchor="start" x="1160.88" y="-72.25" font-family="Helvetica,sans-Serif" font-size="10.00">/detail/particle&#45;render</text>
<text text-anchor="middle" x="1217.88" y="-61" font-family="Helvetica,sans-Serif" font-size="10.00">&#45;system.cpp</text>
</a>
</g>
</g>
<!-- Node4&#45;&gt;Node21 -->
<g id="edge24_Node000004_Node000021" class="edge">
<title>Node4&#45;&gt;Node21</title>
<g id="a_edge24_Node000004_Node000021"><a xlink:title=" ">
<path fill="none" stroke="#63b8ff" d="M1109.58,-132.96C1129.41,-122.74 1156.39,-108.83 1178.46,-97.45"/>
<polygon fill="#63b8ff" stroke="#63b8ff" points="1108.01,-129.84 1100.72,-137.53 1111.21,-136.06 1108.01,-129.84"/>
</a>
</g>
</g>
<!-- Node6 -->
<g id="Node000006" class="node">
<title>Node6</title>
<g id="a_Node000006"><a xlink:href="../../d5/dbb/camera-movement_8cpp.html" target="_top" xlink:title=" ">
<polygon fill="white" stroke="#666666" points="1606.62,-19.25 1451.12,-19.25 1451.12,0 1606.62,0 1606.62,-19.25"/>
<text text-anchor="middle" x="1528.88" y="-5.75" font-family="Helvetica,sans-Serif" font-size="10.00">d3d_test/camera&#45;movement.cpp</text>
</a>
</g>
</g>
<!-- Node5&#45;&gt;Node6 -->
<g id="edge5_Node000005_Node000006" class="edge">
<title>Node5&#45;&gt;Node6</title>
<g id="a_edge5_Node000005_Node000006"><a xlink:title=" ">
<path fill="none" stroke="#63b8ff" d="M1528.88,-54.65C1528.88,-42.82 1528.88,-28.54 1528.88,-19.52"/>
<polygon fill="#63b8ff" stroke="#63b8ff" points="1525.38,-54.64 1528.88,-64.64 1532.38,-54.64 1525.38,-54.64"/>
</a>
</g>
</g>
<!-- Node7 -->
<g id="Node000007" class="node">
<title>Node7</title>
<g id="a_Node000007"><a xlink:href="../../d1/d47/controller_8cpp.html" target="_top" xlink:title=" ">
<polygon fill="white" stroke="#666666" points="1428,-19.25 1313.75,-19.25 1313.75,0 1428,0 1428,-19.25"/>
<text text-anchor="middle" x="1370.88" y="-5.75" font-family="Helvetica,sans-Serif" font-size="10.00">d3d_test/controller.cpp</text>
</a>
</g>
</g>
<!-- Node5&#45;&gt;Node7 -->
<g id="edge6_Node000005_Node000007" class="edge">
<title>Node5&#45;&gt;Node7</title>
<g id="a_edge6_Node000005_Node000007"><a xlink:title=" ">
<path fill="none" stroke="#63b8ff" d="M1495.92,-61.67C1465.07,-49.08 1419.83,-30.61 1393.06,-19.68"/>
<polygon fill="#63b8ff" stroke="#63b8ff" points="1494.59,-64.91 1505.17,-65.45 1497.24,-58.43 1494.59,-64.91"/>
</a>
</g>
</g>
<!-- Node8&#45;&gt;Node7 -->
<g id="edge8_Node000008_Node000007" class="edge">
<title>Node8&#45;&gt;Node7</title>
<g id="a_edge8_Node000008_Node000007"><a xlink:title=" ">
<path fill="none" stroke="#63b8ff" d="M1831.6,-62.71C1822,-59.89 1811.63,-57.17 1801.88,-55.25 1644.09,-24.25 1601.7,-36.95 1441.88,-19.25 1437.43,-18.76 1432.83,-18.23 1428.21,-17.7"/>
<polygon fill="#63b8ff" stroke="#63b8ff" points="1830.39,-66 1840.98,-65.58 1832.44,-59.31 1830.39,-66"/>
</a>
</g>
</g>
<!-- Node8&#45;&gt;Node9 -->
<g id="edge9_Node000008_Node000009" class="edge">
<title>Node8&#45;&gt;Node9</title>
<g id="a_edge9_Node000008_Node000009"><a xlink:title=" ">
<path fill="none" stroke="#63b8ff" d="M1881,-56.51C1888.91,-44.35 1898.9,-29.02 1905.08,-19.52"/>
<polygon fill="#63b8ff" stroke="#63b8ff" points="1878.06,-54.6 1875.54,-64.89 1883.93,-58.42 1878.06,-54.6"/>
</a>
</g>
</g>
<!-- Node10&#45;&gt;Node7 -->
<g id="edge12_Node000010_Node000007" class="edge">
<title>Node10&#45;&gt;Node7</title>
<g id="a_edge12_Node000010_Node000007"><a xlink:title=" ">
<path fill="none" stroke="#63b8ff" d="M176.33,-62.9C187.37,-59.87 199.5,-56.99 210.88,-55.25 427.02,-22.11 1110.22,-13.09 1313.36,-11.11"/>
<polygon fill="#63b8ff" stroke="#63b8ff" points="175.39,-59.53 166.74,-65.65 177.32,-66.26 175.39,-59.53"/>
</a>
</g>
</g>
<!-- Node11 -->
<g id="Node000011" class="node">
<title>Node11</title>
<g id="a_Node000011"><a xlink:href="../../d4/d94/object-editor_8cpp.html" target="_top" xlink:title=" ">
<polygon fill="white" stroke="#666666" points="127.75,-19.25 0,-19.25 0,0 127.75,0 127.75,-19.25"/>
<text text-anchor="middle" x="63.88" y="-5.75" font-family="Helvetica,sans-Serif" font-size="10.00">d3d_test/object&#45;editor.cpp</text>
</a>
</g>
</g>
<!-- Node10&#45;&gt;Node11 -->
<g id="edge13_Node000010_Node000011" class="edge">
<title>Node10&#45;&gt;Node11</title>
<g id="a_edge13_Node000010_Node000011"><a xlink:title=" ">
<path fill="none" stroke="#63b8ff" d="M119.01,-58.69C104.72,-46.23 85.64,-29.59 74.08,-19.52"/>
<polygon fill="#63b8ff" stroke="#63b8ff" points="116.61,-61.23 126.44,-65.16 121.21,-55.95 116.61,-61.23"/>
</a>
</g>
</g>
<!-- Node12 -->
<g id="Node000012" class="node">
<title>Node12</title>
<g id="a_Node000012"><a xlink:href="../../d0/d38/scene-viewer_8cpp.html" target="_top" xlink:title=" ">
<polygon fill="white" stroke="#666666" points="278,-19.25 145.75,-19.25 145.75,0 278,0 278,-19.25"/>
<text text-anchor="middle" x="211.88" y="-5.75" font-family="Helvetica,sans-Serif" font-size="10.00">d3d_test/scene&#45;viewer.cpp</text>
</a>
</g>
</g>
<!-- Node10&#45;&gt;Node12 -->
<g id="edge14_Node000010_Node000012" class="edge">
<title>Node10&#45;&gt;Node12</title>
<g id="a_edge14_Node000010_Node000012"><a xlink:title=" ">
<path fill="none" stroke="#63b8ff" d="M156.74,-58.69C171.03,-46.23 190.11,-29.59 201.67,-19.52"/>
<polygon fill="#63b8ff" stroke="#63b8ff" points="154.54,-55.95 149.31,-65.16 159.14,-61.23 154.54,-55.95"/>
</a>
</g>
</g>
<!-- Node13&#45;&gt;Node7 -->
<g id="edge16_Node000013_Node000007" class="edge">
<title>Node13&#45;&gt;Node7</title>
<g id="a_edge16_Node000013_Node000007"><a xlink:title=" ">
<path fill="none" stroke="#63b8ff" d="M1368.12,-55.02C1368.86,-43.12 1369.76,-28.63 1370.32,-19.52"/>
<polygon fill="#63b8ff" stroke="#63b8ff" points="1364.65,-54.45 1367.52,-64.65 1371.64,-54.88 1364.65,-54.45"/>
</a>
</g>
</g>
<!-- Node23&#45;&gt;Node2 -->
<g id="edge27_Node000023_Node000002" class="edge">
<title>Node23&#45;&gt;Node2</title>
<g id="a_edge27_Node000023_Node000002"><a xlink:title=" ">
<path fill="none" stroke="#63b8ff" d="M970.51,-241.63C970.81,-249.79 970.52,-258.52 969.64,-265.61"/>
<polygon fill="#63b8ff" stroke="#63b8ff" points="974.01,-241.54 969.75,-231.84 967.03,-242.08 974.01,-241.54"/>
</a>
</g>
</g>
<!-- Node25&#45;&gt;Node1 -->
<g id="edge30_Node000025_Node000001" class="edge">
<title>Node25&#45;&gt;Node1</title>
<g id="a_edge30_Node000025_Node000001"><a xlink:title=" ">
<path fill="none" stroke="#63b8ff" d="M1215.51,-308.13C1215.81,-316.29 1215.52,-325.02 1214.64,-332.11"/>
<polygon fill="#63b8ff" stroke="#63b8ff" points="1219.01,-308.04 1214.75,-298.34 1212.03,-308.58 1219.01,-308.04"/>
</a>
</g>
</g>
<!-- Node26&#45;&gt;Node3 -->
<g id="edge32_Node000026_Node000003" class="edge">
<title>Node26&#45;&gt;Node3</title>
<g id="a_edge32_Node000026_Node000003"><a xlink:title=" ">
<path fill="none" stroke="#63b8ff" d="M1262.56,-262.43C1220.59,-250.24 1166.68,-234.58 1133.21,-224.85"/>
<polygon fill="#63b8ff" stroke="#63b8ff" points="1261.47,-265.76 1272.05,-265.19 1263.42,-259.04 1261.47,-265.76"/>
</a>
</g>
</g>
<!-- Node27 -->
<g id="Node000027" class="node">
<title>Node27</title>
<g id="a_Node000027"><a xlink:href="../../db/df9/deferred-hdr-render-pipeline_8hpp.html" target="_top" xlink:title=" ">
<polygon fill="white" stroke="#666666" points="1802.25,-163.5 1671.5,-163.5 1671.5,-133 1802.25,-133 1802.25,-163.5"/>
<text text-anchor="start" x="1679.5" y="-150" font-family="Helvetica,sans-Serif" font-size="10.00">engine/direct3d11/deferred</text>
<text text-anchor="middle" x="1736.88" y="-138.75" font-family="Helvetica,sans-Serif" font-size="10.00">&#45;hdr&#45;render&#45;pipeline.hpp</text>
</a>
</g>
</g>
<!-- Node26&#45;&gt;Node27 -->
<g id="edge33_Node000026_Node000027" class="edge">
<title>Node26&#45;&gt;Node27</title>
<g id="a_edge33_Node000026_Node000027"><a xlink:title=" ">
<path fill="none" stroke="#63b8ff" d="M1330.34,-254.7C1336.39,-236.31 1347.34,-212.54 1365.88,-199.5 1413.79,-165.8 1578.16,-154.65 1671.23,-150.99"/>
<polygon fill="#63b8ff" stroke="#63b8ff" points="1327.04,-253.54 1327.55,-264.12 1333.75,-255.53 1327.04,-253.54"/>
</a>
</g>
</g>
<!-- Node27&#45;&gt;Node8 -->
<g id="edge34_Node000027_Node000008" class="edge">
<title>Node27&#45;&gt;Node8</title>
<g id="a_edge34_Node000027_Node000008"><a xlink:title=" ">
<path fill="none" stroke="#63b8ff" d="M1774.6,-127.21C1799.99,-113.72 1832.28,-96.57 1851.72,-86.24"/>
<polygon fill="#63b8ff" stroke="#63b8ff" points="1773.07,-124.06 1765.88,-131.84 1776.36,-130.24 1773.07,-124.06"/>
</a>
</g>
</g>
<!-- Node27&#45;&gt;Node9 -->
<g id="edge35_Node000027_Node000009" class="edge">
<title>Node27&#45;&gt;Node9</title>
<g id="a_edge35_Node000027_Node000009"><a xlink:title=" ">
<path fill="none" stroke="#63b8ff" d="M1813.67,-132.44C1865.96,-121.58 1927.07,-107.03 1934.88,-97 1953.22,-73.41 1930.55,-36.62 1918.07,-19.7"/>
<polygon fill="#63b8ff" stroke="#63b8ff" points="1813.24,-128.96 1804.15,-134.4 1814.65,-135.81 1813.24,-128.96"/>
</a>
</g>
</g>
<!-- Node27&#45;&gt;Node15 -->
<g id="edge36_Node000027_Node000015" class="edge">
<title>Node27&#45;&gt;Node15</title>
<g id="a_edge36_Node000027_Node000015"><a xlink:title=" ">
<path fill="none" stroke="#63b8ff" d="M1733.58,-121.6C1732.29,-111.51 1730.85,-100.28 1729.74,-91.64"/>
<polygon fill="#63b8ff" stroke="#63b8ff" points="1730.07,-121.75 1734.82,-131.22 1737.02,-120.85 1730.07,-121.75"/>
</a>
</g>
</g>
<!-- Node28&#45;&gt;Node27 -->
<g id="edge38_Node000028_Node000027" class="edge">
<title>Node28&#45;&gt;Node27</title>
<g id="a_edge38_Node000028_Node000027"><a xlink:title=" ">
<path fill="none" stroke="#63b8ff" d="M1526.33,-276.63C1445.54,-270.06 1335.66,-251.54 1380.88,-199.5 1417.72,-157.09 1578.75,-149.48 1671.12,-148.69"/>
<polygon fill="#63b8ff" stroke="#63b8ff" points="1525.77,-280.1 1536.01,-277.37 1526.3,-273.12 1525.77,-280.1"/>
</a>
</g>
</g>
<!-- Node29 -->
<g id="Node000029" class="node">
<title>Node29</title>
<g id="a_Node000029"><a xlink:href="../../de/d8e/deferred-resolve_8hpp.html" target="_top" xlink:title=" ">
<polygon fill="white" stroke="#666666" points="1919.25,-230 1806.5,-230 1806.5,-199.5 1919.25,-199.5 1919.25,-230"/>
<text text-anchor="start" x="1814.5" y="-216.5" font-family="Helvetica,sans-Serif" font-size="10.00">engine/render/deferred</text>
<text text-anchor="middle" x="1862.88" y="-205.25" font-family="Helvetica,sans-Serif" font-size="10.00">&#45;resolve.hpp</text>
</a>
</g>
</g>
<!-- Node28&#45;&gt;Node29 -->
<g id="edge39_Node000028_Node000029" class="edge">
<title>Node28&#45;&gt;Node29</title>
<g id="a_edge39_Node000028_Node000029"><a xlink:title=" ">
<path fill="none" stroke="#63b8ff" d="M1673.37,-262.76C1715.01,-252.43 1767.04,-239.52 1806.04,-229.85"/>
<polygon fill="#63b8ff" stroke="#63b8ff" points="1672.53,-259.36 1663.67,-265.17 1674.22,-266.16 1672.53,-259.36"/>
</a>
</g>
</g>
<!-- Node31 -->
<g id="Node000031" class="node">
<title>Node31</title>
<g id="a_Node000031"><a xlink:href="../../d2/deb/hdr-to-ldr-layer_8hpp.html" target="_top" xlink:title=" ">
<polygon fill="white" stroke="#666666" points="1788,-230 1685.75,-230 1685.75,-199.5 1788,-199.5 1788,-230"/>
<text text-anchor="start" x="1693.75" y="-216.5" font-family="Helvetica,sans-Serif" font-size="10.00">engine/render/hdr&#45;to</text>
<text text-anchor="middle" x="1736.88" y="-205.25" font-family="Helvetica,sans-Serif" font-size="10.00">&#45;ldr&#45;layer.hpp</text>
</a>
</g>
</g>
<!-- Node28&#45;&gt;Node31 -->
<g id="edge42_Node000028_Node000031" class="edge">
<title>Node28&#45;&gt;Node31</title>
<g id="a_edge42_Node000028_Node000031"><a xlink:title=" ">
<path fill="none" stroke="#63b8ff" d="M1643.5,-260.7C1663.8,-250.93 1687.94,-239.31 1706.59,-230.33"/>
<polygon fill="#63b8ff" stroke="#63b8ff" points="1642.14,-257.47 1634.65,-264.96 1645.17,-263.77 1642.14,-257.47"/>
</a>
</g>
</g>
<!-- Node32 -->
<g id="Node000032" class="node">
<title>Node32</title>
<g id="a_Node000032"><a xlink:href="../../da/d7b/present-swapchain_8hpp.html" target="_top" xlink:title=" ">
<polygon fill="white" stroke="#666666" points="2046.75,-230 1937,-230 1937,-199.5 2046.75,-199.5 2046.75,-230"/>
<text text-anchor="start" x="1945" y="-216.5" font-family="Helvetica,sans-Serif" font-size="10.00">engine/render/present</text>
<text text-anchor="middle" x="1991.88" y="-205.25" font-family="Helvetica,sans-Serif" font-size="10.00">&#45;swapchain.hpp</text>
</a>
</g>
</g>
<!-- Node28&#45;&gt;Node32 -->
<g id="edge44_Node000028_Node000032" class="edge">
<title>Node28&#45;&gt;Node32</title>
<g id="a_edge44_Node000028_Node000032"><a xlink:title=" ">
<path fill="none" stroke="#63b8ff" d="M1679.27,-269.88C1745.29,-260.58 1843.15,-245.97 1927.88,-230 1930.78,-229.45 1933.76,-228.87 1936.76,-228.26"/>
<polygon fill="#63b8ff" stroke="#63b8ff" points="1679.06,-266.38 1669.64,-271.23 1680.03,-273.31 1679.06,-266.38"/>
</a>
</g>
</g>
<!-- Node33 -->
<g id="Node000033" class="node">
<title>Node33</title>
<g id="a_Node000033"><a xlink:href="../../d1/d3c/post-processing_8cpp.html" target="_top" xlink:title=" ">
<polygon fill="white" stroke="#666666" points="1519.88,-230 1389.88,-230 1389.88,-199.5 1519.88,-199.5 1519.88,-230"/>
<text text-anchor="start" x="1397.88" y="-216.5" font-family="Helvetica,sans-Serif" font-size="10.00">engine/subsystems/render</text>
<text text-anchor="middle" x="1454.88" y="-205.25" font-family="Helvetica,sans-Serif" font-size="10.00">/post&#45;processing.cpp</text>
</a>
</g>
</g>
<!-- Node28&#45;&gt;Node33 -->
<g id="edge47_Node000028_Node000033" class="edge">
<title>Node28&#45;&gt;Node33</title>
<g id="a_edge47_Node000028_Node000033"><a xlink:title=" ">
<path fill="none" stroke="#63b8ff" d="M1558.97,-261.12C1536.45,-251.3 1509.44,-239.53 1488.58,-230.44"/>
<polygon fill="#63b8ff" stroke="#63b8ff" points="1557.34,-264.22 1567.9,-265.01 1560.14,-257.81 1557.34,-264.22"/>
</a>
</g>
</g>
<!-- Node34 -->
<g id="Node000034" class="node">
<title>Node34</title>
<g id="a_Node000034"><a xlink:href="../../d3/de4/post-processing_8inl.html" target="_top" xlink:title=" ">
<polygon fill="white" stroke="#666666" points="1667.88,-230 1537.88,-230 1537.88,-199.5 1667.88,-199.5 1667.88,-230"/>
<text text-anchor="start" x="1545.88" y="-216.5" font-family="Helvetica,sans-Serif" font-size="10.00">engine/subsystems/render</text>
<text text-anchor="middle" x="1602.88" y="-205.25" font-family="Helvetica,sans-Serif" font-size="10.00">/post&#45;processing.inl</text>
</a>
</g>
</g>
<!-- Node28&#45;&gt;Node34 -->
<g id="edge48_Node000028_Node000034" class="edge">
<title>Node28&#45;&gt;Node34</title>
<g id="a_edge48_Node000028_Node000034"><a xlink:title=" ">
<path fill="none" stroke="#63b8ff" d="M1596.24,-254.31C1595.94,-246.14 1596.23,-237.41 1597.12,-230.33"/>
<polygon fill="#63b8ff" stroke="#63b8ff" points="1592.74,-254.4 1597,-264.1 1599.72,-253.87 1592.74,-254.4"/>
</a>
</g>
</g>
<!-- Node29&#45;&gt;Node27 -->
<g id="edge40_Node000029_Node000027" class="edge">
<title>Node29&#45;&gt;Node27</title>
<g id="a_edge40_Node000029_Node000027"><a xlink:title=" ">
<path fill="none" stroke="#63b8ff" d="M1824.15,-193.93C1805.18,-184.21 1782.73,-172.72 1765.35,-163.83"/>
<polygon fill="#63b8ff" stroke="#63b8ff" points="1822.44,-196.98 1832.94,-198.42 1825.63,-190.75 1822.44,-196.98"/>
</a>
</g>
</g>
<!-- Node30 -->
<g id="Node000030" class="node">
<title>Node30</title>
<g id="a_Node000030"><a xlink:href="../../d4/d7c/deferred-resolve_8cpp.html" target="_top" xlink:title=" ">
<polygon fill="white" stroke="#666666" points="1933.25,-163.5 1820.5,-163.5 1820.5,-133 1933.25,-133 1933.25,-163.5"/>
<text text-anchor="start" x="1828.5" y="-150" font-family="Helvetica,sans-Serif" font-size="10.00">engine/render/deferred</text>
<text text-anchor="middle" x="1876.88" y="-138.75" font-family="Helvetica,sans-Serif" font-size="10.00">&#45;resolve.cpp</text>
</a>
</g>
</g>
<!-- Node29&#45;&gt;Node30 -->
<g id="edge41_Node000029_Node000030" class="edge">
<title>Node29&#45;&gt;Node30</title>
<g id="a_edge41_Node000029_Node000030"><a xlink:title=" ">
<path fill="none" stroke="#63b8ff" d="M1868.44,-188.09C1870.23,-179.84 1872.16,-170.99 1873.71,-163.83"/>
<polygon fill="#63b8ff" stroke="#63b8ff" points="1865.07,-187.12 1866.37,-197.63 1871.91,-188.6 1865.07,-187.12"/>
</a>
</g>
</g>
<!-- Node31&#45;&gt;Node27 -->
<g id="edge43_Node000031_Node000027" class="edge">
<title>Node31&#45;&gt;Node27</title>
<g id="a_edge43_Node000031_Node000027"><a xlink:title=" ">
<path fill="none" stroke="#63b8ff" d="M1736.88,-187.81C1736.88,-179.64 1736.88,-170.91 1736.88,-163.83"/>
<polygon fill="#63b8ff" stroke="#63b8ff" points="1733.38,-187.6 1736.88,-197.6 1740.38,-187.6 1733.38,-187.6"/>
</a>
</g>
</g>
<!-- Node32&#45;&gt;Node9 -->
<g id="edge45_Node000032_Node000009" class="edge">
<title>Node32&#45;&gt;Node9</title>
<g id="a_edge45_Node000032_Node000009"><a xlink:title=" ">
<path fill="none" stroke="#63b8ff" d="M1989.34,-188.14C1985.26,-155.59 1975.19,-98.43 1951.88,-55.25 1944.18,-40.99 1930.9,-27.74 1921.55,-19.44"/>
<polygon fill="#63b8ff" stroke="#63b8ff" points="1985.83,-188.3 1990.45,-197.83 1992.79,-187.5 1985.83,-188.3"/>
</a>
</g>
</g>
<!-- Node32&#45;&gt;Node27 -->
<g id="edge46_Node000032_Node000027" class="edge">
<title>Node32&#45;&gt;Node27</title>
<g id="a_edge46_Node000032_Node000027"><a xlink:title=" ">
<path fill="none" stroke="#63b8ff" d="M1925.42,-196.94C1884.9,-186.69 1833.61,-173.72 1794.75,-163.89"/>
<polygon fill="#63b8ff" stroke="#63b8ff" points="1924.52,-200.32 1935.08,-199.38 1926.24,-193.54 1924.52,-200.32"/>
</a>
</g>
</g>
<!-- Node34&#45;&gt;Node28 -->
<g id="edge49_Node000034_Node000028" class="edge">
<title>Node34&#45;&gt;Node28</title>
<g id="a_edge49_Node000034_Node000028"><a xlink:title=" ">
<path fill="none" stroke="#63b8ff" d="M1609.51,-241.63C1609.81,-249.79 1609.52,-258.52 1608.64,-265.61"/>
<polygon fill="#63b8ff" stroke="#63b8ff" points="1613.01,-241.54 1608.75,-231.84 1606.03,-242.08 1613.01,-241.54"/>
</a>
</g>
</g>
</g>
</svg>

<g id="navigator" transform="translate(0 0)" fill="#404254">
  <rect fill="#f2f5e9" fill-opacity="0.5" stroke="#606060" stroke-width=".5" x="0" y="0" width="60" height="60"/>
  <use id="zoomplus" xlink:href="#zoomPlus" x="17" y="9" onmousedown="handleZoom(evt,'in')"/>
  <use id="zoomminus" xlink:href="#zoomMin" x="42" y="9" onmousedown="handleZoom(evt,'out')"/>
  <use id="reset" xlink:href="#resetDef" x="30" y="36" onmousedown="handleReset()"/>
   <use id="arrowup" xlink:href="#arrowUp" x="0" y="0" onmousedown="handlePan(0,-1)"/>
  <use id="arrowright" xlink:href="#arrowRight" x="0" y="0" onmousedown="handlePan(1,0)"/>
  <use id="arrowdown" xlink:href="#arrowDown" x="0" y="0" onmousedown="handlePan(0,1)"/>
  <use id="arrowleft" xlink:href="#arrowLeft" x="0" y="0" onmousedown="handlePan(-1,0)"/>
</g>
<svg viewBox="0 0 15 15" width="100%" height="30px" preserveAspectRatio="xMaxYMin meet">
 <g id="arrow_out" transform="scale(0.3 0.3)">
  <a xlink:href="layer-stack_8hpp__dep__incl_org.svg" target="_base">
   <rect id="button" ry="5" rx="5" y="6" x="6" height="38" width="38"
        fill="#f2f5e9" fill-opacity="0.5" stroke="#606060" stroke-width="1.0"/>
   <path id="arrow"
     d="M 11.500037,31.436501 C 11.940474,20.09759 22.043105,11.32322 32.158766,21.979434 L 37.068811,17.246167 C 37.068811,17.246167 37.088388,32 37.088388,32 L 22.160133,31.978069 C 22.160133,31.978069 26.997745,27.140456 26.997745,27.140456 C 18.528582,18.264221 13.291696,25.230495 11.500037,31.436501 z"
     style="fill:#404040;"/>
  </a>
 </g>
</svg>

<style type='text/css'>
<![CDATA[
[data-mouse-over-selected='false'] { opacity: 0.7; }
[data-mouse-over-selected='true']  { opacity: 1.0; }
]]>
</style>
<script type="application/ecmascript"><![CDATA[
document.addEventListener('DOMContentLoaded', (event) => {
  highlightEdges();
  highlightAdjacentNodes();
});
]]></script>
</svg>
