<?xml version="1.0" encoding="UTF-8" standalone="no"?>
<!DOCTYPE svg PUBLIC "-//W3C//DTD SVG 1.1//EN"
 "http://www.w3.org/Graphics/SVG/1.1/DTD/svg11.dtd">
<!-- Generated by graphviz version 8.1.0 (20230707.0739)
 -->
<!-- Title: engine/core/layers/layer&#45;stack.hpp Pages: 1 -->
<svg width="2055pt" height="371pt"
 viewBox="0.00 0.00 2054.75 371.00" xmlns="http://www.w3.org/2000/svg" xmlns:xlink="http://www.w3.org/1999/xlink">
<g id="graph0" class="graph" transform="scale(1 1) rotate(0) translate(4 367)">
<title>engine/core/layers/layer&#45;stack.hpp</title>
<!-- Node1 -->
<g id="Node000001" class="node">
<title>Node1</title>
<g id="a_Node000001"><a xlink:title=" ">
<polygon fill="#999999" stroke="#666666" points="1256.25,-363 1161.5,-363 1161.5,-332.5 1256.25,-332.5 1256.25,-363"/>
<text text-anchor="start" x="1169.5" y="-349.5" font-family="Helvetica,sans-Serif" font-size="10.00">engine/core/layers</text>
<text text-anchor="middle" x="1208.88" y="-338.25" font-family="Helvetica,sans-Serif" font-size="10.00">/layer&#45;stack.hpp</text>
</a>
</g>
</g>
<!-- Node2 -->
<g id="Node000002" class="node">
<title>Node2</title>
<g id="a_Node000002"><a xlink:href="../../d4/da0/layer-stack-threadsafe_8hpp.html" target="_top" xlink:title=" ">
<polygon fill="white" stroke="#666666" points="1030.38,-296.5 897.38,-296.5 897.38,-266 1030.38,-266 1030.38,-296.5"/>
<text text-anchor="start" x="905.38" y="-283" font-family="Helvetica,sans-Serif" font-size="10.00">engine/core/layers</text>
<text text-anchor="middle" x="963.88" y="-271.75" font-family="Helvetica,sans-Serif" font-size="10.00">/layer&#45;stack&#45;threadsafe.hpp</text>
</a>
</g>
</g>
<!-- Node1&#45;&gt;Node2 -->
<g id="edge1_Node000001_Node000002" class="edge">
<title>Node1&#45;&gt;Node2</title>
<g id="a_edge1_Node000001_Node000002"><a xlink:title=" ">
<path fill="none" stroke="#63b8ff" d="M1150.49,-331.38C1110.87,-320.95 1058.79,-307.24 1019.72,-296.95"/>
<polygon fill="#63b8ff" stroke="#63b8ff" points="1149.49,-335 1160.05,-334.16 1151.28,-328.23 1149.49,-335"/>
</a>
</g>
</g>
<!-- Node24 -->
<g id="Node000024" class="node">
<title>Node24</title>
<g id="a_Node000024"><a xlink:href="../../d4/d93/layer-stack_8cpp.html" target="_top" xlink:title=" ">
<polygon fill="white" stroke="#666666" points="1143.25,-296.5 1048.5,-296.5 1048.5,-266 1143.25,-266 1143.25,-296.5"/>
<text text-anchor="start" x="1056.5" y="-283" font-family="Helvetica,sans-Serif" font-size="10.00">engine/core/layers</text>
<text text-anchor="middle" x="1095.88" y="-271.75" font-family="Helvetica,sans-Serif" font-size="10.00">/layer&#45;stack.cpp</text>
</a>
</g>
</g>
<!-- Node1&#45;&gt;Node24 -->
<g id="edge28_Node000001_Node000024" class="edge">
<title>Node1&#45;&gt;Node24</title>
<g id="a_edge28_Node000001_Node000024"><a xlink:title=" ">
<path fill="none" stroke="#63b8ff" d="M1174.15,-326.93C1157.13,-317.21 1137,-305.72 1121.41,-296.83"/>
<polygon fill="#63b8ff" stroke="#63b8ff" points="1171.81,-330.2 1182.23,-332.11 1175.28,-324.12 1171.81,-330.2"/>
</a>
</g>
</g>
<!-- Node25 -->
<g id="Node000025" class="node">
<title>Node25</title>
<g id="a_Node000025"><a xlink:href="../../d1/ddb/layer-stack_8inl.html" target="_top" xlink:title=" ">
<polygon fill="white" stroke="#666666" points="1256.25,-296.5 1161.5,-296.5 1161.5,-266 1256.25,-266 1256.25,-296.5"/>
<text text-anchor="start" x="1169.5" y="-283" font-family="Helvetica,sans-Serif" font-size="10.00">engine/core/layers</text>
<text text-anchor="middle" x="1208.88" y="-271.75" font-family="Helvetica,sans-Serif" font-size="10.00">/layer&#45;stack.inl</text>
</a>
</g>
</g>
<!-- Node1&#45;&gt;Node25 -->
<g id="edge29_Node000001_Node000025" class="edge">
<title>Node1&#45;&gt;Node25</title>
<g id="a_edge29_Node000001_Node000025"><a xlink:title=" ">
<path fill="none" stroke="#63b8ff" d="M1202.26,-321.38C1201.92,-313.05 1202.21,-304.08 1203.12,-296.83"/>
<polygon fill="#63b8ff" stroke="#63b8ff" points="1198.84,-321.42 1203.11,-331.11 1205.81,-320.87 1198.84,-321.42"/>
</a>
</g>
</g>
<!-- Node26 -->
<g id="Node000026" class="node">
<title>Node26</title>
<g id="a_Node000026"><a xlink:href="../../d9/d06/render-pipeline_8hpp.html" target="_top" xlink:title=" ">
<polygon fill="white" stroke="#666666" points="1373.88,-296.5 1273.88,-296.5 1273.88,-266 1373.88,-266 1373.88,-296.5"/>
<text text-anchor="start" x="1281.88" y="-283" font-family="Helvetica,sans-Serif" font-size="10.00">engine/core/layers</text>
<text text-anchor="middle" x="1323.88" y="-271.75" font-family="Helvetica,sans-Serif" font-size="10.00">/render&#45;pipeline.hpp</text>
</a>
</g>
</g>
<!-- Node1&#45;&gt;Node26 -->
<g id="edge31_Node000001_Node000026" class="edge">
<title>Node1&#45;&gt;Node26</title>
<g id="a_edge31_Node000001_Node000026"><a xlink:title=" ">
<path fill="none" stroke="#63b8ff" d="M1244.22,-326.93C1261.54,-317.21 1282.02,-305.72 1297.88,-296.83"/>
<polygon fill="#63b8ff" stroke="#63b8ff" points="1242.98,-324.17 1235.97,-332.11 1246.4,-330.27 1242.98,-324.17"/>
</a>
</g>
</g>
<!-- Node28 -->
<g id="Node000028" class="node">
<title>Node28</title>
<g id="a_Node000028"><a xlink:href="../../d2/d42/post-processing_8hpp.html" target="_top" xlink:title=" ">
<polygon fill="white" stroke="#666666" points="1667.88,-296.5 1537.88,-296.5 1537.88,-266 1667.88,-266 1667.88,-296.5"/>
<text text-anchor="start" x="1545.88" y="-283" font-family="Helvetica,sans-Serif" font-size="10.00">engine/subsystems/render</text>
<text text-anchor="middle" x="1602.88" y="-271.75" font-family="Helvetica,sans-Serif" font-size="10.00">/post&#45;processing.hpp</text>
</a>
</g>
</g>
<!-- Node1&#45;&gt;Node28 -->
<g id="edge37_Node000001_Node000028" class="edge">
<title>Node1&#45;&gt;Node28</title>
<g id="a_edge37_Node000001_Node000028"><a xlink:title=" ">
<path fill="none" stroke="#63b8ff" d="M1267.11,-337.22C1339.33,-325.39 1462.11,-305.29 1537.49,-292.95"/>
<polygon fill="#63b8ff" stroke="#63b8ff" points="1266.7,-333.9 1257.4,-338.97 1267.83,-340.81 1266.7,-333.9"/>
</a>
</g>
</g>
<!-- Node3 -->
<g id="Node000003" class="node">
<title>Node3</title>
<g id="a_Node000003"><a xlink:href="../../d4/d87/layers_8hpp.html" target="_top" xlink:title=" ">
<polygon fill="white" stroke="#666666" points="1158.25,-224.38 1045.5,-224.38 1045.5,-205.12 1158.25,-205.12 1158.25,-224.38"/>
<text text-anchor="middle" x="1101.88" y="-210.88" font-family="Helvetica,sans-Serif" font-size="10.00">engine/core/layers.hpp</text>
</a>
</g>
</g>
<!-- Node2&#45;&gt;Node3 -->
<g id="edge2_Node000002_Node000003" class="edge">
<title>Node2&#45;&gt;Node3</title>
<g id="a_edge2_Node000002_Node000003"><a xlink:title=" ">
<path fill="none" stroke="#63b8ff" d="M1005.05,-261.01C1030.74,-249 1062.61,-234.1 1082.6,-224.76"/>
<polygon fill="#63b8ff" stroke="#63b8ff" points="1003.77,-258.21 996.19,-265.61 1006.73,-264.55 1003.77,-258.21"/>
</a>
</g>
</g>
<!-- Node22 -->
<g id="Node000022" class="node">
<title>Node22</title>
<g id="a_Node000022"><a xlink:href="../../d8/df2/layer-stack-threadsafe_8cpp.html" target="_top" xlink:title=" ">
<polygon fill="white" stroke="#666666" points="882.38,-230 749.38,-230 749.38,-199.5 882.38,-199.5 882.38,-230"/>
<text text-anchor="start" x="757.38" y="-216.5" font-family="Helvetica,sans-Serif" font-size="10.00">engine/core/layers</text>
<text text-anchor="middle" x="815.88" y="-205.25" font-family="Helvetica,sans-Serif" font-size="10.00">/layer&#45;stack&#45;threadsafe.cpp</text>
</a>
</g>
</g>
<!-- Node2&#45;&gt;Node22 -->
<g id="edge25_Node000002_Node000022" class="edge">
<title>Node2&#45;&gt;Node22</title>
<g id="a_edge25_Node000002_Node000022"><a xlink:title=" ">
<path fill="none" stroke="#63b8ff" d="M920.28,-261.25C897.69,-251.41 870.54,-239.57 849.58,-230.44"/>
<polygon fill="#63b8ff" stroke="#63b8ff" points="918.73,-264.83 929.29,-265.61 921.52,-258.41 918.73,-264.83"/>
</a>
</g>
</g>
<!-- Node23 -->
<g id="Node000023" class="node">
<title>Node23</title>
<g id="a_Node000023"><a xlink:href="../../d9/de3/layer-stack-threadsafe_8inl.html" target="_top" xlink:title=" ">
<polygon fill="white" stroke="#666666" points="1027.38,-230 900.38,-230 900.38,-199.5 1027.38,-199.5 1027.38,-230"/>
<text text-anchor="start" x="908.38" y="-216.5" font-family="Helvetica,sans-Serif" font-size="10.00">engine/core/layers</text>
<text text-anchor="middle" x="963.88" y="-205.25" font-family="Helvetica,sans-Serif" font-size="10.00">/layer&#45;stack&#45;threadsafe.inl</text>
</a>
</g>
</g>
<!-- Node2&#45;&gt;Node23 -->
<g id="edge26_Node000002_Node000023" class="edge">
<title>Node2&#45;&gt;Node23</title>
<g id="a_edge26_Node000002_Node000023"><a xlink:title=" ">
<path fill="none" stroke="#63b8ff" d="M957.26,-254.88C956.92,-246.55 957.21,-237.58 958.12,-230.33"/>
<polygon fill="#63b8ff" stroke="#63b8ff" points="953.84,-254.92 958.11,-264.61 960.81,-254.37 953.84,-254.92"/>
</a>
</g>
</g>
<!-- Node4 -->
<g id="Node000004" class="node">
<title>Node4</title>
<g id="a_Node000004"><a xlink:href="../../de/d46/engine_8hpp.html" target="_top" xlink:title=" ">
<polygon fill="white" stroke="#666666" points="1139.75,-157.88 1024,-157.88 1024,-138.62 1139.75,-138.62 1139.75,-157.88"/>
<text text-anchor="middle" x="1081.88" y="-144.38" font-family="Helvetica,sans-Serif" font-size="10.00">engine/core/engine.hpp</text>
</a>
</g>
</g>
<!-- Node3&#45;&gt;Node4 -->
<g id="edge3_Node000003_Node000004" class="edge">
<title>Node3&#45;&gt;Node4</title>
<g id="a_edge3_Node000003_Node000004"><a xlink:title=" ">
<path fill="none" stroke="#63b8ff" d="M1095.87,-194.4C1092.14,-182.36 1087.52,-167.45 1084.63,-158.14"/>
<polygon fill="#63b8ff" stroke="#63b8ff" points="1092.79,-195.27 1099.09,-203.78 1099.48,-193.19 1092.79,-195.27"/>
</a>
</g>
</g>
<!-- Node5 -->
<g id="Node000005" class="node">
<title>Node5</title>
<g id="a_Node000005"><a xlink:href="../../d0/d86/camera-movement_8hpp.html" target="_top" xlink:title=" ">
<polygon fill="white" stroke="#666666" points="1606.62,-85.75 1451.12,-85.75 1451.12,-66.5 1606.62,-66.5 1606.62,-85.75"/>
<text text-anchor="middle" x="1528.88" y="-72.25" font-family="Helvetica,sans-Serif" font-size="10.00">d3d_test/camera&#45;movement.hpp</text>
</a>
</g>
</g>
<!-- Node4&#45;&gt;Node5 -->
<g id="edge4_Node000004_Node000005" class="edge">
<title>Node4&#45;&gt;Node5</title>
<g id="a_edge4_Node000004_Node000005"><a xlink:title=" ">
<path fill="none" stroke="#63b8ff" d="M1150.94,-139.4C1223.62,-130.72 1341.22,-115.49 1441.88,-97 1458.48,-93.95 1476.72,-89.89 1492.19,-86.24"/>
<polygon fill="#63b8ff" stroke="#63b8ff" points="1150.63,-136.03 1141.11,-140.68 1151.45,-142.98 1150.63,-136.03"/>
</a>
</g>
</g>
<!-- Node8 -->
<g id="Node000008" class="node">
<title>Node8</title>
<g id="a_Node000008"><a xlink:href="../../dc/dfb/controller_8hpp.html" target="_top" xlink:title=" ">
<polygon fill="white" stroke="#666666" points="1926,-85.75 1811.75,-85.75 1811.75,-66.5 1926,-66.5 1926,-85.75"/>
<text text-anchor="middle" x="1868.88" y="-72.25" font-family="Helvetica,sans-Serif" font-size="10.00">d3d_test/controller.hpp</text>
</a>
</g>
</g>
<!-- Node4&#45;&gt;Node8 -->
<g id="edge7_Node000004_Node000008" class="edge">
<title>Node4&#45;&gt;Node8</title>
<g id="a_edge7_Node000004_Node000008"><a xlink:title=" ">
<path fill="none" stroke="#63b8ff" d="M1150.66,-147.43C1279.51,-146.66 1565.55,-139.77 1801.88,-97 1815.72,-94.49 1830.78,-90.18 1843.1,-86.21"/>
<polygon fill="#63b8ff" stroke="#63b8ff" points="1150.79,-143.93 1140.8,-147.48 1150.82,-150.93 1150.79,-143.93"/>
</a>
</g>
</g>
<!-- Node9 -->
<g id="Node000009" class="node">
<title>Node9</title>
<g id="a_Node000009"><a xlink:href="../../d9/d0f/main_8cc.html" target="_top" xlink:title=" ">
<polygon fill="white" stroke="#666666" points="1956,-19.25 1865.75,-19.25 1865.75,0 1956,0 1956,-19.25"/>
<text text-anchor="middle" x="1910.88" y="-5.75" font-family="Helvetica,sans-Serif" font-size="10.00">d3d_test/main.cc</text>
</a>
</g>
</g>
<!-- Node4&#45;&gt;Node9 -->
<g id="edge10_Node000004_Node000009" class="edge">
<title>Node4&#45;&gt;Node9</title>
<g id="a_edge10_Node000004_Node000009"><a xlink:title=" ">
<path fill="none" stroke="#63b8ff" d="M1150.88,-146.88C1276.29,-145.21 1536.02,-136.87 1615.88,-97 1638.32,-85.79 1631.88,-67.33 1653.88,-55.25 1721.16,-18.3 1812.01,-10.72 1865.72,-9.81"/>
<polygon fill="#63b8ff" stroke="#63b8ff" points="1150.85,-143.39 1140.9,-147.01 1150.94,-150.39 1150.85,-143.39"/>
</a>
</g>
</g>
<!-- Node10 -->
<g id="Node000010" class="node">
<title>Node10</title>
<g id="a_Node000010"><a xlink:href="../../da/df5/object-editor_8hpp.html" target="_top" xlink:title=" ">
<polygon fill="white" stroke="#666666" points="201.75,-85.75 74,-85.75 74,-66.5 201.75,-66.5 201.75,-85.75"/>
<text text-anchor="middle" x="137.88" y="-72.25" font-family="Helvetica,sans-Serif" font-size="10.00">d3d_test/object&#45;editor.hpp</text>
</a>
</g>
</g>
<!-- Node4&#45;&gt;Node10 -->
<g id="edge11_Node000004_Node000010" class="edge">
<title>Node4&#45;&gt;Node10</title>
<g id="a_edge11_Node000004_Node000010"><a xlink:title=" ">
<path fill="none" stroke="#63b8ff" d="M1012.87,-148.12C864.87,-148.93 506.38,-145.21 210.88,-97 195.71,-94.53 179.16,-90.16 165.65,-86.15"/>
<polygon fill="#63b8ff" stroke="#63b8ff" points="1012.6,-151.62 1022.58,-148.05 1012.55,-144.62 1012.6,-151.62"/>
</a>
</g>
</g>
<!-- Node13 -->
<g id="Node000013" class="node">
<title>Node13</title>
<g id="a_Node000013"><a xlink:href="../../d9/d55/scene-viewer_8hpp.html" target="_top" xlink:title=" ">
<polygon fill="white" stroke="#666666" points="1433,-85.75 1300.75,-85.75 1300.75,-66.5 1433,-66.5 1433,-85.75"/>
<text text-anchor="middle" x="1366.88" y="-72.25" font-family="Helvetica,sans-Serif" font-size="10.00">d3d_test/scene&#45;viewer.hpp</text>
</a>
</g>
</g>
<!-- Node4&#45;&gt;Node13 -->
<g id="edge15_Node000004_Node000013" class="edge">
<title>Node4&#45;&gt;Node13</title>
<g id="a_edge15_Node000004_Node000013"><a xlink:title=" ">
<path fill="none" stroke="#63b8ff" d="M1131.68,-135.69C1174.28,-125.72 1237.2,-110.78 1291.88,-97 1305.46,-93.58 1320.38,-89.65 1333.32,-86.2"/>
<polygon fill="#63b8ff" stroke="#63b8ff" points="1130.98,-132.49 1122.04,-138.18 1132.57,-139.31 1130.98,-132.49"/>
</a>
</g>
</g>
<!-- Node14 -->
<g id="Node000014" class="node">
<title>Node14</title>
<g id="a_Node000014"><a xlink:href="../../da/d5c/engine_8cpp.html" target="_top" xlink:title=" ">
<polygon fill="white" stroke="#666666" points="335.75,-85.75 220,-85.75 220,-66.5 335.75,-66.5 335.75,-85.75"/>
<text text-anchor="middle" x="277.88" y="-72.25" font-family="Helvetica,sans-Serif" font-size="10.00">engine/core/engine.cpp</text>
</a>
</g>
</g>
<!-- Node4&#45;&gt;Node14 -->
<g id="edge17_Node000004_Node000014" class="edge">
<title>Node4&#45;&gt;Node14</title>
<g id="a_edge17_Node000004_Node000014"><a xlink:title=" ">
<path fill="none" stroke="#63b8ff" d="M1013.25,-147.69C882.08,-147.4 587.19,-141.34 343.88,-97 330.22,-94.51 315.39,-90.2 303.25,-86.22"/>
<polygon fill="#63b8ff" stroke="#63b8ff" points="1012.91,-151.19 1022.92,-147.7 1012.92,-144.19 1012.91,-151.19"/>
</a>
</g>
</g>
<!-- Node15 -->
<g id="Node000015" class="node">
<title>Node15</title>
<g id="a_Node000015"><a xlink:href="../../d1/da2/deferred-hdr-render-pipeline_8cpp.html" target="_top" xlink:title=" ">
<polygon fill="white" stroke="#666666" points="1793.25,-91.38 1662.5,-91.38 1662.5,-60.88 1793.25,-60.88 1793.25,-91.38"/>
<text text-anchor="start" x="1670.5" y="-77.88" font-family="Helvetica,sans-Serif" font-size="10.00">engine/direct3d11/deferred</text>
<text text-anchor="middle" x="1727.88" y="-66.62" font-family="Helvetica,sans-Serif" font-size="10.00">&#45;hdr&#45;render&#45;pipeline.cpp</text>
</a>
</g>
</g>
<!-- Node4&#45;&gt;Node15 -->
<g id="edge18_Node000004_Node000015" class="edge">
<title>Node4&#45;&gt;Node15</title>
<g id="a_edge18_Node000004_Node000015"><a xlink:title=" ">
<path fill="none" stroke="#63b8ff" d="M1150.88,-144.65C1258.08,-139.83 1470.83,-127.09 1648.88,-97 1657.1,-95.61 1665.73,-93.8 1674.15,-91.85"/>
<polygon fill="#63b8ff" stroke="#63b8ff" points="1151.05,-141.19 1141.21,-145.12 1151.36,-148.18 1151.05,-141.19"/>
</a>
</g>
</g>
<!-- Node16 -->
<g id="Node000016" class="node">
<title>Node16</title>
<g id="a_Node000016"><a xlink:href="../../d8/d30/decal-render-system_8cpp.html" target="_top" xlink:title=" ">
<polygon fill="white" stroke="#666666" points="504.38,-91.38 353.38,-91.38 353.38,-60.88 504.38,-60.88 504.38,-91.38"/>
<text text-anchor="start" x="361.38" y="-77.88" font-family="Helvetica,sans-Serif" font-size="10.00">engine/subsystems/render</text>
<text text-anchor="middle" x="428.88" y="-66.62" font-family="Helvetica,sans-Serif" font-size="10.00">/detail/decal&#45;render&#45;system.cpp</text>
</a>
</g>
</g>
<!-- Node4&#45;&gt;Node16 -->
<g id="edge19_Node000004_Node000016" class="edge">
<title>Node4&#45;&gt;Node16</title>
<g id="a_edge19_Node000004_Node000016"><a xlink:title=" ">
<path fill="none" stroke="#63b8ff" d="M1012.91,-144.3C905.63,-139 692.54,-125.64 513.88,-97 505.05,-95.58 495.77,-93.77 486.73,-91.81"/>
<polygon fill="#63b8ff" stroke="#63b8ff" points="1012.74,-147.84 1022.89,-144.83 1013.08,-140.85 1012.74,-147.84"/>
</a>
</g>
</g>
<!-- Node17 -->
<g id="Node000017" class="node">
<title>Node17</title>
<g id="a_Node000017"><a xlink:href="../../d1/d58/dissolution-render-system_8cpp.html" target="_top" xlink:title=" ">
<polygon fill="white" stroke="#666666" points="652.88,-97 522.88,-97 522.88,-55.25 652.88,-55.25 652.88,-97"/>
<text text-anchor="start" x="530.88" y="-83.5" font-family="Helvetica,sans-Serif" font-size="10.00">engine/subsystems/render</text>
<text text-anchor="start" x="530.88" y="-72.25" font-family="Helvetica,sans-Serif" font-size="10.00">/detail/dissolution&#45;render</text>
<text text-anchor="middle" x="587.88" y="-61" font-family="Helvetica,sans-Serif" font-size="10.00">&#45;system.cpp</text>
</a>
</g>
</g>
<!-- Node4&#45;&gt;Node17 -->
<g id="edge20_Node000004_Node000017" class="edge">
<title>Node4&#45;&gt;Node17</title>
<g id="a_edge20_Node000004_Node000017"><a xlink:title=" ">
<path fill="none" stroke="#63b8ff" d="M1012.84,-142.04C929.23,-135.04 784.36,-120.65 661.88,-97 659,-96.45 656.08,-95.84 653.13,-95.19"/>
<polygon fill="#63b8ff" stroke="#63b8ff" points="1012.47,-145.61 1022.72,-142.94 1013.04,-138.63 1012.47,-145.61"/>
</a>
</g>
</g>
<!-- Node18 -->
<g id="Node000018" class="node">
<title>Node18</title>
<g id="a_Node000018"><a xlink:href="../../d2/d11/emissive-particle-render-system_8cpp.html" target="_top" xlink:title=" ">
<polygon fill="white" stroke="#666666" points="800.88,-97 670.88,-97 670.88,-55.25 800.88,-55.25 800.88,-97"/>
<text text-anchor="start" x="678.88" y="-83.5" font-family="Helvetica,sans-Serif" font-size="10.00">engine/subsystems/render</text>
<text text-anchor="start" x="678.88" y="-72.25" font-family="Helvetica,sans-Serif" font-size="10.00">/detail/emissive&#45;particle</text>
<text text-anchor="middle" x="735.88" y="-61" font-family="Helvetica,sans-Serif" font-size="10.00">&#45;render&#45;system.cpp</text>
</a>
</g>
</g>
<!-- Node4&#45;&gt;Node18 -->
<g id="edge21_Node000004_Node000018" class="edge">
<title>Node4&#45;&gt;Node18</title>
<g id="a_edge21_Node000004_Node000018"><a xlink:title=" ">
<path fill="none" stroke="#63b8ff" d="M1014.64,-136.36C959.41,-127.05 879.25,-112.7 809.88,-97 807.02,-96.35 804.11,-95.67 801.17,-94.97"/>
<polygon fill="#63b8ff" stroke="#63b8ff" points="1013.91,-139.96 1024.35,-138.16 1015.06,-133.05 1013.91,-139.96"/>
</a>
</g>
</g>
<!-- Node19 -->
<g id="Node000019" class="node">
<title>Node19</title>
<g id="a_Node000019"><a xlink:href="../../df/d58/grass-render-system_8cpp.html" target="_top" xlink:title=" ">
<polygon fill="white" stroke="#666666" points="970.75,-91.38 819,-91.38 819,-60.88 970.75,-60.88 970.75,-91.38"/>
<text text-anchor="start" x="827" y="-77.88" font-family="Helvetica,sans-Serif" font-size="10.00">engine/subsystems/render</text>
<text text-anchor="middle" x="894.88" y="-66.62" font-family="Helvetica,sans-Serif" font-size="10.00">/detail/grass&#45;render&#45;system.cpp</text>
</a>
</g>
</g>
<!-- Node4&#45;&gt;Node19 -->
<g id="edge22_Node000004_Node000019" class="edge">
<title>Node4&#45;&gt;Node19</title>
<g id="a_edge22_Node000004_Node000019"><a xlink:title=" ">
<path fill="none" stroke="#63b8ff" d="M1047.59,-134.39C1015.55,-122.38 967.74,-104.45 934.17,-91.86"/>
<polygon fill="#63b8ff" stroke="#63b8ff" points="1046.22,-137.99 1056.81,-138.23 1048.68,-131.44 1046.22,-137.99"/>
</a>
</g>
</g>
<!-- Node20 -->
<g id="Node000020" class="node">
<title>Node20</title>
<g id="a_Node000020"><a xlink:href="../../d8/d9c/light-render-system_8cpp.html" target="_top" xlink:title=" ">
<polygon fill="white" stroke="#666666" points="1134.75,-91.38 989,-91.38 989,-60.88 1134.75,-60.88 1134.75,-91.38"/>
<text text-anchor="start" x="997" y="-77.88" font-family="Helvetica,sans-Serif" font-size="10.00">engine/subsystems/render</text>
<text text-anchor="middle" x="1061.88" y="-66.62" font-family="Helvetica,sans-Serif" font-size="10.00">/detail/light&#45;render&#45;system.cpp</text>
</a>
</g>
</g>
<!-- Node4&#45;&gt;Node20 -->
<g id="edge23_Node000004_Node000020" class="edge">
<title>Node4&#45;&gt;Node20</title>
<g id="a_edge23_Node000004_Node000020"><a xlink:title=" ">
<path fill="none" stroke="#63b8ff" d="M1076.42,-128.13C1073.15,-116.68 1069.07,-102.34 1066.06,-91.79"/>
<polygon fill="#63b8ff" stroke="#63b8ff" points="1073.23,-128.71 1079.34,-137.37 1079.97,-126.79 1073.23,-128.71"/>
</a>
</g>
</g>
<!-- Node21 -->
<g id="Node000021" class="node">
<title>Node21</title>
<g id="a_Node000021"><a xlink:href="../../d3/dfe/particle-render-system_8cpp.html" target="_top" xlink:title=" ">
<polygon fill="white" stroke="#666666" points="1282.88,-97 1152.88,-97 1152.88,-55.25 1282.88,-55.25 1282.88,-97"/>
<text text-anchor="start" x="1160.88" y="-83.5" font-family="Helvetica,sans-Serif" font-size="10.00">engine/subsystems/render</text>
<text text-anchor="start" x="1160.88" y="-72.25" font-family="Helvetica,sans-Serif" font-size="10.00">/detail/particle&#45;render</text>
<text text-anchor="middle" x="1217.88" y="-61" font-family="Helvetica,sans-Serif" font-size="10.00">&#45;system.cpp</text>
</a>
</g>
</g>
<!-- Node4&#45;&gt;Node21 -->
<g id="edge24_Node000004_Node000021" class="edge">
<title>Node4&#45;&gt;Node21</title>
<g id="a_edge24_Node000004_Node000021"><a xlink:title=" ">
<path fill="none" stroke="#63b8ff" d="M1109.03,-133.25C1128.91,-123 1156.19,-108.93 1178.46,-97.45"/>
<polygon fill="#63b8ff" stroke="#63b8ff" points="1107.66,-130.53 1100.38,-138.23 1110.87,-136.75 1107.66,-130.53"/>
</a>
</g>
</g>
<!-- Node6 -->
<g id="Node000006" class="node">
<title>Node6</title>
<g id="a_Node000006"><a xlink:href="../../d5/dbb/camera-movement_8cpp.html" target="_top" xlink:title=" ">
<polygon fill="white" stroke="#666666" points="1606.62,-19.25 1451.12,-19.25 1451.12,0 1606.62,0 1606.62,-19.25"/>
<text text-anchor="middle" x="1528.88" y="-5.75" font-family="Helvetica,sans-Serif" font-size="10.00">d3d_test/camera&#45;movement.cpp</text>
</a>
</g>
</g>
<!-- Node5&#45;&gt;Node6 -->
<g id="edge5_Node000005_Node000006" class="edge">
<title>Node5&#45;&gt;Node6</title>
<g id="a_edge5_Node000005_Node000006"><a xlink:title=" ">
<path fill="none" stroke="#63b8ff" d="M1528.88,-55.4C1528.88,-43.43 1528.88,-28.73 1528.88,-19.52"/>
<polygon fill="#63b8ff" stroke="#63b8ff" points="1525.38,-55.16 1528.88,-65.16 1532.38,-55.16 1525.38,-55.16"/>
</a>
</g>
</g>
<!-- Node7 -->
<g id="Node000007" class="node">
<title>Node7</title>
<g id="a_Node000007"><a xlink:href="../../d1/d47/controller_8cpp.html" target="_top" xlink:title=" ">
<polygon fill="white" stroke="#666666" points="1428,-19.25 1313.75,-19.25 1313.75,0 1428,0 1428,-19.25"/>
<text text-anchor="middle" x="1370.88" y="-5.75" font-family="Helvetica,sans-Serif" font-size="10.00">d3d_test/controller.cpp</text>
</a>
</g>
</g>
<!-- Node5&#45;&gt;Node7 -->
<g id="edge6_Node000005_Node000007" class="edge">
<title>Node5&#45;&gt;Node7</title>
<g id="a_edge6_Node000005_Node000007"><a xlink:title=" ">
<path fill="none" stroke="#63b8ff" d="M1496.73,-62C1465.87,-49.4 1420.07,-30.71 1393.06,-19.68"/>
<polygon fill="#63b8ff" stroke="#63b8ff" points="1494.99,-65.48 1505.57,-66.02 1497.64,-59 1494.99,-65.48"/>
</a>
</g>
</g>
<!-- Node8&#45;&gt;Node7 -->
<g id="edge8_Node000008_Node000007" class="edge">
<title>Node8&#45;&gt;Node7</title>
<g id="a_edge8_Node000008_Node000007"><a xlink:title=" ">
<path fill="none" stroke="#63b8ff" d="M1831.91,-62.81C1822.23,-59.95 1811.74,-57.19 1801.88,-55.25 1644.09,-24.25 1601.7,-36.95 1441.88,-19.25 1437.43,-18.76 1432.83,-18.23 1428.21,-17.7"/>
<polygon fill="#63b8ff" stroke="#63b8ff" points="1830.84,-66.44 1841.43,-66.03 1832.89,-59.75 1830.84,-66.44"/>
</a>
</g>
</g>
<!-- Node8&#45;&gt;Node9 -->
<g id="edge9_Node000008_Node000009" class="edge">
<title>Node8&#45;&gt;Node9</title>
<g id="a_edge9_Node000008_Node000009"><a xlink:title=" ">
<path fill="none" stroke="#63b8ff" d="M1880.52,-57.24C1888.51,-44.97 1898.77,-29.21 1905.08,-19.52"/>
<polygon fill="#63b8ff" stroke="#63b8ff" points="1877.24,-54.87 1874.71,-65.16 1883.1,-58.69 1877.24,-54.87"/>
</a>
</g>
</g>
<!-- Node10&#45;&gt;Node7 -->
<g id="edge12_Node000010_Node000007" class="edge">
<title>Node10&#45;&gt;Node7</title>
<g id="a_edge12_Node000010_Node000007"><a xlink:title=" ">
<path fill="none" stroke="#63b8ff" d="M175.63,-63.09C186.86,-59.99 199.27,-57.03 210.88,-55.25 427.02,-22.11 1110.22,-13.09 1313.36,-11.11"/>
<polygon fill="#63b8ff" stroke="#63b8ff" points="174.93,-59.94 166.29,-66.07 176.87,-66.67 174.93,-59.94"/>
</a>
</g>
</g>
<!-- Node11 -->
<g id="Node000011" class="node">
<title>Node11</title>
<g id="a_Node000011"><a xlink:href="../../d4/d94/object-editor_8cpp.html" target="_top" xlink:title=" ">
<polygon fill="white" stroke="#666666" points="127.75,-19.25 0,-19.25 0,0 127.75,0 127.75,-19.25"/>
<text text-anchor="middle" x="63.88" y="-5.75" font-family="Helvetica,sans-Serif" font-size="10.00">d3d_test/object&#45;editor.cpp</text>
</a>
</g>
</g>
<!-- Node10&#45;&gt;Node11 -->
<g id="edge13_Node000010_Node000011" class="edge">
<title>Node10&#45;&gt;Node11</title>
<g id="a_edge13_Node000010_Node000011"><a xlink:title=" ">
<path fill="none" stroke="#63b8ff" d="M119.42,-59.04C105.09,-46.55 85.75,-29.69 74.08,-19.52"/>
<polygon fill="#63b8ff" stroke="#63b8ff" points="116.75,-62.22 126.59,-66.16 121.35,-56.95 116.75,-62.22"/>
</a>
</g>
</g>
<!-- Node12 -->
<g id="Node000012" class="node">
<title>Node12</title>
<g id="a_Node000012"><a xlink:href="../../d0/d38/scene-viewer_8cpp.html" target="_top" xlink:title=" ">
<polygon fill="white" stroke="#666666" points="278,-19.25 145.75,-19.25 145.75,0 278,0 278,-19.25"/>
<text text-anchor="middle" x="211.88" y="-5.75" font-family="Helvetica,sans-Serif" font-size="10.00">d3d_test/scene&#45;viewer.cpp</text>
</a>
</g>
</g>
<!-- Node10&#45;&gt;Node12 -->
<g id="edge14_Node000010_Node000012" class="edge">
<title>Node10&#45;&gt;Node12</title>
<g id="a_edge14_Node000010_Node000012"><a xlink:title=" ">
<path fill="none" stroke="#63b8ff" d="M156.33,-59.04C170.66,-46.55 190,-29.69 201.67,-19.52"/>
<polygon fill="#63b8ff" stroke="#63b8ff" points="154.4,-56.95 149.16,-66.16 159,-62.22 154.4,-56.95"/>
</a>
</g>
</g>
<!-- Node13&#45;&gt;Node7 -->
<g id="edge16_Node000013_Node000007" class="edge">
<title>Node13&#45;&gt;Node7</title>
<g id="a_edge16_Node000013_Node000007"><a xlink:title=" ">
<path fill="none" stroke="#63b8ff" d="M1368.1,-55.4C1368.84,-43.43 1369.75,-28.73 1370.32,-19.52"/>
<polygon fill="#63b8ff" stroke="#63b8ff" points="1364.56,-54.96 1367.43,-65.16 1371.54,-55.39 1364.56,-54.96"/>
</a>
</g>
</g>
<!-- Node23&#45;&gt;Node2 -->
<g id="edge27_Node000023_Node000002" class="edge">
<title>Node23&#45;&gt;Node2</title>
<g id="a_edge27_Node000023_Node000002"><a xlink:title=" ">
<path fill="none" stroke="#63b8ff" d="M970.48,-241.06C970.83,-249.38 970.54,-258.36 969.64,-265.61"/>
<polygon fill="#63b8ff" stroke="#63b8ff" points="973.91,-241.02 969.63,-231.33 966.93,-241.57 973.91,-241.02"/>
</a>
</g>
</g>
<!-- Node25&#45;&gt;Node1 -->
<g id="edge30_Node000025_Node000001" class="edge">
<title>Node25&#45;&gt;Node1</title>
<g id="a_edge30_Node000025_Node000001"><a xlink:title=" ">
<path fill="none" stroke="#63b8ff" d="M1215.48,-307.56C1215.83,-315.88 1215.54,-324.86 1214.64,-332.11"/>
<polygon fill="#63b8ff" stroke="#63b8ff" points="1218.91,-307.52 1214.63,-297.83 1211.93,-308.07 1218.91,-307.52"/>
</a>
</g>
</g>
<!-- Node26&#45;&gt;Node3 -->
<g id="edge32_Node000026_Node000003" class="edge">
<title>Node26&#45;&gt;Node3</title>
<g id="a_edge32_Node000026_Node000003"><a xlink:title=" ">
<path fill="none" stroke="#63b8ff" d="M1263.09,-262.59C1221.05,-250.38 1166.83,-234.62 1133.21,-224.85"/>
<polygon fill="#63b8ff" stroke="#63b8ff" points="1261.92,-266.18 1272.5,-265.61 1263.87,-259.46 1261.92,-266.18"/>
</a>
</g>
</g>
<!-- Node27 -->
<g id="Node000027" class="node">
<title>Node27</title>
<g id="a_Node000027"><a xlink:href="../../db/df9/deferred-hdr-render-pipeline_8hpp.html" target="_top" xlink:title=" ">
<polygon fill="white" stroke="#666666" points="1802.25,-163.5 1671.5,-163.5 1671.5,-133 1802.25,-133 1802.25,-163.5"/>
<text text-anchor="start" x="1679.5" y="-150" font-family="Helvetica,sans-Serif" font-size="10.00">engine/direct3d11/deferred</text>
<text text-anchor="middle" x="1736.88" y="-138.75" font-family="Helvetica,sans-Serif" font-size="10.00">&#45;hdr&#45;render&#45;pipeline.hpp</text>
</a>
</g>
</g>
<!-- Node26&#45;&gt;Node27 -->
<g id="edge33_Node000026_Node000027" class="edge">
<title>Node26&#45;&gt;Node27</title>
<g id="a_edge33_Node000026_Node000027"><a xlink:title=" ">
<path fill="none" stroke="#63b8ff" d="M1330.17,-255.22C1336.18,-236.76 1347.16,-212.66 1365.88,-199.5 1413.79,-165.8 1578.16,-154.65 1671.23,-150.99"/>
<polygon fill="#63b8ff" stroke="#63b8ff" points="1326.59,-253.99 1327.12,-264.57 1333.31,-255.97 1326.59,-253.99"/>
</a>
</g>
</g>
<!-- Node27&#45;&gt;Node8 -->
<g id="edge34_Node000027_Node000008" class="edge">
<title>Node27&#45;&gt;Node8</title>
<g id="a_edge34_Node000027_Node000008"><a xlink:title=" ">
<path fill="none" stroke="#63b8ff" d="M1773.92,-127.57C1799.42,-114.02 1832.1,-96.66 1851.72,-86.24"/>
<polygon fill="#63b8ff" stroke="#63b8ff" points="1772.74,-124.77 1765.55,-132.55 1776.02,-130.95 1772.74,-124.77"/>
</a>
</g>
</g>
<!-- Node27&#45;&gt;Node9 -->
<g id="edge35_Node000027_Node000009" class="edge">
<title>Node27&#45;&gt;Node9</title>
<g id="a_edge35_Node000027_Node000009"><a xlink:title=" ">
<path fill="none" stroke="#63b8ff" d="M1813.34,-132.51C1865.7,-121.64 1927.06,-107.05 1934.88,-97 1953.22,-73.41 1930.55,-36.62 1918.07,-19.7"/>
<polygon fill="#63b8ff" stroke="#63b8ff" points="1812.76,-129.26 1803.66,-134.7 1814.16,-136.12 1812.76,-129.26"/>
</a>
</g>
</g>
<!-- Node27&#45;&gt;Node15 -->
<g id="edge36_Node000027_Node000015" class="edge">
<title>Node27&#45;&gt;Node15</title>
<g id="a_edge36_Node000027_Node000015"><a xlink:title=" ">
<path fill="none" stroke="#63b8ff" d="M1733.63,-121.93C1732.32,-111.75 1730.86,-100.38 1729.74,-91.64"/>
<polygon fill="#63b8ff" stroke="#63b8ff" points="1730.27,-122.25 1735.01,-131.72 1737.21,-121.36 1730.27,-122.25"/>
</a>
</g>
</g>
<!-- Node28&#45;&gt;Node27 -->
<g id="edge38_Node000028_Node000027" class="edge">
<title>Node28&#45;&gt;Node27</title>
<g id="a_edge38_Node000028_Node000027"><a xlink:title=" ">
<path fill="none" stroke="#63b8ff" d="M1526.82,-276.67C1445.99,-270.13 1335.57,-251.65 1380.88,-199.5 1417.72,-157.09 1578.75,-149.48 1671.12,-148.69"/>
<polygon fill="#63b8ff" stroke="#63b8ff" points="1526.28,-280.22 1536.52,-277.49 1526.81,-273.24 1526.28,-280.22"/>
</a>
</g>
</g>
<!-- Node29 -->
<g id="Node000029" class="node">
<title>Node29</title>
<g id="a_Node000029"><a xlink:href="../../de/d8e/deferred-resolve_8hpp.html" target="_top" xlink:title=" ">
<polygon fill="white" stroke="#666666" points="1919.25,-230 1806.5,-230 1806.5,-199.5 1919.25,-199.5 1919.25,-230"/>
<text text-anchor="start" x="1814.5" y="-216.5" font-family="Helvetica,sans-Serif" font-size="10.00">engine/render/deferred</text>
<text text-anchor="middle" x="1862.88" y="-205.25" font-family="Helvetica,sans-Serif" font-size="10.00">&#45;resolve.hpp</text>
</a>
</g>
</g>
<!-- Node28&#45;&gt;Node29 -->
<g id="edge39_Node000028_Node000029" class="edge">
<title>Node28&#45;&gt;Node29</title>
<g id="a_edge39_Node000028_Node000029"><a xlink:title=" ">
<path fill="none" stroke="#63b8ff" d="M1672.84,-262.89C1714.57,-252.54 1766.87,-239.57 1806.04,-229.85"/>
<polygon fill="#63b8ff" stroke="#63b8ff" points="1672.06,-259.73 1663.2,-265.53 1673.75,-266.52 1672.06,-259.73"/>
</a>
</g>
</g>
<!-- Node31 -->
<g id="Node000031" class="node">
<title>Node31</title>
<g id="a_Node000031"><a xlink:href="../../d2/deb/hdr-to-ldr-layer_8hpp.html" target="_top" xlink:title=" ">
<polygon fill="white" stroke="#666666" points="1788,-230 1685.75,-230 1685.75,-199.5 1788,-199.5 1788,-230"/>
<text text-anchor="start" x="1693.75" y="-216.5" font-family="Helvetica,sans-Serif" font-size="10.00">engine/render/hdr&#45;to</text>
<text text-anchor="middle" x="1736.88" y="-205.25" font-family="Helvetica,sans-Serif" font-size="10.00">&#45;ldr&#45;layer.hpp</text>
</a>
</g>
</g>
<!-- Node28&#45;&gt;Node31 -->
<g id="edge42_Node000028_Node000031" class="edge">
<title>Node28&#45;&gt;Node31</title>
<g id="a_edge42_Node000028_Node000031"><a xlink:title=" ">
<path fill="none" stroke="#63b8ff" d="M1642.94,-260.97C1663.35,-251.14 1687.77,-239.39 1706.59,-230.33"/>
<polygon fill="#63b8ff" stroke="#63b8ff" points="1641.77,-258.12 1634.28,-265.61 1644.81,-264.43 1641.77,-258.12"/>
</a>
</g>
</g>
<!-- Node32 -->
<g id="Node000032" class="node">
<title>Node32</title>
<g id="a_Node000032"><a xlink:href="../../da/d7b/present-swapchain_8hpp.html" target="_top" xlink:title=" ">
<polygon fill="white" stroke="#666666" points="2046.75,-230 1937,-230 1937,-199.5 2046.75,-199.5 2046.75,-230"/>
<text text-anchor="start" x="1945" y="-216.5" font-family="Helvetica,sans-Serif" font-size="10.00">engine/render/present</text>
<text text-anchor="middle" x="1991.88" y="-205.25" font-family="Helvetica,sans-Serif" font-size="10.00">&#45;swapchain.hpp</text>
</a>
</g>
</g>
<!-- Node28&#45;&gt;Node32 -->
<g id="edge44_Node000028_Node000032" class="edge">
<title>Node28&#45;&gt;Node32</title>
<g id="a_edge44_Node000028_Node000032"><a xlink:title=" ">
<path fill="none" stroke="#63b8ff" d="M1678.86,-269.94C1744.88,-260.64 1842.97,-246 1927.88,-230 1930.78,-229.45 1933.76,-228.87 1936.76,-228.26"/>
<polygon fill="#63b8ff" stroke="#63b8ff" points="1678.56,-266.59 1669.14,-271.44 1679.53,-273.52 1678.56,-266.59"/>
</a>
</g>
</g>
<!-- Node33 -->
<g id="Node000033" class="node">
<title>Node33</title>
<g id="a_Node000033"><a xlink:href="../../d1/d3c/post-processing_8cpp.html" target="_top" xlink:title=" ">
<polygon fill="white" stroke="#666666" points="1519.88,-230 1389.88,-230 1389.88,-199.5 1519.88,-199.5 1519.88,-230"/>
<text text-anchor="start" x="1397.88" y="-216.5" font-family="Helvetica,sans-Serif" font-size="10.00">engine/subsystems/render</text>
<text text-anchor="middle" x="1454.88" y="-205.25" font-family="Helvetica,sans-Serif" font-size="10.00">/post&#45;processing.cpp</text>
</a>
</g>
</g>
<!-- Node28&#45;&gt;Node33 -->
<g id="edge47_Node000028_Node000033" class="edge">
<title>Node28&#45;&gt;Node33</title>
<g id="a_edge47_Node000028_Node000033"><a xlink:title=" ">
<path fill="none" stroke="#63b8ff" d="M1559.28,-261.25C1536.69,-251.41 1509.54,-239.57 1488.58,-230.44"/>
<polygon fill="#63b8ff" stroke="#63b8ff" points="1557.73,-264.83 1568.29,-265.61 1560.52,-258.41 1557.73,-264.83"/>
</a>
</g>
</g>
<!-- Node34 -->
<g id="Node000034" class="node">
<title>Node34</title>
<g id="a_Node000034"><a xlink:href="../../d3/de4/post-processing_8inl.html" target="_top" xlink:title=" ">
<polygon fill="white" stroke="#666666" points="1667.88,-230 1537.88,-230 1537.88,-199.5 1667.88,-199.5 1667.88,-230"/>
<text text-anchor="start" x="1545.88" y="-216.5" font-family="Helvetica,sans-Serif" font-size="10.00">engine/subsystems/render</text>
<text text-anchor="middle" x="1602.88" y="-205.25" font-family="Helvetica,sans-Serif" font-size="10.00">/post&#45;processing.inl</text>
</a>
</g>
</g>
<!-- Node28&#45;&gt;Node34 -->
<g id="edge48_Node000028_Node000034" class="edge">
<title>Node28&#45;&gt;Node34</title>
<g id="a_edge48_Node000028_Node000034"><a xlink:title=" ">
<path fill="none" stroke="#63b8ff" d="M1596.26,-254.88C1595.92,-246.55 1596.21,-237.58 1597.12,-230.33"/>
<polygon fill="#63b8ff" stroke="#63b8ff" points="1592.84,-254.92 1597.11,-264.61 1599.81,-254.37 1592.84,-254.92"/>
</a>
</g>
</g>
<!-- Node29&#45;&gt;Node27 -->
<g id="edge40_Node000029_Node000027" class="edge">
<title>Node29&#45;&gt;Node27</title>
<g id="a_edge40_Node000029_Node000027"><a xlink:title=" ">
<path fill="none" stroke="#63b8ff" d="M1824.68,-194.2C1805.59,-184.43 1782.89,-172.81 1765.35,-163.83"/>
<polygon fill="#63b8ff" stroke="#63b8ff" points="1822.79,-197.67 1833.28,-199.11 1825.98,-191.44 1822.79,-197.67"/>
</a>
</g>
</g>
<!-- Node30 -->
<g id="Node000030" class="node">
<title>Node30</title>
<g id="a_Node000030"><a xlink:href="../../d4/d7c/deferred-resolve_8cpp.html" target="_top" xlink:title=" ">
<polygon fill="white" stroke="#666666" points="1933.25,-163.5 1820.5,-163.5 1820.5,-133 1933.25,-133 1933.25,-163.5"/>
<text text-anchor="start" x="1828.5" y="-150" font-family="Helvetica,sans-Serif" font-size="10.00">engine/render/deferred</text>
<text text-anchor="middle" x="1876.88" y="-138.75" font-family="Helvetica,sans-Serif" font-size="10.00">&#45;resolve.cpp</text>
</a>
</g>
</g>
<!-- Node29&#45;&gt;Node30 -->
<g id="edge41_Node000029_Node000030" class="edge">
<title>Node29&#45;&gt;Node30</title>
<g id="a_edge41_Node000029_Node000030"><a xlink:title=" ">
<path fill="none" stroke="#63b8ff" d="M1868.38,-188.38C1870.19,-180.05 1872.14,-171.08 1873.71,-163.83"/>
<polygon fill="#63b8ff" stroke="#63b8ff" points="1864.75,-187.6 1866.05,-198.11 1871.59,-189.08 1864.75,-187.6"/>
</a>
</g>
</g>
<!-- Node31&#45;&gt;Node27 -->
<g id="edge43_Node000031_Node000027" class="edge">
<title>Node31&#45;&gt;Node27</title>
<g id="a_edge43_Node000031_Node000027"><a xlink:title=" ">
<path fill="none" stroke="#63b8ff" d="M1736.88,-188.38C1736.88,-180.05 1736.88,-171.08 1736.88,-163.83"/>
<polygon fill="#63b8ff" stroke="#63b8ff" points="1733.38,-188.11 1736.88,-198.11 1740.38,-188.11 1733.38,-188.11"/>
</a>
</g>
</g>
<!-- Node32&#45;&gt;Node9 -->
<g id="edge45_Node000032_Node000009" class="edge">
<title>Node32&#45;&gt;Node9</title>
<g id="a_edge45_Node000032_Node000009"><a xlink:title=" ">
<path fill="none" stroke="#63b8ff" d="M1989.39,-188.57C1985.35,-156.09 1975.29,-98.62 1951.88,-55.25 1944.18,-40.99 1930.9,-27.74 1921.55,-19.44"/>
<polygon fill="#63b8ff" stroke="#63b8ff" points="1986.01,-188.8 1990.62,-198.34 1992.96,-188 1986.01,-188.8"/>
</a>
</g>
</g>
<!-- Node32&#45;&gt;Node27 -->
<g id="edge46_Node000032_Node000027" class="edge">
<title>Node32&#45;&gt;Node27</title>
<g id="a_edge46_Node000032_Node000027"><a xlink:title=" ">
<path fill="none" stroke="#63b8ff" d="M1925.94,-197.07C1885.33,-186.8 1833.77,-173.76 1794.75,-163.89"/>
<polygon fill="#63b8ff" stroke="#63b8ff" points="1924.99,-200.7 1935.54,-199.75 1926.71,-193.91 1924.99,-200.7"/>
</a>
</g>
</g>
<!-- Node34&#45;&gt;Node28 -->
<g id="edge49_Node000034_Node000028" class="edge">
<title>Node34&#45;&gt;Node28</title>
<g id="a_edge49_Node000034_Node000028"><a xlink:title=" ">
<path fill="none" stroke="#63b8ff" d="M1609.48,-241.06C1609.83,-249.38 1609.54,-258.36 1608.64,-265.61"/>
<polygon fill="#63b8ff" stroke="#63b8ff" points="1612.91,-241.02 1608.63,-231.33 1605.93,-241.57 1612.91,-241.02"/>
</a>
</g>
</g>
</g>
</svg>
