<?xml version="1.0" encoding="UTF-8" standalone="no"?>
<!DOCTYPE svg PUBLIC "-//W3C//DTD SVG 1.1//EN"
 "http://www.w3.org/Graphics/SVG/1.1/DTD/svg11.dtd">
<!-- Generated by graphviz version 9.0.0 (20230911.1827)
 -->
<!-- Title: engine/utils/detail/debug_without_source_location.hpp Pages: 1 -->
<!--zoomable 238 -->

<svg id="main" version="1.1" xmlns="http://www.w3.org/2000/svg" xmlns:xlink="http://www.w3.org/1999/xlink" xml:space="preserve" onload="init(evt)">
<style type="text/css"><![CDATA[
.node, .edge {opacity: 0.7;}
.node.selected, .edge.selected {opacity: 1;}
.edge:hover path { stroke: red; }
.edge:hover polygon { stroke: red; fill: red; }
]]></style>

<defs>
  <circle id="rim" cx="0" cy="0" r="7"/>
  <circle id="rim2" cx="0" cy="0" r="3.5"/>
  <g id="zoomPlus">
    <use xlink:href="#rim" fill="#404040"><set attributeName="fill" to="#808080" begin="zoomplus.mouseover" end="zoomplus.mouseout"/></use>
    <path d="M-4,0h8M0,-4v8" fill="none" stroke="white" stroke-width="1.5" pointer-events="none"/>
  </g>
  <g id="zoomMin">
    <use xlink:href="#rim" fill="#404040"><set attributeName="fill" to="#808080" begin="zoomminus.mouseover" end="zoomminus.mouseout"/></use>
    <path d="M-4,0h8" fill="none" stroke="white" stroke-width="1.5" pointer-events="none"/>
  </g>
  <g id="arrowUp" transform="translate(30 24)">
    <use xlink:href="#rim"/>
    <path pointer-events="none" fill="none" stroke="white" stroke-width="1.5" d="M0,-3.0v7 M-2.5,-0.5L0,-3.0L2.5,-0.5"/>
  </g>
  <g id="arrowRight" transform="rotate(90) translate(36 -43)">
    <use xlink:href="#rim"/>
    <path pointer-events="none" fill="none" stroke="white" stroke-width="1.5" d="M0,-3.0v7 M-2.5,-0.5L0,-3.0L2.5,-0.5"/>
  </g>
  <g id="arrowDown" transform="rotate(180) translate(-30 -48)">
    <use xlink:href="#rim"/>
    <path pointer-events="none" fill="none" stroke="white" stroke-width="1.5" d="M0,-3.0v7 M-2.5,-0.5L0,-3.0L2.5,-0.5"/>
  </g>
  <g id="arrowLeft" transform="rotate(270) translate(-36 17)">
    <use xlink:href="#rim"/>
    <path pointer-events="none" fill="none" stroke="white" stroke-width="1.5" d="M0,-3.0v7 M-2.5,-0.5L0,-3.0L2.5,-0.5"/>
  </g>
  <g id="resetDef">
    <use xlink:href="#rim2" fill="#404040"><set attributeName="fill" to="#808080" begin="reset.mouseover" end="reset.mouseout"/></use>
  </g>
</defs>
<script type="application/ecmascript">
var viewWidth = 3414;
var viewHeight = 238;
var sectionId = 'dynsection-0';
</script>
<script type="application/ecmascript" xlink:href="../../svg.min.js"/>
<svg id="graph" class="graph">
<g id="viewport">
<title>engine/utils/detail/debug_without_source_location.hpp</title>
<!-- Node1 -->
<g id="Node000001" class="node">
<title>Node1</title>
<g id="a_Node000001"><a xlink:title=" ">
<polygon fill="#999999" stroke="#666666" points="3103.25,-230 2986.75,-230 2986.75,-188.25 3103.25,-188.25 3103.25,-230"/>
<text text-anchor="start" x="2994.75" y="-216.5" font-family="Helvetica,sans-Serif" font-size="10.00">engine/utils/detail</text>
<text text-anchor="start" x="2994.75" y="-205.25" font-family="Helvetica,sans-Serif" font-size="10.00">/debug_without_source</text>
<text text-anchor="middle" x="3045" y="-194" font-family="Helvetica,sans-Serif" font-size="10.00">_location.hpp</text>
</a>
</g>
</g>
<!-- Node2 -->
<g id="Node000002" class="node">
<title>Node2</title>
<g id="a_Node000002"><a xlink:href="../../da/d7b/debug_8hpp.html" target="_top" xlink:title=" ">
<polygon fill="white" stroke="#666666" points="3078.88,-152.25 3011.12,-152.25 3011.12,-133 3078.88,-133 3078.88,-152.25"/>
<text text-anchor="middle" x="3045" y="-138.75" font-family="Helvetica,sans-Serif" font-size="10.00">../debug.hpp</text>
</a>
</g>
</g>
<!-- Node1&#45;&gt;Node2 -->
<g id="edge1_Node000001_Node000002" class="edge">
<title>Node1&#45;&gt;Node2</title>
<g id="a_edge1_Node000001_Node000002"><a xlink:title=" ">
<path fill="none" stroke="#63b8ff" d="M3045,-188.07C3045,-180.4 3045,-171.64 3045,-163.95"/>
<polygon fill="#63b8ff" stroke="#63b8ff" points="3048.5,-164.21 3045,-154.21 3041.5,-164.21 3048.5,-164.21"/>
</a>
</g>
</g>
<!-- Node3 -->
<g id="Node000003" class="node">
<title>Node3</title>
<g id="a_Node000003"><a xlink:href="../../db/d6e/library-pch_8hpp.html" target="_top" xlink:title=" ">
<polygon fill="white" stroke="#666666" points="1365,-91.38 1253,-91.38 1253,-72.12 1365,-72.12 1365,-91.38"/>
<text text-anchor="middle" x="1309" y="-77.88" font-family="Helvetica,sans-Serif" font-size="10.00">include/library&#45;pch.hpp</text>
</a>
</g>
</g>
<!-- Node2&#45;&gt;Node3 -->
<g id="edge2_Node000002_Node000003" class="edge">
<title>Node2&#45;&gt;Node3</title>
<g id="a_edge2_Node000002_Node000003"><a xlink:title=" ">
<path fill="none" stroke="#63b8ff" d="M3010.71,-140.46C2798.69,-133.27 1665.8,-94.85 1376.37,-85.03"/>
<polygon fill="#63b8ff" stroke="#63b8ff" points="1376.85,-81.55 1366.73,-84.71 1376.61,-88.55 1376.85,-81.55"/>
</a>
</g>
</g>
<!-- Node41 -->
<g id="Node000041" class="node">
<title>Node41</title>
<g id="a_Node000041"><a xlink:href="../../dd/db5/spdlog_8hpp.html" target="_top" xlink:title=" ">
<polygon fill="white" stroke="#666666" points="3029.12,-91.38 2932.88,-91.38 2932.88,-72.12 3029.12,-72.12 3029.12,-91.38"/>
<text text-anchor="middle" x="2981" y="-77.88" font-family="Helvetica,sans-Serif" font-size="10.00">include/spdlog.hpp</text>
</a>
</g>
</g>
<!-- Node2&#45;&gt;Node41 -->
<g id="edge41_Node000002_Node000041" class="edge">
<title>Node2&#45;&gt;Node41</title>
<g id="a_edge41_Node000002_Node000041"><a xlink:title=" ">
<path fill="none" stroke="#63b8ff" d="M3035.28,-132.68C3025.69,-123.87 3010.81,-110.18 2999.06,-99.36"/>
<polygon fill="#63b8ff" stroke="#63b8ff" points="3001.65,-97 2991.93,-92.8 2996.92,-102.15 3001.65,-97"/>
</a>
</g>
</g>
<!-- Node49 -->
<g id="Node000049" class="node">
<title>Node49</title>
<g id="a_Node000049"><a xlink:href="../../da/d43/debug__with__source__location_8hpp.html" target="_top" xlink:title=" ">
<polygon fill="white" stroke="#666666" points="3173.12,-97 3046.88,-97 3046.88,-66.5 3173.12,-66.5 3173.12,-97"/>
<text text-anchor="start" x="3054.88" y="-83.5" font-family="Helvetica,sans-Serif" font-size="10.00">detail/debug_with_source</text>
<text text-anchor="middle" x="3110" y="-72.25" font-family="Helvetica,sans-Serif" font-size="10.00">_location.hpp</text>
</a>
</g>
</g>
<!-- Node2&#45;&gt;Node49 -->
<g id="edge49_Node000002_Node000049" class="edge">
<title>Node2&#45;&gt;Node49</title>
<g id="a_edge49_Node000002_Node000049"><a xlink:title=" ">
<path fill="none" stroke="#63b8ff" d="M3049.86,-132.68C3056.56,-125.2 3068.19,-114.2 3079.52,-104.43"/>
<polygon fill="#63b8ff" stroke="#63b8ff" points="3081.47,-107.37 3086.88,-98.26 3076.97,-102 3081.47,-107.37"/>
</a>
</g>
</g>
<!-- Node4 -->
<g id="Node000004" class="node">
<title>Node4</title>
<g id="a_Node000004"><a xlink:title=" ">
<polygon fill="#e0e0e0" stroke="#999999" points="70,-24.88 0,-24.88 0,-5.63 70,-5.63 70,-24.88"/>
<text text-anchor="middle" x="35" y="-11.38" font-family="Helvetica,sans-Serif" font-size="10.00">entt/entt.hpp</text>
</a>
</g>
</g>
<!-- Node3&#45;&gt;Node4 -->
<g id="edge3_Node000003_Node000004" class="edge">
<title>Node3&#45;&gt;Node4</title>
<g id="a_edge3_Node000003_Node000004"><a xlink:title=" ">
<path fill="none" stroke="#63b8ff" d="M1252.71,-80.48C1043.22,-79.16 308.97,-71.64 79,-30.5 75.99,-29.96 72.9,-29.27 69.83,-28.48"/>
<polygon fill="#63b8ff" stroke="#63b8ff" points="70.94,-25.16 60.36,-25.72 68.98,-31.88 70.94,-25.16"/>
</a>
</g>
</g>
<!-- Node5 -->
<g id="Node000005" class="node">
<title>Node5</title>
<g id="a_Node000005"><a xlink:title=" ">
<polygon fill="#e0e0e0" stroke="#999999" points="143.88,-24.88 88.12,-24.88 88.12,-5.63 143.88,-5.63 143.88,-24.88"/>
<text text-anchor="middle" x="116" y="-11.38" font-family="Helvetica,sans-Serif" font-size="10.00">algorithm</text>
</a>
</g>
</g>
<!-- Node3&#45;&gt;Node5 -->
<g id="edge4_Node000003_Node000005" class="edge">
<title>Node3&#45;&gt;Node5</title>
<g id="a_edge4_Node000003_Node000005"><a xlink:title=" ">
<path fill="none" stroke="#63b8ff" d="M1252.53,-80.78C1050.7,-80.49 365.72,-76.09 152,-30.5 150.1,-30.1 148.17,-29.6 146.25,-29.04"/>
<polygon fill="#63b8ff" stroke="#63b8ff" points="147.46,-25.76 136.87,-25.8 145.18,-32.37 147.46,-25.76"/>
</a>
</g>
</g>
<!-- Node6 -->
<g id="Node000006" class="node">
<title>Node6</title>
<g id="a_Node000006"><a xlink:title=" ">
<polygon fill="#e0e0e0" stroke="#999999" points="198.5,-24.88 161.5,-24.88 161.5,-5.63 198.5,-5.63 198.5,-24.88"/>
<text text-anchor="middle" x="180" y="-11.38" font-family="Helvetica,sans-Serif" font-size="10.00">array</text>
</a>
</g>
</g>
<!-- Node3&#45;&gt;Node6 -->
<g id="edge5_Node000003_Node000006" class="edge">
<title>Node3&#45;&gt;Node6</title>
<g id="a_edge5_Node000003_Node000006"><a xlink:title=" ">
<path fill="none" stroke="#63b8ff" d="M1252.76,-81.31C1057.25,-82.76 408.27,-83.39 208,-30.5 207.17,-30.28 206.34,-30.03 205.5,-29.77"/>
<polygon fill="#63b8ff" stroke="#63b8ff" points="206.91,-26.56 196.33,-25.91 204.19,-33.01 206.91,-26.56"/>
</a>
</g>
</g>
<!-- Node7 -->
<g id="Node000007" class="node">
<title>Node7</title>
<g id="a_Node000007"><a xlink:title=" ">
<polygon fill="#e0e0e0" stroke="#999999" points="267.25,-24.88 216.75,-24.88 216.75,-5.63 267.25,-5.63 267.25,-24.88"/>
<text text-anchor="middle" x="242" y="-11.38" font-family="Helvetica,sans-Serif" font-size="10.00">assert.h</text>
</a>
</g>
</g>
<!-- Node3&#45;&gt;Node7 -->
<g id="edge6_Node000003_Node000007" class="edge">
<title>Node3&#45;&gt;Node7</title>
<g id="a_edge6_Node000003_Node000007"><a xlink:title=" ">
<path fill="none" stroke="#63b8ff" d="M1252.81,-80.58C1065.61,-79.61 464.36,-73.16 276,-30.5 274.36,-30.13 272.7,-29.68 271.04,-29.18"/>
<polygon fill="#63b8ff" stroke="#63b8ff" points="272.34,-25.93 261.74,-25.81 269.95,-32.51 272.34,-25.93"/>
</a>
</g>
</g>
<!-- Node8 -->
<g id="Node000008" class="node">
<title>Node8</title>
<g id="a_Node000008"><a xlink:title=" ">
<polygon fill="#e0e0e0" stroke="#999999" points="330.62,-24.88 285.38,-24.88 285.38,-5.63 330.62,-5.63 330.62,-24.88"/>
<text text-anchor="middle" x="308" y="-11.38" font-family="Helvetica,sans-Serif" font-size="10.00">chrono</text>
</a>
</g>
</g>
<!-- Node3&#45;&gt;Node8 -->
<g id="edge7_Node000003_Node000008" class="edge">
<title>Node3&#45;&gt;Node8</title>
<g id="a_edge7_Node000003_Node000008"><a xlink:title=" ">
<path fill="none" stroke="#63b8ff" d="M1252.76,-80.62C1073.01,-79.75 514,-73.57 339,-30.5 337.79,-30.2 336.57,-29.86 335.35,-29.48"/>
<polygon fill="#63b8ff" stroke="#63b8ff" points="336.63,-26.22 326.04,-25.84 334.09,-32.74 336.63,-26.22"/>
</a>
</g>
</g>
<!-- Node9 -->
<g id="Node000009" class="node">
<title>Node9</title>
<g id="a_Node000009"><a xlink:title=" ">
<polygon fill="#e0e0e0" stroke="#999999" points="391.5,-24.88 348.5,-24.88 348.5,-5.63 391.5,-5.63 391.5,-24.88"/>
<text text-anchor="middle" x="370" y="-11.38" font-family="Helvetica,sans-Serif" font-size="10.00">cmath</text>
</a>
</g>
</g>
<!-- Node3&#45;&gt;Node9 -->
<g id="edge8_Node000003_Node000009" class="edge">
<title>Node3&#45;&gt;Node9</title>
<g id="a_edge8_Node000003_Node000009"><a xlink:title=" ">
<path fill="none" stroke="#63b8ff" d="M1252.67,-80.48C1080.41,-79.19 562.55,-71.89 400,-30.5 398.83,-30.2 397.64,-29.86 396.46,-29.47"/>
<polygon fill="#63b8ff" stroke="#63b8ff" points="398.06,-26.34 387.48,-25.85 395.44,-32.84 398.06,-26.34"/>
</a>
</g>
</g>
<!-- Node10 -->
<g id="Node000010" class="node">
<title>Node10</title>
<g id="a_Node000010"><a xlink:title=" ">
<polygon fill="#e0e0e0" stroke="#999999" points="464.88,-24.88 409.12,-24.88 409.12,-5.63 464.88,-5.63 464.88,-24.88"/>
<text text-anchor="middle" x="437" y="-11.38" font-family="Helvetica,sans-Serif" font-size="10.00">concepts</text>
</a>
</g>
</g>
<!-- Node3&#45;&gt;Node10 -->
<g id="edge9_Node000003_Node000010" class="edge">
<title>Node3&#45;&gt;Node10</title>
<g id="a_edge9_Node000003_Node000010"><a xlink:title=" ">
<path fill="none" stroke="#63b8ff" d="M1252.53,-79.61C1089.99,-75.96 623.1,-62.88 474,-30.5 471.97,-30.06 469.9,-29.52 467.84,-28.92"/>
<polygon fill="#63b8ff" stroke="#63b8ff" points="469.04,-25.63 458.44,-25.73 466.79,-32.26 469.04,-25.63"/>
</a>
</g>
</g>
<!-- Node11 -->
<g id="Node000011" class="node">
<title>Node11</title>
<g id="a_Node000011"><a xlink:title=" ">
<polygon fill="#e0e0e0" stroke="#999999" points="577,-24.88 483,-24.88 483,-5.63 577,-5.63 577,-24.88"/>
<text text-anchor="middle" x="530" y="-11.38" font-family="Helvetica,sans-Serif" font-size="10.00">condition_variable</text>
</a>
</g>
</g>
<!-- Node3&#45;&gt;Node11 -->
<g id="edge10_Node000003_Node000011" class="edge">
<title>Node3&#45;&gt;Node11</title>
<g id="a_edge10_Node000003_Node000011"><a xlink:title=" ">
<path fill="none" stroke="#63b8ff" d="M1252.82,-80.27C1130.71,-78.49 832.29,-70.06 586,-30.5 581.61,-29.8 577.07,-28.91 572.55,-27.92"/>
<polygon fill="#63b8ff" stroke="#63b8ff" points="573.49,-24.55 562.95,-25.66 571.89,-31.36 573.49,-24.55"/>
</a>
</g>
</g>
<!-- Node12 -->
<g id="Node000012" class="node">
<title>Node12</title>
<g id="a_Node000012"><a xlink:title=" ">
<polygon fill="#e0e0e0" stroke="#999999" points="640.62,-24.88 595.38,-24.88 595.38,-5.63 640.62,-5.63 640.62,-24.88"/>
<text text-anchor="middle" x="618" y="-11.38" font-family="Helvetica,sans-Serif" font-size="10.00">cstdint</text>
</a>
</g>
</g>
<!-- Node3&#45;&gt;Node12 -->
<g id="edge11_Node000003_Node000012" class="edge">
<title>Node3&#45;&gt;Node12</title>
<g id="a_edge11_Node000003_Node000012"><a xlink:title=" ">
<path fill="none" stroke="#63b8ff" d="M1252.52,-78.92C1114.57,-74.06 763.47,-59.17 650,-30.5 648.64,-30.16 647.27,-29.76 645.89,-29.32"/>
<polygon fill="#63b8ff" stroke="#63b8ff" points="647.56,-26.21 636.97,-25.9 645.05,-32.75 647.56,-26.21"/>
</a>
</g>
</g>
<!-- Node13 -->
<g id="Node000013" class="node">
<title>Node13</title>
<g id="a_Node000013"><a xlink:title=" ">
<polygon fill="#e0e0e0" stroke="#999999" points="703.25,-24.88 658.75,-24.88 658.75,-5.63 703.25,-5.63 703.25,-24.88"/>
<text text-anchor="middle" x="681" y="-11.38" font-family="Helvetica,sans-Serif" font-size="10.00">cstdlib</text>
</a>
</g>
</g>
<!-- Node3&#45;&gt;Node13 -->
<g id="edge12_Node000003_Node000013" class="edge">
<title>Node3&#45;&gt;Node13</title>
<g id="a_edge12_Node000003_Node000013"><a xlink:title=" ">
<path fill="none" stroke="#63b8ff" d="M1252.65,-78.49C1124.24,-72.95 813.21,-57.15 712,-30.5 710.83,-30.19 709.64,-29.84 708.45,-29.46"/>
<polygon fill="#63b8ff" stroke="#63b8ff" points="709.98,-26.3 699.39,-25.89 707.42,-32.81 709.98,-26.3"/>
</a>
</g>
</g>
<!-- Node14 -->
<g id="Node000014" class="node">
<title>Node14</title>
<g id="a_Node000014"><a xlink:title=" ">
<polygon fill="#e0e0e0" stroke="#999999" points="780.75,-24.88 721.25,-24.88 721.25,-5.63 780.75,-5.63 780.75,-24.88"/>
<text text-anchor="middle" x="751" y="-11.38" font-family="Helvetica,sans-Serif" font-size="10.00">filesystem</text>
</a>
</g>
</g>
<!-- Node3&#45;&gt;Node14 -->
<g id="edge13_Node000003_Node000014" class="edge">
<title>Node3&#45;&gt;Node14</title>
<g id="a_edge13_Node000003_Node000014"><a xlink:title=" ">
<path fill="none" stroke="#63b8ff" d="M1252.82,-80.12C1156.61,-77.99 954.68,-68.86 789,-30.5 786.98,-30.03 784.92,-29.48 782.85,-28.88"/>
<polygon fill="#63b8ff" stroke="#63b8ff" points="784.03,-25.58 773.44,-25.72 781.81,-32.22 784.03,-25.58"/>
</a>
</g>
</g>
<!-- Node15 -->
<g id="Node000015" class="node">
<title>Node15</title>
<g id="a_Node000015"><a xlink:title=" ">
<polygon fill="#e0e0e0" stroke="#999999" points="847.5,-24.88 798.5,-24.88 798.5,-5.63 847.5,-5.63 847.5,-24.88"/>
<text text-anchor="middle" x="823" y="-11.38" font-family="Helvetica,sans-Serif" font-size="10.00">fstream</text>
</a>
</g>
</g>
<!-- Node3&#45;&gt;Node15 -->
<g id="edge14_Node000003_Node000015" class="edge">
<title>Node3&#45;&gt;Node15</title>
<g id="a_edge14_Node000003_Node000015"><a xlink:title=" ">
<path fill="none" stroke="#63b8ff" d="M1252.75,-79.64C1166.34,-76.78 996.29,-66.63 857,-30.5 855.61,-30.14 854.19,-29.73 852.78,-29.29"/>
<polygon fill="#63b8ff" stroke="#63b8ff" points="854.1,-26.04 843.51,-25.89 851.7,-32.62 854.1,-26.04"/>
</a>
</g>
</g>
<!-- Node16 -->
<g id="Node000016" class="node">
<title>Node16</title>
<g id="a_Node000016"><a xlink:title=" ">
<polygon fill="#e0e0e0" stroke="#999999" points="924,-24.88 866,-24.88 866,-5.63 924,-5.63 924,-24.88"/>
<text text-anchor="middle" x="895" y="-11.38" font-family="Helvetica,sans-Serif" font-size="10.00">functional</text>
</a>
</g>
</g>
<!-- Node3&#45;&gt;Node16 -->
<g id="edge15_Node000003_Node000016" class="edge">
<title>Node3&#45;&gt;Node16</title>
<g id="a_edge15_Node000003_Node000016"><a xlink:title=" ">
<path fill="none" stroke="#63b8ff" d="M1252.51,-77.19C1178.29,-71.62 1044.31,-58.43 933,-30.5 931.12,-30.03 929.21,-29.49 927.29,-28.92"/>
<polygon fill="#63b8ff" stroke="#63b8ff" points="928.46,-25.62 917.87,-25.73 926.22,-32.25 928.46,-25.62"/>
</a>
</g>
</g>
<!-- Node17 -->
<g id="Node000017" class="node">
<title>Node17</title>
<g id="a_Node000017"><a xlink:title=" ">
<polygon fill="#e0e0e0" stroke="#999999" points="991.88,-24.88 942.12,-24.88 942.12,-5.63 991.88,-5.63 991.88,-24.88"/>
<text text-anchor="middle" x="967" y="-11.38" font-family="Helvetica,sans-Serif" font-size="10.00">iomanip</text>
</a>
</g>
</g>
<!-- Node3&#45;&gt;Node17 -->
<g id="edge16_Node000003_Node000017" class="edge">
<title>Node3&#45;&gt;Node17</title>
<g id="a_edge16_Node000003_Node000017"><a xlink:title=" ">
<path fill="none" stroke="#63b8ff" d="M1252.77,-75.59C1190.35,-68.94 1087.06,-55.18 1001,-30.5 999.65,-30.11 998.28,-29.69 996.91,-29.23"/>
<polygon fill="#63b8ff" stroke="#63b8ff" points="998.5,-26.09 987.91,-25.87 996.05,-32.65 998.5,-26.09"/>
</a>
</g>
</g>
<!-- Node18 -->
<g id="Node000018" class="node">
<title>Node18</title>
<g id="a_Node000018"><a xlink:title=" ">
<polygon fill="#e0e0e0" stroke="#999999" points="1058.12,-24.88 1009.88,-24.88 1009.88,-5.63 1058.12,-5.63 1058.12,-24.88"/>
<text text-anchor="middle" x="1034" y="-11.38" font-family="Helvetica,sans-Serif" font-size="10.00">istream</text>
</a>
</g>
</g>
<!-- Node3&#45;&gt;Node18 -->
<g id="edge17_Node000003_Node000018" class="edge">
<title>Node3&#45;&gt;Node18</title>
<g id="a_edge17_Node000003_Node000018"><a xlink:title=" ">
<path fill="none" stroke="#63b8ff" d="M1252.91,-72.42C1203.33,-64.28 1129.39,-50.22 1067,-30.5 1066.01,-30.19 1065.01,-29.86 1064.01,-29.51"/>
<polygon fill="#63b8ff" stroke="#63b8ff" points="1065.29,-26.25 1054.71,-25.9 1062.77,-32.78 1065.29,-26.25"/>
</a>
</g>
</g>
<!-- Node19 -->
<g id="Node000019" class="node">
<title>Node19</title>
<g id="a_Node000019"><a xlink:title=" ">
<polygon fill="#e0e0e0" stroke="#999999" points="1115.62,-24.88 1076.38,-24.88 1076.38,-5.63 1115.62,-5.63 1115.62,-24.88"/>
<text text-anchor="middle" x="1096" y="-11.38" font-family="Helvetica,sans-Serif" font-size="10.00">limits</text>
</a>
</g>
</g>
<!-- Node3&#45;&gt;Node19 -->
<g id="edge18_Node000003_Node000019" class="edge">
<title>Node3&#45;&gt;Node19</title>
<g id="a_edge18_Node000003_Node000019"><a xlink:title=" ">
<path fill="none" stroke="#63b8ff" d="M1266.99,-71.68C1229.22,-62.97 1172.54,-48.49 1125,-30.5 1124.38,-30.26 1123.75,-30.02 1123.12,-29.77"/>
<polygon fill="#63b8ff" stroke="#63b8ff" points="1124.88,-26.72 1114.32,-25.86 1122.03,-33.12 1124.88,-26.72"/>
</a>
</g>
</g>
<!-- Node20 -->
<g id="Node000020" class="node">
<title>Node20</title>
<g id="a_Node000020"><a xlink:title=" ">
<polygon fill="#e0e0e0" stroke="#999999" points="1168.38,-24.88 1133.62,-24.88 1133.62,-5.63 1168.38,-5.63 1168.38,-24.88"/>
<text text-anchor="middle" x="1151" y="-11.38" font-family="Helvetica,sans-Serif" font-size="10.00">map</text>
</a>
</g>
</g>
<!-- Node3&#45;&gt;Node20 -->
<g id="edge19_Node000003_Node000020" class="edge">
<title>Node3&#45;&gt;Node20</title>
<g id="a_edge19_Node000003_Node000020"><a xlink:title=" ">
<path fill="none" stroke="#63b8ff" d="M1282.52,-71.64C1255.79,-62.21 1213.49,-46.6 1178,-30.5 1177.89,-30.45 1177.78,-30.4 1177.67,-30.35"/>
<polygon fill="#63b8ff" stroke="#63b8ff" points="1179.29,-27.24 1168.77,-25.98 1176.2,-33.53 1179.29,-27.24"/>
</a>
</g>
</g>
<!-- Node21 -->
<g id="Node000021" class="node">
<title>Node21</title>
<g id="a_Node000021"><a xlink:title=" ">
<polygon fill="#e0e0e0" stroke="#999999" points="1237.25,-24.88 1186.75,-24.88 1186.75,-5.63 1237.25,-5.63 1237.25,-24.88"/>
<text text-anchor="middle" x="1212" y="-11.38" font-family="Helvetica,sans-Serif" font-size="10.00">memory</text>
</a>
</g>
</g>
<!-- Node3&#45;&gt;Node21 -->
<g id="edge20_Node000003_Node000021" class="edge">
<title>Node3&#45;&gt;Node21</title>
<g id="a_edge20_Node000003_Node000021"><a xlink:title=" ">
<path fill="none" stroke="#63b8ff" d="M1295.51,-71.78C1279.89,-61.39 1253.9,-44.11 1235.05,-31.58"/>
<polygon fill="#63b8ff" stroke="#63b8ff" points="1237.21,-28.81 1226.95,-26.19 1233.34,-34.64 1237.21,-28.81"/>
</a>
</g>
</g>
<!-- Node22 -->
<g id="Node000022" class="node">
<title>Node22</title>
<g id="a_Node000022"><a xlink:title=" ">
<polygon fill="#e0e0e0" stroke="#999999" points="1297.12,-24.88 1254.88,-24.88 1254.88,-5.63 1297.12,-5.63 1297.12,-24.88"/>
<text text-anchor="middle" x="1276" y="-11.38" font-family="Helvetica,sans-Serif" font-size="10.00">mutex</text>
</a>
</g>
</g>
<!-- Node3&#45;&gt;Node22 -->
<g id="edge21_Node000003_Node000022" class="edge">
<title>Node3&#45;&gt;Node22</title>
<g id="a_edge21_Node000003_Node000022"><a xlink:title=" ">
<path fill="none" stroke="#63b8ff" d="M1304.41,-71.78C1299.58,-62.35 1291.85,-47.22 1285.66,-35.13"/>
<polygon fill="#63b8ff" stroke="#63b8ff" points="1288.91,-33.8 1281.24,-26.49 1282.68,-36.99 1288.91,-33.8"/>
</a>
</g>
</g>
<!-- Node23 -->
<g id="Node000023" class="node">
<title>Node23</title>
<g id="a_Node000023"><a xlink:title=" ">
<polygon fill="#e0e0e0" stroke="#999999" points="1368.75,-24.88 1315.25,-24.88 1315.25,-5.63 1368.75,-5.63 1368.75,-24.88"/>
<text text-anchor="middle" x="1342" y="-11.38" font-family="Helvetica,sans-Serif" font-size="10.00">numbers</text>
</a>
</g>
</g>
<!-- Node3&#45;&gt;Node23 -->
<g id="edge22_Node000003_Node000023" class="edge">
<title>Node3&#45;&gt;Node23</title>
<g id="a_edge22_Node000003_Node000023"><a xlink:title=" ">
<path fill="none" stroke="#63b8ff" d="M1313.59,-71.78C1318.42,-62.35 1326.15,-47.22 1332.34,-35.13"/>
<polygon fill="#63b8ff" stroke="#63b8ff" points="1335.32,-36.99 1336.76,-26.49 1329.09,-33.8 1335.32,-36.99"/>
</a>
</g>
</g>
<!-- Node24 -->
<g id="Node000024" class="node">
<title>Node24</title>
<g id="a_Node000024"><a xlink:title=" ">
<polygon fill="#e0e0e0" stroke="#999999" points="1437.25,-24.88 1386.75,-24.88 1386.75,-5.63 1437.25,-5.63 1437.25,-24.88"/>
<text text-anchor="middle" x="1412" y="-11.38" font-family="Helvetica,sans-Serif" font-size="10.00">numeric</text>
</a>
</g>
</g>
<!-- Node3&#45;&gt;Node24 -->
<g id="edge23_Node000003_Node000024" class="edge">
<title>Node3&#45;&gt;Node24</title>
<g id="a_edge23_Node000003_Node000024"><a xlink:title=" ">
<path fill="none" stroke="#63b8ff" d="M1323.32,-71.78C1339.98,-61.35 1367.77,-43.95 1387.8,-31.4"/>
<polygon fill="#63b8ff" stroke="#63b8ff" points="1389.57,-34.43 1396.19,-26.15 1385.85,-28.49 1389.57,-34.43"/>
</a>
</g>
</g>
<!-- Node25 -->
<g id="Node000025" class="node">
<title>Node25</title>
<g id="a_Node000025"><a xlink:title=" ">
<polygon fill="#e0e0e0" stroke="#999999" points="1504.88,-24.88 1455.12,-24.88 1455.12,-5.63 1504.88,-5.63 1504.88,-24.88"/>
<text text-anchor="middle" x="1480" y="-11.38" font-family="Helvetica,sans-Serif" font-size="10.00">optional</text>
</a>
</g>
</g>
<!-- Node3&#45;&gt;Node25 -->
<g id="edge24_Node000003_Node000025" class="edge">
<title>Node3&#45;&gt;Node25</title>
<g id="a_edge24_Node000003_Node000025"><a xlink:title=" ">
<path fill="none" stroke="#63b8ff" d="M1334.89,-71.65C1362.53,-61.84 1407.56,-45.59 1446,-30.5 1446.78,-30.19 1447.57,-29.88 1448.37,-29.56"/>
<polygon fill="#63b8ff" stroke="#63b8ff" points="1449.5,-32.88 1457.44,-25.86 1446.86,-26.4 1449.5,-32.88"/>
</a>
</g>
</g>
<!-- Node26 -->
<g id="Node000026" class="node">
<title>Node26</title>
<g id="a_Node000026"><a xlink:title=" ">
<polygon fill="#e0e0e0" stroke="#999999" points="1574.62,-24.88 1523.38,-24.88 1523.38,-5.63 1574.62,-5.63 1574.62,-24.88"/>
<text text-anchor="middle" x="1549" y="-11.38" font-family="Helvetica,sans-Serif" font-size="10.00">ostream</text>
</a>
</g>
</g>
<!-- Node3&#45;&gt;Node26 -->
<g id="edge25_Node000003_Node000026" class="edge">
<title>Node3&#45;&gt;Node26</title>
<g id="a_edge25_Node000003_Node000026"><a xlink:title=" ">
<path fill="none" stroke="#63b8ff" d="M1354.32,-71.64C1396.22,-62.74 1459.97,-48.02 1514,-30.5 1515.15,-30.13 1516.33,-29.73 1517.5,-29.32"/>
<polygon fill="#63b8ff" stroke="#63b8ff" points="1518.54,-32.67 1526.67,-25.88 1516.08,-26.12 1518.54,-32.67"/>
</a>
</g>
</g>
<!-- Node27 -->
<g id="Node000027" class="node">
<title>Node27</title>
<g id="a_Node000027"><a xlink:title=" ">
<polygon fill="#e0e0e0" stroke="#999999" points="1669.38,-24.88 1592.62,-24.88 1592.62,-5.63 1669.38,-5.63 1669.38,-24.88"/>
<text text-anchor="middle" x="1631" y="-11.38" font-family="Helvetica,sans-Serif" font-size="10.00">shared_mutex</text>
</a>
</g>
</g>
<!-- Node3&#45;&gt;Node27 -->
<g id="edge26_Node000003_Node000027" class="edge">
<title>Node3&#45;&gt;Node27</title>
<g id="a_edge26_Node000003_Node000027"><a xlink:title=" ">
<path fill="none" stroke="#63b8ff" d="M1365.49,-72.35C1421.36,-63.6 1509.12,-48.63 1584,-30.5 1586.59,-29.87 1589.24,-29.19 1591.91,-28.47"/>
<polygon fill="#63b8ff" stroke="#63b8ff" points="1592.69,-31.88 1601.35,-25.78 1590.78,-25.15 1592.69,-31.88"/>
</a>
</g>
</g>
<!-- Node28 -->
<g id="Node000028" class="node">
<title>Node28</title>
<g id="a_Node000028"><a xlink:title=" ">
<polygon fill="#e0e0e0" stroke="#999999" points="1724.5,-24.88 1687.5,-24.88 1687.5,-5.63 1724.5,-5.63 1724.5,-24.88"/>
<text text-anchor="middle" x="1706" y="-11.38" font-family="Helvetica,sans-Serif" font-size="10.00">span</text>
</a>
</g>
</g>
<!-- Node3&#45;&gt;Node28 -->
<g id="edge27_Node000003_Node000028" class="edge">
<title>Node3&#45;&gt;Node28</title>
<g id="a_edge27_Node000003_Node000028"><a xlink:title=" ">
<path fill="none" stroke="#63b8ff" d="M1365.28,-78.92C1438.75,-75.22 1570.63,-64.07 1678,-30.5 1678.65,-30.3 1679.3,-30.08 1679.96,-29.85"/>
<polygon fill="#63b8ff" stroke="#63b8ff" points="1681.21,-33.12 1689.01,-25.95 1678.44,-26.69 1681.21,-33.12"/>
</a>
</g>
</g>
<!-- Node29 -->
<g id="Node000029" class="node">
<title>Node29</title>
<g id="a_Node000029"><a xlink:title=" ">
<polygon fill="#e0e0e0" stroke="#999999" points="1793.62,-24.88 1742.38,-24.88 1742.38,-5.63 1793.62,-5.63 1793.62,-24.88"/>
<text text-anchor="middle" x="1768" y="-11.38" font-family="Helvetica,sans-Serif" font-size="10.00">sstream</text>
</a>
</g>
</g>
<!-- Node3&#45;&gt;Node29 -->
<g id="edge28_Node000003_Node000029" class="edge">
<title>Node3&#45;&gt;Node29</title>
<g id="a_edge28_Node000003_Node000029"><a xlink:title=" ">
<path fill="none" stroke="#63b8ff" d="M1365.44,-78.87C1447.54,-75.06 1604.16,-63.72 1733,-30.5 1734.59,-30.09 1736.2,-29.63 1737.82,-29.12"/>
<polygon fill="#63b8ff" stroke="#63b8ff" points="1738.68,-32.53 1746.9,-25.85 1736.31,-25.94 1738.68,-32.53"/>
</a>
</g>
</g>
<!-- Node30 -->
<g id="Node000030" class="node">
<title>Node30</title>
<g id="a_Node000030"><a xlink:title=" ">
<polygon fill="#e0e0e0" stroke="#999999" points="1870,-24.88 1812,-24.88 1812,-5.63 1870,-5.63 1870,-24.88"/>
<text text-anchor="middle" x="1841" y="-11.38" font-family="Helvetica,sans-Serif" font-size="10.00">stdexcept</text>
</a>
</g>
</g>
<!-- Node3&#45;&gt;Node30 -->
<g id="edge29_Node000003_Node000030" class="edge">
<title>Node3&#45;&gt;Node30</title>
<g id="a_edge29_Node000003_Node000030"><a xlink:title=" ">
<path fill="none" stroke="#63b8ff" d="M1365.34,-79.71C1457.86,-76.97 1647.3,-66.97 1803,-30.5 1804.89,-30.06 1806.81,-29.55 1808.73,-28.99"/>
<polygon fill="#63b8ff" stroke="#63b8ff" points="1809.77,-32.33 1818.16,-25.85 1807.57,-25.68 1809.77,-32.33"/>
</a>
</g>
</g>
<!-- Node31 -->
<g id="Node000031" class="node">
<title>Node31</title>
<g id="a_Node000031"><a xlink:title=" ">
<polygon fill="#e0e0e0" stroke="#999999" points="1935.75,-24.88 1888.25,-24.88 1888.25,-5.63 1935.75,-5.63 1935.75,-24.88"/>
<text text-anchor="middle" x="1912" y="-11.38" font-family="Helvetica,sans-Serif" font-size="10.00">stdint.h</text>
</a>
</g>
</g>
<!-- Node3&#45;&gt;Node31 -->
<g id="edge30_Node000003_Node000031" class="edge">
<title>Node3&#45;&gt;Node31</title>
<g id="a_edge30_Node000003_Node000031"><a xlink:title=" ">
<path fill="none" stroke="#63b8ff" d="M1365.41,-81.68C1468.89,-82.09 1695.29,-76.97 1879,-30.5 1880.4,-30.15 1881.81,-29.74 1883.22,-29.3"/>
<polygon fill="#63b8ff" stroke="#63b8ff" points="1884.31,-32.63 1892.45,-25.84 1881.85,-26.07 1884.31,-32.63"/>
</a>
</g>
</g>
<!-- Node32 -->
<g id="Node000032" class="node">
<title>Node32</title>
<g id="a_Node000032"><a xlink:title=" ">
<polygon fill="#e0e0e0" stroke="#999999" points="1994,-24.88 1954,-24.88 1954,-5.63 1994,-5.63 1994,-24.88"/>
<text text-anchor="middle" x="1974" y="-11.38" font-family="Helvetica,sans-Serif" font-size="10.00">string</text>
</a>
</g>
</g>
<!-- Node3&#45;&gt;Node32 -->
<g id="edge31_Node000003_Node000032" class="edge">
<title>Node3&#45;&gt;Node32</title>
<g id="a_edge31_Node000003_Node000032"><a xlink:title=" ">
<path fill="none" stroke="#63b8ff" d="M1365.06,-79.02C1499.36,-74.45 1836.45,-60.28 1945,-30.5 1945.97,-30.23 1946.95,-29.93 1947.92,-29.61"/>
<polygon fill="#63b8ff" stroke="#63b8ff" points="1948.87,-33.01 1956.77,-25.94 1946.19,-26.54 1948.87,-33.01"/>
</a>
</g>
</g>
<!-- Node33 -->
<g id="Node000033" class="node">
<title>Node33</title>
<g id="a_Node000033"><a xlink:title=" ">
<polygon fill="#e0e0e0" stroke="#999999" points="2055.5,-24.88 2012.5,-24.88 2012.5,-5.63 2055.5,-5.63 2055.5,-24.88"/>
<text text-anchor="middle" x="2034" y="-11.38" font-family="Helvetica,sans-Serif" font-size="10.00">thread</text>
</a>
</g>
</g>
<!-- Node3&#45;&gt;Node33 -->
<g id="edge32_Node000003_Node000033" class="edge">
<title>Node3&#45;&gt;Node33</title>
<g id="a_edge32_Node000003_Node000033"><a xlink:title=" ">
<path fill="none" stroke="#63b8ff" d="M1365.33,-79.26C1508.37,-75.07 1882.78,-61.4 2003,-30.5 2004.18,-30.2 2005.36,-29.85 2006.55,-29.47"/>
<polygon fill="#63b8ff" stroke="#63b8ff" points="2007.58,-32.83 2015.61,-25.93 2005.03,-26.31 2007.58,-32.83"/>
</a>
</g>
</g>
<!-- Node34 -->
<g id="Node000034" class="node">
<title>Node34</title>
<g id="a_Node000034"><a xlink:title=" ">
<polygon fill="#e0e0e0" stroke="#999999" points="2134.5,-24.88 2073.5,-24.88 2073.5,-5.63 2134.5,-5.63 2134.5,-24.88"/>
<text text-anchor="middle" x="2104" y="-11.38" font-family="Helvetica,sans-Serif" font-size="10.00">type_traits</text>
</a>
</g>
</g>
<!-- Node3&#45;&gt;Node34 -->
<g id="edge33_Node000003_Node000034" class="edge">
<title>Node3&#45;&gt;Node34</title>
<g id="a_edge33_Node000003_Node000034"><a xlink:title=" ">
<path fill="none" stroke="#63b8ff" d="M1365.38,-79.01C1516.91,-74.01 1930.46,-58.17 2064,-30.5 2066.31,-30.02 2068.67,-29.44 2071.03,-28.79"/>
<polygon fill="#63b8ff" stroke="#63b8ff" points="2071.97,-32.16 2080.44,-25.81 2069.85,-25.49 2071.97,-32.16"/>
</a>
</g>
</g>
<!-- Node35 -->
<g id="Node000035" class="node">
<title>Node35</title>
<g id="a_Node000035"><a xlink:title=" ">
<polygon fill="#e0e0e0" stroke="#999999" points="2229.75,-24.88 2152.25,-24.88 2152.25,-5.63 2229.75,-5.63 2229.75,-24.88"/>
<text text-anchor="middle" x="2191" y="-11.38" font-family="Helvetica,sans-Serif" font-size="10.00">unordered_set</text>
</a>
</g>
</g>
<!-- Node3&#45;&gt;Node35 -->
<g id="edge34_Node000003_Node000035" class="edge">
<title>Node3&#45;&gt;Node35</title>
<g id="a_edge34_Node000003_Node000035"><a xlink:title=" ">
<path fill="none" stroke="#63b8ff" d="M1365.29,-79.03C1527.33,-73.83 1992.91,-56.94 2143,-30.5 2146.4,-29.9 2149.9,-29.14 2153.39,-28.29"/>
<polygon fill="#63b8ff" stroke="#63b8ff" points="2154.14,-31.72 2162.89,-25.73 2152.32,-24.96 2154.14,-31.72"/>
</a>
</g>
</g>
<!-- Node36 -->
<g id="Node000036" class="node">
<title>Node36</title>
<g id="a_Node000036"><a xlink:title=" ">
<polygon fill="#e0e0e0" stroke="#999999" points="2292.62,-24.88 2247.38,-24.88 2247.38,-5.63 2292.62,-5.63 2292.62,-24.88"/>
<text text-anchor="middle" x="2270" y="-11.38" font-family="Helvetica,sans-Serif" font-size="10.00">variant</text>
</a>
</g>
</g>
<!-- Node3&#45;&gt;Node36 -->
<g id="edge35_Node000003_Node000036" class="edge">
<title>Node3&#45;&gt;Node36</title>
<g id="a_edge35_Node000003_Node000036"><a xlink:title=" ">
<path fill="none" stroke="#63b8ff" d="M1365.37,-80.47C1540.28,-79.16 2072.03,-71.79 2239,-30.5 2240.21,-30.2 2241.43,-29.86 2242.64,-29.47"/>
<polygon fill="#63b8ff" stroke="#63b8ff" points="2243.91,-32.74 2251.95,-25.84 2241.37,-26.22 2243.91,-32.74"/>
</a>
</g>
</g>
<!-- Node37 -->
<g id="Node000037" class="node">
<title>Node37</title>
<g id="a_Node000037"><a xlink:title=" ">
<polygon fill="#e0e0e0" stroke="#999999" points="2353.5,-24.88 2310.5,-24.88 2310.5,-5.63 2353.5,-5.63 2353.5,-24.88"/>
<text text-anchor="middle" x="2332" y="-11.38" font-family="Helvetica,sans-Serif" font-size="10.00">vector</text>
</a>
</g>
</g>
<!-- Node3&#45;&gt;Node37 -->
<g id="edge36_Node000003_Node000037" class="edge">
<title>Node3&#45;&gt;Node37</title>
<g id="a_edge36_Node000003_Node000037"><a xlink:title=" ">
<path fill="none" stroke="#63b8ff" d="M1365.31,-80.78C1547.99,-80.44 2122.7,-75.71 2302,-30.5 2303.17,-30.2 2304.36,-29.86 2305.54,-29.48"/>
<polygon fill="#63b8ff" stroke="#63b8ff" points="2306.55,-32.84 2314.53,-25.87 2303.94,-26.35 2306.55,-32.84"/>
</a>
</g>
</g>
<!-- Node38 -->
<g id="Node000038" class="node">
<title>Node38</title>
<g id="a_Node000038"><a xlink:title=" ">
<polygon fill="#e0e0e0" stroke="#999999" points="2420.12,-24.88 2371.88,-24.88 2371.88,-5.63 2420.12,-5.63 2420.12,-24.88"/>
<text text-anchor="middle" x="2396" y="-11.38" font-family="Helvetica,sans-Serif" font-size="10.00">random</text>
</a>
</g>
</g>
<!-- Node3&#45;&gt;Node38 -->
<g id="edge37_Node000003_Node000038" class="edge">
<title>Node3&#45;&gt;Node38</title>
<g id="a_edge37_Node000003_Node000038"><a xlink:title=" ">
<path fill="none" stroke="#63b8ff" d="M1365.28,-80.64C1554.96,-79.86 2169.65,-73.97 2362,-30.5 2363.64,-30.13 2365.3,-29.69 2366.96,-29.19"/>
<polygon fill="#63b8ff" stroke="#63b8ff" points="2368.05,-32.51 2376.26,-25.81 2365.66,-25.93 2368.05,-32.51"/>
</a>
</g>
</g>
<!-- Node39 -->
<g id="Node000039" class="node">
<title>Node39</title>
<g id="a_Node000039"><a xlink:href="../../de/d43/common-typedefs_8hpp.html" target="_top" xlink:title=" ">
<polygon fill="white" stroke="#666666" points="2549.62,-24.88 2438.38,-24.88 2438.38,-5.63 2549.62,-5.63 2549.62,-24.88"/>
<text text-anchor="middle" x="2494" y="-11.38" font-family="Helvetica,sans-Serif" font-size="10.00">common&#45;typedefs.hpp</text>
</a>
</g>
</g>
<!-- Node3&#45;&gt;Node39 -->
<g id="edge38_Node000003_Node000039" class="edge">
<title>Node3&#45;&gt;Node39</title>
<g id="a_edge38_Node000003_Node000039"><a xlink:title=" ">
<path fill="none" stroke="#63b8ff" d="M1365.16,-79.5C1561.97,-74.93 2219.85,-57.91 2429,-30.5 2434.72,-29.75 2440.69,-28.75 2446.58,-27.63"/>
<polygon fill="#63b8ff" stroke="#63b8ff" points="2447.17,-31.08 2456.27,-25.65 2445.77,-24.22 2447.17,-31.08"/>
</a>
</g>
</g>
<!-- Node40 -->
<g id="Node000040" class="node">
<title>Node40</title>
<g id="a_Node000040"><a xlink:href="../../d4/d78/math_8hpp.html" target="_top" xlink:title=" ">
<polygon fill="white" stroke="#666666" points="2644.75,-24.88 2567.25,-24.88 2567.25,-5.63 2644.75,-5.63 2644.75,-24.88"/>
<text text-anchor="middle" x="2606" y="-11.38" font-family="Helvetica,sans-Serif" font-size="10.00">core/math.hpp</text>
</a>
</g>
</g>
<!-- Node3&#45;&gt;Node40 -->
<g id="edge39_Node000003_Node000040" class="edge">
<title>Node3&#45;&gt;Node40</title>
<g id="a_edge39_Node000003_Node000040"><a xlink:title=" ">
<path fill="none" stroke="#63b8ff" d="M1365.45,-80.38C1577.28,-78.71 2324.63,-70.08 2559,-30.5 2562.42,-29.92 2565.94,-29.17 2569.44,-28.31"/>
<polygon fill="#63b8ff" stroke="#63b8ff" points="2570.25,-31.72 2578.96,-25.69 2568.39,-24.97 2570.25,-31.72"/>
</a>
</g>
</g>
<!-- Node40&#45;&gt;Node40 -->
<g id="edge40_Node000040_Node000040" class="edge">
<title>Node40&#45;&gt;Node40</title>
<g id="a_edge40_Node000040_Node000040"><a xlink:title=" ">
<path fill="none" stroke="#63b8ff" d="M2625.19,-25.33C2643.21,-30.56 2662.75,-27.2 2662.75,-15.25 2662.75,-5.73 2650.34,-1.66 2636.18,-3.05"/>
<polygon fill="#63b8ff" stroke="#63b8ff" points="2635.83,0.45 2626.67,-4.88 2637.16,-6.42 2635.83,0.45"/>
</a>
</g>
</g>
<!-- Node42 -->
<g id="Node000042" class="node">
<title>Node42</title>
<g id="a_Node000042"><a xlink:href="../../d8/d2a/win-def_8hpp.html" target="_top" xlink:title=" ">
<polygon fill="white" stroke="#666666" points="2746.75,-24.88 2681.25,-24.88 2681.25,-5.63 2746.75,-5.63 2746.75,-24.88"/>
<text text-anchor="middle" x="2714" y="-11.38" font-family="Helvetica,sans-Serif" font-size="10.00">win&#45;def.hpp</text>
</a>
</g>
</g>
<!-- Node41&#45;&gt;Node42 -->
<g id="edge42_Node000041_Node000042" class="edge">
<title>Node41&#45;&gt;Node42</title>
<g id="a_edge42_Node000041_Node000042"><a xlink:title=" ">
<path fill="none" stroke="#63b8ff" d="M2933.22,-71.63C2887.42,-62.52 2816.5,-47.47 2756,-30.5 2754.03,-29.95 2752.01,-29.36 2749.98,-28.74"/>
<polygon fill="#63b8ff" stroke="#63b8ff" points="2751.21,-25.46 2740.62,-25.74 2749.08,-32.12 2751.21,-25.46"/>
</a>
</g>
</g>
<!-- Node43 -->
<g id="Node000043" class="node">
<title>Node43</title>
<g id="a_Node000043"><a xlink:title=" ">
<polygon fill="#e0e0e0" stroke="#999999" points="2845.25,-24.88 2764.75,-24.88 2764.75,-5.63 2845.25,-5.63 2845.25,-24.88"/>
<text text-anchor="middle" x="2805" y="-11.38" font-family="Helvetica,sans-Serif" font-size="10.00">spdlog/async.h</text>
</a>
</g>
</g>
<!-- Node41&#45;&gt;Node43 -->
<g id="edge43_Node000041_Node000043" class="edge">
<title>Node41&#45;&gt;Node43</title>
<g id="a_edge43_Node000041_Node000043"><a xlink:title=" ">
<path fill="none" stroke="#63b8ff" d="M2956.16,-71.65C2925.89,-60.55 2874.55,-41.74 2840.22,-29.16"/>
<polygon fill="#63b8ff" stroke="#63b8ff" points="2841.73,-25.98 2831.14,-25.83 2839.32,-32.56 2841.73,-25.98"/>
</a>
</g>
</g>
<!-- Node44 -->
<g id="Node000044" class="node">
<title>Node44</title>
<g id="a_Node000044"><a xlink:title=" ">
<polygon fill="#e0e0e0" stroke="#999999" points="2976.38,-30.5 2863.62,-30.5 2863.62,0 2976.38,0 2976.38,-30.5"/>
<text text-anchor="start" x="2871.62" y="-17" font-family="Helvetica,sans-Serif" font-size="10.00">spdlog/sinks/ansicolor</text>
<text text-anchor="middle" x="2920" y="-5.75" font-family="Helvetica,sans-Serif" font-size="10.00">_sink.h</text>
</a>
</g>
</g>
<!-- Node41&#45;&gt;Node44 -->
<g id="edge44_Node000041_Node000044" class="edge">
<title>Node41&#45;&gt;Node44</title>
<g id="a_edge44_Node000041_Node000044"><a xlink:title=" ">
<path fill="none" stroke="#63b8ff" d="M2972.52,-71.78C2964.48,-63.29 2952.08,-50.17 2941.35,-38.82"/>
<polygon fill="#63b8ff" stroke="#63b8ff" points="2944.02,-36.55 2934.61,-31.69 2938.93,-41.36 2944.02,-36.55"/>
</a>
</g>
</g>
<!-- Node45 -->
<g id="Node000045" class="node">
<title>Node45</title>
<g id="a_Node000045"><a xlink:title=" ">
<polygon fill="#e0e0e0" stroke="#999999" points="3091.5,-30.5 2994.5,-30.5 2994.5,0 3091.5,0 3091.5,-30.5"/>
<text text-anchor="start" x="3002.5" y="-17" font-family="Helvetica,sans-Serif" font-size="10.00">spdlog/sinks/basic</text>
<text text-anchor="middle" x="3043" y="-5.75" font-family="Helvetica,sans-Serif" font-size="10.00">_file_sink.h</text>
</a>
</g>
</g>
<!-- Node41&#45;&gt;Node45 -->
<g id="edge45_Node000041_Node000045" class="edge">
<title>Node41&#45;&gt;Node45</title>
<g id="a_edge45_Node000041_Node000045"><a xlink:title=" ">
<path fill="none" stroke="#63b8ff" d="M2989.62,-71.78C2997.79,-63.29 3010.39,-50.17 3021.3,-38.82"/>
<polygon fill="#63b8ff" stroke="#63b8ff" points="3023.76,-41.32 3028.16,-31.69 3018.71,-36.47 3023.76,-41.32"/>
</a>
</g>
</g>
<!-- Node46 -->
<g id="Node000046" class="node">
<title>Node46</title>
<g id="a_Node000046"><a xlink:title=" ">
<polygon fill="#e0e0e0" stroke="#999999" points="3210.38,-30.5 3109.62,-30.5 3109.62,0 3210.38,0 3210.38,-30.5"/>
<text text-anchor="start" x="3117.62" y="-17" font-family="Helvetica,sans-Serif" font-size="10.00">spdlog/sinks/stdout</text>
<text text-anchor="middle" x="3160" y="-5.75" font-family="Helvetica,sans-Serif" font-size="10.00">_color_sinks.h</text>
</a>
</g>
</g>
<!-- Node41&#45;&gt;Node46 -->
<g id="edge46_Node000041_Node000046" class="edge">
<title>Node41&#45;&gt;Node46</title>
<g id="a_edge46_Node000041_Node000046"><a xlink:title=" ">
<path fill="none" stroke="#63b8ff" d="M3006.27,-71.65C3032.79,-62.09 3075.22,-46.8 3108.79,-34.7"/>
<polygon fill="#63b8ff" stroke="#63b8ff" points="3109.7,-38.09 3117.92,-31.41 3107.33,-31.51 3109.7,-38.09"/>
</a>
</g>
</g>
<!-- Node47 -->
<g id="Node000047" class="node">
<title>Node47</title>
<g id="a_Node000047"><a xlink:title=" ">
<polygon fill="#e0e0e0" stroke="#999999" points="3311.75,-24.88 3228.25,-24.88 3228.25,-5.63 3311.75,-5.63 3311.75,-24.88"/>
<text text-anchor="middle" x="3270" y="-11.38" font-family="Helvetica,sans-Serif" font-size="10.00">spdlog/spdlog.h</text>
</a>
</g>
</g>
<!-- Node41&#45;&gt;Node47 -->
<g id="edge47_Node000041_Node000047" class="edge">
<title>Node41&#45;&gt;Node47</title>
<g id="a_edge47_Node000041_Node000047"><a xlink:title=" ">
<path fill="none" stroke="#63b8ff" d="M3016.21,-71.66C3023.4,-69.89 3030.93,-68.09 3038,-66.5 3118.03,-48.55 3139.22,-49.55 3219,-30.5 3221.92,-29.8 3224.92,-29.05 3227.94,-28.27"/>
<polygon fill="#63b8ff" stroke="#63b8ff" points="3228.59,-31.72 3237.35,-25.76 3226.78,-24.96 3228.59,-31.72"/>
</a>
</g>
</g>
<!-- Node48 -->
<g id="Node000048" class="node">
<title>Node48</title>
<g id="a_Node000048"><a xlink:href="../../d4/dfc/win-undef_8hpp.html" target="_top" xlink:title=" ">
<polygon fill="white" stroke="#666666" points="3406,-24.88 3330,-24.88 3330,-5.63 3406,-5.63 3406,-24.88"/>
<text text-anchor="middle" x="3368" y="-11.38" font-family="Helvetica,sans-Serif" font-size="10.00">win&#45;undef.hpp</text>
</a>
</g>
</g>
<!-- Node41&#45;&gt;Node48 -->
<g id="edge48_Node000041_Node000048" class="edge">
<title>Node41&#45;&gt;Node48</title>
<g id="a_edge48_Node000041_Node000048"><a xlink:title=" ">
<path fill="none" stroke="#63b8ff" d="M3014.61,-71.65C3022.26,-69.77 3030.38,-67.93 3038,-66.5 3162.61,-43.08 3197.01,-56.99 3321,-30.5 3323.95,-29.87 3326.98,-29.14 3330.01,-28.36"/>
<polygon fill="#63b8ff" stroke="#63b8ff" points="3330.72,-31.79 3339.41,-25.73 3328.83,-25.05 3330.72,-31.79"/>
</a>
</g>
</g>
<!-- Node49&#45;&gt;Node2 -->
<g id="edge50_Node000049_Node000002" class="edge">
<title>Node49&#45;&gt;Node2</title>
<g id="a_edge50_Node000049_Node000002"><a xlink:title=" ">
<path fill="none" stroke="#63b8ff" d="M3099.87,-97.28C3091.46,-105.86 3079.51,-116.73 3068.83,-125.56"/>
<polygon fill="#63b8ff" stroke="#63b8ff" points="3066.71,-122.77 3061.07,-131.74 3071.07,-128.25 3066.71,-122.77"/>
</a>
</g>
</g>
</g>
</svg>

<g id="navigator" transform="translate(0 0)" fill="#404254">
  <rect fill="#f2f5e9" fill-opacity="0.5" stroke="#606060" stroke-width=".5" x="0" y="0" width="60" height="60"/>
  <use id="zoomplus" xlink:href="#zoomPlus" x="17" y="9" onmousedown="handleZoom(evt,'in')"/>
  <use id="zoomminus" xlink:href="#zoomMin" x="42" y="9" onmousedown="handleZoom(evt,'out')"/>
  <use id="reset" xlink:href="#resetDef" x="30" y="36" onmousedown="handleReset()"/>
   <use id="arrowup" xlink:href="#arrowUp" x="0" y="0" onmousedown="handlePan(0,-1)"/>
  <use id="arrowright" xlink:href="#arrowRight" x="0" y="0" onmousedown="handlePan(1,0)"/>
  <use id="arrowdown" xlink:href="#arrowDown" x="0" y="0" onmousedown="handlePan(0,1)"/>
  <use id="arrowleft" xlink:href="#arrowLeft" x="0" y="0" onmousedown="handlePan(-1,0)"/>
</g>
<svg viewBox="0 0 15 15" width="100%" height="30px" preserveAspectRatio="xMaxYMin meet">
 <g id="arrow_out" transform="scale(0.3 0.3)">
  <a xlink:href="debug__without__source__location_8hpp__incl_org.svg" target="_base">
   <rect id="button" ry="5" rx="5" y="6" x="6" height="38" width="38"
        fill="#f2f5e9" fill-opacity="0.5" stroke="#606060" stroke-width="1.0"/>
   <path id="arrow"
     d="M 11.500037,31.436501 C 11.940474,20.09759 22.043105,11.32322 32.158766,21.979434 L 37.068811,17.246167 C 37.068811,17.246167 37.088388,32 37.088388,32 L 22.160133,31.978069 C 22.160133,31.978069 26.997745,27.140456 26.997745,27.140456 C 18.528582,18.264221 13.291696,25.230495 11.500037,31.436501 z"
     style="fill:#404040;"/>
  </a>
 </g>
</svg>

<style type='text/css'>
<![CDATA[
[data-mouse-over-selected='false'] { opacity: 0.7; }
[data-mouse-over-selected='true']  { opacity: 1.0; }
]]>
</style>
<script type="application/ecmascript"><![CDATA[
document.addEventListener('DOMContentLoaded', (event) => {
  highlightEdges();
  highlightAdjacentNodes();
});
]]></script>
</svg>
