<?xml version="1.0" encoding="UTF-8" standalone="no"?>
<!DOCTYPE svg PUBLIC "-//W3C//DTD SVG 1.1//EN"
 "http://www.w3.org/Graphics/SVG/1.1/DTD/svg11.dtd">
<!-- Generated by graphviz version 8.1.0 (20230707.0739)
 -->
<!-- Title: engine::core::ModelLoader Pages: 1 -->
<svg width="509pt" height="41pt"
 viewBox="0.00 0.00 509.00 41.03" xmlns="http://www.w3.org/2000/svg" xmlns:xlink="http://www.w3.org/1999/xlink">
<g id="graph0" class="graph" transform="scale(1 1) rotate(0) translate(4 37.03)">
<title>engine::core::ModelLoader</title>
<!-- Node1 -->
<g id="Node000001" class="node">
<title>Node1</title>
<g id="a_Node000001"><a xlink:title=" ">
<polygon fill="#999999" stroke="#666666" points="304.25,-27.4 175.75,-27.4 175.75,-8.15 304.25,-8.15 304.25,-27.4"/>
<text text-anchor="middle" x="240" y="-13.9" font-family="Helvetica,sans-Serif" font-size="10.00">engine::core::ModelLoader</text>
</a>
</g>
</g>
<!-- Node2 -->
<g id="Node000002" class="node">
<title>Node2</title>
<g id="a_Node000002"><a xlink:title=" ">
<polygon fill="white" stroke="#666666" points="501,-33.03 384.5,-33.03 384.5,-2.53 501,-2.53 501,-33.03"/>
<text text-anchor="start" x="392.5" y="-19.53" font-family="Helvetica,sans-Serif" font-size="10.00">std::shared_ptr&lt; engine</text>
<text text-anchor="middle" x="442.75" y="-8.28" font-family="Helvetica,sans-Serif" font-size="10.00">::core::ModelLoader &gt;</text>
</a>
</g>
</g>
<!-- Node1&#45;&gt;Node2 -->
<g id="edge2_Node000002_Node000001" class="edge">
<title>Node1&#45;&gt;Node2</title>
<g id="a_edge2_Node000002_Node000001"><a xlink:title=" ">
<path fill="none" stroke="#9a32cd" stroke-dasharray="5,2" d="M315.47,-17.78C338.14,-17.78 362.71,-17.78 384.09,-17.78"/>
<polygon fill="#9a32cd" stroke="#9a32cd" points="315.52,-14.28 305.52,-17.78 315.52,-21.28 315.52,-14.28"/>
</a>
</g>
<text text-anchor="middle" x="344.38" y="-19.53" font-family="Helvetica,sans-Serif" font-size="10.00" fill="grey"> ptr</text>
</g>
<!-- Node2&#45;&gt;Node1 -->
<g id="edge1_Node000001_Node000002" class="edge">
<title>Node2&#45;&gt;Node1</title>
<g id="a_edge1_Node000001_Node000002"><a xlink:title=" ">
<path fill="none" stroke="#9a32cd" stroke-dasharray="5,2" d="M373.28,-2.35C371,-2.04 368.73,-1.77 366.5,-1.53 346.94,0.56 341.82,0.41 322.25,-1.53 309.51,-2.79 295.81,-5.14 283.35,-7.67"/>
<polygon fill="#9a32cd" stroke="#9a32cd" points="372.61,-5.95 383.02,-4.02 373.68,0.97 372.61,-5.95"/>
</a>
</g>
<text text-anchor="middle" x="344.38" y="-3.53" font-family="Helvetica,sans-Serif" font-size="10.00" fill="grey"> instance_</text>
</g>
<!-- Node3 -->
<g id="Node000003" class="node">
<title>Node3</title>
<g id="a_Node000003"><a xlink:title=" ">
<polygon fill="white" stroke="#666666" points="100.75,-33.03 0,-33.03 0,-2.53 100.75,-2.53 100.75,-33.03"/>
<text text-anchor="start" x="8" y="-19.53" font-family="Helvetica,sans-Serif" font-size="10.00">std::unordered_map</text>
<text text-anchor="middle" x="50.38" y="-8.28" font-family="Helvetica,sans-Serif" font-size="10.00">&lt; size_t, uint64_t &gt;</text>
</a>
</g>
</g>
<!-- Node3&#45;&gt;Node1 -->
<g id="edge3_Node000001_Node000003" class="edge">
<title>Node3&#45;&gt;Node1</title>
<g id="a_edge3_Node000001_Node000003"><a xlink:title=" ">
<path fill="none" stroke="#9a32cd" stroke-dasharray="5,2" d="M112.15,-17.78C132.41,-17.78 155.04,-17.78 175.5,-17.78"/>
<polygon fill="#9a32cd" stroke="#9a32cd" points="112.16,-14.28 102.16,-17.78 112.16,-21.28 112.16,-14.28"/>
</a>
</g>
<text text-anchor="middle" x="138.25" y="-19.53" font-family="Helvetica,sans-Serif" font-size="10.00" fill="grey"> models_</text>
</g>
</g>
</svg>
