<?xml version="1.0" encoding="UTF-8" standalone="no"?>
<!DOCTYPE svg PUBLIC "-//W3C//DTD SVG 1.1//EN"
 "http://www.w3.org/Graphics/SVG/1.1/DTD/svg11.dtd">
<!-- Generated by graphviz version 8.1.0 (20230707.0739)
 -->
<!-- Title: engine::render::_grass_detail::GrassRenderSystem Pages: 1 -->
<!--zoomable 500 -->

<svg id="main" version="1.1" xmlns="http://www.w3.org/2000/svg" xmlns:xlink="http://www.w3.org/1999/xlink" xml:space="preserve" onload="init(evt)">
<style type="text/css"><![CDATA[
.node, .edge {opacity: 0.7;}
.node.selected, .edge.selected {opacity: 1;}
.edge:hover path { stroke: red; }
.edge:hover polygon { stroke: red; fill: red; }
]]></style>

<defs>
  <circle id="rim" cx="0" cy="0" r="7"/>
  <circle id="rim2" cx="0" cy="0" r="3.5"/>
  <g id="zoomPlus">
    <use xlink:href="#rim" fill="#404040"><set attributeName="fill" to="#808080" begin="zoomplus.mouseover" end="zoomplus.mouseout"/></use>
    <path d="M-4,0h8M0,-4v8" fill="none" stroke="white" stroke-width="1.5" pointer-events="none"/>
  </g>
  <g id="zoomMin">
    <use xlink:href="#rim" fill="#404040"><set attributeName="fill" to="#808080" begin="zoomminus.mouseover" end="zoomminus.mouseout"/></use>
    <path d="M-4,0h8" fill="none" stroke="white" stroke-width="1.5" pointer-events="none"/>
  </g>
  <g id="arrowUp" transform="translate(30 24)">
    <use xlink:href="#rim"/>
    <path pointer-events="none" fill="none" stroke="white" stroke-width="1.5" d="M0,-3.0v7 M-2.5,-0.5L0,-3.0L2.5,-0.5"/>
  </g>
  <g id="arrowRight" transform="rotate(90) translate(36 -43)">
    <use xlink:href="#rim"/>
    <path pointer-events="none" fill="none" stroke="white" stroke-width="1.5" d="M0,-3.0v7 M-2.5,-0.5L0,-3.0L2.5,-0.5"/>
  </g>
  <g id="arrowDown" transform="rotate(180) translate(-30 -48)">
    <use xlink:href="#rim"/>
    <path pointer-events="none" fill="none" stroke="white" stroke-width="1.5" d="M0,-3.0v7 M-2.5,-0.5L0,-3.0L2.5,-0.5"/>
  </g>
  <g id="arrowLeft" transform="rotate(270) translate(-36 17)">
    <use xlink:href="#rim"/>
    <path pointer-events="none" fill="none" stroke="white" stroke-width="1.5" d="M0,-3.0v7 M-2.5,-0.5L0,-3.0L2.5,-0.5"/>
  </g>
  <g id="resetDef">
    <use xlink:href="#rim2" fill="#404040"><set attributeName="fill" to="#808080" begin="reset.mouseover" end="reset.mouseout"/></use>
  </g>
</defs>
<script type="application/ecmascript">
var viewWidth = 1413;
var viewHeight = 500;
var sectionId = 'dynsection-1';
</script>
<script type="application/ecmascript" xlink:href="../../svg.min.js"/>
<svg id="graph" class="graph">
<g id="viewport">
<title>engine::render::_grass_detail::GrassRenderSystem</title>
<!-- Node1 -->
<g id="Node000001" class="node">
<title>Node1</title>
<g id="a_Node000001"><a xlink:title=" ">
<polygon fill="#999999" stroke="#666666" points="1404.75,-291.5 1265.75,-291.5 1265.75,-261 1404.75,-261 1404.75,-291.5"/>
<text text-anchor="start" x="1273.75" y="-278" font-family="Helvetica,sans-Serif" font-size="10.00">engine::render::_grass</text>
<text text-anchor="middle" x="1335.25" y="-266.75" font-family="Helvetica,sans-Serif" font-size="10.00">_detail::GrassRenderSystem</text>
</a>
</g>
</g>
<!-- Node2 -->
<g id="Node000002" class="node">
<title>Node2</title>
<g id="a_Node000002"><a xlink:href="../../da/df3/structengine_1_1render_1_1_render_pass.html" target="_top" xlink:title=" ">
<polygon fill="white" stroke="#666666" points="1083.88,-487.88 950.12,-487.88 950.12,-468.62 1083.88,-468.62 1083.88,-487.88"/>
<text text-anchor="middle" x="1017" y="-474.38" font-family="Helvetica,sans-Serif" font-size="10.00">engine::render::RenderPass</text>
</a>
</g>
</g>
<!-- Node2&#45;&gt;Node1 -->
<g id="edge1_Node000001_Node000002" class="edge">
<title>Node2&#45;&gt;Node1</title>
<g id="a_edge1_Node000001_Node000002"><a xlink:title=" ">
<path fill="none" stroke="#63b8ff" d="M1082.7,-489.58C1132.2,-494.64 1199.86,-493.35 1247.75,-460.25 1306.41,-419.71 1326.35,-328.58 1332.16,-291.95"/>
<polygon fill="#63b8ff" stroke="#63b8ff" points="1083.13,-486 1072.8,-488.34 1082.34,-492.95 1083.13,-486"/>
</a>
</g>
</g>
<!-- Node3 -->
<g id="Node000003" class="node">
<title>Node3</title>
<g id="a_Node000003"><a xlink:href="../../dd/d36/classengine_1_1render_1_1_graphics_shader_program.html" target="_top" xlink:title=" ">
<polygon fill="white" stroke="#666666" points="1076.75,-450.5 957.25,-450.5 957.25,-420 1076.75,-420 1076.75,-450.5"/>
<text text-anchor="start" x="965.25" y="-437" font-family="Helvetica,sans-Serif" font-size="10.00">engine::render::Graphics</text>
<text text-anchor="middle" x="1017" y="-425.75" font-family="Helvetica,sans-Serif" font-size="10.00">ShaderProgram</text>
</a>
</g>
</g>
<!-- Node3&#45;&gt;Node1 -->
<g id="edge2_Node000001_Node000003" class="edge">
<title>Node3&#45;&gt;Node1</title>
<g id="a_edge2_Node000001_Node000003"><a xlink:title=" ">
<path fill="none" stroke="#9a32cd" stroke-dasharray="5,2" d="M1087.61,-422.19C1135.26,-411.08 1198.48,-391.94 1247.75,-361.25 1278.31,-342.22 1306.64,-310.68 1322.08,-291.84"/>
<polygon fill="#9a32cd" stroke="#9a32cd" points="1087.06,-418.95 1078.08,-424.57 1088.61,-425.78 1087.06,-418.95"/>
</a>
</g>
<text text-anchor="start" x="1132.62" y="-446.75" font-family="Helvetica,sans-Serif" font-size="10.00" fill="grey"> grass_cubemap_shader</text>
<text text-anchor="middle" x="1185.5" y="-435.5" font-family="Helvetica,sans-Serif" font-size="10.00" fill="grey">_</text>
<text text-anchor="middle" x="1185.5" y="-424.25" font-family="Helvetica,sans-Serif" font-size="10.00" fill="grey">grass_shader_</text>
<text text-anchor="middle" x="1185.5" y="-413" font-family="Helvetica,sans-Serif" font-size="10.00" fill="grey">grass_texture_shader_</text>
</g>
<!-- Node4 -->
<g id="Node000004" class="node">
<title>Node4</title>
<g id="a_Node000004"><a xlink:href="../../db/db6/structengine_1_1render_1_1_shader_program.html" target="_top" xlink:title=" ">
<polygon fill="white" stroke="#666666" points="833.5,-487.88 685.5,-487.88 685.5,-468.62 833.5,-468.62 833.5,-487.88"/>
<text text-anchor="middle" x="759.5" y="-474.38" font-family="Helvetica,sans-Serif" font-size="10.00">engine::render::ShaderProgram</text>
</a>
</g>
</g>
<!-- Node4&#45;&gt;Node3 -->
<g id="edge3_Node000003_Node000004" class="edge">
<title>Node4&#45;&gt;Node3</title>
<g id="a_edge3_Node000003_Node000004"><a xlink:title=" ">
<path fill="none" stroke="#63b8ff" d="M831.04,-466.38C870.59,-459.72 919.38,-451.51 956.91,-445.19"/>
<polygon fill="#63b8ff" stroke="#63b8ff" points="830.68,-463.06 821.4,-468.17 831.85,-469.96 830.68,-463.06"/>
</a>
</g>
</g>
<!-- Node5 -->
<g id="Node000005" class="node">
<title>Node5</title>
<g id="a_Node000005"><a xlink:title=" ">
<polygon fill="white" stroke="#666666" points="817.75,-450.5 701.25,-450.5 701.25,-420 817.75,-420 817.75,-450.5"/>
<text text-anchor="start" x="709.25" y="-437" font-family="Helvetica,sans-Serif" font-size="10.00">std::shared_ptr&lt; engine</text>
<text text-anchor="middle" x="759.5" y="-425.75" font-family="Helvetica,sans-Serif" font-size="10.00">::render::Shader &gt;</text>
</a>
</g>
</g>
<!-- Node5&#45;&gt;Node3 -->
<g id="edge4_Node000003_Node000005" class="edge">
<title>Node5&#45;&gt;Node3</title>
<g id="a_edge4_Node000003_Node000005"><a xlink:title=" ">
<path fill="none" stroke="#9a32cd" stroke-dasharray="5,2" d="M829.12,-435.25C868.96,-435.25 918.65,-435.25 956.78,-435.25"/>
<polygon fill="#9a32cd" stroke="#9a32cd" points="829.16,-431.75 819.16,-435.25 829.16,-438.75 829.16,-431.75"/>
</a>
</g>
<text text-anchor="middle" x="881.12" y="-437" font-family="Helvetica,sans-Serif" font-size="10.00" fill="grey"> shaders_</text>
</g>
<!-- Node6 -->
<g id="Node000006" class="node">
<title>Node6</title>
<g id="a_Node000006"><a xlink:href="../../d0/dc5/classengine_1_1render_1_1_shader.html" target="_top" xlink:title=" ">
<polygon fill="white" stroke="#666666" points="590.25,-444.88 479,-444.88 479,-425.62 590.25,-425.62 590.25,-444.88"/>
<text text-anchor="middle" x="534.62" y="-431.38" font-family="Helvetica,sans-Serif" font-size="10.00">engine::render::Shader</text>
</a>
</g>
</g>
<!-- Node6&#45;&gt;Node5 -->
<g id="edge5_Node000005_Node000006" class="edge">
<title>Node6&#45;&gt;Node5</title>
<g id="a_edge5_Node000005_Node000006"><a xlink:title=" ">
<path fill="none" stroke="#9a32cd" stroke-dasharray="5,2" d="M601.61,-435.25C633.15,-435.25 670.56,-435.25 700.93,-435.25"/>
<polygon fill="#9a32cd" stroke="#9a32cd" points="601.72,-431.75 591.72,-435.25 601.72,-438.75 601.72,-431.75"/>
</a>
</g>
<text text-anchor="middle" x="645.38" y="-437" font-family="Helvetica,sans-Serif" font-size="10.00" fill="grey"> ptr</text>
</g>
<!-- Node7 -->
<g id="Node000007" class="node">
<title>Node7</title>
<g id="a_Node000007"><a xlink:href="../../d3/de6/structengine_1_1render_1_1_shader_blob.html" target="_top" xlink:title=" ">
<polygon fill="white" stroke="#666666" points="380.75,-444.88 250,-444.88 250,-425.62 380.75,-425.62 380.75,-444.88"/>
<text text-anchor="middle" x="315.38" y="-431.38" font-family="Helvetica,sans-Serif" font-size="10.00">engine::render::ShaderBlob</text>
</a>
</g>
</g>
<!-- Node7&#45;&gt;Node6 -->
<g id="edge6_Node000006_Node000007" class="edge">
<title>Node7&#45;&gt;Node6</title>
<g id="a_edge6_Node000006_Node000007"><a xlink:title=" ">
<path fill="none" stroke="#9a32cd" stroke-dasharray="5,2" d="M391.76,-435.25C420.39,-435.25 452.44,-435.25 478.82,-435.25"/>
<polygon fill="#9a32cd" stroke="#9a32cd" points="391.97,-431.75 381.97,-435.25 391.97,-438.75 391.97,-431.75"/>
</a>
</g>
<text text-anchor="middle" x="422.38" y="-437" font-family="Helvetica,sans-Serif" font-size="10.00" fill="grey"> blob_</text>
</g>
<!-- Node8 -->
<g id="Node000008" class="node">
<title>Node8</title>
<g id="a_Node000008"><a xlink:title=" ">
<polygon fill="white" stroke="#666666" points="139.75,-444.88 33,-444.88 33,-425.62 139.75,-425.62 139.75,-444.88"/>
<text text-anchor="middle" x="86.38" y="-431.38" font-family="Helvetica,sans-Serif" font-size="10.00">std::vector&lt; uint8_t &gt;</text>
</a>
</g>
</g>
<!-- Node8&#45;&gt;Node7 -->
<g id="edge7_Node000007_Node000008" class="edge">
<title>Node8&#45;&gt;Node7</title>
<g id="a_edge7_Node000007_Node000008"><a xlink:title=" ">
<path fill="none" stroke="#9a32cd" stroke-dasharray="5,2" d="M150.68,-435.25C181.61,-435.25 218.77,-435.25 249.86,-435.25"/>
<polygon fill="#9a32cd" stroke="#9a32cd" points="151.02,-431.75 141.02,-435.25 151.02,-438.75 151.02,-431.75"/>
</a>
</g>
<text text-anchor="middle" x="211.38" y="-437" font-family="Helvetica,sans-Serif" font-size="10.00" fill="grey"> bytecode</text>
</g>
<!-- Node9 -->
<g id="Node000009" class="node">
<title>Node9</title>
<g id="a_Node000009"><a xlink:title=" ">
<polygon fill="white" stroke="#666666" points="817.75,-401.5 701.25,-401.5 701.25,-371 817.75,-371 817.75,-401.5"/>
<text text-anchor="start" x="709.25" y="-388" font-family="Helvetica,sans-Serif" font-size="10.00">std::shared_ptr&lt; engine</text>
<text text-anchor="middle" x="759.5" y="-376.75" font-family="Helvetica,sans-Serif" font-size="10.00">::render::InputLayout &gt;</text>
</a>
</g>
</g>
<!-- Node9&#45;&gt;Node3 -->
<g id="edge8_Node000003_Node000009" class="edge">
<title>Node9&#45;&gt;Node3</title>
<g id="a_edge8_Node000003_Node000009"><a xlink:title=" ">
<path fill="none" stroke="#9a32cd" stroke-dasharray="5,2" d="M828.86,-399.36C868.75,-407.01 918.57,-416.57 956.78,-423.89"/>
<polygon fill="#9a32cd" stroke="#9a32cd" points="829.64,-395.75 819.16,-397.31 828.32,-402.63 829.64,-395.75"/>
</a>
</g>
<text text-anchor="middle" x="881.12" y="-415" font-family="Helvetica,sans-Serif" font-size="10.00" fill="grey"> input_layout_</text>
</g>
<!-- Node10 -->
<g id="Node000010" class="node">
<title>Node10</title>
<g id="a_Node000010"><a xlink:href="../../d2/d6c/classengine_1_1render_1_1_input_layout.html" target="_top" xlink:title=" ">
<polygon fill="white" stroke="#666666" points="600.38,-395.88 468.88,-395.88 468.88,-376.62 600.38,-376.62 600.38,-395.88"/>
<text text-anchor="middle" x="534.62" y="-382.38" font-family="Helvetica,sans-Serif" font-size="10.00">engine::render::InputLayout</text>
</a>
</g>
</g>
<!-- Node10&#45;&gt;Node9 -->
<g id="edge9_Node000009_Node000010" class="edge">
<title>Node10&#45;&gt;Node9</title>
<g id="a_edge9_Node000009_Node000010"><a xlink:title=" ">
<path fill="none" stroke="#9a32cd" stroke-dasharray="5,2" d="M611.3,-386.25C640.62,-386.25 673.62,-386.25 700.94,-386.25"/>
<polygon fill="#9a32cd" stroke="#9a32cd" points="611.69,-382.75 601.69,-386.25 611.69,-389.75 611.69,-382.75"/>
</a>
</g>
<text text-anchor="middle" x="645.38" y="-388" font-family="Helvetica,sans-Serif" font-size="10.00" fill="grey"> ptr</text>
</g>
<!-- Node11 -->
<g id="Node000011" class="node">
<title>Node11</title>
<g id="a_Node000011"><a xlink:href="../../d2/db0/classengine_1_1direct3d_1_1_dynamic_uniform_buffer.html" target="_top" xlink:title=" ">
<polygon fill="white" stroke="#666666" points="1086.88,-401.75 947.12,-401.75 947.12,-348.75 1086.88,-348.75 1086.88,-401.75"/>
<text text-anchor="start" x="955.12" y="-388.25" font-family="Helvetica,sans-Serif" font-size="10.00">engine::direct3d::Dynamic</text>
<text text-anchor="start" x="955.12" y="-377" font-family="Helvetica,sans-Serif" font-size="10.00">UniformBuffer&lt; engine::</text>
<text text-anchor="start" x="955.12" y="-365.75" font-family="Helvetica,sans-Serif" font-size="10.00">render::_opaque_detail::</text>
<text text-anchor="middle" x="1017" y="-354.5" font-family="Helvetica,sans-Serif" font-size="10.00">OpaquePerDepthCubemap &gt;</text>
</a>
</g>
</g>
<!-- Node11&#45;&gt;Node1 -->
<g id="edge10_Node000001_Node000011" class="edge">
<title>Node11&#45;&gt;Node1</title>
<g id="a_edge10_Node000001_Node000011"><a xlink:title=" ">
<path fill="none" stroke="#9a32cd" stroke-dasharray="5,2" d="M1097.79,-354.12C1142.22,-341.91 1198.37,-325.73 1247.75,-309.25 1263.45,-304.01 1280.52,-297.64 1295.32,-291.91"/>
<polygon fill="#9a32cd" stroke="#9a32cd" points="1097.06,-350.96 1088.34,-356.98 1098.9,-357.72 1097.06,-350.96"/>
</a>
</g>
<text text-anchor="middle" x="1185.5" y="-348" font-family="Helvetica,sans-Serif" font-size="10.00" fill="grey"> grass_per_cubemap_buffer_</text>
</g>
<!-- Node12 -->
<g id="Node000012" class="node">
<title>Node12</title>
<g id="a_Node000012"><a xlink:href="../../df/d0e/classengine_1_1direct3d_1_1_dynamic_buffer.html" target="_top" xlink:title="The dynamic buffer class.">
<polygon fill="white" stroke="#666666" points="822.25,-351.5 696.75,-351.5 696.75,-321 822.25,-321 822.25,-351.5"/>
<text text-anchor="start" x="704.75" y="-338" font-family="Helvetica,sans-Serif" font-size="10.00">engine::direct3d::Dynamic</text>
<text text-anchor="middle" x="759.5" y="-326.75" font-family="Helvetica,sans-Serif" font-size="10.00">Buffer&lt; T &gt;</text>
</a>
</g>
</g>
<!-- Node12&#45;&gt;Node11 -->
<g id="edge11_Node000011_Node000012" class="edge">
<title>Node12&#45;&gt;Node11</title>
<g id="a_edge11_Node000011_Node000012"><a xlink:title=" ">
<path fill="none" stroke="#8b1a1a" d="M833.48,-347.39C869.09,-352.83 911.7,-359.33 946.79,-364.68"/>
<polygon fill="#8b1a1a" stroke="#8b1a1a" points="834.09,-343.79 823.68,-345.74 833.03,-350.71 834.09,-343.79"/>
</a>
</g>
</g>
<!-- Node13 -->
<g id="Node000013" class="node">
<title>Node13</title>
<g id="a_Node000013"><a xlink:href="../../d9/db4/classengine_1_1direct3d_1_1_buffer_base.html" target="_top" xlink:title="Buffer Base class that contains the common functions for all the buffers.">
<polygon fill="white" stroke="#666666" points="591.38,-248.5 477.88,-248.5 477.88,-218 591.38,-218 591.38,-248.5"/>
<text text-anchor="start" x="485.88" y="-235" font-family="Helvetica,sans-Serif" font-size="10.00">engine::direct3d::Buffer</text>
<text text-anchor="middle" x="534.62" y="-223.75" font-family="Helvetica,sans-Serif" font-size="10.00">Base&lt; T &gt;</text>
</a>
</g>
</g>
<!-- Node13&#45;&gt;Node12 -->
<g id="edge12_Node000012_Node000013" class="edge">
<title>Node13&#45;&gt;Node12</title>
<g id="a_edge12_Node000012_Node000013"><a xlink:title=" ">
<path fill="none" stroke="#63b8ff" d="M574.45,-253.99C604.41,-269.67 647.11,-291.33 685.5,-308.25 695.06,-312.47 705.48,-316.68 715.37,-320.51"/>
<polygon fill="#63b8ff" stroke="#63b8ff" points="576.27,-250.47 565.79,-248.91 573.02,-256.66 576.27,-250.47"/>
</a>
</g>
</g>
<!-- Node17 -->
<g id="Node000017" class="node">
<title>Node17</title>
<g id="a_Node000017"><a xlink:href="../../df/d0e/classengine_1_1direct3d_1_1_dynamic_buffer.html" target="_top" xlink:title="The dynamic buffer class.">
<polygon fill="white" stroke="#666666" points="822.25,-299.5 696.75,-299.5 696.75,-269 822.25,-269 822.25,-299.5"/>
<text text-anchor="start" x="704.75" y="-286" font-family="Helvetica,sans-Serif" font-size="10.00">engine::direct3d::Dynamic</text>
<text text-anchor="middle" x="759.5" y="-274.75" font-family="Helvetica,sans-Serif" font-size="10.00">Buffer&lt; T &gt;</text>
</a>
</g>
</g>
<!-- Node13&#45;&gt;Node17 -->
<g id="edge17_Node000017_Node000013" class="edge">
<title>Node13&#45;&gt;Node17</title>
<g id="a_edge17_Node000017_Node000013"><a xlink:title=" ">
<path fill="none" stroke="#63b8ff" d="M602.59,-248.57C632.36,-255.39 667.2,-263.36 696.39,-270.04"/>
<polygon fill="#63b8ff" stroke="#63b8ff" points="603.39,-244.94 592.87,-246.12 601.83,-251.76 603.39,-244.94"/>
</a>
</g>
</g>
<!-- Node19 -->
<g id="Node000019" class="node">
<title>Node19</title>
<g id="a_Node000019"><a xlink:href="../../df/d0e/classengine_1_1direct3d_1_1_dynamic_buffer.html" target="_top" xlink:title="The dynamic buffer class.">
<polygon fill="white" stroke="#666666" points="822.25,-248.5 696.75,-248.5 696.75,-218 822.25,-218 822.25,-248.5"/>
<text text-anchor="start" x="704.75" y="-235" font-family="Helvetica,sans-Serif" font-size="10.00">engine::direct3d::Dynamic</text>
<text text-anchor="middle" x="759.5" y="-223.75" font-family="Helvetica,sans-Serif" font-size="10.00">Buffer&lt; T &gt;</text>
</a>
</g>
</g>
<!-- Node13&#45;&gt;Node19 -->
<g id="edge20_Node000019_Node000013" class="edge">
<title>Node13&#45;&gt;Node19</title>
<g id="a_edge20_Node000019_Node000013"><a xlink:title=" ">
<path fill="none" stroke="#63b8ff" d="M602.59,-233.25C632.36,-233.25 667.2,-233.25 696.39,-233.25"/>
<polygon fill="#63b8ff" stroke="#63b8ff" points="602.87,-229.75 592.87,-233.25 602.87,-236.75 602.87,-229.75"/>
</a>
</g>
</g>
<!-- Node21 -->
<g id="Node000021" class="node">
<title>Node21</title>
<g id="a_Node000021"><a xlink:href="../../df/d0e/classengine_1_1direct3d_1_1_dynamic_buffer.html" target="_top" xlink:title="The dynamic buffer class.">
<polygon fill="white" stroke="#666666" points="822.25,-195.5 696.75,-195.5 696.75,-165 822.25,-165 822.25,-195.5"/>
<text text-anchor="start" x="704.75" y="-182" font-family="Helvetica,sans-Serif" font-size="10.00">engine::direct3d::Dynamic</text>
<text text-anchor="middle" x="759.5" y="-170.75" font-family="Helvetica,sans-Serif" font-size="10.00">Buffer&lt; T &gt;</text>
</a>
</g>
</g>
<!-- Node13&#45;&gt;Node21 -->
<g id="edge23_Node000021_Node000013" class="edge">
<title>Node13&#45;&gt;Node21</title>
<g id="a_edge23_Node000021_Node000013"><a xlink:title=" ">
<path fill="none" stroke="#63b8ff" d="M602.19,-217.42C632.05,-210.32 667.07,-201.99 696.39,-195.02"/>
<polygon fill="#63b8ff" stroke="#63b8ff" points="601.78,-214.16 592.87,-219.88 603.4,-220.97 601.78,-214.16"/>
</a>
</g>
</g>
<!-- Node23 -->
<g id="Node000023" class="node">
<title>Node23</title>
<g id="a_Node000023"><a xlink:href="../../df/d0e/classengine_1_1direct3d_1_1_dynamic_buffer.html" target="_top" xlink:title="The dynamic buffer class.">
<polygon fill="white" stroke="#666666" points="822.25,-138.5 696.75,-138.5 696.75,-108 822.25,-108 822.25,-138.5"/>
<text text-anchor="start" x="704.75" y="-125" font-family="Helvetica,sans-Serif" font-size="10.00">engine::direct3d::Dynamic</text>
<text text-anchor="middle" x="759.5" y="-113.75" font-family="Helvetica,sans-Serif" font-size="10.00">Buffer&lt; T &gt;</text>
</a>
</g>
</g>
<!-- Node13&#45;&gt;Node23 -->
<g id="edge26_Node000023_Node000013" class="edge">
<title>Node13&#45;&gt;Node23</title>
<g id="a_edge26_Node000023_Node000013"><a xlink:title=" ">
<path fill="none" stroke="#63b8ff" d="M574.68,-212.51C604.76,-196.69 647.51,-174.58 685.5,-156.25 697.65,-150.39 711.07,-144.23 723.06,-138.84"/>
<polygon fill="#63b8ff" stroke="#63b8ff" points="573.2,-209.86 565.98,-217.62 576.46,-216.05 573.2,-209.86"/>
</a>
</g>
</g>
<!-- Node14 -->
<g id="Node000014" class="node">
<title>Node14</title>
<g id="a_Node000014"><a xlink:href="../../d6/de4/classengine_1_1direct3d_1_1_buffer_wrapper.html" target="_top" xlink:title="A wrapper for a D3D11 buffer.">
<polygon fill="white" stroke="#666666" points="372.12,-248.5 258.62,-248.5 258.62,-218 372.12,-218 372.12,-248.5"/>
<text text-anchor="start" x="266.62" y="-235" font-family="Helvetica,sans-Serif" font-size="10.00">engine::direct3d::Buffer</text>
<text text-anchor="middle" x="315.38" y="-223.75" font-family="Helvetica,sans-Serif" font-size="10.00">Wrapper</text>
</a>
</g>
</g>
<!-- Node14&#45;&gt;Node13 -->
<g id="edge13_Node000013_Node000014" class="edge">
<title>Node14&#45;&gt;Node13</title>
<g id="a_edge13_Node000013_Node000014"><a xlink:title=" ">
<path fill="none" stroke="#8b1a1a" d="M383.48,-233.25C413.67,-233.25 448.89,-233.25 477.63,-233.25"/>
<polygon fill="#8b1a1a" stroke="#8b1a1a" points="383.6,-229.75 373.6,-233.25 383.6,-236.75 383.6,-229.75"/>
</a>
</g>
</g>
<!-- Node15 -->
<g id="Node000015" class="node">
<title>Node15</title>
<g id="a_Node000015"><a xlink:href="../../df/d47/classengine_1_1direct3d_1_1d3d__resource__wrapper.html" target="_top" xlink:title=" ">
<polygon fill="white" stroke="#666666" points="172.75,-248.5 0,-248.5 0,-218 172.75,-218 172.75,-248.5"/>
<text text-anchor="start" x="8" y="-235" font-family="Helvetica,sans-Serif" font-size="10.00">engine::direct3d::d3d</text>
<text text-anchor="middle" x="86.38" y="-223.75" font-family="Helvetica,sans-Serif" font-size="10.00">_resource_wrapper&lt; ID3D11Buffer &gt;</text>
</a>
</g>
</g>
<!-- Node15&#45;&gt;Node14 -->
<g id="edge14_Node000014_Node000015" class="edge">
<title>Node15&#45;&gt;Node14</title>
<g id="a_edge14_Node000014_Node000015"><a xlink:title=" ">
<path fill="none" stroke="#9a32cd" stroke-dasharray="5,2" d="M183.98,-233.25C209.36,-233.25 235.88,-233.25 258.33,-233.25"/>
<polygon fill="#9a32cd" stroke="#9a32cd" points="184.19,-229.75 174.19,-233.25 184.19,-236.75 184.19,-229.75"/>
</a>
</g>
<text text-anchor="middle" x="211.38" y="-235" font-family="Helvetica,sans-Serif" font-size="10.00" fill="grey"> buffer_</text>
</g>
<!-- Node16 -->
<g id="Node000016" class="node">
<title>Node16</title>
<g id="a_Node000016"><a xlink:href="../../d2/db0/classengine_1_1direct3d_1_1_dynamic_uniform_buffer.html" target="_top" xlink:title=" ">
<polygon fill="white" stroke="#666666" points="1082.38,-330.75 951.62,-330.75 951.62,-277.75 1082.38,-277.75 1082.38,-330.75"/>
<text text-anchor="start" x="959.62" y="-317.25" font-family="Helvetica,sans-Serif" font-size="10.00">engine::direct3d::Dynamic</text>
<text text-anchor="start" x="959.62" y="-306" font-family="Helvetica,sans-Serif" font-size="10.00">UniformBuffer&lt; engine::</text>
<text text-anchor="start" x="959.62" y="-294.75" font-family="Helvetica,sans-Serif" font-size="10.00">render::_opaque_detail::</text>
<text text-anchor="middle" x="1017" y="-283.5" font-family="Helvetica,sans-Serif" font-size="10.00">OpaquePerDepthTexture &gt;</text>
</a>
</g>
</g>
<!-- Node16&#45;&gt;Node1 -->
<g id="edge15_Node000001_Node000016" class="edge">
<title>Node16&#45;&gt;Node1</title>
<g id="a_edge15_Node000001_Node000016"><a xlink:title=" ">
<path fill="none" stroke="#9a32cd" stroke-dasharray="5,2" d="M1093.64,-297.55C1145.88,-292.93 1214.79,-286.83 1265.47,-282.34"/>
<polygon fill="#9a32cd" stroke="#9a32cd" points="1093.41,-294.15 1083.76,-298.52 1094.03,-301.12 1093.41,-294.15"/>
</a>
</g>
<text text-anchor="middle" x="1185.5" y="-296" font-family="Helvetica,sans-Serif" font-size="10.00" fill="grey"> grass_per_texture_buffer_</text>
</g>
<!-- Node17&#45;&gt;Node16 -->
<g id="edge16_Node000016_Node000017" class="edge">
<title>Node17&#45;&gt;Node16</title>
<g id="a_edge16_Node000016_Node000017"><a xlink:title=" ">
<path fill="none" stroke="#8b1a1a" d="M833.44,-289.96C870.6,-292.87 915.4,-296.38 951.32,-299.19"/>
<polygon fill="#8b1a1a" stroke="#8b1a1a" points="833.92,-286.41 823.68,-289.12 833.37,-293.39 833.92,-286.41"/>
</a>
</g>
</g>
<!-- Node18 -->
<g id="Node000018" class="node">
<title>Node18</title>
<g id="a_Node000018"><a xlink:href="../../d2/db0/classengine_1_1direct3d_1_1_dynamic_uniform_buffer.html" target="_top" xlink:title=" ">
<polygon fill="white" stroke="#666666" points="1100.38,-259.75 933.62,-259.75 933.62,-206.75 1100.38,-206.75 1100.38,-259.75"/>
<text text-anchor="start" x="941.62" y="-246.25" font-family="Helvetica,sans-Serif" font-size="10.00">engine::direct3d::Dynamic</text>
<text text-anchor="start" x="941.62" y="-235" font-family="Helvetica,sans-Serif" font-size="10.00">UniformBuffer&lt; engine::</text>
<text text-anchor="start" x="941.62" y="-223.75" font-family="Helvetica,sans-Serif" font-size="10.00">render::_grass_detail::GrassRender</text>
<text text-anchor="middle" x="1017" y="-212.5" font-family="Helvetica,sans-Serif" font-size="10.00">System::GPUTransformInfo &gt;</text>
</a>
</g>
</g>
<!-- Node18&#45;&gt;Node1 -->
<g id="edge18_Node000001_Node000018" class="edge">
<title>Node18&#45;&gt;Node1</title>
<g id="a_edge18_Node000001_Node000018"><a xlink:title=" ">
<path fill="none" stroke="#9a32cd" stroke-dasharray="5,2" d="M1111.37,-245.95C1160.74,-252.66 1220.28,-260.75 1265.4,-266.89"/>
<polygon fill="#9a32cd" stroke="#9a32cd" points="1112.06,-242.37 1101.68,-244.49 1111.12,-249.31 1112.06,-242.37"/>
</a>
</g>
<text text-anchor="middle" x="1185.5" y="-265" font-family="Helvetica,sans-Serif" font-size="10.00" fill="grey"> grass_transform_buffer_</text>
</g>
<!-- Node19&#45;&gt;Node18 -->
<g id="edge19_Node000018_Node000019" class="edge">
<title>Node19&#45;&gt;Node18</title>
<g id="a_edge19_Node000018_Node000019"><a xlink:title=" ">
<path fill="none" stroke="#8b1a1a" d="M833.45,-233.25C864.57,-233.25 901.06,-233.25 933.19,-233.25"/>
<polygon fill="#8b1a1a" stroke="#8b1a1a" points="833.68,-229.75 823.68,-233.25 833.68,-236.75 833.68,-229.75"/>
</a>
</g>
</g>
<!-- Node20 -->
<g id="Node000020" class="node">
<title>Node20</title>
<g id="a_Node000020"><a xlink:href="../../d5/dbb/classengine_1_1direct3d_1_1_dynamic_vertex_buffer.html" target="_top" xlink:title=" ">
<polygon fill="white" stroke="#666666" points="1105.25,-189.12 928.75,-189.12 928.75,-147.38 1105.25,-147.38 1105.25,-189.12"/>
<text text-anchor="start" x="936.75" y="-175.62" font-family="Helvetica,sans-Serif" font-size="10.00">engine::direct3d::Dynamic</text>
<text text-anchor="start" x="936.75" y="-164.38" font-family="Helvetica,sans-Serif" font-size="10.00">VertexBuffer&lt; engine::render</text>
<text text-anchor="middle" x="1017" y="-153.12" font-family="Helvetica,sans-Serif" font-size="10.00">::_grass_detail::GPUGrassInstance &gt;</text>
</a>
</g>
</g>
<!-- Node20&#45;&gt;Node1 -->
<g id="edge21_Node000001_Node000020" class="edge">
<title>Node20&#45;&gt;Node1</title>
<g id="a_edge21_Node000001_Node000020"><a xlink:title=" ">
<path fill="none" stroke="#9a32cd" stroke-dasharray="5,2" d="M1116.32,-191.59C1157.51,-202.48 1205.53,-216.66 1247.75,-233 1267.95,-240.82 1289.76,-251.74 1306.42,-260.65"/>
<polygon fill="#9a32cd" stroke="#9a32cd" points="1117.29,-187.96 1106.73,-188.82 1115.52,-194.73 1117.29,-187.96"/>
</a>
</g>
<text text-anchor="middle" x="1185.5" y="-234" font-family="Helvetica,sans-Serif" font-size="10.00" fill="grey"> instance_buffer_</text>
</g>
<!-- Node21&#45;&gt;Node20 -->
<g id="edge22_Node000020_Node000021" class="edge">
<title>Node21&#45;&gt;Node20</title>
<g id="a_edge22_Node000020_Node000021"><a xlink:title=" ">
<path fill="none" stroke="#63b8ff" d="M833.35,-176.83C862.95,-175.44 897.41,-173.82 928.37,-172.37"/>
<polygon fill="#63b8ff" stroke="#63b8ff" points="833.5,-173.36 823.68,-177.33 833.83,-180.36 833.5,-173.36"/>
</a>
</g>
</g>
<!-- Node22 -->
<g id="Node000022" class="node">
<title>Node22</title>
<g id="a_Node000022"><a xlink:href="../../d2/db0/classengine_1_1direct3d_1_1_dynamic_uniform_buffer.html" target="_top" xlink:title=" ">
<polygon fill="white" stroke="#666666" points="1092.5,-129.75 941.5,-129.75 941.5,-76.75 1092.5,-76.75 1092.5,-129.75"/>
<text text-anchor="start" x="949.5" y="-116.25" font-family="Helvetica,sans-Serif" font-size="10.00">engine::direct3d::Dynamic</text>
<text text-anchor="start" x="949.5" y="-105" font-family="Helvetica,sans-Serif" font-size="10.00">UniformBuffer&lt; engine::</text>
<text text-anchor="start" x="949.5" y="-93.75" font-family="Helvetica,sans-Serif" font-size="10.00">render::_grass_detail::GrassPer</text>
<text text-anchor="middle" x="1017" y="-82.5" font-family="Helvetica,sans-Serif" font-size="10.00">Material &gt;</text>
</a>
</g>
</g>
<!-- Node22&#45;&gt;Node1 -->
<g id="edge24_Node000001_Node000022" class="edge">
<title>Node22&#45;&gt;Node1</title>
<g id="a_edge24_Node000001_Node000022"><a xlink:title=" ">
<path fill="none" stroke="#9a32cd" stroke-dasharray="5,2" d="M1103.59,-113.75C1149.29,-122.46 1204.82,-138.26 1247.75,-166.75 1284.69,-191.27 1313.02,-236.69 1326.17,-260.6"/>
<polygon fill="#9a32cd" stroke="#9a32cd" points="1104.26,-110.13 1093.79,-111.78 1103.01,-117.02 1104.26,-110.13"/>
</a>
</g>
<text text-anchor="start" x="1143.12" y="-179.25" font-family="Helvetica,sans-Serif" font-size="10.00" fill="grey"> grass_per_material</text>
<text text-anchor="middle" x="1185.5" y="-168" font-family="Helvetica,sans-Serif" font-size="10.00" fill="grey">_buffer_</text>
</g>
<!-- Node23&#45;&gt;Node22 -->
<g id="edge25_Node000022_Node000023" class="edge">
<title>Node23&#45;&gt;Node22</title>
<g id="a_edge25_Node000022_Node000023"><a xlink:title=" ">
<path fill="none" stroke="#8b1a1a" d="M833.4,-117.54C867.17,-114.9 907.25,-111.76 941.24,-109.1"/>
<polygon fill="#8b1a1a" stroke="#8b1a1a" points="833.37,-114.11 823.68,-118.38 833.92,-121.09 833.37,-114.11"/>
</a>
</g>
</g>
<!-- Node24 -->
<g id="Node000024" class="node">
<title>Node24</title>
<g id="a_Node000024"><a xlink:title=" ">
<polygon fill="white" stroke="#666666" points="1071.88,-59.12 962.12,-59.12 962.12,-17.38 1071.88,-17.38 1071.88,-59.12"/>
<text text-anchor="start" x="970.12" y="-45.62" font-family="Helvetica,sans-Serif" font-size="10.00">std::vector&lt; engine</text>
<text text-anchor="start" x="970.12" y="-34.38" font-family="Helvetica,sans-Serif" font-size="10.00">::render::_grass_detail</text>
<text text-anchor="middle" x="1017" y="-23.12" font-family="Helvetica,sans-Serif" font-size="10.00">::MaterialInstance &gt;</text>
</a>
</g>
</g>
<!-- Node24&#45;&gt;Node1 -->
<g id="edge27_Node000001_Node000024" class="edge">
<title>Node24&#45;&gt;Node1</title>
<g id="a_edge27_Node000001_Node000024"><a xlink:title=" ">
<path fill="none" stroke="#9a32cd" stroke-dasharray="5,2" d="M1082.71,-42.44C1132.71,-48.74 1201.05,-64.36 1247.75,-103 1299.3,-145.65 1322.97,-226.68 1330.96,-260.65"/>
<polygon fill="#9a32cd" stroke="#9a32cd" points="1083.35,-38.88 1073.01,-41.2 1082.54,-45.83 1083.35,-38.88"/>
</a>
</g>
<text text-anchor="middle" x="1185.5" y="-104" font-family="Helvetica,sans-Serif" font-size="10.00" fill="grey"> materials_</text>
</g>
<!-- Node25 -->
<g id="Node000025" class="node">
<title>Node25</title>
<g id="a_Node000025"><a xlink:href="../../da/d89/structengine_1_1render_1_1__grass__detail_1_1_material_instance.html" target="_top" xlink:title=" ">
<polygon fill="white" stroke="#666666" points="820,-53.5 699,-53.5 699,-23 820,-23 820,-53.5"/>
<text text-anchor="start" x="707" y="-40" font-family="Helvetica,sans-Serif" font-size="10.00">engine::render::_grass</text>
<text text-anchor="middle" x="759.5" y="-28.75" font-family="Helvetica,sans-Serif" font-size="10.00">_detail::MaterialInstance</text>
</a>
</g>
</g>
<!-- Node25&#45;&gt;Node24 -->
<g id="edge28_Node000024_Node000025" class="edge">
<title>Node25&#45;&gt;Node24</title>
<g id="a_edge28_Node000024_Node000025"><a xlink:title=" ">
<path fill="none" stroke="#9a32cd" stroke-dasharray="5,2" d="M831.2,-38.25C872.44,-38.25 923.65,-38.25 961.7,-38.25"/>
<polygon fill="#9a32cd" stroke="#9a32cd" points="831.4,-34.75 821.4,-38.25 831.4,-41.75 831.4,-34.75"/>
</a>
</g>
<text text-anchor="middle" x="881.12" y="-40" font-family="Helvetica,sans-Serif" font-size="10.00" fill="grey"> elements</text>
</g>
<!-- Node26 -->
<g id="Node000026" class="node">
<title>Node26</title>
<g id="a_Node000026"><a xlink:title=" ">
<polygon fill="white" stroke="#666666" points="579.75,-73.5 489.5,-73.5 489.5,-43 579.75,-43 579.75,-73.5"/>
<text text-anchor="start" x="497.5" y="-60" font-family="Helvetica,sans-Serif" font-size="10.00">std::vector&lt; entt::</text>
<text text-anchor="middle" x="534.62" y="-48.75" font-family="Helvetica,sans-Serif" font-size="10.00">entity &gt;</text>
</a>
</g>
</g>
<!-- Node26&#45;&gt;Node25 -->
<g id="edge29_Node000025_Node000026" class="edge">
<title>Node26&#45;&gt;Node25</title>
<g id="a_edge29_Node000025_Node000026"><a xlink:title=" ">
<path fill="none" stroke="#9a32cd" stroke-dasharray="5,2" d="M590.95,-53.29C623.73,-50.34 665.28,-46.61 698.81,-43.61"/>
<polygon fill="#9a32cd" stroke="#9a32cd" points="590.84,-49.87 581.19,-54.25 591.46,-56.84 590.84,-49.87"/>
</a>
</g>
<text text-anchor="middle" x="645.38" y="-51" font-family="Helvetica,sans-Serif" font-size="10.00" fill="grey"> instances</text>
</g>
<!-- Node27 -->
<g id="Node000027" class="node">
<title>Node27</title>
<g id="a_Node000027"><a xlink:href="../../da/d1a/structengine_1_1render_1_1_grass_material.html" target="_top" xlink:title=" ">
<polygon fill="white" stroke="#666666" points="605.25,-24.88 464,-24.88 464,-5.62 605.25,-5.62 605.25,-24.88"/>
<text text-anchor="middle" x="534.62" y="-11.38" font-family="Helvetica,sans-Serif" font-size="10.00">engine::render::GrassMaterial</text>
</a>
</g>
</g>
<!-- Node27&#45;&gt;Node25 -->
<g id="edge30_Node000025_Node000027" class="edge">
<title>Node27&#45;&gt;Node25</title>
<g id="a_edge30_Node000025_Node000027"><a xlink:title=" ">
<path fill="none" stroke="#9a32cd" stroke-dasharray="5,2" d="M616.21,-23.57C643.42,-26.37 673.28,-29.46 698.6,-32.07"/>
<polygon fill="#9a32cd" stroke="#9a32cd" points="616.84,-20.01 606.53,-22.46 616.12,-26.97 616.84,-20.01"/>
</a>
</g>
<text text-anchor="middle" x="645.38" y="-31" font-family="Helvetica,sans-Serif" font-size="10.00" fill="grey"> material</text>
</g>
<!-- Node28 -->
<g id="Node000028" class="node">
<title>Node28</title>
<g id="a_Node000028"><a xlink:title=" ">
<polygon fill="white" stroke="#666666" points="361.62,-30.5 269.12,-30.5 269.12,0 361.62,0 361.62,-30.5"/>
<text text-anchor="start" x="277.12" y="-17" font-family="Helvetica,sans-Serif" font-size="10.00">std::vector&lt; core::</text>
<text text-anchor="middle" x="315.38" y="-5.75" font-family="Helvetica,sans-Serif" font-size="10.00">math::vec4 &gt;</text>
</a>
</g>
</g>
<!-- Node28&#45;&gt;Node27 -->
<g id="edge31_Node000027_Node000028" class="edge">
<title>Node28&#45;&gt;Node27</title>
<g id="a_edge31_Node000027_Node000028"><a xlink:title=" ">
<path fill="none" stroke="#9a32cd" stroke-dasharray="5,2" d="M372.65,-15.25C400.46,-15.25 434.3,-15.25 463.75,-15.25"/>
<polygon fill="#9a32cd" stroke="#9a32cd" points="372.92,-11.75 362.92,-15.25 372.92,-18.75 372.92,-11.75"/>
</a>
</g>
<text text-anchor="middle" x="422.38" y="-17" font-family="Helvetica,sans-Serif" font-size="10.00" fill="grey"> atlas_data</text>
</g>
</g>
</svg>

<g id="navigator" transform="translate(0 0)" fill="#404254">
  <rect fill="#f2f5e9" fill-opacity="0.5" stroke="#606060" stroke-width=".5" x="0" y="0" width="60" height="60"/>
  <use id="zoomplus" xlink:href="#zoomPlus" x="17" y="9" onmousedown="handleZoom(evt,'in')"/>
  <use id="zoomminus" xlink:href="#zoomMin" x="42" y="9" onmousedown="handleZoom(evt,'out')"/>
  <use id="reset" xlink:href="#resetDef" x="30" y="36" onmousedown="handleReset()"/>
   <use id="arrowup" xlink:href="#arrowUp" x="0" y="0" onmousedown="handlePan(0,-1)"/>
  <use id="arrowright" xlink:href="#arrowRight" x="0" y="0" onmousedown="handlePan(1,0)"/>
  <use id="arrowdown" xlink:href="#arrowDown" x="0" y="0" onmousedown="handlePan(0,1)"/>
  <use id="arrowleft" xlink:href="#arrowLeft" x="0" y="0" onmousedown="handlePan(-1,0)"/>
</g>
<svg viewBox="0 0 15 15" width="100%" height="30px" preserveAspectRatio="xMaxYMin meet">
 <g id="arrow_out" transform="scale(0.3 0.3)">
  <a xlink:href="classengine_1_1render_1_1__grass__detail_1_1_grass_render_system__coll__graph_org.svg" target="_base">
   <rect id="button" ry="5" rx="5" y="6" x="6" height="38" width="38"
        fill="#f2f5e9" fill-opacity="0.5" stroke="#606060" stroke-width="1.0"/>
   <path id="arrow"
     d="M 11.500037,31.436501 C 11.940474,20.09759 22.043105,11.32322 32.158766,21.979434 L 37.068811,17.246167 C 37.068811,17.246167 37.088388,32 37.088388,32 L 22.160133,31.978069 C 22.160133,31.978069 26.997745,27.140456 26.997745,27.140456 C 18.528582,18.264221 13.291696,25.230495 11.500037,31.436501 z"
     style="fill:#404040;"/>
  </a>
 </g>
</svg>

<style type='text/css'>
<![CDATA[
[data-mouse-over-selected='false'] { opacity: 0.7; }
[data-mouse-over-selected='true']  { opacity: 1.0; }
]]>
</style>
<script type="application/ecmascript"><![CDATA[
document.addEventListener('DOMContentLoaded', (event) => {
  highlightEdges();
  highlightAdjacentNodes();
});
]]></script>
</svg>
