<?xml version="1.0" encoding="UTF-8" standalone="no"?>
<!DOCTYPE svg PUBLIC "-//W3C//DTD SVG 1.1//EN"
 "http://www.w3.org/Graphics/SVG/1.1/DTD/svg11.dtd">
<!-- Generated by graphviz version 9.0.0 (20230911.1827)
 -->
<!-- Title: engine::render::_grass_detail::GrassRenderSystem Pages: 1 -->
<!--zoomable 500 -->

<svg id="main" version="1.1" xmlns="http://www.w3.org/2000/svg" xmlns:xlink="http://www.w3.org/1999/xlink" xml:space="preserve" onload="init(evt)">
<style type="text/css"><![CDATA[
.node, .edge {opacity: 0.7;}
.node.selected, .edge.selected {opacity: 1;}
.edge:hover path { stroke: red; }
.edge:hover polygon { stroke: red; fill: red; }
]]></style>

<defs>
  <circle id="rim" cx="0" cy="0" r="7"/>
  <circle id="rim2" cx="0" cy="0" r="3.5"/>
  <g id="zoomPlus">
    <use xlink:href="#rim" fill="#404040"><set attributeName="fill" to="#808080" begin="zoomplus.mouseover" end="zoomplus.mouseout"/></use>
    <path d="M-4,0h8M0,-4v8" fill="none" stroke="white" stroke-width="1.5" pointer-events="none"/>
  </g>
  <g id="zoomMin">
    <use xlink:href="#rim" fill="#404040"><set attributeName="fill" to="#808080" begin="zoomminus.mouseover" end="zoomminus.mouseout"/></use>
    <path d="M-4,0h8" fill="none" stroke="white" stroke-width="1.5" pointer-events="none"/>
  </g>
  <g id="arrowUp" transform="translate(30 24)">
    <use xlink:href="#rim"/>
    <path pointer-events="none" fill="none" stroke="white" stroke-width="1.5" d="M0,-3.0v7 M-2.5,-0.5L0,-3.0L2.5,-0.5"/>
  </g>
  <g id="arrowRight" transform="rotate(90) translate(36 -43)">
    <use xlink:href="#rim"/>
    <path pointer-events="none" fill="none" stroke="white" stroke-width="1.5" d="M0,-3.0v7 M-2.5,-0.5L0,-3.0L2.5,-0.5"/>
  </g>
  <g id="arrowDown" transform="rotate(180) translate(-30 -48)">
    <use xlink:href="#rim"/>
    <path pointer-events="none" fill="none" stroke="white" stroke-width="1.5" d="M0,-3.0v7 M-2.5,-0.5L0,-3.0L2.5,-0.5"/>
  </g>
  <g id="arrowLeft" transform="rotate(270) translate(-36 17)">
    <use xlink:href="#rim"/>
    <path pointer-events="none" fill="none" stroke="white" stroke-width="1.5" d="M0,-3.0v7 M-2.5,-0.5L0,-3.0L2.5,-0.5"/>
  </g>
  <g id="resetDef">
    <use xlink:href="#rim2" fill="#404040"><set attributeName="fill" to="#808080" begin="reset.mouseover" end="reset.mouseout"/></use>
  </g>
</defs>
<script type="application/ecmascript">
var viewWidth = 1413;
var viewHeight = 500;
var sectionId = 'dynsection-1';
</script>
<script type="application/ecmascript" xlink:href="../../svg.min.js"/>
<svg id="graph" class="graph">
<g id="viewport">
<title>engine::render::_grass_detail::GrassRenderSystem</title>
<!-- Node1 -->
<g id="Node000001" class="node">
<title>Node1</title>
<g id="a_Node000001"><a xlink:title=" ">
<polygon fill="#999999" stroke="#666666" points="1404.75,-291.5 1265.75,-291.5 1265.75,-261 1404.75,-261 1404.75,-291.5"/>
<text text-anchor="start" x="1273.75" y="-278" font-family="Helvetica,sans-Serif" font-size="10.00">engine::render::_grass</text>
<text text-anchor="middle" x="1335.25" y="-266.75" font-family="Helvetica,sans-Serif" font-size="10.00">_detail::GrassRenderSystem</text>
</a>
</g>
</g>
<!-- Node2 -->
<g id="Node000002" class="node">
<title>Node2</title>
<g id="a_Node000002"><a xlink:href="../../da/df3/structengine_1_1render_1_1_render_pass.html" target="_top" xlink:title=" ">
<polygon fill="white" stroke="#666666" points="1083.88,-487.88 950.12,-487.88 950.12,-468.62 1083.88,-468.62 1083.88,-487.88"/>
<text text-anchor="middle" x="1017" y="-474.38" font-family="Helvetica,sans-Serif" font-size="10.00">engine::render::RenderPass</text>
</a>
</g>
</g>
<!-- Node2&#45;&gt;Node1 -->
<g id="edge1_Node000001_Node000002" class="edge">
<title>Node2&#45;&gt;Node1</title>
<g id="a_edge1_Node000001_Node000002"><a xlink:title=" ">
<path fill="none" stroke="#63b8ff" d="M1083.01,-489.62C1132.48,-494.63 1199.96,-493.28 1247.75,-460.25 1306.41,-419.71 1326.35,-328.58 1332.16,-291.95"/>
<polygon fill="#63b8ff" stroke="#63b8ff" points="1083.63,-486.16 1073.3,-488.51 1082.84,-493.12 1083.63,-486.16"/>
</a>
</g>
</g>
<!-- Node3 -->
<g id="Node000003" class="node">
<title>Node3</title>
<g id="a_Node000003"><a xlink:href="../../dd/d36/classengine_1_1render_1_1_graphics_shader_program.html" target="_top" xlink:title=" ">
<polygon fill="white" stroke="#666666" points="1076.75,-450.5 957.25,-450.5 957.25,-420 1076.75,-420 1076.75,-450.5"/>
<text text-anchor="start" x="965.25" y="-437" font-family="Helvetica,sans-Serif" font-size="10.00">engine::render::Graphics</text>
<text text-anchor="middle" x="1017" y="-425.75" font-family="Helvetica,sans-Serif" font-size="10.00">ShaderProgram</text>
</a>
</g>
</g>
<!-- Node3&#45;&gt;Node1 -->
<g id="edge2_Node000001_Node000003" class="edge">
<title>Node3&#45;&gt;Node1</title>
<g id="a_edge2_Node000001_Node000003"><a xlink:title=" ">
<path fill="none" stroke="#9a32cd" stroke-dasharray="5,2" d="M1088.21,-422.05C1135.79,-410.92 1198.68,-391.81 1247.75,-361.25 1278.31,-342.22 1306.64,-310.68 1322.08,-291.84"/>
<polygon fill="#9a32cd" stroke="#9a32cd" points="1087.54,-418.61 1078.56,-424.24 1089.08,-425.44 1087.54,-418.61"/>
</a>
</g>
<text text-anchor="start" x="1132.62" y="-446.75" font-family="Helvetica,sans-Serif" font-size="10.00" fill="grey"> grass_cubemap_shader</text>
<text text-anchor="middle" x="1185.5" y="-435.5" font-family="Helvetica,sans-Serif" font-size="10.00" fill="grey">_</text>
<text text-anchor="middle" x="1185.5" y="-424.25" font-family="Helvetica,sans-Serif" font-size="10.00" fill="grey">grass_shader_</text>
<text text-anchor="middle" x="1185.5" y="-413" font-family="Helvetica,sans-Serif" font-size="10.00" fill="grey">grass_texture_shader_</text>
</g>
<!-- Node4 -->
<g id="Node000004" class="node">
<title>Node4</title>
<g id="a_Node000004"><a xlink:href="../../db/db6/structengine_1_1render_1_1_shader_program.html" target="_top" xlink:title=" ">
<polygon fill="white" stroke="#666666" points="833.5,-487.88 685.5,-487.88 685.5,-468.62 833.5,-468.62 833.5,-487.88"/>
<text text-anchor="middle" x="759.5" y="-474.38" font-family="Helvetica,sans-Serif" font-size="10.00">engine::render::ShaderProgram</text>
</a>
</g>
</g>
<!-- Node4&#45;&gt;Node3 -->
<g id="edge3_Node000003_Node000004" class="edge">
<title>Node4&#45;&gt;Node3</title>
<g id="a_edge3_Node000003_Node000004"><a xlink:title=" ">
<path fill="none" stroke="#63b8ff" d="M831.54,-466.29C871.01,-459.65 919.54,-451.48 956.91,-445.19"/>
<polygon fill="#63b8ff" stroke="#63b8ff" points="831.18,-462.81 821.9,-467.92 832.34,-469.71 831.18,-462.81"/>
</a>
</g>
</g>
<!-- Node5 -->
<g id="Node000005" class="node">
<title>Node5</title>
<g id="a_Node000005"><a xlink:title=" ">
<polygon fill="white" stroke="#666666" points="817.75,-450.5 701.25,-450.5 701.25,-420 817.75,-420 817.75,-450.5"/>
<text text-anchor="start" x="709.25" y="-437" font-family="Helvetica,sans-Serif" font-size="10.00">std::shared_ptr&lt; engine</text>
<text text-anchor="middle" x="759.5" y="-425.75" font-family="Helvetica,sans-Serif" font-size="10.00">::render::Shader &gt;</text>
</a>
</g>
</g>
<!-- Node5&#45;&gt;Node3 -->
<g id="edge4_Node000003_Node000005" class="edge">
<title>Node5&#45;&gt;Node3</title>
<g id="a_edge4_Node000003_Node000005"><a xlink:title=" ">
<path fill="none" stroke="#9a32cd" stroke-dasharray="5,2" d="M829.63,-435.25C869.39,-435.25 918.82,-435.25 956.78,-435.25"/>
<polygon fill="#9a32cd" stroke="#9a32cd" points="829.67,-431.75 819.67,-435.25 829.67,-438.75 829.67,-431.75"/>
</a>
</g>
<text text-anchor="middle" x="881.12" y="-437" font-family="Helvetica,sans-Serif" font-size="10.00" fill="grey"> shaders_</text>
</g>
<!-- Node6 -->
<g id="Node000006" class="node">
<title>Node6</title>
<g id="a_Node000006"><a xlink:href="../../d0/dc5/classengine_1_1render_1_1_shader.html" target="_top" xlink:title=" ">
<polygon fill="white" stroke="#666666" points="590.25,-444.88 479,-444.88 479,-425.62 590.25,-425.62 590.25,-444.88"/>
<text text-anchor="middle" x="534.62" y="-431.38" font-family="Helvetica,sans-Serif" font-size="10.00">engine::render::Shader</text>
</a>
</g>
</g>
<!-- Node6&#45;&gt;Node5 -->
<g id="edge5_Node000005_Node000006" class="edge">
<title>Node6&#45;&gt;Node5</title>
<g id="a_edge5_Node000005_Node000006"><a xlink:title=" ">
<path fill="none" stroke="#9a32cd" stroke-dasharray="5,2" d="M602.02,-435.25C633.48,-435.25 670.69,-435.25 700.93,-435.25"/>
<polygon fill="#9a32cd" stroke="#9a32cd" points="602.23,-431.75 592.23,-435.25 602.23,-438.75 602.23,-431.75"/>
</a>
</g>
<text text-anchor="middle" x="645.38" y="-437" font-family="Helvetica,sans-Serif" font-size="10.00" fill="grey"> ptr</text>
</g>
<!-- Node7 -->
<g id="Node000007" class="node">
<title>Node7</title>
<g id="a_Node000007"><a xlink:href="../../d3/de6/structengine_1_1render_1_1_shader_blob.html" target="_top" xlink:title=" ">
<polygon fill="white" stroke="#666666" points="380.75,-444.88 250,-444.88 250,-425.62 380.75,-425.62 380.75,-444.88"/>
<text text-anchor="middle" x="315.38" y="-431.38" font-family="Helvetica,sans-Serif" font-size="10.00">engine::render::ShaderBlob</text>
</a>
</g>
</g>
<!-- Node7&#45;&gt;Node6 -->
<g id="edge6_Node000006_Node000007" class="edge">
<title>Node7&#45;&gt;Node6</title>
<g id="a_edge6_Node000006_Node000007"><a xlink:title=" ">
<path fill="none" stroke="#9a32cd" stroke-dasharray="5,2" d="M392.14,-435.25C420.68,-435.25 452.56,-435.25 478.82,-435.25"/>
<polygon fill="#9a32cd" stroke="#9a32cd" points="392.48,-431.75 382.48,-435.25 392.48,-438.75 392.48,-431.75"/>
</a>
</g>
<text text-anchor="middle" x="422.38" y="-437" font-family="Helvetica,sans-Serif" font-size="10.00" fill="grey"> blob_</text>
</g>
<!-- Node8 -->
<g id="Node000008" class="node">
<title>Node8</title>
<g id="a_Node000008"><a xlink:title=" ">
<polygon fill="white" stroke="#666666" points="139.75,-444.88 33,-444.88 33,-425.62 139.75,-425.62 139.75,-444.88"/>
<text text-anchor="middle" x="86.38" y="-431.38" font-family="Helvetica,sans-Serif" font-size="10.00">std::vector&lt; uint8_t &gt;</text>
</a>
</g>
</g>
<!-- Node8&#45;&gt;Node7 -->
<g id="edge7_Node000007_Node000008" class="edge">
<title>Node8&#45;&gt;Node7</title>
<g id="a_edge7_Node000007_Node000008"><a xlink:title=" ">
<path fill="none" stroke="#9a32cd" stroke-dasharray="5,2" d="M151.5,-435.25C182.26,-435.25 219.04,-435.25 249.86,-435.25"/>
<polygon fill="#9a32cd" stroke="#9a32cd" points="151.54,-431.75 141.54,-435.25 151.54,-438.75 151.54,-431.75"/>
</a>
</g>
<text text-anchor="middle" x="211.38" y="-437" font-family="Helvetica,sans-Serif" font-size="10.00" fill="grey"> bytecode</text>
</g>
<!-- Node9 -->
<g id="Node000009" class="node">
<title>Node9</title>
<g id="a_Node000009"><a xlink:title=" ">
<polygon fill="white" stroke="#666666" points="817.75,-401.5 701.25,-401.5 701.25,-371 817.75,-371 817.75,-401.5"/>
<text text-anchor="start" x="709.25" y="-388" font-family="Helvetica,sans-Serif" font-size="10.00">std::shared_ptr&lt; engine</text>
<text text-anchor="middle" x="759.5" y="-376.75" font-family="Helvetica,sans-Serif" font-size="10.00">::render::InputLayout &gt;</text>
</a>
</g>
</g>
<!-- Node9&#45;&gt;Node3 -->
<g id="edge8_Node000003_Node000009" class="edge">
<title>Node9&#45;&gt;Node3</title>
<g id="a_edge8_Node000003_Node000009"><a xlink:title=" ">
<path fill="none" stroke="#9a32cd" stroke-dasharray="5,2" d="M829.37,-399.46C869.17,-407.09 918.74,-416.6 956.78,-423.89"/>
<polygon fill="#9a32cd" stroke="#9a32cd" points="830.12,-396.04 819.64,-397.59 828.81,-402.91 830.12,-396.04"/>
</a>
</g>
<text text-anchor="middle" x="881.12" y="-415" font-family="Helvetica,sans-Serif" font-size="10.00" fill="grey"> input_layout_</text>
</g>
<!-- Node10 -->
<g id="Node000010" class="node">
<title>Node10</title>
<g id="a_Node000010"><a xlink:href="../../d2/d6c/classengine_1_1render_1_1_input_layout.html" target="_top" xlink:title=" ">
<polygon fill="white" stroke="#666666" points="600.38,-395.88 468.88,-395.88 468.88,-376.62 600.38,-376.62 600.38,-395.88"/>
<text text-anchor="middle" x="534.62" y="-382.38" font-family="Helvetica,sans-Serif" font-size="10.00">engine::render::InputLayout</text>
</a>
</g>
</g>
<!-- Node10&#45;&gt;Node9 -->
<g id="edge9_Node000009_Node000010" class="edge">
<title>Node10&#45;&gt;Node9</title>
<g id="a_edge9_Node000009_Node000010"><a xlink:title=" ">
<path fill="none" stroke="#9a32cd" stroke-dasharray="5,2" d="M612.08,-386.25C641.2,-386.25 673.86,-386.25 700.94,-386.25"/>
<polygon fill="#9a32cd" stroke="#9a32cd" points="612.2,-382.75 602.2,-386.25 612.2,-389.75 612.2,-382.75"/>
</a>
</g>
<text text-anchor="middle" x="645.38" y="-388" font-family="Helvetica,sans-Serif" font-size="10.00" fill="grey"> ptr</text>
</g>
<!-- Node11 -->
<g id="Node000011" class="node">
<title>Node11</title>
<g id="a_Node000011"><a xlink:href="../../d2/db0/classengine_1_1direct3d_1_1_dynamic_uniform_buffer.html" target="_top" xlink:title=" ">
<polygon fill="white" stroke="#666666" points="1086.88,-401.75 947.12,-401.75 947.12,-348.75 1086.88,-348.75 1086.88,-401.75"/>
<text text-anchor="start" x="955.12" y="-388.25" font-family="Helvetica,sans-Serif" font-size="10.00">engine::direct3d::Dynamic</text>
<text text-anchor="start" x="955.12" y="-377" font-family="Helvetica,sans-Serif" font-size="10.00">UniformBuffer&lt; engine::</text>
<text text-anchor="start" x="955.12" y="-365.75" font-family="Helvetica,sans-Serif" font-size="10.00">render::_opaque_detail::</text>
<text text-anchor="middle" x="1017" y="-354.5" font-family="Helvetica,sans-Serif" font-size="10.00">OpaquePerDepthCubemap &gt;</text>
</a>
</g>
</g>
<!-- Node11&#45;&gt;Node1 -->
<g id="edge10_Node000001_Node000011" class="edge">
<title>Node11&#45;&gt;Node1</title>
<g id="a_edge10_Node000001_Node000011"><a xlink:title=" ">
<path fill="none" stroke="#9a32cd" stroke-dasharray="5,2" d="M1098.35,-353.97C1142.69,-341.77 1198.58,-325.66 1247.75,-309.25 1263.45,-304.01 1280.52,-297.64 1295.32,-291.91"/>
<polygon fill="#9a32cd" stroke="#9a32cd" points="1097.52,-350.56 1088.79,-356.58 1099.36,-357.32 1097.52,-350.56"/>
</a>
</g>
<text text-anchor="middle" x="1185.5" y="-348" font-family="Helvetica,sans-Serif" font-size="10.00" fill="grey"> grass_per_cubemap_buffer_</text>
</g>
<!-- Node12 -->
<g id="Node000012" class="node">
<title>Node12</title>
<g id="a_Node000012"><a xlink:href="../../df/d0e/classengine_1_1direct3d_1_1_dynamic_buffer.html" target="_top" xlink:title="The dynamic buffer class.">
<polygon fill="white" stroke="#666666" points="822.25,-351.5 696.75,-351.5 696.75,-321 822.25,-321 822.25,-351.5"/>
<text text-anchor="start" x="704.75" y="-338" font-family="Helvetica,sans-Serif" font-size="10.00">engine::direct3d::Dynamic</text>
<text text-anchor="middle" x="759.5" y="-326.75" font-family="Helvetica,sans-Serif" font-size="10.00">Buffer&lt; T &gt;</text>
</a>
</g>
</g>
<!-- Node12&#45;&gt;Node11 -->
<g id="edge11_Node000011_Node000012" class="edge">
<title>Node12&#45;&gt;Node11</title>
<g id="a_edge11_Node000011_Node000012"><a xlink:title=" ">
<path fill="none" stroke="#8b1a1a" d="M833.95,-347.46C869.46,-352.88 911.85,-359.35 946.79,-364.68"/>
<polygon fill="#8b1a1a" stroke="#8b1a1a" points="834.59,-344.02 824.17,-345.97 833.53,-350.94 834.59,-344.02"/>
</a>
</g>
</g>
<!-- Node13 -->
<g id="Node000013" class="node">
<title>Node13</title>
<g id="a_Node000013"><a xlink:href="../../d9/db4/classengine_1_1direct3d_1_1_buffer_base.html" target="_top" xlink:title="Buffer Base class that contains the common functions for all the buffers.">
<polygon fill="white" stroke="#666666" points="591.38,-248.5 477.88,-248.5 477.88,-218 591.38,-218 591.38,-248.5"/>
<text text-anchor="start" x="485.88" y="-235" font-family="Helvetica,sans-Serif" font-size="10.00">engine::direct3d::Buffer</text>
<text text-anchor="middle" x="534.62" y="-223.75" font-family="Helvetica,sans-Serif" font-size="10.00">Base&lt; T &gt;</text>
</a>
</g>
</g>
<!-- Node13&#45;&gt;Node12 -->
<g id="edge12_Node000012_Node000013" class="edge">
<title>Node13&#45;&gt;Node12</title>
<g id="a_edge12_Node000012_Node000013"><a xlink:title=" ">
<path fill="none" stroke="#63b8ff" d="M574.84,-254.19C604.78,-269.86 647.27,-291.4 685.5,-308.25 695.06,-312.47 705.48,-316.68 715.37,-320.51"/>
<polygon fill="#63b8ff" stroke="#63b8ff" points="576.61,-251.17 566.13,-249.62 573.36,-257.37 576.61,-251.17"/>
</a>
</g>
</g>
<!-- Node17 -->
<g id="Node000017" class="node">
<title>Node17</title>
<g id="a_Node000017"><a xlink:href="../../df/d0e/classengine_1_1direct3d_1_1_dynamic_buffer.html" target="_top" xlink:title="The dynamic buffer class.">
<polygon fill="white" stroke="#666666" points="822.25,-299.5 696.75,-299.5 696.75,-269 822.25,-269 822.25,-299.5"/>
<text text-anchor="start" x="704.75" y="-286" font-family="Helvetica,sans-Serif" font-size="10.00">engine::direct3d::Dynamic</text>
<text text-anchor="middle" x="759.5" y="-274.75" font-family="Helvetica,sans-Serif" font-size="10.00">Buffer&lt; T &gt;</text>
</a>
</g>
</g>
<!-- Node13&#45;&gt;Node17 -->
<g id="edge17_Node000017_Node000013" class="edge">
<title>Node13&#45;&gt;Node17</title>
<g id="a_edge17_Node000017_Node000013"><a xlink:title=" ">
<path fill="none" stroke="#63b8ff" d="M602.98,-248.66C632.67,-255.46 667.33,-263.39 696.39,-270.04"/>
<polygon fill="#63b8ff" stroke="#63b8ff" points="603.87,-245.28 593.34,-246.46 602.31,-252.1 603.87,-245.28"/>
</a>
</g>
</g>
<!-- Node19 -->
<g id="Node000019" class="node">
<title>Node19</title>
<g id="a_Node000019"><a xlink:href="../../df/d0e/classengine_1_1direct3d_1_1_dynamic_buffer.html" target="_top" xlink:title="The dynamic buffer class.">
<polygon fill="white" stroke="#666666" points="822.25,-248.5 696.75,-248.5 696.75,-218 822.25,-218 822.25,-248.5"/>
<text text-anchor="start" x="704.75" y="-235" font-family="Helvetica,sans-Serif" font-size="10.00">engine::direct3d::Dynamic</text>
<text text-anchor="middle" x="759.5" y="-223.75" font-family="Helvetica,sans-Serif" font-size="10.00">Buffer&lt; T &gt;</text>
</a>
</g>
</g>
<!-- Node13&#45;&gt;Node19 -->
<g id="edge20_Node000019_Node000013" class="edge">
<title>Node13&#45;&gt;Node19</title>
<g id="a_edge20_Node000019_Node000013"><a xlink:title=" ">
<path fill="none" stroke="#63b8ff" d="M603.37,-233.25C632.97,-233.25 667.46,-233.25 696.39,-233.25"/>
<polygon fill="#63b8ff" stroke="#63b8ff" points="603.38,-229.75 593.38,-233.25 603.38,-236.75 603.38,-229.75"/>
</a>
</g>
</g>
<!-- Node21 -->
<g id="Node000021" class="node">
<title>Node21</title>
<g id="a_Node000021"><a xlink:href="../../df/d0e/classengine_1_1direct3d_1_1_dynamic_buffer.html" target="_top" xlink:title="The dynamic buffer class.">
<polygon fill="white" stroke="#666666" points="822.25,-195.5 696.75,-195.5 696.75,-165 822.25,-165 822.25,-195.5"/>
<text text-anchor="start" x="704.75" y="-182" font-family="Helvetica,sans-Serif" font-size="10.00">engine::direct3d::Dynamic</text>
<text text-anchor="middle" x="759.5" y="-170.75" font-family="Helvetica,sans-Serif" font-size="10.00">Buffer&lt; T &gt;</text>
</a>
</g>
</g>
<!-- Node13&#45;&gt;Node21 -->
<g id="edge23_Node000021_Node000013" class="edge">
<title>Node13&#45;&gt;Node21</title>
<g id="a_edge23_Node000021_Node000013"><a xlink:title=" ">
<path fill="none" stroke="#63b8ff" d="M602.98,-217.23C632.67,-210.17 667.33,-201.93 696.39,-195.02"/>
<polygon fill="#63b8ff" stroke="#63b8ff" points="602.26,-213.81 593.34,-219.53 603.88,-220.62 602.26,-213.81"/>
</a>
</g>
</g>
<!-- Node23 -->
<g id="Node000023" class="node">
<title>Node23</title>
<g id="a_Node000023"><a xlink:href="../../df/d0e/classengine_1_1direct3d_1_1_dynamic_buffer.html" target="_top" xlink:title="The dynamic buffer class.">
<polygon fill="white" stroke="#666666" points="822.25,-138.5 696.75,-138.5 696.75,-108 822.25,-108 822.25,-138.5"/>
<text text-anchor="start" x="704.75" y="-125" font-family="Helvetica,sans-Serif" font-size="10.00">engine::direct3d::Dynamic</text>
<text text-anchor="middle" x="759.5" y="-113.75" font-family="Helvetica,sans-Serif" font-size="10.00">Buffer&lt; T &gt;</text>
</a>
</g>
</g>
<!-- Node13&#45;&gt;Node23 -->
<g id="edge26_Node000023_Node000013" class="edge">
<title>Node13&#45;&gt;Node23</title>
<g id="a_edge26_Node000023_Node000013"><a xlink:title=" ">
<path fill="none" stroke="#63b8ff" d="M575.07,-212.3C605.14,-196.5 647.67,-174.5 685.5,-156.25 697.65,-150.39 711.07,-144.23 723.06,-138.84"/>
<polygon fill="#63b8ff" stroke="#63b8ff" points="573.54,-209.15 566.32,-216.91 576.8,-215.35 573.54,-209.15"/>
</a>
</g>
</g>
<!-- Node14 -->
<g id="Node000014" class="node">
<title>Node14</title>
<g id="a_Node000014"><a xlink:href="../../d6/de4/classengine_1_1direct3d_1_1_buffer_wrapper.html" target="_top" xlink:title="A wrapper for a D3D11 buffer.">
<polygon fill="white" stroke="#666666" points="372.12,-248.5 258.62,-248.5 258.62,-218 372.12,-218 372.12,-248.5"/>
<text text-anchor="start" x="266.62" y="-235" font-family="Helvetica,sans-Serif" font-size="10.00">engine::direct3d::Buffer</text>
<text text-anchor="middle" x="315.38" y="-223.75" font-family="Helvetica,sans-Serif" font-size="10.00">Wrapper</text>
</a>
</g>
</g>
<!-- Node14&#45;&gt;Node13 -->
<g id="edge13_Node000013_Node000014" class="edge">
<title>Node14&#45;&gt;Node13</title>
<g id="a_edge13_Node000013_Node000014"><a xlink:title=" ">
<path fill="none" stroke="#8b1a1a" d="M383.87,-233.25C413.97,-233.25 449.02,-233.25 477.63,-233.25"/>
<polygon fill="#8b1a1a" stroke="#8b1a1a" points="384.12,-229.75 374.12,-233.25 384.12,-236.75 384.12,-229.75"/>
</a>
</g>
</g>
<!-- Node15 -->
<g id="Node000015" class="node">
<title>Node15</title>
<g id="a_Node000015"><a xlink:href="../../df/d47/classengine_1_1direct3d_1_1d3d__resource__wrapper.html" target="_top" xlink:title=" ">
<polygon fill="white" stroke="#666666" points="172.75,-248.5 0,-248.5 0,-218 172.75,-218 172.75,-248.5"/>
<text text-anchor="start" x="8" y="-235" font-family="Helvetica,sans-Serif" font-size="10.00">engine::direct3d::d3d</text>
<text text-anchor="middle" x="86.38" y="-223.75" font-family="Helvetica,sans-Serif" font-size="10.00">_resource_wrapper&lt; ID3D11Buffer &gt;</text>
</a>
</g>
</g>
<!-- Node15&#45;&gt;Node14 -->
<g id="edge14_Node000014_Node000015" class="edge">
<title>Node15&#45;&gt;Node14</title>
<g id="a_edge14_Node000014_Node000015"><a xlink:title=" ">
<path fill="none" stroke="#9a32cd" stroke-dasharray="5,2" d="M184.66,-233.25C209.83,-233.25 236.08,-233.25 258.33,-233.25"/>
<polygon fill="#9a32cd" stroke="#9a32cd" points="184.71,-229.75 174.71,-233.25 184.71,-236.75 184.71,-229.75"/>
</a>
</g>
<text text-anchor="middle" x="211.38" y="-235" font-family="Helvetica,sans-Serif" font-size="10.00" fill="grey"> buffer_</text>
</g>
<!-- Node16 -->
<g id="Node000016" class="node">
<title>Node16</title>
<g id="a_Node000016"><a xlink:href="../../d2/db0/classengine_1_1direct3d_1_1_dynamic_uniform_buffer.html" target="_top" xlink:title=" ">
<polygon fill="white" stroke="#666666" points="1082.38,-330.75 951.62,-330.75 951.62,-277.75 1082.38,-277.75 1082.38,-330.75"/>
<text text-anchor="start" x="959.62" y="-317.25" font-family="Helvetica,sans-Serif" font-size="10.00">engine::direct3d::Dynamic</text>
<text text-anchor="start" x="959.62" y="-306" font-family="Helvetica,sans-Serif" font-size="10.00">UniformBuffer&lt; engine::</text>
<text text-anchor="start" x="959.62" y="-294.75" font-family="Helvetica,sans-Serif" font-size="10.00">render::_opaque_detail::</text>
<text text-anchor="middle" x="1017" y="-283.5" font-family="Helvetica,sans-Serif" font-size="10.00">OpaquePerDepthTexture &gt;</text>
</a>
</g>
</g>
<!-- Node16&#45;&gt;Node1 -->
<g id="edge15_Node000001_Node000016" class="edge">
<title>Node16&#45;&gt;Node1</title>
<g id="a_edge15_Node000001_Node000016"><a xlink:title=" ">
<path fill="none" stroke="#9a32cd" stroke-dasharray="5,2" d="M1093.97,-297.52C1146.16,-292.9 1214.89,-286.82 1265.47,-282.34"/>
<polygon fill="#9a32cd" stroke="#9a32cd" points="1093.92,-294.01 1084.27,-298.38 1094.54,-300.99 1093.92,-294.01"/>
</a>
</g>
<text text-anchor="middle" x="1185.5" y="-296" font-family="Helvetica,sans-Serif" font-size="10.00" fill="grey"> grass_per_texture_buffer_</text>
</g>
<!-- Node17&#45;&gt;Node16 -->
<g id="edge16_Node000016_Node000017" class="edge">
<title>Node17&#45;&gt;Node16</title>
<g id="a_edge16_Node000016_Node000017"><a xlink:title=" ">
<path fill="none" stroke="#8b1a1a" d="M833.92,-290C870.99,-292.9 915.55,-296.39 951.32,-299.19"/>
<polygon fill="#8b1a1a" stroke="#8b1a1a" points="834.43,-286.53 824.18,-289.24 833.88,-293.5 834.43,-286.53"/>
</a>
</g>
</g>
<!-- Node18 -->
<g id="Node000018" class="node">
<title>Node18</title>
<g id="a_Node000018"><a xlink:href="../../d2/db0/classengine_1_1direct3d_1_1_dynamic_uniform_buffer.html" target="_top" xlink:title=" ">
<polygon fill="white" stroke="#666666" points="1100.38,-259.75 933.62,-259.75 933.62,-206.75 1100.38,-206.75 1100.38,-259.75"/>
<text text-anchor="start" x="941.62" y="-246.25" font-family="Helvetica,sans-Serif" font-size="10.00">engine::direct3d::Dynamic</text>
<text text-anchor="start" x="941.62" y="-235" font-family="Helvetica,sans-Serif" font-size="10.00">UniformBuffer&lt; engine::</text>
<text text-anchor="start" x="941.62" y="-223.75" font-family="Helvetica,sans-Serif" font-size="10.00">render::_grass_detail::GrassRender</text>
<text text-anchor="middle" x="1017" y="-212.5" font-family="Helvetica,sans-Serif" font-size="10.00">System::GPUTransformInfo &gt;</text>
</a>
</g>
</g>
<!-- Node18&#45;&gt;Node1 -->
<g id="edge18_Node000001_Node000018" class="edge">
<title>Node18&#45;&gt;Node1</title>
<g id="a_edge18_Node000001_Node000018"><a xlink:title=" ">
<path fill="none" stroke="#9a32cd" stroke-dasharray="5,2" d="M1111.99,-246.03C1161.24,-252.73 1220.47,-260.78 1265.4,-266.89"/>
<polygon fill="#9a32cd" stroke="#9a32cd" points="1112.56,-242.57 1102.18,-244.7 1111.61,-249.51 1112.56,-242.57"/>
</a>
</g>
<text text-anchor="middle" x="1185.5" y="-265" font-family="Helvetica,sans-Serif" font-size="10.00" fill="grey"> grass_transform_buffer_</text>
</g>
<!-- Node19&#45;&gt;Node18 -->
<g id="edge19_Node000018_Node000019" class="edge">
<title>Node19&#45;&gt;Node18</title>
<g id="a_edge19_Node000018_Node000019"><a xlink:title=" ">
<path fill="none" stroke="#8b1a1a" d="M833.85,-233.25C864.89,-233.25 901.2,-233.25 933.19,-233.25"/>
<polygon fill="#8b1a1a" stroke="#8b1a1a" points="834.19,-229.75 824.19,-233.25 834.19,-236.75 834.19,-229.75"/>
</a>
</g>
</g>
<!-- Node20 -->
<g id="Node000020" class="node">
<title>Node20</title>
<g id="a_Node000020"><a xlink:href="../../d5/dbb/classengine_1_1direct3d_1_1_dynamic_vertex_buffer.html" target="_top" xlink:title=" ">
<polygon fill="white" stroke="#666666" points="1105.25,-189.12 928.75,-189.12 928.75,-147.38 1105.25,-147.38 1105.25,-189.12"/>
<text text-anchor="start" x="936.75" y="-175.62" font-family="Helvetica,sans-Serif" font-size="10.00">engine::direct3d::Dynamic</text>
<text text-anchor="start" x="936.75" y="-164.38" font-family="Helvetica,sans-Serif" font-size="10.00">VertexBuffer&lt; engine::render</text>
<text text-anchor="middle" x="1017" y="-153.12" font-family="Helvetica,sans-Serif" font-size="10.00">::_grass_detail::GPUGrassInstance &gt;</text>
</a>
</g>
</g>
<!-- Node20&#45;&gt;Node1 -->
<g id="edge21_Node000001_Node000020" class="edge">
<title>Node20&#45;&gt;Node1</title>
<g id="a_edge21_Node000001_Node000020"><a xlink:title=" ">
<path fill="none" stroke="#9a32cd" stroke-dasharray="5,2" d="M1116.85,-191.72C1157.91,-202.6 1205.71,-216.73 1247.75,-233 1267.95,-240.82 1289.76,-251.74 1306.42,-260.65"/>
<polygon fill="#9a32cd" stroke="#9a32cd" points="1117.75,-188.34 1107.19,-189.2 1115.98,-195.12 1117.75,-188.34"/>
</a>
</g>
<text text-anchor="middle" x="1185.5" y="-234" font-family="Helvetica,sans-Serif" font-size="10.00" fill="grey"> instance_buffer_</text>
</g>
<!-- Node21&#45;&gt;Node20 -->
<g id="edge22_Node000020_Node000021" class="edge">
<title>Node21&#45;&gt;Node20</title>
<g id="a_edge22_Node000020_Node000021"><a xlink:title=" ">
<path fill="none" stroke="#63b8ff" d="M834.13,-176.79C863.56,-175.41 897.68,-173.81 928.37,-172.37"/>
<polygon fill="#63b8ff" stroke="#63b8ff" points="834.01,-173.29 824.19,-177.26 834.34,-180.29 834.01,-173.29"/>
</a>
</g>
</g>
<!-- Node22 -->
<g id="Node000022" class="node">
<title>Node22</title>
<g id="a_Node000022"><a xlink:href="../../d2/db0/classengine_1_1direct3d_1_1_dynamic_uniform_buffer.html" target="_top" xlink:title=" ">
<polygon fill="white" stroke="#666666" points="1092.5,-129.75 941.5,-129.75 941.5,-76.75 1092.5,-76.75 1092.5,-129.75"/>
<text text-anchor="start" x="949.5" y="-116.25" font-family="Helvetica,sans-Serif" font-size="10.00">engine::direct3d::Dynamic</text>
<text text-anchor="start" x="949.5" y="-105" font-family="Helvetica,sans-Serif" font-size="10.00">UniformBuffer&lt; engine::</text>
<text text-anchor="start" x="949.5" y="-93.75" font-family="Helvetica,sans-Serif" font-size="10.00">render::_grass_detail::GrassPer</text>
<text text-anchor="middle" x="1017" y="-82.5" font-family="Helvetica,sans-Serif" font-size="10.00">Material &gt;</text>
</a>
</g>
</g>
<!-- Node22&#45;&gt;Node1 -->
<g id="edge24_Node000001_Node000022" class="edge">
<title>Node22&#45;&gt;Node1</title>
<g id="a_edge24_Node000001_Node000022"><a xlink:title=" ">
<path fill="none" stroke="#9a32cd" stroke-dasharray="5,2" d="M1103.88,-113.8C1149.53,-122.52 1204.91,-138.32 1247.75,-166.75 1284.69,-191.27 1313.02,-236.69 1326.17,-260.6"/>
<polygon fill="#9a32cd" stroke="#9a32cd" points="1104.75,-110.4 1094.28,-112.06 1103.49,-117.29 1104.75,-110.4"/>
</a>
</g>
<text text-anchor="start" x="1143.12" y="-179.25" font-family="Helvetica,sans-Serif" font-size="10.00" fill="grey"> grass_per_material</text>
<text text-anchor="middle" x="1185.5" y="-168" font-family="Helvetica,sans-Serif" font-size="10.00" fill="grey">_buffer_</text>
</g>
<!-- Node23&#45;&gt;Node22 -->
<g id="edge25_Node000022_Node000023" class="edge">
<title>Node23&#45;&gt;Node22</title>
<g id="a_edge25_Node000022_Node000023"><a xlink:title=" ">
<path fill="none" stroke="#8b1a1a" d="M833.84,-117.51C867.51,-114.87 907.39,-111.75 941.24,-109.1"/>
<polygon fill="#8b1a1a" stroke="#8b1a1a" points="833.88,-114 824.18,-118.26 834.43,-120.97 833.88,-114"/>
</a>
</g>
</g>
<!-- Node24 -->
<g id="Node000024" class="node">
<title>Node24</title>
<g id="a_Node000024"><a xlink:title=" ">
<polygon fill="white" stroke="#666666" points="1071.88,-59.12 962.12,-59.12 962.12,-17.38 1071.88,-17.38 1071.88,-59.12"/>
<text text-anchor="start" x="970.12" y="-45.62" font-family="Helvetica,sans-Serif" font-size="10.00">std::vector&lt; engine</text>
<text text-anchor="start" x="970.12" y="-34.38" font-family="Helvetica,sans-Serif" font-size="10.00">::render::_grass_detail</text>
<text text-anchor="middle" x="1017" y="-23.12" font-family="Helvetica,sans-Serif" font-size="10.00">::MaterialInstance &gt;</text>
</a>
</g>
</g>
<!-- Node24&#45;&gt;Node1 -->
<g id="edge27_Node000001_Node000024" class="edge">
<title>Node24&#45;&gt;Node1</title>
<g id="a_edge27_Node000001_Node000024"><a xlink:title=" ">
<path fill="none" stroke="#9a32cd" stroke-dasharray="5,2" d="M1083.34,-42.52C1133.28,-48.87 1201.24,-64.52 1247.75,-103 1299.3,-145.65 1322.97,-226.68 1330.96,-260.65"/>
<polygon fill="#9a32cd" stroke="#9a32cd" points="1083.85,-39.06 1073.52,-41.38 1083.04,-46.01 1083.85,-39.06"/>
</a>
</g>
<text text-anchor="middle" x="1185.5" y="-104" font-family="Helvetica,sans-Serif" font-size="10.00" fill="grey"> materials_</text>
</g>
<!-- Node25 -->
<g id="Node000025" class="node">
<title>Node25</title>
<g id="a_Node000025"><a xlink:href="../../da/d89/structengine_1_1render_1_1__grass__detail_1_1_material_instance.html" target="_top" xlink:title=" ">
<polygon fill="white" stroke="#666666" points="820,-53.5 699,-53.5 699,-23 820,-23 820,-53.5"/>
<text text-anchor="start" x="707" y="-40" font-family="Helvetica,sans-Serif" font-size="10.00">engine::render::_grass</text>
<text text-anchor="middle" x="759.5" y="-28.75" font-family="Helvetica,sans-Serif" font-size="10.00">_detail::MaterialInstance</text>
</a>
</g>
</g>
<!-- Node25&#45;&gt;Node24 -->
<g id="edge28_Node000024_Node000025" class="edge">
<title>Node25&#45;&gt;Node24</title>
<g id="a_edge28_Node000024_Node000025"><a xlink:title=" ">
<path fill="none" stroke="#9a32cd" stroke-dasharray="5,2" d="M831.73,-38.25C872.87,-38.25 923.81,-38.25 961.7,-38.25"/>
<polygon fill="#9a32cd" stroke="#9a32cd" points="831.92,-34.75 821.92,-38.25 831.92,-41.75 831.92,-34.75"/>
</a>
</g>
<text text-anchor="middle" x="881.12" y="-40" font-family="Helvetica,sans-Serif" font-size="10.00" fill="grey"> elements</text>
</g>
<!-- Node26 -->
<g id="Node000026" class="node">
<title>Node26</title>
<g id="a_Node000026"><a xlink:title=" ">
<polygon fill="white" stroke="#666666" points="579.75,-73.5 489.5,-73.5 489.5,-43 579.75,-43 579.75,-73.5"/>
<text text-anchor="start" x="497.5" y="-60" font-family="Helvetica,sans-Serif" font-size="10.00">std::vector&lt; entt::</text>
<text text-anchor="middle" x="534.62" y="-48.75" font-family="Helvetica,sans-Serif" font-size="10.00">entity &gt;</text>
</a>
</g>
</g>
<!-- Node26&#45;&gt;Node25 -->
<g id="edge29_Node000025_Node000026" class="edge">
<title>Node26&#45;&gt;Node25</title>
<g id="a_edge29_Node000025_Node000026"><a xlink:title=" ">
<path fill="none" stroke="#9a32cd" stroke-dasharray="5,2" d="M591.38,-53.25C624.09,-50.31 665.43,-46.6 698.81,-43.61"/>
<polygon fill="#9a32cd" stroke="#9a32cd" points="591.35,-49.74 581.7,-54.12 591.97,-56.71 591.35,-49.74"/>
</a>
</g>
<text text-anchor="middle" x="645.38" y="-51" font-family="Helvetica,sans-Serif" font-size="10.00" fill="grey"> instances</text>
</g>
<!-- Node27 -->
<g id="Node000027" class="node">
<title>Node27</title>
<g id="a_Node000027"><a xlink:href="../../da/d1a/structengine_1_1render_1_1_grass_material.html" target="_top" xlink:title=" ">
<polygon fill="white" stroke="#666666" points="605.25,-24.88 464,-24.88 464,-5.62 605.25,-5.62 605.25,-24.88"/>
<text text-anchor="middle" x="534.62" y="-11.38" font-family="Helvetica,sans-Serif" font-size="10.00">engine::render::GrassMaterial</text>
</a>
</g>
</g>
<!-- Node27&#45;&gt;Node25 -->
<g id="edge30_Node000025_Node000027" class="edge">
<title>Node27&#45;&gt;Node25</title>
<g id="a_edge30_Node000025_Node000027"><a xlink:title=" ">
<path fill="none" stroke="#9a32cd" stroke-dasharray="5,2" d="M616.93,-23.64C643.94,-26.43 673.51,-29.48 698.6,-32.07"/>
<polygon fill="#9a32cd" stroke="#9a32cd" points="617.34,-20.16 607.04,-22.62 616.63,-27.13 617.34,-20.16"/>
</a>
</g>
<text text-anchor="middle" x="645.38" y="-31" font-family="Helvetica,sans-Serif" font-size="10.00" fill="grey"> material</text>
</g>
<!-- Node28 -->
<g id="Node000028" class="node">
<title>Node28</title>
<g id="a_Node000028"><a xlink:title=" ">
<polygon fill="white" stroke="#666666" points="361.62,-30.5 269.12,-30.5 269.12,0 361.62,0 361.62,-30.5"/>
<text text-anchor="start" x="277.12" y="-17" font-family="Helvetica,sans-Serif" font-size="10.00">std::vector&lt; core::</text>
<text text-anchor="middle" x="315.38" y="-5.75" font-family="Helvetica,sans-Serif" font-size="10.00">math::vec4 &gt;</text>
</a>
</g>
</g>
<!-- Node28&#45;&gt;Node27 -->
<g id="edge31_Node000027_Node000028" class="edge">
<title>Node28&#45;&gt;Node27</title>
<g id="a_edge31_Node000027_Node000028"><a xlink:title=" ">
<path fill="none" stroke="#9a32cd" stroke-dasharray="5,2" d="M373.39,-15.25C401.06,-15.25 434.56,-15.25 463.75,-15.25"/>
<polygon fill="#9a32cd" stroke="#9a32cd" points="373.43,-11.75 363.43,-15.25 373.43,-18.75 373.43,-11.75"/>
</a>
</g>
<text text-anchor="middle" x="422.38" y="-17" font-family="Helvetica,sans-Serif" font-size="10.00" fill="grey"> atlas_data</text>
</g>
</g>
</svg>

<g id="navigator" transform="translate(0 0)" fill="#404254">
  <rect fill="#f2f5e9" fill-opacity="0.5" stroke="#606060" stroke-width=".5" x="0" y="0" width="60" height="60"/>
  <use id="zoomplus" xlink:href="#zoomPlus" x="17" y="9" onmousedown="handleZoom(evt,'in')"/>
  <use id="zoomminus" xlink:href="#zoomMin" x="42" y="9" onmousedown="handleZoom(evt,'out')"/>
  <use id="reset" xlink:href="#resetDef" x="30" y="36" onmousedown="handleReset()"/>
   <use id="arrowup" xlink:href="#arrowUp" x="0" y="0" onmousedown="handlePan(0,-1)"/>
  <use id="arrowright" xlink:href="#arrowRight" x="0" y="0" onmousedown="handlePan(1,0)"/>
  <use id="arrowdown" xlink:href="#arrowDown" x="0" y="0" onmousedown="handlePan(0,1)"/>
  <use id="arrowleft" xlink:href="#arrowLeft" x="0" y="0" onmousedown="handlePan(-1,0)"/>
</g>
<svg viewBox="0 0 15 15" width="100%" height="30px" preserveAspectRatio="xMaxYMin meet">
 <g id="arrow_out" transform="scale(0.3 0.3)">
  <a xlink:href="classengine_1_1render_1_1__grass__detail_1_1_grass_render_system__coll__graph_org.svg" target="_base">
   <rect id="button" ry="5" rx="5" y="6" x="6" height="38" width="38"
        fill="#f2f5e9" fill-opacity="0.5" stroke="#606060" stroke-width="1.0"/>
   <path id="arrow"
     d="M 11.500037,31.436501 C 11.940474,20.09759 22.043105,11.32322 32.158766,21.979434 L 37.068811,17.246167 C 37.068811,17.246167 37.088388,32 37.088388,32 L 22.160133,31.978069 C 22.160133,31.978069 26.997745,27.140456 26.997745,27.140456 C 18.528582,18.264221 13.291696,25.230495 11.500037,31.436501 z"
     style="fill:#404040;"/>
  </a>
 </g>
</svg>

<style type='text/css'>
<![CDATA[
[data-mouse-over-selected='false'] { opacity: 0.7; }
[data-mouse-over-selected='true']  { opacity: 1.0; }
]]>
</style>
<script type="application/ecmascript"><![CDATA[
document.addEventListener('DOMContentLoaded', (event) => {
  highlightEdges();
  highlightAdjacentNodes();
});
]]></script>
</svg>
