<?xml version="1.0" encoding="UTF-8" standalone="no"?>
<!DOCTYPE svg PUBLIC "-//W3C//DTD SVG 1.1//EN"
 "http://www.w3.org/Graphics/SVG/1.1/DTD/svg11.dtd">
<!-- Generated by graphviz version 9.0.0 (20230911.1827)
 -->
<!-- Title: engine::render::ModelMesh Pages: 1 -->
<svg width="1089pt" height="160pt"
 viewBox="0.00 0.00 1088.75 159.57" xmlns="http://www.w3.org/2000/svg" xmlns:xlink="http://www.w3.org/1999/xlink">
<g id="graph0" class="graph" transform="scale(1 1) rotate(0) translate(4 155.57)">
<title>engine::render::ModelMesh</title>
<!-- Node1 -->
<g id="Node000001" class="node">
<title>Node1</title>
<g id="a_Node000001"><a xlink:title=" ">
<polygon fill="#999999" stroke="#666666" points="920,-40.95 789.25,-40.95 789.25,-21.7 920,-21.7 920,-40.95"/>
<text text-anchor="middle" x="854.62" y="-27.45" font-family="Helvetica,sans-Serif" font-size="10.00">engine::render::ModelMesh</text>
</a>
</g>
</g>
<!-- Node2 -->
<g id="Node000002" class="node">
<title>Node2</title>
<g id="a_Node000002"><a xlink:href="../../d1/d87/structengine_1_1render_1_1_mesh_range.html" target="_top" xlink:title=" ">
<polygon fill="white" stroke="#666666" points="685.38,-43.95 553.12,-43.95 553.12,-24.7 685.38,-24.7 685.38,-43.95"/>
<text text-anchor="middle" x="619.25" y="-30.45" font-family="Helvetica,sans-Serif" font-size="10.00">engine::render::MeshRange</text>
</a>
</g>
</g>
<!-- Node2&#45;&gt;Node1 -->
<g id="edge1_Node000001_Node000002" class="edge">
<title>Node2&#45;&gt;Node1</title>
<g id="a_edge1_Node000001_Node000002"><a xlink:title=" ">
<path fill="none" stroke="#9a32cd" stroke-dasharray="5,2" d="M697.1,-32.21C699.85,-32.16 702.57,-32.11 705.25,-32.07 732.68,-31.64 762.97,-31.44 788.99,-31.35"/>
<polygon fill="#9a32cd" stroke="#9a32cd" points="697.12,-28.71 687.19,-32.42 697.26,-35.71 697.12,-28.71"/>
</a>
</g>
<text text-anchor="middle" x="738.25" y="-34.07" font-family="Helvetica,sans-Serif" font-size="10.00" fill="grey"> mesh_range</text>
</g>
<!-- Node3 -->
<g id="Node000003" class="node">
<title>Node3</title>
<g id="a_Node000003"><a xlink:href="../../d7/d90/structengine_1_1render_1_1_mesh.html" target="_top" xlink:title=" ">
<polygon fill="white" stroke="#666666" points="475.5,-37.95 371,-37.95 371,-18.7 475.5,-18.7 475.5,-37.95"/>
<text text-anchor="middle" x="423.25" y="-24.45" font-family="Helvetica,sans-Serif" font-size="10.00">engine::render::Mesh</text>
</a>
</g>
</g>
<!-- Node3&#45;&gt;Node1 -->
<g id="edge2_Node000001_Node000003" class="edge">
<title>Node3&#45;&gt;Node1</title>
<g id="a_edge2_Node000001_Node000003"><a xlink:title=" ">
<path fill="none" stroke="#9a32cd" stroke-dasharray="5,2" d="M477.38,-15.86C500.01,-11.16 526.78,-6.39 551.25,-4.07 611.43,1.62 627,0.83 687.25,-4.07 727.22,-7.32 772.06,-14.9 805.1,-21.24"/>
<polygon fill="#9a32cd" stroke="#9a32cd" points="476.83,-12.4 467.78,-17.91 478.29,-19.25 476.83,-12.4"/>
</a>
</g>
<text text-anchor="middle" x="619.25" y="-6.07" font-family="Helvetica,sans-Serif" font-size="10.00" fill="grey"> mesh</text>
</g>
<!-- Node7 -->
<g id="Node000007" class="node">
<title>Node7</title>
<g id="a_Node000007"><a xlink:href="../../db/df4/classengine_1_1core_1_1_triangle_octree.html" target="_top" xlink:title=" ">
<polygon fill="white" stroke="#666666" points="687.25,-90.95 551.25,-90.95 551.25,-71.7 687.25,-71.7 687.25,-90.95"/>
<text text-anchor="middle" x="619.25" y="-77.45" font-family="Helvetica,sans-Serif" font-size="10.00">engine::core::TriangleOctree</text>
</a>
</g>
</g>
<!-- Node3&#45;&gt;Node7 -->
<g id="edge7_Node000007_Node000003" class="edge">
<title>Node3&#45;&gt;Node7</title>
<g id="a_edge7_Node000007_Node000003"><a xlink:title=" ">
<path fill="none" stroke="#9a32cd" stroke-dasharray="5,2" d="M476.66,-41.22C494.64,-45.76 514.86,-51 533.25,-56.07 550.61,-60.86 569.86,-66.54 585.64,-71.31"/>
<polygon fill="#9a32cd" stroke="#9a32cd" points="477.52,-37.83 466.97,-38.78 475.81,-44.62 477.52,-37.83"/>
</a>
</g>
<text text-anchor="middle" x="513.38" y="-58.07" font-family="Helvetica,sans-Serif" font-size="10.00" fill="grey"> m_mesh</text>
</g>
<!-- Node4 -->
<g id="Node000004" class="node">
<title>Node4</title>
<g id="a_Node000004"><a xlink:title=" ">
<polygon fill="white" stroke="#666666" points="291.12,-36.57 193.38,-36.57 193.38,-6.07 291.12,-6.07 291.12,-36.57"/>
<text text-anchor="start" x="201.38" y="-23.07" font-family="Helvetica,sans-Serif" font-size="10.00">std::vector&lt; engine</text>
<text text-anchor="middle" x="242.25" y="-11.82" font-family="Helvetica,sans-Serif" font-size="10.00">::render::Vertex &gt;</text>
</a>
</g>
</g>
<!-- Node4&#45;&gt;Node3 -->
<g id="edge3_Node000003_Node000004" class="edge">
<title>Node4&#45;&gt;Node3</title>
<g id="a_edge3_Node000003_Node000004"><a xlink:title=" ">
<path fill="none" stroke="#9a32cd" stroke-dasharray="5,2" d="M302.44,-20.83C318.82,-20.93 336.61,-21.28 353,-22.07 358.79,-22.35 364.84,-22.75 370.85,-23.2"/>
<polygon fill="#9a32cd" stroke="#9a32cd" points="302.88,-17.33 292.87,-20.79 302.86,-24.33 302.88,-17.33"/>
</a>
</g>
<text text-anchor="middle" x="334.62" y="-24.07" font-family="Helvetica,sans-Serif" font-size="10.00" fill="grey"> vertices</text>
</g>
<!-- Node5 -->
<g id="Node000005" class="node">
<title>Node5</title>
<g id="a_Node000005"><a xlink:href="../../d0/dc6/structengine_1_1render_1_1_vertex.html" target="_top" xlink:title=" ">
<polygon fill="white" stroke="#666666" points="108.25,-30.95 0,-30.95 0,-11.7 108.25,-11.7 108.25,-30.95"/>
<text text-anchor="middle" x="54.12" y="-17.45" font-family="Helvetica,sans-Serif" font-size="10.00">engine::render::Vertex</text>
</a>
</g>
</g>
<!-- Node5&#45;&gt;Node4 -->
<g id="edge4_Node000004_Node000005" class="edge">
<title>Node5&#45;&gt;Node4</title>
<g id="a_edge4_Node000004_Node000005"><a xlink:title=" ">
<path fill="none" stroke="#9a32cd" stroke-dasharray="5,2" d="M119.66,-21.32C143.73,-21.32 170.63,-21.32 192.99,-21.32"/>
<polygon fill="#9a32cd" stroke="#9a32cd" points="119.97,-17.82 109.97,-21.32 119.97,-24.82 119.97,-17.82"/>
</a>
</g>
<text text-anchor="middle" x="147.25" y="-23.07" font-family="Helvetica,sans-Serif" font-size="10.00" fill="grey"> elements</text>
</g>
<!-- Node6 -->
<g id="Node000006" class="node">
<title>Node6</title>
<g id="a_Node000006"><a xlink:title=" ">
<polygon fill="white" stroke="#666666" points="298.25,-81.95 186.25,-81.95 186.25,-62.7 298.25,-62.7 298.25,-81.95"/>
<text text-anchor="middle" x="242.25" y="-68.45" font-family="Helvetica,sans-Serif" font-size="10.00">std::vector&lt; uint32_t &gt;</text>
</a>
</g>
</g>
<!-- Node6&#45;&gt;Node3 -->
<g id="edge5_Node000003_Node000006" class="edge">
<title>Node6&#45;&gt;Node3</title>
<g id="a_edge5_Node000003_Node000006"><a xlink:title=" ">
<path fill="none" stroke="#9a32cd" stroke-dasharray="5,2" d="M295.25,-59.54C322.55,-52.83 355.55,-44.72 381.07,-38.45"/>
<polygon fill="#9a32cd" stroke="#9a32cd" points="294.66,-56.08 285.79,-61.87 296.33,-62.88 294.66,-56.08"/>
</a>
</g>
<text text-anchor="middle" x="334.62" y="-56.07" font-family="Helvetica,sans-Serif" font-size="10.00" fill="grey"> indices</text>
</g>
<!-- Node6&#45;&gt;Node7 -->
<g id="edge8_Node000007_Node000006" class="edge">
<title>Node6&#45;&gt;Node7</title>
<g id="a_edge8_Node000007_Node000006"><a xlink:title=" ">
<path fill="none" stroke="#9a32cd" stroke-dasharray="5,2" d="M309.99,-73.92C377.96,-75.56 482.78,-78.07 550.95,-79.71"/>
<polygon fill="#9a32cd" stroke="#9a32cd" points="310.18,-70.43 300.1,-73.69 310.01,-77.43 310.18,-70.43"/>
</a>
</g>
<text text-anchor="middle" x="423.25" y="-79.07" font-family="Helvetica,sans-Serif" font-size="10.00" fill="grey"> m_triangles</text>
</g>
<!-- Node7&#45;&gt;Node1 -->
<g id="edge6_Node000001_Node000007" class="edge">
<title>Node7&#45;&gt;Node1</title>
<g id="a_edge6_Node000001_Node000007"><a xlink:title=" ">
<path fill="none" stroke="#9a32cd" stroke-dasharray="5,2" d="M678.54,-68.83C718.03,-60.37 769.56,-49.33 806.47,-41.43"/>
<polygon fill="#9a32cd" stroke="#9a32cd" points="678,-65.37 668.96,-70.89 679.47,-72.21 678,-65.37"/>
</a>
</g>
<text text-anchor="middle" x="738.25" y="-64.07" font-family="Helvetica,sans-Serif" font-size="10.00" fill="grey"> triangle_octree</text>
</g>
<!-- Node9 -->
<g id="Node000009" class="node">
<title>Node9</title>
<g id="a_Node000009"><a xlink:title=" ">
<polygon fill="white" stroke="#666666" points="917.75,-151.57 791.5,-151.57 791.5,-121.07 917.75,-121.07 917.75,-151.57"/>
<text text-anchor="start" x="799.5" y="-138.07" font-family="Helvetica,sans-Serif" font-size="10.00">std::array&lt; engine</text>
<text text-anchor="middle" x="854.62" y="-126.82" font-family="Helvetica,sans-Serif" font-size="10.00">::core::TriangleOctree, 8 &gt;</text>
</a>
</g>
</g>
<!-- Node7&#45;&gt;Node9 -->
<g id="edge11_Node000009_Node000007" class="edge">
<title>Node7&#45;&gt;Node9</title>
<g id="a_edge11_Node000009_Node000007"><a xlink:title=" ">
<path fill="none" stroke="#9a32cd" stroke-dasharray="5,2" d="M665.02,-94.59C677.95,-98.25 692.12,-102.1 705.25,-105.32 733.36,-112.22 764.71,-118.91 791.32,-124.3"/>
<polygon fill="#9a32cd" stroke="#9a32cd" points="666.06,-91.25 655.48,-91.86 664.13,-97.98 666.06,-91.25"/>
</a>
</g>
<text text-anchor="middle" x="738.25" y="-121.07" font-family="Helvetica,sans-Serif" font-size="10.00" fill="grey"> elements</text>
</g>
<!-- Node8 -->
<g id="Node000008" class="node">
<title>Node8</title>
<g id="a_Node000008"><a xlink:title=" ">
<polygon fill="white" stroke="#666666" points="1080.75,-128.2 969.5,-128.2 969.5,-86.45 1080.75,-86.45 1080.75,-128.2"/>
<text text-anchor="start" x="977.5" y="-114.7" font-family="Helvetica,sans-Serif" font-size="10.00">std::unique_ptr&lt; std</text>
<text text-anchor="start" x="977.5" y="-103.45" font-family="Helvetica,sans-Serif" font-size="10.00">::array&lt; engine::core</text>
<text text-anchor="middle" x="1025.12" y="-92.2" font-family="Helvetica,sans-Serif" font-size="10.00">::TriangleOctree, 8 &gt; &gt;</text>
</a>
</g>
</g>
<!-- Node8&#45;&gt;Node7 -->
<g id="edge9_Node000007_Node000008" class="edge">
<title>Node8&#45;&gt;Node7</title>
<g id="a_edge9_Node000007_Node000008"><a xlink:title=" ">
<path fill="none" stroke="#9a32cd" stroke-dasharray="5,2" d="M958.04,-103.07C883.37,-98.26 762.49,-90.48 687.4,-85.64"/>
<polygon fill="#9a32cd" stroke="#9a32cd" points="957.44,-106.54 967.65,-103.69 957.89,-99.55 957.44,-106.54"/>
</a>
</g>
<text text-anchor="middle" x="854.62" y="-102.07" font-family="Helvetica,sans-Serif" font-size="10.00" fill="grey"> m_children</text>
</g>
<!-- Node9&#45;&gt;Node8 -->
<g id="edge10_Node000008_Node000009" class="edge">
<title>Node9&#45;&gt;Node8</title>
<g id="a_edge10_Node000008_Node000009"><a xlink:title=" ">
<path fill="none" stroke="#9a32cd" stroke-dasharray="5,2" d="M929.05,-123.68C942.48,-121.37 956.28,-119 969.06,-116.8"/>
<polygon fill="#9a32cd" stroke="#9a32cd" points="928.64,-120.2 919.38,-125.35 929.83,-127.1 928.64,-120.2"/>
</a>
</g>
<text text-anchor="middle" x="944.75" y="-123.07" font-family="Helvetica,sans-Serif" font-size="10.00" fill="grey"> ptr</text>
</g>
</g>
</svg>
