<?xml version="1.0" encoding="UTF-8" standalone="no"?>
<!DOCTYPE svg PUBLIC "-//W3C//DTD SVG 1.1//EN"
 "http://www.w3.org/Graphics/SVG/1.1/DTD/svg11.dtd">
<!-- Generated by graphviz version 8.1.0 (20230707.0739)
 -->
<!-- Title: engine::render::ModelMesh Pages: 1 -->
<svg width="1089pt" height="160pt"
 viewBox="0.00 0.00 1088.75 159.57" xmlns="http://www.w3.org/2000/svg" xmlns:xlink="http://www.w3.org/1999/xlink">
<g id="graph0" class="graph" transform="scale(1 1) rotate(0) translate(4 155.57)">
<title>engine::render::ModelMesh</title>
<!-- Node1 -->
<g id="Node000001" class="node">
<title>Node1</title>
<g id="a_Node000001"><a xlink:title=" ">
<polygon fill="#999999" stroke="#666666" points="920,-40.95 789.25,-40.95 789.25,-21.7 920,-21.7 920,-40.95"/>
<text text-anchor="middle" x="854.62" y="-27.45" font-family="Helvetica,sans-Serif" font-size="10.00">engine::render::ModelMesh</text>
</a>
</g>
</g>
<!-- Node2 -->
<g id="Node000002" class="node">
<title>Node2</title>
<g id="a_Node000002"><a xlink:href="../../d1/d87/structengine_1_1render_1_1_mesh_range.html" target="_top" xlink:title=" ">
<polygon fill="white" stroke="#666666" points="685.38,-43.95 553.12,-43.95 553.12,-24.7 685.38,-24.7 685.38,-43.95"/>
<text text-anchor="middle" x="619.25" y="-30.45" font-family="Helvetica,sans-Serif" font-size="10.00">engine::render::MeshRange</text>
</a>
</g>
</g>
<!-- Node2&#45;&gt;Node1 -->
<g id="edge1_Node000001_Node000002" class="edge">
<title>Node2&#45;&gt;Node1</title>
<g id="a_edge1_Node000001_Node000002"><a xlink:title=" ">
<path fill="none" stroke="#9a32cd" stroke-dasharray="5,2" d="M696.48,-32.23C699.44,-32.17 702.37,-32.12 705.25,-32.07 732.68,-31.64 762.97,-31.44 788.99,-31.35"/>
<polygon fill="#9a32cd" stroke="#9a32cd" points="696.61,-28.74 686.68,-32.45 696.75,-35.74 696.61,-28.74"/>
</a>
</g>
<text text-anchor="middle" x="738.25" y="-34.07" font-family="Helvetica,sans-Serif" font-size="10.00" fill="grey"> mesh_range</text>
</g>
<!-- Node3 -->
<g id="Node000003" class="node">
<title>Node3</title>
<g id="a_Node000003"><a xlink:href="../../d7/d90/structengine_1_1render_1_1_mesh.html" target="_top" xlink:title=" ">
<polygon fill="white" stroke="#666666" points="475.5,-37.95 371,-37.95 371,-18.7 475.5,-18.7 475.5,-37.95"/>
<text text-anchor="middle" x="423.25" y="-24.45" font-family="Helvetica,sans-Serif" font-size="10.00">engine::render::Mesh</text>
</a>
</g>
</g>
<!-- Node3&#45;&gt;Node1 -->
<g id="edge2_Node000001_Node000003" class="edge">
<title>Node3&#45;&gt;Node1</title>
<g id="a_edge2_Node000001_Node000003"><a xlink:title=" ">
<path fill="none" stroke="#9a32cd" stroke-dasharray="5,2" d="M476.76,-15.99C499.52,-11.25 526.56,-6.41 551.25,-4.07 611.43,1.62 627,0.83 687.25,-4.07 727.22,-7.32 772.06,-14.9 805.1,-21.24"/>
<polygon fill="#9a32cd" stroke="#9a32cd" points="476.34,-12.71 467.3,-18.23 477.81,-19.56 476.34,-12.71"/>
</a>
</g>
<text text-anchor="middle" x="619.25" y="-6.07" font-family="Helvetica,sans-Serif" font-size="10.00" fill="grey"> mesh</text>
</g>
<!-- Node7 -->
<g id="Node000007" class="node">
<title>Node7</title>
<g id="a_Node000007"><a xlink:href="../../db/df4/classengine_1_1core_1_1_triangle_octree.html" target="_top" xlink:title=" ">
<polygon fill="white" stroke="#666666" points="687.25,-90.95 551.25,-90.95 551.25,-71.7 687.25,-71.7 687.25,-90.95"/>
<text text-anchor="middle" x="619.25" y="-77.45" font-family="Helvetica,sans-Serif" font-size="10.00">engine::core::TriangleOctree</text>
</a>
</g>
</g>
<!-- Node3&#45;&gt;Node7 -->
<g id="edge7_Node000007_Node000003" class="edge">
<title>Node3&#45;&gt;Node7</title>
<g id="a_edge7_Node000007_Node000003"><a xlink:title=" ">
<path fill="none" stroke="#9a32cd" stroke-dasharray="5,2" d="M476.15,-41.09C494.26,-45.66 514.69,-50.95 533.25,-56.07 550.61,-60.86 569.86,-66.54 585.64,-71.31"/>
<polygon fill="#9a32cd" stroke="#9a32cd" points="477.05,-37.46 466.5,-38.42 475.35,-44.25 477.05,-37.46"/>
</a>
</g>
<text text-anchor="middle" x="513.38" y="-58.07" font-family="Helvetica,sans-Serif" font-size="10.00" fill="grey"> m_mesh</text>
</g>
<!-- Node4 -->
<g id="Node000004" class="node">
<title>Node4</title>
<g id="a_Node000004"><a xlink:title=" ">
<polygon fill="white" stroke="#666666" points="291.12,-36.57 193.38,-36.57 193.38,-6.07 291.12,-6.07 291.12,-36.57"/>
<text text-anchor="start" x="201.38" y="-23.07" font-family="Helvetica,sans-Serif" font-size="10.00">std::vector&lt; engine</text>
<text text-anchor="middle" x="242.25" y="-11.82" font-family="Helvetica,sans-Serif" font-size="10.00">::render::Vertex &gt;</text>
</a>
</g>
</g>
<!-- Node4&#45;&gt;Node3 -->
<g id="edge3_Node000003_Node000004" class="edge">
<title>Node4&#45;&gt;Node3</title>
<g id="a_edge3_Node000003_Node000004"><a xlink:title=" ">
<path fill="none" stroke="#9a32cd" stroke-dasharray="5,2" d="M301.97,-20.82C318.48,-20.93 336.45,-21.27 353,-22.07 358.79,-22.35 364.84,-22.75 370.85,-23.2"/>
<polygon fill="#9a32cd" stroke="#9a32cd" points="302.37,-17.32 292.35,-20.79 302.34,-24.32 302.37,-17.32"/>
</a>
</g>
<text text-anchor="middle" x="334.62" y="-24.07" font-family="Helvetica,sans-Serif" font-size="10.00" fill="grey"> vertices</text>
</g>
<!-- Node5 -->
<g id="Node000005" class="node">
<title>Node5</title>
<g id="a_Node000005"><a xlink:href="../../d0/dc6/structengine_1_1render_1_1_vertex.html" target="_top" xlink:title=" ">
<polygon fill="white" stroke="#666666" points="108.25,-30.95 0,-30.95 0,-11.7 108.25,-11.7 108.25,-30.95"/>
<text text-anchor="middle" x="54.12" y="-17.45" font-family="Helvetica,sans-Serif" font-size="10.00">engine::render::Vertex</text>
</a>
</g>
</g>
<!-- Node5&#45;&gt;Node4 -->
<g id="edge4_Node000004_Node000005" class="edge">
<title>Node5&#45;&gt;Node4</title>
<g id="a_edge4_Node000004_Node000005"><a xlink:title=" ">
<path fill="none" stroke="#9a32cd" stroke-dasharray="5,2" d="M119.33,-21.32C143.49,-21.32 170.53,-21.32 192.99,-21.32"/>
<polygon fill="#9a32cd" stroke="#9a32cd" points="119.46,-17.82 109.46,-21.32 119.46,-24.82 119.46,-17.82"/>
</a>
</g>
<text text-anchor="middle" x="147.25" y="-23.07" font-family="Helvetica,sans-Serif" font-size="10.00" fill="grey"> elements</text>
</g>
<!-- Node6 -->
<g id="Node000006" class="node">
<title>Node6</title>
<g id="a_Node000006"><a xlink:title=" ">
<polygon fill="white" stroke="#666666" points="298.25,-81.95 186.25,-81.95 186.25,-62.7 298.25,-62.7 298.25,-81.95"/>
<text text-anchor="middle" x="242.25" y="-68.45" font-family="Helvetica,sans-Serif" font-size="10.00">std::vector&lt; uint32_t &gt;</text>
</a>
</g>
</g>
<!-- Node6&#45;&gt;Node3 -->
<g id="edge5_Node000003_Node000006" class="edge">
<title>Node6&#45;&gt;Node3</title>
<g id="a_edge5_Node000003_Node000006"><a xlink:title=" ">
<path fill="none" stroke="#9a32cd" stroke-dasharray="5,2" d="M294.88,-59.63C322.26,-52.9 355.44,-44.75 381.07,-38.45"/>
<polygon fill="#9a32cd" stroke="#9a32cd" points="294.19,-56.44 285.32,-62.23 295.86,-63.24 294.19,-56.44"/>
</a>
</g>
<text text-anchor="middle" x="334.62" y="-56.07" font-family="Helvetica,sans-Serif" font-size="10.00" fill="grey"> indices</text>
</g>
<!-- Node6&#45;&gt;Node7 -->
<g id="edge8_Node000007_Node000006" class="edge">
<title>Node6&#45;&gt;Node7</title>
<g id="a_edge8_Node000007_Node000006"><a xlink:title=" ">
<path fill="none" stroke="#9a32cd" stroke-dasharray="5,2" d="M309.57,-73.91C377.53,-75.54 482.64,-78.07 550.95,-79.71"/>
<polygon fill="#9a32cd" stroke="#9a32cd" points="309.66,-70.39 299.58,-73.65 309.5,-77.39 309.66,-70.39"/>
</a>
</g>
<text text-anchor="middle" x="423.25" y="-79.07" font-family="Helvetica,sans-Serif" font-size="10.00" fill="grey"> m_triangles</text>
</g>
<!-- Node7&#45;&gt;Node1 -->
<g id="edge6_Node000001_Node000007" class="edge">
<title>Node7&#45;&gt;Node1</title>
<g id="a_edge6_Node000001_Node000007"><a xlink:title=" ">
<path fill="none" stroke="#9a32cd" stroke-dasharray="5,2" d="M678.03,-68.94C717.59,-60.47 769.4,-49.37 806.47,-41.43"/>
<polygon fill="#9a32cd" stroke="#9a32cd" points="677.52,-65.69 668.48,-71.2 678.99,-72.53 677.52,-65.69"/>
</a>
</g>
<text text-anchor="middle" x="738.25" y="-64.07" font-family="Helvetica,sans-Serif" font-size="10.00" fill="grey"> triangle_octree</text>
</g>
<!-- Node9 -->
<g id="Node000009" class="node">
<title>Node9</title>
<g id="a_Node000009"><a xlink:title=" ">
<polygon fill="white" stroke="#666666" points="917.75,-151.57 791.5,-151.57 791.5,-121.07 917.75,-121.07 917.75,-151.57"/>
<text text-anchor="start" x="799.5" y="-138.07" font-family="Helvetica,sans-Serif" font-size="10.00">std::array&lt; engine</text>
<text text-anchor="middle" x="854.62" y="-126.82" font-family="Helvetica,sans-Serif" font-size="10.00">::core::TriangleOctree, 8 &gt;</text>
</a>
</g>
</g>
<!-- Node7&#45;&gt;Node9 -->
<g id="edge11_Node000009_Node000007" class="edge">
<title>Node7&#45;&gt;Node9</title>
<g id="a_edge11_Node000009_Node000007"><a xlink:title=" ">
<path fill="none" stroke="#9a32cd" stroke-dasharray="5,2" d="M664.23,-94.37C677.38,-98.1 691.85,-102.04 705.25,-105.32 733.36,-112.22 764.71,-118.91 791.32,-124.3"/>
<polygon fill="#9a32cd" stroke="#9a32cd" points="665.6,-90.83 655.02,-91.44 663.67,-97.56 665.6,-90.83"/>
</a>
</g>
<text text-anchor="middle" x="738.25" y="-121.07" font-family="Helvetica,sans-Serif" font-size="10.00" fill="grey"> elements</text>
</g>
<!-- Node8 -->
<g id="Node000008" class="node">
<title>Node8</title>
<g id="a_Node000008"><a xlink:title=" ">
<polygon fill="white" stroke="#666666" points="1080.75,-128.2 969.5,-128.2 969.5,-86.45 1080.75,-86.45 1080.75,-128.2"/>
<text text-anchor="start" x="977.5" y="-114.7" font-family="Helvetica,sans-Serif" font-size="10.00">std::unique_ptr&lt; std</text>
<text text-anchor="start" x="977.5" y="-103.45" font-family="Helvetica,sans-Serif" font-size="10.00">::array&lt; engine::core</text>
<text text-anchor="middle" x="1025.12" y="-92.2" font-family="Helvetica,sans-Serif" font-size="10.00">::TriangleOctree, 8 &gt; &gt;</text>
</a>
</g>
</g>
<!-- Node8&#45;&gt;Node7 -->
<g id="edge9_Node000007_Node000008" class="edge">
<title>Node8&#45;&gt;Node7</title>
<g id="a_edge9_Node000007_Node000008"><a xlink:title=" ">
<path fill="none" stroke="#9a32cd" stroke-dasharray="5,2" d="M958.5,-103.1C883.87,-98.29 762.65,-90.49 687.4,-85.64"/>
<polygon fill="#9a32cd" stroke="#9a32cd" points="957.95,-106.63 968.16,-103.78 958.4,-99.65 957.95,-106.63"/>
</a>
</g>
<text text-anchor="middle" x="854.62" y="-102.07" font-family="Helvetica,sans-Serif" font-size="10.00" fill="grey"> m_children</text>
</g>
<!-- Node9&#45;&gt;Node8 -->
<g id="edge10_Node000008_Node000009" class="edge">
<title>Node9&#45;&gt;Node8</title>
<g id="a_edge10_Node000008_Node000009"><a xlink:title=" ">
<path fill="none" stroke="#9a32cd" stroke-dasharray="5,2" d="M928.65,-123.75C942.2,-121.42 956.15,-119.02 969.06,-116.8"/>
<polygon fill="#9a32cd" stroke="#9a32cd" points="928.15,-120.46 918.89,-125.61 929.34,-127.36 928.15,-120.46"/>
</a>
</g>
<text text-anchor="middle" x="944.75" y="-123.07" font-family="Helvetica,sans-Serif" font-size="10.00" fill="grey"> ptr</text>
</g>
</g>
</svg>
