<?xml version="1.0" encoding="UTF-8" standalone="no"?>
<!DOCTYPE svg PUBLIC "-//W3C//DTD SVG 1.1//EN"
 "http://www.w3.org/Graphics/SVG/1.1/DTD/svg11.dtd">
<!-- Generated by graphviz version 9.0.0 (20230911.1827)
 -->
<!-- Title: engine::render::_emissive_particle_detail::EmissiveParticleRenderSystem Pages: 1 -->
<svg width="1708pt" height="447pt"
 viewBox="0.00 0.00 1708.25 446.50" xmlns="http://www.w3.org/2000/svg" xmlns:xlink="http://www.w3.org/1999/xlink">
<g id="graph0" class="graph" transform="scale(1 1) rotate(0) translate(4 442.5)">
<title>engine::render::_emissive_particle_detail::EmissiveParticleRenderSystem</title>
<!-- Node1 -->
<g id="Node000001" class="node">
<title>Node1</title>
<g id="a_Node000001"><a xlink:title=" ">
<polygon fill="#999999" stroke="#666666" points="1700.25,-240.12 1541.75,-240.12 1541.75,-198.38 1700.25,-198.38 1700.25,-240.12"/>
<text text-anchor="start" x="1549.75" y="-226.62" font-family="Helvetica,sans-Serif" font-size="10.00">engine::render::_emissive</text>
<text text-anchor="start" x="1549.75" y="-215.38" font-family="Helvetica,sans-Serif" font-size="10.00">_particle_detail::EmissiveParticle</text>
<text text-anchor="middle" x="1621" y="-204.12" font-family="Helvetica,sans-Serif" font-size="10.00">RenderSystem</text>
</a>
</g>
</g>
<!-- Node2 -->
<g id="Node000002" class="node">
<title>Node2</title>
<g id="a_Node000002"><a xlink:href="../../da/df3/structengine_1_1render_1_1_render_pass.html" target="_top" xlink:title=" ">
<polygon fill="white" stroke="#666666" points="1391.75,-429.88 1258,-429.88 1258,-410.62 1391.75,-410.62 1391.75,-429.88"/>
<text text-anchor="middle" x="1324.88" y="-416.38" font-family="Helvetica,sans-Serif" font-size="10.00">engine::render::RenderPass</text>
</a>
</g>
</g>
<!-- Node2&#45;&gt;Node1 -->
<g id="edge1_Node000001_Node000002" class="edge">
<title>Node2&#45;&gt;Node1</title>
<g id="a_edge1_Node000001_Node000002"><a xlink:title=" ">
<path fill="none" stroke="#63b8ff" d="M1395.36,-431.33C1435.95,-434.12 1486.38,-430.89 1523.75,-406.25 1582.58,-367.45 1607.41,-280.87 1616.07,-240.6"/>
<polygon fill="#63b8ff" stroke="#63b8ff" points="1395.68,-427.84 1385.42,-430.49 1395.09,-434.82 1395.68,-427.84"/>
</a>
</g>
</g>
<!-- Node3 -->
<g id="Node000003" class="node">
<title>Node3</title>
<g id="a_Node000003"><a xlink:href="../../dd/d36/classengine_1_1render_1_1_graphics_shader_program.html" target="_top" xlink:title=" ">
<polygon fill="white" stroke="#666666" points="1384.62,-392.5 1265.12,-392.5 1265.12,-362 1384.62,-362 1384.62,-392.5"/>
<text text-anchor="start" x="1273.12" y="-379" font-family="Helvetica,sans-Serif" font-size="10.00">engine::render::Graphics</text>
<text text-anchor="middle" x="1324.88" y="-367.75" font-family="Helvetica,sans-Serif" font-size="10.00">ShaderProgram</text>
</a>
</g>
</g>
<!-- Node3&#45;&gt;Node1 -->
<g id="edge2_Node000001_Node000003" class="edge">
<title>Node3&#45;&gt;Node1</title>
<g id="a_edge2_Node000001_Node000003"><a xlink:title=" ">
<path fill="none" stroke="#9a32cd" stroke-dasharray="5,2" d="M1396.22,-363.89C1448.51,-353.58 1512.64,-339.98 1523.75,-333.25 1561.87,-310.18 1592.21,-266.65 1608.02,-240.57"/>
<polygon fill="#9a32cd" stroke="#9a32cd" points="1395.55,-360.46 1386.41,-365.82 1396.9,-367.33 1395.55,-360.46"/>
</a>
</g>
<text text-anchor="start" x="1424.75" y="-393.75" font-family="Helvetica,sans-Serif" font-size="10.00" fill="grey"> particle_emit_shader</text>
<text text-anchor="middle" x="1470.88" y="-382.5" font-family="Helvetica,sans-Serif" font-size="10.00" fill="grey">_</text>
<text text-anchor="start" x="1424.75" y="-371.25" font-family="Helvetica,sans-Serif" font-size="10.00" fill="grey">particle_render</text>
<text text-anchor="middle" x="1470.88" y="-360" font-family="Helvetica,sans-Serif" font-size="10.00" fill="grey">_shader_</text>
</g>
<!-- Node4 -->
<g id="Node000004" class="node">
<title>Node4</title>
<g id="a_Node000004"><a xlink:href="../../db/db6/structengine_1_1render_1_1_shader_program.html" target="_top" xlink:title=" ">
<polygon fill="white" stroke="#666666" points="1038,-341.88 890,-341.88 890,-322.62 1038,-322.62 1038,-341.88"/>
<text text-anchor="middle" x="964" y="-328.38" font-family="Helvetica,sans-Serif" font-size="10.00">engine::render::ShaderProgram</text>
</a>
</g>
</g>
<!-- Node4&#45;&gt;Node3 -->
<g id="edge3_Node000003_Node000004" class="edge">
<title>Node4&#45;&gt;Node3</title>
<g id="a_edge3_Node000003_Node000004"><a xlink:title=" ">
<path fill="none" stroke="#63b8ff" d="M1049.72,-342.87C1115.89,-351.17 1206.15,-362.49 1264.72,-369.83"/>
<polygon fill="#63b8ff" stroke="#63b8ff" points="1050.35,-339.42 1039.99,-341.65 1049.48,-346.37 1050.35,-339.42"/>
</a>
</g>
</g>
<!-- Node11 -->
<g id="Node000011" class="node">
<title>Node11</title>
<g id="a_Node000011"><a xlink:href="../../d4/d40/classengine_1_1render_1_1_compute_shader_program.html" target="_top" xlink:title=" ">
<polygon fill="white" stroke="#666666" points="1400,-343.5 1249.75,-343.5 1249.75,-313 1400,-313 1400,-343.5"/>
<text text-anchor="start" x="1257.75" y="-330" font-family="Helvetica,sans-Serif" font-size="10.00">engine::render::ComputeShader</text>
<text text-anchor="middle" x="1324.88" y="-318.75" font-family="Helvetica,sans-Serif" font-size="10.00">Program</text>
</a>
</g>
</g>
<!-- Node4&#45;&gt;Node11 -->
<g id="edge11_Node000011_Node000004" class="edge">
<title>Node4&#45;&gt;Node11</title>
<g id="a_edge11_Node000011_Node000004"><a xlink:title=" ">
<path fill="none" stroke="#63b8ff" d="M1049.94,-331.3C1110.5,-330.63 1191.16,-329.73 1249.25,-329.08"/>
<polygon fill="#63b8ff" stroke="#63b8ff" points="1049.96,-327.8 1040,-331.41 1050.04,-334.8 1049.96,-327.8"/>
</a>
</g>
</g>
<!-- Node5 -->
<g id="Node000005" class="node">
<title>Node5</title>
<g id="a_Node000005"><a xlink:title=" ">
<polygon fill="white" stroke="#666666" points="872,-389.5 755.5,-389.5 755.5,-359 872,-359 872,-389.5"/>
<text text-anchor="start" x="763.5" y="-376" font-family="Helvetica,sans-Serif" font-size="10.00">std::shared_ptr&lt; engine</text>
<text text-anchor="middle" x="813.75" y="-364.75" font-family="Helvetica,sans-Serif" font-size="10.00">::render::Shader &gt;</text>
</a>
</g>
</g>
<!-- Node5&#45;&gt;Node3 -->
<g id="edge4_Node000003_Node000005" class="edge">
<title>Node5&#45;&gt;Node3</title>
<g id="a_edge4_Node000003_Node000005"><a xlink:title=" ">
<path fill="none" stroke="#9a32cd" stroke-dasharray="5,2" d="M883.41,-374.65C984.01,-375.25 1169.8,-376.34 1264.71,-376.9"/>
<polygon fill="#9a32cd" stroke="#9a32cd" points="883.7,-371.16 873.68,-374.6 883.66,-378.16 883.7,-371.16"/>
</a>
</g>
<text text-anchor="middle" x="964" y="-377" font-family="Helvetica,sans-Serif" font-size="10.00" fill="grey"> shaders_</text>
</g>
<!-- Node6 -->
<g id="Node000006" class="node">
<title>Node6</title>
<g id="a_Node000006"><a xlink:href="../../d0/dc5/classengine_1_1render_1_1_shader.html" target="_top" xlink:title=" ">
<polygon fill="white" stroke="#666666" points="536.62,-353.88 425.38,-353.88 425.38,-334.62 536.62,-334.62 536.62,-353.88"/>
<text text-anchor="middle" x="481" y="-340.38" font-family="Helvetica,sans-Serif" font-size="10.00">engine::render::Shader</text>
</a>
</g>
</g>
<!-- Node6&#45;&gt;Node5 -->
<g id="edge5_Node000005_Node000006" class="edge">
<title>Node6&#45;&gt;Node5</title>
<g id="a_edge5_Node000005_Node000006"><a xlink:title=" ">
<path fill="none" stroke="#9a32cd" stroke-dasharray="5,2" d="M548.33,-350.27C608.88,-355.76 697.48,-363.79 755.13,-369.02"/>
<polygon fill="#9a32cd" stroke="#9a32cd" points="548.77,-346.79 538.5,-349.37 548.14,-353.76 548.77,-346.79"/>
</a>
</g>
<text text-anchor="middle" x="562.5" y="-353" font-family="Helvetica,sans-Serif" font-size="10.00" fill="grey"> ptr</text>
</g>
<!-- Node13 -->
<g id="Node000013" class="node">
<title>Node13</title>
<g id="a_Node000013"><a xlink:href="../../d3/d0b/classengine_1_1render_1_1_compute_shader.html" target="_top" xlink:title=" ">
<polygon fill="white" stroke="#666666" points="737.5,-314.88 587.25,-314.88 587.25,-295.62 737.5,-295.62 737.5,-314.88"/>
<text text-anchor="middle" x="662.38" y="-301.38" font-family="Helvetica,sans-Serif" font-size="10.00">engine::render::ComputeShader</text>
</a>
</g>
</g>
<!-- Node6&#45;&gt;Node13 -->
<g id="edge14_Node000013_Node000006" class="edge">
<title>Node6&#45;&gt;Node13</title>
<g id="a_edge14_Node000013_Node000006"><a xlink:title=" ">
<path fill="none" stroke="#63b8ff" d="M539.15,-331.82C563.64,-326.5 591.87,-320.36 615.03,-315.33"/>
<polygon fill="#63b8ff" stroke="#63b8ff" points="538.7,-328.34 529.67,-333.88 540.19,-335.18 538.7,-328.34"/>
</a>
</g>
</g>
<!-- Node7 -->
<g id="Node000007" class="node">
<title>Node7</title>
<g id="a_Node000007"><a xlink:href="../../d3/de6/structengine_1_1render_1_1_shader_blob.html" target="_top" xlink:title=" ">
<polygon fill="white" stroke="#666666" points="335.75,-353.88 205,-353.88 205,-334.62 335.75,-334.62 335.75,-353.88"/>
<text text-anchor="middle" x="270.38" y="-340.38" font-family="Helvetica,sans-Serif" font-size="10.00">engine::render::ShaderBlob</text>
</a>
</g>
</g>
<!-- Node7&#45;&gt;Node6 -->
<g id="edge6_Node000006_Node000007" class="edge">
<title>Node7&#45;&gt;Node6</title>
<g id="a_edge6_Node000006_Node000007"><a xlink:title=" ">
<path fill="none" stroke="#9a32cd" stroke-dasharray="5,2" d="M347.46,-344.25C373.14,-344.25 401.29,-344.25 425.01,-344.25"/>
<polygon fill="#9a32cd" stroke="#9a32cd" points="347.76,-340.75 337.76,-344.25 347.76,-347.75 347.76,-340.75"/>
</a>
</g>
<text text-anchor="middle" x="390.5" y="-346" font-family="Helvetica,sans-Serif" font-size="10.00" fill="grey"> blob_</text>
</g>
<!-- Node8 -->
<g id="Node000008" class="node">
<title>Node8</title>
<g id="a_Node000008"><a xlink:title=" ">
<polygon fill="white" stroke="#666666" points="106.75,-353.88 0,-353.88 0,-334.62 106.75,-334.62 106.75,-353.88"/>
<text text-anchor="middle" x="53.38" y="-340.38" font-family="Helvetica,sans-Serif" font-size="10.00">std::vector&lt; uint8_t &gt;</text>
</a>
</g>
</g>
<!-- Node8&#45;&gt;Node7 -->
<g id="edge7_Node000007_Node000008" class="edge">
<title>Node8&#45;&gt;Node7</title>
<g id="a_edge7_Node000007_Node000008"><a xlink:title=" ">
<path fill="none" stroke="#9a32cd" stroke-dasharray="5,2" d="M118.62,-344.25C145.85,-344.25 177.53,-344.25 204.8,-344.25"/>
<polygon fill="#9a32cd" stroke="#9a32cd" points="118.76,-340.75 108.76,-344.25 118.76,-347.75 118.76,-340.75"/>
</a>
</g>
<text text-anchor="middle" x="145.38" y="-346" font-family="Helvetica,sans-Serif" font-size="10.00" fill="grey"> bytecode</text>
</g>
<!-- Node9 -->
<g id="Node000009" class="node">
<title>Node9</title>
<g id="a_Node000009"><a xlink:title=" ">
<polygon fill="white" stroke="#666666" points="1022.25,-438.5 905.75,-438.5 905.75,-408 1022.25,-408 1022.25,-438.5"/>
<text text-anchor="start" x="913.75" y="-425" font-family="Helvetica,sans-Serif" font-size="10.00">std::shared_ptr&lt; engine</text>
<text text-anchor="middle" x="964" y="-413.75" font-family="Helvetica,sans-Serif" font-size="10.00">::render::InputLayout &gt;</text>
</a>
</g>
</g>
<!-- Node9&#45;&gt;Node3 -->
<g id="edge8_Node000003_Node000009" class="edge">
<title>Node9&#45;&gt;Node3</title>
<g id="a_edge8_Node000003_Node000009"><a xlink:title=" ">
<path fill="none" stroke="#9a32cd" stroke-dasharray="5,2" d="M1033.74,-416.13C1087.68,-410.34 1164.61,-401.61 1231.75,-392.25 1242.5,-390.75 1253.94,-389.01 1264.96,-387.25"/>
<polygon fill="#9a32cd" stroke="#9a32cd" points="1033.67,-412.62 1024.1,-417.16 1034.42,-419.58 1033.67,-412.62"/>
</a>
</g>
<text text-anchor="middle" x="1143.88" y="-414" font-family="Helvetica,sans-Serif" font-size="10.00" fill="grey"> input_layout_</text>
</g>
<!-- Node10 -->
<g id="Node000010" class="node">
<title>Node10</title>
<g id="a_Node000010"><a xlink:href="../../d2/d6c/classengine_1_1render_1_1_input_layout.html" target="_top" xlink:title=" ">
<polygon fill="white" stroke="#666666" points="728.12,-432.88 596.62,-432.88 596.62,-413.62 728.12,-413.62 728.12,-432.88"/>
<text text-anchor="middle" x="662.38" y="-419.38" font-family="Helvetica,sans-Serif" font-size="10.00">engine::render::InputLayout</text>
</a>
</g>
</g>
<!-- Node10&#45;&gt;Node9 -->
<g id="edge9_Node000009_Node000010" class="edge">
<title>Node10&#45;&gt;Node9</title>
<g id="a_edge9_Node000009_Node000010"><a xlink:title=" ">
<path fill="none" stroke="#9a32cd" stroke-dasharray="5,2" d="M739.83,-423.25C791.49,-423.25 858.61,-423.25 905.7,-423.25"/>
<polygon fill="#9a32cd" stroke="#9a32cd" points="739.9,-419.75 729.9,-423.25 739.9,-426.75 739.9,-419.75"/>
</a>
</g>
<text text-anchor="middle" x="813.75" y="-425" font-family="Helvetica,sans-Serif" font-size="10.00" fill="grey"> ptr</text>
</g>
<!-- Node11&#45;&gt;Node1 -->
<g id="edge10_Node000001_Node000011" class="edge">
<title>Node11&#45;&gt;Node1</title>
<g id="a_edge10_Node000001_Node000011"><a xlink:title=" ">
<path fill="none" stroke="#9a32cd" stroke-dasharray="5,2" d="M1386.15,-309.17C1439.4,-292.25 1510.59,-269.43 1523.75,-264.25 1541.6,-257.22 1560.83,-248.48 1577.38,-240.57"/>
<polygon fill="#9a32cd" stroke="#9a32cd" points="1385.34,-305.76 1376.87,-312.12 1387.46,-312.43 1385.34,-305.76"/>
</a>
</g>
<text text-anchor="start" x="1418" y="-321.5" font-family="Helvetica,sans-Serif" font-size="10.00" fill="grey"> particle_args_update</text>
<text text-anchor="middle" x="1470.88" y="-310.25" font-family="Helvetica,sans-Serif" font-size="10.00" fill="grey">_shader_</text>
<text text-anchor="middle" x="1470.88" y="-299" font-family="Helvetica,sans-Serif" font-size="10.00" fill="grey">particle_update_shader_</text>
</g>
<!-- Node12 -->
<g id="Node000012" class="node">
<title>Node12</title>
<g id="a_Node000012"><a xlink:title=" ">
<polygon fill="white" stroke="#666666" points="1029,-304.5 899,-304.5 899,-274 1029,-274 1029,-304.5"/>
<text text-anchor="start" x="907" y="-291" font-family="Helvetica,sans-Serif" font-size="10.00">std::shared_ptr&lt; engine</text>
<text text-anchor="middle" x="964" y="-279.75" font-family="Helvetica,sans-Serif" font-size="10.00">::render::ComputeShader &gt;</text>
</a>
</g>
</g>
<!-- Node12&#45;&gt;Node11 -->
<g id="edge12_Node000011_Node000012" class="edge">
<title>Node12&#45;&gt;Node11</title>
<g id="a_edge12_Node000011_Node000012"><a xlink:title=" ">
<path fill="none" stroke="#9a32cd" stroke-dasharray="5,2" d="M1040.7,-295.04C1094.17,-299.43 1167.46,-306.05 1231.75,-314 1237.45,-314.7 1243.34,-315.49 1249.26,-316.31"/>
<polygon fill="#9a32cd" stroke="#9a32cd" points="1041.02,-291.55 1030.77,-294.23 1040.45,-298.53 1041.02,-291.55"/>
</a>
</g>
<text text-anchor="middle" x="1143.88" y="-315" font-family="Helvetica,sans-Serif" font-size="10.00" fill="grey"> shader_</text>
</g>
<!-- Node13&#45;&gt;Node12 -->
<g id="edge13_Node000012_Node000013" class="edge">
<title>Node13&#45;&gt;Node12</title>
<g id="a_edge13_Node000012_Node000013"><a xlink:title=" ">
<path fill="none" stroke="#9a32cd" stroke-dasharray="5,2" d="M749.05,-300.67C796.65,-298.13 854.9,-295.02 898.59,-292.69"/>
<polygon fill="#9a32cd" stroke="#9a32cd" points="749.14,-297.17 739.34,-301.19 749.51,-304.16 749.14,-297.17"/>
</a>
</g>
<text text-anchor="middle" x="813.75" y="-301" font-family="Helvetica,sans-Serif" font-size="10.00" fill="grey"> ptr</text>
</g>
<!-- Node14 -->
<g id="Node000014" class="node">
<title>Node14</title>
<g id="a_Node000014"><a xlink:href="../../da/d25/classengine_1_1direct3d_1_1_default_buffer.html" target="_top" xlink:title=" ">
<polygon fill="white" stroke="#666666" points="1208.88,-89.75 1078.88,-89.75 1078.88,-36.75 1208.88,-36.75 1208.88,-89.75"/>
<text text-anchor="start" x="1086.88" y="-76.25" font-family="Helvetica,sans-Serif" font-size="10.00">engine::direct3d::Default</text>
<text text-anchor="start" x="1086.88" y="-65" font-family="Helvetica,sans-Serif" font-size="10.00">Buffer&lt; engine::render</text>
<text text-anchor="start" x="1086.88" y="-53.75" font-family="Helvetica,sans-Serif" font-size="10.00">::_emissive_particle_detail</text>
<text text-anchor="middle" x="1143.88" y="-42.5" font-family="Helvetica,sans-Serif" font-size="10.00">::GPUParticle &gt;</text>
</a>
</g>
</g>
<!-- Node14&#45;&gt;Node1 -->
<g id="edge15_Node000001_Node000014" class="edge">
<title>Node14&#45;&gt;Node1</title>
<g id="a_edge15_Node000001_Node000014"><a xlink:title=" ">
<path fill="none" stroke="#9a32cd" stroke-dasharray="5,2" d="M1220.51,-55.05C1272.08,-51.84 1341.39,-52.24 1400,-69 1483.6,-92.9 1563.06,-162.73 1599.38,-198.14"/>
<polygon fill="#9a32cd" stroke="#9a32cd" points="1220.37,-51.55 1210.63,-55.73 1220.85,-58.53 1220.37,-51.55"/>
</a>
</g>
<text text-anchor="middle" x="1324.88" y="-71" font-family="Helvetica,sans-Serif" font-size="10.00" fill="grey"> particle_buffer_</text>
</g>
<!-- Node15 -->
<g id="Node000015" class="node">
<title>Node15</title>
<g id="a_Node000015"><a xlink:href="../../d9/db4/classengine_1_1direct3d_1_1_buffer_base.html" target="_top" xlink:title="Buffer Base class that contains the common functions for all the buffers.">
<polygon fill="white" stroke="#666666" points="719.12,-81.5 605.62,-81.5 605.62,-51 719.12,-51 719.12,-81.5"/>
<text text-anchor="start" x="613.62" y="-68" font-family="Helvetica,sans-Serif" font-size="10.00">engine::direct3d::Buffer</text>
<text text-anchor="middle" x="662.38" y="-56.75" font-family="Helvetica,sans-Serif" font-size="10.00">Base&lt; T &gt;</text>
</a>
</g>
</g>
<!-- Node15&#45;&gt;Node14 -->
<g id="edge16_Node000014_Node000015" class="edge">
<title>Node15&#45;&gt;Node14</title>
<g id="a_edge16_Node000014_Node000015"><a xlink:title=" ">
<path fill="none" stroke="#63b8ff" d="M730.76,-65.83C823.1,-65.25 987.81,-64.22 1078.53,-63.65"/>
<polygon fill="#63b8ff" stroke="#63b8ff" points="730.81,-62.33 720.83,-65.89 730.85,-69.33 730.81,-62.33"/>
</a>
</g>
</g>
<!-- Node16 -->
<g id="Node000016" class="node">
<title>Node16</title>
<g id="a_Node000016"><a xlink:href="../../d6/de4/classengine_1_1direct3d_1_1_buffer_wrapper.html" target="_top" xlink:title="A wrapper for a D3D11 buffer.">
<polygon fill="white" stroke="#666666" points="537.75,-100.5 424.25,-100.5 424.25,-70 537.75,-70 537.75,-100.5"/>
<text text-anchor="start" x="432.25" y="-87" font-family="Helvetica,sans-Serif" font-size="10.00">engine::direct3d::Buffer</text>
<text text-anchor="middle" x="481" y="-75.75" font-family="Helvetica,sans-Serif" font-size="10.00">Wrapper</text>
</a>
</g>
</g>
<!-- Node16&#45;&gt;Node15 -->
<g id="edge17_Node000015_Node000016" class="edge">
<title>Node16&#45;&gt;Node15</title>
<g id="a_edge17_Node000015_Node000016"><a xlink:title=" ">
<path fill="none" stroke="#8b1a1a" d="M549.09,-78.14C567.61,-76.18 587.51,-74.07 605.33,-72.19"/>
<polygon fill="#8b1a1a" stroke="#8b1a1a" points="548.85,-74.65 539.28,-79.18 549.59,-81.61 548.85,-74.65"/>
</a>
</g>
</g>
<!-- Node19 -->
<g id="Node000019" class="node">
<title>Node19</title>
<g id="a_Node000019"><a xlink:href="../../d9/db4/classengine_1_1direct3d_1_1_buffer_base.html" target="_top" xlink:title="Buffer Base class that contains the common functions for all the buffers.">
<polygon fill="white" stroke="#666666" points="719.12,-31.5 605.62,-31.5 605.62,-1 719.12,-1 719.12,-31.5"/>
<text text-anchor="start" x="613.62" y="-18" font-family="Helvetica,sans-Serif" font-size="10.00">engine::direct3d::Buffer</text>
<text text-anchor="middle" x="662.38" y="-6.75" font-family="Helvetica,sans-Serif" font-size="10.00">Base&lt; T &gt;</text>
</a>
</g>
</g>
<!-- Node16&#45;&gt;Node19 -->
<g id="edge21_Node000019_Node000016" class="edge">
<title>Node16&#45;&gt;Node19</title>
<g id="a_edge21_Node000019_Node000016"><a xlink:title=" ">
<path fill="none" stroke="#8b1a1a" d="M529.39,-65.3C547.42,-57.86 568.21,-49.47 587.25,-42.25 596.3,-38.82 606.04,-35.29 615.38,-31.98"/>
<polygon fill="#8b1a1a" stroke="#8b1a1a" points="528.13,-62.03 520.24,-69.09 530.81,-68.49 528.13,-62.03"/>
</a>
</g>
</g>
<!-- Node21 -->
<g id="Node000021" class="node">
<title>Node21</title>
<g id="a_Node000021"><a xlink:href="../../d9/db4/classengine_1_1direct3d_1_1_buffer_base.html" target="_top" xlink:title="Buffer Base class that contains the common functions for all the buffers.">
<polygon fill="white" stroke="#666666" points="719.12,-213.5 605.62,-213.5 605.62,-183 719.12,-183 719.12,-213.5"/>
<text text-anchor="start" x="613.62" y="-200" font-family="Helvetica,sans-Serif" font-size="10.00">engine::direct3d::Buffer</text>
<text text-anchor="middle" x="662.38" y="-188.75" font-family="Helvetica,sans-Serif" font-size="10.00">Base&lt; T &gt;</text>
</a>
</g>
</g>
<!-- Node16&#45;&gt;Node21 -->
<g id="edge24_Node000021_Node000016" class="edge">
<title>Node16&#45;&gt;Node21</title>
<g id="a_edge24_Node000021_Node000016"><a xlink:title=" ">
<path fill="none" stroke="#8b1a1a" d="M516.34,-106.88C551.54,-129.06 605.42,-163 636.65,-182.67"/>
<polygon fill="#8b1a1a" stroke="#8b1a1a" points="518.55,-104.14 508.22,-101.77 514.82,-110.06 518.55,-104.14"/>
</a>
</g>
</g>
<!-- Node24 -->
<g id="Node000024" class="node">
<title>Node24</title>
<g id="a_Node000024"><a xlink:href="../../d9/db4/classengine_1_1direct3d_1_1_buffer_base.html" target="_top" xlink:title="Buffer Base class that contains the common functions for all the buffers.">
<polygon fill="white" stroke="#666666" points="719.12,-131.5 605.62,-131.5 605.62,-101 719.12,-101 719.12,-131.5"/>
<text text-anchor="start" x="613.62" y="-118" font-family="Helvetica,sans-Serif" font-size="10.00">engine::direct3d::Buffer</text>
<text text-anchor="middle" x="662.38" y="-106.75" font-family="Helvetica,sans-Serif" font-size="10.00">Base&lt; T &gt;</text>
</a>
</g>
</g>
<!-- Node16&#45;&gt;Node24 -->
<g id="edge28_Node000024_Node000016" class="edge">
<title>Node16&#45;&gt;Node24</title>
<g id="a_edge28_Node000024_Node000016"><a xlink:title=" ">
<path fill="none" stroke="#8b1a1a" d="M549.09,-96.85C567.61,-100.05 587.51,-103.48 605.33,-106.56"/>
<polygon fill="#8b1a1a" stroke="#8b1a1a" points="549.71,-93.4 539.26,-95.15 548.52,-100.3 549.71,-93.4"/>
</a>
</g>
</g>
<!-- Node17 -->
<g id="Node000017" class="node">
<title>Node17</title>
<g id="a_Node000017"><a xlink:href="../../df/d47/classengine_1_1direct3d_1_1d3d__resource__wrapper.html" target="_top" xlink:title=" ">
<polygon fill="white" stroke="#666666" points="356.75,-100.5 184,-100.5 184,-70 356.75,-70 356.75,-100.5"/>
<text text-anchor="start" x="192" y="-87" font-family="Helvetica,sans-Serif" font-size="10.00">engine::direct3d::d3d</text>
<text text-anchor="middle" x="270.38" y="-75.75" font-family="Helvetica,sans-Serif" font-size="10.00">_resource_wrapper&lt; ID3D11Buffer &gt;</text>
</a>
</g>
</g>
<!-- Node17&#45;&gt;Node16 -->
<g id="edge18_Node000016_Node000017" class="edge">
<title>Node17&#45;&gt;Node16</title>
<g id="a_edge18_Node000016_Node000017"><a xlink:title=" ">
<path fill="none" stroke="#9a32cd" stroke-dasharray="5,2" d="M368.54,-85.25C387.47,-85.25 406.72,-85.25 423.77,-85.25"/>
<polygon fill="#9a32cd" stroke="#9a32cd" points="368.65,-81.75 358.65,-85.25 368.65,-88.75 368.65,-81.75"/>
</a>
</g>
<text text-anchor="middle" x="390.5" y="-87" font-family="Helvetica,sans-Serif" font-size="10.00" fill="grey"> buffer_</text>
</g>
<!-- Node18 -->
<g id="Node000018" class="node">
<title>Node18</title>
<g id="a_Node000018"><a xlink:href="../../da/d25/classengine_1_1direct3d_1_1_default_buffer.html" target="_top" xlink:title=" ">
<polygon fill="white" stroke="#666666" points="1203.25,-30.5 1084.5,-30.5 1084.5,0 1203.25,0 1203.25,-30.5"/>
<text text-anchor="start" x="1092.5" y="-17" font-family="Helvetica,sans-Serif" font-size="10.00">engine::direct3d::Default</text>
<text text-anchor="middle" x="1143.88" y="-5.75" font-family="Helvetica,sans-Serif" font-size="10.00">Buffer&lt; uint32_t &gt;</text>
</a>
</g>
</g>
<!-- Node18&#45;&gt;Node1 -->
<g id="edge19_Node000001_Node000018" class="edge">
<title>Node18&#45;&gt;Node1</title>
<g id="a_edge19_Node000001_Node000018"><a xlink:title=" ">
<path fill="none" stroke="#9a32cd" stroke-dasharray="5,2" d="M1215.04,-7.67C1296.95,-2.6 1432.77,-6.36 1523.75,-72.25 1568.84,-104.9 1598.56,-165.71 1611.9,-197.93"/>
<polygon fill="#9a32cd" stroke="#9a32cd" points="1214.85,-4.17 1205.12,-8.35 1215.33,-11.16 1214.85,-4.17"/>
</a>
</g>
<text text-anchor="middle" x="1324.88" y="-21" font-family="Helvetica,sans-Serif" font-size="10.00" fill="grey"> particle_range_</text>
</g>
<!-- Node19&#45;&gt;Node18 -->
<g id="edge20_Node000018_Node000019" class="edge">
<title>Node19&#45;&gt;Node18</title>
<g id="a_edge20_Node000018_Node000019"><a xlink:title=" ">
<path fill="none" stroke="#63b8ff" d="M730.71,-16.11C825.04,-15.91 994.94,-15.56 1084.3,-15.37"/>
<polygon fill="#63b8ff" stroke="#63b8ff" points="730.82,-12.61 720.83,-16.13 730.84,-19.61 730.82,-12.61"/>
</a>
</g>
</g>
<!-- Node20 -->
<g id="Node000020" class="node">
<title>Node20</title>
<g id="a_Node000020"><a xlink:href="../../da/d25/classengine_1_1direct3d_1_1_default_buffer.html" target="_top" xlink:title=" ">
<polygon fill="white" stroke="#666666" points="1231.75,-262.12 1056,-262.12 1056,-220.38 1231.75,-220.38 1231.75,-262.12"/>
<text text-anchor="start" x="1064" y="-248.62" font-family="Helvetica,sans-Serif" font-size="10.00">engine::direct3d::Default</text>
<text text-anchor="start" x="1064" y="-237.38" font-family="Helvetica,sans-Serif" font-size="10.00">Buffer&lt; D3D11_DRAW_INSTANCED</text>
<text text-anchor="middle" x="1143.88" y="-226.12" font-family="Helvetica,sans-Serif" font-size="10.00">_INDIRECT_ARGS &gt;</text>
</a>
</g>
</g>
<!-- Node20&#45;&gt;Node1 -->
<g id="edge22_Node000001_Node000020" class="edge">
<title>Node20&#45;&gt;Node1</title>
<g id="a_edge22_Node000001_Node000020"><a xlink:title=" ">
<path fill="none" stroke="#9a32cd" stroke-dasharray="5,2" d="M1243.4,-236.69C1331.73,-232.6 1459.63,-226.68 1541.29,-222.89"/>
<polygon fill="#9a32cd" stroke="#9a32cd" points="1243.36,-233.19 1233.53,-237.14 1243.68,-240.18 1243.36,-233.19"/>
</a>
</g>
<text text-anchor="start" x="1277.62" y="-270.75" font-family="Helvetica,sans-Serif" font-size="10.00" fill="grey"> particle_indirect_args</text>
<text text-anchor="middle" x="1324.88" y="-259.5" font-family="Helvetica,sans-Serif" font-size="10.00" fill="grey">_</text>
<text text-anchor="start" x="1277.62" y="-248.25" font-family="Helvetica,sans-Serif" font-size="10.00" fill="grey">particle_indirect</text>
<text text-anchor="middle" x="1324.88" y="-237" font-family="Helvetica,sans-Serif" font-size="10.00" fill="grey">_args_copy_</text>
</g>
<!-- Node21&#45;&gt;Node20 -->
<g id="edge23_Node000020_Node000021" class="edge">
<title>Node21&#45;&gt;Node20</title>
<g id="a_edge23_Node000020_Node000021"><a xlink:title=" ">
<path fill="none" stroke="#63b8ff" d="M730.64,-204.28C815.66,-211.91 962.16,-225.04 1055.69,-233.43"/>
<polygon fill="#63b8ff" stroke="#63b8ff" points="731.1,-200.81 720.83,-203.4 730.47,-207.78 731.1,-200.81"/>
</a>
</g>
</g>
<!-- Node22 -->
<g id="Node000022" class="node">
<title>Node22</title>
<g id="a_Node000022"><a xlink:href="../../d2/db0/classengine_1_1direct3d_1_1_dynamic_uniform_buffer.html" target="_top" xlink:title=" ">
<polygon fill="white" stroke="#666666" points="1389.12,-213.75 1260.62,-213.75 1260.62,-160.75 1389.12,-160.75 1389.12,-213.75"/>
<text text-anchor="start" x="1268.62" y="-200.25" font-family="Helvetica,sans-Serif" font-size="10.00">engine::direct3d::Dynamic</text>
<text text-anchor="start" x="1268.62" y="-189" font-family="Helvetica,sans-Serif" font-size="10.00">UniformBuffer&lt; engine::</text>
<text text-anchor="start" x="1268.62" y="-177.75" font-family="Helvetica,sans-Serif" font-size="10.00">render::_emissive_particle</text>
<text text-anchor="middle" x="1324.88" y="-166.5" font-family="Helvetica,sans-Serif" font-size="10.00">_detail::PerFrame &gt;</text>
</a>
</g>
</g>
<!-- Node22&#45;&gt;Node1 -->
<g id="edge25_Node000001_Node000022" class="edge">
<title>Node22&#45;&gt;Node1</title>
<g id="a_edge25_Node000001_Node000022"><a xlink:title=" ">
<path fill="none" stroke="#9a32cd" stroke-dasharray="5,2" d="M1400.6,-195.38C1443.67,-200.07 1497.76,-205.95 1541.45,-210.7"/>
<polygon fill="#9a32cd" stroke="#9a32cd" points="1401.16,-191.92 1390.84,-194.32 1400.4,-198.88 1401.16,-191.92"/>
</a>
</g>
<text text-anchor="middle" x="1470.88" y="-209" font-family="Helvetica,sans-Serif" font-size="10.00" fill="grey"> per_frame_buffer_</text>
</g>
<!-- Node23 -->
<g id="Node000023" class="node">
<title>Node23</title>
<g id="a_Node000023"><a xlink:href="../../df/d0e/classengine_1_1direct3d_1_1_dynamic_buffer.html" target="_top" xlink:title="The dynamic buffer class.">
<polygon fill="white" stroke="#666666" points="1026.75,-191.5 901.25,-191.5 901.25,-161 1026.75,-161 1026.75,-191.5"/>
<text text-anchor="start" x="909.25" y="-178" font-family="Helvetica,sans-Serif" font-size="10.00">engine::direct3d::Dynamic</text>
<text text-anchor="middle" x="964" y="-166.75" font-family="Helvetica,sans-Serif" font-size="10.00">Buffer&lt; T &gt;</text>
</a>
</g>
</g>
<!-- Node23&#45;&gt;Node22 -->
<g id="edge26_Node000022_Node000023" class="edge">
<title>Node23&#45;&gt;Node22</title>
<g id="a_edge26_Node000022_Node000023"><a xlink:title=" ">
<path fill="none" stroke="#8b1a1a" d="M1038.54,-178.5C1103.86,-180.51 1198.35,-183.4 1260.42,-185.31"/>
<polygon fill="#8b1a1a" stroke="#8b1a1a" points="1038.72,-175.01 1028.61,-178.2 1038.5,-182 1038.72,-175.01"/>
</a>
</g>
</g>
<!-- Node24&#45;&gt;Node23 -->
<g id="edge27_Node000023_Node000024" class="edge">
<title>Node24&#45;&gt;Node23</title>
<g id="a_edge27_Node000023_Node000024"><a xlink:title=" ">
<path fill="none" stroke="#63b8ff" d="M730.61,-129.71C781.59,-139.92 851.11,-153.84 900.81,-163.8"/>
<polygon fill="#63b8ff" stroke="#63b8ff" points="731.36,-126.29 720.86,-127.76 729.98,-133.16 731.36,-126.29"/>
</a>
</g>
</g>
<!-- Node26 -->
<g id="Node000026" class="node">
<title>Node26</title>
<g id="a_Node000026"><a xlink:href="../../df/d0e/classengine_1_1direct3d_1_1_dynamic_buffer.html" target="_top" xlink:title="The dynamic buffer class.">
<polygon fill="white" stroke="#666666" points="1026.75,-131.5 901.25,-131.5 901.25,-101 1026.75,-101 1026.75,-131.5"/>
<text text-anchor="start" x="909.25" y="-118" font-family="Helvetica,sans-Serif" font-size="10.00">engine::direct3d::Dynamic</text>
<text text-anchor="middle" x="964" y="-106.75" font-family="Helvetica,sans-Serif" font-size="10.00">Buffer&lt; T &gt;</text>
</a>
</g>
</g>
<!-- Node24&#45;&gt;Node26 -->
<g id="edge31_Node000026_Node000024" class="edge">
<title>Node24&#45;&gt;Node26</title>
<g id="a_edge31_Node000026_Node000024"><a xlink:title=" ">
<path fill="none" stroke="#63b8ff" d="M730.61,-116.25C781.59,-116.25 851.11,-116.25 900.81,-116.25"/>
<polygon fill="#63b8ff" stroke="#63b8ff" points="730.89,-112.75 720.89,-116.25 730.89,-119.75 730.89,-112.75"/>
</a>
</g>
</g>
<!-- Node25 -->
<g id="Node000025" class="node">
<title>Node25</title>
<g id="a_Node000025"><a xlink:href="../../d2/db0/classengine_1_1direct3d_1_1_dynamic_uniform_buffer.html" target="_top" xlink:title=" ">
<polygon fill="white" stroke="#666666" points="1389.12,-142.75 1260.62,-142.75 1260.62,-89.75 1389.12,-89.75 1389.12,-142.75"/>
<text text-anchor="start" x="1268.62" y="-129.25" font-family="Helvetica,sans-Serif" font-size="10.00">engine::direct3d::Dynamic</text>
<text text-anchor="start" x="1268.62" y="-118" font-family="Helvetica,sans-Serif" font-size="10.00">UniformBuffer&lt; engine::</text>
<text text-anchor="start" x="1268.62" y="-106.75" font-family="Helvetica,sans-Serif" font-size="10.00">render::_emissive_particle</text>
<text text-anchor="middle" x="1324.88" y="-95.5" font-family="Helvetica,sans-Serif" font-size="10.00">_detail::PerMesh &gt;</text>
</a>
</g>
</g>
<!-- Node25&#45;&gt;Node1 -->
<g id="edge29_Node000001_Node000025" class="edge">
<title>Node25&#45;&gt;Node1</title>
<g id="a_edge29_Node000001_Node000025"><a xlink:title=" ">
<path fill="none" stroke="#9a32cd" stroke-dasharray="5,2" d="M1400.18,-140C1437.43,-152.14 1483.13,-167.4 1523.75,-182 1537.58,-186.97 1552.42,-192.58 1566.21,-197.9"/>
<polygon fill="#9a32cd" stroke="#9a32cd" points="1401.45,-136.73 1390.85,-136.97 1399.28,-143.39 1401.45,-136.73"/>
</a>
</g>
<text text-anchor="middle" x="1470.88" y="-183" font-family="Helvetica,sans-Serif" font-size="10.00" fill="grey"> per_mesh_buffer_</text>
</g>
<!-- Node26&#45;&gt;Node25 -->
<g id="edge30_Node000025_Node000026" class="edge">
<title>Node26&#45;&gt;Node25</title>
<g id="a_edge30_Node000025_Node000026"><a xlink:title=" ">
<path fill="none" stroke="#8b1a1a" d="M1038.54,-116.25C1103.86,-116.25 1198.35,-116.25 1260.42,-116.25"/>
<polygon fill="#8b1a1a" stroke="#8b1a1a" points="1038.62,-112.75 1028.62,-116.25 1038.62,-119.75 1038.62,-112.75"/>
</a>
</g>
</g>
</g>
</svg>
