<?xml version="1.0" encoding="UTF-8" standalone="no"?>
<!DOCTYPE svg PUBLIC "-//W3C//DTD SVG 1.1//EN"
 "http://www.w3.org/Graphics/SVG/1.1/DTD/svg11.dtd">
<!-- Generated by graphviz version 8.1.0 (20230707.0739)
 -->
<!-- Title: engine::core::LayerStack Pages: 1 -->
<!--zoomable 611 -->

<svg id="main" version="1.1" xmlns="http://www.w3.org/2000/svg" xmlns:xlink="http://www.w3.org/1999/xlink" xml:space="preserve" onload="init(evt)">
<style type="text/css"><![CDATA[
.node, .edge {opacity: 0.7;}
.node.selected, .edge.selected {opacity: 1;}
.edge:hover path { stroke: red; }
.edge:hover polygon { stroke: red; fill: red; }
]]></style>

<defs>
  <circle id="rim" cx="0" cy="0" r="7"/>
  <circle id="rim2" cx="0" cy="0" r="3.5"/>
  <g id="zoomPlus">
    <use xlink:href="#rim" fill="#404040"><set attributeName="fill" to="#808080" begin="zoomplus.mouseover" end="zoomplus.mouseout"/></use>
    <path d="M-4,0h8M0,-4v8" fill="none" stroke="white" stroke-width="1.5" pointer-events="none"/>
  </g>
  <g id="zoomMin">
    <use xlink:href="#rim" fill="#404040"><set attributeName="fill" to="#808080" begin="zoomminus.mouseover" end="zoomminus.mouseout"/></use>
    <path d="M-4,0h8" fill="none" stroke="white" stroke-width="1.5" pointer-events="none"/>
  </g>
  <g id="arrowUp" transform="translate(30 24)">
    <use xlink:href="#rim"/>
    <path pointer-events="none" fill="none" stroke="white" stroke-width="1.5" d="M0,-3.0v7 M-2.5,-0.5L0,-3.0L2.5,-0.5"/>
  </g>
  <g id="arrowRight" transform="rotate(90) translate(36 -43)">
    <use xlink:href="#rim"/>
    <path pointer-events="none" fill="none" stroke="white" stroke-width="1.5" d="M0,-3.0v7 M-2.5,-0.5L0,-3.0L2.5,-0.5"/>
  </g>
  <g id="arrowDown" transform="rotate(180) translate(-30 -48)">
    <use xlink:href="#rim"/>
    <path pointer-events="none" fill="none" stroke="white" stroke-width="1.5" d="M0,-3.0v7 M-2.5,-0.5L0,-3.0L2.5,-0.5"/>
  </g>
  <g id="arrowLeft" transform="rotate(270) translate(-36 17)">
    <use xlink:href="#rim"/>
    <path pointer-events="none" fill="none" stroke="white" stroke-width="1.5" d="M0,-3.0v7 M-2.5,-0.5L0,-3.0L2.5,-0.5"/>
  </g>
  <g id="resetDef">
    <use xlink:href="#rim2" fill="#404040"><set attributeName="fill" to="#808080" begin="reset.mouseover" end="reset.mouseout"/></use>
  </g>
</defs>
<script type="application/ecmascript">
var viewWidth = 1115;
var viewHeight = 611;
var sectionId = 'dynsection-1';
</script>
<script type="application/ecmascript" xlink:href="../../svg.min.js"/>
<svg id="graph" class="graph">
<g id="viewport">
<title>engine::core::LayerStack</title>
<!-- Node1 -->
<g id="Node000001" class="node">
<title>Node1</title>
<g id="a_Node000001"><a xlink:title=" ">
<polygon fill="#999999" stroke="#666666" points="1106.5,-295.5 984.75,-295.5 984.75,-276.25 1106.5,-276.25 1106.5,-295.5"/>
<text text-anchor="middle" x="1045.62" y="-282" font-family="Helvetica,sans-Serif" font-size="10.00">engine::core::LayerStack</text>
</a>
</g>
</g>
<!-- Node2 -->
<g id="Node000002" class="node">
<title>Node2</title>
<g id="a_Node000002"><a xlink:href="../../d0/d04/classengine_1_1core_1_1_layer.html" target="_top" xlink:title=" ">
<polygon fill="white" stroke="#666666" points="383.12,-543.5 286.88,-543.5 286.88,-524.25 383.12,-524.25 383.12,-543.5"/>
<text text-anchor="middle" x="335" y="-530" font-family="Helvetica,sans-Serif" font-size="10.00">engine::core::Layer</text>
</a>
</g>
</g>
<!-- Node2&#45;&gt;Node1 -->
<g id="edge1_Node000001_Node000002" class="edge">
<title>Node2&#45;&gt;Node1</title>
<g id="a_edge1_Node000001_Node000002"><a xlink:title=" ">
<path fill="none" stroke="#63b8ff" d="M374.22,-547.32C482.61,-582.78 795.23,-666.04 966.75,-513.88 1034.65,-453.64 1043.39,-331.7 1044.48,-295.94"/>
<polygon fill="#63b8ff" stroke="#63b8ff" points="375.67,-543.79 365.08,-543.95 373.46,-550.43 375.67,-543.79"/>
</a>
</g>
</g>
<!-- Node11 -->
<g id="Node000011" class="node">
<title>Node11</title>
<g id="a_Node000011"><a xlink:title=" ">
<polygon fill="white" stroke="#666666" points="601.25,-520.12 484.75,-520.12 484.75,-489.62 601.25,-489.62 601.25,-520.12"/>
<text text-anchor="start" x="492.75" y="-506.62" font-family="Helvetica,sans-Serif" font-size="10.00">std::shared_ptr&lt; engine</text>
<text text-anchor="middle" x="543" y="-495.38" font-family="Helvetica,sans-Serif" font-size="10.00">::core::Layer &gt;</text>
</a>
</g>
</g>
<!-- Node2&#45;&gt;Node11 -->
<g id="edge11_Node000011_Node000002" class="edge">
<title>Node2&#45;&gt;Node11</title>
<g id="a_edge11_Node000011_Node000002"><a xlink:title=" ">
<path fill="none" stroke="#9a32cd" stroke-dasharray="5,2" d="M394.29,-523.73C396.72,-523.35 399.14,-522.98 401.5,-522.62 428.74,-518.57 459.03,-514.66 484.5,-511.55"/>
<polygon fill="#9a32cd" stroke="#9a32cd" points="393.86,-520.41 384.54,-525.45 394.97,-527.32 393.86,-520.41"/>
</a>
</g>
<text text-anchor="middle" x="422.5" y="-523.62" font-family="Helvetica,sans-Serif" font-size="10.00" fill="grey"> ptr</text>
</g>
<!-- Node3 -->
<g id="Node000003" class="node">
<title>Node3</title>
<g id="a_Node000003"><a xlink:title=" ">
<polygon fill="white" stroke="#666666" points="187.5,-543.5 129.5,-543.5 129.5,-524.25 187.5,-524.25 187.5,-543.5"/>
<text text-anchor="middle" x="158.5" y="-530" font-family="Helvetica,sans-Serif" font-size="10.00">std::string</text>
</a>
</g>
</g>
<!-- Node3&#45;&gt;Node2 -->
<g id="edge2_Node000002_Node000003" class="edge">
<title>Node3&#45;&gt;Node2</title>
<g id="a_edge2_Node000002_Node000003"><a xlink:title=" ">
<path fill="none" stroke="#9a32cd" stroke-dasharray="5,2" d="M198.87,-533.88C224.84,-533.88 259.01,-533.88 286.49,-533.88"/>
<polygon fill="#9a32cd" stroke="#9a32cd" points="198.92,-530.38 188.92,-533.88 198.92,-537.38 198.92,-530.38"/>
</a>
</g>
<text text-anchor="middle" x="237" y="-535.62" font-family="Helvetica,sans-Serif" font-size="10.00" fill="grey"> debug_name_</text>
</g>
<!-- Node4 -->
<g id="Node000004" class="node">
<title>Node4</title>
<g id="a_Node000004"><a xlink:title=" ">
<polygon fill="white" stroke="#666666" points="92.5,-549.12 0,-549.12 0,-518.62 92.5,-518.62 92.5,-549.12"/>
<text text-anchor="start" x="8" y="-535.62" font-family="Helvetica,sans-Serif" font-size="10.00">std::basic_string&lt;</text>
<text text-anchor="middle" x="46.25" y="-524.38" font-family="Helvetica,sans-Serif" font-size="10.00"> Char &gt;</text>
</a>
</g>
</g>
<!-- Node4&#45;&gt;Node3 -->
<g id="edge3_Node000003_Node000004" class="edge">
<title>Node4&#45;&gt;Node3</title>
<g id="a_edge3_Node000003_Node000004"><a xlink:title=" ">
<path fill="none" stroke="#63b8ff" d="M103.53,-533.88C112.42,-533.88 121.28,-533.88 129.16,-533.88"/>
<polygon fill="#63b8ff" stroke="#63b8ff" points="103.73,-530.38 93.73,-533.88 103.73,-537.38 103.73,-530.38"/>
</a>
</g>
</g>
<!-- Node5 -->
<g id="Node000005" class="node">
<title>Node5</title>
<g id="a_Node000005"><a xlink:href="../../dd/dd4/structengine_1_1core_1_1_layer_1_1_handle_event.html" target="_top" xlink:title=" ">
<polygon fill="white" stroke="#666666" points="383.12,-465.12 286.88,-465.12 286.88,-434.62 383.12,-434.62 383.12,-465.12"/>
<text text-anchor="start" x="294.88" y="-451.62" font-family="Helvetica,sans-Serif" font-size="10.00">engine::core::Layer</text>
<text text-anchor="middle" x="335" y="-440.38" font-family="Helvetica,sans-Serif" font-size="10.00">::HandleEvent</text>
</a>
</g>
</g>
<!-- Node5&#45;&gt;Node1 -->
<g id="edge4_Node000001_Node000005" class="edge">
<title>Node5&#45;&gt;Node1</title>
<g id="a_edge4_Node000001_Node000005"><a xlink:title=" ">
<path fill="none" stroke="#63b8ff" d="M394.24,-456.26C496.9,-465.96 716.24,-479.62 896.25,-442.88 929.45,-436.1 941,-435.89 966.75,-413.88 1006.89,-379.57 1032.34,-319.18 1041.15,-295.65"/>
<polygon fill="#63b8ff" stroke="#63b8ff" points="394.78,-452.7 384.49,-455.22 394.1,-459.67 394.78,-452.7"/>
</a>
</g>
</g>
<!-- Node19 -->
<g id="Node000019" class="node">
<title>Node19</title>
<g id="a_Node000019"><a xlink:title=" ">
<polygon fill="white" stroke="#666666" points="614,-432.12 472,-432.12 472,-401.62 614,-401.62 614,-432.12"/>
<text text-anchor="start" x="480" y="-418.62" font-family="Helvetica,sans-Serif" font-size="10.00">std::vector&lt; engine</text>
<text text-anchor="middle" x="543" y="-407.38" font-family="Helvetica,sans-Serif" font-size="10.00">::core::Layer::HandleEvent * &gt;</text>
</a>
</g>
</g>
<!-- Node5&#45;&gt;Node19 -->
<g id="edge23_Node000019_Node000005" class="edge">
<title>Node5&#45;&gt;Node19</title>
<g id="a_edge23_Node000019_Node000005"><a xlink:title=" ">
<path fill="none" stroke="#9a32cd" stroke-dasharray="5,2" d="M394.28,-437.9C396.72,-437.46 399.13,-437.03 401.5,-436.62 424.32,-432.72 449.33,-429.02 471.84,-425.9"/>
<polygon fill="#9a32cd" stroke="#9a32cd" points="393.7,-434.63 384.52,-439.91 394.99,-441.51 393.7,-434.63"/>
</a>
</g>
<text text-anchor="middle" x="422.5" y="-437.62" font-family="Helvetica,sans-Serif" font-size="10.00" fill="grey"> elements</text>
</g>
<!-- Node6 -->
<g id="Node000006" class="node">
<title>Node6</title>
<g id="a_Node000006"><a xlink:href="../../d5/d41/structengine_1_1core_1_1_layer_1_1_handle_update.html" target="_top" xlink:title=" ">
<polygon fill="white" stroke="#666666" points="383.12,-369.12 286.88,-369.12 286.88,-338.62 383.12,-338.62 383.12,-369.12"/>
<text text-anchor="start" x="294.88" y="-355.62" font-family="Helvetica,sans-Serif" font-size="10.00">engine::core::Layer</text>
<text text-anchor="middle" x="335" y="-344.38" font-family="Helvetica,sans-Serif" font-size="10.00">::HandleUpdate</text>
</a>
</g>
</g>
<!-- Node6&#45;&gt;Node1 -->
<g id="edge5_Node000001_Node000006" class="edge">
<title>Node6&#45;&gt;Node1</title>
<g id="a_edge5_Node000001_Node000006"><a xlink:title=" ">
<path fill="none" stroke="#63b8ff" d="M394.21,-359.77C496.82,-368.66 716.09,-380.88 896.25,-344.88 945.18,-335.1 998.66,-309.9 1026.1,-295.8"/>
<polygon fill="#63b8ff" stroke="#63b8ff" points="394.73,-356.22 384.46,-358.82 394.11,-363.19 394.73,-356.22"/>
</a>
</g>
</g>
<!-- Node13 -->
<g id="Node000013" class="node">
<title>Node13</title>
<g id="a_Node000013"><a xlink:title=" ">
<polygon fill="white" stroke="#666666" points="617.38,-334.12 468.62,-334.12 468.62,-303.62 617.38,-303.62 617.38,-334.12"/>
<text text-anchor="start" x="476.62" y="-320.62" font-family="Helvetica,sans-Serif" font-size="10.00">std::vector&lt; engine</text>
<text text-anchor="middle" x="543" y="-309.38" font-family="Helvetica,sans-Serif" font-size="10.00">::core::Layer::HandleUpdate * &gt;</text>
</a>
</g>
</g>
<!-- Node6&#45;&gt;Node13 -->
<g id="edge14_Node000013_Node000006" class="edge">
<title>Node6&#45;&gt;Node13</title>
<g id="a_edge14_Node000013_Node000006"><a xlink:title=" ">
<path fill="none" stroke="#9a32cd" stroke-dasharray="5,2" d="M393.97,-340.09C396.51,-339.58 399.03,-339.09 401.5,-338.62 423.05,-334.61 446.6,-331 468.15,-328"/>
<polygon fill="#9a32cd" stroke="#9a32cd" points="393.54,-336.81 384.48,-342.3 394.98,-343.66 393.54,-336.81"/>
</a>
</g>
<text text-anchor="middle" x="422.5" y="-339.62" font-family="Helvetica,sans-Serif" font-size="10.00" fill="grey"> elements</text>
</g>
<!-- Node7 -->
<g id="Node000007" class="node">
<title>Node7</title>
<g id="a_Node000007"><a xlink:href="../../d1/df2/structengine_1_1core_1_1_layer_1_1_handle_render.html" target="_top" xlink:title=" ">
<polygon fill="white" stroke="#666666" points="383.12,-268.12 286.88,-268.12 286.88,-237.62 383.12,-237.62 383.12,-268.12"/>
<text text-anchor="start" x="294.88" y="-254.62" font-family="Helvetica,sans-Serif" font-size="10.00">engine::core::Layer</text>
<text text-anchor="middle" x="335" y="-243.38" font-family="Helvetica,sans-Serif" font-size="10.00">::HandleRender</text>
</a>
</g>
</g>
<!-- Node7&#45;&gt;Node1 -->
<g id="edge6_Node000001_Node000007" class="edge">
<title>Node7&#45;&gt;Node1</title>
<g id="a_edge6_Node000001_Node000007"><a xlink:title=" ">
<path fill="none" stroke="#63b8ff" d="M394.32,-255.59C526.97,-261.77 850.15,-276.82 984.51,-283.08"/>
<polygon fill="#63b8ff" stroke="#63b8ff" points="394.75,-252.06 384.6,-255.09 394.42,-259.05 394.75,-252.06"/>
</a>
</g>
</g>
<!-- Node15 -->
<g id="Node000015" class="node">
<title>Node15</title>
<g id="a_Node000015"><a xlink:title=" ">
<polygon fill="white" stroke="#666666" points="617,-235.12 469,-235.12 469,-204.62 617,-204.62 617,-235.12"/>
<text text-anchor="start" x="477" y="-221.62" font-family="Helvetica,sans-Serif" font-size="10.00">std::vector&lt; engine</text>
<text text-anchor="middle" x="543" y="-210.38" font-family="Helvetica,sans-Serif" font-size="10.00">::core::Layer::HandleRender * &gt;</text>
</a>
</g>
</g>
<!-- Node7&#45;&gt;Node15 -->
<g id="edge17_Node000015_Node000007" class="edge">
<title>Node7&#45;&gt;Node15</title>
<g id="a_edge17_Node000015_Node000007"><a xlink:title=" ">
<path fill="none" stroke="#9a32cd" stroke-dasharray="5,2" d="M394.29,-241.85C396.73,-241.43 399.14,-241.02 401.5,-240.62 423.27,-236.98 446.98,-233.35 468.63,-230.17"/>
<polygon fill="#9a32cd" stroke="#9a32cd" points="393.78,-238.57 384.54,-243.76 395,-245.46 393.78,-238.57"/>
</a>
</g>
<text text-anchor="middle" x="422.5" y="-241.62" font-family="Helvetica,sans-Serif" font-size="10.00" fill="grey"> elements</text>
</g>
<!-- Node8 -->
<g id="Node000008" class="node">
<title>Node8</title>
<g id="a_Node000008"><a xlink:href="../../da/d57/structengine_1_1core_1_1_layer_1_1_handle_gui_render.html" target="_top" xlink:title=" ">
<polygon fill="white" stroke="#666666" points="383.5,-166.12 286.5,-166.12 286.5,-135.62 383.5,-135.62 383.5,-166.12"/>
<text text-anchor="start" x="294.5" y="-152.62" font-family="Helvetica,sans-Serif" font-size="10.00">engine::core::Layer</text>
<text text-anchor="middle" x="335" y="-141.38" font-family="Helvetica,sans-Serif" font-size="10.00">::HandleGuiRender</text>
</a>
</g>
</g>
<!-- Node8&#45;&gt;Node1 -->
<g id="edge7_Node000001_Node000008" class="edge">
<title>Node8&#45;&gt;Node1</title>
<g id="a_edge7_Node000001_Node000008"><a xlink:title=" ">
<path fill="none" stroke="#63b8ff" d="M394.53,-154C533.27,-161.48 872.37,-180.31 896.25,-186.88 955.67,-203.2 1012.37,-253.97 1034.67,-275.76"/>
<polygon fill="#63b8ff" stroke="#63b8ff" points="394.88,-150.46 384.71,-153.41 394.5,-157.45 394.88,-150.46"/>
</a>
</g>
</g>
<!-- Node17 -->
<g id="Node000017" class="node">
<title>Node17</title>
<g id="a_Node000017"><a xlink:title=" ">
<polygon fill="white" stroke="#666666" points="624.5,-137.12 461.5,-137.12 461.5,-106.62 624.5,-106.62 624.5,-137.12"/>
<text text-anchor="start" x="469.5" y="-123.62" font-family="Helvetica,sans-Serif" font-size="10.00">std::vector&lt; engine</text>
<text text-anchor="middle" x="543" y="-112.38" font-family="Helvetica,sans-Serif" font-size="10.00">::core::Layer::HandleGuiRender * &gt;</text>
</a>
</g>
</g>
<!-- Node8&#45;&gt;Node17 -->
<g id="edge20_Node000017_Node000008" class="edge">
<title>Node8&#45;&gt;Node17</title>
<g id="a_edge20_Node000017_Node000008"><a xlink:title=" ">
<path fill="none" stroke="#9a32cd" stroke-dasharray="5,2" d="M394.66,-142.62C415.41,-139.7 439.14,-136.36 461.4,-133.22"/>
<polygon fill="#9a32cd" stroke="#9a32cd" points="394.19,-139.29 384.78,-144.15 395.17,-146.22 394.19,-139.29"/>
</a>
</g>
<text text-anchor="middle" x="422.5" y="-142.62" font-family="Helvetica,sans-Serif" font-size="10.00" fill="grey"> elements</text>
</g>
<!-- Node9 -->
<g id="Node000009" class="node">
<title>Node9</title>
<g id="a_Node000009"><a xlink:href="../../de/d0d/structengine_1_1core_1_1_layer_1_1_handle_tick.html" target="_top" xlink:title=" ">
<polygon fill="white" stroke="#666666" points="383.12,-68.12 286.88,-68.12 286.88,-37.62 383.12,-37.62 383.12,-68.12"/>
<text text-anchor="start" x="294.88" y="-54.62" font-family="Helvetica,sans-Serif" font-size="10.00">engine::core::Layer</text>
<text text-anchor="middle" x="335" y="-43.38" font-family="Helvetica,sans-Serif" font-size="10.00">::HandleTick</text>
</a>
</g>
</g>
<!-- Node9&#45;&gt;Node1 -->
<g id="edge8_Node000001_Node000009" class="edge">
<title>Node9&#45;&gt;Node1</title>
<g id="a_edge8_Node000001_Node000009"><a xlink:title=" ">
<path fill="none" stroke="#63b8ff" d="M394.2,-55.58C527.72,-61.93 848.27,-78.09 896.25,-88.88 929.14,-96.27 942.28,-93.68 966.75,-116.88 1015.99,-163.54 1036.85,-247.37 1042.76,-275.99"/>
<polygon fill="#63b8ff" stroke="#63b8ff" points="394.55,-52.05 384.4,-55.07 394.22,-59.04 394.55,-52.05"/>
</a>
</g>
</g>
<!-- Node21 -->
<g id="Node000021" class="node">
<title>Node21</title>
<g id="a_Node000021"><a xlink:title=" ">
<polygon fill="white" stroke="#666666" points="611,-40.12 475,-40.12 475,-9.62 611,-9.62 611,-40.12"/>
<text text-anchor="start" x="483" y="-26.62" font-family="Helvetica,sans-Serif" font-size="10.00">std::vector&lt; engine</text>
<text text-anchor="middle" x="543" y="-15.38" font-family="Helvetica,sans-Serif" font-size="10.00">::core::Layer::HandleTick * &gt;</text>
</a>
</g>
</g>
<!-- Node9&#45;&gt;Node21 -->
<g id="edge26_Node000021_Node000009" class="edge">
<title>Node9&#45;&gt;Node21</title>
<g id="a_edge26_Node000021_Node000009"><a xlink:title=" ">
<path fill="none" stroke="#9a32cd" stroke-dasharray="5,2" d="M394.33,-44.95C419.4,-41.54 448.84,-37.54 474.82,-34.01"/>
<polygon fill="#9a32cd" stroke="#9a32cd" points="393.96,-41.6 384.52,-46.42 394.9,-48.54 393.96,-41.6"/>
</a>
</g>
<text text-anchor="middle" x="422.5" y="-45.62" font-family="Helvetica,sans-Serif" font-size="10.00" fill="grey"> elements</text>
</g>
<!-- Node10 -->
<g id="Node000010" class="node">
<title>Node10</title>
<g id="a_Node000010"><a xlink:title=" ">
<polygon fill="white" stroke="#666666" points="868.12,-520.12 730.62,-520.12 730.62,-489.62 868.12,-489.62 868.12,-520.12"/>
<text text-anchor="start" x="738.62" y="-506.62" font-family="Helvetica,sans-Serif" font-size="10.00">std::vector&lt; std::shared</text>
<text text-anchor="middle" x="799.38" y="-495.38" font-family="Helvetica,sans-Serif" font-size="10.00">_ptr&lt; engine::core::Layer &gt; &gt;</text>
</a>
</g>
</g>
<!-- Node10&#45;&gt;Node1 -->
<g id="edge9_Node000001_Node000010" class="edge">
<title>Node10&#45;&gt;Node1</title>
<g id="a_edge9_Node000001_Node000010"><a xlink:title=" ">
<path fill="none" stroke="#9a32cd" stroke-dasharray="5,2" d="M879.49,-506.77C909.58,-503.74 942.43,-495.43 966.75,-475.88 1026.21,-428.07 1040.68,-327.42 1043.83,-295.68"/>
<polygon fill="#9a32cd" stroke="#9a32cd" points="879.23,-503.36 869.55,-507.66 879.8,-510.34 879.23,-503.36"/>
</a>
</g>
<text text-anchor="middle" x="940.5" y="-500.62" font-family="Helvetica,sans-Serif" font-size="10.00" fill="grey"> all_</text>
</g>
<!-- Node11&#45;&gt;Node10 -->
<g id="edge10_Node000010_Node000011" class="edge">
<title>Node11&#45;&gt;Node10</title>
<g id="a_edge10_Node000010_Node000011"><a xlink:title=" ">
<path fill="none" stroke="#9a32cd" stroke-dasharray="5,2" d="M612.31,-504.88C648.95,-504.88 693.95,-504.88 730.51,-504.88"/>
<polygon fill="#9a32cd" stroke="#9a32cd" points="612.72,-501.38 602.72,-504.88 612.72,-508.38 612.72,-501.38"/>
</a>
</g>
<text text-anchor="middle" x="663.5" y="-506.62" font-family="Helvetica,sans-Serif" font-size="10.00" fill="grey"> elements</text>
</g>
<!-- Node12 -->
<g id="Node000012" class="node">
<title>Node12</title>
<g id="a_Node000012"><a xlink:href="../../d2/d80/classengine_1_1core_1_1__layer__stack__detail_1_1_underlying_stack.html" target="_top" xlink:title=" ">
<polygon fill="white" stroke="#666666" points="889.12,-335.75 709.62,-335.75 709.62,-294 889.12,-294 889.12,-335.75"/>
<text text-anchor="start" x="717.62" y="-322.25" font-family="Helvetica,sans-Serif" font-size="10.00">engine::core::_layer</text>
<text text-anchor="start" x="717.62" y="-311" font-family="Helvetica,sans-Serif" font-size="10.00">_stack_detail::UnderlyingStack</text>
<text text-anchor="middle" x="799.38" y="-299.75" font-family="Helvetica,sans-Serif" font-size="10.00">&lt; engine::core::Layer::HandleUpdate &gt;</text>
</a>
</g>
</g>
<!-- Node12&#45;&gt;Node1 -->
<g id="edge12_Node000001_Node000012" class="edge">
<title>Node12&#45;&gt;Node1</title>
<g id="a_edge12_Node000001_Node000012"><a xlink:title=" ">
<path fill="none" stroke="#9a32cd" stroke-dasharray="5,2" d="M900.44,-302.99C929.01,-299.6 959.24,-296.01 984.61,-293"/>
<polygon fill="#9a32cd" stroke="#9a32cd" points="900.11,-299.63 890.59,-304.28 900.93,-306.58 900.11,-299.63"/>
</a>
</g>
<text text-anchor="middle" x="940.5" y="-302.62" font-family="Helvetica,sans-Serif" font-size="10.00" fill="grey"> update_</text>
</g>
<!-- Node13&#45;&gt;Node12 -->
<g id="edge13_Node000012_Node000013" class="edge">
<title>Node13&#45;&gt;Node12</title>
<g id="a_edge13_Node000012_Node000013"><a xlink:title=" ">
<path fill="none" stroke="#9a32cd" stroke-dasharray="5,2" d="M628.5,-317.55C654.4,-317.14 682.98,-316.69 709.18,-316.28"/>
<polygon fill="#9a32cd" stroke="#9a32cd" points="628.52,-314.06 618.58,-317.72 628.63,-321.06 628.52,-314.06"/>
</a>
</g>
<text text-anchor="middle" x="663.5" y="-318.62" font-family="Helvetica,sans-Serif" font-size="10.00" fill="grey"> layers_</text>
</g>
<!-- Node14 -->
<g id="Node000014" class="node">
<title>Node14</title>
<g id="a_Node000014"><a xlink:href="../../d2/d80/classengine_1_1core_1_1__layer__stack__detail_1_1_underlying_stack.html" target="_top" xlink:title=" ">
<polygon fill="white" stroke="#666666" points="888.75,-237.75 710,-237.75 710,-196 888.75,-196 888.75,-237.75"/>
<text text-anchor="start" x="718" y="-224.25" font-family="Helvetica,sans-Serif" font-size="10.00">engine::core::_layer</text>
<text text-anchor="start" x="718" y="-213" font-family="Helvetica,sans-Serif" font-size="10.00">_stack_detail::UnderlyingStack</text>
<text text-anchor="middle" x="799.38" y="-201.75" font-family="Helvetica,sans-Serif" font-size="10.00">&lt; engine::core::Layer::HandleRender &gt;</text>
</a>
</g>
</g>
<!-- Node14&#45;&gt;Node1 -->
<g id="edge15_Node000001_Node000014" class="edge">
<title>Node14&#45;&gt;Node1</title>
<g id="a_edge15_Node000001_Node000014"><a xlink:title=" ">
<path fill="none" stroke="#9a32cd" stroke-dasharray="5,2" d="M899.67,-224.69C922.12,-228.2 945.57,-233.27 966.75,-240.62 990.98,-249.03 1016.12,-265.24 1031.07,-275.8"/>
<polygon fill="#9a32cd" stroke="#9a32cd" points="900.49,-221.13 890.09,-223.14 899.47,-228.05 900.49,-221.13"/>
</a>
</g>
<text text-anchor="middle" x="940.5" y="-241.62" font-family="Helvetica,sans-Serif" font-size="10.00" fill="grey"> render_</text>
</g>
<!-- Node15&#45;&gt;Node14 -->
<g id="edge16_Node000014_Node000015" class="edge">
<title>Node15&#45;&gt;Node14</title>
<g id="a_edge16_Node000014_Node000015"><a xlink:title=" ">
<path fill="none" stroke="#9a32cd" stroke-dasharray="5,2" d="M627.93,-218.89C654.21,-218.58 683.29,-218.23 709.88,-217.92"/>
<polygon fill="#9a32cd" stroke="#9a32cd" points="628.19,-215.39 618.23,-219.01 628.28,-222.39 628.19,-215.39"/>
</a>
</g>
<text text-anchor="middle" x="663.5" y="-219.62" font-family="Helvetica,sans-Serif" font-size="10.00" fill="grey"> layers_</text>
</g>
<!-- Node16 -->
<g id="Node000016" class="node">
<title>Node16</title>
<g id="a_Node000016"><a xlink:href="../../d2/d80/classengine_1_1core_1_1__layer__stack__detail_1_1_underlying_stack.html" target="_top" xlink:title=" ">
<polygon fill="white" stroke="#666666" points="896.25,-139.75 702.5,-139.75 702.5,-98 896.25,-98 896.25,-139.75"/>
<text text-anchor="start" x="710.5" y="-126.25" font-family="Helvetica,sans-Serif" font-size="10.00">engine::core::_layer</text>
<text text-anchor="start" x="710.5" y="-115" font-family="Helvetica,sans-Serif" font-size="10.00">_stack_detail::UnderlyingStack</text>
<text text-anchor="middle" x="799.38" y="-103.75" font-family="Helvetica,sans-Serif" font-size="10.00">&lt; engine::core::Layer::HandleGuiRender &gt;</text>
</a>
</g>
</g>
<!-- Node16&#45;&gt;Node1 -->
<g id="edge18_Node000001_Node000016" class="edge">
<title>Node16&#45;&gt;Node1</title>
<g id="a_edge18_Node000001_Node000016"><a xlink:title=" ">
<path fill="none" stroke="#9a32cd" stroke-dasharray="5,2" d="M907.31,-119.35C928.38,-123.37 949.33,-130.52 966.75,-142.62 1014.87,-176.06 1036.09,-249.09 1042.45,-275.81"/>
<polygon fill="#9a32cd" stroke="#9a32cd" points="908.08,-115.76 897.64,-117.56 906.93,-122.66 908.08,-115.76"/>
</a>
</g>
<text text-anchor="middle" x="940.5" y="-143.62" font-family="Helvetica,sans-Serif" font-size="10.00" fill="grey"> gui_render_</text>
</g>
<!-- Node17&#45;&gt;Node16 -->
<g id="edge19_Node000016_Node000017" class="edge">
<title>Node17&#45;&gt;Node16</title>
<g id="a_edge19_Node000016_Node000017"><a xlink:title=" ">
<path fill="none" stroke="#9a32cd" stroke-dasharray="5,2" d="M635.65,-120.79C657.26,-120.54 680.37,-120.27 702.18,-120.01"/>
<polygon fill="#9a32cd" stroke="#9a32cd" points="635.79,-117.3 625.84,-120.92 635.88,-124.3 635.79,-117.3"/>
</a>
</g>
<text text-anchor="middle" x="663.5" y="-121.62" font-family="Helvetica,sans-Serif" font-size="10.00" fill="grey"> layers_</text>
</g>
<!-- Node18 -->
<g id="Node000018" class="node">
<title>Node18</title>
<g id="a_Node000018"><a xlink:href="../../d2/d80/classengine_1_1core_1_1__layer__stack__detail_1_1_underlying_stack.html" target="_top" xlink:title=" ">
<polygon fill="white" stroke="#666666" points="885.75,-433.75 713,-433.75 713,-392 885.75,-392 885.75,-433.75"/>
<text text-anchor="start" x="721" y="-420.25" font-family="Helvetica,sans-Serif" font-size="10.00">engine::core::_layer</text>
<text text-anchor="start" x="721" y="-409" font-family="Helvetica,sans-Serif" font-size="10.00">_stack_detail::UnderlyingStack</text>
<text text-anchor="middle" x="799.38" y="-397.75" font-family="Helvetica,sans-Serif" font-size="10.00">&lt; engine::core::Layer::HandleEvent &gt;</text>
</a>
</g>
</g>
<!-- Node18&#45;&gt;Node1 -->
<g id="edge21_Node000001_Node000018" class="edge">
<title>Node18&#45;&gt;Node1</title>
<g id="a_edge21_Node000001_Node000018"><a xlink:title=" ">
<path fill="none" stroke="#9a32cd" stroke-dasharray="5,2" d="M896.63,-403.76C920.71,-398.55 945.66,-390.45 966.75,-377.88 1001.61,-357.08 1028.36,-314.97 1039.27,-295.79"/>
<polygon fill="#9a32cd" stroke="#9a32cd" points="896.14,-400.49 887.02,-405.88 897.51,-407.35 896.14,-400.49"/>
</a>
</g>
<text text-anchor="middle" x="940.5" y="-400.62" font-family="Helvetica,sans-Serif" font-size="10.00" fill="grey"> event_</text>
</g>
<!-- Node19&#45;&gt;Node18 -->
<g id="edge22_Node000018_Node000019" class="edge">
<title>Node19&#45;&gt;Node18</title>
<g id="a_edge22_Node000018_Node000019"><a xlink:title=" ">
<path fill="none" stroke="#9a32cd" stroke-dasharray="5,2" d="M625.1,-415.6C652.99,-415.16 684.31,-414.67 712.57,-414.22"/>
<polygon fill="#9a32cd" stroke="#9a32cd" points="625.13,-412.11 615.18,-415.77 625.24,-419.11 625.13,-412.11"/>
</a>
</g>
<text text-anchor="middle" x="663.5" y="-416.62" font-family="Helvetica,sans-Serif" font-size="10.00" fill="grey"> layers_</text>
</g>
<!-- Node20 -->
<g id="Node000020" class="node">
<title>Node20</title>
<g id="a_Node000020"><a xlink:href="../../d2/d80/classengine_1_1core_1_1__layer__stack__detail_1_1_underlying_stack.html" target="_top" xlink:title=" ">
<polygon fill="white" stroke="#666666" points="882.75,-41.75 716,-41.75 716,0 882.75,0 882.75,-41.75"/>
<text text-anchor="start" x="724" y="-28.25" font-family="Helvetica,sans-Serif" font-size="10.00">engine::core::_layer</text>
<text text-anchor="start" x="724" y="-17" font-family="Helvetica,sans-Serif" font-size="10.00">_stack_detail::UnderlyingStack</text>
<text text-anchor="middle" x="799.38" y="-5.75" font-family="Helvetica,sans-Serif" font-size="10.00">&lt; engine::core::Layer::HandleTick &gt;</text>
</a>
</g>
</g>
<!-- Node20&#45;&gt;Node1 -->
<g id="edge24_Node000001_Node000020" class="edge">
<title>Node20&#45;&gt;Node1</title>
<g id="a_edge24_Node000001_Node000020"><a xlink:title=" ">
<path fill="none" stroke="#9a32cd" stroke-dasharray="5,2" d="M893.73,-16.48C919.83,-19.65 946.55,-27.61 966.75,-44.62 1040.29,-106.59 1045.03,-238.53 1044.84,-275.85"/>
<polygon fill="#9a32cd" stroke="#9a32cd" points="894.29,-12.92 884,-15.43 893.61,-19.89 894.29,-12.92"/>
</a>
</g>
<text text-anchor="middle" x="940.5" y="-46.62" font-family="Helvetica,sans-Serif" font-size="10.00" fill="grey"> tick_</text>
</g>
<!-- Node21&#45;&gt;Node20 -->
<g id="edge25_Node000020_Node000021" class="edge">
<title>Node21&#45;&gt;Node20</title>
<g id="a_edge25_Node000020_Node000021"><a xlink:title=" ">
<path fill="none" stroke="#9a32cd" stroke-dasharray="5,2" d="M622.2,-23.65C651.79,-23.18 685.56,-22.65 715.56,-22.18"/>
<polygon fill="#9a32cd" stroke="#9a32cd" points="622.44,-20.16 612.5,-23.81 622.55,-27.16 622.44,-20.16"/>
</a>
</g>
<text text-anchor="middle" x="663.5" y="-25.62" font-family="Helvetica,sans-Serif" font-size="10.00" fill="grey"> layers_</text>
</g>
</g>
</svg>

<g id="navigator" transform="translate(0 0)" fill="#404254">
  <rect fill="#f2f5e9" fill-opacity="0.5" stroke="#606060" stroke-width=".5" x="0" y="0" width="60" height="60"/>
  <use id="zoomplus" xlink:href="#zoomPlus" x="17" y="9" onmousedown="handleZoom(evt,'in')"/>
  <use id="zoomminus" xlink:href="#zoomMin" x="42" y="9" onmousedown="handleZoom(evt,'out')"/>
  <use id="reset" xlink:href="#resetDef" x="30" y="36" onmousedown="handleReset()"/>
   <use id="arrowup" xlink:href="#arrowUp" x="0" y="0" onmousedown="handlePan(0,-1)"/>
  <use id="arrowright" xlink:href="#arrowRight" x="0" y="0" onmousedown="handlePan(1,0)"/>
  <use id="arrowdown" xlink:href="#arrowDown" x="0" y="0" onmousedown="handlePan(0,1)"/>
  <use id="arrowleft" xlink:href="#arrowLeft" x="0" y="0" onmousedown="handlePan(-1,0)"/>
</g>
<svg viewBox="0 0 15 15" width="100%" height="30px" preserveAspectRatio="xMaxYMin meet">
 <g id="arrow_out" transform="scale(0.3 0.3)">
  <a xlink:href="classengine_1_1core_1_1_layer_stack__coll__graph_org.svg" target="_base">
   <rect id="button" ry="5" rx="5" y="6" x="6" height="38" width="38"
        fill="#f2f5e9" fill-opacity="0.5" stroke="#606060" stroke-width="1.0"/>
   <path id="arrow"
     d="M 11.500037,31.436501 C 11.940474,20.09759 22.043105,11.32322 32.158766,21.979434 L 37.068811,17.246167 C 37.068811,17.246167 37.088388,32 37.088388,32 L 22.160133,31.978069 C 22.160133,31.978069 26.997745,27.140456 26.997745,27.140456 C 18.528582,18.264221 13.291696,25.230495 11.500037,31.436501 z"
     style="fill:#404040;"/>
  </a>
 </g>
</svg>

<style type='text/css'>
<![CDATA[
[data-mouse-over-selected='false'] { opacity: 0.7; }
[data-mouse-over-selected='true']  { opacity: 1.0; }
]]>
</style>
<script type="application/ecmascript"><![CDATA[
document.addEventListener('DOMContentLoaded', (event) => {
  highlightEdges();
  highlightAdjacentNodes();
});
]]></script>
</svg>
