<?xml version="1.0" encoding="UTF-8" standalone="no"?>
<!DOCTYPE svg PUBLIC "-//W3C//DTD SVG 1.1//EN"
 "http://www.w3.org/Graphics/SVG/1.1/DTD/svg11.dtd">
<!-- Generated by graphviz version 9.0.0 (20230911.1827)
 -->
<!-- Title: engine::direct3d::d3d_resource_wrapper&lt; T &gt; Pages: 1 -->
<!--zoomable 969 -->

<svg id="main" version="1.1" xmlns="http://www.w3.org/2000/svg" xmlns:xlink="http://www.w3.org/1999/xlink" xml:space="preserve" onload="init(evt)">
<style type="text/css"><![CDATA[
.node, .edge {opacity: 0.7;}
.node.selected, .edge.selected {opacity: 1;}
.edge:hover path { stroke: red; }
.edge:hover polygon { stroke: red; fill: red; }
]]></style>

<defs>
  <circle id="rim" cx="0" cy="0" r="7"/>
  <circle id="rim2" cx="0" cy="0" r="3.5"/>
  <g id="zoomPlus">
    <use xlink:href="#rim" fill="#404040"><set attributeName="fill" to="#808080" begin="zoomplus.mouseover" end="zoomplus.mouseout"/></use>
    <path d="M-4,0h8M0,-4v8" fill="none" stroke="white" stroke-width="1.5" pointer-events="none"/>
  </g>
  <g id="zoomMin">
    <use xlink:href="#rim" fill="#404040"><set attributeName="fill" to="#808080" begin="zoomminus.mouseover" end="zoomminus.mouseout"/></use>
    <path d="M-4,0h8" fill="none" stroke="white" stroke-width="1.5" pointer-events="none"/>
  </g>
  <g id="arrowUp" transform="translate(30 24)">
    <use xlink:href="#rim"/>
    <path pointer-events="none" fill="none" stroke="white" stroke-width="1.5" d="M0,-3.0v7 M-2.5,-0.5L0,-3.0L2.5,-0.5"/>
  </g>
  <g id="arrowRight" transform="rotate(90) translate(36 -43)">
    <use xlink:href="#rim"/>
    <path pointer-events="none" fill="none" stroke="white" stroke-width="1.5" d="M0,-3.0v7 M-2.5,-0.5L0,-3.0L2.5,-0.5"/>
  </g>
  <g id="arrowDown" transform="rotate(180) translate(-30 -48)">
    <use xlink:href="#rim"/>
    <path pointer-events="none" fill="none" stroke="white" stroke-width="1.5" d="M0,-3.0v7 M-2.5,-0.5L0,-3.0L2.5,-0.5"/>
  </g>
  <g id="arrowLeft" transform="rotate(270) translate(-36 17)">
    <use xlink:href="#rim"/>
    <path pointer-events="none" fill="none" stroke="white" stroke-width="1.5" d="M0,-3.0v7 M-2.5,-0.5L0,-3.0L2.5,-0.5"/>
  </g>
  <g id="resetDef">
    <use xlink:href="#rim2" fill="#404040"><set attributeName="fill" to="#808080" begin="reset.mouseover" end="reset.mouseout"/></use>
  </g>
</defs>
<script type="application/ecmascript">
var viewWidth = 586;
var viewHeight = 969;
var sectionId = 'dynsection-0';
</script>
<script type="application/ecmascript" xlink:href="../../svg.min.js"/>
<svg id="graph" class="graph">
<g id="viewport">
<title>engine::direct3d::d3d_resource_wrapper&lt; T &gt;</title>
<!-- Node1 -->
<g id="Node000001" class="node">
<title>Node1</title>
<g id="a_Node000001"><a xlink:title="The d3d resource wrapper class.">
<polygon fill="#999999" stroke="#666666" points="121,-700.12 0,-700.12 0,-669.62 121,-669.62 121,-700.12"/>
<text text-anchor="start" x="8" y="-686.62" font-family="Helvetica,sans-Serif" font-size="10.00">engine::direct3d::d3d</text>
<text text-anchor="middle" x="60.5" y="-675.38" font-family="Helvetica,sans-Serif" font-size="10.00">_resource_wrapper&lt; T &gt;</text>
</a>
</g>
</g>
<!-- Node2 -->
<g id="Node000002" class="node">
<title>Node2</title>
<g id="a_Node000002"><a xlink:href="../../de/d9d/classengine_1_1direct3d_1_1readonly__d3d__resource__wrapper.html" target="_top" xlink:title=" ">
<polygon fill="white" stroke="#666666" points="356.38,-961.12 161.12,-961.12 161.12,-930.62 356.38,-930.62 356.38,-961.12"/>
<text text-anchor="start" x="169.12" y="-947.62" font-family="Helvetica,sans-Serif" font-size="10.00">engine::direct3d::readonly</text>
<text text-anchor="middle" x="258.75" y="-936.38" font-family="Helvetica,sans-Serif" font-size="10.00">_d3d_resource_wrapper&lt; IDXGIFactory &gt;</text>
</a>
</g>
</g>
<!-- Node1&#45;&gt;Node2 -->
<g id="edge1_Node000001_Node000002" class="edge">
<title>Node1&#45;&gt;Node2</title>
<g id="a_edge1_Node000001_Node000002"><a xlink:title=" ">
<path fill="none" stroke="darkgreen" d="M64.48,-711.87C71.4,-761.09 93.14,-865.46 157,-920.88 161.22,-924.54 165.89,-927.68 170.85,-930.37"/>
<polygon fill="darkgreen" stroke="darkgreen" points="67.97,-711.57 63.22,-702.11 61.03,-712.47 67.97,-711.57"/>
</a>
</g>
</g>
<!-- Node3 -->
<g id="Node000003" class="node">
<title>Node3</title>
<g id="a_Node000003"><a xlink:href="../../de/d9d/classengine_1_1direct3d_1_1readonly__d3d__resource__wrapper.html" target="_top" xlink:title=" ">
<polygon fill="white" stroke="#666666" points="359,-912.12 158.5,-912.12 158.5,-881.62 359,-881.62 359,-912.12"/>
<text text-anchor="start" x="166.5" y="-898.62" font-family="Helvetica,sans-Serif" font-size="10.00">engine::direct3d::readonly</text>
<text text-anchor="middle" x="258.75" y="-887.38" font-family="Helvetica,sans-Serif" font-size="10.00">_d3d_resource_wrapper&lt; IDXGIFactory5 &gt;</text>
</a>
</g>
</g>
<!-- Node1&#45;&gt;Node3 -->
<g id="edge2_Node000001_Node000003" class="edge">
<title>Node1&#45;&gt;Node3</title>
<g id="a_edge2_Node000001_Node000003"><a xlink:title=" ">
<path fill="none" stroke="darkgreen" d="M67.55,-711.44C78.29,-752.33 104.64,-830.31 157,-871.88 161.52,-875.46 166.48,-878.54 171.7,-881.18"/>
<polygon fill="darkgreen" stroke="darkgreen" points="71,-710.81 65.19,-701.95 64.21,-712.5 71,-710.81"/>
</a>
</g>
</g>
<!-- Node4 -->
<g id="Node000004" class="node">
<title>Node4</title>
<g id="a_Node000004"><a xlink:href="../../de/d9d/classengine_1_1direct3d_1_1readonly__d3d__resource__wrapper.html" target="_top" xlink:title=" ">
<polygon fill="white" stroke="#666666" points="357.88,-863.12 159.62,-863.12 159.62,-832.62 357.88,-832.62 357.88,-863.12"/>
<text text-anchor="start" x="167.62" y="-849.62" font-family="Helvetica,sans-Serif" font-size="10.00">engine::direct3d::readonly</text>
<text text-anchor="middle" x="258.75" y="-838.38" font-family="Helvetica,sans-Serif" font-size="10.00">_d3d_resource_wrapper&lt; ID3D11Device &gt;</text>
</a>
</g>
</g>
<!-- Node1&#45;&gt;Node4 -->
<g id="edge3_Node000001_Node000004" class="edge">
<title>Node1&#45;&gt;Node4</title>
<g id="a_edge3_Node000001_Node000004"><a xlink:title=" ">
<path fill="none" stroke="darkgreen" d="M72.34,-710.64C86.91,-742.05 115.82,-794.44 157,-822.88 162.19,-826.46 167.84,-829.53 173.74,-832.16"/>
<polygon fill="darkgreen" stroke="darkgreen" points="75.69,-709.55 68.41,-701.86 69.3,-712.42 75.69,-709.55"/>
</a>
</g>
</g>
<!-- Node5 -->
<g id="Node000005" class="node">
<title>Node5</title>
<g id="a_Node000005"><a xlink:href="../../de/d9d/classengine_1_1direct3d_1_1readonly__d3d__resource__wrapper.html" target="_top" xlink:title=" ">
<polygon fill="white" stroke="#666666" points="360.5,-814.12 157,-814.12 157,-783.62 360.5,-783.62 360.5,-814.12"/>
<text text-anchor="start" x="165" y="-800.62" font-family="Helvetica,sans-Serif" font-size="10.00">engine::direct3d::readonly</text>
<text text-anchor="middle" x="258.75" y="-789.38" font-family="Helvetica,sans-Serif" font-size="10.00">_d3d_resource_wrapper&lt; ID3D11Device5 &gt;</text>
</a>
</g>
</g>
<!-- Node1&#45;&gt;Node5 -->
<g id="edge4_Node000001_Node000005" class="edge">
<title>Node1&#45;&gt;Node5</title>
<g id="a_edge4_Node000001_Node000005"><a xlink:title=" ">
<path fill="none" stroke="darkgreen" d="M80.97,-709.32C98.66,-729.88 126.57,-758.46 157,-774.88 162.85,-778.03 169.12,-780.78 175.56,-783.17"/>
<polygon fill="darkgreen" stroke="darkgreen" points="83.67,-707.09 74.57,-701.68 78.31,-711.59 83.67,-707.09"/>
</a>
</g>
</g>
<!-- Node6 -->
<g id="Node000006" class="node">
<title>Node6</title>
<g id="a_Node000006"><a xlink:href="../../de/d9d/classengine_1_1direct3d_1_1readonly__d3d__resource__wrapper.html" target="_top" xlink:title=" ">
<polygon fill="white" stroke="#666666" points="353.75,-765.75 163.75,-765.75 163.75,-724 353.75,-724 353.75,-765.75"/>
<text text-anchor="start" x="171.75" y="-752.25" font-family="Helvetica,sans-Serif" font-size="10.00">engine::direct3d::readonly</text>
<text text-anchor="start" x="171.75" y="-741" font-family="Helvetica,sans-Serif" font-size="10.00">_d3d_resource_wrapper&lt; ID3D11Device</text>
<text text-anchor="middle" x="258.75" y="-729.75" font-family="Helvetica,sans-Serif" font-size="10.00">Context &gt;</text>
</a>
</g>
</g>
<!-- Node1&#45;&gt;Node6 -->
<g id="edge5_Node000001_Node000006" class="edge">
<title>Node1&#45;&gt;Node6</title>
<g id="a_edge5_Node000001_Node000006"><a xlink:title=" ">
<path fill="none" stroke="darkgreen" d="M121.98,-704.02C133.59,-707.66 145.67,-711.41 157,-714.88 166.25,-717.7 175.99,-720.65 185.62,-723.54"/>
<polygon fill="darkgreen" stroke="darkgreen" points="123.06,-700.69 112.47,-701.04 120.96,-707.37 123.06,-700.69"/>
</a>
</g>
</g>
<!-- Node7 -->
<g id="Node000007" class="node">
<title>Node7</title>
<g id="a_Node000007"><a xlink:href="../../de/d9d/classengine_1_1direct3d_1_1readonly__d3d__resource__wrapper.html" target="_top" xlink:title=" ">
<polygon fill="white" stroke="#666666" points="353.75,-705.75 163.75,-705.75 163.75,-664 353.75,-664 353.75,-705.75"/>
<text text-anchor="start" x="171.75" y="-692.25" font-family="Helvetica,sans-Serif" font-size="10.00">engine::direct3d::readonly</text>
<text text-anchor="start" x="171.75" y="-681" font-family="Helvetica,sans-Serif" font-size="10.00">_d3d_resource_wrapper&lt; ID3D11Device</text>
<text text-anchor="middle" x="258.75" y="-669.75" font-family="Helvetica,sans-Serif" font-size="10.00">Context4 &gt;</text>
</a>
</g>
</g>
<!-- Node1&#45;&gt;Node7 -->
<g id="edge6_Node000001_Node000007" class="edge">
<title>Node1&#45;&gt;Node7</title>
<g id="a_edge6_Node000001_Node000007"><a xlink:title=" ">
<path fill="none" stroke="darkgreen" d="M132.91,-684.88C142.85,-684.88 153.18,-684.88 163.46,-684.88"/>
<polygon fill="darkgreen" stroke="darkgreen" points="132.96,-681.38 122.96,-684.88 132.96,-688.38 132.96,-681.38"/>
</a>
</g>
</g>
<!-- Node8 -->
<g id="Node000008" class="node">
<title>Node8</title>
<g id="a_Node000008"><a xlink:href="../../de/d9d/classengine_1_1direct3d_1_1readonly__d3d__resource__wrapper.html" target="_top" xlink:title=" ">
<polygon fill="white" stroke="#666666" points="360.5,-645.75 157,-645.75 157,-604 360.5,-604 360.5,-645.75"/>
<text text-anchor="start" x="165" y="-632.25" font-family="Helvetica,sans-Serif" font-size="10.00">engine::direct3d::readonly</text>
<text text-anchor="start" x="165" y="-621" font-family="Helvetica,sans-Serif" font-size="10.00">_d3d_resource_wrapper&lt; ID3D11Rasterizer</text>
<text text-anchor="middle" x="258.75" y="-609.75" font-family="Helvetica,sans-Serif" font-size="10.00">State &gt;</text>
</a>
</g>
</g>
<!-- Node1&#45;&gt;Node8 -->
<g id="edge7_Node000001_Node000008" class="edge">
<title>Node1&#45;&gt;Node8</title>
<g id="a_edge7_Node000001_Node000008"><a xlink:title=" ">
<path fill="none" stroke="darkgreen" d="M121.98,-665.73C133.59,-662.09 145.67,-658.34 157,-654.88 166.25,-652.05 175.99,-649.1 185.62,-646.21"/>
<polygon fill="darkgreen" stroke="darkgreen" points="120.96,-662.38 112.47,-668.71 123.06,-669.06 120.96,-662.38"/>
</a>
</g>
</g>
<!-- Node9 -->
<g id="Node000009" class="node">
<title>Node9</title>
<g id="a_Node000009"><a xlink:href="../../de/d9d/classengine_1_1direct3d_1_1readonly__d3d__resource__wrapper.html" target="_top" xlink:title=" ">
<polygon fill="white" stroke="#666666" points="351.5,-585.75 166,-585.75 166,-544 351.5,-544 351.5,-585.75"/>
<text text-anchor="start" x="174" y="-572.25" font-family="Helvetica,sans-Serif" font-size="10.00">engine::direct3d::readonly</text>
<text text-anchor="start" x="174" y="-561" font-family="Helvetica,sans-Serif" font-size="10.00">_d3d_resource_wrapper&lt; ID3D11Depth</text>
<text text-anchor="middle" x="258.75" y="-549.75" font-family="Helvetica,sans-Serif" font-size="10.00">StencilState &gt;</text>
</a>
</g>
</g>
<!-- Node1&#45;&gt;Node9 -->
<g id="edge8_Node000001_Node000009" class="edge">
<title>Node1&#45;&gt;Node9</title>
<g id="a_edge8_Node000001_Node000009"><a xlink:title=" ">
<path fill="none" stroke="darkgreen" d="M81.51,-660.49C99.36,-640.23 127.21,-612.03 157,-594.88 162.54,-591.69 168.44,-588.81 174.51,-586.22"/>
<polygon fill="darkgreen" stroke="darkgreen" points="78.9,-658.17 75.03,-668.03 84.21,-662.73 78.9,-658.17"/>
</a>
</g>
</g>
<!-- Node10 -->
<g id="Node000010" class="node">
<title>Node10</title>
<g id="a_Node000010"><a xlink:href="../../de/d9d/classengine_1_1direct3d_1_1readonly__d3d__resource__wrapper.html" target="_top" xlink:title=" ">
<polygon fill="white" stroke="#666666" points="356.75,-525.75 160.75,-525.75 160.75,-484 356.75,-484 356.75,-525.75"/>
<text text-anchor="start" x="168.75" y="-512.25" font-family="Helvetica,sans-Serif" font-size="10.00">engine::direct3d::readonly</text>
<text text-anchor="start" x="168.75" y="-501" font-family="Helvetica,sans-Serif" font-size="10.00">_d3d_resource_wrapper&lt; ID3D11Sampler</text>
<text text-anchor="middle" x="258.75" y="-489.75" font-family="Helvetica,sans-Serif" font-size="10.00">State &gt;</text>
</a>
</g>
</g>
<!-- Node1&#45;&gt;Node10 -->
<g id="edge9_Node000001_Node000010" class="edge">
<title>Node1&#45;&gt;Node10</title>
<g id="a_edge9_Node000001_Node000010"><a xlink:title=" ">
<path fill="none" stroke="darkgreen" d="M71.14,-659.22C85.02,-625.7 113.83,-567.46 157,-534.88 161.37,-531.58 166.1,-528.64 171.04,-526.02"/>
<polygon fill="darkgreen" stroke="darkgreen" points="68.02,-657.57 67.56,-668.16 74.52,-660.17 68.02,-657.57"/>
</a>
</g>
</g>
<!-- Node11 -->
<g id="Node000011" class="node">
<title>Node11</title>
<g id="a_Node000011"><a xlink:href="../../de/d9d/classengine_1_1direct3d_1_1readonly__d3d__resource__wrapper.html" target="_top" xlink:title=" ">
<polygon fill="white" stroke="#666666" points="351.12,-465.75 166.38,-465.75 166.38,-424 351.12,-424 351.12,-465.75"/>
<text text-anchor="start" x="174.38" y="-452.25" font-family="Helvetica,sans-Serif" font-size="10.00">engine::direct3d::readonly</text>
<text text-anchor="start" x="174.38" y="-441" font-family="Helvetica,sans-Serif" font-size="10.00">_d3d_resource_wrapper&lt; ID3D11Blend</text>
<text text-anchor="middle" x="258.75" y="-429.75" font-family="Helvetica,sans-Serif" font-size="10.00">State &gt;</text>
</a>
</g>
</g>
<!-- Node1&#45;&gt;Node11 -->
<g id="edge10_Node000001_Node000011" class="edge">
<title>Node1&#45;&gt;Node11</title>
<g id="a_edge10_Node000001_Node000011"><a xlink:title=" ">
<path fill="none" stroke="darkgreen" d="M66.22,-658.29C75.52,-613.76 100.43,-524.16 157,-474.88 160.72,-471.64 164.77,-468.75 169.04,-466.17"/>
<polygon fill="darkgreen" stroke="darkgreen" points="62.83,-657.36 64.33,-667.85 69.7,-658.71 62.83,-657.36"/>
</a>
</g>
</g>
<!-- Node12 -->
<g id="Node000012" class="node">
<title>Node12</title>
<g id="a_Node000012"><a xlink:href="../../de/d9d/classengine_1_1direct3d_1_1readonly__d3d__resource__wrapper.html" target="_top" xlink:title="The readonly d3d resource wrapper class.">
<polygon fill="white" stroke="#666666" points="329.75,-406.12 187.75,-406.12 187.75,-375.62 329.75,-375.62 329.75,-406.12"/>
<text text-anchor="start" x="195.75" y="-392.62" font-family="Helvetica,sans-Serif" font-size="10.00">engine::direct3d::readonly</text>
<text text-anchor="middle" x="258.75" y="-381.38" font-family="Helvetica,sans-Serif" font-size="10.00">_d3d_resource_wrapper&lt; T &gt;</text>
</a>
</g>
</g>
<!-- Node1&#45;&gt;Node12 -->
<g id="edge11_Node000001_Node000012" class="edge">
<title>Node1&#45;&gt;Node12</title>
<g id="a_edge11_Node000001_Node000012"><a xlink:title=" ">
<path fill="none" stroke="darkgreen" d="M62.85,-657.86C67.1,-603.37 84.62,-479.95 157,-414.88 165.62,-407.12 176.3,-401.75 187.44,-398.05"/>
<polygon fill="darkgreen" stroke="darkgreen" points="59.37,-657.56 62.19,-667.77 66.35,-658.03 59.37,-657.56"/>
</a>
</g>
</g>
<!-- Node13 -->
<g id="Node000013" class="node">
<title>Node13</title>
<g id="a_Node000013"><a xlink:href="../../df/da2/classengine_1_1direct3d_1_1__api__detail_1_1api__readonly__wrapper.html" target="_top" xlink:title=" ">
<polygon fill="white" stroke="#666666" points="552.75,-744.75 421.25,-744.75 421.25,-703 552.75,-703 552.75,-744.75"/>
<text text-anchor="start" x="429.25" y="-731.25" font-family="Helvetica,sans-Serif" font-size="10.00">engine::direct3d::</text>
<text text-anchor="start" x="429.25" y="-720" font-family="Helvetica,sans-Serif" font-size="10.00">_api_detail::api_readonly</text>
<text text-anchor="middle" x="487" y="-708.75" font-family="Helvetica,sans-Serif" font-size="10.00">_wrapper&lt; IDXGIFactory &gt;</text>
</a>
</g>
</g>
<!-- Node12&#45;&gt;Node13 -->
<g id="edge12_Node000012_Node000013" class="edge">
<title>Node12&#45;&gt;Node13</title>
<g id="a_edge12_Node000012_Node000013"><a xlink:title=" ">
<path fill="none" stroke="#63b8ff" d="M340.71,-400.4C348.15,-404 354.96,-408.72 360.5,-414.88 444.12,-507.82 317.12,-597.28 396.5,-693.88 402.95,-701.73 411.53,-707.53 420.82,-711.83"/>
<polygon fill="#63b8ff" stroke="#63b8ff" points="342.22,-397.24 331.64,-396.73 339.59,-403.72 342.22,-397.24"/>
</a>
</g>
</g>
<!-- Node14 -->
<g id="Node000014" class="node">
<title>Node14</title>
<g id="a_Node000014"><a xlink:href="../../df/da2/classengine_1_1direct3d_1_1__api__detail_1_1api__readonly__wrapper.html" target="_top" xlink:title=" ">
<polygon fill="white" stroke="#666666" points="555.38,-684.75 418.62,-684.75 418.62,-643 555.38,-643 555.38,-684.75"/>
<text text-anchor="start" x="426.62" y="-671.25" font-family="Helvetica,sans-Serif" font-size="10.00">engine::direct3d::</text>
<text text-anchor="start" x="426.62" y="-660" font-family="Helvetica,sans-Serif" font-size="10.00">_api_detail::api_readonly</text>
<text text-anchor="middle" x="487" y="-648.75" font-family="Helvetica,sans-Serif" font-size="10.00">_wrapper&lt; IDXGIFactory5 &gt;</text>
</a>
</g>
</g>
<!-- Node12&#45;&gt;Node14 -->
<g id="edge13_Node000012_Node000014" class="edge">
<title>Node12&#45;&gt;Node14</title>
<g id="a_edge13_Node000012_Node000014"><a xlink:title=" ">
<path fill="none" stroke="#63b8ff" d="M340.67,-400.68C348.08,-404.23 354.9,-408.86 360.5,-414.88 427.73,-487.05 332.57,-558.76 396.5,-633.88 402.45,-640.86 410.08,-646.23 418.37,-650.35"/>
<polygon fill="#63b8ff" stroke="#63b8ff" points="342.23,-397.53 331.64,-397.04 339.61,-404.02 342.23,-397.53"/>
</a>
</g>
</g>
<!-- Node15 -->
<g id="Node000015" class="node">
<title>Node15</title>
<g id="a_Node000015"><a xlink:href="../../df/da2/classengine_1_1direct3d_1_1__api__detail_1_1api__readonly__wrapper.html" target="_top" xlink:title=" ">
<polygon fill="white" stroke="#666666" points="554.25,-624.75 419.75,-624.75 419.75,-583 554.25,-583 554.25,-624.75"/>
<text text-anchor="start" x="427.75" y="-611.25" font-family="Helvetica,sans-Serif" font-size="10.00">engine::direct3d::</text>
<text text-anchor="start" x="427.75" y="-600" font-family="Helvetica,sans-Serif" font-size="10.00">_api_detail::api_readonly</text>
<text text-anchor="middle" x="487" y="-588.75" font-family="Helvetica,sans-Serif" font-size="10.00">_wrapper&lt; ID3D11Device &gt;</text>
</a>
</g>
</g>
<!-- Node12&#45;&gt;Node15 -->
<g id="edge14_Node000012_Node000015" class="edge">
<title>Node12&#45;&gt;Node15</title>
<g id="a_edge14_Node000012_Node000015"><a xlink:title=" ">
<path fill="none" stroke="#63b8ff" d="M340.73,-401.22C348.05,-404.68 354.83,-409.14 360.5,-414.88 411.45,-466.39 347.91,-520.13 396.5,-573.88 402.87,-580.93 410.95,-586.32 419.64,-590.45"/>
<polygon fill="#63b8ff" stroke="#63b8ff" points="342.06,-397.98 331.48,-397.53 339.47,-404.48 342.06,-397.98"/>
</a>
</g>
</g>
<!-- Node16 -->
<g id="Node000016" class="node">
<title>Node16</title>
<g id="a_Node000016"><a xlink:href="../../df/da2/classengine_1_1direct3d_1_1__api__detail_1_1api__readonly__wrapper.html" target="_top" xlink:title=" ">
<polygon fill="white" stroke="#666666" points="556.88,-564.75 417.12,-564.75 417.12,-523 556.88,-523 556.88,-564.75"/>
<text text-anchor="start" x="425.12" y="-551.25" font-family="Helvetica,sans-Serif" font-size="10.00">engine::direct3d::</text>
<text text-anchor="start" x="425.12" y="-540" font-family="Helvetica,sans-Serif" font-size="10.00">_api_detail::api_readonly</text>
<text text-anchor="middle" x="487" y="-528.75" font-family="Helvetica,sans-Serif" font-size="10.00">_wrapper&lt; ID3D11Device5 &gt;</text>
</a>
</g>
</g>
<!-- Node12&#45;&gt;Node16 -->
<g id="edge15_Node000012_Node000016" class="edge">
<title>Node12&#45;&gt;Node16</title>
<g id="a_edge15_Node000012_Node000016"><a xlink:title=" ">
<path fill="none" stroke="#63b8ff" d="M340.27,-402.09C347.63,-405.38 354.55,-409.57 360.5,-414.88 395.45,-446.03 362.98,-481.19 396.5,-513.88 402.37,-519.6 409.36,-524.23 416.81,-527.97"/>
<polygon fill="#63b8ff" stroke="#63b8ff" points="342,-399 331.41,-398.66 339.48,-405.53 342,-399"/>
</a>
</g>
</g>
<!-- Node17 -->
<g id="Node000017" class="node">
<title>Node17</title>
<g id="a_Node000017"><a xlink:href="../../df/da2/classengine_1_1direct3d_1_1__api__detail_1_1api__readonly__wrapper.html" target="_top" xlink:title=" ">
<polygon fill="white" stroke="#666666" points="570.75,-504.75 403.25,-504.75 403.25,-463 570.75,-463 570.75,-504.75"/>
<text text-anchor="start" x="411.25" y="-491.25" font-family="Helvetica,sans-Serif" font-size="10.00">engine::direct3d::</text>
<text text-anchor="start" x="411.25" y="-480" font-family="Helvetica,sans-Serif" font-size="10.00">_api_detail::api_readonly</text>
<text text-anchor="middle" x="487" y="-468.75" font-family="Helvetica,sans-Serif" font-size="10.00">_wrapper&lt; ID3D11DeviceContext &gt;</text>
</a>
</g>
</g>
<!-- Node12&#45;&gt;Node17 -->
<g id="edge16_Node000012_Node000017" class="edge">
<title>Node12&#45;&gt;Node17</title>
<g id="a_edge16_Node000012_Node000017"><a xlink:title=" ">
<path fill="none" stroke="#63b8ff" d="M340.96,-405.66C347.78,-408.25 354.39,-411.3 360.5,-414.88 380.86,-426.79 376.7,-441.06 396.5,-453.88 401.45,-457.08 406.78,-459.98 412.29,-462.59"/>
<polygon fill="#63b8ff" stroke="#63b8ff" points="342.14,-402.37 331.55,-402.44 339.88,-408.99 342.14,-402.37"/>
</a>
</g>
</g>
<!-- Node18 -->
<g id="Node000018" class="node">
<title>Node18</title>
<g id="a_Node000018"><a xlink:href="../../df/da2/classengine_1_1direct3d_1_1__api__detail_1_1api__readonly__wrapper.html" target="_top" xlink:title=" ">
<polygon fill="white" stroke="#666666" points="573.38,-444.75 400.62,-444.75 400.62,-403 573.38,-403 573.38,-444.75"/>
<text text-anchor="start" x="408.62" y="-431.25" font-family="Helvetica,sans-Serif" font-size="10.00">engine::direct3d::</text>
<text text-anchor="start" x="408.62" y="-420" font-family="Helvetica,sans-Serif" font-size="10.00">_api_detail::api_readonly</text>
<text text-anchor="middle" x="487" y="-408.75" font-family="Helvetica,sans-Serif" font-size="10.00">_wrapper&lt; ID3D11DeviceContext4 &gt;</text>
</a>
</g>
</g>
<!-- Node12&#45;&gt;Node18 -->
<g id="edge17_Node000012_Node000018" class="edge">
<title>Node12&#45;&gt;Node18</title>
<g id="a_edge17_Node000012_Node000018"><a xlink:title=" ">
<path fill="none" stroke="#63b8ff" d="M341.47,-402.79C360.55,-405.58 380.92,-408.55 400.17,-411.36"/>
<polygon fill="#63b8ff" stroke="#63b8ff" points="341.99,-399.33 331.59,-401.35 340.98,-406.26 341.99,-399.33"/>
</a>
</g>
</g>
<!-- Node19 -->
<g id="Node000019" class="node">
<title>Node19</title>
<g id="a_Node000019"><a xlink:href="../../df/d6a/classengine_1_1direct3d_1_1__state__detail_1_1state__readonly__wrapper.html" target="_top" xlink:title=" ">
<polygon fill="white" stroke="#666666" points="577.5,-385.38 396.5,-385.38 396.5,-332.38 577.5,-332.38 577.5,-385.38"/>
<text text-anchor="start" x="404.5" y="-371.88" font-family="Helvetica,sans-Serif" font-size="10.00">engine::direct3d::</text>
<text text-anchor="start" x="404.5" y="-360.62" font-family="Helvetica,sans-Serif" font-size="10.00">_state_detail::state</text>
<text text-anchor="start" x="404.5" y="-349.38" font-family="Helvetica,sans-Serif" font-size="10.00">_readonly_wrapper&lt; ID3D11Rasterizer</text>
<text text-anchor="middle" x="487" y="-338.12" font-family="Helvetica,sans-Serif" font-size="10.00">State &gt;</text>
</a>
</g>
</g>
<!-- Node12&#45;&gt;Node19 -->
<g id="edge18_Node000012_Node000019" class="edge">
<title>Node12&#45;&gt;Node19</title>
<g id="a_edge18_Node000012_Node000019"><a xlink:title=" ">
<path fill="none" stroke="#63b8ff" d="M341.3,-379.34C359.09,-376.82 378.01,-374.15 396.1,-371.59"/>
<polygon fill="#63b8ff" stroke="#63b8ff" points="341.01,-375.85 331.6,-380.71 341.99,-382.78 341.01,-375.85"/>
</a>
</g>
</g>
<!-- Node20 -->
<g id="Node000020" class="node">
<title>Node20</title>
<g id="a_Node000020"><a xlink:href="../../df/d6a/classengine_1_1direct3d_1_1__state__detail_1_1state__readonly__wrapper.html" target="_top" xlink:title=" ">
<polygon fill="white" stroke="#666666" points="568.5,-314.38 405.5,-314.38 405.5,-261.38 568.5,-261.38 568.5,-314.38"/>
<text text-anchor="start" x="413.5" y="-300.88" font-family="Helvetica,sans-Serif" font-size="10.00">engine::direct3d::</text>
<text text-anchor="start" x="413.5" y="-289.62" font-family="Helvetica,sans-Serif" font-size="10.00">_state_detail::state</text>
<text text-anchor="start" x="413.5" y="-278.38" font-family="Helvetica,sans-Serif" font-size="10.00">_readonly_wrapper&lt; ID3D11Depth</text>
<text text-anchor="middle" x="487" y="-267.12" font-family="Helvetica,sans-Serif" font-size="10.00">StencilState &gt;</text>
</a>
</g>
</g>
<!-- Node12&#45;&gt;Node20 -->
<g id="edge19_Node000012_Node000020" class="edge">
<title>Node12&#45;&gt;Node20</title>
<g id="a_edge19_Node000012_Node000020"><a xlink:title=" ">
<path fill="none" stroke="#63b8ff" d="M300.36,-370.01C327.38,-356.37 363.77,-338.45 396.5,-323.88 403.38,-320.81 410.61,-317.71 417.86,-314.68"/>
<polygon fill="#63b8ff" stroke="#63b8ff" points="298.82,-366.87 291.48,-374.51 301.99,-373.11 298.82,-366.87"/>
</a>
</g>
</g>
<!-- Node21 -->
<g id="Node000021" class="node">
<title>Node21</title>
<g id="a_Node000021"><a xlink:href="../../df/d6a/classengine_1_1direct3d_1_1__state__detail_1_1state__readonly__wrapper.html" target="_top" xlink:title=" ">
<polygon fill="white" stroke="#666666" points="573.75,-243.38 400.25,-243.38 400.25,-190.38 573.75,-190.38 573.75,-243.38"/>
<text text-anchor="start" x="408.25" y="-229.88" font-family="Helvetica,sans-Serif" font-size="10.00">engine::direct3d::</text>
<text text-anchor="start" x="408.25" y="-218.62" font-family="Helvetica,sans-Serif" font-size="10.00">_state_detail::state</text>
<text text-anchor="start" x="408.25" y="-207.38" font-family="Helvetica,sans-Serif" font-size="10.00">_readonly_wrapper&lt; ID3D11Sampler</text>
<text text-anchor="middle" x="487" y="-196.12" font-family="Helvetica,sans-Serif" font-size="10.00">State &gt;</text>
</a>
</g>
</g>
<!-- Node12&#45;&gt;Node21 -->
<g id="edge20_Node000012_Node000021" class="edge">
<title>Node12&#45;&gt;Node21</title>
<g id="a_edge20_Node000012_Node000021"><a xlink:title=" ">
<path fill="none" stroke="#63b8ff" d="M278.57,-366.52C302.95,-336.34 348.12,-285 396.5,-252.88 401.38,-249.63 406.6,-246.6 411.98,-243.79"/>
<polygon fill="#63b8ff" stroke="#63b8ff" points="276.12,-363.97 272.63,-373.97 281.6,-368.33 276.12,-363.97"/>
</a>
</g>
</g>
<!-- Node22 -->
<g id="Node000022" class="node">
<title>Node22</title>
<g id="a_Node000022"><a xlink:href="../../df/d6a/classengine_1_1direct3d_1_1__state__detail_1_1state__readonly__wrapper.html" target="_top" xlink:title=" ">
<polygon fill="white" stroke="#666666" points="568.12,-172.38 405.88,-172.38 405.88,-119.38 568.12,-119.38 568.12,-172.38"/>
<text text-anchor="start" x="413.88" y="-158.88" font-family="Helvetica,sans-Serif" font-size="10.00">engine::direct3d::</text>
<text text-anchor="start" x="413.88" y="-147.62" font-family="Helvetica,sans-Serif" font-size="10.00">_state_detail::state</text>
<text text-anchor="start" x="413.88" y="-136.38" font-family="Helvetica,sans-Serif" font-size="10.00">_readonly_wrapper&lt; ID3D11Blend</text>
<text text-anchor="middle" x="487" y="-125.12" font-family="Helvetica,sans-Serif" font-size="10.00">State &gt;</text>
</a>
</g>
</g>
<!-- Node12&#45;&gt;Node22 -->
<g id="edge21_Node000012_Node000022" class="edge">
<title>Node12&#45;&gt;Node22</title>
<g id="a_edge21_Node000012_Node000022"><a xlink:title=" ">
<path fill="none" stroke="#63b8ff" d="M270.47,-364.86C289.64,-321.31 333.74,-233.35 396.5,-181.88 400.51,-178.58 404.87,-175.56 409.42,-172.79"/>
<polygon fill="#63b8ff" stroke="#63b8ff" points="267.37,-363.21 266.63,-373.78 273.8,-365.98 267.37,-363.21"/>
</a>
</g>
</g>
<!-- Node23 -->
<g id="Node000023" class="node">
<title>Node23</title>
<g id="a_Node000023"><a xlink:href="../../df/da2/classengine_1_1direct3d_1_1__api__detail_1_1api__readonly__wrapper.html" target="_top" xlink:title="The readonly_d3d_resource_wrapper class is a wrapper for readonly d3d resources.">
<polygon fill="white" stroke="#666666" points="547.5,-101.75 426.5,-101.75 426.5,-60 547.5,-60 547.5,-101.75"/>
<text text-anchor="start" x="434.5" y="-88.25" font-family="Helvetica,sans-Serif" font-size="10.00">engine::direct3d::</text>
<text text-anchor="start" x="434.5" y="-77" font-family="Helvetica,sans-Serif" font-size="10.00">_api_detail::api_readonly</text>
<text text-anchor="middle" x="487" y="-65.75" font-family="Helvetica,sans-Serif" font-size="10.00">_wrapper&lt; T &gt;</text>
</a>
</g>
</g>
<!-- Node12&#45;&gt;Node23 -->
<g id="edge22_Node000012_Node000023" class="edge">
<title>Node12&#45;&gt;Node23</title>
<g id="a_edge22_Node000012_Node000023"><a xlink:title=" ">
<path fill="none" stroke="#63b8ff" d="M265.42,-364.35C278.57,-309.13 316.36,-181.16 396.5,-110.88 405,-103.42 415.42,-97.8 426.11,-93.58"/>
<polygon fill="#63b8ff" stroke="#63b8ff" points="262.07,-363.27 263.25,-373.8 268.9,-364.83 262.07,-363.27"/>
</a>
</g>
</g>
<!-- Node24 -->
<g id="Node000024" class="node">
<title>Node24</title>
<g id="a_Node000024"><a xlink:href="../../df/d6a/classengine_1_1direct3d_1_1__state__detail_1_1state__readonly__wrapper.html" target="_top" xlink:title="The state_readonly_wrapper class is a wrapper for readonly state d3d resources.">
<polygon fill="white" stroke="#666666" points="546.75,-41.75 427.25,-41.75 427.25,0 546.75,0 546.75,-41.75"/>
<text text-anchor="start" x="435.25" y="-28.25" font-family="Helvetica,sans-Serif" font-size="10.00">engine::direct3d::</text>
<text text-anchor="start" x="435.25" y="-17" font-family="Helvetica,sans-Serif" font-size="10.00">_state_detail::state</text>
<text text-anchor="middle" x="487" y="-5.75" font-family="Helvetica,sans-Serif" font-size="10.00">_readonly_wrapper&lt; T &gt;</text>
</a>
</g>
</g>
<!-- Node12&#45;&gt;Node24 -->
<g id="edge23_Node000012_Node000024" class="edge">
<title>Node12&#45;&gt;Node24</title>
<g id="a_edge23_Node000012_Node000024"><a xlink:title=" ">
<path fill="none" stroke="#63b8ff" d="M262.89,-364.11C271.75,-300.55 302.75,-139.25 396.5,-50.88 405.09,-42.78 415.92,-36.87 427.06,-32.55"/>
<polygon fill="#63b8ff" stroke="#63b8ff" points="259.43,-363.6 261.6,-373.97 266.37,-364.51 259.43,-363.6"/>
</a>
</g>
</g>
</g>
</svg>

<g id="navigator" transform="translate(0 0)" fill="#404254">
  <rect fill="#f2f5e9" fill-opacity="0.5" stroke="#606060" stroke-width=".5" x="0" y="0" width="60" height="60"/>
  <use id="zoomplus" xlink:href="#zoomPlus" x="17" y="9" onmousedown="handleZoom(evt,'in')"/>
  <use id="zoomminus" xlink:href="#zoomMin" x="42" y="9" onmousedown="handleZoom(evt,'out')"/>
  <use id="reset" xlink:href="#resetDef" x="30" y="36" onmousedown="handleReset()"/>
   <use id="arrowup" xlink:href="#arrowUp" x="0" y="0" onmousedown="handlePan(0,-1)"/>
  <use id="arrowright" xlink:href="#arrowRight" x="0" y="0" onmousedown="handlePan(1,0)"/>
  <use id="arrowdown" xlink:href="#arrowDown" x="0" y="0" onmousedown="handlePan(0,1)"/>
  <use id="arrowleft" xlink:href="#arrowLeft" x="0" y="0" onmousedown="handlePan(-1,0)"/>
</g>
<svg viewBox="0 0 15 15" width="100%" height="30px" preserveAspectRatio="xMaxYMin meet">
 <g id="arrow_out" transform="scale(0.3 0.3)">
  <a xlink:href="classengine_1_1direct3d_1_1d3d__resource__wrapper__inherit__graph_org.svg" target="_base">
   <rect id="button" ry="5" rx="5" y="6" x="6" height="38" width="38"
        fill="#f2f5e9" fill-opacity="0.5" stroke="#606060" stroke-width="1.0"/>
   <path id="arrow"
     d="M 11.500037,31.436501 C 11.940474,20.09759 22.043105,11.32322 32.158766,21.979434 L 37.068811,17.246167 C 37.068811,17.246167 37.088388,32 37.088388,32 L 22.160133,31.978069 C 22.160133,31.978069 26.997745,27.140456 26.997745,27.140456 C 18.528582,18.264221 13.291696,25.230495 11.500037,31.436501 z"
     style="fill:#404040;"/>
  </a>
 </g>
</svg>

<style type='text/css'>
<![CDATA[
[data-mouse-over-selected='false'] { opacity: 0.7; }
[data-mouse-over-selected='true']  { opacity: 1.0; }
]]>
</style>
<script type="application/ecmascript"><![CDATA[
document.addEventListener('DOMContentLoaded', (event) => {
  highlightEdges();
  highlightAdjacentNodes();
});
]]></script>
</svg>
