<?xml version="1.0" encoding="UTF-8" standalone="no"?>
<!DOCTYPE svg PUBLIC "-//W3C//DTD SVG 1.1//EN"
 "http://www.w3.org/Graphics/SVG/1.1/DTD/svg11.dtd">
<!-- Generated by graphviz version 8.1.0 (20230707.0739)
 -->
<!-- Title: engine::render::PostProcessing Pages: 1 -->
<svg width="475pt" height="431pt"
 viewBox="0.00 0.00 475.25 430.50" xmlns="http://www.w3.org/2000/svg" xmlns:xlink="http://www.w3.org/1999/xlink">

<svg id="main" version="1.1" xmlns="http://www.w3.org/2000/svg" xmlns:xlink="http://www.w3.org/1999/xlink" xml:space="preserve" onload="init(evt)">
<style type="text/css"><![CDATA[
.node, .edge {opacity: 0.7;}
.node.selected, .edge.selected {opacity: 1;}
.edge:hover path { stroke: red; }
.edge:hover polygon { stroke: red; fill: red; }
]]></style>
<script type="application/ecmascript" xlink:href="../../svg.min.js"/>
<svg id="graph" class="graph">
<g id="graph0" class="graph" transform="scale(1 1) rotate(0) translate(4 426.5)">
<title>engine::render::PostProcessing</title>
<!-- Node1 -->
<g id="Node000001" class="node">
<title>Node1</title>
<g id="a_Node000001"><a xlink:title=" ">
<polygon fill="#999999" stroke="#666666" points="467.25,-220.88 317.75,-220.88 317.75,-201.62 467.25,-201.62 467.25,-220.88"/>
<text text-anchor="middle" x="392.5" y="-207.38" font-family="Helvetica,sans-Serif" font-size="10.00">engine::render::PostProcessing</text>
</a>
</g>
</g>
<!-- Node2 -->
<g id="Node000002" class="node">
<title>Node2</title>
<g id="a_Node000002"><a xlink:href="../../d9/d60/classengine_1_1render_1_1_post_processing_layer.html" target="_top" xlink:title=" ">
<polygon fill="white" stroke="#666666" points="281.75,-422.5 132.25,-422.5 132.25,-392 281.75,-392 281.75,-422.5"/>
<text text-anchor="start" x="140.25" y="-409" font-family="Helvetica,sans-Serif" font-size="10.00">engine::render::PostProcessing</text>
<text text-anchor="middle" x="207" y="-397.75" font-family="Helvetica,sans-Serif" font-size="10.00">Layer</text>
</a>
</g>
</g>
<!-- Node2&#45;&gt;Node1 -->
<g id="edge1_Node000001_Node000002" class="edge">
<title>Node2&#45;&gt;Node1</title>
<g id="a_edge1_Node000001_Node000002"><a xlink:title=" ">
<path fill="none" stroke="#63b8ff" d="M275.92,-386.37C277.94,-385.08 279.89,-383.7 281.75,-382.25 340.39,-336.41 376.92,-249.97 387.95,-220.99"/>
<polygon fill="#63b8ff" stroke="#63b8ff" points="274.69,-383.61 267.69,-391.56 278.13,-389.71 274.69,-383.61"/>
</a>
</g>
</g>
<!-- Node3 -->
<g id="Node000003" class="node">
<title>Node3</title>
<g id="a_Node000003"><a xlink:href="../../d0/d04/classengine_1_1core_1_1_layer.html" target="_top" xlink:title=" ">
<polygon fill="white" stroke="#666666" points="96.25,-416.88 0,-416.88 0,-397.62 96.25,-397.62 96.25,-416.88"/>
<text text-anchor="middle" x="48.12" y="-403.38" font-family="Helvetica,sans-Serif" font-size="10.00">engine::core::Layer</text>
</a>
</g>
</g>
<!-- Node3&#45;&gt;Node2 -->
<g id="edge2_Node000002_Node000003" class="edge">
<title>Node3&#45;&gt;Node2</title>
<g id="a_edge2_Node000002_Node000003"><a xlink:title=" ">
<path fill="none" stroke="#63b8ff" d="M107.36,-407.25C115.4,-407.25 123.75,-407.25 132.02,-407.25"/>
<polygon fill="#63b8ff" stroke="#63b8ff" points="107.62,-403.75 97.62,-407.25 107.62,-410.75 107.62,-403.75"/>
</a>
</g>
</g>
<!-- Node4 -->
<g id="Node000004" class="node">
<title>Node4</title>
<g id="a_Node000004"><a xlink:href="../../dd/dd4/structengine_1_1core_1_1_layer_1_1_handle_event.html" target="_top" xlink:title=" ">
<polygon fill="white" stroke="#666666" points="255.12,-373.5 158.88,-373.5 158.88,-343 255.12,-343 255.12,-373.5"/>
<text text-anchor="start" x="166.88" y="-360" font-family="Helvetica,sans-Serif" font-size="10.00">engine::core::Layer</text>
<text text-anchor="middle" x="207" y="-348.75" font-family="Helvetica,sans-Serif" font-size="10.00">::HandleEvent</text>
</a>
</g>
</g>
<!-- Node4&#45;&gt;Node1 -->
<g id="edge3_Node000001_Node000004" class="edge">
<title>Node4&#45;&gt;Node1</title>
<g id="a_edge3_Node000001_Node000004"><a xlink:title=" ">
<path fill="none" stroke="#63b8ff" d="M265.18,-342.2C270.98,-339.6 276.61,-336.63 281.75,-333.25 329.57,-301.75 369.96,-244.5 385.1,-221.36"/>
<polygon fill="#63b8ff" stroke="#63b8ff" points="264.25,-339.2 256.32,-346.23 266.9,-345.68 264.25,-339.2"/>
</a>
</g>
</g>
<!-- Node5 -->
<g id="Node000005" class="node">
<title>Node5</title>
<g id="a_Node000005"><a xlink:href="../../d5/d41/structengine_1_1core_1_1_layer_1_1_handle_update.html" target="_top" xlink:title=" ">
<polygon fill="white" stroke="#666666" points="255.12,-324.5 158.88,-324.5 158.88,-294 255.12,-294 255.12,-324.5"/>
<text text-anchor="start" x="166.88" y="-311" font-family="Helvetica,sans-Serif" font-size="10.00">engine::core::Layer</text>
<text text-anchor="middle" x="207" y="-299.75" font-family="Helvetica,sans-Serif" font-size="10.00">::HandleUpdate</text>
</a>
</g>
</g>
<!-- Node5&#45;&gt;Node1 -->
<g id="edge4_Node000001_Node000005" class="edge">
<title>Node5&#45;&gt;Node1</title>
<g id="a_edge4_Node000001_Node000005"><a xlink:title=" ">
<path fill="none" stroke="#63b8ff" d="M265.57,-291.38C271.12,-289.17 276.59,-286.78 281.75,-284.25 319.33,-265.78 359.27,-236.41 378.98,-221.17"/>
<polygon fill="#63b8ff" stroke="#63b8ff" points="264.67,-288.35 256.56,-295.17 267.15,-294.9 264.67,-288.35"/>
</a>
</g>
</g>
<!-- Node6 -->
<g id="Node000006" class="node">
<title>Node6</title>
<g id="a_Node000006"><a xlink:href="../../d1/df2/structengine_1_1core_1_1_layer_1_1_handle_render.html" target="_top" xlink:title=" ">
<polygon fill="white" stroke="#666666" points="255.12,-275.5 158.88,-275.5 158.88,-245 255.12,-245 255.12,-275.5"/>
<text text-anchor="start" x="166.88" y="-262" font-family="Helvetica,sans-Serif" font-size="10.00">engine::core::Layer</text>
<text text-anchor="middle" x="207" y="-250.75" font-family="Helvetica,sans-Serif" font-size="10.00">::HandleRender</text>
</a>
</g>
</g>
<!-- Node6&#45;&gt;Node1 -->
<g id="edge5_Node000001_Node000006" class="edge">
<title>Node6&#45;&gt;Node1</title>
<g id="a_edge5_Node000001_Node000006"><a xlink:title=" ">
<path fill="none" stroke="#63b8ff" d="M265.58,-244.88C294.3,-237.2 328.24,-228.14 353.65,-221.36"/>
<polygon fill="#63b8ff" stroke="#63b8ff" points="265.01,-241.67 256.26,-247.63 266.82,-248.43 265.01,-241.67"/>
</a>
</g>
</g>
<!-- Node7 -->
<g id="Node000007" class="node">
<title>Node7</title>
<g id="a_Node000007"><a xlink:href="../../da/d57/structengine_1_1core_1_1_layer_1_1_handle_gui_render.html" target="_top" xlink:title=" ">
<polygon fill="white" stroke="#666666" points="255.5,-226.5 158.5,-226.5 158.5,-196 255.5,-196 255.5,-226.5"/>
<text text-anchor="start" x="166.5" y="-213" font-family="Helvetica,sans-Serif" font-size="10.00">engine::core::Layer</text>
<text text-anchor="middle" x="207" y="-201.75" font-family="Helvetica,sans-Serif" font-size="10.00">::HandleGuiRender</text>
</a>
</g>
</g>
<!-- Node7&#45;&gt;Node1 -->
<g id="edge6_Node000001_Node000007" class="edge">
<title>Node7&#45;&gt;Node1</title>
<g id="a_edge6_Node000001_Node000007"><a xlink:title=" ">
<path fill="none" stroke="#63b8ff" d="M266.62,-211.25C282.75,-211.25 300.45,-211.25 317.33,-211.25"/>
<polygon fill="#63b8ff" stroke="#63b8ff" points="266.73,-207.75 256.73,-211.25 266.73,-214.75 266.73,-207.75"/>
</a>
</g>
</g>
<!-- Node8 -->
<g id="Node000008" class="node">
<title>Node8</title>
<g id="a_Node000008"><a xlink:href="../../de/d0d/structengine_1_1core_1_1_layer_1_1_handle_tick.html" target="_top" xlink:title=" ">
<polygon fill="white" stroke="#666666" points="255.12,-177.5 158.88,-177.5 158.88,-147 255.12,-147 255.12,-177.5"/>
<text text-anchor="start" x="166.88" y="-164" font-family="Helvetica,sans-Serif" font-size="10.00">engine::core::Layer</text>
<text text-anchor="middle" x="207" y="-152.75" font-family="Helvetica,sans-Serif" font-size="10.00">::HandleTick</text>
</a>
</g>
</g>
<!-- Node8&#45;&gt;Node1 -->
<g id="edge7_Node000001_Node000008" class="edge">
<title>Node8&#45;&gt;Node1</title>
<g id="a_edge7_Node000001_Node000008"><a xlink:title=" ">
<path fill="none" stroke="#63b8ff" d="M265.58,-177.62C294.3,-185.3 328.24,-194.36 353.65,-201.14"/>
<polygon fill="#63b8ff" stroke="#63b8ff" points="266.82,-174.07 256.26,-174.87 265.01,-180.83 266.82,-174.07"/>
</a>
</g>
</g>
<!-- Node9 -->
<g id="Node000009" class="node">
<title>Node9</title>
<g id="a_Node000009"><a xlink:href="../../d2/d84/classengine_1_1render_1_1_post_processing_layer_1_1_handle_frame_begin.html" target="_top" xlink:title=" ">
<polygon fill="white" stroke="#666666" points="281.75,-128.5 132.25,-128.5 132.25,-98 281.75,-98 281.75,-128.5"/>
<text text-anchor="start" x="140.25" y="-115" font-family="Helvetica,sans-Serif" font-size="10.00">engine::render::PostProcessing</text>
<text text-anchor="middle" x="207" y="-103.75" font-family="Helvetica,sans-Serif" font-size="10.00">Layer::HandleFrameBegin</text>
</a>
</g>
</g>
<!-- Node9&#45;&gt;Node1 -->
<g id="edge8_Node000001_Node000009" class="edge">
<title>Node9&#45;&gt;Node1</title>
<g id="a_edge8_Node000001_Node000009"><a xlink:title=" ">
<path fill="none" stroke="#63b8ff" d="M269.98,-132.93C274.01,-134.61 277.97,-136.39 281.75,-138.25 319.33,-156.72 359.27,-186.09 378.98,-201.33"/>
<polygon fill="#63b8ff" stroke="#63b8ff" points="271.46,-129.35 260.87,-128.92 268.88,-135.86 271.46,-129.35"/>
</a>
</g>
</g>
<!-- Node10 -->
<g id="Node000010" class="node">
<title>Node10</title>
<g id="a_Node000010"><a xlink:href="../../dc/d15/classengine_1_1render_1_1_post_processing_layer_1_1_handle_frame_end.html" target="_top" xlink:title=" ">
<polygon fill="white" stroke="#666666" points="281.75,-79.5 132.25,-79.5 132.25,-49 281.75,-49 281.75,-79.5"/>
<text text-anchor="start" x="140.25" y="-66" font-family="Helvetica,sans-Serif" font-size="10.00">engine::render::PostProcessing</text>
<text text-anchor="middle" x="207" y="-54.75" font-family="Helvetica,sans-Serif" font-size="10.00">Layer::HandleFrameEnd</text>
</a>
</g>
</g>
<!-- Node10&#45;&gt;Node1 -->
<g id="edge9_Node000001_Node000010" class="edge">
<title>Node10&#45;&gt;Node1</title>
<g id="a_edge9_Node000001_Node000010"><a xlink:title=" ">
<path fill="none" stroke="#63b8ff" d="M274.08,-84.68C276.72,-86.11 279.29,-87.63 281.75,-89.25 329.57,-120.75 369.96,-178 385.1,-201.14"/>
<polygon fill="#63b8ff" stroke="#63b8ff" points="275.73,-81.1 265.21,-79.87 272.67,-87.4 275.73,-81.1"/>
</a>
</g>
</g>
<!-- Node11 -->
<g id="Node000011" class="node">
<title>Node11</title>
<g id="a_Node000011"><a xlink:href="../../d1/dee/classengine_1_1render_1_1_post_processing_layer_1_1_handle_process.html" target="_top" xlink:title=" ">
<polygon fill="white" stroke="#666666" points="281.75,-30.5 132.25,-30.5 132.25,0 281.75,0 281.75,-30.5"/>
<text text-anchor="start" x="140.25" y="-17" font-family="Helvetica,sans-Serif" font-size="10.00">engine::render::PostProcessing</text>
<text text-anchor="middle" x="207" y="-5.75" font-family="Helvetica,sans-Serif" font-size="10.00">Layer::HandleProcess</text>
</a>
</g>
</g>
<!-- Node11&#45;&gt;Node1 -->
<g id="edge10_Node000001_Node000011" class="edge">
<title>Node11&#45;&gt;Node1</title>
<g id="a_edge10_Node000001_Node000011"><a xlink:title=" ">
<path fill="none" stroke="#63b8ff" d="M275.92,-36.13C277.94,-37.42 279.89,-38.8 281.75,-40.25 340.39,-86.09 376.92,-172.53 387.95,-201.51"/>
<polygon fill="#63b8ff" stroke="#63b8ff" points="278.13,-32.79 267.69,-30.94 274.69,-38.89 278.13,-32.79"/>
</a>
</g>
</g>
</g>
</svg>
</svg>

<style type='text/css'>
<![CDATA[
[data-mouse-over-selected='false'] { opacity: 0.7; }
[data-mouse-over-selected='true']  { opacity: 1.0; }
]]>
</style>
<script type="application/ecmascript"><![CDATA[
document.addEventListener('DOMContentLoaded', (event) => {
  highlightEdges();
  highlightAdjacentNodes();
});
]]></script>
</svg>
