<?xml version="1.0" encoding="UTF-8" standalone="no"?>
<!DOCTYPE svg PUBLIC "-//W3C//DTD SVG 1.1//EN"
 "http://www.w3.org/Graphics/SVG/1.1/DTD/svg11.dtd">
<!-- Generated by graphviz version 9.0.0 (20230911.1827)
 -->
<!-- Title: engine::render::PostProcessing Pages: 1 -->
<svg width="475pt" height="431pt"
 viewBox="0.00 0.00 475.25 430.50" xmlns="http://www.w3.org/2000/svg" xmlns:xlink="http://www.w3.org/1999/xlink">

<svg id="main" version="1.1" xmlns="http://www.w3.org/2000/svg" xmlns:xlink="http://www.w3.org/1999/xlink" xml:space="preserve" onload="init(evt)">
<style type="text/css"><![CDATA[
.node, .edge {opacity: 0.7;}
.node.selected, .edge.selected {opacity: 1;}
.edge:hover path { stroke: red; }
.edge:hover polygon { stroke: red; fill: red; }
]]></style>
<script type="application/ecmascript" xlink:href="../../svg.min.js"/>
<svg id="graph" class="graph">
<g id="graph0" class="graph" transform="scale(1 1) rotate(0) translate(4 426.5)">
<title>engine::render::PostProcessing</title>
<!-- Node1 -->
<g id="Node000001" class="node">
<title>Node1</title>
<g id="a_Node000001"><a xlink:title=" ">
<polygon fill="#999999" stroke="#666666" points="467.25,-220.88 317.75,-220.88 317.75,-201.62 467.25,-201.62 467.25,-220.88"/>
<text text-anchor="middle" x="392.5" y="-207.38" font-family="Helvetica,sans-Serif" font-size="10.00">engine::render::PostProcessing</text>
</a>
</g>
</g>
<!-- Node2 -->
<g id="Node000002" class="node">
<title>Node2</title>
<g id="a_Node000002"><a xlink:href="../../d9/d60/classengine_1_1render_1_1_post_processing_layer.html" target="_top" xlink:title=" ">
<polygon fill="white" stroke="#666666" points="281.75,-422.5 132.25,-422.5 132.25,-392 281.75,-392 281.75,-422.5"/>
<text text-anchor="start" x="140.25" y="-409" font-family="Helvetica,sans-Serif" font-size="10.00">engine::render::PostProcessing</text>
<text text-anchor="middle" x="207" y="-397.75" font-family="Helvetica,sans-Serif" font-size="10.00">Layer</text>
</a>
</g>
</g>
<!-- Node2&#45;&gt;Node1 -->
<g id="edge1_Node000001_Node000002" class="edge">
<title>Node2&#45;&gt;Node1</title>
<g id="a_edge1_Node000001_Node000002"><a xlink:title=" ">
<path fill="none" stroke="#63b8ff" d="M276.39,-386.07C278.24,-384.87 280.03,-383.59 281.75,-382.25 340.39,-336.41 376.92,-249.97 387.95,-220.99"/>
<polygon fill="#63b8ff" stroke="#63b8ff" points="274.98,-382.84 268.01,-390.82 278.44,-388.93 274.98,-382.84"/>
</a>
</g>
</g>
<!-- Node3 -->
<g id="Node000003" class="node">
<title>Node3</title>
<g id="a_Node000003"><a xlink:href="../../d0/d04/classengine_1_1core_1_1_layer.html" target="_top" xlink:title=" ">
<polygon fill="white" stroke="#666666" points="96.25,-416.88 0,-416.88 0,-397.62 96.25,-397.62 96.25,-416.88"/>
<text text-anchor="middle" x="48.12" y="-403.38" font-family="Helvetica,sans-Serif" font-size="10.00">engine::core::Layer</text>
</a>
</g>
</g>
<!-- Node3&#45;&gt;Node2 -->
<g id="edge2_Node000002_Node000003" class="edge">
<title>Node3&#45;&gt;Node2</title>
<g id="a_edge2_Node000002_Node000003"><a xlink:title=" ">
<path fill="none" stroke="#63b8ff" d="M107.91,-407.25C115.78,-407.25 123.93,-407.25 132.02,-407.25"/>
<polygon fill="#63b8ff" stroke="#63b8ff" points="108.13,-403.75 98.13,-407.25 108.13,-410.75 108.13,-403.75"/>
</a>
</g>
</g>
<!-- Node4 -->
<g id="Node000004" class="node">
<title>Node4</title>
<g id="a_Node000004"><a xlink:href="../../dd/dd4/structengine_1_1core_1_1_layer_1_1_handle_event.html" target="_top" xlink:title=" ">
<polygon fill="white" stroke="#666666" points="255.12,-373.5 158.88,-373.5 158.88,-343 255.12,-343 255.12,-373.5"/>
<text text-anchor="start" x="166.88" y="-360" font-family="Helvetica,sans-Serif" font-size="10.00">engine::core::Layer</text>
<text text-anchor="middle" x="207" y="-348.75" font-family="Helvetica,sans-Serif" font-size="10.00">::HandleEvent</text>
</a>
</g>
</g>
<!-- Node4&#45;&gt;Node1 -->
<g id="edge3_Node000001_Node000004" class="edge">
<title>Node4&#45;&gt;Node1</title>
<g id="a_edge3_Node000001_Node000004"><a xlink:title=" ">
<path fill="none" stroke="#63b8ff" d="M265.6,-342.01C271.25,-339.46 276.74,-336.55 281.75,-333.25 329.57,-301.75 369.96,-244.5 385.1,-221.36"/>
<polygon fill="#63b8ff" stroke="#63b8ff" points="264.64,-338.62 256.72,-345.65 267.3,-345.09 264.64,-338.62"/>
</a>
</g>
</g>
<!-- Node5 -->
<g id="Node000005" class="node">
<title>Node5</title>
<g id="a_Node000005"><a xlink:href="../../d5/d41/structengine_1_1core_1_1_layer_1_1_handle_update.html" target="_top" xlink:title=" ">
<polygon fill="white" stroke="#666666" points="255.12,-324.5 158.88,-324.5 158.88,-294 255.12,-294 255.12,-324.5"/>
<text text-anchor="start" x="166.88" y="-311" font-family="Helvetica,sans-Serif" font-size="10.00">engine::core::Layer</text>
<text text-anchor="middle" x="207" y="-299.75" font-family="Helvetica,sans-Serif" font-size="10.00">::HandleUpdate</text>
</a>
</g>
</g>
<!-- Node5&#45;&gt;Node1 -->
<g id="edge4_Node000001_Node000005" class="edge">
<title>Node5&#45;&gt;Node1</title>
<g id="a_edge4_Node000001_Node000005"><a xlink:title=" ">
<path fill="none" stroke="#63b8ff" d="M265.98,-291.21C271.39,-289.05 276.72,-286.72 281.75,-284.25 319.33,-265.78 359.27,-236.41 378.98,-221.17"/>
<polygon fill="#63b8ff" stroke="#63b8ff" points="265.08,-287.81 256.97,-294.63 267.56,-294.36 265.08,-287.81"/>
</a>
</g>
</g>
<!-- Node6 -->
<g id="Node000006" class="node">
<title>Node6</title>
<g id="a_Node000006"><a xlink:href="../../d1/df2/structengine_1_1core_1_1_layer_1_1_handle_render.html" target="_top" xlink:title=" ">
<polygon fill="white" stroke="#666666" points="255.12,-275.5 158.88,-275.5 158.88,-245 255.12,-245 255.12,-275.5"/>
<text text-anchor="start" x="166.88" y="-262" font-family="Helvetica,sans-Serif" font-size="10.00">engine::core::Layer</text>
<text text-anchor="middle" x="207" y="-250.75" font-family="Helvetica,sans-Serif" font-size="10.00">::HandleRender</text>
</a>
</g>
</g>
<!-- Node6&#45;&gt;Node1 -->
<g id="edge5_Node000001_Node000006" class="edge">
<title>Node6&#45;&gt;Node1</title>
<g id="a_edge5_Node000001_Node000006"><a xlink:title=" ">
<path fill="none" stroke="#63b8ff" d="M266.33,-244.67C294.9,-237.05 328.47,-228.08 353.65,-221.36"/>
<polygon fill="#63b8ff" stroke="#63b8ff" points="265.48,-241.28 256.72,-247.24 267.28,-248.04 265.48,-241.28"/>
</a>
</g>
</g>
<!-- Node7 -->
<g id="Node000007" class="node">
<title>Node7</title>
<g id="a_Node000007"><a xlink:href="../../da/d57/structengine_1_1core_1_1_layer_1_1_handle_gui_render.html" target="_top" xlink:title=" ">
<polygon fill="white" stroke="#666666" points="255.5,-226.5 158.5,-226.5 158.5,-196 255.5,-196 255.5,-226.5"/>
<text text-anchor="start" x="166.5" y="-213" font-family="Helvetica,sans-Serif" font-size="10.00">engine::core::Layer</text>
<text text-anchor="middle" x="207" y="-201.75" font-family="Helvetica,sans-Serif" font-size="10.00">::HandleGuiRender</text>
</a>
</g>
</g>
<!-- Node7&#45;&gt;Node1 -->
<g id="edge6_Node000001_Node000007" class="edge">
<title>Node7&#45;&gt;Node1</title>
<g id="a_edge6_Node000001_Node000007"><a xlink:title=" ">
<path fill="none" stroke="#63b8ff" d="M267.08,-211.25C283.09,-211.25 300.61,-211.25 317.33,-211.25"/>
<polygon fill="#63b8ff" stroke="#63b8ff" points="267.25,-207.75 257.25,-211.25 267.25,-214.75 267.25,-207.75"/>
</a>
</g>
</g>
<!-- Node8 -->
<g id="Node000008" class="node">
<title>Node8</title>
<g id="a_Node000008"><a xlink:href="../../de/d0d/structengine_1_1core_1_1_layer_1_1_handle_tick.html" target="_top" xlink:title=" ">
<polygon fill="white" stroke="#666666" points="255.12,-177.5 158.88,-177.5 158.88,-147 255.12,-147 255.12,-177.5"/>
<text text-anchor="start" x="166.88" y="-164" font-family="Helvetica,sans-Serif" font-size="10.00">engine::core::Layer</text>
<text text-anchor="middle" x="207" y="-152.75" font-family="Helvetica,sans-Serif" font-size="10.00">::HandleTick</text>
</a>
</g>
</g>
<!-- Node8&#45;&gt;Node1 -->
<g id="edge7_Node000001_Node000008" class="edge">
<title>Node8&#45;&gt;Node1</title>
<g id="a_edge7_Node000001_Node000008"><a xlink:title=" ">
<path fill="none" stroke="#63b8ff" d="M266.33,-177.83C294.9,-185.45 328.47,-194.42 353.65,-201.14"/>
<polygon fill="#63b8ff" stroke="#63b8ff" points="267.28,-174.46 256.72,-175.26 265.48,-181.22 267.28,-174.46"/>
</a>
</g>
</g>
<!-- Node9 -->
<g id="Node000009" class="node">
<title>Node9</title>
<g id="a_Node000009"><a xlink:href="../../d2/d84/classengine_1_1render_1_1_post_processing_layer_1_1_handle_frame_begin.html" target="_top" xlink:title=" ">
<polygon fill="white" stroke="#666666" points="281.75,-128.5 132.25,-128.5 132.25,-98 281.75,-98 281.75,-128.5"/>
<text text-anchor="start" x="140.25" y="-115" font-family="Helvetica,sans-Serif" font-size="10.00">engine::render::PostProcessing</text>
<text text-anchor="middle" x="207" y="-103.75" font-family="Helvetica,sans-Serif" font-size="10.00">Layer::HandleFrameBegin</text>
</a>
</g>
</g>
<!-- Node9&#45;&gt;Node1 -->
<g id="edge8_Node000001_Node000009" class="edge">
<title>Node9&#45;&gt;Node1</title>
<g id="a_edge8_Node000001_Node000009"><a xlink:title=" ">
<path fill="none" stroke="#63b8ff" d="M270.33,-133.07C274.24,-134.72 278.08,-136.44 281.75,-138.25 319.33,-156.72 359.27,-186.09 378.98,-201.33"/>
<polygon fill="#63b8ff" stroke="#63b8ff" points="271.87,-129.92 261.28,-129.48 269.28,-136.42 271.87,-129.92"/>
</a>
</g>
</g>
<!-- Node10 -->
<g id="Node000010" class="node">
<title>Node10</title>
<g id="a_Node000010"><a xlink:href="../../dc/d15/classengine_1_1render_1_1_post_processing_layer_1_1_handle_frame_end.html" target="_top" xlink:title=" ">
<polygon fill="white" stroke="#666666" points="281.75,-79.5 132.25,-79.5 132.25,-49 281.75,-49 281.75,-79.5"/>
<text text-anchor="start" x="140.25" y="-66" font-family="Helvetica,sans-Serif" font-size="10.00">engine::render::PostProcessing</text>
<text text-anchor="middle" x="207" y="-54.75" font-family="Helvetica,sans-Serif" font-size="10.00">Layer::HandleFrameEnd</text>
</a>
</g>
</g>
<!-- Node10&#45;&gt;Node1 -->
<g id="edge9_Node000001_Node000010" class="edge">
<title>Node10&#45;&gt;Node1</title>
<g id="a_edge9_Node000001_Node000010"><a xlink:title=" ">
<path fill="none" stroke="#63b8ff" d="M274.35,-84.82C276.9,-86.21 279.38,-87.69 281.75,-89.25 329.57,-120.75 369.96,-178 385.1,-201.14"/>
<polygon fill="#63b8ff" stroke="#63b8ff" points="276.09,-81.78 265.57,-80.54 273.02,-88.07 276.09,-81.78"/>
</a>
</g>
</g>
<!-- Node11 -->
<g id="Node000011" class="node">
<title>Node11</title>
<g id="a_Node000011"><a xlink:href="../../d1/dee/classengine_1_1render_1_1_post_processing_layer_1_1_handle_process.html" target="_top" xlink:title=" ">
<polygon fill="white" stroke="#666666" points="281.75,-30.5 132.25,-30.5 132.25,0 281.75,0 281.75,-30.5"/>
<text text-anchor="start" x="140.25" y="-17" font-family="Helvetica,sans-Serif" font-size="10.00">engine::render::PostProcessing</text>
<text text-anchor="middle" x="207" y="-5.75" font-family="Helvetica,sans-Serif" font-size="10.00">Layer::HandleProcess</text>
</a>
</g>
</g>
<!-- Node11&#45;&gt;Node1 -->
<g id="edge10_Node000001_Node000011" class="edge">
<title>Node11&#45;&gt;Node1</title>
<g id="a_edge10_Node000001_Node000011"><a xlink:title=" ">
<path fill="none" stroke="#63b8ff" d="M276.39,-36.43C278.24,-37.63 280.03,-38.91 281.75,-40.25 340.39,-86.09 376.92,-172.53 387.95,-201.51"/>
<polygon fill="#63b8ff" stroke="#63b8ff" points="278.44,-33.57 268.01,-31.68 274.98,-39.66 278.44,-33.57"/>
</a>
</g>
</g>
</g>
</svg>
</svg>

<style type='text/css'>
<![CDATA[
[data-mouse-over-selected='false'] { opacity: 0.7; }
[data-mouse-over-selected='true']  { opacity: 1.0; }
]]>
</style>
<script type="application/ecmascript"><![CDATA[
document.addEventListener('DOMContentLoaded', (event) => {
  highlightEdges();
  highlightAdjacentNodes();
});
]]></script>
</svg>
