<?xml version="1.0" encoding="UTF-8" standalone="no"?>
<!DOCTYPE svg PUBLIC "-//W3C//DTD SVG 1.1//EN"
 "http://www.w3.org/Graphics/SVG/1.1/DTD/svg11.dtd">
<!-- Generated by graphviz version 9.0.0 (20230911.1827)
 -->
<!-- Title: engine::core::Layer Pages: 1 -->
<svg width="649pt" height="321pt"
 viewBox="0.00 0.00 648.75 321.25" xmlns="http://www.w3.org/2000/svg" xmlns:xlink="http://www.w3.org/1999/xlink">
<g id="graph0" class="graph" transform="scale(1 1) rotate(0) translate(4 317.25)">
<title>engine::core::Layer</title>
<!-- Node1 -->
<g id="Node000001" class="node">
<title>Node1</title>
<g id="a_Node000001"><a xlink:title=" ">
<polygon fill="#999999" stroke="#666666" points="96.25,-183.25 0,-183.25 0,-164 96.25,-164 96.25,-183.25"/>
<text text-anchor="middle" x="48.12" y="-169.75" font-family="Helvetica,sans-Serif" font-size="10.00">engine::core::Layer</text>
</a>
</g>
</g>
<!-- Node2 -->
<g id="Node000002" class="node">
<title>Node2</title>
<g id="a_Node000002"><a xlink:href="../../d8/d87/class_controller.html" target="_top" xlink:title=" ">
<polygon fill="white" stroke="#666666" points="235.62,-313.25 178.38,-313.25 178.38,-294 235.62,-294 235.62,-313.25"/>
<text text-anchor="middle" x="207" y="-299.75" font-family="Helvetica,sans-Serif" font-size="10.00">Controller</text>
</a>
</g>
</g>
<!-- Node1&#45;&gt;Node2 -->
<g id="edge1_Node000001_Node000002" class="edge">
<title>Node1&#45;&gt;Node2</title>
<g id="a_edge1_Node000001_Node000002"><a xlink:title=" ">
<path fill="none" stroke="#63b8ff" d="M58.57,-193.81C71.52,-219.24 97.26,-262.4 132.25,-285.62 145.76,-294.59 163.31,-299.09 177.9,-301.36"/>
<polygon fill="#63b8ff" stroke="#63b8ff" points="61.73,-192.32 54.19,-184.87 55.44,-195.39 61.73,-192.32"/>
</a>
</g>
</g>
<!-- Node3 -->
<g id="Node000003" class="node">
<title>Node3</title>
<g id="a_Node000003"><a xlink:href="../../da/d3d/classengine_1_1core_1_1_im_gui_layer.html" target="_top" xlink:title=" ">
<polygon fill="white" stroke="#666666" points="268.25,-276.25 145.75,-276.25 145.75,-257 268.25,-257 268.25,-276.25"/>
<text text-anchor="middle" x="207" y="-262.75" font-family="Helvetica,sans-Serif" font-size="10.00">engine::core::ImGuiLayer</text>
</a>
</g>
</g>
<!-- Node1&#45;&gt;Node3 -->
<g id="edge2_Node000001_Node000003" class="edge">
<title>Node1&#45;&gt;Node3</title>
<g id="a_edge2_Node000001_Node000003"><a xlink:title=" ">
<path fill="none" stroke="#63b8ff" d="M64.72,-192.22C80.14,-209.4 105.29,-234.36 132.25,-248.62 138.19,-251.77 144.69,-254.37 151.29,-256.53"/>
<polygon fill="#63b8ff" stroke="#63b8ff" points="67.41,-189.97 58.2,-184.73 62.13,-194.57 67.41,-189.97"/>
</a>
</g>
</g>
<!-- Node4 -->
<g id="Node000004" class="node">
<title>Node4</title>
<g id="a_Node000004"><a xlink:href="../../da/df3/classengine_1_1core_1_1_input_layer.html" target="_top" xlink:title=" ">
<polygon fill="white" stroke="#666666" points="266,-239.25 148,-239.25 148,-220 266,-220 266,-239.25"/>
<text text-anchor="middle" x="207" y="-225.75" font-family="Helvetica,sans-Serif" font-size="10.00">engine::core::InputLayer</text>
</a>
</g>
</g>
<!-- Node1&#45;&gt;Node4 -->
<g id="edge3_Node000001_Node000004" class="edge">
<title>Node1&#45;&gt;Node4</title>
<g id="a_edge3_Node000001_Node000004"><a xlink:title=" ">
<path fill="none" stroke="#63b8ff" d="M78.31,-188.61C94,-196.25 113.86,-205.24 132.25,-211.62 140.72,-214.56 149.89,-217.21 158.79,-219.51"/>
<polygon fill="#63b8ff" stroke="#63b8ff" points="80.05,-185.57 69.54,-184.27 76.94,-191.84 80.05,-185.57"/>
</a>
</g>
</g>
<!-- Node5 -->
<g id="Node000005" class="node">
<title>Node5</title>
<g id="a_Node000005"><a xlink:href="../../d6/d88/classengine_1_1core_1_1_layer_stack.html" target="_top" xlink:title=" ">
<polygon fill="white" stroke="#666666" points="267.88,-202.25 146.12,-202.25 146.12,-183 267.88,-183 267.88,-202.25"/>
<text text-anchor="middle" x="207" y="-188.75" font-family="Helvetica,sans-Serif" font-size="10.00">engine::core::LayerStack</text>
</a>
</g>
</g>
<!-- Node1&#45;&gt;Node5 -->
<g id="edge4_Node000001_Node000005" class="edge">
<title>Node1&#45;&gt;Node5</title>
<g id="a_edge4_Node000001_Node000005"><a xlink:title=" ">
<path fill="none" stroke="#63b8ff" d="M107.8,-180.73C120.24,-182.24 133.39,-183.83 145.88,-185.34"/>
<polygon fill="#63b8ff" stroke="#63b8ff" points="108.47,-177.29 98.12,-179.56 107.63,-184.24 108.47,-177.29"/>
</a>
</g>
</g>
<!-- Node10 -->
<g id="Node000010" class="node">
<title>Node10</title>
<g id="a_Node000010"><a xlink:href="../../d1/d8a/classengine_1_1core_1_1_shader_manager.html" target="_top" xlink:title=" ">
<polygon fill="white" stroke="#666666" points="277.25,-165.25 136.75,-165.25 136.75,-146 277.25,-146 277.25,-165.25"/>
<text text-anchor="middle" x="207" y="-151.75" font-family="Helvetica,sans-Serif" font-size="10.00">engine::core::ShaderManager</text>
</a>
</g>
</g>
<!-- Node1&#45;&gt;Node10 -->
<g id="edge9_Node000001_Node000010" class="edge">
<title>Node1&#45;&gt;Node10</title>
<g id="a_edge9_Node000001_Node000010"><a xlink:title=" ">
<path fill="none" stroke="#63b8ff" d="M107.76,-166.9C117.1,-165.83 126.83,-164.71 136.38,-163.61"/>
<polygon fill="#63b8ff" stroke="#63b8ff" points="107.66,-163.39 98.12,-168 108.46,-170.34 107.66,-163.39"/>
</a>
</g>
</g>
<!-- Node11 -->
<g id="Node000011" class="node">
<title>Node11</title>
<g id="a_Node000011"><a xlink:href="../../dd/d52/classengine_1_1core_1_1_window.html" target="_top" xlink:title=" ">
<polygon fill="white" stroke="#666666" points="260.38,-128.25 153.62,-128.25 153.62,-109 260.38,-109 260.38,-128.25"/>
<text text-anchor="middle" x="207" y="-114.75" font-family="Helvetica,sans-Serif" font-size="10.00">engine::core::Window</text>
</a>
</g>
</g>
<!-- Node1&#45;&gt;Node11 -->
<g id="edge10_Node000001_Node000011" class="edge">
<title>Node1&#45;&gt;Node11</title>
<g id="a_edge10_Node000001_Node000011"><a xlink:title=" ">
<path fill="none" stroke="#63b8ff" d="M78.98,-158.77C94.58,-151.41 114.15,-142.81 132.25,-136.62 140.86,-133.69 150.18,-131.02 159.21,-128.7"/>
<polygon fill="#63b8ff" stroke="#63b8ff" points="77.74,-155.49 70.24,-162.97 80.77,-161.8 77.74,-155.49"/>
</a>
</g>
</g>
<!-- Node13 -->
<g id="Node000013" class="node">
<title>Node13</title>
<g id="a_Node000013"><a xlink:href="../../d9/d60/classengine_1_1render_1_1_post_processing_layer.html" target="_top" xlink:title=" ">
<polygon fill="white" stroke="#666666" points="281.75,-90.88 132.25,-90.88 132.25,-60.38 281.75,-60.38 281.75,-90.88"/>
<text text-anchor="start" x="140.25" y="-77.38" font-family="Helvetica,sans-Serif" font-size="10.00">engine::render::PostProcessing</text>
<text text-anchor="middle" x="207" y="-66.12" font-family="Helvetica,sans-Serif" font-size="10.00">Layer</text>
</a>
</g>
</g>
<!-- Node1&#45;&gt;Node13 -->
<g id="edge12_Node000001_Node000013" class="edge">
<title>Node1&#45;&gt;Node13</title>
<g id="a_edge12_Node000001_Node000013"><a xlink:title=" ">
<path fill="none" stroke="#63b8ff" d="M65.53,-155.2C81.2,-138.59 106.23,-114.56 132.25,-99.62 137.62,-96.54 143.44,-93.79 149.38,-91.36"/>
<polygon fill="#63b8ff" stroke="#63b8ff" points="63.06,-152.71 58.86,-162.44 68.21,-157.46 63.06,-152.71"/>
</a>
</g>
</g>
<!-- Node17 -->
<g id="Node000017" class="node">
<title>Node17</title>
<g id="a_Node000017"><a xlink:href="../../d9/d64/classengine_1_1utils_1_1_file_watcher.html" target="_top" xlink:title=" ">
<polygon fill="white" stroke="#666666" points="268.62,-42.25 145.38,-42.25 145.38,-23 268.62,-23 268.62,-42.25"/>
<text text-anchor="middle" x="207" y="-28.75" font-family="Helvetica,sans-Serif" font-size="10.00">engine::utils::FileWatcher</text>
</a>
</g>
</g>
<!-- Node1&#45;&gt;Node17 -->
<g id="edge16_Node000001_Node000017" class="edge">
<title>Node1&#45;&gt;Node17</title>
<g id="a_edge16_Node000001_Node000017"><a xlink:title=" ">
<path fill="none" stroke="#63b8ff" d="M57.43,-153.28C69.67,-125.9 95.18,-77.67 132.25,-51.62 137.44,-47.98 143.28,-45.03 149.34,-42.65"/>
<polygon fill="#63b8ff" stroke="#63b8ff" points="54.33,-151.64 53.6,-162.21 60.76,-154.4 54.33,-151.64"/>
</a>
</g>
</g>
<!-- Node6 -->
<g id="Node000006" class="node">
<title>Node6</title>
<g id="a_Node000006"><a xlink:href="../../d2/d5c/classengine_1_1core_1_1_layer_stack_threadsafe.html" target="_top" xlink:title=" ">
<polygon fill="white" stroke="#666666" points="459.75,-242.88 338,-242.88 338,-212.38 459.75,-212.38 459.75,-242.88"/>
<text text-anchor="start" x="346" y="-229.38" font-family="Helvetica,sans-Serif" font-size="10.00">engine::core::LayerStack</text>
<text text-anchor="middle" x="398.88" y="-218.12" font-family="Helvetica,sans-Serif" font-size="10.00">Threadsafe</text>
</a>
</g>
</g>
<!-- Node5&#45;&gt;Node6 -->
<g id="edge5_Node000005_Node000006" class="edge">
<title>Node5&#45;&gt;Node6</title>
<g id="a_edge5_Node000005_Node000006"><a xlink:title=" ">
<path fill="none" stroke="#8b1a1a" d="M274.17,-204.82C294.84,-208.63 317.53,-212.81 337.76,-216.54"/>
<polygon fill="#8b1a1a" stroke="#8b1a1a" points="274.88,-201.39 264.41,-203.02 273.61,-208.28 274.88,-201.39"/>
</a>
</g>
</g>
<!-- Node8 -->
<g id="Node000008" class="node">
<title>Node8</title>
<g id="a_Node000008"><a xlink:href="../../d9/d15/classengine_1_1core_1_1_render_pipeline.html" target="_top" xlink:title=" ">
<polygon fill="white" stroke="#666666" points="467.62,-194.25 330.12,-194.25 330.12,-175 467.62,-175 467.62,-194.25"/>
<text text-anchor="middle" x="398.88" y="-180.75" font-family="Helvetica,sans-Serif" font-size="10.00">engine::core::RenderPipeline</text>
</a>
</g>
</g>
<!-- Node5&#45;&gt;Node8 -->
<g id="edge7_Node000005_Node000008" class="edge">
<title>Node5&#45;&gt;Node8</title>
<g id="a_edge7_Node000005_Node000008"><a xlink:title=" ">
<path fill="none" stroke="#63b8ff" d="M279.55,-189.61C296,-188.92 313.46,-188.18 329.77,-187.49"/>
<polygon fill="#63b8ff" stroke="#63b8ff" points="279.69,-186.1 269.85,-190.02 279.99,-193.09 279.69,-186.1"/>
</a>
</g>
</g>
<!-- Node7 -->
<g id="Node000007" class="node">
<title>Node7</title>
<g id="a_Node000007"><a xlink:href="../../da/d33/classengine_1_1core_1_1_engine.html" target="_top" xlink:title="Represents the core of the engine.">
<polygon fill="white" stroke="#666666" points="629.12,-237.25 527.62,-237.25 527.62,-218 629.12,-218 629.12,-237.25"/>
<text text-anchor="middle" x="578.38" y="-223.75" font-family="Helvetica,sans-Serif" font-size="10.00">engine::core::Engine</text>
</a>
</g>
</g>
<!-- Node6&#45;&gt;Node7 -->
<g id="edge6_Node000006_Node000007" class="edge">
<title>Node6&#45;&gt;Node7</title>
<g id="a_edge6_Node000006_Node000007"><a xlink:title=" ">
<path fill="none" stroke="#8b1a1a" d="M471.47,-227.62C490.22,-227.62 510.03,-227.62 527.39,-227.62"/>
<polygon fill="#8b1a1a" stroke="#8b1a1a" points="471.48,-224.13 461.48,-227.63 471.48,-231.13 471.48,-224.13"/>
</a>
</g>
</g>
<!-- Node9 -->
<g id="Node000009" class="node">
<title>Node9</title>
<g id="a_Node000009"><a xlink:href="../../d9/d04/classengine_1_1direct3d_1_1_deferred_h_d_r_render_pipeline.html" target="_top" xlink:title=" ">
<polygon fill="white" stroke="#666666" points="640.75,-199.88 516,-199.88 516,-169.38 640.75,-169.38 640.75,-199.88"/>
<text text-anchor="start" x="524" y="-186.38" font-family="Helvetica,sans-Serif" font-size="10.00">engine::direct3d::Deferred</text>
<text text-anchor="middle" x="578.38" y="-175.12" font-family="Helvetica,sans-Serif" font-size="10.00">HDRRenderPipeline</text>
</a>
</g>
</g>
<!-- Node8&#45;&gt;Node9 -->
<g id="edge8_Node000008_Node000009" class="edge">
<title>Node8&#45;&gt;Node9</title>
<g id="a_edge8_Node000008_Node000009"><a xlink:title=" ">
<path fill="none" stroke="#63b8ff" d="M479.49,-184.62C491.58,-184.62 503.9,-184.62 515.54,-184.62"/>
<polygon fill="#63b8ff" stroke="#63b8ff" points="479.51,-181.13 469.51,-184.63 479.51,-188.13 479.51,-181.13"/>
</a>
</g>
</g>
<!-- Node12 -->
<g id="Node000012" class="node">
<title>Node12</title>
<g id="a_Node000012"><a xlink:href="../../d0/de6/classengine_1_1platform_1_1windows_1_1_window.html" target="_top" xlink:title=" ">
<polygon fill="white" stroke="#666666" points="462.38,-141.88 335.38,-141.88 335.38,-111.38 462.38,-111.38 462.38,-141.88"/>
<text text-anchor="start" x="343.38" y="-128.38" font-family="Helvetica,sans-Serif" font-size="10.00">engine::platform::windows</text>
<text text-anchor="middle" x="398.88" y="-117.12" font-family="Helvetica,sans-Serif" font-size="10.00">::Window</text>
</a>
</g>
</g>
<!-- Node11&#45;&gt;Node12 -->
<g id="edge11_Node000011_Node000012" class="edge">
<title>Node11&#45;&gt;Node12</title>
<g id="a_edge11_Node000011_Node000012"><a xlink:title=" ">
<path fill="none" stroke="#63b8ff" d="M272,-121.32C292.33,-122.18 314.77,-123.12 335.02,-123.98"/>
<polygon fill="#63b8ff" stroke="#63b8ff" points="272.29,-117.83 262.15,-120.91 271.99,-124.82 272.29,-117.83"/>
</a>
</g>
</g>
<!-- Node14 -->
<g id="Node000014" class="node">
<title>Node14</title>
<g id="a_Node000014"><a xlink:href="../../dd/d52/classengine_1_1render_1_1_h_d_rto_l_d_r_layer.html" target="_top" xlink:title=" ">
<polygon fill="white" stroke="#666666" points="475.5,-93.25 322.25,-93.25 322.25,-74 475.5,-74 475.5,-93.25"/>
<text text-anchor="middle" x="398.88" y="-79.75" font-family="Helvetica,sans-Serif" font-size="10.00">engine::render::HDRtoLDRLayer</text>
</a>
</g>
</g>
<!-- Node13&#45;&gt;Node14 -->
<g id="edge13_Node000013_Node000014" class="edge">
<title>Node13&#45;&gt;Node14</title>
<g id="a_edge13_Node000013_Node000014"><a xlink:title=" ">
<path fill="none" stroke="#63b8ff" d="M293.61,-79.23C303.02,-79.63 312.55,-80.03 321.82,-80.42"/>
<polygon fill="#63b8ff" stroke="#63b8ff" points="293.88,-75.74 283.74,-78.82 293.58,-82.73 293.88,-75.74"/>
</a>
</g>
</g>
<!-- Node15 -->
<g id="Node000015" class="node">
<title>Node15</title>
<g id="a_Node000015"><a xlink:href="../../df/df1/classengine_1_1render_1_1_post_processing.html" target="_top" xlink:title=" ">
<polygon fill="white" stroke="#666666" points="473.62,-56.25 324.12,-56.25 324.12,-37 473.62,-37 473.62,-56.25"/>
<text text-anchor="middle" x="398.88" y="-42.75" font-family="Helvetica,sans-Serif" font-size="10.00">engine::render::PostProcessing</text>
</a>
</g>
</g>
<!-- Node13&#45;&gt;Node15 -->
<g id="edge14_Node000013_Node000015" class="edge">
<title>Node13&#45;&gt;Node15</title>
<g id="a_edge14_Node000013_Node000015"><a xlink:title=" ">
<path fill="none" stroke="#63b8ff" d="M293.43,-62.58C306.28,-60.61 319.37,-58.62 331.73,-56.73"/>
<polygon fill="#63b8ff" stroke="#63b8ff" points="293.08,-59.09 283.72,-64.06 294.14,-66.01 293.08,-59.09"/>
</a>
</g>
</g>
<!-- Node16 -->
<g id="Node000016" class="node">
<title>Node16</title>
<g id="a_Node000016"><a xlink:href="../../d3/df2/classengine_1_1render_1_1_present_swapchain.html" target="_top" xlink:title=" ">
<polygon fill="white" stroke="#666666" points="480,-19.25 317.75,-19.25 317.75,0 480,0 480,-19.25"/>
<text text-anchor="middle" x="398.88" y="-5.75" font-family="Helvetica,sans-Serif" font-size="10.00">engine::render::PresentSwapchain</text>
</a>
</g>
</g>
<!-- Node13&#45;&gt;Node16 -->
<g id="edge15_Node000013_Node000016" class="edge">
<title>Node13&#45;&gt;Node16</title>
<g id="a_edge15_Node000013_Node000016"><a xlink:title=" ">
<path fill="none" stroke="#63b8ff" d="M272.31,-55.88C275.53,-54.52 278.7,-53.1 281.75,-51.62 299.05,-43.24 300.07,-35.19 317.75,-27.62 325.09,-24.48 333.05,-21.85 341.01,-19.66"/>
<polygon fill="#63b8ff" stroke="#63b8ff" points="271.28,-52.53 263.26,-59.45 273.85,-59.04 271.28,-52.53"/>
</a>
</g>
</g>
</g>
</svg>
