<?xml version="1.0" encoding="UTF-8" standalone="no"?>
<!DOCTYPE svg PUBLIC "-//W3C//DTD SVG 1.1//EN"
 "http://www.w3.org/Graphics/SVG/1.1/DTD/svg11.dtd">
<!-- Generated by graphviz version 8.1.0 (20230707.0739)
 -->
<!-- Title: engine::core::Layer Pages: 1 -->
<!--zoomable 321 -->

<svg id="main" version="1.1" xmlns="http://www.w3.org/2000/svg" xmlns:xlink="http://www.w3.org/1999/xlink" xml:space="preserve" onload="init(evt)">
<style type="text/css"><![CDATA[
.node, .edge {opacity: 0.7;}
.node.selected, .edge.selected {opacity: 1;}
.edge:hover path { stroke: red; }
.edge:hover polygon { stroke: red; fill: red; }
]]></style>

<defs>
  <circle id="rim" cx="0" cy="0" r="7"/>
  <circle id="rim2" cx="0" cy="0" r="3.5"/>
  <g id="zoomPlus">
    <use xlink:href="#rim" fill="#404040"><set attributeName="fill" to="#808080" begin="zoomplus.mouseover" end="zoomplus.mouseout"/></use>
    <path d="M-4,0h8M0,-4v8" fill="none" stroke="white" stroke-width="1.5" pointer-events="none"/>
  </g>
  <g id="zoomMin">
    <use xlink:href="#rim" fill="#404040"><set attributeName="fill" to="#808080" begin="zoomminus.mouseover" end="zoomminus.mouseout"/></use>
    <path d="M-4,0h8" fill="none" stroke="white" stroke-width="1.5" pointer-events="none"/>
  </g>
  <g id="arrowUp" transform="translate(30 24)">
    <use xlink:href="#rim"/>
    <path pointer-events="none" fill="none" stroke="white" stroke-width="1.5" d="M0,-3.0v7 M-2.5,-0.5L0,-3.0L2.5,-0.5"/>
  </g>
  <g id="arrowRight" transform="rotate(90) translate(36 -43)">
    <use xlink:href="#rim"/>
    <path pointer-events="none" fill="none" stroke="white" stroke-width="1.5" d="M0,-3.0v7 M-2.5,-0.5L0,-3.0L2.5,-0.5"/>
  </g>
  <g id="arrowDown" transform="rotate(180) translate(-30 -48)">
    <use xlink:href="#rim"/>
    <path pointer-events="none" fill="none" stroke="white" stroke-width="1.5" d="M0,-3.0v7 M-2.5,-0.5L0,-3.0L2.5,-0.5"/>
  </g>
  <g id="arrowLeft" transform="rotate(270) translate(-36 17)">
    <use xlink:href="#rim"/>
    <path pointer-events="none" fill="none" stroke="white" stroke-width="1.5" d="M0,-3.0v7 M-2.5,-0.5L0,-3.0L2.5,-0.5"/>
  </g>
  <g id="resetDef">
    <use xlink:href="#rim2" fill="#404040"><set attributeName="fill" to="#808080" begin="reset.mouseover" end="reset.mouseout"/></use>
  </g>
</defs>
<script type="application/ecmascript">
var viewWidth = 649;
var viewHeight = 321;
var sectionId = 'dynsection-0';
</script>
<script type="application/ecmascript" xlink:href="../../svg.min.js"/>
<svg id="graph" class="graph">
<g id="viewport">
<title>engine::core::Layer</title>
<!-- Node1 -->
<g id="Node000001" class="node">
<title>Node1</title>
<g id="a_Node000001"><a xlink:title=" ">
<polygon fill="#999999" stroke="#666666" points="96.25,-183.25 0,-183.25 0,-164 96.25,-164 96.25,-183.25"/>
<text text-anchor="middle" x="48.12" y="-169.75" font-family="Helvetica,sans-Serif" font-size="10.00">engine::core::Layer</text>
</a>
</g>
</g>
<!-- Node2 -->
<g id="Node000002" class="node">
<title>Node2</title>
<g id="a_Node000002"><a xlink:href="../../d8/d87/class_controller.html" target="_top" xlink:title=" ">
<polygon fill="white" stroke="#666666" points="235.62,-313.25 178.38,-313.25 178.38,-294 235.62,-294 235.62,-313.25"/>
<text text-anchor="middle" x="207" y="-299.75" font-family="Helvetica,sans-Serif" font-size="10.00">Controller</text>
</a>
</g>
</g>
<!-- Node1&#45;&gt;Node2 -->
<g id="edge1_Node000001_Node000002" class="edge">
<title>Node1&#45;&gt;Node2</title>
<g id="a_edge1_Node000001_Node000002"><a xlink:title=" ">
<path fill="none" stroke="#63b8ff" d="M58.22,-193.13C71.06,-218.46 96.94,-262.2 132.25,-285.62 145.76,-294.59 163.31,-299.09 177.9,-301.36"/>
<polygon fill="#63b8ff" stroke="#63b8ff" points="61.06,-191.97 53.52,-184.51 54.77,-195.04 61.06,-191.97"/>
</a>
</g>
</g>
<!-- Node3 -->
<g id="Node000003" class="node">
<title>Node3</title>
<g id="a_Node000003"><a xlink:href="../../da/d3d/classengine_1_1core_1_1_im_gui_layer.html" target="_top" xlink:title=" ">
<polygon fill="white" stroke="#666666" points="268.25,-276.25 145.75,-276.25 145.75,-257 268.25,-257 268.25,-276.25"/>
<text text-anchor="middle" x="207" y="-262.75" font-family="Helvetica,sans-Serif" font-size="10.00">engine::core::ImGuiLayer</text>
</a>
</g>
</g>
<!-- Node1&#45;&gt;Node3 -->
<g id="edge2_Node000001_Node000003" class="edge">
<title>Node1&#45;&gt;Node3</title>
<g id="a_edge2_Node000001_Node000003"><a xlink:title=" ">
<path fill="none" stroke="#63b8ff" d="M64.3,-191.74C79.68,-208.93 105.04,-234.22 132.25,-248.62 138.19,-251.77 144.69,-254.37 151.29,-256.53"/>
<polygon fill="#63b8ff" stroke="#63b8ff" points="66.41,-189.84 57.2,-184.59 61.13,-194.43 66.41,-189.84"/>
</a>
</g>
</g>
<!-- Node4 -->
<g id="Node000004" class="node">
<title>Node4</title>
<g id="a_Node000004"><a xlink:href="../../da/df3/classengine_1_1core_1_1_input_layer.html" target="_top" xlink:title=" ">
<polygon fill="white" stroke="#666666" points="266,-239.25 148,-239.25 148,-220 266,-220 266,-239.25"/>
<text text-anchor="middle" x="207" y="-225.75" font-family="Helvetica,sans-Serif" font-size="10.00">engine::core::InputLayer</text>
</a>
</g>
</g>
<!-- Node1&#45;&gt;Node4 -->
<g id="edge3_Node000001_Node000004" class="edge">
<title>Node1&#45;&gt;Node4</title>
<g id="a_edge3_Node000001_Node000004"><a xlink:title=" ">
<path fill="none" stroke="#63b8ff" d="M77.86,-188.39C93.62,-196.08 113.68,-205.18 132.25,-211.62 140.72,-214.56 149.89,-217.21 158.79,-219.51"/>
<polygon fill="#63b8ff" stroke="#63b8ff" points="79.7,-184.9 69.18,-183.59 76.59,-191.17 79.7,-184.9"/>
</a>
</g>
</g>
<!-- Node5 -->
<g id="Node000005" class="node">
<title>Node5</title>
<g id="a_Node000005"><a xlink:href="../../d6/d88/classengine_1_1core_1_1_layer_stack.html" target="_top" xlink:title=" ">
<polygon fill="white" stroke="#666666" points="267.88,-202.25 146.12,-202.25 146.12,-183 267.88,-183 267.88,-202.25"/>
<text text-anchor="middle" x="207" y="-188.75" font-family="Helvetica,sans-Serif" font-size="10.00">engine::core::LayerStack</text>
</a>
</g>
</g>
<!-- Node1&#45;&gt;Node5 -->
<g id="edge4_Node000001_Node000005" class="edge">
<title>Node1&#45;&gt;Node5</title>
<g id="a_edge4_Node000001_Node000005"><a xlink:title=" ">
<path fill="none" stroke="#63b8ff" d="M107.42,-180.69C119.97,-182.21 133.26,-183.81 145.88,-185.34"/>
<polygon fill="#63b8ff" stroke="#63b8ff" points="107.97,-177.11 97.62,-179.38 107.12,-184.05 107.97,-177.11"/>
</a>
</g>
</g>
<!-- Node10 -->
<g id="Node000010" class="node">
<title>Node10</title>
<g id="a_Node000010"><a xlink:href="../../d1/d8a/classengine_1_1core_1_1_shader_manager.html" target="_top" xlink:title=" ">
<polygon fill="white" stroke="#666666" points="277.25,-165.25 136.75,-165.25 136.75,-146 277.25,-146 277.25,-165.25"/>
<text text-anchor="middle" x="207" y="-151.75" font-family="Helvetica,sans-Serif" font-size="10.00">engine::core::ShaderManager</text>
</a>
</g>
</g>
<!-- Node1&#45;&gt;Node10 -->
<g id="edge9_Node000001_Node000010" class="edge">
<title>Node1&#45;&gt;Node10</title>
<g id="a_edge9_Node000001_Node000010"><a xlink:title=" ">
<path fill="none" stroke="#63b8ff" d="M107.46,-166.93C116.88,-165.85 126.72,-164.72 136.38,-163.61"/>
<polygon fill="#63b8ff" stroke="#63b8ff" points="107.15,-163.56 97.62,-168.18 107.95,-170.51 107.15,-163.56"/>
</a>
</g>
</g>
<!-- Node11 -->
<g id="Node000011" class="node">
<title>Node11</title>
<g id="a_Node000011"><a xlink:href="../../dd/d52/classengine_1_1core_1_1_window.html" target="_top" xlink:title=" ">
<polygon fill="white" stroke="#666666" points="260.38,-128.25 153.62,-128.25 153.62,-109 260.38,-109 260.38,-128.25"/>
<text text-anchor="middle" x="207" y="-114.75" font-family="Helvetica,sans-Serif" font-size="10.00">engine::core::Window</text>
</a>
</g>
</g>
<!-- Node1&#45;&gt;Node11 -->
<g id="edge10_Node000001_Node000011" class="edge">
<title>Node1&#45;&gt;Node11</title>
<g id="a_edge10_Node000001_Node000011"><a xlink:title=" ">
<path fill="none" stroke="#63b8ff" d="M78.53,-158.99C94.21,-151.58 113.98,-142.86 132.25,-136.62 140.86,-133.69 150.18,-131.02 159.21,-128.7"/>
<polygon fill="#63b8ff" stroke="#63b8ff" points="77.38,-156.14 69.88,-163.62 80.41,-162.45 77.38,-156.14"/>
</a>
</g>
</g>
<!-- Node13 -->
<g id="Node000013" class="node">
<title>Node13</title>
<g id="a_Node000013"><a xlink:href="../../d9/d60/classengine_1_1render_1_1_post_processing_layer.html" target="_top" xlink:title=" ">
<polygon fill="white" stroke="#666666" points="281.75,-90.88 132.25,-90.88 132.25,-60.38 281.75,-60.38 281.75,-90.88"/>
<text text-anchor="start" x="140.25" y="-77.38" font-family="Helvetica,sans-Serif" font-size="10.00">engine::render::PostProcessing</text>
<text text-anchor="middle" x="207" y="-66.12" font-family="Helvetica,sans-Serif" font-size="10.00">Layer</text>
</a>
</g>
</g>
<!-- Node1&#45;&gt;Node13 -->
<g id="edge12_Node000001_Node000013" class="edge">
<title>Node1&#45;&gt;Node13</title>
<g id="a_edge12_Node000001_Node000013"><a xlink:title=" ">
<path fill="none" stroke="#63b8ff" d="M65.09,-155.66C80.74,-139.04 105.99,-114.69 132.25,-99.62 137.62,-96.54 143.44,-93.79 149.38,-91.36"/>
<polygon fill="#63b8ff" stroke="#63b8ff" points="63.03,-152.83 58.84,-162.56 68.18,-157.56 63.03,-152.83"/>
</a>
</g>
</g>
<!-- Node17 -->
<g id="Node000017" class="node">
<title>Node17</title>
<g id="a_Node000017"><a xlink:href="../../d9/d64/classengine_1_1utils_1_1_file_watcher.html" target="_top" xlink:title=" ">
<polygon fill="white" stroke="#666666" points="268.62,-42.25 145.38,-42.25 145.38,-23 268.62,-23 268.62,-42.25"/>
<text text-anchor="middle" x="207" y="-28.75" font-family="Helvetica,sans-Serif" font-size="10.00">engine::utils::FileWatcher</text>
</a>
</g>
</g>
<!-- Node1&#45;&gt;Node17 -->
<g id="edge16_Node000001_Node000017" class="edge">
<title>Node1&#45;&gt;Node17</title>
<g id="a_edge16_Node000001_Node000017"><a xlink:title=" ">
<path fill="none" stroke="#63b8ff" d="M57.27,-153.64C69.45,-126.34 95.02,-77.78 132.25,-51.62 137.44,-47.98 143.28,-45.03 149.34,-42.65"/>
<polygon fill="#63b8ff" stroke="#63b8ff" points="53.72,-152.03 53.01,-162.6 60.16,-154.79 53.72,-152.03"/>
</a>
</g>
</g>
<!-- Node6 -->
<g id="Node000006" class="node">
<title>Node6</title>
<g id="a_Node000006"><a xlink:href="../../d2/d5c/classengine_1_1core_1_1_layer_stack_threadsafe.html" target="_top" xlink:title=" ">
<polygon fill="white" stroke="#666666" points="459.75,-242.88 338,-242.88 338,-212.38 459.75,-212.38 459.75,-242.88"/>
<text text-anchor="start" x="346" y="-229.38" font-family="Helvetica,sans-Serif" font-size="10.00">engine::core::LayerStack</text>
<text text-anchor="middle" x="398.88" y="-218.12" font-family="Helvetica,sans-Serif" font-size="10.00">Threadsafe</text>
</a>
</g>
</g>
<!-- Node5&#45;&gt;Node6 -->
<g id="edge5_Node000005_Node000006" class="edge">
<title>Node5&#45;&gt;Node6</title>
<g id="a_edge5_Node000005_Node000006"><a xlink:title=" ">
<path fill="none" stroke="#8b1a1a" d="M273.6,-204.72C294.42,-208.56 317.34,-212.78 337.76,-216.54"/>
<polygon fill="#8b1a1a" stroke="#8b1a1a" points="274.39,-201.12 263.92,-202.75 273.12,-208 274.39,-201.12"/>
</a>
</g>
</g>
<!-- Node8 -->
<g id="Node000008" class="node">
<title>Node8</title>
<g id="a_Node000008"><a xlink:href="../../d9/d15/classengine_1_1core_1_1_render_pipeline.html" target="_top" xlink:title=" ">
<polygon fill="white" stroke="#666666" points="467.62,-194.25 330.12,-194.25 330.12,-175 467.62,-175 467.62,-194.25"/>
<text text-anchor="middle" x="398.88" y="-180.75" font-family="Helvetica,sans-Serif" font-size="10.00">engine::core::RenderPipeline</text>
</a>
</g>
</g>
<!-- Node5&#45;&gt;Node8 -->
<g id="edge7_Node000005_Node000008" class="edge">
<title>Node5&#45;&gt;Node8</title>
<g id="a_edge7_Node000005_Node000008"><a xlink:title=" ">
<path fill="none" stroke="#63b8ff" d="M279.07,-189.63C295.67,-188.93 313.3,-188.19 329.77,-187.49"/>
<polygon fill="#63b8ff" stroke="#63b8ff" points="279.18,-186.16 269.34,-190.08 279.48,-193.16 279.18,-186.16"/>
</a>
</g>
</g>
<!-- Node7 -->
<g id="Node000007" class="node">
<title>Node7</title>
<g id="a_Node000007"><a xlink:href="../../da/d33/classengine_1_1core_1_1_engine.html" target="_top" xlink:title="Represents the core of the engine.">
<polygon fill="white" stroke="#666666" points="629.12,-237.25 527.62,-237.25 527.62,-218 629.12,-218 629.12,-237.25"/>
<text text-anchor="middle" x="578.38" y="-223.75" font-family="Helvetica,sans-Serif" font-size="10.00">engine::core::Engine</text>
</a>
</g>
</g>
<!-- Node6&#45;&gt;Node7 -->
<g id="edge6_Node000006_Node000007" class="edge">
<title>Node6&#45;&gt;Node7</title>
<g id="a_edge6_Node000006_Node000007"><a xlink:title=" ">
<path fill="none" stroke="#8b1a1a" d="M470.94,-227.62C489.85,-227.62 509.87,-227.62 527.39,-227.62"/>
<polygon fill="#8b1a1a" stroke="#8b1a1a" points="470.97,-224.13 460.97,-227.62 470.97,-231.13 470.97,-224.13"/>
</a>
</g>
</g>
<!-- Node9 -->
<g id="Node000009" class="node">
<title>Node9</title>
<g id="a_Node000009"><a xlink:href="../../d9/d04/classengine_1_1direct3d_1_1_deferred_h_d_r_render_pipeline.html" target="_top" xlink:title=" ">
<polygon fill="white" stroke="#666666" points="640.75,-199.88 516,-199.88 516,-169.38 640.75,-169.38 640.75,-199.88"/>
<text text-anchor="start" x="524" y="-186.38" font-family="Helvetica,sans-Serif" font-size="10.00">engine::direct3d::Deferred</text>
<text text-anchor="middle" x="578.38" y="-175.12" font-family="Helvetica,sans-Serif" font-size="10.00">HDRRenderPipeline</text>
</a>
</g>
</g>
<!-- Node8&#45;&gt;Node9 -->
<g id="edge8_Node000008_Node000009" class="edge">
<title>Node8&#45;&gt;Node9</title>
<g id="a_edge8_Node000008_Node000009"><a xlink:title=" ">
<path fill="none" stroke="#63b8ff" d="M478.74,-184.62C491.07,-184.62 503.66,-184.62 515.54,-184.62"/>
<polygon fill="#63b8ff" stroke="#63b8ff" points="478.99,-181.13 468.99,-184.62 478.99,-188.13 478.99,-181.13"/>
</a>
</g>
</g>
<!-- Node12 -->
<g id="Node000012" class="node">
<title>Node12</title>
<g id="a_Node000012"><a xlink:href="../../d0/de6/classengine_1_1platform_1_1windows_1_1_window.html" target="_top" xlink:title=" ">
<polygon fill="white" stroke="#666666" points="462.38,-141.88 335.38,-141.88 335.38,-111.38 462.38,-111.38 462.38,-141.88"/>
<text text-anchor="start" x="343.38" y="-128.38" font-family="Helvetica,sans-Serif" font-size="10.00">engine::platform::windows</text>
<text text-anchor="middle" x="398.88" y="-117.12" font-family="Helvetica,sans-Serif" font-size="10.00">::Window</text>
</a>
</g>
</g>
<!-- Node11&#45;&gt;Node12 -->
<g id="edge11_Node000011_Node000012" class="edge">
<title>Node11&#45;&gt;Node12</title>
<g id="a_edge11_Node000011_Node000012"><a xlink:title=" ">
<path fill="none" stroke="#63b8ff" d="M271.44,-121.3C291.91,-122.16 314.59,-123.12 335.02,-123.98"/>
<polygon fill="#63b8ff" stroke="#63b8ff" points="271.78,-117.77 261.64,-120.84 271.48,-124.76 271.78,-117.77"/>
</a>
</g>
</g>
<!-- Node14 -->
<g id="Node000014" class="node">
<title>Node14</title>
<g id="a_Node000014"><a xlink:href="../../dd/d52/classengine_1_1render_1_1_h_d_rto_l_d_r_layer.html" target="_top" xlink:title=" ">
<polygon fill="white" stroke="#666666" points="475.5,-93.25 322.25,-93.25 322.25,-74 475.5,-74 475.5,-93.25"/>
<text text-anchor="middle" x="398.88" y="-79.75" font-family="Helvetica,sans-Serif" font-size="10.00">engine::render::HDRtoLDRLayer</text>
</a>
</g>
</g>
<!-- Node13&#45;&gt;Node14 -->
<g id="edge13_Node000013_Node000014" class="edge">
<title>Node13&#45;&gt;Node14</title>
<g id="a_edge13_Node000013_Node000014"><a xlink:title=" ">
<path fill="none" stroke="#63b8ff" d="M292.99,-79.21C302.6,-79.61 312.34,-80.02 321.82,-80.42"/>
<polygon fill="#63b8ff" stroke="#63b8ff" points="293.36,-75.68 283.23,-78.75 293.07,-82.67 293.36,-75.68"/>
</a>
</g>
</g>
<!-- Node15 -->
<g id="Node000015" class="node">
<title>Node15</title>
<g id="a_Node000015"><a xlink:href="../../df/df1/classengine_1_1render_1_1_post_processing.html" target="_top" xlink:title=" ">
<polygon fill="white" stroke="#666666" points="473.62,-56.25 324.12,-56.25 324.12,-37 473.62,-37 473.62,-56.25"/>
<text text-anchor="middle" x="398.88" y="-42.75" font-family="Helvetica,sans-Serif" font-size="10.00">engine::render::PostProcessing</text>
</a>
</g>
</g>
<!-- Node13&#45;&gt;Node15 -->
<g id="edge14_Node000013_Node000015" class="edge">
<title>Node13&#45;&gt;Node15</title>
<g id="a_edge14_Node000013_Node000015"><a xlink:title=" ">
<path fill="none" stroke="#63b8ff" d="M293.04,-62.64C306.02,-60.65 319.24,-58.63 331.73,-56.73"/>
<polygon fill="#63b8ff" stroke="#63b8ff" points="292.58,-59.32 283.23,-64.29 293.64,-66.24 292.58,-59.32"/>
</a>
</g>
</g>
<!-- Node16 -->
<g id="Node000016" class="node">
<title>Node16</title>
<g id="a_Node000016"><a xlink:href="../../d3/df2/classengine_1_1render_1_1_present_swapchain.html" target="_top" xlink:title=" ">
<polygon fill="white" stroke="#666666" points="480,-19.25 317.75,-19.25 317.75,0 480,0 480,-19.25"/>
<text text-anchor="middle" x="398.88" y="-5.75" font-family="Helvetica,sans-Serif" font-size="10.00">engine::render::PresentSwapchain</text>
</a>
</g>
</g>
<!-- Node13&#45;&gt;Node16 -->
<g id="edge15_Node000013_Node000016" class="edge">
<title>Node13&#45;&gt;Node16</title>
<g id="a_edge15_Node000013_Node000016"><a xlink:title=" ">
<path fill="none" stroke="#63b8ff" d="M271.99,-56.01C275.33,-54.62 278.6,-53.15 281.75,-51.62 299.05,-43.24 300.07,-35.19 317.75,-27.62 325.09,-24.48 333.05,-21.85 341.01,-19.66"/>
<polygon fill="#63b8ff" stroke="#63b8ff" points="270.87,-53.09 262.85,-60.01 273.44,-59.6 270.87,-53.09"/>
</a>
</g>
</g>
</g>
</svg>

<g id="navigator" transform="translate(0 0)" fill="#404254">
  <rect fill="#f2f5e9" fill-opacity="0.5" stroke="#606060" stroke-width=".5" x="0" y="0" width="60" height="60"/>
  <use id="zoomplus" xlink:href="#zoomPlus" x="17" y="9" onmousedown="handleZoom(evt,'in')"/>
  <use id="zoomminus" xlink:href="#zoomMin" x="42" y="9" onmousedown="handleZoom(evt,'out')"/>
  <use id="reset" xlink:href="#resetDef" x="30" y="36" onmousedown="handleReset()"/>
   <use id="arrowup" xlink:href="#arrowUp" x="0" y="0" onmousedown="handlePan(0,-1)"/>
  <use id="arrowright" xlink:href="#arrowRight" x="0" y="0" onmousedown="handlePan(1,0)"/>
  <use id="arrowdown" xlink:href="#arrowDown" x="0" y="0" onmousedown="handlePan(0,1)"/>
  <use id="arrowleft" xlink:href="#arrowLeft" x="0" y="0" onmousedown="handlePan(-1,0)"/>
</g>
<svg viewBox="0 0 15 15" width="100%" height="30px" preserveAspectRatio="xMaxYMin meet">
 <g id="arrow_out" transform="scale(0.3 0.3)">
  <a xlink:href="classengine_1_1core_1_1_layer__inherit__graph_org.svg" target="_base">
   <rect id="button" ry="5" rx="5" y="6" x="6" height="38" width="38"
        fill="#f2f5e9" fill-opacity="0.5" stroke="#606060" stroke-width="1.0"/>
   <path id="arrow"
     d="M 11.500037,31.436501 C 11.940474,20.09759 22.043105,11.32322 32.158766,21.979434 L 37.068811,17.246167 C 37.068811,17.246167 37.088388,32 37.088388,32 L 22.160133,31.978069 C 22.160133,31.978069 26.997745,27.140456 26.997745,27.140456 C 18.528582,18.264221 13.291696,25.230495 11.500037,31.436501 z"
     style="fill:#404040;"/>
  </a>
 </g>
</svg>

<style type='text/css'>
<![CDATA[
[data-mouse-over-selected='false'] { opacity: 0.7; }
[data-mouse-over-selected='true']  { opacity: 1.0; }
]]>
</style>
<script type="application/ecmascript"><![CDATA[
document.addEventListener('DOMContentLoaded', (event) => {
  highlightEdges();
  highlightAdjacentNodes();
});
]]></script>
</svg>
