<?xml version="1.0" encoding="UTF-8" standalone="no"?>
<!DOCTYPE svg PUBLIC "-//W3C//DTD SVG 1.1//EN"
 "http://www.w3.org/Graphics/SVG/1.1/DTD/svg11.dtd">
<!-- Generated by graphviz version 8.1.0 (20230707.0739)
 -->
<!-- Title: engine/subsystems/render/model&#45;system.hpp Pages: 1 -->
<svg width="1916pt" height="504pt"
 viewBox="0.00 0.00 1915.61 504.00" xmlns="http://www.w3.org/2000/svg" xmlns:xlink="http://www.w3.org/1999/xlink">
<g id="graph0" class="graph" transform="scale(1 1) rotate(0) translate(4 500)">
<title>engine/subsystems/render/model&#45;system.hpp</title>
<!-- Node1 -->
<g id="Node000001" class="node">
<title>Node1</title>
<g id="a_Node000001"><a xlink:title=" ">
<polygon fill="#999999" stroke="#666666" points="1571.74,-496 1441.74,-496 1441.74,-465.5 1571.74,-465.5 1571.74,-496"/>
<text text-anchor="start" x="1449.74" y="-482.5" font-family="Helvetica,sans-Serif" font-size="10.00">engine/subsystems/render</text>
<text text-anchor="middle" x="1506.74" y="-471.25" font-family="Helvetica,sans-Serif" font-size="10.00">/model&#45;system.hpp</text>
</a>
</g>
</g>
<!-- Node2 -->
<g id="Node000002" class="node">
<title>Node2</title>
<g id="a_Node000002"><a xlink:href="../../d1/dae/renderer_8hpp.html" target="_top" xlink:title=" ">
<polygon fill="white" stroke="#666666" points="687.11,-423.88 556.36,-423.88 556.36,-404.62 687.11,-404.62 687.11,-423.88"/>
<text text-anchor="middle" x="621.74" y="-410.38" font-family="Helvetica,sans-Serif" font-size="10.00">engine/render/renderer.hpp</text>
</a>
</g>
</g>
<!-- Node1&#45;&gt;Node2 -->
<g id="edge1_Node000001_Node000002" class="edge">
<title>Node1&#45;&gt;Node2</title>
<g id="a_edge1_Node000001_Node000002"><a xlink:title=" ">
<path fill="none" stroke="#63b8ff" d="M1430.39,-474.19C1259.36,-461.72 847.95,-431.74 687.44,-420.04"/>
<polygon fill="#63b8ff" stroke="#63b8ff" points="1430.07,-477.74 1440.3,-474.98 1430.58,-470.76 1430.07,-477.74"/>
</a>
</g>
</g>
<!-- Node16 -->
<g id="Node000016" class="node">
<title>Node16</title>
<g id="a_Node000016"><a xlink:href="../../d8/d30/decal-render-system_8cpp.html" target="_top" xlink:title=" ">
<polygon fill="white" stroke="#666666" points="487.24,-91.38 336.24,-91.38 336.24,-60.88 487.24,-60.88 487.24,-91.38"/>
<text text-anchor="start" x="344.24" y="-77.88" font-family="Helvetica,sans-Serif" font-size="10.00">engine/subsystems/render</text>
<text text-anchor="middle" x="411.74" y="-66.62" font-family="Helvetica,sans-Serif" font-size="10.00">/detail/decal&#45;render&#45;system.cpp</text>
</a>
</g>
</g>
<!-- Node1&#45;&gt;Node16 -->
<g id="edge43_Node000001_Node000016" class="edge">
<title>Node1&#45;&gt;Node16</title>
<g id="a_edge43_Node000001_Node000016"><a xlink:title=" ">
<path fill="none" stroke="#63b8ff" d="M1430.63,-480.45C1216.27,-481.78 618.46,-480.79 547.74,-429.5 431.48,-345.2 414.6,-147.25 412.15,-91.8"/>
<polygon fill="#63b8ff" stroke="#63b8ff" points="1430.48,-483.94 1440.46,-480.38 1430.44,-476.95 1430.48,-483.94"/>
</a>
</g>
</g>
<!-- Node17 -->
<g id="Node000017" class="node">
<title>Node17</title>
<g id="a_Node000017"><a xlink:href="../../d1/d58/dissolution-render-system_8cpp.html" target="_top" xlink:title=" ">
<polygon fill="white" stroke="#666666" points="1743.74,-97 1613.74,-97 1613.74,-55.25 1743.74,-55.25 1743.74,-97"/>
<text text-anchor="start" x="1621.74" y="-83.5" font-family="Helvetica,sans-Serif" font-size="10.00">engine/subsystems/render</text>
<text text-anchor="start" x="1621.74" y="-72.25" font-family="Helvetica,sans-Serif" font-size="10.00">/detail/dissolution&#45;render</text>
<text text-anchor="middle" x="1678.74" y="-61" font-family="Helvetica,sans-Serif" font-size="10.00">&#45;system.cpp</text>
</a>
</g>
</g>
<!-- Node1&#45;&gt;Node17 -->
<g id="edge44_Node000001_Node000017" class="edge">
<title>Node1&#45;&gt;Node17</title>
<g id="a_edge44_Node000001_Node000017"><a xlink:title=" ">
<path fill="none" stroke="#63b8ff" d="M1525.59,-456.35C1543.83,-431.28 1568.74,-389.58 1568.74,-348.75 1568.74,-348.75 1568.74,-348.75 1568.74,-208.12 1568.74,-173.07 1571.47,-160.86 1592.74,-133 1603.97,-118.28 1620.27,-106.3 1635.67,-97.26"/>
<polygon fill="#63b8ff" stroke="#63b8ff" points="1522.21,-454.01 1518.99,-464.1 1527.8,-458.22 1522.21,-454.01"/>
</a>
</g>
</g>
<!-- Node18 -->
<g id="Node000018" class="node">
<title>Node18</title>
<g id="a_Node000018"><a xlink:href="../../d2/d11/emissive-particle-render-system_8cpp.html" target="_top" xlink:title=" ">
<polygon fill="white" stroke="#666666" points="1595.74,-97 1465.74,-97 1465.74,-55.25 1595.74,-55.25 1595.74,-97"/>
<text text-anchor="start" x="1473.74" y="-83.5" font-family="Helvetica,sans-Serif" font-size="10.00">engine/subsystems/render</text>
<text text-anchor="start" x="1473.74" y="-72.25" font-family="Helvetica,sans-Serif" font-size="10.00">/detail/emissive&#45;particle</text>
<text text-anchor="middle" x="1530.74" y="-61" font-family="Helvetica,sans-Serif" font-size="10.00">&#45;render&#45;system.cpp</text>
</a>
</g>
</g>
<!-- Node1&#45;&gt;Node18 -->
<g id="edge45_Node000001_Node000018" class="edge">
<title>Node1&#45;&gt;Node18</title>
<g id="a_edge45_Node000001_Node000018"><a xlink:title=" ">
<path fill="none" stroke="#63b8ff" d="M1514.07,-454.9C1521.12,-428.73 1530.74,-386.21 1530.74,-348.75 1530.74,-348.75 1530.74,-348.75 1530.74,-208.12 1530.74,-168.78 1530.74,-122.79 1530.74,-97.1"/>
<polygon fill="#63b8ff" stroke="#63b8ff" points="1510.46,-453.8 1511.14,-464.37 1517.2,-455.68 1510.46,-453.8"/>
</a>
</g>
</g>
<!-- Node20 -->
<g id="Node000020" class="node">
<title>Node20</title>
<g id="a_Node000020"><a xlink:href="../../d8/d9c/light-render-system_8cpp.html" target="_top" xlink:title=" ">
<polygon fill="white" stroke="#666666" points="1907.61,-91.38 1761.86,-91.38 1761.86,-60.88 1907.61,-60.88 1907.61,-91.38"/>
<text text-anchor="start" x="1769.86" y="-77.88" font-family="Helvetica,sans-Serif" font-size="10.00">engine/subsystems/render</text>
<text text-anchor="middle" x="1834.74" y="-66.62" font-family="Helvetica,sans-Serif" font-size="10.00">/detail/light&#45;render&#45;system.cpp</text>
</a>
</g>
</g>
<!-- Node1&#45;&gt;Node20 -->
<g id="edge47_Node000001_Node000020" class="edge">
<title>Node1&#45;&gt;Node20</title>
<g id="a_edge47_Node000001_Node000020"><a xlink:title=" ">
<path fill="none" stroke="#63b8ff" d="M1537.16,-458.58C1566.58,-435.36 1606.74,-395.16 1606.74,-348.75 1606.74,-348.75 1606.74,-348.75 1606.74,-208.12 1606.74,-165.78 1726.45,-116.02 1792.39,-91.82"/>
<polygon fill="#63b8ff" stroke="#63b8ff" points="1535.27,-456.38 1529.44,-465.23 1539.51,-461.95 1535.27,-456.38"/>
</a>
</g>
</g>
<!-- Node27 -->
<g id="Node000027" class="node">
<title>Node27</title>
<g id="a_Node000027"><a xlink:href="../../d8/dcb/emissive-render-system_8cpp.html" target="_top" xlink:title=" ">
<polygon fill="white" stroke="#666666" points="1246.74,-296.5 1116.74,-296.5 1116.74,-254.75 1246.74,-254.75 1246.74,-296.5"/>
<text text-anchor="start" x="1124.74" y="-283" font-family="Helvetica,sans-Serif" font-size="10.00">engine/subsystems/render</text>
<text text-anchor="start" x="1124.74" y="-271.75" font-family="Helvetica,sans-Serif" font-size="10.00">/detail/emissive&#45;render</text>
<text text-anchor="middle" x="1181.74" y="-260.5" font-family="Helvetica,sans-Serif" font-size="10.00">&#45;system.cpp</text>
</a>
</g>
</g>
<!-- Node1&#45;&gt;Node27 -->
<g id="edge46_Node000001_Node000027" class="edge">
<title>Node1&#45;&gt;Node27</title>
<g id="a_edge46_Node000001_Node000027"><a xlink:title=" ">
<path fill="none" stroke="#63b8ff" d="M1455.62,-461.02C1434.39,-452.47 1409.83,-441.56 1388.74,-429.5 1317.76,-388.92 1242.48,-328.24 1205.32,-296.93"/>
<polygon fill="#63b8ff" stroke="#63b8ff" points="1454.16,-464.6 1464.75,-465.02 1456.73,-458.09 1454.16,-464.6"/>
</a>
</g>
</g>
<!-- Node28 -->
<g id="Node000028" class="node">
<title>Node28</title>
<g id="a_Node000028"><a xlink:href="../../d1/d62/opaque-render-system_8cpp.html" target="_top" xlink:title=" ">
<polygon fill="white" stroke="#666666" points="1424.36,-290.88 1265.11,-290.88 1265.11,-260.38 1424.36,-260.38 1424.36,-290.88"/>
<text text-anchor="start" x="1273.11" y="-277.38" font-family="Helvetica,sans-Serif" font-size="10.00">engine/subsystems/render</text>
<text text-anchor="middle" x="1344.74" y="-266.12" font-family="Helvetica,sans-Serif" font-size="10.00">/detail/opaque&#45;render&#45;system.cpp</text>
</a>
</g>
</g>
<!-- Node1&#45;&gt;Node28 -->
<g id="edge48_Node000001_Node000028" class="edge">
<title>Node1&#45;&gt;Node28</title>
<g id="a_edge48_Node000001_Node000028"><a xlink:title=" ">
<path fill="none" stroke="#63b8ff" d="M1470.08,-459.58C1437.08,-439.47 1389.87,-405.49 1363.74,-363 1349.9,-340.5 1346.08,-309.25 1345.06,-291.15"/>
<polygon fill="#63b8ff" stroke="#63b8ff" points="1468.02,-463.02 1478.41,-465.12 1471.6,-457 1468.02,-463.02"/>
</a>
</g>
</g>
<!-- Node29 -->
<g id="Node000029" class="node">
<title>Node29</title>
<g id="a_Node000029"><a xlink:href="../../d6/dab/model-loader_8cpp.html" target="_top" xlink:title=" ">
<polygon fill="white" stroke="#666666" points="1756.61,-429.5 1634.86,-429.5 1634.86,-399 1756.61,-399 1756.61,-429.5"/>
<text text-anchor="start" x="1642.86" y="-416" font-family="Helvetica,sans-Serif" font-size="10.00">engine/subsystems/core</text>
<text text-anchor="middle" x="1695.74" y="-404.75" font-family="Helvetica,sans-Serif" font-size="10.00">/model&#45;loader.cpp</text>
</a>
</g>
</g>
<!-- Node1&#45;&gt;Node29 -->
<g id="edge42_Node000001_Node000029" class="edge">
<title>Node1&#45;&gt;Node29</title>
<g id="a_edge42_Node000001_Node000029"><a xlink:title=" ">
<path fill="none" stroke="#63b8ff" d="M1559.7,-461.67C1589.06,-451.66 1625.09,-439.36 1652.69,-429.94"/>
<polygon fill="#63b8ff" stroke="#63b8ff" points="1558.96,-458.57 1550.62,-465.11 1561.22,-465.2 1558.96,-458.57"/>
</a>
</g>
</g>
<!-- Node30 -->
<g id="Node000030" class="node">
<title>Node30</title>
<g id="a_Node000030"><a xlink:href="../../d3/d4f/model-system_8cpp.html" target="_top" xlink:title=" ">
<polygon fill="white" stroke="#666666" points="1904.74,-429.5 1774.74,-429.5 1774.74,-399 1904.74,-399 1904.74,-429.5"/>
<text text-anchor="start" x="1782.74" y="-416" font-family="Helvetica,sans-Serif" font-size="10.00">engine/subsystems/render</text>
<text text-anchor="middle" x="1839.74" y="-404.75" font-family="Helvetica,sans-Serif" font-size="10.00">/model&#45;system.cpp</text>
</a>
</g>
</g>
<!-- Node1&#45;&gt;Node30 -->
<g id="edge49_Node000001_Node000030" class="edge">
<title>Node1&#45;&gt;Node30</title>
<g id="a_edge49_Node000001_Node000030"><a xlink:title=" ">
<path fill="none" stroke="#63b8ff" d="M1582.68,-465.04C1640.57,-453.83 1719.44,-438.55 1774.49,-427.89"/>
<polygon fill="#63b8ff" stroke="#63b8ff" points="1582.28,-461.75 1573.13,-467.08 1583.61,-468.62 1582.28,-461.75"/>
</a>
</g>
</g>
<!-- Node31 -->
<g id="Node000031" class="node">
<title>Node31</title>
<g id="a_Node000031"><a xlink:href="../../d6/de4/subsystems_2render_2render_8hpp.html" target="_top" xlink:title=" ">
<polygon fill="white" stroke="#666666" points="1502.74,-363 1372.74,-363 1372.74,-332.5 1502.74,-332.5 1502.74,-363"/>
<text text-anchor="start" x="1380.74" y="-349.5" font-family="Helvetica,sans-Serif" font-size="10.00">engine/subsystems/render</text>
<text text-anchor="middle" x="1437.74" y="-338.25" font-family="Helvetica,sans-Serif" font-size="10.00">/render.hpp</text>
</a>
</g>
</g>
<!-- Node1&#45;&gt;Node31 -->
<g id="edge50_Node000001_Node000031" class="edge">
<title>Node1&#45;&gt;Node31</title>
<g id="a_edge50_Node000001_Node000031"><a xlink:title=" ">
<path fill="none" stroke="#63b8ff" d="M1494.09,-455.74C1479.86,-428.72 1457.2,-385.7 1445.42,-363.33"/>
<polygon fill="#63b8ff" stroke="#63b8ff" points="1491.33,-457.01 1499.09,-464.23 1497.53,-453.75 1491.33,-457.01"/>
</a>
</g>
</g>
<!-- Node3 -->
<g id="Node000003" class="node">
<title>Node3</title>
<g id="a_Node000003"><a xlink:href="../../d1/d47/controller_8cpp.html" target="_top" xlink:title=" ">
<polygon fill="white" stroke="#666666" points="666.86,-19.25 552.61,-19.25 552.61,0 666.86,0 666.86,-19.25"/>
<text text-anchor="middle" x="609.74" y="-5.75" font-family="Helvetica,sans-Serif" font-size="10.00">d3d_test/controller.cpp</text>
</a>
</g>
</g>
<!-- Node2&#45;&gt;Node3 -->
<g id="edge2_Node000002_Node000003" class="edge">
<title>Node2&#45;&gt;Node3</title>
<g id="a_edge2_Node000002_Node000003"><a xlink:title=" ">
<path fill="none" stroke="#63b8ff" d="M593.67,-399.22C500.54,-350.93 213.89,-187.28 326.74,-55.25 355.13,-22.02 477.92,-13.39 552.12,-11.24"/>
<polygon fill="#63b8ff" stroke="#63b8ff" points="591.8,-402.71 602.3,-404.16 595,-396.48 591.8,-402.71"/>
</a>
</g>
</g>
<!-- Node4 -->
<g id="Node000004" class="node">
<title>Node4</title>
<g id="a_Node000004"><a xlink:href="../../d5/d9b/scene_8hpp.html" target="_top" xlink:title=" ">
<polygon fill="white" stroke="#666666" points="981.49,-357.38 867.99,-357.38 867.99,-338.12 981.49,-338.12 981.49,-357.38"/>
<text text-anchor="middle" x="924.74" y="-343.88" font-family="Helvetica,sans-Serif" font-size="10.00">engine/core/scene.hpp</text>
</a>
</g>
</g>
<!-- Node2&#45;&gt;Node4 -->
<g id="edge3_Node000002_Node000004" class="edge">
<title>Node2&#45;&gt;Node4</title>
<g id="a_edge3_Node000002_Node000004"><a xlink:title=" ">
<path fill="none" stroke="#63b8ff" d="M675.1,-401.89C734.09,-389.33 827.93,-369.36 882.18,-357.81"/>
<polygon fill="#63b8ff" stroke="#63b8ff" points="674.56,-398.64 665.51,-404.15 676.02,-405.49 674.56,-398.64"/>
</a>
</g>
</g>
<!-- Node24 -->
<g id="Node000024" class="node">
<title>Node24</title>
<g id="a_Node000024"><a xlink:href="../../db/df9/deferred-hdr-render-pipeline_8hpp.html" target="_top" xlink:title=" ">
<polygon fill="white" stroke="#666666" points="280.11,-163.5 149.36,-163.5 149.36,-133 280.11,-133 280.11,-163.5"/>
<text text-anchor="start" x="157.36" y="-150" font-family="Helvetica,sans-Serif" font-size="10.00">engine/direct3d11/deferred</text>
<text text-anchor="middle" x="214.74" y="-138.75" font-family="Helvetica,sans-Serif" font-size="10.00">&#45;hdr&#45;render&#45;pipeline.hpp</text>
</a>
</g>
</g>
<!-- Node2&#45;&gt;Node24 -->
<g id="edge40_Node000002_Node000024" class="edge">
<title>Node2&#45;&gt;Node24</title>
<g id="a_edge40_Node000002_Node000024"><a xlink:title=" ">
<path fill="none" stroke="#63b8ff" d="M545.5,-407.52C471.37,-400.65 365.21,-386.94 331.74,-363 260.33,-311.94 227.81,-203.22 218.06,-163.86"/>
<polygon fill="#63b8ff" stroke="#63b8ff" points="544.92,-411.07 555.19,-408.49 545.55,-404.1 544.92,-411.07"/>
</a>
</g>
</g>
<!-- Node26 -->
<g id="Node000026" class="node">
<title>Node26</title>
<g id="a_Node000026"><a xlink:href="../../d6/d54/renderer_8cpp.html" target="_top" xlink:title=" ">
<polygon fill="white" stroke="#666666" points="687.11,-285.25 556.36,-285.25 556.36,-266 687.11,-266 687.11,-285.25"/>
<text text-anchor="middle" x="621.74" y="-271.75" font-family="Helvetica,sans-Serif" font-size="10.00">engine/render/renderer.cpp</text>
</a>
</g>
</g>
<!-- Node2&#45;&gt;Node26 -->
<g id="edge41_Node000002_Node000026" class="edge">
<title>Node2&#45;&gt;Node26</title>
<g id="a_edge41_Node000002_Node000026"><a xlink:title=" ">
<path fill="none" stroke="#63b8ff" d="M621.74,-393.47C621.74,-363.32 621.74,-307.1 621.74,-285.44"/>
<polygon fill="#63b8ff" stroke="#63b8ff" points="618.24,-393.29 621.74,-403.29 625.24,-393.29 618.24,-393.29"/>
</a>
</g>
</g>
<!-- Node5 -->
<g id="Node000005" class="node">
<title>Node5</title>
<g id="a_Node000005"><a xlink:href="../../de/d46/engine_8hpp.html" target="_top" xlink:title=" ">
<polygon fill="white" stroke="#666666" points="947.61,-157.88 831.86,-157.88 831.86,-138.62 947.61,-138.62 947.61,-157.88"/>
<text text-anchor="middle" x="889.74" y="-144.38" font-family="Helvetica,sans-Serif" font-size="10.00">engine/core/engine.hpp</text>
</a>
</g>
</g>
<!-- Node4&#45;&gt;Node5 -->
<g id="edge4_Node000004_Node000005" class="edge">
<title>Node4&#45;&gt;Node5</title>
<g id="a_edge4_Node000004_Node000005"><a xlink:title=" ">
<path fill="none" stroke="#63b8ff" d="M914.37,-328.21C909.7,-318.96 904.59,-307.44 901.74,-296.5 888.39,-245.38 888.76,-181.18 889.4,-158.06"/>
<polygon fill="#63b8ff" stroke="#63b8ff" points="911.71,-329.66 919.5,-336.84 917.89,-326.37 911.71,-329.66"/>
</a>
</g>
</g>
<!-- Node4&#45;&gt;Node16 -->
<g id="edge35_Node000004_Node000016" class="edge">
<title>Node4&#45;&gt;Node16</title>
<g id="a_edge35_Node000004_Node000016"><a xlink:title=" ">
<path fill="none" stroke="#63b8ff" d="M857.2,-336.7C820.74,-329.29 775.91,-316.84 739.74,-296.5 716.24,-283.29 717.05,-271.26 695.74,-254.75 607.23,-186.2 491.25,-120.31 439.15,-91.84"/>
<polygon fill="#63b8ff" stroke="#63b8ff" points="856.26,-340.28 866.74,-338.76 857.59,-333.41 856.26,-340.28"/>
</a>
</g>
</g>
<!-- Node4&#45;&gt;Node17 -->
<g id="edge36_Node000004_Node000017" class="edge">
<title>Node4&#45;&gt;Node17</title>
<g id="a_edge36_Node000004_Node000017"><a xlink:title=" ">
<path fill="none" stroke="#63b8ff" d="M976.71,-334.83C1005.08,-326.81 1039.98,-314.38 1067.74,-296.5 1089.34,-282.58 1085.89,-268.27 1107.74,-254.75 1151.71,-227.53 1473.14,-135.08 1613.48,-95.43"/>
<polygon fill="#63b8ff" stroke="#63b8ff" points="975.91,-331.69 967.18,-337.69 977.75,-338.44 975.91,-331.69"/>
</a>
</g>
</g>
<!-- Node21 -->
<g id="Node000021" class="node">
<title>Node21</title>
<g id="a_Node000021"><a xlink:href="../../d3/dfe/particle-render-system_8cpp.html" target="_top" xlink:title=" ">
<polygon fill="white" stroke="#666666" points="1447.74,-97 1317.74,-97 1317.74,-55.25 1447.74,-55.25 1447.74,-97"/>
<text text-anchor="start" x="1325.74" y="-83.5" font-family="Helvetica,sans-Serif" font-size="10.00">engine/subsystems/render</text>
<text text-anchor="start" x="1325.74" y="-72.25" font-family="Helvetica,sans-Serif" font-size="10.00">/detail/particle&#45;render</text>
<text text-anchor="middle" x="1382.74" y="-61" font-family="Helvetica,sans-Serif" font-size="10.00">&#45;system.cpp</text>
</a>
</g>
</g>
<!-- Node4&#45;&gt;Node21 -->
<g id="edge39_Node000004_Node000021" class="edge">
<title>Node4&#45;&gt;Node21</title>
<g id="a_edge39_Node000004_Node000021"><a xlink:title=" ">
<path fill="none" stroke="#63b8ff" d="M959.88,-333.71C981.56,-324.85 1009.4,-311.94 1031.74,-296.5 1053.65,-281.35 1053.48,-270.8 1074.74,-254.75 1163.03,-188.06 1278.68,-127.68 1340.09,-97.47"/>
<polygon fill="#63b8ff" stroke="#63b8ff" points="958.77,-330.78 950.78,-337.73 961.36,-337.29 958.77,-330.78"/>
</a>
</g>
</g>
<!-- Node22 -->
<g id="Node000022" class="node">
<title>Node22</title>
<g id="a_Node000022"><a xlink:href="../../d9/d06/render-pipeline_8hpp.html" target="_top" xlink:title=" ">
<polygon fill="white" stroke="#666666" points="848.74,-290.88 748.74,-290.88 748.74,-260.38 848.74,-260.38 848.74,-290.88"/>
<text text-anchor="start" x="756.74" y="-277.38" font-family="Helvetica,sans-Serif" font-size="10.00">engine/core/layers</text>
<text text-anchor="middle" x="798.74" y="-266.12" font-family="Helvetica,sans-Serif" font-size="10.00">/render&#45;pipeline.hpp</text>
</a>
</g>
</g>
<!-- Node4&#45;&gt;Node22 -->
<g id="edge26_Node000004_Node000022" class="edge">
<title>Node4&#45;&gt;Node22</title>
<g id="a_edge26_Node000004_Node000022"><a xlink:title=" ">
<path fill="none" stroke="#63b8ff" d="M899.02,-332.44C877.43,-320.42 846.71,-303.33 824.97,-291.23"/>
<polygon fill="#63b8ff" stroke="#63b8ff" points="897.08,-335.92 907.52,-337.73 900.49,-329.8 897.08,-335.92"/>
</a>
</g>
</g>
<!-- Node25 -->
<g id="Node000025" class="node">
<title>Node25</title>
<g id="a_Node000025"><a xlink:href="../../d4/d7c/deferred-resolve_8cpp.html" target="_top" xlink:title=" ">
<polygon fill="white" stroke="#666666" points="1023.11,-290.88 910.36,-290.88 910.36,-260.38 1023.11,-260.38 1023.11,-290.88"/>
<text text-anchor="start" x="918.36" y="-277.38" font-family="Helvetica,sans-Serif" font-size="10.00">engine/render/deferred</text>
<text text-anchor="middle" x="966.74" y="-266.12" font-family="Helvetica,sans-Serif" font-size="10.00">&#45;resolve.cpp</text>
</a>
</g>
</g>
<!-- Node4&#45;&gt;Node25 -->
<g id="edge33_Node000004_Node000025" class="edge">
<title>Node4&#45;&gt;Node25</title>
<g id="a_edge33_Node000004_Node000025"><a xlink:title=" ">
<path fill="none" stroke="#63b8ff" d="M935.55,-328.69C942.51,-317.07 951.43,-302.17 957.95,-291.29"/>
<polygon fill="#63b8ff" stroke="#63b8ff" points="932.19,-326.49 930.06,-336.87 938.2,-330.09 932.19,-326.49"/>
</a>
</g>
</g>
<!-- Node4&#45;&gt;Node26 -->
<g id="edge34_Node000004_Node000026" class="edge">
<title>Node4&#45;&gt;Node26</title>
<g id="a_edge34_Node000004_Node000026"><a xlink:title=" ">
<path fill="none" stroke="#63b8ff" d="M872.06,-335.33C826.61,-325.39 759.25,-310.42 700.74,-296.5 686.43,-293.1 670.71,-289.18 657.08,-285.72"/>
<polygon fill="#63b8ff" stroke="#63b8ff" points="871.04,-338.91 881.55,-337.63 872.53,-332.07 871.04,-338.91"/>
</a>
</g>
</g>
<!-- Node4&#45;&gt;Node27 -->
<g id="edge37_Node000004_Node000027" class="edge">
<title>Node4&#45;&gt;Node27</title>
<g id="a_edge37_Node000004_Node000027"><a xlink:title=" ">
<path fill="none" stroke="#63b8ff" d="M968.44,-334.83C1009.01,-323.75 1069.97,-307.12 1116.34,-294.47"/>
<polygon fill="#63b8ff" stroke="#63b8ff" points="967.8,-331.65 959.07,-337.65 969.64,-338.4 967.8,-331.65"/>
</a>
</g>
</g>
<!-- Node4&#45;&gt;Node28 -->
<g id="edge38_Node000004_Node000028" class="edge">
<title>Node4&#45;&gt;Node28</title>
<g id="a_edge38_Node000004_Node000028"><a xlink:title=" ">
<path fill="none" stroke="#63b8ff" d="M992.59,-337.85C1059.66,-328.72 1165.09,-313.48 1255.74,-296.5 1264.14,-294.93 1272.96,-293.13 1281.64,-291.28"/>
<polygon fill="#63b8ff" stroke="#63b8ff" points="992.19,-334.5 982.75,-339.31 993.13,-341.44 992.19,-334.5"/>
</a>
</g>
</g>
<!-- Node6 -->
<g id="Node000006" class="node">
<title>Node6</title>
<g id="a_Node000006"><a xlink:href="../../d0/d86/camera-movement_8hpp.html" target="_top" xlink:title=" ">
<polygon fill="white" stroke="#666666" points="1299.49,-85.75 1143.99,-85.75 1143.99,-66.5 1299.49,-66.5 1299.49,-85.75"/>
<text text-anchor="middle" x="1221.74" y="-72.25" font-family="Helvetica,sans-Serif" font-size="10.00">d3d_test/camera&#45;movement.hpp</text>
</a>
</g>
</g>
<!-- Node5&#45;&gt;Node6 -->
<g id="edge5_Node000005_Node000006" class="edge">
<title>Node5&#45;&gt;Node6</title>
<g id="a_edge5_Node000005_Node000006"><a xlink:title=" ">
<path fill="none" stroke="#63b8ff" d="M945.94,-136.09C995.64,-126.14 1070.1,-111.01 1134.74,-97 1150.48,-93.59 1167.8,-89.67 1182.8,-86.21"/>
<polygon fill="#63b8ff" stroke="#63b8ff" points="945.53,-132.81 936.41,-138.2 946.9,-139.67 945.53,-132.81"/>
</a>
</g>
</g>
<!-- Node8 -->
<g id="Node000008" class="node">
<title>Node8</title>
<g id="a_Node000008"><a xlink:href="../../dc/dfb/controller_8hpp.html" target="_top" xlink:title=" ">
<polygon fill="white" stroke="#666666" points="130.86,-85.75 16.61,-85.75 16.61,-66.5 130.86,-66.5 130.86,-85.75"/>
<text text-anchor="middle" x="73.74" y="-72.25" font-family="Helvetica,sans-Serif" font-size="10.00">d3d_test/controller.hpp</text>
</a>
</g>
</g>
<!-- Node5&#45;&gt;Node8 -->
<g id="edge8_Node000005_Node000008" class="edge">
<title>Node5&#45;&gt;Node8</title>
<g id="a_edge8_Node000005_Node000008"><a xlink:title=" ">
<path fill="none" stroke="#63b8ff" d="M820.61,-147.69C687.77,-147.43 388.09,-141.42 140.74,-97 126.88,-94.51 111.83,-90.2 99.51,-86.22"/>
<polygon fill="#63b8ff" stroke="#63b8ff" points="820.41,-151.2 830.41,-147.7 820.41,-144.2 820.41,-151.2"/>
</a>
</g>
</g>
<!-- Node9 -->
<g id="Node000009" class="node">
<title>Node9</title>
<g id="a_Node000009"><a xlink:href="../../d9/d0f/main_8cc.html" target="_top" xlink:title=" ">
<polygon fill="white" stroke="#666666" points="118.86,-19.25 28.61,-19.25 28.61,0 118.86,0 118.86,-19.25"/>
<text text-anchor="middle" x="73.74" y="-5.75" font-family="Helvetica,sans-Serif" font-size="10.00">d3d_test/main.cc</text>
</a>
</g>
</g>
<!-- Node5&#45;&gt;Node9 -->
<g id="edge11_Node000005_Node000009" class="edge">
<title>Node5&#45;&gt;Node9</title>
<g id="a_edge11_Node000005_Node000009"><a xlink:title=" ">
<path fill="none" stroke="#63b8ff" d="M820.73,-139.98C724.66,-129.48 559.56,-109.92 534.74,-97 512.21,-85.27 518.46,-66.58 495.74,-55.25 430.54,-22.75 214.26,-13.83 119.21,-11.46"/>
<polygon fill="#63b8ff" stroke="#63b8ff" points="820.2,-143.55 830.52,-141.15 820.96,-136.59 820.2,-143.55"/>
</a>
</g>
</g>
<!-- Node10 -->
<g id="Node000010" class="node">
<title>Node10</title>
<g id="a_Node000010"><a xlink:href="../../da/df5/object-editor_8hpp.html" target="_top" xlink:title=" ">
<polygon fill="white" stroke="#666666" points="821.61,-85.75 693.86,-85.75 693.86,-66.5 821.61,-66.5 821.61,-85.75"/>
<text text-anchor="middle" x="757.74" y="-72.25" font-family="Helvetica,sans-Serif" font-size="10.00">d3d_test/object&#45;editor.hpp</text>
</a>
</g>
</g>
<!-- Node5&#45;&gt;Node10 -->
<g id="edge12_Node000005_Node000010" class="edge">
<title>Node5&#45;&gt;Node10</title>
<g id="a_edge12_Node000005_Node000010"><a xlink:title=" ">
<path fill="none" stroke="#63b8ff" d="M863.35,-133.23C836.94,-119.2 797.1,-98.04 774.66,-86.11"/>
<polygon fill="#63b8ff" stroke="#63b8ff" points="861.28,-136.63 871.75,-138.23 864.56,-130.44 861.28,-136.63"/>
</a>
</g>
</g>
<!-- Node13 -->
<g id="Node000013" class="node">
<title>Node13</title>
<g id="a_Node000013"><a xlink:href="../../d9/d55/scene-viewer_8hpp.html" target="_top" xlink:title=" ">
<polygon fill="white" stroke="#666666" points="675.86,-85.75 543.61,-85.75 543.61,-66.5 675.86,-66.5 675.86,-85.75"/>
<text text-anchor="middle" x="609.74" y="-72.25" font-family="Helvetica,sans-Serif" font-size="10.00">d3d_test/scene&#45;viewer.hpp</text>
</a>
</g>
</g>
<!-- Node5&#45;&gt;Node13 -->
<g id="edge16_Node000005_Node000013" class="edge">
<title>Node5&#45;&gt;Node13</title>
<g id="a_edge16_Node000005_Node000013"><a xlink:title=" ">
<path fill="none" stroke="#63b8ff" d="M841.25,-135.63C799.67,-125.61 738.19,-110.63 684.74,-97 671.16,-93.54 656.24,-89.61 643.3,-86.16"/>
<polygon fill="#63b8ff" stroke="#63b8ff" points="840.36,-139.26 850.9,-138.2 842,-132.46 840.36,-139.26"/>
</a>
</g>
</g>
<!-- Node14 -->
<g id="Node000014" class="node">
<title>Node14</title>
<g id="a_Node000014"><a xlink:href="../../da/d5c/engine_8cpp.html" target="_top" xlink:title=" ">
<polygon fill="white" stroke="#666666" points="955.61,-85.75 839.86,-85.75 839.86,-66.5 955.61,-66.5 955.61,-85.75"/>
<text text-anchor="middle" x="897.74" y="-72.25" font-family="Helvetica,sans-Serif" font-size="10.00">engine/core/engine.cpp</text>
</a>
</g>
</g>
<!-- Node5&#45;&gt;Node14 -->
<g id="edge18_Node000005_Node000014" class="edge">
<title>Node5&#45;&gt;Node14</title>
<g id="a_edge18_Node000005_Node000014"><a xlink:title=" ">
<path fill="none" stroke="#63b8ff" d="M891.97,-127.7C893.52,-114.1 895.52,-96.6 896.71,-86.16"/>
<polygon fill="#63b8ff" stroke="#63b8ff" points="888.41,-127.04 890.75,-137.37 895.36,-127.83 888.41,-127.04"/>
</a>
</g>
</g>
<!-- Node15 -->
<g id="Node000015" class="node">
<title>Node15</title>
<g id="a_Node000015"><a xlink:href="../../d1/da2/deferred-hdr-render-pipeline_8cpp.html" target="_top" xlink:title=" ">
<polygon fill="white" stroke="#666666" points="280.11,-91.38 149.36,-91.38 149.36,-60.88 280.11,-60.88 280.11,-91.38"/>
<text text-anchor="start" x="157.36" y="-77.88" font-family="Helvetica,sans-Serif" font-size="10.00">engine/direct3d11/deferred</text>
<text text-anchor="middle" x="214.74" y="-66.62" font-family="Helvetica,sans-Serif" font-size="10.00">&#45;hdr&#45;render&#45;pipeline.cpp</text>
</a>
</g>
</g>
<!-- Node5&#45;&gt;Node15 -->
<g id="edge19_Node000005_Node000015" class="edge">
<title>Node5&#45;&gt;Node15</title>
<g id="a_edge19_Node000005_Node000015"><a xlink:title=" ">
<path fill="none" stroke="#63b8ff" d="M820.71,-143.02C714.33,-136.07 504.07,-120.6 326.74,-97 311.66,-94.99 295.53,-92.4 280.33,-89.74"/>
<polygon fill="#63b8ff" stroke="#63b8ff" points="820.4,-146.57 830.6,-143.73 820.85,-139.59 820.4,-146.57"/>
</a>
</g>
</g>
<!-- Node5&#45;&gt;Node16 -->
<g id="edge20_Node000005_Node000016" class="edge">
<title>Node5&#45;&gt;Node16</title>
<g id="a_edge20_Node000005_Node000016"><a xlink:title=" ">
<path fill="none" stroke="#63b8ff" d="M821.03,-140.21C743.26,-131.82 612.93,-116.44 501.74,-97 493.07,-95.48 483.97,-93.7 475.03,-91.84"/>
<polygon fill="#63b8ff" stroke="#63b8ff" points="820.33,-143.76 830.65,-141.35 821.08,-136.8 820.33,-143.76"/>
</a>
</g>
</g>
<!-- Node5&#45;&gt;Node17 -->
<g id="edge21_Node000005_Node000017" class="edge">
<title>Node5&#45;&gt;Node17</title>
<g id="a_edge21_Node000005_Node000017"><a xlink:title=" ">
<path fill="none" stroke="#63b8ff" d="M958.92,-146.79C1087.17,-144.96 1370.12,-136.37 1604.74,-97 1607.62,-96.52 1610.56,-95.97 1613.52,-95.37"/>
<polygon fill="#63b8ff" stroke="#63b8ff" points="959.06,-143.3 949.11,-146.93 959.15,-150.3 959.06,-143.3"/>
</a>
</g>
</g>
<!-- Node5&#45;&gt;Node18 -->
<g id="edge22_Node000005_Node000018" class="edge">
<title>Node5&#45;&gt;Node18</title>
<g id="a_edge22_Node000005_Node000018"><a xlink:title=" ">
<path fill="none" stroke="#63b8ff" d="M958.7,-145C1065.95,-140.65 1278.88,-128.52 1456.74,-97 1459.62,-96.49 1462.55,-95.92 1465.51,-95.3"/>
<polygon fill="#63b8ff" stroke="#63b8ff" points="958.57,-141.55 948.72,-145.44 958.85,-148.54 958.57,-141.55"/>
</a>
</g>
</g>
<!-- Node19 -->
<g id="Node000019" class="node">
<title>Node19</title>
<g id="a_Node000019"><a xlink:href="../../df/d58/grass-render-system_8cpp.html" target="_top" xlink:title=" ">
<polygon fill="white" stroke="#666666" points="1125.61,-91.38 973.86,-91.38 973.86,-60.88 1125.61,-60.88 1125.61,-91.38"/>
<text text-anchor="start" x="981.86" y="-77.88" font-family="Helvetica,sans-Serif" font-size="10.00">engine/subsystems/render</text>
<text text-anchor="middle" x="1049.74" y="-66.62" font-family="Helvetica,sans-Serif" font-size="10.00">/detail/grass&#45;render&#45;system.cpp</text>
</a>
</g>
</g>
<!-- Node5&#45;&gt;Node19 -->
<g id="edge23_Node000005_Node000019" class="edge">
<title>Node5&#45;&gt;Node19</title>
<g id="a_edge23_Node000005_Node000019"><a xlink:title=" ">
<path fill="none" stroke="#63b8ff" d="M920.15,-133.92C947.55,-121.91 987.77,-104.28 1016.12,-91.86"/>
<polygon fill="#63b8ff" stroke="#63b8ff" points="919.08,-131.01 911.33,-138.23 921.89,-137.42 919.08,-131.01"/>
</a>
</g>
</g>
<!-- Node5&#45;&gt;Node20 -->
<g id="edge24_Node000005_Node000020" class="edge">
<title>Node5&#45;&gt;Node20</title>
<g id="a_edge24_Node000005_Node000020"><a xlink:title=" ">
<path fill="none" stroke="#63b8ff" d="M958.56,-147.42C1105.34,-146.88 1459.67,-140.69 1752.74,-97 1761.58,-95.68 1770.86,-93.86 1779.87,-91.86"/>
<polygon fill="#63b8ff" stroke="#63b8ff" points="958.92,-143.92 948.93,-147.45 958.94,-150.92 958.92,-143.92"/>
</a>
</g>
</g>
<!-- Node5&#45;&gt;Node21 -->
<g id="edge25_Node000005_Node000021" class="edge">
<title>Node5&#45;&gt;Node21</title>
<g id="a_edge25_Node000005_Node000021"><a xlink:title=" ">
<path fill="none" stroke="#63b8ff" d="M958.73,-140.19C1059.86,-129.63 1243.41,-109.62 1308.74,-97 1311.61,-96.44 1314.54,-95.84 1317.49,-95.19"/>
<polygon fill="#63b8ff" stroke="#63b8ff" points="958.6,-136.79 949.02,-141.3 959.33,-143.75 958.6,-136.79"/>
</a>
</g>
</g>
<!-- Node6&#45;&gt;Node3 -->
<g id="edge7_Node000006_Node000003" class="edge">
<title>Node6&#45;&gt;Node3</title>
<g id="a_edge7_Node000006_Node000003"><a xlink:title=" ">
<path fill="none" stroke="#63b8ff" d="M1176.8,-63.55C1163.35,-60.44 1148.51,-57.36 1134.74,-55.25 934.21,-24.58 881.56,-39.66 679.74,-19.25 675.6,-18.83 671.32,-18.37 667.02,-17.89"/>
<polygon fill="#63b8ff" stroke="#63b8ff" points="1175.71,-67.12 1186.24,-66.03 1177.32,-60.31 1175.71,-67.12"/>
</a>
</g>
</g>
<!-- Node7 -->
<g id="Node000007" class="node">
<title>Node7</title>
<g id="a_Node000007"><a xlink:href="../../d5/dbb/camera-movement_8cpp.html" target="_top" xlink:title=" ">
<polygon fill="white" stroke="#666666" points="1299.49,-19.25 1143.99,-19.25 1143.99,0 1299.49,0 1299.49,-19.25"/>
<text text-anchor="middle" x="1221.74" y="-5.75" font-family="Helvetica,sans-Serif" font-size="10.00">d3d_test/camera&#45;movement.cpp</text>
</a>
</g>
</g>
<!-- Node6&#45;&gt;Node7 -->
<g id="edge6_Node000006_Node000007" class="edge">
<title>Node6&#45;&gt;Node7</title>
<g id="a_edge6_Node000006_Node000007"><a xlink:title=" ">
<path fill="none" stroke="#63b8ff" d="M1221.74,-55.4C1221.74,-43.43 1221.74,-28.73 1221.74,-19.52"/>
<polygon fill="#63b8ff" stroke="#63b8ff" points="1218.24,-55.16 1221.74,-65.16 1225.24,-55.16 1218.24,-55.16"/>
</a>
</g>
</g>
<!-- Node8&#45;&gt;Node3 -->
<g id="edge9_Node000008_Node000003" class="edge">
<title>Node8&#45;&gt;Node3</title>
<g id="a_edge9_Node000008_Node000003"><a xlink:title=" ">
<path fill="none" stroke="#63b8ff" d="M110.12,-62.94C119.96,-60.03 130.68,-57.2 140.74,-55.25 287.27,-26.82 463.23,-16.25 552.19,-12.52"/>
<polygon fill="#63b8ff" stroke="#63b8ff" points="109.39,-59.81 100.86,-66.1 111.44,-66.5 109.39,-59.81"/>
</a>
</g>
</g>
<!-- Node8&#45;&gt;Node9 -->
<g id="edge10_Node000008_Node000009" class="edge">
<title>Node8&#45;&gt;Node9</title>
<g id="a_edge10_Node000008_Node000009"><a xlink:title=" ">
<path fill="none" stroke="#63b8ff" d="M73.74,-55.4C73.74,-43.43 73.74,-28.73 73.74,-19.52"/>
<polygon fill="#63b8ff" stroke="#63b8ff" points="70.24,-55.16 73.74,-65.16 77.24,-55.16 70.24,-55.16"/>
</a>
</g>
</g>
<!-- Node10&#45;&gt;Node3 -->
<g id="edge13_Node000010_Node000003" class="edge">
<title>Node10&#45;&gt;Node3</title>
<g id="a_edge13_Node000010_Node000003"><a xlink:title=" ">
<path fill="none" stroke="#63b8ff" d="M726.87,-61.67C697.97,-49.08 655.59,-30.61 630.52,-19.68"/>
<polygon fill="#63b8ff" stroke="#63b8ff" points="725.28,-65.23 735.85,-66.02 728.08,-58.82 725.28,-65.23"/>
</a>
</g>
</g>
<!-- Node11 -->
<g id="Node000011" class="node">
<title>Node11</title>
<g id="a_Node000011"><a xlink:href="../../d4/d94/object-editor_8cpp.html" target="_top" xlink:title=" ">
<polygon fill="white" stroke="#666666" points="966.61,-19.25 838.86,-19.25 838.86,0 966.61,0 966.61,-19.25"/>
<text text-anchor="middle" x="902.74" y="-5.75" font-family="Helvetica,sans-Serif" font-size="10.00">d3d_test/object&#45;editor.cpp</text>
</a>
</g>
</g>
<!-- Node10&#45;&gt;Node11 -->
<g id="edge14_Node000010_Node000011" class="edge">
<title>Node10&#45;&gt;Node11</title>
<g id="a_edge14_Node000010_Node000011"><a xlink:title=" ">
<path fill="none" stroke="#63b8ff" d="M787.98,-61.67C816.29,-49.08 857.81,-30.61 882.37,-19.68"/>
<polygon fill="#63b8ff" stroke="#63b8ff" points="786.92,-58.76 779.2,-66.02 789.76,-65.15 786.92,-58.76"/>
</a>
</g>
</g>
<!-- Node12 -->
<g id="Node000012" class="node">
<title>Node12</title>
<g id="a_Node000012"><a xlink:href="../../d0/d38/scene-viewer_8cpp.html" target="_top" xlink:title=" ">
<polygon fill="white" stroke="#666666" points="820.86,-19.25 688.61,-19.25 688.61,0 820.86,0 820.86,-19.25"/>
<text text-anchor="middle" x="754.74" y="-5.75" font-family="Helvetica,sans-Serif" font-size="10.00">d3d_test/scene&#45;viewer.cpp</text>
</a>
</g>
</g>
<!-- Node10&#45;&gt;Node12 -->
<g id="edge15_Node000010_Node000012" class="edge">
<title>Node10&#45;&gt;Node12</title>
<g id="a_edge15_Node000010_Node000012"><a xlink:title=" ">
<path fill="none" stroke="#63b8ff" d="M756.82,-55.4C756.26,-43.43 755.58,-28.73 755.15,-19.52"/>
<polygon fill="#63b8ff" stroke="#63b8ff" points="753.36,-55.33 757.32,-65.16 760.35,-55 753.36,-55.33"/>
</a>
</g>
</g>
<!-- Node13&#45;&gt;Node3 -->
<g id="edge17_Node000013_Node000003" class="edge">
<title>Node13&#45;&gt;Node3</title>
<g id="a_edge17_Node000013_Node000003"><a xlink:title=" ">
<path fill="none" stroke="#63b8ff" d="M609.74,-55.4C609.74,-43.43 609.74,-28.73 609.74,-19.52"/>
<polygon fill="#63b8ff" stroke="#63b8ff" points="606.24,-55.16 609.74,-65.16 613.24,-55.16 606.24,-55.16"/>
</a>
</g>
</g>
<!-- Node23 -->
<g id="Node000023" class="node">
<title>Node23</title>
<g id="a_Node000023"><a xlink:href="../../d4/d87/layers_8hpp.html" target="_top" xlink:title=" ">
<polygon fill="white" stroke="#666666" points="855.11,-218.75 742.36,-218.75 742.36,-199.5 855.11,-199.5 855.11,-218.75"/>
<text text-anchor="middle" x="798.74" y="-205.25" font-family="Helvetica,sans-Serif" font-size="10.00">engine/core/layers.hpp</text>
</a>
</g>
</g>
<!-- Node22&#45;&gt;Node23 -->
<g id="edge27_Node000022_Node000023" class="edge">
<title>Node22&#45;&gt;Node23</title>
<g id="a_edge27_Node000022_Node000023"><a xlink:title=" ">
<path fill="none" stroke="#63b8ff" d="M798.74,-249.05C798.74,-238.39 798.74,-226.7 798.74,-218.95"/>
<polygon fill="#63b8ff" stroke="#63b8ff" points="795.24,-248.99 798.74,-258.99 802.24,-248.99 795.24,-248.99"/>
</a>
</g>
</g>
<!-- Node22&#45;&gt;Node24 -->
<g id="edge29_Node000022_Node000024" class="edge">
<title>Node22&#45;&gt;Node24</title>
<g id="a_edge29_Node000022_Node000024"><a xlink:title=" ">
<path fill="none" stroke="#63b8ff" d="M737.81,-261.55C627.26,-237.81 394.53,-187.85 280.51,-163.37"/>
<polygon fill="#63b8ff" stroke="#63b8ff" points="736.93,-265.15 747.44,-263.83 738.4,-258.31 736.93,-265.15"/>
</a>
</g>
</g>
<!-- Node23&#45;&gt;Node5 -->
<g id="edge28_Node000023_Node000005" class="edge">
<title>Node23&#45;&gt;Node5</title>
<g id="a_edge28_Node000023_Node000005"><a xlink:title=" ">
<path fill="none" stroke="#63b8ff" d="M821.35,-193.49C838.42,-182.45 861.3,-167.65 875.79,-158.28"/>
<polygon fill="#63b8ff" stroke="#63b8ff" points="820.05,-190.81 813.56,-199.18 823.86,-196.69 820.05,-190.81"/>
</a>
</g>
</g>
<!-- Node24&#45;&gt;Node8 -->
<g id="edge30_Node000024_Node000008" class="edge">
<title>Node24&#45;&gt;Node8</title>
<g id="a_edge30_Node000024_Node000008"><a xlink:title=" ">
<path fill="none" stroke="#63b8ff" d="M175.52,-127.75C148.24,-114.18 113.11,-96.71 92.06,-86.24"/>
<polygon fill="#63b8ff" stroke="#63b8ff" points="173.67,-131.23 184.18,-132.55 176.78,-124.96 173.67,-131.23"/>
</a>
</g>
</g>
<!-- Node24&#45;&gt;Node9 -->
<g id="edge31_Node000024_Node000009" class="edge">
<title>Node24&#45;&gt;Node9</title>
<g id="a_edge31_Node000024_Node000009"><a xlink:title=" ">
<path fill="none" stroke="#63b8ff" d="M138.28,-138.58C86.26,-130.92 24.02,-117.7 7.74,-97 -3.73,-82.41 -0.96,-71.64 7.74,-55.25 16.62,-38.51 34.9,-26.91 49.97,-19.74"/>
<polygon fill="#63b8ff" stroke="#63b8ff" points="137.48,-142.14 147.87,-140.08 138.46,-135.21 137.48,-142.14"/>
</a>
</g>
</g>
<!-- Node24&#45;&gt;Node15 -->
<g id="edge32_Node000024_Node000015" class="edge">
<title>Node24&#45;&gt;Node15</title>
<g id="a_edge32_Node000024_Node000015"><a xlink:title=" ">
<path fill="none" stroke="#63b8ff" d="M214.74,-121.93C214.74,-111.75 214.74,-100.38 214.74,-91.64"/>
<polygon fill="#63b8ff" stroke="#63b8ff" points="211.24,-121.72 214.74,-131.72 218.24,-121.72 211.24,-121.72"/>
</a>
</g>
</g>
<!-- Node31&#45;&gt;Node5 -->
<g id="edge51_Node000031_Node000005" class="edge">
<title>Node31&#45;&gt;Node5</title>
<g id="a_edge51_Node000031_Node000005"><a xlink:title=" ">
<path fill="none" stroke="#63b8ff" d="M1444.34,-321.63C1448.08,-301.19 1449.34,-272.85 1433.74,-254.75 1371.01,-181.97 1074.97,-158.53 947.9,-151.75"/>
<polygon fill="#63b8ff" stroke="#63b8ff" points="1440.72,-320.82 1442.02,-331.34 1447.56,-322.3 1440.72,-320.82"/>
</a>
</g>
</g>
</g>
</svg>
