<?xml version="1.0" encoding="UTF-8" standalone="no"?>
<!DOCTYPE svg PUBLIC "-//W3C//DTD SVG 1.1//EN"
 "http://www.w3.org/Graphics/SVG/1.1/DTD/svg11.dtd">
<!-- Generated by graphviz version 9.0.0 (20230911.1827)
 -->
<!-- Title: engine/subsystems/render/model&#45;system.hpp Pages: 1 -->
<!--zoomable 504 -->

<svg id="main" version="1.1" xmlns="http://www.w3.org/2000/svg" xmlns:xlink="http://www.w3.org/1999/xlink" xml:space="preserve" onload="init(evt)">
<style type="text/css"><![CDATA[
.node, .edge {opacity: 0.7;}
.node.selected, .edge.selected {opacity: 1;}
.edge:hover path { stroke: red; }
.edge:hover polygon { stroke: red; fill: red; }
]]></style>

<defs>
  <circle id="rim" cx="0" cy="0" r="7"/>
  <circle id="rim2" cx="0" cy="0" r="3.5"/>
  <g id="zoomPlus">
    <use xlink:href="#rim" fill="#404040"><set attributeName="fill" to="#808080" begin="zoomplus.mouseover" end="zoomplus.mouseout"/></use>
    <path d="M-4,0h8M0,-4v8" fill="none" stroke="white" stroke-width="1.5" pointer-events="none"/>
  </g>
  <g id="zoomMin">
    <use xlink:href="#rim" fill="#404040"><set attributeName="fill" to="#808080" begin="zoomminus.mouseover" end="zoomminus.mouseout"/></use>
    <path d="M-4,0h8" fill="none" stroke="white" stroke-width="1.5" pointer-events="none"/>
  </g>
  <g id="arrowUp" transform="translate(30 24)">
    <use xlink:href="#rim"/>
    <path pointer-events="none" fill="none" stroke="white" stroke-width="1.5" d="M0,-3.0v7 M-2.5,-0.5L0,-3.0L2.5,-0.5"/>
  </g>
  <g id="arrowRight" transform="rotate(90) translate(36 -43)">
    <use xlink:href="#rim"/>
    <path pointer-events="none" fill="none" stroke="white" stroke-width="1.5" d="M0,-3.0v7 M-2.5,-0.5L0,-3.0L2.5,-0.5"/>
  </g>
  <g id="arrowDown" transform="rotate(180) translate(-30 -48)">
    <use xlink:href="#rim"/>
    <path pointer-events="none" fill="none" stroke="white" stroke-width="1.5" d="M0,-3.0v7 M-2.5,-0.5L0,-3.0L2.5,-0.5"/>
  </g>
  <g id="arrowLeft" transform="rotate(270) translate(-36 17)">
    <use xlink:href="#rim"/>
    <path pointer-events="none" fill="none" stroke="white" stroke-width="1.5" d="M0,-3.0v7 M-2.5,-0.5L0,-3.0L2.5,-0.5"/>
  </g>
  <g id="resetDef">
    <use xlink:href="#rim2" fill="#404040"><set attributeName="fill" to="#808080" begin="reset.mouseover" end="reset.mouseout"/></use>
  </g>
</defs>
<script type="application/ecmascript">
var viewWidth = 1916;
var viewHeight = 504;
var sectionId = 'dynsection-1';
</script>
<script type="application/ecmascript" xlink:href="../../svg.min.js"/>
<svg id="graph" class="graph">
<g id="viewport">
<title>engine/subsystems/render/model&#45;system.hpp</title>
<!-- Node1 -->
<g id="Node000001" class="node">
<title>Node1</title>
<g id="a_Node000001"><a xlink:title=" ">
<polygon fill="#999999" stroke="#666666" points="1571.74,-496 1441.74,-496 1441.74,-465.5 1571.74,-465.5 1571.74,-496"/>
<text text-anchor="start" x="1449.74" y="-482.5" font-family="Helvetica,sans-Serif" font-size="10.00">engine/subsystems/render</text>
<text text-anchor="middle" x="1506.74" y="-471.25" font-family="Helvetica,sans-Serif" font-size="10.00">/model&#45;system.hpp</text>
</a>
</g>
</g>
<!-- Node2 -->
<g id="Node000002" class="node">
<title>Node2</title>
<g id="a_Node000002"><a xlink:href="../../d1/dae/renderer_8hpp.html" target="_top" xlink:title=" ">
<polygon fill="white" stroke="#666666" points="687.11,-423.88 556.36,-423.88 556.36,-404.62 687.11,-404.62 687.11,-423.88"/>
<text text-anchor="middle" x="621.74" y="-410.38" font-family="Helvetica,sans-Serif" font-size="10.00">engine/render/renderer.hpp</text>
</a>
</g>
</g>
<!-- Node1&#45;&gt;Node2 -->
<g id="edge1_Node000001_Node000002" class="edge">
<title>Node1&#45;&gt;Node2</title>
<g id="a_edge1_Node000001_Node000002"><a xlink:title=" ">
<path fill="none" stroke="#63b8ff" d="M1429.88,-474.15C1258.54,-461.66 847.79,-431.72 687.44,-420.04"/>
<polygon fill="#63b8ff" stroke="#63b8ff" points="1429.56,-477.63 1439.79,-474.87 1430.07,-470.65 1429.56,-477.63"/>
</a>
</g>
</g>
<!-- Node16 -->
<g id="Node000016" class="node">
<title>Node16</title>
<g id="a_Node000016"><a xlink:href="../../d8/d30/decal-render-system_8cpp.html" target="_top" xlink:title=" ">
<polygon fill="white" stroke="#666666" points="487.24,-91.38 336.24,-91.38 336.24,-60.88 487.24,-60.88 487.24,-91.38"/>
<text text-anchor="start" x="344.24" y="-77.88" font-family="Helvetica,sans-Serif" font-size="10.00">engine/subsystems/render</text>
<text text-anchor="middle" x="411.74" y="-66.62" font-family="Helvetica,sans-Serif" font-size="10.00">/detail/decal&#45;render&#45;system.cpp</text>
</a>
</g>
</g>
<!-- Node1&#45;&gt;Node16 -->
<g id="edge43_Node000001_Node000016" class="edge">
<title>Node1&#45;&gt;Node16</title>
<g id="a_edge43_Node000001_Node000016"><a xlink:title=" ">
<path fill="none" stroke="#63b8ff" d="M1429.99,-480.45C1215.09,-481.77 618.39,-480.74 547.74,-429.5 431.48,-345.2 414.6,-147.25 412.15,-91.8"/>
<polygon fill="#63b8ff" stroke="#63b8ff" points="1429.97,-483.95 1439.95,-480.39 1429.92,-476.95 1429.97,-483.95"/>
</a>
</g>
</g>
<!-- Node17 -->
<g id="Node000017" class="node">
<title>Node17</title>
<g id="a_Node000017"><a xlink:href="../../d1/d58/dissolution-render-system_8cpp.html" target="_top" xlink:title=" ">
<polygon fill="white" stroke="#666666" points="1743.74,-97 1613.74,-97 1613.74,-55.25 1743.74,-55.25 1743.74,-97"/>
<text text-anchor="start" x="1621.74" y="-83.5" font-family="Helvetica,sans-Serif" font-size="10.00">engine/subsystems/render</text>
<text text-anchor="start" x="1621.74" y="-72.25" font-family="Helvetica,sans-Serif" font-size="10.00">/detail/dissolution&#45;render</text>
<text text-anchor="middle" x="1678.74" y="-61" font-family="Helvetica,sans-Serif" font-size="10.00">&#45;system.cpp</text>
</a>
</g>
</g>
<!-- Node1&#45;&gt;Node17 -->
<g id="edge44_Node000001_Node000017" class="edge">
<title>Node1&#45;&gt;Node17</title>
<g id="a_edge44_Node000001_Node000017"><a xlink:title=" ">
<path fill="none" stroke="#63b8ff" d="M1525.83,-456.01C1544.05,-430.91 1568.74,-389.4 1568.74,-348.75 1568.74,-348.75 1568.74,-348.75 1568.74,-208.12 1568.74,-173.07 1571.47,-160.86 1592.74,-133 1603.97,-118.28 1620.27,-106.3 1635.67,-97.26"/>
<polygon fill="#63b8ff" stroke="#63b8ff" points="1523.11,-453.8 1519.9,-463.89 1528.71,-458.01 1523.11,-453.8"/>
</a>
</g>
</g>
<!-- Node18 -->
<g id="Node000018" class="node">
<title>Node18</title>
<g id="a_Node000018"><a xlink:href="../../d2/d11/emissive-particle-render-system_8cpp.html" target="_top" xlink:title=" ">
<polygon fill="white" stroke="#666666" points="1595.74,-97 1465.74,-97 1465.74,-55.25 1595.74,-55.25 1595.74,-97"/>
<text text-anchor="start" x="1473.74" y="-83.5" font-family="Helvetica,sans-Serif" font-size="10.00">engine/subsystems/render</text>
<text text-anchor="start" x="1473.74" y="-72.25" font-family="Helvetica,sans-Serif" font-size="10.00">/detail/emissive&#45;particle</text>
<text text-anchor="middle" x="1530.74" y="-61" font-family="Helvetica,sans-Serif" font-size="10.00">&#45;render&#45;system.cpp</text>
</a>
</g>
</g>
<!-- Node1&#45;&gt;Node18 -->
<g id="edge45_Node000001_Node000018" class="edge">
<title>Node1&#45;&gt;Node18</title>
<g id="a_edge45_Node000001_Node000018"><a xlink:title=" ">
<path fill="none" stroke="#63b8ff" d="M1514.16,-454.54C1521.21,-428.35 1530.74,-386.04 1530.74,-348.75 1530.74,-348.75 1530.74,-348.75 1530.74,-208.12 1530.74,-168.78 1530.74,-122.79 1530.74,-97.1"/>
<polygon fill="#63b8ff" stroke="#63b8ff" points="1510.86,-453.34 1511.55,-463.91 1517.61,-455.22 1510.86,-453.34"/>
</a>
</g>
</g>
<!-- Node20 -->
<g id="Node000020" class="node">
<title>Node20</title>
<g id="a_Node000020"><a xlink:href="../../d8/d9c/light-render-system_8cpp.html" target="_top" xlink:title=" ">
<polygon fill="white" stroke="#666666" points="1907.61,-91.38 1761.86,-91.38 1761.86,-60.88 1907.61,-60.88 1907.61,-91.38"/>
<text text-anchor="start" x="1769.86" y="-77.88" font-family="Helvetica,sans-Serif" font-size="10.00">engine/subsystems/render</text>
<text text-anchor="middle" x="1834.74" y="-66.62" font-family="Helvetica,sans-Serif" font-size="10.00">/detail/light&#45;render&#45;system.cpp</text>
</a>
</g>
</g>
<!-- Node1&#45;&gt;Node20 -->
<g id="edge47_Node000001_Node000020" class="edge">
<title>Node1&#45;&gt;Node20</title>
<g id="a_edge47_Node000001_Node000020"><a xlink:title=" ">
<path fill="none" stroke="#63b8ff" d="M1537.55,-458.28C1566.93,-435.01 1606.74,-394.96 1606.74,-348.75 1606.74,-348.75 1606.74,-348.75 1606.74,-208.12 1606.74,-165.78 1726.45,-116.02 1792.39,-91.82"/>
<polygon fill="#63b8ff" stroke="#63b8ff" points="1535.47,-455.46 1529.64,-464.31 1539.71,-461.02 1535.47,-455.46"/>
</a>
</g>
</g>
<!-- Node27 -->
<g id="Node000027" class="node">
<title>Node27</title>
<g id="a_Node000027"><a xlink:href="../../d8/dcb/emissive-render-system_8cpp.html" target="_top" xlink:title=" ">
<polygon fill="white" stroke="#666666" points="1246.74,-296.5 1116.74,-296.5 1116.74,-254.75 1246.74,-254.75 1246.74,-296.5"/>
<text text-anchor="start" x="1124.74" y="-283" font-family="Helvetica,sans-Serif" font-size="10.00">engine/subsystems/render</text>
<text text-anchor="start" x="1124.74" y="-271.75" font-family="Helvetica,sans-Serif" font-size="10.00">/detail/emissive&#45;render</text>
<text text-anchor="middle" x="1181.74" y="-260.5" font-family="Helvetica,sans-Serif" font-size="10.00">&#45;system.cpp</text>
</a>
</g>
</g>
<!-- Node1&#45;&gt;Node27 -->
<g id="edge46_Node000001_Node000027" class="edge">
<title>Node1&#45;&gt;Node27</title>
<g id="a_edge46_Node000001_Node000027"><a xlink:title=" ">
<path fill="none" stroke="#63b8ff" d="M1455.04,-460.79C1433.94,-452.27 1409.64,-441.45 1388.74,-429.5 1317.76,-388.92 1242.48,-328.24 1205.32,-296.93"/>
<polygon fill="#63b8ff" stroke="#63b8ff" points="1453.75,-464.04 1464.34,-464.47 1456.33,-457.53 1453.75,-464.04"/>
</a>
</g>
</g>
<!-- Node28 -->
<g id="Node000028" class="node">
<title>Node28</title>
<g id="a_Node000028"><a xlink:href="../../d1/d62/opaque-render-system_8cpp.html" target="_top" xlink:title=" ">
<polygon fill="white" stroke="#666666" points="1424.36,-290.88 1265.11,-290.88 1265.11,-260.38 1424.36,-260.38 1424.36,-290.88"/>
<text text-anchor="start" x="1273.11" y="-277.38" font-family="Helvetica,sans-Serif" font-size="10.00">engine/subsystems/render</text>
<text text-anchor="middle" x="1344.74" y="-266.12" font-family="Helvetica,sans-Serif" font-size="10.00">/detail/opaque&#45;render&#45;system.cpp</text>
</a>
</g>
</g>
<!-- Node1&#45;&gt;Node28 -->
<g id="edge48_Node000001_Node000028" class="edge">
<title>Node1&#45;&gt;Node28</title>
<g id="a_edge48_Node000001_Node000028"><a xlink:title=" ">
<path fill="none" stroke="#63b8ff" d="M1469.66,-459.32C1436.67,-439.18 1389.75,-405.31 1363.74,-363 1349.9,-340.5 1346.08,-309.25 1345.06,-291.15"/>
<polygon fill="#63b8ff" stroke="#63b8ff" points="1467.72,-462.24 1478.11,-464.35 1471.3,-456.23 1467.72,-462.24"/>
</a>
</g>
</g>
<!-- Node29 -->
<g id="Node000029" class="node">
<title>Node29</title>
<g id="a_Node000029"><a xlink:href="../../d6/dab/model-loader_8cpp.html" target="_top" xlink:title=" ">
<polygon fill="white" stroke="#666666" points="1756.61,-429.5 1634.86,-429.5 1634.86,-399 1756.61,-399 1756.61,-429.5"/>
<text text-anchor="start" x="1642.86" y="-416" font-family="Helvetica,sans-Serif" font-size="10.00">engine/subsystems/core</text>
<text text-anchor="middle" x="1695.74" y="-404.75" font-family="Helvetica,sans-Serif" font-size="10.00">/model&#45;loader.cpp</text>
</a>
</g>
</g>
<!-- Node1&#45;&gt;Node29 -->
<g id="edge42_Node000001_Node000029" class="edge">
<title>Node1&#45;&gt;Node29</title>
<g id="a_edge42_Node000001_Node000029"><a xlink:title=" ">
<path fill="none" stroke="#63b8ff" d="M1560.48,-461.41C1589.69,-451.44 1625.33,-439.28 1652.69,-429.94"/>
<polygon fill="#63b8ff" stroke="#63b8ff" points="1559.39,-458.08 1551.06,-464.63 1561.65,-464.71 1559.39,-458.08"/>
</a>
</g>
</g>
<!-- Node30 -->
<g id="Node000030" class="node">
<title>Node30</title>
<g id="a_Node000030"><a xlink:href="../../d3/d4f/model-system_8cpp.html" target="_top" xlink:title=" ">
<polygon fill="white" stroke="#666666" points="1904.74,-429.5 1774.74,-429.5 1774.74,-399 1904.74,-399 1904.74,-429.5"/>
<text text-anchor="start" x="1782.74" y="-416" font-family="Helvetica,sans-Serif" font-size="10.00">engine/subsystems/render</text>
<text text-anchor="middle" x="1839.74" y="-404.75" font-family="Helvetica,sans-Serif" font-size="10.00">/model&#45;system.cpp</text>
</a>
</g>
</g>
<!-- Node1&#45;&gt;Node30 -->
<g id="edge49_Node000001_Node000030" class="edge">
<title>Node1&#45;&gt;Node30</title>
<g id="a_edge49_Node000001_Node000030"><a xlink:title=" ">
<path fill="none" stroke="#63b8ff" d="M1583.41,-464.9C1641.22,-453.7 1719.67,-438.51 1774.49,-427.89"/>
<polygon fill="#63b8ff" stroke="#63b8ff" points="1582.77,-461.46 1573.62,-466.8 1584.1,-468.33 1582.77,-461.46"/>
</a>
</g>
</g>
<!-- Node31 -->
<g id="Node000031" class="node">
<title>Node31</title>
<g id="a_Node000031"><a xlink:href="../../d6/de4/subsystems_2render_2render_8hpp.html" target="_top" xlink:title=" ">
<polygon fill="white" stroke="#666666" points="1502.74,-363 1372.74,-363 1372.74,-332.5 1502.74,-332.5 1502.74,-363"/>
<text text-anchor="start" x="1380.74" y="-349.5" font-family="Helvetica,sans-Serif" font-size="10.00">engine/subsystems/render</text>
<text text-anchor="middle" x="1437.74" y="-338.25" font-family="Helvetica,sans-Serif" font-size="10.00">/render.hpp</text>
</a>
</g>
</g>
<!-- Node1&#45;&gt;Node31 -->
<g id="edge50_Node000001_Node000031" class="edge">
<title>Node1&#45;&gt;Node31</title>
<g id="a_edge50_Node000001_Node000031"><a xlink:title=" ">
<path fill="none" stroke="#63b8ff" d="M1493.9,-455.38C1479.66,-428.34 1457.15,-385.6 1445.42,-363.33"/>
<polygon fill="#63b8ff" stroke="#63b8ff" points="1490.63,-456.67 1498.38,-463.89 1496.82,-453.41 1490.63,-456.67"/>
</a>
</g>
</g>
<!-- Node3 -->
<g id="Node000003" class="node">
<title>Node3</title>
<g id="a_Node000003"><a xlink:href="../../d1/d47/controller_8cpp.html" target="_top" xlink:title=" ">
<polygon fill="white" stroke="#666666" points="666.86,-19.25 552.61,-19.25 552.61,0 666.86,0 666.86,-19.25"/>
<text text-anchor="middle" x="609.74" y="-5.75" font-family="Helvetica,sans-Serif" font-size="10.00">d3d_test/controller.cpp</text>
</a>
</g>
</g>
<!-- Node2&#45;&gt;Node3 -->
<g id="edge2_Node000002_Node000003" class="edge">
<title>Node2&#45;&gt;Node3</title>
<g id="a_edge2_Node000002_Node000003"><a xlink:title=" ">
<path fill="none" stroke="#63b8ff" d="M593.1,-398.93C499.38,-350.27 214.12,-187.02 326.74,-55.25 355.13,-22.02 477.92,-13.39 552.12,-11.24"/>
<polygon fill="#63b8ff" stroke="#63b8ff" points="591.46,-402.02 601.95,-403.47 594.65,-395.79 591.46,-402.02"/>
</a>
</g>
</g>
<!-- Node4 -->
<g id="Node000004" class="node">
<title>Node4</title>
<g id="a_Node000004"><a xlink:href="../../d5/d9b/scene_8hpp.html" target="_top" xlink:title=" ">
<polygon fill="white" stroke="#666666" points="981.49,-357.38 867.99,-357.38 867.99,-338.12 981.49,-338.12 981.49,-357.38"/>
<text text-anchor="middle" x="924.74" y="-343.88" font-family="Helvetica,sans-Serif" font-size="10.00">engine/core/scene.hpp</text>
</a>
</g>
</g>
<!-- Node2&#45;&gt;Node4 -->
<g id="edge3_Node000002_Node000004" class="edge">
<title>Node2&#45;&gt;Node4</title>
<g id="a_edge3_Node000002_Node000004"><a xlink:title=" ">
<path fill="none" stroke="#63b8ff" d="M675.47,-401.81C734.48,-389.25 828.04,-369.33 882.18,-357.81"/>
<polygon fill="#63b8ff" stroke="#63b8ff" points="675.04,-398.32 665.99,-403.83 676.5,-405.17 675.04,-398.32"/>
</a>
</g>
</g>
<!-- Node24 -->
<g id="Node000024" class="node">
<title>Node24</title>
<g id="a_Node000024"><a xlink:href="../../db/df9/deferred-hdr-render-pipeline_8hpp.html" target="_top" xlink:title=" ">
<polygon fill="white" stroke="#666666" points="280.11,-163.5 149.36,-163.5 149.36,-133 280.11,-133 280.11,-163.5"/>
<text text-anchor="start" x="157.36" y="-150" font-family="Helvetica,sans-Serif" font-size="10.00">engine/direct3d11/deferred</text>
<text text-anchor="middle" x="214.74" y="-138.75" font-family="Helvetica,sans-Serif" font-size="10.00">&#45;hdr&#45;render&#45;pipeline.hpp</text>
</a>
</g>
</g>
<!-- Node2&#45;&gt;Node24 -->
<g id="edge40_Node000002_Node000024" class="edge">
<title>Node2&#45;&gt;Node24</title>
<g id="a_edge40_Node000002_Node000024"><a xlink:title=" ">
<path fill="none" stroke="#63b8ff" d="M545.04,-407.48C470.94,-400.59 365.14,-386.89 331.74,-363 260.33,-311.94 227.81,-203.22 218.06,-163.86"/>
<polygon fill="#63b8ff" stroke="#63b8ff" points="544.41,-410.94 554.68,-408.35 545.04,-403.96 544.41,-410.94"/>
</a>
</g>
</g>
<!-- Node26 -->
<g id="Node000026" class="node">
<title>Node26</title>
<g id="a_Node000026"><a xlink:href="../../d6/d54/renderer_8cpp.html" target="_top" xlink:title=" ">
<polygon fill="white" stroke="#666666" points="687.11,-285.25 556.36,-285.25 556.36,-266 687.11,-266 687.11,-285.25"/>
<text text-anchor="middle" x="621.74" y="-271.75" font-family="Helvetica,sans-Serif" font-size="10.00">engine/render/renderer.cpp</text>
</a>
</g>
</g>
<!-- Node2&#45;&gt;Node26 -->
<g id="edge41_Node000002_Node000026" class="edge">
<title>Node2&#45;&gt;Node26</title>
<g id="a_edge41_Node000002_Node000026"><a xlink:title=" ">
<path fill="none" stroke="#63b8ff" d="M621.74,-393.07C621.74,-362.82 621.74,-307.01 621.74,-285.44"/>
<polygon fill="#63b8ff" stroke="#63b8ff" points="618.24,-392.77 621.74,-402.77 625.24,-392.77 618.24,-392.77"/>
</a>
</g>
</g>
<!-- Node5 -->
<g id="Node000005" class="node">
<title>Node5</title>
<g id="a_Node000005"><a xlink:href="../../de/d46/engine_8hpp.html" target="_top" xlink:title=" ">
<polygon fill="white" stroke="#666666" points="947.61,-157.88 831.86,-157.88 831.86,-138.62 947.61,-138.62 947.61,-157.88"/>
<text text-anchor="middle" x="889.74" y="-144.38" font-family="Helvetica,sans-Serif" font-size="10.00">engine/core/engine.hpp</text>
</a>
</g>
</g>
<!-- Node4&#45;&gt;Node5 -->
<g id="edge4_Node000004_Node000005" class="edge">
<title>Node4&#45;&gt;Node5</title>
<g id="a_edge4_Node000004_Node000005"><a xlink:title=" ">
<path fill="none" stroke="#63b8ff" d="M914.22,-327.9C909.58,-318.71 904.56,-307.32 901.74,-296.5 888.39,-245.38 888.76,-181.18 889.4,-158.06"/>
<polygon fill="#63b8ff" stroke="#63b8ff" points="911.01,-329.32 918.79,-336.51 917.19,-326.03 911.01,-329.32"/>
</a>
</g>
</g>
<!-- Node4&#45;&gt;Node16 -->
<g id="edge35_Node000004_Node000016" class="edge">
<title>Node4&#45;&gt;Node16</title>
<g id="a_edge35_Node000004_Node000016"><a xlink:title=" ">
<path fill="none" stroke="#63b8ff" d="M856.73,-336.61C820.35,-329.18 775.76,-316.75 739.74,-296.5 716.24,-283.29 717.05,-271.26 695.74,-254.75 607.23,-186.2 491.25,-120.31 439.15,-91.84"/>
<polygon fill="#63b8ff" stroke="#63b8ff" points="855.77,-339.99 866.26,-338.47 857.11,-333.12 855.77,-339.99"/>
</a>
</g>
</g>
<!-- Node4&#45;&gt;Node17 -->
<g id="edge36_Node000004_Node000017" class="edge">
<title>Node4&#45;&gt;Node17</title>
<g id="a_edge36_Node000004_Node000017"><a xlink:title=" ">
<path fill="none" stroke="#63b8ff" d="M977.08,-334.72C1005.39,-326.7 1040.1,-314.3 1067.74,-296.5 1089.34,-282.58 1085.89,-268.27 1107.74,-254.75 1151.71,-227.53 1473.14,-135.08 1613.48,-95.43"/>
<polygon fill="#63b8ff" stroke="#63b8ff" points="976.37,-331.29 967.64,-337.29 978.21,-338.04 976.37,-331.29"/>
</a>
</g>
</g>
<!-- Node21 -->
<g id="Node000021" class="node">
<title>Node21</title>
<g id="a_Node000021"><a xlink:href="../../d3/dfe/particle-render-system_8cpp.html" target="_top" xlink:title=" ">
<polygon fill="white" stroke="#666666" points="1447.74,-97 1317.74,-97 1317.74,-55.25 1447.74,-55.25 1447.74,-97"/>
<text text-anchor="start" x="1325.74" y="-83.5" font-family="Helvetica,sans-Serif" font-size="10.00">engine/subsystems/render</text>
<text text-anchor="start" x="1325.74" y="-72.25" font-family="Helvetica,sans-Serif" font-size="10.00">/detail/particle&#45;render</text>
<text text-anchor="middle" x="1382.74" y="-61" font-family="Helvetica,sans-Serif" font-size="10.00">&#45;system.cpp</text>
</a>
</g>
</g>
<!-- Node4&#45;&gt;Node21 -->
<g id="edge39_Node000004_Node000021" class="edge">
<title>Node4&#45;&gt;Node21</title>
<g id="a_edge39_Node000004_Node000021"><a xlink:title=" ">
<path fill="none" stroke="#63b8ff" d="M960.47,-333.47C982.06,-324.62 1009.6,-311.8 1031.74,-296.5 1053.65,-281.35 1053.48,-270.8 1074.74,-254.75 1163.03,-188.06 1278.68,-127.68 1340.09,-97.47"/>
<polygon fill="#63b8ff" stroke="#63b8ff" points="959.18,-330.22 951.18,-337.17 961.77,-336.72 959.18,-330.22"/>
</a>
</g>
</g>
<!-- Node22 -->
<g id="Node000022" class="node">
<title>Node22</title>
<g id="a_Node000022"><a xlink:href="../../d9/d06/render-pipeline_8hpp.html" target="_top" xlink:title=" ">
<polygon fill="white" stroke="#666666" points="848.74,-290.88 748.74,-290.88 748.74,-260.38 848.74,-260.38 848.74,-290.88"/>
<text text-anchor="start" x="756.74" y="-277.38" font-family="Helvetica,sans-Serif" font-size="10.00">engine/core/layers</text>
<text text-anchor="middle" x="798.74" y="-266.12" font-family="Helvetica,sans-Serif" font-size="10.00">/render&#45;pipeline.hpp</text>
</a>
</g>
</g>
<!-- Node4&#45;&gt;Node22 -->
<g id="edge26_Node000004_Node000022" class="edge">
<title>Node4&#45;&gt;Node22</title>
<g id="a_edge26_Node000004_Node000022"><a xlink:title=" ">
<path fill="none" stroke="#63b8ff" d="M898.73,-332.28C877.15,-320.27 846.61,-303.27 824.97,-291.23"/>
<polygon fill="#63b8ff" stroke="#63b8ff" points="896.76,-335.19 907.2,-336.99 900.16,-329.07 896.76,-335.19"/>
</a>
</g>
</g>
<!-- Node25 -->
<g id="Node000025" class="node">
<title>Node25</title>
<g id="a_Node000025"><a xlink:href="../../d4/d7c/deferred-resolve_8cpp.html" target="_top" xlink:title=" ">
<polygon fill="white" stroke="#666666" points="1023.11,-290.88 910.36,-290.88 910.36,-260.38 1023.11,-260.38 1023.11,-290.88"/>
<text text-anchor="start" x="918.36" y="-277.38" font-family="Helvetica,sans-Serif" font-size="10.00">engine/render/deferred</text>
<text text-anchor="middle" x="966.74" y="-266.12" font-family="Helvetica,sans-Serif" font-size="10.00">&#45;resolve.cpp</text>
</a>
</g>
</g>
<!-- Node4&#45;&gt;Node25 -->
<g id="edge33_Node000004_Node000025" class="edge">
<title>Node4&#45;&gt;Node25</title>
<g id="a_edge33_Node000004_Node000025"><a xlink:title=" ">
<path fill="none" stroke="#63b8ff" d="M935.77,-328.34C942.69,-316.77 951.5,-302.06 957.95,-291.29"/>
<polygon fill="#63b8ff" stroke="#63b8ff" points="932.97,-326.19 930.83,-336.57 938.98,-329.79 932.97,-326.19"/>
</a>
</g>
</g>
<!-- Node4&#45;&gt;Node26 -->
<g id="edge34_Node000004_Node000026" class="edge">
<title>Node4&#45;&gt;Node26</title>
<g id="a_edge34_Node000004_Node000026"><a xlink:title=" ">
<path fill="none" stroke="#63b8ff" d="M871.48,-335.21C826.04,-325.26 759,-310.36 700.74,-296.5 686.43,-293.1 670.71,-289.18 657.08,-285.72"/>
<polygon fill="#63b8ff" stroke="#63b8ff" points="870.56,-338.59 881.07,-337.3 872.05,-331.75 870.56,-338.59"/>
</a>
</g>
</g>
<!-- Node4&#45;&gt;Node27 -->
<g id="edge37_Node000004_Node000027" class="edge">
<title>Node4&#45;&gt;Node27</title>
<g id="a_edge37_Node000004_Node000027"><a xlink:title=" ">
<path fill="none" stroke="#63b8ff" d="M968.96,-334.68C1009.53,-323.61 1070.16,-307.07 1116.34,-294.47"/>
<polygon fill="#63b8ff" stroke="#63b8ff" points="968.26,-331.25 959.53,-337.26 970.1,-338 968.26,-331.25"/>
</a>
</g>
</g>
<!-- Node4&#45;&gt;Node28 -->
<g id="edge38_Node000004_Node000028" class="edge">
<title>Node4&#45;&gt;Node28</title>
<g id="a_edge38_Node000004_Node000028"><a xlink:title=" ">
<path fill="none" stroke="#63b8ff" d="M993,-337.79C1060.09,-328.65 1165.28,-313.45 1255.74,-296.5 1264.14,-294.93 1272.96,-293.13 1281.64,-291.28"/>
<polygon fill="#63b8ff" stroke="#63b8ff" points="992.69,-334.3 983.25,-339.11 993.63,-341.24 992.69,-334.3"/>
</a>
</g>
</g>
<!-- Node6 -->
<g id="Node000006" class="node">
<title>Node6</title>
<g id="a_Node000006"><a xlink:href="../../d0/d86/camera-movement_8hpp.html" target="_top" xlink:title=" ">
<polygon fill="white" stroke="#666666" points="1299.49,-85.75 1143.99,-85.75 1143.99,-66.5 1299.49,-66.5 1299.49,-85.75"/>
<text text-anchor="middle" x="1221.74" y="-72.25" font-family="Helvetica,sans-Serif" font-size="10.00">d3d_test/camera&#45;movement.hpp</text>
</a>
</g>
</g>
<!-- Node5&#45;&gt;Node6 -->
<g id="edge5_Node000005_Node000006" class="edge">
<title>Node5&#45;&gt;Node6</title>
<g id="a_edge5_Node000005_Node000006"><a xlink:title=" ">
<path fill="none" stroke="#63b8ff" d="M946.56,-135.97C996.27,-126.01 1070.37,-110.95 1134.74,-97 1150.48,-93.59 1167.8,-89.67 1182.8,-86.21"/>
<polygon fill="#63b8ff" stroke="#63b8ff" points="946.01,-132.51 936.89,-137.9 947.38,-139.37 946.01,-132.51"/>
</a>
</g>
</g>
<!-- Node8 -->
<g id="Node000008" class="node">
<title>Node8</title>
<g id="a_Node000008"><a xlink:href="../../dc/dfb/controller_8hpp.html" target="_top" xlink:title=" ">
<polygon fill="white" stroke="#666666" points="130.86,-85.75 16.61,-85.75 16.61,-66.5 130.86,-66.5 130.86,-85.75"/>
<text text-anchor="middle" x="73.74" y="-72.25" font-family="Helvetica,sans-Serif" font-size="10.00">d3d_test/controller.hpp</text>
</a>
</g>
</g>
<!-- Node5&#45;&gt;Node8 -->
<g id="edge8_Node000005_Node000008" class="edge">
<title>Node5&#45;&gt;Node8</title>
<g id="a_edge8_Node000005_Node000008"><a xlink:title=" ">
<path fill="none" stroke="#63b8ff" d="M820.21,-147.69C687.17,-147.42 387.84,-141.37 140.74,-97 126.88,-94.51 111.83,-90.2 99.51,-86.22"/>
<polygon fill="#63b8ff" stroke="#63b8ff" points="819.89,-151.19 829.9,-147.7 819.9,-144.19 819.89,-151.19"/>
</a>
</g>
</g>
<!-- Node9 -->
<g id="Node000009" class="node">
<title>Node9</title>
<g id="a_Node000009"><a xlink:href="../../d9/d0f/main_8cc.html" target="_top" xlink:title=" ">
<polygon fill="white" stroke="#666666" points="118.86,-19.25 28.61,-19.25 28.61,0 118.86,0 118.86,-19.25"/>
<text text-anchor="middle" x="73.74" y="-5.75" font-family="Helvetica,sans-Serif" font-size="10.00">d3d_test/main.cc</text>
</a>
</g>
</g>
<!-- Node5&#45;&gt;Node9 -->
<g id="edge11_Node000005_Node000009" class="edge">
<title>Node5&#45;&gt;Node9</title>
<g id="a_edge11_Node000005_Node000009"><a xlink:title=" ">
<path fill="none" stroke="#63b8ff" d="M820.15,-139.92C724,-129.4 559.51,-109.9 534.74,-97 512.21,-85.27 518.46,-66.58 495.74,-55.25 430.54,-22.75 214.26,-13.83 119.21,-11.46"/>
<polygon fill="#63b8ff" stroke="#63b8ff" points="819.69,-143.39 830.01,-140.99 820.45,-136.43 819.69,-143.39"/>
</a>
</g>
</g>
<!-- Node10 -->
<g id="Node000010" class="node">
<title>Node10</title>
<g id="a_Node000010"><a xlink:href="../../da/df5/object-editor_8hpp.html" target="_top" xlink:title=" ">
<polygon fill="white" stroke="#666666" points="821.61,-85.75 693.86,-85.75 693.86,-66.5 821.61,-66.5 821.61,-85.75"/>
<text text-anchor="middle" x="757.74" y="-72.25" font-family="Helvetica,sans-Serif" font-size="10.00">d3d_test/object&#45;editor.hpp</text>
</a>
</g>
</g>
<!-- Node5&#45;&gt;Node10 -->
<g id="edge12_Node000005_Node000010" class="edge">
<title>Node5&#45;&gt;Node10</title>
<g id="a_edge12_Node000005_Node000010"><a xlink:title=" ">
<path fill="none" stroke="#63b8ff" d="M862.65,-132.86C836.24,-118.83 796.9,-97.93 774.66,-86.11"/>
<polygon fill="#63b8ff" stroke="#63b8ff" points="860.94,-135.92 871.41,-137.52 864.22,-129.73 860.94,-135.92"/>
</a>
</g>
</g>
<!-- Node13 -->
<g id="Node000013" class="node">
<title>Node13</title>
<g id="a_Node000013"><a xlink:href="../../d9/d55/scene-viewer_8hpp.html" target="_top" xlink:title=" ">
<polygon fill="white" stroke="#666666" points="675.86,-85.75 543.61,-85.75 543.61,-66.5 675.86,-66.5 675.86,-85.75"/>
<text text-anchor="middle" x="609.74" y="-72.25" font-family="Helvetica,sans-Serif" font-size="10.00">d3d_test/scene&#45;viewer.hpp</text>
</a>
</g>
</g>
<!-- Node5&#45;&gt;Node13 -->
<g id="edge16_Node000005_Node000013" class="edge">
<title>Node5&#45;&gt;Node13</title>
<g id="a_edge16_Node000005_Node000013"><a xlink:title=" ">
<path fill="none" stroke="#63b8ff" d="M840.72,-135.51C799.15,-125.48 737.96,-110.58 684.74,-97 671.16,-93.54 656.24,-89.61 643.3,-86.16"/>
<polygon fill="#63b8ff" stroke="#63b8ff" points="839.89,-138.91 850.43,-137.84 841.53,-132.1 839.89,-138.91"/>
</a>
</g>
</g>
<!-- Node14 -->
<g id="Node000014" class="node">
<title>Node14</title>
<g id="a_Node000014"><a xlink:href="../../da/d5c/engine_8cpp.html" target="_top" xlink:title=" ">
<polygon fill="white" stroke="#666666" points="955.61,-85.75 839.86,-85.75 839.86,-66.5 955.61,-66.5 955.61,-85.75"/>
<text text-anchor="middle" x="897.74" y="-72.25" font-family="Helvetica,sans-Serif" font-size="10.00">engine/core/engine.cpp</text>
</a>
</g>
</g>
<!-- Node5&#45;&gt;Node14 -->
<g id="edge18_Node000005_Node000014" class="edge">
<title>Node5&#45;&gt;Node14</title>
<g id="a_edge18_Node000005_Node000014"><a xlink:title=" ">
<path fill="none" stroke="#63b8ff" d="M892.02,-127.28C893.56,-113.74 895.53,-96.49 896.71,-86.16"/>
<polygon fill="#63b8ff" stroke="#63b8ff" points="888.58,-126.53 890.92,-136.86 895.53,-127.33 888.58,-126.53"/>
</a>
</g>
</g>
<!-- Node15 -->
<g id="Node000015" class="node">
<title>Node15</title>
<g id="a_Node000015"><a xlink:href="../../d1/da2/deferred-hdr-render-pipeline_8cpp.html" target="_top" xlink:title=" ">
<polygon fill="white" stroke="#666666" points="280.11,-91.38 149.36,-91.38 149.36,-60.88 280.11,-60.88 280.11,-91.38"/>
<text text-anchor="start" x="157.36" y="-77.88" font-family="Helvetica,sans-Serif" font-size="10.00">engine/direct3d11/deferred</text>
<text text-anchor="middle" x="214.74" y="-66.62" font-family="Helvetica,sans-Serif" font-size="10.00">&#45;hdr&#45;render&#45;pipeline.cpp</text>
</a>
</g>
</g>
<!-- Node5&#45;&gt;Node15 -->
<g id="edge19_Node000005_Node000015" class="edge">
<title>Node5&#45;&gt;Node15</title>
<g id="a_edge19_Node000005_Node000015"><a xlink:title=" ">
<path fill="none" stroke="#63b8ff" d="M820.38,-143C713.91,-136.04 503.89,-120.58 326.74,-97 311.66,-94.99 295.53,-92.4 280.33,-89.74"/>
<polygon fill="#63b8ff" stroke="#63b8ff" points="819.89,-146.48 830.09,-143.63 820.34,-139.49 819.89,-146.48"/>
</a>
</g>
</g>
<!-- Node5&#45;&gt;Node16 -->
<g id="edge20_Node000005_Node000016" class="edge">
<title>Node5&#45;&gt;Node16</title>
<g id="a_edge20_Node000005_Node000016"><a xlink:title=" ">
<path fill="none" stroke="#63b8ff" d="M820.55,-140.16C742.73,-131.75 612.7,-116.4 501.74,-97 493.07,-95.48 483.97,-93.7 475.03,-91.84"/>
<polygon fill="#63b8ff" stroke="#63b8ff" points="819.83,-143.6 830.14,-141.19 820.57,-136.64 819.83,-143.6"/>
</a>
</g>
</g>
<!-- Node5&#45;&gt;Node17 -->
<g id="edge21_Node000005_Node000017" class="edge">
<title>Node5&#45;&gt;Node17</title>
<g id="a_edge21_Node000005_Node000017"><a xlink:title=" ">
<path fill="none" stroke="#63b8ff" d="M959.31,-146.78C1087.74,-144.95 1370.36,-136.34 1604.74,-97 1607.62,-96.52 1610.56,-95.97 1613.52,-95.37"/>
<polygon fill="#63b8ff" stroke="#63b8ff" points="959.57,-143.28 949.62,-146.91 959.67,-150.28 959.57,-143.28"/>
</a>
</g>
</g>
<!-- Node5&#45;&gt;Node18 -->
<g id="edge22_Node000005_Node000018" class="edge">
<title>Node5&#45;&gt;Node18</title>
<g id="a_edge22_Node000005_Node000018"><a xlink:title=" ">
<path fill="none" stroke="#63b8ff" d="M959.03,-144.99C1066.38,-140.62 1279.06,-128.49 1456.74,-97 1459.62,-96.49 1462.55,-95.92 1465.51,-95.3"/>
<polygon fill="#63b8ff" stroke="#63b8ff" points="959.09,-141.49 949.23,-145.38 959.36,-148.48 959.09,-141.49"/>
</a>
</g>
</g>
<!-- Node19 -->
<g id="Node000019" class="node">
<title>Node19</title>
<g id="a_Node000019"><a xlink:href="../../df/d58/grass-render-system_8cpp.html" target="_top" xlink:title=" ">
<polygon fill="white" stroke="#666666" points="1125.61,-91.38 973.86,-91.38 973.86,-60.88 1125.61,-60.88 1125.61,-91.38"/>
<text text-anchor="start" x="981.86" y="-77.88" font-family="Helvetica,sans-Serif" font-size="10.00">engine/subsystems/render</text>
<text text-anchor="middle" x="1049.74" y="-66.62" font-family="Helvetica,sans-Serif" font-size="10.00">/detail/grass&#45;render&#45;system.cpp</text>
</a>
</g>
</g>
<!-- Node5&#45;&gt;Node19 -->
<g id="edge23_Node000005_Node000019" class="edge">
<title>Node5&#45;&gt;Node19</title>
<g id="a_edge23_Node000005_Node000019"><a xlink:title=" ">
<path fill="none" stroke="#63b8ff" d="M920.51,-133.76C947.91,-121.76 987.89,-104.23 1016.12,-91.86"/>
<polygon fill="#63b8ff" stroke="#63b8ff" points="919.47,-130.4 911.71,-137.62 922.28,-136.81 919.47,-130.4"/>
</a>
</g>
</g>
<!-- Node5&#45;&gt;Node20 -->
<g id="edge24_Node000005_Node000020" class="edge">
<title>Node5&#45;&gt;Node20</title>
<g id="a_edge24_Node000005_Node000020"><a xlink:title=" ">
<path fill="none" stroke="#63b8ff" d="M959.44,-147.42C1106.76,-146.85 1460.25,-140.6 1752.74,-97 1761.58,-95.68 1770.86,-93.86 1779.87,-91.86"/>
<polygon fill="#63b8ff" stroke="#63b8ff" points="959.43,-143.92 949.44,-147.45 959.45,-150.92 959.43,-143.92"/>
</a>
</g>
</g>
<!-- Node5&#45;&gt;Node21 -->
<g id="edge25_Node000005_Node000021" class="edge">
<title>Node5&#45;&gt;Node21</title>
<g id="a_edge25_Node000005_Node000021"><a xlink:title=" ">
<path fill="none" stroke="#63b8ff" d="M959.35,-140.12C1060.6,-129.55 1243.54,-109.6 1308.74,-97 1311.61,-96.44 1314.54,-95.84 1317.49,-95.19"/>
<polygon fill="#63b8ff" stroke="#63b8ff" points="959.11,-136.63 949.52,-141.15 959.83,-143.59 959.11,-136.63"/>
</a>
</g>
</g>
<!-- Node6&#45;&gt;Node3 -->
<g id="edge7_Node000006_Node000003" class="edge">
<title>Node6&#45;&gt;Node3</title>
<g id="a_edge7_Node000006_Node000003"><a xlink:title=" ">
<path fill="none" stroke="#63b8ff" d="M1176.4,-63.45C1163.06,-60.38 1148.38,-57.34 1134.74,-55.25 934.21,-24.58 881.56,-39.66 679.74,-19.25 675.6,-18.83 671.32,-18.37 667.02,-17.89"/>
<polygon fill="#63b8ff" stroke="#63b8ff" points="1175.23,-66.77 1185.77,-65.68 1176.85,-59.96 1175.23,-66.77"/>
</a>
</g>
</g>
<!-- Node7 -->
<g id="Node000007" class="node">
<title>Node7</title>
<g id="a_Node000007"><a xlink:href="../../d5/dbb/camera-movement_8cpp.html" target="_top" xlink:title=" ">
<polygon fill="white" stroke="#666666" points="1299.49,-19.25 1143.99,-19.25 1143.99,0 1299.49,0 1299.49,-19.25"/>
<text text-anchor="middle" x="1221.74" y="-5.75" font-family="Helvetica,sans-Serif" font-size="10.00">d3d_test/camera&#45;movement.cpp</text>
</a>
</g>
</g>
<!-- Node6&#45;&gt;Node7 -->
<g id="edge6_Node000006_Node000007" class="edge">
<title>Node6&#45;&gt;Node7</title>
<g id="a_edge6_Node000006_Node000007"><a xlink:title=" ">
<path fill="none" stroke="#63b8ff" d="M1221.74,-54.65C1221.74,-42.82 1221.74,-28.54 1221.74,-19.52"/>
<polygon fill="#63b8ff" stroke="#63b8ff" points="1218.24,-54.64 1221.74,-64.64 1225.24,-54.64 1218.24,-54.64"/>
</a>
</g>
</g>
<!-- Node8&#45;&gt;Node3 -->
<g id="edge9_Node000008_Node000003" class="edge">
<title>Node8&#45;&gt;Node3</title>
<g id="a_edge9_Node000008_Node000003"><a xlink:title=" ">
<path fill="none" stroke="#63b8ff" d="M110.75,-62.75C120.42,-59.91 130.89,-57.16 140.74,-55.25 287.27,-26.82 463.23,-16.25 552.19,-12.52"/>
<polygon fill="#63b8ff" stroke="#63b8ff" points="109.84,-59.37 101.3,-65.65 111.89,-66.07 109.84,-59.37"/>
</a>
</g>
</g>
<!-- Node8&#45;&gt;Node9 -->
<g id="edge10_Node000008_Node000009" class="edge">
<title>Node8&#45;&gt;Node9</title>
<g id="a_edge10_Node000008_Node000009"><a xlink:title=" ">
<path fill="none" stroke="#63b8ff" d="M73.74,-54.65C73.74,-42.82 73.74,-28.54 73.74,-19.52"/>
<polygon fill="#63b8ff" stroke="#63b8ff" points="70.24,-54.64 73.74,-64.64 77.24,-54.64 70.24,-54.64"/>
</a>
</g>
</g>
<!-- Node10&#45;&gt;Node3 -->
<g id="edge13_Node000010_Node000003" class="edge">
<title>Node10&#45;&gt;Node3</title>
<g id="a_edge13_Node000010_Node000003"><a xlink:title=" ">
<path fill="none" stroke="#63b8ff" d="M726.49,-61.51C697.6,-48.92 655.48,-30.56 630.52,-19.68"/>
<polygon fill="#63b8ff" stroke="#63b8ff" points="724.89,-64.63 735.46,-65.42 727.69,-58.21 724.89,-64.63"/>
</a>
</g>
</g>
<!-- Node11 -->
<g id="Node000011" class="node">
<title>Node11</title>
<g id="a_Node000011"><a xlink:href="../../d4/d94/object-editor_8cpp.html" target="_top" xlink:title=" ">
<polygon fill="white" stroke="#666666" points="966.61,-19.25 838.86,-19.25 838.86,0 966.61,0 966.61,-19.25"/>
<text text-anchor="middle" x="902.74" y="-5.75" font-family="Helvetica,sans-Serif" font-size="10.00">d3d_test/object&#45;editor.cpp</text>
</a>
</g>
</g>
<!-- Node10&#45;&gt;Node11 -->
<g id="edge14_Node000010_Node000011" class="edge">
<title>Node10&#45;&gt;Node11</title>
<g id="a_edge14_Node000010_Node000011"><a xlink:title=" ">
<path fill="none" stroke="#63b8ff" d="M788.35,-61.51C816.66,-48.92 857.92,-30.56 882.37,-19.68"/>
<polygon fill="#63b8ff" stroke="#63b8ff" points="787.3,-58.14 779.59,-65.41 790.15,-64.54 787.3,-58.14"/>
</a>
</g>
</g>
<!-- Node12 -->
<g id="Node000012" class="node">
<title>Node12</title>
<g id="a_Node000012"><a xlink:href="../../d0/d38/scene-viewer_8cpp.html" target="_top" xlink:title=" ">
<polygon fill="white" stroke="#666666" points="820.86,-19.25 688.61,-19.25 688.61,0 820.86,0 820.86,-19.25"/>
<text text-anchor="middle" x="754.74" y="-5.75" font-family="Helvetica,sans-Serif" font-size="10.00">d3d_test/scene&#45;viewer.cpp</text>
</a>
</g>
</g>
<!-- Node10&#45;&gt;Node12 -->
<g id="edge15_Node000010_Node000012" class="edge">
<title>Node10&#45;&gt;Node12</title>
<g id="a_edge15_Node000010_Node000012"><a xlink:title=" ">
<path fill="none" stroke="#63b8ff" d="M756.8,-55.02C756.25,-43.12 755.57,-28.63 755.15,-19.52"/>
<polygon fill="#63b8ff" stroke="#63b8ff" points="753.29,-54.82 757.25,-64.64 760.28,-54.49 753.29,-54.82"/>
</a>
</g>
</g>
<!-- Node13&#45;&gt;Node3 -->
<g id="edge17_Node000013_Node000003" class="edge">
<title>Node13&#45;&gt;Node3</title>
<g id="a_edge17_Node000013_Node000003"><a xlink:title=" ">
<path fill="none" stroke="#63b8ff" d="M609.74,-54.65C609.74,-42.82 609.74,-28.54 609.74,-19.52"/>
<polygon fill="#63b8ff" stroke="#63b8ff" points="606.24,-54.64 609.74,-64.64 613.24,-54.64 606.24,-54.64"/>
</a>
</g>
</g>
<!-- Node23 -->
<g id="Node000023" class="node">
<title>Node23</title>
<g id="a_Node000023"><a xlink:href="../../d4/d87/layers_8hpp.html" target="_top" xlink:title=" ">
<polygon fill="white" stroke="#666666" points="855.11,-218.75 742.36,-218.75 742.36,-199.5 855.11,-199.5 855.11,-218.75"/>
<text text-anchor="middle" x="798.74" y="-205.25" font-family="Helvetica,sans-Serif" font-size="10.00">engine/core/layers.hpp</text>
</a>
</g>
</g>
<!-- Node22&#45;&gt;Node23 -->
<g id="edge27_Node000022_Node000023" class="edge">
<title>Node22&#45;&gt;Node23</title>
<g id="a_edge27_Node000022_Node000023"><a xlink:title=" ">
<path fill="none" stroke="#63b8ff" d="M798.74,-248.71C798.74,-238.14 798.74,-226.62 798.74,-218.95"/>
<polygon fill="#63b8ff" stroke="#63b8ff" points="795.24,-248.48 798.74,-258.48 802.24,-248.48 795.24,-248.48"/>
</a>
</g>
</g>
<!-- Node22&#45;&gt;Node24 -->
<g id="edge29_Node000022_Node000024" class="edge">
<title>Node22&#45;&gt;Node24</title>
<g id="a_edge29_Node000022_Node000024"><a xlink:title=" ">
<path fill="none" stroke="#63b8ff" d="M737.48,-261.47C626.79,-237.71 394.41,-187.82 280.51,-163.37"/>
<polygon fill="#63b8ff" stroke="#63b8ff" points="736.45,-264.83 746.96,-263.51 737.92,-257.99 736.45,-264.83"/>
</a>
</g>
</g>
<!-- Node23&#45;&gt;Node5 -->
<g id="edge28_Node000023_Node000005" class="edge">
<title>Node23&#45;&gt;Node5</title>
<g id="a_edge28_Node000023_Node000005"><a xlink:title=" ">
<path fill="none" stroke="#63b8ff" d="M821.83,-193.18C838.85,-182.17 861.44,-167.56 875.79,-158.28"/>
<polygon fill="#63b8ff" stroke="#63b8ff" points="820.32,-189.99 813.83,-198.36 824.13,-195.87 820.32,-189.99"/>
</a>
</g>
</g>
<!-- Node24&#45;&gt;Node8 -->
<g id="edge30_Node000024_Node000008" class="edge">
<title>Node24&#45;&gt;Node8</title>
<g id="a_edge30_Node000024_Node000008"><a xlink:title=" ">
<path fill="none" stroke="#63b8ff" d="M175.16,-127.57C147.93,-114.02 113.02,-96.66 92.06,-86.24"/>
<polygon fill="#63b8ff" stroke="#63b8ff" points="173.31,-130.56 183.82,-131.88 176.43,-124.29 173.31,-130.56"/>
</a>
</g>
</g>
<!-- Node24&#45;&gt;Node9 -->
<g id="edge31_Node000024_Node000009" class="edge">
<title>Node24&#45;&gt;Node9</title>
<g id="a_edge31_Node000024_Node000009"><a xlink:title=" ">
<path fill="none" stroke="#63b8ff" d="M137.63,-138.48C85.74,-130.81 23.95,-117.62 7.74,-97 -3.73,-82.41 -0.96,-71.64 7.74,-55.25 16.62,-38.51 34.9,-26.91 49.97,-19.74"/>
<polygon fill="#63b8ff" stroke="#63b8ff" points="136.98,-141.93 147.37,-139.87 137.97,-135 136.98,-141.93"/>
</a>
</g>
</g>
<!-- Node24&#45;&gt;Node15 -->
<g id="edge32_Node000024_Node000015" class="edge">
<title>Node24&#45;&gt;Node15</title>
<g id="a_edge32_Node000024_Node000015"><a xlink:title=" ">
<path fill="none" stroke="#63b8ff" d="M214.74,-121.27C214.74,-111.26 214.74,-100.19 214.74,-91.64"/>
<polygon fill="#63b8ff" stroke="#63b8ff" points="211.24,-121.21 214.74,-131.21 218.24,-121.21 211.24,-121.21"/>
</a>
</g>
</g>
<!-- Node31&#45;&gt;Node5 -->
<g id="edge51_Node000031_Node000005" class="edge">
<title>Node31&#45;&gt;Node5</title>
<g id="a_edge51_Node000031_Node000005"><a xlink:title=" ">
<path fill="none" stroke="#63b8ff" d="M1444.39,-321.34C1448.1,-300.92 1449.27,-272.77 1433.74,-254.75 1371.01,-181.97 1074.97,-158.53 947.9,-151.75"/>
<polygon fill="#63b8ff" stroke="#63b8ff" points="1441.03,-320.34 1442.34,-330.86 1447.87,-321.82 1441.03,-320.34"/>
</a>
</g>
</g>
</g>
</svg>

<g id="navigator" transform="translate(0 0)" fill="#404254">
  <rect fill="#f2f5e9" fill-opacity="0.5" stroke="#606060" stroke-width=".5" x="0" y="0" width="60" height="60"/>
  <use id="zoomplus" xlink:href="#zoomPlus" x="17" y="9" onmousedown="handleZoom(evt,'in')"/>
  <use id="zoomminus" xlink:href="#zoomMin" x="42" y="9" onmousedown="handleZoom(evt,'out')"/>
  <use id="reset" xlink:href="#resetDef" x="30" y="36" onmousedown="handleReset()"/>
   <use id="arrowup" xlink:href="#arrowUp" x="0" y="0" onmousedown="handlePan(0,-1)"/>
  <use id="arrowright" xlink:href="#arrowRight" x="0" y="0" onmousedown="handlePan(1,0)"/>
  <use id="arrowdown" xlink:href="#arrowDown" x="0" y="0" onmousedown="handlePan(0,1)"/>
  <use id="arrowleft" xlink:href="#arrowLeft" x="0" y="0" onmousedown="handlePan(-1,0)"/>
</g>
<svg viewBox="0 0 15 15" width="100%" height="30px" preserveAspectRatio="xMaxYMin meet">
 <g id="arrow_out" transform="scale(0.3 0.3)">
  <a xlink:href="model-system_8hpp__dep__incl_org.svg" target="_base">
   <rect id="button" ry="5" rx="5" y="6" x="6" height="38" width="38"
        fill="#f2f5e9" fill-opacity="0.5" stroke="#606060" stroke-width="1.0"/>
   <path id="arrow"
     d="M 11.500037,31.436501 C 11.940474,20.09759 22.043105,11.32322 32.158766,21.979434 L 37.068811,17.246167 C 37.068811,17.246167 37.088388,32 37.088388,32 L 22.160133,31.978069 C 22.160133,31.978069 26.997745,27.140456 26.997745,27.140456 C 18.528582,18.264221 13.291696,25.230495 11.500037,31.436501 z"
     style="fill:#404040;"/>
  </a>
 </g>
</svg>

<style type='text/css'>
<![CDATA[
[data-mouse-over-selected='false'] { opacity: 0.7; }
[data-mouse-over-selected='true']  { opacity: 1.0; }
]]>
</style>
<script type="application/ecmascript"><![CDATA[
document.addEventListener('DOMContentLoaded', (event) => {
  highlightEdges();
  highlightAdjacentNodes();
});
]]></script>
</svg>
