<?xml version="1.0" encoding="UTF-8" standalone="no"?>
<!DOCTYPE svg PUBLIC "-//W3C//DTD SVG 1.1//EN"
 "http://www.w3.org/Graphics/SVG/1.1/DTD/svg11.dtd">
<!-- Generated by graphviz version 9.0.0 (20230911.1827)
 -->
<!-- Title: engine::components::GrassComponent Pages: 1 -->
<svg width="173pt" height="205pt"
 viewBox="0.00 0.00 172.50 205.25" xmlns="http://www.w3.org/2000/svg" xmlns:xlink="http://www.w3.org/1999/xlink">
<g id="graph0" class="graph" transform="scale(1 1) rotate(0) translate(4 201.25)">
<title>engine::components::GrassComponent</title>
<!-- Node1 -->
<g id="Node000001" class="node">
<title>Node1</title>
<g id="a_Node000001"><a xlink:title=" ">
<polygon fill="#999999" stroke="#666666" points="133.38,-30.5 31.12,-30.5 31.12,0 133.38,0 133.38,-30.5"/>
<text text-anchor="start" x="39.12" y="-17" font-family="Helvetica,sans-Serif" font-size="10.00">engine::components</text>
<text text-anchor="middle" x="82.25" y="-5.75" font-family="Helvetica,sans-Serif" font-size="10.00">::GrassComponent</text>
</a>
</g>
</g>
<!-- Node2 -->
<g id="Node000002" class="node">
<title>Node2</title>
<g id="a_Node000002"><a xlink:title=" ">
<polygon fill="white" stroke="#666666" points="159.25,-119.5 5.25,-119.5 5.25,-77.75 159.25,-77.75 159.25,-119.5"/>
<text text-anchor="start" x="13.25" y="-106" font-family="Helvetica,sans-Serif" font-size="10.00">std::vector&lt; engine</text>
<text text-anchor="start" x="13.25" y="-94.75" font-family="Helvetica,sans-Serif" font-size="10.00">::components::GrassComponent</text>
<text text-anchor="middle" x="82.25" y="-83.5" font-family="Helvetica,sans-Serif" font-size="10.00">::GrassInstance &gt;</text>
</a>
</g>
</g>
<!-- Node2&#45;&gt;Node1 -->
<g id="edge1_Node000001_Node000002" class="edge">
<title>Node2&#45;&gt;Node1</title>
<g id="a_edge1_Node000001_Node000002"><a xlink:title=" ">
<path fill="none" stroke="#9a32cd" stroke-dasharray="5,2" d="M82.25,-66.3C82.25,-54.07 82.25,-40.64 82.25,-30.77"/>
<polygon fill="#9a32cd" stroke="#9a32cd" points="78.75,-66 82.25,-76 85.75,-66 78.75,-66"/>
</a>
</g>
<text text-anchor="middle" x="121.62" y="-50.25" font-family="Helvetica,sans-Serif" font-size="10.00" fill="grey"> grass_instances_</text>
</g>
<!-- Node3 -->
<g id="Node000003" class="node">
<title>Node3</title>
<g id="a_Node000003"><a xlink:href="../../d3/d66/structengine_1_1components_1_1_grass_component_1_1_grass_instance.html" target="_top" xlink:title=" ">
<polygon fill="white" stroke="#666666" points="164.5,-197.25 0,-197.25 0,-166.75 164.5,-166.75 164.5,-197.25"/>
<text text-anchor="start" x="8" y="-183.75" font-family="Helvetica,sans-Serif" font-size="10.00">engine::components</text>
<text text-anchor="middle" x="82.25" y="-172.5" font-family="Helvetica,sans-Serif" font-size="10.00">::GrassComponent::GrassInstance</text>
</a>
</g>
</g>
<!-- Node3&#45;&gt;Node2 -->
<g id="edge2_Node000002_Node000003" class="edge">
<title>Node3&#45;&gt;Node2</title>
<g id="a_edge2_Node000002_Node000003"><a xlink:title=" ">
<path fill="none" stroke="#9a32cd" stroke-dasharray="5,2" d="M82.25,-155.01C82.25,-143.63 82.25,-130.48 82.25,-119.85"/>
<polygon fill="#9a32cd" stroke="#9a32cd" points="78.75,-154.94 82.25,-164.94 85.75,-154.94 78.75,-154.94"/>
</a>
</g>
<text text-anchor="middle" x="103.25" y="-139.25" font-family="Helvetica,sans-Serif" font-size="10.00" fill="grey"> elements</text>
</g>
</g>
</svg>
