<?xml version="1.0" encoding="UTF-8" standalone="no"?>
<!DOCTYPE svg PUBLIC "-//W3C//DTD SVG 1.1//EN"
 "http://www.w3.org/Graphics/SVG/1.1/DTD/svg11.dtd">
<!-- Generated by graphviz version 9.0.0 (20230911.1827)
 -->
<!-- Title: source tree Pages: 1 -->
<svg width="574pt" height="720pt"
 viewBox="0.00 0.00 574.31 720.00" xmlns="http://www.w3.org/2000/svg" xmlns:xlink="http://www.w3.org/1999/xlink">
<g id="graph0" class="graph" transform="scale(0.146333 0.146333) rotate(0) translate(4 4916.29)">
<title>source tree</title>
<polygon fill="white" stroke="none" points="-4,4 -4,-4916.29 3920.7,-4916.29 3920.7,4 -4,4"/>
<!-- library&#45;pch -->
<g id="node1" class="node">
<title>library&#45;pch</title>
<ellipse fill="none" stroke="black" cx="117.91" cy="-3956" rx="117.91" ry="31.64"/>
<text text-anchor="middle" x="117.91" y="-3943.97" font-family="Helvetica,sans-Serif" font-size="32.00">library&#45;pch</text>
</g>
<!-- assert -->
<g id="node2" class="node">
<title>assert</title>
<ellipse fill="none" stroke="black" cx="117.91" cy="-956" rx="73.89" ry="31.64"/>
<text text-anchor="middle" x="117.91" y="-943.98" font-family="Helvetica,sans-Serif" font-size="32.00">assert</text>
</g>
<!-- library&#45;pch&#45;&gt;assert -->
<g id="edge1" class="edge">
<title>library&#45;pch&#45;&gt;assert</title>
<path fill="none" stroke="black" d="M117.91,-3923.86C117.91,-3629.46 117.91,-1339.61 117.91,-999.24"/>
<polygon fill="black" stroke="black" points="121.41,-999.26 117.91,-989.26 114.41,-999.26 121.41,-999.26"/>
</g>
<!-- reflection -->
<g id="node3" class="node">
<title>reflection</title>
<ellipse fill="none" stroke="black" cx="1467.91" cy="-3956" rx="105.18" ry="31.64"/>
<text text-anchor="middle" x="1467.91" y="-3943.97" font-family="Helvetica,sans-Serif" font-size="32.00">reflection</text>
</g>
<!-- transform -->
<g id="node4" class="node">
<title>transform</title>
<ellipse fill="none" stroke="black" cx="317.91" cy="-956" rx="108.36" ry="31.64"/>
<text text-anchor="middle" x="317.91" y="-943.98" font-family="Helvetica,sans-Serif" font-size="32.00">transform</text>
</g>
<!-- reflection&#45;&gt;transform -->
<g id="edge2" class="edge">
<title>reflection&#45;&gt;transform</title>
<path fill="none" stroke="black" d="M1456.15,-3924.35C1343.89,-3631.69 462.65,-1334.33 333.65,-998.03"/>
<polygon fill="black" stroke="black" points="337.11,-997.27 330.26,-989.19 330.57,-999.78 337.11,-997.27"/>
</g>
<!-- lights -->
<g id="node7" class="node">
<title>lights</title>
<ellipse fill="none" stroke="black" cx="509.91" cy="-956" rx="65.41" ry="31.64"/>
<text text-anchor="middle" x="509.91" y="-943.98" font-family="Helvetica,sans-Serif" font-size="32.00">lights</text>
</g>
<!-- reflection&#45;&gt;lights -->
<g id="edge4" class="edge">
<title>reflection&#45;&gt;lights</title>
<path fill="none" stroke="black" d="M1458.12,-3924.35C1364.64,-3631.83 631.21,-1336.6 523.18,-998.53"/>
<polygon fill="black" stroke="black" points="526.58,-997.68 520.2,-989.22 519.91,-999.81 526.58,-997.68"/>
</g>
<!-- transform&#45;management&#45;system -->
<g id="node9" class="node">
<title>transform&#45;management&#45;system</title>
<ellipse fill="none" stroke="black" cx="922.91" cy="-956" rx="329.51" ry="31.64"/>
<text text-anchor="middle" x="922.91" y="-943.98" font-family="Helvetica,sans-Serif" font-size="32.00">transform&#45;management&#45;system</text>
</g>
<!-- reflection&#45;&gt;transform&#45;management&#45;system -->
<g id="edge6" class="edge">
<title>reflection&#45;&gt;transform&#45;management&#45;system</title>
<path fill="none" stroke="black" d="M1462.34,-3924.35C1409.19,-3631.97 992.33,-1338.86 930.55,-999.03"/>
<polygon fill="black" stroke="black" points="934.01,-998.48 928.78,-989.26 927.12,-999.73 934.01,-998.48"/>
</g>
<!-- collider -->
<g id="node10" class="node">
<title>collider</title>
<ellipse fill="none" stroke="black" cx="1354.91" cy="-956" rx="84.5" ry="31.64"/>
<text text-anchor="middle" x="1354.91" y="-943.98" font-family="Helvetica,sans-Serif" font-size="32.00">collider</text>
</g>
<!-- reflection&#45;&gt;collider -->
<g id="edge7" class="edge">
<title>reflection&#45;&gt;collider</title>
<path fill="none" stroke="black" d="M1466.75,-3924.35C1455.73,-3631.97 1369.3,-1338.86 1356.49,-999.03"/>
<polygon fill="black" stroke="black" points="1360,-999.15 1356.13,-989.29 1353.01,-999.41 1360,-999.15"/>
</g>
<!-- force&#45;fields -->
<g id="node11" class="node">
<title>force&#45;fields</title>
<ellipse fill="none" stroke="black" cx="1581.91" cy="-956" rx="124.8" ry="31.64"/>
<text text-anchor="middle" x="1581.91" y="-943.98" font-family="Helvetica,sans-Serif" font-size="32.00">force&#45;fields</text>
</g>
<!-- reflection&#45;&gt;force&#45;fields -->
<g id="edge8" class="edge">
<title>reflection&#45;&gt;force&#45;fields</title>
<path fill="none" stroke="black" d="M1469.08,-3924.35C1480.19,-3631.97 1567.39,-1338.86 1580.31,-999.03"/>
<polygon fill="black" stroke="black" points="1583.8,-999.41 1580.68,-989.29 1576.8,-999.15 1583.8,-999.41"/>
</g>
<!-- particle&#45;emitter -->
<g id="node13" class="node">
<title>particle&#45;emitter</title>
<ellipse fill="none" stroke="black" cx="1887.91" cy="-956" rx="162.99" ry="31.64"/>
<text text-anchor="middle" x="1887.91" y="-943.98" font-family="Helvetica,sans-Serif" font-size="32.00">particle&#45;emitter</text>
</g>
<!-- reflection&#45;&gt;particle&#45;emitter -->
<g id="edge10" class="edge">
<title>reflection&#45;&gt;particle&#45;emitter</title>
<path fill="none" stroke="black" d="M1472.2,-3924.35C1513.16,-3631.97 1834.41,-1338.86 1882.02,-999.03"/>
<polygon fill="black" stroke="black" points="1885.47,-999.66 1883.39,-989.27 1878.54,-998.69 1885.47,-999.66"/>
</g>
<!-- game&#45;object -->
<g id="node14" class="node">
<title>game&#45;object</title>
<ellipse fill="none" stroke="black" cx="2206.91" cy="-956" rx="137.53" ry="31.64"/>
<text text-anchor="middle" x="2206.91" y="-943.98" font-family="Helvetica,sans-Serif" font-size="32.00">game&#45;object</text>
</g>
<!-- reflection&#45;&gt;game&#45;object -->
<g id="edge11" class="edge">
<title>reflection&#45;&gt;game&#45;object</title>
<path fill="none" stroke="black" d="M1475.46,-3924.35C1547.57,-3631.83 2113.34,-1336.6 2196.67,-998.53"/>
<polygon fill="black" stroke="black" points="2199.97,-999.79 2198.96,-989.24 2193.17,-998.12 2199.97,-999.79"/>
</g>
<!-- camera -->
<g id="node17" class="node">
<title>camera</title>
<ellipse fill="none" stroke="black" cx="2449.91" cy="-956" rx="87.68" ry="31.64"/>
<text text-anchor="middle" x="2449.91" y="-943.98" font-family="Helvetica,sans-Serif" font-size="32.00">camera</text>
</g>
<!-- reflection&#45;&gt;camera -->
<g id="edge13" class="edge">
<title>reflection&#45;&gt;camera</title>
<path fill="none" stroke="black" d="M1477.95,-3924.35C1573.77,-3631.83 2325.57,-1336.6 2436.31,-998.53"/>
<polygon fill="black" stroke="black" points="2439.57,-999.81 2439.36,-989.21 2432.92,-997.63 2439.57,-999.81"/>
</g>
<!-- win -->
<g id="node5" class="node">
<title>win</title>
<ellipse fill="none" stroke="black" cx="2876.91" cy="-3956" rx="44.72" ry="31.64"/>
<text text-anchor="middle" x="2876.91" y="-3943.97" font-family="Helvetica,sans-Serif" font-size="32.00">win</text>
</g>
<!-- ShObjIdl -->
<g id="node6" class="node">
<title>ShObjIdl</title>
<ellipse fill="none" stroke="black" cx="2654.91" cy="-956" rx="99.35" ry="31.64"/>
<text text-anchor="middle" x="2654.91" y="-943.98" font-family="Helvetica,sans-Serif" font-size="32.00">ShObjIdl</text>
</g>
<!-- win&#45;&gt;ShObjIdl -->
<g id="edge3" class="edge">
<title>win&#45;&gt;ShObjIdl</title>
<path fill="none" stroke="black" d="M2874.64,-3924.35C2852.99,-3631.97 2683.19,-1338.86 2658.02,-999.03"/>
<polygon fill="black" stroke="black" points="2661.53,-999 2657.3,-989.28 2654.55,-999.52 2661.53,-999"/>
</g>
<!-- commdlg -->
<g id="node8" class="node">
<title>commdlg</title>
<ellipse fill="none" stroke="black" cx="2876.91" cy="-956" rx="104.65" ry="31.64"/>
<text text-anchor="middle" x="2876.91" y="-943.98" font-family="Helvetica,sans-Serif" font-size="32.00">commdlg</text>
</g>
<!-- win&#45;&gt;commdlg -->
<g id="edge5" class="edge">
<title>win&#45;&gt;commdlg</title>
<path fill="none" stroke="black" d="M2876.91,-3923.86C2876.91,-3629.46 2876.91,-1339.61 2876.91,-999.24"/>
<polygon fill="black" stroke="black" points="2880.41,-999.26 2876.91,-989.26 2873.41,-999.26 2880.41,-999.26"/>
</g>
<!-- windows -->
<g id="node12" class="node">
<title>windows</title>
<ellipse fill="none" stroke="black" cx="3096.91" cy="-956" rx="97.23" ry="31.64"/>
<text text-anchor="middle" x="3096.91" y="-943.98" font-family="Helvetica,sans-Serif" font-size="32.00">windows</text>
</g>
<!-- win&#45;&gt;windows -->
<g id="edge9" class="edge">
<title>win&#45;&gt;windows</title>
<path fill="none" stroke="black" d="M2879.16,-3924.35C2900.61,-3631.97 3068.89,-1338.86 3093.83,-999.03"/>
<polygon fill="black" stroke="black" points="3097.3,-999.51 3094.54,-989.28 3090.32,-999 3097.3,-999.51"/>
</g>
<!-- d3d -->
<g id="node15" class="node">
<title>d3d</title>
<ellipse fill="none" stroke="black" cx="3475.91" cy="-3956" rx="49.5" ry="31.64"/>
<text text-anchor="middle" x="3475.91" y="-3943.97" font-family="Helvetica,sans-Serif" font-size="32.00">d3d</text>
</g>
<!-- d3dcompiler -->
<g id="node16" class="node">
<title>d3dcompiler</title>
<ellipse fill="none" stroke="black" cx="3348.91" cy="-956" rx="136.47" ry="31.64"/>
<text text-anchor="middle" x="3348.91" y="-943.98" font-family="Helvetica,sans-Serif" font-size="32.00">d3dcompiler</text>
</g>
<!-- d3d&#45;&gt;d3dcompiler -->
<g id="edge12" class="edge">
<title>d3d&#45;&gt;d3dcompiler</title>
<path fill="none" stroke="black" d="M3474.61,-3924.35C3462.23,-3631.97 3365.09,-1338.86 3350.69,-999.03"/>
<polygon fill="black" stroke="black" points="3354.2,-999.13 3350.28,-989.29 3347.2,-999.43 3354.2,-999.13"/>
</g>
<!-- d3d11_4 -->
<g id="node20" class="node">
<title>d3d11_4</title>
<ellipse fill="none" stroke="black" cx="3603.91" cy="-956" rx="100.41" ry="31.64"/>
<text text-anchor="middle" x="3603.91" y="-943.98" font-family="Helvetica,sans-Serif" font-size="32.00">d3d11_4</text>
</g>
<!-- d3d&#45;&gt;d3d11_4 -->
<g id="edge15" class="edge">
<title>d3d&#45;&gt;d3d11_4</title>
<path fill="none" stroke="black" d="M3477.22,-3924.35C3489.7,-3631.97 3587.61,-1338.86 3602.12,-999.03"/>
<polygon fill="black" stroke="black" points="3605.6,-999.43 3602.53,-989.29 3598.61,-999.13 3605.6,-999.43"/>
</g>
<!-- win&#45;debug -->
<g id="node18" class="node">
<title>win&#45;debug</title>
<ellipse fill="none" stroke="black" cx="3800.91" cy="-3956" rx="115.79" ry="31.64"/>
<text text-anchor="middle" x="3800.91" y="-3943.97" font-family="Helvetica,sans-Serif" font-size="32.00">win&#45;debug</text>
</g>
<!-- malloc -->
<g id="node19" class="node">
<title>malloc</title>
<ellipse fill="none" stroke="black" cx="3800.91" cy="-956" rx="78.14" ry="31.64"/>
<text text-anchor="middle" x="3800.91" y="-943.98" font-family="Helvetica,sans-Serif" font-size="32.00">malloc</text>
</g>
<!-- win&#45;debug&#45;&gt;malloc -->
<g id="edge14" class="edge">
<title>win&#45;debug&#45;&gt;malloc</title>
<path fill="none" stroke="black" d="M3800.91,-3923.86C3800.91,-3629.46 3800.91,-1339.61 3800.91,-999.24"/>
<polygon fill="black" stroke="black" points="3804.41,-999.26 3800.91,-989.26 3797.41,-999.26 3804.41,-999.26"/>
</g>
</g>
</svg>
