<?xml version="1.0" encoding="UTF-8" standalone="no"?>
<!DOCTYPE svg PUBLIC "-//W3C//DTD SVG 1.1//EN"
 "http://www.w3.org/Graphics/SVG/1.1/DTD/svg11.dtd">
<!-- Generated by graphviz version 8.1.0 (20230707.0739)
 -->
<!-- Title: engine::render::HullShader Pages: 1 -->
<svg width="139pt" height="217pt"
 viewBox="0.00 0.00 138.75 216.50" xmlns="http://www.w3.org/2000/svg" xmlns:xlink="http://www.w3.org/1999/xlink">
<g id="graph0" class="graph" transform="scale(1 1) rotate(0) translate(4 212.5)">
<title>engine::render::HullShader</title>
<!-- Node1 -->
<g id="Node000001" class="node">
<title>Node1</title>
<g id="a_Node000001"><a xlink:title=" ">
<polygon fill="#999999" stroke="#666666" points="129.62,-19.25 1.12,-19.25 1.12,0 129.62,0 129.62,-19.25"/>
<text text-anchor="middle" x="65.38" y="-5.75" font-family="Helvetica,sans-Serif" font-size="10.00">engine::render::HullShader</text>
</a>
</g>
</g>
<!-- Node2 -->
<g id="Node000002" class="node">
<title>Node2</title>
<g id="a_Node000002"><a xlink:href="../../d0/dc5/classengine_1_1render_1_1_shader.html" target="_top" xlink:title=" ">
<polygon fill="white" stroke="#666666" points="121,-75.5 9.75,-75.5 9.75,-56.25 121,-56.25 121,-75.5"/>
<text text-anchor="middle" x="65.38" y="-62" font-family="Helvetica,sans-Serif" font-size="10.00">engine::render::Shader</text>
</a>
</g>
</g>
<!-- Node2&#45;&gt;Node1 -->
<g id="edge1_Node000001_Node000002" class="edge">
<title>Node2&#45;&gt;Node1</title>
<g id="a_edge1_Node000001_Node000002"><a xlink:title=" ">
<path fill="none" stroke="#63b8ff" d="M65.38,-44.99C65.38,-36.2 65.38,-26.32 65.38,-19.42"/>
<polygon fill="#63b8ff" stroke="#63b8ff" points="61.88,-44.92 65.38,-54.92 68.88,-44.92 61.88,-44.92"/>
</a>
</g>
</g>
<!-- Node3 -->
<g id="Node000003" class="node">
<title>Node3</title>
<g id="a_Node000003"><a xlink:href="../../d3/de6/structengine_1_1render_1_1_shader_blob.html" target="_top" xlink:title=" ">
<polygon fill="white" stroke="#666666" points="130.75,-142 0,-142 0,-122.75 130.75,-122.75 130.75,-142"/>
<text text-anchor="middle" x="65.38" y="-128.5" font-family="Helvetica,sans-Serif" font-size="10.00">engine::render::ShaderBlob</text>
</a>
</g>
</g>
<!-- Node3&#45;&gt;Node2 -->
<g id="edge2_Node000002_Node000003" class="edge">
<title>Node3&#45;&gt;Node2</title>
<g id="a_edge2_Node000002_Node000003"><a xlink:title=" ">
<path fill="none" stroke="#9a32cd" stroke-dasharray="5,2" d="M65.38,-111.65C65.38,-99.68 65.38,-84.98 65.38,-75.77"/>
<polygon fill="#9a32cd" stroke="#9a32cd" points="61.88,-111.41 65.38,-121.41 68.88,-111.41 61.88,-111.41"/>
</a>
</g>
<text text-anchor="middle" x="78.12" y="-95.25" font-family="Helvetica,sans-Serif" font-size="10.00" fill="grey"> blob_</text>
</g>
<!-- Node4 -->
<g id="Node000004" class="node">
<title>Node4</title>
<g id="a_Node000004"><a xlink:title=" ">
<polygon fill="white" stroke="#666666" points="118.75,-208.5 12,-208.5 12,-189.25 118.75,-189.25 118.75,-208.5"/>
<text text-anchor="middle" x="65.38" y="-195" font-family="Helvetica,sans-Serif" font-size="10.00">std::vector&lt; uint8_t &gt;</text>
</a>
</g>
</g>
<!-- Node4&#45;&gt;Node3 -->
<g id="edge3_Node000003_Node000004" class="edge">
<title>Node4&#45;&gt;Node3</title>
<g id="a_edge3_Node000003_Node000004"><a xlink:title=" ">
<path fill="none" stroke="#9a32cd" stroke-dasharray="5,2" d="M65.38,-178.15C65.38,-166.18 65.38,-151.48 65.38,-142.27"/>
<polygon fill="#9a32cd" stroke="#9a32cd" points="61.88,-177.91 65.38,-187.91 68.88,-177.91 61.88,-177.91"/>
</a>
</g>
<text text-anchor="middle" x="86" y="-161.75" font-family="Helvetica,sans-Serif" font-size="10.00" fill="grey"> bytecode</text>
</g>
</g>
</svg>
