<?xml version="1.0" encoding="UTF-8" standalone="no"?>
<!DOCTYPE svg PUBLIC "-//W3C//DTD SVG 1.1//EN"
 "http://www.w3.org/Graphics/SVG/1.1/DTD/svg11.dtd">
<!-- Generated by graphviz version 8.1.0 (20230707.0739)
 -->
<!-- Title: engine/include/win.hpp Pages: 1 -->
<svg width="408pt" height="83pt"
 viewBox="0.00 0.00 407.75 82.50" xmlns="http://www.w3.org/2000/svg" xmlns:xlink="http://www.w3.org/1999/xlink">
<g id="graph0" class="graph" transform="scale(1 1) rotate(0) translate(4 78.5)">
<title>engine/include/win.hpp</title>
<!-- Node1 -->
<g id="Node000001" class="node">
<title>Node1</title>
<g id="a_Node000001"><a xlink:title=" ">
<polygon fill="#999999" stroke="#666666" points="250.88,-74.5 136.62,-74.5 136.62,-55.25 250.88,-55.25 250.88,-74.5"/>
<text text-anchor="middle" x="193.75" y="-61" font-family="Helvetica,sans-Serif" font-size="10.00">engine/include/win.hpp</text>
</a>
</g>
</g>
<!-- Node2 -->
<g id="Node000002" class="node">
<title>Node2</title>
<g id="a_Node000002"><a xlink:href="../../d8/d2a/win-def_8hpp.html" target="_top" xlink:title=" ">
<polygon fill="white" stroke="#666666" points="65.5,-19.25 0,-19.25 0,0 65.5,0 65.5,-19.25"/>
<text text-anchor="middle" x="32.75" y="-5.75" font-family="Helvetica,sans-Serif" font-size="10.00">win&#45;def.hpp</text>
</a>
</g>
</g>
<!-- Node1&#45;&gt;Node2 -->
<g id="edge1_Node000001_Node000002" class="edge">
<title>Node1&#45;&gt;Node2</title>
<g id="a_edge1_Node000001_Node000002"><a xlink:title=" ">
<path fill="none" stroke="#63b8ff" d="M166.44,-54.84C140.07,-46.12 99.92,-32.84 70.5,-23.11"/>
<polygon fill="#63b8ff" stroke="#63b8ff" points="71.79,-19.52 61.2,-19.7 69.59,-26.17 71.79,-19.52"/>
</a>
</g>
</g>
<!-- Node3 -->
<g id="Node000003" class="node">
<title>Node3</title>
<g id="a_Node000003"><a xlink:title=" ">
<polygon fill="#e0e0e0" stroke="#999999" points="145.62,-19.25 83.88,-19.25 83.88,0 145.62,0 145.62,-19.25"/>
<text text-anchor="middle" x="114.75" y="-5.75" font-family="Helvetica,sans-Serif" font-size="10.00">windows.h</text>
</a>
</g>
</g>
<!-- Node1&#45;&gt;Node3 -->
<g id="edge2_Node000001_Node000003" class="edge">
<title>Node1&#45;&gt;Node3</title>
<g id="a_edge2_Node000001_Node000003"><a xlink:title=" ">
<path fill="none" stroke="#63b8ff" d="M180.35,-54.84C168.55,-46.89 151.11,-35.14 137.19,-25.75"/>
<polygon fill="#63b8ff" stroke="#63b8ff" points="139.47,-22.39 129.22,-19.7 135.55,-28.19 139.47,-22.39"/>
</a>
</g>
</g>
<!-- Node4 -->
<g id="Node000004" class="node">
<title>Node4</title>
<g id="a_Node000004"><a xlink:title=" ">
<polygon fill="#e0e0e0" stroke="#999999" points="224.25,-19.25 163.25,-19.25 163.25,0 224.25,0 224.25,-19.25"/>
<text text-anchor="middle" x="193.75" y="-5.75" font-family="Helvetica,sans-Serif" font-size="10.00">ShObjIdl.h</text>
</a>
</g>
</g>
<!-- Node1&#45;&gt;Node4 -->
<g id="edge3_Node000001_Node000004" class="edge">
<title>Node1&#45;&gt;Node4</title>
<g id="a_edge3_Node000001_Node000004"><a xlink:title=" ">
<path fill="none" stroke="#63b8ff" d="M193.75,-55.08C193.75,-48.42 193.75,-38.99 193.75,-30.53"/>
<polygon fill="#63b8ff" stroke="#63b8ff" points="197.25,-30.61 193.75,-20.61 190.25,-30.61 197.25,-30.61"/>
</a>
</g>
</g>
<!-- Node5 -->
<g id="Node000005" class="node">
<title>Node5</title>
<g id="a_Node000005"><a xlink:title=" ">
<polygon fill="#e0e0e0" stroke="#999999" points="305.38,-19.25 242.12,-19.25 242.12,0 305.38,0 305.38,-19.25"/>
<text text-anchor="middle" x="273.75" y="-5.75" font-family="Helvetica,sans-Serif" font-size="10.00">commdlg.h</text>
</a>
</g>
</g>
<!-- Node1&#45;&gt;Node5 -->
<g id="edge4_Node000001_Node000005" class="edge">
<title>Node1&#45;&gt;Node5</title>
<g id="a_edge4_Node000001_Node000005"><a xlink:title=" ">
<path fill="none" stroke="#63b8ff" d="M207.32,-54.84C219.27,-46.89 236.93,-35.14 251.03,-25.75"/>
<polygon fill="#63b8ff" stroke="#63b8ff" points="252.73,-28.16 259.11,-19.7 248.85,-22.33 252.73,-28.16"/>
</a>
</g>
</g>
<!-- Node6 -->
<g id="Node000006" class="node">
<title>Node6</title>
<g id="a_Node000006"><a xlink:href="../../d4/dfc/win-undef_8hpp.html" target="_top" xlink:title=" ">
<polygon fill="white" stroke="#666666" points="399.75,-19.25 323.75,-19.25 323.75,0 399.75,0 399.75,-19.25"/>
<text text-anchor="middle" x="361.75" y="-5.75" font-family="Helvetica,sans-Serif" font-size="10.00">win&#45;undef.hpp</text>
</a>
</g>
</g>
<!-- Node1&#45;&gt;Node6 -->
<g id="edge5_Node000001_Node000006" class="edge">
<title>Node1&#45;&gt;Node6</title>
<g id="a_edge5_Node000001_Node000006"><a xlink:title=" ">
<path fill="none" stroke="#63b8ff" d="M222.25,-54.84C249.88,-46.08 292.02,-32.73 322.76,-22.98"/>
<polygon fill="#63b8ff" stroke="#63b8ff" points="323.64,-26.06 332.11,-19.7 321.52,-19.39 323.64,-26.06"/>
</a>
</g>
</g>
</g>
</svg>
