<?xml version="1.0" encoding="UTF-8" standalone="no"?>
<!DOCTYPE svg PUBLIC "-//W3C//DTD SVG 1.1//EN"
 "http://www.w3.org/Graphics/SVG/1.1/DTD/svg11.dtd">
<!-- Generated by graphviz version 8.1.0 (20230707.0739)
 -->
<!-- Title: engine::core::events::FilesChangedEvent Pages: 1 -->
<svg width="258pt" height="116pt"
 viewBox="0.00 0.00 258.12 116.25" xmlns="http://www.w3.org/2000/svg" xmlns:xlink="http://www.w3.org/1999/xlink">
<g id="graph0" class="graph" transform="scale(1 1) rotate(0) translate(4 112.25)">
<title>engine::core::events::FilesChangedEvent</title>
<!-- Node1 -->
<g id="Node000001" class="node">
<title>Node1</title>
<g id="a_Node000001"><a xlink:title=" ">
<polygon fill="#999999" stroke="#666666" points="170,-30.5 65.5,-30.5 65.5,0 170,0 170,-30.5"/>
<text text-anchor="start" x="73.5" y="-17" font-family="Helvetica,sans-Serif" font-size="10.00">engine::core::events</text>
<text text-anchor="middle" x="117.75" y="-5.75" font-family="Helvetica,sans-Serif" font-size="10.00">::FilesChangedEvent</text>
</a>
</g>
</g>
<!-- Node2 -->
<g id="Node000002" class="node">
<title>Node2</title>
<g id="a_Node000002"><a xlink:href="../../d8/d91/classengine_1_1core_1_1events_1_1_event.html" target="_top" xlink:title=" ">
<polygon fill="white" stroke="#666666" points="101.5,-108.25 0,-108.25 0,-77.75 101.5,-77.75 101.5,-108.25"/>
<text text-anchor="start" x="8" y="-94.75" font-family="Helvetica,sans-Serif" font-size="10.00">engine::core::events</text>
<text text-anchor="middle" x="50.75" y="-83.5" font-family="Helvetica,sans-Serif" font-size="10.00">::Event</text>
</a>
</g>
</g>
<!-- Node2&#45;&gt;Node1 -->
<g id="edge1_Node000001_Node000002" class="edge">
<title>Node2&#45;&gt;Node1</title>
<g id="a_edge1_Node000001_Node000002"><a xlink:title=" ">
<path fill="none" stroke="#63b8ff" d="M70.86,-69.26C81.89,-56.79 95.24,-41.7 104.87,-30.81"/>
<polygon fill="#63b8ff" stroke="#63b8ff" points="68.67,-66.59 64.67,-76.39 73.92,-71.22 68.67,-66.59"/>
</a>
</g>
</g>
<!-- Node3 -->
<g id="Node000003" class="node">
<title>Node3</title>
<g id="a_Node000003"><a xlink:title=" ">
<polygon fill="white" stroke="#666666" points="250.12,-108.25 119.38,-108.25 119.38,-77.75 250.12,-77.75 250.12,-108.25"/>
<text text-anchor="start" x="127.38" y="-94.75" font-family="Helvetica,sans-Serif" font-size="10.00">std::vector&lt; std::filesystem</text>
<text text-anchor="middle" x="184.75" y="-83.5" font-family="Helvetica,sans-Serif" font-size="10.00">::path &gt;</text>
</a>
</g>
</g>
<!-- Node3&#45;&gt;Node1 -->
<g id="edge2_Node000001_Node000003" class="edge">
<title>Node3&#45;&gt;Node1</title>
<g id="a_edge2_Node000001_Node000003"><a xlink:title=" ">
<path fill="none" stroke="#9a32cd" stroke-dasharray="5,2" d="M164.64,-69.26C153.61,-56.79 140.26,-41.7 130.63,-30.81"/>
<polygon fill="#9a32cd" stroke="#9a32cd" points="161.58,-71.22 170.83,-76.39 166.83,-66.59 161.58,-71.22"/>
</a>
</g>
<text text-anchor="middle" x="167.12" y="-50.25" font-family="Helvetica,sans-Serif" font-size="10.00" fill="grey"> files_</text>
</g>
</g>
</svg>
