<?xml version="1.0" encoding="UTF-8" standalone="no"?>
<!DOCTYPE svg PUBLIC "-//W3C//DTD SVG 1.1//EN"
 "http://www.w3.org/Graphics/SVG/1.1/DTD/svg11.dtd">
<!-- Generated by graphviz version 8.1.0 (20230707.0739)
 -->
<!-- Title: engine/render/shadow&#45;map.hpp Pages: 1 -->
<!--zoomable 548 -->

<svg id="main" version="1.1" xmlns="http://www.w3.org/2000/svg" xmlns:xlink="http://www.w3.org/1999/xlink" xml:space="preserve" onload="init(evt)">
<style type="text/css"><![CDATA[
.node, .edge {opacity: 0.7;}
.node.selected, .edge.selected {opacity: 1;}
.edge:hover path { stroke: red; }
.edge:hover polygon { stroke: red; fill: red; }
]]></style>

<defs>
  <circle id="rim" cx="0" cy="0" r="7"/>
  <circle id="rim2" cx="0" cy="0" r="3.5"/>
  <g id="zoomPlus">
    <use xlink:href="#rim" fill="#404040"><set attributeName="fill" to="#808080" begin="zoomplus.mouseover" end="zoomplus.mouseout"/></use>
    <path d="M-4,0h8M0,-4v8" fill="none" stroke="white" stroke-width="1.5" pointer-events="none"/>
  </g>
  <g id="zoomMin">
    <use xlink:href="#rim" fill="#404040"><set attributeName="fill" to="#808080" begin="zoomminus.mouseover" end="zoomminus.mouseout"/></use>
    <path d="M-4,0h8" fill="none" stroke="white" stroke-width="1.5" pointer-events="none"/>
  </g>
  <g id="arrowUp" transform="translate(30 24)">
    <use xlink:href="#rim"/>
    <path pointer-events="none" fill="none" stroke="white" stroke-width="1.5" d="M0,-3.0v7 M-2.5,-0.5L0,-3.0L2.5,-0.5"/>
  </g>
  <g id="arrowRight" transform="rotate(90) translate(36 -43)">
    <use xlink:href="#rim"/>
    <path pointer-events="none" fill="none" stroke="white" stroke-width="1.5" d="M0,-3.0v7 M-2.5,-0.5L0,-3.0L2.5,-0.5"/>
  </g>
  <g id="arrowDown" transform="rotate(180) translate(-30 -48)">
    <use xlink:href="#rim"/>
    <path pointer-events="none" fill="none" stroke="white" stroke-width="1.5" d="M0,-3.0v7 M-2.5,-0.5L0,-3.0L2.5,-0.5"/>
  </g>
  <g id="arrowLeft" transform="rotate(270) translate(-36 17)">
    <use xlink:href="#rim"/>
    <path pointer-events="none" fill="none" stroke="white" stroke-width="1.5" d="M0,-3.0v7 M-2.5,-0.5L0,-3.0L2.5,-0.5"/>
  </g>
  <g id="resetDef">
    <use xlink:href="#rim2" fill="#404040"><set attributeName="fill" to="#808080" begin="reset.mouseover" end="reset.mouseout"/></use>
  </g>
</defs>
<script type="application/ecmascript">
var viewWidth = 1926;
var viewHeight = 548;
var sectionId = 'dynsection-1';
</script>
<script type="application/ecmascript" xlink:href="../../svg.min.js"/>
<svg id="graph" class="graph">
<g id="viewport">
<title>engine/render/shadow&#45;map.hpp</title>
<!-- Node1 -->
<g id="Node000001" class="node">
<title>Node1</title>
<g id="a_Node000001"><a xlink:title=" ">
<polygon fill="#999999" stroke="#666666" points="1133.62,-540 1022.38,-540 1022.38,-509.5 1133.62,-509.5 1133.62,-540"/>
<text text-anchor="start" x="1030.38" y="-526.5" font-family="Helvetica,sans-Serif" font-size="10.00">engine/render/shadow</text>
<text text-anchor="middle" x="1078" y="-515.25" font-family="Helvetica,sans-Serif" font-size="10.00">&#45;map.hpp</text>
</a>
</g>
</g>
<!-- Node2 -->
<g id="Node000002" class="node">
<title>Node2</title>
<g id="a_Node000002"><a xlink:href="../../d5/d73/shadow-map_8cpp.html" target="_top" xlink:title=" ">
<polygon fill="white" stroke="#666666" points="1060.62,-473.5 949.38,-473.5 949.38,-443 1060.62,-443 1060.62,-473.5"/>
<text text-anchor="start" x="957.38" y="-460" font-family="Helvetica,sans-Serif" font-size="10.00">engine/render/shadow</text>
<text text-anchor="middle" x="1005" y="-448.75" font-family="Helvetica,sans-Serif" font-size="10.00">&#45;map.cpp</text>
</a>
</g>
</g>
<!-- Node1&#45;&gt;Node2 -->
<g id="edge1_Node000001_Node000002" class="edge">
<title>Node1&#45;&gt;Node2</title>
<g id="a_edge1_Node000001_Node000002"><a xlink:title=" ">
<path fill="none" stroke="#63b8ff" d="M1053.4,-502.02C1042.9,-492.73 1030.91,-482.15 1021.5,-473.83"/>
<polygon fill="#63b8ff" stroke="#63b8ff" points="1050.62,-504.12 1060.44,-508.11 1055.26,-498.87 1050.62,-504.12"/>
</a>
</g>
</g>
<!-- Node3 -->
<g id="Node000003" class="node">
<title>Node3</title>
<g id="a_Node000003"><a xlink:href="../../dd/dd1/light-render-system_8hpp.html" target="_top" xlink:title=" ">
<polygon fill="white" stroke="#666666" points="1224.88,-473.5 1079.12,-473.5 1079.12,-443 1224.88,-443 1224.88,-473.5"/>
<text text-anchor="start" x="1087.12" y="-460" font-family="Helvetica,sans-Serif" font-size="10.00">engine/subsystems/render</text>
<text text-anchor="middle" x="1152" y="-448.75" font-family="Helvetica,sans-Serif" font-size="10.00">/detail/light&#45;render&#45;system.hpp</text>
</a>
</g>
</g>
<!-- Node1&#45;&gt;Node3 -->
<g id="edge2_Node000001_Node000003" class="edge">
<title>Node1&#45;&gt;Node3</title>
<g id="a_edge2_Node000001_Node000003"><a xlink:title=" ">
<path fill="none" stroke="#63b8ff" d="M1102.93,-502.02C1113.58,-492.73 1125.73,-482.15 1135.27,-473.83"/>
<polygon fill="#63b8ff" stroke="#63b8ff" points="1101.03,-499.9 1095.79,-509.11 1105.63,-505.18 1101.03,-499.9"/>
</a>
</g>
</g>
<!-- Node4 -->
<g id="Node000004" class="node">
<title>Node4</title>
<g id="a_Node000004"><a xlink:href="../../d1/dae/renderer_8hpp.html" target="_top" xlink:title=" ">
<polygon fill="white" stroke="#666666" points="573.38,-407 442.62,-407 442.62,-387.75 573.38,-387.75 573.38,-407"/>
<text text-anchor="middle" x="508" y="-393.5" font-family="Helvetica,sans-Serif" font-size="10.00">engine/render/renderer.hpp</text>
</a>
</g>
</g>
<!-- Node3&#45;&gt;Node4 -->
<g id="edge3_Node000003_Node000004" class="edge">
<title>Node3&#45;&gt;Node4</title>
<g id="a_edge3_Node000003_Node000004"><a xlink:title=" ">
<path fill="none" stroke="#63b8ff" d="M1067.99,-442.82C883.03,-419.9 676.59,-407.11 573.53,-401.6"/>
<polygon fill="#63b8ff" stroke="#63b8ff" points="1067.38,-446.4 1077.73,-444.17 1068.25,-439.45 1067.38,-446.4"/>
</a>
</g>
</g>
<!-- Node22 -->
<g id="Node000022" class="node">
<title>Node22</title>
<g id="a_Node000022"><a xlink:href="../../d8/d9c/light-render-system_8cpp.html" target="_top" xlink:title=" ">
<polygon fill="white" stroke="#666666" points="1917.88,-91.38 1772.12,-91.38 1772.12,-60.88 1917.88,-60.88 1917.88,-91.38"/>
<text text-anchor="start" x="1780.12" y="-77.88" font-family="Helvetica,sans-Serif" font-size="10.00">engine/subsystems/render</text>
<text text-anchor="middle" x="1845" y="-66.62" font-family="Helvetica,sans-Serif" font-size="10.00">/detail/light&#45;render&#45;system.cpp</text>
</a>
</g>
</g>
<!-- Node3&#45;&gt;Node22 -->
<g id="edge44_Node000003_Node000022" class="edge">
<title>Node3&#45;&gt;Node22</title>
<g id="a_edge44_Node000003_Node000022"><a xlink:title=" ">
<path fill="none" stroke="#63b8ff" d="M1236.31,-451C1411.14,-436.9 1797,-399.42 1797,-343.12 1797,-343.12 1797,-343.12 1797,-208.12 1797,-163.56 1821.8,-115.38 1835.75,-91.81"/>
<polygon fill="#63b8ff" stroke="#63b8ff" points="1236.05,-447.59 1226.36,-451.87 1236.61,-454.57 1236.05,-447.59"/>
</a>
</g>
</g>
<!-- Node5 -->
<g id="Node000005" class="node">
<title>Node5</title>
<g id="a_Node000005"><a xlink:href="../../d1/d47/controller_8cpp.html" target="_top" xlink:title=" ">
<polygon fill="white" stroke="#666666" points="656.12,-19.25 541.88,-19.25 541.88,0 656.12,0 656.12,-19.25"/>
<text text-anchor="middle" x="599" y="-5.75" font-family="Helvetica,sans-Serif" font-size="10.00">d3d_test/controller.cpp</text>
</a>
</g>
</g>
<!-- Node4&#45;&gt;Node5 -->
<g id="edge4_Node000004_Node000005" class="edge">
<title>Node4&#45;&gt;Node5</title>
<g id="a_edge4_Node000004_Node000005"><a xlink:title=" ">
<path fill="none" stroke="#63b8ff" d="M431.59,-394.11C289.75,-387.81 0,-364.22 0,-276.62 0,-276.62 0,-276.62 0,-147.25 0,-99.15 15.97,-80.36 57,-55.25 97.62,-30.39 410.84,-17 541.77,-12.44"/>
<polygon fill="#63b8ff" stroke="#63b8ff" points="431.23,-397.64 441.37,-394.57 431.53,-390.64 431.23,-397.64"/>
</a>
</g>
</g>
<!-- Node6 -->
<g id="Node000006" class="node">
<title>Node6</title>
<g id="a_Node000006"><a xlink:href="../../d5/d9b/scene_8hpp.html" target="_top" xlink:title=" ">
<polygon fill="white" stroke="#666666" points="905.75,-351.75 792.25,-351.75 792.25,-332.5 905.75,-332.5 905.75,-351.75"/>
<text text-anchor="middle" x="849" y="-338.25" font-family="Helvetica,sans-Serif" font-size="10.00">engine/core/scene.hpp</text>
</a>
</g>
</g>
<!-- Node4&#45;&gt;Node6 -->
<g id="edge5_Node000004_Node000006" class="edge">
<title>Node4&#45;&gt;Node6</title>
<g id="a_edge5_Node000004_Node000006"><a xlink:title=" ">
<path fill="none" stroke="#63b8ff" d="M576.9,-385.62C640.11,-375.74 732.66,-361.29 791.86,-352.05"/>
<polygon fill="#63b8ff" stroke="#63b8ff" points="576.57,-382.28 567.23,-387.28 577.65,-389.2 576.57,-382.28"/>
</a>
</g>
</g>
<!-- Node26 -->
<g id="Node000026" class="node">
<title>Node26</title>
<g id="a_Node000026"><a xlink:href="../../db/df9/deferred-hdr-render-pipeline_8hpp.html" target="_top" xlink:title=" ">
<polygon fill="white" stroke="#666666" points="337.38,-163.5 206.62,-163.5 206.62,-133 337.38,-133 337.38,-163.5"/>
<text text-anchor="start" x="214.62" y="-150" font-family="Helvetica,sans-Serif" font-size="10.00">engine/direct3d11/deferred</text>
<text text-anchor="middle" x="272" y="-138.75" font-family="Helvetica,sans-Serif" font-size="10.00">&#45;hdr&#45;render&#45;pipeline.hpp</text>
</a>
</g>
</g>
<!-- Node4&#45;&gt;Node26 -->
<g id="edge42_Node000004_Node000026" class="edge">
<title>Node4&#45;&gt;Node26</title>
<g id="a_edge42_Node000004_Node000026"><a xlink:title=" ">
<path fill="none" stroke="#63b8ff" d="M491.83,-379.44C447.87,-333.41 326.78,-206.61 285.78,-163.68"/>
<polygon fill="#63b8ff" stroke="#63b8ff" points="488.88,-381.47 498.32,-386.29 493.95,-376.64 488.88,-381.47"/>
</a>
</g>
</g>
<!-- Node28 -->
<g id="Node000028" class="node">
<title>Node28</title>
<g id="a_Node000028"><a xlink:href="../../d6/d54/renderer_8cpp.html" target="_top" xlink:title=" ">
<polygon fill="white" stroke="#666666" points="573.38,-285.25 442.62,-285.25 442.62,-266 573.38,-266 573.38,-285.25"/>
<text text-anchor="middle" x="508" y="-271.75" font-family="Helvetica,sans-Serif" font-size="10.00">engine/render/renderer.cpp</text>
</a>
</g>
</g>
<!-- Node4&#45;&gt;Node28 -->
<g id="edge43_Node000004_Node000028" class="edge">
<title>Node4&#45;&gt;Node28</title>
<g id="a_edge43_Node000004_Node000028"><a xlink:title=" ">
<path fill="none" stroke="#63b8ff" d="M508,-376.49C508,-350.21 508,-304.98 508,-285.73"/>
<polygon fill="#63b8ff" stroke="#63b8ff" points="504.5,-376.37 508,-386.37 511.5,-376.37 504.5,-376.37"/>
</a>
</g>
</g>
<!-- Node7 -->
<g id="Node000007" class="node">
<title>Node7</title>
<g id="a_Node000007"><a xlink:href="../../de/d46/engine_8hpp.html" target="_top" xlink:title=" ">
<polygon fill="white" stroke="#666666" points="864.88,-157.88 749.12,-157.88 749.12,-138.62 864.88,-138.62 864.88,-157.88"/>
<text text-anchor="middle" x="807" y="-144.38" font-family="Helvetica,sans-Serif" font-size="10.00">engine/core/engine.hpp</text>
</a>
</g>
</g>
<!-- Node6&#45;&gt;Node7 -->
<g id="edge6_Node000006_Node000007" class="edge">
<title>Node6&#45;&gt;Node7</title>
<g id="a_edge6_Node000006_Node000007"><a xlink:title=" ">
<path fill="none" stroke="#63b8ff" d="M837.86,-323.04C833.49,-315.16 828.85,-305.64 826,-296.5 810.2,-245.81 807.53,-181.35 807.08,-158.11"/>
<polygon fill="#63b8ff" stroke="#63b8ff" points="835.2,-324.43 843.27,-331.29 841.24,-320.89 835.2,-324.43"/>
</a>
</g>
</g>
<!-- Node18 -->
<g id="Node000018" class="node">
<title>Node18</title>
<g id="a_Node000018"><a xlink:href="../../d8/d30/decal-render-system_8cpp.html" target="_top" xlink:title=" ">
<polygon fill="white" stroke="#666666" points="1754.5,-91.38 1603.5,-91.38 1603.5,-60.88 1754.5,-60.88 1754.5,-91.38"/>
<text text-anchor="start" x="1611.5" y="-77.88" font-family="Helvetica,sans-Serif" font-size="10.00">engine/subsystems/render</text>
<text text-anchor="middle" x="1679" y="-66.62" font-family="Helvetica,sans-Serif" font-size="10.00">/detail/decal&#45;render&#45;system.cpp</text>
</a>
</g>
</g>
<!-- Node6&#45;&gt;Node18 -->
<g id="edge37_Node000006_Node000018" class="edge">
<title>Node6&#45;&gt;Node18</title>
<g id="a_edge37_Node000006_Node000018"><a xlink:title=" ">
<path fill="none" stroke="#63b8ff" d="M916.65,-338.72C1030.5,-334.04 1255.27,-321.83 1330,-296.5 1471.66,-248.48 1614.63,-132.65 1662.35,-91.74"/>
<polygon fill="#63b8ff" stroke="#63b8ff" points="916.84,-335.25 906.99,-339.15 917.12,-342.25 916.84,-335.25"/>
</a>
</g>
</g>
<!-- Node19 -->
<g id="Node000019" class="node">
<title>Node19</title>
<g id="a_Node000019"><a xlink:href="../../d1/d58/dissolution-render-system_8cpp.html" target="_top" xlink:title=" ">
<polygon fill="white" stroke="#666666" points="477,-97 347,-97 347,-55.25 477,-55.25 477,-97"/>
<text text-anchor="start" x="355" y="-83.5" font-family="Helvetica,sans-Serif" font-size="10.00">engine/subsystems/render</text>
<text text-anchor="start" x="355" y="-72.25" font-family="Helvetica,sans-Serif" font-size="10.00">/detail/dissolution&#45;render</text>
<text text-anchor="middle" x="412" y="-61" font-family="Helvetica,sans-Serif" font-size="10.00">&#45;system.cpp</text>
</a>
</g>
</g>
<!-- Node6&#45;&gt;Node19 -->
<g id="edge38_Node000006_Node000019" class="edge">
<title>Node6&#45;&gt;Node19</title>
<g id="a_edge38_Node000006_Node000019"><a xlink:title=" ">
<path fill="none" stroke="#63b8ff" d="M781.41,-332.79C745.12,-326.39 700.47,-315.33 664,-296.5 561.69,-243.69 466.53,-140.88 428.94,-97.36"/>
<polygon fill="#63b8ff" stroke="#63b8ff" points="780.46,-336.35 790.9,-334.55 781.62,-329.44 780.46,-336.35"/>
</a>
</g>
</g>
<!-- Node23 -->
<g id="Node000023" class="node">
<title>Node23</title>
<g id="a_Node000023"><a xlink:href="../../d3/dfe/particle-render-system_8cpp.html" target="_top" xlink:title=" ">
<polygon fill="white" stroke="#666666" points="1585,-97 1455,-97 1455,-55.25 1585,-55.25 1585,-97"/>
<text text-anchor="start" x="1463" y="-83.5" font-family="Helvetica,sans-Serif" font-size="10.00">engine/subsystems/render</text>
<text text-anchor="start" x="1463" y="-72.25" font-family="Helvetica,sans-Serif" font-size="10.00">/detail/particle&#45;render</text>
<text text-anchor="middle" x="1520" y="-61" font-family="Helvetica,sans-Serif" font-size="10.00">&#45;system.cpp</text>
</a>
</g>
</g>
<!-- Node6&#45;&gt;Node23 -->
<g id="edge41_Node000006_Node000023" class="edge">
<title>Node6&#45;&gt;Node23</title>
<g id="a_edge41_Node000006_Node000023"><a xlink:title=" ">
<path fill="none" stroke="#63b8ff" d="M917.05,-339.32C1022.17,-335.66 1218.54,-325.12 1282,-296.5 1384.45,-250.29 1472.09,-142.39 1505.52,-97.39"/>
<polygon fill="#63b8ff" stroke="#63b8ff" points="917.12,-335.85 907.24,-339.68 917.36,-342.84 917.12,-335.85"/>
</a>
</g>
</g>
<!-- Node24 -->
<g id="Node000024" class="node">
<title>Node24</title>
<g id="a_Node000024"><a xlink:href="../../d9/d06/render-pipeline_8hpp.html" target="_top" xlink:title=" ">
<polygon fill="white" stroke="#666666" points="773,-290.88 673,-290.88 673,-260.38 773,-260.38 773,-290.88"/>
<text text-anchor="start" x="681" y="-277.38" font-family="Helvetica,sans-Serif" font-size="10.00">engine/core/layers</text>
<text text-anchor="middle" x="723" y="-266.12" font-family="Helvetica,sans-Serif" font-size="10.00">/render&#45;pipeline.hpp</text>
</a>
</g>
</g>
<!-- Node6&#45;&gt;Node24 -->
<g id="edge28_Node000006_Node000024" class="edge">
<title>Node6&#45;&gt;Node24</title>
<g id="a_edge28_Node000006_Node000024"><a xlink:title=" ">
<path fill="none" stroke="#63b8ff" d="M821.7,-327.15C800.93,-316.52 772.41,-301.92 751.38,-291.15"/>
<polygon fill="#63b8ff" stroke="#63b8ff" points="819.72,-330.58 830.21,-332.02 822.91,-324.35 819.72,-330.58"/>
</a>
</g>
</g>
<!-- Node27 -->
<g id="Node000027" class="node">
<title>Node27</title>
<g id="a_Node000027"><a xlink:href="../../d4/d7c/deferred-resolve_8cpp.html" target="_top" xlink:title=" ">
<polygon fill="white" stroke="#666666" points="947.38,-290.88 834.62,-290.88 834.62,-260.38 947.38,-260.38 947.38,-290.88"/>
<text text-anchor="start" x="842.62" y="-277.38" font-family="Helvetica,sans-Serif" font-size="10.00">engine/render/deferred</text>
<text text-anchor="middle" x="891" y="-266.12" font-family="Helvetica,sans-Serif" font-size="10.00">&#45;resolve.cpp</text>
</a>
</g>
</g>
<!-- Node6&#45;&gt;Node27 -->
<g id="edge35_Node000006_Node000027" class="edge">
<title>Node6&#45;&gt;Node27</title>
<g id="a_edge35_Node000006_Node000027"><a xlink:title=" ">
<path fill="none" stroke="#63b8ff" d="M860.81,-322.99C867.4,-312.86 875.51,-300.42 881.66,-290.97"/>
<polygon fill="#63b8ff" stroke="#63b8ff" points="857.36,-320.87 854.84,-331.16 863.23,-324.69 857.36,-320.87"/>
</a>
</g>
</g>
<!-- Node6&#45;&gt;Node28 -->
<g id="edge36_Node000006_Node000028" class="edge">
<title>Node6&#45;&gt;Node28</title>
<g id="a_edge36_Node000006_Node000028"><a xlink:title=" ">
<path fill="none" stroke="#63b8ff" d="M781.14,-331.05C728.08,-322.82 652.58,-310.31 587,-296.5 572.05,-293.35 555.66,-289.32 541.7,-285.72"/>
<polygon fill="#63b8ff" stroke="#63b8ff" points="780.36,-334.63 790.77,-332.69 781.42,-327.71 780.36,-334.63"/>
</a>
</g>
</g>
<!-- Node29 -->
<g id="Node000029" class="node">
<title>Node29</title>
<g id="a_Node000029"><a xlink:href="../../d8/dcb/emissive-render-system_8cpp.html" target="_top" xlink:title=" ">
<polygon fill="white" stroke="#666666" points="1095,-296.5 965,-296.5 965,-254.75 1095,-254.75 1095,-296.5"/>
<text text-anchor="start" x="973" y="-283" font-family="Helvetica,sans-Serif" font-size="10.00">engine/subsystems/render</text>
<text text-anchor="start" x="973" y="-271.75" font-family="Helvetica,sans-Serif" font-size="10.00">/detail/emissive&#45;render</text>
<text text-anchor="middle" x="1030" y="-260.5" font-family="Helvetica,sans-Serif" font-size="10.00">&#45;system.cpp</text>
</a>
</g>
</g>
<!-- Node6&#45;&gt;Node29 -->
<g id="edge39_Node000006_Node000029" class="edge">
<title>Node6&#45;&gt;Node29</title>
<g id="a_edge39_Node000006_Node000029"><a xlink:title=" ">
<path fill="none" stroke="#63b8ff" d="M884.72,-328.4C909.85,-319.44 944.01,-307.27 972.89,-296.98"/>
<polygon fill="#63b8ff" stroke="#63b8ff" points="883.79,-325.37 875.55,-332.02 886.14,-331.96 883.79,-325.37"/>
</a>
</g>
</g>
<!-- Node30 -->
<g id="Node000030" class="node">
<title>Node30</title>
<g id="a_Node000030"><a xlink:href="../../d1/d62/opaque-render-system_8cpp.html" target="_top" xlink:title=" ">
<polygon fill="white" stroke="#666666" points="1272.62,-290.88 1113.38,-290.88 1113.38,-260.38 1272.62,-260.38 1272.62,-290.88"/>
<text text-anchor="start" x="1121.38" y="-277.38" font-family="Helvetica,sans-Serif" font-size="10.00">engine/subsystems/render</text>
<text text-anchor="middle" x="1193" y="-266.12" font-family="Helvetica,sans-Serif" font-size="10.00">/detail/opaque&#45;render&#45;system.cpp</text>
</a>
</g>
</g>
<!-- Node6&#45;&gt;Node30 -->
<g id="edge40_Node000006_Node000030" class="edge">
<title>Node6&#45;&gt;Node30</title>
<g id="a_edge40_Node000006_Node000030"><a xlink:title=" ">
<path fill="none" stroke="#63b8ff" d="M916.01,-330.27C967.53,-321.72 1040.42,-309.16 1104,-296.5 1112.07,-294.89 1120.54,-293.12 1128.91,-291.31"/>
<polygon fill="#63b8ff" stroke="#63b8ff" points="915.65,-326.95 906.35,-332.04 916.79,-333.86 915.65,-326.95"/>
</a>
</g>
</g>
<!-- Node8 -->
<g id="Node000008" class="node">
<title>Node8</title>
<g id="a_Node000008"><a xlink:href="../../d0/d86/camera-movement_8hpp.html" target="_top" xlink:title=" ">
<polygon fill="white" stroke="#666666" points="1008.75,-85.75 853.25,-85.75 853.25,-66.5 1008.75,-66.5 1008.75,-85.75"/>
<text text-anchor="middle" x="931" y="-72.25" font-family="Helvetica,sans-Serif" font-size="10.00">d3d_test/camera&#45;movement.hpp</text>
</a>
</g>
</g>
<!-- Node7&#45;&gt;Node8 -->
<g id="edge7_Node000007_Node000008" class="edge">
<title>Node7&#45;&gt;Node8</title>
<g id="a_edge7_Node000007_Node000008"><a xlink:title=" ">
<path fill="none" stroke="#63b8ff" d="M832.45,-132.86C857.25,-118.83 894.21,-97.93 915.1,-86.11"/>
<polygon fill="#63b8ff" stroke="#63b8ff" points="830.94,-130.26 823.96,-138.23 834.38,-136.35 830.94,-130.26"/>
</a>
</g>
</g>
<!-- Node10 -->
<g id="Node000010" class="node">
<title>Node10</title>
<g id="a_Node000010"><a xlink:href="../../dc/dfb/controller_8hpp.html" target="_top" xlink:title=" ">
<polygon fill="white" stroke="#666666" points="329.12,-85.75 214.88,-85.75 214.88,-66.5 329.12,-66.5 329.12,-85.75"/>
<text text-anchor="middle" x="272" y="-72.25" font-family="Helvetica,sans-Serif" font-size="10.00">d3d_test/controller.hpp</text>
</a>
</g>
</g>
<!-- Node7&#45;&gt;Node10 -->
<g id="edge10_Node000007_Node000010" class="edge">
<title>Node7&#45;&gt;Node10</title>
<g id="a_edge10_Node000007_Node000010"><a xlink:title=" ">
<path fill="none" stroke="#63b8ff" d="M737.87,-143.87C645.84,-138.45 478.37,-125.4 338,-97 324.63,-94.29 310.08,-90.06 298.05,-86.19"/>
<polygon fill="#63b8ff" stroke="#63b8ff" points="737.52,-147.41 747.71,-144.49 737.93,-140.42 737.52,-147.41"/>
</a>
</g>
</g>
<!-- Node11 -->
<g id="Node000011" class="node">
<title>Node11</title>
<g id="a_Node000011"><a xlink:href="../../d9/d0f/main_8cc.html" target="_top" xlink:title=" ">
<polygon fill="white" stroke="#666666" points="317.12,-19.25 226.88,-19.25 226.88,0 317.12,0 317.12,-19.25"/>
<text text-anchor="middle" x="272" y="-5.75" font-family="Helvetica,sans-Serif" font-size="10.00">d3d_test/main.cc</text>
</a>
</g>
</g>
<!-- Node7&#45;&gt;Node11 -->
<g id="edge13_Node000007_Node000011" class="edge">
<title>Node7&#45;&gt;Node11</title>
<g id="a_edge13_Node000007_Node000011"><a xlink:title=" ">
<path fill="none" stroke="#63b8ff" d="M737.76,-147.25C677.77,-144.49 590.43,-133.64 524,-97 502.03,-84.88 507.79,-67.69 486,-55.25 433.27,-25.13 362.86,-15.23 317.47,-12.04"/>
<polygon fill="#63b8ff" stroke="#63b8ff" points="737.5,-150.78 747.63,-147.67 737.77,-143.79 737.5,-150.78"/>
</a>
</g>
</g>
<!-- Node12 -->
<g id="Node000012" class="node">
<title>Node12</title>
<g id="a_Node000012"><a xlink:href="../../da/df5/object-editor_8hpp.html" target="_top" xlink:title=" ">
<polygon fill="white" stroke="#666666" points="1154.88,-85.75 1027.12,-85.75 1027.12,-66.5 1154.88,-66.5 1154.88,-85.75"/>
<text text-anchor="middle" x="1091" y="-72.25" font-family="Helvetica,sans-Serif" font-size="10.00">d3d_test/object&#45;editor.hpp</text>
</a>
</g>
</g>
<!-- Node7&#45;&gt;Node12 -->
<g id="edge14_Node000007_Node000012" class="edge">
<title>Node7&#45;&gt;Node12</title>
<g id="a_edge14_Node000007_Node000012"><a xlink:title=" ">
<path fill="none" stroke="#63b8ff" d="M857.46,-135.71C900.28,-125.81 963.29,-110.96 1018,-97 1031.36,-93.59 1046.05,-89.63 1058.72,-86.15"/>
<polygon fill="#63b8ff" stroke="#63b8ff" points="856.72,-132.52 847.76,-138.18 858.29,-139.34 856.72,-132.52"/>
</a>
</g>
</g>
<!-- Node15 -->
<g id="Node000015" class="node">
<title>Node15</title>
<g id="a_Node000015"><a xlink:href="../../d9/d55/scene-viewer_8hpp.html" target="_top" xlink:title=" ">
<polygon fill="white" stroke="#666666" points="665.12,-85.75 532.88,-85.75 532.88,-66.5 665.12,-66.5 665.12,-85.75"/>
<text text-anchor="middle" x="599" y="-72.25" font-family="Helvetica,sans-Serif" font-size="10.00">d3d_test/scene&#45;viewer.hpp</text>
</a>
</g>
</g>
<!-- Node7&#45;&gt;Node15 -->
<g id="edge18_Node000007_Node000015" class="edge">
<title>Node7&#45;&gt;Node15</title>
<g id="a_edge18_Node000007_Node000015"><a xlink:title=" ">
<path fill="none" stroke="#63b8ff" d="M770.03,-134.79C728.7,-120.85 662.75,-98.62 625.99,-86.23"/>
<polygon fill="#63b8ff" stroke="#63b8ff" points="768.64,-138.35 779.23,-138.23 770.88,-131.71 768.64,-138.35"/>
</a>
</g>
</g>
<!-- Node16 -->
<g id="Node000016" class="node">
<title>Node16</title>
<g id="a_Node000016"><a xlink:href="../../da/d5c/engine_8cpp.html" target="_top" xlink:title=" ">
<polygon fill="white" stroke="#666666" points="1288.88,-85.75 1173.12,-85.75 1173.12,-66.5 1288.88,-66.5 1288.88,-85.75"/>
<text text-anchor="middle" x="1231" y="-72.25" font-family="Helvetica,sans-Serif" font-size="10.00">engine/core/engine.cpp</text>
</a>
</g>
</g>
<!-- Node7&#45;&gt;Node16 -->
<g id="edge20_Node000007_Node000016" class="edge">
<title>Node7&#45;&gt;Node16</title>
<g id="a_edge20_Node000007_Node000016"><a xlink:title=" ">
<path fill="none" stroke="#63b8ff" d="M876.06,-140.61C948.37,-132.93 1064.96,-118.54 1164,-97 1177.28,-94.11 1191.76,-89.95 1203.86,-86.18"/>
<polygon fill="#63b8ff" stroke="#63b8ff" points="875.86,-137.21 866.28,-141.73 876.59,-144.17 875.86,-137.21"/>
</a>
</g>
</g>
<!-- Node17 -->
<g id="Node000017" class="node">
<title>Node17</title>
<g id="a_Node000017"><a xlink:href="../../d1/da2/deferred-hdr-render-pipeline_8cpp.html" target="_top" xlink:title=" ">
<polygon fill="white" stroke="#666666" points="196.38,-91.38 65.62,-91.38 65.62,-60.88 196.38,-60.88 196.38,-91.38"/>
<text text-anchor="start" x="73.62" y="-77.88" font-family="Helvetica,sans-Serif" font-size="10.00">engine/direct3d11/deferred</text>
<text text-anchor="middle" x="131" y="-66.62" font-family="Helvetica,sans-Serif" font-size="10.00">&#45;hdr&#45;render&#45;pipeline.cpp</text>
</a>
</g>
</g>
<!-- Node7&#45;&gt;Node17 -->
<g id="edge21_Node000007_Node000017" class="edge">
<title>Node7&#45;&gt;Node17</title>
<g id="a_edge21_Node000007_Node000017"><a xlink:title=" ">
<path fill="none" stroke="#63b8ff" d="M738.16,-145.42C625.95,-141.56 396.96,-130.02 206,-97 198.04,-95.62 189.69,-93.8 181.57,-91.81"/>
<polygon fill="#63b8ff" stroke="#63b8ff" points="737.86,-148.95 747.97,-145.78 738.1,-141.95 737.86,-148.95"/>
</a>
</g>
</g>
<!-- Node7&#45;&gt;Node18 -->
<g id="edge22_Node000007_Node000018" class="edge">
<title>Node7&#45;&gt;Node18</title>
<g id="a_edge22_Node000007_Node000018"><a xlink:title=" ">
<path fill="none" stroke="#63b8ff" d="M875.86,-146.68C1013.19,-144.71 1330.59,-135.93 1594,-97 1603.15,-95.65 1612.76,-93.81 1622.1,-91.8"/>
<polygon fill="#63b8ff" stroke="#63b8ff" points="876.06,-143.19 866.11,-146.83 876.15,-150.19 876.06,-143.19"/>
</a>
</g>
</g>
<!-- Node7&#45;&gt;Node19 -->
<g id="edge23_Node000007_Node000019" class="edge">
<title>Node7&#45;&gt;Node19</title>
<g id="a_edge23_Node000007_Node000019"><a xlink:title=" ">
<path fill="none" stroke="#63b8ff" d="M737.97,-138.07C673.74,-129.11 575.5,-114.31 491,-97 486.57,-96.09 482.01,-95.1 477.42,-94.06"/>
<polygon fill="#63b8ff" stroke="#63b8ff" points="737.38,-141.66 747.77,-139.57 738.34,-134.73 737.38,-141.66"/>
</a>
</g>
</g>
<!-- Node20 -->
<g id="Node000020" class="node">
<title>Node20</title>
<g id="a_Node000020"><a xlink:href="../../d2/d11/emissive-particle-render-system_8cpp.html" target="_top" xlink:title=" ">
<polygon fill="white" stroke="#666666" points="1437,-97 1307,-97 1307,-55.25 1437,-55.25 1437,-97"/>
<text text-anchor="start" x="1315" y="-83.5" font-family="Helvetica,sans-Serif" font-size="10.00">engine/subsystems/render</text>
<text text-anchor="start" x="1315" y="-72.25" font-family="Helvetica,sans-Serif" font-size="10.00">/detail/emissive&#45;particle</text>
<text text-anchor="middle" x="1372" y="-61" font-family="Helvetica,sans-Serif" font-size="10.00">&#45;render&#45;system.cpp</text>
</a>
</g>
</g>
<!-- Node7&#45;&gt;Node20 -->
<g id="edge24_Node000007_Node000020" class="edge">
<title>Node7&#45;&gt;Node20</title>
<g id="a_edge24_Node000007_Node000020"><a xlink:title=" ">
<path fill="none" stroke="#63b8ff" d="M876.2,-143.67C971.72,-137.94 1149.05,-124.44 1298,-97 1300.88,-96.47 1303.81,-95.88 1306.76,-95.26"/>
<polygon fill="#63b8ff" stroke="#63b8ff" points="876.03,-140.24 866.25,-144.32 876.44,-147.23 876.03,-140.24"/>
</a>
</g>
</g>
<!-- Node21 -->
<g id="Node000021" class="node">
<title>Node21</title>
<g id="a_Node000021"><a xlink:href="../../df/d58/grass-render-system_8cpp.html" target="_top" xlink:title=" ">
<polygon fill="white" stroke="#666666" points="834.88,-91.38 683.12,-91.38 683.12,-60.88 834.88,-60.88 834.88,-91.38"/>
<text text-anchor="start" x="691.12" y="-77.88" font-family="Helvetica,sans-Serif" font-size="10.00">engine/subsystems/render</text>
<text text-anchor="middle" x="759" y="-66.62" font-family="Helvetica,sans-Serif" font-size="10.00">/detail/grass&#45;render&#45;system.cpp</text>
</a>
</g>
</g>
<!-- Node7&#45;&gt;Node21 -->
<g id="edge25_Node000007_Node000021" class="edge">
<title>Node7&#45;&gt;Node21</title>
<g id="a_edge25_Node000007_Node000021"><a xlink:title=" ">
<path fill="none" stroke="#63b8ff" d="M794.88,-129.54C786.89,-117.88 776.56,-102.78 769.04,-91.79"/>
<polygon fill="#63b8ff" stroke="#63b8ff" points="792.38,-131.09 800.92,-137.37 798.16,-127.14 792.38,-131.09"/>
</a>
</g>
</g>
<!-- Node7&#45;&gt;Node22 -->
<g id="edge26_Node000007_Node000022" class="edge">
<title>Node7&#45;&gt;Node22</title>
<g id="a_edge26_Node000007_Node000022"><a xlink:title=" ">
<path fill="none" stroke="#63b8ff" d="M876.25,-147.99C1034.34,-148.72 1433.57,-145.16 1763,-97 1771.99,-95.69 1781.43,-93.84 1790.58,-91.8"/>
<polygon fill="#63b8ff" stroke="#63b8ff" points="876.31,-144.48 866.29,-147.93 876.27,-151.48 876.31,-144.48"/>
</a>
</g>
</g>
<!-- Node7&#45;&gt;Node23 -->
<g id="edge27_Node000007_Node000023" class="edge">
<title>Node7&#45;&gt;Node23</title>
<g id="a_edge27_Node000007_Node000023"><a xlink:title=" ">
<path fill="none" stroke="#63b8ff" d="M876.15,-145.97C993.93,-142.86 1240.69,-132.33 1446,-97 1448.88,-96.5 1451.82,-95.95 1454.77,-95.34"/>
<polygon fill="#63b8ff" stroke="#63b8ff" points="876.06,-142.5 866.16,-146.25 876.24,-149.49 876.06,-142.5"/>
</a>
</g>
</g>
<!-- Node8&#45;&gt;Node5 -->
<g id="edge9_Node000008_Node000005" class="edge">
<title>Node8&#45;&gt;Node5</title>
<g id="a_edge9_Node000008_Node000005"><a xlink:title=" ">
<path fill="none" stroke="#63b8ff" d="M882.3,-63.6C869.84,-60.76 856.44,-57.8 844,-55.25 778.35,-41.78 702.39,-28.26 652.66,-19.69"/>
<polygon fill="#63b8ff" stroke="#63b8ff" points="881.44,-67.22 891.97,-66.05 883,-60.4 881.44,-67.22"/>
</a>
</g>
</g>
<!-- Node9 -->
<g id="Node000009" class="node">
<title>Node9</title>
<g id="a_Node000009"><a xlink:href="../../d5/dbb/camera-movement_8cpp.html" target="_top" xlink:title=" ">
<polygon fill="white" stroke="#666666" points="1006.75,-19.25 851.25,-19.25 851.25,0 1006.75,0 1006.75,-19.25"/>
<text text-anchor="middle" x="929" y="-5.75" font-family="Helvetica,sans-Serif" font-size="10.00">d3d_test/camera&#45;movement.cpp</text>
</a>
</g>
</g>
<!-- Node8&#45;&gt;Node9 -->
<g id="edge8_Node000008_Node000009" class="edge">
<title>Node8&#45;&gt;Node9</title>
<g id="a_edge8_Node000008_Node000009"><a xlink:title=" ">
<path fill="none" stroke="#63b8ff" d="M930.39,-55.4C930.02,-43.43 929.56,-28.73 929.28,-19.52"/>
<polygon fill="#63b8ff" stroke="#63b8ff" points="926.91,-55.27 930.72,-65.16 933.91,-55.05 926.91,-55.27"/>
</a>
</g>
</g>
<!-- Node10&#45;&gt;Node5 -->
<g id="edge11_Node000010_Node000005" class="edge">
<title>Node10&#45;&gt;Node5</title>
<g id="a_edge11_Node000010_Node000005"><a xlink:title=" ">
<path fill="none" stroke="#63b8ff" d="M309.8,-62.87C318.97,-60.14 328.79,-57.42 338,-55.25 407.36,-38.94 488.41,-26.02 541.57,-18.37"/>
<polygon fill="#63b8ff" stroke="#63b8ff" points="308.95,-59.78 300.41,-66.04 311,-66.47 308.95,-59.78"/>
</a>
</g>
</g>
<!-- Node10&#45;&gt;Node11 -->
<g id="edge12_Node000010_Node000011" class="edge">
<title>Node10&#45;&gt;Node11</title>
<g id="a_edge12_Node000010_Node000011"><a xlink:title=" ">
<path fill="none" stroke="#63b8ff" d="M272,-55.4C272,-43.43 272,-28.73 272,-19.52"/>
<polygon fill="#63b8ff" stroke="#63b8ff" points="268.5,-55.16 272,-65.16 275.5,-55.16 268.5,-55.16"/>
</a>
</g>
</g>
<!-- Node12&#45;&gt;Node5 -->
<g id="edge15_Node000012_Node000005" class="edge">
<title>Node12&#45;&gt;Node5</title>
<g id="a_edge15_Node000012_Node000005"><a xlink:title=" ">
<path fill="none" stroke="#63b8ff" d="M1051.39,-63.11C1040.64,-60.18 1028.94,-57.31 1018,-55.25 890.03,-31.17 737.45,-19 656.35,-13.82"/>
<polygon fill="#63b8ff" stroke="#63b8ff" points="1050.19,-66.69 1060.77,-66.02 1052.09,-59.95 1050.19,-66.69"/>
</a>
</g>
</g>
<!-- Node13 -->
<g id="Node000013" class="node">
<title>Node13</title>
<g id="a_Node000013"><a xlink:href="../../d4/d94/object-editor_8cpp.html" target="_top" xlink:title=" ">
<polygon fill="white" stroke="#666666" points="1302.88,-19.25 1175.12,-19.25 1175.12,0 1302.88,0 1302.88,-19.25"/>
<text text-anchor="middle" x="1239" y="-5.75" font-family="Helvetica,sans-Serif" font-size="10.00">d3d_test/object&#45;editor.cpp</text>
</a>
</g>
</g>
<!-- Node12&#45;&gt;Node13 -->
<g id="edge16_Node000012_Node000013" class="edge">
<title>Node12&#45;&gt;Node13</title>
<g id="a_edge16_Node000012_Node000013"><a xlink:title=" ">
<path fill="none" stroke="#63b8ff" d="M1121.87,-61.67C1150.77,-49.08 1193.14,-30.61 1218.22,-19.68"/>
<polygon fill="#63b8ff" stroke="#63b8ff" points="1120.66,-58.82 1112.89,-66.02 1123.46,-65.23 1120.66,-58.82"/>
</a>
</g>
</g>
<!-- Node14 -->
<g id="Node000014" class="node">
<title>Node14</title>
<g id="a_Node000014"><a xlink:href="../../d0/d38/scene-viewer_8cpp.html" target="_top" xlink:title=" ">
<polygon fill="white" stroke="#666666" points="1157.12,-19.25 1024.88,-19.25 1024.88,0 1157.12,0 1157.12,-19.25"/>
<text text-anchor="middle" x="1091" y="-5.75" font-family="Helvetica,sans-Serif" font-size="10.00">d3d_test/scene&#45;viewer.cpp</text>
</a>
</g>
</g>
<!-- Node12&#45;&gt;Node14 -->
<g id="edge17_Node000012_Node000014" class="edge">
<title>Node12&#45;&gt;Node14</title>
<g id="a_edge17_Node000012_Node000014"><a xlink:title=" ">
<path fill="none" stroke="#63b8ff" d="M1091,-55.4C1091,-43.43 1091,-28.73 1091,-19.52"/>
<polygon fill="#63b8ff" stroke="#63b8ff" points="1087.5,-55.16 1091,-65.16 1094.5,-55.16 1087.5,-55.16"/>
</a>
</g>
</g>
<!-- Node15&#45;&gt;Node5 -->
<g id="edge19_Node000015_Node000005" class="edge">
<title>Node15&#45;&gt;Node5</title>
<g id="a_edge19_Node000015_Node000005"><a xlink:title=" ">
<path fill="none" stroke="#63b8ff" d="M599,-55.4C599,-43.43 599,-28.73 599,-19.52"/>
<polygon fill="#63b8ff" stroke="#63b8ff" points="595.5,-55.16 599,-65.16 602.5,-55.16 595.5,-55.16"/>
</a>
</g>
</g>
<!-- Node25 -->
<g id="Node000025" class="node">
<title>Node25</title>
<g id="a_Node000025"><a xlink:href="../../d4/d87/layers_8hpp.html" target="_top" xlink:title=" ">
<polygon fill="white" stroke="#666666" points="779.38,-218.75 666.62,-218.75 666.62,-199.5 779.38,-199.5 779.38,-218.75"/>
<text text-anchor="middle" x="723" y="-205.25" font-family="Helvetica,sans-Serif" font-size="10.00">engine/core/layers.hpp</text>
</a>
</g>
</g>
<!-- Node24&#45;&gt;Node25 -->
<g id="edge29_Node000024_Node000025" class="edge">
<title>Node24&#45;&gt;Node25</title>
<g id="a_edge29_Node000024_Node000025"><a xlink:title=" ">
<path fill="none" stroke="#63b8ff" d="M723,-249.05C723,-238.39 723,-226.7 723,-218.95"/>
<polygon fill="#63b8ff" stroke="#63b8ff" points="719.5,-248.99 723,-258.99 726.5,-248.99 719.5,-248.99"/>
</a>
</g>
</g>
<!-- Node24&#45;&gt;Node26 -->
<g id="edge31_Node000024_Node000026" class="edge">
<title>Node24&#45;&gt;Node26</title>
<g id="a_edge31_Node000024_Node000026"><a xlink:title=" ">
<path fill="none" stroke="#63b8ff" d="M662.11,-257.7C573.14,-232.96 409.07,-187.36 324.88,-163.95"/>
<polygon fill="#63b8ff" stroke="#63b8ff" points="661.01,-261.3 671.58,-260.61 662.88,-254.56 661.01,-261.3"/>
</a>
</g>
</g>
<!-- Node25&#45;&gt;Node7 -->
<g id="edge30_Node000025_Node000007" class="edge">
<title>Node25&#45;&gt;Node7</title>
<g id="a_edge30_Node000025_Node000007"><a xlink:title=" ">
<path fill="none" stroke="#63b8ff" d="M744.76,-192.88C760.41,-181.9 781,-167.47 794.12,-158.28"/>
<polygon fill="#63b8ff" stroke="#63b8ff" points="742.94,-190.58 736.76,-199.18 746.96,-196.31 742.94,-190.58"/>
</a>
</g>
</g>
<!-- Node26&#45;&gt;Node10 -->
<g id="edge32_Node000026_Node000010" class="edge">
<title>Node26&#45;&gt;Node10</title>
<g id="a_edge32_Node000026_Node000010"><a xlink:title=" ">
<path fill="none" stroke="#63b8ff" d="M272,-121.87C272,-109.27 272,-94.87 272,-85.88"/>
<polygon fill="#63b8ff" stroke="#63b8ff" points="268.5,-121.72 272,-131.72 275.5,-121.72 268.5,-121.72"/>
</a>
</g>
</g>
<!-- Node26&#45;&gt;Node11 -->
<g id="edge33_Node000026_Node000011" class="edge">
<title>Node26&#45;&gt;Node11</title>
<g id="a_edge33_Node000026_Node000011"><a xlink:title=" ">
<path fill="none" stroke="#63b8ff" d="M195.45,-140.55C117.72,-130.74 14.41,-107.58 57,-55.25 77.93,-29.53 169.74,-18.15 226.4,-13.51"/>
<polygon fill="#63b8ff" stroke="#63b8ff" points="194.88,-144.13 205.23,-141.85 195.72,-137.18 194.88,-144.13"/>
</a>
</g>
</g>
<!-- Node26&#45;&gt;Node17 -->
<g id="edge34_Node000026_Node000017" class="edge">
<title>Node26&#45;&gt;Node17</title>
<g id="a_edge34_Node000026_Node000017"><a xlink:title=" ">
<path fill="none" stroke="#63b8ff" d="M232.69,-127.7C209.82,-116.33 181.47,-102.23 160.52,-91.81"/>
<polygon fill="#63b8ff" stroke="#63b8ff" points="230.93,-131.23 241.44,-132.55 234.05,-124.96 230.93,-131.23"/>
</a>
</g>
</g>
</g>
</svg>

<g id="navigator" transform="translate(0 0)" fill="#404254">
  <rect fill="#f2f5e9" fill-opacity="0.5" stroke="#606060" stroke-width=".5" x="0" y="0" width="60" height="60"/>
  <use id="zoomplus" xlink:href="#zoomPlus" x="17" y="9" onmousedown="handleZoom(evt,'in')"/>
  <use id="zoomminus" xlink:href="#zoomMin" x="42" y="9" onmousedown="handleZoom(evt,'out')"/>
  <use id="reset" xlink:href="#resetDef" x="30" y="36" onmousedown="handleReset()"/>
   <use id="arrowup" xlink:href="#arrowUp" x="0" y="0" onmousedown="handlePan(0,-1)"/>
  <use id="arrowright" xlink:href="#arrowRight" x="0" y="0" onmousedown="handlePan(1,0)"/>
  <use id="arrowdown" xlink:href="#arrowDown" x="0" y="0" onmousedown="handlePan(0,1)"/>
  <use id="arrowleft" xlink:href="#arrowLeft" x="0" y="0" onmousedown="handlePan(-1,0)"/>
</g>
<svg viewBox="0 0 15 15" width="100%" height="30px" preserveAspectRatio="xMaxYMin meet">
 <g id="arrow_out" transform="scale(0.3 0.3)">
  <a xlink:href="shadow-map_8hpp__dep__incl_org.svg" target="_base">
   <rect id="button" ry="5" rx="5" y="6" x="6" height="38" width="38"
        fill="#f2f5e9" fill-opacity="0.5" stroke="#606060" stroke-width="1.0"/>
   <path id="arrow"
     d="M 11.500037,31.436501 C 11.940474,20.09759 22.043105,11.32322 32.158766,21.979434 L 37.068811,17.246167 C 37.068811,17.246167 37.088388,32 37.088388,32 L 22.160133,31.978069 C 22.160133,31.978069 26.997745,27.140456 26.997745,27.140456 C 18.528582,18.264221 13.291696,25.230495 11.500037,31.436501 z"
     style="fill:#404040;"/>
  </a>
 </g>
</svg>

<style type='text/css'>
<![CDATA[
[data-mouse-over-selected='false'] { opacity: 0.7; }
[data-mouse-over-selected='true']  { opacity: 1.0; }
]]>
</style>
<script type="application/ecmascript"><![CDATA[
document.addEventListener('DOMContentLoaded', (event) => {
  highlightEdges();
  highlightAdjacentNodes();
});
]]></script>
</svg>
