<?xml version="1.0" encoding="UTF-8" standalone="no"?>
<!DOCTYPE svg PUBLIC "-//W3C//DTD SVG 1.1//EN"
 "http://www.w3.org/Graphics/SVG/1.1/DTD/svg11.dtd">
<!-- Generated by graphviz version 9.0.0 (20230911.1827)
 -->
<!-- Title: engine/subsystems/render/detail/light&#45;render&#45;system.hpp Pages: 1 -->
<svg width="1926pt" height="482pt"
 viewBox="0.00 0.00 1925.88 481.50" xmlns="http://www.w3.org/2000/svg" xmlns:xlink="http://www.w3.org/1999/xlink">
<g id="graph0" class="graph" transform="scale(1 1) rotate(0) translate(4 477.5)">
<title>engine/subsystems/render/detail/light&#45;render&#45;system.hpp</title>
<!-- Node1 -->
<g id="Node000001" class="node">
<title>Node1</title>
<g id="a_Node000001"><a xlink:title=" ">
<polygon fill="#999999" stroke="#666666" points="1014.88,-473.5 869.12,-473.5 869.12,-443 1014.88,-443 1014.88,-473.5"/>
<text text-anchor="start" x="877.12" y="-460" font-family="Helvetica,sans-Serif" font-size="10.00">engine/subsystems/render</text>
<text text-anchor="middle" x="942" y="-448.75" font-family="Helvetica,sans-Serif" font-size="10.00">/detail/light&#45;render&#45;system.hpp</text>
</a>
</g>
</g>
<!-- Node2 -->
<g id="Node000002" class="node">
<title>Node2</title>
<g id="a_Node000002"><a xlink:href="../../d1/dae/renderer_8hpp.html" target="_top" xlink:title=" ">
<polygon fill="white" stroke="#666666" points="573.38,-407 442.62,-407 442.62,-387.75 573.38,-387.75 573.38,-407"/>
<text text-anchor="middle" x="508" y="-393.5" font-family="Helvetica,sans-Serif" font-size="10.00">engine/render/renderer.hpp</text>
</a>
</g>
</g>
<!-- Node1&#45;&gt;Node2 -->
<g id="edge1_Node000001_Node000002" class="edge">
<title>Node1&#45;&gt;Node2</title>
<g id="a_edge1_Node000001_Node000002"><a xlink:title=" ">
<path fill="none" stroke="#63b8ff" d="M857.69,-445.81C774.64,-434.55 649.5,-417.57 573.61,-407.28"/>
<polygon fill="#63b8ff" stroke="#63b8ff" points="856.99,-449.25 867.37,-447.13 857.93,-442.31 856.99,-449.25"/>
</a>
</g>
</g>
<!-- Node20 -->
<g id="Node000020" class="node">
<title>Node20</title>
<g id="a_Node000020"><a xlink:href="../../d8/d9c/light-render-system_8cpp.html" target="_top" xlink:title=" ">
<polygon fill="white" stroke="#666666" points="1917.88,-91.38 1772.12,-91.38 1772.12,-60.88 1917.88,-60.88 1917.88,-91.38"/>
<text text-anchor="start" x="1780.12" y="-77.88" font-family="Helvetica,sans-Serif" font-size="10.00">engine/subsystems/render</text>
<text text-anchor="middle" x="1845" y="-66.62" font-family="Helvetica,sans-Serif" font-size="10.00">/detail/light&#45;render&#45;system.cpp</text>
</a>
</g>
</g>
<!-- Node1&#45;&gt;Node20 -->
<g id="edge42_Node000001_Node000020" class="edge">
<title>Node1&#45;&gt;Node20</title>
<g id="a_edge42_Node000001_Node000020"><a xlink:title=" ">
<path fill="none" stroke="#63b8ff" d="M1026.52,-454.74C1242.37,-447.2 1797,-420.32 1797,-343.12 1797,-343.12 1797,-343.12 1797,-208.12 1797,-163.56 1821.8,-115.38 1835.75,-91.81"/>
<polygon fill="#63b8ff" stroke="#63b8ff" points="1026.65,-451.23 1016.78,-455.07 1026.89,-458.23 1026.65,-451.23"/>
</a>
</g>
</g>
<!-- Node3 -->
<g id="Node000003" class="node">
<title>Node3</title>
<g id="a_Node000003"><a xlink:href="../../d1/d47/controller_8cpp.html" target="_top" xlink:title=" ">
<polygon fill="white" stroke="#666666" points="656.12,-19.25 541.88,-19.25 541.88,0 656.12,0 656.12,-19.25"/>
<text text-anchor="middle" x="599" y="-5.75" font-family="Helvetica,sans-Serif" font-size="10.00">d3d_test/controller.cpp</text>
</a>
</g>
</g>
<!-- Node2&#45;&gt;Node3 -->
<g id="edge2_Node000002_Node000003" class="edge">
<title>Node2&#45;&gt;Node3</title>
<g id="a_edge2_Node000002_Node000003"><a xlink:title=" ">
<path fill="none" stroke="#63b8ff" d="M431.16,-394.09C289.17,-387.76 0,-364.13 0,-276.62 0,-276.62 0,-276.62 0,-147.25 0,-99.15 15.97,-80.36 57,-55.25 97.62,-30.39 410.84,-17 541.77,-12.44"/>
<polygon fill="#63b8ff" stroke="#63b8ff" points="430.72,-397.57 440.86,-394.5 431.01,-390.58 430.72,-397.57"/>
</a>
</g>
</g>
<!-- Node4 -->
<g id="Node000004" class="node">
<title>Node4</title>
<g id="a_Node000004"><a xlink:href="../../d5/d9b/scene_8hpp.html" target="_top" xlink:title=" ">
<polygon fill="white" stroke="#666666" points="905.75,-351.75 792.25,-351.75 792.25,-332.5 905.75,-332.5 905.75,-351.75"/>
<text text-anchor="middle" x="849" y="-338.25" font-family="Helvetica,sans-Serif" font-size="10.00">engine/core/scene.hpp</text>
</a>
</g>
</g>
<!-- Node2&#45;&gt;Node4 -->
<g id="edge3_Node000002_Node000004" class="edge">
<title>Node2&#45;&gt;Node4</title>
<g id="a_edge3_Node000002_Node000004"><a xlink:title=" ">
<path fill="none" stroke="#63b8ff" d="M577.29,-385.55C640.49,-375.69 732.78,-361.27 791.86,-352.05"/>
<polygon fill="#63b8ff" stroke="#63b8ff" points="577.07,-382.05 567.73,-387.05 578.15,-388.96 577.07,-382.05"/>
</a>
</g>
</g>
<!-- Node24 -->
<g id="Node000024" class="node">
<title>Node24</title>
<g id="a_Node000024"><a xlink:href="../../db/df9/deferred-hdr-render-pipeline_8hpp.html" target="_top" xlink:title=" ">
<polygon fill="white" stroke="#666666" points="337.38,-163.5 206.62,-163.5 206.62,-133 337.38,-133 337.38,-163.5"/>
<text text-anchor="start" x="214.62" y="-150" font-family="Helvetica,sans-Serif" font-size="10.00">engine/direct3d11/deferred</text>
<text text-anchor="middle" x="272" y="-138.75" font-family="Helvetica,sans-Serif" font-size="10.00">&#45;hdr&#45;render&#45;pipeline.hpp</text>
</a>
</g>
</g>
<!-- Node2&#45;&gt;Node24 -->
<g id="edge40_Node000002_Node000024" class="edge">
<title>Node2&#45;&gt;Node24</title>
<g id="a_edge40_Node000002_Node000024"><a xlink:title=" ">
<path fill="none" stroke="#63b8ff" d="M491.55,-379.15C447.37,-332.88 326.69,-206.52 285.78,-163.68"/>
<polygon fill="#63b8ff" stroke="#63b8ff" points="488.84,-381.38 498.28,-386.19 493.9,-376.54 488.84,-381.38"/>
</a>
</g>
</g>
<!-- Node26 -->
<g id="Node000026" class="node">
<title>Node26</title>
<g id="a_Node000026"><a xlink:href="../../d6/d54/renderer_8cpp.html" target="_top" xlink:title=" ">
<polygon fill="white" stroke="#666666" points="573.38,-285.25 442.62,-285.25 442.62,-266 573.38,-266 573.38,-285.25"/>
<text text-anchor="middle" x="508" y="-271.75" font-family="Helvetica,sans-Serif" font-size="10.00">engine/render/renderer.cpp</text>
</a>
</g>
</g>
<!-- Node2&#45;&gt;Node26 -->
<g id="edge41_Node000002_Node000026" class="edge">
<title>Node2&#45;&gt;Node26</title>
<g id="a_edge41_Node000002_Node000026"><a xlink:title=" ">
<path fill="none" stroke="#63b8ff" d="M508,-376.13C508,-349.8 508,-304.9 508,-285.73"/>
<polygon fill="#63b8ff" stroke="#63b8ff" points="504.5,-375.86 508,-385.86 511.5,-375.86 504.5,-375.86"/>
</a>
</g>
</g>
<!-- Node5 -->
<g id="Node000005" class="node">
<title>Node5</title>
<g id="a_Node000005"><a xlink:href="../../de/d46/engine_8hpp.html" target="_top" xlink:title=" ">
<polygon fill="white" stroke="#666666" points="864.88,-157.88 749.12,-157.88 749.12,-138.62 864.88,-138.62 864.88,-157.88"/>
<text text-anchor="middle" x="807" y="-144.38" font-family="Helvetica,sans-Serif" font-size="10.00">engine/core/engine.hpp</text>
</a>
</g>
</g>
<!-- Node4&#45;&gt;Node5 -->
<g id="edge4_Node000004_Node000005" class="edge">
<title>Node4&#45;&gt;Node5</title>
<g id="a_edge4_Node000004_Node000005"><a xlink:title=" ">
<path fill="none" stroke="#63b8ff" d="M837.56,-322.5C833.28,-314.73 828.78,-305.44 826,-296.5 810.2,-245.81 807.53,-181.35 807.08,-158.11"/>
<polygon fill="#63b8ff" stroke="#63b8ff" points="834.45,-324.11 842.51,-330.99 840.49,-320.58 834.45,-324.11"/>
</a>
</g>
</g>
<!-- Node16 -->
<g id="Node000016" class="node">
<title>Node16</title>
<g id="a_Node000016"><a xlink:href="../../d8/d30/decal-render-system_8cpp.html" target="_top" xlink:title=" ">
<polygon fill="white" stroke="#666666" points="1754.5,-91.38 1603.5,-91.38 1603.5,-60.88 1754.5,-60.88 1754.5,-91.38"/>
<text text-anchor="start" x="1611.5" y="-77.88" font-family="Helvetica,sans-Serif" font-size="10.00">engine/subsystems/render</text>
<text text-anchor="middle" x="1679" y="-66.62" font-family="Helvetica,sans-Serif" font-size="10.00">/detail/decal&#45;render&#45;system.cpp</text>
</a>
</g>
</g>
<!-- Node4&#45;&gt;Node16 -->
<g id="edge35_Node000004_Node000016" class="edge">
<title>Node4&#45;&gt;Node16</title>
<g id="a_edge35_Node000004_Node000016"><a xlink:title=" ">
<path fill="none" stroke="#63b8ff" d="M917.34,-338.69C1031.41,-333.99 1255.42,-321.78 1330,-296.5 1471.66,-248.48 1614.63,-132.65 1662.35,-91.74"/>
<polygon fill="#63b8ff" stroke="#63b8ff" points="917.35,-335.19 907.5,-339.09 917.64,-342.19 917.35,-335.19"/>
</a>
</g>
</g>
<!-- Node17 -->
<g id="Node000017" class="node">
<title>Node17</title>
<g id="a_Node000017"><a xlink:href="../../d1/d58/dissolution-render-system_8cpp.html" target="_top" xlink:title=" ">
<polygon fill="white" stroke="#666666" points="477,-97 347,-97 347,-55.25 477,-55.25 477,-97"/>
<text text-anchor="start" x="355" y="-83.5" font-family="Helvetica,sans-Serif" font-size="10.00">engine/subsystems/render</text>
<text text-anchor="start" x="355" y="-72.25" font-family="Helvetica,sans-Serif" font-size="10.00">/detail/dissolution&#45;render</text>
<text text-anchor="middle" x="412" y="-61" font-family="Helvetica,sans-Serif" font-size="10.00">&#45;system.cpp</text>
</a>
</g>
</g>
<!-- Node4&#45;&gt;Node17 -->
<g id="edge36_Node000004_Node000017" class="edge">
<title>Node4&#45;&gt;Node17</title>
<g id="a_edge36_Node000004_Node000017"><a xlink:title=" ">
<path fill="none" stroke="#63b8ff" d="M780.94,-332.71C744.73,-326.3 700.32,-315.25 664,-296.5 561.69,-243.69 466.53,-140.88 428.94,-97.36"/>
<polygon fill="#63b8ff" stroke="#63b8ff" points="779.96,-336.09 790.4,-334.3 781.12,-329.19 779.96,-336.09"/>
</a>
</g>
</g>
<!-- Node21 -->
<g id="Node000021" class="node">
<title>Node21</title>
<g id="a_Node000021"><a xlink:href="../../d3/dfe/particle-render-system_8cpp.html" target="_top" xlink:title=" ">
<polygon fill="white" stroke="#666666" points="1585,-97 1455,-97 1455,-55.25 1585,-55.25 1585,-97"/>
<text text-anchor="start" x="1463" y="-83.5" font-family="Helvetica,sans-Serif" font-size="10.00">engine/subsystems/render</text>
<text text-anchor="start" x="1463" y="-72.25" font-family="Helvetica,sans-Serif" font-size="10.00">/detail/particle&#45;render</text>
<text text-anchor="middle" x="1520" y="-61" font-family="Helvetica,sans-Serif" font-size="10.00">&#45;system.cpp</text>
</a>
</g>
</g>
<!-- Node4&#45;&gt;Node21 -->
<g id="edge39_Node000004_Node000021" class="edge">
<title>Node4&#45;&gt;Node21</title>
<g id="a_edge39_Node000004_Node000021"><a xlink:title=" ">
<path fill="none" stroke="#63b8ff" d="M917.69,-339.3C1022.96,-335.62 1218.67,-325.06 1282,-296.5 1384.45,-250.29 1472.09,-142.39 1505.52,-97.39"/>
<polygon fill="#63b8ff" stroke="#63b8ff" points="917.63,-335.8 907.76,-339.63 917.87,-342.79 917.63,-335.8"/>
</a>
</g>
</g>
<!-- Node22 -->
<g id="Node000022" class="node">
<title>Node22</title>
<g id="a_Node000022"><a xlink:href="../../d9/d06/render-pipeline_8hpp.html" target="_top" xlink:title=" ">
<polygon fill="white" stroke="#666666" points="773,-290.88 673,-290.88 673,-260.38 773,-260.38 773,-290.88"/>
<text text-anchor="start" x="681" y="-277.38" font-family="Helvetica,sans-Serif" font-size="10.00">engine/core/layers</text>
<text text-anchor="middle" x="723" y="-266.12" font-family="Helvetica,sans-Serif" font-size="10.00">/render&#45;pipeline.hpp</text>
</a>
</g>
</g>
<!-- Node4&#45;&gt;Node22 -->
<g id="edge26_Node000004_Node000022" class="edge">
<title>Node4&#45;&gt;Node22</title>
<g id="a_edge26_Node000004_Node000022"><a xlink:title=" ">
<path fill="none" stroke="#63b8ff" d="M821.13,-326.86C800.41,-316.25 772.22,-301.82 751.38,-291.15"/>
<polygon fill="#63b8ff" stroke="#63b8ff" points="819.37,-329.89 829.87,-331.33 822.56,-323.66 819.37,-329.89"/>
</a>
</g>
</g>
<!-- Node25 -->
<g id="Node000025" class="node">
<title>Node25</title>
<g id="a_Node000025"><a xlink:href="../../d4/d7c/deferred-resolve_8cpp.html" target="_top" xlink:title=" ">
<polygon fill="white" stroke="#666666" points="947.38,-290.88 834.62,-290.88 834.62,-260.38 947.38,-260.38 947.38,-290.88"/>
<text text-anchor="start" x="842.62" y="-277.38" font-family="Helvetica,sans-Serif" font-size="10.00">engine/render/deferred</text>
<text text-anchor="middle" x="891" y="-266.12" font-family="Helvetica,sans-Serif" font-size="10.00">&#45;resolve.cpp</text>
</a>
</g>
</g>
<!-- Node4&#45;&gt;Node25 -->
<g id="edge33_Node000004_Node000025" class="edge">
<title>Node4&#45;&gt;Node25</title>
<g id="a_edge33_Node000004_Node000025"><a xlink:title=" ">
<path fill="none" stroke="#63b8ff" d="M861.01,-322.68C867.57,-312.6 875.57,-300.32 881.66,-290.97"/>
<polygon fill="#63b8ff" stroke="#63b8ff" points="858.19,-320.6 855.67,-330.89 864.06,-324.42 858.19,-320.6"/>
</a>
</g>
</g>
<!-- Node4&#45;&gt;Node26 -->
<g id="edge34_Node000004_Node000026" class="edge">
<title>Node4&#45;&gt;Node26</title>
<g id="a_edge34_Node000004_Node000026"><a xlink:title=" ">
<path fill="none" stroke="#63b8ff" d="M780.47,-330.95C727.45,-322.71 652.3,-310.25 587,-296.5 572.05,-293.35 555.66,-289.32 541.7,-285.72"/>
<polygon fill="#63b8ff" stroke="#63b8ff" points="779.86,-334.39 790.28,-332.46 780.93,-327.48 779.86,-334.39"/>
</a>
</g>
</g>
<!-- Node27 -->
<g id="Node000027" class="node">
<title>Node27</title>
<g id="a_Node000027"><a xlink:href="../../d8/dcb/emissive-render-system_8cpp.html" target="_top" xlink:title=" ">
<polygon fill="white" stroke="#666666" points="1095,-296.5 965,-296.5 965,-254.75 1095,-254.75 1095,-296.5"/>
<text text-anchor="start" x="973" y="-283" font-family="Helvetica,sans-Serif" font-size="10.00">engine/subsystems/render</text>
<text text-anchor="start" x="973" y="-271.75" font-family="Helvetica,sans-Serif" font-size="10.00">/detail/emissive&#45;render</text>
<text text-anchor="middle" x="1030" y="-260.5" font-family="Helvetica,sans-Serif" font-size="10.00">&#45;system.cpp</text>
</a>
</g>
</g>
<!-- Node4&#45;&gt;Node27 -->
<g id="edge37_Node000004_Node000027" class="edge">
<title>Node4&#45;&gt;Node27</title>
<g id="a_edge37_Node000004_Node000027"><a xlink:title=" ">
<path fill="none" stroke="#63b8ff" d="M885.06,-328.27C910.15,-319.33 944.14,-307.22 972.89,-296.98"/>
<polygon fill="#63b8ff" stroke="#63b8ff" points="884.22,-324.86 875.97,-331.51 886.57,-331.45 884.22,-324.86"/>
</a>
</g>
</g>
<!-- Node28 -->
<g id="Node000028" class="node">
<title>Node28</title>
<g id="a_Node000028"><a xlink:href="../../d1/d62/opaque-render-system_8cpp.html" target="_top" xlink:title=" ">
<polygon fill="white" stroke="#666666" points="1272.62,-290.88 1113.38,-290.88 1113.38,-260.38 1272.62,-260.38 1272.62,-290.88"/>
<text text-anchor="start" x="1121.38" y="-277.38" font-family="Helvetica,sans-Serif" font-size="10.00">engine/subsystems/render</text>
<text text-anchor="middle" x="1193" y="-266.12" font-family="Helvetica,sans-Serif" font-size="10.00">/detail/opaque&#45;render&#45;system.cpp</text>
</a>
</g>
</g>
<!-- Node4&#45;&gt;Node28 -->
<g id="edge38_Node000004_Node000028" class="edge">
<title>Node4&#45;&gt;Node28</title>
<g id="a_edge38_Node000004_Node000028"><a xlink:title=" ">
<path fill="none" stroke="#63b8ff" d="M916.66,-330.16C968.14,-321.61 1040.69,-309.1 1104,-296.5 1112.07,-294.89 1120.54,-293.12 1128.91,-291.31"/>
<polygon fill="#63b8ff" stroke="#63b8ff" points="916.14,-326.7 906.85,-331.79 917.28,-333.61 916.14,-326.7"/>
</a>
</g>
</g>
<!-- Node6 -->
<g id="Node000006" class="node">
<title>Node6</title>
<g id="a_Node000006"><a xlink:href="../../d0/d86/camera-movement_8hpp.html" target="_top" xlink:title=" ">
<polygon fill="white" stroke="#666666" points="1008.75,-85.75 853.25,-85.75 853.25,-66.5 1008.75,-66.5 1008.75,-85.75"/>
<text text-anchor="middle" x="931" y="-72.25" font-family="Helvetica,sans-Serif" font-size="10.00">d3d_test/camera&#45;movement.hpp</text>
</a>
</g>
</g>
<!-- Node5&#45;&gt;Node6 -->
<g id="edge5_Node000005_Node000006" class="edge">
<title>Node5&#45;&gt;Node6</title>
<g id="a_edge5_Node000005_Node000006"><a xlink:title=" ">
<path fill="none" stroke="#63b8ff" d="M832.78,-132.67C857.58,-118.64 894.3,-97.88 915.1,-86.11"/>
<polygon fill="#63b8ff" stroke="#63b8ff" points="831.26,-129.51 824.27,-137.48 834.7,-135.6 831.26,-129.51"/>
</a>
</g>
</g>
<!-- Node8 -->
<g id="Node000008" class="node">
<title>Node8</title>
<g id="a_Node000008"><a xlink:href="../../dc/dfb/controller_8hpp.html" target="_top" xlink:title=" ">
<polygon fill="white" stroke="#666666" points="329.12,-85.75 214.88,-85.75 214.88,-66.5 329.12,-66.5 329.12,-85.75"/>
<text text-anchor="middle" x="272" y="-72.25" font-family="Helvetica,sans-Serif" font-size="10.00">d3d_test/controller.hpp</text>
</a>
</g>
</g>
<!-- Node5&#45;&gt;Node8 -->
<g id="edge8_Node000005_Node000008" class="edge">
<title>Node5&#45;&gt;Node8</title>
<g id="a_edge8_Node000005_Node000008"><a xlink:title=" ">
<path fill="none" stroke="#63b8ff" d="M737.3,-143.83C645.16,-138.4 478.09,-125.34 338,-97 324.63,-94.29 310.08,-90.06 298.05,-86.19"/>
<polygon fill="#63b8ff" stroke="#63b8ff" points="737.01,-147.32 747.2,-144.4 737.42,-140.33 737.01,-147.32"/>
</a>
</g>
</g>
<!-- Node9 -->
<g id="Node000009" class="node">
<title>Node9</title>
<g id="a_Node000009"><a xlink:href="../../d9/d0f/main_8cc.html" target="_top" xlink:title=" ">
<polygon fill="white" stroke="#666666" points="317.12,-19.25 226.88,-19.25 226.88,0 317.12,0 317.12,-19.25"/>
<text text-anchor="middle" x="272" y="-5.75" font-family="Helvetica,sans-Serif" font-size="10.00">d3d_test/main.cc</text>
</a>
</g>
</g>
<!-- Node5&#45;&gt;Node9 -->
<g id="edge11_Node000005_Node000009" class="edge">
<title>Node5&#45;&gt;Node9</title>
<g id="a_edge11_Node000005_Node000009"><a xlink:title=" ">
<path fill="none" stroke="#63b8ff" d="M737.38,-147.23C677.41,-144.44 590.29,-133.57 524,-97 502.03,-84.88 507.79,-67.69 486,-55.25 433.27,-25.13 362.86,-15.23 317.47,-12.04"/>
<polygon fill="#63b8ff" stroke="#63b8ff" points="736.99,-150.72 747.12,-147.62 737.26,-143.72 736.99,-150.72"/>
</a>
</g>
</g>
<!-- Node10 -->
<g id="Node000010" class="node">
<title>Node10</title>
<g id="a_Node000010"><a xlink:href="../../da/df5/object-editor_8hpp.html" target="_top" xlink:title=" ">
<polygon fill="white" stroke="#666666" points="1154.88,-85.75 1027.12,-85.75 1027.12,-66.5 1154.88,-66.5 1154.88,-85.75"/>
<text text-anchor="middle" x="1091" y="-72.25" font-family="Helvetica,sans-Serif" font-size="10.00">d3d_test/object&#45;editor.hpp</text>
</a>
</g>
</g>
<!-- Node5&#45;&gt;Node10 -->
<g id="edge12_Node000005_Node000010" class="edge">
<title>Node5&#45;&gt;Node10</title>
<g id="a_edge12_Node000005_Node000010"><a xlink:title=" ">
<path fill="none" stroke="#63b8ff" d="M857.74,-135.65C900.55,-125.74 963.4,-110.93 1018,-97 1031.36,-93.59 1046.05,-89.63 1058.72,-86.15"/>
<polygon fill="#63b8ff" stroke="#63b8ff" points="857.19,-132.18 848.23,-137.84 858.77,-139 857.19,-132.18"/>
</a>
</g>
</g>
<!-- Node13 -->
<g id="Node000013" class="node">
<title>Node13</title>
<g id="a_Node000013"><a xlink:href="../../d9/d55/scene-viewer_8hpp.html" target="_top" xlink:title=" ">
<polygon fill="white" stroke="#666666" points="665.12,-85.75 532.88,-85.75 532.88,-66.5 665.12,-66.5 665.12,-85.75"/>
<text text-anchor="middle" x="599" y="-72.25" font-family="Helvetica,sans-Serif" font-size="10.00">d3d_test/scene&#45;viewer.hpp</text>
</a>
</g>
</g>
<!-- Node5&#45;&gt;Node13 -->
<g id="edge16_Node000005_Node000013" class="edge">
<title>Node5&#45;&gt;Node13</title>
<g id="a_edge16_Node000005_Node000013"><a xlink:title=" ">
<path fill="none" stroke="#63b8ff" d="M769.51,-134.61C728.14,-120.66 662.6,-98.57 625.99,-86.23"/>
<polygon fill="#63b8ff" stroke="#63b8ff" points="768.21,-137.86 778.8,-137.74 770.44,-131.23 768.21,-137.86"/>
</a>
</g>
</g>
<!-- Node14 -->
<g id="Node000014" class="node">
<title>Node14</title>
<g id="a_Node000014"><a xlink:href="../../da/d5c/engine_8cpp.html" target="_top" xlink:title=" ">
<polygon fill="white" stroke="#666666" points="1288.88,-85.75 1173.12,-85.75 1173.12,-66.5 1288.88,-66.5 1288.88,-85.75"/>
<text text-anchor="middle" x="1231" y="-72.25" font-family="Helvetica,sans-Serif" font-size="10.00">engine/core/engine.cpp</text>
</a>
</g>
</g>
<!-- Node5&#45;&gt;Node14 -->
<g id="edge18_Node000005_Node000014" class="edge">
<title>Node5&#45;&gt;Node14</title>
<g id="a_edge18_Node000005_Node000014"><a xlink:title=" ">
<path fill="none" stroke="#63b8ff" d="M876.51,-140.56C948.85,-132.87 1065.16,-118.49 1164,-97 1177.28,-94.11 1191.76,-89.95 1203.86,-86.18"/>
<polygon fill="#63b8ff" stroke="#63b8ff" points="876.37,-137.05 866.79,-141.58 877.1,-144.02 876.37,-137.05"/>
</a>
</g>
</g>
<!-- Node15 -->
<g id="Node000015" class="node">
<title>Node15</title>
<g id="a_Node000015"><a xlink:href="../../d1/da2/deferred-hdr-render-pipeline_8cpp.html" target="_top" xlink:title=" ">
<polygon fill="white" stroke="#666666" points="196.38,-91.38 65.62,-91.38 65.62,-60.88 196.38,-60.88 196.38,-91.38"/>
<text text-anchor="start" x="73.62" y="-77.88" font-family="Helvetica,sans-Serif" font-size="10.00">engine/direct3d11/deferred</text>
<text text-anchor="middle" x="131" y="-66.62" font-family="Helvetica,sans-Serif" font-size="10.00">&#45;hdr&#45;render&#45;pipeline.cpp</text>
</a>
</g>
</g>
<!-- Node5&#45;&gt;Node15 -->
<g id="edge19_Node000005_Node000015" class="edge">
<title>Node5&#45;&gt;Node15</title>
<g id="a_edge19_Node000005_Node000015"><a xlink:title=" ">
<path fill="none" stroke="#63b8ff" d="M737.48,-145.4C625.03,-141.51 396.57,-129.95 206,-97 198.04,-95.62 189.69,-93.8 181.57,-91.81"/>
<polygon fill="#63b8ff" stroke="#63b8ff" points="737.35,-148.89 747.46,-145.73 737.58,-141.9 737.35,-148.89"/>
</a>
</g>
</g>
<!-- Node5&#45;&gt;Node16 -->
<g id="edge20_Node000005_Node000016" class="edge">
<title>Node5&#45;&gt;Node16</title>
<g id="a_edge20_Node000005_Node000016"><a xlink:title=" ">
<path fill="none" stroke="#63b8ff" d="M876.28,-146.68C1013.83,-144.69 1330.86,-135.89 1594,-97 1603.15,-95.65 1612.76,-93.81 1622.1,-91.8"/>
<polygon fill="#63b8ff" stroke="#63b8ff" points="876.57,-143.17 866.62,-146.81 876.67,-150.17 876.57,-143.17"/>
</a>
</g>
</g>
<!-- Node5&#45;&gt;Node17 -->
<g id="edge21_Node000005_Node000017" class="edge">
<title>Node5&#45;&gt;Node17</title>
<g id="a_edge21_Node000005_Node000017"><a xlink:title=" ">
<path fill="none" stroke="#63b8ff" d="M737.57,-138.02C673.33,-129.05 575.32,-114.28 491,-97 486.57,-96.09 482.01,-95.1 477.42,-94.06"/>
<polygon fill="#63b8ff" stroke="#63b8ff" points="736.88,-141.46 747.27,-139.36 737.85,-134.52 736.88,-141.46"/>
</a>
</g>
</g>
<!-- Node18 -->
<g id="Node000018" class="node">
<title>Node18</title>
<g id="a_Node000018"><a xlink:href="../../d2/d11/emissive-particle-render-system_8cpp.html" target="_top" xlink:title=" ">
<polygon fill="white" stroke="#666666" points="1437,-97 1307,-97 1307,-55.25 1437,-55.25 1437,-97"/>
<text text-anchor="start" x="1315" y="-83.5" font-family="Helvetica,sans-Serif" font-size="10.00">engine/subsystems/render</text>
<text text-anchor="start" x="1315" y="-72.25" font-family="Helvetica,sans-Serif" font-size="10.00">/detail/emissive&#45;particle</text>
<text text-anchor="middle" x="1372" y="-61" font-family="Helvetica,sans-Serif" font-size="10.00">&#45;render&#45;system.cpp</text>
</a>
</g>
</g>
<!-- Node5&#45;&gt;Node18 -->
<g id="edge22_Node000005_Node000018" class="edge">
<title>Node5&#45;&gt;Node18</title>
<g id="a_edge22_Node000005_Node000018"><a xlink:title=" ">
<path fill="none" stroke="#63b8ff" d="M876.5,-143.66C972.08,-137.92 1149.2,-124.41 1298,-97 1300.88,-96.47 1303.81,-95.88 1306.76,-95.26"/>
<polygon fill="#63b8ff" stroke="#63b8ff" points="876.54,-140.15 866.76,-144.23 876.95,-147.14 876.54,-140.15"/>
</a>
</g>
</g>
<!-- Node19 -->
<g id="Node000019" class="node">
<title>Node19</title>
<g id="a_Node000019"><a xlink:href="../../df/d58/grass-render-system_8cpp.html" target="_top" xlink:title=" ">
<polygon fill="white" stroke="#666666" points="834.88,-91.38 683.12,-91.38 683.12,-60.88 834.88,-60.88 834.88,-91.38"/>
<text text-anchor="start" x="691.12" y="-77.88" font-family="Helvetica,sans-Serif" font-size="10.00">engine/subsystems/render</text>
<text text-anchor="middle" x="759" y="-66.62" font-family="Helvetica,sans-Serif" font-size="10.00">/detail/grass&#45;render&#45;system.cpp</text>
</a>
</g>
</g>
<!-- Node5&#45;&gt;Node19 -->
<g id="edge23_Node000005_Node000019" class="edge">
<title>Node5&#45;&gt;Node19</title>
<g id="a_edge23_Node000005_Node000019"><a xlink:title=" ">
<path fill="none" stroke="#63b8ff" d="M794.64,-129.19C786.69,-117.57 776.49,-102.67 769.04,-91.79"/>
<polygon fill="#63b8ff" stroke="#63b8ff" points="791.53,-130.84 800.07,-137.12 797.31,-126.89 791.53,-130.84"/>
</a>
</g>
</g>
<!-- Node5&#45;&gt;Node20 -->
<g id="edge24_Node000005_Node000020" class="edge">
<title>Node5&#45;&gt;Node20</title>
<g id="a_edge24_Node000005_Node000020"><a xlink:title=" ">
<path fill="none" stroke="#63b8ff" d="M876.73,-147.99C1035.14,-148.71 1433.9,-145.11 1763,-97 1771.99,-95.69 1781.43,-93.84 1790.58,-91.8"/>
<polygon fill="#63b8ff" stroke="#63b8ff" points="876.83,-144.49 866.81,-147.94 876.79,-151.49 876.83,-144.49"/>
</a>
</g>
</g>
<!-- Node5&#45;&gt;Node21 -->
<g id="edge25_Node000005_Node000021" class="edge">
<title>Node5&#45;&gt;Node21</title>
<g id="a_edge25_Node000005_Node000021"><a xlink:title=" ">
<path fill="none" stroke="#63b8ff" d="M876.5,-145.96C994.43,-142.84 1240.9,-132.3 1446,-97 1448.88,-96.5 1451.82,-95.95 1454.77,-95.34"/>
<polygon fill="#63b8ff" stroke="#63b8ff" points="876.58,-142.46 866.67,-146.21 876.75,-149.45 876.58,-142.46"/>
</a>
</g>
</g>
<!-- Node6&#45;&gt;Node3 -->
<g id="edge7_Node000006_Node000003" class="edge">
<title>Node6&#45;&gt;Node3</title>
<g id="a_edge7_Node000006_Node000003"><a xlink:title=" ">
<path fill="none" stroke="#63b8ff" d="M881.92,-63.51C869.57,-60.7 856.32,-57.78 844,-55.25 778.35,-41.78 702.39,-28.26 652.66,-19.69"/>
<polygon fill="#63b8ff" stroke="#63b8ff" points="880.96,-66.88 891.49,-65.71 882.53,-60.06 880.96,-66.88"/>
</a>
</g>
</g>
<!-- Node7 -->
<g id="Node000007" class="node">
<title>Node7</title>
<g id="a_Node000007"><a xlink:href="../../d5/dbb/camera-movement_8cpp.html" target="_top" xlink:title=" ">
<polygon fill="white" stroke="#666666" points="1006.75,-19.25 851.25,-19.25 851.25,0 1006.75,0 1006.75,-19.25"/>
<text text-anchor="middle" x="929" y="-5.75" font-family="Helvetica,sans-Serif" font-size="10.00">d3d_test/camera&#45;movement.cpp</text>
</a>
</g>
</g>
<!-- Node6&#45;&gt;Node7 -->
<g id="edge6_Node000006_Node000007" class="edge">
<title>Node6&#45;&gt;Node7</title>
<g id="a_edge6_Node000006_Node000007"><a xlink:title=" ">
<path fill="none" stroke="#63b8ff" d="M930.38,-55.02C930.01,-43.12 929.56,-28.63 929.28,-19.52"/>
<polygon fill="#63b8ff" stroke="#63b8ff" points="926.87,-54.76 930.67,-64.64 933.86,-54.54 926.87,-54.76"/>
</a>
</g>
</g>
<!-- Node8&#45;&gt;Node3 -->
<g id="edge9_Node000008_Node000003" class="edge">
<title>Node8&#45;&gt;Node3</title>
<g id="a_edge9_Node000008_Node000003"><a xlink:title=" ">
<path fill="none" stroke="#63b8ff" d="M310.4,-62.69C319.4,-60.02 328.99,-57.37 338,-55.25 407.36,-38.94 488.41,-26.02 541.57,-18.37"/>
<polygon fill="#63b8ff" stroke="#63b8ff" points="309.4,-59.34 300.86,-65.6 311.45,-66.03 309.4,-59.34"/>
</a>
</g>
</g>
<!-- Node8&#45;&gt;Node9 -->
<g id="edge10_Node000008_Node000009" class="edge">
<title>Node8&#45;&gt;Node9</title>
<g id="a_edge10_Node000008_Node000009"><a xlink:title=" ">
<path fill="none" stroke="#63b8ff" d="M272,-54.65C272,-42.82 272,-28.54 272,-19.52"/>
<polygon fill="#63b8ff" stroke="#63b8ff" points="268.5,-54.64 272,-64.64 275.5,-54.64 268.5,-54.64"/>
</a>
</g>
</g>
<!-- Node10&#45;&gt;Node3 -->
<g id="edge13_Node000010_Node000003" class="edge">
<title>Node10&#45;&gt;Node3</title>
<g id="a_edge13_Node000010_Node000003"><a xlink:title=" ">
<path fill="none" stroke="#63b8ff" d="M1050.72,-62.92C1040.15,-60.06 1028.71,-57.27 1018,-55.25 890.03,-31.17 737.45,-19 656.35,-13.82"/>
<polygon fill="#63b8ff" stroke="#63b8ff" points="1049.74,-66.28 1060.31,-65.61 1051.62,-59.54 1049.74,-66.28"/>
</a>
</g>
</g>
<!-- Node11 -->
<g id="Node000011" class="node">
<title>Node11</title>
<g id="a_Node000011"><a xlink:href="../../d4/d94/object-editor_8cpp.html" target="_top" xlink:title=" ">
<polygon fill="white" stroke="#666666" points="1302.88,-19.25 1175.12,-19.25 1175.12,0 1302.88,0 1302.88,-19.25"/>
<text text-anchor="middle" x="1239" y="-5.75" font-family="Helvetica,sans-Serif" font-size="10.00">d3d_test/object&#45;editor.cpp</text>
</a>
</g>
</g>
<!-- Node10&#45;&gt;Node11 -->
<g id="edge14_Node000010_Node000011" class="edge">
<title>Node10&#45;&gt;Node11</title>
<g id="a_edge14_Node000010_Node000011"><a xlink:title=" ">
<path fill="none" stroke="#63b8ff" d="M1122.25,-61.51C1151.14,-48.92 1193.25,-30.56 1218.22,-19.68"/>
<polygon fill="#63b8ff" stroke="#63b8ff" points="1121.05,-58.21 1113.28,-65.42 1123.84,-64.63 1121.05,-58.21"/>
</a>
</g>
</g>
<!-- Node12 -->
<g id="Node000012" class="node">
<title>Node12</title>
<g id="a_Node000012"><a xlink:href="../../d0/d38/scene-viewer_8cpp.html" target="_top" xlink:title=" ">
<polygon fill="white" stroke="#666666" points="1157.12,-19.25 1024.88,-19.25 1024.88,0 1157.12,0 1157.12,-19.25"/>
<text text-anchor="middle" x="1091" y="-5.75" font-family="Helvetica,sans-Serif" font-size="10.00">d3d_test/scene&#45;viewer.cpp</text>
</a>
</g>
</g>
<!-- Node10&#45;&gt;Node12 -->
<g id="edge15_Node000010_Node000012" class="edge">
<title>Node10&#45;&gt;Node12</title>
<g id="a_edge15_Node000010_Node000012"><a xlink:title=" ">
<path fill="none" stroke="#63b8ff" d="M1091,-54.65C1091,-42.82 1091,-28.54 1091,-19.52"/>
<polygon fill="#63b8ff" stroke="#63b8ff" points="1087.5,-54.64 1091,-64.64 1094.5,-54.64 1087.5,-54.64"/>
</a>
</g>
</g>
<!-- Node13&#45;&gt;Node3 -->
<g id="edge17_Node000013_Node000003" class="edge">
<title>Node13&#45;&gt;Node3</title>
<g id="a_edge17_Node000013_Node000003"><a xlink:title=" ">
<path fill="none" stroke="#63b8ff" d="M599,-54.65C599,-42.82 599,-28.54 599,-19.52"/>
<polygon fill="#63b8ff" stroke="#63b8ff" points="595.5,-54.64 599,-64.64 602.5,-54.64 595.5,-54.64"/>
</a>
</g>
</g>
<!-- Node23 -->
<g id="Node000023" class="node">
<title>Node23</title>
<g id="a_Node000023"><a xlink:href="../../d4/d87/layers_8hpp.html" target="_top" xlink:title=" ">
<polygon fill="white" stroke="#666666" points="779.38,-218.75 666.62,-218.75 666.62,-199.5 779.38,-199.5 779.38,-218.75"/>
<text text-anchor="middle" x="723" y="-205.25" font-family="Helvetica,sans-Serif" font-size="10.00">engine/core/layers.hpp</text>
</a>
</g>
</g>
<!-- Node22&#45;&gt;Node23 -->
<g id="edge27_Node000022_Node000023" class="edge">
<title>Node22&#45;&gt;Node23</title>
<g id="a_edge27_Node000022_Node000023"><a xlink:title=" ">
<path fill="none" stroke="#63b8ff" d="M723,-248.71C723,-238.14 723,-226.62 723,-218.95"/>
<polygon fill="#63b8ff" stroke="#63b8ff" points="719.5,-248.48 723,-258.48 726.5,-248.48 719.5,-248.48"/>
</a>
</g>
</g>
<!-- Node22&#45;&gt;Node24 -->
<g id="edge29_Node000022_Node000024" class="edge">
<title>Node22&#45;&gt;Node24</title>
<g id="a_edge29_Node000022_Node000024"><a xlink:title=" ">
<path fill="none" stroke="#63b8ff" d="M661.57,-257.55C572.47,-232.78 408.9,-187.31 324.88,-163.95"/>
<polygon fill="#63b8ff" stroke="#63b8ff" points="660.55,-260.9 671.12,-260.2 662.42,-254.15 660.55,-260.9"/>
</a>
</g>
</g>
<!-- Node23&#45;&gt;Node5 -->
<g id="edge28_Node000023_Node000005" class="edge">
<title>Node23&#45;&gt;Node5</title>
<g id="a_edge28_Node000023_Node000005"><a xlink:title=" ">
<path fill="none" stroke="#63b8ff" d="M744.76,-192.88C760.41,-181.9 781,-167.47 794.12,-158.28"/>
<polygon fill="#63b8ff" stroke="#63b8ff" points="743.18,-189.71 737,-198.31 747.19,-195.44 743.18,-189.71"/>
</a>
</g>
</g>
<!-- Node24&#45;&gt;Node8 -->
<g id="edge30_Node000024_Node000008" class="edge">
<title>Node24&#45;&gt;Node8</title>
<g id="a_edge30_Node000024_Node000008"><a xlink:title=" ">
<path fill="none" stroke="#63b8ff" d="M272,-121.48C272,-108.98 272,-94.77 272,-85.88"/>
<polygon fill="#63b8ff" stroke="#63b8ff" points="268.5,-121.21 272,-131.21 275.5,-121.21 268.5,-121.21"/>
</a>
</g>
</g>
<!-- Node24&#45;&gt;Node9 -->
<g id="edge31_Node000024_Node000009" class="edge">
<title>Node24&#45;&gt;Node9</title>
<g id="a_edge31_Node000024_Node000009"><a xlink:title=" ">
<path fill="none" stroke="#63b8ff" d="M194.97,-140.49C117.3,-130.65 14.5,-107.48 57,-55.25 77.93,-29.53 169.74,-18.15 226.4,-13.51"/>
<polygon fill="#63b8ff" stroke="#63b8ff" points="194.38,-143.94 204.73,-141.66 195.22,-136.99 194.38,-143.94"/>
</a>
</g>
</g>
<!-- Node24&#45;&gt;Node15 -->
<g id="edge32_Node000024_Node000015" class="edge">
<title>Node24&#45;&gt;Node15</title>
<g id="a_edge32_Node000024_Node000015"><a xlink:title=" ">
<path fill="none" stroke="#63b8ff" d="M232.38,-127.55C209.57,-116.2 181.38,-102.18 160.52,-91.81"/>
<polygon fill="#63b8ff" stroke="#63b8ff" points="230.57,-130.56 241.09,-131.88 233.69,-124.29 230.57,-130.56"/>
</a>
</g>
</g>
</g>
</svg>
