<?xml version="1.0" encoding="UTF-8" standalone="no"?>
<!DOCTYPE svg PUBLIC "-//W3C//DTD SVG 1.1//EN"
 "http://www.w3.org/Graphics/SVG/1.1/DTD/svg11.dtd">
<!-- Generated by graphviz version 9.0.0 (20230911.1827)
 -->
<!-- Title: engine/render/present&#45;swapchain.hpp Pages: 1 -->
<svg width="363pt" height="227pt"
 viewBox="0.00 0.00 362.50 226.75" xmlns="http://www.w3.org/2000/svg" xmlns:xlink="http://www.w3.org/1999/xlink">
<g id="graph0" class="graph" transform="scale(1 1) rotate(0) translate(4 222.75)">
<title>engine/render/present&#45;swapchain.hpp</title>
<!-- Node1 -->
<g id="Node000001" class="node">
<title>Node1</title>
<g id="a_Node000001"><a xlink:title=" ">
<polygon fill="#999999" stroke="#666666" points="126,-218.75 16.25,-218.75 16.25,-188.25 126,-188.25 126,-218.75"/>
<text text-anchor="start" x="24.25" y="-205.25" font-family="Helvetica,sans-Serif" font-size="10.00">engine/render/present</text>
<text text-anchor="middle" x="71.12" y="-194" font-family="Helvetica,sans-Serif" font-size="10.00">&#45;swapchain.hpp</text>
</a>
</g>
</g>
<!-- Node2 -->
<g id="Node000002" class="node">
<title>Node2</title>
<g id="a_Node000002"><a xlink:href="../../d9/d0f/main_8cc.html" target="_top" xlink:title=" ">
<polygon fill="white" stroke="#666666" points="90.25,-19.25 0,-19.25 0,0 90.25,0 90.25,-19.25"/>
<text text-anchor="middle" x="45.12" y="-5.75" font-family="Helvetica,sans-Serif" font-size="10.00">d3d_test/main.cc</text>
</a>
</g>
</g>
<!-- Node1&#45;&gt;Node2 -->
<g id="edge1_Node000001_Node000002" class="edge">
<title>Node1&#45;&gt;Node2</title>
<g id="a_edge1_Node000001_Node000002"><a xlink:title=" ">
<path fill="none" stroke="#63b8ff" d="M64.32,-176.98C62.41,-169.1 60.49,-160.36 59.12,-152.25 50.77,-102.54 46.84,-42.12 45.59,-19.63"/>
<polygon fill="#63b8ff" stroke="#63b8ff" points="60.92,-177.79 66.76,-186.63 67.7,-176.07 60.92,-177.79"/>
</a>
</g>
</g>
<!-- Node3 -->
<g id="Node000003" class="node">
<title>Node3</title>
<g id="a_Node000003"><a xlink:href="../../db/df9/deferred-hdr-render-pipeline_8hpp.html" target="_top" xlink:title=" ">
<polygon fill="white" stroke="#666666" points="198.5,-152.25 67.75,-152.25 67.75,-121.75 198.5,-121.75 198.5,-152.25"/>
<text text-anchor="start" x="75.75" y="-138.75" font-family="Helvetica,sans-Serif" font-size="10.00">engine/direct3d11/deferred</text>
<text text-anchor="middle" x="133.12" y="-127.5" font-family="Helvetica,sans-Serif" font-size="10.00">&#45;hdr&#45;render&#45;pipeline.hpp</text>
</a>
</g>
</g>
<!-- Node1&#45;&gt;Node3 -->
<g id="edge2_Node000001_Node000003" class="edge">
<title>Node1&#45;&gt;Node3</title>
<g id="a_edge2_Node000001_Node000003"><a xlink:title=" ">
<path fill="none" stroke="#63b8ff" d="M93.08,-179.66C101.74,-170.65 111.43,-160.57 119.11,-152.58"/>
<polygon fill="#63b8ff" stroke="#63b8ff" points="90.65,-177.14 86.24,-186.77 95.7,-181.99 90.65,-177.14"/>
</a>
</g>
</g>
<!-- Node3&#45;&gt;Node2 -->
<g id="edge6_Node000003_Node000002" class="edge">
<title>Node3&#45;&gt;Node2</title>
<g id="a_edge6_Node000003_Node000002"><a xlink:title=" ">
<path fill="none" stroke="#63b8ff" d="M107.23,-113.74C98.59,-105.5 89.33,-95.73 82.12,-85.75 66.3,-63.82 53.94,-34.1 48.36,-19.49"/>
<polygon fill="#63b8ff" stroke="#63b8ff" points="104.74,-116.2 114.47,-120.39 109.47,-111.05 104.74,-116.2"/>
</a>
</g>
</g>
<!-- Node4 -->
<g id="Node000004" class="node">
<title>Node4</title>
<g id="a_Node000004"><a xlink:href="../../dc/dfb/controller_8hpp.html" target="_top" xlink:title=" ">
<polygon fill="white" stroke="#666666" points="205.25,-80.12 91,-80.12 91,-60.88 205.25,-60.88 205.25,-80.12"/>
<text text-anchor="middle" x="148.12" y="-66.62" font-family="Helvetica,sans-Serif" font-size="10.00">d3d_test/controller.hpp</text>
</a>
</g>
</g>
<!-- Node3&#45;&gt;Node4 -->
<g id="edge3_Node000003_Node000004" class="edge">
<title>Node3&#45;&gt;Node4</title>
<g id="a_edge3_Node000003_Node000004"><a xlink:title=" ">
<path fill="none" stroke="#63b8ff" d="M139.07,-110.43C141.55,-99.76 144.27,-88.08 146.07,-80.32"/>
<polygon fill="#63b8ff" stroke="#63b8ff" points="135.73,-109.36 136.87,-119.89 142.55,-110.94 135.73,-109.36"/>
</a>
</g>
</g>
<!-- Node6 -->
<g id="Node000006" class="node">
<title>Node6</title>
<g id="a_Node000006"><a xlink:href="../../d1/da2/deferred-hdr-render-pipeline_8cpp.html" target="_top" xlink:title=" ">
<polygon fill="white" stroke="#666666" points="354.5,-85.75 223.75,-85.75 223.75,-55.25 354.5,-55.25 354.5,-85.75"/>
<text text-anchor="start" x="231.75" y="-72.25" font-family="Helvetica,sans-Serif" font-size="10.00">engine/direct3d11/deferred</text>
<text text-anchor="middle" x="289.12" y="-61" font-family="Helvetica,sans-Serif" font-size="10.00">&#45;hdr&#45;render&#45;pipeline.cpp</text>
</a>
</g>
</g>
<!-- Node3&#45;&gt;Node6 -->
<g id="edge7_Node000003_Node000006" class="edge">
<title>Node3&#45;&gt;Node6</title>
<g id="a_edge7_Node000003_Node000006"><a xlink:title=" ">
<path fill="none" stroke="#63b8ff" d="M179.08,-117C202.89,-107.16 231.51,-95.32 253.6,-86.19"/>
<polygon fill="#63b8ff" stroke="#63b8ff" points="177.83,-113.73 169.92,-120.79 180.5,-120.2 177.83,-113.73"/>
</a>
</g>
</g>
<!-- Node4&#45;&gt;Node2 -->
<g id="edge5_Node000004_Node000002" class="edge">
<title>Node4&#45;&gt;Node2</title>
<g id="a_edge5_Node000004_Node000002"><a xlink:title=" ">
<path fill="none" stroke="#63b8ff" d="M122.53,-54.87C103.2,-43.82 77.31,-29.02 60.92,-19.65"/>
<polygon fill="#63b8ff" stroke="#63b8ff" points="120.75,-57.88 131.17,-59.81 124.22,-51.81 120.75,-57.88"/>
</a>
</g>
</g>
<!-- Node5 -->
<g id="Node000005" class="node">
<title>Node5</title>
<g id="a_Node000005"><a xlink:href="../../d1/d47/controller_8cpp.html" target="_top" xlink:title=" ">
<polygon fill="white" stroke="#666666" points="222.25,-19.25 108,-19.25 108,0 222.25,0 222.25,-19.25"/>
<text text-anchor="middle" x="165.12" y="-5.75" font-family="Helvetica,sans-Serif" font-size="10.00">d3d_test/controller.cpp</text>
</a>
</g>
</g>
<!-- Node4&#45;&gt;Node5 -->
<g id="edge4_Node000004_Node000005" class="edge">
<title>Node4&#45;&gt;Node5</title>
<g id="a_edge4_Node000004_Node000005"><a xlink:title=" ">
<path fill="none" stroke="#63b8ff" d="M153.83,-49.74C156.77,-39.56 160.21,-27.63 162.52,-19.65"/>
<polygon fill="#63b8ff" stroke="#63b8ff" points="150.54,-48.53 151.13,-59.1 157.26,-50.47 150.54,-48.53"/>
</a>
</g>
</g>
</g>
</svg>
