<?xml version="1.0" encoding="UTF-8" standalone="no"?>
<!DOCTYPE svg PUBLIC "-//W3C//DTD SVG 1.1//EN"
 "http://www.w3.org/Graphics/SVG/1.1/DTD/svg11.dtd">
<!-- Generated by graphviz version 9.0.0 (20230911.1827)
 -->
<!-- Title: engine/subsystems/render/detail/emissive&#45;render&#45;system.hpp Pages: 1 -->
<!--zoomable 582 -->

<svg id="main" version="1.1" xmlns="http://www.w3.org/2000/svg" xmlns:xlink="http://www.w3.org/1999/xlink" xml:space="preserve" onload="init(evt)">
<style type="text/css"><![CDATA[
.node, .edge {opacity: 0.7;}
.node.selected, .edge.selected {opacity: 1;}
.edge:hover path { stroke: red; }
.edge:hover polygon { stroke: red; fill: red; }
]]></style>

<defs>
  <circle id="rim" cx="0" cy="0" r="7"/>
  <circle id="rim2" cx="0" cy="0" r="3.5"/>
  <g id="zoomPlus">
    <use xlink:href="#rim" fill="#404040"><set attributeName="fill" to="#808080" begin="zoomplus.mouseover" end="zoomplus.mouseout"/></use>
    <path d="M-4,0h8M0,-4v8" fill="none" stroke="white" stroke-width="1.5" pointer-events="none"/>
  </g>
  <g id="zoomMin">
    <use xlink:href="#rim" fill="#404040"><set attributeName="fill" to="#808080" begin="zoomminus.mouseover" end="zoomminus.mouseout"/></use>
    <path d="M-4,0h8" fill="none" stroke="white" stroke-width="1.5" pointer-events="none"/>
  </g>
  <g id="arrowUp" transform="translate(30 24)">
    <use xlink:href="#rim"/>
    <path pointer-events="none" fill="none" stroke="white" stroke-width="1.5" d="M0,-3.0v7 M-2.5,-0.5L0,-3.0L2.5,-0.5"/>
  </g>
  <g id="arrowRight" transform="rotate(90) translate(36 -43)">
    <use xlink:href="#rim"/>
    <path pointer-events="none" fill="none" stroke="white" stroke-width="1.5" d="M0,-3.0v7 M-2.5,-0.5L0,-3.0L2.5,-0.5"/>
  </g>
  <g id="arrowDown" transform="rotate(180) translate(-30 -48)">
    <use xlink:href="#rim"/>
    <path pointer-events="none" fill="none" stroke="white" stroke-width="1.5" d="M0,-3.0v7 M-2.5,-0.5L0,-3.0L2.5,-0.5"/>
  </g>
  <g id="arrowLeft" transform="rotate(270) translate(-36 17)">
    <use xlink:href="#rim"/>
    <path pointer-events="none" fill="none" stroke="white" stroke-width="1.5" d="M0,-3.0v7 M-2.5,-0.5L0,-3.0L2.5,-0.5"/>
  </g>
  <g id="resetDef">
    <use xlink:href="#rim2" fill="#404040"><set attributeName="fill" to="#808080" begin="reset.mouseover" end="reset.mouseout"/></use>
  </g>
</defs>
<script type="application/ecmascript">
var viewWidth = 1912;
var viewHeight = 582;
var sectionId = 'dynsection-1';
</script>
<script type="application/ecmascript" xlink:href="../../svg.min.js"/>
<svg id="graph" class="graph">
<g id="viewport">
<title>engine/subsystems/render/detail/emissive&#45;render&#45;system.hpp</title>
<!-- Node1 -->
<g id="Node000001" class="node">
<title>Node1</title>
<g id="a_Node000001"><a xlink:title=" ">
<polygon fill="#999999" stroke="#666666" points="1114.35,-573.75 984.35,-573.75 984.35,-532 1114.35,-532 1114.35,-573.75"/>
<text text-anchor="start" x="992.35" y="-560.25" font-family="Helvetica,sans-Serif" font-size="10.00">engine/subsystems/render</text>
<text text-anchor="start" x="992.35" y="-549" font-family="Helvetica,sans-Serif" font-size="10.00">/detail/emissive&#45;render</text>
<text text-anchor="middle" x="1049.35" y="-537.75" font-family="Helvetica,sans-Serif" font-size="10.00">&#45;system.hpp</text>
</a>
</g>
</g>
<!-- Node2 -->
<g id="Node000002" class="node">
<title>Node2</title>
<g id="a_Node000002"><a xlink:href="../../d1/dae/renderer_8hpp.html" target="_top" xlink:title=" ">
<polygon fill="white" stroke="#666666" points="895.72,-423.88 764.97,-423.88 764.97,-404.62 895.72,-404.62 895.72,-423.88"/>
<text text-anchor="middle" x="830.35" y="-410.38" font-family="Helvetica,sans-Serif" font-size="10.00">engine/render/renderer.hpp</text>
</a>
</g>
</g>
<!-- Node1&#45;&gt;Node2 -->
<g id="edge1_Node000001_Node000002" class="edge">
<title>Node1&#45;&gt;Node2</title>
<g id="a_edge1_Node000001_Node000002"><a xlink:title=" ">
<path fill="none" stroke="#63b8ff" d="M1007.52,-525.78C957.8,-494.76 877.47,-444.65 844.83,-424.28"/>
<polygon fill="#63b8ff" stroke="#63b8ff" points="1005.41,-528.59 1015.75,-530.91 1009.12,-522.65 1005.41,-528.59"/>
</a>
</g>
</g>
<!-- Node27 -->
<g id="Node000027" class="node">
<title>Node27</title>
<g id="a_Node000027"><a xlink:href="../../d8/dcb/emissive-render-system_8cpp.html" target="_top" xlink:title=" ">
<polygon fill="white" stroke="#666666" points="1114.35,-296.5 984.35,-296.5 984.35,-254.75 1114.35,-254.75 1114.35,-296.5"/>
<text text-anchor="start" x="992.35" y="-283" font-family="Helvetica,sans-Serif" font-size="10.00">engine/subsystems/render</text>
<text text-anchor="start" x="992.35" y="-271.75" font-family="Helvetica,sans-Serif" font-size="10.00">/detail/emissive&#45;render</text>
<text text-anchor="middle" x="1049.35" y="-260.5" font-family="Helvetica,sans-Serif" font-size="10.00">&#45;system.cpp</text>
</a>
</g>
</g>
<!-- Node1&#45;&gt;Node27 -->
<g id="edge42_Node000001_Node000027" class="edge">
<title>Node1&#45;&gt;Node27</title>
<g id="a_edge42_Node000001_Node000027"><a xlink:title=" ">
<path fill="none" stroke="#63b8ff" d="M1049.35,-520.46C1049.35,-463.44 1049.35,-344.45 1049.35,-296.89"/>
<polygon fill="#63b8ff" stroke="#63b8ff" points="1045.85,-520.12 1049.35,-530.12 1052.85,-520.12 1045.85,-520.12"/>
</a>
</g>
</g>
<!-- Node29 -->
<g id="Node000029" class="node">
<title>Node29</title>
<g id="a_Node000029"><a xlink:href="../../db/d67/model-system_8hpp.html" target="_top" xlink:title=" ">
<polygon fill="white" stroke="#666666" points="1367.35,-496 1237.35,-496 1237.35,-465.5 1367.35,-465.5 1367.35,-496"/>
<text text-anchor="start" x="1245.35" y="-482.5" font-family="Helvetica,sans-Serif" font-size="10.00">engine/subsystems/render</text>
<text text-anchor="middle" x="1302.35" y="-471.25" font-family="Helvetica,sans-Serif" font-size="10.00">/model&#45;system.hpp</text>
</a>
</g>
</g>
<!-- Node1&#45;&gt;Node29 -->
<g id="edge43_Node000001_Node000029" class="edge">
<title>Node1&#45;&gt;Node29</title>
<g id="a_edge43_Node000001_Node000029"><a xlink:title=" ">
<path fill="none" stroke="#63b8ff" d="M1125.87,-530.67C1165.81,-519.59 1213.67,-506.33 1249.47,-496.41"/>
<polygon fill="#63b8ff" stroke="#63b8ff" points="1124.99,-527.28 1116.29,-533.32 1126.86,-534.02 1124.99,-527.28"/>
</a>
</g>
</g>
<!-- Node3 -->
<g id="Node000003" class="node">
<title>Node3</title>
<g id="a_Node000003"><a xlink:href="../../d1/d47/controller_8cpp.html" target="_top" xlink:title=" ">
<polygon fill="white" stroke="#666666" points="642.47,-19.25 528.22,-19.25 528.22,0 642.47,0 642.47,-19.25"/>
<text text-anchor="middle" x="585.35" y="-5.75" font-family="Helvetica,sans-Serif" font-size="10.00">d3d_test/controller.cpp</text>
</a>
</g>
</g>
<!-- Node2&#45;&gt;Node3 -->
<g id="edge2_Node000002_Node000003" class="edge">
<title>Node2&#45;&gt;Node3</title>
<g id="a_edge2_Node000002_Node000003"><a xlink:title=" ">
<path fill="none" stroke="#63b8ff" d="M753.19,-413.56C577.22,-412.18 161.35,-396.26 161.35,-276.62 161.35,-276.62 161.35,-276.62 161.35,-208.12 161.35,-139.85 128.34,-103.79 176.35,-55.25 200.62,-30.72 421.31,-17.79 528.05,-12.93"/>
<polygon fill="#63b8ff" stroke="#63b8ff" points="753.14,-417.06 763.16,-413.62 753.19,-410.06 753.14,-417.06"/>
</a>
</g>
</g>
<!-- Node4 -->
<g id="Node000004" class="node">
<title>Node4</title>
<g id="a_Node000004"><a xlink:href="../../d5/d9b/scene_8hpp.html" target="_top" xlink:title=" ">
<polygon fill="white" stroke="#666666" points="838.1,-357.38 724.6,-357.38 724.6,-338.12 838.1,-338.12 838.1,-357.38"/>
<text text-anchor="middle" x="781.35" y="-343.88" font-family="Helvetica,sans-Serif" font-size="10.00">engine/core/scene.hpp</text>
</a>
</g>
</g>
<!-- Node2&#45;&gt;Node4 -->
<g id="edge3_Node000002_Node000004" class="edge">
<title>Node2&#45;&gt;Node4</title>
<g id="a_edge3_Node000002_Node000004"><a xlink:title=" ">
<path fill="none" stroke="#63b8ff" d="M816.76,-395.37C807.44,-383.1 795.47,-367.33 788.1,-357.64"/>
<polygon fill="#63b8ff" stroke="#63b8ff" points="813.78,-397.23 822.62,-403.08 819.36,-393 813.78,-397.23"/>
</a>
</g>
</g>
<!-- Node24 -->
<g id="Node000024" class="node">
<title>Node24</title>
<g id="a_Node000024"><a xlink:href="../../db/df9/deferred-hdr-render-pipeline_8hpp.html" target="_top" xlink:title=" ">
<polygon fill="white" stroke="#666666" points="133.72,-163.5 2.97,-163.5 2.97,-133 133.72,-133 133.72,-163.5"/>
<text text-anchor="start" x="10.97" y="-150" font-family="Helvetica,sans-Serif" font-size="10.00">engine/direct3d11/deferred</text>
<text text-anchor="middle" x="68.35" y="-138.75" font-family="Helvetica,sans-Serif" font-size="10.00">&#45;hdr&#45;render&#45;pipeline.hpp</text>
</a>
</g>
</g>
<!-- Node2&#45;&gt;Node24 -->
<g id="edge40_Node000002_Node000024" class="edge">
<title>Node2&#45;&gt;Node24</title>
<g id="a_edge40_Node000002_Node000024"><a xlink:title=" ">
<path fill="none" stroke="#63b8ff" d="M753.24,-412.22C584.72,-409.3 194.83,-398.73 147.35,-363 81.59,-313.52 70.54,-203.34 68.7,-163.76"/>
<polygon fill="#63b8ff" stroke="#63b8ff" points="753.17,-415.72 763.23,-412.38 753.29,-408.72 753.17,-415.72"/>
</a>
</g>
</g>
<!-- Node26 -->
<g id="Node000026" class="node">
<title>Node26</title>
<g id="a_Node000026"><a xlink:href="../../d6/d54/renderer_8cpp.html" target="_top" xlink:title=" ">
<polygon fill="white" stroke="#666666" points="966.72,-285.25 835.97,-285.25 835.97,-266 966.72,-266 966.72,-285.25"/>
<text text-anchor="middle" x="901.35" y="-271.75" font-family="Helvetica,sans-Serif" font-size="10.00">engine/render/renderer.cpp</text>
</a>
</g>
</g>
<!-- Node2&#45;&gt;Node26 -->
<g id="edge41_Node000002_Node000026" class="edge">
<title>Node2&#45;&gt;Node26</title>
<g id="a_edge41_Node000002_Node000026"><a xlink:title=" ">
<path fill="none" stroke="#63b8ff" d="M840.21,-394.27C855.77,-364.32 885.41,-307.29 896.76,-285.44"/>
<polygon fill="#63b8ff" stroke="#63b8ff" points="837.21,-392.46 835.7,-402.94 843.42,-395.68 837.21,-392.46"/>
</a>
</g>
</g>
<!-- Node5 -->
<g id="Node000005" class="node">
<title>Node5</title>
<g id="a_Node000005"><a xlink:href="../../de/d46/engine_8hpp.html" target="_top" xlink:title=" ">
<polygon fill="white" stroke="#666666" points="790.22,-157.88 674.47,-157.88 674.47,-138.62 790.22,-138.62 790.22,-157.88"/>
<text text-anchor="middle" x="732.35" y="-144.38" font-family="Helvetica,sans-Serif" font-size="10.00">engine/core/engine.hpp</text>
</a>
</g>
</g>
<!-- Node4&#45;&gt;Node5 -->
<g id="edge4_Node000004_Node000005" class="edge">
<title>Node4&#45;&gt;Node5</title>
<g id="a_edge4_Node000004_Node000005"><a xlink:title=" ">
<path fill="none" stroke="#63b8ff" d="M770.28,-327.9C765.33,-318.7 759.83,-307.31 756.35,-296.5 739.99,-245.71 734.42,-181.31 732.86,-158.1"/>
<polygon fill="#63b8ff" stroke="#63b8ff" points="767.18,-329.52 775.14,-336.52 773.28,-326.09 767.18,-329.52"/>
</a>
</g>
</g>
<!-- Node16 -->
<g id="Node000016" class="node">
<title>Node16</title>
<g id="a_Node000016"><a xlink:href="../../d8/d30/decal-render-system_8cpp.html" target="_top" xlink:title=" ">
<polygon fill="white" stroke="#666666" points="1740.85,-91.38 1589.85,-91.38 1589.85,-60.88 1740.85,-60.88 1740.85,-91.38"/>
<text text-anchor="start" x="1597.85" y="-77.88" font-family="Helvetica,sans-Serif" font-size="10.00">engine/subsystems/render</text>
<text text-anchor="middle" x="1665.35" y="-66.62" font-family="Helvetica,sans-Serif" font-size="10.00">/detail/decal&#45;render&#45;system.cpp</text>
</a>
</g>
</g>
<!-- Node4&#45;&gt;Node16 -->
<g id="edge35_Node000004_Node000016" class="edge">
<title>Node4&#45;&gt;Node16</title>
<g id="a_edge35_Node000004_Node000016"><a xlink:title=" ">
<path fill="none" stroke="#63b8ff" d="M785.84,-326.84C791.7,-305.63 804.06,-272.71 827.35,-254.75 895.04,-202.55 1496.89,-115.5 1580.35,-97 1587.75,-95.36 1595.5,-93.6 1603.18,-91.84"/>
<polygon fill="#63b8ff" stroke="#63b8ff" points="782.51,-325.75 783.48,-336.3 789.3,-327.44 782.51,-325.75"/>
</a>
</g>
</g>
<!-- Node17 -->
<g id="Node000017" class="node">
<title>Node17</title>
<g id="a_Node000017"><a xlink:href="../../d1/d58/dissolution-render-system_8cpp.html" target="_top" xlink:title=" ">
<polygon fill="white" stroke="#666666" points="1423.35,-97 1293.35,-97 1293.35,-55.25 1423.35,-55.25 1423.35,-97"/>
<text text-anchor="start" x="1301.35" y="-83.5" font-family="Helvetica,sans-Serif" font-size="10.00">engine/subsystems/render</text>
<text text-anchor="start" x="1301.35" y="-72.25" font-family="Helvetica,sans-Serif" font-size="10.00">/detail/dissolution&#45;render</text>
<text text-anchor="middle" x="1358.35" y="-61" font-family="Helvetica,sans-Serif" font-size="10.00">&#45;system.cpp</text>
</a>
</g>
</g>
<!-- Node4&#45;&gt;Node17 -->
<g id="edge36_Node000004_Node000017" class="edge">
<title>Node4&#45;&gt;Node17</title>
<g id="a_edge36_Node000004_Node000017"><a xlink:title=" ">
<path fill="none" stroke="#63b8ff" d="M778.44,-326.22C776.75,-305.74 777.59,-274.53 794.35,-254.75 810.99,-235.11 1147.94,-137.16 1292.93,-95.71"/>
<polygon fill="#63b8ff" stroke="#63b8ff" points="774.97,-326.61 779.57,-336.15 781.92,-325.82 774.97,-326.61"/>
</a>
</g>
</g>
<!-- Node21 -->
<g id="Node000021" class="node">
<title>Node21</title>
<g id="a_Node000021"><a xlink:href="../../d3/dfe/particle-render-system_8cpp.html" target="_top" xlink:title=" ">
<polygon fill="white" stroke="#666666" points="463.35,-97 333.35,-97 333.35,-55.25 463.35,-55.25 463.35,-97"/>
<text text-anchor="start" x="341.35" y="-83.5" font-family="Helvetica,sans-Serif" font-size="10.00">engine/subsystems/render</text>
<text text-anchor="start" x="341.35" y="-72.25" font-family="Helvetica,sans-Serif" font-size="10.00">/detail/particle&#45;render</text>
<text text-anchor="middle" x="398.35" y="-61" font-family="Helvetica,sans-Serif" font-size="10.00">&#45;system.cpp</text>
</a>
</g>
</g>
<!-- Node4&#45;&gt;Node21 -->
<g id="edge39_Node000004_Node000021" class="edge">
<title>Node4&#45;&gt;Node21</title>
<g id="a_edge39_Node000004_Node000021"><a xlink:title=" ">
<path fill="none" stroke="#63b8ff" d="M712.88,-344.18C631.25,-339.73 501.33,-327.81 465.35,-296.5 405.56,-244.48 398.24,-140.78 397.94,-97.17"/>
<polygon fill="#63b8ff" stroke="#63b8ff" points="712.63,-347.67 722.79,-344.69 712.99,-340.68 712.63,-347.67"/>
</a>
</g>
</g>
<!-- Node22 -->
<g id="Node000022" class="node">
<title>Node22</title>
<g id="a_Node000022"><a xlink:href="../../d9/d06/render-pipeline_8hpp.html" target="_top" xlink:title=" ">
<polygon fill="white" stroke="#666666" points="574.35,-290.88 474.35,-290.88 474.35,-260.38 574.35,-260.38 574.35,-290.88"/>
<text text-anchor="start" x="482.35" y="-277.38" font-family="Helvetica,sans-Serif" font-size="10.00">engine/core/layers</text>
<text text-anchor="middle" x="524.35" y="-266.12" font-family="Helvetica,sans-Serif" font-size="10.00">/render&#45;pipeline.hpp</text>
</a>
</g>
</g>
<!-- Node4&#45;&gt;Node22 -->
<g id="edge26_Node000004_Node000022" class="edge">
<title>Node4&#45;&gt;Node22</title>
<g id="a_edge26_Node000004_Node000022"><a xlink:title=" ">
<path fill="none" stroke="#63b8ff" d="M730.93,-335.08C690.74,-325.51 633.15,-311.18 583.35,-296.5 577.96,-294.91 572.32,-293.15 566.76,-291.34"/>
<polygon fill="#63b8ff" stroke="#63b8ff" points="730.03,-338.46 740.56,-337.36 731.64,-331.65 730.03,-338.46"/>
</a>
</g>
</g>
<!-- Node25 -->
<g id="Node000025" class="node">
<title>Node25</title>
<g id="a_Node000025"><a xlink:href="../../d4/d7c/deferred-resolve_8cpp.html" target="_top" xlink:title=" ">
<polygon fill="white" stroke="#666666" points="704.72,-290.88 591.97,-290.88 591.97,-260.38 704.72,-260.38 704.72,-290.88"/>
<text text-anchor="start" x="599.97" y="-277.38" font-family="Helvetica,sans-Serif" font-size="10.00">engine/render/deferred</text>
<text text-anchor="middle" x="648.35" y="-266.12" font-family="Helvetica,sans-Serif" font-size="10.00">&#45;resolve.cpp</text>
</a>
</g>
</g>
<!-- Node4&#45;&gt;Node25 -->
<g id="edge33_Node000004_Node000025" class="edge">
<title>Node4&#45;&gt;Node25</title>
<g id="a_edge33_Node000004_Node000025"><a xlink:title=" ">
<path fill="none" stroke="#63b8ff" d="M754.24,-332.46C731.53,-320.48 699.24,-303.46 676.29,-291.36"/>
<polygon fill="#63b8ff" stroke="#63b8ff" points="752.42,-335.45 762.89,-337.02 755.68,-329.26 752.42,-335.45"/>
</a>
</g>
</g>
<!-- Node4&#45;&gt;Node26 -->
<g id="edge34_Node000004_Node000026" class="edge">
<title>Node4&#45;&gt;Node26</title>
<g id="a_edge34_Node000004_Node000026"><a xlink:title=" ">
<path fill="none" stroke="#63b8ff" d="M806.35,-332.14C830.33,-318.13 865.77,-297.42 885.89,-285.66"/>
<polygon fill="#63b8ff" stroke="#63b8ff" points="804.72,-329.04 797.85,-337.1 808.25,-335.08 804.72,-329.04"/>
</a>
</g>
</g>
<!-- Node4&#45;&gt;Node27 -->
<g id="edge37_Node000004_Node000027" class="edge">
<title>Node4&#45;&gt;Node27</title>
<g id="a_edge37_Node000004_Node000027"><a xlink:title=" ">
<path fill="none" stroke="#63b8ff" d="M827.85,-334.83C867.17,-324.72 924.98,-309.79 975.35,-296.5 978.18,-295.75 981.07,-294.99 983.99,-294.21"/>
<polygon fill="#63b8ff" stroke="#63b8ff" points="827.05,-331.42 818.24,-337.3 828.79,-338.2 827.05,-331.42"/>
</a>
</g>
</g>
<!-- Node28 -->
<g id="Node000028" class="node">
<title>Node28</title>
<g id="a_Node000028"><a xlink:href="../../d1/d62/opaque-render-system_8cpp.html" target="_top" xlink:title=" ">
<polygon fill="white" stroke="#666666" points="1291.97,-290.88 1132.72,-290.88 1132.72,-260.38 1291.97,-260.38 1291.97,-290.88"/>
<text text-anchor="start" x="1140.72" y="-277.38" font-family="Helvetica,sans-Serif" font-size="10.00">engine/subsystems/render</text>
<text text-anchor="middle" x="1212.35" y="-266.12" font-family="Helvetica,sans-Serif" font-size="10.00">/detail/opaque&#45;render&#45;system.cpp</text>
</a>
</g>
</g>
<!-- Node4&#45;&gt;Node28 -->
<g id="edge38_Node000004_Node000028" class="edge">
<title>Node4&#45;&gt;Node28</title>
<g id="a_edge38_Node000004_Node000028"><a xlink:title=" ">
<path fill="none" stroke="#63b8ff" d="M849.61,-338.23C918.82,-329.24 1028.88,-313.96 1123.35,-296.5 1131.75,-294.95 1140.57,-293.16 1149.26,-291.32"/>
<polygon fill="#63b8ff" stroke="#63b8ff" points="849.41,-334.73 839.94,-339.48 850.31,-341.67 849.41,-334.73"/>
</a>
</g>
</g>
<!-- Node6 -->
<g id="Node000006" class="node">
<title>Node6</title>
<g id="a_Node000006"><a xlink:href="../../d0/d86/camera-movement_8hpp.html" target="_top" xlink:title=" ">
<polygon fill="white" stroke="#666666" points="1275.1,-85.75 1119.6,-85.75 1119.6,-66.5 1275.1,-66.5 1275.1,-85.75"/>
<text text-anchor="middle" x="1197.35" y="-72.25" font-family="Helvetica,sans-Serif" font-size="10.00">d3d_test/camera&#45;movement.hpp</text>
</a>
</g>
</g>
<!-- Node5&#45;&gt;Node6 -->
<g id="edge5_Node000005_Node000006" class="edge">
<title>Node5&#45;&gt;Node6</title>
<g id="a_edge5_Node000005_Node000006"><a xlink:title=" ">
<path fill="none" stroke="#63b8ff" d="M786.18,-136.12C792.29,-135 798.45,-133.93 804.35,-133 939.62,-111.69 975.4,-120.28 1110.35,-97 1127.29,-94.08 1145.9,-89.95 1161.54,-86.22"/>
<polygon fill="#63b8ff" stroke="#63b8ff" points="785.93,-132.6 776.76,-137.9 787.23,-139.48 785.93,-132.6"/>
</a>
</g>
</g>
<!-- Node8 -->
<g id="Node000008" class="node">
<title>Node8</title>
<g id="a_Node000008"><a xlink:href="../../dc/dfb/controller_8hpp.html" target="_top" xlink:title=" ">
<polygon fill="white" stroke="#666666" points="129.47,-85.75 15.22,-85.75 15.22,-66.5 129.47,-66.5 129.47,-85.75"/>
<text text-anchor="middle" x="72.35" y="-72.25" font-family="Helvetica,sans-Serif" font-size="10.00">d3d_test/controller.hpp</text>
</a>
</g>
</g>
<!-- Node5&#45;&gt;Node8 -->
<g id="edge8_Node000005_Node000008" class="edge">
<title>Node5&#45;&gt;Node8</title>
<g id="a_edge8_Node000005_Node000008"><a xlink:title=" ">
<path fill="none" stroke="#63b8ff" d="M662.66,-143.17C557.1,-136.48 350.5,-121.45 176.35,-97 156.05,-94.15 133.7,-90.01 114.95,-86.25"/>
<polygon fill="#63b8ff" stroke="#63b8ff" points="662.39,-146.66 672.59,-143.79 662.83,-139.67 662.39,-146.66"/>
</a>
</g>
</g>
<!-- Node9 -->
<g id="Node000009" class="node">
<title>Node9</title>
<g id="a_Node000009"><a xlink:href="../../d9/d0f/main_8cc.html" target="_top" xlink:title=" ">
<polygon fill="white" stroke="#666666" points="117.47,-19.25 27.22,-19.25 27.22,0 117.47,0 117.47,-19.25"/>
<text text-anchor="middle" x="72.35" y="-5.75" font-family="Helvetica,sans-Serif" font-size="10.00">d3d_test/main.cc</text>
</a>
</g>
</g>
<!-- Node5&#45;&gt;Node9 -->
<g id="edge11_Node000005_Node000009" class="edge">
<title>Node5&#45;&gt;Node9</title>
<g id="a_edge11_Node000005_Node000009"><a xlink:title=" ">
<path fill="none" stroke="#63b8ff" d="M662.79,-142.37C616.92,-136.62 556.93,-124.14 510.35,-97 488.67,-84.37 494.7,-66.65 472.35,-55.25 411.35,-24.13 209.28,-14.5 117.91,-11.7"/>
<polygon fill="#63b8ff" stroke="#63b8ff" points="662.29,-145.83 672.63,-143.51 663.1,-138.88 662.29,-145.83"/>
</a>
</g>
</g>
<!-- Node10 -->
<g id="Node000010" class="node">
<title>Node10</title>
<g id="a_Node000010"><a xlink:href="../../da/df5/object-editor_8hpp.html" target="_top" xlink:title=" ">
<polygon fill="white" stroke="#666666" points="797.22,-85.75 669.47,-85.75 669.47,-66.5 797.22,-66.5 797.22,-85.75"/>
<text text-anchor="middle" x="733.35" y="-72.25" font-family="Helvetica,sans-Serif" font-size="10.00">d3d_test/object&#45;editor.hpp</text>
</a>
</g>
</g>
<!-- Node5&#45;&gt;Node10 -->
<g id="edge12_Node000005_Node000010" class="edge">
<title>Node5&#45;&gt;Node10</title>
<g id="a_edge12_Node000005_Node000010"><a xlink:title=" ">
<path fill="none" stroke="#63b8ff" d="M732.64,-126.87C732.83,-113.39 733.07,-96.39 733.22,-86.16"/>
<polygon fill="#63b8ff" stroke="#63b8ff" points="729.14,-126.81 732.5,-136.86 736.14,-126.91 729.14,-126.81"/>
</a>
</g>
</g>
<!-- Node13 -->
<g id="Node000013" class="node">
<title>Node13</title>
<g id="a_Node000013"><a xlink:href="../../d9/d55/scene-viewer_8hpp.html" target="_top" xlink:title=" ">
<polygon fill="white" stroke="#666666" points="651.47,-85.75 519.22,-85.75 519.22,-66.5 651.47,-66.5 651.47,-85.75"/>
<text text-anchor="middle" x="585.35" y="-72.25" font-family="Helvetica,sans-Serif" font-size="10.00">d3d_test/scene&#45;viewer.hpp</text>
</a>
</g>
</g>
<!-- Node5&#45;&gt;Node13 -->
<g id="edge16_Node000005_Node000013" class="edge">
<title>Node5&#45;&gt;Node13</title>
<g id="a_edge16_Node000005_Node000013"><a xlink:title=" ">
<path fill="none" stroke="#63b8ff" d="M703.35,-133.42C673.94,-119.39 629.29,-98.09 604.19,-86.11"/>
<polygon fill="#63b8ff" stroke="#63b8ff" points="701.53,-136.43 712.06,-137.57 704.55,-130.11 701.53,-136.43"/>
</a>
</g>
</g>
<!-- Node14 -->
<g id="Node000014" class="node">
<title>Node14</title>
<g id="a_Node000014"><a xlink:href="../../da/d5c/engine_8cpp.html" target="_top" xlink:title=" ">
<polygon fill="white" stroke="#666666" points="931.22,-85.75 815.47,-85.75 815.47,-66.5 931.22,-66.5 931.22,-85.75"/>
<text text-anchor="middle" x="873.35" y="-72.25" font-family="Helvetica,sans-Serif" font-size="10.00">engine/core/engine.cpp</text>
</a>
</g>
</g>
<!-- Node5&#45;&gt;Node14 -->
<g id="edge18_Node000005_Node000014" class="edge">
<title>Node5&#45;&gt;Node14</title>
<g id="a_edge18_Node000005_Node000014"><a xlink:title=" ">
<path fill="none" stroke="#63b8ff" d="M760.53,-133.23C788.74,-119.2 831.3,-98.04 855.27,-86.11"/>
<polygon fill="#63b8ff" stroke="#63b8ff" points="759.24,-129.96 751.85,-137.55 762.36,-136.23 759.24,-129.96"/>
</a>
</g>
</g>
<!-- Node15 -->
<g id="Node000015" class="node">
<title>Node15</title>
<g id="a_Node000015"><a xlink:href="../../d1/da2/deferred-hdr-render-pipeline_8cpp.html" target="_top" xlink:title=" ">
<polygon fill="white" stroke="#666666" points="315.72,-91.38 184.97,-91.38 184.97,-60.88 315.72,-60.88 315.72,-91.38"/>
<text text-anchor="start" x="192.97" y="-77.88" font-family="Helvetica,sans-Serif" font-size="10.00">engine/direct3d11/deferred</text>
<text text-anchor="middle" x="250.35" y="-66.62" font-family="Helvetica,sans-Serif" font-size="10.00">&#45;hdr&#45;render&#45;pipeline.cpp</text>
</a>
</g>
</g>
<!-- Node5&#45;&gt;Node15 -->
<g id="edge19_Node000005_Node000015" class="edge">
<title>Node5&#45;&gt;Node15</title>
<g id="a_edge19_Node000005_Node000015"><a xlink:title=" ">
<path fill="none" stroke="#63b8ff" d="M663.06,-141.69C581.52,-134.47 442.27,-119.98 324.35,-97 316.9,-95.55 309.11,-93.76 301.48,-91.85"/>
<polygon fill="#63b8ff" stroke="#63b8ff" points="662.4,-145.15 672.67,-142.53 663.01,-138.17 662.4,-145.15"/>
</a>
</g>
</g>
<!-- Node5&#45;&gt;Node16 -->
<g id="edge20_Node000005_Node000016" class="edge">
<title>Node5&#45;&gt;Node16</title>
<g id="a_edge20_Node000005_Node000016"><a xlink:title=" ">
<path fill="none" stroke="#63b8ff" d="M801.89,-147.13C947.23,-146 1293.49,-138.72 1580.35,-97 1589.5,-95.67 1599.11,-93.84 1608.45,-91.84"/>
<polygon fill="#63b8ff" stroke="#63b8ff" points="802.02,-143.63 792.04,-147.2 802.07,-150.63 802.02,-143.63"/>
</a>
</g>
</g>
<!-- Node5&#45;&gt;Node17 -->
<g id="edge21_Node000005_Node000017" class="edge">
<title>Node5&#45;&gt;Node17</title>
<g id="a_edge21_Node000005_Node000017"><a xlink:title=" ">
<path fill="none" stroke="#63b8ff" d="M784.68,-136.13C791.28,-134.95 797.96,-133.87 804.35,-133 1016.33,-104.18 1073.45,-132.9 1284.35,-97 1287.23,-96.51 1290.17,-95.96 1293.12,-95.35"/>
<polygon fill="#63b8ff" stroke="#63b8ff" points="784.38,-132.62 775.19,-137.9 785.66,-139.5 784.38,-132.62"/>
</a>
</g>
</g>
<!-- Node18 -->
<g id="Node000018" class="node">
<title>Node18</title>
<g id="a_Node000018"><a xlink:href="../../d2/d11/emissive-particle-render-system_8cpp.html" target="_top" xlink:title=" ">
<polygon fill="white" stroke="#666666" points="1571.35,-97 1441.35,-97 1441.35,-55.25 1571.35,-55.25 1571.35,-97"/>
<text text-anchor="start" x="1449.35" y="-83.5" font-family="Helvetica,sans-Serif" font-size="10.00">engine/subsystems/render</text>
<text text-anchor="start" x="1449.35" y="-72.25" font-family="Helvetica,sans-Serif" font-size="10.00">/detail/emissive&#45;particle</text>
<text text-anchor="middle" x="1506.35" y="-61" font-family="Helvetica,sans-Serif" font-size="10.00">&#45;render&#45;system.cpp</text>
</a>
</g>
</g>
<!-- Node5&#45;&gt;Node18 -->
<g id="edge22_Node000005_Node000018" class="edge">
<title>Node5&#45;&gt;Node18</title>
<g id="a_edge22_Node000005_Node000018"><a xlink:title=" ">
<path fill="none" stroke="#63b8ff" d="M801.8,-146.64C928.16,-144.55 1203.7,-135.55 1432.35,-97 1435.23,-96.51 1438.17,-95.96 1441.13,-95.37"/>
<polygon fill="#63b8ff" stroke="#63b8ff" points="801.87,-143.14 791.92,-146.79 801.98,-150.13 801.87,-143.14"/>
</a>
</g>
</g>
<!-- Node19 -->
<g id="Node000019" class="node">
<title>Node19</title>
<g id="a_Node000019"><a xlink:href="../../df/d58/grass-render-system_8cpp.html" target="_top" xlink:title=" ">
<polygon fill="white" stroke="#666666" points="1101.22,-91.38 949.47,-91.38 949.47,-60.88 1101.22,-60.88 1101.22,-91.38"/>
<text text-anchor="start" x="957.47" y="-77.88" font-family="Helvetica,sans-Serif" font-size="10.00">engine/subsystems/render</text>
<text text-anchor="middle" x="1025.35" y="-66.62" font-family="Helvetica,sans-Serif" font-size="10.00">/detail/grass&#45;render&#45;system.cpp</text>
</a>
</g>
</g>
<!-- Node5&#45;&gt;Node19 -->
<g id="edge23_Node000005_Node000019" class="edge">
<title>Node5&#45;&gt;Node19</title>
<g id="a_edge23_Node000005_Node000019"><a xlink:title=" ">
<path fill="none" stroke="#63b8ff" d="M781.55,-135.47C831.73,-123.46 909.71,-104.8 963.92,-91.83"/>
<polygon fill="#63b8ff" stroke="#63b8ff" points="780.73,-132.07 771.82,-137.8 782.36,-138.88 780.73,-132.07"/>
</a>
</g>
</g>
<!-- Node20 -->
<g id="Node000020" class="node">
<title>Node20</title>
<g id="a_Node000020"><a xlink:href="../../d8/d9c/light-render-system_8cpp.html" target="_top" xlink:title=" ">
<polygon fill="white" stroke="#666666" points="1904.22,-91.38 1758.47,-91.38 1758.47,-60.88 1904.22,-60.88 1904.22,-91.38"/>
<text text-anchor="start" x="1766.47" y="-77.88" font-family="Helvetica,sans-Serif" font-size="10.00">engine/subsystems/render</text>
<text text-anchor="middle" x="1831.35" y="-66.62" font-family="Helvetica,sans-Serif" font-size="10.00">/detail/light&#45;render&#45;system.cpp</text>
</a>
</g>
</g>
<!-- Node5&#45;&gt;Node20 -->
<g id="edge24_Node000005_Node000020" class="edge">
<title>Node5&#45;&gt;Node20</title>
<g id="a_edge24_Node000005_Node000020"><a xlink:title=" ">
<path fill="none" stroke="#63b8ff" d="M801.84,-145.55C1000.22,-140.43 1566.65,-123.82 1750.35,-97 1759.23,-95.7 1768.56,-93.87 1777.6,-91.83"/>
<polygon fill="#63b8ff" stroke="#63b8ff" points="801.85,-142.05 791.94,-145.81 802.03,-149.05 801.85,-142.05"/>
</a>
</g>
</g>
<!-- Node5&#45;&gt;Node21 -->
<g id="edge25_Node000005_Node000021" class="edge">
<title>Node5&#45;&gt;Node21</title>
<g id="a_edge25_Node000005_Node000021"><a xlink:title=" ">
<path fill="none" stroke="#63b8ff" d="M671.03,-136.09C619.26,-126.45 543.25,-111.77 477.35,-97 472.93,-96.01 468.38,-94.96 463.81,-93.87"/>
<polygon fill="#63b8ff" stroke="#63b8ff" points="670.39,-139.53 680.86,-137.91 671.67,-132.65 670.39,-139.53"/>
</a>
</g>
</g>
<!-- Node6&#45;&gt;Node3 -->
<g id="edge7_Node000006_Node000003" class="edge">
<title>Node6&#45;&gt;Node3</title>
<g id="a_edge7_Node000006_Node000003"><a xlink:title=" ">
<path fill="none" stroke="#63b8ff" d="M1152.01,-63.46C1138.67,-60.38 1123.99,-57.34 1110.35,-55.25 910.27,-24.63 857.75,-39.46 656.35,-19.25 651.9,-18.8 647.3,-18.31 642.68,-17.8"/>
<polygon fill="#63b8ff" stroke="#63b8ff" points="1150.84,-66.78 1161.38,-65.68 1152.46,-59.97 1150.84,-66.78"/>
</a>
</g>
</g>
<!-- Node7 -->
<g id="Node000007" class="node">
<title>Node7</title>
<g id="a_Node000007"><a xlink:href="../../d5/dbb/camera-movement_8cpp.html" target="_top" xlink:title=" ">
<polygon fill="white" stroke="#666666" points="1275.1,-19.25 1119.6,-19.25 1119.6,0 1275.1,0 1275.1,-19.25"/>
<text text-anchor="middle" x="1197.35" y="-5.75" font-family="Helvetica,sans-Serif" font-size="10.00">d3d_test/camera&#45;movement.cpp</text>
</a>
</g>
</g>
<!-- Node6&#45;&gt;Node7 -->
<g id="edge6_Node000006_Node000007" class="edge">
<title>Node6&#45;&gt;Node7</title>
<g id="a_edge6_Node000006_Node000007"><a xlink:title=" ">
<path fill="none" stroke="#63b8ff" d="M1197.35,-54.65C1197.35,-42.82 1197.35,-28.54 1197.35,-19.52"/>
<polygon fill="#63b8ff" stroke="#63b8ff" points="1193.85,-54.64 1197.35,-64.64 1200.85,-54.64 1193.85,-54.64"/>
</a>
</g>
</g>
<!-- Node8&#45;&gt;Node3 -->
<g id="edge9_Node000008_Node000003" class="edge">
<title>Node8&#45;&gt;Node3</title>
<g id="a_edge9_Node000008_Node000003"><a xlink:title=" ">
<path fill="none" stroke="#63b8ff" d="M111.23,-62.94C121.58,-60.05 132.82,-57.24 143.35,-55.25 279.95,-29.43 443.31,-17.85 528.03,-13.25"/>
<polygon fill="#63b8ff" stroke="#63b8ff" points="110.5,-59.51 101.87,-65.64 112.45,-66.23 110.5,-59.51"/>
</a>
</g>
</g>
<!-- Node8&#45;&gt;Node9 -->
<g id="edge10_Node000008_Node000009" class="edge">
<title>Node8&#45;&gt;Node9</title>
<g id="a_edge10_Node000008_Node000009"><a xlink:title=" ">
<path fill="none" stroke="#63b8ff" d="M72.35,-54.65C72.35,-42.82 72.35,-28.54 72.35,-19.52"/>
<polygon fill="#63b8ff" stroke="#63b8ff" points="68.85,-54.64 72.35,-64.64 75.85,-54.64 68.85,-54.64"/>
</a>
</g>
</g>
<!-- Node10&#45;&gt;Node3 -->
<g id="edge13_Node000010_Node000003" class="edge">
<title>Node10&#45;&gt;Node3</title>
<g id="a_edge13_Node000010_Node000003"><a xlink:title=" ">
<path fill="none" stroke="#63b8ff" d="M702.1,-61.51C673.21,-48.92 631.09,-30.56 606.13,-19.68"/>
<polygon fill="#63b8ff" stroke="#63b8ff" points="700.5,-64.63 711.07,-65.42 703.3,-58.21 700.5,-64.63"/>
</a>
</g>
</g>
<!-- Node11 -->
<g id="Node000011" class="node">
<title>Node11</title>
<g id="a_Node000011"><a xlink:href="../../d4/d94/object-editor_8cpp.html" target="_top" xlink:title=" ">
<polygon fill="white" stroke="#666666" points="793.22,-19.25 665.47,-19.25 665.47,0 793.22,0 793.22,-19.25"/>
<text text-anchor="middle" x="729.35" y="-5.75" font-family="Helvetica,sans-Serif" font-size="10.00">d3d_test/object&#45;editor.cpp</text>
</a>
</g>
</g>
<!-- Node10&#45;&gt;Node11 -->
<g id="edge14_Node000010_Node000011" class="edge">
<title>Node10&#45;&gt;Node11</title>
<g id="a_edge14_Node000010_Node000011"><a xlink:title=" ">
<path fill="none" stroke="#63b8ff" d="M732.1,-55.02C731.36,-43.12 730.46,-28.63 729.9,-19.52"/>
<polygon fill="#63b8ff" stroke="#63b8ff" points="728.59,-54.88 732.7,-64.65 735.57,-54.45 728.59,-54.88"/>
</a>
</g>
</g>
<!-- Node12 -->
<g id="Node000012" class="node">
<title>Node12</title>
<g id="a_Node000012"><a xlink:href="../../d0/d38/scene-viewer_8cpp.html" target="_top" xlink:title=" ">
<polygon fill="white" stroke="#666666" points="943.47,-19.25 811.22,-19.25 811.22,0 943.47,0 943.47,-19.25"/>
<text text-anchor="middle" x="877.35" y="-5.75" font-family="Helvetica,sans-Serif" font-size="10.00">d3d_test/scene&#45;viewer.cpp</text>
</a>
</g>
</g>
<!-- Node10&#45;&gt;Node12 -->
<g id="edge15_Node000010_Node000012" class="edge">
<title>Node10&#45;&gt;Node12</title>
<g id="a_edge15_Node000010_Node000012"><a xlink:title=" ">
<path fill="none" stroke="#63b8ff" d="M764.13,-61.34C792.22,-48.75 832.94,-30.51 857.12,-19.68"/>
<polygon fill="#63b8ff" stroke="#63b8ff" points="762.75,-58.12 755.05,-65.4 765.61,-64.51 762.75,-58.12"/>
</a>
</g>
</g>
<!-- Node13&#45;&gt;Node3 -->
<g id="edge17_Node000013_Node000003" class="edge">
<title>Node13&#45;&gt;Node3</title>
<g id="a_edge17_Node000013_Node000003"><a xlink:title=" ">
<path fill="none" stroke="#63b8ff" d="M585.35,-54.65C585.35,-42.82 585.35,-28.54 585.35,-19.52"/>
<polygon fill="#63b8ff" stroke="#63b8ff" points="581.85,-54.64 585.35,-64.64 588.85,-54.64 581.85,-54.64"/>
</a>
</g>
</g>
<!-- Node23 -->
<g id="Node000023" class="node">
<title>Node23</title>
<g id="a_Node000023"><a xlink:href="../../d4/d87/layers_8hpp.html" target="_top" xlink:title=" ">
<polygon fill="white" stroke="#666666" points="642.72,-218.75 529.97,-218.75 529.97,-199.5 642.72,-199.5 642.72,-218.75"/>
<text text-anchor="middle" x="586.35" y="-205.25" font-family="Helvetica,sans-Serif" font-size="10.00">engine/core/layers.hpp</text>
</a>
</g>
</g>
<!-- Node22&#45;&gt;Node23 -->
<g id="edge27_Node000022_Node000023" class="edge">
<title>Node22&#45;&gt;Node23</title>
<g id="a_edge27_Node000022_Node000023"><a xlink:title=" ">
<path fill="none" stroke="#63b8ff" d="M546.34,-251.75C557.24,-240.4 569.78,-227.36 577.87,-218.95"/>
<polygon fill="#63b8ff" stroke="#63b8ff" points="543.87,-249.26 539.46,-258.9 548.92,-254.11 543.87,-249.26"/>
</a>
</g>
</g>
<!-- Node22&#45;&gt;Node24 -->
<g id="edge29_Node000022_Node000024" class="edge">
<title>Node22&#45;&gt;Node24</title>
<g id="a_edge29_Node000022_Node000024"><a xlink:title=" ">
<path fill="none" stroke="#63b8ff" d="M463.41,-257.87C373.56,-233.17 206.99,-187.37 121.7,-163.92"/>
<polygon fill="#63b8ff" stroke="#63b8ff" points="462.21,-261.17 472.78,-260.45 464.07,-254.42 462.21,-261.17"/>
</a>
</g>
</g>
<!-- Node23&#45;&gt;Node5 -->
<g id="edge28_Node000023_Node000005" class="edge">
<title>Node23&#45;&gt;Node5</title>
<g id="a_edge28_Node000023_Node000005"><a xlink:title=" ">
<path fill="none" stroke="#63b8ff" d="M619.23,-194.87C646.95,-183.69 685.86,-167.99 710.07,-158.23"/>
<polygon fill="#63b8ff" stroke="#63b8ff" points="618.21,-191.5 610.24,-198.49 620.83,-197.99 618.21,-191.5"/>
</a>
</g>
</g>
<!-- Node24&#45;&gt;Node8 -->
<g id="edge30_Node000024_Node000008" class="edge">
<title>Node24&#45;&gt;Node8</title>
<g id="a_edge30_Node000024_Node000008"><a xlink:title=" ">
<path fill="none" stroke="#63b8ff" d="M69.82,-121.48C70.53,-108.98 71.34,-94.77 71.85,-85.88"/>
<polygon fill="#63b8ff" stroke="#63b8ff" points="66.34,-121.03 69.26,-131.21 73.33,-121.42 66.34,-121.03"/>
</a>
</g>
</g>
<!-- Node24&#45;&gt;Node9 -->
<g id="edge31_Node000024_Node000009" class="edge">
<title>Node24&#45;&gt;Node9</title>
<g id="a_edge31_Node000024_Node000009"><a xlink:title=" ">
<path fill="none" stroke="#63b8ff" d="M31.58,-126.13C21.52,-118.37 11.87,-108.59 6.35,-97 -1.64,-80.25 -2.35,-71.64 6.35,-55.25 15.23,-38.51 33.51,-26.91 48.58,-19.74"/>
<polygon fill="#63b8ff" stroke="#63b8ff" points="29.41,-128.89 39.59,-131.82 33.46,-123.18 29.41,-128.89"/>
</a>
</g>
</g>
<!-- Node24&#45;&gt;Node15 -->
<g id="edge32_Node000024_Node000015" class="edge">
<title>Node24&#45;&gt;Node15</title>
<g id="a_edge32_Node000024_Node000015"><a xlink:title=" ">
<path fill="none" stroke="#63b8ff" d="M117.11,-128.46C146.96,-116.96 184.59,-102.46 212.24,-91.81"/>
<polygon fill="#63b8ff" stroke="#63b8ff" points="115.99,-125.14 107.91,-132.01 118.5,-131.68 115.99,-125.14"/>
</a>
</g>
</g>
<!-- Node29&#45;&gt;Node2 -->
<g id="edge44_Node000029_Node000002" class="edge">
<title>Node29&#45;&gt;Node2</title>
<g id="a_edge44_Node000029_Node000002"><a xlink:title=" ">
<path fill="none" stroke="#63b8ff" d="M1226.08,-469.33C1134.51,-456.82 982.49,-436.04 895.95,-424.21"/>
<polygon fill="#63b8ff" stroke="#63b8ff" points="1225.33,-472.76 1235.71,-470.64 1226.28,-465.82 1225.33,-472.76"/>
</a>
</g>
</g>
<!-- Node29&#45;&gt;Node16 -->
<g id="edge46_Node000029_Node000016" class="edge">
<title>Node29&#45;&gt;Node16</title>
<g id="a_edge46_Node000029_Node000016"><a xlink:title=" ">
<path fill="none" stroke="#63b8ff" d="M1379.23,-476.6C1464.15,-471.67 1593.99,-459.37 1632.35,-429.5 1663.07,-405.57 1666.35,-387.69 1666.35,-348.75 1666.35,-348.75 1666.35,-348.75 1666.35,-208.12 1666.35,-165.82 1665.82,-115.84 1665.53,-91.66"/>
<polygon fill="#63b8ff" stroke="#63b8ff" points="1379.12,-473.1 1369.33,-477.15 1379.51,-480.09 1379.12,-473.1"/>
</a>
</g>
</g>
<!-- Node29&#45;&gt;Node17 -->
<g id="edge47_Node000029_Node000017" class="edge">
<title>Node29&#45;&gt;Node17</title>
<g id="a_edge47_Node000029_Node000017"><a xlink:title=" ">
<path fill="none" stroke="#63b8ff" d="M1306.83,-453.95C1310.01,-437.87 1314.86,-416.91 1321.35,-399 1327.44,-382.18 1333.38,-379.86 1339.35,-363 1352.46,-325.94 1358.35,-315.93 1358.35,-276.62 1358.35,-276.62 1358.35,-276.62 1358.35,-208.12 1358.35,-168.78 1358.35,-122.79 1358.35,-97.1"/>
<polygon fill="#63b8ff" stroke="#63b8ff" points="1303.41,-453.2 1305,-463.67 1310.29,-454.49 1303.41,-453.2"/>
</a>
</g>
</g>
<!-- Node29&#45;&gt;Node18 -->
<g id="edge48_Node000029_Node000018" class="edge">
<title>Node29&#45;&gt;Node18</title>
<g id="a_edge48_Node000029_Node000018"><a xlink:title=" ">
<path fill="none" stroke="#63b8ff" d="M1379.3,-476.71C1459.15,-471.94 1576.84,-459.84 1609.35,-429.5 1636.3,-404.34 1628.35,-385.62 1628.35,-348.75 1628.35,-348.75 1628.35,-348.75 1628.35,-208.12 1628.35,-158.24 1580.39,-119.42 1544.61,-97.39"/>
<polygon fill="#63b8ff" stroke="#63b8ff" points="1379.11,-473.22 1369.32,-477.28 1379.5,-480.2 1379.11,-473.22"/>
</a>
</g>
</g>
<!-- Node29&#45;&gt;Node20 -->
<g id="edge50_Node000029_Node000020" class="edge">
<title>Node29&#45;&gt;Node20</title>
<g id="a_edge50_Node000029_Node000020"><a xlink:title=" ">
<path fill="none" stroke="#63b8ff" d="M1378.82,-479.78C1453.1,-477.35 1567.76,-467.01 1659.35,-429.5 1715.14,-406.65 1768.35,-409.04 1768.35,-348.75 1768.35,-348.75 1768.35,-348.75 1768.35,-208.12 1768.35,-161.94 1800.54,-114.85 1818.9,-91.74"/>
<polygon fill="#63b8ff" stroke="#63b8ff" points="1379.12,-476.27 1369.22,-480.05 1379.32,-483.27 1379.12,-476.27"/>
</a>
</g>
</g>
<!-- Node29&#45;&gt;Node27 -->
<g id="edge49_Node000029_Node000027" class="edge">
<title>Node29&#45;&gt;Node27</title>
<g id="a_edge49_Node000029_Node000027"><a xlink:title=" ">
<path fill="none" stroke="#63b8ff" d="M1259.69,-460.09C1243.06,-451.63 1224.22,-441.03 1208.35,-429.5 1151.65,-388.31 1094.77,-327.89 1066.93,-296.78"/>
<polygon fill="#63b8ff" stroke="#63b8ff" points="1257.85,-463.08 1268.36,-464.39 1260.96,-456.81 1257.85,-463.08"/>
</a>
</g>
</g>
<!-- Node29&#45;&gt;Node28 -->
<g id="edge51_Node000029_Node000028" class="edge">
<title>Node29&#45;&gt;Node28</title>
<g id="a_edge51_Node000029_Node000028"><a xlink:title=" ">
<path fill="none" stroke="#63b8ff" d="M1271.53,-458.27C1244.61,-437.46 1207.4,-403.19 1191.35,-363 1181.61,-338.64 1194.07,-308.54 1203.53,-291.07"/>
<polygon fill="#63b8ff" stroke="#63b8ff" points="1269.26,-460.94 1279.36,-464.15 1273.46,-455.35 1269.26,-460.94"/>
</a>
</g>
</g>
<!-- Node30 -->
<g id="Node000030" class="node">
<title>Node30</title>
<g id="a_Node000030"><a xlink:href="../../d6/dab/model-loader_8cpp.html" target="_top" xlink:title=" ">
<polygon fill="white" stroke="#666666" points="1452.22,-429.5 1330.47,-429.5 1330.47,-399 1452.22,-399 1452.22,-429.5"/>
<text text-anchor="start" x="1338.47" y="-416" font-family="Helvetica,sans-Serif" font-size="10.00">engine/subsystems/core</text>
<text text-anchor="middle" x="1391.35" y="-404.75" font-family="Helvetica,sans-Serif" font-size="10.00">/model&#45;loader.cpp</text>
</a>
</g>
</g>
<!-- Node29&#45;&gt;Node30 -->
<g id="edge45_Node000029_Node000030" class="edge">
<title>Node29&#45;&gt;Node30</title>
<g id="a_edge45_Node000029_Node000030"><a xlink:title=" ">
<path fill="none" stroke="#63b8ff" d="M1331.58,-458.57C1344.56,-449.16 1359.53,-438.31 1371.23,-429.83"/>
<polygon fill="#63b8ff" stroke="#63b8ff" points="1329.81,-455.52 1323.77,-464.23 1333.92,-461.19 1329.81,-455.52"/>
</a>
</g>
</g>
<!-- Node31 -->
<g id="Node000031" class="node">
<title>Node31</title>
<g id="a_Node000031"><a xlink:href="../../d3/d4f/model-system_8cpp.html" target="_top" xlink:title=" ">
<polygon fill="white" stroke="#666666" points="1600.35,-429.5 1470.35,-429.5 1470.35,-399 1600.35,-399 1600.35,-429.5"/>
<text text-anchor="start" x="1478.35" y="-416" font-family="Helvetica,sans-Serif" font-size="10.00">engine/subsystems/render</text>
<text text-anchor="middle" x="1535.35" y="-404.75" font-family="Helvetica,sans-Serif" font-size="10.00">/model&#45;system.cpp</text>
</a>
</g>
</g>
<!-- Node29&#45;&gt;Node31 -->
<g id="edge52_Node000029_Node000031" class="edge">
<title>Node29&#45;&gt;Node31</title>
<g id="a_edge52_Node000029_Node000031"><a xlink:title=" ">
<path fill="none" stroke="#63b8ff" d="M1366.52,-461.99C1402.96,-451.9 1448.01,-439.43 1482.41,-429.9"/>
<polygon fill="#63b8ff" stroke="#63b8ff" points="1365.67,-458.59 1356.97,-464.63 1367.54,-465.33 1365.67,-458.59"/>
</a>
</g>
</g>
<!-- Node32 -->
<g id="Node000032" class="node">
<title>Node32</title>
<g id="a_Node000032"><a xlink:href="../../d6/de4/subsystems_2render_2render_8hpp.html" target="_top" xlink:title=" ">
<polygon fill="white" stroke="#666666" points="1330.35,-363 1200.35,-363 1200.35,-332.5 1330.35,-332.5 1330.35,-363"/>
<text text-anchor="start" x="1208.35" y="-349.5" font-family="Helvetica,sans-Serif" font-size="10.00">engine/subsystems/render</text>
<text text-anchor="middle" x="1265.35" y="-338.25" font-family="Helvetica,sans-Serif" font-size="10.00">/render.hpp</text>
</a>
</g>
</g>
<!-- Node29&#45;&gt;Node32 -->
<g id="edge53_Node000029_Node000032" class="edge">
<title>Node29&#45;&gt;Node32</title>
<g id="a_edge53_Node000029_Node000032"><a xlink:title=" ">
<path fill="none" stroke="#63b8ff" d="M1295.16,-454.29C1287.51,-427.21 1275.67,-385.31 1269.47,-363.33"/>
<polygon fill="#63b8ff" stroke="#63b8ff" points="1291.75,-455.1 1297.83,-463.77 1298.48,-453.2 1291.75,-455.1"/>
</a>
</g>
</g>
<!-- Node32&#45;&gt;Node5 -->
<g id="edge54_Node000032_Node000005" class="edge">
<title>Node32&#45;&gt;Node5</title>
<g id="a_edge54_Node000032_Node000005"><a xlink:title=" ">
<path fill="none" stroke="#63b8ff" d="M1286.62,-323.44C1302.21,-303.45 1318.01,-274.79 1301.35,-254.75 1236.71,-177.02 922.05,-156.3 790.42,-151"/>
<polygon fill="#63b8ff" stroke="#63b8ff" points="1284,-321.11 1280.32,-331.05 1289.39,-325.57 1284,-321.11"/>
</a>
</g>
</g>
</g>
</svg>

<g id="navigator" transform="translate(0 0)" fill="#404254">
  <rect fill="#f2f5e9" fill-opacity="0.5" stroke="#606060" stroke-width=".5" x="0" y="0" width="60" height="60"/>
  <use id="zoomplus" xlink:href="#zoomPlus" x="17" y="9" onmousedown="handleZoom(evt,'in')"/>
  <use id="zoomminus" xlink:href="#zoomMin" x="42" y="9" onmousedown="handleZoom(evt,'out')"/>
  <use id="reset" xlink:href="#resetDef" x="30" y="36" onmousedown="handleReset()"/>
   <use id="arrowup" xlink:href="#arrowUp" x="0" y="0" onmousedown="handlePan(0,-1)"/>
  <use id="arrowright" xlink:href="#arrowRight" x="0" y="0" onmousedown="handlePan(1,0)"/>
  <use id="arrowdown" xlink:href="#arrowDown" x="0" y="0" onmousedown="handlePan(0,1)"/>
  <use id="arrowleft" xlink:href="#arrowLeft" x="0" y="0" onmousedown="handlePan(-1,0)"/>
</g>
<svg viewBox="0 0 15 15" width="100%" height="30px" preserveAspectRatio="xMaxYMin meet">
 <g id="arrow_out" transform="scale(0.3 0.3)">
  <a xlink:href="emissive-render-system_8hpp__dep__incl_org.svg" target="_base">
   <rect id="button" ry="5" rx="5" y="6" x="6" height="38" width="38"
        fill="#f2f5e9" fill-opacity="0.5" stroke="#606060" stroke-width="1.0"/>
   <path id="arrow"
     d="M 11.500037,31.436501 C 11.940474,20.09759 22.043105,11.32322 32.158766,21.979434 L 37.068811,17.246167 C 37.068811,17.246167 37.088388,32 37.088388,32 L 22.160133,31.978069 C 22.160133,31.978069 26.997745,27.140456 26.997745,27.140456 C 18.528582,18.264221 13.291696,25.230495 11.500037,31.436501 z"
     style="fill:#404040;"/>
  </a>
 </g>
</svg>

<style type='text/css'>
<![CDATA[
[data-mouse-over-selected='false'] { opacity: 0.7; }
[data-mouse-over-selected='true']  { opacity: 1.0; }
]]>
</style>
<script type="application/ecmascript"><![CDATA[
document.addEventListener('DOMContentLoaded', (event) => {
  highlightEdges();
  highlightAdjacentNodes();
});
]]></script>
</svg>
