<?xml version="1.0" encoding="UTF-8" standalone="no"?>
<!DOCTYPE svg PUBLIC "-//W3C//DTD SVG 1.1//EN"
 "http://www.w3.org/Graphics/SVG/1.1/DTD/svg11.dtd">
<!-- Generated by graphviz version 8.1.0 (20230707.0739)
 -->
<!-- Title: engine/subsystems/render/detail/emissive&#45;render&#45;system.hpp Pages: 1 -->
<svg width="1912pt" height="582pt"
 viewBox="0.00 0.00 1912.22 581.75" xmlns="http://www.w3.org/2000/svg" xmlns:xlink="http://www.w3.org/1999/xlink">
<g id="graph0" class="graph" transform="scale(1 1) rotate(0) translate(4 577.75)">
<title>engine/subsystems/render/detail/emissive&#45;render&#45;system.hpp</title>
<!-- Node1 -->
<g id="Node000001" class="node">
<title>Node1</title>
<g id="a_Node000001"><a xlink:title=" ">
<polygon fill="#999999" stroke="#666666" points="1114.35,-573.75 984.35,-573.75 984.35,-532 1114.35,-532 1114.35,-573.75"/>
<text text-anchor="start" x="992.35" y="-560.25" font-family="Helvetica,sans-Serif" font-size="10.00">engine/subsystems/render</text>
<text text-anchor="start" x="992.35" y="-549" font-family="Helvetica,sans-Serif" font-size="10.00">/detail/emissive&#45;render</text>
<text text-anchor="middle" x="1049.35" y="-537.75" font-family="Helvetica,sans-Serif" font-size="10.00">&#45;system.hpp</text>
</a>
</g>
</g>
<!-- Node2 -->
<g id="Node000002" class="node">
<title>Node2</title>
<g id="a_Node000002"><a xlink:href="../../d1/dae/renderer_8hpp.html" target="_top" xlink:title=" ">
<polygon fill="white" stroke="#666666" points="895.72,-423.88 764.97,-423.88 764.97,-404.62 895.72,-404.62 895.72,-423.88"/>
<text text-anchor="middle" x="830.35" y="-410.38" font-family="Helvetica,sans-Serif" font-size="10.00">engine/render/renderer.hpp</text>
</a>
</g>
</g>
<!-- Node1&#45;&gt;Node2 -->
<g id="edge1_Node000001_Node000002" class="edge">
<title>Node1&#45;&gt;Node2</title>
<g id="a_edge1_Node000001_Node000002"><a xlink:title=" ">
<path fill="none" stroke="#63b8ff" d="M1007.83,-525.97C958.14,-494.97 877.54,-444.69 844.83,-424.28"/>
<polygon fill="#63b8ff" stroke="#63b8ff" points="1005.7,-529.39 1016.03,-531.72 1009.4,-523.45 1005.7,-529.39"/>
</a>
</g>
</g>
<!-- Node27 -->
<g id="Node000027" class="node">
<title>Node27</title>
<g id="a_Node000027"><a xlink:href="../../d8/dcb/emissive-render-system_8cpp.html" target="_top" xlink:title=" ">
<polygon fill="white" stroke="#666666" points="1114.35,-296.5 984.35,-296.5 984.35,-254.75 1114.35,-254.75 1114.35,-296.5"/>
<text text-anchor="start" x="992.35" y="-283" font-family="Helvetica,sans-Serif" font-size="10.00">engine/subsystems/render</text>
<text text-anchor="start" x="992.35" y="-271.75" font-family="Helvetica,sans-Serif" font-size="10.00">/detail/emissive&#45;render</text>
<text text-anchor="middle" x="1049.35" y="-260.5" font-family="Helvetica,sans-Serif" font-size="10.00">&#45;system.cpp</text>
</a>
</g>
</g>
<!-- Node1&#45;&gt;Node27 -->
<g id="edge42_Node000001_Node000027" class="edge">
<title>Node1&#45;&gt;Node27</title>
<g id="a_edge42_Node000001_Node000027"><a xlink:title=" ">
<path fill="none" stroke="#63b8ff" d="M1049.35,-520.81C1049.35,-463.94 1049.35,-344.55 1049.35,-296.89"/>
<polygon fill="#63b8ff" stroke="#63b8ff" points="1045.85,-520.64 1049.35,-530.64 1052.85,-520.64 1045.85,-520.64"/>
</a>
</g>
</g>
<!-- Node29 -->
<g id="Node000029" class="node">
<title>Node29</title>
<g id="a_Node000029"><a xlink:href="../../db/d67/model-system_8hpp.html" target="_top" xlink:title=" ">
<polygon fill="white" stroke="#666666" points="1367.35,-496 1237.35,-496 1237.35,-465.5 1367.35,-465.5 1367.35,-496"/>
<text text-anchor="start" x="1245.35" y="-482.5" font-family="Helvetica,sans-Serif" font-size="10.00">engine/subsystems/render</text>
<text text-anchor="middle" x="1302.35" y="-471.25" font-family="Helvetica,sans-Serif" font-size="10.00">/model&#45;system.hpp</text>
</a>
</g>
</g>
<!-- Node1&#45;&gt;Node29 -->
<g id="edge43_Node000001_Node000029" class="edge">
<title>Node1&#45;&gt;Node29</title>
<g id="a_edge43_Node000001_Node000029"><a xlink:title=" ">
<path fill="none" stroke="#63b8ff" d="M1125.36,-530.81C1165.4,-519.71 1213.52,-506.37 1249.47,-496.41"/>
<polygon fill="#63b8ff" stroke="#63b8ff" points="1124.53,-527.68 1115.83,-533.72 1126.4,-534.43 1124.53,-527.68"/>
</a>
</g>
</g>
<!-- Node3 -->
<g id="Node000003" class="node">
<title>Node3</title>
<g id="a_Node000003"><a xlink:href="../../d1/d47/controller_8cpp.html" target="_top" xlink:title=" ">
<polygon fill="white" stroke="#666666" points="642.47,-19.25 528.22,-19.25 528.22,0 642.47,0 642.47,-19.25"/>
<text text-anchor="middle" x="585.35" y="-5.75" font-family="Helvetica,sans-Serif" font-size="10.00">d3d_test/controller.cpp</text>
</a>
</g>
</g>
<!-- Node2&#45;&gt;Node3 -->
<g id="edge2_Node000002_Node000003" class="edge">
<title>Node2&#45;&gt;Node3</title>
<g id="a_edge2_Node000002_Node000003"><a xlink:title=" ">
<path fill="none" stroke="#63b8ff" d="M753.71,-413.56C578.05,-412.21 161.35,-396.38 161.35,-276.62 161.35,-276.62 161.35,-276.62 161.35,-208.12 161.35,-139.85 128.34,-103.79 176.35,-55.25 200.62,-30.72 421.31,-17.79 528.05,-12.93"/>
<polygon fill="#63b8ff" stroke="#63b8ff" points="753.66,-417.07 763.68,-413.63 753.7,-410.07 753.66,-417.07"/>
</a>
</g>
</g>
<!-- Node4 -->
<g id="Node000004" class="node">
<title>Node4</title>
<g id="a_Node000004"><a xlink:href="../../d5/d9b/scene_8hpp.html" target="_top" xlink:title=" ">
<polygon fill="white" stroke="#666666" points="838.1,-357.38 724.6,-357.38 724.6,-338.12 838.1,-338.12 838.1,-357.38"/>
<text text-anchor="middle" x="781.35" y="-343.88" font-family="Helvetica,sans-Serif" font-size="10.00">engine/core/scene.hpp</text>
</a>
</g>
</g>
<!-- Node2&#45;&gt;Node4 -->
<g id="edge3_Node000002_Node000004" class="edge">
<title>Node2&#45;&gt;Node4</title>
<g id="a_edge3_Node000002_Node000004"><a xlink:title=" ">
<path fill="none" stroke="#63b8ff" d="M817.04,-395.73C807.68,-383.41 795.54,-367.43 788.1,-357.64"/>
<polygon fill="#63b8ff" stroke="#63b8ff" points="814.7,-397.44 823.53,-403.28 820.27,-393.2 814.7,-397.44"/>
</a>
</g>
</g>
<!-- Node24 -->
<g id="Node000024" class="node">
<title>Node24</title>
<g id="a_Node000024"><a xlink:href="../../db/df9/deferred-hdr-render-pipeline_8hpp.html" target="_top" xlink:title=" ">
<polygon fill="white" stroke="#666666" points="133.72,-163.5 2.97,-163.5 2.97,-133 133.72,-133 133.72,-163.5"/>
<text text-anchor="start" x="10.97" y="-150" font-family="Helvetica,sans-Serif" font-size="10.00">engine/direct3d11/deferred</text>
<text text-anchor="middle" x="68.35" y="-138.75" font-family="Helvetica,sans-Serif" font-size="10.00">&#45;hdr&#45;render&#45;pipeline.hpp</text>
</a>
</g>
</g>
<!-- Node2&#45;&gt;Node24 -->
<g id="edge40_Node000002_Node000024" class="edge">
<title>Node2&#45;&gt;Node24</title>
<g id="a_edge40_Node000002_Node000024"><a xlink:title=" ">
<path fill="none" stroke="#63b8ff" d="M753.74,-412.23C585.5,-409.32 194.88,-398.77 147.35,-363 81.59,-313.52 70.54,-203.34 68.7,-163.76"/>
<polygon fill="#63b8ff" stroke="#63b8ff" points="753.68,-415.74 763.74,-412.41 753.8,-408.74 753.68,-415.74"/>
</a>
</g>
</g>
<!-- Node26 -->
<g id="Node000026" class="node">
<title>Node26</title>
<g id="a_Node000026"><a xlink:href="../../d6/d54/renderer_8cpp.html" target="_top" xlink:title=" ">
<polygon fill="white" stroke="#666666" points="966.72,-285.25 835.97,-285.25 835.97,-266 966.72,-266 966.72,-285.25"/>
<text text-anchor="middle" x="901.35" y="-271.75" font-family="Helvetica,sans-Serif" font-size="10.00">engine/render/renderer.cpp</text>
</a>
</g>
</g>
<!-- Node2&#45;&gt;Node26 -->
<g id="edge41_Node000002_Node000026" class="edge">
<title>Node2&#45;&gt;Node26</title>
<g id="a_edge41_Node000002_Node000026"><a xlink:title=" ">
<path fill="none" stroke="#63b8ff" d="M840.01,-394.66C855.51,-364.83 885.36,-307.39 896.76,-285.44"/>
<polygon fill="#63b8ff" stroke="#63b8ff" points="836.51,-392.8 835.01,-403.29 842.72,-396.03 836.51,-392.8"/>
</a>
</g>
</g>
<!-- Node5 -->
<g id="Node000005" class="node">
<title>Node5</title>
<g id="a_Node000005"><a xlink:href="../../de/d46/engine_8hpp.html" target="_top" xlink:title=" ">
<polygon fill="white" stroke="#666666" points="790.22,-157.88 674.47,-157.88 674.47,-138.62 790.22,-138.62 790.22,-157.88"/>
<text text-anchor="middle" x="732.35" y="-144.38" font-family="Helvetica,sans-Serif" font-size="10.00">engine/core/engine.hpp</text>
</a>
</g>
</g>
<!-- Node4&#45;&gt;Node5 -->
<g id="edge4_Node000004_Node000005" class="edge">
<title>Node4&#45;&gt;Node5</title>
<g id="a_edge4_Node000004_Node000005"><a xlink:title=" ">
<path fill="none" stroke="#63b8ff" d="M770.61,-328.5C765.57,-319.2 759.91,-307.55 756.35,-296.5 739.99,-245.71 734.42,-181.31 732.86,-158.1"/>
<polygon fill="#63b8ff" stroke="#63b8ff" points="767.91,-329.85 775.88,-336.84 774.01,-326.41 767.91,-329.85"/>
</a>
</g>
</g>
<!-- Node16 -->
<g id="Node000016" class="node">
<title>Node16</title>
<g id="a_Node000016"><a xlink:href="../../d8/d30/decal-render-system_8cpp.html" target="_top" xlink:title=" ">
<polygon fill="white" stroke="#666666" points="1740.85,-91.38 1589.85,-91.38 1589.85,-60.88 1740.85,-60.88 1740.85,-91.38"/>
<text text-anchor="start" x="1597.85" y="-77.88" font-family="Helvetica,sans-Serif" font-size="10.00">engine/subsystems/render</text>
<text text-anchor="middle" x="1665.35" y="-66.62" font-family="Helvetica,sans-Serif" font-size="10.00">/detail/decal&#45;render&#45;system.cpp</text>
</a>
</g>
</g>
<!-- Node4&#45;&gt;Node16 -->
<g id="edge35_Node000004_Node000016" class="edge">
<title>Node4&#45;&gt;Node16</title>
<g id="a_edge35_Node000004_Node000016"><a xlink:title=" ">
<path fill="none" stroke="#63b8ff" d="M785.76,-327.13C791.58,-305.94 803.95,-272.79 827.35,-254.75 895.04,-202.55 1496.89,-115.5 1580.35,-97 1587.75,-95.36 1595.5,-93.6 1603.18,-91.84"/>
<polygon fill="#63b8ff" stroke="#63b8ff" points="782.13,-326.22 783.11,-336.77 788.92,-327.91 782.13,-326.22"/>
</a>
</g>
</g>
<!-- Node17 -->
<g id="Node000017" class="node">
<title>Node17</title>
<g id="a_Node000017"><a xlink:href="../../d1/d58/dissolution-render-system_8cpp.html" target="_top" xlink:title=" ">
<polygon fill="white" stroke="#666666" points="1423.35,-97 1293.35,-97 1293.35,-55.25 1423.35,-55.25 1423.35,-97"/>
<text text-anchor="start" x="1301.35" y="-83.5" font-family="Helvetica,sans-Serif" font-size="10.00">engine/subsystems/render</text>
<text text-anchor="start" x="1301.35" y="-72.25" font-family="Helvetica,sans-Serif" font-size="10.00">/detail/dissolution&#45;render</text>
<text text-anchor="middle" x="1358.35" y="-61" font-family="Helvetica,sans-Serif" font-size="10.00">&#45;system.cpp</text>
</a>
</g>
</g>
<!-- Node4&#45;&gt;Node17 -->
<g id="edge36_Node000004_Node000017" class="edge">
<title>Node4&#45;&gt;Node17</title>
<g id="a_edge36_Node000004_Node000017"><a xlink:title=" ">
<path fill="none" stroke="#63b8ff" d="M778.49,-326.8C776.73,-306.33 777.43,-274.72 794.35,-254.75 810.99,-235.11 1147.94,-137.16 1292.93,-95.71"/>
<polygon fill="#63b8ff" stroke="#63b8ff" points="775.12,-327.12 779.75,-336.66 782.08,-326.32 775.12,-327.12"/>
</a>
</g>
</g>
<!-- Node21 -->
<g id="Node000021" class="node">
<title>Node21</title>
<g id="a_Node000021"><a xlink:href="../../d3/dfe/particle-render-system_8cpp.html" target="_top" xlink:title=" ">
<polygon fill="white" stroke="#666666" points="463.35,-97 333.35,-97 333.35,-55.25 463.35,-55.25 463.35,-97"/>
<text text-anchor="start" x="341.35" y="-83.5" font-family="Helvetica,sans-Serif" font-size="10.00">engine/subsystems/render</text>
<text text-anchor="start" x="341.35" y="-72.25" font-family="Helvetica,sans-Serif" font-size="10.00">/detail/particle&#45;render</text>
<text text-anchor="middle" x="398.35" y="-61" font-family="Helvetica,sans-Serif" font-size="10.00">&#45;system.cpp</text>
</a>
</g>
</g>
<!-- Node4&#45;&gt;Node21 -->
<g id="edge39_Node000004_Node000021" class="edge">
<title>Node4&#45;&gt;Node21</title>
<g id="a_edge39_Node000004_Node000021"><a xlink:title=" ">
<path fill="none" stroke="#63b8ff" d="M713.38,-344.21C631.78,-339.78 501.41,-327.87 465.35,-296.5 405.56,-244.48 398.24,-140.78 397.94,-97.17"/>
<polygon fill="#63b8ff" stroke="#63b8ff" points="713.14,-347.75 723.3,-344.77 713.5,-340.76 713.14,-347.75"/>
</a>
</g>
</g>
<!-- Node22 -->
<g id="Node000022" class="node">
<title>Node22</title>
<g id="a_Node000022"><a xlink:href="../../d9/d06/render-pipeline_8hpp.html" target="_top" xlink:title=" ">
<polygon fill="white" stroke="#666666" points="574.35,-290.88 474.35,-290.88 474.35,-260.38 574.35,-260.38 574.35,-290.88"/>
<text text-anchor="start" x="482.35" y="-277.38" font-family="Helvetica,sans-Serif" font-size="10.00">engine/core/layers</text>
<text text-anchor="middle" x="524.35" y="-266.12" font-family="Helvetica,sans-Serif" font-size="10.00">/render&#45;pipeline.hpp</text>
</a>
</g>
</g>
<!-- Node4&#45;&gt;Node22 -->
<g id="edge26_Node000004_Node000022" class="edge">
<title>Node4&#45;&gt;Node22</title>
<g id="a_edge26_Node000004_Node000022"><a xlink:title=" ">
<path fill="none" stroke="#63b8ff" d="M731.44,-335.2C691.23,-325.63 633.36,-311.25 583.35,-296.5 577.96,-294.91 572.32,-293.15 566.76,-291.34"/>
<polygon fill="#63b8ff" stroke="#63b8ff" points="730.5,-338.81 741.04,-337.71 732.11,-332 730.5,-338.81"/>
</a>
</g>
</g>
<!-- Node25 -->
<g id="Node000025" class="node">
<title>Node25</title>
<g id="a_Node000025"><a xlink:href="../../d4/d7c/deferred-resolve_8cpp.html" target="_top" xlink:title=" ">
<polygon fill="white" stroke="#666666" points="704.72,-290.88 591.97,-290.88 591.97,-260.38 704.72,-260.38 704.72,-290.88"/>
<text text-anchor="start" x="599.97" y="-277.38" font-family="Helvetica,sans-Serif" font-size="10.00">engine/render/deferred</text>
<text text-anchor="middle" x="648.35" y="-266.12" font-family="Helvetica,sans-Serif" font-size="10.00">&#45;resolve.cpp</text>
</a>
</g>
</g>
<!-- Node4&#45;&gt;Node25 -->
<g id="edge33_Node000004_Node000025" class="edge">
<title>Node4&#45;&gt;Node25</title>
<g id="a_edge33_Node000004_Node000025"><a xlink:title=" ">
<path fill="none" stroke="#63b8ff" d="M754.55,-332.62C731.82,-320.64 699.34,-303.51 676.29,-291.36"/>
<polygon fill="#63b8ff" stroke="#63b8ff" points="752.75,-336.16 763.23,-337.73 756.02,-329.97 752.75,-336.16"/>
</a>
</g>
</g>
<!-- Node4&#45;&gt;Node26 -->
<g id="edge34_Node000004_Node000026" class="edge">
<title>Node4&#45;&gt;Node26</title>
<g id="a_edge34_Node000004_Node000026"><a xlink:title=" ">
<path fill="none" stroke="#63b8ff" d="M806.03,-332.33C830.01,-318.31 865.68,-297.47 885.89,-285.66"/>
<polygon fill="#63b8ff" stroke="#63b8ff" points="804.41,-329.8 797.55,-337.87 807.95,-335.85 804.41,-329.8"/>
</a>
</g>
</g>
<!-- Node4&#45;&gt;Node27 -->
<g id="edge37_Node000004_Node000027" class="edge">
<title>Node4&#45;&gt;Node27</title>
<g id="a_edge37_Node000004_Node000027"><a xlink:title=" ">
<path fill="none" stroke="#63b8ff" d="M827.35,-334.96C866.67,-324.85 924.76,-309.84 975.35,-296.5 978.18,-295.75 981.07,-294.99 983.99,-294.21"/>
<polygon fill="#63b8ff" stroke="#63b8ff" points="826.59,-331.8 817.77,-337.68 828.33,-338.58 826.59,-331.8"/>
</a>
</g>
</g>
<!-- Node28 -->
<g id="Node000028" class="node">
<title>Node28</title>
<g id="a_Node000028"><a xlink:href="../../d1/d62/opaque-render-system_8cpp.html" target="_top" xlink:title=" ">
<polygon fill="white" stroke="#666666" points="1291.97,-290.88 1132.72,-290.88 1132.72,-260.38 1291.97,-260.38 1291.97,-290.88"/>
<text text-anchor="start" x="1140.72" y="-277.38" font-family="Helvetica,sans-Serif" font-size="10.00">engine/subsystems/render</text>
<text text-anchor="middle" x="1212.35" y="-266.12" font-family="Helvetica,sans-Serif" font-size="10.00">/detail/opaque&#45;render&#45;system.cpp</text>
</a>
</g>
</g>
<!-- Node4&#45;&gt;Node28 -->
<g id="edge38_Node000004_Node000028" class="edge">
<title>Node4&#45;&gt;Node28</title>
<g id="a_edge38_Node000004_Node000028"><a xlink:title=" ">
<path fill="none" stroke="#63b8ff" d="M849.18,-338.28C918.36,-329.3 1028.68,-314 1123.35,-296.5 1131.75,-294.95 1140.57,-293.16 1149.26,-291.32"/>
<polygon fill="#63b8ff" stroke="#63b8ff" points="848.91,-334.92 839.44,-339.67 849.81,-341.86 848.91,-334.92"/>
</a>
</g>
</g>
<!-- Node6 -->
<g id="Node000006" class="node">
<title>Node6</title>
<g id="a_Node000006"><a xlink:href="../../d0/d86/camera-movement_8hpp.html" target="_top" xlink:title=" ">
<polygon fill="white" stroke="#666666" points="1275.1,-85.75 1119.6,-85.75 1119.6,-66.5 1275.1,-66.5 1275.1,-85.75"/>
<text text-anchor="middle" x="1197.35" y="-72.25" font-family="Helvetica,sans-Serif" font-size="10.00">d3d_test/camera&#45;movement.hpp</text>
</a>
</g>
</g>
<!-- Node5&#45;&gt;Node6 -->
<g id="edge5_Node000005_Node000006" class="edge">
<title>Node5&#45;&gt;Node6</title>
<g id="a_edge5_Node000005_Node000006"><a xlink:title=" ">
<path fill="none" stroke="#63b8ff" d="M785.72,-136.2C791.99,-135.05 798.3,-133.95 804.35,-133 939.62,-111.69 975.4,-120.28 1110.35,-97 1127.29,-94.08 1145.9,-89.95 1161.54,-86.22"/>
<polygon fill="#63b8ff" stroke="#63b8ff" points="785.44,-132.88 776.27,-138.18 786.75,-139.76 785.44,-132.88"/>
</a>
</g>
</g>
<!-- Node8 -->
<g id="Node000008" class="node">
<title>Node8</title>
<g id="a_Node000008"><a xlink:href="../../dc/dfb/controller_8hpp.html" target="_top" xlink:title=" ">
<polygon fill="white" stroke="#666666" points="129.47,-85.75 15.22,-85.75 15.22,-66.5 129.47,-66.5 129.47,-85.75"/>
<text text-anchor="middle" x="72.35" y="-72.25" font-family="Helvetica,sans-Serif" font-size="10.00">d3d_test/controller.hpp</text>
</a>
</g>
</g>
<!-- Node5&#45;&gt;Node8 -->
<g id="edge8_Node000005_Node000008" class="edge">
<title>Node5&#45;&gt;Node8</title>
<g id="a_edge8_Node000005_Node000008"><a xlink:title=" ">
<path fill="none" stroke="#63b8ff" d="M663.3,-143.21C557.94,-136.55 350.85,-121.5 176.35,-97 156.05,-94.15 133.7,-90.01 114.95,-86.25"/>
<polygon fill="#63b8ff" stroke="#63b8ff" points="662.9,-146.75 673.1,-143.88 663.34,-139.77 662.9,-146.75"/>
</a>
</g>
</g>
<!-- Node9 -->
<g id="Node000009" class="node">
<title>Node9</title>
<g id="a_Node000009"><a xlink:href="../../d9/d0f/main_8cc.html" target="_top" xlink:title=" ">
<polygon fill="white" stroke="#666666" points="117.47,-19.25 27.22,-19.25 27.22,0 117.47,0 117.47,-19.25"/>
<text text-anchor="middle" x="72.35" y="-5.75" font-family="Helvetica,sans-Serif" font-size="10.00">d3d_test/main.cc</text>
</a>
</g>
</g>
<!-- Node5&#45;&gt;Node9 -->
<g id="edge11_Node000005_Node000009" class="edge">
<title>Node5&#45;&gt;Node9</title>
<g id="a_edge11_Node000005_Node000009"><a xlink:title=" ">
<path fill="none" stroke="#63b8ff" d="M663.37,-142.44C617.43,-136.73 557.13,-124.25 510.35,-97 488.67,-84.37 494.7,-66.65 472.35,-55.25 411.35,-24.13 209.28,-14.5 117.91,-11.7"/>
<polygon fill="#63b8ff" stroke="#63b8ff" points="662.8,-146.01 673.13,-143.68 663.6,-139.06 662.8,-146.01"/>
</a>
</g>
</g>
<!-- Node10 -->
<g id="Node000010" class="node">
<title>Node10</title>
<g id="a_Node000010"><a xlink:href="../../da/df5/object-editor_8hpp.html" target="_top" xlink:title=" ">
<polygon fill="white" stroke="#666666" points="797.22,-85.75 669.47,-85.75 669.47,-66.5 797.22,-66.5 797.22,-85.75"/>
<text text-anchor="middle" x="733.35" y="-72.25" font-family="Helvetica,sans-Serif" font-size="10.00">d3d_test/object&#45;editor.hpp</text>
</a>
</g>
</g>
<!-- Node5&#45;&gt;Node10 -->
<g id="edge12_Node000005_Node000010" class="edge">
<title>Node5&#45;&gt;Node10</title>
<g id="a_edge12_Node000005_Node000010"><a xlink:title=" ">
<path fill="none" stroke="#63b8ff" d="M732.63,-127.7C732.82,-114.1 733.07,-96.6 733.22,-86.16"/>
<polygon fill="#63b8ff" stroke="#63b8ff" points="729.12,-127.32 732.47,-137.37 736.12,-127.42 729.12,-127.32"/>
</a>
</g>
</g>
<!-- Node13 -->
<g id="Node000013" class="node">
<title>Node13</title>
<g id="a_Node000013"><a xlink:href="../../d9/d55/scene-viewer_8hpp.html" target="_top" xlink:title=" ">
<polygon fill="white" stroke="#666666" points="651.47,-85.75 519.22,-85.75 519.22,-66.5 651.47,-66.5 651.47,-85.75"/>
<text text-anchor="middle" x="585.35" y="-72.25" font-family="Helvetica,sans-Serif" font-size="10.00">d3d_test/scene&#45;viewer.hpp</text>
</a>
</g>
</g>
<!-- Node5&#45;&gt;Node13 -->
<g id="edge16_Node000005_Node000013" class="edge">
<title>Node5&#45;&gt;Node13</title>
<g id="a_edge16_Node000005_Node000013"><a xlink:title=" ">
<path fill="none" stroke="#63b8ff" d="M703.74,-133.6C674.34,-119.58 629.4,-98.14 604.19,-86.11"/>
<polygon fill="#63b8ff" stroke="#63b8ff" points="701.9,-137.08 712.43,-138.23 704.91,-130.76 701.9,-137.08"/>
</a>
</g>
</g>
<!-- Node14 -->
<g id="Node000014" class="node">
<title>Node14</title>
<g id="a_Node000014"><a xlink:href="../../da/d5c/engine_8cpp.html" target="_top" xlink:title=" ">
<polygon fill="white" stroke="#666666" points="931.22,-85.75 815.47,-85.75 815.47,-66.5 931.22,-66.5 931.22,-85.75"/>
<text text-anchor="middle" x="873.35" y="-72.25" font-family="Helvetica,sans-Serif" font-size="10.00">engine/core/engine.cpp</text>
</a>
</g>
</g>
<!-- Node5&#45;&gt;Node14 -->
<g id="edge18_Node000005_Node000014" class="edge">
<title>Node5&#45;&gt;Node14</title>
<g id="a_edge18_Node000005_Node000014"><a xlink:title=" ">
<path fill="none" stroke="#63b8ff" d="M760.16,-133.42C788.37,-119.39 831.2,-98.09 855.27,-86.11"/>
<polygon fill="#63b8ff" stroke="#63b8ff" points="758.89,-130.64 751.49,-138.23 762,-136.91 758.89,-130.64"/>
</a>
</g>
</g>
<!-- Node15 -->
<g id="Node000015" class="node">
<title>Node15</title>
<g id="a_Node000015"><a xlink:href="../../d1/da2/deferred-hdr-render-pipeline_8cpp.html" target="_top" xlink:title=" ">
<polygon fill="white" stroke="#666666" points="315.72,-91.38 184.97,-91.38 184.97,-60.88 315.72,-60.88 315.72,-91.38"/>
<text text-anchor="start" x="192.97" y="-77.88" font-family="Helvetica,sans-Serif" font-size="10.00">engine/direct3d11/deferred</text>
<text text-anchor="middle" x="250.35" y="-66.62" font-family="Helvetica,sans-Serif" font-size="10.00">&#45;hdr&#45;render&#45;pipeline.cpp</text>
</a>
</g>
</g>
<!-- Node5&#45;&gt;Node15 -->
<g id="edge19_Node000005_Node000015" class="edge">
<title>Node5&#45;&gt;Node15</title>
<g id="a_edge19_Node000005_Node000015"><a xlink:title=" ">
<path fill="none" stroke="#63b8ff" d="M663.56,-141.74C582.09,-134.52 442.51,-120.03 324.35,-97 316.9,-95.55 309.11,-93.76 301.48,-91.85"/>
<polygon fill="#63b8ff" stroke="#63b8ff" points="662.91,-145.28 673.18,-142.66 663.52,-138.31 662.91,-145.28"/>
</a>
</g>
</g>
<!-- Node5&#45;&gt;Node16 -->
<g id="edge20_Node000005_Node000016" class="edge">
<title>Node5&#45;&gt;Node16</title>
<g id="a_edge20_Node000005_Node000016"><a xlink:title=" ">
<path fill="none" stroke="#63b8ff" d="M801.45,-147.13C946.54,-146.01 1293.2,-138.77 1580.35,-97 1589.5,-95.67 1599.11,-93.84 1608.45,-91.84"/>
<polygon fill="#63b8ff" stroke="#63b8ff" points="801.5,-143.64 791.53,-147.21 801.55,-150.64 801.5,-143.64"/>
</a>
</g>
</g>
<!-- Node5&#45;&gt;Node17 -->
<g id="edge21_Node000005_Node000017" class="edge">
<title>Node5&#45;&gt;Node17</title>
<g id="a_edge21_Node000005_Node000017"><a xlink:title=" ">
<path fill="none" stroke="#63b8ff" d="M784.2,-136.21C790.95,-135 797.8,-133.89 804.35,-133 1016.33,-104.18 1073.45,-132.9 1284.35,-97 1287.23,-96.51 1290.17,-95.96 1293.12,-95.35"/>
<polygon fill="#63b8ff" stroke="#63b8ff" points="783.89,-132.9 774.7,-138.18 785.18,-139.78 783.89,-132.9"/>
</a>
</g>
</g>
<!-- Node18 -->
<g id="Node000018" class="node">
<title>Node18</title>
<g id="a_Node000018"><a xlink:href="../../d2/d11/emissive-particle-render-system_8cpp.html" target="_top" xlink:title=" ">
<polygon fill="white" stroke="#666666" points="1571.35,-97 1441.35,-97 1441.35,-55.25 1571.35,-55.25 1571.35,-97"/>
<text text-anchor="start" x="1449.35" y="-83.5" font-family="Helvetica,sans-Serif" font-size="10.00">engine/subsystems/render</text>
<text text-anchor="start" x="1449.35" y="-72.25" font-family="Helvetica,sans-Serif" font-size="10.00">/detail/emissive&#45;particle</text>
<text text-anchor="middle" x="1506.35" y="-61" font-family="Helvetica,sans-Serif" font-size="10.00">&#45;render&#45;system.cpp</text>
</a>
</g>
</g>
<!-- Node5&#45;&gt;Node18 -->
<g id="edge22_Node000005_Node000018" class="edge">
<title>Node5&#45;&gt;Node18</title>
<g id="a_edge22_Node000005_Node000018"><a xlink:title=" ">
<path fill="none" stroke="#63b8ff" d="M801.04,-146.65C927.05,-144.59 1203.24,-135.63 1432.35,-97 1435.23,-96.51 1438.17,-95.96 1441.13,-95.37"/>
<polygon fill="#63b8ff" stroke="#63b8ff" points="801.36,-143.16 791.41,-146.81 801.46,-150.16 801.36,-143.16"/>
</a>
</g>
</g>
<!-- Node19 -->
<g id="Node000019" class="node">
<title>Node19</title>
<g id="a_Node000019"><a xlink:href="../../df/d58/grass-render-system_8cpp.html" target="_top" xlink:title=" ">
<polygon fill="white" stroke="#666666" points="1101.22,-91.38 949.47,-91.38 949.47,-60.88 1101.22,-60.88 1101.22,-91.38"/>
<text text-anchor="start" x="957.47" y="-77.88" font-family="Helvetica,sans-Serif" font-size="10.00">engine/subsystems/render</text>
<text text-anchor="middle" x="1025.35" y="-66.62" font-family="Helvetica,sans-Serif" font-size="10.00">/detail/grass&#45;render&#45;system.cpp</text>
</a>
</g>
</g>
<!-- Node5&#45;&gt;Node19 -->
<g id="edge23_Node000005_Node000019" class="edge">
<title>Node5&#45;&gt;Node19</title>
<g id="a_edge23_Node000005_Node000019"><a xlink:title=" ">
<path fill="none" stroke="#63b8ff" d="M780.92,-135.63C831.07,-123.62 909.48,-104.86 963.92,-91.83"/>
<polygon fill="#63b8ff" stroke="#63b8ff" points="780.26,-132.42 771.35,-138.15 781.89,-139.23 780.26,-132.42"/>
</a>
</g>
</g>
<!-- Node20 -->
<g id="Node000020" class="node">
<title>Node20</title>
<g id="a_Node000020"><a xlink:href="../../d8/d9c/light-render-system_8cpp.html" target="_top" xlink:title=" ">
<polygon fill="white" stroke="#666666" points="1904.22,-91.38 1758.47,-91.38 1758.47,-60.88 1904.22,-60.88 1904.22,-91.38"/>
<text text-anchor="start" x="1766.47" y="-77.88" font-family="Helvetica,sans-Serif" font-size="10.00">engine/subsystems/render</text>
<text text-anchor="middle" x="1831.35" y="-66.62" font-family="Helvetica,sans-Serif" font-size="10.00">/detail/light&#45;render&#45;system.cpp</text>
</a>
</g>
</g>
<!-- Node5&#45;&gt;Node20 -->
<g id="edge24_Node000005_Node000020" class="edge">
<title>Node5&#45;&gt;Node20</title>
<g id="a_edge24_Node000005_Node000020"><a xlink:title=" ">
<path fill="none" stroke="#63b8ff" d="M801.25,-145.57C999.09,-140.46 1566.47,-123.84 1750.35,-97 1759.23,-95.7 1768.56,-93.87 1777.6,-91.83"/>
<polygon fill="#63b8ff" stroke="#63b8ff" points="801.34,-142.09 791.43,-145.84 801.52,-149.09 801.34,-142.09"/>
</a>
</g>
</g>
<!-- Node5&#45;&gt;Node21 -->
<g id="edge25_Node000005_Node000021" class="edge">
<title>Node5&#45;&gt;Node21</title>
<g id="a_edge25_Node000005_Node000021"><a xlink:title=" ">
<path fill="none" stroke="#63b8ff" d="M671.68,-136.21C619.9,-126.57 543.53,-111.84 477.35,-97 472.93,-96.01 468.38,-94.96 463.81,-93.87"/>
<polygon fill="#63b8ff" stroke="#63b8ff" points="670.88,-139.81 681.35,-138.19 672.15,-132.93 670.88,-139.81"/>
</a>
</g>
</g>
<!-- Node6&#45;&gt;Node3 -->
<g id="edge7_Node000006_Node000003" class="edge">
<title>Node6&#45;&gt;Node3</title>
<g id="a_edge7_Node000006_Node000003"><a xlink:title=" ">
<path fill="none" stroke="#63b8ff" d="M1152.41,-63.55C1138.96,-60.44 1124.12,-57.36 1110.35,-55.25 910.27,-24.63 857.75,-39.46 656.35,-19.25 651.9,-18.8 647.3,-18.31 642.68,-17.8"/>
<polygon fill="#63b8ff" stroke="#63b8ff" points="1151.32,-67.12 1161.85,-66.03 1152.93,-60.31 1151.32,-67.12"/>
</a>
</g>
</g>
<!-- Node7 -->
<g id="Node000007" class="node">
<title>Node7</title>
<g id="a_Node000007"><a xlink:href="../../d5/dbb/camera-movement_8cpp.html" target="_top" xlink:title=" ">
<polygon fill="white" stroke="#666666" points="1275.1,-19.25 1119.6,-19.25 1119.6,0 1275.1,0 1275.1,-19.25"/>
<text text-anchor="middle" x="1197.35" y="-5.75" font-family="Helvetica,sans-Serif" font-size="10.00">d3d_test/camera&#45;movement.cpp</text>
</a>
</g>
</g>
<!-- Node6&#45;&gt;Node7 -->
<g id="edge6_Node000006_Node000007" class="edge">
<title>Node6&#45;&gt;Node7</title>
<g id="a_edge6_Node000006_Node000007"><a xlink:title=" ">
<path fill="none" stroke="#63b8ff" d="M1197.35,-55.4C1197.35,-43.43 1197.35,-28.73 1197.35,-19.52"/>
<polygon fill="#63b8ff" stroke="#63b8ff" points="1193.85,-55.16 1197.35,-65.16 1200.85,-55.16 1193.85,-55.16"/>
</a>
</g>
</g>
<!-- Node8&#45;&gt;Node3 -->
<g id="edge9_Node000008_Node000003" class="edge">
<title>Node8&#45;&gt;Node3</title>
<g id="a_edge9_Node000008_Node000003"><a xlink:title=" ">
<path fill="none" stroke="#63b8ff" d="M110.9,-63.03C121.34,-60.11 132.71,-57.26 143.35,-55.25 279.95,-29.43 443.31,-17.85 528.03,-13.25"/>
<polygon fill="#63b8ff" stroke="#63b8ff" points="110.05,-59.92 101.41,-66.06 111.99,-66.65 110.05,-59.92"/>
</a>
</g>
</g>
<!-- Node8&#45;&gt;Node9 -->
<g id="edge10_Node000008_Node000009" class="edge">
<title>Node8&#45;&gt;Node9</title>
<g id="a_edge10_Node000008_Node000009"><a xlink:title=" ">
<path fill="none" stroke="#63b8ff" d="M72.35,-55.4C72.35,-43.43 72.35,-28.73 72.35,-19.52"/>
<polygon fill="#63b8ff" stroke="#63b8ff" points="68.85,-55.16 72.35,-65.16 75.85,-55.16 68.85,-55.16"/>
</a>
</g>
</g>
<!-- Node10&#45;&gt;Node3 -->
<g id="edge13_Node000010_Node000003" class="edge">
<title>Node10&#45;&gt;Node3</title>
<g id="a_edge13_Node000010_Node000003"><a xlink:title=" ">
<path fill="none" stroke="#63b8ff" d="M702.48,-61.67C673.58,-49.08 631.2,-30.61 606.13,-19.68"/>
<polygon fill="#63b8ff" stroke="#63b8ff" points="700.89,-65.23 711.46,-66.02 703.69,-58.82 700.89,-65.23"/>
</a>
</g>
</g>
<!-- Node11 -->
<g id="Node000011" class="node">
<title>Node11</title>
<g id="a_Node000011"><a xlink:href="../../d4/d94/object-editor_8cpp.html" target="_top" xlink:title=" ">
<polygon fill="white" stroke="#666666" points="793.22,-19.25 665.47,-19.25 665.47,0 793.22,0 793.22,-19.25"/>
<text text-anchor="middle" x="729.35" y="-5.75" font-family="Helvetica,sans-Serif" font-size="10.00">d3d_test/object&#45;editor.cpp</text>
</a>
</g>
</g>
<!-- Node10&#45;&gt;Node11 -->
<g id="edge14_Node000010_Node000011" class="edge">
<title>Node10&#45;&gt;Node11</title>
<g id="a_edge14_Node000010_Node000011"><a xlink:title=" ">
<path fill="none" stroke="#63b8ff" d="M732.12,-55.4C731.38,-43.43 730.47,-28.73 729.9,-19.52"/>
<polygon fill="#63b8ff" stroke="#63b8ff" points="728.68,-55.39 732.79,-65.16 735.67,-54.96 728.68,-55.39"/>
</a>
</g>
</g>
<!-- Node12 -->
<g id="Node000012" class="node">
<title>Node12</title>
<g id="a_Node000012"><a xlink:href="../../d0/d38/scene-viewer_8cpp.html" target="_top" xlink:title=" ">
<polygon fill="white" stroke="#666666" points="943.47,-19.25 811.22,-19.25 811.22,0 943.47,0 943.47,-19.25"/>
<text text-anchor="middle" x="877.35" y="-5.75" font-family="Helvetica,sans-Serif" font-size="10.00">d3d_test/scene&#45;viewer.cpp</text>
</a>
</g>
</g>
<!-- Node10&#45;&gt;Node12 -->
<g id="edge15_Node000010_Node000012" class="edge">
<title>Node10&#45;&gt;Node12</title>
<g id="a_edge15_Node000010_Node000012"><a xlink:title=" ">
<path fill="none" stroke="#63b8ff" d="M763.38,-61.67C791.5,-49.08 832.73,-30.61 857.12,-19.68"/>
<polygon fill="#63b8ff" stroke="#63b8ff" points="762.37,-58.74 754.67,-66.02 765.23,-65.13 762.37,-58.74"/>
</a>
</g>
</g>
<!-- Node13&#45;&gt;Node3 -->
<g id="edge17_Node000013_Node000003" class="edge">
<title>Node13&#45;&gt;Node3</title>
<g id="a_edge17_Node000013_Node000003"><a xlink:title=" ">
<path fill="none" stroke="#63b8ff" d="M585.35,-55.4C585.35,-43.43 585.35,-28.73 585.35,-19.52"/>
<polygon fill="#63b8ff" stroke="#63b8ff" points="581.85,-55.16 585.35,-65.16 588.85,-55.16 581.85,-55.16"/>
</a>
</g>
</g>
<!-- Node23 -->
<g id="Node000023" class="node">
<title>Node23</title>
<g id="a_Node000023"><a xlink:href="../../d4/d87/layers_8hpp.html" target="_top" xlink:title=" ">
<polygon fill="white" stroke="#666666" points="642.72,-218.75 529.97,-218.75 529.97,-199.5 642.72,-199.5 642.72,-218.75"/>
<text text-anchor="middle" x="586.35" y="-205.25" font-family="Helvetica,sans-Serif" font-size="10.00">engine/core/layers.hpp</text>
</a>
</g>
</g>
<!-- Node22&#45;&gt;Node23 -->
<g id="edge27_Node000022_Node000023" class="edge">
<title>Node22&#45;&gt;Node23</title>
<g id="a_edge27_Node000022_Node000023"><a xlink:title=" ">
<path fill="none" stroke="#63b8ff" d="M546.02,-252.08C557,-240.66 569.7,-227.45 577.87,-218.95"/>
<polygon fill="#63b8ff" stroke="#63b8ff" points="543.82,-249.35 539.42,-258.99 548.87,-254.21 543.82,-249.35"/>
</a>
</g>
</g>
<!-- Node22&#45;&gt;Node24 -->
<g id="edge29_Node000022_Node000024" class="edge">
<title>Node22&#45;&gt;Node24</title>
<g id="a_edge29_Node000022_Node000024"><a xlink:title=" ">
<path fill="none" stroke="#63b8ff" d="M463.69,-257.95C373.9,-233.26 207.08,-187.39 121.7,-163.92"/>
<polygon fill="#63b8ff" stroke="#63b8ff" points="462.67,-261.57 473.24,-260.85 464.53,-254.82 462.67,-261.57"/>
</a>
</g>
</g>
<!-- Node23&#45;&gt;Node5 -->
<g id="edge28_Node000023_Node000005" class="edge">
<title>Node23&#45;&gt;Node5</title>
<g id="a_edge28_Node000023_Node000005"><a xlink:title=" ">
<path fill="none" stroke="#63b8ff" d="M618.86,-195.01C646.6,-183.83 685.76,-168.04 710.07,-158.23"/>
<polygon fill="#63b8ff" stroke="#63b8ff" points="617.81,-192.07 609.84,-199.05 620.42,-198.56 617.81,-192.07"/>
</a>
</g>
</g>
<!-- Node24&#45;&gt;Node8 -->
<g id="edge30_Node000024_Node000008" class="edge">
<title>Node24&#45;&gt;Node8</title>
<g id="a_edge30_Node000024_Node000008"><a xlink:title=" ">
<path fill="none" stroke="#63b8ff" d="M69.8,-121.87C70.51,-109.27 71.34,-94.87 71.85,-85.88"/>
<polygon fill="#63b8ff" stroke="#63b8ff" points="66.25,-121.54 69.18,-131.72 73.24,-121.94 66.25,-121.54"/>
</a>
</g>
</g>
<!-- Node24&#45;&gt;Node9 -->
<g id="edge31_Node000024_Node000009" class="edge">
<title>Node24&#45;&gt;Node9</title>
<g id="a_edge31_Node000024_Node000009"><a xlink:title=" ">
<path fill="none" stroke="#63b8ff" d="M31.88,-126.37C21.71,-118.57 11.93,-108.7 6.35,-97 -1.64,-80.25 -2.35,-71.64 6.35,-55.25 15.23,-38.51 33.51,-26.91 48.58,-19.74"/>
<polygon fill="#63b8ff" stroke="#63b8ff" points="29.64,-129.78 39.83,-132.69 33.68,-124.06 29.64,-129.78"/>
</a>
</g>
</g>
<!-- Node24&#45;&gt;Node15 -->
<g id="edge32_Node000024_Node000015" class="edge">
<title>Node24&#45;&gt;Node15</title>
<g id="a_edge32_Node000024_Node000015"><a xlink:title=" ">
<path fill="none" stroke="#63b8ff" d="M116.72,-128.61C146.63,-117.09 184.47,-102.51 212.24,-91.81"/>
<polygon fill="#63b8ff" stroke="#63b8ff" points="115.57,-125.69 107.5,-132.55 118.09,-132.22 115.57,-125.69"/>
</a>
</g>
</g>
<!-- Node29&#45;&gt;Node2 -->
<g id="edge44_Node000029_Node000002" class="edge">
<title>Node29&#45;&gt;Node2</title>
<g id="a_edge44_Node000029_Node000002"><a xlink:title=" ">
<path fill="none" stroke="#63b8ff" d="M1226.36,-469.37C1134.82,-456.86 982.58,-436.05 895.95,-424.21"/>
<polygon fill="#63b8ff" stroke="#63b8ff" points="1225.83,-472.96 1236.21,-470.85 1226.78,-466.03 1225.83,-472.96"/>
</a>
</g>
</g>
<!-- Node29&#45;&gt;Node16 -->
<g id="edge46_Node000029_Node000016" class="edge">
<title>Node29&#45;&gt;Node16</title>
<g id="a_edge46_Node000029_Node000016"><a xlink:title=" ">
<path fill="none" stroke="#63b8ff" d="M1378.71,-476.63C1463.62,-471.72 1593.91,-459.43 1632.35,-429.5 1663.07,-405.57 1666.35,-387.69 1666.35,-348.75 1666.35,-348.75 1666.35,-348.75 1666.35,-208.12 1666.35,-165.82 1665.82,-115.84 1665.53,-91.66"/>
<polygon fill="#63b8ff" stroke="#63b8ff" points="1378.61,-473.19 1368.82,-477.24 1378.99,-480.18 1378.61,-473.19"/>
</a>
</g>
</g>
<!-- Node29&#45;&gt;Node17 -->
<g id="edge47_Node000029_Node000017" class="edge">
<title>Node29&#45;&gt;Node17</title>
<g id="a_edge47_Node000029_Node000017"><a xlink:title=" ">
<path fill="none" stroke="#63b8ff" d="M1306.73,-454.42C1309.91,-438.29 1314.8,-417.09 1321.35,-399 1327.44,-382.18 1333.38,-379.86 1339.35,-363 1352.46,-325.94 1358.35,-315.93 1358.35,-276.62 1358.35,-276.62 1358.35,-276.62 1358.35,-208.12 1358.35,-168.78 1358.35,-122.79 1358.35,-97.1"/>
<polygon fill="#63b8ff" stroke="#63b8ff" points="1303.12,-453.69 1304.72,-464.16 1310,-454.98 1303.12,-453.69"/>
</a>
</g>
</g>
<!-- Node29&#45;&gt;Node18 -->
<g id="edge48_Node000029_Node000018" class="edge">
<title>Node29&#45;&gt;Node18</title>
<g id="a_edge48_Node000029_Node000018"><a xlink:title=" ">
<path fill="none" stroke="#63b8ff" d="M1378.32,-476.77C1458.19,-472.04 1576.71,-459.96 1609.35,-429.5 1636.3,-404.34 1628.35,-385.62 1628.35,-348.75 1628.35,-348.75 1628.35,-348.75 1628.35,-208.12 1628.35,-158.24 1580.39,-119.42 1544.61,-97.39"/>
<polygon fill="#63b8ff" stroke="#63b8ff" points="1378.6,-473.3 1368.81,-477.36 1378.99,-480.29 1378.6,-473.3"/>
</a>
</g>
</g>
<!-- Node29&#45;&gt;Node20 -->
<g id="edge50_Node000029_Node000020" class="edge">
<title>Node29&#45;&gt;Node20</title>
<g id="a_edge50_Node000029_Node000020"><a xlink:title=" ">
<path fill="none" stroke="#63b8ff" d="M1378.37,-479.8C1452.63,-477.4 1567.57,-467.09 1659.35,-429.5 1715.14,-406.65 1768.35,-409.04 1768.35,-348.75 1768.35,-348.75 1768.35,-348.75 1768.35,-208.12 1768.35,-161.94 1800.54,-114.85 1818.9,-91.74"/>
<polygon fill="#63b8ff" stroke="#63b8ff" points="1378.61,-476.31 1368.71,-480.09 1378.81,-483.31 1378.61,-476.31"/>
</a>
</g>
</g>
<!-- Node29&#45;&gt;Node27 -->
<g id="edge49_Node000029_Node000027" class="edge">
<title>Node29&#45;&gt;Node27</title>
<g id="a_edge49_Node000029_Node000027"><a xlink:title=" ">
<path fill="none" stroke="#63b8ff" d="M1260.16,-460.33C1243.42,-451.83 1224.37,-441.14 1208.35,-429.5 1151.65,-388.31 1094.77,-327.89 1066.93,-296.78"/>
<polygon fill="#63b8ff" stroke="#63b8ff" points="1258.21,-463.76 1268.72,-465.07 1261.32,-457.49 1258.21,-463.76"/>
</a>
</g>
</g>
<!-- Node29&#45;&gt;Node28 -->
<g id="edge51_Node000029_Node000028" class="edge">
<title>Node29&#45;&gt;Node28</title>
<g id="a_edge51_Node000029_Node000028"><a xlink:title=" ">
<path fill="none" stroke="#63b8ff" d="M1271.88,-458.54C1244.94,-437.75 1207.47,-403.37 1191.35,-363 1181.61,-338.64 1194.07,-308.54 1203.53,-291.07"/>
<polygon fill="#63b8ff" stroke="#63b8ff" points="1269.47,-461.86 1279.57,-465.06 1273.67,-456.26 1269.47,-461.86"/>
</a>
</g>
</g>
<!-- Node30 -->
<g id="Node000030" class="node">
<title>Node30</title>
<g id="a_Node000030"><a xlink:href="../../d6/dab/model-loader_8cpp.html" target="_top" xlink:title=" ">
<polygon fill="white" stroke="#666666" points="1452.22,-429.5 1330.47,-429.5 1330.47,-399 1452.22,-399 1452.22,-429.5"/>
<text text-anchor="start" x="1338.47" y="-416" font-family="Helvetica,sans-Serif" font-size="10.00">engine/subsystems/core</text>
<text text-anchor="middle" x="1391.35" y="-404.75" font-family="Helvetica,sans-Serif" font-size="10.00">/model&#45;loader.cpp</text>
</a>
</g>
</g>
<!-- Node29&#45;&gt;Node30 -->
<g id="edge45_Node000029_Node000030" class="edge">
<title>Node29&#45;&gt;Node30</title>
<g id="a_edge45_Node000029_Node000030"><a xlink:title=" ">
<path fill="none" stroke="#63b8ff" d="M1331.2,-458.84C1344.27,-449.37 1359.41,-438.39 1371.23,-429.83"/>
<polygon fill="#63b8ff" stroke="#63b8ff" points="1329.59,-456.41 1323.54,-465.11 1333.69,-462.08 1329.59,-456.41"/>
</a>
</g>
</g>
<!-- Node31 -->
<g id="Node000031" class="node">
<title>Node31</title>
<g id="a_Node000031"><a xlink:href="../../d3/d4f/model-system_8cpp.html" target="_top" xlink:title=" ">
<polygon fill="white" stroke="#666666" points="1600.35,-429.5 1470.35,-429.5 1470.35,-399 1600.35,-399 1600.35,-429.5"/>
<text text-anchor="start" x="1478.35" y="-416" font-family="Helvetica,sans-Serif" font-size="10.00">engine/subsystems/render</text>
<text text-anchor="middle" x="1535.35" y="-404.75" font-family="Helvetica,sans-Serif" font-size="10.00">/model&#45;system.cpp</text>
</a>
</g>
</g>
<!-- Node29&#45;&gt;Node31 -->
<g id="edge52_Node000029_Node000031" class="edge">
<title>Node29&#45;&gt;Node31</title>
<g id="a_edge52_Node000029_Node000031"><a xlink:title=" ">
<path fill="none" stroke="#63b8ff" d="M1366.05,-462.12C1402.57,-452.01 1447.86,-439.47 1482.41,-429.9"/>
<polygon fill="#63b8ff" stroke="#63b8ff" points="1365.21,-458.99 1356.51,-465.03 1367.08,-465.74 1365.21,-458.99"/>
</a>
</g>
</g>
<!-- Node32 -->
<g id="Node000032" class="node">
<title>Node32</title>
<g id="a_Node000032"><a xlink:href="../../d6/de4/subsystems_2render_2render_8hpp.html" target="_top" xlink:title=" ">
<polygon fill="white" stroke="#666666" points="1330.35,-363 1200.35,-363 1200.35,-332.5 1330.35,-332.5 1330.35,-363"/>
<text text-anchor="start" x="1208.35" y="-349.5" font-family="Helvetica,sans-Serif" font-size="10.00">engine/subsystems/render</text>
<text text-anchor="middle" x="1265.35" y="-338.25" font-family="Helvetica,sans-Serif" font-size="10.00">/render.hpp</text>
</a>
</g>
</g>
<!-- Node29&#45;&gt;Node32 -->
<g id="edge53_Node000029_Node000032" class="edge">
<title>Node29&#45;&gt;Node32</title>
<g id="a_edge53_Node000029_Node000032"><a xlink:title=" ">
<path fill="none" stroke="#63b8ff" d="M1295.26,-454.66C1287.61,-427.59 1275.7,-385.41 1269.47,-363.33"/>
<polygon fill="#63b8ff" stroke="#63b8ff" points="1292.16,-455.56 1298.25,-464.23 1298.9,-453.66 1292.16,-455.56"/>
</a>
</g>
</g>
<!-- Node32&#45;&gt;Node5 -->
<g id="edge54_Node000032_Node000005" class="edge">
<title>Node32&#45;&gt;Node5</title>
<g id="a_edge54_Node000032_Node000005"><a xlink:title=" ">
<path fill="none" stroke="#63b8ff" d="M1286.19,-323.98C1301.92,-303.97 1318.16,-274.97 1301.35,-254.75 1236.71,-177.02 922.05,-156.3 790.42,-151"/>
<polygon fill="#63b8ff" stroke="#63b8ff" points="1283.05,-321.28 1279.35,-331.21 1288.43,-325.76 1283.05,-321.28"/>
</a>
</g>
</g>
</g>
</svg>
