<?xml version="1.0" encoding="UTF-8" standalone="no"?>
<!DOCTYPE svg PUBLIC "-//W3C//DTD SVG 1.1//EN"
 "http://www.w3.org/Graphics/SVG/1.1/DTD/svg11.dtd">
<!-- Generated by graphviz version 9.0.0 (20230911.1827)
 -->
<!-- Title: engine::core::Layer::HandleGuiRender Pages: 1 -->
<svg width="373pt" height="227pt"
 viewBox="0.00 0.00 373.38 226.75" xmlns="http://www.w3.org/2000/svg" xmlns:xlink="http://www.w3.org/1999/xlink">
<g id="graph0" class="graph" transform="scale(1 1) rotate(0) translate(4 222.75)">
<title>engine::core::Layer::HandleGuiRender</title>
<!-- Node1 -->
<g id="Node000001" class="node">
<title>Node1</title>
<g id="a_Node000001"><a xlink:title=" ">
<polygon fill="#999999" stroke="#666666" points="185.12,-218.75 88.12,-218.75 88.12,-188.25 185.12,-188.25 185.12,-218.75"/>
<text text-anchor="start" x="96.12" y="-205.25" font-family="Helvetica,sans-Serif" font-size="10.00">engine::core::Layer</text>
<text text-anchor="middle" x="136.62" y="-194" font-family="Helvetica,sans-Serif" font-size="10.00">::HandleGuiRender</text>
</a>
</g>
</g>
<!-- Node2 -->
<g id="Node000002" class="node">
<title>Node2</title>
<g id="a_Node000002"><a xlink:href="../../d8/d87/class_controller.html" target="_top" xlink:title=" ">
<polygon fill="white" stroke="#666666" points="57.25,-152.25 0,-152.25 0,-133 57.25,-133 57.25,-152.25"/>
<text text-anchor="middle" x="28.62" y="-138.75" font-family="Helvetica,sans-Serif" font-size="10.00">Controller</text>
</a>
</g>
</g>
<!-- Node1&#45;&gt;Node2 -->
<g id="edge1_Node000001_Node000002" class="edge">
<title>Node1&#45;&gt;Node2</title>
<g id="a_edge1_Node000001_Node000002"><a xlink:title=" ">
<path fill="none" stroke="#63b8ff" d="M99.73,-182.38C81.19,-172.28 59.66,-160.54 45.19,-152.65"/>
<polygon fill="#63b8ff" stroke="#63b8ff" points="97.87,-185.36 108.32,-187.07 101.22,-179.21 97.87,-185.36"/>
</a>
</g>
</g>
<!-- Node3 -->
<g id="Node000003" class="node">
<title>Node3</title>
<g id="a_Node000003"><a xlink:href="../../d6/d88/classengine_1_1core_1_1_layer_stack.html" target="_top" xlink:title=" ">
<polygon fill="white" stroke="#666666" points="197.5,-152.25 75.75,-152.25 75.75,-133 197.5,-133 197.5,-152.25"/>
<text text-anchor="middle" x="136.62" y="-138.75" font-family="Helvetica,sans-Serif" font-size="10.00">engine::core::LayerStack</text>
</a>
</g>
</g>
<!-- Node1&#45;&gt;Node3 -->
<g id="edge2_Node000001_Node000003" class="edge">
<title>Node1&#45;&gt;Node3</title>
<g id="a_edge2_Node000001_Node000003"><a xlink:title=" ">
<path fill="none" stroke="#63b8ff" d="M136.62,-176.48C136.62,-167.98 136.62,-159.09 136.62,-152.7"/>
<polygon fill="#63b8ff" stroke="#63b8ff" points="133.13,-176.43 136.63,-186.43 140.13,-176.43 133.13,-176.43"/>
</a>
</g>
</g>
<!-- Node8 -->
<g id="Node000008" class="node">
<title>Node8</title>
<g id="a_Node000008"><a xlink:href="../../df/df1/classengine_1_1render_1_1_post_processing.html" target="_top" xlink:title=" ">
<polygon fill="white" stroke="#666666" points="365.38,-152.25 215.88,-152.25 215.88,-133 365.38,-133 365.38,-152.25"/>
<text text-anchor="middle" x="290.62" y="-138.75" font-family="Helvetica,sans-Serif" font-size="10.00">engine::render::PostProcessing</text>
</a>
</g>
</g>
<!-- Node1&#45;&gt;Node8 -->
<g id="edge7_Node000001_Node000008" class="edge">
<title>Node1&#45;&gt;Node8</title>
<g id="a_edge7_Node000001_Node000008"><a xlink:title=" ">
<path fill="none" stroke="#63b8ff" d="M185.6,-183.78C212.81,-173.38 245.42,-160.91 267.01,-152.65"/>
<polygon fill="#63b8ff" stroke="#63b8ff" points="184.59,-180.41 176.5,-187.25 187.09,-186.95 184.59,-180.41"/>
</a>
</g>
</g>
<!-- Node4 -->
<g id="Node000004" class="node">
<title>Node4</title>
<g id="a_Node000004"><a xlink:href="../../d2/d5c/classengine_1_1core_1_1_layer_stack_threadsafe.html" target="_top" xlink:title=" ">
<polygon fill="white" stroke="#666666" points="123.5,-97 1.75,-97 1.75,-66.5 123.5,-66.5 123.5,-97"/>
<text text-anchor="start" x="9.75" y="-83.5" font-family="Helvetica,sans-Serif" font-size="10.00">engine::core::LayerStack</text>
<text text-anchor="middle" x="62.62" y="-72.25" font-family="Helvetica,sans-Serif" font-size="10.00">Threadsafe</text>
</a>
</g>
</g>
<!-- Node3&#45;&gt;Node4 -->
<g id="edge3_Node000003_Node000004" class="edge">
<title>Node3&#45;&gt;Node4</title>
<g id="a_edge3_Node000003_Node000004"><a xlink:title=" ">
<path fill="none" stroke="#8b1a1a" d="M116.43,-125.56C105.33,-116.73 91.67,-105.86 80.89,-97.28"/>
<polygon fill="#8b1a1a" stroke="#8b1a1a" points="114.2,-128.25 124.2,-131.74 118.56,-122.78 114.2,-128.25"/>
</a>
</g>
</g>
<!-- Node6 -->
<g id="Node000006" class="node">
<title>Node6</title>
<g id="a_Node000006"><a xlink:href="../../d9/d15/classengine_1_1core_1_1_render_pipeline.html" target="_top" xlink:title=" ">
<polygon fill="white" stroke="#666666" points="279.38,-91.38 141.88,-91.38 141.88,-72.12 279.38,-72.12 279.38,-91.38"/>
<text text-anchor="middle" x="210.62" y="-77.88" font-family="Helvetica,sans-Serif" font-size="10.00">engine::core::RenderPipeline</text>
</a>
</g>
</g>
<!-- Node3&#45;&gt;Node6 -->
<g id="edge5_Node000003_Node000006" class="edge">
<title>Node3&#45;&gt;Node6</title>
<g id="a_edge5_Node000003_Node000006"><a xlink:title=" ">
<path fill="none" stroke="#63b8ff" d="M156.58,-125.75C170.27,-114.86 187.94,-100.8 199.28,-91.78"/>
<polygon fill="#63b8ff" stroke="#63b8ff" points="154.69,-122.78 149.05,-131.74 159.05,-128.25 154.69,-122.78"/>
</a>
</g>
</g>
<!-- Node5 -->
<g id="Node000005" class="node">
<title>Node5</title>
<g id="a_Node000005"><a xlink:href="../../da/d33/classengine_1_1core_1_1_engine.html" target="_top" xlink:title="Represents the core of the engine.">
<polygon fill="white" stroke="#666666" points="113.38,-24.88 11.88,-24.88 11.88,-5.63 113.38,-5.63 113.38,-24.88"/>
<text text-anchor="middle" x="62.62" y="-11.38" font-family="Helvetica,sans-Serif" font-size="10.00">engine::core::Engine</text>
</a>
</g>
</g>
<!-- Node4&#45;&gt;Node5 -->
<g id="edge4_Node000004_Node000005" class="edge">
<title>Node4&#45;&gt;Node5</title>
<g id="a_edge4_Node000004_Node000005"><a xlink:title=" ">
<path fill="none" stroke="#8b1a1a" d="M62.62,-54.84C62.62,-44.26 62.62,-32.75 62.62,-25.07"/>
<polygon fill="#8b1a1a" stroke="#8b1a1a" points="59.13,-54.6 62.63,-64.6 66.13,-54.6 59.13,-54.6"/>
</a>
</g>
</g>
<!-- Node7 -->
<g id="Node000007" class="node">
<title>Node7</title>
<g id="a_Node000007"><a xlink:href="../../d9/d04/classengine_1_1direct3d_1_1_deferred_h_d_r_render_pipeline.html" target="_top" xlink:title=" ">
<polygon fill="white" stroke="#666666" points="273,-30.5 148.25,-30.5 148.25,0 273,0 273,-30.5"/>
<text text-anchor="start" x="156.25" y="-17" font-family="Helvetica,sans-Serif" font-size="10.00">engine::direct3d::Deferred</text>
<text text-anchor="middle" x="210.62" y="-5.75" font-family="Helvetica,sans-Serif" font-size="10.00">HDRRenderPipeline</text>
</a>
</g>
</g>
<!-- Node6&#45;&gt;Node7 -->
<g id="edge6_Node000006_Node000007" class="edge">
<title>Node6&#45;&gt;Node7</title>
<g id="a_edge6_Node000006_Node000007"><a xlink:title=" ">
<path fill="none" stroke="#63b8ff" d="M210.62,-60.37C210.62,-50.69 210.62,-39.35 210.62,-30.59"/>
<polygon fill="#63b8ff" stroke="#63b8ff" points="207.13,-60.27 210.63,-70.27 214.13,-60.27 207.13,-60.27"/>
</a>
</g>
</g>
</g>
</svg>
