<?xml version="1.0" encoding="UTF-8" standalone="no"?>
<!DOCTYPE svg PUBLIC "-//W3C//DTD SVG 1.1//EN"
 "http://www.w3.org/Graphics/SVG/1.1/DTD/svg11.dtd">
<!-- Generated by graphviz version 9.0.0 (20230911.1827)
 -->
<!-- Title: engine/include/win&#45;debug.cpp Pages: 1 -->
<!--zoomable 205 -->

<svg id="main" version="1.1" xmlns="http://www.w3.org/2000/svg" xmlns:xlink="http://www.w3.org/1999/xlink" xml:space="preserve" onload="init(evt)">
<style type="text/css"><![CDATA[
.node, .edge {opacity: 0.7;}
.node.selected, .edge.selected {opacity: 1;}
.edge:hover path { stroke: red; }
.edge:hover polygon { stroke: red; fill: red; }
]]></style>

<defs>
  <circle id="rim" cx="0" cy="0" r="7"/>
  <circle id="rim2" cx="0" cy="0" r="3.5"/>
  <g id="zoomPlus">
    <use xlink:href="#rim" fill="#404040"><set attributeName="fill" to="#808080" begin="zoomplus.mouseover" end="zoomplus.mouseout"/></use>
    <path d="M-4,0h8M0,-4v8" fill="none" stroke="white" stroke-width="1.5" pointer-events="none"/>
  </g>
  <g id="zoomMin">
    <use xlink:href="#rim" fill="#404040"><set attributeName="fill" to="#808080" begin="zoomminus.mouseover" end="zoomminus.mouseout"/></use>
    <path d="M-4,0h8" fill="none" stroke="white" stroke-width="1.5" pointer-events="none"/>
  </g>
  <g id="arrowUp" transform="translate(30 24)">
    <use xlink:href="#rim"/>
    <path pointer-events="none" fill="none" stroke="white" stroke-width="1.5" d="M0,-3.0v7 M-2.5,-0.5L0,-3.0L2.5,-0.5"/>
  </g>
  <g id="arrowRight" transform="rotate(90) translate(36 -43)">
    <use xlink:href="#rim"/>
    <path pointer-events="none" fill="none" stroke="white" stroke-width="1.5" d="M0,-3.0v7 M-2.5,-0.5L0,-3.0L2.5,-0.5"/>
  </g>
  <g id="arrowDown" transform="rotate(180) translate(-30 -48)">
    <use xlink:href="#rim"/>
    <path pointer-events="none" fill="none" stroke="white" stroke-width="1.5" d="M0,-3.0v7 M-2.5,-0.5L0,-3.0L2.5,-0.5"/>
  </g>
  <g id="arrowLeft" transform="rotate(270) translate(-36 17)">
    <use xlink:href="#rim"/>
    <path pointer-events="none" fill="none" stroke="white" stroke-width="1.5" d="M0,-3.0v7 M-2.5,-0.5L0,-3.0L2.5,-0.5"/>
  </g>
  <g id="resetDef">
    <use xlink:href="#rim2" fill="#404040"><set attributeName="fill" to="#808080" begin="reset.mouseover" end="reset.mouseout"/></use>
  </g>
</defs>
<script type="application/ecmascript">
var viewWidth = 3089;
var viewHeight = 205;
var sectionId = 'dynsection-0';
</script>
<script type="application/ecmascript" xlink:href="../../svg.min.js"/>
<svg id="graph" class="graph">
<g id="viewport">
<title>engine/include/win&#45;debug.cpp</title>
<!-- Node1 -->
<g id="Node000001" class="node">
<title>Node1</title>
<g id="a_Node000001"><a xlink:title=" ">
<polygon fill="#999999" stroke="#666666" points="2883.12,-196.69 2786.88,-196.69 2786.88,-166.19 2883.12,-166.19 2883.12,-196.69"/>
<text text-anchor="start" x="2794.88" y="-183.19" font-family="Helvetica,sans-Serif" font-size="10.00">engine/include/win</text>
<text text-anchor="middle" x="2835" y="-171.94" font-family="Helvetica,sans-Serif" font-size="10.00">&#45;debug.cpp</text>
</a>
</g>
</g>
<!-- Node2 -->
<g id="Node000002" class="node">
<title>Node2</title>
<g id="a_Node000002"><a xlink:href="../../dc/d75/win-debug_8hpp.html" target="_top" xlink:title=" ">
<polygon fill="white" stroke="#666666" points="2874.12,-130.19 2795.88,-130.19 2795.88,-110.94 2874.12,-110.94 2874.12,-130.19"/>
<text text-anchor="middle" x="2835" y="-116.69" font-family="Helvetica,sans-Serif" font-size="10.00">win&#45;debug.hpp</text>
</a>
</g>
</g>
<!-- Node1&#45;&gt;Node2 -->
<g id="edge1_Node000001_Node000002" class="edge">
<title>Node1&#45;&gt;Node2</title>
<g id="a_edge1_Node000001_Node000002"><a xlink:title=" ">
<path fill="none" stroke="#63b8ff" d="M2835,-165.89C2835,-158.65 2835,-149.77 2835,-141.88"/>
<polygon fill="#63b8ff" stroke="#63b8ff" points="2838.5,-142.15 2835,-132.15 2831.5,-142.15 2838.5,-142.15"/>
</a>
</g>
</g>
<!-- Node3 -->
<g id="Node000003" class="node">
<title>Node3</title>
<g id="a_Node000003"><a xlink:href="../../db/d6e/library-pch_8hpp.html" target="_top" xlink:title=" ">
<polygon fill="white" stroke="#666666" points="1365,-74.94 1253,-74.94 1253,-55.69 1365,-55.69 1365,-74.94"/>
<text text-anchor="middle" x="1309" y="-61.44" font-family="Helvetica,sans-Serif" font-size="10.00">include/library&#45;pch.hpp</text>
</a>
</g>
</g>
<!-- Node2&#45;&gt;Node3 -->
<g id="edge2_Node000002_Node000003" class="edge">
<title>Node2&#45;&gt;Node3</title>
<g id="a_edge2_Node000002_Node000003"><a xlink:title=" ">
<path fill="none" stroke="#63b8ff" d="M2795.74,-118.19C2590.38,-111.03 1639.13,-77.83 1376.39,-68.67"/>
<polygon fill="#63b8ff" stroke="#63b8ff" points="1376.76,-65.18 1366.64,-68.33 1376.52,-72.17 1376.76,-65.18"/>
</a>
</g>
</g>
<!-- Node41 -->
<g id="Node000041" class="node">
<title>Node41</title>
<g id="a_Node000041"><a xlink:href="../../d4/d98/win_8hpp.html" target="_top" xlink:title=" ">
<polygon fill="white" stroke="#666666" points="2859.5,-74.94 2810.5,-74.94 2810.5,-55.69 2859.5,-55.69 2859.5,-74.94"/>
<text text-anchor="middle" x="2835" y="-61.44" font-family="Helvetica,sans-Serif" font-size="10.00">win.hpp</text>
</a>
</g>
</g>
<!-- Node2&#45;&gt;Node41 -->
<g id="edge41_Node000002_Node000041" class="edge">
<title>Node2&#45;&gt;Node41</title>
<g id="a_edge41_Node000002_Node000041"><a xlink:title=" ">
<path fill="none" stroke="#63b8ff" d="M2835,-110.77C2835,-104.26 2835,-95.11 2835,-86.81"/>
<polygon fill="#63b8ff" stroke="#63b8ff" points="2838.5,-86.81 2835,-76.81 2831.5,-86.81 2838.5,-86.81"/>
</a>
</g>
</g>
<!-- Node47 -->
<g id="Node000047" class="node">
<title>Node47</title>
<g id="a_Node000047"><a xlink:title=" ">
<polygon fill="#e0e0e0" stroke="#999999" points="2930,-74.94 2878,-74.94 2878,-55.69 2930,-55.69 2930,-74.94"/>
<text text-anchor="middle" x="2904" y="-61.44" font-family="Helvetica,sans-Serif" font-size="10.00">malloc.h</text>
</a>
</g>
</g>
<!-- Node2&#45;&gt;Node47 -->
<g id="edge47_Node000002_Node000047" class="edge">
<title>Node2&#45;&gt;Node47</title>
<g id="a_edge47_Node000002_Node000047"><a xlink:title=" ">
<path fill="none" stroke="#63b8ff" d="M2846.7,-110.53C2856.78,-102.76 2871.54,-91.36 2883.56,-82.09"/>
<polygon fill="#63b8ff" stroke="#63b8ff" points="2885.49,-85.02 2891.27,-76.14 2881.21,-79.48 2885.49,-85.02"/>
</a>
</g>
</g>
<!-- Node4 -->
<g id="Node000004" class="node">
<title>Node4</title>
<g id="a_Node000004"><a xlink:title=" ">
<polygon fill="#e0e0e0" stroke="#999999" points="70,-19.69 0,-19.69 0,-0.44 70,-0.44 70,-19.69"/>
<text text-anchor="middle" x="35" y="-6.19" font-family="Helvetica,sans-Serif" font-size="10.00">entt/entt.hpp</text>
</a>
</g>
</g>
<!-- Node3&#45;&gt;Node4 -->
<g id="edge3_Node000003_Node000004" class="edge">
<title>Node3&#45;&gt;Node4</title>
<g id="a_edge3_Node000003_Node000004"><a xlink:title=" ">
<path fill="none" stroke="#63b8ff" d="M1252.84,-63.45C1046.98,-60.11 333.1,-46.88 81.73,-19.77"/>
<polygon fill="#63b8ff" stroke="#63b8ff" points="82.3,-16.32 71.97,-18.68 81.52,-23.27 82.3,-16.32"/>
</a>
</g>
</g>
<!-- Node5 -->
<g id="Node000005" class="node">
<title>Node5</title>
<g id="a_Node000005"><a xlink:title=" ">
<polygon fill="#e0e0e0" stroke="#999999" points="143.88,-19.69 88.12,-19.69 88.12,-0.44 143.88,-0.44 143.88,-19.69"/>
<text text-anchor="middle" x="116" y="-6.19" font-family="Helvetica,sans-Serif" font-size="10.00">algorithm</text>
</a>
</g>
</g>
<!-- Node3&#45;&gt;Node5 -->
<g id="edge4_Node000003_Node000005" class="edge">
<title>Node3&#45;&gt;Node5</title>
<g id="a_edge4_Node000003_Node000005"><a xlink:title=" ">
<path fill="none" stroke="#63b8ff" d="M1252.71,-63.61C1054.76,-60.9 390.33,-49.86 155.39,-19.86"/>
<polygon fill="#63b8ff" stroke="#63b8ff" points="156.07,-16.42 145.7,-18.57 155.15,-23.36 156.07,-16.42"/>
</a>
</g>
</g>
<!-- Node6 -->
<g id="Node000006" class="node">
<title>Node6</title>
<g id="a_Node000006"><a xlink:title=" ">
<polygon fill="#e0e0e0" stroke="#999999" points="198.5,-19.69 161.5,-19.69 161.5,-0.44 198.5,-0.44 198.5,-19.69"/>
<text text-anchor="middle" x="180" y="-6.19" font-family="Helvetica,sans-Serif" font-size="10.00">array</text>
</a>
</g>
</g>
<!-- Node3&#45;&gt;Node6 -->
<g id="edge5_Node000003_Node000006" class="edge">
<title>Node3&#45;&gt;Node6</title>
<g id="a_edge5_Node000003_Node000006"><a xlink:title=" ">
<path fill="none" stroke="#63b8ff" d="M1252.69,-63.95C1061.02,-62.41 433.93,-54.9 210.12,-19.46"/>
<polygon fill="#63b8ff" stroke="#63b8ff" points="210.75,-16.01 200.31,-17.83 209.6,-22.92 210.75,-16.01"/>
</a>
</g>
</g>
<!-- Node7 -->
<g id="Node000007" class="node">
<title>Node7</title>
<g id="a_Node000007"><a xlink:title=" ">
<polygon fill="#e0e0e0" stroke="#999999" points="267.25,-19.69 216.75,-19.69 216.75,-0.44 267.25,-0.44 267.25,-19.69"/>
<text text-anchor="middle" x="242" y="-6.19" font-family="Helvetica,sans-Serif" font-size="10.00">assert.h</text>
</a>
</g>
</g>
<!-- Node3&#45;&gt;Node7 -->
<g id="edge6_Node000003_Node000007" class="edge">
<title>Node3&#45;&gt;Node7</title>
<g id="a_edge6_Node000003_Node000007"><a xlink:title=" ">
<path fill="none" stroke="#63b8ff" d="M1252.69,-63.4C1069.15,-60.2 488.43,-48.17 278.7,-19.72"/>
<polygon fill="#63b8ff" stroke="#63b8ff" points="279.4,-16.28 269,-18.34 278.41,-23.21 279.4,-16.28"/>
</a>
</g>
</g>
<!-- Node8 -->
<g id="Node000008" class="node">
<title>Node8</title>
<g id="a_Node000008"><a xlink:title=" ">
<polygon fill="#e0e0e0" stroke="#999999" points="330.62,-19.69 285.38,-19.69 285.38,-0.44 330.62,-0.44 330.62,-19.69"/>
<text text-anchor="middle" x="308" y="-6.19" font-family="Helvetica,sans-Serif" font-size="10.00">chrono</text>
</a>
</g>
</g>
<!-- Node3&#45;&gt;Node8 -->
<g id="edge7_Node000003_Node000008" class="edge">
<title>Node3&#45;&gt;Node8</title>
<g id="a_edge7_Node000003_Node000008"><a xlink:title=" ">
<path fill="none" stroke="#63b8ff" d="M1252.68,-63.39C1076.82,-60.24 538.4,-48.61 342.21,-19.8"/>
<polygon fill="#63b8ff" stroke="#63b8ff" points="342.81,-16.35 332.39,-18.28 341.74,-23.27 342.81,-16.35"/>
</a>
</g>
</g>
<!-- Node9 -->
<g id="Node000009" class="node">
<title>Node9</title>
<g id="a_Node000009"><a xlink:title=" ">
<polygon fill="#e0e0e0" stroke="#999999" points="391.5,-19.69 348.5,-19.69 348.5,-0.44 391.5,-0.44 391.5,-19.69"/>
<text text-anchor="middle" x="370" y="-6.19" font-family="Helvetica,sans-Serif" font-size="10.00">cmath</text>
</a>
</g>
</g>
<!-- Node3&#45;&gt;Node9 -->
<g id="edge8_Node000003_Node000009" class="edge">
<title>Node3&#45;&gt;Node9</title>
<g id="a_edge8_Node000003_Node000009"><a xlink:title=" ">
<path fill="none" stroke="#63b8ff" d="M1252.62,-63.25C1084.31,-59.81 586.32,-47.65 402.92,-19.74"/>
<polygon fill="#63b8ff" stroke="#63b8ff" points="403.74,-16.33 393.32,-18.21 402.64,-23.24 403.74,-16.33"/>
</a>
</g>
</g>
<!-- Node10 -->
<g id="Node000010" class="node">
<title>Node10</title>
<g id="a_Node000010"><a xlink:title=" ">
<polygon fill="#e0e0e0" stroke="#999999" points="464.88,-19.69 409.12,-19.69 409.12,-0.44 464.88,-0.44 464.88,-19.69"/>
<text text-anchor="middle" x="437" y="-6.19" font-family="Helvetica,sans-Serif" font-size="10.00">concepts</text>
</a>
</g>
</g>
<!-- Node3&#45;&gt;Node10 -->
<g id="edge9_Node000003_Node000010" class="edge">
<title>Node3&#45;&gt;Node10</title>
<g id="a_edge9_Node000003_Node000010"><a xlink:title=" ">
<path fill="none" stroke="#63b8ff" d="M1252.72,-64.7C1119.33,-64.9 773.45,-61.13 476.18,-19.72"/>
<polygon fill="#63b8ff" stroke="#63b8ff" points="477.08,-16.32 466.68,-18.38 476.1,-23.25 477.08,-16.32"/>
</a>
</g>
</g>
<!-- Node11 -->
<g id="Node000011" class="node">
<title>Node11</title>
<g id="a_Node000011"><a xlink:title=" ">
<polygon fill="#e0e0e0" stroke="#999999" points="577,-19.69 483,-19.69 483,-0.44 577,-0.44 577,-19.69"/>
<text text-anchor="middle" x="530" y="-6.19" font-family="Helvetica,sans-Serif" font-size="10.00">condition_variable</text>
</a>
</g>
</g>
<!-- Node3&#45;&gt;Node11 -->
<g id="edge10_Node000003_Node000011" class="edge">
<title>Node3&#45;&gt;Node11</title>
<g id="a_edge10_Node000003_Node000011"><a xlink:title=" ">
<path fill="none" stroke="#63b8ff" d="M1252.6,-62.58C1132.47,-58.52 842.24,-46.69 588.6,-19.87"/>
<polygon fill="#63b8ff" stroke="#63b8ff" points="589.14,-16.4 578.82,-18.82 588.39,-23.37 589.14,-16.4"/>
</a>
</g>
</g>
<!-- Node12 -->
<g id="Node000012" class="node">
<title>Node12</title>
<g id="a_Node000012"><a xlink:title=" ">
<polygon fill="#e0e0e0" stroke="#999999" points="640.62,-19.69 595.38,-19.69 595.38,-0.44 640.62,-0.44 640.62,-19.69"/>
<text text-anchor="middle" x="618" y="-6.19" font-family="Helvetica,sans-Serif" font-size="10.00">cstdint</text>
</a>
</g>
</g>
<!-- Node3&#45;&gt;Node12 -->
<g id="edge11_Node000003_Node000012" class="edge">
<title>Node3&#45;&gt;Node12</title>
<g id="a_edge11_Node000003_Node000012"><a xlink:title=" ">
<path fill="none" stroke="#63b8ff" d="M1252.59,-64.2C1140,-63.16 879.41,-56.77 652.09,-19.67"/>
<polygon fill="#63b8ff" stroke="#63b8ff" points="652.88,-16.26 642.45,-18.07 651.74,-23.16 652.88,-16.26"/>
</a>
</g>
</g>
<!-- Node13 -->
<g id="Node000013" class="node">
<title>Node13</title>
<g id="a_Node000013"><a xlink:title=" ">
<polygon fill="#e0e0e0" stroke="#999999" points="703.25,-19.69 658.75,-19.69 658.75,-0.44 703.25,-0.44 703.25,-19.69"/>
<text text-anchor="middle" x="681" y="-6.19" font-family="Helvetica,sans-Serif" font-size="10.00">cstdlib</text>
</a>
</g>
</g>
<!-- Node3&#45;&gt;Node13 -->
<g id="edge12_Node000003_Node000013" class="edge">
<title>Node3&#45;&gt;Node13</title>
<g id="a_edge12_Node000003_Node000013"><a xlink:title=" ">
<path fill="none" stroke="#63b8ff" d="M1252.58,-63.78C1148.02,-62 917.12,-54.32 714.71,-19.83"/>
<polygon fill="#63b8ff" stroke="#63b8ff" points="715.51,-16.41 705.06,-18.15 714.32,-23.31 715.51,-16.41"/>
</a>
</g>
</g>
<!-- Node14 -->
<g id="Node000014" class="node">
<title>Node14</title>
<g id="a_Node000014"><a xlink:title=" ">
<polygon fill="#e0e0e0" stroke="#999999" points="780.75,-19.69 721.25,-19.69 721.25,-0.44 780.75,-0.44 780.75,-19.69"/>
<text text-anchor="middle" x="751" y="-6.19" font-family="Helvetica,sans-Serif" font-size="10.00">filesystem</text>
</a>
</g>
</g>
<!-- Node3&#45;&gt;Node14 -->
<g id="edge13_Node000003_Node000014" class="edge">
<title>Node3&#45;&gt;Node14</title>
<g id="a_edge13_Node000003_Node000014"><a xlink:title=" ">
<path fill="none" stroke="#63b8ff" d="M1252.52,-62.01C1158.77,-57.64 964.98,-46.25 792.54,-20.06"/>
<polygon fill="#63b8ff" stroke="#63b8ff" points="793.12,-16.61 782.71,-18.55 792.06,-23.53 793.12,-16.61"/>
</a>
</g>
</g>
<!-- Node15 -->
<g id="Node000015" class="node">
<title>Node15</title>
<g id="a_Node000015"><a xlink:title=" ">
<polygon fill="#e0e0e0" stroke="#999999" points="847.5,-19.69 798.5,-19.69 798.5,-0.44 847.5,-0.44 847.5,-19.69"/>
<text text-anchor="middle" x="823" y="-6.19" font-family="Helvetica,sans-Serif" font-size="10.00">fstream</text>
</a>
</g>
</g>
<!-- Node3&#45;&gt;Node15 -->
<g id="edge14_Node000003_Node000015" class="edge">
<title>Node3&#45;&gt;Node15</title>
<g id="a_edge14_Node000003_Node000015"><a xlink:title=" ">
<path fill="none" stroke="#63b8ff" d="M1252.61,-61.47C1168.81,-56.65 1006.35,-45.01 858.83,-19.73"/>
<polygon fill="#63b8ff" stroke="#63b8ff" points="859.73,-16.34 849.28,-18.07 858.53,-23.23 859.73,-16.34"/>
</a>
</g>
</g>
<!-- Node16 -->
<g id="Node000016" class="node">
<title>Node16</title>
<g id="a_Node000016"><a xlink:title=" ">
<polygon fill="#e0e0e0" stroke="#999999" points="924,-19.69 866,-19.69 866,-0.44 924,-0.44 924,-19.69"/>
<text text-anchor="middle" x="895" y="-6.19" font-family="Helvetica,sans-Serif" font-size="10.00">functional</text>
</a>
</g>
</g>
<!-- Node3&#45;&gt;Node16 -->
<g id="edge15_Node000003_Node000016" class="edge">
<title>Node3&#45;&gt;Node16</title>
<g id="a_edge15_Node000003_Node000016"><a xlink:title=" ">
<path fill="none" stroke="#63b8ff" d="M1252.68,-59.49C1181.15,-52.95 1053.73,-39.93 935.45,-19.95"/>
<polygon fill="#63b8ff" stroke="#63b8ff" points="936.34,-16.55 925.89,-18.31 935.15,-23.45 936.34,-16.55"/>
</a>
</g>
</g>
<!-- Node17 -->
<g id="Node000017" class="node">
<title>Node17</title>
<g id="a_Node000017"><a xlink:title=" ">
<polygon fill="#e0e0e0" stroke="#999999" points="991.88,-19.69 942.12,-19.69 942.12,-0.44 991.88,-0.44 991.88,-19.69"/>
<text text-anchor="middle" x="967" y="-6.19" font-family="Helvetica,sans-Serif" font-size="10.00">iomanip</text>
</a>
</g>
</g>
<!-- Node3&#45;&gt;Node17 -->
<g id="edge16_Node000003_Node000017" class="edge">
<title>Node3&#45;&gt;Node17</title>
<g id="a_edge16_Node000003_Node000017"><a xlink:title=" ">
<path fill="none" stroke="#63b8ff" d="M1252.78,-57.96C1193.22,-50.83 1096.25,-38.08 1003.48,-20"/>
<polygon fill="#63b8ff" stroke="#63b8ff" points="1004.16,-16.56 993.67,-18.06 1002.8,-23.43 1004.16,-16.56"/>
</a>
</g>
</g>
<!-- Node18 -->
<g id="Node000018" class="node">
<title>Node18</title>
<g id="a_Node000018"><a xlink:title=" ">
<polygon fill="#e0e0e0" stroke="#999999" points="1058.12,-19.69 1009.88,-19.69 1009.88,-0.44 1058.12,-0.44 1058.12,-19.69"/>
<text text-anchor="middle" x="1034" y="-6.19" font-family="Helvetica,sans-Serif" font-size="10.00">istream</text>
</a>
</g>
</g>
<!-- Node3&#45;&gt;Node18 -->
<g id="edge17_Node000003_Node000018" class="edge">
<title>Node3&#45;&gt;Node18</title>
<g id="a_edge17_Node000003_Node000018"><a xlink:title=" ">
<path fill="none" stroke="#63b8ff" d="M1253.5,-55.27C1206.8,-47.39 1138.02,-35.16 1069.46,-20.11"/>
<polygon fill="#63b8ff" stroke="#63b8ff" points="1070.46,-16.75 1059.94,-18 1068.94,-23.58 1070.46,-16.75"/>
</a>
</g>
</g>
<!-- Node19 -->
<g id="Node000019" class="node">
<title>Node19</title>
<g id="a_Node000019"><a xlink:title=" ">
<polygon fill="#e0e0e0" stroke="#999999" points="1115.62,-19.69 1076.38,-19.69 1076.38,-0.44 1115.62,-0.44 1115.62,-19.69"/>
<text text-anchor="middle" x="1096" y="-6.19" font-family="Helvetica,sans-Serif" font-size="10.00">limits</text>
</a>
</g>
</g>
<!-- Node3&#45;&gt;Node19 -->
<g id="edge18_Node000003_Node000019" class="edge">
<title>Node3&#45;&gt;Node19</title>
<g id="a_edge18_Node000003_Node000019"><a xlink:title=" ">
<path fill="none" stroke="#63b8ff" d="M1269.01,-55.24C1233.97,-47.15 1181.43,-34.68 1126.87,-20.08"/>
<polygon fill="#63b8ff" stroke="#63b8ff" points="1127.96,-16.75 1117.39,-17.53 1126.14,-23.51 1127.96,-16.75"/>
</a>
</g>
</g>
<!-- Node20 -->
<g id="Node000020" class="node">
<title>Node20</title>
<g id="a_Node000020"><a xlink:title=" ">
<polygon fill="#e0e0e0" stroke="#999999" points="1168.38,-19.69 1133.62,-19.69 1133.62,-0.44 1168.38,-0.44 1168.38,-19.69"/>
<text text-anchor="middle" x="1151" y="-6.19" font-family="Helvetica,sans-Serif" font-size="10.00">map</text>
</a>
</g>
</g>
<!-- Node3&#45;&gt;Node20 -->
<g id="edge19_Node000003_Node000020" class="edge">
<title>Node3&#45;&gt;Node20</title>
<g id="a_edge19_Node000003_Node000020"><a xlink:title=" ">
<path fill="none" stroke="#63b8ff" d="M1282.2,-55.28C1253.59,-45.64 1208.47,-30.43 1179.3,-20.6"/>
<polygon fill="#63b8ff" stroke="#63b8ff" points="1180.64,-17.36 1170.04,-17.48 1178.4,-23.99 1180.64,-17.36"/>
</a>
</g>
</g>
<!-- Node21 -->
<g id="Node000021" class="node">
<title>Node21</title>
<g id="a_Node000021"><a xlink:title=" ">
<polygon fill="#e0e0e0" stroke="#999999" points="1237.25,-19.69 1186.75,-19.69 1186.75,-0.44 1237.25,-0.44 1237.25,-19.69"/>
<text text-anchor="middle" x="1212" y="-6.19" font-family="Helvetica,sans-Serif" font-size="10.00">memory</text>
</a>
</g>
</g>
<!-- Node3&#45;&gt;Node21 -->
<g id="edge20_Node000003_Node000021" class="edge">
<title>Node3&#45;&gt;Node21</title>
<g id="a_edge20_Node000003_Node000021"><a xlink:title=" ">
<path fill="none" stroke="#63b8ff" d="M1292.55,-55.28C1277.77,-47.17 1255.82,-35.12 1238.57,-25.65"/>
<polygon fill="#63b8ff" stroke="#63b8ff" points="1240.31,-22.61 1229.86,-20.87 1236.94,-28.75 1240.31,-22.61"/>
</a>
</g>
</g>
<!-- Node22 -->
<g id="Node000022" class="node">
<title>Node22</title>
<g id="a_Node000022"><a xlink:title=" ">
<polygon fill="#e0e0e0" stroke="#999999" points="1297.12,-19.69 1254.88,-19.69 1254.88,-0.44 1297.12,-0.44 1297.12,-19.69"/>
<text text-anchor="middle" x="1276" y="-6.19" font-family="Helvetica,sans-Serif" font-size="10.00">mutex</text>
</a>
</g>
</g>
<!-- Node3&#45;&gt;Node22 -->
<g id="edge21_Node000003_Node000022" class="edge">
<title>Node3&#45;&gt;Node22</title>
<g id="a_edge21_Node000003_Node000022"><a xlink:title=" ">
<path fill="none" stroke="#63b8ff" d="M1303.55,-55.52C1299.23,-48.55 1293.04,-38.56 1287.62,-29.81"/>
<polygon fill="#63b8ff" stroke="#63b8ff" points="1290.61,-27.99 1282.36,-21.33 1284.66,-31.68 1290.61,-27.99"/>
</a>
</g>
</g>
<!-- Node23 -->
<g id="Node000023" class="node">
<title>Node23</title>
<g id="a_Node000023"><a xlink:title=" ">
<polygon fill="#e0e0e0" stroke="#999999" points="1368.75,-19.69 1315.25,-19.69 1315.25,-0.44 1368.75,-0.44 1368.75,-19.69"/>
<text text-anchor="middle" x="1342" y="-6.19" font-family="Helvetica,sans-Serif" font-size="10.00">numbers</text>
</a>
</g>
</g>
<!-- Node3&#45;&gt;Node23 -->
<g id="edge22_Node000003_Node000023" class="edge">
<title>Node3&#45;&gt;Node23</title>
<g id="a_edge22_Node000003_Node000023"><a xlink:title=" ">
<path fill="none" stroke="#63b8ff" d="M1314.45,-55.52C1318.77,-48.55 1324.96,-38.56 1330.38,-29.81"/>
<polygon fill="#63b8ff" stroke="#63b8ff" points="1333.34,-31.68 1335.64,-21.33 1327.39,-27.99 1333.34,-31.68"/>
</a>
</g>
</g>
<!-- Node24 -->
<g id="Node000024" class="node">
<title>Node24</title>
<g id="a_Node000024"><a xlink:title=" ">
<polygon fill="#e0e0e0" stroke="#999999" points="1437.25,-19.69 1386.75,-19.69 1386.75,-0.44 1437.25,-0.44 1437.25,-19.69"/>
<text text-anchor="middle" x="1412" y="-6.19" font-family="Helvetica,sans-Serif" font-size="10.00">numeric</text>
</a>
</g>
</g>
<!-- Node3&#45;&gt;Node24 -->
<g id="edge23_Node000003_Node000024" class="edge">
<title>Node3&#45;&gt;Node24</title>
<g id="a_edge23_Node000003_Node000024"><a xlink:title=" ">
<path fill="none" stroke="#63b8ff" d="M1326.47,-55.28C1342.31,-47.1 1365.91,-34.89 1384.31,-25.38"/>
<polygon fill="#63b8ff" stroke="#63b8ff" points="1385.82,-28.54 1393.1,-20.84 1382.61,-22.32 1385.82,-28.54"/>
</a>
</g>
</g>
<!-- Node25 -->
<g id="Node000025" class="node">
<title>Node25</title>
<g id="a_Node000025"><a xlink:title=" ">
<polygon fill="#e0e0e0" stroke="#999999" points="1504.88,-19.69 1455.12,-19.69 1455.12,-0.44 1504.88,-0.44 1504.88,-19.69"/>
<text text-anchor="middle" x="1480" y="-6.19" font-family="Helvetica,sans-Serif" font-size="10.00">optional</text>
</a>
</g>
</g>
<!-- Node3&#45;&gt;Node25 -->
<g id="edge24_Node000003_Node000025" class="edge">
<title>Node3&#45;&gt;Node25</title>
<g id="a_edge24_Node000003_Node000025"><a xlink:title=" ">
<path fill="none" stroke="#63b8ff" d="M1338.01,-55.28C1367.2,-46.19 1412.3,-32.15 1443.82,-22.33"/>
<polygon fill="#63b8ff" stroke="#63b8ff" points="1444.8,-25.69 1453.31,-19.37 1442.72,-19.01 1444.8,-25.69"/>
</a>
</g>
</g>
<!-- Node26 -->
<g id="Node000026" class="node">
<title>Node26</title>
<g id="a_Node000026"><a xlink:title=" ">
<polygon fill="#e0e0e0" stroke="#999999" points="1574.62,-19.69 1523.38,-19.69 1523.38,-0.44 1574.62,-0.44 1574.62,-19.69"/>
<text text-anchor="middle" x="1549" y="-6.19" font-family="Helvetica,sans-Serif" font-size="10.00">ostream</text>
</a>
</g>
</g>
<!-- Node3&#45;&gt;Node26 -->
<g id="edge25_Node000003_Node000026" class="edge">
<title>Node3&#45;&gt;Node26</title>
<g id="a_edge25_Node000003_Node000026"><a xlink:title=" ">
<path fill="none" stroke="#63b8ff" d="M1352.27,-55.25C1391.46,-46.97 1451.06,-34.17 1512.03,-20.1"/>
<polygon fill="#63b8ff" stroke="#63b8ff" points="1512.6,-23.56 1521.55,-17.89 1511.02,-16.74 1512.6,-23.56"/>
</a>
</g>
</g>
<!-- Node27 -->
<g id="Node000027" class="node">
<title>Node27</title>
<g id="a_Node000027"><a xlink:title=" ">
<polygon fill="#e0e0e0" stroke="#999999" points="1669.38,-19.69 1592.62,-19.69 1592.62,-0.44 1669.38,-0.44 1669.38,-19.69"/>
<text text-anchor="middle" x="1631" y="-6.19" font-family="Helvetica,sans-Serif" font-size="10.00">shared_mutex</text>
</a>
</g>
</g>
<!-- Node3&#45;&gt;Node27 -->
<g id="edge26_Node000003_Node000027" class="edge">
<title>Node3&#45;&gt;Node27</title>
<g id="a_edge26_Node000003_Node000027"><a xlink:title=" ">
<path fill="none" stroke="#63b8ff" d="M1365.41,-55.51C1418.54,-47.14 1500.67,-33.99 1580.97,-20.19"/>
<polygon fill="#63b8ff" stroke="#63b8ff" points="1581.53,-23.64 1590.79,-18.49 1580.34,-16.74 1581.53,-23.64"/>
</a>
</g>
</g>
<!-- Node28 -->
<g id="Node000028" class="node">
<title>Node28</title>
<g id="a_Node000028"><a xlink:title=" ">
<polygon fill="#e0e0e0" stroke="#999999" points="1724.5,-19.69 1687.5,-19.69 1687.5,-0.44 1724.5,-0.44 1724.5,-19.69"/>
<text text-anchor="middle" x="1706" y="-6.19" font-family="Helvetica,sans-Serif" font-size="10.00">span</text>
</a>
</g>
</g>
<!-- Node3&#45;&gt;Node28 -->
<g id="edge27_Node000003_Node000028" class="edge">
<title>Node3&#45;&gt;Node28</title>
<g id="a_edge27_Node000003_Node000028"><a xlink:title=" ">
<path fill="none" stroke="#63b8ff" d="M1365.46,-60.63C1436.03,-55.33 1560.56,-43.71 1676,-19.73"/>
<polygon fill="#63b8ff" stroke="#63b8ff" points="1676.6,-23.18 1685.66,-17.69 1675.15,-16.33 1676.6,-23.18"/>
</a>
</g>
</g>
<!-- Node29 -->
<g id="Node000029" class="node">
<title>Node29</title>
<g id="a_Node000029"><a xlink:title=" ">
<polygon fill="#e0e0e0" stroke="#999999" points="1793.62,-19.69 1742.38,-19.69 1742.38,-0.44 1793.62,-0.44 1793.62,-19.69"/>
<text text-anchor="middle" x="1768" y="-6.19" font-family="Helvetica,sans-Serif" font-size="10.00">sstream</text>
</a>
</g>
</g>
<!-- Node3&#45;&gt;Node29 -->
<g id="edge28_Node000003_Node000029" class="edge">
<title>Node3&#45;&gt;Node29</title>
<g id="a_edge28_Node000003_Node000029"><a xlink:title=" ">
<path fill="none" stroke="#63b8ff" d="M1365.24,-60.85C1444.61,-55.43 1594.16,-43.22 1731,-19.8"/>
<polygon fill="#63b8ff" stroke="#63b8ff" points="1731.35,-23.29 1740.6,-18.13 1730.15,-16.39 1731.35,-23.29"/>
</a>
</g>
</g>
<!-- Node30 -->
<g id="Node000030" class="node">
<title>Node30</title>
<g id="a_Node000030"><a xlink:title=" ">
<polygon fill="#e0e0e0" stroke="#999999" points="1870,-19.69 1812,-19.69 1812,-0.44 1870,-0.44 1870,-19.69"/>
<text text-anchor="middle" x="1841" y="-6.19" font-family="Helvetica,sans-Serif" font-size="10.00">stdexcept</text>
</a>
</g>
</g>
<!-- Node3&#45;&gt;Node30 -->
<g id="edge29_Node000003_Node000030" class="edge">
<title>Node3&#45;&gt;Node30</title>
<g id="a_edge29_Node000003_Node000030"><a xlink:title=" ">
<path fill="none" stroke="#63b8ff" d="M1365.23,-61.67C1455.16,-56.92 1637.02,-45.12 1800.39,-19.9"/>
<polygon fill="#63b8ff" stroke="#63b8ff" points="1800.78,-23.38 1810.12,-18.37 1799.7,-16.46 1800.78,-23.38"/>
</a>
</g>
</g>
<!-- Node31 -->
<g id="Node000031" class="node">
<title>Node31</title>
<g id="a_Node000031"><a xlink:title=" ">
<polygon fill="#e0e0e0" stroke="#999999" points="1935.75,-19.69 1888.25,-19.69 1888.25,-0.44 1935.75,-0.44 1935.75,-19.69"/>
<text text-anchor="middle" x="1912" y="-6.19" font-family="Helvetica,sans-Serif" font-size="10.00">stdint.h</text>
</a>
</g>
</g>
<!-- Node3&#45;&gt;Node31 -->
<g id="edge30_Node000003_Node000031" class="edge">
<title>Node3&#45;&gt;Node31</title>
<g id="a_edge30_Node000003_Node000031"><a xlink:title=" ">
<path fill="none" stroke="#63b8ff" d="M1365.23,-63.21C1465.99,-60.53 1684.03,-51.45 1876.76,-19.75"/>
<polygon fill="#63b8ff" stroke="#63b8ff" points="1877.18,-23.23 1886.46,-18.12 1876.02,-16.32 1877.18,-23.23"/>
</a>
</g>
</g>
<!-- Node32 -->
<g id="Node000032" class="node">
<title>Node32</title>
<g id="a_Node000032"><a xlink:title=" ">
<polygon fill="#e0e0e0" stroke="#999999" points="1994,-19.69 1954,-19.69 1954,-0.44 1994,-0.44 1994,-19.69"/>
<text text-anchor="middle" x="1974" y="-6.19" font-family="Helvetica,sans-Serif" font-size="10.00">string</text>
</a>
</g>
</g>
<!-- Node3&#45;&gt;Node32 -->
<g id="edge31_Node000003_Node000032" class="edge">
<title>Node3&#45;&gt;Node32</title>
<g id="a_edge31_Node000003_Node000032"><a xlink:title=" ">
<path fill="none" stroke="#63b8ff" d="M1365.23,-64.48C1474.85,-63.92 1724.71,-58.29 1942.22,-19.79"/>
<polygon fill="#63b8ff" stroke="#63b8ff" points="1942.83,-23.24 1952.05,-18.02 1941.59,-16.35 1942.83,-23.24"/>
</a>
</g>
</g>
<!-- Node33 -->
<g id="Node000033" class="node">
<title>Node33</title>
<g id="a_Node000033"><a xlink:title=" ">
<polygon fill="#e0e0e0" stroke="#999999" points="2055.5,-19.69 2012.5,-19.69 2012.5,-0.44 2055.5,-0.44 2055.5,-19.69"/>
<text text-anchor="middle" x="2034" y="-6.19" font-family="Helvetica,sans-Serif" font-size="10.00">thread</text>
</a>
</g>
</g>
<!-- Node3&#45;&gt;Node33 -->
<g id="edge32_Node000003_Node000033" class="edge">
<title>Node3&#45;&gt;Node33</title>
<g id="a_edge32_Node000003_Node000033"><a xlink:title=" ">
<path fill="none" stroke="#63b8ff" d="M1365.23,-64.62C1482.14,-64.43 1759.92,-59.56 2001.02,-19.62"/>
<polygon fill="#63b8ff" stroke="#63b8ff" points="2001.34,-23.12 2010.62,-18.01 2000.18,-16.22 2001.34,-23.12"/>
</a>
</g>
</g>
<!-- Node34 -->
<g id="Node000034" class="node">
<title>Node34</title>
<g id="a_Node000034"><a xlink:title=" ">
<polygon fill="#e0e0e0" stroke="#999999" points="2134.5,-19.69 2073.5,-19.69 2073.5,-0.44 2134.5,-0.44 2134.5,-19.69"/>
<text text-anchor="middle" x="2104" y="-6.19" font-family="Helvetica,sans-Serif" font-size="10.00">type_traits</text>
</a>
</g>
</g>
<!-- Node3&#45;&gt;Node34 -->
<g id="edge33_Node000003_Node000034" class="edge">
<title>Node3&#45;&gt;Node34</title>
<g id="a_edge33_Node000003_Node000034"><a xlink:title=" ">
<path fill="none" stroke="#63b8ff" d="M1365.17,-63.93C1489.2,-62.45 1795.92,-55.33 2062.03,-19.72"/>
<polygon fill="#63b8ff" stroke="#63b8ff" points="2062.14,-23.24 2071.57,-18.43 2061.19,-16.3 2062.14,-23.24"/>
</a>
</g>
</g>
<!-- Node35 -->
<g id="Node000035" class="node">
<title>Node35</title>
<g id="a_Node000035"><a xlink:title=" ">
<polygon fill="#e0e0e0" stroke="#999999" points="2229.75,-19.69 2152.25,-19.69 2152.25,-0.44 2229.75,-0.44 2229.75,-19.69"/>
<text text-anchor="middle" x="2191" y="-6.19" font-family="Helvetica,sans-Serif" font-size="10.00">unordered_set</text>
</a>
</g>
</g>
<!-- Node3&#45;&gt;Node35 -->
<g id="edge34_Node000003_Node000035" class="edge">
<title>Node3&#45;&gt;Node35</title>
<g id="a_edge34_Node000003_Node000035"><a xlink:title=" ">
<path fill="none" stroke="#63b8ff" d="M1365.33,-63.71C1498.48,-61.77 1843.15,-53.72 2140.75,-19.79"/>
<polygon fill="#63b8ff" stroke="#63b8ff" points="2140.73,-23.32 2150.26,-18.7 2139.93,-16.37 2140.73,-23.32"/>
</a>
</g>
</g>
<!-- Node36 -->
<g id="Node000036" class="node">
<title>Node36</title>
<g id="a_Node000036"><a xlink:title=" ">
<polygon fill="#e0e0e0" stroke="#999999" points="2292.62,-19.69 2247.38,-19.69 2247.38,-0.44 2292.62,-0.44 2292.62,-19.69"/>
<text text-anchor="middle" x="2270" y="-6.19" font-family="Helvetica,sans-Serif" font-size="10.00">variant</text>
</a>
</g>
</g>
<!-- Node3&#45;&gt;Node36 -->
<g id="edge35_Node000003_Node000036" class="edge">
<title>Node3&#45;&gt;Node36</title>
<g id="a_edge35_Node000003_Node000036"><a xlink:title=" ">
<path fill="none" stroke="#63b8ff" d="M1365.44,-63.26C1536.38,-59.8 2047.77,-47.53 2235.73,-19.81"/>
<polygon fill="#63b8ff" stroke="#63b8ff" points="2236.26,-23.27 2245.61,-18.28 2235.19,-16.35 2236.26,-23.27"/>
</a>
</g>
</g>
<!-- Node37 -->
<g id="Node000037" class="node">
<title>Node37</title>
<g id="a_Node000037"><a xlink:title=" ">
<polygon fill="#e0e0e0" stroke="#999999" points="2353.5,-19.69 2310.5,-19.69 2310.5,-0.44 2353.5,-0.44 2353.5,-19.69"/>
<text text-anchor="middle" x="2332" y="-6.19" font-family="Helvetica,sans-Serif" font-size="10.00">vector</text>
</a>
</g>
</g>
<!-- Node3&#45;&gt;Node37 -->
<g id="edge36_Node000003_Node000037" class="edge">
<title>Node3&#45;&gt;Node37</title>
<g id="a_edge36_Node000003_Node000037"><a xlink:title=" ">
<path fill="none" stroke="#63b8ff" d="M1365.38,-63.52C1544.17,-60.74 2098.03,-49.99 2298.89,-19.76"/>
<polygon fill="#63b8ff" stroke="#63b8ff" points="2299.35,-23.23 2308.69,-18.21 2298.26,-16.32 2299.35,-23.23"/>
</a>
</g>
</g>
<!-- Node38 -->
<g id="Node000038" class="node">
<title>Node38</title>
<g id="a_Node000038"><a xlink:title=" ">
<polygon fill="#e0e0e0" stroke="#999999" points="2420.12,-19.69 2371.88,-19.69 2371.88,-0.44 2420.12,-0.44 2420.12,-19.69"/>
<text text-anchor="middle" x="2396" y="-6.19" font-family="Helvetica,sans-Serif" font-size="10.00">random</text>
</a>
</g>
</g>
<!-- Node3&#45;&gt;Node38 -->
<g id="edge37_Node000003_Node000038" class="edge">
<title>Node3&#45;&gt;Node38</title>
<g id="a_edge37_Node000003_Node000038"><a xlink:title=" ">
<path fill="none" stroke="#63b8ff" d="M1365.41,-63.46C1551.48,-60.39 2145.64,-48.66 2360.45,-19.48"/>
<polygon fill="#63b8ff" stroke="#63b8ff" points="2360.7,-22.97 2370.11,-18.1 2359.72,-16.04 2360.7,-22.97"/>
</a>
</g>
</g>
<!-- Node39 -->
<g id="Node000039" class="node">
<title>Node39</title>
<g id="a_Node000039"><a xlink:href="../../de/d43/common-typedefs_8hpp.html" target="_top" xlink:title=" ">
<polygon fill="white" stroke="#666666" points="2549.62,-19.69 2438.38,-19.69 2438.38,-0.44 2549.62,-0.44 2549.62,-19.69"/>
<text text-anchor="middle" x="2494" y="-6.19" font-family="Helvetica,sans-Serif" font-size="10.00">common&#45;typedefs.hpp</text>
</a>
</g>
</g>
<!-- Node3&#45;&gt;Node39 -->
<g id="edge38_Node000003_Node000039" class="edge">
<title>Node3&#45;&gt;Node39</title>
<g id="a_edge38_Node000003_Node000039"><a xlink:title=" ">
<path fill="none" stroke="#63b8ff" d="M1365.35,-63.9C1528.12,-62.32 2013.22,-54.85 2426.73,-19.79"/>
<polygon fill="#63b8ff" stroke="#63b8ff" points="2426.84,-23.29 2436.51,-18.95 2426.25,-16.32 2426.84,-23.29"/>
</a>
</g>
</g>
<!-- Node40 -->
<g id="Node000040" class="node">
<title>Node40</title>
<g id="a_Node000040"><a xlink:href="../../d4/d78/math_8hpp.html" target="_top" xlink:title=" ">
<polygon fill="white" stroke="#666666" points="2644.75,-19.69 2567.25,-19.69 2567.25,-0.44 2644.75,-0.44 2644.75,-19.69"/>
<text text-anchor="middle" x="2606" y="-6.19" font-family="Helvetica,sans-Serif" font-size="10.00">core/math.hpp</text>
</a>
</g>
</g>
<!-- Node3&#45;&gt;Node40 -->
<g id="edge39_Node000003_Node000040" class="edge">
<title>Node3&#45;&gt;Node40</title>
<g id="a_edge39_Node000003_Node000040"><a xlink:title=" ">
<path fill="none" stroke="#63b8ff" d="M1365.34,-63.4C1573.54,-59.83 2300.29,-45.88 2555.4,-19.9"/>
<polygon fill="#63b8ff" stroke="#63b8ff" points="2555.74,-23.38 2565.32,-18.85 2555.01,-16.42 2555.74,-23.38"/>
</a>
</g>
</g>
<!-- Node40&#45;&gt;Node40 -->
<g id="edge40_Node000040_Node000040" class="edge">
<title>Node40&#45;&gt;Node40</title>
<g id="a_edge40_Node000040_Node000040"><a xlink:title=" ">
<path fill="none" stroke="#63b8ff" d="M2635.78,-20.17C2650.11,-21.42 2662.75,-18.05 2662.75,-10.06 2662.75,-4.32 2656.22,-0.97 2647.22,0"/>
<polygon fill="#63b8ff" stroke="#63b8ff" points="2647.31,3.5 2637.29,0.04 2647.28,-3.5 2647.31,3.5"/>
</a>
</g>
</g>
<!-- Node42 -->
<g id="Node000042" class="node">
<title>Node42</title>
<g id="a_Node000042"><a xlink:href="../../d8/d2a/win-def_8hpp.html" target="_top" xlink:title=" ">
<polygon fill="white" stroke="#666666" points="2746.75,-19.69 2681.25,-19.69 2681.25,-0.44 2746.75,-0.44 2746.75,-19.69"/>
<text text-anchor="middle" x="2714" y="-6.19" font-family="Helvetica,sans-Serif" font-size="10.00">win&#45;def.hpp</text>
</a>
</g>
</g>
<!-- Node41&#45;&gt;Node42 -->
<g id="edge42_Node000041_Node000042" class="edge">
<title>Node41&#45;&gt;Node42</title>
<g id="a_edge42_Node000041_Node000042"><a xlink:title=" ">
<path fill="none" stroke="#63b8ff" d="M2814.47,-55.28C2795.44,-46.9 2766.85,-34.32 2745.03,-24.72"/>
<polygon fill="#63b8ff" stroke="#63b8ff" points="2746.57,-21.58 2736.01,-20.75 2743.76,-27.98 2746.57,-21.58"/>
</a>
</g>
</g>
<!-- Node43 -->
<g id="Node000043" class="node">
<title>Node43</title>
<g id="a_Node000043"><a xlink:title=" ">
<polygon fill="#e0e0e0" stroke="#999999" points="2826.88,-19.69 2765.12,-19.69 2765.12,-0.44 2826.88,-0.44 2826.88,-19.69"/>
<text text-anchor="middle" x="2796" y="-6.19" font-family="Helvetica,sans-Serif" font-size="10.00">windows.h</text>
</a>
</g>
</g>
<!-- Node41&#45;&gt;Node43 -->
<g id="edge43_Node000041_Node000043" class="edge">
<title>Node41&#45;&gt;Node43</title>
<g id="a_edge43_Node000041_Node000043"><a xlink:title=" ">
<path fill="none" stroke="#63b8ff" d="M2828.56,-55.52C2823.34,-48.39 2815.81,-38.12 2809.31,-29.24"/>
<polygon fill="#63b8ff" stroke="#63b8ff" points="2812.21,-27.27 2803.47,-21.27 2806.56,-31.4 2812.21,-27.27"/>
</a>
</g>
</g>
<!-- Node44 -->
<g id="Node000044" class="node">
<title>Node44</title>
<g id="a_Node000044"><a xlink:title=" ">
<polygon fill="#e0e0e0" stroke="#999999" points="2905.5,-19.69 2844.5,-19.69 2844.5,-0.44 2905.5,-0.44 2905.5,-19.69"/>
<text text-anchor="middle" x="2875" y="-6.19" font-family="Helvetica,sans-Serif" font-size="10.00">ShObjIdl.h</text>
</a>
</g>
</g>
<!-- Node41&#45;&gt;Node44 -->
<g id="edge44_Node000041_Node000044" class="edge">
<title>Node41&#45;&gt;Node44</title>
<g id="a_edge44_Node000041_Node000044"><a xlink:title=" ">
<path fill="none" stroke="#63b8ff" d="M2841.61,-55.52C2846.96,-48.39 2854.68,-38.12 2861.35,-29.24"/>
<polygon fill="#63b8ff" stroke="#63b8ff" points="2864.13,-31.36 2867.34,-21.26 2858.54,-27.15 2864.13,-31.36"/>
</a>
</g>
</g>
<!-- Node45 -->
<g id="Node000045" class="node">
<title>Node45</title>
<g id="a_Node000045"><a xlink:title=" ">
<polygon fill="#e0e0e0" stroke="#999999" points="2986.62,-19.69 2923.38,-19.69 2923.38,-0.44 2986.62,-0.44 2986.62,-19.69"/>
<text text-anchor="middle" x="2955" y="-6.19" font-family="Helvetica,sans-Serif" font-size="10.00">commdlg.h</text>
</a>
</g>
</g>
<!-- Node41&#45;&gt;Node45 -->
<g id="edge45_Node000041_Node000045" class="edge">
<title>Node41&#45;&gt;Node45</title>
<g id="a_edge45_Node000041_Node000045"><a xlink:title=" ">
<path fill="none" stroke="#63b8ff" d="M2855.36,-55.28C2874.23,-46.9 2902.59,-34.32 2924.23,-24.72"/>
<polygon fill="#63b8ff" stroke="#63b8ff" points="2925.44,-28.01 2933.16,-20.76 2922.6,-21.61 2925.44,-28.01"/>
</a>
</g>
</g>
<!-- Node46 -->
<g id="Node000046" class="node">
<title>Node46</title>
<g id="a_Node000046"><a xlink:href="../../d4/dfc/win-undef_8hpp.html" target="_top" xlink:title=" ">
<polygon fill="white" stroke="#666666" points="3081,-19.69 3005,-19.69 3005,-0.44 3081,-0.44 3081,-19.69"/>
<text text-anchor="middle" x="3043" y="-6.19" font-family="Helvetica,sans-Serif" font-size="10.00">win&#45;undef.hpp</text>
</a>
</g>
</g>
<!-- Node41&#45;&gt;Node46 -->
<g id="edge46_Node000041_Node000046" class="edge">
<title>Node41&#45;&gt;Node46</title>
<g id="a_edge46_Node000041_Node000046"><a xlink:title=" ">
<path fill="none" stroke="#63b8ff" d="M2859.68,-58C2893.29,-49.39 2954.12,-33.82 2996.45,-22.98"/>
<polygon fill="#63b8ff" stroke="#63b8ff" points="2997.31,-26.37 3006.13,-20.5 2995.57,-19.59 2997.31,-26.37"/>
</a>
</g>
</g>
</g>
</svg>

<g id="navigator" transform="translate(0 0)" fill="#404254">
  <rect fill="#f2f5e9" fill-opacity="0.5" stroke="#606060" stroke-width=".5" x="0" y="0" width="60" height="60"/>
  <use id="zoomplus" xlink:href="#zoomPlus" x="17" y="9" onmousedown="handleZoom(evt,'in')"/>
  <use id="zoomminus" xlink:href="#zoomMin" x="42" y="9" onmousedown="handleZoom(evt,'out')"/>
  <use id="reset" xlink:href="#resetDef" x="30" y="36" onmousedown="handleReset()"/>
   <use id="arrowup" xlink:href="#arrowUp" x="0" y="0" onmousedown="handlePan(0,-1)"/>
  <use id="arrowright" xlink:href="#arrowRight" x="0" y="0" onmousedown="handlePan(1,0)"/>
  <use id="arrowdown" xlink:href="#arrowDown" x="0" y="0" onmousedown="handlePan(0,1)"/>
  <use id="arrowleft" xlink:href="#arrowLeft" x="0" y="0" onmousedown="handlePan(-1,0)"/>
</g>
<svg viewBox="0 0 15 15" width="100%" height="30px" preserveAspectRatio="xMaxYMin meet">
 <g id="arrow_out" transform="scale(0.3 0.3)">
  <a xlink:href="win-debug_8cpp__incl_org.svg" target="_base">
   <rect id="button" ry="5" rx="5" y="6" x="6" height="38" width="38"
        fill="#f2f5e9" fill-opacity="0.5" stroke="#606060" stroke-width="1.0"/>
   <path id="arrow"
     d="M 11.500037,31.436501 C 11.940474,20.09759 22.043105,11.32322 32.158766,21.979434 L 37.068811,17.246167 C 37.068811,17.246167 37.088388,32 37.088388,32 L 22.160133,31.978069 C 22.160133,31.978069 26.997745,27.140456 26.997745,27.140456 C 18.528582,18.264221 13.291696,25.230495 11.500037,31.436501 z"
     style="fill:#404040;"/>
  </a>
 </g>
</svg>

<style type='text/css'>
<![CDATA[
[data-mouse-over-selected='false'] { opacity: 0.7; }
[data-mouse-over-selected='true']  { opacity: 1.0; }
]]>
</style>
<script type="application/ecmascript"><![CDATA[
document.addEventListener('DOMContentLoaded', (event) => {
  highlightEdges();
  highlightAdjacentNodes();
});
]]></script>
</svg>
