<?xml version="1.0" encoding="UTF-8" standalone="no"?>
<!DOCTYPE svg PUBLIC "-//W3C//DTD SVG 1.1//EN"
 "http://www.w3.org/Graphics/SVG/1.1/DTD/svg11.dtd">
<!-- Generated by graphviz version 9.0.0 (20230911.1827)
 -->
<!-- Title: engine::render::ComputeShaderProgram Pages: 1 -->
<svg width="314pt" height="372pt"
 viewBox="0.00 0.00 314.12 372.00" xmlns="http://www.w3.org/2000/svg" xmlns:xlink="http://www.w3.org/1999/xlink">
<g id="graph0" class="graph" transform="scale(1 1) rotate(0) translate(4 368)">
<title>engine::render::ComputeShaderProgram</title>
<!-- Node1 -->
<g id="Node000001" class="node">
<title>Node1</title>
<g id="a_Node000001"><a xlink:title=" ">
<polygon fill="#999999" stroke="#666666" points="196.12,-30.5 45.88,-30.5 45.88,0 196.12,0 196.12,-30.5"/>
<text text-anchor="start" x="53.88" y="-17" font-family="Helvetica,sans-Serif" font-size="10.00">engine::render::ComputeShader</text>
<text text-anchor="middle" x="121" y="-5.75" font-family="Helvetica,sans-Serif" font-size="10.00">Program</text>
</a>
</g>
</g>
<!-- Node2 -->
<g id="Node000002" class="node">
<title>Node2</title>
<g id="a_Node000002"><a xlink:href="../../db/db6/structengine_1_1render_1_1_shader_program.html" target="_top" xlink:title=" ">
<polygon fill="white" stroke="#666666" points="148,-102.62 0,-102.62 0,-83.38 148,-83.38 148,-102.62"/>
<text text-anchor="middle" x="74" y="-89.12" font-family="Helvetica,sans-Serif" font-size="10.00">engine::render::ShaderProgram</text>
</a>
</g>
</g>
<!-- Node2&#45;&gt;Node1 -->
<g id="edge1_Node000001_Node000002" class="edge">
<title>Node2&#45;&gt;Node1</title>
<g id="a_edge1_Node000001_Node000002"><a xlink:title=" ">
<path fill="none" stroke="#63b8ff" d="M85.42,-73.6C93.55,-60.5 104.33,-43.12 111.89,-30.94"/>
<polygon fill="#63b8ff" stroke="#63b8ff" points="82.67,-71.38 80.37,-81.73 88.62,-75.07 82.67,-71.38"/>
</a>
</g>
</g>
<!-- Node3 -->
<g id="Node000003" class="node">
<title>Node3</title>
<g id="a_Node000003"><a xlink:title=" ">
<polygon fill="white" stroke="#666666" points="296,-108.25 166,-108.25 166,-77.75 296,-77.75 296,-108.25"/>
<text text-anchor="start" x="174" y="-94.75" font-family="Helvetica,sans-Serif" font-size="10.00">std::shared_ptr&lt; engine</text>
<text text-anchor="middle" x="231" y="-83.5" font-family="Helvetica,sans-Serif" font-size="10.00">::render::ComputeShader &gt;</text>
</a>
</g>
</g>
<!-- Node3&#45;&gt;Node1 -->
<g id="edge2_Node000001_Node000003" class="edge">
<title>Node3&#45;&gt;Node1</title>
<g id="a_edge2_Node000001_Node000003"><a xlink:title=" ">
<path fill="none" stroke="#9a32cd" stroke-dasharray="5,2" d="M200.31,-70.87C181.78,-58.1 158.64,-42.17 142.14,-30.81"/>
<polygon fill="#9a32cd" stroke="#9a32cd" points="198.32,-73.75 208.54,-76.54 202.29,-67.98 198.32,-73.75"/>
</a>
</g>
<text text-anchor="middle" x="200.38" y="-50.25" font-family="Helvetica,sans-Serif" font-size="10.00" fill="grey"> shader_</text>
</g>
<!-- Node4 -->
<g id="Node000004" class="node">
<title>Node4</title>
<g id="a_Node000004"><a xlink:href="../../d3/d0b/classengine_1_1render_1_1_compute_shader.html" target="_top" xlink:title=" ">
<polygon fill="white" stroke="#666666" points="306.12,-174.75 155.88,-174.75 155.88,-155.5 306.12,-155.5 306.12,-174.75"/>
<text text-anchor="middle" x="231" y="-161.25" font-family="Helvetica,sans-Serif" font-size="10.00">engine::render::ComputeShader</text>
</a>
</g>
</g>
<!-- Node4&#45;&gt;Node3 -->
<g id="edge3_Node000003_Node000004" class="edge">
<title>Node4&#45;&gt;Node3</title>
<g id="a_edge3_Node000003_Node000004"><a xlink:title=" ">
<path fill="none" stroke="#9a32cd" stroke-dasharray="5,2" d="M231,-143.92C231,-132.66 231,-118.89 231,-108.67"/>
<polygon fill="#9a32cd" stroke="#9a32cd" points="227.5,-143.73 231,-153.73 234.5,-143.73 227.5,-143.73"/>
</a>
</g>
<text text-anchor="middle" x="237.75" y="-128" font-family="Helvetica,sans-Serif" font-size="10.00" fill="grey"> ptr</text>
</g>
<!-- Node5 -->
<g id="Node000005" class="node">
<title>Node5</title>
<g id="a_Node000005"><a xlink:href="../../d0/dc5/classengine_1_1render_1_1_shader.html" target="_top" xlink:title=" ">
<polygon fill="white" stroke="#666666" points="286.62,-231 175.38,-231 175.38,-211.75 286.62,-211.75 286.62,-231"/>
<text text-anchor="middle" x="231" y="-217.5" font-family="Helvetica,sans-Serif" font-size="10.00">engine::render::Shader</text>
</a>
</g>
</g>
<!-- Node5&#45;&gt;Node4 -->
<g id="edge4_Node000004_Node000005" class="edge">
<title>Node5&#45;&gt;Node4</title>
<g id="a_edge4_Node000004_Node000005"><a xlink:title=" ">
<path fill="none" stroke="#63b8ff" d="M231,-200.19C231,-191.48 231,-181.74 231,-174.92"/>
<polygon fill="#63b8ff" stroke="#63b8ff" points="227.5,-199.9 231,-209.9 234.5,-199.9 227.5,-199.9"/>
</a>
</g>
</g>
<!-- Node6 -->
<g id="Node000006" class="node">
<title>Node6</title>
<g id="a_Node000006"><a xlink:href="../../d3/de6/structengine_1_1render_1_1_shader_blob.html" target="_top" xlink:title=" ">
<polygon fill="white" stroke="#666666" points="296.38,-297.5 165.62,-297.5 165.62,-278.25 296.38,-278.25 296.38,-297.5"/>
<text text-anchor="middle" x="231" y="-284" font-family="Helvetica,sans-Serif" font-size="10.00">engine::render::ShaderBlob</text>
</a>
</g>
</g>
<!-- Node6&#45;&gt;Node5 -->
<g id="edge5_Node000005_Node000006" class="edge">
<title>Node6&#45;&gt;Node5</title>
<g id="a_edge5_Node000005_Node000006"><a xlink:title=" ">
<path fill="none" stroke="#9a32cd" stroke-dasharray="5,2" d="M231,-266.4C231,-254.57 231,-240.29 231,-231.27"/>
<polygon fill="#9a32cd" stroke="#9a32cd" points="227.5,-266.39 231,-276.39 234.5,-266.39 227.5,-266.39"/>
</a>
</g>
<text text-anchor="middle" x="243.75" y="-250.75" font-family="Helvetica,sans-Serif" font-size="10.00" fill="grey"> blob_</text>
</g>
<!-- Node7 -->
<g id="Node000007" class="node">
<title>Node7</title>
<g id="a_Node000007"><a xlink:title=" ">
<polygon fill="white" stroke="#666666" points="284.38,-364 177.62,-364 177.62,-344.75 284.38,-344.75 284.38,-364"/>
<text text-anchor="middle" x="231" y="-350.5" font-family="Helvetica,sans-Serif" font-size="10.00">std::vector&lt; uint8_t &gt;</text>
</a>
</g>
</g>
<!-- Node7&#45;&gt;Node6 -->
<g id="edge6_Node000006_Node000007" class="edge">
<title>Node7&#45;&gt;Node6</title>
<g id="a_edge6_Node000006_Node000007"><a xlink:title=" ">
<path fill="none" stroke="#9a32cd" stroke-dasharray="5,2" d="M231,-332.9C231,-321.07 231,-306.79 231,-297.77"/>
<polygon fill="#9a32cd" stroke="#9a32cd" points="227.5,-332.89 231,-342.89 234.5,-332.89 227.5,-332.89"/>
</a>
</g>
<text text-anchor="middle" x="251.62" y="-317.25" font-family="Helvetica,sans-Serif" font-size="10.00" fill="grey"> bytecode</text>
</g>
</g>
</svg>
