<?xml version="1.0" encoding="UTF-8" standalone="no"?>
<!DOCTYPE svg PUBLIC "-//W3C//DTD SVG 1.1//EN"
 "http://www.w3.org/Graphics/SVG/1.1/DTD/svg11.dtd">
<!-- Generated by graphviz version 8.1.0 (20230707.0739)
 -->
<!-- Title: engine::ini::Ini Pages: 1 -->
<svg width="1004pt" height="114pt"
 viewBox="0.00 0.00 1003.75 113.88" xmlns="http://www.w3.org/2000/svg" xmlns:xlink="http://www.w3.org/1999/xlink">
<g id="graph0" class="graph" transform="scale(1 1) rotate(0) translate(4 109.88)">
<title>engine::ini::Ini</title>
<!-- Node1 -->
<g id="Node000001" class="node">
<title>Node1</title>
<g id="a_Node000001"><a xlink:title=" ">
<polygon fill="#999999" stroke="#666666" points="995.75,-85.25 922,-85.25 922,-66 995.75,-66 995.75,-85.25"/>
<text text-anchor="middle" x="958.88" y="-71.75" font-family="Helvetica,sans-Serif" font-size="10.00">engine::ini::Ini</text>
</a>
</g>
</g>
<!-- Node2 -->
<g id="Node000002" class="node">
<title>Node2</title>
<g id="a_Node000002"><a xlink:title=" ">
<polygon fill="white" stroke="#666666" points="862.75,-96.5 756.75,-96.5 756.75,-54.75 862.75,-54.75 862.75,-96.5"/>
<text text-anchor="start" x="764.75" y="-83" font-family="Helvetica,sans-Serif" font-size="10.00">std::map&lt; std::string,</text>
<text text-anchor="start" x="764.75" y="-71.75" font-family="Helvetica,sans-Serif" font-size="10.00"> engine::ini::Section,</text>
<text text-anchor="middle" x="809.75" y="-60.5" font-family="Helvetica,sans-Serif" font-size="10.00"> std::less&lt;&gt; &gt;</text>
</a>
</g>
</g>
<!-- Node2&#45;&gt;Node1 -->
<g id="edge1_Node000001_Node000002" class="edge">
<title>Node2&#45;&gt;Node1</title>
<g id="a_edge1_Node000001_Node000002"><a xlink:title=" ">
<path fill="none" stroke="#9a32cd" stroke-dasharray="5,2" d="M873.72,-75.62C890.19,-75.62 907.38,-75.62 921.9,-75.62"/>
<polygon fill="#9a32cd" stroke="#9a32cd" points="874.04,-72.13 864.04,-75.62 874.03,-79.13 874.04,-72.13"/>
</a>
</g>
<text text-anchor="middle" x="892.38" y="-77.38" font-family="Helvetica,sans-Serif" font-size="10.00" fill="grey"> dict_</text>
</g>
<!-- Node3 -->
<g id="Node000003" class="node">
<title>Node3</title>
<g id="a_Node000003"><a xlink:title=" ">
<polygon fill="white" stroke="#666666" points="187.5,-65.25 129.5,-65.25 129.5,-46 187.5,-46 187.5,-65.25"/>
<text text-anchor="middle" x="158.5" y="-51.75" font-family="Helvetica,sans-Serif" font-size="10.00">std::string</text>
</a>
</g>
</g>
<!-- Node3&#45;&gt;Node2 -->
<g id="edge2_Node000002_Node000003" class="edge">
<title>Node3&#45;&gt;Node2</title>
<g id="a_edge2_Node000002_Node000003"><a xlink:title=" ">
<path fill="none" stroke="#9a32cd" stroke-dasharray="5,2" d="M190.73,-69.93C217.89,-81.06 258.61,-94.62 295.75,-94.62 295.75,-94.62 295.75,-94.62 631.62,-94.62 673.84,-94.62 721.39,-89.22 756.59,-84.18"/>
<polygon fill="#9a32cd" stroke="#9a32cd" points="192.25,-66.35 181.67,-65.67 189.51,-72.8 192.25,-66.35"/>
</a>
</g>
<text text-anchor="middle" x="470.25" y="-96.38" font-family="Helvetica,sans-Serif" font-size="10.00" fill="grey"> keys</text>
</g>
<!-- Node6 -->
<g id="Node000006" class="node">
<title>Node6</title>
<g id="a_Node000006"><a xlink:title=" ">
<polygon fill="white" stroke="#666666" points="523.25,-58.5 417.25,-58.5 417.25,-16.75 523.25,-16.75 523.25,-58.5"/>
<text text-anchor="start" x="425.25" y="-45" font-family="Helvetica,sans-Serif" font-size="10.00">std::map&lt; std::string,</text>
<text text-anchor="start" x="425.25" y="-33.75" font-family="Helvetica,sans-Serif" font-size="10.00"> engine::ini::Entry,</text>
<text text-anchor="middle" x="470.25" y="-22.5" font-family="Helvetica,sans-Serif" font-size="10.00"> std::less&lt;&gt; &gt;</text>
</a>
</g>
</g>
<!-- Node3&#45;&gt;Node6 -->
<g id="edge6_Node000006_Node000003" class="edge">
<title>Node3&#45;&gt;Node6</title>
<g id="a_edge6_Node000006_Node000003"><a xlink:title=" ">
<path fill="none" stroke="#9a32cd" stroke-dasharray="5,2" d="M198.55,-53.36C253.84,-50.14 355.06,-44.26 416.83,-40.67"/>
<polygon fill="#9a32cd" stroke="#9a32cd" points="198.59,-49.91 188.81,-53.98 199,-56.89 198.59,-49.91"/>
</a>
</g>
<text text-anchor="middle" x="296.75" y="-52.38" font-family="Helvetica,sans-Serif" font-size="10.00" fill="grey"> keys</text>
</g>
<!-- Node7 -->
<g id="Node000007" class="node">
<title>Node7</title>
<g id="a_Node000007"><a xlink:href="../../df/da4/classengine_1_1ini_1_1_entry.html" target="_top" xlink:title="Class representing an entry in the ini file.">
<polygon fill="white" stroke="#666666" points="339.25,-19.25 254.25,-19.25 254.25,0 339.25,0 339.25,-19.25"/>
<text text-anchor="middle" x="296.75" y="-5.75" font-family="Helvetica,sans-Serif" font-size="10.00">engine::ini::Entry</text>
</a>
</g>
</g>
<!-- Node3&#45;&gt;Node7 -->
<g id="edge8_Node000007_Node000003" class="edge">
<title>Node3&#45;&gt;Node7</title>
<g id="a_edge8_Node000007_Node000003"><a xlink:title=" ">
<path fill="none" stroke="#9a32cd" stroke-dasharray="5,2" d="M184.37,-40.35C191.06,-36.69 198.41,-33.08 205.5,-30.38 220.97,-24.48 238.61,-19.97 254.16,-16.68"/>
<polygon fill="#9a32cd" stroke="#9a32cd" points="183.1,-37.61 176.16,-45.62 186.58,-43.69 183.1,-37.61"/>
</a>
</g>
<text text-anchor="middle" x="220.88" y="-32.38" font-family="Helvetica,sans-Serif" font-size="10.00" fill="grey"> value_</text>
</g>
<!-- Node4 -->
<g id="Node000004" class="node">
<title>Node4</title>
<g id="a_Node000004"><a xlink:title=" ">
<polygon fill="white" stroke="#666666" points="92.5,-70.88 0,-70.88 0,-40.38 92.5,-40.38 92.5,-70.88"/>
<text text-anchor="start" x="8" y="-57.38" font-family="Helvetica,sans-Serif" font-size="10.00">std::basic_string&lt;</text>
<text text-anchor="middle" x="46.25" y="-46.12" font-family="Helvetica,sans-Serif" font-size="10.00"> Char &gt;</text>
</a>
</g>
</g>
<!-- Node4&#45;&gt;Node3 -->
<g id="edge3_Node000003_Node000004" class="edge">
<title>Node4&#45;&gt;Node3</title>
<g id="a_edge3_Node000003_Node000004"><a xlink:title=" ">
<path fill="none" stroke="#63b8ff" d="M103.53,-55.62C112.42,-55.62 121.28,-55.62 129.16,-55.62"/>
<polygon fill="#63b8ff" stroke="#63b8ff" points="103.73,-52.13 93.73,-55.62 103.73,-59.13 103.73,-52.13"/>
</a>
</g>
</g>
<!-- Node5 -->
<g id="Node000005" class="node">
<title>Node5</title>
<g id="a_Node000005"><a xlink:href="../../d1/dcf/classengine_1_1ini_1_1_section.html" target="_top" xlink:title="The section of the ini file.">
<polygon fill="white" stroke="#666666" points="678.75,-61.25 582.5,-61.25 582.5,-42 678.75,-42 678.75,-61.25"/>
<text text-anchor="middle" x="630.62" y="-47.75" font-family="Helvetica,sans-Serif" font-size="10.00">engine::ini::Section</text>
</a>
</g>
</g>
<!-- Node5&#45;&gt;Node2 -->
<g id="edge4_Node000002_Node000005" class="edge">
<title>Node5&#45;&gt;Node2</title>
<g id="a_edge4_Node000002_Node000005"><a xlink:title=" ">
<path fill="none" stroke="#9a32cd" stroke-dasharray="5,2" d="M689.74,-59.5C711.26,-62.41 735.51,-65.7 756.48,-68.54"/>
<polygon fill="#9a32cd" stroke="#9a32cd" points="690.47,-55.93 680.09,-58.06 689.53,-62.87 690.47,-55.93"/>
</a>
</g>
<text text-anchor="middle" x="717.75" y="-68.38" font-family="Helvetica,sans-Serif" font-size="10.00" fill="grey"> elements</text>
</g>
<!-- Node6&#45;&gt;Node5 -->
<g id="edge5_Node000005_Node000006" class="edge">
<title>Node6&#45;&gt;Node5</title>
<g id="a_edge5_Node000005_Node000006"><a xlink:title=" ">
<path fill="none" stroke="#9a32cd" stroke-dasharray="5,2" d="M534.4,-43.21C550.34,-44.62 567.18,-46.1 582.19,-47.43"/>
<polygon fill="#9a32cd" stroke="#9a32cd" points="534.82,-39.64 524.55,-42.25 534.2,-46.61 534.82,-39.64"/>
</a>
</g>
<text text-anchor="middle" x="552.88" y="-47.38" font-family="Helvetica,sans-Serif" font-size="10.00" fill="grey"> dict_</text>
</g>
<!-- Node7&#45;&gt;Node6 -->
<g id="edge7_Node000006_Node000007" class="edge">
<title>Node7&#45;&gt;Node6</title>
<g id="a_edge7_Node000006_Node000007"><a xlink:title=" ">
<path fill="none" stroke="#9a32cd" stroke-dasharray="5,2" d="M350.44,-18.23C371.58,-21.68 395.89,-25.65 416.99,-29.09"/>
<polygon fill="#9a32cd" stroke="#9a32cd" points="351.14,-14.63 340.7,-16.47 350.01,-21.54 351.14,-14.63"/>
</a>
</g>
<text text-anchor="middle" x="378.25" y="-28.38" font-family="Helvetica,sans-Serif" font-size="10.00" fill="grey"> elements</text>
</g>
</g>
</svg>
