<?xml version="1.0" encoding="UTF-8" standalone="no"?>
<!DOCTYPE svg PUBLIC "-//W3C//DTD SVG 1.1//EN"
 "http://www.w3.org/Graphics/SVG/1.1/DTD/svg11.dtd">
<!-- Generated by graphviz version 8.1.0 (20230707.0739)
 -->
<!-- Title: engine::components::ParticleEmitter Pages: 1 -->
<svg width="527pt" height="98pt"
 viewBox="0.00 0.00 527.00 98.12" xmlns="http://www.w3.org/2000/svg" xmlns:xlink="http://www.w3.org/1999/xlink">
<g id="graph0" class="graph" transform="scale(1 1) rotate(0) translate(4 94.12)">
<title>engine::components::ParticleEmitter</title>
<!-- Node1 -->
<g id="Node000001" class="node">
<title>Node1</title>
<g id="a_Node000001"><a xlink:title="Particle emitter component.">
<polygon fill="#999999" stroke="#666666" points="519,-63.12 416.75,-63.12 416.75,-32.62 519,-32.62 519,-63.12"/>
<text text-anchor="start" x="424.75" y="-49.62" font-family="Helvetica,sans-Serif" font-size="10.00">engine::components</text>
<text text-anchor="middle" x="467.88" y="-38.38" font-family="Helvetica,sans-Serif" font-size="10.00">::ParticleEmitter</text>
</a>
</g>
</g>
<!-- Node2 -->
<g id="Node000002" class="node">
<title>Node2</title>
<g id="a_Node000002"><a xlink:href="../../d6/dd6/structengine_1_1components_1_1_component.html" target="_top" xlink:title="Base class for all components.">
<polygon fill="white" stroke="#666666" points="321.88,-90.12 219.62,-90.12 219.62,-59.62 321.88,-59.62 321.88,-90.12"/>
<text text-anchor="start" x="227.62" y="-76.62" font-family="Helvetica,sans-Serif" font-size="10.00">engine::components</text>
<text text-anchor="middle" x="270.75" y="-65.38" font-family="Helvetica,sans-Serif" font-size="10.00">::Component</text>
</a>
</g>
</g>
<!-- Node2&#45;&gt;Node1 -->
<g id="edge1_Node000001_Node000002" class="edge">
<title>Node2&#45;&gt;Node1</title>
<g id="a_edge1_Node000001_Node000002"><a xlink:title=" ">
<path fill="none" stroke="#63b8ff" d="M333.09,-66.39C359.96,-62.67 391.11,-58.36 416.58,-54.83"/>
<polygon fill="#63b8ff" stroke="#63b8ff" points="332.68,-63.05 323.25,-67.89 333.64,-69.98 332.68,-63.05"/>
</a>
</g>
</g>
<!-- Node3 -->
<g id="Node000003" class="node">
<title>Node3</title>
<g id="a_Node000003"><a xlink:title=" ">
<polygon fill="white" stroke="#666666" points="341.75,-41.75 199.75,-41.75 199.75,0 341.75,0 341.75,-41.75"/>
<text text-anchor="start" x="207.75" y="-28.25" font-family="Helvetica,sans-Serif" font-size="10.00">std::vector&lt; engine</text>
<text text-anchor="start" x="207.75" y="-17" font-family="Helvetica,sans-Serif" font-size="10.00">::components::ParticleEmitter</text>
<text text-anchor="middle" x="270.75" y="-5.75" font-family="Helvetica,sans-Serif" font-size="10.00">::Particle &gt;</text>
</a>
</g>
</g>
<!-- Node3&#45;&gt;Node1 -->
<g id="edge2_Node000001_Node000003" class="edge">
<title>Node3&#45;&gt;Node1</title>
<g id="a_edge2_Node000001_Node000003"><a xlink:title=" ">
<path fill="none" stroke="#9a32cd" stroke-dasharray="5,2" d="M352.98,-32.11C374.48,-35.09 397.08,-38.22 416.42,-40.89"/>
<polygon fill="#9a32cd" stroke="#9a32cd" points="353.58,-28.53 343.19,-30.62 352.62,-35.46 353.58,-28.53"/>
</a>
</g>
<text text-anchor="middle" x="379.25" y="-39.62" font-family="Helvetica,sans-Serif" font-size="10.00" fill="grey"> particles</text>
</g>
<!-- Node4 -->
<g id="Node000004" class="node">
<title>Node4</title>
<g id="a_Node000004"><a xlink:href="../../d3/d36/structengine_1_1components_1_1_particle_emitter_1_1_particle.html" target="_top" xlink:title="CPU particle class.">
<polygon fill="white" stroke="#666666" points="121.75,-36.12 0,-36.12 0,-5.62 121.75,-5.62 121.75,-36.12"/>
<text text-anchor="start" x="8" y="-22.62" font-family="Helvetica,sans-Serif" font-size="10.00">engine::components</text>
<text text-anchor="middle" x="60.88" y="-11.38" font-family="Helvetica,sans-Serif" font-size="10.00">::ParticleEmitter::Particle</text>
</a>
</g>
</g>
<!-- Node4&#45;&gt;Node3 -->
<g id="edge3_Node000003_Node000004" class="edge">
<title>Node4&#45;&gt;Node3</title>
<g id="a_edge3_Node000003_Node000004"><a xlink:title=" ">
<path fill="none" stroke="#9a32cd" stroke-dasharray="5,2" d="M132.73,-20.88C154.29,-20.88 177.97,-20.88 199.49,-20.88"/>
<polygon fill="#9a32cd" stroke="#9a32cd" points="133,-17.38 123,-20.88 133,-24.38 133,-17.38"/>
</a>
</g>
<text text-anchor="middle" x="160.75" y="-22.62" font-family="Helvetica,sans-Serif" font-size="10.00" fill="grey"> elements</text>
</g>
</g>
</svg>
