<?xml version="1.0" encoding="UTF-8" standalone="no"?>
<!DOCTYPE svg PUBLIC "-//W3C//DTD SVG 1.1//EN"
 "http://www.w3.org/Graphics/SVG/1.1/DTD/svg11.dtd">
<!-- Generated by graphviz version 8.1.0 (20230707.0739)
 -->
<!-- Title: engine::core::ShaderMacro Pages: 1 -->
<svg width="138pt" height="173pt"
 viewBox="0.00 0.00 138.00 172.50" xmlns="http://www.w3.org/2000/svg" xmlns:xlink="http://www.w3.org/1999/xlink">
<g id="graph0" class="graph" transform="scale(1 1) rotate(0) translate(4 168.5)">
<title>engine::core::ShaderMacro</title>
<!-- Node1 -->
<g id="Node000001" class="node">
<title>Node1</title>
<g id="a_Node000001"><a xlink:title=" ">
<polygon fill="#999999" stroke="#666666" points="130,-19.25 0,-19.25 0,0 130,0 130,-19.25"/>
<text text-anchor="middle" x="65" y="-5.75" font-family="Helvetica,sans-Serif" font-size="10.00">engine::core::ShaderMacro</text>
</a>
</g>
</g>
<!-- Node2 -->
<g id="Node000002" class="node">
<title>Node2</title>
<g id="a_Node000002"><a xlink:title=" ">
<polygon fill="white" stroke="#666666" points="94,-97 36,-97 36,-77.75 94,-77.75 94,-97"/>
<text text-anchor="middle" x="65" y="-83.5" font-family="Helvetica,sans-Serif" font-size="10.00">std::string</text>
</a>
</g>
</g>
<!-- Node2&#45;&gt;Node1 -->
<g id="edge1_Node000001_Node000002" class="edge">
<title>Node2&#45;&gt;Node1</title>
<g id="a_edge1_Node000001_Node000002"><a xlink:title=" ">
<path fill="none" stroke="#9a32cd" stroke-dasharray="5,2" d="M65,-66.55C65,-51.35 65,-31.1 65,-19.6"/>
<polygon fill="#9a32cd" stroke="#9a32cd" points="61.5,-66.39 65,-76.39 68.5,-66.39 61.5,-66.39"/>
</a>
</g>
<text text-anchor="middle" x="85.25" y="-50.25" font-family="Helvetica,sans-Serif" font-size="10.00" fill="grey"> definition</text>
<text text-anchor="middle" x="85.25" y="-39" font-family="Helvetica,sans-Serif" font-size="10.00" fill="grey">name</text>
</g>
<!-- Node3 -->
<g id="Node000003" class="node">
<title>Node3</title>
<g id="a_Node000003"><a xlink:title=" ">
<polygon fill="white" stroke="#666666" points="111.25,-164.5 18.75,-164.5 18.75,-134 111.25,-134 111.25,-164.5"/>
<text text-anchor="start" x="26.75" y="-151" font-family="Helvetica,sans-Serif" font-size="10.00">std::basic_string&lt;</text>
<text text-anchor="middle" x="65" y="-139.75" font-family="Helvetica,sans-Serif" font-size="10.00"> Char &gt;</text>
</a>
</g>
</g>
<!-- Node3&#45;&gt;Node2 -->
<g id="edge2_Node000002_Node000003" class="edge">
<title>Node3&#45;&gt;Node2</title>
<g id="a_edge2_Node000002_Node000003"><a xlink:title=" ">
<path fill="none" stroke="#63b8ff" d="M65,-122.83C65,-113.75 65,-104.11 65,-97.35"/>
<polygon fill="#63b8ff" stroke="#63b8ff" points="61.5,-122.76 65,-132.76 68.5,-122.76 61.5,-122.76"/>
</a>
</g>
</g>
</g>
</svg>
