<?xml version="1.0" encoding="UTF-8" standalone="no"?>
<!DOCTYPE svg PUBLIC "-//W3C//DTD SVG 1.1//EN"
 "http://www.w3.org/Graphics/SVG/1.1/DTD/svg11.dtd">
<!-- Generated by graphviz version 9.0.0 (20230911.1827)
 -->
<!-- Title: engine/platform/windows/windows&#45;window.hpp Pages: 1 -->
<svg width="240pt" height="105pt"
 viewBox="0.00 0.00 240.12 105.00" xmlns="http://www.w3.org/2000/svg" xmlns:xlink="http://www.w3.org/1999/xlink">
<g id="graph0" class="graph" transform="scale(1 1) rotate(0) translate(4 101)">
<title>engine/platform/windows/windows&#45;window.hpp</title>
<!-- Node1 -->
<g id="Node000001" class="node">
<title>Node1</title>
<g id="a_Node000001"><a xlink:title=" ">
<polygon fill="#999999" stroke="#666666" points="169.12,-97 45.12,-97 45.12,-66.5 169.12,-66.5 169.12,-97"/>
<text text-anchor="start" x="53.12" y="-83.5" font-family="Helvetica,sans-Serif" font-size="10.00">engine/platform/windows</text>
<text text-anchor="middle" x="107.12" y="-72.25" font-family="Helvetica,sans-Serif" font-size="10.00">/windows&#45;window.hpp</text>
</a>
</g>
</g>
<!-- Node2 -->
<g id="Node000002" class="node">
<title>Node2</title>
<g id="a_Node000002"><a xlink:href="../../d9/d0f/main_8cc.html" target="_top" xlink:title=" ">
<polygon fill="white" stroke="#666666" points="90.25,-24.88 0,-24.88 0,-5.63 90.25,-5.63 90.25,-24.88"/>
<text text-anchor="middle" x="45.12" y="-11.38" font-family="Helvetica,sans-Serif" font-size="10.00">d3d_test/main.cc</text>
</a>
</g>
</g>
<!-- Node1&#45;&gt;Node2 -->
<g id="edge1_Node000001_Node000002" class="edge">
<title>Node1&#45;&gt;Node2</title>
<g id="a_edge1_Node000001_Node000002"><a xlink:title=" ">
<path fill="none" stroke="#63b8ff" d="M85.14,-57.87C74.23,-46.53 61.7,-33.49 53.61,-25.07"/>
<polygon fill="#63b8ff" stroke="#63b8ff" points="82.55,-60.24 92.01,-65.02 87.6,-55.39 82.55,-60.24"/>
</a>
</g>
</g>
<!-- Node3 -->
<g id="Node000003" class="node">
<title>Node3</title>
<g id="a_Node000003"><a xlink:href="../../d7/dc7/windows-window_8cpp.html" target="_top" xlink:title=" ">
<polygon fill="white" stroke="#666666" points="232.12,-30.5 108.12,-30.5 108.12,0 232.12,0 232.12,-30.5"/>
<text text-anchor="start" x="116.12" y="-17" font-family="Helvetica,sans-Serif" font-size="10.00">engine/platform/windows</text>
<text text-anchor="middle" x="170.12" y="-5.75" font-family="Helvetica,sans-Serif" font-size="10.00">/windows&#45;window.cpp</text>
</a>
</g>
</g>
<!-- Node1&#45;&gt;Node3 -->
<g id="edge2_Node000001_Node000003" class="edge">
<title>Node1&#45;&gt;Node3</title>
<g id="a_edge2_Node000001_Node000003"><a xlink:title=" ">
<path fill="none" stroke="#63b8ff" d="M129.43,-57.91C138.23,-48.9 148.08,-38.82 155.89,-30.83"/>
<polygon fill="#63b8ff" stroke="#63b8ff" points="126.96,-55.43 122.48,-65.03 131.97,-60.32 126.96,-55.43"/>
</a>
</g>
</g>
</g>
</svg>
