<?xml version="1.0" encoding="UTF-8" standalone="no"?>
<!DOCTYPE svg PUBLIC "-//W3C//DTD SVG 1.1//EN"
 "http://www.w3.org/Graphics/SVG/1.1/DTD/svg11.dtd">
<!-- Generated by graphviz version 9.0.0 (20230911.1827)
 -->
<!-- Title: engine::direct3d::RenderTargetMS Pages: 1 -->
<!--zoomable 158 -->

<svg id="main" version="1.1" xmlns="http://www.w3.org/2000/svg" xmlns:xlink="http://www.w3.org/1999/xlink" xml:space="preserve" onload="init(evt)">
<style type="text/css"><![CDATA[
.node, .edge {opacity: 0.7;}
.node.selected, .edge.selected {opacity: 1;}
.edge:hover path { stroke: red; }
.edge:hover polygon { stroke: red; fill: red; }
]]></style>

<defs>
  <circle id="rim" cx="0" cy="0" r="7"/>
  <circle id="rim2" cx="0" cy="0" r="3.5"/>
  <g id="zoomPlus">
    <use xlink:href="#rim" fill="#404040"><set attributeName="fill" to="#808080" begin="zoomplus.mouseover" end="zoomplus.mouseout"/></use>
    <path d="M-4,0h8M0,-4v8" fill="none" stroke="white" stroke-width="1.5" pointer-events="none"/>
  </g>
  <g id="zoomMin">
    <use xlink:href="#rim" fill="#404040"><set attributeName="fill" to="#808080" begin="zoomminus.mouseover" end="zoomminus.mouseout"/></use>
    <path d="M-4,0h8" fill="none" stroke="white" stroke-width="1.5" pointer-events="none"/>
  </g>
  <g id="arrowUp" transform="translate(30 24)">
    <use xlink:href="#rim"/>
    <path pointer-events="none" fill="none" stroke="white" stroke-width="1.5" d="M0,-3.0v7 M-2.5,-0.5L0,-3.0L2.5,-0.5"/>
  </g>
  <g id="arrowRight" transform="rotate(90) translate(36 -43)">
    <use xlink:href="#rim"/>
    <path pointer-events="none" fill="none" stroke="white" stroke-width="1.5" d="M0,-3.0v7 M-2.5,-0.5L0,-3.0L2.5,-0.5"/>
  </g>
  <g id="arrowDown" transform="rotate(180) translate(-30 -48)">
    <use xlink:href="#rim"/>
    <path pointer-events="none" fill="none" stroke="white" stroke-width="1.5" d="M0,-3.0v7 M-2.5,-0.5L0,-3.0L2.5,-0.5"/>
  </g>
  <g id="arrowLeft" transform="rotate(270) translate(-36 17)">
    <use xlink:href="#rim"/>
    <path pointer-events="none" fill="none" stroke="white" stroke-width="1.5" d="M0,-3.0v7 M-2.5,-0.5L0,-3.0L2.5,-0.5"/>
  </g>
  <g id="resetDef">
    <use xlink:href="#rim2" fill="#404040"><set attributeName="fill" to="#808080" begin="reset.mouseover" end="reset.mouseout"/></use>
  </g>
</defs>
<script type="application/ecmascript">
var viewWidth = 615;
var viewHeight = 158;
var sectionId = 'dynsection-1';
</script>
<script type="application/ecmascript" xlink:href="../../svg.min.js"/>
<svg id="graph" class="graph">
<g id="viewport">
<title>engine::direct3d::RenderTargetMS</title>
<!-- Node1 -->
<g id="Node000001" class="node">
<title>Node1</title>
<g id="a_Node000001"><a xlink:title=" ">
<polygon fill="#999999" stroke="#666666" points="607,-96.12 488.25,-96.12 488.25,-65.62 607,-65.62 607,-96.12"/>
<text text-anchor="start" x="496.25" y="-82.62" font-family="Helvetica,sans-Serif" font-size="10.00">engine::direct3d::Render</text>
<text text-anchor="middle" x="547.62" y="-71.38" font-family="Helvetica,sans-Serif" font-size="10.00">TargetMS</text>
</a>
</g>
</g>
<!-- Node2 -->
<g id="Node000002" class="node">
<title>Node2</title>
<g id="a_Node000002"><a xlink:href="../../df/de1/classengine_1_1direct3d_1_1_render_target_base.html" target="_top" xlink:title="The render target base class.">
<polygon fill="white" stroke="#666666" points="451.25,-96.12 332.5,-96.12 332.5,-65.62 451.25,-65.62 451.25,-96.12"/>
<text text-anchor="start" x="340.5" y="-82.62" font-family="Helvetica,sans-Serif" font-size="10.00">engine::direct3d::Render</text>
<text text-anchor="middle" x="391.88" y="-71.38" font-family="Helvetica,sans-Serif" font-size="10.00">TargetBase</text>
</a>
</g>
</g>
<!-- Node2&#45;&gt;Node1 -->
<g id="edge1_Node000001_Node000002" class="edge">
<title>Node2&#45;&gt;Node1</title>
<g id="a_edge1_Node000001_Node000002"><a xlink:title=" ">
<path fill="none" stroke="#63b8ff" d="M462.8,-80.88C471.22,-80.88 479.74,-80.88 487.97,-80.88"/>
<polygon fill="#63b8ff" stroke="#63b8ff" points="462.95,-77.38 452.95,-80.88 462.95,-84.38 462.95,-77.38"/>
</a>
</g>
</g>
<!-- Node3 -->
<g id="Node000003" class="node">
<title>Node3</title>
<g id="a_Node000003"><a xlink:href="../../df/d47/classengine_1_1direct3d_1_1d3d__resource__wrapper.html" target="_top" xlink:title=" ">
<polygon fill="white" stroke="#666666" points="191.5,-150.12 0,-150.12 0,-119.62 191.5,-119.62 191.5,-150.12"/>
<text text-anchor="start" x="8" y="-136.62" font-family="Helvetica,sans-Serif" font-size="10.00">engine::direct3d::d3d</text>
<text text-anchor="middle" x="95.75" y="-125.38" font-family="Helvetica,sans-Serif" font-size="10.00">_resource_wrapper&lt; ID3D11Texture2D &gt;</text>
</a>
</g>
</g>
<!-- Node3&#45;&gt;Node2 -->
<g id="edge2_Node000002_Node000003" class="edge">
<title>Node3&#45;&gt;Node2</title>
<g id="a_edge2_Node000002_Node000003"><a xlink:title=" ">
<path fill="none" stroke="#9a32cd" stroke-dasharray="5,2" d="M197.83,-117.13C234.59,-110.59 276.44,-103.02 314.5,-95.88 320.21,-94.8 326.16,-93.67 332.1,-92.52"/>
<polygon fill="#9a32cd" stroke="#9a32cd" points="197.32,-113.67 188.09,-118.87 198.55,-120.56 197.32,-113.67"/>
</a>
</g>
<text text-anchor="middle" x="262" y="-115.62" font-family="Helvetica,sans-Serif" font-size="10.00" fill="grey"> render_target_</text>
</g>
<!-- Node4 -->
<g id="Node000004" class="node">
<title>Node4</title>
<g id="a_Node000004"><a xlink:href="../../df/d47/classengine_1_1direct3d_1_1d3d__resource__wrapper.html" target="_top" xlink:title=" ">
<polygon fill="white" stroke="#666666" points="180.62,-101.75 10.88,-101.75 10.88,-60 180.62,-60 180.62,-101.75"/>
<text text-anchor="start" x="18.88" y="-88.25" font-family="Helvetica,sans-Serif" font-size="10.00">engine::direct3d::d3d</text>
<text text-anchor="start" x="18.88" y="-77" font-family="Helvetica,sans-Serif" font-size="10.00">_resource_wrapper&lt; ID3D11Render</text>
<text text-anchor="middle" x="95.75" y="-65.75" font-family="Helvetica,sans-Serif" font-size="10.00">TargetView &gt;</text>
</a>
</g>
</g>
<!-- Node4&#45;&gt;Node2 -->
<g id="edge3_Node000002_Node000004" class="edge">
<title>Node4&#45;&gt;Node2</title>
<g id="a_edge3_Node000002_Node000004"><a xlink:title=" ">
<path fill="none" stroke="#9a32cd" stroke-dasharray="5,2" d="M192.27,-80.88C238.39,-80.88 292.25,-80.88 332.24,-80.88"/>
<polygon fill="#9a32cd" stroke="#9a32cd" points="192.55,-77.38 182.55,-80.88 192.55,-84.38 192.55,-77.38"/>
</a>
</g>
<text text-anchor="middle" x="262" y="-82.62" font-family="Helvetica,sans-Serif" font-size="10.00" fill="grey"> render_target_view_</text>
</g>
<!-- Node5 -->
<g id="Node000005" class="node">
<title>Node5</title>
<g id="a_Node000005"><a xlink:href="../../df/d47/classengine_1_1direct3d_1_1d3d__resource__wrapper.html" target="_top" xlink:title=" ">
<polygon fill="white" stroke="#666666" points="180.62,-41.75 10.88,-41.75 10.88,0 180.62,0 180.62,-41.75"/>
<text text-anchor="start" x="18.88" y="-28.25" font-family="Helvetica,sans-Serif" font-size="10.00">engine::direct3d::d3d</text>
<text text-anchor="start" x="18.88" y="-17" font-family="Helvetica,sans-Serif" font-size="10.00">_resource_wrapper&lt; ID3D11Shader</text>
<text text-anchor="middle" x="95.75" y="-5.75" font-family="Helvetica,sans-Serif" font-size="10.00">ResourceView &gt;</text>
</a>
</g>
</g>
<!-- Node5&#45;&gt;Node2 -->
<g id="edge4_Node000002_Node000005" class="edge">
<title>Node5&#45;&gt;Node2</title>
<g id="a_edge4_Node000002_Node000005"><a xlink:title=" ">
<path fill="none" stroke="#9a32cd" stroke-dasharray="5,2" d="M192.27,-40.36C238.39,-49.77 292.25,-60.76 332.24,-68.91"/>
<polygon fill="#9a32cd" stroke="#9a32cd" points="193.02,-36.94 182.52,-38.37 191.62,-43.8 193.02,-36.94"/>
</a>
</g>
<text text-anchor="middle" x="262" y="-65.62" font-family="Helvetica,sans-Serif" font-size="10.00" fill="grey"> shader_resource_view_</text>
</g>
</g>
</svg>

<g id="navigator" transform="translate(0 0)" fill="#404254">
  <rect fill="#f2f5e9" fill-opacity="0.5" stroke="#606060" stroke-width=".5" x="0" y="0" width="60" height="60"/>
  <use id="zoomplus" xlink:href="#zoomPlus" x="17" y="9" onmousedown="handleZoom(evt,'in')"/>
  <use id="zoomminus" xlink:href="#zoomMin" x="42" y="9" onmousedown="handleZoom(evt,'out')"/>
  <use id="reset" xlink:href="#resetDef" x="30" y="36" onmousedown="handleReset()"/>
   <use id="arrowup" xlink:href="#arrowUp" x="0" y="0" onmousedown="handlePan(0,-1)"/>
  <use id="arrowright" xlink:href="#arrowRight" x="0" y="0" onmousedown="handlePan(1,0)"/>
  <use id="arrowdown" xlink:href="#arrowDown" x="0" y="0" onmousedown="handlePan(0,1)"/>
  <use id="arrowleft" xlink:href="#arrowLeft" x="0" y="0" onmousedown="handlePan(-1,0)"/>
</g>
<svg viewBox="0 0 15 15" width="100%" height="30px" preserveAspectRatio="xMaxYMin meet">
 <g id="arrow_out" transform="scale(0.3 0.3)">
  <a xlink:href="classengine_1_1direct3d_1_1_render_target_m_s__coll__graph_org.svg" target="_base">
   <rect id="button" ry="5" rx="5" y="6" x="6" height="38" width="38"
        fill="#f2f5e9" fill-opacity="0.5" stroke="#606060" stroke-width="1.0"/>
   <path id="arrow"
     d="M 11.500037,31.436501 C 11.940474,20.09759 22.043105,11.32322 32.158766,21.979434 L 37.068811,17.246167 C 37.068811,17.246167 37.088388,32 37.088388,32 L 22.160133,31.978069 C 22.160133,31.978069 26.997745,27.140456 26.997745,27.140456 C 18.528582,18.264221 13.291696,25.230495 11.500037,31.436501 z"
     style="fill:#404040;"/>
  </a>
 </g>
</svg>

<style type='text/css'>
<![CDATA[
[data-mouse-over-selected='false'] { opacity: 0.7; }
[data-mouse-over-selected='true']  { opacity: 1.0; }
]]>
</style>
<script type="application/ecmascript"><![CDATA[
document.addEventListener('DOMContentLoaded', (event) => {
  highlightEdges();
  highlightAdjacentNodes();
});
]]></script>
</svg>
