<?xml version="1.0" encoding="UTF-8" standalone="no"?>
<!DOCTYPE svg PUBLIC "-//W3C//DTD SVG 1.1//EN"
 "http://www.w3.org/Graphics/SVG/1.1/DTD/svg11.dtd">
<!-- Generated by graphviz version 8.1.0 (20230707.0739)
 -->
<!-- Title: engine::direct3d::RenderTargetMS Pages: 1 -->
<svg width="615pt" height="158pt"
 viewBox="0.00 0.00 615.00 158.12" xmlns="http://www.w3.org/2000/svg" xmlns:xlink="http://www.w3.org/1999/xlink">
<g id="graph0" class="graph" transform="scale(1 1) rotate(0) translate(4 154.12)">
<title>engine::direct3d::RenderTargetMS</title>
<!-- Node1 -->
<g id="Node000001" class="node">
<title>Node1</title>
<g id="a_Node000001"><a xlink:title=" ">
<polygon fill="#999999" stroke="#666666" points="607,-96.12 488.25,-96.12 488.25,-65.62 607,-65.62 607,-96.12"/>
<text text-anchor="start" x="496.25" y="-82.62" font-family="Helvetica,sans-Serif" font-size="10.00">engine::direct3d::Render</text>
<text text-anchor="middle" x="547.62" y="-71.38" font-family="Helvetica,sans-Serif" font-size="10.00">TargetMS</text>
</a>
</g>
</g>
<!-- Node2 -->
<g id="Node000002" class="node">
<title>Node2</title>
<g id="a_Node000002"><a xlink:href="../../df/de1/classengine_1_1direct3d_1_1_render_target_base.html" target="_top" xlink:title="The render target base class.">
<polygon fill="white" stroke="#666666" points="451.25,-96.12 332.5,-96.12 332.5,-65.62 451.25,-65.62 451.25,-96.12"/>
<text text-anchor="start" x="340.5" y="-82.62" font-family="Helvetica,sans-Serif" font-size="10.00">engine::direct3d::Render</text>
<text text-anchor="middle" x="391.88" y="-71.38" font-family="Helvetica,sans-Serif" font-size="10.00">TargetBase</text>
</a>
</g>
</g>
<!-- Node2&#45;&gt;Node1 -->
<g id="edge1_Node000001_Node000002" class="edge">
<title>Node2&#45;&gt;Node1</title>
<g id="a_edge1_Node000001_Node000002"><a xlink:title=" ">
<path fill="none" stroke="#63b8ff" d="M462.23,-80.88C470.83,-80.88 479.55,-80.88 487.97,-80.88"/>
<polygon fill="#63b8ff" stroke="#63b8ff" points="462.44,-77.38 452.44,-80.88 462.44,-84.38 462.44,-77.38"/>
</a>
</g>
</g>
<!-- Node3 -->
<g id="Node000003" class="node">
<title>Node3</title>
<g id="a_Node000003"><a xlink:href="../../df/d47/classengine_1_1direct3d_1_1d3d__resource__wrapper.html" target="_top" xlink:title=" ">
<polygon fill="white" stroke="#666666" points="191.5,-150.12 0,-150.12 0,-119.62 191.5,-119.62 191.5,-150.12"/>
<text text-anchor="start" x="8" y="-136.62" font-family="Helvetica,sans-Serif" font-size="10.00">engine::direct3d::d3d</text>
<text text-anchor="middle" x="95.75" y="-125.38" font-family="Helvetica,sans-Serif" font-size="10.00">_resource_wrapper&lt; ID3D11Texture2D &gt;</text>
</a>
</g>
</g>
<!-- Node3&#45;&gt;Node2 -->
<g id="edge2_Node000002_Node000003" class="edge">
<title>Node3&#45;&gt;Node2</title>
<g id="a_edge2_Node000002_Node000003"><a xlink:title=" ">
<path fill="none" stroke="#9a32cd" stroke-dasharray="5,2" d="M197.36,-117.22C234.23,-110.65 276.28,-103.05 314.5,-95.88 320.21,-94.8 326.16,-93.67 332.1,-92.52"/>
<polygon fill="#9a32cd" stroke="#9a32cd" points="196.83,-113.93 187.6,-119.13 198.06,-120.83 196.83,-113.93"/>
</a>
</g>
<text text-anchor="middle" x="262" y="-115.62" font-family="Helvetica,sans-Serif" font-size="10.00" fill="grey"> render_target_</text>
</g>
<!-- Node4 -->
<g id="Node000004" class="node">
<title>Node4</title>
<g id="a_Node000004"><a xlink:href="../../df/d47/classengine_1_1direct3d_1_1d3d__resource__wrapper.html" target="_top" xlink:title=" ">
<polygon fill="white" stroke="#666666" points="180.62,-101.75 10.88,-101.75 10.88,-60 180.62,-60 180.62,-101.75"/>
<text text-anchor="start" x="18.88" y="-88.25" font-family="Helvetica,sans-Serif" font-size="10.00">engine::direct3d::d3d</text>
<text text-anchor="start" x="18.88" y="-77" font-family="Helvetica,sans-Serif" font-size="10.00">_resource_wrapper&lt; ID3D11Render</text>
<text text-anchor="middle" x="95.75" y="-65.75" font-family="Helvetica,sans-Serif" font-size="10.00">TargetView &gt;</text>
</a>
</g>
</g>
<!-- Node4&#45;&gt;Node2 -->
<g id="edge3_Node000002_Node000004" class="edge">
<title>Node4&#45;&gt;Node2</title>
<g id="a_edge3_Node000002_Node000004"><a xlink:title=" ">
<path fill="none" stroke="#9a32cd" stroke-dasharray="5,2" d="M191.98,-80.88C238.16,-80.88 292.16,-80.88 332.24,-80.88"/>
<polygon fill="#9a32cd" stroke="#9a32cd" points="192.03,-77.38 182.03,-80.88 192.03,-84.38 192.03,-77.38"/>
</a>
</g>
<text text-anchor="middle" x="262" y="-82.62" font-family="Helvetica,sans-Serif" font-size="10.00" fill="grey"> render_target_view_</text>
</g>
<!-- Node5 -->
<g id="Node000005" class="node">
<title>Node5</title>
<g id="a_Node000005"><a xlink:href="../../df/d47/classengine_1_1direct3d_1_1d3d__resource__wrapper.html" target="_top" xlink:title=" ">
<polygon fill="white" stroke="#666666" points="180.62,-41.75 10.88,-41.75 10.88,0 180.62,0 180.62,-41.75"/>
<text text-anchor="start" x="18.88" y="-28.25" font-family="Helvetica,sans-Serif" font-size="10.00">engine::direct3d::d3d</text>
<text text-anchor="start" x="18.88" y="-17" font-family="Helvetica,sans-Serif" font-size="10.00">_resource_wrapper&lt; ID3D11Shader</text>
<text text-anchor="middle" x="95.75" y="-5.75" font-family="Helvetica,sans-Serif" font-size="10.00">ResourceView &gt;</text>
</a>
</g>
</g>
<!-- Node5&#45;&gt;Node2 -->
<g id="edge4_Node000002_Node000005" class="edge">
<title>Node5&#45;&gt;Node2</title>
<g id="a_edge4_Node000002_Node000005"><a xlink:title=" ">
<path fill="none" stroke="#9a32cd" stroke-dasharray="5,2" d="M191.69,-40.24C237.93,-49.68 292.08,-60.72 332.24,-68.91"/>
<polygon fill="#9a32cd" stroke="#9a32cd" points="192.53,-36.64 182.03,-38.07 191.13,-43.5 192.53,-36.64"/>
</a>
</g>
<text text-anchor="middle" x="262" y="-65.62" font-family="Helvetica,sans-Serif" font-size="10.00" fill="grey"> shader_resource_view_</text>
</g>
</g>
</svg>
